<svg id="Capa_1" data-name="Capa 1" xmlns="http://www.w3.org/2000/svg" xmlns:xlink="http://www.w3.org/1999/xlink" width="50" height="50" viewBox="0 0 50 50">
  <defs>
    <clipPath id="clip-path">
      <polygon points="24.04 49.76 1.26 39.47 1.42 9.17 24.2 19.46 24.04 49.76" fill="none"/>
    </clipPath>
    <clipPath id="clip-path-2">
      <polygon points="24.2 19.46 1.42 9.17 25.96 0.24 48.75 10.53 24.2 19.46" fill="none"/>
    </clipPath>
    <clipPath id="clip-path-3">
      <polygon points="48.75 10.53 48.59 40.82 24.04 49.76 24.2 19.46 48.75 10.53" fill="none"/>
    </clipPath>
  </defs>
  <g id="Figment_lido">
    <g style="isolation: isolate">
      <g>
        <polygon points="24.04 49.76 1.26 39.47 1.42 9.17 24.2 19.46 24.04 49.76" fill="#c7c5c1"/>
        <g style="isolation: isolate">
          <g clip-path="url(#clip-path)">
            <g>
              <path d="M5.63,15.92c-.3-.13-.37-.07-.37.33,0,3.26,0,6.52-.07,9.77l1.89.89L9,27.72,9,25.2c-.39-.18-.77-.37-1.16-.54l-.18-.09-.18-.08h0l-.11-.05-.27-.13V22.86a2.35,2.35,0,0,1,0-.28v-.81l.74.32.71.31.47.19L9,17.5l-1.71-.78c-.57-.26-1.14-.52-1.7-.8" fill="#a01a37"/>
              <path d="M20,22.49c-.57-.24-1.14-.5-1.71-.76L16.58,21l0,5.09.87.42.29.13.36.16h0l.06,0,.35.16,0,2.57-1-.45L17,28.84l-.47-.19,0,2.52,1.89.91,1.88.84c0-3.26.05-6.52.09-9.77,0-.4-.06-.52-.36-.66" fill="#a01a37"/>
              <path d="M14.7,20.09l-3.77-1.73-.06,5.12V26l3.76,1.72c0-.84,0-1.68,0-2.52l0-5.13" fill="#a01a37"/>
              <path d="M10.93,18.36,9,17.5l0,5.09,1.33.63.53.24v0h0l.06-5.12" fill="#295c7e"/>
              <path d="M16.58,21l-1.88-.86c0,1.71,0,3.42,0,5.13l1.86.82,0-5.09" fill="#295c7e"/>
              <path d="M14.55,38l-3.76-1.72v0h0c0,.85,0,1.71,0,2.56l3.77,1.72c0-.84,0-1.7,0-2.55h0v0" fill="#0adc73"/>
              <path d="M5.19,26l0,2.55c.63.3,1.25.59,1.88.87h0l0-2.53L5.19,26" fill="#295c7e"/>
              <path d="M20.27,32.92l-1.88-.84c0,.84,0,1.68,0,2.53h0l1.88.85,0-2.55" fill="#295c7e"/>
              <path d="M5.17,28.57l0,2.57L7,32v0H7c0-.84,0-1.7,0-2.55-.63-.28-1.25-.57-1.88-.87m1.88.86h0" fill="#a01a37"/>
              <path d="M5.15,31.14l0,2.56L7,34.56,7,32l-1.88-.87M7,32v0" fill="#295c7e"/>
              <path d="M18.35,37.17h0c0,.85,0,1.7,0,2.55l1.89.87,0-2.57-1.88-.86" fill="#295c7e"/>
              <path d="M7,34.56,5.13,33.7c0,.75,0,1.5,0,2.24,0,.26,0,.34.21.42l0,0,.71.31.94.43,0-2.54H7v0" fill="#a01a37"/>
              <path d="M8.89,35.41,7,34.58l0,2.54L8.87,38l0-2.56h0v0" fill="#0adc73"/>
              <path d="M10.77,36.29,8.9,35.43l0,2.56,1.89.86c0-.85,0-1.71,0-2.56" fill="#a01a37"/>
              <path d="M20.25,35.47l-1.88-.85,0,2.55,1.88.86,0-2.56" fill="#a01a37"/>
              <path d="M16.43,38.88,14.55,38c0,.85,0,1.71,0,2.55l1.88.86c0-.84,0-1.7,0-2.55" fill="#a01a37"/>
              <path d="M16.44,38.87h0c0,.85,0,1.71,0,2.55l1.89.87c0-.85,0-1.7,0-2.55l-1.87-.88" fill="#0adc73"/>
              <path d="M20.21,40.6l-1.89-.87v0h0c0,.85,0,1.7,0,2.55l.95.42.7.34,0,0c.17.08.21,0,.21-.24,0-.76,0-1.5,0-2.24" fill="#a01a37"/>
              <path d="M14.63,27.74,10.87,26h0l-.64-.29L9,25.2l0,2.52,1.88.9,3.77,1.73,1.89.82,0-2.52-1-.47-.84-.39v0l-.06,0" fill="#295c7e"/>
              <path d="M7.05,29.43h0M9,27.72l-1.88-.81,0,2.53,1,.44.47.22h0l.1.05,0,0,.35.15,0,2.56,1.82.83c0-.85,0-1.7,0-2.55V28.62L9,27.72" fill="#0adc73"/>
              <path d="M10.2,25.73l-2.87-1.3.11.05h0l.18.08.18.09c.39.17.77.36,1.16.54l1.22.53M7.08,22.58a2.35,2.35,0,0,0,0,.28v-.28m3.78.9,0,2.53h0V23.48h0M9,22.59l-.47-.19-.71-.31,2.51,1.13L9,22.59" fill="#0adc73"/>
              <path d="M16.5,31.17l-1.89-.82c0,.84,0,1.68,0,2.52s0,1.72,0,2.58l1.88.86v0h0l0-2.55,1.89.84v0l0,0c0-.85,0-1.69,0-2.53l-1.89-.91" fill="#0adc73"/>
              <path d="M17.5,29.07l-2-.89,1,.47.47.19.51.23m-1-3-1.86-.82h0c0,.84,0,1.68,0,2.52l.06,0,0-2.51,3.43,1.53-.06,0h0l-.36-.16-.29-.13L16.54,26" fill="#0adc73"/>
              <path d="M14.57,35.45l-3.76-1.72,0,2.55L14.55,38l0-2.55" fill="#a01a37"/>
              <path d="M8.91,32.86l-.6-.27.6.28h0m-.39-2.75h0L8,29.88l-1-.44h0c0,.85,0,1.71,0,2.55l0,0,0-2.53,1.55.69,0,0-.1-.05" fill="#295c7e"/>
              <path d="M7,32v0l0,2.55v0l1.88.83,0-2.54-.6-.28L7.08,32h0l0,0H7" fill="#a01a37"/>
              <path d="M18.34,37.18l-1.88-.86,0,2.55,1.87.88h0v0c0-.85,0-1.7,0-2.55" fill="#a01a37"/>
              <path d="M10.8,33.72,9,32.89l-.07,0,0,2.57,1.9.87v0l0-2.55h0" fill="#295c7e"/>
              <path d="M18.37,34.61h0l0,0,0,2.54-1.85-.84v0h0l1.89.86h0l0-2.55h0" fill="#295c7e"/>
              <path d="M16.46,36.31h0l-1.88-.86h0l0,2.57,1.88.86h0l0-2.55h0" fill="#295c7e"/>
              <path d="M14.61,30.35l-3.77-1.73v2.55l3.73,1.7c0-.84,0-1.68,0-2.52" fill="#a01a37"/>
              <path d="M14.57,32.87l-3.73-1.7c0,.85,0,1.7,0,2.55h0l3.76,1.72h0c0-.86,0-1.72,0-2.58" fill="#295c7e"/>
              <path d="M18.33,34.57l-1.89-.84,0,2.55h0l1.85.84,0-2.54v0" fill="#295c7e"/>
              <path d="M9,30.33l-.35-.15L7.1,29.49l0,2.53h0l1.23.56.6.27.07,0,0-2.56" fill="#295c7e"/>
              <path d="M10.86,23.46l-.53-.24L7.82,22.09l-.74-.32V24.3l.27.13,2.87,1.3.64.29h0l0-2.53v0" fill="#0adc73"/>
              <path d="M18.5,27l-.35-.16-3.43-1.53,0,2.51v0l.84.39,2,.89,1,.45,0-2.57" fill="#0adc73"/>
            </g>
          </g>
        </g>
      </g>
      <g>
        <polygon points="24.2 19.46 1.42 9.17 25.96 0.24 48.75 10.53 24.2 19.46" fill="#dad8d4"/>
        <g style="isolation: isolate">
          <g clip-path="url(#clip-path-2)">
            <g>
              <path d="M9.61,9.32c-.33.12-.34.18,0,.31,2.42,1.08,4.81,2.16,7.21,3.25l2.09-.75,2-.77-1.85-.84c-.43.15-.87.3-1.29.46l-.2.07-.2.07h0l-.12,0-.3.11-.84-.37-.23-.11-.2-.09-.6-.27.8-.3.78-.29.5-.2L13.38,8l-1.87.69-1.9.67" fill="#a01a37"/>
              <path d="M25.45,3.56l-1.87.69-1.88.68,3.75,1.7,1-.34.31-.12.4-.15h0l.07,0,.39-.14,1.88.85-1.08.39-.55.21-.5.2,1.85.83,2.12-.74,2.06-.76L26.21,3.58a.79.79,0,0,0-.76,0" fill="#a01a37"/>
              <path d="M19.62,5.69,15.46,7.2l3.76,1.71,1.88.84,4.15-1.51-1.84-.85-3.79-1.7" fill="#a01a37"/>
              <path d="M15.46,7.2,13.38,8l3.76,1.69,1.48-.52.58-.22h0L15.46,7.2" fill="#295c7e"/>
              <path d="M21.7,4.93l-2.08.76,3.8,1.7,2-.76L21.7,4.93" fill="#295c7e"/>
              <path d="M32.81,11.65l-4.15,1.51h0l1.89.84L34.7,12.5l-1.87-.85h0" fill="#0adc73"/>
              <path d="M16.78,12.88l1.88.85L20.73,13h0l-1.87-.84-2.09.75" fill="#295c7e"/>
              <path d="M33.4,6.83l-2.06.76,1.85.85h0l2.07-.75L33.4,6.83" fill="#295c7e"/>
              <path d="M18.66,13.73l1.88.85,2.08-.75h0L20.73,13l-2.07.76M20.73,13h0" fill="#a01a37"/>
              <path d="M20.54,14.58l1.89.85,2.07-.75-1.88-.85-2.08.75m2.07-.76h0" fill="#295c7e"/>
              <path d="M35.09,9.28h0c.63.28,1.27.56,1.89.85l2.08-.76-1.89-.85-2.07.75" fill="#295c7e"/>
              <path d="M24.5,14.68l-2.07.75c.55.25,1.11.49,1.65.75a.49.49,0,0,0,.47,0h0l.77-.29,1-.37-1.86-.85h0" fill="#a01a37"/>
              <path d="M26.57,13.92l-2,.76,1.86.85,2.08-.76-1.87-.85h0" fill="#0adc73"/>
              <path d="M28.66,13.17l-2.06.75,1.87.85L30.55,14l-1.89-.84" fill="#a01a37"/>
              <path d="M35.28,7.68l-2.07.75,1.88.85,2.07-.75-1.88-.85" fill="#a01a37"/>
              <path d="M34.89,10.9l-2.06.75,1.87.85,2.08-.75c-.62-.29-1.26-.57-1.89-.85" fill="#a01a37"/>
              <path d="M34.89,10.89h0c.63.28,1.27.56,1.89.85L38.86,11,37,10.15l-2.08.74" fill="#0adc73"/>
              <path d="M39.05,9.38,37,10.14h0l1.89.84,1-.38.79-.28h0c.2-.07.19-.11,0-.2-.58-.24-1.11-.49-1.66-.74" fill="#a01a37"/>
              <path d="M25.25,8.24,21.1,9.75h0l-.71.26-1.32.5,1.85.84L23,10.61,27.17,9.1l2-.77L27.37,7.5l-1.11.38-.92.34h0l-.07,0" fill="#295c7e"/>
              <path d="M20.73,13h0m.18-1.61-2,.77,1.87.84,1.06-.38.52-.2h0l.12,0h0l.38-.15,1.88.85,2-.73-1.86-.86L23,10.61l-2.11.75" fill="#0adc73"/>
              <path d="M20.38,10l-3.15,1.15.12,0h0l.2-.07.2-.07c.42-.16.86-.31,1.29-.46l1.32-.5m-4.72.69.2.09.23.11-.43-.2m3.55-1.79,1.87.84h0l-1.88-.84h0m-2.07.73-.5.2-.78.29,2.76-1-1.48.52" fill="#0adc73"/>
              <path d="M29.22,8.33l-2,.77L29,10l1.91.85L33,10H33L31.08,9.2l2.06-.76h0l-1.85-.85-2.12.74" fill="#0adc73"/>
              <path d="M28.42,7.09l-2.16.79,1.11-.38.5-.2.55-.21m-3-.46-2,.76h0l1.84.85.07,0-1.85-.83L27.23,6l-.07,0h0l-.4.15-.31.12-1,.34" fill="#0adc73"/>
              <path d="M30.93,10.8l-4.14,1.51,1.87.85,4.15-1.51-1.88-.85" fill="#a01a37"/>
              <path d="M24.69,13.07l-.66.24.67-.24h0m-2.34-.69h0l-.52.2L20.74,13h0l1.89.85.05,0L20.81,13l1.69-.62h0l-.12,0" fill="#295c7e"/>
              <path d="M22.61,13.82h0l1.88.85h0l2.05-.76-1.87-.85-.67.24-1.35.49h0l-.05,0h0" fill="#a01a37"/>
              <path d="M35.08,9.29,33,10l1.87.85L37,10.15h0c-.62-.29-1.26-.57-1.89-.85" fill="#a01a37"/>
              <path d="M26.77,12.31l-2,.73-.07,0,1.89.85,2.09-.76h0l-1.87-.85h0" fill="#295c7e"/>
              <path d="M33.2,8.43h0L35,9.29,33,10h0l2.08-.75h0l-1.88-.85h0" fill="#295c7e"/>
              <path d="M33,10h0l-2.08.76h0l1.89.85,2.07-.75h0L33,10h0" fill="#295c7e"/>
              <path d="M27.17,9.1,23,10.61l1.89.84L29,10,27.17,9.1" fill="#a01a37"/>
              <path d="M29,10l-4.11,1.5,1.86.86h0l4.14-1.51h0L29,10" fill="#295c7e"/>
              <path d="M33.14,8.44l-2.06.76,1.87.85h0l2-.75-1.87-.84h0" fill="#295c7e"/>
              <path d="M22.88,12.19l-.38.15L20.81,13l1.86.84h0L24,13.31l.66-.24.07,0-1.88-.85" fill="#295c7e"/>
              <path d="M19.2,8.91l-.58.22-2.76,1-.8.3.6.27.43.2.84.37.3-.11L20.38,10l.71-.26h0l-1.87-.84h0" fill="#0adc73"/>
              <path d="M27.62,5.85,27.23,6,23.47,7.38l1.85.83h0l.92-.34,2.16-.79L29.5,6.7l-1.88-.85" fill="#0adc73"/>
            </g>
          </g>
        </g>
      </g>
      <g>
        <polygon points="48.75 10.53 48.59 40.82 24.04 49.76 24.2 19.46 48.75 10.53" fill="#dfddd8"/>
        <g style="isolation: isolate">
          <g clip-path="url(#clip-path-3)">
            <g>
              <path d="M28.53,22.76c-.33.11-.4.23-.41.63,0,3.25,0,6.52,0,9.78l2.08-.73,2.07-.81V29.12c-.42.15-.85.28-1.27.44l-.2.07-.2.08h0l-.11,0-.3.11V28.73c0-.11,0-.22,0-.31a2.62,2.62,0,0,1,0-.29v-.81L31,27l.79-.31.52-.21,0-5.1-1.88.69-1.88.67" fill="#a01a37"/>
              <path d="M44.37,17l-1.88.71-1.89.68,0,5.1,1-.33.32-.11.4-.16h0l.06,0,.4-.14,0,2.56-1.08.4-.56.21-.52.21v2.52l2.08-.71,2.08-.78q0-4.89.06-9.78c0-.41-.07-.47-.4-.35" fill="#a01a37"/>
              <path d="M38.52,19.13l-4.15,1.51c0,1.72,0,3.43,0,5.14v2.53l4.15-1.51c0-.85,0-1.69,0-2.54V19.13" fill="#a01a37"/>
              <path d="M34.37,20.64l-2.08.76,0,5.1L33.73,26l.59-.22v0h0c0-1.71,0-3.42,0-5.14" fill="#295c7e"/>
              <path d="M40.6,18.38l-2.08.75v5.13c.69-.27,1.37-.53,2.06-.78l0-5.1" fill="#295c7e"/>
              <path d="M38.43,37.07l-4.15,1.51v0h0c0,.85,0,1.71,0,2.56l4.16-1.51c0-.85,0-1.71,0-2.56h0v0" fill="#0adc73"/>
              <path d="M28.09,33.17l0,2.56L30.15,35h0l0-2.53-2.08.73" fill="#295c7e"/>
              <path d="M44.71,27.12l-2.08.78c0,.85,0,1.69,0,2.54h0l2.07-.76,0-2.56" fill="#295c7e"/>
              <path d="M28.07,35.73v2.56l2.07-.74v0h0c0-.85,0-1.7,0-2.55l-2.08.75M30.15,35h0" fill="#a01a37"/>
              <path d="M28.06,38.29v2.57l2.07-.75V37.55l-2.07.74m2.07-.76v0" fill="#295c7e"/>
              <path d="M42.61,33v0h0v2.56l2.08-.76V32.24L42.61,33" fill="#295c7e"/>
              <path d="M30.12,40.11l-2.07.75c0,.75,0,1.49,0,2.25,0,.27,0,.32.23.24h0l.78-.3,1-.37c0-.85,0-1.7,0-2.55h0" fill="#a01a37"/>
              <path d="M32.19,39.34l-2.06.78c0,.85,0,1.7,0,2.55l2.07-.75c0-.85,0-1.71,0-2.56h0v0" fill="#0adc73"/>
              <path d="M34.27,38.6l-2.07.76c0,.85,0,1.71,0,2.56l2.08-.76c0-.85,0-1.71,0-2.56" fill="#a01a37"/>
              <path d="M44.69,29.68l-2.07.76V33l2.07-.75V29.68" fill="#a01a37"/>
              <path d="M40.5,36.33l-2.06.76c0,.85,0,1.71,0,2.56l2.08-.76V36.33" fill="#a01a37"/>
              <path d="M40.52,36.31v0h0v2.56l2.07-.76c0-.84,0-1.69,0-2.54l-2,.72" fill="#0adc73"/>
              <path d="M44.67,34.81l-2.08.76h0c0,.85,0,1.7,0,2.54l1-.38.78-.27h0c.2-.07.24-.15.23-.42,0-.73,0-1.49,0-2.24" fill="#a01a37"/>
              <path d="M38.48,26.8l-4.15,1.51h0v0l-.7.25-1.35.53v2.51l2.08-.71,4.15-1.51,2.08-.8V26.09l-1.09.37-.92.34v0l-.07,0" fill="#295c7e"/>
              <path d="M30.15,35h0m2.09-3.34-2.07.81,0,2.53,1.06-.38.53-.2h0l.12,0h0l.39-.15v2.56l2-.73c0-.86,0-1.72,0-2.58V30.92l-2.08.71" fill="#0adc73"/>
              <path d="M33.6,28.59l-3.16,1.16.11,0h0l.2-.08.2-.07c.42-.16.85-.29,1.27-.44l1.35-.53m-3.45-.46a2.62,2.62,0,0,0,0,.29c0,.09,0,.2,0,.31v-.6m4.17-2.34,0,2.53h0V25.78h0m-2,.71-.52.21L31,27l2.77-1-1.46.51" fill="#0adc73"/>
              <path d="M40.55,28.61l-2.08.8,0,2.55c0,.85,0,1.7,0,2.55l2.07-.75v0l0,0,0-2.55,2.08-.78v0h0c0-.85,0-1.69,0-2.54l-2.08.71" fill="#0adc73"/>
              <path d="M41.64,25.67l-2.17.79,1.09-.37.52-.21.56-.21m-1.06-2.19c-.69.25-1.37.51-2.06.78h0c0,.85,0,1.69,0,2.54l.07,0V24.26l3.78-1.41-.06,0h0l-.4.16-.32.11-1,.33" fill="#0adc73"/>
              <path d="M38.44,34.52,34.3,36l0,2.55,4.15-1.51V34.52" fill="#a01a37"/>
              <path d="M32.21,36.79l-.66.24.66-.24h0m-.45-2.41h0l-.53.2L30.15,35h0c0,.85,0,1.7,0,2.55l.05,0,0-2.53,1.69-.63h0l-.12,0" fill="#295c7e"/>
              <path d="M30.13,37.53v2.58h0l2.07-.78,0-2.55-.66.24-1.36.5v0l-.05,0h0" fill="#a01a37"/>
              <path d="M42.59,33l-2.06.75v2.55l2-.72h0V33" fill="#a01a37"/>
              <path d="M34.28,36l-2,.73-.07,0,0,2.57,2.09-.76v0l0-2.55h0" fill="#295c7e"/>
              <path d="M42.62,30.43h0l0,2.54-2,.75v0h0L42.61,33V30.44h0" fill="#295c7e"/>
              <path d="M40.53,33.76h0l-2.07.75h0v2.57l2.07-.76h0V33.76h0" fill="#295c7e"/>
              <path d="M38.47,29.41l-4.15,1.51v2.53L38.44,32l0-2.55" fill="#a01a37"/>
              <path d="M38.44,32l-4.12,1.49c0,.86,0,1.72,0,2.58h0l4.14-1.51h0c0-.85,0-1.7,0-2.55" fill="#295c7e"/>
              <path d="M42.58,30.43l-2.08.78,0,2.55,0,0,2-.75,0-2.54v0" fill="#295c7e"/>
              <path d="M32.29,34.2l-.39.15L30.21,35l0,2.53v0l1.36-.5.66-.24.07,0V34.2" fill="#295c7e"/>
              <path d="M34.32,25.77l-.59.22L31,27l-.81.3v2.54l.3-.11,3.16-1.16.7-.25v0l0-2.53v0" fill="#0adc73"/>
              <path d="M42.74,22.71l-.4.14-3.78,1.41V26.8l.92-.34,2.17-.79,1.08-.4,0-2.56" fill="#0adc73"/>
            </g>
          </g>
        </g>
      </g>
    </g>
  </g>
  <g>
    <rect x="46.2" y="41.66" width="1.52" height="1.51" fill="#fff"/>
    <rect x="46.2" y="40.15" width="1.52" height="1.52" fill="#fff"/>
    <rect x="46.2" y="8.34" width="1.52" height="1.51" fill="#fff"/>
    <rect x="46.2" y="6.82" width="1.52" height="1.52" fill="#fff"/>
    <rect x="44.69" y="43.18" width="1.51" height="1.52" fill="#fff"/>
    <rect x="44.69" y="41.66" width="1.51" height="1.51" fill="#ef5454"/>
    <rect x="44.69" y="40.15" width="1.51" height="1.52" fill="#ef5454"/>
    <rect x="44.69" y="38.63" width="1.51" height="1.51" fill="#fff"/>
    <rect x="44.69" y="9.85" width="1.51" height="1.52" fill="#fff"/>
    <rect x="44.69" y="8.34" width="1.51" height="1.51" fill="#aa0707"/>
    <rect x="44.69" y="6.82" width="1.51" height="1.52" fill="#ef5454"/>
    <rect x="44.69" y="5.31" width="1.51" height="1.51" fill="#fff"/>
    <rect x="43.18" y="44.69" width="1.52" height="1.51" fill="#fff"/>
    <rect x="43.18" y="43.18" width="1.52" height="1.52" fill="#aa0707"/>
    <rect x="43.18" y="41.66" width="1.52" height="1.51" fill="#cc1d1d"/>
    <rect x="43.18" y="40.15" width="1.52" height="1.52" fill="#cc1d1d"/>
    <rect x="43.18" y="38.63" width="1.52" height="1.51" fill="#ef5454"/>
    <rect x="43.18" y="37.12" width="1.52" height="1.52" fill="#fff"/>
    <rect x="43.18" y="11.37" width="1.52" height="1.51" fill="#fff"/>
    <rect x="43.18" y="9.85" width="1.52" height="1.52" fill="#aa0707"/>
    <rect x="43.18" y="8.34" width="1.52" height="1.51" fill="#cc1d1d"/>
    <rect x="43.18" y="6.82" width="1.52" height="1.52" fill="#cc1d1d"/>
    <rect x="43.18" y="5.31" width="1.52" height="1.51" fill="#ef5454"/>
    <rect x="43.18" y="3.79" width="1.52" height="1.52" fill="#fff"/>
    <rect x="41.66" y="46.2" width="1.51" height="1.52" fill="#fff"/>
    <rect x="41.66" y="44.69" width="1.51" height="1.51" fill="#aa0707"/>
    <rect x="41.66" y="43.18" width="1.51" height="1.52" fill="#cc1d1d"/>
    <rect x="41.66" y="41.66" width="1.51" height="1.51" fill="#cc1d1d"/>
    <rect x="41.66" y="40.15" width="1.51" height="1.52" fill="#cc1d1d"/>
    <rect x="41.66" y="38.63" width="1.51" height="1.51" fill="#cc1d1d"/>
    <rect x="41.66" y="37.12" width="1.51" height="1.52" fill="#ef5454"/>
    <rect x="41.66" y="35.6" width="1.51" height="1.51" fill="#fff"/>
    <rect x="41.66" y="12.88" width="1.51" height="1.52" fill="#fff"/>
    <rect x="41.66" y="11.37" width="1.51" height="1.51" fill="#aa0707"/>
    <rect x="41.66" y="9.85" width="1.51" height="1.52" fill="#cc1d1d"/>
    <rect x="41.66" y="8.34" width="1.51" height="1.51" fill="#cc1d1d"/>
    <rect x="41.66" y="6.82" width="1.51" height="1.52" fill="#cc1d1d"/>
    <rect x="41.66" y="5.31" width="1.51" height="1.51" fill="#cc1d1d"/>
    <rect x="41.66" y="3.79" width="1.51" height="1.52" fill="#ef5454"/>
    <rect x="41.66" y="2.28" width="1.51" height="1.51" fill="#fff"/>
    <rect x="40.15" y="46.2" width="1.52" height="1.52" fill="#fff"/>
    <rect x="40.15" y="44.69" width="1.52" height="1.51" fill="#aa0707"/>
    <rect x="40.15" y="43.18" width="1.52" height="1.52" fill="#cc1d1d"/>
    <rect x="40.15" y="41.66" width="1.52" height="1.51" fill="#cc1d1d"/>
    <rect x="40.15" y="40.15" width="1.52" height="1.52" fill="#cc1d1d"/>
    <rect x="40.15" y="38.63" width="1.52" height="1.51" fill="#cc1d1d"/>
    <rect x="40.15" y="37.12" width="1.52" height="1.52" fill="#cc1d1d"/>
    <rect x="40.15" y="35.6" width="1.52" height="1.51" fill="#ef5454"/>
    <rect x="40.15" y="34.09" width="1.52" height="1.51" fill="#fff"/>
    <rect x="40.15" y="14.4" width="1.52" height="1.51" fill="#fff"/>
    <rect x="40.15" y="12.88" width="1.52" height="1.52" fill="#aa0707"/>
    <rect x="40.15" y="11.37" width="1.52" height="1.51" fill="#cc1d1d"/>
    <rect x="40.15" y="9.85" width="1.52" height="1.52" fill="#cc1d1d"/>
    <rect x="40.15" y="8.34" width="1.52" height="1.51" fill="#cc1d1d"/>
    <rect x="40.15" y="6.82" width="1.52" height="1.52" fill="#cc1d1d"/>
    <rect x="40.15" y="5.31" width="1.52" height="1.51" fill="#cc1d1d"/>
    <rect x="40.15" y="3.79" width="1.52" height="1.52" fill="#ef5454"/>
    <rect x="40.15" y="2.28" width="1.52" height="1.51" fill="#fff"/>
    <rect x="38.63" y="44.69" width="1.51" height="1.51" fill="#fff"/>
    <rect x="38.63" y="43.18" width="1.51" height="1.52" fill="#aa0707"/>
    <rect x="38.63" y="41.66" width="1.51" height="1.51" fill="#cc1d1d"/>
    <rect x="38.63" y="40.15" width="1.51" height="1.52" fill="#cc1d1d"/>
    <rect x="38.63" y="38.63" width="1.51" height="1.51" fill="#cc1d1d"/>
    <rect x="38.63" y="37.12" width="1.51" height="1.52" fill="#cc1d1d"/>
    <rect x="38.63" y="35.6" width="1.51" height="1.51" fill="#cc1d1d"/>
    <rect x="38.63" y="34.09" width="1.51" height="1.51" fill="#ef5454"/>
    <rect x="38.63" y="32.57" width="1.51" height="1.52" fill="#fff"/>
    <rect x="38.63" y="15.91" width="1.51" height="1.51" fill="#fff"/>
    <rect x="38.63" y="14.4" width="1.51" height="1.51" fill="#aa0707"/>
    <rect x="38.63" y="12.88" width="1.51" height="1.52" fill="#cc1d1d"/>
    <rect x="38.63" y="11.37" width="1.51" height="1.51" fill="#cc1d1d"/>
    <rect x="38.63" y="9.85" width="1.51" height="1.52" fill="#cc1d1d"/>
    <rect x="38.63" y="8.34" width="1.51" height="1.51" fill="#cc1d1d"/>
    <rect x="38.63" y="6.82" width="1.51" height="1.52" fill="#cc1d1d"/>
    <rect x="38.63" y="5.31" width="1.51" height="1.51" fill="#ef5454"/>
    <rect x="38.63" y="3.79" width="1.51" height="1.52" fill="#fff"/>
    <rect x="37.12" y="43.18" width="1.52" height="1.52" fill="#fff"/>
    <rect x="37.12" y="41.66" width="1.52" height="1.51" fill="#aa0707"/>
    <rect x="37.12" y="40.15" width="1.52" height="1.52" fill="#cc1d1d"/>
    <rect x="37.12" y="38.63" width="1.52" height="1.51" fill="#cc1d1d"/>
    <rect x="37.12" y="37.12" width="1.52" height="1.52" fill="#cc1d1d"/>
    <rect x="37.12" y="35.6" width="1.52" height="1.51" fill="#cc1d1d"/>
    <rect x="37.12" y="34.09" width="1.52" height="1.51" fill="#cc1d1d"/>
    <rect x="37.12" y="32.57" width="1.52" height="1.52" fill="#ef5454"/>
    <rect x="37.12" y="31.06" width="1.52" height="1.51" fill="#fff"/>
    <rect x="37.12" y="17.43" width="1.52" height="1.52" fill="#fff"/>
    <rect x="37.12" y="15.91" width="1.52" height="1.51" fill="#aa0707"/>
    <rect x="37.12" y="14.4" width="1.52" height="1.51" fill="#cc1d1d"/>
    <rect x="37.12" y="12.88" width="1.52" height="1.52" fill="#cc1d1d"/>
    <rect x="37.12" y="11.37" width="1.52" height="1.51" fill="#cc1d1d"/>
    <rect x="37.12" y="9.85" width="1.52" height="1.52" fill="#cc1d1d"/>
    <rect x="37.12" y="8.34" width="1.52" height="1.51" fill="#cc1d1d"/>
    <rect x="37.12" y="6.82" width="1.52" height="1.52" fill="#ef5454"/>
    <rect x="37.12" y="5.31" width="1.52" height="1.51" fill="#fff"/>
    <rect x="35.6" y="41.66" width="1.51" height="1.51" fill="#fff"/>
    <rect x="35.6" y="40.15" width="1.51" height="1.52" fill="#aa0707"/>
    <rect x="35.6" y="38.63" width="1.51" height="1.51" fill="#cc1d1d"/>
    <rect x="35.6" y="37.12" width="1.51" height="1.52" fill="#cc1d1d"/>
    <rect x="35.6" y="35.6" width="1.51" height="1.51" fill="#cc1d1d"/>
    <rect x="35.6" y="34.09" width="1.51" height="1.51" fill="#cc1d1d"/>
    <rect x="35.6" y="32.57" width="1.51" height="1.52" fill="#cc1d1d"/>
    <rect x="35.6" y="31.06" width="1.51" height="1.51" fill="#ef5454"/>
    <rect x="35.6" y="29.54" width="1.51" height="1.52" fill="#fff"/>
    <rect x="35.6" y="18.94" width="1.51" height="1.51" fill="#fff"/>
    <rect x="35.6" y="17.43" width="1.51" height="1.52" fill="#aa0707"/>
    <rect x="35.6" y="15.91" width="1.51" height="1.51" fill="#cc1d1d"/>
    <rect x="35.6" y="14.4" width="1.51" height="1.51" fill="#cc1d1d"/>
    <rect x="35.6" y="12.88" width="1.51" height="1.52" fill="#cc1d1d"/>
    <rect x="35.6" y="11.37" width="1.51" height="1.51" fill="#cc1d1d"/>
    <rect x="35.6" y="9.85" width="1.51" height="1.52" fill="#cc1d1d"/>
    <rect x="35.6" y="8.34" width="1.51" height="1.51" fill="#ef5454"/>
    <rect x="35.6" y="6.82" width="1.51" height="1.52" fill="#fff"/>
    <rect x="34.09" y="40.15" width="1.51" height="1.52" fill="#fff"/>
    <rect x="34.09" y="38.63" width="1.51" height="1.51" fill="#aa0707"/>
    <rect x="34.09" y="37.12" width="1.51" height="1.52" fill="#cc1d1d"/>
    <rect x="34.09" y="35.6" width="1.51" height="1.51" fill="#cc1d1d"/>
    <rect x="34.09" y="34.09" width="1.51" height="1.51" fill="#cc1d1d"/>
    <rect x="34.09" y="32.57" width="1.51" height="1.52" fill="#cc1d1d"/>
    <rect x="34.09" y="31.06" width="1.51" height="1.51" fill="#cc1d1d"/>
    <rect x="34.09" y="29.54" width="1.51" height="1.52" fill="#ef5454"/>
    <rect x="34.09" y="28.03" width="1.51" height="1.51" fill="#fff"/>
    <rect x="34.09" y="20.46" width="1.51" height="1.52" fill="#fff"/>
    <rect x="34.09" y="18.94" width="1.51" height="1.51" fill="#aa0707"/>
    <rect x="34.09" y="17.43" width="1.51" height="1.52" fill="#cc1d1d"/>
    <rect x="34.09" y="15.91" width="1.51" height="1.51" fill="#cc1d1d"/>
    <rect x="34.09" y="14.4" width="1.51" height="1.51" fill="#cc1d1d"/>
    <rect x="34.09" y="12.88" width="1.51" height="1.52" fill="#cc1d1d"/>
    <rect x="34.09" y="11.37" width="1.51" height="1.51" fill="#cc1d1d"/>
    <rect x="34.09" y="9.85" width="1.51" height="1.52" fill="#ef5454"/>
    <rect x="34.09" y="8.34" width="1.51" height="1.51" fill="#fff"/>
    <rect x="32.57" y="38.63" width="1.52" height="1.51" fill="#fff"/>
    <rect x="32.57" y="37.12" width="1.52" height="1.52" fill="#aa0707"/>
    <rect x="32.57" y="35.6" width="1.52" height="1.51" fill="#cc1d1d"/>
    <rect x="32.57" y="34.09" width="1.52" height="1.51" fill="#cc1d1d"/>
    <rect x="32.57" y="32.57" width="1.52" height="1.52" fill="#cc1d1d"/>
    <rect x="32.57" y="31.06" width="1.52" height="1.51" fill="#cc1d1d"/>
    <rect x="32.57" y="29.54" width="1.52" height="1.52" fill="#cc1d1d"/>
    <rect x="32.57" y="28.03" width="1.52" height="1.51" fill="#ef5454"/>
    <rect x="32.57" y="26.51" width="1.52" height="1.52" fill="#fff"/>
    <rect x="32.57" y="21.97" width="1.52" height="1.51" fill="#fff"/>
    <rect x="32.57" y="20.46" width="1.52" height="1.52" fill="#aa0707"/>
    <rect x="32.57" y="18.94" width="1.52" height="1.51" fill="#cc1d1d"/>
    <rect x="32.57" y="17.43" width="1.52" height="1.52" fill="#cc1d1d"/>
    <rect x="32.57" y="15.91" width="1.52" height="1.51" fill="#cc1d1d"/>
    <rect x="32.57" y="14.4" width="1.52" height="1.51" fill="#cc1d1d"/>
    <rect x="32.57" y="12.88" width="1.52" height="1.52" fill="#cc1d1d"/>
    <rect x="32.57" y="11.37" width="1.52" height="1.51" fill="#ef5454"/>
    <rect x="32.57" y="9.85" width="1.52" height="1.52" fill="#fff"/>
    <rect x="31.06" y="37.12" width="1.51" height="1.52" fill="#fff"/>
    <rect x="31.06" y="35.6" width="1.51" height="1.51" fill="#aa0707"/>
    <rect x="31.06" y="34.09" width="1.51" height="1.51" fill="#cc1d1d"/>
    <rect x="31.06" y="32.57" width="1.51" height="1.52" fill="#cc1d1d"/>
    <rect x="31.06" y="31.06" width="1.51" height="1.51" fill="#cc1d1d"/>
    <rect x="31.06" y="29.54" width="1.51" height="1.52" fill="#cc1d1d"/>
    <rect x="31.06" y="28.03" width="1.51" height="1.51" fill="#cc1d1d"/>
    <rect x="31.06" y="26.51" width="1.51" height="1.52" fill="#ef5454"/>
    <rect x="31.06" y="25" width="1.51" height="1.51" fill="#fff"/>
    <rect x="31.06" y="23.49" width="1.51" height="1.52" fill="#fff"/>
    <rect x="31.06" y="21.97" width="1.51" height="1.51" fill="#aa0707"/>
    <rect x="31.06" y="20.46" width="1.51" height="1.52" fill="#cc1d1d"/>
    <rect x="31.06" y="18.94" width="1.51" height="1.51" fill="#cc1d1d"/>
    <rect x="31.06" y="17.43" width="1.51" height="1.52" fill="#cc1d1d"/>
    <rect x="31.06" y="15.91" width="1.51" height="1.51" fill="#cc1d1d"/>
    <rect x="31.06" y="14.4" width="1.51" height="1.51" fill="#cc1d1d"/>
    <rect x="31.06" y="12.88" width="1.51" height="1.52" fill="#ef5454"/>
    <rect x="31.06" y="11.37" width="1.51" height="1.51" fill="#fff"/>
    <rect x="29.54" y="35.6" width="1.52" height="1.51" fill="#fff"/>
    <rect x="29.54" y="34.09" width="1.52" height="1.51" fill="#aa0707"/>
    <rect x="29.54" y="32.57" width="1.52" height="1.52" fill="#cc1d1d"/>
    <rect x="29.54" y="31.06" width="1.52" height="1.51" fill="#cc1d1d"/>
    <rect x="29.54" y="29.54" width="1.52" height="1.52" fill="#cc1d1d"/>
    <rect x="29.54" y="28.03" width="1.52" height="1.51" fill="#cc1d1d"/>
    <rect x="29.54" y="26.51" width="1.52" height="1.52" fill="#cc1d1d"/>
    <rect x="29.54" y="25" width="1.52" height="1.51" fill="#aa0707"/>
    <rect x="29.54" y="23.49" width="1.52" height="1.52" fill="#aa0707"/>
    <rect x="29.54" y="21.97" width="1.52" height="1.51" fill="#cc1d1d"/>
    <rect x="29.54" y="20.46" width="1.52" height="1.52" fill="#cc1d1d"/>
    <rect x="29.54" y="18.94" width="1.52" height="1.51" fill="#cc1d1d"/>
    <rect x="29.54" y="17.43" width="1.52" height="1.52" fill="#cc1d1d"/>
    <rect x="29.54" y="15.91" width="1.52" height="1.51" fill="#cc1d1d"/>
    <rect x="29.54" y="14.4" width="1.52" height="1.51" fill="#ef5454"/>
    <rect x="29.54" y="12.88" width="1.52" height="1.52" fill="#fff"/>
    <rect x="28.03" y="34.09" width="1.51" height="1.51" fill="#fff"/>
    <rect x="28.03" y="32.57" width="1.51" height="1.52" fill="#aa0707"/>
    <rect x="28.03" y="31.06" width="1.51" height="1.51" fill="#cc1d1d"/>
    <rect x="28.03" y="29.54" width="1.51" height="1.52" fill="#cc1d1d"/>
    <rect x="28.03" y="28.03" width="1.51" height="1.51" fill="#cc1d1d"/>
    <rect x="28.03" y="26.51" width="1.51" height="1.52" fill="#cc1d1d"/>
    <rect x="28.03" y="25" width="1.51" height="1.51" fill="#cc1d1d"/>
    <rect x="28.03" y="23.49" width="1.51" height="1.52" fill="#cc1d1d"/>
    <rect x="28.03" y="21.97" width="1.51" height="1.51" fill="#cc1d1d"/>
    <rect x="28.03" y="20.46" width="1.51" height="1.52" fill="#cc1d1d"/>
    <rect x="28.03" y="18.94" width="1.51" height="1.51" fill="#cc1d1d"/>
    <rect x="28.03" y="17.43" width="1.51" height="1.52" fill="#cc1d1d"/>
    <rect x="28.03" y="15.91" width="1.51" height="1.51" fill="#ef5454"/>
    <rect x="28.03" y="14.4" width="1.51" height="1.51" fill="#fff"/>
    <rect x="26.51" y="32.57" width="1.52" height="1.52" fill="#fff"/>
    <rect x="26.51" y="31.06" width="1.52" height="1.51" fill="#aa0707"/>
    <rect x="26.51" y="29.54" width="1.52" height="1.52" fill="#cc1d1d"/>
    <rect x="26.51" y="28.03" width="1.52" height="1.51" fill="#cc1d1d"/>
    <rect x="26.51" y="26.51" width="1.52" height="1.52" fill="#cc1d1d"/>
    <rect x="26.51" y="25" width="1.52" height="1.51" fill="#cc1d1d"/>
    <rect x="26.51" y="23.49" width="1.52" height="1.52" fill="#cc1d1d"/>
    <rect x="26.51" y="21.97" width="1.52" height="1.51" fill="#cc1d1d"/>
    <rect x="26.51" y="20.46" width="1.52" height="1.52" fill="#cc1d1d"/>
    <rect x="26.51" y="18.94" width="1.52" height="1.51" fill="#cc1d1d"/>
    <rect x="26.51" y="17.43" width="1.52" height="1.52" fill="#ef5454"/>
    <rect x="26.51" y="15.91" width="1.52" height="1.51" fill="#fff"/>
    <rect x="25" y="31.06" width="1.51" height="1.51" fill="#fff"/>
    <rect x="25" y="29.54" width="1.51" height="1.52" fill="#aa0707"/>
    <rect x="25" y="28.03" width="1.51" height="1.51" fill="#cc1d1d"/>
    <rect x="25" y="26.51" width="1.51" height="1.52" fill="#cc1d1d"/>
    <rect x="25" y="25" width="1.51" height="1.51" fill="#cc1d1d"/>
    <rect x="25" y="23.49" width="1.51" height="1.52" fill="#cc1d1d"/>
    <rect x="25" y="21.97" width="1.51" height="1.51" fill="#cc1d1d"/>
    <rect x="25" y="20.46" width="1.51" height="1.52" fill="#cc1d1d"/>
    <rect x="25" y="18.94" width="1.51" height="1.51" fill="#ef5454"/>
    <rect x="25" y="17.43" width="1.51" height="1.52" fill="#fff"/>
    <rect x="23.49" y="31.06" width="1.52" height="1.51" fill="#fff"/>
    <rect x="23.49" y="29.54" width="1.52" height="1.52" fill="#aa0707"/>
    <rect x="23.49" y="28.03" width="1.52" height="1.51" fill="#cc1d1d"/>
    <rect x="23.49" y="26.51" width="1.52" height="1.52" fill="#cc1d1d"/>
    <rect x="23.49" y="25" width="1.52" height="1.51" fill="#cc1d1d"/>
    <rect x="23.49" y="23.49" width="1.52" height="1.52" fill="#cc1d1d"/>
    <rect x="23.49" y="21.97" width="1.52" height="1.51" fill="#cc1d1d"/>
    <rect x="23.49" y="20.46" width="1.52" height="1.52" fill="#cc1d1d"/>
    <rect x="23.49" y="18.94" width="1.52" height="1.51" fill="#ef5454"/>
    <rect x="23.49" y="17.43" width="1.52" height="1.52" fill="#fff"/>
    <rect x="21.97" y="32.57" width="1.51" height="1.52" fill="#fff"/>
    <rect x="21.97" y="31.06" width="1.51" height="1.51" fill="#aa0707"/>
    <rect x="21.97" y="29.54" width="1.51" height="1.52" fill="#cc1d1d"/>
    <rect x="21.97" y="28.03" width="1.51" height="1.51" fill="#cc1d1d"/>
    <rect x="21.97" y="26.51" width="1.51" height="1.52" fill="#cc1d1d"/>
    <rect x="21.97" y="25" width="1.51" height="1.51" fill="#cc1d1d"/>
    <rect x="21.97" y="23.49" width="1.51" height="1.52" fill="#cc1d1d"/>
    <rect x="21.97" y="21.97" width="1.51" height="1.51" fill="#cc1d1d"/>
    <rect x="21.97" y="20.46" width="1.51" height="1.52" fill="#cc1d1d"/>
    <rect x="21.97" y="18.94" width="1.51" height="1.51" fill="#cc1d1d"/>
    <rect x="21.97" y="17.43" width="1.51" height="1.52" fill="#ef5454"/>
    <rect x="21.97" y="15.91" width="1.51" height="1.51" fill="#fff"/>
    <rect x="20.46" y="34.09" width="1.52" height="1.51" fill="#fff"/>
    <rect x="20.46" y="32.57" width="1.52" height="1.52" fill="#aa0707"/>
    <rect x="20.46" y="31.06" width="1.52" height="1.51" fill="#cc1d1d"/>
    <rect x="20.46" y="29.54" width="1.52" height="1.52" fill="#cc1d1d"/>
    <rect x="20.46" y="28.03" width="1.52" height="1.51" fill="#cc1d1d"/>
    <rect x="20.46" y="26.51" width="1.52" height="1.52" fill="#cc1d1d"/>
    <rect x="20.46" y="25" width="1.52" height="1.51" fill="#cc1d1d"/>
    <rect x="20.46" y="23.49" width="1.52" height="1.52" fill="#cc1d1d"/>
    <rect x="20.46" y="21.97" width="1.52" height="1.51" fill="#cc1d1d"/>
    <rect x="20.46" y="20.46" width="1.52" height="1.52" fill="#cc1d1d"/>
    <rect x="20.46" y="18.94" width="1.52" height="1.51" fill="#cc1d1d"/>
    <rect x="20.46" y="17.43" width="1.52" height="1.52" fill="#cc1d1d"/>
    <rect x="20.46" y="15.91" width="1.52" height="1.51" fill="#ef5454"/>
    <rect x="20.46" y="14.4" width="1.52" height="1.51" fill="#fff"/>
    <rect x="18.94" y="35.6" width="1.51" height="1.51" fill="#fff"/>
    <rect x="18.94" y="34.09" width="1.51" height="1.51" fill="#aa0707"/>
    <rect x="18.94" y="32.57" width="1.51" height="1.52" fill="#cc1d1d"/>
    <rect x="18.94" y="31.06" width="1.51" height="1.51" fill="#cc1d1d"/>
    <rect x="18.94" y="29.54" width="1.51" height="1.52" fill="#cc1d1d"/>
    <rect x="18.94" y="28.03" width="1.51" height="1.51" fill="#cc1d1d"/>
    <rect x="18.94" y="26.51" width="1.51" height="1.52" fill="#cc1d1d"/>
    <rect x="18.94" y="25" width="1.51" height="1.51" fill="#aa0707"/>
    <rect x="18.94" y="23.49" width="1.51" height="1.52" fill="#aa0707"/>
    <rect x="18.94" y="21.97" width="1.51" height="1.51" fill="#cc1d1d"/>
    <rect x="18.94" y="20.46" width="1.51" height="1.52" fill="#cc1d1d"/>
    <rect x="18.94" y="18.94" width="1.51" height="1.51" fill="#cc1d1d"/>
    <rect x="18.94" y="17.43" width="1.51" height="1.52" fill="#cc1d1d"/>
    <rect x="18.94" y="15.91" width="1.51" height="1.51" fill="#cc1d1d"/>
    <rect x="18.94" y="14.4" width="1.51" height="1.51" fill="#ef5454"/>
    <rect x="18.94" y="12.88" width="1.51" height="1.52" fill="#fff"/>
    <rect x="17.43" y="37.12" width="1.52" height="1.52" fill="#fff"/>
    <rect x="17.43" y="35.6" width="1.52" height="1.51" fill="#aa0707"/>
    <rect x="17.43" y="34.09" width="1.52" height="1.51" fill="#cc1d1d"/>
    <rect x="17.43" y="32.57" width="1.52" height="1.52" fill="#cc1d1d"/>
    <rect x="17.43" y="31.06" width="1.52" height="1.51" fill="#cc1d1d"/>
    <rect x="17.43" y="29.54" width="1.52" height="1.52" fill="#cc1d1d"/>
    <rect x="17.43" y="28.03" width="1.52" height="1.51" fill="#cc1d1d"/>
    <rect x="17.43" y="26.51" width="1.52" height="1.52" fill="#ef5454"/>
    <rect x="17.43" y="25" width="1.52" height="1.51" fill="#fff"/>
    <rect x="17.43" y="23.49" width="1.52" height="1.52" fill="#fff"/>
    <rect x="17.43" y="21.97" width="1.52" height="1.51" fill="#aa0707"/>
    <rect x="17.43" y="20.46" width="1.52" height="1.52" fill="#cc1d1d"/>
    <rect x="17.43" y="18.94" width="1.52" height="1.51" fill="#cc1d1d"/>
    <rect x="17.43" y="17.43" width="1.52" height="1.52" fill="#cc1d1d"/>
    <rect x="17.43" y="15.91" width="1.52" height="1.51" fill="#cc1d1d"/>
    <rect x="17.43" y="14.4" width="1.52" height="1.51" fill="#cc1d1d"/>
    <rect x="17.43" y="12.88" width="1.52" height="1.52" fill="#ef5454"/>
    <rect x="17.43" y="11.37" width="1.52" height="1.51" fill="#fff"/>
    <rect x="15.91" y="38.63" width="1.51" height="1.51" fill="#fff"/>
    <rect x="15.91" y="37.12" width="1.51" height="1.52" fill="#aa0707"/>
    <rect x="15.91" y="35.6" width="1.51" height="1.51" fill="#cc1d1d"/>
    <rect x="15.91" y="34.09" width="1.51" height="1.51" fill="#cc1d1d"/>
    <rect x="15.91" y="32.57" width="1.51" height="1.52" fill="#cc1d1d"/>
    <rect x="15.91" y="31.06" width="1.51" height="1.51" fill="#cc1d1d"/>
    <rect x="15.91" y="29.54" width="1.51" height="1.52" fill="#cc1d1d"/>
    <rect x="15.91" y="28.03" width="1.51" height="1.51" fill="#ef5454"/>
    <rect x="15.91" y="26.51" width="1.51" height="1.52" fill="#fff"/>
    <rect x="15.91" y="21.97" width="1.51" height="1.51" fill="#fff"/>
    <rect x="15.91" y="20.46" width="1.51" height="1.52" fill="#aa0707"/>
    <rect x="15.91" y="18.94" width="1.51" height="1.51" fill="#cc1d1d"/>
    <rect x="15.91" y="17.43" width="1.51" height="1.52" fill="#cc1d1d"/>
    <rect x="15.91" y="15.91" width="1.51" height="1.51" fill="#cc1d1d"/>
    <rect x="15.91" y="14.4" width="1.51" height="1.51" fill="#cc1d1d"/>
    <rect x="15.91" y="12.88" width="1.51" height="1.52" fill="#cc1d1d"/>
    <rect x="15.91" y="11.37" width="1.51" height="1.51" fill="#ef5454"/>
    <rect x="15.91" y="9.85" width="1.51" height="1.52" fill="#fff"/>
    <rect x="14.4" y="40.15" width="1.51" height="1.52" fill="#fff"/>
    <rect x="14.4" y="38.63" width="1.51" height="1.51" fill="#aa0707"/>
    <rect x="14.4" y="37.12" width="1.51" height="1.52" fill="#cc1d1d"/>
    <rect x="14.4" y="35.6" width="1.51" height="1.51" fill="#cc1d1d"/>
    <rect x="14.4" y="34.09" width="1.51" height="1.51" fill="#cc1d1d"/>
    <rect x="14.4" y="32.57" width="1.51" height="1.52" fill="#cc1d1d"/>
    <rect x="14.4" y="31.06" width="1.51" height="1.51" fill="#cc1d1d"/>
    <rect x="14.4" y="29.54" width="1.51" height="1.52" fill="#ef5454"/>
    <rect x="14.4" y="28.03" width="1.51" height="1.51" fill="#fff"/>
    <rect x="14.4" y="20.46" width="1.51" height="1.52" fill="#fff"/>
    <rect x="14.4" y="18.94" width="1.51" height="1.51" fill="#aa0707"/>
    <rect x="14.4" y="17.43" width="1.51" height="1.52" fill="#cc1d1d"/>
    <rect x="14.4" y="15.91" width="1.51" height="1.51" fill="#cc1d1d"/>
    <rect x="14.4" y="14.4" width="1.51" height="1.51" fill="#cc1d1d"/>
    <rect x="14.4" y="12.88" width="1.51" height="1.52" fill="#cc1d1d"/>
    <rect x="14.4" y="11.37" width="1.51" height="1.51" fill="#cc1d1d"/>
    <rect x="14.4" y="9.85" width="1.51" height="1.52" fill="#ef5454"/>
    <rect x="14.4" y="8.34" width="1.51" height="1.51" fill="#fff"/>
    <rect x="12.88" y="41.66" width="1.52" height="1.51" fill="#fff"/>
    <rect x="12.88" y="40.15" width="1.52" height="1.52" fill="#aa0707"/>
    <rect x="12.88" y="38.63" width="1.52" height="1.51" fill="#cc1d1d"/>
    <rect x="12.88" y="37.12" width="1.52" height="1.52" fill="#cc1d1d"/>
    <rect x="12.88" y="35.6" width="1.52" height="1.51" fill="#cc1d1d"/>
    <rect x="12.88" y="34.09" width="1.52" height="1.51" fill="#cc1d1d"/>
    <rect x="12.88" y="32.57" width="1.52" height="1.52" fill="#cc1d1d"/>
    <rect x="12.88" y="31.06" width="1.52" height="1.51" fill="#ef5454"/>
    <rect x="12.88" y="29.54" width="1.52" height="1.52" fill="#fff"/>
    <rect x="12.88" y="18.94" width="1.52" height="1.51" fill="#fff"/>
    <rect x="12.88" y="17.43" width="1.52" height="1.52" fill="#aa0707"/>
    <rect x="12.88" y="15.91" width="1.52" height="1.51" fill="#cc1d1d"/>
    <rect x="12.88" y="14.4" width="1.52" height="1.51" fill="#cc1d1d"/>
    <rect x="12.88" y="12.88" width="1.52" height="1.52" fill="#cc1d1d"/>
    <rect x="12.88" y="11.37" width="1.52" height="1.51" fill="#cc1d1d"/>
    <rect x="12.88" y="9.85" width="1.52" height="1.52" fill="#cc1d1d"/>
    <rect x="12.88" y="8.34" width="1.52" height="1.51" fill="#ef5454"/>
    <rect x="12.88" y="6.82" width="1.52" height="1.52" fill="#fff"/>
    <rect x="11.37" y="43.18" width="1.51" height="1.52" fill="#fff"/>
    <rect x="11.37" y="41.66" width="1.51" height="1.51" fill="#aa0707"/>
    <rect x="11.37" y="40.15" width="1.51" height="1.52" fill="#cc1d1d"/>
    <rect x="11.37" y="38.63" width="1.51" height="1.51" fill="#cc1d1d"/>
    <rect x="11.37" y="37.12" width="1.51" height="1.52" fill="#cc1d1d"/>
    <rect x="11.37" y="35.6" width="1.51" height="1.51" fill="#cc1d1d"/>
    <rect x="11.37" y="34.09" width="1.51" height="1.51" fill="#cc1d1d"/>
    <rect x="11.37" y="32.57" width="1.51" height="1.52" fill="#ef5454"/>
    <rect x="11.37" y="31.06" width="1.51" height="1.51" fill="#fff"/>
    <rect x="11.37" y="17.43" width="1.51" height="1.52" fill="#fff"/>
    <rect x="11.37" y="15.91" width="1.51" height="1.51" fill="#aa0707"/>
    <rect x="11.37" y="14.4" width="1.51" height="1.51" fill="#cc1d1d"/>
    <rect x="11.37" y="12.88" width="1.51" height="1.52" fill="#cc1d1d"/>
    <rect x="11.37" y="11.37" width="1.51" height="1.51" fill="#cc1d1d"/>
    <rect x="11.37" y="9.85" width="1.51" height="1.52" fill="#cc1d1d"/>
    <rect x="11.37" y="8.34" width="1.51" height="1.51" fill="#cc1d1d"/>
    <rect x="11.37" y="6.82" width="1.51" height="1.52" fill="#ef5454"/>
    <rect x="11.37" y="5.31" width="1.51" height="1.51" fill="#fff"/>
    <rect x="9.85" y="44.69" width="1.52" height="1.51" fill="#fff"/>
    <rect x="9.85" y="43.18" width="1.52" height="1.52" fill="#aa0707"/>
    <rect x="9.85" y="41.66" width="1.52" height="1.51" fill="#cc1d1d"/>
    <rect x="9.85" y="40.15" width="1.52" height="1.52" fill="#cc1d1d"/>
    <rect x="9.85" y="38.63" width="1.52" height="1.51" fill="#cc1d1d"/>
    <rect x="9.85" y="37.12" width="1.52" height="1.52" fill="#cc1d1d"/>
    <rect x="9.85" y="35.6" width="1.52" height="1.51" fill="#cc1d1d"/>
    <rect x="9.85" y="34.09" width="1.52" height="1.51" fill="#ef5454"/>
    <rect x="9.85" y="32.57" width="1.52" height="1.52" fill="#fff"/>
    <rect x="9.85" y="15.91" width="1.52" height="1.51" fill="#fff"/>
    <rect x="9.85" y="14.4" width="1.52" height="1.51" fill="#aa0707"/>
    <rect x="9.85" y="12.88" width="1.52" height="1.52" fill="#cc1d1d"/>
    <rect x="9.85" y="11.37" width="1.52" height="1.51" fill="#cc1d1d"/>
    <rect x="9.85" y="9.85" width="1.52" height="1.52" fill="#cc1d1d"/>
    <rect x="9.85" y="8.34" width="1.52" height="1.51" fill="#cc1d1d"/>
    <rect x="9.85" y="6.82" width="1.52" height="1.52" fill="#cc1d1d"/>
    <rect x="9.85" y="5.31" width="1.52" height="1.51" fill="#ef5454"/>
    <rect x="9.85" y="3.79" width="1.52" height="1.52" fill="#fff"/>
    <rect x="8.34" y="46.2" width="1.51" height="1.52" fill="#fff"/>
    <rect x="8.34" y="44.69" width="1.51" height="1.51" fill="#aa0707"/>
    <rect x="8.34" y="43.18" width="1.51" height="1.52" fill="#cc1d1d"/>
    <rect x="8.34" y="41.66" width="1.51" height="1.51" fill="#cc1d1d"/>
    <rect x="8.34" y="40.15" width="1.51" height="1.52" fill="#cc1d1d"/>
    <rect x="8.34" y="38.63" width="1.51" height="1.51" fill="#cc1d1d"/>
    <rect x="8.34" y="37.12" width="1.51" height="1.52" fill="#cc1d1d"/>
    <rect x="8.34" y="35.6" width="1.51" height="1.51" fill="#ef5454"/>
    <rect x="8.34" y="34.09" width="1.51" height="1.51" fill="#fff"/>
    <rect x="8.34" y="14.4" width="1.51" height="1.51" fill="#fff"/>
    <rect x="8.34" y="12.88" width="1.51" height="1.52" fill="#aa0707"/>
    <rect x="8.34" y="11.37" width="1.51" height="1.51" fill="#cc1d1d"/>
    <rect x="8.34" y="9.85" width="1.51" height="1.52" fill="#cc1d1d"/>
    <rect x="8.34" y="8.34" width="1.51" height="1.51" fill="#cc1d1d"/>
    <rect x="8.34" y="6.82" width="1.51" height="1.52" fill="#cc1d1d"/>
    <rect x="8.34" y="5.31" width="1.51" height="1.51" fill="#cc1d1d"/>
    <rect x="8.34" y="3.79" width="1.51" height="1.52" fill="#ef5454"/>
    <rect x="8.34" y="2.28" width="1.51" height="1.51" fill="#fff"/>
    <rect x="6.82" y="46.2" width="1.52" height="1.52" fill="#fff"/>
    <rect x="6.82" y="44.69" width="1.52" height="1.51" fill="#aa0707"/>
    <rect x="6.82" y="43.18" width="1.52" height="1.52" fill="#cc1d1d"/>
    <rect x="6.82" y="41.66" width="1.52" height="1.51" fill="#cc1d1d"/>
    <rect x="6.82" y="40.15" width="1.52" height="1.52" fill="#cc1d1d"/>
    <rect x="6.82" y="38.63" width="1.52" height="1.51" fill="#cc1d1d"/>
    <rect x="6.82" y="37.12" width="1.52" height="1.52" fill="#ef5454"/>
    <rect x="6.82" y="35.6" width="1.52" height="1.51" fill="#fff"/>
    <rect x="6.82" y="12.88" width="1.52" height="1.52" fill="#fff"/>
    <rect x="6.82" y="11.37" width="1.52" height="1.51" fill="#aa0707"/>
    <rect x="6.82" y="9.85" width="1.52" height="1.52" fill="#cc1d1d"/>
    <rect x="6.82" y="8.34" width="1.52" height="1.51" fill="#cc1d1d"/>
    <rect x="6.82" y="6.82" width="1.52" height="1.52" fill="#cc1d1d"/>
    <rect x="6.82" y="5.31" width="1.52" height="1.51" fill="#cc1d1d"/>
    <rect x="6.82" y="3.79" width="1.52" height="1.52" fill="#ef5454"/>
    <rect x="6.82" y="2.28" width="1.52" height="1.51" fill="#fff"/>
    <rect x="5.31" y="44.69" width="1.51" height="1.51" fill="#fff"/>
    <rect x="5.31" y="43.18" width="1.51" height="1.52" fill="#aa0707"/>
    <rect x="5.31" y="41.66" width="1.51" height="1.51" fill="#cc1d1d"/>
    <rect x="5.31" y="40.15" width="1.51" height="1.52" fill="#cc1d1d"/>
    <rect x="5.31" y="38.63" width="1.51" height="1.51" fill="#ef5454"/>
    <rect x="5.31" y="37.12" width="1.51" height="1.52" fill="#fff"/>
    <rect x="5.31" y="11.37" width="1.51" height="1.51" fill="#fff"/>
    <rect x="5.31" y="9.85" width="1.51" height="1.52" fill="#aa0707"/>
    <rect x="5.31" y="8.34" width="1.51" height="1.51" fill="#cc1d1d"/>
    <rect x="5.31" y="6.82" width="1.51" height="1.52" fill="#cc1d1d"/>
    <rect x="5.31" y="5.31" width="1.51" height="1.51" fill="#ef5454"/>
    <rect x="5.31" y="3.79" width="1.51" height="1.52" fill="#fff"/>
    <rect x="3.79" y="43.18" width="1.52" height="1.52" fill="#fff"/>
    <rect x="3.79" y="41.66" width="1.52" height="1.51" fill="#aa0707"/>
    <rect x="3.79" y="40.15" width="1.52" height="1.52" fill="#ef5454"/>
    <rect x="3.79" y="38.63" width="1.52" height="1.51" fill="#fff"/>
    <rect x="3.79" y="9.85" width="1.52" height="1.52" fill="#fff"/>
    <rect x="3.79" y="8.34" width="1.52" height="1.51" fill="#aa0707"/>
    <rect x="3.79" y="6.82" width="1.52" height="1.52" fill="#ef5454"/>
    <rect x="3.79" y="5.31" width="1.52" height="1.51" fill="#fff"/>
    <rect x="2.28" y="41.66" width="1.51" height="1.51" fill="#fff"/>
    <rect x="2.28" y="40.15" width="1.51" height="1.52" fill="#fff"/>
    <rect x="2.28" y="8.34" width="1.51" height="1.51" fill="#fff"/>
    <rect x="2.28" y="6.82" width="1.51" height="1.52" fill="#fff"/>
  </g>
</svg>
