<svg id="Capa_1" data-name="Capa 1" xmlns="http://www.w3.org/2000/svg" xmlns:xlink="http://www.w3.org/1999/xlink" width="50" height="50" viewBox="0 0 50 50">
  <defs>
    <clipPath id="clip-path">
      <polygon points="24.04 49.76 1.25 39.47 1.41 9.17 24.2 19.46 24.04 49.76" fill="none"/>
    </clipPath>
    <clipPath id="clip-path-2">
      <polygon points="24.2 19.46 1.41 9.17 25.96 0.24 48.75 10.53 24.2 19.46" fill="none"/>
    </clipPath>
    <clipPath id="clip-path-3">
      <polygon points="48.75 10.53 48.59 40.82 24.04 49.76 24.2 19.46 48.75 10.53" fill="none"/>
    </clipPath>
  </defs>
  <g id="Figment_lido">
    <g style="isolation: isolate">
      <g>
        <polygon points="24.04 49.76 1.25 39.47 1.41 9.17 24.2 19.46 24.04 49.76" fill="#a6502a"/>
        <g style="isolation: isolate">
          <g clip-path="url(#clip-path)">
            <g>
              <path d="M10.08,33.54,10,33.41l.07,0,.06.13-.07,0m.62.24-.07-.16.1,0,.06.14-.09.07m.68-1.85a.19.19,0,0,1-.1-.18l.08-.05a.19.19,0,0,1,.09.18l-.07.05M7.11,29.85h0a.46.46,0,0,1-.22-.32c0-.09.08,0,.11,0a.29.29,0,0,1,.2.25c0,.08,0,.13-.06.11M9,30.59l-.07-.17L9,30.35l.07.16L9,30.59M6.58,29.23c-.12-.05-.16-.19-.2-.34a.28.28,0,0,1,.13,0c.06,0,.1.07.12.2l0,.11m1.49.11A.14.14,0,0,1,8,29.17a.12.12,0,0,1,.16-.1.18.18,0,0,1,.09.19c0,.1-.09.11-.16.09h0m-2.52-1.4a.1.1,0,0,1,0-.08c0-.12,0-.1.1-.13l.1-.07a.2.2,0,0,1,.24-.05.77.77,0,0,1,.19.14c.17.16.14.37.14.57v.22c0,.08,0,.18-.09.17h0c-.06,0-.08-.12-.1-.2A1.66,1.66,0,0,0,5.86,28a.33.33,0,0,0-.13-.15.07.07,0,0,0-.08,0s-.07.06-.1.05m9.18,1.93-.12-.08v-.13c.17-.05.31-.18.5-.14h0c.06,0,.1.11.11.2s0,.15-.12.13a.71.71,0,0,0-.41,0M5.17,24l-.06-.16.06-.07.07.14L5.17,24m3.1.51a.31.31,0,0,0,.25,0c.54-.17,1.06-.37,1.6-.54a.39.39,0,0,1,.3,0,.4.4,0,0,1,.18.15c.32.41.65.78,1,1.2l.22.22c.57.75,1.17,1.45,1.74,2.18s.55.49.55,1.52v.43c0,.22,0,.31-.07.29a2,2,0,0,1-.19-.2c-.88-1.08-1.76-2.2-2.67-3.26a2.61,2.61,0,0,0-.33-.45,1.1,1.1,0,0,0-.4-.38.29.29,0,0,0-.18,0A2.72,2.72,0,0,0,9,26c0,.73,0,1.49,0,2.24a.37.37,0,0,0,.16.36.29.29,0,0,0,.16,0,2.87,2.87,0,0,0,.7-.23.4.4,0,0,1,.34,0,1.11,1.11,0,0,1,.37.31A27.16,27.16,0,0,0,12.5,30.9c.44.53.87,1.08,1.31,1.62a1.05,1.05,0,0,1,.26.74c0,.33,0,.68,0,1s-.07.46-.27.54c-1,.36-2,.66-3,1a.47.47,0,0,1-.37,0,1.27,1.27,0,0,1-.41-.38c-.48-.63-1-1.24-1.5-1.82-.16-.2-.33-.41-.48-.62A17,17,0,0,1,6.8,31.51.75.75,0,0,1,6.62,31c0-.4,0-.81,0-1.22a.73.73,0,0,0,0-.23,1.34,1.34,0,0,1,.23.39c.63.77,1.27,1.55,1.89,2.34a1.84,1.84,0,0,1,.49.6,4.11,4.11,0,0,1,.58.76,2.08,2.08,0,0,1,.32.34.83.83,0,0,0,.28.24.34.34,0,0,0,.24,0,5.73,5.73,0,0,0,1-.36.26.26,0,0,0,.16-.25,17.75,17.75,0,0,0,0-2.06c0-.19-.07-.31-.18-.36a.16.16,0,0,0-.1,0,2.6,2.6,0,0,0-.88.23.39.39,0,0,1-.26,0,.6.6,0,0,1-.25-.22c-.18-.25-.38-.47-.58-.72C9.16,30,8.76,29.51,8.38,29c-.46-.64-1-1.2-1.44-1.8a1.13,1.13,0,0,1-.26-.74v-1c0-.3.09-.44.27-.5.34-.11.68-.21,1-.34.09,0,.21-.06.18-.28h0a.31.31,0,0,0,.13.13m4.28-.27h0A.2.2,0,0,1,12.4,24c0-.06,0-.11.08-.09h0a.43.43,0,0,1,.15.25c0,.09-.05.09-.09.07M8.36,22.33l0,0a.21.21,0,0,1-.1-.19c0-.1.06-.14.13-.11s0,0,0,0a.23.23,0,0,1,.12.2c0,.11-.07.13-.13.1M9,22.06a.86.86,0,0,0,.42,0l.09,0a.42.42,0,0,1,.59-.21,5.29,5.29,0,0,1,.69.47l0,0a.22.22,0,0,1,.14,0c.2.09.31.39.45.62a.74.74,0,0,0,.31.34.28.28,0,0,0,.13,0h0a.17.17,0,0,1,.07.23c-.08.19,0,.28.14.43a1.37,1.37,0,0,1,.27.83c0,.19.05.4.21.47h0c.2.06.14-.21.15-.37s-.13-.54.06-.54h.06c.14.06.1.37.21.5l0,.08c.07.16.24.32.19.49s-.08.07-.14,0l-.07,0L13,25.46c-.09,0-.19-.06-.18.09s.12.16.19.21l.07,0c.22.09.36-.07.54-.13s.09-.08.14-.06l0,.05c.08.13,0,.17-.05.23s-.16.16-.07.32a.24.24,0,0,0,.08.09c.06,0,.12,0,.18,0s.27-.09.35-.05.17.18.23.43h-.06l-.11-.08-.11-.08s-.08,0-.09.09c0,.3.22.25.31.41a4.75,4.75,0,0,1,.48.83c0,.09,0,.19.12.23h0a.15.15,0,0,0,.18-.12.37.37,0,0,0-.12-.31c-.14-.18-.35-.29-.43-.58a.41.41,0,0,1,.18,0,1.2,1.2,0,0,1,.58,1.2,5.08,5.08,0,0,1,0,.79c0,.14.09.24.15.34v.22l-.13-.1a.31.31,0,0,0-.17-.22l-.08,0-.1,0a1.28,1.28,0,0,1-.62-1.32.76.76,0,0,0-.05-.44.38.38,0,0,0-.17-.2h-.07c-.09,0-.06.19,0,.32s.15.21.09.32a.1.1,0,0,1-.12,0l-.05,0c-.13-.1-.12-.25-.13-.39v-.15a.4.4,0,0,0-.13-.34h0c-.08,0-.12,0-.15.12s-.05.17-.11.14a.17.17,0,0,1-.08-.07c-.11-.16,0-.22,0-.27l.05-.13-.13-.12,0,0c-.1,0-.18,0-.27,0L13,26.61l.05-.17c.06-.05.21-.05.11-.25s-.06-.1-.1-.11a.3.3,0,0,0-.21,0,.29.29,0,0,1-.18,0,.89.89,0,0,1-.46-.62,1.17,1.17,0,0,0-.58-.84h0s-.1,0-.15,0a.13.13,0,0,1-.07-.11c0-.15.07-.21.14-.27h.15c.09,0,.18.05.18-.12a.36.36,0,0,0-.11-.28l-.11-.07c-.05,0-.11,0-.13.06-.1.27-.38.08-.52.24L10.87,24l.05-.13.09,0c.09-.05.13-.14.06-.28a.3.3,0,0,0-.11-.13.13.13,0,0,0-.14,0,.41.41,0,0,1-.43.07,1.1,1.1,0,0,1-.41-.44l-.17-.11c-.06.06-.05.16,0,.26l.11.16c.05.08.08.18,0,.24s0,0-.07,0-.06-.05-.09-.09a1.4,1.4,0,0,0-.21-.26l-.08-.05c-.06,0-.12,0-.07.19s0,.29-.12.24l-.06,0-.12-.07c-.21-.09-.34,0-.44.25,0,.07-.09.11-.15.08s-.08-.05-.12-.12-.07-.11-.11-.12H8.26a.09.09,0,0,1-.1,0A.41.41,0,0,1,8,23.38a.39.39,0,0,0-.22-.27l-.17,0c-.15,0-.33-.08-.4.13a.36.36,0,0,0,0,.38.59.59,0,0,0,.18.14.14.14,0,0,0,.2-.06c.06-.08.13-.11.2-.08a.48.48,0,0,1,.16.16c.11.17.29.39.13.59A1.26,1.26,0,0,0,7.92,24l-.1-.06c-.07,0-.11,0-.08.16s0,.21,0,.18a.46.46,0,0,1-.1-.07A.7.7,0,0,0,7.4,24a.44.44,0,0,0-.34,0,.19.19,0,0,0-.12.17c0,.13,0,.34-.14.28h0a.55.55,0,0,1-.26-.41c0-.12,0-.23-.1-.27l0,0c-.12,0-.13.12-.11.24,0,.46,0,.88,0,1.34a7.15,7.15,0,0,1,0,1.23.67.67,0,0,0,.29.68c.36.21.42.67.57,1.05.07.16.11.27.18.3s.08,0,.14,0,.12-.07.18,0a.25.25,0,0,1,.11.13c.08.21,0,.21-.13.24s-.1.23,0,.36a4.62,4.62,0,0,0,.5.49l.06,0a.19.19,0,0,0,.23-.07c0-.05.09-.11.14-.09a.24.24,0,0,1,.09.13c.09.19.09.37,0,.43a1.72,1.72,0,0,1-.39.1l-.06.12.1.14a.41.41,0,0,1,.26,0,2.53,2.53,0,0,1,.23.12l.22.12a.33.33,0,0,0,.4,0c.08.15,0,.18,0,.28s0,.27.11.3a.12.12,0,0,0,.1,0,.37.37,0,0,1,.29,0,.7.7,0,0,1,.28.4.31.31,0,0,0,.19.2l.1,0a.37.37,0,0,1,.22.39c0,.22-.07.27-.23.2L10,32.39c-.07,0-.15,0-.15.12s0,.23.11.25h0a.76.76,0,0,1,.16.06l.16.07.16.08a.45.45,0,0,0,.45,0c.28-.16.24-.68-.07-1l-.06-.12.06-.09a.28.28,0,0,1,.18,0,.66.66,0,0,1,.32.59c0,.33.12.76-.16.91a.85.85,0,0,1-.79,0,1.45,1.45,0,0,1-.52-.42,1.68,1.68,0,0,1-.48-.7L9.22,32a1.76,1.76,0,0,1-.62-.6c-.25-.32-.16-.35,0-.51-.18-.07-.35-.18-.49-.07a.11.11,0,0,1-.12,0,.24.24,0,0,1-.13-.22.81.81,0,0,0-.22-.55l-.05-.15c0-.41-.27-.69-.39-1,0-.08-.06-.13-.09-.14s-.09,0-.13.08,0,.21-.14.17l0,0a.58.58,0,0,1-.11-.37,2.81,2.81,0,0,1,0-.29.57.57,0,0,0-.19-.48.37.37,0,0,1-.16-.21.65.65,0,0,0-.39-.55h0c-.23-.09-.31.12-.43.26l0,.12c0,.07,0,.1-.08.08s0,0-.06,0-.11-.18,0-.25c.25-.27.18-.78.19-1.22,0-.07,0-.17,0-.19H5.19c-.08,0-.1-.18-.1-.31,0-.33,0-.64,0-1,0-.09,0-.23,0-.23h0c.07,0,.08.16.12.23a.83.83,0,0,0,.11.13,2.24,2.24,0,0,0-.09-1.05.32.32,0,0,1,0-.37c.15-.18.28-.38.53-.35s.36-.21.59-.19c.06.16,0,.18-.07.26a.39.39,0,0,0,0,.28.31.31,0,0,0,.1.1l.08,0a.13.13,0,0,0,.12-.17c-.07-.39.1-.32.29-.33a1,1,0,0,0,.85-.54c0-.06,0-.16.1-.13s0,0,0,0a.33.33,0,0,1,.09.31A3.33,3.33,0,0,0,8,23a.34.34,0,0,0,.18.33h0c.1,0,.15,0,.16-.16a1.85,1.85,0,0,1,.12-.55c.05-.13.1-.18.16-.15s.11.1.17.24S9,23,9,23a.11.11,0,0,0,.08,0c.07,0,.15,0,.15-.15a.38.38,0,0,0-.13-.3,2,2,0,0,1-.25-.25c-.07-.07-.17-.16-.15-.29s.07-.08.13-.06l.08.05.1.06m1.39-.5-.11-.1c0-.1,0-.1.1-.09l.1.13-.09.06m0-.5a.17.17,0,0,0-.14,0,1.81,1.81,0,0,0-.89.43l-.14.07c-1.19.4-2.38.8-3.57,1.22-.23.08-.49.08-.64.31-.1,1.27-.12,2.59-.15,3.9A1.58,1.58,0,0,0,5.29,28c.27.34.55.67.84,1,.1.12.21.22.31.33a.32.32,0,0,0-.14,0l-.17.05a4.25,4.25,0,0,1-.79.24c-.28,0-.44.21-.44.64s0,.7,0,1.06a1.83,1.83,0,0,0,.48,1.3c.2.31.43.56.64.83.88,1.09,1.78,2.16,2.65,3.28A.79.79,0,0,1,9,37.1a1.71,1.71,0,0,0,.35.49,6.61,6.61,0,0,1,.75.83,1,1,0,0,0,.33.28.41.41,0,0,0,.31,0c1.63-.53,3.24-1.11,4.86-1.64a.42.42,0,0,0,.29-.49c0-.95.06-1.9.05-2.87a3,3,0,0,1,0-.79,1.62,1.62,0,0,0-.44-1.2c-.23-.28-.46-.59-.69-.86s-.24-.36,0-.44a7.06,7.06,0,0,1,.81-.29c.12,0,.26-.07.27-.27a13.24,13.24,0,0,0,0-2.17,3.87,3.87,0,0,0-.6-.81c-.67-.86-1.36-1.67-2-2.54-.3-.32-.57-.7-.86-1.05-.51-.61-1-1.26-1.51-1.87a1.39,1.39,0,0,0-.37-.36" fill="#f7f7f7"/>
              <path d="M10.14,21.85a.42.42,0,0,0-.59.21l-.09,0a.86.86,0,0,1-.42,0L8.94,22,8.86,22c-.06,0-.11,0-.13.06s.08.22.15.29a2,2,0,0,0,.25.25.38.38,0,0,1,.13.3c0,.14-.08.16-.15.15A.11.11,0,0,1,9,23c-.08,0-.13-.13-.19-.26s-.12-.22-.17-.24-.11,0-.16.15a1.85,1.85,0,0,0-.12.55c0,.12-.06.2-.16.16h0A.34.34,0,0,1,8,23a3.33,3.33,0,0,1,0-.46A.33.33,0,0,0,8,22.24s0,0,0,0-.07.07-.1.13a1,1,0,0,1-.85.54c-.19,0-.36-.06-.29.33a.13.13,0,0,1-.12.17l-.08,0a.31.31,0,0,1-.1-.1.39.39,0,0,1,0-.28c0-.08.13-.1.07-.26-.23,0-.37.2-.59.19s-.38.17-.53.35a.32.32,0,0,0,0,.37,2.24,2.24,0,0,1,.09,1.05.83.83,0,0,1-.11-.13c0-.07,0-.2-.12-.23h0c-.08,0,0,.14,0,.23,0,.33,0,.64,0,1,0,.13,0,.27.1.31h.17c.06,0,0,.12,0,.19,0,.44.06.95-.19,1.22-.07.07,0,.17,0,.25s0,0,.06,0,.06,0,.08-.08l0-.12c.12-.14.2-.35.43-.26h0a.65.65,0,0,1,.39.55.37.37,0,0,0,.16.21.57.57,0,0,1,.19.48,2.81,2.81,0,0,0,0,.29.58.58,0,0,0,.11.37l0,0c.09,0,.1-.11.14-.17s.09-.1.13-.08.06.06.09.14c.12.35.43.63.39,1l.05.15a.81.81,0,0,1,.22.55.24.24,0,0,0,.13.22.11.11,0,0,0,.12,0c.14-.11.31,0,.49.07-.13.16-.22.19,0,.51a1.76,1.76,0,0,0,.62.6l.13.17a1.68,1.68,0,0,0,.48.7,1.45,1.45,0,0,0,.52.42.85.85,0,0,0,.79,0c.28-.15.15-.58.16-.91a.66.66,0,0,0-.32-.59.28.28,0,0,0-.18,0l-.06.09.06.12c.31.35.35.87.07,1a.45.45,0,0,1-.45,0l-.16-.08-.16-.07a.76.76,0,0,0-.16-.06h0c-.06,0-.12-.16-.11-.25s.08-.14.15-.12l.46.19c.16.07.23,0,.23-.2a.37.37,0,0,0-.22-.39l-.1,0a.31.31,0,0,1-.19-.2.7.7,0,0,0-.28-.4.37.37,0,0,0-.29,0,.12.12,0,0,1-.1,0c-.08,0-.11-.15-.11-.3s.08-.13,0-.28a.33.33,0,0,1-.4,0l-.22-.12a2.53,2.53,0,0,0-.23-.12.41.41,0,0,0-.26,0l-.1-.14.06-.12a1.72,1.72,0,0,0,.39-.1c.13-.06.13-.24,0-.43a.24.24,0,0,0-.09-.13c-.05,0-.1,0-.14.09a.19.19,0,0,1-.23.07l-.06,0a4.62,4.62,0,0,1-.5-.49c-.11-.13-.14-.3,0-.36s.21,0,.13-.24a.25.25,0,0,0-.11-.13c-.06,0-.13,0-.18,0s-.1.06-.14,0-.11-.14-.18-.3c-.15-.38-.21-.84-.57-1.05a.67.67,0,0,1-.29-.68,7.15,7.15,0,0,0,0-1.23c0-.46,0-.88,0-1.34,0-.12,0-.27.11-.24l0,0c.09,0,.09.15.1.27a.55.55,0,0,0,.26.41h0c.16.06.12-.15.14-.28A.19.19,0,0,1,7.06,24a.44.44,0,0,1,.34,0,.7.7,0,0,1,.19.14.46.46,0,0,0,.1.07c.06,0,.09,0,0-.18s0-.2.08-.16l.1.06a1.26,1.26,0,0,1,.21.36c.16-.2,0-.42-.13-.59a.48.48,0,0,0-.16-.16c-.07,0-.14,0-.2.08a.14.14,0,0,1-.2.06.59.59,0,0,1-.18-.14.36.36,0,0,1,0-.38c.07-.21.25-.15.4-.13l.17,0a.39.39,0,0,1,.22.27.41.41,0,0,0,.15.25.09.09,0,0,0,.1,0h.06s.07.06.11.12.08.11.12.12.11,0,.15-.08c.1-.22.23-.34.44-.25l.12.07.06,0c.12.05.19,0,.12-.24s0-.22.07-.19l.08.05a1.4,1.4,0,0,1,.21.26s.06.08.09.09,0,0,.07,0,0-.16,0-.24l-.11-.16c-.06-.1-.07-.2,0-.26l.17.11a1.1,1.1,0,0,0,.41.44.41.41,0,0,0,.43-.07.13.13,0,0,1,.14,0,.3.3,0,0,1,.11.13c.07.14,0,.23-.06.28l-.09,0-.05.13L11,24c.14-.16.42,0,.52-.24,0-.08.08-.08.13-.06l.11.07a.36.36,0,0,1,.11.28c0,.17-.09.14-.18.12h-.15c-.07.06-.17.12-.14.27a.13.13,0,0,0,.07.11s.1,0,.15,0h0a1.17,1.17,0,0,1,.58.84.89.89,0,0,0,.46.62.29.29,0,0,0,.18,0,.3.3,0,0,1,.21,0s.07.05.1.11-.05.2-.11.25l-.05.17.15.09c.09,0,.17-.07.27,0l0,0,.13.12-.05.13c-.08,0-.15.11,0,.27a.17.17,0,0,0,.08.07c.06,0,.09-.07.11-.14s.07-.16.15-.12h0a.4.4,0,0,1,.13.34v.15c0,.14,0,.29.13.39l.05,0a.1.1,0,0,0,.12,0c.06-.11-.06-.21-.09-.32s-.07-.28,0-.32h.07a.38.38,0,0,1,.17.2.76.76,0,0,1,.05.44,1.28,1.28,0,0,0,.62,1.32l.1,0,.08,0a.31.31,0,0,1,.17.22l.13.1v-.22c-.06-.1-.18-.2-.15-.34a5.08,5.08,0,0,0,0-.79,1.2,1.2,0,0,0-.58-1.2.41.41,0,0,0-.18,0c.08.29.29.4.43.58a.37.37,0,0,1,.12.31.15.15,0,0,1-.18.12h0C15,28,15,27.9,15,27.81a4.75,4.75,0,0,0-.48-.83c-.09-.16-.36-.11-.31-.41,0-.1.05-.11.09-.09l.11.08.11.08h.06c-.06-.25-.12-.38-.23-.43s-.19,0-.35.05-.12.08-.18,0a.24.24,0,0,1-.08-.09c-.09-.16,0-.23.07-.32s.13-.1.05-.23l0-.05s-.1,0-.14.06-.32.22-.54.13l-.07,0c-.07-.05-.18-.06-.19-.21s.09-.11.18-.09l.11.05.07,0c.06,0,.11,0,.14,0s-.12-.33-.19-.49l0-.08c-.11-.13-.07-.44-.21-.5h-.06c-.19,0,0,.35-.06.54s.05.43-.15.37h0c-.16-.07-.18-.28-.21-.47a1.37,1.37,0,0,0-.27-.83c-.14-.15-.22-.24-.14-.43a.17.17,0,0,0-.07-.23h0a.28.28,0,0,1-.13,0,.74.74,0,0,1-.31-.34c-.14-.23-.25-.53-.45-.62a.22.22,0,0,0-.14,0l0,0a5.29,5.29,0,0,0-.69-.47" fill="#f7f7f7"/>
              <path d="M5.94,27.61a.2.2,0,0,0-.24.05l-.1.07s-.14,0-.1.13a.1.1,0,0,0,0,.08s.07,0,.1-.05a.07.07,0,0,1,.08,0,.33.33,0,0,1,.13.15,1.66,1.66,0,0,1,.19.48c0,.08,0,.17.1.2h0c.07,0,.09-.09.09-.17v-.22c0-.2,0-.41-.14-.57a.77.77,0,0,0-.19-.14" fill="#f7f7f7"/>
              <path d="M15.15,29.53h0c-.19,0-.33.09-.5.14v.13l.12.08a.71.71,0,0,1,.41,0c.07,0,.11,0,.12-.13s0-.18-.11-.2" fill="#f7f7f7"/>
              <path d="M7,29.49s-.11-.06-.11,0a.46.46,0,0,0,.22.32h0s.07,0,.06-.11a.29.29,0,0,0-.2-.25" fill="#f7f7f7"/>
              <path d="M8.35,22c-.07,0-.12,0-.13.11a.21.21,0,0,0,.1.19l0,0c.06,0,.11,0,.13-.1a.23.23,0,0,0-.12-.2s0,0,0,0" fill="#f7f7f7"/>
              <path d="M8.15,29.07a.12.12,0,0,0-.16.1.14.14,0,0,0,.08.17h0c.07,0,.15,0,.16-.09a.18.18,0,0,0-.09-.19" fill="#f7f7f7"/>
              <path d="M12.48,23.86c-.05,0-.08,0-.08.09a.2.2,0,0,0,.12.23h0s.08,0,.09-.07a.43.43,0,0,0-.15-.25h0" fill="#f7f7f7"/>
              <path d="M6.51,28.92a.28.28,0,0,0-.13,0c0,.15.08.29.2.34l0-.11c0-.13-.06-.18-.12-.2" fill="#f7f7f7"/>
              <path d="M11.36,31.7l-.08.05a.19.19,0,0,0,.1.18l.07-.05a.19.19,0,0,0-.09-.18" fill="#f7f7f7"/>
              <polyline points="10.73 33.57 10.63 33.62 10.7 33.78 10.79 33.71 10.73 33.57" fill="#f7f7f7"/>
              <path d="M10.42,21.37c-.06,0-.11,0-.1.09l.11.1.09-.06-.1-.13" fill="#f7f7f7"/>
              <polyline points="5.17 23.72 5.11 23.79 5.17 23.95 5.24 23.86 5.17 23.72" fill="#f7f7f7"/>
              <polyline points="8.96 30.35 8.9 30.43 8.97 30.59 9.03 30.51 8.96 30.35" fill="#f7f7f7"/>
              <polyline points="10.09 33.35 10.02 33.41 10.08 33.55 10.15 33.49 10.09 33.35" fill="#f7f7f7"/>
              <path d="M17,24.56s0,0-.06,0a3.27,3.27,0,0,0-.09,2.63,3.57,3.57,0,0,0,1.73,2.21l.27.09c1.39.38,2.16-1.48,1.4-3.43,0-.07,0-.11-.07-.12a.06.06,0,0,0-.07,0l-1.41.49a.14.14,0,0,1-.11,0,.46.46,0,0,1-.1-.1c-.47-.59-.95-1.17-1.42-1.77L17,24.56" fill="#fff"/>
              <path d="M18.55,25.32l-.84-1.05,0-.12c.29-.51.59-1,.89-1.5l0,0,.06.11.75,2c0,.13.14.28.12.35s-.13.07-.2.09c-.23.09-.44.16-.67.23l-.12,0m.06-3.5-1.36,2.27,0,.15,1.25,1.55.13.06,1.24-.43c.06,0,.08-.05,0-.16-.16-.43-.33-.85-.5-1.29-.27-.71-.54-1.42-.83-2.15" fill="#fff"/>
            </g>
          </g>
        </g>
      </g>
      <g>
        <polygon points="24.2 19.46 1.41 9.17 25.96 0.24 48.75 10.53 24.2 19.46" fill="#b6582e"/>
        <g style="isolation: isolate">
          <g clip-path="url(#clip-path-2)">
            <g>
              <path d="M26,12.65h-.14l0-.06h.14l0,.06m.66-.26-.17,0,0-.07h.14v.08m-.83-1a.3.3,0,0,1-.21,0l0-.06a.26.26,0,0,1,.21,0l0,.05M21,13.06h0a.64.64,0,0,1-.39,0c-.08,0,0-.05.06-.07A.5.5,0,0,1,21,13c.06,0,.08,0,0,.07m2-.78-.17,0v0H23v.06m-2.85.86a.68.68,0,0,1-.4,0,.34.34,0,0,1,.12-.06.37.37,0,0,1,.24,0l0,.07m1.24-.78a.21.21,0,0,1-.19,0c-.05,0,0-.08.05-.12a.3.3,0,0,1,.21,0c.06,0,0,.09-.06.12h0m-3,.92h-.09c-.12,0,0-.06,0-.1l0-.08c0-.06.06-.11.15-.14a.89.89,0,0,1,.77,0l.16.08c.06,0,.12.06.06.1h0a.33.33,0,0,1-.22,0,2.76,2.76,0,0,0-.51,0,.59.59,0,0,0-.2,0s-.05,0-.06.05,0,.06,0,.07m8.53-4.4-.15,0-.09-.05c.09-.1.11-.22.28-.31l0,0a.4.4,0,0,1,.24,0c.07,0,.06.08,0,.11a1,1,0,0,0-.31.22M15.18,12.17l-.17,0V12.1h.16v.07M18,10.64a.39.39,0,0,0,.16-.15c.29-.35.55-.7.84-1.05a.51.51,0,0,1,.23-.17,1.33,1.33,0,0,1,.26,0c.54,0,1.07-.1,1.61-.13l.34,0c1-.07,2-.17,3-.24s.79-.14,1.55.2l.31.15c.16.07.22.1.16.13l-.29,0c-1.48.13-3,.25-4.46.39-.21,0-.4,0-.6,0a2.25,2.25,0,0,0-.58.1.31.31,0,0,0-.16.09,2,2,0,0,0-.59.8c.5.27,1.08.51,1.64.75a.45.45,0,0,0,.39,0,.33.33,0,0,0,.13-.07,2.31,2.31,0,0,0,.38-.47.47.47,0,0,1,.26-.18,2.08,2.08,0,0,1,.53-.1c1-.09,2-.1,2.94-.24.73-.07,1.47-.12,2.21-.18a1.33,1.33,0,0,1,.74.1c.24.12.49.23.76.34s.28.19.18.33c-.52.67-1.09,1.34-1.58,2a.63.63,0,0,1-.29.2,2.55,2.55,0,0,1-.59.1c-.84.06-1.68.13-2.51.22-.27,0-.55,0-.83.06-.68,0-1.35.15-2.05.14a.94.94,0,0,1-.54-.07c-.29-.14-.58-.28-.89-.41l-.2-.06a2.39,2.39,0,0,1,.46,0L24,13a3.71,3.71,0,0,1,.83-.08c.33,0,.66-.07,1-.06l.5-.07a1.37,1.37,0,0,0,.4-.07.56.56,0,0,0,.2-.12,4.64,4.64,0,0,0,.53-.68c0-.06,0-.12-.06-.17a11.35,11.35,0,0,0-1.52-.68.65.65,0,0,0-.41,0l-.09.05c-.27.17-.34.37-.51.56a.44.44,0,0,1-.21.13,1,1,0,0,1-.36.07c-.32,0-.64.05-1,.08l-1.94.17c-.82,0-1.62.13-2.43.19a1.35,1.35,0,0,1-.75-.1l-.76-.34c-.22-.09-.25-.19-.15-.31s.36-.45.52-.67c.05-.06.12-.13-.06-.19h0a.58.58,0,0,0,.21,0m3.1-2.43h0a.29.29,0,0,1-.27,0s-.06-.06,0-.07h0a.76.76,0,0,1,.3,0c.06,0,0,.06,0,.08M16.45,9.89H16.4a.25.25,0,0,1-.21,0c-.07,0-.06-.07,0-.1h0a.33.33,0,0,1,.24,0c.06.05,0,.08,0,.11m.33-.47a1.25,1.25,0,0,0,.34-.22l.05-.06c-.08-.19.07-.3.31-.39a8.48,8.48,0,0,1,.87-.22h0a.33.33,0,0,1,.13-.07,2.31,2.31,0,0,1,.8,0,1.43,1.43,0,0,0,.49-.06l.12-.06.05,0a.19.19,0,0,1,.22,0c.08.11.21.09.43.06a1.82,1.82,0,0,1,.81.13.75.75,0,0,0,.51,0h0c.2-.08,0-.14-.14-.2s-.51-.11-.36-.21l.06,0c.15-.05.35.07.53.06h.08c.18,0,.43,0,.51.06s0,.07-.07.09l-.09,0-.12,0c-.08,0-.2.08-.08.13a.47.47,0,0,0,.31,0l.09,0c.24-.09.22-.22.32-.34S23,8,23.08,8h.07c.14,0,.1.06.12.1s0,.14.18.15l.14,0c.06,0,.07-.07.1-.11a.46.46,0,0,1,.23-.21,1,1,0,0,1,.5,0l-.06,0-.14,0-.14,0s-.07,0,0,.08.36,0,.54,0a8.2,8.2,0,0,1,1,0,.46.46,0,0,0,.26,0h0c.06-.05.1-.1,0-.14s-.2,0-.32,0a2.68,2.68,0,0,1-.76.05A.76.76,0,0,1,25,7.85a1.76,1.76,0,0,1,1.34.08c.16.1.4.18.54.29s.23,0,.36,0l.16.08-.18,0a.53.53,0,0,0-.29,0l-.09,0-.1.05a1.85,1.85,0,0,1-1.45-.1A.76.76,0,0,0,25,8.25a.8.8,0,0,0-.28,0l-.05,0c-.05.07.09.1.21.12s.27,0,.3.06,0,0-.08.07l-.06,0a.64.64,0,0,1-.38-.06l-.11,0a.51.51,0,0,0-.35,0h0c-.09,0-.06.08,0,.12s.08.09,0,.11l-.11,0c-.21,0-.18,0-.16-.11l-.07-.07-.18,0h0c-.11,0-.13.1-.19.16l-.17,0-.1-.08c0-.06.13-.14-.09-.15a.26.26,0,0,0-.16,0c-.08,0-.11.08-.15.12a.31.31,0,0,1-.16.09,1.55,1.55,0,0,1-.8.05,1.93,1.93,0,0,0-1.07,0h0l-.13.07a.25.25,0,0,1-.13,0c-.13,0-.11-.11-.09-.17l.1-.08c.09,0,.18-.09.06-.15a.54.54,0,0,0-.29,0l-.14,0c-.06,0-.1,0-.06.09s-.23.24-.22.37l-.14,0L19.54,9l0-.06c0-.07,0-.12-.16-.13l-.18,0a.13.13,0,0,0-.08.08.41.41,0,0,1-.28.26,1.66,1.66,0,0,1-.64.08L18,9.29c0,.06.07.08.19.08h.2c.11,0,.2,0,.21.06s0,0,0,0a.28.28,0,0,1-.14,0,2,2,0,0,0-.35,0l-.09,0c-.08,0-.1.06.08.1s.21.1.09.15l-.08,0-.15,0c-.22.09-.24.2-.16.32s0,.09-.05.12l-.18,0a.5.5,0,0,0-.18,0s0,0,0,0a.14.14,0,0,1-.08.05.62.62,0,0,1-.31,0,.63.63,0,0,0-.37,0l-.16.07c-.13.08-.31.16-.21.27a.32.32,0,0,0,.31.1.85.85,0,0,0,.24-.05c.08,0,.14-.07.12-.13s0-.11.09-.14a.78.78,0,0,1,.24,0c.21,0,.51,0,.54.12a2.16,2.16,0,0,0-.44,0l-.11,0c-.08,0-.1.06.05.1s.16.07.1.09l-.14,0A.77.77,0,0,0,17,11a.57.57,0,0,0-.27.19c0,.05,0,.08,0,.12s.27.1.1.16h0a.82.82,0,0,1-.49,0,.48.48,0,0,0-.28,0l-.05,0c-.11.06,0,.11.09.14.38.13.65.3,1,.42a4.93,4.93,0,0,1,.86.44,1,1,0,0,0,.73.06,2.94,2.94,0,0,1,1.22,0,1.12,1.12,0,0,0,.36,0,.14.14,0,0,0,.08-.1.17.17,0,0,1,.11-.11.48.48,0,0,1,.18,0c.22,0,.11.09.07.15s.09.13.27.11l.75-.11.07,0c.1,0,.14-.1.13-.15s0-.09,0-.11h.16c.21,0,.34.07.29.16a2.51,2.51,0,0,1-.23.25l0,.07h.18a.66.66,0,0,1,.24-.13l.26-.09.25-.08c.16,0,.28-.12.29-.23.16,0,.12.07.2.09a.42.42,0,0,0,.3,0,.12.12,0,0,0,.08-.06.44.44,0,0,1,.21-.16,1.1,1.1,0,0,1,.5,0,.73.73,0,0,0,.31,0l.1,0a.57.57,0,0,1,.46,0c.17.07.14.13,0,.19l-.5.19c-.07,0-.12.08,0,.12a.45.45,0,0,0,.28,0h0l.17-.07.18-.06.17-.06a.72.72,0,0,0,.37-.24c.09-.21-.32-.36-.82-.31h-.14v-.07a.35.35,0,0,1,.15-.09,1,1,0,0,1,.68,0c.23.11.65.18.54.39a1,1,0,0,1-.57.45,3.28,3.28,0,0,1-.71.14,2.63,2.63,0,0,1-.89,0l-.23,0a4,4,0,0,1-.91.14c-.44,0-.39,0-.41-.15-.19.08-.4.13-.43.25s0,.05-.08.07a.46.46,0,0,1-.26,0,1.24,1.24,0,0,0-.58-.06l-.15,0c-.27-.16-.71-.08-1.06-.13a.52.52,0,0,0-.18,0c-.05,0-.05.06,0,.1s.11.1,0,.13l-.06,0a.67.67,0,0,1-.35-.07,1.45,1.45,0,0,1-.22-.09.85.85,0,0,0-.51-.05.63.63,0,0,1-.27,0,1.06,1.06,0,0,0-.71,0l0,0c-.24.1-.14.21-.14.32l.06.06s0,.06,0,.08h-.08c-.12,0-.22,0-.22-.06,0-.23-.43-.35-.75-.5a.19.19,0,0,0-.18,0l-.05,0a.24.24,0,0,1-.08.06.49.49,0,0,1-.31,0c-.25-.1-.48-.21-.71-.32-.07,0-.2-.06-.13-.1l0,0a1.15,1.15,0,0,1,.26,0h.18A1.85,1.85,0,0,0,15,12c-.17,0-.25-.07-.25-.13s-.07-.28.15-.41.12-.27.32-.38.1.08.14.12a.28.28,0,0,0,.22.08l.14,0,.08,0c.06,0,.05-.09,0-.12-.33-.09-.15-.16,0-.27s.38-.41.26-.64c0,0-.09-.07,0-.1h0a.39.39,0,0,1,.3,0,1.8,1.8,0,0,0,.31.17.53.53,0,0,0,.39,0h0c.11-.05.09-.1,0-.15a.92.92,0,0,1-.32-.24c-.05-.07-.05-.12,0-.14a.87.87,0,0,1,.31,0,.71.71,0,0,0,.33,0l.07,0c.07,0,.11-.09,0-.14a.55.55,0,0,0-.32,0,2.16,2.16,0,0,1-.38.06.49.49,0,0,1-.32,0c-.05,0,0-.07,0-.09l.09,0,.13,0m.71-.93-.16,0c-.08,0,0,0,0-.08h.17l0,.06m-.38-.15a.35.35,0,0,0-.12.07,1.1,1.1,0,0,0-.37.63l-.06.1c-.62.79-1.25,1.57-1.86,2.36-.11.15-.31.29-.27.46.86.47,1.82.92,2.76,1.36a2,2,0,0,0,1.09.13c.46,0,.91-.07,1.36-.13l.49-.06a.37.37,0,0,0-.12.07l-.1.11a3.33,3.33,0,0,1-.43.51c-.21.15-.19.31.13.45l.77.36a2.43,2.43,0,0,0,1.33.17c.38,0,.74,0,1.1-.08,1.5-.13,3-.26,4.47-.37a1.61,1.61,0,0,1,.5,0,2.56,2.56,0,0,0,.63,0c.39-.07.8-.09,1.2-.13a2.23,2.23,0,0,0,.45-.09.58.58,0,0,0,.25-.17c.87-1.07,1.69-2.14,2.55-3.21.09-.11.11-.23-.14-.32-.67-.33-1.35-.66-2.06-1a2,2,0,0,1-.58-.27,2.27,2.27,0,0,0-1.23-.16l-1.16.1c-.39,0-.45,0-.33-.15a6.59,6.59,0,0,1,.42-.54c.06-.07.15-.16,0-.23a10.37,10.37,0,0,0-1.64-.69,6.17,6.17,0,0,0-1.06.06c-1.15.08-2.28.2-3.44.28-.47.06-1,.08-1.44.12-.85.08-1.71.13-2.55.22a2.2,2.2,0,0,0-.55.08" fill="#f7f7f7"/>
              <path d="M17.48,8.75c-.24.09-.39.2-.31.39l-.05.06a1.25,1.25,0,0,1-.34.22l-.13,0-.09,0c-.06,0-.1,0,0,.09a.49.49,0,0,0,.32,0,2.16,2.16,0,0,0,.38-.06.55.55,0,0,1,.32,0c.1,0,.06.1,0,.14l-.07,0a.71.71,0,0,1-.33,0,.87.87,0,0,0-.31,0c-.07,0-.07.07,0,.14a.92.92,0,0,0,.32.24c.08,0,.1.1,0,.15h0a.53.53,0,0,1-.39,0,1.8,1.8,0,0,1-.31-.17.39.39,0,0,0-.3,0h0c-.07,0,0,.07,0,.1.12.23,0,.45-.26.64s-.32.18,0,.27c.09,0,.1.08,0,.12l-.08,0-.14,0a.28.28,0,0,1-.22-.08s0-.1-.14-.12-.14.27-.32.38-.18.27-.15.41.08.12.25.13a1.85,1.85,0,0,1,.85.3h-.18a1.15,1.15,0,0,0-.26,0l0,0c-.07,0,.06.07.13.1.23.11.46.22.71.32a.49.49,0,0,0,.31,0,.24.24,0,0,0,.08-.06l.05,0a.19.19,0,0,1,.18,0c.32.15.75.27.75.5,0,.06.1.07.22.06h.08s0,0,0-.08l-.06-.06c0-.11-.1-.22.14-.32l0,0a1.06,1.06,0,0,1,.71,0,.63.63,0,0,0,.27,0,.85.85,0,0,1,.51.05,1.45,1.45,0,0,0,.22.09.67.67,0,0,0,.35.07l.06,0c.09,0,0-.09,0-.13s0-.08,0-.1a.52.52,0,0,1,.18,0c.35,0,.79,0,1.06.13l.15,0a1.24,1.24,0,0,1,.58.06.46.46,0,0,0,.26,0s.07,0,.08-.07.24-.17.43-.25c0,.12,0,.18.41.15a4,4,0,0,0,.91-.14l.23,0a2.63,2.63,0,0,0,.89,0,3.28,3.28,0,0,0,.71-.14,1,1,0,0,0,.57-.45c.11-.21-.31-.28-.54-.39a1,1,0,0,0-.68,0,.35.35,0,0,0-.15.09v.07h.14c.5-.05.91.1.82.31a.72.72,0,0,1-.37.24l-.17.06-.18.06-.17.07h0a.45.45,0,0,1-.28,0c-.09,0,0-.09,0-.12l.5-.19c.17-.06.2-.12,0-.19a.57.57,0,0,0-.46,0l-.1,0a.73.73,0,0,1-.31,0,1.1,1.1,0,0,0-.5,0,.44.44,0,0,0-.21.16.12.12,0,0,1-.08.06.42.42,0,0,1-.3,0c-.08,0,0-.08-.2-.09,0,.11-.13.18-.29.23l-.25.08-.26.09a.66.66,0,0,0-.24.13h-.18l0-.07a2.51,2.51,0,0,0,.23-.25c0-.09-.08-.15-.29-.16H22c-.06,0,0,.07,0,.11s0,.11-.13.15l-.07,0-.75.11c-.18,0-.33,0-.27-.11s.15-.13-.07-.15a.48.48,0,0,0-.18,0,.17.17,0,0,0-.11.11.14.14,0,0,1-.08.1,1.12,1.12,0,0,1-.36,0,2.94,2.94,0,0,0-1.22,0,1,1,0,0,1-.73-.06,4.93,4.93,0,0,0-.86-.44c-.37-.12-.64-.29-1-.42-.1,0-.2-.08-.09-.14l.05,0a.48.48,0,0,1,.28,0,.82.82,0,0,0,.49,0h0c.17-.06,0-.11-.1-.16s-.05-.07,0-.12A.57.57,0,0,1,17,11a.77.77,0,0,1,.24-.06l.14,0c.06,0,.06-.05-.1-.09s-.13-.07-.05-.1l.11,0a2.16,2.16,0,0,1,.44,0c0-.15-.33-.12-.54-.12a.78.78,0,0,0-.24,0c-.08,0-.11.08-.09.14s0,.1-.12.13a.85.85,0,0,1-.24.05.32.32,0,0,1-.31-.1c-.1-.11.08-.19.21-.27l.16-.07a.63.63,0,0,1,.37,0,.62.62,0,0,0,.31,0,.14.14,0,0,0,.08-.05s0,0,0,0a.5.5,0,0,1,.18,0l.18,0c.07,0,.07-.07.05-.12s-.06-.23.16-.32l.15,0,.08,0c.12-.05.15-.1-.09-.15s-.16-.07-.08-.1l.09,0a2,2,0,0,1,.35,0,.28.28,0,0,0,.14,0s.05,0,0,0-.1-.07-.21-.06h-.2c-.12,0-.2,0-.19-.08l.21-.06a1.66,1.66,0,0,0,.64-.08.41.41,0,0,0,.28-.26.13.13,0,0,1,.08-.08l.18,0c.16,0,.2.06.16.13l0,.06.06.07.14,0c0-.13.35-.22.22-.37s0-.07.06-.09l.14,0a.54.54,0,0,1,.29,0c.12.06,0,.1-.06.15l-.1.08c0,.06,0,.13.09.17a.25.25,0,0,0,.13,0l.13-.07h0a1.93,1.93,0,0,1,1.07,0,1.55,1.55,0,0,0,.8-.05.31.31,0,0,0,.16-.09s.07-.1.15-.12a.26.26,0,0,1,.16,0c.22,0,.11.09.09.15l.1.08.17,0c.06-.06.08-.12.19-.16h0l.18,0,.07.07c0,.06-.05.12.16.11l.11,0c.07,0,0-.07,0-.11s-.07-.09,0-.12h0a.51.51,0,0,1,.35,0l.11,0a.64.64,0,0,0,.38.06l.06,0c.06,0,.09-.05.08-.07s-.2,0-.3-.06-.26,0-.21-.12l.05,0a.8.8,0,0,1,.28,0,.76.76,0,0,1,.36.12,1.85,1.85,0,0,0,1.45.1l.1-.05.09,0a.53.53,0,0,1,.29,0l.18,0-.16-.08c-.13,0-.28,0-.36,0s-.38-.19-.54-.29A1.76,1.76,0,0,0,25,7.85a.76.76,0,0,0-.18.09,2.68,2.68,0,0,0,.76-.05c.12,0,.26,0,.32,0s0,.09,0,.14h0a.46.46,0,0,1-.26,0,8.2,8.2,0,0,0-1,0c-.18,0-.36.16-.54,0s0-.07,0-.08l.14,0,.14,0,.06,0a1,1,0,0,0-.5,0,.46.46,0,0,0-.23.21s0,.09-.1.11l-.14,0c-.19,0-.15-.09-.18-.15s0-.1-.12-.1h-.07c-.06,0,0,.06-.07.09s-.08.25-.32.34l-.09,0a.47.47,0,0,1-.31,0c-.12-.05,0-.09.08-.13l.12,0,.09,0c.06,0,.1,0,.07-.09s-.33,0-.51-.06h-.08c-.18,0-.38-.11-.53-.06l-.06,0c-.15.1.23.13.36.21s.34.12.14.2h0a.75.75,0,0,1-.51,0,1.82,1.82,0,0,0-.81-.13c-.22,0-.35.05-.43-.06a.19.19,0,0,0-.22,0l-.05,0-.12.06a1.43,1.43,0,0,1-.49.06,2.31,2.31,0,0,0-.8,0,.33.33,0,0,0-.13.07h0a8.48,8.48,0,0,0-.87.22" fill="#f7f7f7"/>
              <path d="M18.47,13c-.09,0-.16.08-.15.14l0,.08s-.1.09,0,.1h.09s0,0,0-.07,0,0,.06-.05a.59.59,0,0,1,.2,0,2.76,2.76,0,0,1,.51,0,.33.33,0,0,0,.22,0h0c.06,0,0-.08-.06-.1L19.24,13a.89.89,0,0,0-.77,0" fill="#f7f7f7"/>
              <path d="M27,8.54l0,0c-.17.09-.19.21-.28.31l.09.05.15,0a1,1,0,0,1,.31-.22c.06,0,.07-.07,0-.11a.4.4,0,0,0-.24,0" fill="#f7f7f7"/>
              <path d="M20.65,13s-.14.05-.06.07a.64.64,0,0,0,.39,0h0c.05,0,0-.05,0-.07a.5.5,0,0,0-.34,0" fill="#f7f7f7"/>
              <path d="M16.21,9.79c-.08,0-.09.07,0,.1a.25.25,0,0,0,.21,0h.05c.06,0,.09-.06,0-.11a.33.33,0,0,0-.24,0h0" fill="#f7f7f7"/>
              <path d="M21.25,12.23c-.08,0-.1.08-.05.12a.21.21,0,0,0,.19,0h0c.07,0,.12-.08.06-.12a.3.3,0,0,0-.21,0" fill="#f7f7f7"/>
              <path d="M20.76,8.14c-.05,0,0,0,0,.07a.29.29,0,0,0,.27,0h0c.05,0,.08-.05,0-.08a.76.76,0,0,0-.3,0h0" fill="#f7f7f7"/>
              <path d="M19.87,13.08a.34.34,0,0,0-.12.06.68.68,0,0,0,.4,0l0-.07a.37.37,0,0,0-.24,0" fill="#f7f7f7"/>
              <path d="M25.67,11.34l0,.06a.3.3,0,0,0,.21,0l0-.05a.26.26,0,0,0-.21,0" fill="#f7f7f7"/>
              <polyline points="26.56 12.3 26.52 12.37 26.69 12.39 26.7 12.31 26.56 12.3" fill="#f7f7f7"/>
              <path d="M17.34,8.44c-.06,0-.09.06,0,.08l.16,0,0-.06h-.17" fill="#f7f7f7"/>
              <polyline points="15.01 12.1 15.01 12.15 15.18 12.17 15.16 12.1 15.01 12.1" fill="#f7f7f7"/>
              <polyline points="22.82 12.21 22.83 12.26 23 12.28 22.99 12.22 22.82 12.21" fill="#f7f7f7"/>
              <polyline points="25.91 12.58 25.89 12.64 26.03 12.65 26.05 12.59 25.91 12.58" fill="#f7f7f7"/>
              <path d="M24.79,5.88s0,0,0,0c.22.44.83.76,1.87.91a6.28,6.28,0,0,0,3-.21l.27-.12c1.36-.64.58-1.67-1.44-1.91-.07,0-.11,0-.14,0s0,0-.05,0l-.73,1a.16.16,0,0,1-.08,0,.42.42,0,0,1-.14,0l-2.41.19-.09,0" fill="#fff"/>
              <path d="M26.54,5.29l-1.43.11-.11,0-.42-1v0h.13l2,.23a1.24,1.24,0,0,1,.35.05s-.05.09-.09.14-.23.3-.35.44l-.12.06M24,4.09c.2.51.41,1,.62,1.5l.13,0,2.11-.17.14,0,.65-.83s0-.06-.09-.07l-1.34-.15L24,4.09" fill="#fff"/>
            </g>
          </g>
        </g>
      </g>
      <g>
        <polygon points="48.75 10.53 48.59 40.82 24.04 49.76 24.2 19.46 48.75 10.53" fill="#ba592f"/>
        <g style="isolation: isolate">
          <g clip-path="url(#clip-path-3)">
            <g>
              <path d="M33.46,36.45l-.06-.09.08-.12.06.09-.08.12m.69-.29-.08-.11.11-.13.07.09-.1.15m.75-2.42c-.06,0-.1,0-.1-.1l.08-.11c.07,0,.1,0,.1.1l-.08.11m-4.71,1.54h0c-.1,0-.23,0-.24-.12s.09-.1.12-.13.2,0,.22.08,0,.15-.08.17m2.06-.85-.08-.1.07-.12.07.1-.06.12m-2.63.67c-.13,0-.18-.05-.22-.17a.41.41,0,0,1,.14-.08c.07,0,.11,0,.14.09l-.06.16M31.26,34c-.07,0-.11,0-.09-.11a.31.31,0,0,1,.18-.23c.06,0,.12,0,.1.1a.31.31,0,0,1-.18.23h0m-2.78.72s0,0-.05,0,.06-.14.11-.21l.12-.17a.46.46,0,0,1,.26-.24.64.64,0,0,1,.2,0c.19,0,.15.26.15.46v.22a.27.27,0,0,1-.09.24h0c-.07,0-.09,0-.11-.11a.61.61,0,0,0-.22-.31.15.15,0,0,0-.13,0,.26.26,0,0,0-.1.09c0,.05-.07.12-.11.13m10.13-5.84-.13,0v-.14a3.2,3.2,0,0,1,.54-.56h0c.07,0,.12,0,.13.1a.26.26,0,0,1-.13.23,1.83,1.83,0,0,0-.45.35M28.07,31,28,30.93l.06-.12.08.07-.08.16m3.43-2.12a1,1,0,0,0,.27-.24c.6-.63,1.17-1.27,1.77-1.89a1.07,1.07,0,0,1,.33-.26.23.23,0,0,1,.2,0c.35.14.71.23,1,.38a1,1,0,0,1,.24.05c.63.25,1.29.45,1.92.68s.6,0,.6,1.06c0,.14,0,.29,0,.43s0,.32-.07.34-.1,0-.21,0c-1-.32-1.93-.69-2.93-1a1.76,1.76,0,0,0-.37-.17.56.56,0,0,0-.44,0,.46.46,0,0,0-.2.13,8.75,8.75,0,0,0-1.31,1.45c-.05.77,0,1.5,0,2.25,0,.19.06.27.18.23a.67.67,0,0,0,.17-.12,10.16,10.16,0,0,0,.78-.82.88.88,0,0,1,.37-.28.64.64,0,0,1,.41,0,10.68,10.68,0,0,0,1.92.68l1.44.51c.2.07.3.22.28.52s0,.69,0,1a1.09,1.09,0,0,1-.31.77C36.44,35.8,35.3,37,34.2,38.2a1.12,1.12,0,0,1-.41.3.64.64,0,0,1-.45,0,13.3,13.3,0,0,0-1.65-.55c-.18-.07-.36-.13-.53-.21a6.2,6.2,0,0,1-1.31-.53c-.15,0-.2-.18-.2-.38,0-.41,0-.82,0-1.22a.56.56,0,0,0,0-.21.54.54,0,0,1,.25.21c.69.23,1.39.47,2.07.73a.76.76,0,0,1,.55.18,1.51,1.51,0,0,1,.64.27,1.07,1.07,0,0,1,.35.06.35.35,0,0,0,.3,0,.69.69,0,0,0,.26-.17c.39-.39.77-.79,1.14-1.23a.65.65,0,0,0,.18-.38,14,14,0,0,0,0-2.05c0-.17-.07-.25-.19-.21l-.11.06a9.07,9.07,0,0,0-1,1,.67.67,0,0,1-.27.2.39.39,0,0,1-.28,0c-.2-.09-.43-.14-.64-.23-.42-.16-.86-.26-1.28-.42S30.54,33,30,32.8a.47.47,0,0,1-.29-.51v-1a1,1,0,0,1,.3-.73c.37-.4.75-.79,1.11-1.19a.51.51,0,0,0,.2-.43h0a.16.16,0,0,0,.15,0M36.21,25h0c-.09,0-.16,0-.14-.13a.15.15,0,0,1,.09-.15h0c.08,0,.13,0,.15.12a.15.15,0,0,1-.1.16m-4.62,1.68h0c-.07,0-.12,0-.11-.11a.24.24,0,0,1,.14-.21h0c.07,0,.12,0,.12.11a.24.24,0,0,1-.15.21m.76-.85a1.71,1.71,0,0,0,.46-.33l.1-.1a1.14,1.14,0,0,1,.66-.7,3.78,3.78,0,0,1,.75-.12h0a.35.35,0,0,1,.15-.09c.22-.08.34.12.49.23a.35.35,0,0,0,.35.08.7.7,0,0,0,.14-.08l.06,0c.08,0,.12,0,.08.16s0,.29.15.31.23.37.29.61,0,.35.23.29h0c.22-.1.15-.33.17-.5s-.15-.42.07-.59l.07,0c.15-.06.11.28.22.33l0,0c.08.1.28.12.21.33a.23.23,0,0,1-.14.16l-.09,0-.12,0c-.09.05-.21.1-.2.24s.13.06.21.06l.08,0c.24-.08.4-.37.59-.57s.1-.16.16-.18h.05c.08.06,0,.18-.06.27s-.18.3-.08.38a.09.09,0,0,0,.09,0c.07,0,.13-.13.2-.21a1.22,1.22,0,0,1,.39-.35c.11,0,.18.05.25.24a.15.15,0,0,1-.07,0,.17.17,0,0,1-.12,0l-.12,0S38,25.92,38,26c0,.34.25,0,.34.14s.41.18.53.43c0,.06.06.14.14.11h0a.49.49,0,0,0,.2-.28.15.15,0,0,0-.13-.2c-.16-.06-.39,0-.48-.22l.2-.1c.41-.15.71.15.64.71a5.76,5.76,0,0,1-.06.82c0,.17.1.17.16.23v.22h-.14a.12.12,0,0,0-.18-.07l-.09,0-.12,0c-.46.17-.76-.16-.68-.79,0-.15,0-.31,0-.4a.23.23,0,0,0-.19-.06.21.21,0,0,0-.08.06.29.29,0,0,0,0,.34c0,.08.17.08.1.23a.24.24,0,0,1-.13.13h-.06c-.14,0-.13-.14-.13-.28V27c0-.12,0-.24-.15-.22h0a.37.37,0,0,0-.16.25c0,.1-.06.22-.13.24a.1.1,0,0,1-.09,0c-.12-.06,0-.18.05-.3l0-.17-.13,0h0c-.11,0-.2.17-.3.26l-.16,0,0-.2c.07-.11.23-.24.12-.35a.08.08,0,0,0-.1,0,.93.93,0,0,0-.24.21.63.63,0,0,1-.2.13.36.36,0,0,1-.5-.24.47.47,0,0,0-.64-.35h0a1.63,1.63,0,0,1-.17.11s-.06,0-.07-.05.07-.27.15-.39l.16-.13c.11-.06.21-.11.21-.28s0-.18-.13-.18l-.11,0a.24.24,0,0,0-.15.17c-.11.36-.42.41-.58.69l-.13,0,.06-.18.1-.11c.1-.12.14-.24.06-.33a.1.1,0,0,0-.12,0,.47.47,0,0,0-.15.14,1.07,1.07,0,0,1-.47.43.43.43,0,0,1-.45-.09l-.19,0c-.07.12-.06.2,0,.25l.12.07a.14.14,0,0,1,0,.21.17.17,0,0,1-.07.09.12.12,0,0,1-.1,0,.68.68,0,0,0-.24-.08l-.08,0c-.08,0-.13.1-.08.25a.23.23,0,0,1-.13.34l-.08,0-.13,0a1,1,0,0,0-.48.61.36.36,0,0,1-.17.22.13.13,0,0,1-.13,0s-.07,0-.11,0a.15.15,0,0,0-.07.05.23.23,0,0,1-.11.08c-.08,0-.12,0-.17-.12A.17.17,0,0,0,31,28a.87.87,0,0,0-.19.1c-.16.11-.36.2-.44.47s-.09.33,0,.35a.35.35,0,0,0,.2,0,.42.42,0,0,0,.23-.23.4.4,0,0,1,.22-.24.16.16,0,0,1,.16,0c.13.08.33.14.15.47-.07-.06-.13-.17-.23-.17H31c-.08,0-.13.1-.09.24s0,.2-.05.22h-.12a.39.39,0,0,0-.21,0,.88.88,0,0,0-.37.29.5.5,0,0,0-.14.27c0,.13,0,.32-.14.38h0a.21.21,0,0,1-.28-.2c0-.11,0-.22-.11-.19l-.05,0a.29.29,0,0,0-.12.33c.05.42,0,.88,0,1.3a6.92,6.92,0,0,1-.06,1.27c0,.3.06.49.32.42s.47.32.63.57.12.18.19.15.1-.06.16-.16.13-.17.2-.19.08,0,.12,0-.05.24-.14.35-.12.31,0,.35a3.31,3.31,0,0,0,.55.06h.07a.53.53,0,0,0,.25-.26c.05-.09.1-.19.16-.21s.06,0,.1,0a.35.35,0,0,1,0,.47c-.13.15-.28.28-.42.42l-.08.18.12,0a.73.73,0,0,1,.29-.19l.25-.07.24-.06a.83.83,0,0,0,.44-.39c.08.09,0,.2,0,.29s0,.23.12.21a.35.35,0,0,0,.12-.1.87.87,0,0,1,.32-.26c.11,0,.21,0,.3.15s.14.07.22,0l.11,0c.16-.06.24,0,.24.2a.36.36,0,0,1-.26.4c-.16.06-.33.12-.5.2a.27.27,0,0,0-.17.24c0,.1,0,.19.12.16h0l.17-.08.18-.06.17-.06a1,1,0,0,0,.5-.36c.31-.4.27-.88-.08-1l-.06-.08.06-.14a.67.67,0,0,1,.2-.13c.19-.07.36,0,.36.31s.12.66-.18,1a2.24,2.24,0,0,1-.87.72.86.86,0,0,1-.57,0c-.2,0-.44,0-.53-.29l-.15-.06a.91.91,0,0,1-.69-.07c-.27-.11-.17-.22,0-.49a1,1,0,0,0-.54.35.36.36,0,0,1-.13.12c-.07,0-.13,0-.14-.12s-.09-.32-.24-.37l-.06-.1c0-.44-.29-.46-.42-.71,0-.06-.07-.07-.1-.06a.43.43,0,0,0-.15.2c0,.09-.05.24-.15.28h-.05c-.1,0-.1-.16-.11-.27a1.38,1.38,0,0,1,0-.29c0-.19-.05-.32-.22-.31s-.15,0-.16-.08c-.06-.28-.23-.28-.44-.21l0,0c-.25.11-.34.39-.48.62l0,.16a.22.22,0,0,1-.09.15.06.06,0,0,1-.06,0c-.09,0-.13-.08-.05-.21a2.51,2.51,0,0,0,.21-1.37c0-.07,0-.18,0-.16l-.07,0-.11.09c-.1,0-.12-.1-.12-.23,0-.31,0-.64,0-1,0-.09,0-.21.07-.27l0,0c.07,0,.08.09.13.13s.05,0,.11,0c0-.37.11-.75-.09-1s-.06-.24,0-.37a2.21,2.21,0,0,1,.59-.81c.24-.17.4-.51.65-.68.06.11,0,.22-.07.32s-.06.21,0,.26a.09.09,0,0,0,.11,0l.09-.05a.29.29,0,0,0,.12-.27c-.07-.32.12-.4.33-.57A3,3,0,0,0,31,27.17c0-.08,0-.19.12-.21h0c.11,0,.11.12.1.24a3.89,3.89,0,0,0,0,.49c0,.16.09.21.21.17h0a.34.34,0,0,0,.18-.3,2.5,2.5,0,0,1,.13-.65c.06-.16.12-.26.18-.28s.12,0,.19.09.12.14.2.1a.14.14,0,0,0,.09,0,.32.32,0,0,0,.17-.28c0-.13,0-.19-.14-.2a.89.89,0,0,1-.28,0c-.07,0-.19,0-.16-.16a.21.21,0,0,1,.15-.17l.08,0a.23.23,0,0,0,.11,0m1.54-1.67h-.13a.18.18,0,0,1,.11-.18l.11.05-.09.13m0-.48a.33.33,0,0,0-.15.1,5.7,5.7,0,0,0-1,1.18l-.15.18c-1.32,1.42-2.64,2.82-4,4.25a3.86,3.86,0,0,0-.71.84c-.11,1.36-.14,2.69-.17,4,0,.43.16.64.44.72a4.83,4.83,0,0,0,.92.26c.11,0,.23.05.34.08a.48.48,0,0,0-.15.1l-.19.19a12.6,12.6,0,0,1-.88.91,1.24,1.24,0,0,0-.48,1c0,.36,0,.71,0,1.07s.13.84.52.89a3.83,3.83,0,0,0,.7.29c1,.34,2,.65,2.92,1a.32.32,0,0,1,.32.12.56.56,0,0,0,.39.19,3.08,3.08,0,0,1,.82.2.55.55,0,0,0,.36,0,1.09,1.09,0,0,0,.35-.26c1.79-1.9,3.57-3.83,5.36-5.74a1,1,0,0,0,.32-.73c0-1,.07-1.94.07-2.9a2.39,2.39,0,0,1,0-.8c0-.49-.16-.73-.48-.83s-.51-.19-.77-.26-.26-.16,0-.45.58-.65.89-1a.85.85,0,0,0,.3-.49,12.51,12.51,0,0,0,0-2.13c-.18-.2-.44-.21-.67-.29-.74-.3-1.5-.52-2.24-.82-.33-.06-.63-.22-1-.31-.55-.19-1.1-.42-1.66-.59a.58.58,0,0,0-.41,0" fill="#f7f7f7"/>
              <path d="M33.57,24.74a1.14,1.14,0,0,0-.66.7l-.1.1a1.71,1.71,0,0,1-.46.33.23.23,0,0,1-.11,0l-.08,0a.21.21,0,0,0-.15.17c0,.15.09.15.16.16a.89.89,0,0,0,.28,0c.1,0,.14.07.14.2a.32.32,0,0,1-.17.28.14.14,0,0,1-.09,0c-.08,0-.14,0-.2-.1s-.13-.12-.19-.09-.12.12-.18.28a2.5,2.5,0,0,0-.13.65.34.34,0,0,1-.18.3h0c-.12,0-.22,0-.21-.17a3.89,3.89,0,0,1,0-.49c0-.12,0-.24-.1-.24h0c-.07,0-.09.13-.12.21a3,3,0,0,1-.93,1.26c-.21.17-.4.25-.33.57a.29.29,0,0,1-.12.27l-.09.05a.09.09,0,0,1-.11,0c-.08,0,0-.16,0-.26s.13-.21.07-.32c-.25.17-.41.51-.65.68a2.21,2.21,0,0,0-.59.81c-.07.13-.1.28,0,.37s.09.61.09,1c-.06,0-.09,0-.11,0s-.06-.16-.13-.13l0,0c-.1.06-.07.18-.07.27,0,.32,0,.65,0,1,0,.13,0,.26.12.23l.11-.09.07,0c.06,0,0,.09,0,.16a2.51,2.51,0,0,1-.21,1.37c-.08.13,0,.19.05.21a.06.06,0,0,0,.06,0,.22.22,0,0,0,.09-.15l0-.16c.14-.23.23-.51.48-.62l0,0c.21-.07.38-.07.44.21,0,.08.09.09.16.08s.22.12.22.31a1.38,1.38,0,0,0,0,.29c0,.11,0,.26.11.27h.05c.1,0,.11-.19.15-.28a.43.43,0,0,1,.15-.2s.07,0,.1.06c.13.25.47.27.42.71l.06.1c.15.05.23.14.24.37s.07.14.14.12a.36.36,0,0,0,.13-.12,1,1,0,0,1,.54-.35c-.14.27-.24.38,0,.49a.91.91,0,0,0,.69.07l.15.06c.09.26.33.24.53.29a.86.86,0,0,0,.57,0,2.24,2.24,0,0,0,.87-.72c.3-.38.17-.71.18-1s-.17-.38-.36-.31a.67.67,0,0,0-.2.13l-.06.14.06.08c.35.08.39.56.08,1a1,1,0,0,1-.5.36l-.17.06-.18.06-.17.08h0c-.07,0-.13-.06-.12-.16a.27.27,0,0,1,.17-.24c.17-.08.34-.14.5-.2a.36.36,0,0,0,.26-.4c0-.2-.08-.26-.24-.2l-.11,0c-.08,0-.17,0-.22,0s-.19-.19-.3-.15a.87.87,0,0,0-.32.26.35.35,0,0,1-.12.1c-.07,0-.11-.06-.12-.21s.09-.2,0-.29a.83.83,0,0,1-.44.39l-.24.06-.25.07a.73.73,0,0,0-.29.19l-.12,0,.08-.18c.14-.14.29-.27.42-.42a.35.35,0,0,0,0-.47s-.07-.06-.1,0-.11.12-.16.21a.53.53,0,0,1-.25.26h-.07a3.31,3.31,0,0,1-.55-.06c-.12,0-.15-.19,0-.35s.23-.21.14-.35-.08-.06-.12,0-.14.11-.2.19-.11.15-.16.16-.12,0-.19-.15-.23-.66-.63-.57-.34-.12-.32-.42a6.92,6.92,0,0,0,.06-1.27c-.05-.42,0-.88,0-1.3a.29.29,0,0,1,.12-.33l.05,0c.1,0,.09.08.11.19a.21.21,0,0,0,.28.2h0c.17-.06.13-.25.14-.38a.5.5,0,0,1,.14-.27.88.88,0,0,1,.37-.29.39.39,0,0,1,.21,0h.12c.06,0,.09-.08.05-.22s0-.21.09-.24h.11c.1,0,.16.11.23.17.18-.33,0-.39-.15-.47a.16.16,0,0,0-.16,0,.4.4,0,0,0-.22.24.42.42,0,0,1-.23.23.35.35,0,0,1-.2,0c-.13,0-.07-.22,0-.35s.28-.36.44-.47A.87.87,0,0,1,31,28a.17.17,0,0,1,.24.08c.05.1.09.15.17.12a.23.23,0,0,0,.11-.08.15.15,0,0,1,.07-.05s.07,0,.11,0a.13.13,0,0,0,.13,0,.36.36,0,0,0,.17-.22,1,1,0,0,1,.48-.61l.13,0,.08,0a.23.23,0,0,0,.13-.34c0-.15,0-.22.08-.25l.08,0a.68.68,0,0,1,.24.08.12.12,0,0,0,.1,0,.17.17,0,0,0,.07-.09.14.14,0,0,0,0-.21l-.12-.07c-.07-.05-.08-.13,0-.25l.19,0a.43.43,0,0,0,.45.09,1.07,1.07,0,0,0,.47-.43.47.47,0,0,1,.15-.14.1.1,0,0,1,.12,0c.08.09,0,.21-.06.33l-.1.11-.06.18.13,0c.16-.28.47-.33.58-.69a.24.24,0,0,1,.15-.17l.11,0c.09,0,.13.07.13.18s-.1.22-.21.28l-.16.13c-.08.12-.19.27-.15.39s0,.06.07.05a1.63,1.63,0,0,0,.17-.11h0a.47.47,0,0,1,.64.35.36.36,0,0,0,.5.24.63.63,0,0,0,.2-.13.93.93,0,0,1,.24-.21.08.08,0,0,1,.1,0c.11.11-.05.24-.12.35l0,.2.16,0c.1-.09.19-.22.3-.26h0l.13,0,0,.17c-.09.12-.17.24-.05.3a.1.1,0,0,0,.09,0c.07,0,.1-.14.13-.24a.37.37,0,0,1,.16-.25h0c.12,0,.14.1.15.22v.15c0,.14,0,.29.13.28H38a.24.24,0,0,0,.13-.13c.07-.15-.06-.15-.1-.23a.29.29,0,0,1,0-.34.21.21,0,0,1,.08-.06.23.23,0,0,1,.19.06c.08.09.06.25,0,.4-.08.63.22,1,.68.79l.12,0,.09,0a.12.12,0,0,1,.18.07h.14v-.22c-.06-.06-.19-.06-.16-.23a5.76,5.76,0,0,0,.06-.82c.07-.56-.23-.86-.64-.71l-.2.1c.09.22.32.16.48.22a.15.15,0,0,1,.13.2.49.49,0,0,1-.2.28h0c-.08,0-.1-.05-.14-.11-.12-.25-.36-.27-.53-.43S38,26.37,38,26c0-.11.06-.15.11-.17l.12,0a.17.17,0,0,0,.12,0,.15.15,0,0,0,.07,0c-.07-.19-.14-.28-.25-.24a1.22,1.22,0,0,0-.39.35c-.07.08-.13.18-.2.21a.09.09,0,0,1-.09,0c-.1-.08,0-.24.08-.38s.14-.21.06-.27h-.05c-.06,0-.11.12-.16.18s-.35.49-.59.57l-.08,0c-.08,0-.2.08-.21-.06s.11-.19.2-.24l.12,0,.09,0a.23.23,0,0,0,.14-.16c.07-.21-.13-.23-.21-.33l0,0c-.11-.05-.07-.39-.22-.33l-.07,0c-.22.17,0,.39-.07.59s.05.4-.17.5h0c-.18.06-.2-.13-.23-.29s0-.57-.29-.61-.25-.05-.15-.31,0-.19-.08-.16l-.06,0a.7.7,0,0,1-.14.08.35.35,0,0,1-.35-.08c-.15-.11-.27-.31-.49-.23a.35.35,0,0,0-.15.09h0a3.78,3.78,0,0,0-.75.12" fill="#f7f7f7"/>
              <path d="M28.92,34a.46.46,0,0,0-.26.24l-.12.17c-.05.07-.16.13-.11.21s0,0,.05,0,.08-.08.11-.13a.26.26,0,0,1,.1-.09.15.15,0,0,1,.13,0,.61.61,0,0,1,.22.31c0,.07,0,.14.11.11h0a.27.27,0,0,0,.09-.24v-.22c0-.2,0-.43-.15-.46a.64.64,0,0,0-.2,0" fill="#f7f7f7"/>
              <path d="M39.06,28.16h0a3.2,3.2,0,0,0-.54.56v.14l.13,0a1.83,1.83,0,0,1,.45-.35.26.26,0,0,0,.13-.23c0-.08-.06-.13-.13-.1" fill="#f7f7f7"/>
              <path d="M30.05,35s-.13,0-.12.13.14.13.24.12h0c.06,0,.08-.1.08-.17s-.11-.11-.22-.08" fill="#f7f7f7"/>
              <path d="M31.59,26.41a.24.24,0,0,0-.14.21c0,.1,0,.13.11.11h0a.24.24,0,0,0,.15-.21c0-.09,0-.12-.12-.11h0" fill="#f7f7f7"/>
              <path d="M31.35,33.62a.31.31,0,0,0-.18.23c0,.09,0,.13.09.11h0a.31.31,0,0,0,.18-.23c0-.08,0-.11-.1-.1" fill="#f7f7f7"/>
              <path d="M36.14,24.77a.15.15,0,0,0-.09.15c0,.14.05.16.14.13h0a.15.15,0,0,0,.1-.16c0-.08-.07-.13-.15-.12h0" fill="#f7f7f7"/>
              <path d="M29.54,34.85a.41.41,0,0,0-.14.08c0,.12.09.22.22.17l.06-.16c0-.1-.07-.12-.14-.09" fill="#f7f7f7"/>
              <path d="M34.88,33.53l-.08.11c0,.08,0,.12.1.1l.08-.11c0-.08,0-.13-.1-.1" fill="#f7f7f7"/>
              <polyline points="34.18 35.92 34.07 36.05 34.15 36.16 34.25 36.01 34.18 35.92" fill="#f7f7f7"/>
              <path d="M33.87,24a.18.18,0,0,0-.11.18h.13l.09-.13L33.87,24" fill="#f7f7f7"/>
              <polyline points="28.07 30.81 28.01 30.93 28.07 31.04 28.16 30.88 28.07 30.81" fill="#f7f7f7"/>
              <polyline points="32.24 34.21 32.17 34.33 32.25 34.44 32.31 34.31 32.24 34.21" fill="#f7f7f7"/>
              <polyline points="33.48 36.24 33.4 36.36 33.46 36.45 33.54 36.33 33.48 36.24" fill="#f7f7f7"/>
              <path d="M41.14,21.63s0,0-.07.1a3.13,3.13,0,0,0-.1,2.68,1.41,1.41,0,0,0,1.89.75l.3-.14c1.54-.8,2.38-3.3,1.56-4.61,0,0,0-.07-.08-.05s0,0-.07.06L43,22.11a.27.27,0,0,1-.11.09.24.24,0,0,1-.12,0c-.51-.19-1-.37-1.56-.57h-.07" fill="#fff"/>
              <path d="M42.83,21.09c-.31-.12-.61-.23-.93-.33l0-.11c.33-.75.66-1.49,1-2.25l0-.07.07.07c.27.44.55.88.83,1.32.05.08.14.16.13.25s-.15.18-.23.26L43,21l-.14.06m.08-3.55L41.4,21l0,.12,1.38.49.14,0c.46-.49.91-1,1.38-1.48.06-.08.08-.11,0-.18-.19-.29-.36-.57-.55-.87-.29-.47-.6-.94-.91-1.44" fill="#fff"/>
            </g>
          </g>
        </g>
      </g>
    </g>
  </g>
  <g>
    <rect x="46.2" y="41.66" width="1.52" height="1.51" fill="#fff"/>
    <rect x="46.2" y="40.15" width="1.52" height="1.52" fill="#fff"/>
    <rect x="46.2" y="8.34" width="1.52" height="1.51" fill="#fff"/>
    <rect x="46.2" y="6.82" width="1.52" height="1.52" fill="#fff"/>
    <rect x="44.69" y="43.18" width="1.51" height="1.52" fill="#fff"/>
    <rect x="44.69" y="41.66" width="1.51" height="1.51" fill="#ef5454"/>
    <rect x="44.69" y="40.15" width="1.51" height="1.52" fill="#ef5454"/>
    <rect x="44.69" y="38.63" width="1.51" height="1.51" fill="#fff"/>
    <rect x="44.69" y="9.85" width="1.51" height="1.52" fill="#fff"/>
    <rect x="44.69" y="8.34" width="1.51" height="1.51" fill="#aa0707"/>
    <rect x="44.69" y="6.82" width="1.51" height="1.52" fill="#ef5454"/>
    <rect x="44.69" y="5.31" width="1.51" height="1.51" fill="#fff"/>
    <rect x="43.18" y="44.69" width="1.52" height="1.51" fill="#fff"/>
    <rect x="43.18" y="43.18" width="1.52" height="1.52" fill="#aa0707"/>
    <rect x="43.18" y="41.66" width="1.52" height="1.51" fill="#cc1d1d"/>
    <rect x="43.18" y="40.15" width="1.52" height="1.52" fill="#cc1d1d"/>
    <rect x="43.18" y="38.63" width="1.52" height="1.51" fill="#ef5454"/>
    <rect x="43.18" y="37.12" width="1.52" height="1.52" fill="#fff"/>
    <rect x="43.18" y="11.37" width="1.52" height="1.51" fill="#fff"/>
    <rect x="43.18" y="9.85" width="1.52" height="1.52" fill="#aa0707"/>
    <rect x="43.18" y="8.34" width="1.52" height="1.51" fill="#cc1d1d"/>
    <rect x="43.18" y="6.82" width="1.52" height="1.52" fill="#cc1d1d"/>
    <rect x="43.18" y="5.31" width="1.52" height="1.51" fill="#ef5454"/>
    <rect x="43.18" y="3.79" width="1.52" height="1.52" fill="#fff"/>
    <rect x="41.66" y="46.2" width="1.51" height="1.52" fill="#fff"/>
    <rect x="41.66" y="44.69" width="1.51" height="1.51" fill="#aa0707"/>
    <rect x="41.66" y="43.18" width="1.51" height="1.52" fill="#cc1d1d"/>
    <rect x="41.66" y="41.66" width="1.51" height="1.51" fill="#cc1d1d"/>
    <rect x="41.66" y="40.15" width="1.51" height="1.52" fill="#cc1d1d"/>
    <rect x="41.66" y="38.63" width="1.51" height="1.51" fill="#cc1d1d"/>
    <rect x="41.66" y="37.12" width="1.51" height="1.52" fill="#ef5454"/>
    <rect x="41.66" y="35.6" width="1.51" height="1.51" fill="#fff"/>
    <rect x="41.66" y="12.88" width="1.51" height="1.52" fill="#fff"/>
    <rect x="41.66" y="11.37" width="1.51" height="1.51" fill="#aa0707"/>
    <rect x="41.66" y="9.85" width="1.51" height="1.52" fill="#cc1d1d"/>
    <rect x="41.66" y="8.34" width="1.51" height="1.51" fill="#cc1d1d"/>
    <rect x="41.66" y="6.82" width="1.51" height="1.52" fill="#cc1d1d"/>
    <rect x="41.66" y="5.31" width="1.51" height="1.51" fill="#cc1d1d"/>
    <rect x="41.66" y="3.79" width="1.51" height="1.52" fill="#ef5454"/>
    <rect x="41.66" y="2.28" width="1.51" height="1.51" fill="#fff"/>
    <rect x="40.15" y="46.2" width="1.52" height="1.52" fill="#fff"/>
    <rect x="40.15" y="44.69" width="1.52" height="1.51" fill="#aa0707"/>
    <rect x="40.15" y="43.18" width="1.52" height="1.52" fill="#cc1d1d"/>
    <rect x="40.15" y="41.66" width="1.52" height="1.51" fill="#cc1d1d"/>
    <rect x="40.15" y="40.15" width="1.52" height="1.52" fill="#cc1d1d"/>
    <rect x="40.15" y="38.63" width="1.52" height="1.51" fill="#cc1d1d"/>
    <rect x="40.15" y="37.12" width="1.52" height="1.52" fill="#cc1d1d"/>
    <rect x="40.15" y="35.6" width="1.52" height="1.51" fill="#ef5454"/>
    <rect x="40.15" y="34.09" width="1.52" height="1.51" fill="#fff"/>
    <rect x="40.15" y="14.4" width="1.52" height="1.51" fill="#fff"/>
    <rect x="40.15" y="12.88" width="1.52" height="1.52" fill="#aa0707"/>
    <rect x="40.15" y="11.37" width="1.52" height="1.51" fill="#cc1d1d"/>
    <rect x="40.15" y="9.85" width="1.52" height="1.52" fill="#cc1d1d"/>
    <rect x="40.15" y="8.34" width="1.52" height="1.51" fill="#cc1d1d"/>
    <rect x="40.15" y="6.82" width="1.52" height="1.52" fill="#cc1d1d"/>
    <rect x="40.15" y="5.31" width="1.52" height="1.51" fill="#cc1d1d"/>
    <rect x="40.15" y="3.79" width="1.52" height="1.52" fill="#ef5454"/>
    <rect x="40.15" y="2.28" width="1.52" height="1.51" fill="#fff"/>
    <rect x="38.63" y="44.69" width="1.51" height="1.51" fill="#fff"/>
    <rect x="38.63" y="43.18" width="1.51" height="1.52" fill="#aa0707"/>
    <rect x="38.63" y="41.66" width="1.51" height="1.51" fill="#cc1d1d"/>
    <rect x="38.63" y="40.15" width="1.51" height="1.52" fill="#cc1d1d"/>
    <rect x="38.63" y="38.63" width="1.51" height="1.51" fill="#cc1d1d"/>
    <rect x="38.63" y="37.12" width="1.51" height="1.52" fill="#cc1d1d"/>
    <rect x="38.63" y="35.6" width="1.51" height="1.51" fill="#cc1d1d"/>
    <rect x="38.63" y="34.09" width="1.51" height="1.51" fill="#ef5454"/>
    <rect x="38.63" y="32.57" width="1.51" height="1.52" fill="#fff"/>
    <rect x="38.63" y="15.91" width="1.51" height="1.51" fill="#fff"/>
    <rect x="38.63" y="14.4" width="1.51" height="1.51" fill="#aa0707"/>
    <rect x="38.63" y="12.88" width="1.51" height="1.52" fill="#cc1d1d"/>
    <rect x="38.63" y="11.37" width="1.51" height="1.51" fill="#cc1d1d"/>
    <rect x="38.63" y="9.85" width="1.51" height="1.52" fill="#cc1d1d"/>
    <rect x="38.63" y="8.34" width="1.51" height="1.51" fill="#cc1d1d"/>
    <rect x="38.63" y="6.82" width="1.51" height="1.52" fill="#cc1d1d"/>
    <rect x="38.63" y="5.31" width="1.51" height="1.51" fill="#ef5454"/>
    <rect x="38.63" y="3.79" width="1.51" height="1.52" fill="#fff"/>
    <rect x="37.12" y="43.18" width="1.52" height="1.52" fill="#fff"/>
    <rect x="37.12" y="41.66" width="1.52" height="1.51" fill="#aa0707"/>
    <rect x="37.12" y="40.15" width="1.52" height="1.52" fill="#cc1d1d"/>
    <rect x="37.12" y="38.63" width="1.52" height="1.51" fill="#cc1d1d"/>
    <rect x="37.12" y="37.12" width="1.52" height="1.52" fill="#cc1d1d"/>
    <rect x="37.12" y="35.6" width="1.52" height="1.51" fill="#cc1d1d"/>
    <rect x="37.12" y="34.09" width="1.52" height="1.51" fill="#cc1d1d"/>
    <rect x="37.12" y="32.57" width="1.52" height="1.52" fill="#ef5454"/>
    <rect x="37.12" y="31.06" width="1.52" height="1.51" fill="#fff"/>
    <rect x="37.12" y="17.43" width="1.52" height="1.52" fill="#fff"/>
    <rect x="37.12" y="15.91" width="1.52" height="1.51" fill="#aa0707"/>
    <rect x="37.12" y="14.4" width="1.52" height="1.51" fill="#cc1d1d"/>
    <rect x="37.12" y="12.88" width="1.52" height="1.52" fill="#cc1d1d"/>
    <rect x="37.12" y="11.37" width="1.52" height="1.51" fill="#cc1d1d"/>
    <rect x="37.12" y="9.85" width="1.52" height="1.52" fill="#cc1d1d"/>
    <rect x="37.12" y="8.34" width="1.52" height="1.51" fill="#cc1d1d"/>
    <rect x="37.12" y="6.82" width="1.52" height="1.52" fill="#ef5454"/>
    <rect x="37.12" y="5.31" width="1.52" height="1.51" fill="#fff"/>
    <rect x="35.6" y="41.66" width="1.51" height="1.51" fill="#fff"/>
    <rect x="35.6" y="40.15" width="1.51" height="1.52" fill="#aa0707"/>
    <rect x="35.6" y="38.63" width="1.51" height="1.51" fill="#cc1d1d"/>
    <rect x="35.6" y="37.12" width="1.51" height="1.52" fill="#cc1d1d"/>
    <rect x="35.6" y="35.6" width="1.51" height="1.51" fill="#cc1d1d"/>
    <rect x="35.6" y="34.09" width="1.51" height="1.51" fill="#cc1d1d"/>
    <rect x="35.6" y="32.57" width="1.51" height="1.52" fill="#cc1d1d"/>
    <rect x="35.6" y="31.06" width="1.51" height="1.51" fill="#ef5454"/>
    <rect x="35.6" y="29.54" width="1.51" height="1.52" fill="#fff"/>
    <rect x="35.6" y="18.94" width="1.51" height="1.51" fill="#fff"/>
    <rect x="35.6" y="17.43" width="1.51" height="1.52" fill="#aa0707"/>
    <rect x="35.6" y="15.91" width="1.51" height="1.51" fill="#cc1d1d"/>
    <rect x="35.6" y="14.4" width="1.51" height="1.51" fill="#cc1d1d"/>
    <rect x="35.6" y="12.88" width="1.51" height="1.52" fill="#cc1d1d"/>
    <rect x="35.6" y="11.37" width="1.51" height="1.51" fill="#cc1d1d"/>
    <rect x="35.6" y="9.85" width="1.51" height="1.52" fill="#cc1d1d"/>
    <rect x="35.6" y="8.34" width="1.51" height="1.51" fill="#ef5454"/>
    <rect x="35.6" y="6.82" width="1.51" height="1.52" fill="#fff"/>
    <rect x="34.09" y="40.15" width="1.51" height="1.52" fill="#fff"/>
    <rect x="34.09" y="38.63" width="1.51" height="1.51" fill="#aa0707"/>
    <rect x="34.09" y="37.12" width="1.51" height="1.52" fill="#cc1d1d"/>
    <rect x="34.09" y="35.6" width="1.51" height="1.51" fill="#cc1d1d"/>
    <rect x="34.09" y="34.09" width="1.51" height="1.51" fill="#cc1d1d"/>
    <rect x="34.09" y="32.57" width="1.51" height="1.52" fill="#cc1d1d"/>
    <rect x="34.09" y="31.06" width="1.51" height="1.51" fill="#cc1d1d"/>
    <rect x="34.09" y="29.54" width="1.51" height="1.52" fill="#ef5454"/>
    <rect x="34.09" y="28.03" width="1.51" height="1.51" fill="#fff"/>
    <rect x="34.09" y="20.46" width="1.51" height="1.52" fill="#fff"/>
    <rect x="34.09" y="18.94" width="1.51" height="1.51" fill="#aa0707"/>
    <rect x="34.09" y="17.43" width="1.51" height="1.52" fill="#cc1d1d"/>
    <rect x="34.09" y="15.91" width="1.51" height="1.51" fill="#cc1d1d"/>
    <rect x="34.09" y="14.4" width="1.51" height="1.51" fill="#cc1d1d"/>
    <rect x="34.09" y="12.88" width="1.51" height="1.52" fill="#cc1d1d"/>
    <rect x="34.09" y="11.37" width="1.51" height="1.51" fill="#cc1d1d"/>
    <rect x="34.09" y="9.85" width="1.51" height="1.52" fill="#ef5454"/>
    <rect x="34.09" y="8.34" width="1.51" height="1.51" fill="#fff"/>
    <rect x="32.57" y="38.63" width="1.52" height="1.51" fill="#fff"/>
    <rect x="32.57" y="37.12" width="1.52" height="1.52" fill="#aa0707"/>
    <rect x="32.57" y="35.6" width="1.52" height="1.51" fill="#cc1d1d"/>
    <rect x="32.57" y="34.09" width="1.52" height="1.51" fill="#cc1d1d"/>
    <rect x="32.57" y="32.57" width="1.52" height="1.52" fill="#cc1d1d"/>
    <rect x="32.57" y="31.06" width="1.52" height="1.51" fill="#cc1d1d"/>
    <rect x="32.57" y="29.54" width="1.52" height="1.52" fill="#cc1d1d"/>
    <rect x="32.57" y="28.03" width="1.52" height="1.51" fill="#ef5454"/>
    <rect x="32.57" y="26.51" width="1.52" height="1.52" fill="#fff"/>
    <rect x="32.57" y="21.97" width="1.52" height="1.51" fill="#fff"/>
    <rect x="32.57" y="20.46" width="1.52" height="1.52" fill="#aa0707"/>
    <rect x="32.57" y="18.94" width="1.52" height="1.51" fill="#cc1d1d"/>
    <rect x="32.57" y="17.43" width="1.52" height="1.52" fill="#cc1d1d"/>
    <rect x="32.57" y="15.91" width="1.52" height="1.51" fill="#cc1d1d"/>
    <rect x="32.57" y="14.4" width="1.52" height="1.51" fill="#cc1d1d"/>
    <rect x="32.57" y="12.88" width="1.52" height="1.52" fill="#cc1d1d"/>
    <rect x="32.57" y="11.37" width="1.52" height="1.51" fill="#ef5454"/>
    <rect x="32.57" y="9.85" width="1.52" height="1.52" fill="#fff"/>
    <rect x="31.06" y="37.12" width="1.51" height="1.52" fill="#fff"/>
    <rect x="31.06" y="35.6" width="1.51" height="1.51" fill="#aa0707"/>
    <rect x="31.06" y="34.09" width="1.51" height="1.51" fill="#cc1d1d"/>
    <rect x="31.06" y="32.57" width="1.51" height="1.52" fill="#cc1d1d"/>
    <rect x="31.06" y="31.06" width="1.51" height="1.51" fill="#cc1d1d"/>
    <rect x="31.06" y="29.54" width="1.51" height="1.52" fill="#cc1d1d"/>
    <rect x="31.06" y="28.03" width="1.51" height="1.51" fill="#cc1d1d"/>
    <rect x="31.06" y="26.51" width="1.51" height="1.52" fill="#ef5454"/>
    <rect x="31.06" y="25" width="1.51" height="1.51" fill="#fff"/>
    <rect x="31.06" y="23.49" width="1.51" height="1.52" fill="#fff"/>
    <rect x="31.06" y="21.97" width="1.51" height="1.51" fill="#aa0707"/>
    <rect x="31.06" y="20.46" width="1.51" height="1.52" fill="#cc1d1d"/>
    <rect x="31.06" y="18.94" width="1.51" height="1.51" fill="#cc1d1d"/>
    <rect x="31.06" y="17.43" width="1.51" height="1.52" fill="#cc1d1d"/>
    <rect x="31.06" y="15.91" width="1.51" height="1.51" fill="#cc1d1d"/>
    <rect x="31.06" y="14.4" width="1.51" height="1.51" fill="#cc1d1d"/>
    <rect x="31.06" y="12.88" width="1.51" height="1.52" fill="#ef5454"/>
    <rect x="31.06" y="11.37" width="1.51" height="1.51" fill="#fff"/>
    <rect x="29.54" y="35.6" width="1.52" height="1.51" fill="#fff"/>
    <rect x="29.54" y="34.09" width="1.52" height="1.51" fill="#aa0707"/>
    <rect x="29.54" y="32.57" width="1.52" height="1.52" fill="#cc1d1d"/>
    <rect x="29.54" y="31.06" width="1.52" height="1.51" fill="#cc1d1d"/>
    <rect x="29.54" y="29.54" width="1.52" height="1.52" fill="#cc1d1d"/>
    <rect x="29.54" y="28.03" width="1.52" height="1.51" fill="#cc1d1d"/>
    <rect x="29.54" y="26.51" width="1.52" height="1.52" fill="#cc1d1d"/>
    <rect x="29.54" y="25" width="1.52" height="1.51" fill="#aa0707"/>
    <rect x="29.54" y="23.49" width="1.52" height="1.52" fill="#aa0707"/>
    <rect x="29.54" y="21.97" width="1.52" height="1.51" fill="#cc1d1d"/>
    <rect x="29.54" y="20.46" width="1.52" height="1.52" fill="#cc1d1d"/>
    <rect x="29.54" y="18.94" width="1.52" height="1.51" fill="#cc1d1d"/>
    <rect x="29.54" y="17.43" width="1.52" height="1.52" fill="#cc1d1d"/>
    <rect x="29.54" y="15.91" width="1.52" height="1.51" fill="#cc1d1d"/>
    <rect x="29.54" y="14.4" width="1.52" height="1.51" fill="#ef5454"/>
    <rect x="29.54" y="12.88" width="1.52" height="1.52" fill="#fff"/>
    <rect x="28.03" y="34.09" width="1.51" height="1.51" fill="#fff"/>
    <rect x="28.03" y="32.57" width="1.51" height="1.52" fill="#aa0707"/>
    <rect x="28.03" y="31.06" width="1.51" height="1.51" fill="#cc1d1d"/>
    <rect x="28.03" y="29.54" width="1.51" height="1.52" fill="#cc1d1d"/>
    <rect x="28.03" y="28.03" width="1.51" height="1.51" fill="#cc1d1d"/>
    <rect x="28.03" y="26.51" width="1.51" height="1.52" fill="#cc1d1d"/>
    <rect x="28.03" y="25" width="1.51" height="1.51" fill="#cc1d1d"/>
    <rect x="28.03" y="23.49" width="1.51" height="1.52" fill="#cc1d1d"/>
    <rect x="28.03" y="21.97" width="1.51" height="1.51" fill="#cc1d1d"/>
    <rect x="28.03" y="20.46" width="1.51" height="1.52" fill="#cc1d1d"/>
    <rect x="28.03" y="18.94" width="1.51" height="1.51" fill="#cc1d1d"/>
    <rect x="28.03" y="17.43" width="1.51" height="1.52" fill="#cc1d1d"/>
    <rect x="28.03" y="15.91" width="1.51" height="1.51" fill="#ef5454"/>
    <rect x="28.03" y="14.4" width="1.51" height="1.51" fill="#fff"/>
    <rect x="26.51" y="32.57" width="1.52" height="1.52" fill="#fff"/>
    <rect x="26.51" y="31.06" width="1.52" height="1.51" fill="#aa0707"/>
    <rect x="26.51" y="29.54" width="1.52" height="1.52" fill="#cc1d1d"/>
    <rect x="26.51" y="28.03" width="1.52" height="1.51" fill="#cc1d1d"/>
    <rect x="26.51" y="26.51" width="1.52" height="1.52" fill="#cc1d1d"/>
    <rect x="26.51" y="25" width="1.52" height="1.51" fill="#cc1d1d"/>
    <rect x="26.51" y="23.49" width="1.52" height="1.52" fill="#cc1d1d"/>
    <rect x="26.51" y="21.97" width="1.52" height="1.51" fill="#cc1d1d"/>
    <rect x="26.51" y="20.46" width="1.52" height="1.52" fill="#cc1d1d"/>
    <rect x="26.51" y="18.94" width="1.52" height="1.51" fill="#cc1d1d"/>
    <rect x="26.51" y="17.43" width="1.52" height="1.52" fill="#ef5454"/>
    <rect x="26.51" y="15.91" width="1.52" height="1.51" fill="#fff"/>
    <rect x="25" y="31.06" width="1.51" height="1.51" fill="#fff"/>
    <rect x="25" y="29.54" width="1.51" height="1.52" fill="#aa0707"/>
    <rect x="25" y="28.03" width="1.51" height="1.51" fill="#cc1d1d"/>
    <rect x="25" y="26.51" width="1.51" height="1.52" fill="#cc1d1d"/>
    <rect x="25" y="25" width="1.51" height="1.51" fill="#cc1d1d"/>
    <rect x="25" y="23.49" width="1.51" height="1.52" fill="#cc1d1d"/>
    <rect x="25" y="21.97" width="1.51" height="1.51" fill="#cc1d1d"/>
    <rect x="25" y="20.46" width="1.51" height="1.52" fill="#cc1d1d"/>
    <rect x="25" y="18.94" width="1.51" height="1.51" fill="#ef5454"/>
    <rect x="25" y="17.43" width="1.51" height="1.52" fill="#fff"/>
    <rect x="23.49" y="31.06" width="1.52" height="1.51" fill="#fff"/>
    <rect x="23.49" y="29.54" width="1.52" height="1.52" fill="#aa0707"/>
    <rect x="23.49" y="28.03" width="1.52" height="1.51" fill="#cc1d1d"/>
    <rect x="23.49" y="26.51" width="1.52" height="1.52" fill="#cc1d1d"/>
    <rect x="23.49" y="25" width="1.52" height="1.51" fill="#cc1d1d"/>
    <rect x="23.49" y="23.49" width="1.52" height="1.52" fill="#cc1d1d"/>
    <rect x="23.49" y="21.97" width="1.52" height="1.51" fill="#cc1d1d"/>
    <rect x="23.49" y="20.46" width="1.52" height="1.52" fill="#cc1d1d"/>
    <rect x="23.49" y="18.94" width="1.52" height="1.51" fill="#ef5454"/>
    <rect x="23.49" y="17.43" width="1.52" height="1.52" fill="#fff"/>
    <rect x="21.97" y="32.57" width="1.51" height="1.52" fill="#fff"/>
    <rect x="21.97" y="31.06" width="1.51" height="1.51" fill="#aa0707"/>
    <rect x="21.97" y="29.54" width="1.51" height="1.52" fill="#cc1d1d"/>
    <rect x="21.97" y="28.03" width="1.51" height="1.51" fill="#cc1d1d"/>
    <rect x="21.97" y="26.51" width="1.51" height="1.52" fill="#cc1d1d"/>
    <rect x="21.97" y="25" width="1.51" height="1.51" fill="#cc1d1d"/>
    <rect x="21.97" y="23.49" width="1.51" height="1.52" fill="#cc1d1d"/>
    <rect x="21.97" y="21.97" width="1.51" height="1.51" fill="#cc1d1d"/>
    <rect x="21.97" y="20.46" width="1.51" height="1.52" fill="#cc1d1d"/>
    <rect x="21.97" y="18.94" width="1.51" height="1.51" fill="#cc1d1d"/>
    <rect x="21.97" y="17.43" width="1.51" height="1.52" fill="#ef5454"/>
    <rect x="21.97" y="15.91" width="1.51" height="1.51" fill="#fff"/>
    <rect x="20.46" y="34.09" width="1.52" height="1.51" fill="#fff"/>
    <rect x="20.46" y="32.57" width="1.52" height="1.52" fill="#aa0707"/>
    <rect x="20.46" y="31.06" width="1.52" height="1.51" fill="#cc1d1d"/>
    <rect x="20.46" y="29.54" width="1.52" height="1.52" fill="#cc1d1d"/>
    <rect x="20.46" y="28.03" width="1.52" height="1.51" fill="#cc1d1d"/>
    <rect x="20.46" y="26.51" width="1.52" height="1.52" fill="#cc1d1d"/>
    <rect x="20.46" y="25" width="1.52" height="1.51" fill="#cc1d1d"/>
    <rect x="20.46" y="23.49" width="1.52" height="1.52" fill="#cc1d1d"/>
    <rect x="20.46" y="21.97" width="1.52" height="1.51" fill="#cc1d1d"/>
    <rect x="20.46" y="20.46" width="1.52" height="1.52" fill="#cc1d1d"/>
    <rect x="20.46" y="18.94" width="1.52" height="1.51" fill="#cc1d1d"/>
    <rect x="20.46" y="17.43" width="1.52" height="1.52" fill="#cc1d1d"/>
    <rect x="20.46" y="15.91" width="1.52" height="1.51" fill="#ef5454"/>
    <rect x="20.46" y="14.4" width="1.52" height="1.51" fill="#fff"/>
    <rect x="18.94" y="35.6" width="1.51" height="1.51" fill="#fff"/>
    <rect x="18.94" y="34.09" width="1.51" height="1.51" fill="#aa0707"/>
    <rect x="18.94" y="32.57" width="1.51" height="1.52" fill="#cc1d1d"/>
    <rect x="18.94" y="31.06" width="1.51" height="1.51" fill="#cc1d1d"/>
    <rect x="18.94" y="29.54" width="1.51" height="1.52" fill="#cc1d1d"/>
    <rect x="18.94" y="28.03" width="1.51" height="1.51" fill="#cc1d1d"/>
    <rect x="18.94" y="26.51" width="1.51" height="1.52" fill="#cc1d1d"/>
    <rect x="18.94" y="25" width="1.51" height="1.51" fill="#aa0707"/>
    <rect x="18.94" y="23.49" width="1.51" height="1.52" fill="#aa0707"/>
    <rect x="18.94" y="21.97" width="1.51" height="1.51" fill="#cc1d1d"/>
    <rect x="18.94" y="20.46" width="1.51" height="1.52" fill="#cc1d1d"/>
    <rect x="18.94" y="18.94" width="1.51" height="1.51" fill="#cc1d1d"/>
    <rect x="18.94" y="17.43" width="1.51" height="1.52" fill="#cc1d1d"/>
    <rect x="18.94" y="15.91" width="1.51" height="1.51" fill="#cc1d1d"/>
    <rect x="18.94" y="14.4" width="1.51" height="1.51" fill="#ef5454"/>
    <rect x="18.94" y="12.88" width="1.51" height="1.52" fill="#fff"/>
    <rect x="17.43" y="37.12" width="1.52" height="1.52" fill="#fff"/>
    <rect x="17.43" y="35.6" width="1.52" height="1.51" fill="#aa0707"/>
    <rect x="17.43" y="34.09" width="1.52" height="1.51" fill="#cc1d1d"/>
    <rect x="17.43" y="32.57" width="1.52" height="1.52" fill="#cc1d1d"/>
    <rect x="17.43" y="31.06" width="1.52" height="1.51" fill="#cc1d1d"/>
    <rect x="17.43" y="29.54" width="1.52" height="1.52" fill="#cc1d1d"/>
    <rect x="17.43" y="28.03" width="1.52" height="1.51" fill="#cc1d1d"/>
    <rect x="17.43" y="26.51" width="1.52" height="1.52" fill="#ef5454"/>
    <rect x="17.43" y="25" width="1.52" height="1.51" fill="#fff"/>
    <rect x="17.43" y="23.49" width="1.52" height="1.52" fill="#fff"/>
    <rect x="17.43" y="21.97" width="1.52" height="1.51" fill="#aa0707"/>
    <rect x="17.43" y="20.46" width="1.52" height="1.52" fill="#cc1d1d"/>
    <rect x="17.43" y="18.94" width="1.52" height="1.51" fill="#cc1d1d"/>
    <rect x="17.43" y="17.43" width="1.52" height="1.52" fill="#cc1d1d"/>
    <rect x="17.43" y="15.91" width="1.52" height="1.51" fill="#cc1d1d"/>
    <rect x="17.43" y="14.4" width="1.52" height="1.51" fill="#cc1d1d"/>
    <rect x="17.43" y="12.88" width="1.52" height="1.52" fill="#ef5454"/>
    <rect x="17.43" y="11.37" width="1.52" height="1.51" fill="#fff"/>
    <rect x="15.91" y="38.63" width="1.51" height="1.51" fill="#fff"/>
    <rect x="15.91" y="37.12" width="1.51" height="1.52" fill="#aa0707"/>
    <rect x="15.91" y="35.6" width="1.51" height="1.51" fill="#cc1d1d"/>
    <rect x="15.91" y="34.09" width="1.51" height="1.51" fill="#cc1d1d"/>
    <rect x="15.91" y="32.57" width="1.51" height="1.52" fill="#cc1d1d"/>
    <rect x="15.91" y="31.06" width="1.51" height="1.51" fill="#cc1d1d"/>
    <rect x="15.91" y="29.54" width="1.51" height="1.52" fill="#cc1d1d"/>
    <rect x="15.91" y="28.03" width="1.51" height="1.51" fill="#ef5454"/>
    <rect x="15.91" y="26.51" width="1.51" height="1.52" fill="#fff"/>
    <rect x="15.91" y="21.97" width="1.51" height="1.51" fill="#fff"/>
    <rect x="15.91" y="20.46" width="1.51" height="1.52" fill="#aa0707"/>
    <rect x="15.91" y="18.94" width="1.51" height="1.51" fill="#cc1d1d"/>
    <rect x="15.91" y="17.43" width="1.51" height="1.52" fill="#cc1d1d"/>
    <rect x="15.91" y="15.91" width="1.51" height="1.51" fill="#cc1d1d"/>
    <rect x="15.91" y="14.4" width="1.51" height="1.51" fill="#cc1d1d"/>
    <rect x="15.91" y="12.88" width="1.51" height="1.52" fill="#cc1d1d"/>
    <rect x="15.91" y="11.37" width="1.51" height="1.51" fill="#ef5454"/>
    <rect x="15.91" y="9.85" width="1.51" height="1.52" fill="#fff"/>
    <rect x="14.4" y="40.15" width="1.51" height="1.52" fill="#fff"/>
    <rect x="14.4" y="38.63" width="1.51" height="1.51" fill="#aa0707"/>
    <rect x="14.4" y="37.12" width="1.51" height="1.52" fill="#cc1d1d"/>
    <rect x="14.4" y="35.6" width="1.51" height="1.51" fill="#cc1d1d"/>
    <rect x="14.4" y="34.09" width="1.51" height="1.51" fill="#cc1d1d"/>
    <rect x="14.4" y="32.57" width="1.51" height="1.52" fill="#cc1d1d"/>
    <rect x="14.4" y="31.06" width="1.51" height="1.51" fill="#cc1d1d"/>
    <rect x="14.4" y="29.54" width="1.51" height="1.52" fill="#ef5454"/>
    <rect x="14.4" y="28.03" width="1.51" height="1.51" fill="#fff"/>
    <rect x="14.4" y="20.46" width="1.51" height="1.52" fill="#fff"/>
    <rect x="14.4" y="18.94" width="1.51" height="1.51" fill="#aa0707"/>
    <rect x="14.4" y="17.43" width="1.51" height="1.52" fill="#cc1d1d"/>
    <rect x="14.4" y="15.91" width="1.51" height="1.51" fill="#cc1d1d"/>
    <rect x="14.4" y="14.4" width="1.51" height="1.51" fill="#cc1d1d"/>
    <rect x="14.4" y="12.88" width="1.51" height="1.52" fill="#cc1d1d"/>
    <rect x="14.4" y="11.37" width="1.51" height="1.51" fill="#cc1d1d"/>
    <rect x="14.4" y="9.85" width="1.51" height="1.52" fill="#ef5454"/>
    <rect x="14.4" y="8.34" width="1.51" height="1.51" fill="#fff"/>
    <rect x="12.88" y="41.66" width="1.52" height="1.51" fill="#fff"/>
    <rect x="12.88" y="40.15" width="1.52" height="1.52" fill="#aa0707"/>
    <rect x="12.88" y="38.63" width="1.52" height="1.51" fill="#cc1d1d"/>
    <rect x="12.88" y="37.12" width="1.52" height="1.52" fill="#cc1d1d"/>
    <rect x="12.88" y="35.6" width="1.52" height="1.51" fill="#cc1d1d"/>
    <rect x="12.88" y="34.09" width="1.52" height="1.51" fill="#cc1d1d"/>
    <rect x="12.88" y="32.57" width="1.52" height="1.52" fill="#cc1d1d"/>
    <rect x="12.88" y="31.06" width="1.52" height="1.51" fill="#ef5454"/>
    <rect x="12.88" y="29.54" width="1.52" height="1.52" fill="#fff"/>
    <rect x="12.88" y="18.94" width="1.52" height="1.51" fill="#fff"/>
    <rect x="12.88" y="17.43" width="1.52" height="1.52" fill="#aa0707"/>
    <rect x="12.88" y="15.91" width="1.52" height="1.51" fill="#cc1d1d"/>
    <rect x="12.88" y="14.4" width="1.52" height="1.51" fill="#cc1d1d"/>
    <rect x="12.88" y="12.88" width="1.52" height="1.52" fill="#cc1d1d"/>
    <rect x="12.88" y="11.37" width="1.52" height="1.51" fill="#cc1d1d"/>
    <rect x="12.88" y="9.85" width="1.52" height="1.52" fill="#cc1d1d"/>
    <rect x="12.88" y="8.34" width="1.52" height="1.51" fill="#ef5454"/>
    <rect x="12.88" y="6.82" width="1.52" height="1.52" fill="#fff"/>
    <rect x="11.37" y="43.18" width="1.51" height="1.52" fill="#fff"/>
    <rect x="11.37" y="41.66" width="1.51" height="1.51" fill="#aa0707"/>
    <rect x="11.37" y="40.15" width="1.51" height="1.52" fill="#cc1d1d"/>
    <rect x="11.37" y="38.63" width="1.51" height="1.51" fill="#cc1d1d"/>
    <rect x="11.37" y="37.12" width="1.51" height="1.52" fill="#cc1d1d"/>
    <rect x="11.37" y="35.6" width="1.51" height="1.51" fill="#cc1d1d"/>
    <rect x="11.37" y="34.09" width="1.51" height="1.51" fill="#cc1d1d"/>
    <rect x="11.37" y="32.57" width="1.51" height="1.52" fill="#ef5454"/>
    <rect x="11.37" y="31.06" width="1.51" height="1.51" fill="#fff"/>
    <rect x="11.37" y="17.43" width="1.51" height="1.52" fill="#fff"/>
    <rect x="11.37" y="15.91" width="1.51" height="1.51" fill="#aa0707"/>
    <rect x="11.37" y="14.4" width="1.51" height="1.51" fill="#cc1d1d"/>
    <rect x="11.37" y="12.88" width="1.51" height="1.52" fill="#cc1d1d"/>
    <rect x="11.37" y="11.37" width="1.51" height="1.51" fill="#cc1d1d"/>
    <rect x="11.37" y="9.85" width="1.51" height="1.52" fill="#cc1d1d"/>
    <rect x="11.37" y="8.34" width="1.51" height="1.51" fill="#cc1d1d"/>
    <rect x="11.37" y="6.82" width="1.51" height="1.52" fill="#ef5454"/>
    <rect x="11.37" y="5.31" width="1.51" height="1.51" fill="#fff"/>
    <rect x="9.85" y="44.69" width="1.52" height="1.51" fill="#fff"/>
    <rect x="9.85" y="43.18" width="1.52" height="1.52" fill="#aa0707"/>
    <rect x="9.85" y="41.66" width="1.52" height="1.51" fill="#cc1d1d"/>
    <rect x="9.85" y="40.15" width="1.52" height="1.52" fill="#cc1d1d"/>
    <rect x="9.85" y="38.63" width="1.52" height="1.51" fill="#cc1d1d"/>
    <rect x="9.85" y="37.12" width="1.52" height="1.52" fill="#cc1d1d"/>
    <rect x="9.85" y="35.6" width="1.52" height="1.51" fill="#cc1d1d"/>
    <rect x="9.85" y="34.09" width="1.52" height="1.51" fill="#ef5454"/>
    <rect x="9.85" y="32.57" width="1.52" height="1.52" fill="#fff"/>
    <rect x="9.85" y="15.91" width="1.52" height="1.51" fill="#fff"/>
    <rect x="9.85" y="14.4" width="1.52" height="1.51" fill="#aa0707"/>
    <rect x="9.85" y="12.88" width="1.52" height="1.52" fill="#cc1d1d"/>
    <rect x="9.85" y="11.37" width="1.52" height="1.51" fill="#cc1d1d"/>
    <rect x="9.85" y="9.85" width="1.52" height="1.52" fill="#cc1d1d"/>
    <rect x="9.85" y="8.34" width="1.52" height="1.51" fill="#cc1d1d"/>
    <rect x="9.85" y="6.82" width="1.52" height="1.52" fill="#cc1d1d"/>
    <rect x="9.85" y="5.31" width="1.52" height="1.51" fill="#ef5454"/>
    <rect x="9.85" y="3.79" width="1.52" height="1.52" fill="#fff"/>
    <rect x="8.34" y="46.2" width="1.51" height="1.52" fill="#fff"/>
    <rect x="8.34" y="44.69" width="1.51" height="1.51" fill="#aa0707"/>
    <rect x="8.34" y="43.18" width="1.51" height="1.52" fill="#cc1d1d"/>
    <rect x="8.34" y="41.66" width="1.51" height="1.51" fill="#cc1d1d"/>
    <rect x="8.34" y="40.15" width="1.51" height="1.52" fill="#cc1d1d"/>
    <rect x="8.34" y="38.63" width="1.51" height="1.51" fill="#cc1d1d"/>
    <rect x="8.34" y="37.12" width="1.51" height="1.52" fill="#cc1d1d"/>
    <rect x="8.34" y="35.6" width="1.51" height="1.51" fill="#ef5454"/>
    <rect x="8.34" y="34.09" width="1.51" height="1.51" fill="#fff"/>
    <rect x="8.34" y="14.4" width="1.51" height="1.51" fill="#fff"/>
    <rect x="8.34" y="12.88" width="1.51" height="1.52" fill="#aa0707"/>
    <rect x="8.34" y="11.37" width="1.51" height="1.51" fill="#cc1d1d"/>
    <rect x="8.34" y="9.85" width="1.51" height="1.52" fill="#cc1d1d"/>
    <rect x="8.34" y="8.34" width="1.51" height="1.51" fill="#cc1d1d"/>
    <rect x="8.34" y="6.82" width="1.51" height="1.52" fill="#cc1d1d"/>
    <rect x="8.34" y="5.31" width="1.51" height="1.51" fill="#cc1d1d"/>
    <rect x="8.34" y="3.79" width="1.51" height="1.52" fill="#ef5454"/>
    <rect x="8.34" y="2.28" width="1.51" height="1.51" fill="#fff"/>
    <rect x="6.82" y="46.2" width="1.52" height="1.52" fill="#fff"/>
    <rect x="6.82" y="44.69" width="1.52" height="1.51" fill="#aa0707"/>
    <rect x="6.82" y="43.18" width="1.52" height="1.52" fill="#cc1d1d"/>
    <rect x="6.82" y="41.66" width="1.52" height="1.51" fill="#cc1d1d"/>
    <rect x="6.82" y="40.15" width="1.52" height="1.52" fill="#cc1d1d"/>
    <rect x="6.82" y="38.63" width="1.52" height="1.51" fill="#cc1d1d"/>
    <rect x="6.82" y="37.12" width="1.52" height="1.52" fill="#ef5454"/>
    <rect x="6.82" y="35.6" width="1.52" height="1.51" fill="#fff"/>
    <rect x="6.82" y="12.88" width="1.52" height="1.52" fill="#fff"/>
    <rect x="6.82" y="11.37" width="1.52" height="1.51" fill="#aa0707"/>
    <rect x="6.82" y="9.85" width="1.52" height="1.52" fill="#cc1d1d"/>
    <rect x="6.82" y="8.34" width="1.52" height="1.51" fill="#cc1d1d"/>
    <rect x="6.82" y="6.82" width="1.52" height="1.52" fill="#cc1d1d"/>
    <rect x="6.82" y="5.31" width="1.52" height="1.51" fill="#cc1d1d"/>
    <rect x="6.82" y="3.79" width="1.52" height="1.52" fill="#ef5454"/>
    <rect x="6.82" y="2.28" width="1.52" height="1.51" fill="#fff"/>
    <rect x="5.31" y="44.69" width="1.51" height="1.51" fill="#fff"/>
    <rect x="5.31" y="43.18" width="1.51" height="1.52" fill="#aa0707"/>
    <rect x="5.31" y="41.66" width="1.51" height="1.51" fill="#cc1d1d"/>
    <rect x="5.31" y="40.15" width="1.51" height="1.52" fill="#cc1d1d"/>
    <rect x="5.31" y="38.63" width="1.51" height="1.51" fill="#ef5454"/>
    <rect x="5.31" y="37.12" width="1.51" height="1.52" fill="#fff"/>
    <rect x="5.31" y="11.37" width="1.51" height="1.51" fill="#fff"/>
    <rect x="5.31" y="9.85" width="1.51" height="1.52" fill="#aa0707"/>
    <rect x="5.31" y="8.34" width="1.51" height="1.51" fill="#cc1d1d"/>
    <rect x="5.31" y="6.82" width="1.51" height="1.52" fill="#cc1d1d"/>
    <rect x="5.31" y="5.31" width="1.51" height="1.51" fill="#ef5454"/>
    <rect x="5.31" y="3.79" width="1.51" height="1.52" fill="#fff"/>
    <rect x="3.79" y="43.18" width="1.52" height="1.52" fill="#fff"/>
    <rect x="3.79" y="41.66" width="1.52" height="1.51" fill="#aa0707"/>
    <rect x="3.79" y="40.15" width="1.52" height="1.52" fill="#ef5454"/>
    <rect x="3.79" y="38.63" width="1.52" height="1.51" fill="#fff"/>
    <rect x="3.79" y="9.85" width="1.52" height="1.52" fill="#fff"/>
    <rect x="3.79" y="8.34" width="1.52" height="1.51" fill="#aa0707"/>
    <rect x="3.79" y="6.82" width="1.52" height="1.52" fill="#ef5454"/>
    <rect x="3.79" y="5.31" width="1.52" height="1.51" fill="#fff"/>
    <rect x="2.28" y="41.66" width="1.51" height="1.51" fill="#fff"/>
    <rect x="2.28" y="40.15" width="1.51" height="1.52" fill="#fff"/>
    <rect x="2.28" y="8.34" width="1.51" height="1.51" fill="#fff"/>
    <rect x="2.28" y="6.82" width="1.51" height="1.52" fill="#fff"/>
  </g>
</svg>
