<svg id="Capa_1" data-name="Capa 1" xmlns="http://www.w3.org/2000/svg" xmlns:xlink="http://www.w3.org/1999/xlink" width="50" height="50" viewBox="0 0 50 50">
  <defs>
    <clipPath id="clip-path">
      <polygon points="24.04 49.76 1.25 39.47 1.41 9.17 24.2 19.46 24.04 49.76" fill="none"/>
    </clipPath>
    <clipPath id="clip-path-2">
      <polygon points="24.2 19.46 1.41 9.17 25.96 0.24 48.74 10.53 24.2 19.46" fill="none"/>
    </clipPath>
    <clipPath id="clip-path-3">
      <polygon points="48.74 10.53 48.59 40.83 24.04 49.76 24.2 19.46 48.74 10.53" fill="none"/>
    </clipPath>
  </defs>
  <g id="Figment_lido">
    <g style="isolation: isolate">
      <g>
        <polygon points="24.04 49.76 1.25 39.47 1.41 9.17 24.2 19.46 24.04 49.76" fill="#1a4482"/>
        <g style="isolation: isolate">
          <g clip-path="url(#clip-path)">
            <g>
              <path d="M11.77,29.84l-.18-.07a.41.41,0,0,0-.22,0c-.2.05-.28.31-.23.63a1,1,0,0,0,.46.68,4.78,4.78,0,0,1,.64.32,5.24,5.24,0,0,1,2,4.51c-.14,1.56-1.14,2.35-2.34,1.84l-2-.86c-.06,0-.07-.07-.07-.15V35.52a1.42,1.42,0,0,0-.66-1.29c-.16-.09-.31-.15-.46-.24a6.16,6.16,0,0,1-1.62-1.33c-.21-.24-.41-.51-.61-.77a1.06,1.06,0,0,0-.35-.35h0c-.19-.06-.33.08-.35.37a2.93,2.93,0,0,0,0,.59A8,8,0,0,0,7,35.92,5,5,0,0,0,8.9,37.71c.23.11.45.22.68.31l.9.4h0l.81.37.41.17a5.35,5.35,0,0,0,.67.24,1.89,1.89,0,0,0,1.77-.37,3.86,3.86,0,0,0,1.06-3.35,7.27,7.27,0,0,0-.85-3,5.47,5.47,0,0,0-2.58-2.66" fill="#fff"/>
              <path d="M10.72,24.29l-1.63-.71a4.36,4.36,0,0,0-.58-.19A1.94,1.94,0,0,0,6.58,24a3.84,3.84,0,0,0-.83,2.42,5.66,5.66,0,0,0,.07,1.22A7.38,7.38,0,0,0,8,32a4.16,4.16,0,0,0,1.16.75l.17.07a.29.29,0,0,0,.42-.18.88.88,0,0,0,0-.7.78.78,0,0,0-.37-.42h0a3.88,3.88,0,0,1-.77-.42,5.28,5.28,0,0,1-1.85-4.53c.17-1.48,1.19-2.23,2.35-1.72l2,.87.08,0v.13c0,.42,0,.85,0,1.27a1.49,1.49,0,0,0,.33,1,1.2,1.2,0,0,0,.39.3c.23.12.47.24.71.39a6.92,6.92,0,0,1,1.89,1.89,2,2,0,0,0,.23.27.44.44,0,0,0,.15.1.22.22,0,0,0,.31-.13l.06-.18a2.5,2.5,0,0,0,0-.72,7.77,7.77,0,0,0-1.11-3.16,5,5,0,0,0-2.16-2.06c-.39-.19-.79-.36-1.19-.54" fill="#fff"/>
              <path d="M15.58,24.79s-.06,0-.08.06a3.74,3.74,0,0,0-.08,3,4.13,4.13,0,0,0,2,2.57l.3.1c1.63.43,2.51-1.73,1.63-4,0-.08-.05-.12-.09-.14H19.2L17.55,27a.13.13,0,0,1-.12,0,.27.27,0,0,1-.12-.1c-.55-.69-1.11-1.37-1.66-2.05a.3.3,0,0,0-.07-.08" fill="#fff"/>
              <path d="M17.36,25.67c-.32-.41-.65-.81-1-1.21l0-.16,1-1.75,0,0,.07.14c.3.76.6,1.52.89,2.28.05.14.16.32.14.4s-.15.08-.24.12l-.77.27-.15,0m.07-4.08-1.57,2.65c0,.07,0,.11,0,.17l1.47,1.8.14.07L19,25.77c.08,0,.09-.05,0-.18-.2-.49-.39-1-.59-1.5l-1-2.5" fill="#fff"/>
            </g>
          </g>
        </g>
      </g>
      <g>
        <polygon points="24.2 19.46 1.41 9.17 25.96 0.24 48.74 10.53 24.2 19.46" fill="#1d4b8f"/>
        <g style="isolation: isolate">
          <g clip-path="url(#clip-path-2)">
            <g>
              <path d="M24.61,10.5l-.19.07a.51.51,0,0,0-.18.12c-.11.12,0,.26.29.33a1.67,1.67,0,0,0,.86,0c.24-.08.46-.18.73-.25a7.44,7.44,0,0,1,4.87.4c1,.59.83,1.41-.47,1.89l-2.18.8a.19.19,0,0,1-.18,0l-.88-.4a2.14,2.14,0,0,0-1.47-.07l-.52.17a12.16,12.16,0,0,1-2.24.45c-.35,0-.7.06-1,.08a2.06,2.06,0,0,0-.53.07l0,0c-.19.08-.2.21,0,.31a2.91,2.91,0,0,0,.43.19,10.58,10.58,0,0,0,3.49.46,9.64,9.64,0,0,0,2.78-.44l.75-.26,1-.37h0l.89-.33.45-.16c.24-.09.48-.19.69-.29.66-.31,1-.68,1.11-1.09.13-.67-.42-1.24-1.63-1.69A9.1,9.1,0,0,0,28.56,10a10.19,10.19,0,0,0-3.95.54" fill="#fff"/>
              <path d="M19.72,9.23l-1.79.66a5.31,5.31,0,0,0-.58.25c-.72.37-1.07.8-1.05,1.27s.41.88,1.13,1.26a6,6,0,0,0,.94.36,11.3,11.3,0,0,0,4.93.23,7.61,7.61,0,0,0,1.45-.39l.19-.07c.21-.08.27-.17.19-.29s-.26-.17-.54-.2a1.43,1.43,0,0,0-.6.06h0a6.35,6.35,0,0,1-.9.29,7.24,7.24,0,0,1-4.76-.49c-.95-.59-.71-1.39.57-1.86L21,9.53l.09,0,.09,0,.94.42a1.9,1.9,0,0,0,1,.14,2.82,2.82,0,0,0,.52-.11c.27-.09.54-.18.83-.26a13.14,13.14,0,0,1,2.86-.41l.38,0,.19,0c.14-.05.19-.12.14-.21L28,8.93a2,2,0,0,0-.55-.23,10.11,10.11,0,0,0-3.18-.44A9.9,9.9,0,0,0,21,8.75l-1.32.48" fill="#fff"/>
              <path d="M23.87,6.74s0,0,0,.06c.26.51,1,.88,2.18,1.06a7.36,7.36,0,0,0,3.44-.25l.31-.14c1.59-.74.69-1.94-1.67-2.21-.08,0-.13,0-.16,0l-.06,0c-.27.37-.57.73-.85,1.1a.15.15,0,0,1-.09.06.61.61,0,0,1-.17,0L24,6.72l-.11,0" fill="#fff"/>
              <path d="M25.91,6.05l-1.66.14-.14,0c-.15-.37-.32-.76-.48-1.14V5h.16l2.37.27a1.61,1.61,0,0,1,.4.06c.05,0-.06.11-.1.17l-.4.51-.15.06M23,4.66q.38.88.72,1.74s.08,0,.16,0l2.46-.2.16-.06.76-1s0-.07-.11-.08L25.56,5,23,4.66" fill="#fff"/>
            </g>
          </g>
        </g>
      </g>
      <g>
        <polygon points="48.74 10.53 48.59 40.83 24.04 49.76 24.2 19.46 48.74 10.53" fill="#1d4c92"/>
        <g style="isolation: isolate">
          <g clip-path="url(#clip-path-3)">
            <g>
              <path d="M35.33,31.33l-.19.07a1.3,1.3,0,0,0-.25.18.93.93,0,0,0-.25.83.37.37,0,0,0,.5.29,4.48,4.48,0,0,1,.71-.22c1.4-.24,2.37,1,2.19,2.81a4.69,4.69,0,0,1-2.59,3.81l-2.2.8c-.07,0-.08,0-.08-.08V38.61c0-.63-.3-.86-.72-.74-.16.05-.33.11-.5.15a3.37,3.37,0,0,1-1.78,0,4.73,4.73,0,0,1-.66-.25.45.45,0,0,0-.39,0h0a.79.79,0,0,0-.39.67,2.7,2.7,0,0,0,0,.57,3.13,3.13,0,0,0,1.35,2.38,2.4,2.4,0,0,0,2.07.21l.75-.26,1-.37h0l.89-.32.45-.17a5.91,5.91,0,0,0,.74-.32,5.4,5.4,0,0,0,2-1.86,6.77,6.77,0,0,0,1.19-4.24,3.42,3.42,0,0,0-.92-2.26,2.51,2.51,0,0,0-2.84-.47" fill="#fff"/>
              <path d="M34.21,26.67l-1.8.66a4,4,0,0,0-.63.3,5.89,5.89,0,0,0-2.14,2.25A7.05,7.05,0,0,0,28.7,33a4.34,4.34,0,0,0,.08,1.15c.31,1.55,1.13,2.38,2.42,2.49a3.51,3.51,0,0,0,1.28-.23l.19-.08a.8.8,0,0,0,.46-.53.66.66,0,0,0-.05-.65.32.32,0,0,0-.41-.11h0a3.51,3.51,0,0,1-.85.24c-1.38.09-2.24-1.18-2-3a4.65,4.65,0,0,1,2.61-3.69l2.17-.79.08,0v1.38c0,.35.1.6.36.69a.8.8,0,0,0,.43,0q.39-.12.78-.21a3.12,3.12,0,0,1,2.08.3,1,1,0,0,0,.25.07.41.41,0,0,0,.16,0,.62.62,0,0,0,.35-.4l.07-.23a2,2,0,0,0,0-.69,3.15,3.15,0,0,0-1.2-2.23,2.49,2.49,0,0,0-2.37-.24l-1.31.47" fill="#fff"/>
              <path d="M39.57,23.08s-.06.05-.09.12a3.69,3.69,0,0,0-.11,3.12,1.68,1.68,0,0,0,2.21.88l.34-.17c1.79-.93,2.78-3.83,1.81-5.36,0-.06,0-.08-.09-.07l-.09.07c-.6.67-1.21,1.31-1.82,2a.38.38,0,0,1-.13.1.19.19,0,0,1-.13,0c-.61-.23-1.22-.44-1.82-.65a.09.09,0,0,0-.08,0" fill="#fff"/>
              <path d="M41.53,22.46c-.35-.13-.71-.27-1.07-.39l0-.13,1.15-2.61,0-.08.08.08c.32.51.64,1,1,1.53,0,.1.16.19.14.29s-.17.21-.26.31l-.85.92-.17.08m.1-4.13c-.59,1.35-1.17,2.66-1.75,4-.05.1,0,.11,0,.14l1.6.56.16-.06,1.61-1.72c.08-.09.09-.13,0-.21-.22-.33-.43-.67-.64-1l-1.06-1.68" fill="#fff"/>
            </g>
          </g>
        </g>
      </g>
    </g>
  </g>
  <g>
    <rect x="46.2" y="41.66" width="1.52" height="1.52" fill="#fff"/>
    <rect x="46.2" y="40.15" width="1.52" height="1.51" fill="#fff"/>
    <rect x="46.2" y="8.34" width="1.52" height="1.52" fill="#fff"/>
    <rect x="46.2" y="6.82" width="1.52" height="1.51" fill="#fff"/>
    <rect x="44.69" y="43.18" width="1.51" height="1.51" fill="#fff"/>
    <rect x="44.69" y="41.66" width="1.51" height="1.52" fill="#ef5454"/>
    <rect x="44.69" y="40.15" width="1.51" height="1.51" fill="#ef5454"/>
    <rect x="44.69" y="38.63" width="1.51" height="1.52" fill="#fff"/>
    <rect x="44.69" y="9.85" width="1.51" height="1.51" fill="#fff"/>
    <rect x="44.69" y="8.34" width="1.51" height="1.52" fill="#aa0707"/>
    <rect x="44.69" y="6.82" width="1.51" height="1.51" fill="#ef5454"/>
    <rect x="44.69" y="5.31" width="1.51" height="1.52" fill="#fff"/>
    <rect x="43.18" y="44.69" width="1.52" height="1.52" fill="#fff"/>
    <rect x="43.18" y="43.18" width="1.52" height="1.51" fill="#aa0707"/>
    <rect x="43.18" y="41.66" width="1.52" height="1.52" fill="#cc1d1d"/>
    <rect x="43.18" y="40.15" width="1.52" height="1.51" fill="#cc1d1d"/>
    <rect x="43.18" y="38.63" width="1.52" height="1.52" fill="#ef5454"/>
    <rect x="43.18" y="37.12" width="1.52" height="1.51" fill="#fff"/>
    <rect x="43.18" y="11.37" width="1.52" height="1.52" fill="#fff"/>
    <rect x="43.18" y="9.85" width="1.52" height="1.51" fill="#aa0707"/>
    <rect x="43.18" y="8.34" width="1.52" height="1.52" fill="#cc1d1d"/>
    <rect x="43.18" y="6.82" width="1.52" height="1.51" fill="#cc1d1d"/>
    <rect x="43.18" y="5.31" width="1.52" height="1.52" fill="#ef5454"/>
    <rect x="43.18" y="3.8" width="1.52" height="1.51" fill="#fff"/>
    <rect x="41.66" y="46.21" width="1.51" height="1.51" fill="#fff"/>
    <rect x="41.66" y="44.69" width="1.51" height="1.52" fill="#aa0707"/>
    <rect x="41.66" y="43.18" width="1.51" height="1.51" fill="#cc1d1d"/>
    <rect x="41.66" y="41.66" width="1.51" height="1.52" fill="#cc1d1d"/>
    <rect x="41.66" y="40.15" width="1.51" height="1.51" fill="#cc1d1d"/>
    <rect x="41.66" y="38.63" width="1.51" height="1.52" fill="#cc1d1d"/>
    <rect x="41.66" y="37.12" width="1.51" height="1.51" fill="#ef5454"/>
    <rect x="41.66" y="35.6" width="1.51" height="1.52" fill="#fff"/>
    <rect x="41.66" y="12.88" width="1.51" height="1.51" fill="#fff"/>
    <rect x="41.66" y="11.37" width="1.51" height="1.52" fill="#aa0707"/>
    <rect x="41.66" y="9.85" width="1.51" height="1.51" fill="#cc1d1d"/>
    <rect x="41.66" y="8.34" width="1.51" height="1.52" fill="#cc1d1d"/>
    <rect x="41.66" y="6.82" width="1.51" height="1.51" fill="#cc1d1d"/>
    <rect x="41.66" y="5.31" width="1.51" height="1.52" fill="#cc1d1d"/>
    <rect x="41.66" y="3.8" width="1.51" height="1.51" fill="#ef5454"/>
    <rect x="41.66" y="2.28" width="1.51" height="1.52" fill="#fff"/>
    <rect x="40.15" y="46.21" width="1.52" height="1.51" fill="#fff"/>
    <rect x="40.15" y="44.69" width="1.52" height="1.52" fill="#aa0707"/>
    <rect x="40.15" y="43.18" width="1.52" height="1.51" fill="#cc1d1d"/>
    <rect x="40.15" y="41.66" width="1.52" height="1.52" fill="#cc1d1d"/>
    <rect x="40.15" y="40.15" width="1.52" height="1.51" fill="#cc1d1d"/>
    <rect x="40.15" y="38.63" width="1.52" height="1.52" fill="#cc1d1d"/>
    <rect x="40.15" y="37.12" width="1.52" height="1.51" fill="#cc1d1d"/>
    <rect x="40.15" y="35.6" width="1.52" height="1.52" fill="#ef5454"/>
    <rect x="40.15" y="34.09" width="1.52" height="1.51" fill="#fff"/>
    <rect x="40.15" y="14.4" width="1.52" height="1.52" fill="#fff"/>
    <rect x="40.15" y="12.88" width="1.52" height="1.51" fill="#aa0707"/>
    <rect x="40.15" y="11.37" width="1.52" height="1.52" fill="#cc1d1d"/>
    <rect x="40.15" y="9.85" width="1.52" height="1.51" fill="#cc1d1d"/>
    <rect x="40.15" y="8.34" width="1.52" height="1.52" fill="#cc1d1d"/>
    <rect x="40.15" y="6.82" width="1.52" height="1.51" fill="#cc1d1d"/>
    <rect x="40.15" y="5.31" width="1.52" height="1.52" fill="#cc1d1d"/>
    <rect x="40.15" y="3.8" width="1.52" height="1.51" fill="#ef5454"/>
    <rect x="40.15" y="2.28" width="1.52" height="1.52" fill="#fff"/>
    <rect x="38.63" y="44.69" width="1.51" height="1.52" fill="#fff"/>
    <rect x="38.63" y="43.18" width="1.51" height="1.51" fill="#aa0707"/>
    <rect x="38.63" y="41.66" width="1.51" height="1.52" fill="#cc1d1d"/>
    <rect x="38.63" y="40.15" width="1.51" height="1.51" fill="#cc1d1d"/>
    <rect x="38.63" y="38.63" width="1.51" height="1.52" fill="#cc1d1d"/>
    <rect x="38.63" y="37.12" width="1.51" height="1.51" fill="#cc1d1d"/>
    <rect x="38.63" y="35.6" width="1.51" height="1.52" fill="#cc1d1d"/>
    <rect x="38.63" y="34.09" width="1.51" height="1.51" fill="#ef5454"/>
    <rect x="38.63" y="32.57" width="1.51" height="1.51" fill="#fff"/>
    <rect x="38.63" y="15.91" width="1.51" height="1.51" fill="#fff"/>
    <rect x="38.63" y="14.4" width="1.51" height="1.52" fill="#aa0707"/>
    <rect x="38.63" y="12.88" width="1.51" height="1.51" fill="#cc1d1d"/>
    <rect x="38.63" y="11.37" width="1.51" height="1.52" fill="#cc1d1d"/>
    <rect x="38.63" y="9.85" width="1.51" height="1.51" fill="#cc1d1d"/>
    <rect x="38.63" y="8.34" width="1.51" height="1.52" fill="#cc1d1d"/>
    <rect x="38.63" y="6.82" width="1.51" height="1.51" fill="#cc1d1d"/>
    <rect x="38.63" y="5.31" width="1.51" height="1.52" fill="#ef5454"/>
    <rect x="38.63" y="3.8" width="1.51" height="1.51" fill="#fff"/>
    <rect x="37.12" y="43.18" width="1.52" height="1.51" fill="#fff"/>
    <rect x="37.12" y="41.66" width="1.52" height="1.52" fill="#aa0707"/>
    <rect x="37.12" y="40.15" width="1.52" height="1.51" fill="#cc1d1d"/>
    <rect x="37.12" y="38.63" width="1.52" height="1.52" fill="#cc1d1d"/>
    <rect x="37.12" y="37.12" width="1.52" height="1.51" fill="#cc1d1d"/>
    <rect x="37.12" y="35.6" width="1.52" height="1.52" fill="#cc1d1d"/>
    <rect x="37.12" y="34.09" width="1.52" height="1.51" fill="#cc1d1d"/>
    <rect x="37.12" y="32.57" width="1.52" height="1.51" fill="#ef5454"/>
    <rect x="37.12" y="31.06" width="1.52" height="1.52" fill="#fff"/>
    <rect x="37.12" y="17.43" width="1.52" height="1.51" fill="#fff"/>
    <rect x="37.12" y="15.91" width="1.52" height="1.51" fill="#aa0707"/>
    <rect x="37.12" y="14.4" width="1.52" height="1.52" fill="#cc1d1d"/>
    <rect x="37.12" y="12.88" width="1.52" height="1.51" fill="#cc1d1d"/>
    <rect x="37.12" y="11.37" width="1.52" height="1.52" fill="#cc1d1d"/>
    <rect x="37.12" y="9.85" width="1.52" height="1.51" fill="#cc1d1d"/>
    <rect x="37.12" y="8.34" width="1.52" height="1.52" fill="#cc1d1d"/>
    <rect x="37.12" y="6.82" width="1.52" height="1.51" fill="#ef5454"/>
    <rect x="37.12" y="5.31" width="1.52" height="1.52" fill="#fff"/>
    <rect x="35.6" y="41.66" width="1.51" height="1.52" fill="#fff"/>
    <rect x="35.6" y="40.15" width="1.51" height="1.51" fill="#aa0707"/>
    <rect x="35.6" y="38.63" width="1.51" height="1.52" fill="#cc1d1d"/>
    <rect x="35.6" y="37.12" width="1.51" height="1.51" fill="#cc1d1d"/>
    <rect x="35.6" y="35.6" width="1.51" height="1.52" fill="#cc1d1d"/>
    <rect x="35.6" y="34.09" width="1.51" height="1.51" fill="#cc1d1d"/>
    <rect x="35.6" y="32.57" width="1.51" height="1.51" fill="#cc1d1d"/>
    <rect x="35.6" y="31.06" width="1.51" height="1.52" fill="#ef5454"/>
    <rect x="35.6" y="29.54" width="1.51" height="1.51" fill="#fff"/>
    <rect x="35.6" y="18.94" width="1.51" height="1.52" fill="#fff"/>
    <rect x="35.6" y="17.43" width="1.51" height="1.51" fill="#aa0707"/>
    <rect x="35.6" y="15.91" width="1.51" height="1.51" fill="#cc1d1d"/>
    <rect x="35.6" y="14.4" width="1.51" height="1.52" fill="#cc1d1d"/>
    <rect x="35.6" y="12.88" width="1.51" height="1.51" fill="#cc1d1d"/>
    <rect x="35.6" y="11.37" width="1.51" height="1.52" fill="#cc1d1d"/>
    <rect x="35.6" y="9.85" width="1.51" height="1.51" fill="#cc1d1d"/>
    <rect x="35.6" y="8.34" width="1.51" height="1.52" fill="#ef5454"/>
    <rect x="35.6" y="6.82" width="1.51" height="1.51" fill="#fff"/>
    <rect x="34.09" y="40.15" width="1.52" height="1.51" fill="#fff"/>
    <rect x="34.09" y="38.63" width="1.52" height="1.52" fill="#aa0707"/>
    <rect x="34.09" y="37.12" width="1.52" height="1.51" fill="#cc1d1d"/>
    <rect x="34.09" y="35.6" width="1.52" height="1.52" fill="#cc1d1d"/>
    <rect x="34.09" y="34.09" width="1.52" height="1.51" fill="#cc1d1d"/>
    <rect x="34.09" y="32.57" width="1.52" height="1.51" fill="#cc1d1d"/>
    <rect x="34.09" y="31.06" width="1.52" height="1.52" fill="#cc1d1d"/>
    <rect x="34.09" y="29.54" width="1.52" height="1.51" fill="#ef5454"/>
    <rect x="34.09" y="28.03" width="1.52" height="1.52" fill="#fff"/>
    <rect x="34.09" y="20.46" width="1.52" height="1.51" fill="#fff"/>
    <rect x="34.09" y="18.94" width="1.52" height="1.52" fill="#aa0707"/>
    <rect x="34.09" y="17.43" width="1.52" height="1.51" fill="#cc1d1d"/>
    <rect x="34.09" y="15.91" width="1.52" height="1.51" fill="#cc1d1d"/>
    <rect x="34.09" y="14.4" width="1.52" height="1.52" fill="#cc1d1d"/>
    <rect x="34.09" y="12.88" width="1.52" height="1.51" fill="#cc1d1d"/>
    <rect x="34.09" y="11.37" width="1.52" height="1.52" fill="#cc1d1d"/>
    <rect x="34.09" y="9.85" width="1.52" height="1.51" fill="#ef5454"/>
    <rect x="34.09" y="8.34" width="1.52" height="1.52" fill="#fff"/>
    <rect x="32.57" y="38.63" width="1.51" height="1.52" fill="#fff"/>
    <rect x="32.57" y="37.12" width="1.51" height="1.51" fill="#aa0707"/>
    <rect x="32.57" y="35.6" width="1.51" height="1.52" fill="#cc1d1d"/>
    <rect x="32.57" y="34.09" width="1.51" height="1.51" fill="#cc1d1d"/>
    <rect x="32.57" y="32.57" width="1.51" height="1.51" fill="#cc1d1d"/>
    <rect x="32.57" y="31.06" width="1.51" height="1.52" fill="#cc1d1d"/>
    <rect x="32.57" y="29.54" width="1.51" height="1.51" fill="#cc1d1d"/>
    <rect x="32.57" y="28.03" width="1.51" height="1.52" fill="#ef5454"/>
    <rect x="32.57" y="26.51" width="1.51" height="1.51" fill="#fff"/>
    <rect x="32.57" y="21.97" width="1.51" height="1.52" fill="#fff"/>
    <rect x="32.57" y="20.46" width="1.51" height="1.51" fill="#aa0707"/>
    <rect x="32.57" y="18.94" width="1.51" height="1.52" fill="#cc1d1d"/>
    <rect x="32.57" y="17.43" width="1.51" height="1.51" fill="#cc1d1d"/>
    <rect x="32.57" y="15.91" width="1.51" height="1.51" fill="#cc1d1d"/>
    <rect x="32.57" y="14.4" width="1.51" height="1.52" fill="#cc1d1d"/>
    <rect x="32.57" y="12.88" width="1.51" height="1.51" fill="#cc1d1d"/>
    <rect x="32.57" y="11.37" width="1.51" height="1.52" fill="#ef5454"/>
    <rect x="32.57" y="9.85" width="1.51" height="1.51" fill="#fff"/>
    <rect x="31.06" y="37.12" width="1.51" height="1.51" fill="#fff"/>
    <rect x="31.06" y="35.6" width="1.51" height="1.52" fill="#aa0707"/>
    <rect x="31.06" y="34.09" width="1.51" height="1.51" fill="#cc1d1d"/>
    <rect x="31.06" y="32.57" width="1.51" height="1.51" fill="#cc1d1d"/>
    <rect x="31.06" y="31.06" width="1.51" height="1.52" fill="#cc1d1d"/>
    <rect x="31.06" y="29.54" width="1.51" height="1.51" fill="#cc1d1d"/>
    <rect x="31.06" y="28.03" width="1.51" height="1.52" fill="#cc1d1d"/>
    <rect x="31.06" y="26.51" width="1.51" height="1.51" fill="#ef5454"/>
    <rect x="31.06" y="25" width="1.51" height="1.52" fill="#fff"/>
    <rect x="31.06" y="23.49" width="1.51" height="1.51" fill="#fff"/>
    <rect x="31.06" y="21.97" width="1.51" height="1.52" fill="#aa0707"/>
    <rect x="31.06" y="20.46" width="1.51" height="1.51" fill="#cc1d1d"/>
    <rect x="31.06" y="18.94" width="1.51" height="1.52" fill="#cc1d1d"/>
    <rect x="31.06" y="17.43" width="1.51" height="1.51" fill="#cc1d1d"/>
    <rect x="31.06" y="15.91" width="1.51" height="1.51" fill="#cc1d1d"/>
    <rect x="31.06" y="14.4" width="1.51" height="1.52" fill="#cc1d1d"/>
    <rect x="31.06" y="12.88" width="1.51" height="1.51" fill="#ef5454"/>
    <rect x="31.06" y="11.37" width="1.51" height="1.52" fill="#fff"/>
    <rect x="29.54" y="35.6" width="1.52" height="1.52" fill="#fff"/>
    <rect x="29.54" y="34.09" width="1.52" height="1.51" fill="#aa0707"/>
    <rect x="29.54" y="32.57" width="1.52" height="1.51" fill="#cc1d1d"/>
    <rect x="29.54" y="31.06" width="1.52" height="1.52" fill="#cc1d1d"/>
    <rect x="29.54" y="29.54" width="1.52" height="1.51" fill="#cc1d1d"/>
    <rect x="29.54" y="28.03" width="1.52" height="1.52" fill="#cc1d1d"/>
    <rect x="29.54" y="26.51" width="1.52" height="1.51" fill="#cc1d1d"/>
    <rect x="29.54" y="25" width="1.52" height="1.52" fill="#aa0707"/>
    <rect x="29.54" y="23.49" width="1.52" height="1.51" fill="#aa0707"/>
    <rect x="29.54" y="21.97" width="1.52" height="1.52" fill="#cc1d1d"/>
    <rect x="29.54" y="20.46" width="1.52" height="1.51" fill="#cc1d1d"/>
    <rect x="29.54" y="18.94" width="1.52" height="1.52" fill="#cc1d1d"/>
    <rect x="29.54" y="17.43" width="1.52" height="1.51" fill="#cc1d1d"/>
    <rect x="29.54" y="15.91" width="1.52" height="1.51" fill="#cc1d1d"/>
    <rect x="29.54" y="14.4" width="1.52" height="1.52" fill="#ef5454"/>
    <rect x="29.54" y="12.88" width="1.52" height="1.51" fill="#fff"/>
    <rect x="28.03" y="34.09" width="1.51" height="1.51" fill="#fff"/>
    <rect x="28.03" y="32.57" width="1.51" height="1.51" fill="#aa0707"/>
    <rect x="28.03" y="31.06" width="1.51" height="1.52" fill="#cc1d1d"/>
    <rect x="28.03" y="29.54" width="1.51" height="1.51" fill="#cc1d1d"/>
    <rect x="28.03" y="28.03" width="1.51" height="1.52" fill="#cc1d1d"/>
    <rect x="28.03" y="26.51" width="1.51" height="1.51" fill="#cc1d1d"/>
    <rect x="28.03" y="25" width="1.51" height="1.52" fill="#cc1d1d"/>
    <rect x="28.03" y="23.49" width="1.51" height="1.51" fill="#cc1d1d"/>
    <rect x="28.03" y="21.97" width="1.51" height="1.52" fill="#cc1d1d"/>
    <rect x="28.03" y="20.46" width="1.51" height="1.51" fill="#cc1d1d"/>
    <rect x="28.03" y="18.94" width="1.51" height="1.52" fill="#cc1d1d"/>
    <rect x="28.03" y="17.43" width="1.51" height="1.51" fill="#cc1d1d"/>
    <rect x="28.03" y="15.91" width="1.51" height="1.51" fill="#ef5454"/>
    <rect x="28.03" y="14.4" width="1.51" height="1.52" fill="#fff"/>
    <rect x="26.51" y="32.57" width="1.52" height="1.51" fill="#fff"/>
    <rect x="26.51" y="31.06" width="1.52" height="1.52" fill="#aa0707"/>
    <rect x="26.51" y="29.54" width="1.52" height="1.51" fill="#cc1d1d"/>
    <rect x="26.51" y="28.03" width="1.52" height="1.52" fill="#cc1d1d"/>
    <rect x="26.51" y="26.51" width="1.52" height="1.51" fill="#cc1d1d"/>
    <rect x="26.51" y="25" width="1.52" height="1.52" fill="#cc1d1d"/>
    <rect x="26.51" y="23.49" width="1.52" height="1.51" fill="#cc1d1d"/>
    <rect x="26.51" y="21.97" width="1.52" height="1.52" fill="#cc1d1d"/>
    <rect x="26.51" y="20.46" width="1.52" height="1.51" fill="#cc1d1d"/>
    <rect x="26.51" y="18.94" width="1.52" height="1.52" fill="#cc1d1d"/>
    <rect x="26.51" y="17.43" width="1.52" height="1.51" fill="#ef5454"/>
    <rect x="26.51" y="15.91" width="1.52" height="1.51" fill="#fff"/>
    <rect x="25" y="31.06" width="1.51" height="1.52" fill="#fff"/>
    <rect x="25" y="29.54" width="1.51" height="1.51" fill="#aa0707"/>
    <rect x="25" y="28.03" width="1.51" height="1.52" fill="#cc1d1d"/>
    <rect x="25" y="26.51" width="1.51" height="1.51" fill="#cc1d1d"/>
    <rect x="25" y="25" width="1.51" height="1.52" fill="#cc1d1d"/>
    <rect x="25" y="23.49" width="1.51" height="1.51" fill="#cc1d1d"/>
    <rect x="25" y="21.97" width="1.51" height="1.52" fill="#cc1d1d"/>
    <rect x="25" y="20.46" width="1.51" height="1.51" fill="#cc1d1d"/>
    <rect x="25" y="18.94" width="1.51" height="1.52" fill="#ef5454"/>
    <rect x="25" y="17.43" width="1.51" height="1.51" fill="#fff"/>
    <rect x="23.49" y="31.06" width="1.52" height="1.52" fill="#fff"/>
    <rect x="23.49" y="29.54" width="1.52" height="1.51" fill="#aa0707"/>
    <rect x="23.49" y="28.03" width="1.52" height="1.52" fill="#cc1d1d"/>
    <rect x="23.49" y="26.51" width="1.52" height="1.51" fill="#cc1d1d"/>
    <rect x="23.49" y="25" width="1.52" height="1.52" fill="#cc1d1d"/>
    <rect x="23.49" y="23.49" width="1.52" height="1.51" fill="#cc1d1d"/>
    <rect x="23.49" y="21.97" width="1.52" height="1.52" fill="#cc1d1d"/>
    <rect x="23.49" y="20.46" width="1.52" height="1.51" fill="#cc1d1d"/>
    <rect x="23.49" y="18.94" width="1.52" height="1.52" fill="#ef5454"/>
    <rect x="23.49" y="17.43" width="1.52" height="1.51" fill="#fff"/>
    <rect x="21.97" y="32.57" width="1.51" height="1.51" fill="#fff"/>
    <rect x="21.97" y="31.06" width="1.51" height="1.52" fill="#aa0707"/>
    <rect x="21.97" y="29.54" width="1.51" height="1.51" fill="#cc1d1d"/>
    <rect x="21.97" y="28.03" width="1.51" height="1.52" fill="#cc1d1d"/>
    <rect x="21.97" y="26.51" width="1.51" height="1.51" fill="#cc1d1d"/>
    <rect x="21.97" y="25" width="1.51" height="1.52" fill="#cc1d1d"/>
    <rect x="21.97" y="23.49" width="1.51" height="1.51" fill="#cc1d1d"/>
    <rect x="21.97" y="21.97" width="1.51" height="1.52" fill="#cc1d1d"/>
    <rect x="21.97" y="20.46" width="1.51" height="1.51" fill="#cc1d1d"/>
    <rect x="21.97" y="18.94" width="1.51" height="1.52" fill="#cc1d1d"/>
    <rect x="21.97" y="17.43" width="1.51" height="1.51" fill="#ef5454"/>
    <rect x="21.97" y="15.91" width="1.51" height="1.51" fill="#fff"/>
    <rect x="20.46" y="34.09" width="1.52" height="1.51" fill="#fff"/>
    <rect x="20.46" y="32.57" width="1.52" height="1.51" fill="#aa0707"/>
    <rect x="20.46" y="31.06" width="1.52" height="1.52" fill="#cc1d1d"/>
    <rect x="20.46" y="29.54" width="1.52" height="1.51" fill="#cc1d1d"/>
    <rect x="20.46" y="28.03" width="1.52" height="1.52" fill="#cc1d1d"/>
    <rect x="20.46" y="26.51" width="1.52" height="1.51" fill="#cc1d1d"/>
    <rect x="20.46" y="25" width="1.52" height="1.52" fill="#cc1d1d"/>
    <rect x="20.46" y="23.49" width="1.52" height="1.51" fill="#cc1d1d"/>
    <rect x="20.46" y="21.97" width="1.52" height="1.52" fill="#cc1d1d"/>
    <rect x="20.46" y="20.46" width="1.52" height="1.51" fill="#cc1d1d"/>
    <rect x="20.46" y="18.94" width="1.52" height="1.52" fill="#cc1d1d"/>
    <rect x="20.46" y="17.43" width="1.52" height="1.51" fill="#cc1d1d"/>
    <rect x="20.46" y="15.91" width="1.52" height="1.51" fill="#ef5454"/>
    <rect x="20.46" y="14.4" width="1.52" height="1.52" fill="#fff"/>
    <rect x="18.94" y="35.6" width="1.51" height="1.52" fill="#fff"/>
    <rect x="18.94" y="34.09" width="1.51" height="1.51" fill="#aa0707"/>
    <rect x="18.94" y="32.57" width="1.51" height="1.51" fill="#cc1d1d"/>
    <rect x="18.94" y="31.06" width="1.51" height="1.52" fill="#cc1d1d"/>
    <rect x="18.94" y="29.54" width="1.51" height="1.51" fill="#cc1d1d"/>
    <rect x="18.94" y="28.03" width="1.51" height="1.52" fill="#cc1d1d"/>
    <rect x="18.94" y="26.51" width="1.51" height="1.51" fill="#cc1d1d"/>
    <rect x="18.94" y="25" width="1.51" height="1.52" fill="#aa0707"/>
    <rect x="18.94" y="23.49" width="1.51" height="1.51" fill="#aa0707"/>
    <rect x="18.94" y="21.97" width="1.51" height="1.52" fill="#cc1d1d"/>
    <rect x="18.94" y="20.46" width="1.51" height="1.51" fill="#cc1d1d"/>
    <rect x="18.94" y="18.94" width="1.51" height="1.52" fill="#cc1d1d"/>
    <rect x="18.94" y="17.43" width="1.51" height="1.51" fill="#cc1d1d"/>
    <rect x="18.94" y="15.91" width="1.51" height="1.51" fill="#cc1d1d"/>
    <rect x="18.94" y="14.4" width="1.51" height="1.52" fill="#ef5454"/>
    <rect x="18.94" y="12.88" width="1.51" height="1.51" fill="#fff"/>
    <rect x="17.43" y="37.12" width="1.52" height="1.51" fill="#fff"/>
    <rect x="17.43" y="35.6" width="1.52" height="1.52" fill="#aa0707"/>
    <rect x="17.43" y="34.09" width="1.52" height="1.51" fill="#cc1d1d"/>
    <rect x="17.43" y="32.57" width="1.52" height="1.51" fill="#cc1d1d"/>
    <rect x="17.43" y="31.06" width="1.52" height="1.52" fill="#cc1d1d"/>
    <rect x="17.43" y="29.54" width="1.52" height="1.51" fill="#cc1d1d"/>
    <rect x="17.43" y="28.03" width="1.52" height="1.52" fill="#cc1d1d"/>
    <rect x="17.43" y="26.51" width="1.52" height="1.51" fill="#ef5454"/>
    <rect x="17.43" y="25" width="1.52" height="1.52" fill="#fff"/>
    <rect x="17.43" y="23.49" width="1.52" height="1.51" fill="#fff"/>
    <rect x="17.43" y="21.97" width="1.52" height="1.52" fill="#aa0707"/>
    <rect x="17.43" y="20.46" width="1.52" height="1.51" fill="#cc1d1d"/>
    <rect x="17.43" y="18.94" width="1.52" height="1.52" fill="#cc1d1d"/>
    <rect x="17.43" y="17.43" width="1.52" height="1.51" fill="#cc1d1d"/>
    <rect x="17.43" y="15.91" width="1.52" height="1.51" fill="#cc1d1d"/>
    <rect x="17.43" y="14.4" width="1.52" height="1.52" fill="#cc1d1d"/>
    <rect x="17.43" y="12.88" width="1.52" height="1.51" fill="#ef5454"/>
    <rect x="17.43" y="11.37" width="1.52" height="1.52" fill="#fff"/>
    <rect x="15.91" y="38.63" width="1.51" height="1.52" fill="#fff"/>
    <rect x="15.91" y="37.12" width="1.51" height="1.51" fill="#aa0707"/>
    <rect x="15.91" y="35.6" width="1.51" height="1.52" fill="#cc1d1d"/>
    <rect x="15.91" y="34.09" width="1.51" height="1.51" fill="#cc1d1d"/>
    <rect x="15.91" y="32.57" width="1.51" height="1.51" fill="#cc1d1d"/>
    <rect x="15.91" y="31.06" width="1.51" height="1.52" fill="#cc1d1d"/>
    <rect x="15.91" y="29.54" width="1.51" height="1.51" fill="#cc1d1d"/>
    <rect x="15.91" y="28.03" width="1.51" height="1.52" fill="#ef5454"/>
    <rect x="15.91" y="26.51" width="1.51" height="1.51" fill="#fff"/>
    <rect x="15.91" y="21.97" width="1.51" height="1.52" fill="#fff"/>
    <rect x="15.91" y="20.46" width="1.51" height="1.51" fill="#aa0707"/>
    <rect x="15.91" y="18.94" width="1.51" height="1.52" fill="#cc1d1d"/>
    <rect x="15.91" y="17.43" width="1.51" height="1.51" fill="#cc1d1d"/>
    <rect x="15.91" y="15.91" width="1.51" height="1.51" fill="#cc1d1d"/>
    <rect x="15.91" y="14.4" width="1.51" height="1.52" fill="#cc1d1d"/>
    <rect x="15.91" y="12.88" width="1.51" height="1.51" fill="#cc1d1d"/>
    <rect x="15.91" y="11.37" width="1.51" height="1.52" fill="#ef5454"/>
    <rect x="15.91" y="9.85" width="1.51" height="1.51" fill="#fff"/>
    <rect x="14.4" y="40.15" width="1.51" height="1.51" fill="#fff"/>
    <rect x="14.4" y="38.63" width="1.51" height="1.52" fill="#aa0707"/>
    <rect x="14.4" y="37.12" width="1.51" height="1.51" fill="#cc1d1d"/>
    <rect x="14.4" y="35.6" width="1.51" height="1.52" fill="#cc1d1d"/>
    <rect x="14.4" y="34.09" width="1.51" height="1.51" fill="#cc1d1d"/>
    <rect x="14.4" y="32.57" width="1.51" height="1.51" fill="#cc1d1d"/>
    <rect x="14.4" y="31.06" width="1.51" height="1.52" fill="#cc1d1d"/>
    <rect x="14.4" y="29.54" width="1.51" height="1.51" fill="#ef5454"/>
    <rect x="14.4" y="28.03" width="1.51" height="1.52" fill="#fff"/>
    <rect x="14.4" y="20.46" width="1.51" height="1.51" fill="#fff"/>
    <rect x="14.4" y="18.94" width="1.51" height="1.52" fill="#aa0707"/>
    <rect x="14.4" y="17.43" width="1.51" height="1.51" fill="#cc1d1d"/>
    <rect x="14.4" y="15.91" width="1.51" height="1.51" fill="#cc1d1d"/>
    <rect x="14.4" y="14.4" width="1.51" height="1.52" fill="#cc1d1d"/>
    <rect x="14.4" y="12.88" width="1.51" height="1.51" fill="#cc1d1d"/>
    <rect x="14.4" y="11.37" width="1.51" height="1.52" fill="#cc1d1d"/>
    <rect x="14.4" y="9.85" width="1.51" height="1.51" fill="#ef5454"/>
    <rect x="14.4" y="8.34" width="1.51" height="1.52" fill="#fff"/>
    <rect x="12.88" y="41.66" width="1.52" height="1.52" fill="#fff"/>
    <rect x="12.88" y="40.15" width="1.52" height="1.51" fill="#aa0707"/>
    <rect x="12.88" y="38.63" width="1.52" height="1.52" fill="#cc1d1d"/>
    <rect x="12.88" y="37.12" width="1.52" height="1.51" fill="#cc1d1d"/>
    <rect x="12.88" y="35.6" width="1.52" height="1.52" fill="#cc1d1d"/>
    <rect x="12.88" y="34.09" width="1.52" height="1.51" fill="#cc1d1d"/>
    <rect x="12.88" y="32.57" width="1.52" height="1.51" fill="#cc1d1d"/>
    <rect x="12.88" y="31.06" width="1.52" height="1.52" fill="#ef5454"/>
    <rect x="12.88" y="29.54" width="1.52" height="1.51" fill="#fff"/>
    <rect x="12.88" y="18.94" width="1.52" height="1.52" fill="#fff"/>
    <rect x="12.88" y="17.43" width="1.52" height="1.51" fill="#aa0707"/>
    <rect x="12.88" y="15.91" width="1.52" height="1.51" fill="#cc1d1d"/>
    <rect x="12.88" y="14.4" width="1.52" height="1.52" fill="#cc1d1d"/>
    <rect x="12.88" y="12.88" width="1.52" height="1.51" fill="#cc1d1d"/>
    <rect x="12.88" y="11.37" width="1.52" height="1.52" fill="#cc1d1d"/>
    <rect x="12.88" y="9.85" width="1.52" height="1.51" fill="#cc1d1d"/>
    <rect x="12.88" y="8.34" width="1.52" height="1.52" fill="#ef5454"/>
    <rect x="12.88" y="6.82" width="1.52" height="1.51" fill="#fff"/>
    <rect x="11.37" y="43.18" width="1.51" height="1.51" fill="#fff"/>
    <rect x="11.37" y="41.66" width="1.51" height="1.52" fill="#aa0707"/>
    <rect x="11.37" y="40.15" width="1.51" height="1.51" fill="#cc1d1d"/>
    <rect x="11.37" y="38.63" width="1.51" height="1.52" fill="#cc1d1d"/>
    <rect x="11.37" y="37.12" width="1.51" height="1.51" fill="#cc1d1d"/>
    <rect x="11.37" y="35.6" width="1.51" height="1.52" fill="#cc1d1d"/>
    <rect x="11.37" y="34.09" width="1.51" height="1.51" fill="#cc1d1d"/>
    <rect x="11.37" y="32.57" width="1.51" height="1.51" fill="#ef5454"/>
    <rect x="11.37" y="31.06" width="1.51" height="1.52" fill="#fff"/>
    <rect x="11.37" y="17.43" width="1.51" height="1.51" fill="#fff"/>
    <rect x="11.37" y="15.91" width="1.51" height="1.51" fill="#aa0707"/>
    <rect x="11.37" y="14.4" width="1.51" height="1.52" fill="#cc1d1d"/>
    <rect x="11.37" y="12.88" width="1.51" height="1.51" fill="#cc1d1d"/>
    <rect x="11.37" y="11.37" width="1.51" height="1.52" fill="#cc1d1d"/>
    <rect x="11.37" y="9.85" width="1.51" height="1.51" fill="#cc1d1d"/>
    <rect x="11.37" y="8.34" width="1.51" height="1.52" fill="#cc1d1d"/>
    <rect x="11.37" y="6.82" width="1.51" height="1.51" fill="#ef5454"/>
    <rect x="11.37" y="5.31" width="1.51" height="1.52" fill="#fff"/>
    <rect x="9.85" y="44.69" width="1.52" height="1.52" fill="#fff"/>
    <rect x="9.85" y="43.18" width="1.52" height="1.51" fill="#aa0707"/>
    <rect x="9.85" y="41.66" width="1.52" height="1.52" fill="#cc1d1d"/>
    <rect x="9.85" y="40.15" width="1.52" height="1.51" fill="#cc1d1d"/>
    <rect x="9.85" y="38.63" width="1.52" height="1.52" fill="#cc1d1d"/>
    <rect x="9.85" y="37.12" width="1.52" height="1.51" fill="#cc1d1d"/>
    <rect x="9.85" y="35.6" width="1.52" height="1.52" fill="#cc1d1d"/>
    <rect x="9.85" y="34.09" width="1.52" height="1.51" fill="#ef5454"/>
    <rect x="9.85" y="32.57" width="1.52" height="1.51" fill="#fff"/>
    <rect x="9.85" y="15.91" width="1.52" height="1.51" fill="#fff"/>
    <rect x="9.85" y="14.4" width="1.52" height="1.52" fill="#aa0707"/>
    <rect x="9.85" y="12.88" width="1.52" height="1.51" fill="#cc1d1d"/>
    <rect x="9.85" y="11.37" width="1.52" height="1.52" fill="#cc1d1d"/>
    <rect x="9.85" y="9.85" width="1.52" height="1.51" fill="#cc1d1d"/>
    <rect x="9.85" y="8.34" width="1.52" height="1.52" fill="#cc1d1d"/>
    <rect x="9.85" y="6.82" width="1.52" height="1.51" fill="#cc1d1d"/>
    <rect x="9.85" y="5.31" width="1.52" height="1.52" fill="#ef5454"/>
    <rect x="9.85" y="3.8" width="1.52" height="1.51" fill="#fff"/>
    <rect x="8.34" y="46.21" width="1.51" height="1.51" fill="#fff"/>
    <rect x="8.34" y="44.69" width="1.51" height="1.52" fill="#aa0707"/>
    <rect x="8.34" y="43.18" width="1.51" height="1.51" fill="#cc1d1d"/>
    <rect x="8.34" y="41.66" width="1.51" height="1.52" fill="#cc1d1d"/>
    <rect x="8.34" y="40.15" width="1.51" height="1.51" fill="#cc1d1d"/>
    <rect x="8.34" y="38.63" width="1.51" height="1.52" fill="#cc1d1d"/>
    <rect x="8.34" y="37.12" width="1.51" height="1.51" fill="#cc1d1d"/>
    <rect x="8.34" y="35.6" width="1.51" height="1.52" fill="#ef5454"/>
    <rect x="8.34" y="34.09" width="1.51" height="1.51" fill="#fff"/>
    <rect x="8.34" y="14.4" width="1.51" height="1.52" fill="#fff"/>
    <rect x="8.34" y="12.88" width="1.51" height="1.51" fill="#aa0707"/>
    <rect x="8.34" y="11.37" width="1.51" height="1.52" fill="#cc1d1d"/>
    <rect x="8.34" y="9.85" width="1.51" height="1.51" fill="#cc1d1d"/>
    <rect x="8.34" y="8.34" width="1.51" height="1.52" fill="#cc1d1d"/>
    <rect x="8.34" y="6.82" width="1.51" height="1.51" fill="#cc1d1d"/>
    <rect x="8.34" y="5.31" width="1.51" height="1.52" fill="#cc1d1d"/>
    <rect x="8.34" y="3.8" width="1.51" height="1.51" fill="#ef5454"/>
    <rect x="8.34" y="2.28" width="1.51" height="1.52" fill="#fff"/>
    <rect x="6.82" y="46.21" width="1.52" height="1.51" fill="#fff"/>
    <rect x="6.82" y="44.69" width="1.52" height="1.52" fill="#aa0707"/>
    <rect x="6.82" y="43.18" width="1.52" height="1.51" fill="#cc1d1d"/>
    <rect x="6.82" y="41.66" width="1.52" height="1.52" fill="#cc1d1d"/>
    <rect x="6.82" y="40.15" width="1.52" height="1.51" fill="#cc1d1d"/>
    <rect x="6.82" y="38.63" width="1.52" height="1.52" fill="#cc1d1d"/>
    <rect x="6.82" y="37.12" width="1.52" height="1.51" fill="#ef5454"/>
    <rect x="6.82" y="35.6" width="1.52" height="1.52" fill="#fff"/>
    <rect x="6.82" y="12.88" width="1.52" height="1.51" fill="#fff"/>
    <rect x="6.82" y="11.37" width="1.52" height="1.52" fill="#aa0707"/>
    <rect x="6.82" y="9.85" width="1.52" height="1.51" fill="#cc1d1d"/>
    <rect x="6.82" y="8.34" width="1.52" height="1.52" fill="#cc1d1d"/>
    <rect x="6.82" y="6.82" width="1.52" height="1.51" fill="#cc1d1d"/>
    <rect x="6.82" y="5.31" width="1.52" height="1.52" fill="#cc1d1d"/>
    <rect x="6.82" y="3.8" width="1.52" height="1.51" fill="#ef5454"/>
    <rect x="6.82" y="2.28" width="1.52" height="1.52" fill="#fff"/>
    <rect x="5.31" y="44.69" width="1.51" height="1.52" fill="#fff"/>
    <rect x="5.31" y="43.18" width="1.51" height="1.51" fill="#aa0707"/>
    <rect x="5.31" y="41.66" width="1.51" height="1.52" fill="#cc1d1d"/>
    <rect x="5.31" y="40.15" width="1.51" height="1.51" fill="#cc1d1d"/>
    <rect x="5.31" y="38.63" width="1.51" height="1.52" fill="#ef5454"/>
    <rect x="5.31" y="37.12" width="1.51" height="1.51" fill="#fff"/>
    <rect x="5.31" y="11.37" width="1.51" height="1.52" fill="#fff"/>
    <rect x="5.31" y="9.85" width="1.51" height="1.51" fill="#aa0707"/>
    <rect x="5.31" y="8.34" width="1.51" height="1.52" fill="#cc1d1d"/>
    <rect x="5.31" y="6.82" width="1.51" height="1.51" fill="#cc1d1d"/>
    <rect x="5.31" y="5.31" width="1.51" height="1.52" fill="#ef5454"/>
    <rect x="5.31" y="3.8" width="1.51" height="1.51" fill="#fff"/>
    <rect x="3.79" y="43.18" width="1.52" height="1.51" fill="#fff"/>
    <rect x="3.79" y="41.66" width="1.52" height="1.52" fill="#aa0707"/>
    <rect x="3.79" y="40.15" width="1.52" height="1.51" fill="#ef5454"/>
    <rect x="3.79" y="38.63" width="1.52" height="1.52" fill="#fff"/>
    <rect x="3.79" y="9.85" width="1.52" height="1.51" fill="#fff"/>
    <rect x="3.79" y="8.34" width="1.52" height="1.52" fill="#aa0707"/>
    <rect x="3.79" y="6.82" width="1.52" height="1.51" fill="#ef5454"/>
    <rect x="3.79" y="5.31" width="1.52" height="1.52" fill="#fff"/>
    <rect x="2.28" y="41.66" width="1.51" height="1.52" fill="#fff"/>
    <rect x="2.28" y="40.15" width="1.51" height="1.51" fill="#fff"/>
    <rect x="2.28" y="8.34" width="1.51" height="1.52" fill="#fff"/>
    <rect x="2.28" y="6.82" width="1.51" height="1.51" fill="#fff"/>
  </g>
</svg>
