<svg id="Capa_1" data-name="Capa 1" xmlns="http://www.w3.org/2000/svg" xmlns:xlink="http://www.w3.org/1999/xlink" width="50" height="50" viewBox="0 0 50 50">
  <defs>
    <clipPath id="clip-path">
      <polygon points="24.04 49.76 1.26 39.47 1.42 9.17 24.2 19.46 24.04 49.76" fill="none"/>
    </clipPath>
    <clipPath id="clip-path-2">
      <polygon points="24.2 19.46 1.42 9.17 25.96 0.24 48.75 10.53 24.2 19.46" fill="none"/>
    </clipPath>
    <clipPath id="clip-path-3">
      <polygon points="48.75 10.53 48.59 40.82 24.04 49.76 24.2 19.46 48.75 10.53" fill="none"/>
    </clipPath>
  </defs>
  <g id="Figment_lido">
    <g style="isolation: isolate">
      <g>
        <polygon points="24.04 49.76 1.26 39.47 1.42 9.17 24.2 19.46 24.04 49.76" fill="#c7c5c1"/>
        <g style="isolation: isolate">
          <g clip-path="url(#clip-path)">
            <g>
              <path d="M15.71,32.45q-1.48,1.36-3,2.76l-3-5.37L8,31.44q2.36,4.25,4.72,8.48l4.69-4.36c-.58-1-1.16-2.07-1.74-3.11" fill="#f3ba2f"/>
              <path d="M12.71,19,8,23.36c.57,1,1.15,2.08,1.73,3.12l3-2.76,3,5.36,1.72-1.6L12.71,19" fill="#f3ba2f"/>
              <path d="M12.73,27.08,11,28.7l1.75,3.15,1.74-1.62-1.75-3.15" fill="#f3ba2f"/>
              <path d="M6.77,24.52,5.06,26.11l1.73,3.1L8.5,27.62c-.57-1-1.15-2.07-1.73-3.1" fill="#f3ba2f"/>
              <path d="M18.67,29.73,17,31.31l1.72,3.1,1.72-1.59-1.73-3.09" fill="#f3ba2f"/>
            </g>
          </g>
        </g>
      </g>
      <g>
        <polygon points="24.2 19.46 1.42 9.17 25.96 0.24 48.75 10.53 24.2 19.46" fill="#dad8d4"/>
        <g style="isolation: isolate">
          <g clip-path="url(#clip-path-2)">
            <g>
              <path d="M29.59,9.21l-.3,2.54L23,11.6c-.05.5-.1,1-.16,1.47l9.89.24.48-4-3.64-.09" fill="#f3ba2f"/>
              <path d="M17.42,6.39l-.48,4,3.63.09.31-2.55,6.25.15c.06-.49.13-1,.18-1.47l-9.89-.23" fill="#f3ba2f"/>
              <path d="M23.34,9.06c-.06.5-.13,1-.18,1.49l3.67.08L27,9.15l-3.67-.09" fill="#f3ba2f"/>
              <path d="M16.81,11.46l-.17,1.47,3.61.08c.05-.49.12-1,.18-1.46l-3.62-.09" fill="#f3ba2f"/>
              <path d="M29.92,6.69l-.18,1.46,3.61.09.18-1.46-3.61-.09" fill="#f3ba2f"/>
            </g>
          </g>
        </g>
      </g>
      <g>
        <polygon points="48.75 10.53 48.59 40.82 24.04 49.76 24.2 19.46 48.75 10.53" fill="#dfddd8"/>
        <g style="isolation: isolate">
          <g clip-path="url(#clip-path-3)">
            <g>
              <path d="M39.67,30.62l-3.31,5.25L33.1,33l-1.91,3,5.15,4.52,5.22-8.29c-.63-.54-1.26-1.1-1.89-1.66" fill="#f3ba2f"/>
              <path d="M36.45,19.71C34.72,22.47,33,25.24,31.23,28l1.9,1.66,3.3-5.25,3.26,2.85c.64-1,1.28-2,1.91-3l-5.15-4.52" fill="#f3ba2f"/>
              <path d="M36.41,27.77l-1.93,3.06c.63.57,1.28,1.12,1.91,1.68.64-1,1.29-2,1.93-3.07l-1.91-1.67" fill="#f3ba2f"/>
              <path d="M29.85,30.19l-1.9,3,1.88,1.64,1.91-3-1.89-1.65" fill="#f3ba2f"/>
              <path d="M43,25.42l-1.9,3,1.88,1.65,1.9-3L43,25.42" fill="#f3ba2f"/>
            </g>
          </g>
        </g>
      </g>
    </g>
  </g>
  <g>
    <rect x="46.2" y="41.66" width="1.52" height="1.51" fill="#fff"/>
    <rect x="46.2" y="40.15" width="1.52" height="1.52" fill="#fff"/>
    <rect x="46.2" y="8.34" width="1.52" height="1.51" fill="#fff"/>
    <rect x="46.2" y="6.82" width="1.52" height="1.52" fill="#fff"/>
    <rect x="44.69" y="43.18" width="1.51" height="1.52" fill="#fff"/>
    <rect x="44.69" y="41.66" width="1.51" height="1.51" fill="#ef5454"/>
    <rect x="44.69" y="40.15" width="1.51" height="1.52" fill="#ef5454"/>
    <rect x="44.69" y="38.63" width="1.51" height="1.51" fill="#fff"/>
    <rect x="44.69" y="9.85" width="1.51" height="1.52" fill="#fff"/>
    <rect x="44.69" y="8.34" width="1.51" height="1.51" fill="#aa0707"/>
    <rect x="44.69" y="6.82" width="1.51" height="1.52" fill="#ef5454"/>
    <rect x="44.69" y="5.31" width="1.51" height="1.51" fill="#fff"/>
    <rect x="43.18" y="44.69" width="1.52" height="1.51" fill="#fff"/>
    <rect x="43.18" y="43.18" width="1.52" height="1.52" fill="#aa0707"/>
    <rect x="43.18" y="41.66" width="1.52" height="1.51" fill="#cc1d1d"/>
    <rect x="43.18" y="40.15" width="1.52" height="1.52" fill="#cc1d1d"/>
    <rect x="43.18" y="38.63" width="1.52" height="1.51" fill="#ef5454"/>
    <rect x="43.18" y="37.12" width="1.52" height="1.52" fill="#fff"/>
    <rect x="43.18" y="11.37" width="1.52" height="1.51" fill="#fff"/>
    <rect x="43.18" y="9.85" width="1.52" height="1.52" fill="#aa0707"/>
    <rect x="43.18" y="8.34" width="1.52" height="1.51" fill="#cc1d1d"/>
    <rect x="43.18" y="6.82" width="1.52" height="1.52" fill="#cc1d1d"/>
    <rect x="43.18" y="5.31" width="1.52" height="1.51" fill="#ef5454"/>
    <rect x="43.18" y="3.79" width="1.52" height="1.52" fill="#fff"/>
    <rect x="41.66" y="46.2" width="1.51" height="1.52" fill="#fff"/>
    <rect x="41.66" y="44.69" width="1.51" height="1.51" fill="#aa0707"/>
    <rect x="41.66" y="43.18" width="1.51" height="1.52" fill="#cc1d1d"/>
    <rect x="41.66" y="41.66" width="1.51" height="1.51" fill="#cc1d1d"/>
    <rect x="41.66" y="40.15" width="1.51" height="1.52" fill="#cc1d1d"/>
    <rect x="41.66" y="38.63" width="1.51" height="1.51" fill="#cc1d1d"/>
    <rect x="41.66" y="37.12" width="1.51" height="1.52" fill="#ef5454"/>
    <rect x="41.66" y="35.6" width="1.51" height="1.51" fill="#fff"/>
    <rect x="41.66" y="12.88" width="1.51" height="1.52" fill="#fff"/>
    <rect x="41.66" y="11.37" width="1.51" height="1.51" fill="#aa0707"/>
    <rect x="41.66" y="9.85" width="1.51" height="1.52" fill="#cc1d1d"/>
    <rect x="41.66" y="8.34" width="1.51" height="1.51" fill="#cc1d1d"/>
    <rect x="41.66" y="6.82" width="1.51" height="1.52" fill="#cc1d1d"/>
    <rect x="41.66" y="5.31" width="1.51" height="1.51" fill="#cc1d1d"/>
    <rect x="41.66" y="3.79" width="1.51" height="1.52" fill="#ef5454"/>
    <rect x="41.66" y="2.28" width="1.51" height="1.51" fill="#fff"/>
    <rect x="40.15" y="46.2" width="1.52" height="1.52" fill="#fff"/>
    <rect x="40.15" y="44.69" width="1.52" height="1.51" fill="#aa0707"/>
    <rect x="40.15" y="43.18" width="1.52" height="1.52" fill="#cc1d1d"/>
    <rect x="40.15" y="41.66" width="1.52" height="1.51" fill="#cc1d1d"/>
    <rect x="40.15" y="40.15" width="1.52" height="1.52" fill="#cc1d1d"/>
    <rect x="40.15" y="38.63" width="1.52" height="1.51" fill="#cc1d1d"/>
    <rect x="40.15" y="37.12" width="1.52" height="1.52" fill="#cc1d1d"/>
    <rect x="40.15" y="35.6" width="1.52" height="1.51" fill="#ef5454"/>
    <rect x="40.15" y="34.09" width="1.52" height="1.51" fill="#fff"/>
    <rect x="40.15" y="14.4" width="1.52" height="1.51" fill="#fff"/>
    <rect x="40.15" y="12.88" width="1.52" height="1.52" fill="#aa0707"/>
    <rect x="40.15" y="11.37" width="1.52" height="1.51" fill="#cc1d1d"/>
    <rect x="40.15" y="9.85" width="1.52" height="1.52" fill="#cc1d1d"/>
    <rect x="40.15" y="8.34" width="1.52" height="1.51" fill="#cc1d1d"/>
    <rect x="40.15" y="6.82" width="1.52" height="1.52" fill="#cc1d1d"/>
    <rect x="40.15" y="5.31" width="1.52" height="1.51" fill="#cc1d1d"/>
    <rect x="40.15" y="3.79" width="1.52" height="1.52" fill="#ef5454"/>
    <rect x="40.15" y="2.28" width="1.52" height="1.51" fill="#fff"/>
    <rect x="38.63" y="44.69" width="1.51" height="1.51" fill="#fff"/>
    <rect x="38.63" y="43.18" width="1.51" height="1.52" fill="#aa0707"/>
    <rect x="38.63" y="41.66" width="1.51" height="1.51" fill="#cc1d1d"/>
    <rect x="38.63" y="40.15" width="1.51" height="1.52" fill="#cc1d1d"/>
    <rect x="38.63" y="38.63" width="1.51" height="1.51" fill="#cc1d1d"/>
    <rect x="38.63" y="37.12" width="1.51" height="1.52" fill="#cc1d1d"/>
    <rect x="38.63" y="35.6" width="1.51" height="1.51" fill="#cc1d1d"/>
    <rect x="38.63" y="34.09" width="1.51" height="1.51" fill="#ef5454"/>
    <rect x="38.63" y="32.57" width="1.51" height="1.52" fill="#fff"/>
    <rect x="38.63" y="15.91" width="1.51" height="1.51" fill="#fff"/>
    <rect x="38.63" y="14.4" width="1.51" height="1.51" fill="#aa0707"/>
    <rect x="38.63" y="12.88" width="1.51" height="1.52" fill="#cc1d1d"/>
    <rect x="38.63" y="11.37" width="1.51" height="1.51" fill="#cc1d1d"/>
    <rect x="38.63" y="9.85" width="1.51" height="1.52" fill="#cc1d1d"/>
    <rect x="38.63" y="8.34" width="1.51" height="1.51" fill="#cc1d1d"/>
    <rect x="38.63" y="6.82" width="1.51" height="1.52" fill="#cc1d1d"/>
    <rect x="38.63" y="5.31" width="1.51" height="1.51" fill="#ef5454"/>
    <rect x="38.63" y="3.79" width="1.51" height="1.52" fill="#fff"/>
    <rect x="37.12" y="43.18" width="1.52" height="1.52" fill="#fff"/>
    <rect x="37.12" y="41.66" width="1.52" height="1.51" fill="#aa0707"/>
    <rect x="37.12" y="40.15" width="1.52" height="1.52" fill="#cc1d1d"/>
    <rect x="37.12" y="38.63" width="1.52" height="1.51" fill="#cc1d1d"/>
    <rect x="37.12" y="37.12" width="1.52" height="1.52" fill="#cc1d1d"/>
    <rect x="37.12" y="35.6" width="1.52" height="1.51" fill="#cc1d1d"/>
    <rect x="37.12" y="34.09" width="1.52" height="1.51" fill="#cc1d1d"/>
    <rect x="37.12" y="32.57" width="1.52" height="1.52" fill="#ef5454"/>
    <rect x="37.12" y="31.06" width="1.52" height="1.51" fill="#fff"/>
    <rect x="37.12" y="17.43" width="1.52" height="1.52" fill="#fff"/>
    <rect x="37.12" y="15.91" width="1.52" height="1.51" fill="#aa0707"/>
    <rect x="37.12" y="14.4" width="1.52" height="1.51" fill="#cc1d1d"/>
    <rect x="37.12" y="12.88" width="1.52" height="1.52" fill="#cc1d1d"/>
    <rect x="37.12" y="11.37" width="1.52" height="1.51" fill="#cc1d1d"/>
    <rect x="37.12" y="9.85" width="1.52" height="1.52" fill="#cc1d1d"/>
    <rect x="37.12" y="8.34" width="1.52" height="1.51" fill="#cc1d1d"/>
    <rect x="37.12" y="6.82" width="1.52" height="1.52" fill="#ef5454"/>
    <rect x="37.12" y="5.31" width="1.52" height="1.51" fill="#fff"/>
    <rect x="35.6" y="41.66" width="1.51" height="1.51" fill="#fff"/>
    <rect x="35.6" y="40.15" width="1.51" height="1.52" fill="#aa0707"/>
    <rect x="35.6" y="38.63" width="1.51" height="1.51" fill="#cc1d1d"/>
    <rect x="35.6" y="37.12" width="1.51" height="1.52" fill="#cc1d1d"/>
    <rect x="35.6" y="35.6" width="1.51" height="1.51" fill="#cc1d1d"/>
    <rect x="35.6" y="34.09" width="1.51" height="1.51" fill="#cc1d1d"/>
    <rect x="35.6" y="32.57" width="1.51" height="1.52" fill="#cc1d1d"/>
    <rect x="35.6" y="31.06" width="1.51" height="1.51" fill="#ef5454"/>
    <rect x="35.6" y="29.54" width="1.51" height="1.52" fill="#fff"/>
    <rect x="35.6" y="18.94" width="1.51" height="1.51" fill="#fff"/>
    <rect x="35.6" y="17.43" width="1.51" height="1.52" fill="#aa0707"/>
    <rect x="35.6" y="15.91" width="1.51" height="1.51" fill="#cc1d1d"/>
    <rect x="35.6" y="14.4" width="1.51" height="1.51" fill="#cc1d1d"/>
    <rect x="35.6" y="12.88" width="1.51" height="1.52" fill="#cc1d1d"/>
    <rect x="35.6" y="11.37" width="1.51" height="1.51" fill="#cc1d1d"/>
    <rect x="35.6" y="9.85" width="1.51" height="1.52" fill="#cc1d1d"/>
    <rect x="35.6" y="8.34" width="1.51" height="1.51" fill="#ef5454"/>
    <rect x="35.6" y="6.82" width="1.51" height="1.52" fill="#fff"/>
    <rect x="34.09" y="40.15" width="1.51" height="1.52" fill="#fff"/>
    <rect x="34.09" y="38.63" width="1.51" height="1.51" fill="#aa0707"/>
    <rect x="34.09" y="37.12" width="1.51" height="1.52" fill="#cc1d1d"/>
    <rect x="34.09" y="35.6" width="1.51" height="1.51" fill="#cc1d1d"/>
    <rect x="34.09" y="34.09" width="1.51" height="1.51" fill="#cc1d1d"/>
    <rect x="34.09" y="32.57" width="1.51" height="1.52" fill="#cc1d1d"/>
    <rect x="34.09" y="31.06" width="1.51" height="1.51" fill="#cc1d1d"/>
    <rect x="34.09" y="29.54" width="1.51" height="1.52" fill="#ef5454"/>
    <rect x="34.09" y="28.03" width="1.51" height="1.51" fill="#fff"/>
    <rect x="34.09" y="20.46" width="1.51" height="1.52" fill="#fff"/>
    <rect x="34.09" y="18.94" width="1.51" height="1.51" fill="#aa0707"/>
    <rect x="34.09" y="17.43" width="1.51" height="1.52" fill="#cc1d1d"/>
    <rect x="34.09" y="15.91" width="1.51" height="1.51" fill="#cc1d1d"/>
    <rect x="34.09" y="14.4" width="1.51" height="1.51" fill="#cc1d1d"/>
    <rect x="34.09" y="12.88" width="1.51" height="1.52" fill="#cc1d1d"/>
    <rect x="34.09" y="11.37" width="1.51" height="1.51" fill="#cc1d1d"/>
    <rect x="34.09" y="9.85" width="1.51" height="1.52" fill="#ef5454"/>
    <rect x="34.09" y="8.34" width="1.51" height="1.51" fill="#fff"/>
    <rect x="32.57" y="38.63" width="1.52" height="1.51" fill="#fff"/>
    <rect x="32.57" y="37.12" width="1.52" height="1.52" fill="#aa0707"/>
    <rect x="32.57" y="35.6" width="1.52" height="1.51" fill="#cc1d1d"/>
    <rect x="32.57" y="34.09" width="1.52" height="1.51" fill="#cc1d1d"/>
    <rect x="32.57" y="32.57" width="1.52" height="1.52" fill="#cc1d1d"/>
    <rect x="32.57" y="31.06" width="1.52" height="1.51" fill="#cc1d1d"/>
    <rect x="32.57" y="29.54" width="1.52" height="1.52" fill="#cc1d1d"/>
    <rect x="32.57" y="28.03" width="1.52" height="1.51" fill="#ef5454"/>
    <rect x="32.57" y="26.51" width="1.52" height="1.52" fill="#fff"/>
    <rect x="32.57" y="21.97" width="1.52" height="1.51" fill="#fff"/>
    <rect x="32.57" y="20.46" width="1.52" height="1.52" fill="#aa0707"/>
    <rect x="32.57" y="18.94" width="1.52" height="1.51" fill="#cc1d1d"/>
    <rect x="32.57" y="17.43" width="1.52" height="1.52" fill="#cc1d1d"/>
    <rect x="32.57" y="15.91" width="1.52" height="1.51" fill="#cc1d1d"/>
    <rect x="32.57" y="14.4" width="1.52" height="1.51" fill="#cc1d1d"/>
    <rect x="32.57" y="12.88" width="1.52" height="1.52" fill="#cc1d1d"/>
    <rect x="32.57" y="11.37" width="1.52" height="1.51" fill="#ef5454"/>
    <rect x="32.57" y="9.85" width="1.52" height="1.52" fill="#fff"/>
    <rect x="31.06" y="37.12" width="1.51" height="1.52" fill="#fff"/>
    <rect x="31.06" y="35.6" width="1.51" height="1.51" fill="#aa0707"/>
    <rect x="31.06" y="34.09" width="1.51" height="1.51" fill="#cc1d1d"/>
    <rect x="31.06" y="32.57" width="1.51" height="1.52" fill="#cc1d1d"/>
    <rect x="31.06" y="31.06" width="1.51" height="1.51" fill="#cc1d1d"/>
    <rect x="31.06" y="29.54" width="1.51" height="1.52" fill="#cc1d1d"/>
    <rect x="31.06" y="28.03" width="1.51" height="1.51" fill="#cc1d1d"/>
    <rect x="31.06" y="26.51" width="1.51" height="1.52" fill="#ef5454"/>
    <rect x="31.06" y="25" width="1.51" height="1.51" fill="#fff"/>
    <rect x="31.06" y="23.49" width="1.51" height="1.52" fill="#fff"/>
    <rect x="31.06" y="21.97" width="1.51" height="1.51" fill="#aa0707"/>
    <rect x="31.06" y="20.46" width="1.51" height="1.52" fill="#cc1d1d"/>
    <rect x="31.06" y="18.94" width="1.51" height="1.51" fill="#cc1d1d"/>
    <rect x="31.06" y="17.43" width="1.51" height="1.52" fill="#cc1d1d"/>
    <rect x="31.06" y="15.91" width="1.51" height="1.51" fill="#cc1d1d"/>
    <rect x="31.06" y="14.4" width="1.51" height="1.51" fill="#cc1d1d"/>
    <rect x="31.06" y="12.88" width="1.51" height="1.52" fill="#ef5454"/>
    <rect x="31.06" y="11.37" width="1.51" height="1.51" fill="#fff"/>
    <rect x="29.54" y="35.6" width="1.52" height="1.51" fill="#fff"/>
    <rect x="29.54" y="34.09" width="1.52" height="1.51" fill="#aa0707"/>
    <rect x="29.54" y="32.57" width="1.52" height="1.52" fill="#cc1d1d"/>
    <rect x="29.54" y="31.06" width="1.52" height="1.51" fill="#cc1d1d"/>
    <rect x="29.54" y="29.54" width="1.52" height="1.52" fill="#cc1d1d"/>
    <rect x="29.54" y="28.03" width="1.52" height="1.51" fill="#cc1d1d"/>
    <rect x="29.54" y="26.51" width="1.52" height="1.52" fill="#cc1d1d"/>
    <rect x="29.54" y="25" width="1.52" height="1.51" fill="#aa0707"/>
    <rect x="29.54" y="23.49" width="1.52" height="1.52" fill="#aa0707"/>
    <rect x="29.54" y="21.97" width="1.52" height="1.51" fill="#cc1d1d"/>
    <rect x="29.54" y="20.46" width="1.52" height="1.52" fill="#cc1d1d"/>
    <rect x="29.54" y="18.94" width="1.52" height="1.51" fill="#cc1d1d"/>
    <rect x="29.54" y="17.43" width="1.52" height="1.52" fill="#cc1d1d"/>
    <rect x="29.54" y="15.91" width="1.52" height="1.51" fill="#cc1d1d"/>
    <rect x="29.54" y="14.4" width="1.52" height="1.51" fill="#ef5454"/>
    <rect x="29.54" y="12.88" width="1.52" height="1.52" fill="#fff"/>
    <rect x="28.03" y="34.09" width="1.51" height="1.51" fill="#fff"/>
    <rect x="28.03" y="32.57" width="1.51" height="1.52" fill="#aa0707"/>
    <rect x="28.03" y="31.06" width="1.51" height="1.51" fill="#cc1d1d"/>
    <rect x="28.03" y="29.54" width="1.51" height="1.52" fill="#cc1d1d"/>
    <rect x="28.03" y="28.03" width="1.51" height="1.51" fill="#cc1d1d"/>
    <rect x="28.03" y="26.51" width="1.51" height="1.52" fill="#cc1d1d"/>
    <rect x="28.03" y="25" width="1.51" height="1.51" fill="#cc1d1d"/>
    <rect x="28.03" y="23.49" width="1.51" height="1.52" fill="#cc1d1d"/>
    <rect x="28.03" y="21.97" width="1.51" height="1.51" fill="#cc1d1d"/>
    <rect x="28.03" y="20.46" width="1.51" height="1.52" fill="#cc1d1d"/>
    <rect x="28.03" y="18.94" width="1.51" height="1.51" fill="#cc1d1d"/>
    <rect x="28.03" y="17.43" width="1.51" height="1.52" fill="#cc1d1d"/>
    <rect x="28.03" y="15.91" width="1.51" height="1.51" fill="#ef5454"/>
    <rect x="28.03" y="14.4" width="1.51" height="1.51" fill="#fff"/>
    <rect x="26.51" y="32.57" width="1.52" height="1.52" fill="#fff"/>
    <rect x="26.51" y="31.06" width="1.52" height="1.51" fill="#aa0707"/>
    <rect x="26.51" y="29.54" width="1.52" height="1.52" fill="#cc1d1d"/>
    <rect x="26.51" y="28.03" width="1.52" height="1.51" fill="#cc1d1d"/>
    <rect x="26.51" y="26.51" width="1.52" height="1.52" fill="#cc1d1d"/>
    <rect x="26.51" y="25" width="1.52" height="1.51" fill="#cc1d1d"/>
    <rect x="26.51" y="23.49" width="1.52" height="1.52" fill="#cc1d1d"/>
    <rect x="26.51" y="21.97" width="1.52" height="1.51" fill="#cc1d1d"/>
    <rect x="26.51" y="20.46" width="1.52" height="1.52" fill="#cc1d1d"/>
    <rect x="26.51" y="18.94" width="1.52" height="1.51" fill="#cc1d1d"/>
    <rect x="26.51" y="17.43" width="1.52" height="1.52" fill="#ef5454"/>
    <rect x="26.51" y="15.91" width="1.52" height="1.51" fill="#fff"/>
    <rect x="25" y="31.06" width="1.51" height="1.51" fill="#fff"/>
    <rect x="25" y="29.54" width="1.51" height="1.52" fill="#aa0707"/>
    <rect x="25" y="28.03" width="1.51" height="1.51" fill="#cc1d1d"/>
    <rect x="25" y="26.51" width="1.51" height="1.52" fill="#cc1d1d"/>
    <rect x="25" y="25" width="1.51" height="1.51" fill="#cc1d1d"/>
    <rect x="25" y="23.49" width="1.51" height="1.52" fill="#cc1d1d"/>
    <rect x="25" y="21.97" width="1.51" height="1.51" fill="#cc1d1d"/>
    <rect x="25" y="20.46" width="1.51" height="1.52" fill="#cc1d1d"/>
    <rect x="25" y="18.94" width="1.51" height="1.51" fill="#ef5454"/>
    <rect x="25" y="17.43" width="1.51" height="1.52" fill="#fff"/>
    <rect x="23.49" y="31.06" width="1.52" height="1.51" fill="#fff"/>
    <rect x="23.49" y="29.54" width="1.52" height="1.52" fill="#aa0707"/>
    <rect x="23.49" y="28.03" width="1.52" height="1.51" fill="#cc1d1d"/>
    <rect x="23.49" y="26.51" width="1.52" height="1.52" fill="#cc1d1d"/>
    <rect x="23.49" y="25" width="1.52" height="1.51" fill="#cc1d1d"/>
    <rect x="23.49" y="23.49" width="1.52" height="1.52" fill="#cc1d1d"/>
    <rect x="23.49" y="21.97" width="1.52" height="1.51" fill="#cc1d1d"/>
    <rect x="23.49" y="20.46" width="1.52" height="1.52" fill="#cc1d1d"/>
    <rect x="23.49" y="18.94" width="1.52" height="1.51" fill="#ef5454"/>
    <rect x="23.49" y="17.43" width="1.52" height="1.52" fill="#fff"/>
    <rect x="21.97" y="32.57" width="1.51" height="1.52" fill="#fff"/>
    <rect x="21.97" y="31.06" width="1.51" height="1.51" fill="#aa0707"/>
    <rect x="21.97" y="29.54" width="1.51" height="1.52" fill="#cc1d1d"/>
    <rect x="21.97" y="28.03" width="1.51" height="1.51" fill="#cc1d1d"/>
    <rect x="21.97" y="26.51" width="1.51" height="1.52" fill="#cc1d1d"/>
    <rect x="21.97" y="25" width="1.51" height="1.51" fill="#cc1d1d"/>
    <rect x="21.97" y="23.49" width="1.51" height="1.52" fill="#cc1d1d"/>
    <rect x="21.97" y="21.97" width="1.51" height="1.51" fill="#cc1d1d"/>
    <rect x="21.97" y="20.46" width="1.51" height="1.52" fill="#cc1d1d"/>
    <rect x="21.97" y="18.94" width="1.51" height="1.51" fill="#cc1d1d"/>
    <rect x="21.97" y="17.43" width="1.51" height="1.52" fill="#ef5454"/>
    <rect x="21.97" y="15.91" width="1.51" height="1.51" fill="#fff"/>
    <rect x="20.46" y="34.09" width="1.52" height="1.51" fill="#fff"/>
    <rect x="20.46" y="32.57" width="1.52" height="1.52" fill="#aa0707"/>
    <rect x="20.46" y="31.06" width="1.52" height="1.51" fill="#cc1d1d"/>
    <rect x="20.46" y="29.54" width="1.52" height="1.52" fill="#cc1d1d"/>
    <rect x="20.46" y="28.03" width="1.52" height="1.51" fill="#cc1d1d"/>
    <rect x="20.46" y="26.51" width="1.52" height="1.52" fill="#cc1d1d"/>
    <rect x="20.46" y="25" width="1.52" height="1.51" fill="#cc1d1d"/>
    <rect x="20.46" y="23.49" width="1.52" height="1.52" fill="#cc1d1d"/>
    <rect x="20.46" y="21.97" width="1.52" height="1.51" fill="#cc1d1d"/>
    <rect x="20.46" y="20.46" width="1.52" height="1.52" fill="#cc1d1d"/>
    <rect x="20.46" y="18.94" width="1.52" height="1.51" fill="#cc1d1d"/>
    <rect x="20.46" y="17.43" width="1.52" height="1.52" fill="#cc1d1d"/>
    <rect x="20.46" y="15.91" width="1.52" height="1.51" fill="#ef5454"/>
    <rect x="20.46" y="14.4" width="1.52" height="1.51" fill="#fff"/>
    <rect x="18.94" y="35.6" width="1.51" height="1.51" fill="#fff"/>
    <rect x="18.94" y="34.09" width="1.51" height="1.51" fill="#aa0707"/>
    <rect x="18.94" y="32.57" width="1.51" height="1.52" fill="#cc1d1d"/>
    <rect x="18.94" y="31.06" width="1.51" height="1.51" fill="#cc1d1d"/>
    <rect x="18.94" y="29.54" width="1.51" height="1.52" fill="#cc1d1d"/>
    <rect x="18.94" y="28.03" width="1.51" height="1.51" fill="#cc1d1d"/>
    <rect x="18.94" y="26.51" width="1.51" height="1.52" fill="#cc1d1d"/>
    <rect x="18.94" y="25" width="1.51" height="1.51" fill="#aa0707"/>
    <rect x="18.94" y="23.49" width="1.51" height="1.52" fill="#aa0707"/>
    <rect x="18.94" y="21.97" width="1.51" height="1.51" fill="#cc1d1d"/>
    <rect x="18.94" y="20.46" width="1.51" height="1.52" fill="#cc1d1d"/>
    <rect x="18.94" y="18.94" width="1.51" height="1.51" fill="#cc1d1d"/>
    <rect x="18.94" y="17.43" width="1.51" height="1.52" fill="#cc1d1d"/>
    <rect x="18.94" y="15.91" width="1.51" height="1.51" fill="#cc1d1d"/>
    <rect x="18.94" y="14.4" width="1.51" height="1.51" fill="#ef5454"/>
    <rect x="18.94" y="12.88" width="1.51" height="1.52" fill="#fff"/>
    <rect x="17.43" y="37.12" width="1.52" height="1.52" fill="#fff"/>
    <rect x="17.43" y="35.6" width="1.52" height="1.51" fill="#aa0707"/>
    <rect x="17.43" y="34.09" width="1.52" height="1.51" fill="#cc1d1d"/>
    <rect x="17.43" y="32.57" width="1.52" height="1.52" fill="#cc1d1d"/>
    <rect x="17.43" y="31.06" width="1.52" height="1.51" fill="#cc1d1d"/>
    <rect x="17.43" y="29.54" width="1.52" height="1.52" fill="#cc1d1d"/>
    <rect x="17.43" y="28.03" width="1.52" height="1.51" fill="#cc1d1d"/>
    <rect x="17.43" y="26.51" width="1.52" height="1.52" fill="#ef5454"/>
    <rect x="17.43" y="25" width="1.52" height="1.51" fill="#fff"/>
    <rect x="17.43" y="23.49" width="1.52" height="1.52" fill="#fff"/>
    <rect x="17.43" y="21.97" width="1.52" height="1.51" fill="#aa0707"/>
    <rect x="17.43" y="20.46" width="1.52" height="1.52" fill="#cc1d1d"/>
    <rect x="17.43" y="18.94" width="1.52" height="1.51" fill="#cc1d1d"/>
    <rect x="17.43" y="17.43" width="1.52" height="1.52" fill="#cc1d1d"/>
    <rect x="17.43" y="15.91" width="1.52" height="1.51" fill="#cc1d1d"/>
    <rect x="17.43" y="14.4" width="1.52" height="1.51" fill="#cc1d1d"/>
    <rect x="17.43" y="12.88" width="1.52" height="1.52" fill="#ef5454"/>
    <rect x="17.43" y="11.37" width="1.52" height="1.51" fill="#fff"/>
    <rect x="15.91" y="38.63" width="1.51" height="1.51" fill="#fff"/>
    <rect x="15.91" y="37.12" width="1.51" height="1.52" fill="#aa0707"/>
    <rect x="15.91" y="35.6" width="1.51" height="1.51" fill="#cc1d1d"/>
    <rect x="15.91" y="34.09" width="1.51" height="1.51" fill="#cc1d1d"/>
    <rect x="15.91" y="32.57" width="1.51" height="1.52" fill="#cc1d1d"/>
    <rect x="15.91" y="31.06" width="1.51" height="1.51" fill="#cc1d1d"/>
    <rect x="15.91" y="29.54" width="1.51" height="1.52" fill="#cc1d1d"/>
    <rect x="15.91" y="28.03" width="1.51" height="1.51" fill="#ef5454"/>
    <rect x="15.91" y="26.51" width="1.51" height="1.52" fill="#fff"/>
    <rect x="15.91" y="21.97" width="1.51" height="1.51" fill="#fff"/>
    <rect x="15.91" y="20.46" width="1.51" height="1.52" fill="#aa0707"/>
    <rect x="15.91" y="18.94" width="1.51" height="1.51" fill="#cc1d1d"/>
    <rect x="15.91" y="17.43" width="1.51" height="1.52" fill="#cc1d1d"/>
    <rect x="15.91" y="15.91" width="1.51" height="1.51" fill="#cc1d1d"/>
    <rect x="15.91" y="14.4" width="1.51" height="1.51" fill="#cc1d1d"/>
    <rect x="15.91" y="12.88" width="1.51" height="1.52" fill="#cc1d1d"/>
    <rect x="15.91" y="11.37" width="1.51" height="1.51" fill="#ef5454"/>
    <rect x="15.91" y="9.85" width="1.51" height="1.52" fill="#fff"/>
    <rect x="14.4" y="40.15" width="1.51" height="1.52" fill="#fff"/>
    <rect x="14.4" y="38.63" width="1.51" height="1.51" fill="#aa0707"/>
    <rect x="14.4" y="37.12" width="1.51" height="1.52" fill="#cc1d1d"/>
    <rect x="14.4" y="35.6" width="1.51" height="1.51" fill="#cc1d1d"/>
    <rect x="14.4" y="34.09" width="1.51" height="1.51" fill="#cc1d1d"/>
    <rect x="14.4" y="32.57" width="1.51" height="1.52" fill="#cc1d1d"/>
    <rect x="14.4" y="31.06" width="1.51" height="1.51" fill="#cc1d1d"/>
    <rect x="14.4" y="29.54" width="1.51" height="1.52" fill="#ef5454"/>
    <rect x="14.4" y="28.03" width="1.51" height="1.51" fill="#fff"/>
    <rect x="14.4" y="20.46" width="1.51" height="1.52" fill="#fff"/>
    <rect x="14.4" y="18.94" width="1.51" height="1.51" fill="#aa0707"/>
    <rect x="14.4" y="17.43" width="1.51" height="1.52" fill="#cc1d1d"/>
    <rect x="14.4" y="15.91" width="1.51" height="1.51" fill="#cc1d1d"/>
    <rect x="14.4" y="14.4" width="1.51" height="1.51" fill="#cc1d1d"/>
    <rect x="14.4" y="12.88" width="1.51" height="1.52" fill="#cc1d1d"/>
    <rect x="14.4" y="11.37" width="1.51" height="1.51" fill="#cc1d1d"/>
    <rect x="14.4" y="9.85" width="1.51" height="1.52" fill="#ef5454"/>
    <rect x="14.4" y="8.34" width="1.51" height="1.51" fill="#fff"/>
    <rect x="12.88" y="41.66" width="1.52" height="1.51" fill="#fff"/>
    <rect x="12.88" y="40.15" width="1.52" height="1.52" fill="#aa0707"/>
    <rect x="12.88" y="38.63" width="1.52" height="1.51" fill="#cc1d1d"/>
    <rect x="12.88" y="37.12" width="1.52" height="1.52" fill="#cc1d1d"/>
    <rect x="12.88" y="35.6" width="1.52" height="1.51" fill="#cc1d1d"/>
    <rect x="12.88" y="34.09" width="1.52" height="1.51" fill="#cc1d1d"/>
    <rect x="12.88" y="32.57" width="1.52" height="1.52" fill="#cc1d1d"/>
    <rect x="12.88" y="31.06" width="1.52" height="1.51" fill="#ef5454"/>
    <rect x="12.88" y="29.54" width="1.52" height="1.52" fill="#fff"/>
    <rect x="12.88" y="18.94" width="1.52" height="1.51" fill="#fff"/>
    <rect x="12.88" y="17.43" width="1.52" height="1.52" fill="#aa0707"/>
    <rect x="12.88" y="15.91" width="1.52" height="1.51" fill="#cc1d1d"/>
    <rect x="12.88" y="14.4" width="1.52" height="1.51" fill="#cc1d1d"/>
    <rect x="12.88" y="12.88" width="1.52" height="1.52" fill="#cc1d1d"/>
    <rect x="12.88" y="11.37" width="1.52" height="1.51" fill="#cc1d1d"/>
    <rect x="12.88" y="9.85" width="1.52" height="1.52" fill="#cc1d1d"/>
    <rect x="12.88" y="8.34" width="1.52" height="1.51" fill="#ef5454"/>
    <rect x="12.88" y="6.82" width="1.52" height="1.52" fill="#fff"/>
    <rect x="11.37" y="43.18" width="1.51" height="1.52" fill="#fff"/>
    <rect x="11.37" y="41.66" width="1.51" height="1.51" fill="#aa0707"/>
    <rect x="11.37" y="40.15" width="1.51" height="1.52" fill="#cc1d1d"/>
    <rect x="11.37" y="38.63" width="1.51" height="1.51" fill="#cc1d1d"/>
    <rect x="11.37" y="37.12" width="1.51" height="1.52" fill="#cc1d1d"/>
    <rect x="11.37" y="35.6" width="1.51" height="1.51" fill="#cc1d1d"/>
    <rect x="11.37" y="34.09" width="1.51" height="1.51" fill="#cc1d1d"/>
    <rect x="11.37" y="32.57" width="1.51" height="1.52" fill="#ef5454"/>
    <rect x="11.37" y="31.06" width="1.51" height="1.51" fill="#fff"/>
    <rect x="11.37" y="17.43" width="1.51" height="1.52" fill="#fff"/>
    <rect x="11.37" y="15.91" width="1.51" height="1.51" fill="#aa0707"/>
    <rect x="11.37" y="14.4" width="1.51" height="1.51" fill="#cc1d1d"/>
    <rect x="11.37" y="12.88" width="1.51" height="1.52" fill="#cc1d1d"/>
    <rect x="11.37" y="11.37" width="1.51" height="1.51" fill="#cc1d1d"/>
    <rect x="11.37" y="9.85" width="1.51" height="1.52" fill="#cc1d1d"/>
    <rect x="11.37" y="8.34" width="1.51" height="1.51" fill="#cc1d1d"/>
    <rect x="11.37" y="6.82" width="1.51" height="1.52" fill="#ef5454"/>
    <rect x="11.37" y="5.31" width="1.51" height="1.51" fill="#fff"/>
    <rect x="9.85" y="44.69" width="1.52" height="1.51" fill="#fff"/>
    <rect x="9.85" y="43.18" width="1.52" height="1.52" fill="#aa0707"/>
    <rect x="9.85" y="41.66" width="1.52" height="1.51" fill="#cc1d1d"/>
    <rect x="9.85" y="40.15" width="1.52" height="1.52" fill="#cc1d1d"/>
    <rect x="9.85" y="38.63" width="1.52" height="1.51" fill="#cc1d1d"/>
    <rect x="9.85" y="37.12" width="1.52" height="1.52" fill="#cc1d1d"/>
    <rect x="9.85" y="35.6" width="1.52" height="1.51" fill="#cc1d1d"/>
    <rect x="9.85" y="34.09" width="1.52" height="1.51" fill="#ef5454"/>
    <rect x="9.85" y="32.57" width="1.52" height="1.52" fill="#fff"/>
    <rect x="9.85" y="15.91" width="1.52" height="1.51" fill="#fff"/>
    <rect x="9.85" y="14.4" width="1.52" height="1.51" fill="#aa0707"/>
    <rect x="9.85" y="12.88" width="1.52" height="1.52" fill="#cc1d1d"/>
    <rect x="9.85" y="11.37" width="1.52" height="1.51" fill="#cc1d1d"/>
    <rect x="9.85" y="9.85" width="1.52" height="1.52" fill="#cc1d1d"/>
    <rect x="9.85" y="8.34" width="1.52" height="1.51" fill="#cc1d1d"/>
    <rect x="9.85" y="6.82" width="1.52" height="1.52" fill="#cc1d1d"/>
    <rect x="9.85" y="5.31" width="1.52" height="1.51" fill="#ef5454"/>
    <rect x="9.85" y="3.79" width="1.52" height="1.52" fill="#fff"/>
    <rect x="8.34" y="46.2" width="1.51" height="1.52" fill="#fff"/>
    <rect x="8.34" y="44.69" width="1.51" height="1.51" fill="#aa0707"/>
    <rect x="8.34" y="43.18" width="1.51" height="1.52" fill="#cc1d1d"/>
    <rect x="8.34" y="41.66" width="1.51" height="1.51" fill="#cc1d1d"/>
    <rect x="8.34" y="40.15" width="1.51" height="1.52" fill="#cc1d1d"/>
    <rect x="8.34" y="38.63" width="1.51" height="1.51" fill="#cc1d1d"/>
    <rect x="8.34" y="37.12" width="1.51" height="1.52" fill="#cc1d1d"/>
    <rect x="8.34" y="35.6" width="1.51" height="1.51" fill="#ef5454"/>
    <rect x="8.34" y="34.09" width="1.51" height="1.51" fill="#fff"/>
    <rect x="8.34" y="14.4" width="1.51" height="1.51" fill="#fff"/>
    <rect x="8.34" y="12.88" width="1.51" height="1.52" fill="#aa0707"/>
    <rect x="8.34" y="11.37" width="1.51" height="1.51" fill="#cc1d1d"/>
    <rect x="8.34" y="9.85" width="1.51" height="1.52" fill="#cc1d1d"/>
    <rect x="8.34" y="8.34" width="1.51" height="1.51" fill="#cc1d1d"/>
    <rect x="8.34" y="6.82" width="1.51" height="1.52" fill="#cc1d1d"/>
    <rect x="8.34" y="5.31" width="1.51" height="1.51" fill="#cc1d1d"/>
    <rect x="8.34" y="3.79" width="1.51" height="1.52" fill="#ef5454"/>
    <rect x="8.34" y="2.28" width="1.51" height="1.51" fill="#fff"/>
    <rect x="6.82" y="46.2" width="1.52" height="1.52" fill="#fff"/>
    <rect x="6.82" y="44.69" width="1.52" height="1.51" fill="#aa0707"/>
    <rect x="6.82" y="43.18" width="1.52" height="1.52" fill="#cc1d1d"/>
    <rect x="6.82" y="41.66" width="1.52" height="1.51" fill="#cc1d1d"/>
    <rect x="6.82" y="40.15" width="1.52" height="1.52" fill="#cc1d1d"/>
    <rect x="6.82" y="38.63" width="1.52" height="1.51" fill="#cc1d1d"/>
    <rect x="6.82" y="37.12" width="1.52" height="1.52" fill="#ef5454"/>
    <rect x="6.82" y="35.6" width="1.52" height="1.51" fill="#fff"/>
    <rect x="6.82" y="12.88" width="1.52" height="1.52" fill="#fff"/>
    <rect x="6.82" y="11.37" width="1.52" height="1.51" fill="#aa0707"/>
    <rect x="6.82" y="9.85" width="1.52" height="1.52" fill="#cc1d1d"/>
    <rect x="6.82" y="8.34" width="1.52" height="1.51" fill="#cc1d1d"/>
    <rect x="6.82" y="6.82" width="1.52" height="1.52" fill="#cc1d1d"/>
    <rect x="6.82" y="5.31" width="1.52" height="1.51" fill="#cc1d1d"/>
    <rect x="6.82" y="3.79" width="1.52" height="1.52" fill="#ef5454"/>
    <rect x="6.82" y="2.28" width="1.52" height="1.51" fill="#fff"/>
    <rect x="5.31" y="44.69" width="1.51" height="1.51" fill="#fff"/>
    <rect x="5.31" y="43.18" width="1.51" height="1.52" fill="#aa0707"/>
    <rect x="5.31" y="41.66" width="1.51" height="1.51" fill="#cc1d1d"/>
    <rect x="5.31" y="40.15" width="1.51" height="1.52" fill="#cc1d1d"/>
    <rect x="5.31" y="38.63" width="1.51" height="1.51" fill="#ef5454"/>
    <rect x="5.31" y="37.12" width="1.51" height="1.52" fill="#fff"/>
    <rect x="5.31" y="11.37" width="1.51" height="1.51" fill="#fff"/>
    <rect x="5.31" y="9.85" width="1.51" height="1.52" fill="#aa0707"/>
    <rect x="5.31" y="8.34" width="1.51" height="1.51" fill="#cc1d1d"/>
    <rect x="5.31" y="6.82" width="1.51" height="1.52" fill="#cc1d1d"/>
    <rect x="5.31" y="5.31" width="1.51" height="1.51" fill="#ef5454"/>
    <rect x="5.31" y="3.79" width="1.51" height="1.52" fill="#fff"/>
    <rect x="3.79" y="43.18" width="1.52" height="1.52" fill="#fff"/>
    <rect x="3.79" y="41.66" width="1.52" height="1.51" fill="#aa0707"/>
    <rect x="3.79" y="40.15" width="1.52" height="1.52" fill="#ef5454"/>
    <rect x="3.79" y="38.63" width="1.52" height="1.51" fill="#fff"/>
    <rect x="3.79" y="9.85" width="1.52" height="1.52" fill="#fff"/>
    <rect x="3.79" y="8.34" width="1.52" height="1.51" fill="#aa0707"/>
    <rect x="3.79" y="6.82" width="1.52" height="1.52" fill="#ef5454"/>
    <rect x="3.79" y="5.31" width="1.52" height="1.51" fill="#fff"/>
    <rect x="2.28" y="41.66" width="1.51" height="1.51" fill="#fff"/>
    <rect x="2.28" y="40.15" width="1.51" height="1.52" fill="#fff"/>
    <rect x="2.28" y="8.34" width="1.51" height="1.51" fill="#fff"/>
    <rect x="2.28" y="6.82" width="1.51" height="1.52" fill="#fff"/>
  </g>
</svg>
