<svg id="Capa_1" data-name="Capa 1" xmlns="http://www.w3.org/2000/svg" xmlns:xlink="http://www.w3.org/1999/xlink" width="50" height="50" viewBox="0 0 50 50">
  <defs>
    <clipPath id="clip-path">
      <polygon points="24.04 49.76 1.25 39.47 1.41 9.17 24.2 19.46 24.04 49.76" fill="none"/>
    </clipPath>
    <clipPath id="clip-path-2">
      <polygon points="24.2 19.46 1.41 9.17 25.96 0.24 48.74 10.53 24.2 19.46" fill="none"/>
    </clipPath>
    <clipPath id="clip-path-3">
      <polygon points="48.74 10.53 48.59 40.82 24.04 49.76 24.2 19.46 48.74 10.53" fill="none"/>
    </clipPath>
  </defs>
  <g id="Figment_lido">
    <g style="isolation: isolate">
      <g>
        <polygon points="24.04 49.76 1.25 39.47 1.41 9.17 24.2 19.46 24.04 49.76" fill="#54809e"/>
        <g style="isolation: isolate">
          <g clip-path="url(#clip-path)">
            <g>
              <path d="M13.52,36.57h0V35.7h0v.86M7.25,32.71v-.89h0v.89h0m7.92,2.56h0l.63.29h0l-.63-.29m2.24-1.09.78.35v0l-.78-.34-.72-.33v0l.72.32m-.79-.34V32.79h0v1.05h0m0-1.15v-.88h0v.87h0m1.58-.31h0a0,0,0,0,1,0,0,.34.34,0,0,1,0,.1v1.85s0,.11,0,.13,0,0-.05,0h0l-.74-.34-.72-.32c-.05,0-.06,0-.06-.1,0-.32,0-.65,0-1v-1c0-.07,0-.07.05-.06l0,0,1.37.61.1,0M13.53,26v1.06c0,.31,0,.63,0,.95,0,.09,0,.12-.09.08l-1.06-.48L12,27.45h0v1c0,.09,0,.1-.08.07l-.34-.15-.34-.16,0,3s0,.09,0,.12,0,0-.05,0h0L10.38,31v0l.74.34v0l-.74-.33h0v0l0,0a5,5,0,0,1,0,.86.37.37,0,0,1,0,.11h0l-.31-.12a.61.61,0,0,0-.14-.07l-.14-.06-.15-.07h0c-.05,0,0-.07,0-.12v-.94h0c0,.31,0,.61,0,.92,0,.08,0,.1-.08.07l-.89-.4L8,31l-.42-.18-.37-.18h0L8,31H8l0,0s0,0,.05,0h0l1.49.67,0,0,.73.32v0l-.73-.32h0a.15.15,0,0,1,0,.09c0,.28,0,.55,0,.83,0,0,0,.06,0,.07a.07.07,0,0,1-.06,0H9.47v0a0,0,0,0,1-.05,0h0l-1.24-.56,0,0a.07.07,0,0,1,0,0v0l0,0a1,1,0,0,1-.29-.1l-.36-.17-.08,0a.17.17,0,0,1-.06-.06l-.7-.32h0c-.06,0,0-.1,0-.14v-.94h0v.94c0,.1,0,.12-.09.09h0l-.18-.08L5.68,31h0l.34.16.43.19.29.13.43.19h0s.07.05.07.13c0,.32,0,.65,0,1l.22.09,3.71,1.67v0L7.29,32.8v0h0l3.82,1.72v-.89s0-.09,0-.12v0s0,0,0,0l0,0,1.09.49,1.1.49,0,0s0,0,0,0,0,0,0,0v1h0v1c0,.07,0,.1.07.12h0l.22.09.49.23c0-.32,0-.64,0-1,0,0,0-.09,0-.12s0,0,0,0l0,0,.63.28a.23.23,0,0,0,0-.12c0-.24,0-.48,0-.71,0,0,0-.09,0-.12h0s0,0,0,0h0l.36.16c.09.05.18.08.27.12h0c.06,0,.08.06.07.14,0,.31,0,.62,0,.94,0-.4,0-.78,0-1.19,0,0,0-.08,0-.13,0-.23,0-.46,0-.69s0-.15.1-.11h0l1.52.69,1.52.69,0-5.16c0-.1,0-.14-.09-.17h0l-.19-.08-.12,0-.28-.13h0c-.07,0-.1-.07-.1-.17,0-.26,0-.53,0-.79a.17.17,0,0,0-.11-.2l-2.23-1-2.24-1-.05,0a.08.08,0,0,1,0-.05v-.9h0V26h0" fill="#2195f2"/>
              <path d="M11.16,34.56,7.45,32.89l-.22-.09h0v.9c0,.12,0,.17.11.21l3.15,1.42,2.11.94c.11,0,.11,0,.11.21s0,.54,0,.81c0,.07,0,.1.07.13l.72.32.72.32h0s.06,0,.06-.05V37h0l-.49-.23-.22-.09h0c-.06,0-.07-.05-.07-.12v-1l-2.33-1"/>
              <path d="M15.11,35.27s0,0,0,0v.95c0,.06,0,.08-.06.06L14.29,36s0,.08,0,.12c0,.31,0,.63,0,1h0l1.52.67c.05,0,.05.06.05.11,0,.3,0,.59,0,.88,0,.07,0,.11.08.14l.71.31.71.33c.06,0,.07,0,.07-.08,0-.28,0-.55,0-.84,0-.09,0-.11.09-.08l1.4.63c.07,0,.08,0,.08-.08v-.94L18.84,38,16,36.71l0,0a.1.1,0,0,1-.05,0c0-.32,0-.63,0-.94,0-.08,0-.12-.07-.14h0c-.09,0-.18-.07-.27-.12l-.36-.16h0"/>
              <path d="M20.52,30.23h0L20,30l-.24-.11,0,6.24s0,.09,0,.14v1.08l.66.28c.12.06.12.06.12-.1l0-5.69V30.35c0-.06,0-.1-.05-.12"/>
              <path d="M10.48,26.78c-.07,0-.09,0-.08.09,0,1.33,0,2.67,0,4V31h0l.73.33h0s0,0,.05,0V29.7c0-.51,0-1,0-1.54h0V27.1h0L11,27l-.15-.07-.31-.14h0"/>
              <path d="M16.69,24.23h0m1.56-.36h0m-.08-1.1-.7-.31-.7-.32h0c-.06,0-.07,0-.07.08,0,.64,0,1.29,0,1.94,0,0,0,.05,0,.07l.7.32h0c.06,0,.08,0,.08-.08,0-.28,0-.57,0-.86,0-.08,0-.09.08-.07l.17.08.53.24c0-.31,0-.63,0-.94,0-.09,0-.13-.09-.16" fill="#fff"/>
              <path d="M5,25.38c-.06,0-.07,0-.07.07v1.2c0,.6,0,1.2,0,1.8,0,0,0,.09,0,.11H5l.73.33,0-3.19-.36-.16L5,25.38H5"/>
              <path d="M8.75,27.07h0l-.3-.13L8,26.75v0c0,.71,0,1.42,0,2.13v1H8l.71.33h0c.06,0,.07,0,.07-.07,0-1,0-2,0-3,0-.1,0-.12-.08-.15"/>
              <path d="M14.33,22.11h0m.81,1.33h0v-.88h0v.89m.73-1.71h0l-.72-.33-.72-.32c-.05,0-.06,0-.06.06,0,.32,0,.65,0,1l.51.23.18.08h0c.07,0,.09.07.09.17,0,.27,0,.56,0,.83,0,.08,0,.12.05.13h.08a.05.05,0,0,1,0,0l.61.27V23.8a.15.15,0,0,1,0-.11V21.87s0-.08,0-.1l0,0" fill="#fff"/>
              <path d="M12,25.35s-.06,0-.06,0v1h0l1.19.53.33.16h0V26h0L12,25.35"/>
              <path d="M6.45,29.23,5.7,28.9h0v2a.71.71,0,0,0,0,.14h0l.51.22.18.08h0c.07,0,.09,0,.09-.09v-.94h0c0-.31,0-.63,0-.94,0,0,0-.08,0-.13"/>
              <path d="M13.68,26h0l5.23,2.35h0L13.68,26m.06,0a.16.16,0,0,1-.1-.19c0-.17,0-.36,0-.53s0-.1,0-.08l0,0,0,0,.05,0,2.51,1.13,2.5,1.12h0c.08,0,.11.08.1.2s0,.31,0,.47,0,.13-.1.09l-1.28-.57-1.27-.57L15,26.58,13.74,26h0m-.06-.92h0l5.2,2.34h0l-5.2-2.34M19,27.4h-.08l0,0-5.09-2.29,0,0s0,0,0,0-.06,0-.08,0-.06,0-.06.14c0,.3,0,.6,0,.9h0l.1,0,2.63,1.18,2.62,1.18.1,0h0v-1c0-.07,0-.11-.05-.13"/>
              <path d="M8,29.93H8s0,0,0,0l-.71-.31v1h0l.37.18L8,31V29.94H8"/>
              <path d="M19,37s0,0,0,.06v1l.6.27.1,0h0s.07,0,.07-.07v-1l-.28-.14-.17-.07-.12-.06L19,37h0"/>
              <path d="M6.42,25l-.33-.15-.32-.15s-.07,0-.07.06v1l.78.35v-1c0-.08,0-.1-.06-.12"/>
              <path d="M7.17,31.7h0l-.43-.19-.29-.13v.95c0,.09,0,.12.07.15h0l.19.08.51.24h0c0-.32,0-.65,0-1,0-.08,0-.11-.07-.13"/>
              <path d="M19.75,28.82,19,28.49c0,.36,0,.71,0,1.06l.78.36v-1s0-.09-.05-.11"/>
              <path d="M11.23,26.06s-.05,0-.05,0v1h0l.78.35c0-.36,0-.71,0-1.06h0l-.74-.33"/>
              <path d="M6.48,26.05v1.06l.73.33h0s.06,0,.06-.07v-1l-.78-.35"/>
              <path d="M14.33,22.11l-.49-.22-.22-.1s-.07,0-.07.06v.9a.09.09,0,0,0,.06.1l.33.15.33.15h0s.05,0,.05-.05v-1m0,0h0" fill="#fff"/>
              <path d="M18.25,23.87c0,.33,0,.66,0,1a.1.1,0,0,0,.07.11l.36.16.29.13c.06,0,.07,0,.07-.06v-.86c0-.1,0-.13-.08-.15h0l-.22-.09-.48-.22m0,0h0" fill="#fff"/>
              <path d="M10.38,31h0l-.7-.31,0,0s0,0,0,0h0v.94c0,.05,0,.1,0,.12h0l.15.07.14.06a.61.61,0,0,1,.14.07l.31.12v-1h0V31h0"/>
              <path d="M16.69,24.23l-.8-.36v.74a1.85,1.85,0,0,0,0,.33c0-.3,0-.59,0-.89,0,0,0-.09,0-.11h0l.13.06.35.16.11.05-.1-.05.12.07-.63-.28h0v1l.67.31h0c.07,0,.08,0,.08-.09,0-.32,0-.63,0-.95m-.8-.36h0m.8.36h0" fill="#fff"/>
              <path d="M8,25.66H8a.15.15,0,0,1-.11,0l-.06,0-.07,0-.14-.06-.13-.06h0c-.06,0-.09,0-.09.08v.73a.13.13,0,0,0,.07.14h0l.19.08.24.11h0c.06,0,.09,0,.09-.08a7,7,0,0,1,0-.8v0"/>
              <path d="M7.42,26.44h0l.51.23h0l-.51-.23m.6-.77H8s0,0,0,0H8v0a7,7,0,0,0,0,.8c0,.09,0,.1-.09.08h0l-.24-.11-.19-.08h0a.13.13,0,0,1-.07-.14v-.73c0-.08,0-.11.09-.08h0l.13.06.14.06.07,0,.06,0a.15.15,0,0,0,.11,0l-.62-.28h0c-.06,0-.07,0-.07.08v.95l.78.35v-.89a.19.19,0,0,1,0-.15.05.05,0,0,0,0,0"/>
              <path d="M15.9,21.77s0,.07,0,.1v1.82a.15.15,0,0,0,0,.11c0-.58,0-1.17,0-1.76v-.27" fill="#fff"/>
              <path d="M15.92,23.94h0s0,.07,0,.11c0,.3,0,.59,0,.89h0v-1h0" fill="#fff"/>
              <path d="M15.89,23.87h0m-.65-.31h0l.34.16a2.63,2.63,0,0,0,.35.15v0l-.61-.27a.05.05,0,0,0,0,0" fill="#fff"/>
              <path d="M8,25.71a.19.19,0,0,0,0,.15v-.15"/>
              <path d="M13.55,26.17h0M19,28.49h0a.06.06,0,0,1-.06,0l-.05,0-5.07-2.28-.12,0,0,0h0s0,0,0,.11c0,.25,0,.5,0,.75,0,0,0,.09,0,.12a.08.08,0,0,0,0,.05l.05,0,2.24,1,2.23,1a.17.17,0,0,1,.11.2c0,.26,0,.53,0,.79,0,.1,0,.14.1.17h0l.28.13.12,0,.19.08h0c.07,0,.09.07.09.17l0,5.16v0h0l.78.36s0-.1,0-.14l0-6.24L19,29.55h0s0,0,0,0c0-.25,0-.5,0-.74v0a1.09,1.09,0,0,1,0-.18c0,.28,0,.57,0,.85a.17.17,0,0,0,0,.12h0c0-.35,0-.7,0-1.06" fill="#03a8f4"/>
              <path d="M19,35.93a.75.75,0,0,1-.13-.06l-1.16-.52L16,34.57c-.08,0-.1,0-.1.09,0,.27,0,.54,0,.8s0,.79,0,1.19a.1.1,0,0,0,.05,0l0,0L18.84,38l.13.07h0v-1S19,37,19,37h0l.17.07.12.06.17.07.28.14h0V36.29L19,35.93h0" fill="#fefefe"/>
              <path d="M6.48,26.05h0L5.7,25.7h0l0,3.19h0s0,0,0,0h0l.63.28h0a.12.12,0,0,1,0,.05c0,.05,0,.09,0,.13,0,.31,0,.63,0,.94h0v-.92h0v.91h0l.74.33h0v-1s0,0,0,0l.62.28,0,0s0,0,0,0H8v-.06H8a.24.24,0,0,1,0-.14c0-.94,0-1.88,0-2.82,0-.1,0-.15-.08-.18h0l-.25-.1-.12-.05a1.24,1.24,0,0,0-.2-.1h0s-.05,0,0,.06v.95s0,0,0,0,0,0,0,0h0l-.7-.3a.08.08,0,0,1,0,0V26.05h0" fill="#03a8f4"/>
              <path d="M18.2,32.38l-.1,0-1.37-.61,0,0s-.05,0-.05.06v1l.4.19.31.13a.13.13,0,0,1,.07.13c0,.32,0,.64,0,1l.74.34h0s0,0,.05,0v-2a.23.23,0,0,0,0-.14" fill="#fefefe"/>
              <path d="M13.42,34.51,12.33,34l-1.1-.5c-.07,0-.08,0-.08.08v1l2.33,1v-1c0-.09,0-.11-.08-.14" fill="#fefefe"/>
              <path d="M8.07,31S8,31,8,31a.38.38,0,0,1,0,.15v.87l0,0,1.32.59.1.05h.06a.07.07,0,0,0,.06,0c0-.33,0-.66,0-1h0v0l0,0L8.08,31h0"/>
              <path d="M13.53,27.09h0a0,0,0,0,1,0,0l0,0-1.36-.61h0a.07.07,0,0,1,0-.05h0c0,.35,0,.7,0,1.06h0l.42.19,1.06.48c.08,0,.09,0,.09-.08,0-.32,0-.64,0-.95" fill="#03a8f4"/>
              <path d="M17.36,33.07l-.31-.13-.4-.19c0,.34,0,.67,0,1,0,.06,0,.09.06.1l.72.32c0-.32,0-.64,0-1a.13.13,0,0,0-.07-.13" fill="#000001"/>
              <path d="M12,27.45h0l-.78-.35h0v0a.2.2,0,0,1,0,.13v.91l.34.16.34.15c.06,0,.08,0,.08-.07v-1h0" fill="#03a8f4"/>
              <path d="M8,31h0l0,0-.66-.29v1a.17.17,0,0,0,.06.06l.08,0,.36.17a1,1,0,0,0,.29.1v0A.12.12,0,0,1,8,32v-.7s0-.06,0-.07A.38.38,0,0,0,8,31l0,0" fill="#03a8f4"/>
              <path d="M6.49,30.32v.82s0,.09,0,.11,0,.11,0,.14h0a0,0,0,0,1,0,0l0,0,.63.28v-1h0l-.74-.33h0" fill="#2195f2"/>
              <path d="M13.48,34.52c-.78-.36-1.56-.7-2.34-1.05v.93s0,.08,0,.1L7.3,32.78h0v0l3.86,1.73V33.6c0-.08,0-.11.08-.08l1.1.5,1.09.49c.06,0,.08.05.08.14v.94h0v-1s0,0,0,0" fill="#239dfd"/>
              <path d="M16.28,27.26l-2.63-1.18-.1,0h0v.13h0v.9s0-.08,0-.12c0-.25,0-.5,0-.75,0-.08,0-.14,0-.11h0l0,0,.12,0,5.07,2.28.05,0a.06.06,0,0,0,.06,0l-.1,0-2.62-1.18" fill="#06b0fc"/>
              <path d="M15.93,34.53c-.08,0-.11,0-.1.11s0,.46,0,.69c0,.05,0,.09,0,.13,0-.26,0-.53,0-.8,0-.11,0-.12.1-.09l1.74.78,1.16.52a.75.75,0,0,0,.13.06h0v0l-1.52-.69-1.52-.69h0" fill="#138ded"/>
              <path d="M13.44,34.48l0,0L12.31,34l-1.09-.49,0,0s0,0,0,0c.78.35,1.56.69,2.34,1.05,0,0,0,0,0,0" fill="#138eee"/>
              <path d="M11.2,28.17h0c0,.52,0,1,0,1.54v1.63s0-.08,0-.12l0-3" fill="#249bfa"/>
              <path d="M15.06,35.28h0v.86s0,.1,0,.09L14.37,36l0,0s0,0,0,0l.71.33c.05,0,.06,0,.06-.06v-.95" fill="#239efd"/>
              <path d="M18.22,32.38h0a.23.23,0,0,1,0,.14v2s0-.08,0-.13V32.51a.34.34,0,0,0,0-.1,0,0,0,0,0,0,0" fill="#1a91f0"/>
              <path d="M9.37,32.69,8.05,32.1v0l1.41.63v0l-.1-.05" fill="#229dfe"/>
              <path d="M9.46,32.76l-1.41-.63a.07.07,0,0,0,0,0l0,0,1.24.56h0a0,0,0,0,0,.05,0" fill="#2391ea"/>
              <path d="M16.63,32.79h0v1.05h0V32.79" fill="#249efe"/>
              <path d="M18.19,34.53l-.78-.35v0l.78.34v0" fill="#1290f3"/>
              <path d="M13.52,34.56v1h0v-1" fill="#1691f3"/>
              <path d="M11.13,31.36,10.39,31v0h0l.74.33v0" fill="#239ffe"/>
              <path d="M11.14,33.49s0,.08,0,.12v.89s0-.07,0-.1v-.91" fill="#168df0"/>
              <path d="M7.24,30.68v0L7.9,31l0,0H8l-.73-.33h0" fill="#02b4fe"/>
              <path d="M17.41,34.18l-.72-.32v0l.72.33v0" fill="#239efe"/>
              <path d="M10.33,32.06l-.73-.32v0h0l.73.32v0" fill="#229ffd"/>
              <path d="M10.38,31.07v1h0a.37.37,0,0,0,0-.11.37.37,0,0,0,0,.11v-1l0,0" fill="#239ffe"/>
              <path d="M9.6,31.78c0,.33,0,.66,0,1,0,0,0,0,0-.07,0-.28,0-.55,0-.83a.15.15,0,0,0,0-.09" fill="#229ffd"/>
              <path d="M15,35.29s0,.08,0,.12c0,.23,0,.47,0,.71a.23.23,0,0,1,0,.12c.06,0,0-.05,0-.09v-.86" fill="#2091e9"/>
              <path d="M6.57,31.39a0,0,0,0,0,0,0l.7.32v0l-.63-.28,0,0" fill="#249ffe"/>
              <path d="M10.4,31.1v1a.37.37,0,0,1,0-.11,5,5,0,0,0,0-.86" fill="#2091e9"/>
              <path d="M16.63,31.82h0v.88h0v-.87" fill="#128def"/>
              <path d="M7.26,31.83h0v.89h0v-.89" fill="#1f9cfe"/>
              <path d="M6.48,30.31h0v.94s0-.07,0-.11v-.82h0" fill="#1c99fd"/>
              <path d="M15.8,35.55l-.63-.29h0l.63.29h0" fill="#259ffe"/>
              <path d="M13.52,35.71h0v.86h0v-.86" fill="#219afd"/>
              <path d="M11.18,27.13v1h0v-.91a.2.2,0,0,0,0-.13" fill="#05aefc"/>
              <path d="M8,26.75l-.78-.35h0v1c0,.05,0,.09-.06.07h0l-.73-.33v0l.78.35s0,0,0,0l0-.05c0-.29,0-.58,0-.87v0c0-.07,0-.07,0-.06h0a1.24,1.24,0,0,1,.2.1l.12.05.25.1h0c.07,0,.09.08.08.18,0,.94,0,1.88,0,2.82a.24.24,0,0,0,0,.14c0-1,0-2,0-3,0,0,0-.1,0-.12v0" fill="#02a6ea"/>
              <path d="M8,26.78s0,.08,0,.12c0,1,0,2,0,3H8v-1c0-.71,0-1.42,0-2.13" fill="#05b1fd"/>
              <path d="M15.14,22.55h0v.88h0v-.89" fill="#fff"/>
              <path d="M13.18,26.93,12,26.4a.07.07,0,0,0,0,.05h0l1.36.61,0,0a0,0,0,0,0,0,0l-.33-.16" fill="#04adfb"/>
              <path d="M6.4,29.18h0l-.63-.28h0s0,0,0,0l.75.33a.12.12,0,0,0,0-.05" fill="#06b1fd"/>
              <path d="M13.68,25.21s0,0,0,.08,0,.36,0,.53a.16.16,0,0,0,.1.19h0l1.27.57,1.27.57,1.27.57,1.28.57c.07,0,.11,0,.1-.09s0-.32,0-.47,0-.16-.1-.2h0l-2.5-1.12-2.51-1.13-.05,0,0,0,0,0"/>
              <path d="M18.91,28.36,13.68,26h0l5.23,2.35h0"/>
              <path d="M18.88,27.42l-5.2-2.34h0l5.2,2.34h0"/>
              <path d="M7.3,29.59s0,0,0,0l.71.31,0,0-.62-.28" fill="#06b1fd"/>
              <path d="M16.08,24,16,23.93h0l.63.28-.12-.07h0L16.08,24" fill="#fff"/>
              <path d="M7.93,26.66l-.51-.23h0l.51.23h0"/>
              <path d="M19,29.55h0m0-1a1.09,1.09,0,0,0,0,.18v0c0,.24,0,.49,0,.74,0,0,0,0,0,0h0a.17.17,0,0,1,0-.12c0-.28,0-.57,0-.85" fill="#03acfe"/>
              <path d="M7.25,27.49l-.78-.35a.08.08,0,0,0,0,0l.7.3h0s0,0,0,0" fill="#00affe"/>
              <path d="M6.5,29.4h0v.92h0V29.4" fill="#03acfe"/>
              <path d="M7.29,26.51v0c0,.29,0,.58,0,.87l0,.05v-.95" fill="#02adfe"/>
              <path d="M8,31.19s0,0,0,.07V32A.12.12,0,0,0,8,32v-.85" fill="#05b1fd"/>
            </g>
          </g>
        </g>
      </g>
      <g>
        <polygon points="24.2 19.46 1.41 9.17 25.96 0.24 48.74 10.53 24.2 19.46" fill="#5c8dad"/>
        <g style="isolation: isolate">
          <g clip-path="url(#clip-path-2)">
            <g>
              <path d="M32.2,12.15h0l-.66-.3h0l.67.3m-8,2.27-.68-.31h0l.69.31h0m8.37-3.67h0l.73-.27h0l-.73.26m1-1.67.9-.32h0l-.9.33-.84.31h0l.83-.31m-.9.34-.81-.37h0l.8.37h0M31.7,9,31,8.72h0l.68.31h0m1-1h0l.09,0,1.42.65s.09,0,.09.05,0,0,0,0h0l-.85.31-.84.31a.17.17,0,0,1-.12,0L31.77,9,31,8.69c-.05,0,0,0,0,0h0l1.58-.58.12,0m-8.68.49.81.37.74.33c.07,0,.08,0,0,.07l-1.23.45-.48.17h0l.74.34c.07,0,.05,0,0,.07l-.4.14-.39.14,2.34,1.06s.08,0,.08,0l0,0h0l-.85.3h0l.86-.32h0L25.4,12h.05a6.11,6.11,0,0,1,.67.29s.07,0,.08.05h0l-.35.13-.16.06-.17.06-.16.06h0a.15.15,0,0,1-.12,0l-.63-.29-.1,0h0l.7.32c.07,0,.07.05,0,.08l-1,.37-.68.25-.48.17a3.12,3.12,0,0,1-.43.15h0l.85-.31h.05s0,0,.05,0h0l1.72-.62.05,0,.84-.3h0l-.83.3h0l.09,0,.63.29s.05,0,0,0l-.05,0H26v0s0,0,0,0h0l-1.44.52,0,0h-.14l-.32.13-.42.14-.08,0-.09,0-.82.29h0c-.06,0-.08,0-.13,0L21.68,14h0l.73.32c.08,0,.07.06,0,.08h0l-.21.07-.58.21h0l.39-.13.5-.19.33-.12.49-.18h0a.19.19,0,0,1,.15,0l.75.34.24-.09,4.29-1.56h0l-4.45,1.62h0l4.41-1.61L28,12.5s-.08,0-.07-.05h0a0,0,0,0,1,0,0l.05,0,1.26-.46,1.26-.45,0,0h.17l.76.34h0l.75.34a.2.2,0,0,0,.15,0h0l.25-.09.57-.21-.73-.33s-.08,0-.08,0,0,0,0,0h.05l.73-.27a.15.15,0,0,0-.09,0l-.54-.25s-.08,0-.08-.05v0l0,0h0l.42-.15.31-.12h0a.2.2,0,0,1,.17,0c.24.11.47.22.73.32-.3-.13-.59-.27-.92-.4a.21.21,0,0,1-.12,0l-.53-.24c-.1,0-.1-.06,0-.1h0l1.76-.64,1.76-.64L32.13,7a.22.22,0,0,0-.21,0h0l-.22.09-.13,0-.32.12h0a.22.22,0,0,1-.21,0c-.19-.1-.41-.18-.6-.28a.25.25,0,0,0-.24,0l-2.58.94L25,8.81l-.06,0h-.08l-.69-.31h0l-.1,0h0" fill="#2195f2"/>
              <path d="M28.74,12.81l-4.29,1.56-.24.09h0l.7.32a.25.25,0,0,0,.24,0l3.65-1.33,2.43-.89a.25.25,0,0,1,.25,0l.62.29a.16.16,0,0,0,.15,0l.83-.3.83-.3h0s0,0,0,0l-.76-.34h0l-.57.21-.25.09h0a.19.19,0,0,1-.15,0l-.75-.34-2.69,1"/>
              <path d="M32.47,10.78l0,0,.74.33s0,0,0,.06l-.83.29s0,0,.08,0l.73.33h0l1.75-.64a.12.12,0,0,1,.12,0l.68.31a.18.18,0,0,0,.16,0l.82-.3.83-.29c.07,0,.06-.05,0-.07l-.65-.29c-.08,0-.08,0,0-.08l1.62-.59c.08,0,.08,0,0-.07l-.73-.33-.16.05L34.27,10.8l-.06,0h-.07c-.26-.1-.49-.21-.73-.32a.2.2,0,0,0-.17,0h0l-.31.12-.42.15h0"/>
              <path d="M32.94,5.93h0l-.55.2-.27.11,4.8,2.17.11.05.83.37.75-.28c.15-.05.15-.05,0-.11l-4.38-2-1.16-.52a.17.17,0,0,0-.14,0"/>
              <path d="M22.17,10.52c-.07,0-.07,0,0,.07L25.26,12l.09,0h0l.85-.3h0l0,0L25,11.13l-1.18-.54h0l-.8-.36h0l-.27.1-.18.06-.35.13h0"/>
              <path d="M25.21,6.06h0m1-1h0m-.92-.33-.81.3-.81.29h0c-.07,0-.06,0,0,.08l1.5.67.06,0L26,5.77h0c.07,0,.07,0,0-.07l-.66-.3c-.07,0-.06,0,0-.07l.2-.07L26.19,5l-.72-.33a.21.21,0,0,0-.19,0" fill="#fff"/>
              <path d="M16.65,13.19c-.07,0-.06,0,0,.07l.93.42L19,14.3a.12.12,0,0,0,.12,0h0l.84-.32-2.45-1.1-.41.14-.41.15h0"/>
              <path d="M21,11.61h0l-.34.12-.47.17h0l1.64.74.74.33.05,0h0l.83-.3h0c.07,0,.07,0,0-.07l-2.29-1a.19.19,0,0,0-.18,0"/>
              <path d="M21.67,6.68h0m1.68,0h0l-.68-.31h0l.69.31m-.73-1h0l-.83.3-.83.31c-.06,0-.06,0,0,.06l.75.33.59-.21.21-.08h0a.21.21,0,0,1,.2,0l.63.29a.19.19,0,0,0,.14,0l0,0s0,0,0,0l.06,0,.69-.25,0,0a.16.16,0,0,1-.11,0l-1.39-.63s-.08,0-.07,0h-.05" fill="#fff"/>
              <path d="M22.31,9.13s0,0,0,0l.76.34h0L24.47,9l.39-.13h0l-.81-.37h0l-1.75.63"/>
              <path d="M20.82,13.68,20,14h0l1.54.7.12,0h0l.58-.21.21-.07h0c.08,0,.09,0,0-.08l-.73-.32h0l-.73-.32a.18.18,0,0,0-.11,0"/>
              <path d="M24.17,8.41h0l6-2.2h0l-6,2.2m0,0a.2.2,0,0,1-.22,0l-.41-.18s-.07,0,0,0h.05l.05,0,.06,0,2.89-1L29.49,6h0a.24.24,0,0,1,.23,0,3.92,3.92,0,0,0,.36.16c.09,0,.08.06,0,.09l-1.47.54-1.47.53-1.46.54-1.47.53h0m-.75-.28h0l6-2.19h0l-6,2.18m6.06-2.25a.05.05,0,0,0,0,0l0,0-.05,0L23.51,8l-.05,0H23.4l-.1,0c-.07,0,0,0,.06.08l.7.32h0l.11,0,3-1.11,3-1.1.12,0h0l-.74-.33c-.06,0-.1,0-.14,0"/>
              <path d="M22.63,13l-.05,0h0l-.81.3.8.37h0a3.12,3.12,0,0,0,.43-.15l.48-.17L22.64,13h0"/>
              <path d="M37,9.14c-.05,0,0,0,0,0l.77.35.7-.26.11,0h0c.06,0,.07,0,0-.07l-.75-.33-.32.11-.2.08-.14.05-.2.07h0"/>
              <path d="M17.48,12.22l-.37.14-.38.14c-.06,0-.06,0,0,.06l.76.33.9-.32-.75-.34a.16.16,0,0,0-.15,0"/>
              <path d="M23.31,14.12h0l-.49.18-.33.12.74.33a.17.17,0,0,0,.17,0h0l.21-.08.6-.22h0l-.75-.34a.19.19,0,0,0-.15,0"/>
              <path d="M31.23,5.88l-.84.31.82.37.9-.32-.75-.34a.14.14,0,0,0-.13,0"/>
              <path d="M22.22,9.83s0,0,0,.05l.77.34h0l.89-.33-.81-.37h0l-.85.31"/>
              <path d="M18.38,12.57l.82.36.84-.3h0c.05,0,0,0,0-.05l-.76-.34-.9.33"/>
              <path d="M21.67,6.68l-.56.21L20.85,7c-.06,0-.07,0,0,.06l.69.32a.15.15,0,0,0,.13,0L22,7.22l.39-.14h0s0,0,0,0l-.77-.35m0,0h0" fill="#fff"/>
              <path d="M26.2,5l.75.34a.14.14,0,0,0,.14,0l.41-.15.34-.12c.07,0,.06,0,0-.06l-.66-.3a.19.19,0,0,0-.18,0h0l-.25.09L26.2,5m0,0h0" fill="#fff"/>
              <path d="M25.35,12h0l-.8.3H24.5s0,0,0,0h0l.1,0,.63.29a.15.15,0,0,0,.12,0h0l.16-.06.17-.06.16-.06.35-.13-.77-.35h-.06"/>
              <path d="M25.21,6.06l-.92.34.58.25a1.07,1.07,0,0,0,.26.11l-.69-.31s-.08,0-.07,0h0v0l.15,0L25,6.18l.12,0-.12,0,.15,0-.73.27h0l.78.35.78-.28h0c.08,0,.06,0,0-.08-.25-.1-.49-.22-.73-.33m-.92.34h0m.92-.34h0" fill="#fff"/>
              <path d="M19.29,11.57h0l-.1.05-.07,0a.25.25,0,0,0-.09,0l-.16.06-.15.05h0c-.07,0-.06,0,0,.08l.57.26a.22.22,0,0,0,.16,0h0l.22-.08.27-.1h0c.07,0,.08,0,0-.08a4.18,4.18,0,0,1-.6-.29h0"/>
              <path d="M19.44,12.16h0l.6-.22h0l-.59.21m-.11-.61h0a4.18,4.18,0,0,0,.6.29c.06,0,0,.06,0,.08h0l-.27.1-.22.08h0a.22.22,0,0,1-.16,0l-.57-.26c-.05,0-.06-.05,0-.08h0l.15-.05.16-.06a.25.25,0,0,1,.09,0l.07,0,.1-.05-.72.25h0c-.07,0-.05,0,0,.07l.73.33.9-.33-.69-.31c-.06,0-.1,0-.11,0s0,0-.05,0"/>
              <path d="M22.67,5.67s0,0,.07,0l1.39.63a.16.16,0,0,0,.11,0l-1.35-.61-.22-.09" fill="#fff"/>
              <path d="M24.37,6.4h0s0,0,.07,0l.69.31h0l-.78-.35h0" fill="#fff"/>
              <path d="M24.29,6.4h0m-.77.26s0,0,0,0l.4-.14.4-.15h0l-.69.25-.06,0" fill="#fff"/>
              <path d="M19.38,11.55s.05,0,.11,0l-.11,0"/>
              <path d="M24.18,8.54h0m6.21-2.35h0s0,0,0,0l-.07,0L24.41,8.39l-.13,0-.06,0h0c-.06,0,0,0,0,.07l.58.26s.08,0,.08,0H25l.06,0,2.58-.93,2.58-.94a.25.25,0,0,1,.24,0c.19.1.41.18.6.28a.22.22,0,0,0,.21,0h0l.32-.12.13,0L31.91,7h0a.22.22,0,0,1,.21,0l4,1.79h0l.9-.32-.11-.05-4.8-2.17-.9.32h0l0,0h0l-.57-.26-.1,0,.09,0-.13-.07.65.3a.25.25,0,0,0,.12,0h0l-.82-.37" fill="#03a8f4"/>
              <path d="M36.12,8.78,36,8.84l-1.33.49-2,.73c-.09,0-.11,0,0,.09l.62.28c.33.13.62.27.92.4h.07l.06,0,3.34-1.22.16-.05h0L37,9.18s-.06,0,0,0h0l.2-.07L37.33,9l.2-.08.32-.11h0L37,8.46l-.9.32h0" fill="#fefefe"/>
              <path d="M18.38,12.57h0l-.9.32h0L19.93,14h0s0,0,0,0h0l.73-.26h.09a.18.18,0,0,1,.11,0l.73.32h0l-.7-.32h0l.7.32h0l.86-.31h0l-.8-.37s0,0,0,0l.72-.26h.08l.05,0-.05,0h0a.19.19,0,0,1-.12,0l-2.17-1a.26.26,0,0,0-.21,0h0l-.28.11-.14.05-.23.08h0s-.05,0,0,0l.73.33a0,0,0,0,1,0,0s0,0,0,0h0l-.8.3H19.2l-.82-.36h0" fill="#03a8f4"/>
              <path d="M32.74,8l-.12,0L31,8.63h0s-.05,0,0,0l.76.34.47-.17.35-.13a.22.22,0,0,1,.16,0l.74.34.85-.31h0s0,0,0,0l-1.52-.68a.21.21,0,0,0-.12,0" fill="#fefefe"/>
              <path d="M30.53,11.49,29.26,12,28,12.41c-.08,0-.07.05,0,.08.25.1.48.21.72.32h0l2.69-1h0l-.73-.33a.2.2,0,0,0-.17,0" fill="#fefefe"/>
              <path d="M23.53,13.37s-.05,0-.05,0l.12,0,.65.3h.08l1.52-.56.12,0H26l.05,0-.76-.35h0l-.05,0-1.72.62h0"/>
              <path d="M24.87,8.87h0l0,0,0,0-1.57.57,0,0h-.1l.81.37h0l.48-.17,1.23-.45c.09,0,.08,0,0-.07l-.74-.33" fill="#03a8f4"/>
              <path d="M32.59,8.73l-.35.13L31.77,9l.76.34a.17.17,0,0,0,.12,0l.84-.31-.74-.34a.22.22,0,0,0-.16,0" fill="#000001"/>
              <path d="M23.89,9.89h0l-.89.33h0a.16.16,0,0,1,.11,0l.71.31.39-.14.4-.14c.06,0,.08,0,0-.07l-.74-.34h0" fill="#03a8f4"/>
              <path d="M23.43,13.41s0,0,0,0l0,0-.76.27.76.35h0l.09,0,.08,0,.42-.14.32-.13h0l-.07,0-.54-.24s-.05,0,0,0l-.12,0h-.05" fill="#03a8f4"/>
              <path d="M21.69,14l.63.29s.08,0,.08,0,.07,0,.13,0h0s0,0,0,0l.05,0,.72-.26-.76-.35h0l-.86.31h0" fill="#2195f2"/>
              <path d="M30.58,11.46l-2.7,1h0l.69.32s.07,0,.07,0l-4.41,1.61h0l4.45-1.62c-.24-.11-.47-.22-.72-.32-.06,0-.07-.05,0-.08L29.26,12l1.27-.46a.2.2,0,0,1,.17,0l.73.33h0l-.8-.37h-.06" fill="#239dfd"/>
              <path d="M27.22,7.34l-3,1.11-.11,0h0l.1,0h0l.69.31s-.05,0-.08,0l-.58-.26c-.06,0-.1,0,0-.07h0l.06,0,.13,0,5.85-2.14.07,0s0,0,0,0l-.12,0-3,1.1" fill="#06b0fc"/>
              <path d="M32.57,10.05c-.1,0-.1.06,0,.1l.53.24a.21.21,0,0,0,.12,0l-.62-.28c-.09,0-.07-.06,0-.09l2-.73L36,8.84l.16-.06h0l-1.76.64-1.76.64h0" fill="#138ded"/>
              <path d="M30.52,11.47l0,0-1.26.45L28,12.4l-.05,0a0,0,0,0,0,0,0l2.7-1h-.06" fill="#138eee"/>
              <path d="M23.83,10.58h0l1.18.54,1.26.56s-.05,0-.08,0l-2.34-1.06" fill="#249bfa"/>
              <path d="M32.44,10.81v0l.66.3s.09,0,0,0l-.73.27h-.05s0,0,0,0l.83-.29s0,0,0-.06l-.74-.33" fill="#239efd"/>
              <path d="M32.75,8h0a.21.21,0,0,1,.12,0l1.52.68s-.05,0-.09-.05L32.87,8l-.09,0h0" fill="#1a91f0"/>
              <path d="M25.85,13.19l-1.52.56h0L26,13.17v0l-.12,0" fill="#229dfe"/>
              <path d="M26,13.17l-1.62.59h.07l0,0,1.44-.52h0s0,0,0,0" fill="#2391ea"/>
              <path d="M31.79,9.05h0l.81.37h0l-.8-.37" fill="#249efe"/>
              <path d="M34.39,8.76l-.9.32h0l.9-.33h0" fill="#1290f3"/>
              <path d="M30.64,11.45l.8.37h0l-.76-.34h-.05" fill="#1691f3"/>
              <path d="M26.24,11.72l-.86.32h0l.86-.31h0" fill="#239ffe"/>
              <path d="M27.9,12.45s0,0,.07.05l.69.31s0,0-.07,0l-.69-.32" fill="#168df0"/>
              <path d="M22.58,13.72h0l.76-.27,0,0s0,0,0,0h0l-.85.31h0" fill="#02b4fe"/>
              <path d="M33.49,9.08l-.83.31h0l.84-.31h0" fill="#239efe"/>
              <path d="M26.14,12.43l-.84.3h0l.83-.3h0" fill="#229ffd"/>
              <path d="M25.41,12.05l.77.35h0s-.05,0-.08-.05l.08.05-.75-.34h0" fill="#239ffe"/>
              <path d="M25.33,12.75l.76.35s0,0,0,0l-.63-.29-.09,0" fill="#229ffd"/>
              <path d="M32.44,10.83s.05,0,.08.05l.54.25a.15.15,0,0,1,.09,0s0,0,0,0l-.66-.3" fill="#2091e9"/>
              <path d="M22.58,14.36s0,0,0,0l.82-.29h0l-.72.26-.05,0" fill="#249ffe"/>
              <path d="M25.45,12.05l.75.34-.08-.05a6.11,6.11,0,0,0-.67-.29" fill="#2091e9"/>
              <path d="M31,8.71h0l.68.3h0L31,8.71" fill="#128def"/>
              <path d="M23.48,14.11h0l.68.31h0l-.69-.31" fill="#1f9cfe"/>
              <path d="M21.67,14h0l.72.33s0,0-.08,0L21.69,14h0" fill="#1c99fd"/>
              <path d="M33.25,10.48l-.73.27h0l.73-.26h0" fill="#259ffe"/>
              <path d="M31.53,11.85h0l.66.3h0l-.67-.3" fill="#219afd"/>
              <path d="M23,10.23l.8.36h0l-.71-.31a.16.16,0,0,0-.11,0" fill="#05aefc"/>
              <path d="M20.18,11.91l-.9.33h0l.76.34s.06,0,0,.05h0l-.84.3h0l.9-.32a0,0,0,0,0,0,0h-.05l-.66-.3,0,0c-.07,0-.05,0,0,0h0l.23-.08.14-.05.28-.11h0a.26.26,0,0,1,.21,0l2.17,1a.19.19,0,0,0,.12,0l-2.28-1s-.09,0-.08-.05h0" fill="#02a6ea"/>
              <path d="M20.2,11.92s.05,0,.08.05l2.28,1h0l-.74-.33-1.64-.74" fill="#05b1fd"/>
              <path d="M22.66,6.37h0l.68.31h0l-.69-.31" fill="#fff"/>
              <path d="M24.47,9l-1.37.51h.07l0,0,1.57-.57,0,0,0,0L24.47,9" fill="#04adfb"/>
              <path d="M20.74,13.69h0L20,14h0s0,0,0,0l.87-.32h-.08" fill="#06b1fd"/>
              <path d="M23.54,8.13s0,0,0,0l.41.18a.2.2,0,0,0,.22,0h0l1.47-.53,1.46-.54,1.47-.53,1.47-.54c.09,0,.1-.05,0-.09A3.92,3.92,0,0,1,29.73,6a.24.24,0,0,0-.23,0h0L26.59,7l-2.89,1-.06,0-.05,0h-.05"/>
              <path d="M30.2,6.21l-6,2.2h0l6-2.2h0"/>
              <path d="M29.44,5.9l-6,2.19h0l6-2.18h0"/>
              <path d="M21.78,13.32s-.05,0,0,0l.81-.3H22.5l-.72.26" fill="#06b1fd"/>
              <path d="M24.53,6.33l-.15,0v0h0l.73-.27-.15,0h0l-.42.15" fill="#fff"/>
              <path d="M20,11.94l-.6.22h0L20,12h0"/>
              <path d="M31.21,6.56h0m-.77-.33.13.07h0l.57.26h0l0,0a.25.25,0,0,1-.12,0l-.65-.3" fill="#03acfe"/>
              <path d="M20.12,12.62l-.9.32h0l.8-.3h0s0,0,0,0" fill="#00affe"/>
              <path d="M21,13.71h0l.7.32h0l-.7-.32" fill="#03acfe"/>
              <path d="M19.39,12.26l0,0,.66.3h.05l-.73-.33" fill="#02adfe"/>
              <path d="M23.6,13.45s0,0,0,0l.54.24.07,0-.65-.3" fill="#05b1fd"/>
            </g>
          </g>
        </g>
      </g>
      <g>
        <polygon points="48.74 10.53 48.59 40.82 24.04 49.76 24.2 19.46 48.74 10.53" fill="#5e90b1"/>
        <g style="isolation: isolate">
          <g clip-path="url(#clip-path-3)">
            <g>
              <path d="M37.63,37.78h0v-.87h0v.87m-7,1.5v-.9h0v.89h0m8.83-4.22h0l.71-.26h0l-.7.26M42,32l.87-.31v0l-.87.31-.81.3v0L42,32m-.88.33V31.3h0v1.06h0m0-1.16v-.89h0v.89h0m1.76-1.66,0,0s0,0,0,0v.11c0,.62,0,1.25,0,1.87a.27.27,0,0,1,0,.15.08.08,0,0,1,0,.05h0L42,32l-.81.3s-.06,0-.06,0c0-.34,0-.67,0-1s0-.66,0-1c0-.07,0-.09.06-.1h0l1.53-.56.11,0m-5.2-2.4c0,.36,0,.71,0,1.07v1c0,.09,0,.13-.1.16l-1.18.42-.47.17h0v1a.12.12,0,0,1-.09.13l-.38.14-.38.14,0,3.08a.21.21,0,0,1,0,.13.08.08,0,0,1,0,0h0l-.82.29v0l.83-.3v0l-.82.29h0v0l0,0a4.8,4.8,0,0,1,0,.85.32.32,0,0,1,0,.13h0a2,2,0,0,1-.34.14l-.15.06-.16,0-.17.06h0c-.06,0-.05,0-.05-.07v-.84s0-.07,0-.11h0c0,.31,0,.62,0,.93,0,.08,0,.12-.09.14l-1,.36-.66.24-.46.18-.41.14h0l.82-.29h0s0,0,.06,0h0l1.66-.61h0l.8-.3v0l-.8.3h0s0,0,0,.08v.83a.13.13,0,0,1,0,.1l-.06,0h0l0,0,0,0a.08.08,0,0,1-.05,0h0l-1.38.5,0,0s0,0-.05,0v0h0a1.61,1.61,0,0,1-.33.15l-.39.13-.09,0a0,0,0,0,1-.06,0l-.79.29h0c-.07,0,0-.08-.05-.11v-.95h0c0,.32,0,.64,0,1a.14.14,0,0,1-.1.16h0l-.21.07-.56.21h0l.38-.13.48-.18.32-.11.48-.18h0c.06,0,.08,0,.08.08,0,.33,0,.65,0,1l.24-.09L35,37.78h0l-4.3,1.56v0h0L35,37.76v-.9s0-.09,0-.13v0s0,0,.05,0l0,0,1.22-.44,1.22-.44,0,0a0,0,0,0,1,0,0s0,0,0,0l0,0v1h0v0c0,.32,0,.65,0,1,0,.08,0,.1.08.08h0l.25-.09.54-.19c0-.32,0-.64,0-1a.23.23,0,0,1,0-.14s0,0,0,0l0,0,.7-.25a.39.39,0,0,0,0-.15c0-.24,0-.47,0-.71,0,0,0-.09,0-.13l0,0a.08.08,0,0,1,0,0h0l.41-.14.3-.12h0c.07,0,.08,0,.08.08,0,.32,0,.64,0,1,0-.4,0-.8,0-1.19,0,0,0-.07,0-.11,0-.24,0-.48,0-.71a.18.18,0,0,1,.12-.2h0L42,33l1.7-.61c0-1.74,0-3.48,0-5.22,0-.1,0-.13-.1-.1h0l-.22.08-.13.05-.31.11h0c-.07,0-.1,0-.1-.1,0-.27,0-.53,0-.8s0-.14-.12-.1l-2.5.91-2.49.9-.06,0a0,0,0,0,1-.06,0c0-.3,0-.6,0-.9v-.14h0" fill="#2195f2"/>
              <path d="M35,37.78l-4.14,1.51-.24.09h0v.92c0,.12,0,.15.12.11l3.52-1.28,2.35-.86c.12,0,.12,0,.12.12v.82c0,.07,0,.1.07.07l.8-.29.8-.29h0c.05,0,.06,0,.06-.1,0-.33,0-.66,0-1h0l-.54.19-.25.09h0c-.06,0-.08,0-.08-.08,0-.32,0-.65,0-1L35,37.78"/>
              <path d="M39.41,35.1a.08.08,0,0,0,0,0c0,.33,0,.65,0,1a.09.09,0,0,1-.07.1l-.79.28a.23.23,0,0,0,0,.14c0,.32,0,.64,0,1h0L40.17,37c.06,0,0,0,0,.06v.89c0,.08,0,.1.08.08l.79-.29.8-.29c.07,0,.08-.06.08-.14v-.85c0-.09,0-.13.1-.16l1.56-.56c.08,0,.09-.06.09-.15v-1l-.15,0-3.23,1.18-.05,0h-.06c0-.31,0-.63,0-1,0-.08,0-.1-.08-.08h0l-.3.12-.41.14h0"/>
              <path d="M45.45,25.37h0l-.53.2-.27.1,0,6.32a.71.71,0,0,1,0,.14v1.09l.73-.27c.14-.06.14-.06.15-.22l0-5.76c0-.51,0-1,0-1.53,0-.06,0-.09-.07-.07"/>
              <path d="M34.25,30.52c-.08,0-.09.07-.09.16,0,1.35,0,2.7,0,4,0,0,0,.09,0,.13h0l.82-.29h0a.08.08,0,0,0,0,0c0-.55,0-1.1,0-1.64s0-1,0-1.56h0V30.24h0l-.25.1-.18.06-.34.12h0"/>
              <path d="M41.18,22.61h0m1.75-1.71h0m-.09-1-.78.29-.79.28h0c-.07,0-.09,0-.09.14,0,.66,0,1.31,0,2,0,0,0,0,0,.06l.78-.27h0a.13.13,0,0,0,.08-.14v-.87a.12.12,0,0,1,.09-.14l.19-.06.6-.23V20c0-.09,0-.12-.09-.09" fill="#fff"/>
              <path d="M28.11,33.83c-.06,0-.07.06-.07.14,0,.4,0,.81,0,1.21,0,.61,0,1.21,0,1.82,0,0,0,.1.05.08h0l.83-.3V33.54l-.39.15-.4.14h0"/>
              <path d="M32.32,32.3h0l-.33.12-.45.16v0c0,.72,0,1.44,0,2.16,0,.32,0,.65,0,1v.07h0l.79-.28h0c.06,0,.08-.05.08-.13,0-1,0-2,0-3,0-.09,0-.1-.09-.08"/>
              <path d="M38.55,22.5h0m.9.65h0v-.89h0v.9m.82-2.35h0l-.8.29-.81.3c-.06,0-.07.05-.07.12,0,.32,0,.65,0,1l.57-.21.2-.07h0c.08,0,.1,0,.1.09,0,.28,0,.56,0,.85,0,.07,0,.1.06.08l0,0a.05.05,0,0,1,0,0l0,0,.67-.25v0s0-.07,0-.1V20.93a.18.18,0,0,1,0-.12h0" fill="#fff"/>
              <path d="M36,27.74a.1.1,0,0,0-.07.11c0,.33,0,.66,0,1h0l1.34-.49.36-.13h0c0-.36,0-.71,0-1.07h0l-1.68.6"/>
              <path d="M29.75,36.46l-.84.3h0l0,2a.61.61,0,0,0,0,.14h0l.56-.21.21-.07h0a.14.14,0,0,0,.1-.16c0-.32,0-.64,0-1h0v-1s0-.09,0-.11"/>
              <path d="M37.82,27v0l5.84-2.12h0L37.82,27m.06-.07c-.08,0-.11,0-.1-.1V26.3c0-.06,0-.1,0-.12h.08l.06,0,2.79-1,2.8-1h0c.09,0,.12,0,.12.11a3.85,3.85,0,0,0,0,.48.15.15,0,0,1-.12.18l-1.41.52-1.42.51-1.42.52-1.42.52h0m-.06-.87h0L43.62,24h0l-5.8,2.11m5.91-2.23,0,0s0,0,0,0h0L37.91,26l0,0h0l-.09,0c-.06,0-.06.06-.06.19,0,.31,0,.61,0,.92h0l.11,0L40.72,26,43.65,25l.11,0h0v-1c0-.08,0-.11-.05-.1"/>
              <path d="M31.51,35.81l-.06,0h0l-.79.29v1.07h0l.41-.14.46-.18V35.82h0"/>
              <path d="M43.77,33.51s0,.05,0,.09v1l.67-.25.12,0h0c.06,0,.08,0,.08-.12v-1l-.31.1-.19.08-.13.05-.19.06h0"/>
              <path d="M29.72,32.17l-.37.14-.36.13c-.06,0-.08,0-.07.12,0,.32,0,.65,0,1l.87-.32c0-.32,0-.65,0-1,0-.08,0-.09-.07-.07"/>
              <path d="M30.55,38.32h0l-.48.18-.32.11v1c0,.09,0,.11.08.09h0l.21-.07.57-.21h0c0-.33,0-.65,0-1,0-.08,0-.1-.08-.08"/>
              <path d="M44.6,24.61l-.82.3c0,.36,0,.72,0,1.07l.87-.31v-1s0-.1,0-.07"/>
              <path d="M35.09,29.14s-.05,0-.05.09c0,.34,0,.67,0,1h0l.87-.32c0-.36,0-.71,0-1.07h0l-.82.29"/>
              <path d="M29.78,33.23V34.3l.81-.29h0c.06,0,.06-.06.06-.11v-1l-.87.32"/>
              <path d="M38.55,22.5l-.54.2-.25.09c-.06,0-.08,0-.08.12v.9c0,.06,0,.08.06.06l.37-.13.38-.14h0s.06,0,.06-.09v-1m0,0h0" fill="#fff"/>
              <path d="M42.93,20.9c0,.34,0,.67,0,1,0,.07,0,.07.07.05l.4-.15.33-.11c.06,0,.07-.05.07-.12,0-.29,0-.58,0-.87,0-.1,0-.11-.09-.09h0l-.24.08-.53.19m0,0h0" fill="#fff"/>
              <path d="M34.13,34.86h0l-.78.29h0a.08.08,0,0,0-.05.06h0s0,.08,0,.11v.84s0,.1.05.07h0l.17-.06.16,0,.15-.06a2,2,0,0,0,.34-.14c0-.33,0-.66,0-1v0h0v0h0"/>
              <path d="M41.18,22.62l-.89.32v.74a1.69,1.69,0,0,0,0,.32c0-.3,0-.6,0-.9a.17.17,0,0,1,0-.12h0l0,0,.14-.05.4-.14.11,0-.11,0,.14,0-.71.26h0v1l.75-.26h0c.08,0,.09-.06.09-.15,0-.32,0-.64,0-1m-.89.32h0m.89-.33h0" fill="#fff"/>
              <path d="M31.45,31.55h0a.19.19,0,0,1-.11.07l-.07,0-.08,0-.16.06-.14.05h0a.16.16,0,0,0-.09.16c0,.25,0,.49,0,.74,0,.06,0,.1.08.07h0l.21-.09.26-.09h0a.15.15,0,0,0,.1-.15,6,6,0,0,1,0-.84l0,0"/>
              <path d="M30.83,32.81h0l.58-.21v0l-.57.2m.67-1.29h0l0,0h0l0,0a6,6,0,0,0,0,.84.15.15,0,0,1-.1.15h0l-.26.09-.21.09h0c-.06,0-.08,0-.08-.07,0-.25,0-.49,0-.74a.16.16,0,0,1,.09-.16h0l.14-.05.16-.06.08,0,.07,0a.19.19,0,0,0,.11-.07l-.68.25h0c-.07,0-.08.06-.08.14,0,.32,0,.65,0,1l.88-.32v-.91s0-.08,0-.14,0,0,0,0"/>
              <path d="M40.3,20.81a.18.18,0,0,0,0,.12v1.84s0,.08,0,.1c0-.6,0-1.19,0-1.79,0-.09,0-.18,0-.27" fill="#fff"/>
              <path d="M40.33,23h0a.17.17,0,0,0,0,.12c0,.3,0,.6,0,.9h0V23h0" fill="#fff"/>
              <path d="M40.29,22.94h0m-.72.24a.05.05,0,0,0,0,0l.38-.13.39-.15v0l-.67.25,0,0" fill="#fff"/>
              <path d="M31.53,31.54c0,.06,0,.11,0,.14v-.14"/>
              <path d="M37.68,27.26v0m6.1-2.35h0a.13.13,0,0,1-.06,0l-.06,0L38,27.05l-.14.06h-.08c-.06,0-.06.08-.06.16,0,.25,0,.51,0,.76,0,0,0,.09,0,.13a0,0,0,0,0,.06,0l.06,0,2.49-.9,2.5-.91c.09,0,.13,0,.12.1s0,.53,0,.8c0,.11,0,.12.1.1h0l.31-.11.13-.05.22-.08h0c.08,0,.1,0,.1.1,0,1.74,0,3.48,0,5.22v0h0l.86-.31a.71.71,0,0,0,0-.14l0-6.32-.87.31h0l0,0s0,0,0,0c0-.25,0-.51,0-.76v0a1.15,1.15,0,0,1,0-.19c0,.28,0,.57,0,.85,0,0,0,.1,0,.12h0c0-.35,0-.71,0-1.07" fill="#03a8f4"/>
              <path d="M43.74,32.44l-.16.06L42.29,33l-1.94.7c-.09,0-.12.07-.11.19,0,.27,0,.54,0,.81s0,.79,0,1.19h.06l.05,0,3.23-1.18.15,0h0v-1s0-.07,0-.09h0l.19-.06.13-.05.19-.08.31-.1h0V32.13l-.86.31h0" fill="#fefefe"/>
              <path d="M29.78,33.22h0l-.87.32h0v3.23h0s0,0,.06,0h0l.71-.26h0s0,0,.06,0,0,.07,0,.11v1h0v-.93h0v.92h0l.83-.3h0V36.14a.08.08,0,0,1,.05,0l.7-.25s0,0,0,0h0l.06,0v-.07h0s0-.08,0-.13c0-.95,0-1.9,0-2.85,0-.1,0-.14-.1-.11h0l-.27.1-.14,0-.22.08h0s0,0,0,.08v1a.21.21,0,0,1,0,.06l0,0h0l-.78.29s0,0,0,0V33.23h0" fill="#03a8f4"/>
              <path d="M42.86,29.54l-.11,0-1.53.56h0s-.06,0-.06.1c0,.33,0,.66,0,1l.45-.16.34-.13c.07,0,.08,0,.08.07,0,.33,0,.66,0,1l.82-.29h0a.08.08,0,0,0,0-.05c0-.67,0-1.33,0-2,0-.05,0-.1,0-.13" fill="#fefefe"/>
              <path d="M37.53,35.79l-1.22.44-1.22.45c-.08,0-.09.06-.09.15,0,.31,0,.62,0,.94h0l2.61-.94v0c0-.32,0-.63,0-1,0-.08,0-.1-.09-.07" fill="#fefefe"/>
              <path d="M31.56,36.89s0,0-.06,0a.33.33,0,0,1,0,.14V38h0L33,37.43l.11,0,0,0h0l.06,0c0-.34,0-.67,0-1h0v0h0l-1.66.61h0"/>
              <path d="M37.65,28.21h0a.08.08,0,0,1-.05.05h0L36,28.83l0,0s0,0,0,0h0c0,.36,0,.71,0,1.07h0l.47-.17,1.18-.42c.09,0,.1-.07.1-.16v-1" fill="#03a8f4"/>
              <path d="M41.92,31l-.34.13-.45.16c0,.34,0,.67,0,1,0,.06,0,.07.06,0L42,32c0-.32,0-.65,0-1,0-.07,0-.09-.08-.07" fill="#000001"/>
              <path d="M35.9,29.92h0l-.87.32h0v0s0,.08,0,.12v.93l.38-.14.38-.14a.12.12,0,0,0,.09-.13v-1h0" fill="#03a8f4"/>
              <path d="M31.46,36.94a.1.1,0,0,1-.05,0h0l-.74.27v1a0,0,0,0,0,.06,0l.09,0,.39-.13A1.61,1.61,0,0,0,31.5,38v0s0,0,0-.07v-.71a.13.13,0,0,1,0-.08.33.33,0,0,0,0-.14h0" fill="#03a8f4"/>
              <path d="M29.8,37.51c0,.28,0,.56,0,.83,0,0,0,.09,0,.13s0,.13.05.11h0s0,0,0,0h.05l.7-.26v-1h0l-.83.3h0" fill="#2195f2"/>
              <path d="M37.59,35.75,35,36.7v.94a.18.18,0,0,1,0,.12L30.7,39.31h0v0L35,37.77c0-.32,0-.63,0-.94,0-.09,0-.13.09-.15l1.22-.45,1.22-.44c.07,0,.09,0,.09.07,0,.32,0,.63,0,1h0V35.76s0,0,0,0" fill="#239dfd"/>
              <path d="M40.72,26l-2.93,1.07-.11,0h0v.14c0,.3,0,.6,0,.9,0,0,0-.09,0-.13,0-.25,0-.51,0-.76,0-.08,0-.14.06-.16h.08l.14-.06L43.64,25l.06,0a.13.13,0,0,0,.06,0l-.11,0L40.72,26" fill="#06b0fc"/>
              <path d="M40.33,33.65a.18.18,0,0,0-.12.2c0,.23,0,.47,0,.71,0,0,0,.09,0,.11,0-.27,0-.54,0-.81,0-.12,0-.15.11-.19l1.94-.7,1.29-.47.16-.06h0v0L42,33l-1.7.62h0" fill="#138ded"/>
              <path d="M37.55,35.74l0,0-1.22.44-1.22.44,0,0s0,0-.05,0l2.61-1a0,0,0,0,0,0,0" fill="#138eee"/>
              <path d="M35.05,31.31h0c0,.52,0,1,0,1.56s0,1.09,0,1.64a.21.21,0,0,0,0-.13l0-3.08" fill="#249bfa"/>
              <path d="M39.36,35.15l0,0c0,.28,0,.57,0,.86,0,0,0,.09,0,.13l-.7.25,0,0s0,0,0,0l.79-.28a.09.09,0,0,0,.07-.1c0-.32,0-.64,0-1" fill="#239efd"/>
              <path d="M42.88,29.52l0,0s0,.08,0,.13c0,.66,0,1.32,0,2a.27.27,0,0,0,0-.15c0-.62,0-1.25,0-1.87v-.11s0,0,0,0" fill="#1a91f0"/>
              <path d="M33,37.43,31.54,38v0l1.56-.57,0,0-.11,0" fill="#229dfe"/>
              <path d="M33.1,37.43,31.54,38s0,0,.05,0l0,0,1.38-.5h0a.08.08,0,0,0,.05,0" fill="#2391ea"/>
              <path d="M41.11,31.3h0v1.06h0V31.3" fill="#249efe"/>
              <path d="M42.85,31.72,42,32v0l.87-.31v0" fill="#1290f3"/>
              <path d="M37.63,35.76v1.05h0v-1l0,0" fill="#1691f3"/>
              <path d="M35,34.58l-.83.3v0h0l.82-.29v0" fill="#239ffe"/>
              <path d="M35,36.73s0,.08,0,.13v.9a.18.18,0,0,0,0-.12v-.91" fill="#168df0"/>
              <path d="M30.63,37.23v0l.74-.27h0a.1.1,0,0,0,.05,0h0l-.82.29h0" fill="#02b4fe"/>
              <path d="M42,32l-.81.3v0l.81-.3v0" fill="#239efe"/>
              <path d="M34.07,36l-.8.3v0h0l.8-.3v0" fill="#229ffd"/>
              <path d="M34.14,34.93c0,.34,0,.67,0,1h0a.32.32,0,0,0,0-.13s0,.09,0,.13V35l0,0" fill="#239ffe"/>
              <path d="M33.26,36.32c0,.34,0,.67,0,1a.13.13,0,0,0,0-.1V36.4s0-.06,0-.08" fill="#229ffd"/>
              <path d="M39.34,35.19s0,.09,0,.13c0,.24,0,.47,0,.71a.39.39,0,0,1,0,.15c.06,0,0-.09,0-.13,0-.29,0-.58,0-.86" fill="#2091e9"/>
              <path d="M29.88,38.53s0,0,0,0l.79-.29v0l-.7.26h-.05" fill="#249ffe"/>
              <path d="M34.16,35v1s0-.09,0-.13a4.8,4.8,0,0,0,0-.85" fill="#2091e9"/>
              <path d="M41.11,30.31h0v.89h0v-.89" fill="#128def"/>
              <path d="M30.66,38.38h0v.9h0v-.89" fill="#1f9cfe"/>
              <path d="M29.78,37.52h0v.95s0-.08,0-.13c0-.27,0-.55,0-.83h0" fill="#1c99fd"/>
              <path d="M40.19,34.79l-.71.26h0l.7-.26h0" fill="#259ffe"/>
              <path d="M37.64,36.91h0v.87h0v-.87" fill="#219afd"/>
              <path d="M35,30.26v1.06h0v-.93s0-.09,0-.12" fill="#05aefc"/>
              <path d="M31.53,32.59l-.88.32h0v1c0,.05,0,.09-.06.11h0l-.81.29v0l.87-.31a.21.21,0,0,0,0-.06l0,0c0-.29,0-.58,0-.87v0c0-.05,0-.07,0-.08h0l.22-.08.14,0,.27-.1h0c.08,0,.1,0,.1.11,0,.95,0,1.9,0,2.85,0,.05,0,.1,0,.13,0-1,0-2,0-3,0,0,0-.09,0-.15v0" fill="#02a6ea"/>
              <path d="M31.53,32.61c0,.06,0,.1,0,.15,0,1,0,2,0,3h0c0-.32,0-.65,0-1,0-.72,0-1.44,0-2.16" fill="#05b1fd"/>
              <path d="M39.46,22.25h0v.89h0v-.9" fill="#fff"/>
              <path d="M37.27,28.35l-1.34.49s0,0,0,0l0,0,1.52-.55h0a.08.08,0,0,0,.05-.05l-.36.13" fill="#04adfb"/>
              <path d="M29.69,36.45h0l-.71.26h0s0,0-.06,0l.84-.3s0,0-.06,0" fill="#06b1fd"/>
              <path d="M37.83,26.18s0,.06,0,.12v.54c0,.11,0,.13.1.1h0l1.42-.52,1.42-.52,1.42-.51,1.41-.52a.15.15,0,0,0,.12-.18,3.85,3.85,0,0,1,0-.48c0-.12,0-.14-.12-.11h0l-2.8,1-2.79,1-.06,0h-.08"/>
              <path d="M43.66,24.87,37.82,27v0l5.83-2.13h0"/>
              <path d="M43.62,24l-5.79,2.11h0L43.62,24h0"/>
              <path d="M30.69,36.09a.08.08,0,0,0-.05,0l.79-.29s0,0,0,0l-.7.25" fill="#06b1fd"/>
              <path d="M40.5,22.89l-.14.05,0,0h0l.71-.26-.14,0h0l-.4.14" fill="#fff"/>
              <path d="M31.41,32.59l-.58.21h0l.57-.2v0"/>
              <path d="M43.77,26h0m0-1a1.15,1.15,0,0,0,0,.19h0c0,.25,0,.51,0,.76,0,0,0,0,0,0l0,0s0-.08,0-.12c0-.28,0-.57,0-.85" fill="#03acfe"/>
              <path d="M30.65,34l-.87.31s0,0,0,0l.78-.29h0l0,0" fill="#00affe"/>
              <path d="M29.8,36.59h0v.93h0v-.92" fill="#03acfe"/>
              <path d="M30.69,33v0c0,.29,0,.58,0,.87l0,0V33" fill="#02adfe"/>
              <path d="M31.5,37.08a.13.13,0,0,0,0,.08v.71s0,.06,0,.07v-.86" fill="#05b1fd"/>
            </g>
          </g>
        </g>
      </g>
    </g>
  </g>
  <g>
    <rect x="46.2" y="41.66" width="1.52" height="1.52" fill="#fff"/>
    <rect x="46.2" y="40.15" width="1.52" height="1.51" fill="#fff"/>
    <rect x="46.2" y="8.34" width="1.52" height="1.52" fill="#fff"/>
    <rect x="46.2" y="6.82" width="1.52" height="1.51" fill="#fff"/>
    <rect x="44.69" y="43.18" width="1.51" height="1.51" fill="#fff"/>
    <rect x="44.69" y="41.66" width="1.51" height="1.52" fill="#ef5454"/>
    <rect x="44.69" y="40.15" width="1.51" height="1.51" fill="#ef5454"/>
    <rect x="44.69" y="38.63" width="1.51" height="1.52" fill="#fff"/>
    <rect x="44.69" y="9.85" width="1.51" height="1.51" fill="#fff"/>
    <rect x="44.69" y="8.34" width="1.51" height="1.52" fill="#aa0707"/>
    <rect x="44.69" y="6.82" width="1.51" height="1.51" fill="#ef5454"/>
    <rect x="44.69" y="5.31" width="1.51" height="1.52" fill="#fff"/>
    <rect x="43.18" y="44.69" width="1.52" height="1.52" fill="#fff"/>
    <rect x="43.18" y="43.18" width="1.52" height="1.51" fill="#aa0707"/>
    <rect x="43.18" y="41.66" width="1.52" height="1.52" fill="#cc1d1d"/>
    <rect x="43.18" y="40.15" width="1.52" height="1.51" fill="#cc1d1d"/>
    <rect x="43.18" y="38.63" width="1.52" height="1.52" fill="#ef5454"/>
    <rect x="43.18" y="37.12" width="1.52" height="1.51" fill="#fff"/>
    <rect x="43.18" y="11.37" width="1.52" height="1.52" fill="#fff"/>
    <rect x="43.18" y="9.85" width="1.52" height="1.51" fill="#aa0707"/>
    <rect x="43.18" y="8.34" width="1.52" height="1.52" fill="#cc1d1d"/>
    <rect x="43.18" y="6.82" width="1.52" height="1.51" fill="#cc1d1d"/>
    <rect x="43.18" y="5.31" width="1.52" height="1.52" fill="#ef5454"/>
    <rect x="43.18" y="3.8" width="1.52" height="1.51" fill="#fff"/>
    <rect x="41.66" y="46.21" width="1.51" height="1.51" fill="#fff"/>
    <rect x="41.66" y="44.69" width="1.51" height="1.52" fill="#aa0707"/>
    <rect x="41.66" y="43.18" width="1.51" height="1.51" fill="#cc1d1d"/>
    <rect x="41.66" y="41.66" width="1.51" height="1.52" fill="#cc1d1d"/>
    <rect x="41.66" y="40.15" width="1.51" height="1.51" fill="#cc1d1d"/>
    <rect x="41.66" y="38.63" width="1.51" height="1.52" fill="#cc1d1d"/>
    <rect x="41.66" y="37.12" width="1.51" height="1.51" fill="#ef5454"/>
    <rect x="41.66" y="35.6" width="1.51" height="1.52" fill="#fff"/>
    <rect x="41.66" y="12.88" width="1.51" height="1.51" fill="#fff"/>
    <rect x="41.66" y="11.37" width="1.51" height="1.52" fill="#aa0707"/>
    <rect x="41.66" y="9.85" width="1.51" height="1.51" fill="#cc1d1d"/>
    <rect x="41.66" y="8.34" width="1.51" height="1.52" fill="#cc1d1d"/>
    <rect x="41.66" y="6.82" width="1.51" height="1.51" fill="#cc1d1d"/>
    <rect x="41.66" y="5.31" width="1.51" height="1.52" fill="#cc1d1d"/>
    <rect x="41.66" y="3.8" width="1.51" height="1.51" fill="#ef5454"/>
    <rect x="41.66" y="2.28" width="1.51" height="1.52" fill="#fff"/>
    <rect x="40.15" y="46.21" width="1.52" height="1.51" fill="#fff"/>
    <rect x="40.15" y="44.69" width="1.52" height="1.52" fill="#aa0707"/>
    <rect x="40.15" y="43.18" width="1.52" height="1.51" fill="#cc1d1d"/>
    <rect x="40.15" y="41.66" width="1.52" height="1.52" fill="#cc1d1d"/>
    <rect x="40.15" y="40.15" width="1.52" height="1.51" fill="#cc1d1d"/>
    <rect x="40.15" y="38.63" width="1.52" height="1.52" fill="#cc1d1d"/>
    <rect x="40.15" y="37.12" width="1.52" height="1.51" fill="#cc1d1d"/>
    <rect x="40.15" y="35.6" width="1.52" height="1.52" fill="#ef5454"/>
    <rect x="40.15" y="34.09" width="1.52" height="1.51" fill="#fff"/>
    <rect x="40.15" y="14.4" width="1.52" height="1.52" fill="#fff"/>
    <rect x="40.15" y="12.88" width="1.52" height="1.51" fill="#aa0707"/>
    <rect x="40.15" y="11.37" width="1.52" height="1.52" fill="#cc1d1d"/>
    <rect x="40.15" y="9.85" width="1.52" height="1.51" fill="#cc1d1d"/>
    <rect x="40.15" y="8.34" width="1.52" height="1.52" fill="#cc1d1d"/>
    <rect x="40.15" y="6.82" width="1.52" height="1.51" fill="#cc1d1d"/>
    <rect x="40.15" y="5.31" width="1.52" height="1.52" fill="#cc1d1d"/>
    <rect x="40.15" y="3.8" width="1.52" height="1.51" fill="#ef5454"/>
    <rect x="40.15" y="2.28" width="1.52" height="1.52" fill="#fff"/>
    <rect x="38.63" y="44.69" width="1.51" height="1.52" fill="#fff"/>
    <rect x="38.63" y="43.18" width="1.51" height="1.51" fill="#aa0707"/>
    <rect x="38.63" y="41.66" width="1.51" height="1.52" fill="#cc1d1d"/>
    <rect x="38.63" y="40.15" width="1.51" height="1.51" fill="#cc1d1d"/>
    <rect x="38.63" y="38.63" width="1.51" height="1.52" fill="#cc1d1d"/>
    <rect x="38.63" y="37.12" width="1.51" height="1.51" fill="#cc1d1d"/>
    <rect x="38.63" y="35.6" width="1.51" height="1.52" fill="#cc1d1d"/>
    <rect x="38.63" y="34.09" width="1.51" height="1.51" fill="#ef5454"/>
    <rect x="38.63" y="32.57" width="1.51" height="1.51" fill="#fff"/>
    <rect x="38.63" y="15.91" width="1.51" height="1.51" fill="#fff"/>
    <rect x="38.63" y="14.4" width="1.51" height="1.52" fill="#aa0707"/>
    <rect x="38.63" y="12.88" width="1.51" height="1.51" fill="#cc1d1d"/>
    <rect x="38.63" y="11.37" width="1.51" height="1.52" fill="#cc1d1d"/>
    <rect x="38.63" y="9.85" width="1.51" height="1.51" fill="#cc1d1d"/>
    <rect x="38.63" y="8.34" width="1.51" height="1.52" fill="#cc1d1d"/>
    <rect x="38.63" y="6.82" width="1.51" height="1.51" fill="#cc1d1d"/>
    <rect x="38.63" y="5.31" width="1.51" height="1.52" fill="#ef5454"/>
    <rect x="38.63" y="3.8" width="1.51" height="1.51" fill="#fff"/>
    <rect x="37.12" y="43.18" width="1.52" height="1.51" fill="#fff"/>
    <rect x="37.12" y="41.66" width="1.52" height="1.52" fill="#aa0707"/>
    <rect x="37.12" y="40.15" width="1.52" height="1.51" fill="#cc1d1d"/>
    <rect x="37.12" y="38.63" width="1.52" height="1.52" fill="#cc1d1d"/>
    <rect x="37.12" y="37.12" width="1.52" height="1.51" fill="#cc1d1d"/>
    <rect x="37.12" y="35.6" width="1.52" height="1.52" fill="#cc1d1d"/>
    <rect x="37.12" y="34.09" width="1.52" height="1.51" fill="#cc1d1d"/>
    <rect x="37.12" y="32.57" width="1.52" height="1.51" fill="#ef5454"/>
    <rect x="37.12" y="31.06" width="1.52" height="1.52" fill="#fff"/>
    <rect x="37.12" y="17.43" width="1.52" height="1.51" fill="#fff"/>
    <rect x="37.12" y="15.91" width="1.52" height="1.51" fill="#aa0707"/>
    <rect x="37.12" y="14.4" width="1.52" height="1.52" fill="#cc1d1d"/>
    <rect x="37.12" y="12.88" width="1.52" height="1.51" fill="#cc1d1d"/>
    <rect x="37.12" y="11.37" width="1.52" height="1.52" fill="#cc1d1d"/>
    <rect x="37.12" y="9.85" width="1.52" height="1.51" fill="#cc1d1d"/>
    <rect x="37.12" y="8.34" width="1.52" height="1.52" fill="#cc1d1d"/>
    <rect x="37.12" y="6.82" width="1.52" height="1.51" fill="#ef5454"/>
    <rect x="37.12" y="5.31" width="1.52" height="1.52" fill="#fff"/>
    <rect x="35.6" y="41.66" width="1.51" height="1.52" fill="#fff"/>
    <rect x="35.6" y="40.15" width="1.51" height="1.51" fill="#aa0707"/>
    <rect x="35.6" y="38.63" width="1.51" height="1.52" fill="#cc1d1d"/>
    <rect x="35.6" y="37.12" width="1.51" height="1.51" fill="#cc1d1d"/>
    <rect x="35.6" y="35.6" width="1.51" height="1.52" fill="#cc1d1d"/>
    <rect x="35.6" y="34.09" width="1.51" height="1.51" fill="#cc1d1d"/>
    <rect x="35.6" y="32.57" width="1.51" height="1.51" fill="#cc1d1d"/>
    <rect x="35.6" y="31.06" width="1.51" height="1.52" fill="#ef5454"/>
    <rect x="35.6" y="29.54" width="1.51" height="1.51" fill="#fff"/>
    <rect x="35.6" y="18.94" width="1.51" height="1.52" fill="#fff"/>
    <rect x="35.6" y="17.43" width="1.51" height="1.51" fill="#aa0707"/>
    <rect x="35.6" y="15.91" width="1.51" height="1.51" fill="#cc1d1d"/>
    <rect x="35.6" y="14.4" width="1.51" height="1.52" fill="#cc1d1d"/>
    <rect x="35.6" y="12.88" width="1.51" height="1.51" fill="#cc1d1d"/>
    <rect x="35.6" y="11.37" width="1.51" height="1.52" fill="#cc1d1d"/>
    <rect x="35.6" y="9.85" width="1.51" height="1.51" fill="#cc1d1d"/>
    <rect x="35.6" y="8.34" width="1.51" height="1.52" fill="#ef5454"/>
    <rect x="35.6" y="6.82" width="1.51" height="1.51" fill="#fff"/>
    <rect x="34.09" y="40.15" width="1.52" height="1.51" fill="#fff"/>
    <rect x="34.09" y="38.63" width="1.52" height="1.52" fill="#aa0707"/>
    <rect x="34.09" y="37.12" width="1.52" height="1.51" fill="#cc1d1d"/>
    <rect x="34.09" y="35.6" width="1.52" height="1.52" fill="#cc1d1d"/>
    <rect x="34.09" y="34.09" width="1.52" height="1.51" fill="#cc1d1d"/>
    <rect x="34.09" y="32.57" width="1.52" height="1.51" fill="#cc1d1d"/>
    <rect x="34.09" y="31.06" width="1.52" height="1.52" fill="#cc1d1d"/>
    <rect x="34.09" y="29.54" width="1.52" height="1.51" fill="#ef5454"/>
    <rect x="34.09" y="28.03" width="1.52" height="1.52" fill="#fff"/>
    <rect x="34.09" y="20.46" width="1.52" height="1.51" fill="#fff"/>
    <rect x="34.09" y="18.94" width="1.52" height="1.52" fill="#aa0707"/>
    <rect x="34.09" y="17.43" width="1.52" height="1.51" fill="#cc1d1d"/>
    <rect x="34.09" y="15.91" width="1.52" height="1.51" fill="#cc1d1d"/>
    <rect x="34.09" y="14.4" width="1.52" height="1.52" fill="#cc1d1d"/>
    <rect x="34.09" y="12.88" width="1.52" height="1.51" fill="#cc1d1d"/>
    <rect x="34.09" y="11.37" width="1.52" height="1.52" fill="#cc1d1d"/>
    <rect x="34.09" y="9.85" width="1.52" height="1.51" fill="#ef5454"/>
    <rect x="34.09" y="8.34" width="1.52" height="1.52" fill="#fff"/>
    <rect x="32.57" y="38.63" width="1.51" height="1.52" fill="#fff"/>
    <rect x="32.57" y="37.12" width="1.51" height="1.51" fill="#aa0707"/>
    <rect x="32.57" y="35.6" width="1.51" height="1.52" fill="#cc1d1d"/>
    <rect x="32.57" y="34.09" width="1.51" height="1.51" fill="#cc1d1d"/>
    <rect x="32.57" y="32.57" width="1.51" height="1.51" fill="#cc1d1d"/>
    <rect x="32.57" y="31.06" width="1.51" height="1.52" fill="#cc1d1d"/>
    <rect x="32.57" y="29.54" width="1.51" height="1.51" fill="#cc1d1d"/>
    <rect x="32.57" y="28.03" width="1.51" height="1.52" fill="#ef5454"/>
    <rect x="32.57" y="26.51" width="1.51" height="1.51" fill="#fff"/>
    <rect x="32.57" y="21.97" width="1.51" height="1.52" fill="#fff"/>
    <rect x="32.57" y="20.46" width="1.51" height="1.51" fill="#aa0707"/>
    <rect x="32.57" y="18.94" width="1.51" height="1.52" fill="#cc1d1d"/>
    <rect x="32.57" y="17.43" width="1.51" height="1.51" fill="#cc1d1d"/>
    <rect x="32.57" y="15.91" width="1.51" height="1.51" fill="#cc1d1d"/>
    <rect x="32.57" y="14.4" width="1.51" height="1.52" fill="#cc1d1d"/>
    <rect x="32.57" y="12.88" width="1.51" height="1.51" fill="#cc1d1d"/>
    <rect x="32.57" y="11.37" width="1.51" height="1.52" fill="#ef5454"/>
    <rect x="32.57" y="9.85" width="1.51" height="1.51" fill="#fff"/>
    <rect x="31.06" y="37.12" width="1.51" height="1.51" fill="#fff"/>
    <rect x="31.06" y="35.6" width="1.51" height="1.52" fill="#aa0707"/>
    <rect x="31.06" y="34.09" width="1.51" height="1.51" fill="#cc1d1d"/>
    <rect x="31.06" y="32.57" width="1.51" height="1.51" fill="#cc1d1d"/>
    <rect x="31.06" y="31.06" width="1.51" height="1.52" fill="#cc1d1d"/>
    <rect x="31.06" y="29.54" width="1.51" height="1.51" fill="#cc1d1d"/>
    <rect x="31.06" y="28.03" width="1.51" height="1.52" fill="#cc1d1d"/>
    <rect x="31.06" y="26.51" width="1.51" height="1.51" fill="#ef5454"/>
    <rect x="31.06" y="25" width="1.51" height="1.52" fill="#fff"/>
    <rect x="31.06" y="23.49" width="1.51" height="1.51" fill="#fff"/>
    <rect x="31.06" y="21.97" width="1.51" height="1.52" fill="#aa0707"/>
    <rect x="31.06" y="20.46" width="1.51" height="1.51" fill="#cc1d1d"/>
    <rect x="31.06" y="18.94" width="1.51" height="1.52" fill="#cc1d1d"/>
    <rect x="31.06" y="17.43" width="1.51" height="1.51" fill="#cc1d1d"/>
    <rect x="31.06" y="15.91" width="1.51" height="1.51" fill="#cc1d1d"/>
    <rect x="31.06" y="14.4" width="1.51" height="1.52" fill="#cc1d1d"/>
    <rect x="31.06" y="12.88" width="1.51" height="1.51" fill="#ef5454"/>
    <rect x="31.06" y="11.37" width="1.51" height="1.52" fill="#fff"/>
    <rect x="29.54" y="35.6" width="1.52" height="1.52" fill="#fff"/>
    <rect x="29.54" y="34.09" width="1.52" height="1.51" fill="#aa0707"/>
    <rect x="29.54" y="32.57" width="1.52" height="1.51" fill="#cc1d1d"/>
    <rect x="29.54" y="31.06" width="1.52" height="1.52" fill="#cc1d1d"/>
    <rect x="29.54" y="29.54" width="1.52" height="1.51" fill="#cc1d1d"/>
    <rect x="29.54" y="28.03" width="1.52" height="1.52" fill="#cc1d1d"/>
    <rect x="29.54" y="26.51" width="1.52" height="1.51" fill="#cc1d1d"/>
    <rect x="29.54" y="25" width="1.52" height="1.52" fill="#aa0707"/>
    <rect x="29.54" y="23.49" width="1.52" height="1.51" fill="#aa0707"/>
    <rect x="29.54" y="21.97" width="1.52" height="1.52" fill="#cc1d1d"/>
    <rect x="29.54" y="20.46" width="1.52" height="1.51" fill="#cc1d1d"/>
    <rect x="29.54" y="18.94" width="1.52" height="1.52" fill="#cc1d1d"/>
    <rect x="29.54" y="17.43" width="1.52" height="1.51" fill="#cc1d1d"/>
    <rect x="29.54" y="15.91" width="1.52" height="1.51" fill="#cc1d1d"/>
    <rect x="29.54" y="14.4" width="1.52" height="1.52" fill="#ef5454"/>
    <rect x="29.54" y="12.88" width="1.52" height="1.51" fill="#fff"/>
    <rect x="28.03" y="34.09" width="1.51" height="1.51" fill="#fff"/>
    <rect x="28.03" y="32.57" width="1.51" height="1.51" fill="#aa0707"/>
    <rect x="28.03" y="31.06" width="1.51" height="1.52" fill="#cc1d1d"/>
    <rect x="28.03" y="29.54" width="1.51" height="1.51" fill="#cc1d1d"/>
    <rect x="28.03" y="28.03" width="1.51" height="1.52" fill="#cc1d1d"/>
    <rect x="28.03" y="26.51" width="1.51" height="1.51" fill="#cc1d1d"/>
    <rect x="28.03" y="25" width="1.51" height="1.52" fill="#cc1d1d"/>
    <rect x="28.03" y="23.49" width="1.51" height="1.51" fill="#cc1d1d"/>
    <rect x="28.03" y="21.97" width="1.51" height="1.52" fill="#cc1d1d"/>
    <rect x="28.03" y="20.46" width="1.51" height="1.51" fill="#cc1d1d"/>
    <rect x="28.03" y="18.94" width="1.51" height="1.52" fill="#cc1d1d"/>
    <rect x="28.03" y="17.43" width="1.51" height="1.51" fill="#cc1d1d"/>
    <rect x="28.03" y="15.91" width="1.51" height="1.51" fill="#ef5454"/>
    <rect x="28.03" y="14.4" width="1.51" height="1.52" fill="#fff"/>
    <rect x="26.51" y="32.57" width="1.52" height="1.51" fill="#fff"/>
    <rect x="26.51" y="31.06" width="1.52" height="1.52" fill="#aa0707"/>
    <rect x="26.51" y="29.54" width="1.52" height="1.51" fill="#cc1d1d"/>
    <rect x="26.51" y="28.03" width="1.52" height="1.52" fill="#cc1d1d"/>
    <rect x="26.51" y="26.51" width="1.52" height="1.51" fill="#cc1d1d"/>
    <rect x="26.51" y="25" width="1.52" height="1.52" fill="#cc1d1d"/>
    <rect x="26.51" y="23.49" width="1.52" height="1.51" fill="#cc1d1d"/>
    <rect x="26.51" y="21.97" width="1.52" height="1.52" fill="#cc1d1d"/>
    <rect x="26.51" y="20.46" width="1.52" height="1.51" fill="#cc1d1d"/>
    <rect x="26.51" y="18.94" width="1.52" height="1.52" fill="#cc1d1d"/>
    <rect x="26.51" y="17.43" width="1.52" height="1.51" fill="#ef5454"/>
    <rect x="26.51" y="15.91" width="1.52" height="1.51" fill="#fff"/>
    <rect x="25" y="31.06" width="1.51" height="1.52" fill="#fff"/>
    <rect x="25" y="29.54" width="1.51" height="1.51" fill="#aa0707"/>
    <rect x="25" y="28.03" width="1.51" height="1.52" fill="#cc1d1d"/>
    <rect x="25" y="26.51" width="1.51" height="1.51" fill="#cc1d1d"/>
    <rect x="25" y="25" width="1.51" height="1.52" fill="#cc1d1d"/>
    <rect x="25" y="23.49" width="1.51" height="1.51" fill="#cc1d1d"/>
    <rect x="25" y="21.97" width="1.51" height="1.52" fill="#cc1d1d"/>
    <rect x="25" y="20.46" width="1.51" height="1.51" fill="#cc1d1d"/>
    <rect x="25" y="18.94" width="1.51" height="1.52" fill="#ef5454"/>
    <rect x="25" y="17.43" width="1.51" height="1.51" fill="#fff"/>
    <rect x="23.49" y="31.06" width="1.52" height="1.52" fill="#fff"/>
    <rect x="23.49" y="29.54" width="1.52" height="1.51" fill="#aa0707"/>
    <rect x="23.49" y="28.03" width="1.52" height="1.52" fill="#cc1d1d"/>
    <rect x="23.49" y="26.51" width="1.52" height="1.51" fill="#cc1d1d"/>
    <rect x="23.49" y="25" width="1.52" height="1.52" fill="#cc1d1d"/>
    <rect x="23.49" y="23.49" width="1.52" height="1.51" fill="#cc1d1d"/>
    <rect x="23.49" y="21.97" width="1.52" height="1.52" fill="#cc1d1d"/>
    <rect x="23.49" y="20.46" width="1.52" height="1.51" fill="#cc1d1d"/>
    <rect x="23.49" y="18.94" width="1.52" height="1.52" fill="#ef5454"/>
    <rect x="23.49" y="17.43" width="1.52" height="1.51" fill="#fff"/>
    <rect x="21.97" y="32.57" width="1.51" height="1.51" fill="#fff"/>
    <rect x="21.97" y="31.06" width="1.51" height="1.52" fill="#aa0707"/>
    <rect x="21.97" y="29.54" width="1.51" height="1.51" fill="#cc1d1d"/>
    <rect x="21.97" y="28.03" width="1.51" height="1.52" fill="#cc1d1d"/>
    <rect x="21.97" y="26.51" width="1.51" height="1.51" fill="#cc1d1d"/>
    <rect x="21.97" y="25" width="1.51" height="1.52" fill="#cc1d1d"/>
    <rect x="21.97" y="23.49" width="1.51" height="1.51" fill="#cc1d1d"/>
    <rect x="21.97" y="21.97" width="1.51" height="1.52" fill="#cc1d1d"/>
    <rect x="21.97" y="20.46" width="1.51" height="1.51" fill="#cc1d1d"/>
    <rect x="21.97" y="18.94" width="1.51" height="1.52" fill="#cc1d1d"/>
    <rect x="21.97" y="17.43" width="1.51" height="1.51" fill="#ef5454"/>
    <rect x="21.97" y="15.91" width="1.51" height="1.51" fill="#fff"/>
    <rect x="20.46" y="34.09" width="1.52" height="1.51" fill="#fff"/>
    <rect x="20.46" y="32.57" width="1.52" height="1.51" fill="#aa0707"/>
    <rect x="20.46" y="31.06" width="1.52" height="1.52" fill="#cc1d1d"/>
    <rect x="20.46" y="29.54" width="1.52" height="1.51" fill="#cc1d1d"/>
    <rect x="20.46" y="28.03" width="1.52" height="1.52" fill="#cc1d1d"/>
    <rect x="20.46" y="26.51" width="1.52" height="1.51" fill="#cc1d1d"/>
    <rect x="20.46" y="25" width="1.52" height="1.52" fill="#cc1d1d"/>
    <rect x="20.46" y="23.49" width="1.52" height="1.51" fill="#cc1d1d"/>
    <rect x="20.46" y="21.97" width="1.52" height="1.52" fill="#cc1d1d"/>
    <rect x="20.46" y="20.46" width="1.52" height="1.51" fill="#cc1d1d"/>
    <rect x="20.46" y="18.94" width="1.52" height="1.52" fill="#cc1d1d"/>
    <rect x="20.46" y="17.43" width="1.52" height="1.51" fill="#cc1d1d"/>
    <rect x="20.46" y="15.91" width="1.52" height="1.51" fill="#ef5454"/>
    <rect x="20.46" y="14.4" width="1.52" height="1.52" fill="#fff"/>
    <rect x="18.94" y="35.6" width="1.51" height="1.52" fill="#fff"/>
    <rect x="18.94" y="34.09" width="1.51" height="1.51" fill="#aa0707"/>
    <rect x="18.94" y="32.57" width="1.51" height="1.51" fill="#cc1d1d"/>
    <rect x="18.94" y="31.06" width="1.51" height="1.52" fill="#cc1d1d"/>
    <rect x="18.94" y="29.54" width="1.51" height="1.51" fill="#cc1d1d"/>
    <rect x="18.94" y="28.03" width="1.51" height="1.52" fill="#cc1d1d"/>
    <rect x="18.94" y="26.51" width="1.51" height="1.51" fill="#cc1d1d"/>
    <rect x="18.94" y="25" width="1.51" height="1.52" fill="#aa0707"/>
    <rect x="18.94" y="23.49" width="1.51" height="1.51" fill="#aa0707"/>
    <rect x="18.94" y="21.97" width="1.51" height="1.52" fill="#cc1d1d"/>
    <rect x="18.94" y="20.46" width="1.51" height="1.51" fill="#cc1d1d"/>
    <rect x="18.94" y="18.94" width="1.51" height="1.52" fill="#cc1d1d"/>
    <rect x="18.94" y="17.43" width="1.51" height="1.51" fill="#cc1d1d"/>
    <rect x="18.94" y="15.91" width="1.51" height="1.51" fill="#cc1d1d"/>
    <rect x="18.94" y="14.4" width="1.51" height="1.52" fill="#ef5454"/>
    <rect x="18.94" y="12.88" width="1.51" height="1.51" fill="#fff"/>
    <rect x="17.43" y="37.12" width="1.52" height="1.51" fill="#fff"/>
    <rect x="17.43" y="35.6" width="1.52" height="1.52" fill="#aa0707"/>
    <rect x="17.43" y="34.09" width="1.52" height="1.51" fill="#cc1d1d"/>
    <rect x="17.43" y="32.57" width="1.52" height="1.51" fill="#cc1d1d"/>
    <rect x="17.43" y="31.06" width="1.52" height="1.52" fill="#cc1d1d"/>
    <rect x="17.43" y="29.54" width="1.52" height="1.51" fill="#cc1d1d"/>
    <rect x="17.43" y="28.03" width="1.52" height="1.52" fill="#cc1d1d"/>
    <rect x="17.43" y="26.51" width="1.52" height="1.51" fill="#ef5454"/>
    <rect x="17.43" y="25" width="1.52" height="1.52" fill="#fff"/>
    <rect x="17.43" y="23.49" width="1.52" height="1.51" fill="#fff"/>
    <rect x="17.43" y="21.97" width="1.52" height="1.52" fill="#aa0707"/>
    <rect x="17.43" y="20.46" width="1.52" height="1.51" fill="#cc1d1d"/>
    <rect x="17.43" y="18.94" width="1.52" height="1.52" fill="#cc1d1d"/>
    <rect x="17.43" y="17.43" width="1.52" height="1.51" fill="#cc1d1d"/>
    <rect x="17.43" y="15.91" width="1.52" height="1.51" fill="#cc1d1d"/>
    <rect x="17.43" y="14.4" width="1.52" height="1.52" fill="#cc1d1d"/>
    <rect x="17.43" y="12.88" width="1.52" height="1.51" fill="#ef5454"/>
    <rect x="17.43" y="11.37" width="1.52" height="1.52" fill="#fff"/>
    <rect x="15.91" y="38.63" width="1.51" height="1.52" fill="#fff"/>
    <rect x="15.91" y="37.12" width="1.51" height="1.51" fill="#aa0707"/>
    <rect x="15.91" y="35.6" width="1.51" height="1.52" fill="#cc1d1d"/>
    <rect x="15.91" y="34.09" width="1.51" height="1.51" fill="#cc1d1d"/>
    <rect x="15.91" y="32.57" width="1.51" height="1.51" fill="#cc1d1d"/>
    <rect x="15.91" y="31.06" width="1.51" height="1.52" fill="#cc1d1d"/>
    <rect x="15.91" y="29.54" width="1.51" height="1.51" fill="#cc1d1d"/>
    <rect x="15.91" y="28.03" width="1.51" height="1.52" fill="#ef5454"/>
    <rect x="15.91" y="26.51" width="1.51" height="1.51" fill="#fff"/>
    <rect x="15.91" y="21.97" width="1.51" height="1.52" fill="#fff"/>
    <rect x="15.91" y="20.46" width="1.51" height="1.51" fill="#aa0707"/>
    <rect x="15.91" y="18.94" width="1.51" height="1.52" fill="#cc1d1d"/>
    <rect x="15.91" y="17.43" width="1.51" height="1.51" fill="#cc1d1d"/>
    <rect x="15.91" y="15.91" width="1.51" height="1.51" fill="#cc1d1d"/>
    <rect x="15.91" y="14.4" width="1.51" height="1.52" fill="#cc1d1d"/>
    <rect x="15.91" y="12.88" width="1.51" height="1.51" fill="#cc1d1d"/>
    <rect x="15.91" y="11.37" width="1.51" height="1.52" fill="#ef5454"/>
    <rect x="15.91" y="9.85" width="1.51" height="1.51" fill="#fff"/>
    <rect x="14.4" y="40.15" width="1.51" height="1.51" fill="#fff"/>
    <rect x="14.4" y="38.63" width="1.51" height="1.52" fill="#aa0707"/>
    <rect x="14.4" y="37.12" width="1.51" height="1.51" fill="#cc1d1d"/>
    <rect x="14.4" y="35.6" width="1.51" height="1.52" fill="#cc1d1d"/>
    <rect x="14.4" y="34.09" width="1.51" height="1.51" fill="#cc1d1d"/>
    <rect x="14.4" y="32.57" width="1.51" height="1.51" fill="#cc1d1d"/>
    <rect x="14.4" y="31.06" width="1.51" height="1.52" fill="#cc1d1d"/>
    <rect x="14.4" y="29.54" width="1.51" height="1.51" fill="#ef5454"/>
    <rect x="14.4" y="28.03" width="1.51" height="1.52" fill="#fff"/>
    <rect x="14.4" y="20.46" width="1.51" height="1.51" fill="#fff"/>
    <rect x="14.4" y="18.94" width="1.51" height="1.52" fill="#aa0707"/>
    <rect x="14.4" y="17.43" width="1.51" height="1.51" fill="#cc1d1d"/>
    <rect x="14.4" y="15.91" width="1.51" height="1.51" fill="#cc1d1d"/>
    <rect x="14.4" y="14.4" width="1.51" height="1.52" fill="#cc1d1d"/>
    <rect x="14.4" y="12.88" width="1.51" height="1.51" fill="#cc1d1d"/>
    <rect x="14.4" y="11.37" width="1.51" height="1.52" fill="#cc1d1d"/>
    <rect x="14.4" y="9.85" width="1.51" height="1.51" fill="#ef5454"/>
    <rect x="14.4" y="8.34" width="1.51" height="1.52" fill="#fff"/>
    <rect x="12.88" y="41.66" width="1.52" height="1.52" fill="#fff"/>
    <rect x="12.88" y="40.15" width="1.52" height="1.51" fill="#aa0707"/>
    <rect x="12.88" y="38.63" width="1.52" height="1.52" fill="#cc1d1d"/>
    <rect x="12.88" y="37.12" width="1.52" height="1.51" fill="#cc1d1d"/>
    <rect x="12.88" y="35.6" width="1.52" height="1.52" fill="#cc1d1d"/>
    <rect x="12.88" y="34.09" width="1.52" height="1.51" fill="#cc1d1d"/>
    <rect x="12.88" y="32.57" width="1.52" height="1.51" fill="#cc1d1d"/>
    <rect x="12.88" y="31.06" width="1.52" height="1.52" fill="#ef5454"/>
    <rect x="12.88" y="29.54" width="1.52" height="1.51" fill="#fff"/>
    <rect x="12.88" y="18.94" width="1.52" height="1.52" fill="#fff"/>
    <rect x="12.88" y="17.43" width="1.52" height="1.51" fill="#aa0707"/>
    <rect x="12.88" y="15.91" width="1.52" height="1.51" fill="#cc1d1d"/>
    <rect x="12.88" y="14.4" width="1.52" height="1.52" fill="#cc1d1d"/>
    <rect x="12.88" y="12.88" width="1.52" height="1.51" fill="#cc1d1d"/>
    <rect x="12.88" y="11.37" width="1.52" height="1.52" fill="#cc1d1d"/>
    <rect x="12.88" y="9.85" width="1.52" height="1.51" fill="#cc1d1d"/>
    <rect x="12.88" y="8.34" width="1.52" height="1.52" fill="#ef5454"/>
    <rect x="12.88" y="6.82" width="1.52" height="1.51" fill="#fff"/>
    <rect x="11.37" y="43.18" width="1.51" height="1.51" fill="#fff"/>
    <rect x="11.37" y="41.66" width="1.51" height="1.52" fill="#aa0707"/>
    <rect x="11.37" y="40.15" width="1.51" height="1.51" fill="#cc1d1d"/>
    <rect x="11.37" y="38.63" width="1.51" height="1.52" fill="#cc1d1d"/>
    <rect x="11.37" y="37.12" width="1.51" height="1.51" fill="#cc1d1d"/>
    <rect x="11.37" y="35.6" width="1.51" height="1.52" fill="#cc1d1d"/>
    <rect x="11.37" y="34.09" width="1.51" height="1.51" fill="#cc1d1d"/>
    <rect x="11.37" y="32.57" width="1.51" height="1.51" fill="#ef5454"/>
    <rect x="11.37" y="31.06" width="1.51" height="1.52" fill="#fff"/>
    <rect x="11.37" y="17.43" width="1.51" height="1.51" fill="#fff"/>
    <rect x="11.37" y="15.91" width="1.51" height="1.51" fill="#aa0707"/>
    <rect x="11.37" y="14.4" width="1.51" height="1.52" fill="#cc1d1d"/>
    <rect x="11.37" y="12.88" width="1.51" height="1.51" fill="#cc1d1d"/>
    <rect x="11.37" y="11.37" width="1.51" height="1.52" fill="#cc1d1d"/>
    <rect x="11.37" y="9.85" width="1.51" height="1.51" fill="#cc1d1d"/>
    <rect x="11.37" y="8.34" width="1.51" height="1.52" fill="#cc1d1d"/>
    <rect x="11.37" y="6.82" width="1.51" height="1.51" fill="#ef5454"/>
    <rect x="11.37" y="5.31" width="1.51" height="1.52" fill="#fff"/>
    <rect x="9.85" y="44.69" width="1.52" height="1.52" fill="#fff"/>
    <rect x="9.85" y="43.18" width="1.52" height="1.51" fill="#aa0707"/>
    <rect x="9.85" y="41.66" width="1.52" height="1.52" fill="#cc1d1d"/>
    <rect x="9.85" y="40.15" width="1.52" height="1.51" fill="#cc1d1d"/>
    <rect x="9.85" y="38.63" width="1.52" height="1.52" fill="#cc1d1d"/>
    <rect x="9.85" y="37.12" width="1.52" height="1.51" fill="#cc1d1d"/>
    <rect x="9.85" y="35.6" width="1.52" height="1.52" fill="#cc1d1d"/>
    <rect x="9.85" y="34.09" width="1.52" height="1.51" fill="#ef5454"/>
    <rect x="9.85" y="32.57" width="1.52" height="1.51" fill="#fff"/>
    <rect x="9.85" y="15.91" width="1.52" height="1.51" fill="#fff"/>
    <rect x="9.85" y="14.4" width="1.52" height="1.52" fill="#aa0707"/>
    <rect x="9.85" y="12.88" width="1.52" height="1.51" fill="#cc1d1d"/>
    <rect x="9.85" y="11.37" width="1.52" height="1.52" fill="#cc1d1d"/>
    <rect x="9.85" y="9.85" width="1.52" height="1.51" fill="#cc1d1d"/>
    <rect x="9.85" y="8.34" width="1.52" height="1.52" fill="#cc1d1d"/>
    <rect x="9.85" y="6.82" width="1.52" height="1.51" fill="#cc1d1d"/>
    <rect x="9.85" y="5.31" width="1.52" height="1.52" fill="#ef5454"/>
    <rect x="9.85" y="3.8" width="1.52" height="1.51" fill="#fff"/>
    <rect x="8.34" y="46.21" width="1.51" height="1.51" fill="#fff"/>
    <rect x="8.34" y="44.69" width="1.51" height="1.52" fill="#aa0707"/>
    <rect x="8.34" y="43.18" width="1.51" height="1.51" fill="#cc1d1d"/>
    <rect x="8.34" y="41.66" width="1.51" height="1.52" fill="#cc1d1d"/>
    <rect x="8.34" y="40.15" width="1.51" height="1.51" fill="#cc1d1d"/>
    <rect x="8.34" y="38.63" width="1.51" height="1.52" fill="#cc1d1d"/>
    <rect x="8.34" y="37.12" width="1.51" height="1.51" fill="#cc1d1d"/>
    <rect x="8.34" y="35.6" width="1.51" height="1.52" fill="#ef5454"/>
    <rect x="8.34" y="34.09" width="1.51" height="1.51" fill="#fff"/>
    <rect x="8.34" y="14.4" width="1.51" height="1.52" fill="#fff"/>
    <rect x="8.34" y="12.88" width="1.51" height="1.51" fill="#aa0707"/>
    <rect x="8.34" y="11.37" width="1.51" height="1.52" fill="#cc1d1d"/>
    <rect x="8.34" y="9.85" width="1.51" height="1.51" fill="#cc1d1d"/>
    <rect x="8.34" y="8.34" width="1.51" height="1.52" fill="#cc1d1d"/>
    <rect x="8.34" y="6.82" width="1.51" height="1.51" fill="#cc1d1d"/>
    <rect x="8.34" y="5.31" width="1.51" height="1.52" fill="#cc1d1d"/>
    <rect x="8.34" y="3.8" width="1.51" height="1.51" fill="#ef5454"/>
    <rect x="8.34" y="2.28" width="1.51" height="1.52" fill="#fff"/>
    <rect x="6.82" y="46.21" width="1.52" height="1.51" fill="#fff"/>
    <rect x="6.82" y="44.69" width="1.52" height="1.52" fill="#aa0707"/>
    <rect x="6.82" y="43.18" width="1.52" height="1.51" fill="#cc1d1d"/>
    <rect x="6.82" y="41.66" width="1.52" height="1.52" fill="#cc1d1d"/>
    <rect x="6.82" y="40.15" width="1.52" height="1.51" fill="#cc1d1d"/>
    <rect x="6.82" y="38.63" width="1.52" height="1.52" fill="#cc1d1d"/>
    <rect x="6.82" y="37.12" width="1.52" height="1.51" fill="#ef5454"/>
    <rect x="6.82" y="35.6" width="1.52" height="1.52" fill="#fff"/>
    <rect x="6.82" y="12.88" width="1.52" height="1.51" fill="#fff"/>
    <rect x="6.82" y="11.37" width="1.52" height="1.52" fill="#aa0707"/>
    <rect x="6.82" y="9.85" width="1.52" height="1.51" fill="#cc1d1d"/>
    <rect x="6.82" y="8.34" width="1.52" height="1.52" fill="#cc1d1d"/>
    <rect x="6.82" y="6.82" width="1.52" height="1.51" fill="#cc1d1d"/>
    <rect x="6.82" y="5.31" width="1.52" height="1.52" fill="#cc1d1d"/>
    <rect x="6.82" y="3.8" width="1.52" height="1.51" fill="#ef5454"/>
    <rect x="6.82" y="2.28" width="1.52" height="1.52" fill="#fff"/>
    <rect x="5.31" y="44.69" width="1.51" height="1.52" fill="#fff"/>
    <rect x="5.31" y="43.18" width="1.51" height="1.51" fill="#aa0707"/>
    <rect x="5.31" y="41.66" width="1.51" height="1.52" fill="#cc1d1d"/>
    <rect x="5.31" y="40.15" width="1.51" height="1.51" fill="#cc1d1d"/>
    <rect x="5.31" y="38.63" width="1.51" height="1.52" fill="#ef5454"/>
    <rect x="5.31" y="37.12" width="1.51" height="1.51" fill="#fff"/>
    <rect x="5.31" y="11.37" width="1.51" height="1.52" fill="#fff"/>
    <rect x="5.31" y="9.85" width="1.51" height="1.51" fill="#aa0707"/>
    <rect x="5.31" y="8.34" width="1.51" height="1.52" fill="#cc1d1d"/>
    <rect x="5.31" y="6.82" width="1.51" height="1.51" fill="#cc1d1d"/>
    <rect x="5.31" y="5.31" width="1.51" height="1.52" fill="#ef5454"/>
    <rect x="5.31" y="3.8" width="1.51" height="1.51" fill="#fff"/>
    <rect x="3.79" y="43.18" width="1.52" height="1.51" fill="#fff"/>
    <rect x="3.79" y="41.66" width="1.52" height="1.52" fill="#aa0707"/>
    <rect x="3.79" y="40.15" width="1.52" height="1.51" fill="#ef5454"/>
    <rect x="3.79" y="38.63" width="1.52" height="1.52" fill="#fff"/>
    <rect x="3.79" y="9.85" width="1.52" height="1.51" fill="#fff"/>
    <rect x="3.79" y="8.34" width="1.52" height="1.52" fill="#aa0707"/>
    <rect x="3.79" y="6.82" width="1.52" height="1.51" fill="#ef5454"/>
    <rect x="3.79" y="5.31" width="1.52" height="1.52" fill="#fff"/>
    <rect x="2.28" y="41.66" width="1.51" height="1.52" fill="#fff"/>
    <rect x="2.28" y="40.15" width="1.51" height="1.51" fill="#fff"/>
    <rect x="2.28" y="8.34" width="1.51" height="1.52" fill="#fff"/>
    <rect x="2.28" y="6.82" width="1.51" height="1.51" fill="#fff"/>
  </g>
</svg>
