<svg id="Capa_1" data-name="Capa 1" xmlns="http://www.w3.org/2000/svg" xmlns:xlink="http://www.w3.org/1999/xlink" width="250" height="250" viewBox="0 0 250 250">
  <defs>
    <symbol id="Bitfrost" data-name="Bitfrost" viewBox="0 0 12.77 11.87">
      <path d="M9.39,6.27H11.7c.17,0,.22.07.22.23q0,2.56,0,5.13c0,.22-.1.25-.28.24H.33c-.26,0-.33-.07-.33-.33C0,7.8,0,4.07,0,.33,0,0,0,0,.35,0H9.07C9.4,0,9.4,0,9.4.34c0,.6,0,1.2,0,1.79,0,.24-.08.31-.31.31H2.87c-.39,0-.39,0-.39.4V9.08c0,.35,0,.35.33.35H9.12c.26,0,.34-.08.33-.33,0-.86,0-1.71,0-2.57a2.51,2.51,0,0,0,0-.27Z" fill="#0d52ff"/>
      <path d="M9.4,6.26c-.1,0-.2,0-.29,0H6l.5-.55c.91-1,1.82-2,2.74-3a.53.53,0,0,1,.32-.17h3.07l.11,0-.71.79L9.57,6a2,2,0,0,0-.18.23Z" fill="#0d52ff"/>
    </symbol>
  </defs>
  <rect id="Figment_lido" x="-1.22" y="-1.06" width="252.5" height="252.5" transform="translate(-0.16 250.22) rotate(-90)" fill="#fff"/>
  <use width="12.77" height="11.87" transform="translate(42.59 48.4) scale(12.91)" xlink:href="#Bitfrost"/>
</svg>
