<svg id="Capa_1" data-name="Capa 1" xmlns="http://www.w3.org/2000/svg" xmlns:xlink="http://www.w3.org/1999/xlink" width="250" height="250" viewBox="0 0 250 250">
  <defs>
    <symbol id="Bloxstaking" data-name="Bloxstaking" viewBox="0 0 42.66 47.79">
      <path d="M29,3.85A16.27,16.27,0,0,0,27.23,5a2.82,2.82,0,0,1-4,0c-1.24-1-2.47-.82-3.82,0-3.24,2-6.57,3.78-9.85,5.69-1.44.85-1.43,1.19,0,2C14.3,15.43,19,18.2,23.83,20.85a2.48,2.48,0,0,1,1.44,2.56c-.06,5.37,0,10.73,0,16.1,0,2,.19,2.06,1.89,1.09,3.25-1.85,6.45-3.76,9.73-5.55a3.21,3.21,0,0,0,1.92-3.32c-.1-2.14,1-3.44,3.13-4.07.65-.2.73.09.72.59,0,2.1.06,4.22-.08,6.32a3.57,3.57,0,0,1-2.05,2.8c-5.7,3.27-11.38,6.56-17.09,9.8-1.84,1-2.11.86-2.11-1.18,0-6.87,0-13.75,0-20.62A2.23,2.23,0,0,0,20,23.12C14,19.71,8,16.24,2,12.78.41,11.87.38,11.5,2,10.55,7.77,7.19,13.58,3.87,19.38.55A3.7,3.7,0,0,1,23.18.5C25.07,1.54,26.94,2.64,29,3.85Z" fill="#fff"/>
      <path d="M3.93,24.88c0,2.41,0,4.83,0,7.23a2.72,2.72,0,0,0,1.6,2.75c4.3,2.42,8.57,4.9,12.84,7.37.89.52,1.61,3.7,1,4.52-.31.44-.63.14-.92,0-5.59-3.21-11.18-6.4-16.74-9.65A3.65,3.65,0,0,1,0,33.69c0-6.09,0-12.17,0-18.26,0-1.41.38-1.24,1.42-.79,2,.85,2.82,2.07,2.56,4.28A51.51,51.51,0,0,0,3.93,24.88Z" fill="#fff"/>
      <path d="M27.33,7.3c2.31-2.13,4.37-2.48,6.83-.58a51.12,51.12,0,0,0,6.22,3.64,4.17,4.17,0,0,1,2.28,4c0,3.06,0,6.13,0,9.2,0,1.22-2.16,3.35-3.38,3.33-.81,0-.49-.69-.5-1.07,0-2.95-.08-5.9,0-8.84a4.65,4.65,0,0,0-2.71-4.66C33.18,10.75,30.36,9,27.33,7.3Z" fill="#fff"/>
    </symbol>
  </defs>
  <rect id="Figment_lido" x="-1.22" y="-1.06" width="252.5" height="252.5" transform="translate(-0.16 250.22) rotate(-90)" fill="#adead8"/>
  <use width="42.66" height="47.79" transform="translate(45.27 35.67) scale(3.74)" xlink:href="#Bloxstaking"/>
</svg>
