<svg id="Capa_1" data-name="Capa 1" xmlns="http://www.w3.org/2000/svg" xmlns:xlink="http://www.w3.org/1999/xlink" width="250" height="250" viewBox="0 0 250 250">
  <defs>
    <symbol id="Certus_one" data-name="Certus one" viewBox="0 0 14.54 13.09">
      <path d="M4.51,4A4.55,4.55,0,0,1,8.67,6.62c.16.33.32.54.71.47s.54.17.55.48.2.47.52.43.48.2.48.52-.07.61-.51.56-.47.05-.48.4a.48.48,0,0,1-.63.51c-.33-.05-.47.11-.6.4a4.41,4.41,0,0,1-4.36,2.69A4.48,4.48,0,0,1,.11,9.5,4.55,4.55,0,0,1,4,4ZM7.67,7a3.39,3.39,0,0,0-3.9-1.9A3.55,3.55,0,0,0,1.05,8.75,3.56,3.56,0,0,0,4.27,12c1.5.1,3.14-.88,3.37-2a1,1,0,0,0-1.11.36,2.55,2.55,0,0,1-2.62.79,2.62,2.62,0,0,1-2-2.42A2.69,2.69,0,0,1,6.5,6.65,1,1,0,0,0,7.67,7ZM2.87,8.51A1.73,1.73,0,0,0,4,10.1a1.45,1.45,0,0,0,1.83-.54c.36-.68.85-.69,1.45-.65h.4c.28,0,.4-.09.4-.38s-.13-.38-.4-.37-.51,0-.76,0a.85.85,0,0,1-1-.51,1.54,1.54,0,0,0-1.82-.73A1.71,1.71,0,0,0,2.87,8.51Zm5.18-1.2c0,.71.08.75.8.64C8.9,7.25,8.82,7.18,8.05,7.31ZM8,9.78c.8.1.88,0,.8-.66C8.13,9,8.13,9,8,9.78ZM9.68,8.12l-.23,0a1.68,1.68,0,0,0-.31.42c-.06.25,0,.42.35.41s.43,0,.38-.32A1.78,1.78,0,0,0,9.68,8.12Z" fill="#fff"/>
      <path d="M4.55,9.29a.74.74,0,0,1-.75-.77.72.72,0,0,1,.77-.75.72.72,0,0,1,.74.77A.72.72,0,0,1,4.55,9.29Z" fill="#fff"/>
      <g>
        <path d="M12.37,6.2A2.13,2.13,0,0,1,10.45,5a2.12,2.12,0,0,1,.08-2.16c.05-.08.08-.08.15,0l1.58.93a.2.2,0,0,0,.23,0l1.56-.91c.08,0,.11,0,.16,0a2.17,2.17,0,0,1-1.55,3.29Z" fill="#fff"/>
        <path d="M12.37,0l.93,1.45c.18.29.36.58.55.86.05.07,0,.1,0,.14l-1.38.8a.12.12,0,0,1-.14,0l-1.39-.81s-.07,0,0-.1C11.37,1.57,11.86.79,12.37,0Zm0,.64,0,0-1,1.54s0,.07,0,.09l.94.55a.12.12,0,0,0,.14,0l.73-.43c.08-.05.21-.08.23-.15s-.08-.16-.13-.24L12.43.72S12.41.66,12.36.64Z" fill="#fff"/>
      </g>
    </symbol>
  </defs>
  <rect id="Figment_lido" x="-1.22" y="-1.06" width="252.5" height="252.5" transform="translate(-0.16 250.22) rotate(-90)" fill="#015ee7"/>
  <use width="14.54" height="13.09" transform="translate(23.52 33.62) scale(13.96)" xlink:href="#Certus_one"/>
</svg>
