<svg id="Capa_1" data-name="Capa 1" xmlns="http://www.w3.org/2000/svg" xmlns:xlink="http://www.w3.org/1999/xlink" width="250" height="250" viewBox="0 0 250 250">
  <defs>
    <symbol id="Chorus_one" data-name="Chorus one" viewBox="0 0 14.68 14.16">
      <path d="M5.26,4.12.61,8.77l4.65,4.65L9.91,8.77ZM2.9,8.77,5.26,6.41,7.62,8.77,5.26,11.13Z" fill="#fff"/>
      <polygon points="2.67 4.64 1.34 5.98 0 4.64 1.34 3.31 2.67 4.64" fill="#fff"/>
      <polygon points="10.79 4.64 9.45 5.98 8.12 4.64 9.45 3.31 10.79 4.64" fill="#fff"/>
      <polygon points="2.73 12.82 1.4 14.16 0.06 12.82 1.4 11.49 2.73 12.82" fill="#fff"/>
      <polygon points="10.85 12.82 9.52 14.16 8.18 12.82 9.52 11.49 10.85 12.82" fill="#fff"/>
      <g>
        <path d="M13,4.88A1.66,1.66,0,0,1,11.47,4a1.65,1.65,0,0,1,.06-1.7c0-.06.06-.06.12,0L12.89,3a.15.15,0,0,0,.18,0l1.23-.72c.06,0,.09,0,.12,0a1.71,1.71,0,0,1-1.22,2.6Z" fill="#fff"/>
        <path d="M13,0l.73,1.14c.14.23.28.46.43.68,0,.06,0,.08,0,.11L13,2.56a.11.11,0,0,1-.11,0l-1.09-.64s-.06,0,0-.08Zm0,.51,0,0-.77,1.21c0,.05,0,.06,0,.08l.74.43a.11.11,0,0,0,.11,0l.58-.34c.06,0,.16-.06.17-.11s-.06-.13-.1-.19L13,.57S13,.52,13,.51Z" fill="#fff"/>
      </g>
    </symbol>
  </defs>
  <rect id="Figment_lido" x="-1.22" y="-1.06" width="252.5" height="252.5" transform="translate(-0.16 250.22) rotate(-90)" fill="#168f9c"/>
  <use width="14.68" height="14.16" transform="translate(40.38 43.42) scale(11.52)" xlink:href="#Chorus_one"/>
</svg>
