<svg id="Capa_1" data-name="Capa 1" xmlns="http://www.w3.org/2000/svg" xmlns:xlink="http://www.w3.org/1999/xlink" width="250" height="250" viewBox="0 0 250 250">
  <defs>
    <symbol id="coinbase" data-name="coinbase" viewBox="0 0 24.72 24.77">
      <path d="M21.55,11.41H18.81c-.28,0-.39-.08-.46-.37a5.93,5.93,0,0,0-5-4.68,6,6,0,0,0-6.94,4.8,6.1,6.1,0,0,0,11.93,2.56c.07-.3.18-.37.46-.37h5.51c.35,0,.41.1.37.45a12.34,12.34,0,1,1-.11-3.67c.05.31.06.63.13.95s-.08.33-.31.33Z" fill="#fff"/>
    </symbol>
  </defs>
  <rect id="Figment_lido" x="-1.22" y="-1.06" width="252.5" height="252.5" transform="translate(-0.16 250.22) rotate(-90)" fill="#015ee7"/>
  <use width="24.72" height="24.77" transform="translate(39.72 39.56) scale(6.9)" xlink:href="#coinbase"/>
</svg>
