<svg id="Capa_1" data-name="Capa 1" xmlns="http://www.w3.org/2000/svg" xmlns:xlink="http://www.w3.org/1999/xlink" width="250" height="250" viewBox="0 0 250 250">
  <defs>
    <clipPath id="clip-path">
      <circle cx="66.17" cy="66.17" r="66.17" fill="none"/>
    </clipPath>
    <symbol id="DappNode" data-name="DappNode" viewBox="0 0 132.34 132.34">
      <g clip-path="url(#clip-path)">
        <g>
          <path d="M67.37,41.12c2.56-5.24,6.22-9.41,12-10.87,14-3.5,24.72,7.12,23.39,20-1.4,6.87-5,12-11.68,14.64l-.42-.06L67.48,41.47A1.42,1.42,0,0,0,67.37,41.12Z" fill="#fdb800"/>
          <path d="M65,90.81c-2.43,6.75-7.43,10.56-14.33,11.5-8,1.09-14.24-2-18.45-9-2.23-3.68-2.69-7.74-2.33-12a5,5,0,0,0,.37-.86C31.54,74,35.58,69.78,41.55,67.19h.19l.18,0c4.61,5.21,9.79,9.86,14.6,14.88C59.32,85,62.42,87.64,65,90.81Z" fill="#00b0f2"/>
          <path d="M29.83,51.69c-.55-6.57.76-12.44,5.7-17.29,6.2-6.08,17.62-6.3,24-.87a3.57,3.57,0,0,1,.53.78,32.77,32.77,0,0,1-2.57,3.47q-9.24,9.6-18.59,19.09A20.32,20.32,0,0,0,35.58,61a9.63,9.63,0,0,1-2-2.07C31.69,56.83,31.17,54.05,29.83,51.69Z" fill="#672bcc"/>
          <path d="M102.48,80.42A18.29,18.29,0,0,1,98.91,95.7c-6.15,7.92-18.3,9.18-25.76,2.68a2.2,2.2,0,0,1,.79-1.45q5.39-5.59,10.74-11.22,6-6.22,11.95-12.43a2.39,2.39,0,0,0,.9-1.66C100.31,73.92,101.58,77.07,102.48,80.42Z" fill="#d20fee"/>
          <path d="M35.58,61a20.32,20.32,0,0,1,3.33-4.12q9.35-9.51,18.59-19.09a32.77,32.77,0,0,0,2.57-3.47c2.74,1.94,4.69,4.74,7.3,6.81a1.42,1.42,0,0,1,.11.35l-1.2,2.89c-.92,0-1.42.71-2,1.28-4.82,5-9.68,9.9-14.4,15-1.55,1.66-3.65,3-4.07,5.5-1.3.39-2.73.35-3.92,1.14l-.18,0h-.19Z" fill="#7f26d4"/>
          <path d="M90.7,64.81l.42.06c.78,1.28,2.27,2,2.9,3.38-.92,0-1.41.74-2,1.31C85.66,76.27,79.29,83,72.85,89.7c-1.39,1.44-2.62,3.09-4.45,4.06l-3.18-3A20.77,20.77,0,0,0,65.67,79c4.72-3.81,8.23-8.8,12.62-12.93.2-.19.18-.61.26-.91C82.63,65.93,86.71,66.6,90.7,64.81Z" fill="#b817e5"/>
          <path d="M65.67,79a20.77,20.77,0,0,1-.45,11.79H65c-2.53-3.17-5.63-5.79-8.43-8.7-4.81-5-10-9.67-14.6-14.88,1.19-.79,2.62-.75,3.92-1.14A22.28,22.28,0,0,1,58.2,68.85,22.47,22.47,0,0,1,65.67,79Z" fill="#07d2e6"/>
          <path d="M68.4,93.76c1.83-1,3.06-2.62,4.45-4.06C79.29,83,85.66,76.27,92.07,69.56c.54-.57,1-1.28,2-1.31.8,1.5,2.69,1.88,3.51,3.37a2.39,2.39,0,0,1-.9,1.66q-6,6.21-11.95,12.43-5.37,5.61-10.74,11.22a2.2,2.2,0,0,0-.79,1.45A23.37,23.37,0,0,1,68.4,93.76Z" fill="#c114e9"/>
          <path d="M97.53,71.62c-.82-1.49-2.71-1.87-3.51-3.37-.63-1.42-2.12-2.1-2.9-3.38,6.64-2.69,10.28-7.77,11.68-14.64q0,14.58.07,29.14c0,.39,0,.81-.39,1C101.58,77.07,100.31,73.92,97.53,71.62Z" fill="#fb9c23"/>
          <path d="M35.58,61l6,6.2c-6,2.59-10,6.81-11.34,13.34a5,5,0,0,1-.37.86q0-14.85,0-29.7c1.34,2.36,1.86,5.14,3.74,7.23A9.63,9.63,0,0,0,35.58,61Z" fill="#017cfb"/>
          <path d="M90.7,64.81c-4,1.79-8.07,1.12-12.15.37a22.81,22.81,0,0,1-9.73-7.81c-2.22-4.07-2.72-8.47-2.54-13l1.2-2.89Z" fill="#fd397f"/>
          <path d="M66.28,44.36c-.18,4.54.32,8.94,2.54,13A61.24,61.24,0,0,1,58.2,68.85a22.28,22.28,0,0,0-12.36-2.76c.42-2.52,2.52-3.84,4.07-5.5,4.72-5.05,9.58-10,14.4-15C64.86,45.07,65.36,44.37,66.28,44.36Z" fill="#8822d7"/>
          <path d="M58.2,68.85A61.24,61.24,0,0,0,68.82,57.37a22.81,22.81,0,0,0,9.73,7.81c-.08.3-.06.72-.26.91C73.9,70.22,70.39,75.21,65.67,79A22.47,22.47,0,0,0,58.2,68.85Z" fill="#9c1edd"/>
        </g>
      </g>
    </symbol>
  </defs>
  <rect id="Figment_lido" x="-1.22" y="-1.06" width="252.5" height="252.5" transform="translate(-0.16 250.22) rotate(-90)" fill="#fff"/>
  <use width="132.34" height="132.34" transform="translate(8.77 8.78) scale(1.76)" xlink:href="#DappNode"/>
</svg>
