<svg id="Capa_1" data-name="Capa 1" xmlns="http://www.w3.org/2000/svg" xmlns:xlink="http://www.w3.org/1999/xlink" width="250" height="250" viewBox="0 0 250 250">
  <defs>
    <symbol id="Hashquark" data-name="Hashquark" viewBox="0 0 23.51 22.4">
      <path d="M17.81,17.1v4.42c0,.81-.46,1.06-1.18.66s-1.45-.82-2.16-1.25a.56.56,0,0,0-.67,0,8.9,8.9,0,1,1,3.94-8.84,11.8,11.8,0,0,1,.08,1.57c0,1.14,0,2.28,0,3.42ZM5,11c-.31.06-.24.3-.24.5,0,1.26,0,2.52,0,3.77a.7.7,0,0,0,.44.72c1.16.62,2.3,1.26,3.46,1.89.11.06.21.18.41.07v-4.4l4.07,2.22V11.25c0-.05,0-.13-.07-.15q-2-1.1-3.92-2.2c-.2-.12-.32,0-.47,0Z" fill="#1c2d69"/>
      <path d="M13.13,11.25v4.56L9.06,13.59V18c-.2.11-.3,0-.41-.07-1.16-.63-2.3-1.27-3.46-1.89a.7.7,0,0,1-.44-.72c0-1.25,0-2.51,0-3.77,0-.2-.07-.44.24-.5,0,.31.27.34.46.44,1,.56,2,1.07,3,1.66a1.07,1.07,0,0,0,1.25,0A36.93,36.93,0,0,1,13.13,11.25Z" fill="#c9caca"/>
      <path d="M13.13,11.25a36.93,36.93,0,0,0-3.43,1.9,1.07,1.07,0,0,1-1.25,0c-1-.59-2-1.1-3-1.66C5.28,11.38,5,11.35,5,11L8.67,9c.15-.08.27-.17.47,0q1.95,1.11,3.92,2.2S13.1,11.2,13.13,11.25Z" fill="#fefefe"/>
      <g>
        <path d="M20.51,8.55a3,3,0,0,1-2.64-1.62A2.88,2.88,0,0,1,18,4c.06-.11.1-.11.2,0l2.17,1.27a.29.29,0,0,0,.32,0l2.16-1.27c.11-.06.15,0,.21.06a3,3,0,0,1-2.13,4.54Z" fill="#00a2fd"/>
        <path d="M20.52,0l1.27,2c.26.4.51.8.77,1.19.07.1.05.14,0,.19l-1.9,1.11a.18.18,0,0,1-.2,0L18.51,3.37c-.07,0-.11-.06-.05-.15Zm0,.89L20.46,1,19.1,3.07c-.05.08,0,.1,0,.14L20.43,4a.2.2,0,0,0,.2,0l1-.6c.11-.06.28-.11.31-.2s-.11-.22-.18-.33L20.6,1S20.57.9,20.51.89Z" fill="#009ff9"/>
      </g>
    </symbol>
  </defs>
  <rect id="Figment_lido" x="-1.22" y="-1.06" width="252.5" height="252.5" transform="translate(-0.16 250.22) rotate(-90)" fill="#fff"/>
  <use width="23.51" height="22.4" transform="translate(31.04 35.49) scale(7.99)" xlink:href="#Hashquark"/>
</svg>
