<svg id="Capa_1" data-name="Capa 1" xmlns="http://www.w3.org/2000/svg" xmlns:xlink="http://www.w3.org/1999/xlink" width="250" height="250" viewBox="0 0 250 250">
  <defs>
    <symbol id="Kiln" data-name="Kiln" viewBox="0 0 37.38 37.35">
      <path d="M0,18c.39-2,1.94-3,3.23-4.32.46-.46,1-.35,1.51.17q5,5,10,10c1,1,2,2,3.05,3a1.18,1.18,0,0,0,1.88-.06L32.46,14a1.21,1.21,0,0,1,1.43-.44.9.9,0,0,1,.3.17,22.76,22.76,0,0,1,2.4,2.51,4.23,4.23,0,0,1-.44,5.43L21.69,36.11a4.22,4.22,0,0,1-6,0c-4.82-4.79-9.62-9.61-14.44-14.4A5.18,5.18,0,0,1,0,19.3Z" fill="#202020"/>
      <path d="M30.73,10.74a1.09,1.09,0,0,1-.38.84c-1.33,1.33-2.65,2.66-4,4a1.08,1.08,0,0,1-1.71,0l-4.93-4.92c-.75-.76-1.32-.75-2.08,0-1.61,1.61-3.22,3.21-4.82,4.82a1.14,1.14,0,0,1-1.89,0L7.08,11.63a1.12,1.12,0,0,1,0-1.79C9.91,7,12.75,4.15,15.6,1.32a4.27,4.27,0,0,1,6.19,0C24.65,4.18,27.49,7,30.34,9.9A1.06,1.06,0,0,1,30.73,10.74Z" fill="#fe6521"/>
    </symbol>
  </defs>
  <rect id="Figment_lido" x="-1.22" y="-1.06" width="252.5" height="252.5" transform="translate(-0.16 250.22) rotate(-90)" fill="#fff"/>
  <use width="37.38" height="37.35" transform="translate(38.61 38.66) scale(4.62)" xlink:href="#Kiln"/>
</svg>
