<svg id="Capa_1" data-name="Capa 1" xmlns="http://www.w3.org/2000/svg" xmlns:xlink="http://www.w3.org/1999/xlink" width="250" height="250" viewBox="0 0 250 250">
  <defs>
    <symbol id="Nuevo_símbolo_1" data-name="Nuevo símbolo 1" viewBox="0 0 20.68 16.23">
      <path d="M0,15.07c0-1.65,0-3.3,0-5A9.82,9.82,0,0,1,.48,7.23s0-.05,0-.07v0a.07.07,0,0,0,0-.06L.86,6.2v0a.16.16,0,0,0,.05-.11h0A0,0,0,0,0,.93,6h0A.05.05,0,0,0,1,6S1,6,1,6A.1.1,0,0,0,1,5.87a0,0,0,0,0,0,0,.27.27,0,0,0,.08-.16c.1-.16.19-.34.28-.52l0,0,0,0h0S1.48,5,1.48,5h0l0,0h0a.12.12,0,0,0,.06-.1h0a.63.63,0,0,0,.13-.2h0l0,0h0l0,0L2.15,4l.39-.49h0l0,0,0,0A4.38,4.38,0,0,0,3,3.1a.49.49,0,0,0,.16-.16,3.24,3.24,0,0,0,.38-.36l0,0,0,0h0a.1.1,0,0,0,.08-.07h0c.18-.12.35-.27.52-.41l.46-.32,0,0h0l0,0h0a.6.6,0,0,0,.21-.14s0,0,0,0A.09.09,0,0,0,5,1.5H5l0,0H5l0,0h0a.05.05,0,0,0,0,0h0s0,0,0,0l0,0L6.26.83l1-.37a.39.39,0,0,0,.15,0A10.15,10.15,0,0,1,10.79,0c.43,0,.86.07,1.28.13h.08l.68.14h0c.23.08.47.14.71.2h0a4.13,4.13,0,0,0,.55.21h0a.16.16,0,0,0,.11.05h0l.22.11c.35.15.69.34,1,.51h0s0,0,.05,0h0l0,0h0a.1.1,0,0,0,.08.05h0a.1.1,0,0,0,.08.05h0a1,1,0,0,0,.28.18h0l0,0h0l0,0h0s0,0,.05,0h0l0,0h0s0,0,0,0l0,0h0l0,0h0a.08.08,0,0,0,.07.05h0a.59.59,0,0,0,.18.13,4.66,4.66,0,0,0,.49.39h0l0,0h0l0,0h0l0,0h0l0,0,0,0a4.38,4.38,0,0,0,.39.36.49.49,0,0,0,.16.16,3.24,3.24,0,0,0,.36.38l0,0,0,0h0l0,0h0l0,0h0l0,0h0a6,6,0,0,0,.39.49.11.11,0,0,0,.06.07l0,0a.14.14,0,0,0,0,.08h0a.1.1,0,0,0,.06.07h0l0,0h0l0,0,0,0v0h0l0,0h0s0,0,0,0h0l0,0h0a.05.05,0,0,0,0,0h0a.61.61,0,0,0,.15.24.05.05,0,0,0,0,0,.08.08,0,0,0,.05.07h0a.16.16,0,0,0,.08.12h0l0,0s0,0,0,0l.57,1.11s0,0,0,0a2.28,2.28,0,0,0,.15.36s0,0,0,0a1.5,1.5,0,0,0,.15.42s0,0,0,0l.17.62a11.44,11.44,0,0,1,.24,1.3,11.11,11.11,0,0,1,.08,1.41v4.1a2,2,0,0,1-.19.93h0a.07.07,0,0,0,0,.06h0a.07.07,0,0,0,0,.06h0a.25.25,0,0,0-.11.12h0l0,0h0l0,0h0l0,0h0l-.28.21h0s0,0-.05,0h0l0,0s0,0,0,0a2,2,0,0,1-.49.11,1.1,1.1,0,0,0-.26,0,1.44,1.44,0,0,1-.6-.18.05.05,0,0,0-.05,0l-.31-.26-.23-.31,0,0a.09.09,0,0,0,0-.06v0a.81.81,0,0,0-.07-.22h0a.11.11,0,0,0,0-.08s0,0,0,0v-.52a3,3,0,0,0,0-.52,4.51,4.51,0,0,0,0-.52c0-.34,0-.69,0-1a4.34,4.34,0,0,0,0-.51,3,3,0,0,0,0-.52,4.51,4.51,0,0,0,0-.52,2.9,2.9,0,0,0,0-.51.21.21,0,0,0,0-.11,0,0,0,0,0,0,0v-.1a1.26,1.26,0,0,0-.42-.79.56.56,0,0,0-.21-.16h0l0,0a1.09,1.09,0,0,0-.45-.18,1.13,1.13,0,0,0-.77,0h0a.06.06,0,0,0,0,0h0a.07.07,0,0,0-.06,0h0l0,0h0a.05.05,0,0,0,0,0h0a.05.05,0,0,0-.05,0h0a.63.63,0,0,0-.26.2.66.66,0,0,0-.21.23l0,0a0,0,0,0,0,0,0l0,0h0a.3.3,0,0,0-.08.16h0s0,0,0,0v0a1.06,1.06,0,0,0-.12.55c0,1.16,0,2.32,0,3.48a4.22,4.22,0,0,1-.11,1.5h0l0,0h0a0,0,0,0,0,0,0h0l-.19.26h0l0,0-.16.15a.13.13,0,0,0-.06,0h0l0,0h0l-.28.15h0a.06.06,0,0,0-.06,0h0a1.77,1.77,0,0,1-1.09,0s0,0,0,0l0,0h0s0,0-.05,0h0a.05.05,0,0,0-.05,0h0a.36.36,0,0,0-.15-.1h0l0,0,0,0,0,0h0l0,0h0l0,0h0l0,0,0,0,0,0,0,0,0,0,0-.05A.1.1,0,0,0,12,15.5h0a.1.1,0,0,0,0-.08v0a2.27,2.27,0,0,1-.13-.82c0-1.43,0-2.86,0-4.28a1.4,1.4,0,0,0-.59-1.15.86.86,0,0,0-.4-.21c-.06,0-.11,0-.18,0a.05.05,0,0,0-.06,0A1.33,1.33,0,0,0,9.8,9a1.22,1.22,0,0,0-.45.28A1.19,1.19,0,0,0,9,9.76a1.38,1.38,0,0,0-.12.66c0,1,0,1.93,0,2.89,0,.56,0,1.11,0,1.67a1.49,1.49,0,0,1-1.12,1.2,1.68,1.68,0,0,1-1-.11l0,0s0,0-.06,0h0a4.72,4.72,0,0,1-.41-.37.2.2,0,0,0-.08-.12l0,0h0a2.09,2.09,0,0,1-.19-1V10.29a1,1,0,0,0-.1-.47.55.55,0,0,0-.16-.31.1.1,0,0,0,0-.08l0,0a.23.23,0,0,0-.08-.11.94.94,0,0,0-.34-.25h0l0,0h0A.14.14,0,0,0,5,9H5A1.32,1.32,0,0,0,3.9,9h0A.26.26,0,0,0,3.73,9a0,0,0,0,0,0,0s-.05,0-.06,0h0a.54.54,0,0,0-.25.22s-.05,0-.06.05v0a0,0,0,0,0,0,0l0,0h0a.08.08,0,0,0-.05.07s0,0,0,0a.09.09,0,0,0,0,.08,1.38,1.38,0,0,0-.18.76c0,1.38,0,2.75,0,4.13a1.84,1.84,0,0,1-.22,1h0a.05.05,0,0,0,0,.05l-.13.16L2.25,16h0a.14.14,0,0,0-.1.05h0a1.74,1.74,0,0,1-.93.12l-.44-.14h0a1.2,1.2,0,0,0-.26-.18.09.09,0,0,0-.07-.06l0,0h0a0,0,0,0,0,0,0h0s0,0,0,0a.18.18,0,0,0-.08-.09s0-.06,0-.07h0L0,15.09H0Z" fill="#fff"/>
    </symbol>
  </defs>
  <rect id="Figment_lido" x="-1.22" y="-1.06" width="252.5" height="252.5" transform="translate(-0.16 250.22) rotate(-90)" fill="#5f38df"/>
  <use width="20.68" height="16.23" transform="translate(40.68 58.83) scale(8.15)" xlink:href="#Nuevo_símbolo_1"/>
</svg>
