<svg id="Capa_1" data-name="Capa 1" xmlns="http://www.w3.org/2000/svg" xmlns:xlink="http://www.w3.org/1999/xlink" width="250" height="250" viewBox="0 0 250 250">
  <defs>
    <symbol id="lighthouse" data-name="lighthouse" viewBox="0 0 136.04 136.34">
      <path d="M93.09,87.7l14.84,14.84-4.76,4.76L88.39,92.52a31.57,31.57,0,0,1-16.22,7.06v20.56H65.43V99.71a31.49,31.49,0,0,1-16.78-6.62L34.43,107.3l-4.76-4.76L43.81,88.4A31.63,31.63,0,0,1,36.7,71.54H16.83V64.8H36.7a31.63,31.63,0,0,1,7.11-16.86L29.67,33.8,34.43,29,48.65,43.25a31.49,31.49,0,0,1,16.78-6.62V16.2h6.74V36.76a31.57,31.57,0,0,1,16.22,7.06L103.17,29l4.76,4.76L93.09,48.65a31.53,31.53,0,0,1,6.09,13.21H136a68.17,68.17,0,1,0,0,12.62H99.18A31.63,31.63,0,0,1,93.09,87.7Z" fill="#fff"/>
      <circle cx="68.02" cy="68.17" r="20.77" fill="#fff"/>
    </symbol>
  </defs>
  <rect id="Figment_lido" x="-1.22" y="-1.06" width="252.5" height="252.5" transform="translate(-0.16 250.22) rotate(-90)" fill="#8453e0"/>
  <use width="136.04" height="136.34" transform="translate(28.55 28.34) scale(1.42)" xlink:href="#lighthouse"/>
</svg>
