<svg id="Capa_1" data-name="Capa 1" xmlns="http://www.w3.org/2000/svg" xmlns:xlink="http://www.w3.org/1999/xlink" width="250" height="250" viewBox="0 0 250 250">
  <defs>
    <symbol id="Nemorino.eth_" data-name="Nemorino.eth+" viewBox="0 0 22.47 22.47">
      <g>
        <path d="M19.65,22.47H2.83V19.62H5.61V14H8.43V11.31H5.64v2.75H2.77c0,.76,0,1.42,0,2.07,0,.49-.18.67-.67.67-.69,0-1.38,0-2.07.05V0h2.8V2.74h2.8V0H16.84V2.74h2.81V0h2.8V16.85c-.69,0-1.39-.06-2.08-.05-.48,0-.69-.17-.67-.66,0-.66,0-1.32,0-2.08H16.84V11.3H14.07V14h2.79v5.64h2.79ZM5.63,8.36V5.69H2.89V8.36Zm13.94,0V5.7H16.86V8.37Z" fill="#381c45"/>
        <path d="M5.61,14v5.58H2.83v2.85H0V16.85c.69,0,1.38-.06,2.07-.05.49,0,.69-.18.67-.67,0-.65,0-1.31,0-2.07H5.64Z" fill="#22f2cc"/>
        <path d="M16.84,14.06h2.87c0,.76,0,1.42,0,2.08,0,.49.19.66.67.66.69,0,1.39,0,2.08.05v5.62h-2.8v-2.8H16.86V14Z" fill="#22f2cc"/>
        <path d="M5.63,0V2.74H2.83V0Z" fill="#22f2cc"/>
        <path d="M19.65,0V2.74H16.84V0Z" fill="#22f2cc"/>
        <path d="M5.63,8.36H2.89V5.69H5.63Z" fill="#22f2cc"/>
        <path d="M19.55,8.37H16.84V5.69h2.71Z" fill="#22f2cc"/>
        <path d="M5.64,14.06V11.31H8.43V14H5.61Z" fill="#22f2cc"/>
        <path d="M16.86,14H14.07V11.3h2.77v2.76Z" fill="#22f2cc"/>
      </g>
      <path d="M0,16.88V14H2.84v2.81H0Z" fill="#1acb23"/>
      <path d="M19.66,16.9V14.06h2.81v2.81H19.63Z" fill="#1acb23"/>
      <path d="M5.58,19.67V16.84H8.39v2.81H5.55Z" fill="#1acb23"/>
      <path d="M16.86,19.68H14.15V17h2.71Z" fill="#1acb23"/>
      <path d="M14.07,14H8.41V11.3h5.66Z" fill="#1acb23"/>
      <path d="M16.83,5.67H5.65V2.73H16.83Z" fill="#1acb23"/>
      <path d="M5.65,8.38V5.55H8.46V8.36H5.62Z" fill="#1acb23"/>
      <path d="M14,8.38V5.55h2.82V8.36H14Z" fill="#1acb23"/>
    </symbol>
  </defs>
  <rect id="Figment_lido" x="-1.22" y="-1.06" width="252.5" height="252.5" transform="translate(-0.16 250.22) rotate(-90)" fill="#fff"/>
  <use width="22.47" height="22.47" transform="translate(45 45) scale(7.12 7.12)" xlink:href="#Nemorino.eth_"/>
</svg>
