<svg id="Capa_1" data-name="Capa 1" xmlns="http://www.w3.org/2000/svg" xmlns:xlink="http://www.w3.org/1999/xlink" width="250" height="250" viewBox="0 0 250 250">
  <defs>
    <symbol id="Nuevo_símbolo_7" data-name="Nuevo símbolo 7" viewBox="0 0 17.34 17.34">
      <g>
        <path d="M17.34,8.48v.38h0a.12.12,0,0,1,0-.08,1.51,1.51,0,0,1,0-.3Z" fill="#5fe1fd"/>
        <path d="M8.72,0h.15V0H8.73Z" fill="#ce81db"/>
        <path d="M8.87,0H9S9,0,9,0A.17.17,0,0,1,8.87,0Z" fill="#ce80db"/>
        <path d="M17.34,8.48h0s0-.05,0-.08h0Z" fill="#93eafd"/>
        <path d="M17.34,8.86h0V9h0S17.31,8.89,17.34,8.86Z" fill="#90eafd"/>
        <path d="M17.34,8.33V9q0,.42-.09.84v0s0,0,0,0a3.11,3.11,0,0,0-.84.5l-.37.28a1,1,0,0,0-.21.19.4.4,0,0,1-.3.17.25.25,0,0,1-.15-.05.14.14,0,0,0-.14,0l-.11.07a.09.09,0,0,1-.12,0,4.58,4.58,0,0,0-.35-.42,1.47,1.47,0,0,1-.23-.45,3.79,3.79,0,0,0-.45-.81l-.09-.1a.15.15,0,0,1,0-.07l.12-.34v0a3.21,3.21,0,0,1,.22-.54l.35-.74L15,6.64l.71-1,.56-.61A1.42,1.42,0,0,1,16.43,5l0,0a4.22,4.22,0,0,1,.3.65,7.53,7.53,0,0,1,.44,1.61A8.84,8.84,0,0,1,17.34,8.33Z" fill="#29d7fd"/>
        <path d="M2.87,15.09a1.81,1.81,0,0,1-.32-.3l-.36-.37A7.75,7.75,0,0,1,1,12.65c-.12-.24-.25-.49-.35-.75a1.39,1.39,0,0,1-.1-.33.27.27,0,0,1,0-.09.15.15,0,0,1,.18-.14.32.32,0,0,0,.23-.08,2.86,2.86,0,0,1,.48-.36c.2-.13.38-.28.57-.43l.09-.1a1,1,0,0,1,.12-.17l.13-.13c.11-.06.12-.15,0-.25v0a0,0,0,0,1,0,0,2.61,2.61,0,0,0,.24-.23.6.6,0,0,1,.15-.09.11.11,0,0,1,.08,0A2.55,2.55,0,0,1,3,9.74a.2.2,0,0,1,0,.11,1,1,0,0,1-.08.14.06.06,0,0,1-.06,0H2.75l0,0a.31.31,0,0,1,0,.47.68.68,0,0,1-.12.12s0,.06,0,.08a.22.22,0,0,1,.13.23.59.59,0,0,0,0,.13s0,0,0,0a.15.15,0,0,1,.21.09.31.31,0,0,1,0,.13.47.47,0,0,0,.1.2l.13.15a.29.29,0,0,1,.08.14,2,2,0,0,0,.32.62l.16.23A.37.37,0,0,1,4,13s0,0,0,0,0,.13.1.14a.21.21,0,0,1,.1.06.11.11,0,0,1,0,.12.31.31,0,0,0,0,.1q-.06.11.06.15h.07a.34.34,0,0,1,.12.06.39.39,0,0,0,.11.06s0,0,0,0-.07,0-.1,0a.1.1,0,0,0-.15,0l-.09,0A.2.2,0,0,0,4,14a.13.13,0,0,1-.11.11.94.94,0,0,0-.5.24,3.55,3.55,0,0,1-.31.23.07.07,0,0,0,0,.1.43.43,0,0,1,0,.05.16.16,0,0,1-.05.18C3,15,2.92,15,2.87,15.09Z" fill="#9910d7"/>
        <path d="M13.82,9.21c0,.07.11.13.16.2a4.79,4.79,0,0,1,.33.58c.08.17.14.35.23.51a1,1,0,0,0,.18.23A3.5,3.5,0,0,1,15,11c0,.05.07.06.13,0l.09-.06a.14.14,0,0,1,.14,0c.18.11.3,0,.43-.09a1.55,1.55,0,0,1,.27-.24c.19-.13.37-.27.55-.41a2.89,2.89,0,0,1,.67-.36V10s0,0,0,.06a1.7,1.7,0,0,1-.06.31s0,.07,0,.11a2.4,2.4,0,0,0-.11.48L17,11a.46.46,0,0,1-.13.08,1.7,1.7,0,0,0-.38.26,4,4,0,0,1-.48.36l-.1,0h-.06c-.06,0-.11,0-.16,0l-.55.43a.58.58,0,0,1-.3.13.1.1,0,0,0-.07,0,.47.47,0,0,1-.19.12.51.51,0,0,0-.16.09,3.79,3.79,0,0,1-1.39.66l-.16,0c-.08,0-.12,0-.14-.1a1.43,1.43,0,0,1,.07-.28,1.46,1.46,0,0,0,.12-.37c.08-.32.17-.64.22-1s.18-.73.24-1.09.21-.68.31-1l0-.12A.49.49,0,0,1,13.82,9.21Z" fill="#28d1fd"/>
        <path d="M.18,10.35a3,3,0,0,1-.1-.52,2.58,2.58,0,0,1,0-.48s0,0,0-.06A2.09,2.09,0,0,1,0,9a.4.4,0,0,1,.14-.26.16.16,0,0,0,.05-.19.22.22,0,0,1,0-.22,4.58,4.58,0,0,0,.44-.7l.2-.28A.28.28,0,0,0,1,7.2a.24.24,0,0,1,0-.08A.11.11,0,0,1,1.09,7a.25.25,0,0,1,.08.16.17.17,0,0,1,0,.12s0,0,0,.05l.06,0c.1.07.17,0,.25-.05a2.17,2.17,0,0,0,.25-.45l.09-.14s.06,0,.1,0A1.69,1.69,0,0,1,2,7.08c0,.14.05.29.07.44a2.53,2.53,0,0,0,.12.36.53.53,0,0,1,.06.39.1.1,0,0,0,.08.12c.05,0,.1,0,.14,0s0,0,0,.05-.17.23-.26.34a3,3,0,0,1-.39.41,3.06,3.06,0,0,1-.46.42.73.73,0,0,0-.08.09L.91,10,.84,10a1.6,1.6,0,0,1-.4.23l-.2.1A.07.07,0,0,1,.18,10.35Z" fill="#d308a3"/>
        <path d="M3.81,1.51A4.81,4.81,0,0,1,4.59,1c.18-.09.35-.19.53-.27L5.44.63c0,.09.08.18.12.27a3,3,0,0,0,.38.68s0,0,0,0c-.12.23-.25.46-.38.69a.61.61,0,0,0,0,.12.83.83,0,0,1-.09.16.56.56,0,0,0-.07.16c-.06.15-.14.28-.21.43a.37.37,0,0,0,0,.11s0,0,0,.06a1.6,1.6,0,0,1-.1.23,1.71,1.71,0,0,1-.13.23.14.14,0,0,1-.15-.09.87.87,0,0,1-.07-.17c-.09-.25-.17-.49-.27-.73A3.25,3.25,0,0,0,4,2.16a.81.81,0,0,1-.12-.37,2,2,0,0,0,0-.24A.06.06,0,0,1,3.81,1.51Z" fill="#e10b94"/>
        <path d="M2.5,2.6a1,1,0,0,1,.2-.21c.23-.19.44-.41.68-.58l.05,0a.08.08,0,0,1,0,0,1.55,1.55,0,0,1-.08.83.52.52,0,0,0,0,.44.22.22,0,0,1,0,.14.55.55,0,0,0,0,.28.28.28,0,0,1,0,.28l-.09.11s0,.05,0,.07,0,0,.07,0l.06,0A.11.11,0,0,1,3.62,4a.38.38,0,0,1,0,.18.86.86,0,0,0,0,.17s0,.09,0,.11a.28.28,0,0,1,.15.28A.41.41,0,0,0,3.84,5a2.26,2.26,0,0,1,.25.49.66.66,0,0,1,0,.14C4,5.78,3.9,6,3.8,6.16l-.15.31s0,.06,0,.07a.21.21,0,0,1-.26-.12c-.06-.24-.17-.47-.21-.72a.73.73,0,0,1,.06-.46.2.2,0,0,0,0-.11s0,0,0,0A.2.2,0,0,1,3,4.94a.1.1,0,0,0-.08-.07.13.13,0,0,1-.11-.16s0-.07.08-.06,0,0,.07,0a.29.29,0,0,0,0-.16,2.76,2.76,0,0,1-.08-.27,1.52,1.52,0,0,1,0-.21.08.08,0,0,0,0,0s0-.06-.07-.06,0,0-.06.07a.18.18,0,0,1-.18.15.1.1,0,0,1-.09,0A.93.93,0,0,0,2.34,4a.37.37,0,0,1,0-.18,3.27,3.27,0,0,0,0-.54V3.12a.31.31,0,0,1,.06-.26A.34.34,0,0,0,2.5,2.6Z" fill="#db0a98"/>
        <path d="M4.08,5.45C4,5.36,4,5.27,4,5.17S3.84,5,3.8,4.92a.41.41,0,0,1,0-.21.26.26,0,0,0-.13-.25.14.14,0,0,1-.07-.19c0-.08.05-.15.06-.23a.18.18,0,0,0-.06-.14.11.11,0,0,0-.11,0L3.38,4S3.32,4,3.3,4a.05.05,0,0,1,0-.08l.09-.12a.26.26,0,0,0,0-.29.4.4,0,0,1,0-.24.49.49,0,0,0,0-.21.48.48,0,0,1,0-.39A1.55,1.55,0,0,0,3.46,2l0-.21a1.46,1.46,0,0,1,.38-.27,1,1,0,0,1,.07.33A.64.64,0,0,0,4,2.15,4,4,0,0,1,4.41,3c.07.21.15.43.23.64s.07.16.17.17,0,0,0,0a7.33,7.33,0,0,1-.29.7l-.15.27c-.06.12-.1.24-.16.36a1.67,1.67,0,0,0-.08.2S4.11,5.44,4.08,5.45Z" fill="#df0a97"/>
        <path d="M11.09,17a5.23,5.23,0,0,1-.68.18,5.27,5.27,0,0,1-1,.13l-.2,0H9c-.09,0-.12,0-.14-.1a.68.68,0,0,0-.13-.27,2.07,2.07,0,0,1-.15-.25.19.19,0,0,1,0-.08s.07,0,.11-.06a9.8,9.8,0,0,0,1.2-.37.93.93,0,0,0,.2-.1,3.25,3.25,0,0,0,.67-.34l.16-.09h0s0,0,.07.06a.21.21,0,0,0,.24.06l.08,0a.11.11,0,0,1,.15,0s0,0,.05,0a.06.06,0,0,0,.09,0l0-.08.05-.1a.1.1,0,0,1,.16,0,.26.26,0,0,0,.15.07,0,0,0,0,1,0,0c0,.07-.1.14-.14.21a.3.3,0,0,1-.1.07.52.52,0,0,0-.17.22,1.32,1.32,0,0,1-.39.54.28.28,0,0,0-.12.2A.05.05,0,0,1,11.09,17Z" fill="#21c4fd"/>
        <path d="M5.06,3.3A2.11,2.11,0,0,1,5.22,3a1.3,1.3,0,0,0,.14-.32.15.15,0,0,1,0-.07l0,0A4,4,0,0,1,5.72,2c.07-.13.15-.26.21-.4a.05.05,0,0,1,0,0L6.54.66l.27-.4a.1.1,0,0,1,0-.05A4,4,0,0,1,7.76.06c.06,0,.08,0,.08.06a.18.18,0,0,1,0,.1c-.11.17-.21.35-.31.52a.12.12,0,0,0,0,.11A.14.14,0,0,1,7.4,1a7.33,7.33,0,0,0-.63.73c-.08.11-.15.23-.22.35a.18.18,0,0,1,0,.07,3.58,3.58,0,0,0-.39.29L6,2.56l-.16.15-.25.21L5.45,3a.69.69,0,0,0-.23.22.2.2,0,0,1-.1.08A.06.06,0,0,1,5.06,3.3Z" fill="#9407b4"/>
        <path d="M2.35,9.8a.16.16,0,0,1,0,.28.4.4,0,0,0-.17.17,1,1,0,0,1-.18.23l-.38.3c-.21.14-.42.28-.62.44a.39.39,0,0,0-.1.08.14.14,0,0,1-.13,0h0c-.14,0-.19.05-.19.18s0,0,0,0a2.42,2.42,0,0,1-.22-.69s.09,0,.13-.06a.48.48,0,0,0,.11-.09,1.69,1.69,0,0,1,.82-.62L1.75,10l.54-.15S2.33,9.78,2.35,9.8Z" fill="#9410d4"/>
        <path d="M.11,7.37A1.93,1.93,0,0,1,.17,7a10.15,10.15,0,0,1,.41-1.4,7.3,7.3,0,0,1,.73-1.45l0,0s0,0,0,0a1.11,1.11,0,0,1,0,.36.4.4,0,0,1-.07.24.72.72,0,0,0-.14.49.51.51,0,0,1,0,.17A4.55,4.55,0,0,0,1.07,6s0,.06,0,.09a1.75,1.75,0,0,0-.21.46,1.34,1.34,0,0,1-.17.31A.23.23,0,0,1,.57,7a.15.15,0,0,0-.1.09l-.14.22a.28.28,0,0,1-.18.14S.09,7.42.11,7.37Z" fill="#ca0899"/>
        <path d="M.11,7.37s0,0,0,0a.29.29,0,0,0,.17-.14c0-.07.09-.15.14-.23a.27.27,0,0,1,.12-.09A.23.23,0,0,0,.7,6.82a1.74,1.74,0,0,0,.22-.48.38.38,0,0,1,.13-.22s0,0,.06,0a.23.23,0,0,1,.1.12,1,1,0,0,0,.1.17.39.39,0,0,1,0,.21c0,.08-.07.15-.1.22A1,1,0,0,0,1.11,7s0,0,0,0A.17.17,0,0,0,1,7.18a.41.41,0,0,1-.11.24,2.48,2.48,0,0,0-.27.39l-.21.38a2.09,2.09,0,0,1-.14.17.24.24,0,0,0,0,.23.16.16,0,0,1-.06.2A.35.35,0,0,0,.06,9c0,.08,0,.17,0,.25a3.89,3.89,0,0,1,0-.47A9.73,9.73,0,0,1,.1,7.39Z" fill="#cd07a0"/>
        <path d="M2.87,15.09c0-.05.07-.07.1-.11l0,0a.18.18,0,0,0,0-.24.09.09,0,0,1,0-.12c.14-.09.26-.2.4-.3a1,1,0,0,1,.42-.17A.12.12,0,0,0,4,14a.24.24,0,0,1,.16-.2h0a.8.8,0,0,1,.27,0h.06a.47.47,0,0,0,.29-.14A.18.18,0,0,1,5,13.6a.07.07,0,0,1,0,.06,1.62,1.62,0,0,1-.22.46l-.09.19a.08.08,0,0,1,0,0h0s-.09,0-.14,0l-1.26.95s0,0,0,0A1,1,0,0,1,2.87,15.09Z" fill="#9510d5"/>
        <path d="M16.91,11.31a.54.54,0,0,1-.05.21,1.62,1.62,0,0,0-.1.18.31.31,0,0,0-.23.11c-.2.17-.39.37-.6.53a.52.52,0,0,0-.1.11,1.71,1.71,0,0,0-.11.14.92.92,0,0,1-.21.17,1.8,1.8,0,0,0-.39.29c-.21.19-.39.41-.58.61a1.29,1.29,0,0,1-.16.17l-.47.49c-.14.16-.29.32-.44.47a.08.08,0,0,1,0,0,1.08,1.08,0,0,0-.11.18.55.55,0,0,0-.21.12l-.15.1s-.06,0-.1,0a.07.07,0,0,1,0-.06l0-.06a1.65,1.65,0,0,0,.27-.38,1.61,1.61,0,0,1,.32-.37,1.73,1.73,0,0,1,.39-.5c.14-.13.28-.25.41-.39a3.57,3.57,0,0,1,.27-.28,6.41,6.41,0,0,1,.78-.69l.42-.37a2.73,2.73,0,0,1,.43-.33l.28-.17a.69.69,0,0,0,.24-.27C16.76,11.31,16.81,11.3,16.91,11.31Z" fill="#2dc3fd"/>
        <path d="M16.91,11.31h0c-.1,0-.15.06-.19.15a.83.83,0,0,1-.3.26,4.69,4.69,0,0,0-.68.49,6,6,0,0,1-.61.52,2.09,2.09,0,0,0-.28.24l-.69.71-.34.31a1.75,1.75,0,0,0-.28.39h0a.72.72,0,0,0-.39.25l-.17.15s0,0,0,0a.08.08,0,0,1,0-.07.52.52,0,0,1,.09-.2.93.93,0,0,1,.13-.15c.1-.1.19-.22.29-.33a3.43,3.43,0,0,1,.33-.33,6.2,6.2,0,0,0,.44-.45,1.67,1.67,0,0,1,.23-.23l.35-.33.52-.48.06-.05a.15.15,0,0,1,.12-.07.12.12,0,0,0,.11-.07.28.28,0,0,1,.12-.12c.06,0,.12-.06.14-.14s0,0,.06,0a5.76,5.76,0,0,0,.51-.35,1.74,1.74,0,0,1,.38-.29A.93.93,0,0,1,17,11,.62.62,0,0,1,16.91,11.31Z" fill="#2bc8fd"/>
        <path d="M16.56,12.14s0,0,0,.08,0,0-.06,0a1.21,1.21,0,0,0-.28.18.58.58,0,0,0-.13.2l0,.06a1.88,1.88,0,0,1-.36.27,1.17,1.17,0,0,0-.36.34c-.1.12-.2.23-.31.34s-.35.38-.52.58l-.39.46,0,0a.63.63,0,0,0-.22.34c-.2.22-.37.46-.57.66a2,2,0,0,0-.22.29.75.75,0,0,1-.13.18,1.39,1.39,0,0,1-.4.21.53.53,0,0,1,0-.12A1.72,1.72,0,0,1,12.8,16c.11-.12.22-.25.32-.38a.92.92,0,0,0,.13-.21.29.29,0,0,1,.1-.12,1.5,1.5,0,0,0,.33-.5.83.83,0,0,1,.26-.3,2.59,2.59,0,0,0,.37-.37l.32-.36.39-.38.5-.45c.22-.2.45-.38.68-.57a1,1,0,0,1,.31-.17S16.55,12.12,16.56,12.14Z" fill="#32bbfd"/>
        <path d="M2.5,2.6a.16.16,0,0,1,0,.15,1.4,1.4,0,0,1-.09.17.28.28,0,0,0,0,.2,1.48,1.48,0,0,1,0,.42c0,.14,0,.27,0,.41a.54.54,0,0,1-.05.11l-.17.25a.68.68,0,0,0-.1.5A.37.37,0,0,1,2,5.08a.55.55,0,0,0-.12.28l0,0a.1.1,0,0,1-.09,0A.59.59,0,0,1,1.66,5a1.88,1.88,0,0,0,0-.34,2.67,2.67,0,0,1,0-.4c0-.19,0-.38,0-.56a.76.76,0,0,1,0-.15A5,5,0,0,1,2.5,2.6Z" fill="#d30998"/>
        <path d="M6.34,17a1.12,1.12,0,0,1-.44-.13,0,0,0,0,1,0-.05c.22-.27.42-.56.65-.82A2.85,2.85,0,0,1,7,15.58l0,0a.87.87,0,0,0,.32-.22c.15-.12.29-.26.44-.39s.1-.06.15-.1a0,0,0,0,1,.05,0,.46.46,0,0,1-.09.2.86.86,0,0,0-.12.35.43.43,0,0,1-.14.21,3.18,3.18,0,0,0-.41.41,5.72,5.72,0,0,1-.4.46Z" fill="#634ddd"/>
        <path d="M1.69,3.56a.12.12,0,0,1,0,.08,3.38,3.38,0,0,1,0,.45c0,.08,0,.15,0,.23s0,.32,0,.48,0,.15,0,.23a.63.63,0,0,0,.05.3.43.43,0,0,1,0,0s0,0,0,.06c-.12.29-.24.58-.37.87,0,0,0,.05,0,.07s0,0,0,0a.25.25,0,0,1-.1-.15c0-.07-.07-.14-.16-.14a4,4,0,0,1,.11-.78.22.22,0,0,0,0-.08.86.86,0,0,1,.16-.56.54.54,0,0,0,.06-.35c0-.08,0-.15,0-.23l0,0A2.16,2.16,0,0,1,1.69,3.56Z" fill="#d0089a"/>
        <path d="M4.6,14.35h0a.35.35,0,0,1,.34.2.59.59,0,0,1,0,.13.47.47,0,0,0,0,.17s0,0,0,.06a2.76,2.76,0,0,0-.39.51,3.81,3.81,0,0,1-.41.58.08.08,0,0,1,0,0,2.7,2.7,0,0,1-.53-.35l0,0,0,0a5.42,5.42,0,0,0,.85-1l.13-.22A.1.1,0,0,1,4.6,14.35Z" fill="#6469f5"/>
        <path d="M8.59,16.6a1.14,1.14,0,0,0,.16.31.78.78,0,0,1,.15.32s0,.06.12.06a.58.58,0,0,1,.23,0H8.88a6.33,6.33,0,0,1-.87,0l-.76-.09a4.49,4.49,0,0,1-.59-.13A.18.18,0,0,1,6.75,17,1.06,1.06,0,0,0,6.94,17a1.65,1.65,0,0,0,.32-.07c.17-.06.34-.09.51-.14l.31-.07.45-.09S8.57,16.58,8.59,16.6Z" fill="#1ec1fd"/>
        <path d="M12.92,14.81l.2-.18c.07-.06.13-.13.2-.18a.38.38,0,0,1,.21-.07,2.18,2.18,0,0,0-.44.57,1.73,1.73,0,0,1-.17.21.18.18,0,0,0,0,.09s0,0,0,.05a3.48,3.48,0,0,1-.74.79.32.32,0,0,0-.11.12,2,2,0,0,1-.36.5.41.41,0,0,0-.07.11,1.41,1.41,0,0,1-.49.16.29.29,0,0,1,.12-.24,1.34,1.34,0,0,0,.4-.54.43.43,0,0,1,.24-.27h0l.17-.27h0c.12,0,.18-.15.29-.19s0,0,0,0a3.2,3.2,0,0,0,.41-.5A.31.31,0,0,1,12.92,14.81Z" fill="#29c4fd"/>
        <path d="M6.85.21c-.07.13-.16.24-.24.37L6,1.51l-.06.07s0,0,0,0A3,3,0,0,1,5.55.9L5.47.72l0-.09A6.85,6.85,0,0,1,6.82.21Z" fill="#e50c90"/>
        <path d="M6.93,17c-.08.05-.19,0-.27.1H6.54a.44.44,0,0,1-.2-.08s0,0,0,0l.31-.34c.14-.17.29-.33.44-.5s.21-.26.32-.38l.19-.16a.51.51,0,0,0,.15-.21l0,0c.19-.12.37-.23.55-.36l.1-.1s0,0,.09,0,0,.05,0,.08c-.14.19-.28.39-.44.57a2.34,2.34,0,0,1-.32.31,4.34,4.34,0,0,0-.51.54.93.93,0,0,1-.23.21.35.35,0,0,0-.16.26A.16.16,0,0,0,6.93,17Z" fill="#6348da"/>
        <path d="M16.33,12.7a3.71,3.71,0,0,1-.44.74,1.32,1.32,0,0,0-.29.24s0,0,0,0a.16.16,0,0,0-.15.07c-.19.18-.37.38-.55.57a7.91,7.91,0,0,0-.71.81,1.72,1.72,0,0,1-.34.32s0,0-.06,0a.61.61,0,0,1,.11-.29l.1-.11a.74.74,0,0,0,.13-.21l.23-.28L15,13.9l.53-.54c.2-.2.4-.39.61-.57l.13-.09S16.3,12.67,16.33,12.7Z" fill="#38b1fd"/>
        <path d="M7,15.56a3.12,3.12,0,0,0-.45.44c-.23.26-.43.54-.64.81,0,0,0,0,0,.06a1.69,1.69,0,0,1-.43-.15l0,0s0,0,0,0a.75.75,0,0,0,.29-.27,1.16,1.16,0,0,1,.2-.24.63.63,0,0,0,.26-.25,1.34,1.34,0,0,1,.11-.14.41.41,0,0,1,.21-.1.08.08,0,0,0,.07-.05.57.57,0,0,1,.21-.27A1.88,1.88,0,0,0,7,15.19s0,0,0,0a.14.14,0,0,1,0,.09A.59.59,0,0,0,7,15.56Z" fill="#6352e1"/>
        <path d="M1.74,10a1.89,1.89,0,0,1-.25.11,2.5,2.5,0,0,0-.66.36,1.5,1.5,0,0,0-.27.29.38.38,0,0,1-.26.16,1.63,1.63,0,0,1-.12-.53A3.55,3.55,0,0,0,.82,10l.48-.3h0a.71.71,0,0,1,.4.23S1.74,10,1.74,10Z" fill="#920fd1"/>
        <path d="M7.48.74A2.4,2.4,0,0,1,7.64.47l.18-.3c0-.06,0-.1-.06-.11a4.89,4.89,0,0,1,.55,0h.17s0,0,0,.08a1.88,1.88,0,0,1-.33.56,2.2,2.2,0,0,0-.34.55.15.15,0,0,1,0,.07.11.11,0,0,1-.12-.1A.24.24,0,0,0,7.5,1s0,0,0-.07a.49.49,0,0,0,0-.12A.13.13,0,0,1,7.48.74Z" fill="#9b06b6"/>
        <path d="M4.13,16a.64.64,0,0,1,.1-.13c.13-.16.23-.33.34-.49A2.65,2.65,0,0,1,5,14.88a0,0,0,0,1,0,0,3.17,3.17,0,0,1,.34-.28.33.33,0,0,1,.22-.06s0,0,0,.06a1.78,1.78,0,0,1-.25.36,1.14,1.14,0,0,0-.29.58c-.06.08-.13.14-.19.21a1.29,1.29,0,0,0-.25.36c0,.06-.08.09-.13.12A.9.9,0,0,1,4.13,16Z" fill="#6465f2"/>
        <path d="M16.33,12.7a.11.11,0,0,0-.12,0,6.1,6.1,0,0,0-.59.54l-.59.59c-.15.15-.29.3-.43.46s-.34.4-.51.6a1.07,1.07,0,0,0-.16.14.09.09,0,0,1-.1,0c0-.07.05-.12.08-.18h0a.46.46,0,0,1,.14-.17,2.1,2.1,0,0,0,.24-.27c.1-.11.2-.22.29-.34l.5-.54c.11-.12.22-.24.32-.37a1.4,1.4,0,0,1,.36-.28,1.39,1.39,0,0,0,.19-.15.91.91,0,0,0,.17-.23.79.79,0,0,1,.31-.26l.12-.06a.62.62,0,0,1-.08.24C16.43,12.54,16.38,12.62,16.33,12.7Z" fill="#35b6fd"/>
        <path d="M4.6,14.35c-.08.14-.16.28-.25.41a4.33,4.33,0,0,1-.42.52l-.37.37a1.49,1.49,0,0,1-.4-.31l1-.73.34-.27S4.56,14.31,4.6,14.35Z" fill="#930fd1"/>
        <path d="M13.44,14.82l0,0,.33-.35.43-.45.43-.46c.13-.14.25-.29.38-.42a3.15,3.15,0,0,1,.55-.41.55.55,0,0,0,.18-.19,1.48,1.48,0,0,1,.28-.28l.15-.13c.13-.13.27-.25.41-.37a.16.16,0,0,1,.16,0,.64.64,0,0,1-.15.38l0,0a.84.84,0,0,0-.4.2c-.25.21-.5.4-.74.61l-.27.26-.5.47c-.17.19-.35.37-.5.56a3,3,0,0,1-.26.24,1.21,1.21,0,0,0-.19.2.12.12,0,0,0,0,.09.24.24,0,0,1-.19.1S13.45,14.85,13.44,14.82Z" fill="#31bffc"/>
        <path d="M5.94,16.16c-.11.11-.18.26-.28.37a.69.69,0,0,1-.23.16.71.71,0,0,1-.31-.13.06.06,0,0,1,0-.06.59.59,0,0,1,.17-.27L5.47,16a1.55,1.55,0,0,0,.21-.23c.13-.09.24-.22.37-.33l.06,0s0,0,0,0a.41.41,0,0,1,0,.22A1.17,1.17,0,0,1,6,16,.41.41,0,0,0,5.94,16.16Z" fill="#6258e5"/>
        <path d="M11.58,16.82a.13.13,0,0,1,0-.1,1.82,1.82,0,0,0,.39-.53.46.46,0,0,1,.16-.15,3.87,3.87,0,0,0,.41-.4q.16-.2.3-.39a.46.46,0,0,0,.23-.12.45.45,0,0,1,.23-.13.23.23,0,0,1-.08.11c-.18.21-.35.43-.52.65l-.31.38a1.27,1.27,0,0,0-.23.41l0,0a3.09,3.09,0,0,1-.57.23Z" fill="#2abffd"/>
        <path d="M4.43,16.21a0,0,0,0,1,0,0A.41.41,0,0,0,4.61,16a1.24,1.24,0,0,1,.14-.18L5,15.52s.09-.07.13-.11a2,2,0,0,1,.28-.21.11.11,0,0,1,.11,0s0,.07,0,.11a.75.75,0,0,1-.1.2.59.59,0,0,0,0,.19.09.09,0,0,1,0,.05,4.69,4.69,0,0,1-.42.47.5.5,0,0,1-.25.15A.48.48,0,0,1,4.43,16.21Z" fill="#6360ee"/>
        <path d="M12.18,16.59a1.54,1.54,0,0,1,.35-.59l.31-.39a4.78,4.78,0,0,1,.34-.42c.05-.07.11-.13.16-.19a.52.52,0,0,1,.1-.18.15.15,0,0,0,.16,0,.24.24,0,0,0,.08-.06h0a1.5,1.5,0,0,1-.26.44.61.61,0,0,0-.18.21,1.59,1.59,0,0,1-.27.37,5.32,5.32,0,0,0-.37.46,1.21,1.21,0,0,0-.09.2Z" fill="#2ebcfd"/>
        <path d="M4.68,16.35A1,1,0,0,0,5,16.07l.33-.38c.09-.06.16-.14.24-.2l.1-.06s0,0,0,0a1,1,0,0,0-.06.35s0,0,0,0a3.88,3.88,0,0,1-.39.42.71.71,0,0,0-.16.28.06.06,0,0,0,0,0A1.38,1.38,0,0,1,4.68,16.35Z" fill="#625dea"/>
        <path d="M13.75,15.51a2.19,2.19,0,0,0,.43-.43c.1-.11.19-.23.29-.35s.35-.38.53-.56a5,5,0,0,0,.39-.41.18.18,0,0,1,.15-.06s0,.05,0,.07-.27.32-.4.48a5.35,5.35,0,0,1-.45.5,1.6,1.6,0,0,0-.36.49l0,0a2.71,2.71,0,0,1-.57.44h0a0,0,0,0,1,0,0,1.34,1.34,0,0,1,.07-.18Z" fill="#38acfc"/>
        <path d="M14.27,15.27a1.17,1.17,0,0,1,.22-.37c.1-.12.22-.22.32-.33s.29-.34.43-.52l.21-.24a.44.44,0,0,0,.09-.11s0,0,.06,0a.76.76,0,0,1,.24-.2l.05,0a3.54,3.54,0,0,1-.35.51,7.38,7.38,0,0,1-1.25,1.31Z" fill="#3ca7fb"/>
        <path d="M13.75,15.51a1.89,1.89,0,0,0-.09.21,2.65,2.65,0,0,1-.74.49c.07-.12.15-.22.22-.33s.21-.23.3-.35l.26-.31a.86.86,0,0,1,.13-.14A.17.17,0,0,0,14,15a.19.19,0,0,1,.13-.1.57.57,0,0,1-.15.23A.66.66,0,0,0,13.75,15.51Z" fill="#35b2fc"/>
        <path d="M13.69,14.74h0c0-.07.05-.12.09-.16a1.55,1.55,0,0,1,.23-.21,3.33,3.33,0,0,0,.36-.39l.2-.21a2.18,2.18,0,0,1,.21-.22,1.31,1.31,0,0,1,.21-.2l.06-.06c.17-.16.33-.32.51-.47l.69-.56a1,1,0,0,1,.29-.15h0l0,0a1,1,0,0,0-.4.22l-.51.42-.3.26c-.27.24-.52.49-.77.74l-.39.44a1.29,1.29,0,0,1-.27.25A1,1,0,0,0,13.69,14.74Z" fill="#31bffc"/>
        <path d="M8.88,17.34a.17.17,0,0,1,.1,0Z" fill="#21c4fd"/>
        <path d="M9.18,17.32s0,0,.07,0Z" fill="#21c4fd"/>
        <path d="M17.23,10s0,0,0-.06A.13.13,0,0,1,17.23,10Z" fill="#29d7fd"/>
        <path d="M9.06,17.33s0,0,0,0Z" fill="#21c4fd"/>
        <path d="M10.32.18a2.64,2.64,0,0,1,.56.11c.16.06.32.09.48.14a2.62,2.62,0,0,1,.39.15.7.7,0,0,0,0,.14.55.55,0,0,0,.09.33c.09.15.19.29.27.45a1.59,1.59,0,0,1,.12.27.87.87,0,0,0,.16.3c.07.11.16.21.22.32a.56.56,0,0,1,.07.18.12.12,0,0,0,0,.07s0,0,0,0l-.34.25a3.22,3.22,0,0,0-.41.32l-.55.39-.08.05a.27.27,0,0,1-.22-.13,4.51,4.51,0,0,1-.46-.87,1.67,1.67,0,0,1-.08-.32.23.23,0,0,0-.12-.18.2.2,0,0,1-.11-.26,2.38,2.38,0,0,0,.05-.26s0-.05,0-.05h-.05c-.09,0-.11-.05-.11-.14s0-.09,0-.14A1.11,1.11,0,0,0,10.1.6v0a.16.16,0,0,1,0-.13.56.56,0,0,0,.17-.26Z" fill="#b007c0"/>
        <path d="M12.71,2.64s-.06,0-.06,0a1.15,1.15,0,0,0-.23-.42,1.63,1.63,0,0,1-.28-.52,2.16,2.16,0,0,0-.26-.47,1.14,1.14,0,0,1-.17-.35.34.34,0,0,1,0-.26,6.07,6.07,0,0,1,.59.24,7.46,7.46,0,0,1,1.6,1l0,0a.12.12,0,0,1-.07,0c-.14.1-.28.21-.43.3a4.79,4.79,0,0,0-.53.34,1.32,1.32,0,0,1-.2.12Z" fill="#b305bd"/>
        <path d="M13.47,2.17l.5-.34a3.48,3.48,0,0,1,.48.38,6,6,0,0,1,.61.62l0,0a0,0,0,0,1,0,.05.31.31,0,0,1-.2.22.41.41,0,0,0-.11.07.31.31,0,0,0-.11.26.75.75,0,0,1,0,.15l0,0a.1.1,0,0,1-.17,0l-.07-.06a.25.25,0,0,0-.17,0c-.18.05-.23,0-.29-.15a.4.4,0,0,1,0-.15.3.3,0,0,0,0-.1,3.21,3.21,0,0,0-.36-.95Z" fill="#7933fc"/>
        <path d="M10.32.18a.4.4,0,0,1-.14.24.23.23,0,0,0-.07.15.66.66,0,0,0-.28.27.43.43,0,0,1-.1.09A.23.23,0,0,0,9.65,1a3.53,3.53,0,0,1-.28.5c-.08.13-.17.26-.26.38l0,0,0,0a.16.16,0,0,0-.25,0,.55.55,0,0,1-.23.14h0a.09.09,0,0,1,0-.09,1.08,1.08,0,0,0,.07-.31.81.81,0,0,1,0-.16l0-.05A.91.91,0,0,0,9,1,.32.32,0,0,1,9.07.75a.08.08,0,0,0,0-.07A.11.11,0,0,1,9.16.59.41.41,0,0,0,9.39.31c0-.08,0-.17.09-.26.23.05.47,0,.7.08Z" fill="#a707be"/>
        <path d="M15.92,4s0,0,0,0,0,0,0,.06c-.21.22-.44.42-.66.64a1.22,1.22,0,0,0-.2.25S15,5,15,5a2.06,2.06,0,0,1-.39.39c-.09.06-.15.15-.23.21l-.15.1s0,0-.06,0-.05-.07-.06-.1A.34.34,0,0,0,14,5.38a.7.7,0,0,1,0-.25l.06-.1.25-.21a3.83,3.83,0,0,1,.42-.28s.06-.08.08-.13l.26-.12c.15-.06.29-.14.44-.21A1,1,0,0,1,15.9,4Z" fill="#7531f0"/>
        <path d="M9.48.05c0,.05,0,.09,0,.14L9.38.37A.37.37,0,0,1,9.15.6a.11.11,0,0,0,0,.09.07.07,0,0,1,0,.07A.27.27,0,0,0,9,.92a1,1,0,0,1-.3.53l-.08.07h0a.92.92,0,0,0-.28.09s-.07,0-.12,0,0,0,0,0a3.27,3.27,0,0,0,.17-.53s0-.06,0-.08A1,1,0,0,0,8.62.75a1.27,1.27,0,0,0,.2-.36A.67.67,0,0,1,9,.14.37.37,0,0,1,9.23,0h0A.82.82,0,0,0,9.48.05Z" fill="#a407bc"/>
        <path d="M9.26,0s0,0,0,0a.4.4,0,0,0-.33.23c-.05.1-.09.21-.15.31a1.12,1.12,0,0,1-.35.4H8.33c-.07,0-.11,0-.15.09A3.11,3.11,0,0,1,8,1.38a.27.27,0,0,1-.16.1.11.11,0,0,1-.08,0,.09.09,0,0,1,0-.11,1.17,1.17,0,0,1,0-.11c.07-.13.13-.27.21-.39a1.64,1.64,0,0,1,.2-.26A2.35,2.35,0,0,0,8.48.05s0,0,0,0h.59Z" fill="#9f06b9"/>
        <path d="M16.18,4.36a1.62,1.62,0,0,1,.22.41s-.08,0-.11.07a2.36,2.36,0,0,0-.44.32c-.14.13-.29.24-.44.36s0,.05-.08.05a.08.08,0,0,0-.11,0,.3.3,0,0,1-.3,0,.05.05,0,0,1-.05,0s0,0,0,0a4.27,4.27,0,0,1,.3-.44l.1-.08.4-.31A2.46,2.46,0,0,1,16,4.5a.2.2,0,0,0,.13-.12S16.16,4.36,16.18,4.36Z" fill="#732ae8"/>
        <path d="M14.66,3.61a.44.44,0,0,1,.1-.42.29.29,0,0,1,.12-.07.32.32,0,0,0,.2-.26,2.26,2.26,0,0,1,.44.53.23.23,0,0,1-.18.25.21.21,0,0,0-.18.17s0,0,0,0-.08,0-.12,0a.93.93,0,0,0-.24,0l-.17,0a.14.14,0,0,1-.11,0,.07.07,0,0,1,0-.06.31.31,0,0,1,.11-.09.1.1,0,0,1,.05,0S14.71,3.66,14.66,3.61Z" fill="#7830f8"/>
        <path d="M15.13,3.86a.27.27,0,0,1,.23-.24.18.18,0,0,0,.14-.16s0,0,0-.07a1.81,1.81,0,0,1,.4.59l-.21,0-.26.11-.34.16-.28.13a.16.16,0,0,1,.07-.2A1.14,1.14,0,0,0,15,4.11a.48.48,0,0,0,.09-.19S15.11,3.88,15.13,3.86Z" fill="#782df3"/>
        <path d="M16.18,4.36a.26.26,0,0,1-.15.16,2.27,2.27,0,0,0-.48.33A2.27,2.27,0,0,1,15.3,5,1,1,0,0,1,15.06,5s0,0,0,0a.39.39,0,0,1,.11-.17l.43-.42c.13-.11.24-.24.36-.35a1,1,0,0,1,.19.27A.36.36,0,0,0,16.18,4.36Z" fill="#762bed"/>
        <path d="M15.34,5.56a2.78,2.78,0,0,1,.27-.21l.3-.25a1.67,1.67,0,0,1,.44-.31l0,0a.26.26,0,0,1,.07.16A4.09,4.09,0,0,0,16,5.4a3.71,3.71,0,0,1-.27.29.62.62,0,0,1-.25.11.19.19,0,0,1-.19-.07A.21.21,0,0,1,15.34,5.56Z" fill="#7228e4"/>
        <path d="M15,6.65l-.52.9s0,0-.09,0a.64.64,0,0,0-.33.25s-.06.11-.1.16l-.26.17a1.5,1.5,0,0,0-.36.35.59.59,0,0,1-.17.18.2.2,0,0,1-.17,0v0a3.36,3.36,0,0,1,.16-.33,5,5,0,0,1,.32-.48c.14-.19.26-.4.4-.59l0,0A1.58,1.58,0,0,0,14.34,7a5.44,5.44,0,0,1,.65-.3S15,6.63,15,6.65Z" fill="#6e2ede"/>
        <path d="M15,6.65c-.11,0-.21.08-.32.12l-.39.2a1.09,1.09,0,0,0-.17.13.41.41,0,0,1-.21.1s0-.06,0-.09A.41.41,0,0,1,14,7a.11.11,0,0,0,0-.14v0a.06.06,0,0,1,0-.05l.14-.14a5.34,5.34,0,0,0,.44-.39c.21-.19.43-.36.65-.54,0,0,0,0,.05,0a.24.24,0,0,0,.29,0,.84.84,0,0,1,.14-.06l-.57.79Z" fill="#702de1"/>
        <path d="M14,7.94a.73.73,0,0,1,.37-.4.13.13,0,0,1,.08,0c.05,0,.06,0,.07,0l-.27.58c-.08.17-.17.34-.24.52s-.11.32-.16.49l0,.07-.08.15c-.12.05-.18.16-.28.23l-.05.05a1.59,1.59,0,0,0-.13.13s-.06,0-.08,0a.13.13,0,0,1,0-.13c0-.08,0-.09,0-.15s0-.05,0-.06.09,0,.14,0,.05,0,0-.05a.41.41,0,0,1,0-.22.1.1,0,0,0,0-.09.09.09,0,0,1,0-.07c.06-.09.12-.19.19-.28a.24.24,0,0,0,0-.09.54.54,0,0,1,.14-.36A.73.73,0,0,0,14,7.94Z" fill="#6c2ed9"/>
        <path d="M5,13.6s-.07,0-.1,0a.33.33,0,0,0-.11.09.34.34,0,0,1-.27.1h0c-.11,0-.18-.13-.3-.15s-.15-.08-.09-.19l0-.06a.1.1,0,0,0-.07-.16h0c-.13,0-.13-.07-.11-.18a.44.44,0,0,0-.07-.4c-.11-.16-.22-.31-.32-.47a1.79,1.79,0,0,1-.13-.32.52.52,0,0,0-.11-.19.62.62,0,0,1-.22-.37.14.14,0,0,0,0-.09.13.13,0,0,0-.2-.07s0,0,0,0,0-.08,0-.12a.21.21,0,0,0-.15-.25s0,0,0-.05.1-.09.14-.14a.31.31,0,0,0-.06-.49s0,0,0,0,0,0,0,0h0a.06.06,0,0,0,.07,0,.6.6,0,0,1,.06-.11.14.14,0,0,0,0-.14c0-.08-.07-.17-.11-.26s0,0,0-.06l.09-.1A.2.2,0,0,0,3,9.13s0,0,0,0h0A.42.42,0,0,0,3.34,9l.2-.17c.13-.13.25-.26.39-.38a.51.51,0,0,1,.13-.09s0,0,.06,0a.22.22,0,0,1,0,.08.06.06,0,0,0,0,.06h0a.12.12,0,0,1,.09.13,1.84,1.84,0,0,1,0,.33s0,.07,0,.08a.19.19,0,0,1,.11.09l.12.13a.15.15,0,0,0,.12,0c.06,0,.09,0,.08.07a.7.7,0,0,0,.13.47,1.27,1.27,0,0,1,.12.23,1,1,0,0,0,.13.22l.13.18a.57.57,0,0,1,.11.33.08.08,0,0,0,0,.08.84.84,0,0,1,.21.38.53.53,0,0,0,.21.31,0,0,0,0,1,0,0c-.13.38-.27.77-.41,1.15a5.63,5.63,0,0,0-.36.79S5,13.6,5,13.6Z" fill="#9d0ed3"/>
        <path d="M3,9.1c0,.12-.08.18-.15.26a.16.16,0,0,0-.07.09.4.4,0,0,0-.22.12,1.79,1.79,0,0,1-.25.23L1.82,10H1.74a1.5,1.5,0,0,0-.13-.11,1.09,1.09,0,0,0-.31-.14.57.57,0,0,1,.14-.13,1.47,1.47,0,0,0,.22-.21c.06-.07.14-.13.2-.19a4.5,4.5,0,0,0,.61-.7.16.16,0,0,0,0-.07.1.1,0,0,1,.06-.05,0,0,0,0,1,.05.05s0,.08,0,.12,0,.09.11.08l.13,0,.07,0c.06,0,.09,0,.1.08a.12.12,0,0,0,0,.1s0,0,0,.09L3,8.91C3,9,3,9,3,9.08Z" fill="#960ed0"/>
        <path d="M12.92,14.81c-.14.09-.21.26-.32.38s-.12.15-.19.22-.07.07-.12.08a.18.18,0,0,0-.07,0,.29.29,0,0,1-.18.11.15.15,0,0,1-.15-.05c-.05-.06-.11,0-.15,0a1,1,0,0,0-.07.15c0,.07-.09.09-.14,0a.16.16,0,0,0-.22,0c-.15.07-.23,0-.35-.11s0-.06.08-.09l.09-.08a1.08,1.08,0,0,0,.24-.18c.12-.11.22-.23.34-.33a1,1,0,0,0,.16-.2c.08-.12.17-.23.26-.35a2.87,2.87,0,0,0,.26-.49c.09-.17.16-.34.25-.51a1,1,0,0,1,.07-.15s0,0,0,0,0,.09.11.07a4.27,4.27,0,0,0,.72-.21,3.46,3.46,0,0,0,.85-.5.55.55,0,0,1,.15-.08.34.34,0,0,0,.18-.11.13.13,0,0,1,.09-.05.41.41,0,0,0,.26-.11c.17-.14.34-.26.52-.39l.08-.06a.12.12,0,0,1,.14,0h.06a.16.16,0,0,0-.06.08c0,.06-.08.08-.12.11a.25.25,0,0,0-.13.12c0,.06-.08.07-.14.08s0,0-.05,0l-.3.27-.64.6a2.65,2.65,0,0,0-.33.34c-.12.13-.25.25-.38.37a4.57,4.57,0,0,0-.43.45,1.81,1.81,0,0,1-.18.21.79.79,0,0,0-.19.26A.42.42,0,0,0,12.92,14.81Z" fill="#26cafd"/>
        <path d="M12.75,13.21c-.09.17-.17.34-.25.51l-.24.51a2.83,2.83,0,0,1-.2.28l-.19.27a2.73,2.73,0,0,1-.23.25,3.88,3.88,0,0,1-.42.39l-.08.05c-.05,0-.06,0-.05-.06a.67.67,0,0,0,0-.28.49.49,0,0,1,.07-.31,1.09,1.09,0,0,0,.15-.39l0-.18a1.86,1.86,0,0,1,.15-.51,1.28,1.28,0,0,0,.1-.43.1.1,0,0,0,0-.09,0,0,0,0,1,0,0,1,1,0,0,0,.3-.39,1.1,1.1,0,0,1,.2-.31,3.73,3.73,0,0,0,.41-.57,2.2,2.2,0,0,1,.21-.32.53.53,0,0,0,.08-.22.88.88,0,0,1,.13-.3.08.08,0,0,0,0,0A.07.07,0,0,1,13,11a.28.28,0,0,0,.16-.24.3.3,0,0,1,.22-.25h0a1.59,1.59,0,0,1-.08.39c-.08.28-.11.56-.18.84s-.16.71-.26,1.06a1.8,1.8,0,0,1-.08.21A.78.78,0,0,0,12.75,13.21Z" fill="#6631ce"/>
        <path d="M13.39,10.49a.52.52,0,0,0-.19.14,1,1,0,0,0,0,.16A.28.28,0,0,1,13,11a.07.07,0,0,0,0,0,.14.14,0,0,1,0,.06.61.61,0,0,0-.12.27.9.9,0,0,1-.11.27c-.13.17-.23.36-.35.54a3.37,3.37,0,0,1-.29.37,1.48,1.48,0,0,0-.21.34,1.1,1.1,0,0,1-.14.21s-.07.09-.13.11,0,0-.05,0l-.06-.06s0-.08,0-.11.17-.33.24-.5a2,2,0,0,0,.09-.26.31.31,0,0,0,0-.1A1,1,0,0,1,12,12a4,4,0,0,0,.54-.82.45.45,0,0,1,.11-.13.26.26,0,0,0,.11-.17c0-.13.09-.25.12-.37a3.38,3.38,0,0,1,.11-.34l0-.06a.27.27,0,0,0,.09-.12.6.6,0,0,1,.14-.21c.06,0,.11-.11.16-.16s.12-.1.18-.17a.3.3,0,0,1,.08-.08l.07,0c-.1.37-.22.73-.33,1.09C13.4,10.47,13.4,10.48,13.39,10.49Z" fill="#682fd3"/>
        <path d="M2.56,8.37l-.05,0a.45.45,0,0,1-.16,0,.1.1,0,0,1-.08-.13.5.5,0,0,0,0-.36,2.48,2.48,0,0,1-.17-.59,2.85,2.85,0,0,0-.12-.58.12.12,0,0,1,0-.13L2,6.34A.32.32,0,0,0,1.94,6a.2.2,0,0,1-.06-.2.41.41,0,0,0,0-.34s0,0,0-.07a.51.51,0,0,1,.1-.29A1.09,1.09,0,0,0,2,4.94a.33.33,0,0,0,0-.17.62.62,0,0,1,.09-.42A3.34,3.34,0,0,1,2.35,4l0,0s.05.09.12.08A.18.18,0,0,0,2.63,4l0-.09s0,0,0,0a.1.1,0,0,1,.07,0,.13.13,0,0,1,0,.13.2.2,0,0,0,0,.13s0,.07,0,.11.07.17.09.26a.28.28,0,0,1,0,.13s0,0,0,0-.06,0-.08,0a.13.13,0,0,0,0,.12.15.15,0,0,0,.1.06A.08.08,0,0,1,3,4.92a.19.19,0,0,0,.2.15s.05,0,.05,0a.28.28,0,0,1,0,.15.8.8,0,0,0,0,.55c0,.18.12.34.16.52a.23.23,0,0,0,.07.14c.06,0,.12.08.19,0s0,0,0,.06a1,1,0,0,1-.14.28,1.24,1.24,0,0,0-.1.2.63.63,0,0,0-.12.23,1.29,1.29,0,0,1-.09.16,4.71,4.71,0,0,1-.29.48l-.25.38Z" fill="#d90a9d"/>
        <path d="M1.83,5.38a.11.11,0,0,0,0,.07.43.43,0,0,1,0,.35A.16.16,0,0,0,2,6,.35.35,0,0,1,2,6.33,2.25,2.25,0,0,0,2,6.57a.25.25,0,0,0,0,.17s-.06,0-.08,0a1.54,1.54,0,0,0-.17.31,1.09,1.09,0,0,1-.14.23.35.35,0,0,1-.1.11c-.06,0-.11,0-.16,0l0,0c-.07,0-.11-.07-.08-.16A.31.31,0,0,0,1.09,7a3.42,3.42,0,0,1,.17-.4.54.54,0,0,0,.05-.22c0-.1.08-.2.13-.3s.13-.33.2-.49a2.34,2.34,0,0,0,.09-.24Z" fill="#d4099e"/>
        <path d="M4.36,4.83c0-.1.1-.2.16-.3a6.22,6.22,0,0,0,.29-.71c0-.12.13-.22.17-.34a.69.69,0,0,1,0-.13l.08,0c.07,0,.11-.07.15-.13A.73.73,0,0,1,5.44,3a3.36,3.36,0,0,0,.41-.34,5.27,5.27,0,0,1,.63-.52c.06,0,.06,0,.11,0a.4.4,0,0,0,.16.08s0,0,0,0S7,2,7.14,1.89a2.55,2.55,0,0,1,.3-.26s0,0,.07,0a.37.37,0,0,1-.13.49.45.45,0,0,0-.16.2.28.28,0,0,1-.14.18.46.46,0,0,0-.19.2A1.16,1.16,0,0,1,6.67,3c-.12.13-.26.24-.38.36s0,.07-.09.09a1.23,1.23,0,0,0-.37.21l-.18.17a3.8,3.8,0,0,1-.48.42,7.82,7.82,0,0,0-.6.55A.2.2,0,0,1,4.36,4.83Z" fill="#9708bc"/>
        <path d="M7.5,1.61a1.06,1.06,0,0,0-.21.16L7,2l-.23.2s0,0-.06,0a.28.28,0,0,1-.17-.09s0,0,0,0a3.27,3.27,0,0,0-.37.28,7.79,7.79,0,0,1-.76.64.58.58,0,0,0-.14.17A.31.31,0,0,1,5,3.35s0,0,0-.05a.13.13,0,0,0,.13-.06,1.16,1.16,0,0,1,.34-.32l.23-.19a1.22,1.22,0,0,1,.17-.15.74.74,0,0,0,.13-.12l.19-.17.24-.18A.36.36,0,0,0,6.6,2c.1-.15.2-.3.31-.44s.33-.38.5-.56a.12.12,0,0,0,0-.1s0-.09,0-.11a.44.44,0,0,1,0,.2s0,0,0,0a.24.24,0,0,1,.16.19c0,.08,0,.09.11.1s0,.06,0,.09a.12.12,0,0,0,0,.13.12.12,0,0,1,0,.16A.14.14,0,0,1,7.5,1.61Z" fill="#9907b9"/>
        <path d="M4.36,4.83a.29.29,0,0,0,.26-.11,6.5,6.5,0,0,1,.74-.65,3,3,0,0,0,.32-.29,1.37,1.37,0,0,1,.5-.35s0,0,0,0,0,.06,0,.09A1.41,1.41,0,0,1,6,3.91a1.32,1.32,0,0,0-.15.39l-.05.06c-.12.13-.26.25-.39.38A3.58,3.58,0,0,0,5.16,5a.13.13,0,0,1-.09.07,1.48,1.48,0,0,0-.38.23c-.09.08-.16.16-.25.23l-.11.08a.25.25,0,0,1-.26,0V5.45c.09-.19.17-.39.26-.58A.05.05,0,0,1,4.36,4.83Z" fill="#990ac2"/>
        <path d="M4.07,5.6l.07,0a.25.25,0,0,0,.29-.08,2.79,2.79,0,0,1,.42-.35.65.65,0,0,1,.22-.11A.16.16,0,0,0,5.15,5a2.91,2.91,0,0,1,.45-.48c.09-.08.17-.17.25-.25a.34.34,0,0,1,.24-.13A.43.43,0,0,0,6.38,4a.09.09,0,0,1,.08,0h0a.23.23,0,0,1-.08.12s-.08.08-.14.1l-.07,0a.4.4,0,0,0-.32.14c-.15.13-.28.29-.43.43L5.23,5a.64.64,0,0,0-.08.14,3.43,3.43,0,0,1-.39.6s0,.06,0,.1,0,.16-.1.16a.39.39,0,0,0-.25.14l0,.06A2.76,2.76,0,0,0,4,6.59,2.5,2.5,0,0,1,3.68,7a.51.51,0,0,1-.24.1.12.12,0,0,1-.1,0c.06-.12.14-.23.2-.35a1.27,1.27,0,0,0,.06-.18.75.75,0,0,0,.07-.12c.13-.26.26-.53.38-.79Z" fill="#990bc6"/>
        <path d="M10.1,16.08a1.63,1.63,0,0,1-.43.18,7.79,7.79,0,0,1-.94.28h0a.08.08,0,0,1-.09,0,.11.11,0,0,1,0-.11.18.18,0,0,1,.07-.08,2.89,2.89,0,0,0,.59-.62A12.85,12.85,0,0,0,10,14.64l0-.06a1.43,1.43,0,0,1,.09-.27,0,0,0,0,1,0,0s0,0,0,.05l-.06.15a.35.35,0,0,0,0,.06,1.4,1.4,0,0,0,.17-.09l.2-.17a.56.56,0,0,1,.17-.09s.08,0,.11,0a.64.64,0,0,1,0,.2c-.19.46-.38.92-.56,1.38a.47.47,0,0,1-.05.1.17.17,0,0,0,0,.17Z" fill="#6439d0"/>
        <path d="M10.1,16.08a.15.15,0,0,1,0-.19,3.88,3.88,0,0,0,.15-.36c.15-.36.29-.72.44-1.09a1.55,1.55,0,0,0,.06-.23h0a.86.86,0,0,0,.16-.35.42.42,0,0,1,.15-.22,1.15,1.15,0,0,0,.4-.47l0,0s0,.07.1.07a.06.06,0,0,1,0,.08,1.34,1.34,0,0,1-.1.43,2.93,2.93,0,0,0-.18.66,1.07,1.07,0,0,1-.17.48.37.37,0,0,0-.05.27.53.53,0,0,1,0,.28s0,.05,0,.06l-.18.16c-.21.12-.4.25-.61.35A1.3,1.3,0,0,1,10.1,16.08Z" fill="#6535cf"/>
        <path d="M10.16,14.29c0,.11-.08.2-.1.31a.47.47,0,0,1-.06.09l-.38.56a5.58,5.58,0,0,1-.37.48,3.09,3.09,0,0,1-.33.39,1.43,1.43,0,0,1-.23.2.23.23,0,0,0-.07.07c0,.07,0,.14.07.16l-.1.05-.48.1h0a0,0,0,0,1-.05,0,.14.14,0,0,1,0-.21,3.42,3.42,0,0,0,.36-.4c.25-.28.48-.58.72-.86s.23-.26.32-.4.06-.12.1-.18h0a.62.62,0,0,0,.35-.27s.09-.11.15-.16a.15.15,0,0,1,.09,0h0a.08.08,0,0,1,0,.05A.13.13,0,0,1,10.16,14.29Z" fill="#643dd3"/>
        <path d="M5,13.6c.08-.19.16-.39.25-.58s.09-.17.14-.26,0,0,0,.05a.53.53,0,0,1,.05.18l0,.13a.31.31,0,0,0,.17.2s.05,0,.05,0a.52.52,0,0,0,.09.28l0,.07a.15.15,0,0,1,0,.08,2.87,2.87,0,0,0-.28.43.16.16,0,0,0,0,.22v0s0,0,0,0a.59.59,0,0,0-.35.18.78.78,0,0,1-.21.16.19.19,0,0,1,0-.15.32.32,0,0,0-.21-.33.35.35,0,0,0-.14,0s0,0,0,0,.13-.26.2-.39A1.22,1.22,0,0,0,5,13.6Z" fill="#6766f8"/>
        <path d="M8.54,14.86l-.07,0a3,3,0,0,1-.49.36l-.22.13A.76.76,0,0,1,7.87,15a2,2,0,0,0,.1-.21.06.06,0,0,1,0-.05l.24-.23a.09.09,0,0,0,0-.08,1.55,1.55,0,0,1,.14-.29L8.54,14a.17.17,0,0,0,.06-.12.2.2,0,0,1,0-.08c.06-.07.1-.14.15-.21s.09-.11.15-.16l.11-.08s.06,0,.07-.07h0a.51.51,0,0,0,.16.09c.06,0,.08,0,.09-.06h0c0-.12.11-.15.22-.1s0,0,0,.08a.88.88,0,0,0,0,.16.14.14,0,0,1,0,.06l-.41.7c-.18.22-.38.42-.58.62Z" fill="#6548de"/>
        <path d="M9.13,13.31a0,0,0,0,1,0,0l-.14.1s-.06,0-.08.07l-.21.28a.26.26,0,0,0-.06.13.33.33,0,0,1-.12.17,1.11,1.11,0,0,0-.17.3.34.34,0,0,1-.11.18c-.09.08-.16.16-.24.24a1.22,1.22,0,0,0-.19.12l-.44.41a1.27,1.27,0,0,1-.31.2.21.21,0,0,1,0-.19.36.36,0,0,0,.05-.19s0-.07,0-.1a.41.41,0,0,0,.12-.14l.34-.28,0,0c.14-.16.3-.3.45-.45l.3-.29,0,0h0a.19.19,0,0,0,.18-.07,2.26,2.26,0,0,1,.28-.35,1,1,0,0,1,.17-.12Z" fill="#654de3"/>
        <path d="M8.54,14.86l.15-.15c.16-.15.31-.32.46-.49s.06,0,.1,0A.52.52,0,0,0,9.51,14a.47.47,0,0,1,.21-.16h.07s0,.05,0,.08a.94.94,0,0,1-.12.18l-.09.14a.14.14,0,0,0,0,.11,0,0,0,0,1,0,0,.31.31,0,0,0,0,.23,1,1,0,0,1-.19.32c-.19.23-.39.44-.56.67s-.24.28-.35.42l-.26.3a.49.49,0,0,1-.13.12.1.1,0,0,0,0,.12s0,.09.08.09a3.69,3.69,0,0,1-.45.11c-.18,0-.35.1-.53.15a.86.86,0,0,1-.17,0s0,0,0,0A.33.33,0,0,1,7,16.57a1.41,1.41,0,0,0,.35-.34,3.83,3.83,0,0,1,.28-.29,4.33,4.33,0,0,0,.69-.73c.06-.1.13-.19.19-.28A.06.06,0,0,0,8.54,14.86Z" fill="#6341d6"/>
        <path d="M7.24,15a.17.17,0,0,1-.1.13.23.23,0,0,0-.07.1,3.71,3.71,0,0,1-.32.23.51.51,0,0,0-.15.21.07.07,0,0,1-.07.06.38.38,0,0,0-.26.16,2.65,2.65,0,0,1-.21.26.23.23,0,0,1-.12.06A.28.28,0,0,1,6,16a.9.9,0,0,0,.17-.52l0,0a.19.19,0,0,0,.14-.1,2.31,2.31,0,0,1,.31-.39.8.8,0,0,1,.17-.15l.43-.23s0,0,.06,0a1.7,1.7,0,0,1,0,.22A.43.43,0,0,1,7.24,15Z" fill="#6454e6"/>
        <path d="M5.55,14.52l0,0a.38.38,0,0,1,.12-.1c.13-.09.27-.15.41-.24h0s0,.07,0,.1a3.87,3.87,0,0,1-.21.34,1,1,0,0,0-.1.21.27.27,0,0,1-.09.12.67.67,0,0,0-.22.28.63.63,0,0,0-.31.19L5,15.52a.9.9,0,0,1,.16-.41c.09-.13.21-.25.29-.39A2,2,0,0,0,5.55,14.52Z" fill="#6561f2"/>
        <path d="M6.81,14.78a2.11,2.11,0,0,0-.47.52.3.3,0,0,1-.19.14,1.21,1.21,0,0,0-.26.2,1.24,1.24,0,0,1-.21.18.84.84,0,0,1,.08-.38.11.11,0,0,1,0-.14A3.26,3.26,0,0,1,6.12,15a.82.82,0,0,0,.25-.3s.07,0,.11-.06a.3.3,0,0,0,.11-.07.94.94,0,0,0,.09-.12c.06-.07.09-.08.17,0s0,0,0,0,0-.08,0-.11a.19.19,0,0,1,.14,0s0,.08,0,.1-.12.14-.18.21a.11.11,0,0,0,0,.13S6.81,14.76,6.81,14.78Z" fill="#6459eb"/>
        <path d="M6.37,14.7a.57.57,0,0,1-.15.22l-.3.25-.14.16s0,.07,0,.11a.33.33,0,0,0-.21.11l-.12.11a.09.09,0,0,1-.06,0,.48.48,0,0,1,.09-.27.3.3,0,0,0,0-.24.37.37,0,0,1,.17-.25.61.61,0,0,0,.13-.15l.07,0a.47.47,0,0,1,.17,0h.28S6.36,14.68,6.37,14.7Z" fill="#655eee"/>
        <path d="M9.06,2c.14-.18.26-.36.38-.55A3.17,3.17,0,0,0,9.65,1s0,0,0,0S9.86.75,10,.65a.32.32,0,0,1,.14-.08,1.2,1.2,0,0,1,.11.59,1.5,1.5,0,0,1-.06.29v.08s0,.07.06.07h.1s0,0,0,.06,0,.22-.06.33a.15.15,0,0,0,.06.16l.06,0a.19.19,0,0,1,.11.16,2.72,2.72,0,0,0,.31.82l.21.35a.25.25,0,0,0,.23.15s0,.07,0,.09L11,4a1.64,1.64,0,0,0-.31.28l-.3.24-.06.07a.57.57,0,0,1-.14.13.31.31,0,0,0-.09.07c-.17.16-.32.33-.48.49l0,0a.35.35,0,0,0-.13.11l-.07.06a.07.07,0,0,1-.07-.06.49.49,0,0,0-.14-.18.39.39,0,0,1-.08-.14L9,5a.35.35,0,0,0-.1-.18.08.08,0,0,1,0-.11.25.25,0,0,0,0-.19l0-.13a.11.11,0,0,0,0-.09A.57.57,0,0,1,8.59,4a1.64,1.64,0,0,0-.2-.26l-.12-.1s0,0,0,0a.36.36,0,0,1,.07-.18,1.55,1.55,0,0,0,.12-.22.32.32,0,0,0,0-.35c0-.06,0-.08,0-.09l.29,0A.53.53,0,0,0,9,2.51a.11.11,0,0,1,.08-.07l0,0a.67.67,0,0,0,.07-.24s0-.07-.08-.06L9,2.15s0,0,0,0,0,0,0,0S9,2,9.06,2Z" fill="#ac08c3"/>
        <path d="M10.67,4.24a2.29,2.29,0,0,1,.4-.36l.17-.13a.07.07,0,0,0,0-.07,4,4,0,0,0,.34-.23l.28-.2s0,0,0,0a3.66,3.66,0,0,0,.26.42,1.17,1.17,0,0,1,.15.32.19.19,0,0,1,0,.08,2.71,2.71,0,0,0,0,.4.89.89,0,0,1,0,.28s0,.08,0,.1a.21.21,0,0,1,0,.29l-.09.09a.52.52,0,0,0-.16.37c0,.09,0,.17,0,.26s0,0-.06,0A.16.16,0,0,0,12,6a3.06,3.06,0,0,1-.21.29.65.65,0,0,1-.19.18.48.48,0,0,0-.15.2s0,0,0,0a.06.06,0,0,1-.07,0,.36.36,0,0,1-.05-.33.58.58,0,0,0,0-.19A.12.12,0,0,0,11.24,6l-.05,0a.22.22,0,0,1-.09-.26.56.56,0,0,1,0-.12.27.27,0,0,0,0-.2.14.14,0,0,1,0-.06c-.1-.31-.21-.61-.3-.91,0-.08-.06-.15-.16-.17Z" fill="#7442fb"/>
        <path d="M12.35,4.09a.63.63,0,0,0-.1-.27c-.09-.16-.2-.3-.29-.46s0-.08-.06-.11A2,2,0,0,1,12.18,3a4.7,4.7,0,0,0,.53-.38,2.19,2.19,0,0,0,.41-.26,2,2,0,0,1,.35-.21s0,0,0,0a3.52,3.52,0,0,1,.3.69,1.28,1.28,0,0,1,.07.28,1.28,1.28,0,0,1,0,.27,1.28,1.28,0,0,1-.17.46L13.6,4a.14.14,0,0,0-.06.12s0,0,0,0a1.38,1.38,0,0,1-.33.31A.4.4,0,0,0,13,4.8a.12.12,0,0,1,0,.08h0a2.29,2.29,0,0,1-.41-.28.51.51,0,0,1-.14-.26s0,0,0,0A.34.34,0,0,0,12.35,4.09Z" fill="#7738fc"/>
        <path d="M13,4.88a.63.63,0,0,1,.05-.3.33.33,0,0,1,.14-.15.92.92,0,0,0,.27-.25A.19.19,0,0,0,13.53,4S13.58,4,13.6,4a1.12,1.12,0,0,0,.2-.46,1.73,1.73,0,0,1,.07-.31s0,.08,0,.13a.58.58,0,0,0,.07.21.13.13,0,0,0,.18.07.45.45,0,0,1,.11,0,.21.21,0,0,1,.19.07c.07.07.11.07.17,0h0c.06,0,.07.05,0,.1s-.08,0-.12.09a.14.14,0,0,0-.08.1.93.93,0,0,0-.12.27.16.16,0,0,1-.14.13s0,0,0,0a1.07,1.07,0,0,1-.2.48l-.1.17a4.33,4.33,0,0,0-.54.38l-.21.16s0,0-.06,0A.29.29,0,0,1,13,5.33,2.64,2.64,0,0,0,13,5a.45.45,0,0,0,0-.11S13,4.9,13,4.88Z" fill="#7637f7"/>
        <path d="M9.06,2,9,2.15l.14,0h.06s.05,0,.05.06a.64.64,0,0,1-.07.27,0,0,0,0,1,0,0,.13.13,0,0,0-.1.09.63.63,0,0,1-.43.26l-.19,0c-.05,0-.05,0,0,.05a.31.31,0,0,1,0,.1.36.36,0,0,1,0,.36,1,1,0,0,0-.14.28,0,0,0,0,0,0,0s0,0,0,0a1.39,1.39,0,0,0-.34.24l-.2.19a.21.21,0,0,1-.15.05.36.36,0,0,0-.28.12.1.1,0,0,1-.14,0c-.06,0-.07-.08,0-.14A.48.48,0,0,0,7.15,4a.43.43,0,0,1,0-.07,3.19,3.19,0,0,0,.26-.42,1,1,0,0,0,.11-.29s0,0,0,0A.88.88,0,0,0,7.8,3a.92.92,0,0,1,.29-.23.09.09,0,0,0,.05-.08.69.69,0,0,1,.14-.3l.19-.24,0,0a.78.78,0,0,0,.28-.16.18.18,0,0,1,.25,0Z" fill="#a708c2"/>
        <path d="M8.5,2.08c-.08.12-.18.22-.26.34a.5.5,0,0,0-.09.24s0,0,0,0A1.32,1.32,0,0,0,7.82,3a1.45,1.45,0,0,1-.17.18s0,0-.06,0h0a.23.23,0,0,0-.18,0l-.17.05a.17.17,0,0,1-.12,0s0-.05,0-.07a1.69,1.69,0,0,1,.19-.32,1.73,1.73,0,0,0,.19-.28.89.89,0,0,1,.23-.38l.26-.24a1.5,1.5,0,0,0,.19-.25s0,0,0,0,.13,0,.2-.07a.43.43,0,0,1,.23-.05.79.79,0,0,1-.07.5A.14.14,0,0,0,8.5,2.08Z" fill="#a208c0"/>
        <path d="M14,5.38a.27.27,0,0,1,.12.2.34.34,0,0,0,.05.14.19.19,0,0,1,0,.13,1,1,0,0,1-.17.23l-.07.08a.76.76,0,0,1-.23.17.4.4,0,0,0-.15.14,1.65,1.65,0,0,1-.34.36,2.31,2.31,0,0,0-.24.2s0,0-.05,0,0-.15.07-.23.15-.31.21-.47l.06-.2a1.49,1.49,0,0,1,.28-.34,1.35,1.35,0,0,0,.25-.28,1.29,1.29,0,0,1,.17-.15A0,0,0,0,1,14,5.38Z" fill="#7335ee"/>
        <path d="M13.88,5A.29.29,0,0,1,14,4.87a1.72,1.72,0,0,0,.21-.43v0c0-.07,0-.14.1-.14s.07-.06.09-.11,0-.13.07-.2l.06-.07a.2.2,0,0,0,.17,0l.19,0a.42.42,0,0,1,.29,0,.55.55,0,0,1-.22.37.18.18,0,0,0-.08.19.19.19,0,0,1-.12.15,2.16,2.16,0,0,0-.35.24L14.08,5A.45.45,0,0,1,13.88,5Z" fill="#7732f5"/>
        <path d="M13.88,5l.2,0a1.15,1.15,0,0,0-.11.31v0a.83.83,0,0,0-.28.25,1.43,1.43,0,0,1-.27.28,1.39,1.39,0,0,0-.15.19s0,.05,0,.06-.21.12-.34.08-.05,0-.06,0a.11.11,0,0,1,0-.08,1.13,1.13,0,0,1,.12-.18.67.67,0,0,0,.13-.3s0-.07,0-.1a.67.67,0,0,0,.14-.09A6.46,6.46,0,0,1,13.82,5Z" fill="#7437f3"/>
        <path d="M13.87,6.16,14,6a.39.39,0,0,0,.09-.23.45.45,0,0,0,.19-.11l.45-.4A2.41,2.41,0,0,0,15,5a.09.09,0,0,1,.07,0l.19.07.06,0a1.74,1.74,0,0,0-.3.37l-.13.2s0,0-.07.05-.17.17-.27.25l-.45.41a.05.05,0,0,1-.05,0H14A.28.28,0,0,1,13.87,6.16Z" fill="#732fea"/>
        <path d="M8.16,1.64a1.53,1.53,0,0,1-.34.42,1.05,1.05,0,0,0-.35.46.06.06,0,0,1,0,0,.57.57,0,0,1-.26,0,.16.16,0,0,1-.13-.11.32.32,0,0,0,.14-.18.43.43,0,0,1,.17-.21.34.34,0,0,0,.14-.43s0,0,0,0l.07,0a.1.1,0,0,0,.14-.11V1.48A.33.33,0,0,0,8,1.36c.07-.1.16-.19.22-.29A.19.19,0,0,1,8.37,1a5,5,0,0,1-.17.55Z" fill="#9f07bd"/>
        <path d="M14,6.32c.05,0,.07-.05.11-.08l.39-.36a3.58,3.58,0,0,1,.29-.26l0,0a.36.36,0,0,0,.27,0l.09-.06s.08,0,.11,0a.51.51,0,0,0,0,.17,1.33,1.33,0,0,0-.19.14c-.13.11-.27.21-.4.33a3,3,0,0,0-.32.3,2,2,0,0,1-.23.18s0,0,0-.07a.07.07,0,0,0-.07-.06.33.33,0,0,0-.14,0s0,0-.06,0,0,0,0-.06l0,0A.18.18,0,0,0,14,6.32Z" fill="#712ee6"/>
        <path d="M14,6.85c.06.09.06.11,0,.22A.22.22,0,0,0,14,7.2c0,.11-.13.2-.19.31l-.44.63c-.1.15-.18.32-.27.49a.51.51,0,0,1-.15.07.25.25,0,0,0-.1.08c-.17.25-.35.51-.55.75l-.08.07a.41.41,0,0,1-.16,0s0-.05,0-.07a.43.43,0,0,1,.05-.16c.26-.42.51-.84.76-1.26.08-.13.15-.26.23-.38l.08-.1a.23.23,0,0,1,.19-.09.09.09,0,0,0,.07,0c.13-.16.28-.31.41-.47L14,6.88A0,0,0,0,1,14,6.85Z" fill="#6e32e1"/>
        <path d="M14,7.94a.38.38,0,0,1-.13.25.59.59,0,0,0-.17.4.11.11,0,0,1,0,.08L13.44,9a2.67,2.67,0,0,0-.61.6,2.37,2.37,0,0,1-.34.37s0,0-.05,0a.41.41,0,0,1,0-.16,3,3,0,0,1,.33-.7A1.68,1.68,0,0,0,13,8.72a.05.05,0,0,1,0-.05.42.42,0,0,0,.33-.23,1.1,1.1,0,0,1,.35-.33Z" fill="#6c30db"/>
        <path d="M13.05,8.67a2,2,0,0,1-.28.55,2.19,2.19,0,0,0-.32.79.59.59,0,0,1-.09.2c-.06.09-.13.17-.2.26a1.09,1.09,0,0,0-.08.15.1.1,0,0,1,0,.05h0a.14.14,0,0,1-.13-.13s0,0,0-.06a.36.36,0,0,0,.07-.22.35.35,0,0,1,.08-.22.62.62,0,0,0,.11-.37s0-.06,0-.08a8.59,8.59,0,0,0,.64-.85s0,0,0,0l.2-.08Z" fill="#6b34dd"/>
        <path d="M14,6.85a2.29,2.29,0,0,0-.21.23c-.07.07-.13.15-.19.22s-.14.15-.2.23-.05.06-.09,0a.22.22,0,0,0-.2.1.27.27,0,0,1-.07.08.06.06,0,0,1,0,0,1.55,1.55,0,0,1,0-.21,2.15,2.15,0,0,1,.18-.24c.13-.18.24-.38.37-.56A3,3,0,0,1,14,6.32H14s0,.07,0,.1l-.09.07s0,0,0,0,0,0,0,0h.13c.07,0,.09,0,.09.09v.06Z" fill="#6f32e6"/>
        <path d="M12,10.66s.05-.1.08-.14a1.43,1.43,0,0,1,.14-.2,1.44,1.44,0,0,0,.19-.31,2.34,2.34,0,0,0,.37-.4,2.56,2.56,0,0,1,.54-.55s.05,0,.08,0,0,0,0,.06l0,.09a.17.17,0,0,0,0,.14.08.08,0,0,1,0,.08h-.06l-.15,0s0,0,0,0,.07,0,.06.1l0,.06a.14.14,0,0,0,0,.14s0,0,0,0l.11-.11s0,0,0,0-.07.09-.12.14a.61.61,0,0,0-.18.26.28.28,0,0,1-.09.1.38.38,0,0,0-.08.17c0,.19-.12.38-.18.56v0a.2.2,0,0,1-.11.17.29.29,0,0,0-.1.12A4.6,4.6,0,0,1,12,12l-.12.15s0,0,0,0l0-.07a.06.06,0,0,1,0-.06,5.49,5.49,0,0,0,.2-.57,2.83,2.83,0,0,1,.17-.4s0,0,0-.07a.7.7,0,0,1-.1-.16l0-.09S12,10.68,12,10.66Z" fill="#6932d7"/>
        <path d="M5.81,11.57a.43.43,0,0,1-.19-.23A1.44,1.44,0,0,0,5.49,11a.71.71,0,0,0-.1-.14.1.1,0,0,1,0-.07.6.6,0,0,0-.16-.44A1.25,1.25,0,0,1,5,10a1.91,1.91,0,0,0-.16-.27.73.73,0,0,1-.09-.32v0c0-.06,0-.08-.06-.08s-.15-.07-.2-.14S4.37,9,4.27,9s0,0,0,0,0-.24,0-.36,0-.11-.1-.13-.09,0-.09-.11V8.23a.09.09,0,0,1,.06-.06A.42.42,0,0,0,4.43,8l.12-.18.07-.07,0,0a.05.05,0,0,1,0,0,.15.15,0,0,0,.17-.1c0-.08.12-.09.2,0l.06.06a.12.12,0,0,0,.19,0l0-.09a.45.45,0,0,1,.22-.23.14.14,0,0,1,.15,0l.12.08c.07,0,.13.1.2.15s0,0,0,.05a1.67,1.67,0,0,0,.08.32.63.63,0,0,0,.2.26c.08,0,.08.08,0,.16a.06.06,0,0,0,0,.07.53.53,0,0,1,.15.26,1.33,1.33,0,0,0,.05.19A.21.21,0,0,0,6.82,9h0a.07.07,0,0,1,0,.06,2.78,2.78,0,0,1-.16.4,1.89,1.89,0,0,0-.2.46,7.47,7.47,0,0,0-.39.92A.37.37,0,0,0,6,11c-.07.15-.13.31-.2.47S5.83,11.55,5.81,11.57Z" fill="#a00dd1"/>
        <path d="M4.63,7.72A.84.84,0,0,0,4.45,8a.44.44,0,0,1-.28.22s0,0,0,.07,0,.06,0,.08a1.08,1.08,0,0,0-.24.18l-.37.37a.91.91,0,0,1-.35.22H3a.11.11,0,0,1,0-.18.42.42,0,0,0,.08-.12s0,0,0-.06a.12.12,0,0,1,0-.1c0-.08,0-.09-.1-.08l-.16,0c-.1,0-.14,0-.14-.1a.17.17,0,0,1,0-.1s0,0,0,0l.38-.58a3.17,3.17,0,0,0,.27-.47c0-.08.07-.18.13-.26a.54.54,0,0,0,.4-.16,3.35,3.35,0,0,0,.42-.51,1,1,0,0,1,.17-.18s0,0,0,0a.43.43,0,0,1,0,.11.09.09,0,0,0,0,.1.36.36,0,0,1,.16.33V7a.07.07,0,0,1,0,.09l0,0s0,.06,0,.1.09.12,0,.22a.14.14,0,0,0,0,.23S4.63,7.69,4.63,7.72Z" fill="#980dcc"/>
        <path d="M5.81,11.57A4.93,4.93,0,0,1,6,11s0,0,0,0l.11.16a1.5,1.5,0,0,1,.21.71,2.83,2.83,0,0,0,0,.29.53.53,0,0,0,.08.24.44.44,0,0,1,.06.16.41.41,0,0,1,0,.29.43.43,0,0,0,0,.25.24.24,0,0,1-.07.13l-.27.17a1.74,1.74,0,0,0-.29.25s0,0,0,0a.59.59,0,0,1-.13-.36,0,0,0,0,0,0,0A.37.37,0,0,1,5.47,13a.79.79,0,0,0,0-.22.1.1,0,0,0,0-.05c0-.13.09-.26.14-.38C5.61,12.11,5.71,11.84,5.81,11.57Z" fill="#6963fa"/>
        <path d="M11.83,12.06s0,.08,0,.11a.53.53,0,0,1-.07.3c-.06.16-.14.3-.21.46a2,2,0,0,0-.1.21,1,1,0,0,1-.31.41l-.14.12a.53.53,0,0,0-.13.27.49.49,0,0,1-.15.27.23.23,0,0,0-.21,0,1,1,0,0,0-.16.12,1,1,0,0,1-.27.18s0,0,0,0,0,0,0,0a1.07,1.07,0,0,0,.07-.19s0,0,0-.05v-.07s0,0,0,0h0s0,0,0-.06a1,1,0,0,0,.19-.26.2.2,0,0,0,.11-.17.37.37,0,0,1,.31-.34.12.12,0,0,0,.08-.06l.38-.58a.48.48,0,0,1,.09-.11l.27-.28a1.37,1.37,0,0,0,.19-.22S11.81,12.06,11.83,12.06Z" fill="#6635d3"/>
        <path d="M7.07,2.48a.22.22,0,0,0,.26.09.29.29,0,0,1,.13,0c-.07.13-.17.24-.25.37a1,1,0,0,0-.14.28A.29.29,0,0,1,7,3.34a3.36,3.36,0,0,1-.24.29A1.82,1.82,0,0,0,6.48,4h0a.24.24,0,0,0-.08.06.36.36,0,0,1-.29.13.33.33,0,0,0-.18.08l-.06,0a1.3,1.3,0,0,1,.22-.51.77.77,0,0,0,.12-.36s0-.05.08-.08L6.62,3a1.14,1.14,0,0,0,.28-.38A.37.37,0,0,1,7.07,2.48Z" fill="#9d09c1"/>
        <path d="M4.63,7.72a.18.18,0,0,0-.07,0,.14.14,0,0,1,0-.2s0,0,0,0,0-.15,0-.21-.07-.07,0-.12a.17.17,0,0,0,.07-.19.81.81,0,0,0,0-.22.34.34,0,0,0-.15-.23.09.09,0,0,1,0-.12.14.14,0,0,0,0-.09s0,0,0-.06S4.47,6,4.59,6a.15.15,0,0,0,.13-.11s0,0,0-.07,0,0,0,0,.19-.24.27-.37a2.38,2.38,0,0,0,.17-.31A.67.67,0,0,1,5.27,5c.1-.13.23-.23.34-.35A1.7,1.7,0,0,1,6,4.29a.38.38,0,0,1,.21-.07.21.21,0,0,0,.2-.1l0,0A.08.08,0,0,0,6.45,4V4c.06,0,.06.08,0,.12a2,2,0,0,0-.56.69c-.09.16-.17.33-.25.5a.16.16,0,0,1-.06.08.41.41,0,0,0-.07.11,4.58,4.58,0,0,1-.25.56.74.74,0,0,0-.07.21.1.1,0,0,1,0,.07c-.07.08-.16.15-.23.22a.71.71,0,0,0-.22.32.62.62,0,0,1-.1.22l-.07.06s0,0,0,0a.21.21,0,0,1,0,.28c0,.08,0,.09,0,.14s.06,0,0,.08Z" fill="#9c0bc9"/>
        <path d="M5.65,5.3l.21-.41a2.36,2.36,0,0,1,.29-.48,1.85,1.85,0,0,1,.28-.28c.07,0,.07,0,0-.13h0a1,1,0,0,1,.14-.21c.12-.15.26-.29.38-.44l.09-.13a.65.65,0,0,0,.23-.06.37.37,0,0,1,.29,0,1.22,1.22,0,0,1-.14.36A3.7,3.7,0,0,1,7.16,4h0C7.06,4,7,4.08,7,4.16a.68.68,0,0,1-.15.26.94.94,0,0,0-.12.22.13.13,0,0,1,0,.06A.67.67,0,0,1,6.35,5a2.77,2.77,0,0,0-.54.28l-.12.07S5.66,5.33,5.65,5.3Z" fill="#a109c4"/>
        <path d="M10.37,13.86a.69.69,0,0,1-.13.2.34.34,0,0,0-.09.12.34.34,0,0,0-.18.13c-.06.07-.11.14-.17.2a.56.56,0,0,1-.27.15.17.17,0,0,1,0-.17.14.14,0,0,0,0-.14s0-.06,0-.09L9.73,14a.32.32,0,0,0,.06-.15s0,0,0,0a.77.77,0,0,0,.25-.37,1.22,1.22,0,0,1,.26-.38,1.07,1.07,0,0,0,.19-.28l0,0a.07.07,0,0,1,.06,0s.09,0,.11.09,0,0,0,0a3.57,3.57,0,0,0-.1.35.26.26,0,0,1-.07.11.58.58,0,0,0-.1.12.42.42,0,0,0-.07.31A.43.43,0,0,0,10.37,13.86Z" fill="#653dd7"/>
        <path d="M10.15,14.18s0,0,0,0A.06.06,0,0,1,10.15,14.18Z" fill="#6439d0"/>
        <path d="M5.85,13.73a2.83,2.83,0,0,1,.25-.24l.3-.19,0,0s0,0,0,.06a.58.58,0,0,0-.05.26,1.57,1.57,0,0,1,0,.23.62.62,0,0,1-.07.23.24.24,0,0,1-.13.09,4.65,4.65,0,0,0-.56.34.2.2,0,0,1-.08-.17.24.24,0,0,1,0-.08c.09-.11.13-.25.23-.37A.6.6,0,0,0,5.85,13.73Z" fill="#6761f6"/>
        <path d="M9.62,13.22H9.55c-.08,0-.11,0-.13.09s-.05.12-.15.07-.1,0-.12-.08,0-.05,0-.07A.75.75,0,0,1,9.35,13a.54.54,0,0,0,.17-.38s0,0,0,0,0,0,0,0a.37.37,0,0,0,.17-.18,1.23,1.23,0,0,1,.23-.33A.15.15,0,0,0,10,12a.58.58,0,0,1,.05-.14.11.11,0,0,1,.06-.09.11.11,0,0,0,.06-.07.67.67,0,0,1,.14-.28,6.31,6.31,0,0,0,.4-.65l.12-.19a.1.1,0,0,1,0-.05.64.64,0,0,1,.2,0s0,0,0,.07l-.15.31a1.76,1.76,0,0,0-.16.49.19.19,0,0,1,0,.08,2,2,0,0,0-.24.33,2.31,2.31,0,0,1-.27.42.39.39,0,0,0-.06.13,2.41,2.41,0,0,1-.44.78l-.09.1S9.63,13.23,9.62,13.22Z" fill="#6943e3"/>
        <path d="M9.62,13.22a1.66,1.66,0,0,0,.31-.39,3.16,3.16,0,0,0,.29-.62.54.54,0,0,1,.09-.12,3.14,3.14,0,0,0,.24-.39,2.56,2.56,0,0,1,.2-.26h0a.21.21,0,0,0,.18-.12.39.39,0,0,1,.2-.16s.05,0,.06,0a.14.14,0,0,1,0,.11.81.81,0,0,0-.1.18.42.42,0,0,0,0,.22,0,0,0,0,1,0,0c-.14.23-.25.47-.41.69l0,.06s-.08.06-.08.1a.42.42,0,0,1-.18.27l-.54.47a1.73,1.73,0,0,1-.21.17s0,0,0,0A.7.7,0,0,1,9.62,13.22Z" fill="#693fdf"/>
        <path d="M9.53,12.62a.55.55,0,0,1-.18.43.79.79,0,0,0-.2.25h0a1.06,1.06,0,0,0-.35.31l-.15.2a.21.21,0,0,1-.22.06s0,0,0,0A3,3,0,0,0,8.78,13h0c.05-.07.12-.13.17-.2s.15-.24.22-.37a3,3,0,0,1,.16-.31s0,0,0,0h0a.69.69,0,0,0,.11.13,2.35,2.35,0,0,0,.05.37A.07.07,0,0,1,9.53,12.62Z" fill="#6949e7"/>
        <path d="M9.57,13.47a.7.7,0,0,0,.17-.13l.55-.47.16-.15a.21.21,0,0,0,.07-.13c0-.07,0-.13.11-.15a.13.13,0,0,1,0,.06.7.7,0,0,1-.08.27s0,0,0,0a.7.7,0,0,1-.15.25,3.5,3.5,0,0,0-.24.3c0,.08-.07.17-.11.25a.73.73,0,0,1-.24.29.34.34,0,0,0-.27.16.52.52,0,0,1-.26.17H9.15l.31-.54A.84.84,0,0,0,9.57,13.47Z" fill="#6740dc"/>
        <path d="M8.79,13a3.26,3.26,0,0,1-.25.68l-.13.23h0L8,14.24l-.53.51a1.79,1.79,0,0,1-.26.2l0-.31a.37.37,0,0,0,0-.11.07.07,0,0,1,0,0,5.67,5.67,0,0,0,.73-.89l.23-.34a1,1,0,0,1,.28-.16.78.78,0,0,0,.2-.11S8.78,13,8.79,13Z" fill="#674fe8"/>
        <path d="M8.28,13.26a7.34,7.34,0,0,1-.51.73,3.62,3.62,0,0,1-.49.54l-.37.2-.1,0c-.08-.09,0-.16,0-.24a.35.35,0,0,0,0-.08.08.08,0,0,1,.05-.05A.15.15,0,0,0,7,14.3a1.53,1.53,0,0,0,.16-.11.86.86,0,0,0,.13-.14,2,2,0,0,1,.34-.31.34.34,0,0,0,.16-.19,1,1,0,0,1,.24-.34A1.39,1.39,0,0,1,8.27,13s0,0,.05,0a0,0,0,0,1,0,0A2,2,0,0,0,8.28,13.26Z" fill="#6653eb"/>
        <path d="M6.15,14.14a.33.33,0,0,0,.18-.32.25.25,0,0,1,.14-.06.47.47,0,0,0,.3-.18A.54.54,0,0,1,7,13.43H7s0,0,0,.05a1,1,0,0,0-.19.41,1.69,1.69,0,0,1-.15.37.36.36,0,0,0-.07.17s0,.08,0,.12,0,.06-.09.07a.24.24,0,0,0-.13.07,3.13,3.13,0,0,0-.44,0l-.12,0a1.56,1.56,0,0,1,.22-.4A.6.6,0,0,0,6.15,14.14Z" fill="#665cf1"/>
        <path d="M6.59,14.56a.3.3,0,0,1,0-.29,1.4,1.4,0,0,0,.16-.38A1.18,1.18,0,0,1,7,13.44a.53.53,0,0,1,.11-.15,2.68,2.68,0,0,1,.3-.28h0c.09-.13.23-.1.35-.09a.17.17,0,0,1,.15.05s0,0,0,0a7.09,7.09,0,0,0-.74,1,.28.28,0,0,1-.09.1.35.35,0,0,0-.19.17v.13s0,0,0,0-.11,0-.17.05S6.64,14.54,6.59,14.56Z" fill="#6858f1"/>
        <path d="M6.89,14.26a.15.15,0,0,1,.1-.13.64.64,0,0,0,.26-.28,4.67,4.67,0,0,1,.36-.51c.1-.13.21-.25.32-.38L8,12.8s.05-.06.1-.06,0,0,0,.06.08.07.13,0a.32.32,0,0,0,.1-.1c0-.06.08-.07.13,0a.08.08,0,0,1,0,.08l-.16.2a1.78,1.78,0,0,0-.45.5.2.2,0,0,0,0,.08.51.51,0,0,1-.22.24,2.12,2.12,0,0,0-.34.33A.46.46,0,0,1,7,14.3Z" fill="#6855ef"/>
        <path d="M6.72,4.64a.63.63,0,0,1,.12-.23A.57.57,0,0,0,7,4.13C7,4,7.08,4,7.16,4a.21.21,0,0,1,0,.11l0,0c0,.06,0,.1,0,.13s.09,0,.13,0a.35.35,0,0,1,.29-.12.23.23,0,0,0,.17-.07,2.74,2.74,0,0,1,.36-.32.72.72,0,0,1,.19-.11A1,1,0,0,1,8.58,4a.65.65,0,0,0,.25.27.12.12,0,0,1,.06.08,1.25,1.25,0,0,0,0,.19.33.33,0,0,1,0,.14.07.07,0,0,0,0,.1A.29.29,0,0,1,9,5a.53.53,0,0,0,.19.33s0,.08.07.12a.07.07,0,0,0,.07.06c0,.06-.06.09-.09.13s-.31.32-.44.49l-.12.17a1.67,1.67,0,0,0-.25.28l-.1.12a.05.05,0,0,1,0,0s0,0-.06,0l-.12-.14C8.07,6.41,8,6.3,8,6.2S7.91,6,7.86,5.93a.39.39,0,0,1-.06-.11,1.13,1.13,0,0,1-.11-.22.51.51,0,0,0-.14-.18s-.08,0-.1,0,0,0,0,.06-.07,0-.1,0a.13.13,0,0,0-.16,0l-.22.11c-.07,0-.09,0-.12,0a2.11,2.11,0,0,1-.12-.43.22.22,0,0,1,.09-.25l0,0s0,0,0-.08,0,0-.07,0A.13.13,0,0,1,6.72,4.64Z" fill="#a50ac8"/>
        <path d="M10.67,4.24a.21.21,0,0,1,.18.17c.09.32.2.63.31.94a.34.34,0,0,1,0,.26.41.41,0,0,0-.05.19.24.24,0,0,0,.09.17l.07,0a.15.15,0,0,1,.07.16,2.5,2.5,0,0,1-.07.26.38.38,0,0,0,.08.27.06.06,0,0,0,.05,0s0,0,0,.06a1.34,1.34,0,0,1-.07.18,1.68,1.68,0,0,0-.09.32s-.06,0-.08.08a1.29,1.29,0,0,0-.33.49.65.65,0,0,1-.08.17.18.18,0,0,1-.13.09.23.23,0,0,1,0-.16,1.54,1.54,0,0,1,0-.3.32.32,0,0,0,0-.17s0-.06-.07-.06l-.14,0s-.08,0-.09,0a.28.28,0,0,1-.15.15.07.07,0,0,1-.06,0s0,0,0-.06a.48.48,0,0,0,0-.31.36.36,0,0,1,0-.25,1.12,1.12,0,0,1,0-.13.13.13,0,0,0,0-.12,4.1,4.1,0,0,1-.14-.5,1.26,1.26,0,0,0-.17-.35.21.21,0,0,1-.05-.2.26.26,0,0,0-.08-.25.47.47,0,0,0-.1-.1.07.07,0,0,1,0,0c.19-.19.36-.39.56-.56s.31-.32.49-.44Z" fill="#7346fb"/>
        <path d="M9.54,5.29a.75.75,0,0,1,.16.15.25.25,0,0,1,.07.26.16.16,0,0,0,0,.15,1.4,1.4,0,0,1,.25.62,1.83,1.83,0,0,0,.08.25.16.16,0,0,1,0,.15,1.72,1.72,0,0,0-.07.21.22.22,0,0,0,0,.12.62.62,0,0,1,.06.4.19.19,0,0,1,0,.08.44.44,0,0,0,0,.28s0,0,0,.08,0,0,0,0-.14,0-.2.06l-.2.37a1.77,1.77,0,0,1-.19.33s0,0-.05,0-.06-.05-.06-.11a1.43,1.43,0,0,1,0-.29,1.87,1.87,0,0,0,0-.25l-.06-.45a1.51,1.51,0,0,0-.2-.62,1,1,0,0,1-.15-.41c0-.07,0-.13,0-.19a.54.54,0,0,0-.13-.22s0,0-.05-.06a3,3,0,0,1,.36-.44,3.31,3.31,0,0,0,.3-.34C9.41,5.4,9.45,5.32,9.54,5.29Z" fill="#714efc"/>
        <path d="M11.23,7.28a1.55,1.55,0,0,1,.12-.42.33.33,0,0,0,0-.14.66.66,0,0,1,.26-.31.58.58,0,0,0,.16-.19A1.43,1.43,0,0,0,12,6a.17.17,0,0,1,.13-.1l.05,0h0a.31.31,0,0,0,.16.12v0a1.43,1.43,0,0,0-.15.44c0,.06,0,.12-.05.17l0,.15L11.88,7a6.68,6.68,0,0,0-.49.57l-.05.06s0,0,0,0-.05-.21-.08-.31A0,0,0,0,1,11.23,7.28Z" fill="#7241f6"/>
        <path d="M12.31,6a.16.16,0,0,1-.14-.08l0,0c0-.11,0-.23,0-.34a.56.56,0,0,1,.21-.36A.23.23,0,0,0,12.45,5a.17.17,0,0,0-.06-.11c-.05,0-.06-.06-.05-.13a1,1,0,0,0,0-.34c0-.12,0-.23,0-.34a.25.25,0,0,1,.07.2.22.22,0,0,0,0,.14.6.6,0,0,0,.19.23c.11.08.22.14.33.21h0l.05.15a.62.62,0,0,0-.14.19c-.07.1-.15.19-.22.28a1.09,1.09,0,0,0-.19.33.49.49,0,0,1-.14.18S12.33,6,12.31,6Z" fill="#753df9"/>
        <path d="M12.31,6a.33.33,0,0,0,.17-.18,1.79,1.79,0,0,1,.3-.47A1.65,1.65,0,0,0,13,5.1.11.11,0,0,1,13.05,5a1.55,1.55,0,0,1,0,.31.24.24,0,0,0,.07.2.62.62,0,0,1-.13.4l-.13.18a.14.14,0,0,0-.15.12.59.59,0,0,1-.25.27,2.64,2.64,0,0,0-.29.15h0c0-.12.06-.23.08-.34A1.2,1.2,0,0,1,12.31,6Z" fill="#733bf5"/>
        <path d="M14,6.32a0,0,0,0,1,0,0,4.31,4.31,0,0,0-.51.68,3.12,3.12,0,0,1-.34.47,1.15,1.15,0,0,1-.17.14,1,1,0,0,1-.24.15s0,0-.07,0a.51.51,0,0,1,0-.21l.09-.31c0-.07.08-.15.14-.22l.3-.26a1.25,1.25,0,0,0,.36-.4.26.26,0,0,1,.1-.07,1.31,1.31,0,0,0,.24-.17Z" fill="#7035e9"/>
        <path d="M12.87,7.06a1.55,1.55,0,0,1-.12.22.63.63,0,0,1-.22.18,1.87,1.87,0,0,0-.29.2l-.06.06s0,0,0,0a.17.17,0,0,1,0-.14c0-.07.08-.13.11-.2l.29-.62.24-.52s0-.06.05-.07a.23.23,0,0,0,.25,0l.14,0a1.21,1.21,0,0,1-.05.18c-.08.22-.19.42-.28.63C12.88,7,12.88,7,12.87,7.06Z" fill="#7139ef"/>
        <path d="M12.83,6.2l-.45,1a2.56,2.56,0,0,0-.11.24.64.64,0,0,0-.3.24.8.8,0,0,1-.13.13s0,0-.06,0a1.23,1.23,0,0,1,.05-.25A2.42,2.42,0,0,1,12,7.19.74.74,0,0,0,12,6.86a.09.09,0,0,1,0-.05.34.34,0,0,1,0-.14l.33-.18a.48.48,0,0,0,.24-.28c0-.08.09-.12.16-.09Z" fill="#713df2"/>
        <path d="M12.61,7.8a.81.81,0,0,0,.31-.18,1.77,1.77,0,0,1,.17-.12l0,.26c-.12.2-.23.4-.35.59l-.53.89-.1.17a.31.31,0,0,0-.06.21s0,0-.08.06h-.07a.09.09,0,0,1-.12-.06.63.63,0,0,1,.06-.33c0-.06.08-.12.11-.18A1,1,0,0,0,12,8.63a.31.31,0,0,1,.05-.1c.16-.23.31-.47.49-.69Z" fill="#6e38e6"/>
        <path d="M11.93,9.66l.08,0,.16,0a.87.87,0,0,1,0,.32.35.35,0,0,1-.08.13.4.4,0,0,0-.07.21.37.37,0,0,1-.09.25.08.08,0,0,0,0,.05,4.56,4.56,0,0,1-.4.61l-.34.47a.06.06,0,0,1-.05,0,.34.34,0,0,1,0-.36.75.75,0,0,0,.09-.15,1.29,1.29,0,0,1,.12-.38,1.82,1.82,0,0,1,.27-.41.61.61,0,0,0,.15-.26c.05-.12.08-.25.13-.38A.07.07,0,0,1,11.93,9.66Z" fill="#6a39df"/>
        <path d="M10.37,13.86a.39.39,0,0,1,.08-.42.58.58,0,0,0,.19-.36.58.58,0,0,1,.06-.17.32.32,0,0,1,.08-.22l.2-.24a6.19,6.19,0,0,0,.41-.59,6.4,6.4,0,0,0,.43-.82l.15-.33,0-.05h0l.08.17a.67.67,0,0,0,.09.14,0,0,0,0,1,0,0,5.16,5.16,0,0,0-.29.74,1.86,1.86,0,0,1-.1.25s0,0,0,.06a1.66,1.66,0,0,1-.16.21l-.28.28a1.49,1.49,0,0,0-.24.32c-.1.15-.2.3-.29.45a.09.09,0,0,1-.08,0,.38.38,0,0,0-.27.22.58.58,0,0,0,0,.14A.15.15,0,0,1,10.37,13.86Z" fill="#6738d6"/>
        <path d="M12,10.66a.67.67,0,0,1-.06.15c-.08.19-.17.39-.26.58a4.8,4.8,0,0,1-.32.54,5.19,5.19,0,0,1-.42.59c-.06.08-.13.14-.19.23a1,1,0,0,0-.05.16l-.17-.12a.71.71,0,0,0,.1-.35l.19-.3.27-.48a3.55,3.55,0,0,0,.23-.31c.14-.19.28-.37.41-.57l.12-.2s0,0,0,0A.13.13,0,0,0,12,10.66Z" fill="#6839da"/>
        <path d="M6.72,4.64l.12,0c.06,0,.07.06,0,.11l0,.06a.24.24,0,0,0-.1.3,2.38,2.38,0,0,0,.11.38c0,.06,0,.06.09,0a2.14,2.14,0,0,1,.22-.1.18.18,0,0,1,.1,0,.07.07,0,0,1,.08.05s0,0,0,0,0,0,.06,0v0s0-.06,0-.06a.11.11,0,0,1,.09,0s0,.08.1.1a.08.08,0,0,1,0,0c0,.05,0,.08,0,.12a.09.09,0,0,1,0,.07s0,0,0,.06A1.2,1.2,0,0,1,8,6.15l0,.07s0,.09.07.12,0,0,0,.07a.67.67,0,0,0,.09.14.35.35,0,0,0,.14.13s0,0,0,.05A3.65,3.65,0,0,1,8,7.18a5.14,5.14,0,0,0-.32.49l0,0a6.55,6.55,0,0,0-.41.66,1.23,1.23,0,0,1-.14.25l0,0L6.89,9a.1.1,0,0,1,0,0c-.16,0-.22-.06-.26-.19a1.8,1.8,0,0,0-.1-.33.4.4,0,0,0-.1-.12s0,0,0-.07,0-.1,0-.15a.59.59,0,0,1-.25-.38c0-.08,0-.16,0-.23a.08.08,0,0,0,0,0,.31.31,0,0,1-.11-.09.07.07,0,0,0-.06,0,.12.12,0,0,1-.08,0c-.09-.11-.16-.07-.26,0a.44.44,0,0,0-.12.18.53.53,0,0,1-.06.1.12.12,0,0,1-.18,0L5,7.55c-.07,0-.14,0-.17,0a.15.15,0,0,1-.18.1,0,0,0,0,1,0,0c.05-.12.07-.25.11-.37a.36.36,0,0,1,0-.09c.11-.15.19-.32.31-.46a.6.6,0,0,1,.27-.2s.06,0,.07,0a.16.16,0,0,1,.1-.05.22.22,0,0,0,.15-.08l0,0A.51.51,0,0,1,5.9,6a1.24,1.24,0,0,0,.23-.44.44.44,0,0,1,.15-.22A.9.9,0,0,0,6.59,5a1.31,1.31,0,0,0,.12-.27S6.71,4.66,6.72,4.64Z" fill="#a30ccd"/>
        <path d="M6.85,9,7,8.67a.15.15,0,0,1,.17.05.47.47,0,0,1,.07.12c.09.21.15.42.24.63a2.11,2.11,0,0,0,.16.34.43.43,0,0,1,.06.22c0,.27,0,.55,0,.82a.38.38,0,0,0,0,.15,1.6,1.6,0,0,1,0,.21,2.5,2.5,0,0,1-.09.25c-.05.07-.09.16-.14.23L7.24,12l0,0s0,0,0-.06a1,1,0,0,1-.1-.45,2.32,2.32,0,0,0-.22-.83,4.07,4.07,0,0,1-.22-.58A.32.32,0,0,0,6.51,10s0,0,0,0a1.45,1.45,0,0,1,.11-.29A3.51,3.51,0,0,0,6.84,9Z" fill="#6c5cfc"/>
        <path d="M6.47,9.93a.32.32,0,0,1,.17.21,3.78,3.78,0,0,0,.21.56,2.68,2.68,0,0,1,.21.68,2.42,2.42,0,0,0,.06.46.83.83,0,0,0,.08.22.25.25,0,0,1,0,.19,2.09,2.09,0,0,0-.08.23c0,.07,0,.17-.07.25s0,.08-.11,0-.1,0-.15,0l-.23.3s0,.05,0,.05a.47.47,0,0,1,0-.29.43.43,0,0,0,0-.35,1.23,1.23,0,0,1-.12-.5,1.6,1.6,0,0,0-.19-.77,1.43,1.43,0,0,0-.14-.2s0,0,0,0a1.11,1.11,0,0,1,.13-.4c.06-.17.13-.33.2-.5A2.12,2.12,0,0,1,6.47,9.93Z" fill="#6a5ffb"/>
        <path d="M6.71,4.7a.22.22,0,0,1,0,.11c-.07.13-.13.27-.21.39a.41.41,0,0,1-.12.14.55.55,0,0,0-.24.32,1.1,1.1,0,0,1-.24.42.65.65,0,0,0-.11.22.19.19,0,0,1-.13.13l-.09,0s0,0-.06,0a.1.1,0,0,1,0,0,.59.59,0,0,0-.34.26l-.25.38a1,1,0,0,0-.09.24,2.5,2.5,0,0,1-.07.26l0,0s0,0,0-.06-.09-.08,0-.18a.25.25,0,0,0,0-.19L4.53,7.2s0,0,0,0l.08-.06a.55.55,0,0,0,.1-.22.71.71,0,0,1,.23-.33l.24-.23s0,0,0,0a1.34,1.34,0,0,1,.14-.38,2.71,2.71,0,0,0,.17-.39.35.35,0,0,1,.08-.13.12.12,0,0,0,.06-.08s0,0,0,0L6,5.11A1.46,1.46,0,0,1,6.33,5a.81.81,0,0,0,.37-.26Z" fill="#a00bc9"/>
        <path d="M6.51,13.16A1.13,1.13,0,0,0,6.63,13l.17-.21s.08,0,.15,0,.06,0,.08,0a.42.42,0,0,0,0-.15.18.18,0,0,1,0-.1.17.17,0,0,1,.1,0s0,0,0,.07a1,1,0,0,1-.07.23.48.48,0,0,1-.12.16L7,13c0,.05,0,.07,0,.11a.1.1,0,0,1,0,.13,1.46,1.46,0,0,1-.07.19.6.6,0,0,0-.21.18.5.5,0,0,1-.25.15l-.18.05a.45.45,0,0,0,0-.2.84.84,0,0,1,.07-.35A.26.26,0,0,0,6.51,13.16Z" fill="#685df6"/>
        <path d="M9.53,12.62a1.24,1.24,0,0,0,0-.27s0-.11,0-.17a.57.57,0,0,1,.11-.25l.15-.21a2.54,2.54,0,0,0,.16-.28.56.56,0,0,1,.14-.2.1.1,0,0,0,0-.06.58.58,0,0,1,.1-.21c.17-.31.33-.62.5-.92a1.63,1.63,0,0,1,.17-.2l.07,0s0,0,0,0a2.18,2.18,0,0,1,0,.25,3.07,3.07,0,0,1-.07.42.13.13,0,0,1,0,.06c-.08.11-.15.23-.22.35a4.66,4.66,0,0,1-.4.62.56.56,0,0,0-.07.18s0,.07-.06.08a.11.11,0,0,0-.06.09l0,.06a.39.39,0,0,1-.13.23.81.81,0,0,0-.18.26A.39.39,0,0,1,9.53,12.62Z" fill="#6b44e9"/>
        <path d="M11.93,9.66c-.06.13-.09.26-.14.39a.91.91,0,0,1-.2.36,1.53,1.53,0,0,0-.35.68s0,0,0,.06a.27.27,0,0,0-.21.12,1,1,0,0,1-.08.11.2.2,0,0,1-.18.06,1.74,1.74,0,0,0,.05-.22,2.32,2.32,0,0,1,.13-.37,2,2,0,0,0,.16-.36l0,0a1.22,1.22,0,0,0,.36-.48.75.75,0,0,1,.21-.32.06.06,0,0,1,.05,0C11.8,9.71,11.86,9.68,11.93,9.66Z" fill="#6b3ce2"/>
        <path d="M11.75,9.63a.73.73,0,0,0-.25.35,1,1,0,0,1-.41.51l-.2,0v-.06s.07-.06.1-.1a1.56,1.56,0,0,0,.22-.4,5.91,5.91,0,0,1,.47-.9c.06-.11.11-.24.16-.35s0-.06,0-.07a.53.53,0,0,1,.17,0,1,1,0,0,1-.19.61A.64.64,0,0,0,11.75,9.63Z" fill="#6c3de6"/>
        <path d="M10.71,10.05a3.24,3.24,0,0,1-.17.32c-.07.14-.15.28-.23.42s-.12.21-.17.32a.69.69,0,0,1-.13.2.45.45,0,0,0-.11.17.92.92,0,0,1-.16.27,1.86,1.86,0,0,0-.25.43.12.12,0,0,1-.08-.06.09.09,0,0,0,0-.06s0,0,0-.06l.05-.11a.36.36,0,0,0,0-.23.8.8,0,0,1,.2-.4,1.73,1.73,0,0,0,.25-.41,1.59,1.59,0,0,1,.26-.43.45.45,0,0,0,.11-.23,1.21,1.21,0,0,1,.05-.18l0,0a.74.74,0,0,0,.17-.12h0A1.06,1.06,0,0,1,10.71,10.05Z" fill="#6c46ec"/>
        <path d="M9.45,11.66a.37.37,0,0,1-.06.32s0,0,0,.08a1.74,1.74,0,0,0-.11.18,3.67,3.67,0,0,1-.26.48,1.64,1.64,0,0,1-.21.25.84.84,0,0,1-.26.15,1.23,1.23,0,0,0-.25.14.28.28,0,0,1,0-.18l0-.1a.6.6,0,0,1,.09-.13.24.24,0,0,0,.09-.15,0,0,0,0,1,0,0c.1-.21.19-.41.31-.61s.12-.18.17-.28a.21.21,0,0,1,.13-.07l.27,0Z" fill="#694eec"/>
        <path d="M7,13.44a.28.28,0,0,1,0-.13c0-.13,0-.15,0-.2s0-.06,0-.09l.09-.1a.62.62,0,0,0,.18-.38s0-.07-.05-.06H7.11a.88.88,0,0,1,.07-.23.41.41,0,0,0,0-.19c.11-.17.24-.32.33-.49a.91.91,0,0,0,.11-.22.62.62,0,0,0,.07-.29s0,0,0-.06,0,0,.08,0l.27.05s0,0,0,.08-.06.32-.1.48a.2.2,0,0,0,.07.16h.07a.38.38,0,0,0,.13-.09.9.9,0,0,1,.18-.16.25.25,0,0,1,.17,0,0,0,0,0,1,0,0,.55.55,0,0,1-.1.25,2,2,0,0,0-.24.51c0,.13-.09.26-.13.39s0,.05,0,.06a.23.23,0,0,0-.11.11.26.26,0,0,1-.07.11.58.58,0,0,0-.19,0H7.65a.2.2,0,0,0-.18.07c-.11.1-.22.19-.32.3L7,13.44Z" fill="#6a59f6"/>
        <path d="M8.11,12.74a7.87,7.87,0,0,1,.3-.81c0-.06.07-.12.11-.17a.63.63,0,0,0,.1-.27.81.81,0,0,1,.11-.33c0-.06.08-.12.11-.19a.43.43,0,0,0,0-.25.18.18,0,0,1,.06-.09,1.54,1.54,0,0,0,.17-.19.33.33,0,0,0,.07-.16s0,0,0-.07.13,0,.14.1,0,.26,0,.39a.67.67,0,0,0,0,.24.21.21,0,0,1,0,.08,6.32,6.32,0,0,1-.22.61s0,.06,0,.07a.2.2,0,0,0-.14.13.52.52,0,0,1-.12.18l0,0-.32.65v0c-.07,0-.09,0-.13.05a.6.6,0,0,1-.08.08c-.06.06-.13.05-.16,0A.14.14,0,0,1,8.11,12.74Z" fill="#6b50f3"/>
        <path d="M7.62,7.72a4.66,4.66,0,0,1,.53-.78,1.45,1.45,0,0,0,.17-.26,2.23,2.23,0,0,0,.19-.24,1.21,1.21,0,0,1,.19-.2.58.58,0,0,1,.21.34A1.67,1.67,0,0,0,9,6.9a2,2,0,0,0,.1.21,1.34,1.34,0,0,1,.16.37c0,.09,0,.18.05.27l0,.2a2.91,2.91,0,0,0,0,.31,1.79,1.79,0,0,1,0,.23.25.25,0,0,1,0,.12.54.54,0,0,0,0,.18.07.07,0,0,0,0,.05.13.13,0,0,1,0,.14l-.06.09a.17.17,0,0,0-.05.12l-.06.22c0,.06,0,.07-.09,0a.22.22,0,0,0-.19,0c-.06,0-.1.05-.11.1a1.23,1.23,0,0,0-.05.25,1,1,0,0,1-.06.3.26.26,0,0,1,0,.09.52.52,0,0,0-.28.3s0,.08-.08.08-.07-.06-.08-.12,0-.13,0-.19,0-.31,0-.47a3.1,3.1,0,0,0-.1-.67,1.22,1.22,0,0,0-.1-.24A.83.83,0,0,1,8,8.57a2,2,0,0,0-.27-.7A.71.71,0,0,1,7.62,7.72Z" fill="#6e54fc"/>
        <path d="M10.53,9.84a.54.54,0,0,1-.22.17.08.08,0,0,1-.06-.08.29.29,0,0,1,0-.13,5.53,5.53,0,0,0,.28-.9,1.27,1.27,0,0,1,.13-.32.45.45,0,0,0,.07-.25.2.2,0,0,0-.08-.15s0,0,0,0a0,0,0,0,1,0,0,.39.39,0,0,0,.19-.26,1.57,1.57,0,0,1,.34-.51l.07,0,.08.34s0,0,0,.07a1.28,1.28,0,0,0-.16.36.49.49,0,0,0,0,.24.92.92,0,0,1,0,.28,3.59,3.59,0,0,1-.17.34c-.1.17-.21.35-.3.53a2.09,2.09,0,0,0-.13.35A.05.05,0,0,1,10.53,9.84Z" fill="#7045f5"/>
        <path d="M10.63,8.1v0a0,0,0,0,0,0,0,2.33,2.33,0,0,0-.2.34,1,1,0,0,1-.2.2s-.06,0-.07,0a.1.1,0,0,0-.09-.06l0,0a.43.43,0,0,1,.06-.33.13.13,0,0,0,0-.09.1.1,0,0,0,0-.09.06.06,0,0,1,0,0,.59.59,0,0,1,0-.45.21.21,0,0,0,.19-.15c0-.06,0-.08.12-.07l.13,0a.16.16,0,0,1,.1.15,2.57,2.57,0,0,0-.07.4S10.59,8.06,10.63,8.1Z" fill="#7149f9"/>
        <path d="M10.09,8.05s.07.07.07.12a.18.18,0,0,1-.05.12.43.43,0,0,0,0,.33A.23.23,0,0,1,10,8.8L9.88,9c-.09.12-.15.25-.23.38a1.06,1.06,0,0,1-.19.24s-.05.06-.1,0a.12.12,0,0,1,0-.1.59.59,0,0,1,0-.13.24.24,0,0,0-.06-.21.34.34,0,0,1,.06-.12c.06-.07.1-.13,0-.22a2.3,2.3,0,0,0,.23-.37c.07-.13.13-.26.2-.38S10,8,10.07,8Z" fill="#6f4df9"/>
        <path d="M11.15,8.58a1.54,1.54,0,0,0,0-.3.65.65,0,0,1,0-.31c0-.12.11-.23.16-.35l.22-.26A4.77,4.77,0,0,1,12,6.84l0,0a.82.82,0,0,1-.09.41,2.4,2.4,0,0,0-.16.52s0,0,0,.06,0,.09-.07.13a3,3,0,0,0-.23.38s0,.09-.06.12a.64.64,0,0,1-.22.14A.07.07,0,0,1,11.15,8.58Z" fill="#7041f3"/>
        <path d="M12.05,8.62l-.17,0a.07.07,0,0,1,0-.06.26.26,0,0,0,0-.27.43.43,0,0,1,0-.16c.06-.13.13-.27.19-.41h0c.08-.06.14-.14.22-.19l.2-.12.2-.16a3.57,3.57,0,0,0-.12.4s0,.08,0,.12a1,1,0,0,1-.15.2c-.09.13-.18.25-.26.38S12.09,8.53,12.05,8.62Z" fill="#6f3aeb"/>
        <path d="M12.13,7.75A1.09,1.09,0,0,1,12,8c0,.11-.1.23-.16.34a1,1,0,0,1-.1.17l-.14.21a.23.23,0,0,1-.14.1s-.05,0-.06,0a1.26,1.26,0,0,1,0-.28.11.11,0,0,1,0-.08.69.69,0,0,0,.05-.13,3,3,0,0,1,.23-.38l.08-.12A.88.88,0,0,0,12,7.57a.38.38,0,0,1,.24-.15l-.09.15A.29.29,0,0,0,12.13,7.75Z" fill="#703eee"/>
        <path d="M7.62,7.72a.54.54,0,0,1,.1.16A2.14,2.14,0,0,1,8,8.42a.75.75,0,0,1,0,.16.62.62,0,0,0,.1.24,1.38,1.38,0,0,1,.17.52,4,4,0,0,1,0,.91,1,1,0,0,0,0,.17.11.11,0,0,0,.07.11s0,0,0,.05L8.14,11s0,0,0,0A1.26,1.26,0,0,1,7.82,11H7.74s0,0,0,0a1.93,1.93,0,0,0,0-.48c0-.14,0-.28,0-.42a.51.51,0,0,0-.09-.31,3.52,3.52,0,0,1-.18-.4c-.06-.18-.12-.35-.19-.52s-.1-.17-.22-.16a4.94,4.94,0,0,0,.32-.55A3.51,3.51,0,0,1,7.62,7.72Z" fill="#6d58fc"/>
        <path d="M11.43,8.43a1.17,1.17,0,0,0,0,.37,1.22,1.22,0,0,1-.07.17L11,9.75s0,0,0,.05a.8.8,0,0,0-.23.22l0,0c-.06-.06-.1-.13-.16-.19l0,0a2.38,2.38,0,0,1,.24-.57c.08-.16.17-.31.26-.46l.12-.23A1.08,1.08,0,0,0,11.43,8.43Z" fill="#6e43ee"/>
        <path d="M11,9.8l.2-.43.21-.44a.33.33,0,0,1,.07-.13.21.21,0,0,0,.18-.11l.23-.34,0,0a.23.23,0,0,1,0,.24.42.42,0,0,0,0,.1,2.57,2.57,0,0,1-.19.41q-.18.3-.33.6c-.09.19-.17.39-.26.58a.63.63,0,0,1-.2.23h0c0-.08,0-.16,0-.24A1.07,1.07,0,0,0,11,10,1.21,1.21,0,0,0,11,9.8Z" fill="#6d3fea"/>
        <path d="M10.27,9.8s0,.07,0,.1a.12.12,0,0,0,.05.11.88.88,0,0,1-.18.46,1.08,1.08,0,0,0-.21.34,2.31,2.31,0,0,1-.28.48.82.82,0,0,0-.19.37l-.34,0c.08-.24.19-.47.25-.72a0,0,0,0,1,0,0,1.54,1.54,0,0,0,.17-.19,2.3,2.3,0,0,0,.32-.57.53.53,0,0,1,.25-.3l.11-.08S10.25,9.79,10.27,9.8Z" fill="#6c4af0"/>
        <path d="M8.1,11.06l0,0,.24-.48v0a.75.75,0,0,0,.1-.17.45.45,0,0,1,.22-.21h0a0,0,0,0,1,0,0l.06.15a.42.42,0,0,1,0,.27s0,.06,0,.08,0,0,.05,0a.34.34,0,0,1,0,.28,1.45,1.45,0,0,0-.22.49h0a.35.35,0,0,0-.24.1c-.06.05-.1.11-.17.16l-.05,0c-.07,0-.08,0-.13,0s0-.16,0-.23.06-.27.09-.4Z" fill="#6c55f8"/>
        <path d="M10.27,9.8,10,10a.34.34,0,0,0-.09.12,5.52,5.52,0,0,1-.28.54,1.85,1.85,0,0,1-.25.32h0a.34.34,0,0,1,0-.19v-.43c0-.11,0-.13-.13-.11a.2.2,0,0,1,0-.21.15.15,0,0,1,.06-.09.34.34,0,0,0,.12-.26,0,0,0,0,1,0,0,.89.89,0,0,0,.3-.34A2.13,2.13,0,0,1,10,8.81a.46.46,0,0,0,.08-.19s.08,0,.09.05,0,.06.08,0a1,1,0,0,0,.28-.38.66.66,0,0,1,.12-.17s.07,0,.09.08a.3.3,0,0,1,0,.26.55.55,0,0,1-.08.15,2.43,2.43,0,0,0-.13.38c0,.18-.09.36-.14.54A1.89,1.89,0,0,1,10.27,9.8Z" fill="#6e49f4"/>
        <path d="M9.37,9.62a.37.37,0,0,1-.13.31.24.24,0,0,0-.05.29.37.37,0,0,1-.12.3,1.07,1.07,0,0,0-.18.19s-.09,0-.11,0,0-.08,0-.12a.34.34,0,0,0,0-.2,1.59,1.59,0,0,1-.07-.2,1.08,1.08,0,0,0,.11-.4.62.62,0,0,1,0-.23.19.19,0,0,1,.26-.12l.07,0s.06,0,.07,0a2,2,0,0,0,.05-.24.19.19,0,0,1,.07.22.59.59,0,0,1,0,.13A.14.14,0,0,0,9.37,9.62Z" fill="#6d51f9"/>
      </g>
    </symbol>
  </defs>
  <rect id="Figment_lido" x="-1.22" y="-1.06" width="252.5" height="252.5" transform="translate(-0.16 250.22) rotate(-90)" fill="#fff"/>
  <use width="17.34" height="17.34" transform="translate(35.06 35.08) scale(10.37)" xlink:href="#Nuevo_símbolo_7"/>
</svg>
