<svg id="Capa_1" data-name="Capa 1" xmlns="http://www.w3.org/2000/svg" xmlns:xlink="http://www.w3.org/1999/xlink" width="250" height="250" viewBox="0 0 250 250">
  <defs>
    <symbol id="Quick_cash" data-name="Quick cash" viewBox="0 0 12.08 12.08">
      <path d="M12.07,6.09c0,1.3,0,2.59,0,3.88A1.92,1.92,0,0,1,10,12.07H2a1.91,1.91,0,0,1-2-2C0,7.39,0,4.71,0,2A1.94,1.94,0,0,1,2,0C4.71,0,7.4,0,10.09,0a1.93,1.93,0,0,1,2,2C12.09,3.39,12.07,4.74,12.07,6.09ZM1.08,6c0,1.27,0,2.54,0,3.8,0,.89.31,1.2,1.17,1.2h7.6c.85,0,1.18-.34,1.18-1.2V2.22c0-.79-.32-1.14-1.1-1.14s-1.53.09-2.26,0c-1.82-.1-3.63,0-5.44,0-.85,0-1.15.3-1.15,1.14C1.07,3.49,1.08,4.76,1.08,6Z" fill="#fafdfd"/>
      <path d="M7.72,1.41c-.24,1-.46,2-.73,3-.13.44,0,.51.4.5.66,0,1.31,0,2,0,.09,0,.23,0,.27.07a.36.36,0,0,1-.08.28C7.9,7,6.43,8.94,4.83,10.73c0,0-.07,0-.18,0a12.37,12.37,0,0,1,.43-2.13c.23-1,.25-1-.81-1H2.44L7.6,1.3ZM7.41,6c-.69-.25-1.39.19-2-.28,0,0-.14.07-.19.13-.15.21-.39.37-.46.71H5.5c.32,0,.76-.13.92,0,.37.37.47.06.64-.12S7.28,6.2,7.41,6Z" fill="#fafdfd"/>
    </symbol>
  </defs>
  <rect id="Figment_lido" x="-1.22" y="-1.06" width="252.5" height="252.5" transform="translate(-0.16 250.22) rotate(-90)" fill="#08c698"/>
  <use width="12.08" height="12.08" transform="translate(38.17 38.15) scale(14.38)" xlink:href="#Quick_cash"/>
</svg>
