<svg id="Capa_1" data-name="Capa 1" xmlns="http://www.w3.org/2000/svg" xmlns:xlink="http://www.w3.org/1999/xlink" width="250" height="250" viewBox="0 0 250 250">
  <defs>
    <symbol id="rocklogicgmbh" data-name="rocklogicgmbh" viewBox="0 0 44.94 32.98">
      <path d="M20.42,23.6c-1.52,0-2.93,0-4.34,0-.34,0-.41-.23-.51-.45Q14.36,20.6,13.15,18a1.27,1.27,0,0,0-1.46-.49c-.21.13-.13.34-.13.51,0,1.67,0,3.34,0,5,0,.44-.12.57-.56.56-1,0-2,0-2.93,0-.36,0-.52-.07-.52-.48q0-7.71,0-15.44c0-.25,0-.44.36-.43,2.35.06,4.71-.16,7.05.1A5.15,5.15,0,0,1,19.37,14a4.23,4.23,0,0,1-2.1,2.6c-.31.17-.34.29-.17.6C18.2,19.28,19.28,21.39,20.42,23.6ZM13,10.88h0a8.42,8.42,0,0,1-.87,0c-.4,0-.55.08-.53.51,0,.76,0,1.53,0,2.3,0,.33,0,.5.44.49.66,0,1.33,0,2,0a1.6,1.6,0,0,0,1.56-1.62A1.63,1.63,0,0,0,14,10.88C13.66,10.86,13.3,10.88,13,10.88Z" fill="#4b4b4b"/>
      <path d="M35.28,15.48a6.59,6.59,0,0,1-5.83,6.89c-.44.07-.53.25-.47.61.1.54-.14.71-.65.63a1.55,1.55,0,0,0-.43,0c-.6.09-1-.06-.83-.77.07-.33-.12-.41-.42-.46a6.52,6.52,0,0,1-5.83-6.5,6.86,6.86,0,0,1,5.36-7.29,1.58,1.58,0,0,1,.42-.09c.42,0,.63-.16.55-.6s.13-.68.61-.6a1.3,1.3,0,0,0,.44,0c.59-.08,1,0,.83.77-.06.3.12.37.39.42A6.61,6.61,0,0,1,35.28,15.48Zm-8.15,0c0-1.7,0-3.41,0-5.11,0-.41-.12-.52-.5-.42a4.36,4.36,0,0,0-1.92,1,6.07,6.07,0,0,0-1.83,5.28,5.08,5.08,0,0,0,3.68,4.74c.44.12.58.07.57-.42C27.11,18.81,27.13,17.13,27.13,15.44ZM29,15.38c0,1.72,0,3.45,0,5.17,0,.42.11.5.5.4a4.33,4.33,0,0,0,2.19-1.24c1.8-2,1.92-4.3,1.14-6.71a4.48,4.48,0,0,0-3.27-3.06c-.45-.12-.57,0-.57.44C29,12.05,29,13.71,29,15.38Z" fill="#4b4b4b"/>
      <path d="M12.21,29.71a16.56,16.56,0,0,0,2.95-1.31q1.35-.64,2.67-1.35a2.41,2.41,0,0,1,2.64.14c.68.45,1.38.85,2.07,1.28.34.43,1,.49,1.24,1a31.82,31.82,0,0,1-6.21,1.74c-1.47.37-2.92.79-4.38,1.18a6,6,0,0,1-2.89.12,18.43,18.43,0,0,0-2.48-.21,4,4,0,0,1,1.66-1.12C10.41,30.75,11.49,30.56,12.21,29.71Z" fill="#4b4b4b"/>
      <path d="M37.9,32.74a21,21,0,0,1-6.65-1.11,30,30,0,0,1-3.88-1.74l1.68-1.13a2.29,2.29,0,0,1,1.74.11,39.84,39.84,0,0,0,4.49,2.34A13.7,13.7,0,0,1,37.9,32.74Z" fill="#4b4b4b"/>
      <path d="M12.21,29.71c-.72.85-1.8,1-2.73,1.51a4,4,0,0,0-1.66,1.12,22.91,22.91,0,0,0-5,.21,20.27,20.27,0,0,1-2.86.2A6.55,6.55,0,0,1,2.87,32,4.72,4.72,0,0,0,6,30.63s.07-.05.09-.09c1-1.5,2.49-1.47,4-1.15C10.78,29.54,11.5,29.59,12.21,29.71Z" fill="#a2bfad"/>
      <path d="M37.9,32.74a13.7,13.7,0,0,0-2.62-1.53,39.84,39.84,0,0,1-4.49-2.34,2.3,2.3,0,0,1,2.56,0c1.52.82,3,1.67,4.54,2.47A15.92,15.92,0,0,0,42,33,33.25,33.25,0,0,1,37.9,32.74Z" fill="#a2bfad"/>
      <path d="M29.05,28.76l-1.68,1.13a2.67,2.67,0,0,1-1-.35,3.31,3.31,0,0,0-2.6,0c-.25-.55-.9-.61-1.24-1a5.21,5.21,0,0,1,1.93-1.19,1.07,1.07,0,0,1,1,.3,1.4,1.4,0,0,0,1.33.18A1.92,1.92,0,0,1,29.05,28.76Z" fill="#a2bfad"/>
      <g>
        <path d="M40.22,13.44a4.6,4.6,0,0,1-4.14-2.54,4.53,4.53,0,0,1,.18-4.68c.09-.16.16-.17.31-.08l3.42,2a.42.42,0,0,0,.5,0c1.12-.67,2.26-1.32,3.39-2,.17-.11.24-.07.34.08a4.71,4.71,0,0,1-3.36,7.15Z" fill="#00a2fd"/>
        <path d="M40.23,0l2,3.14c.4.63.8,1.26,1.21,1.88.1.15.07.21-.07.29l-3,1.74a.27.27,0,0,1-.31,0l-3-1.75c-.09-.06-.16-.1-.08-.23C38.07,3.39,39.14,1.72,40.23,0Zm0,1.39a.76.76,0,0,0-.08.11C39.43,2.61,38.72,3.72,38,4.83c-.07.12,0,.16.08.21l2,1.18a.25.25,0,0,0,.3,0L42,5.27c.18-.1.46-.18.49-.33s-.17-.34-.28-.51L40.37,1.56C40.33,1.5,40.31,1.42,40.22,1.39Z" fill="#009ff9"/>
      </g>
    </symbol>
  </defs>
  <rect id="Figment_lido" x="-1.22" y="-1.06" width="252.5" height="252.5" transform="translate(-0.16 250.22) rotate(-90)" fill="#fff"/>
  <use width="44.94" height="32.98" transform="translate(30.92 55.94) scale(4.19)" xlink:href="#rocklogicgmbh"/>
</svg>
