<svg id="Capa_1" data-name="Capa 1" xmlns="http://www.w3.org/2000/svg" xmlns:xlink="http://www.w3.org/1999/xlink" width="250" height="250" viewBox="0 0 250 250">
  <defs>
    <symbol id="sharedstake" data-name="sharedstake" viewBox="0 0 17.75 22.99">
      <path d="M5.83,14.74l2.09-2C9.45,11.37,11,10,12.5,8.52a.61.61,0,0,1,.84-.13c.3.18.6.36.91.52s.3.31,0,.55c-1.66,1.52-3.33,3-4.94,4.6a2.33,2.33,0,0,1-2.06.8,11.19,11.19,0,0,0-1.42,0Z" fill="#e10050"/>
      <path d="M11.32,8.07A1,1,0,0,1,11,8.5c-2.07,1.93-4.15,3.84-6.2,5.78a.52.52,0,0,1-.71.09c-1.41-.71-1.41-.72-.28-1.77q2.26-2.1,4.52-4.21a1.11,1.11,0,0,1,.85-.33C9.87,8.09,10.57,8.07,11.32,8.07Z" fill="#e10050"/>
      <path d="M10.17,14.85a.47.47,0,0,1,.23-.35c1.55-1.45,3.11-2.88,4.65-4.34.25-.24.42-.27.63,0s.46.61.71.9.12.32-.06.48L13,14.66a.6.6,0,0,1-.46.19Z" fill="#e10050"/>
      <path d="M7,8.18l-.51.49q-2.07,1.92-4.13,3.85c-.23.22-.35.21-.56,0-.91-1.07-.91-1.06.12-2C2.69,9.76,3.47,9,4.23,8.31a.84.84,0,0,1,.64-.24H7Z" fill="#e10050"/>
      <path d="M.47,17.64c-.1-.15-.26-.27-.26-.48s0-.24.14-.28a1.9,1.9,0,0,1,.34,0H11.41a.66.66,0,0,1,.14,0c.42,0,.44.06.31.5s-.28.41-.59.41c-3.45,0-6.9,0-10.35,0A.78.78,0,0,1,.47,17.64Z" fill="#d8024e"/>
      <path d="M15.15,1.37a1,1,0,0,1,.3.53c.09.25-.06.32-.25.35a3.09,3.09,0,0,1-.43,0c-2.7,0-5.41,0-8.12,0-1.4,0-2.79,0-4.19,0-.25,0-.6.08-.52-.38a2.26,2.26,0,0,1,.66-.61,3.87,3.87,0,0,0,.9,0c3.54,0,7.07,0,10.61,0C14.46,1.31,14.81,1.36,15.15,1.37Z" fill="#e2628f"/>
      <path d="M17.36,5.47c.13.19.37.42.27.62s-.41.07-.62.07H6.48c-.83,0-.85,0-.53-.82a4.18,4.18,0,0,0,.71,0h9.9A2.41,2.41,0,0,1,17.36,5.47Z" fill="#e10754"/>
      <path d="M15.15,1.37c-.09.21-.28.17-.45.17H3c-.15,0-.38.07-.35-.23A1.91,1.91,0,0,1,3.27.85a3,3,0,0,0,.67.07H14.23a.91.91,0,0,0,.64-.14C15.06.93,15,1.19,15.15,1.37Z" fill="#e37098"/>
      <path d="M2.51,21.46a.66.66,0,0,1-.19-.38c.12-.17.3-.14.47-.14H15.21c.21,0,.43,0,.52.23a.78.78,0,0,1-.34.31,2.43,2.43,0,0,1-1,.13H3.2A1,1,0,0,1,2.51,21.46Z" fill="#a40d42"/>
      <path d="M3.26,22.91a1.78,1.78,0,0,1-.3-.58c.1-.08.22,0,.33,0,3.3,0,6.6,0,9.9,0,.28,0,.58-.1.82.14a3.2,3.2,0,0,1-1.33.49.58.58,0,0,1-.32,0H3.59A.63.63,0,0,1,3.26,22.91Z" fill="#92113e"/>
      <path d="M16.7,20a1.07,1.07,0,0,1-.36.48,1.16,1.16,0,0,1-1,.44c-4.29,0-8.57,0-12.86,0a.35.35,0,0,1-.22-.06c-.37-.44,0-.4.27-.4H10.7a4,4,0,0,0,1.58-.27c1.2-.07,2.41,0,3.61,0C16.18,20.19,16.41,19.94,16.7,20Z" fill="#ab0b43"/>
      <path d="M14.34,14.85l1.88-1.75.46-.42c.43-.41.43-.41.65.17a5.61,5.61,0,0,1,.41,1.66c0,.16,0,.34-.21.34Z" fill="#e0004f"/>
      <path d="M14.9,21.86a.86.86,0,0,1-.4.28,2.12,2.12,0,0,1-.89.15c-3.33,0-6.67,0-10,0a1.26,1.26,0,0,1-.74-.14,1.13,1.13,0,0,1-.26-.48.84.84,0,0,1,.47-.05H14.26C14.5,21.61,14.79,21.53,14.9,21.86Z" fill="#9b0f40"/>
      <path d="M11,18.79a1.45,1.45,0,0,1-1.05.38c-2.76,0-5.52,0-8.28,0-.46,0-.56-.26-.67-.59.14-.15.33-.09.5-.09q4.41,0,8.82,0C10.56,18.5,10.85,18.45,11,18.79Z" fill="#c40649"/>
      <path d="M1.94,1.92c.07.21.26.19.43.19H15c.18,0,.36,0,.43-.21a.7.7,0,0,1,.2.38c-.05.33-.31.16-.45.16H8.94c-.35,0-.71,0-1.06,0a16.64,16.64,0,0,0-2.73.2c-1.07.1-2.14,0-3.2,0-.23,0-.47,0-.39-.37A.84.84,0,0,1,1.94,1.92Z" fill="#e05788"/>
      <path d="M17.36,5.47a.21.21,0,0,1-.21.16c-3.56-.15-7.12,0-10.68-.07-.21,0-.43.05-.52-.22a.32.32,0,0,1,.1-.26,1.53,1.53,0,0,1,.52,0H16.5a2.48,2.48,0,0,1,.66.08A.57.57,0,0,1,17.36,5.47Z" fill="#e1125b"/>
      <path d="M.77,18.21.67,18c.09-.21.27-.24.48-.24h10c.21,0,.38,0,.47.25a.34.34,0,0,1-.17.3,1.29,1.29,0,0,1-.72.18q-4.61,0-9.19,0A.87.87,0,0,1,.77,18.21Z" fill="#d0044c"/>
      <path d="M.77,18.21a1.74,1.74,0,0,0,.75.09l9.93,0c-.08.23-.33.3-.48.47a3,3,0,0,0-.84-.11H1.67a1.51,1.51,0,0,1-.7-.1A.67.67,0,0,1,.77,18.21Z" fill="#c9054a"/>
      <path d="M2.22,20.89a2.68,2.68,0,0,1,.85-.1h12.2a1.56,1.56,0,0,0,1.07-.29,2.27,2.27,0,0,1-.61.66,1.49,1.49,0,0,0-.66-.09H2.32Z" fill="#a80c43"/>
      <path d="M4.33.3A2.37,2.37,0,0,1,5.52,0h8.61c.21,0,.43,0,.46.27s-.09.22-.22.24a2,2,0,0,1-.43,0c-3,0-6,0-9,0C4.75.53,4.45.65,4.33.3Z" fill="#e287a7"/>
      <path d="M14.9,21.86a1.44,1.44,0,0,0-.74-.11H3.31a1.52,1.52,0,0,1-.7-.09l-.1-.2,12.88,0Z" fill="#9f0e41"/>
      <path d="M2.84,8.18l-2.16,2c-.14.14-.22.06-.27-.08A6.06,6.06,0,0,1,0,8.38c0-.23.07-.32.3-.31H2.79Z" fill="#df004f"/>
      <path d="M14.87.78c0,.28-.21.28-.41.28H3.59c-.14,0-.35.06-.32-.21a.34.34,0,0,1,.3-.16,4.54,4.54,0,0,1,.9-.06h9.17a2.25,2.25,0,0,0,.89-.11l.16-.07A.54.54,0,0,1,14.87.78Z" fill="#e3769c"/>
      <path d="M11.62,18a1.31,1.31,0,0,0-.65-.1H1.43a2.78,2.78,0,0,0-.76.1.74.74,0,0,1-.2-.38H11.14c.25,0,.57.1.66-.29,0,0,.07,0,.1,0A.91.91,0,0,1,11.62,18Z" fill="#d4034d"/>
      <path d="M2.87,22.14H14.5a1.05,1.05,0,0,1-.49.28,4.83,4.83,0,0,1-1.14,0H3.72A1.89,1.89,0,0,1,3,22.33Z" fill="#96103f"/>
      <path d="M17.16,5.11a1.08,1.08,0,0,1-.56.07h-10a.91.91,0,0,1-.6-.1.45.45,0,0,1,.19-.31,10.84,10.84,0,0,1,1.14,0h8.94a5,5,0,0,1,.67,0Z" fill="#e11b61"/>
      <path d="M6.35,4.62a.59.59,0,0,1,.28-.3,3.71,3.71,0,0,1,1-.05h8.4a2.56,2.56,0,0,0,.62-.06.66.66,0,0,1,.19.37c-.05.34-.32.21-.49.21H6.83C6.66,4.79,6.43,4.9,6.35,4.62Z" fill="#e22568"/>
      <path d="M16.7,4.21c-.09.24-.3.2-.49.2H7.09a.68.68,0,0,1-.46-.09c.09-.18.3-.19.44-.3a.83.83,0,0,1,.38,0h8.61c.25,0,.49,0,.64.24Z" fill="#e22b6c"/>
      <path d="M16.7,4.22a1.54,1.54,0,0,0-.7-.09H8A3,3,0,0,1,7.07,4a1.2,1.2,0,0,1,.82-.21h8.23C16.44,3.8,16.65,3.88,16.7,4.22Z" fill="#de306d"/>
      <path d="M1.56,2.31c.07.2.24.18.4.19,1.22,0,2.46.12,3.66,0,3.17-.26,6.33,0,9.49-.13a.7.7,0,0,0,.54-.12c.07.08.12.17,0,.2a1.59,1.59,0,0,1-.38,0H7.13a4,4,0,0,0-1.72.3,1.75,1.75,0,0,1-1,.24H1.65c-.22,0-.47,0-.39-.34A.9.9,0,0,1,1.56,2.31Z" fill="#e14f82"/>
      <path d="M14.47,17.5a1.06,1.06,0,0,1,.13-.63c1-.11,1.91,0,2.86-.05.16,0,.24.06.23.22a1.84,1.84,0,0,1,0,.62,0,0,0,0,1,0,.07c-1,.1-1.95,0-2.93,0C14.57,17.77,14.44,17.7,14.47,17.5Z" fill="#d8024e"/>
      <path d="M11.9,17.35h-.1c.14-.27,0-.38-.25-.38H.79c-.21,0-.46-.09-.58.19-.29-.36,0-.36.24-.36H11.52C12.05,16.8,12.06,16.81,11.9,17.35Z" fill="#d6014c"/>
      <path d="M17.1,19.36a.68.68,0,0,1-.21.38,1,1,0,0,1-.83.39c-.8,0-1.61,0-2.42,0-.31,0-.56-.13-.51-.52l.49-.55a1.52,1.52,0,0,0,.7.11c.74,0,1.49,0,2.24,0C16.76,19.17,17,19.13,17.1,19.36Z" fill="#bb0847"/>
      <path d="M14.67.58c0,.26-.16.19-.28.19H3.89A1.67,1.67,0,0,1,3.57.69C3.68.6,3.78.47,4,.48c3.43,0,6.87,0,10.31,0A.6.6,0,0,1,14.67.58Z" fill="#e37ba1"/>
      <path d="M13.13,19.61a.51.51,0,0,0,.49.32l2.83,0a.84.84,0,0,0,.44-.16.44.44,0,0,1-.19.29,1.51,1.51,0,0,1-1.21.39c-.9,0-1.81,0-2.71,0-.18,0-.4.06-.5-.18Z" fill="#b50946"/>
      <path d="M14.67.58H4.54c-.2,0-.42.05-.59-.1A.62.62,0,0,1,4.33.3a.9.9,0,0,0,.56.09H14c.21,0,.42,0,.59-.12l.1.18Z" fill="#e380a3"/>
      <path d="M6.35,4.62a1,1,0,0,0,.56.08H16.3a.77.77,0,0,0,.59-.12l.1.19a.7.7,0,0,1-.54.12H6.78c-.19,0-.39,0-.54-.12Z" fill="#e11f64"/>
      <path d="M.11,5.34A.62.62,0,0,1,.2,4.88,1.06,1.06,0,0,0,.83,5h2.1c.17,0,.36,0,.47.15l-.12.38A.53.53,0,0,1,2.7,6H.61C.11,5.94.05,5.86.11,5.34Z" fill="#e1105a"/>
      <path d="M17.1,19.36H14c-.19,0-.45.07-.38-.29l.28-.39a1,1,0,0,0,.63.16h2.23c.18,0,.38,0,.52.15A.68.68,0,0,1,17.1,19.36Z" fill="#c00748"/>
      <path d="M14.09,18.37a.76.76,0,0,1,.19-.38,1,1,0,0,0,.59.12H17a1.21,1.21,0,0,1,.56.1,1.14,1.14,0,0,1-.19.57c-1,.11-2,0-3.08,0C13.93,18.82,14,18.59,14.09,18.37Z" fill="#c9054a"/>
      <path d="M.11,5.34c0,.25.07.42.38.42H2.86a.56.56,0,0,0,.42-.18c0,.45-.15.64-.64.6-.68,0-1.37,0-2.05,0S0,6.15.05,5.51A.49.49,0,0,1,.11,5.34Z" fill="#e00653"/>
      <path d="M17.55,18.21a6.42,6.42,0,0,1-1.75.09c-.37,0-.75,0-1.13,0-.23,0-.37-.07-.39-.31a.36.36,0,0,1,.11-.26,20.44,20.44,0,0,0,2.07.05,5.19,5.19,0,0,1,1.18,0A.65.65,0,0,1,17.55,18.21Z" fill="#cf044c"/>
      <path d="M1.26,2.68a.29.29,0,0,0,.29.2,33.11,33.11,0,0,0,3.86-.09l-.56.39a1.61,1.61,0,0,1-.64.14H1.5c-.24,0-.52,0-.43-.36A.38.38,0,0,1,1.26,2.68Z" fill="#e1477e"/>
      <path d="M1.07,3c.08.27.31.22.51.22H4.85l-.31.28A1.11,1.11,0,0,1,4,3.6c-.92,0-1.84,0-2.77,0-.21,0-.47,0-.39-.35A.41.41,0,0,1,1.07,3Z" fill="#e14179"/>
      <path d="M14.09,18.37c-.06.31.14.32.37.32.76,0,1.53,0,2.29,0a1.26,1.26,0,0,1,.61.09l-.08.2q-1.55,0-3.09,0c-.23,0-.33-.08-.29-.31Z" fill="#c40649"/>
      <path d="M.6,3.75l.1-.19c1,0,2,0,3.05,0,.17,0,.37,0,.43.2a.47.47,0,0,1-.52.32c-.9,0-1.8,0-2.69,0C.78,4.07.51,4.1.6,3.75Z" fill="#e13572"/>
      <path d="M4,4.14a.54.54,0,0,1-.19.28.88.88,0,0,1-.5.14H.81c-.22,0-.47,0-.41-.34L.49,4c1,.06,2,0,3,0C3.62,4,3.82,4,4,4.14Z" fill="#e12b6b"/>
      <path d="M.4,4.21c.1.27.34.2.53.2H3.79l-.11.19a.53.53,0,0,1-.45.23H.66c-.2,0-.45,0-.36-.35A.36.36,0,0,1,.4,4.21Z" fill="#e12567"/>
      <path d="M3.4,5.19H.69c-.23,0-.46,0-.49-.3h0A.8.8,0,0,1,.71,4.8H3c.17,0,.35,0,.5.09Z" fill="#e11a61"/>
      <path d="M17.64,17.83c-.09.07-.16.15-.29.13-.82-.09-1.65,0-2.47,0-.19,0-.4,0-.49-.19l.08-.23a.64.64,0,0,0,.53.13h2.14a1.11,1.11,0,0,1,.51.1Z" fill="#d4034d"/>
      <path d="M3.26,22.91h9.42a1,1,0,0,1-.51.08H3.72A.68.68,0,0,1,3.26,22.91Z" fill="#8b113c"/>
      <path d="M4.14,3.74a.89.89,0,0,0-.6-.09H1.2a.79.79,0,0,1-.5-.09.46.46,0,0,1,.18-.32c.09.27.32.21.52.21H4.54l-.27.3C4.22,3.81,4.18,3.81,4.14,3.74Z" fill="#e13c76"/>
      <path d="M4.14,3.74l.13,0L4,4.14H1.07c-.2,0-.41,0-.58-.13A.28.28,0,0,1,.6,3.75c.07.19.23.18.39.18h2.7C3.87,3.93,4,3.92,4.14,3.74Z" fill="#e12f6e"/>
      <path d="M3.54,4.89H.2a.55.55,0,0,1,.1-.39.25.25,0,0,0,.24.2,20.56,20.56,0,0,0,3.14-.08Z" fill="#e01f63"/>
      <path d="M17.65,17.66c0-.13,0-.25,0-.38,0-.31-.13-.42-.43-.41H14.6a22.21,22.21,0,0,1,2.94-.07c.17,0,.22.11.21.25A1.27,1.27,0,0,1,17.65,17.66Z" fill="#d3014b"/>
    </symbol>
  </defs>
  <rect id="Figment_lido" x="-1.22" y="-1.06" width="252.5" height="252.5" transform="translate(-0.16 250.22) rotate(-90)" fill="#240129"/>
  <use width="17.75" height="22.99" transform="translate(65.11 47.42) scale(6.75)" xlink:href="#sharedstake"/>
</svg>
