<svg id="Capa_1" data-name="Capa 1" xmlns="http://www.w3.org/2000/svg" xmlns:xlink="http://www.w3.org/1999/xlink" width="250" height="250" viewBox="0 0 250 250">
  <defs>
    <symbol id="stakin_lido" data-name="stakin_lido" viewBox="0 0 20.79 21.73">
      <path d="M7,21.71c-.78,0-1.56,0-2.34,0a4.73,4.73,0,0,1-2.8-1.06A4.89,4.89,0,0,1,.06,17.51a2.29,2.29,0,0,1,0-.64.59.59,0,0,1,.52-.57,1,1,0,0,1,.58.2c.3.19.59.39.9.55a6.35,6.35,0,0,0,2.41.68l.68,0a1,1,0,0,1,1,1.11v1.31c0,.1,0,.13.12.13,1,0,2,0,3,0a3.57,3.57,0,0,0,.49-7.1,7.46,7.46,0,0,0-.95-.05A.7.7,0,0,1,8,12.65a.69.69,0,0,1,.34-.81.7.7,0,0,1,.32-.09,5,5,0,0,1,4.11,1.64,4.68,4.68,0,0,1,1.26,2.84,4.85,4.85,0,0,1-1.58,4.17,4.78,4.78,0,0,1-2.64,1.27c-.33,0-.66,0-1,.06H7Z" fill="#fff"/>
      <path d="M8,7.6H5a3.57,3.57,0,0,0-.74,7.06,5.42,5.42,0,0,0,1.14.08A.68.68,0,0,1,6,15a.7.7,0,0,1-.56,1.13,5.27,5.27,0,0,1-2-.25,4.93,4.93,0,0,1-3.3-3.7A4.28,4.28,0,0,1,0,10.92a4.94,4.94,0,0,1,1.24-3A4.89,4.89,0,0,1,5,6.19q2.1,0,4.2,0A4.83,4.83,0,0,1,12.4,7.41,4.89,4.89,0,0,1,14,10.32a1.71,1.71,0,0,1,0,.78,2,2,0,0,1-.08.22.55.55,0,0,1-.69.26,1.63,1.63,0,0,1-.34-.19,6.18,6.18,0,0,0-2.82-1.14,9.3,9.3,0,0,0-1.05-.09A1.27,1.27,0,0,1,8.51,10,1,1,0,0,1,8,9.13c0-.47,0-.93,0-1.39Z" fill="#fff"/>
      <g>
        <path d="M17.39,9.7a3.35,3.35,0,0,1-3-1.83,3.31,3.31,0,0,1,.13-3.38c.07-.12.12-.12.23-.06l2.47,1.45a.3.3,0,0,0,.36,0L20,4.44c.12-.08.17-.05.24.06a3.39,3.39,0,0,1-2.42,5.15Z" fill="#fff"/>
        <path d="M17.4,0l1.44,2.27.87,1.35c.08.11.06.15-.05.21L17.51,5.09a.2.2,0,0,1-.22,0L15.11,3.82c-.07,0-.11-.07,0-.16C15.83,2.45,16.6,1.24,17.4,0Zm0,1a.35.35,0,0,0-.05.08L15.78,3.49c0,.08,0,.11.06.15l1.46.85a.2.2,0,0,0,.22,0l1.14-.68c.13-.07.33-.13.36-.23s-.13-.25-.21-.37c-.43-.7-.88-1.39-1.32-2.07A.2.2,0,0,0,17.38,1Z" fill="#fff"/>
      </g>
    </symbol>
  </defs>
  <rect id="Figment_lido" x="-1.22" y="-1.06" width="252.5" height="252.5" transform="translate(-0.16 250.22) rotate(-90)" fill="#1d52b2"/>
  <use width="20.79" height="21.73" transform="translate(47.6 39.49) scale(7.67)" xlink:href="#stakin_lido"/>
</svg>
