<svg id="Capa_1" data-name="Capa 1" xmlns="http://www.w3.org/2000/svg" xmlns:xlink="http://www.w3.org/1999/xlink" width="250" height="250" viewBox="0 0 250 250">
  <defs>
    <symbol id="Stakehound" data-name="Stakehound" viewBox="0 0 100.02 116.99">
      <path d="M37.79,0C40,1.91,41.2,2.92,42.36,4c8.14,7.62,16.1,15.45,24.47,22.81,3.71,3.26,5.83,6.73,5.18,11.61-.6,4.53,1.44,7.32,5.08,9.83,7,4.82,13.61,10.14,20.48,15.11,2.19,1.58,3,3.1,2,5.84-1.26,3.54-2,7.27-3.22,12-2-3.64-3.56-6.31-5.88-10.44C89.66,76.52,89.13,81,88.3,85.34a8.55,8.55,0,0,1-2.11,4c-1.91,2-4.14,3.67-6.62,5.81l-4.78-8.11c-1.1,10.53-2.07,19.76-3.13,29.93-3-2.39-5.25-4.08-7.42-5.83-6.08-4.92-12.2-9.8-18.19-14.83-5-4.23-9-7.9-17.24-4.7C18,95.81,5.51,88.5.71,78.11c-1.13-2.44-1-4.08,1.15-6C7.72,66.91,13.45,61.57,18.94,56a9.07,9.07,0,0,0,2.52-6c-.11-4,.95-7.18,4.26-9.44,10.38-7.08,14-16.88,12.14-29.13C37.36,8.13,37.79,4.64,37.79,0ZM31.42,58.83l10.22-.51.18-1.14L31.42,50.6Z" fill="#00e0f8"/>
      <path d="M22.88.87C38.06,11,38.81,27.53,23.7,35.67c-.28-6-.65-11.71-.79-17.42S22.88,7,22.88.87Z" fill="#00e0f8"/>
    </symbol>
  </defs>
  <rect id="Figment_lido" x="-1.22" y="-1.06" width="252.5" height="252.5" transform="translate(-0.16 250.22) rotate(-90)" fill="#0e223d"/>
  <use width="100.02" height="116.99" transform="translate(42.16 28.1) scale(1.66)" xlink:href="#Stakehound"/>
</svg>
