<svg id="Capa_1" data-name="Capa 1" xmlns="http://www.w3.org/2000/svg" xmlns:xlink="http://www.w3.org/1999/xlink" width="50" height="50" viewBox="0 0 50 50">
  <defs>
    <clipPath id="clip-path">
      <polygon points="24.04 49.76 1.25 39.47 1.41 9.17 24.2 19.46 24.04 49.76" fill="none"/>
    </clipPath>
    <clipPath id="clip-path-2">
      <polygon points="24.2 19.46 1.41 9.17 25.96 0.24 48.74 10.53 24.2 19.46" fill="none"/>
    </clipPath>
    <clipPath id="clip-path-3">
      <polygon points="48.74 10.53 48.59 40.83 24.04 49.76 24.2 19.46 48.74 10.53" fill="none"/>
    </clipPath>
  </defs>
  <g id="Figment_lido">
    <g style="isolation: isolate">
      <g>
        <polygon points="24.04 49.76 1.25 39.47 1.41 9.17 24.2 19.46 24.04 49.76" fill="#d6d6d6"/>
        <g style="isolation: isolate">
          <g clip-path="url(#clip-path)">
            <g>
              <polyline points="18.14 35.3 12.45 41.74 19.51 39.12 18.14 35.3" fill="#07919b"/>
              <path d="M7,30.25H7L9,31.18l-2-.93M12.63,20,7.9,28.55,8.75,27l1.67,4.8,7.72,3.48L12.63,20" fill="aqua"/>
              <polyline points="6.96 30.25 5.56 32.8 12.43 41.74 6.96 30.25" fill="aqua"/>
              <polyline points="6.96 30.25 12.43 41.74 12.44 41.75 12.45 41.74 18.14 35.3 10.41 31.81 10.42 31.82 9.01 31.18 6.96 30.25" fill="#00c1c1"/>
              <polyline points="8.75 27.01 7.9 28.55 6.96 30.25 6.97 30.25 9.01 31.18 10.42 31.82 10.41 31.81 8.75 27.01" fill="#fff"/>
              <path d="M16.12,22.27s0,0-.07.05A3.46,3.46,0,0,0,16,25.1a3.84,3.84,0,0,0,1.84,2.37l.28.09c1.49.41,2.3-1.56,1.51-3.64a.29.29,0,0,0-.08-.13h-.07l-1.52.52h-.11a.31.31,0,0,1-.1-.1c-.51-.63-1-1.25-1.52-1.89l-.07-.06" fill="#00a2fd"/>
              <path d="M17.76,23.09,16.86,22l0-.13,1-1.59,0,0,.06.12.81,2.1a1.55,1.55,0,0,1,.12.37c0,.08-.14.08-.22.1l-.71.24-.13,0m.08-3.74c-.5.82-1,1.62-1.46,2.42l0,.15,1.33,1.67.13.06c.45-.16.89-.32,1.33-.46.07,0,.08-.05,0-.16-.18-.46-.36-.92-.53-1.38l-.88-2.3" fill="#009ff9"/>
            </g>
          </g>
        </g>
      </g>
      <g>
        <polygon points="24.2 19.46 1.41 9.17 25.96 0.24 48.74 10.53 24.2 19.46" fill="#ebebeb"/>
        <g style="isolation: isolate">
          <g clip-path="url(#clip-path-2)">
            <g>
              <polyline points="33.55 8.79 33.93 14.05 37.43 9.3 33.55 8.79" fill="#07919b"/>
              <path d="M21.23,13.27h0l2.25-.81-2.25.81M18,6.77l2.7,5.43-.48-1,4.82.67,8.52-3.1L18,6.77" fill="aqua"/>
              <polyline points="21.23 13.27 22.03 14.89 33.92 14.05 21.23 13.27" fill="aqua"/>
              <polyline points="21.23 13.27 33.92 14.05 33.93 14.05 33.93 14.05 33.55 8.79 25.03 11.89 25.04 11.89 23.48 12.46 21.23 13.27" fill="#00c1c1"/>
              <polyline points="20.21 11.22 20.69 12.2 21.22 13.27 21.23 13.27 23.48 12.46 25.04 11.89 25.03 11.89 20.21 11.22" fill="#fff"/>
              <path d="M22.38,5.61s0,0,0,.06c.23.46.89.8,2,1a6.84,6.84,0,0,0,3.16-.23l.29-.13c1.45-.68.62-1.78-1.53-2h-.15l-.06,0-.77,1-.09.06-.15,0-2.56.2-.1,0" fill="#00a2fd"/>
              <path d="M24.24,5l-1.52.12-.12,0c-.15-.35-.3-.7-.44-1V4h.14l2.17.25a1.49,1.49,0,0,1,.37,0s-.05.1-.1.15-.24.32-.37.47L24.24,5m-2.7-1.27c.22.54.45,1.06.67,1.59l.14,0,2.25-.18.15-.05c.22-.3.45-.59.68-.88,0,0,0-.06-.08-.08L23.92,4l-2.38-.27" fill="#009ff9"/>
            </g>
          </g>
        </g>
      </g>
      <g>
        <polygon points="48.74 10.53 48.59 40.83 24.04 49.76 24.2 19.46 48.74 10.53" fill="#f0f0f0"/>
        <g style="isolation: isolate">
          <g clip-path="url(#clip-path-3)">
            <g>
              <polyline points="42.36 31.35 36.08 42.61 43.87 33.99 42.36 31.35" fill="#07919b"/>
              <path d="M30.05,35.81h0L32.29,35l-2.24.8m6.24-15L31.07,33.34l1-2.27,1.82,3.37,8.52-3.09L36.29,20.76" fill="aqua"/>
              <polyline points="30.04 35.82 28.49 39.56 36.07 42.61 30.04 35.82" fill="aqua"/>
              <polyline points="30.04 35.82 36.07 42.61 36.07 42.62 36.08 42.61 42.36 31.35 33.84 34.44 33.85 34.45 32.29 35.01 30.04 35.82" fill="#00c1c1"/>
              <polyline points="32.02 31.07 31.07 33.34 30.04 35.82 30.05 35.81 32.29 35.01 33.85 34.45 33.84 34.44 32.02 31.07" fill="#fff"/>
              <path d="M40.14,20.09s0,0-.08.11A3.41,3.41,0,0,0,40,23.05a1.52,1.52,0,0,0,2,.8l.31-.15c1.64-.85,2.54-3.51,1.66-4.91,0,0-.05-.07-.08-.05s0,0-.08.06l-1.67,1.81a.47.47,0,0,1-.12.09.17.17,0,0,1-.12,0c-.56-.19-1.11-.39-1.67-.6,0,0-.05,0-.07,0" fill="#00a2fd"/>
              <path d="M41.94,19.52l-1-.36,0-.11L42,16.65l0-.07.06.08c.31.46.6.93.89,1.4.06.08.15.17.14.26s-.15.19-.24.28l-.78.85-.15.07M42,15.73C41.48,17,41,18.17,40.42,19.37l0,.12,1.47.53.15-.05c.49-.53,1-1.07,1.46-1.59.08-.07.09-.11,0-.18L43,17.28l-1-1.55" fill="#009ff9"/>
            </g>
          </g>
        </g>
      </g>
    </g>
  </g>
</svg>
