<svg id="Capa_1" data-name="Capa 1" xmlns="http://www.w3.org/2000/svg" xmlns:xlink="http://www.w3.org/1999/xlink" width="50" height="50" viewBox="0 0 50 50">
  <defs>
    <clipPath id="clip-path">
      <polygon points="24.05 49.76 1.26 39.47 1.42 9.18 24.2 19.47 24.05 49.76" fill="none"/>
    </clipPath>
    <clipPath id="clip-path-2">
      <polygon points="24.2 19.47 1.42 9.18 25.96 0.24 48.75 10.53 24.2 19.47" fill="none"/>
    </clipPath>
    <clipPath id="clip-path-3">
      <polygon points="48.75 10.53 48.59 40.83 24.05 49.76 24.2 19.47 48.75 10.53" fill="none"/>
    </clipPath>
  </defs>
  <g id="Figment_lido">
    <g style="isolation: isolate">
      <g>
        <polygon points="24.05 49.76 1.26 39.47 1.42 9.18 24.2 19.47 24.05 49.76" fill="#d6d6d6"/>
        <g style="isolation: isolate">
          <g clip-path="url(#clip-path)">
            <g>
              <path d="M3,29.37a14.83,14.83,0,0,1,.45-1.88c.16-.69.36-1.35.52-2,0-.2.14-.2.25-.15l.1.05,0,0,.07,0,.09,0c.09,0,.17.12.22.34.3,1.51.61,3,.91,4.55a.62.62,0,0,1,0,.2l-.25-.09-.15-.05c-.23-.1-.37-.32-.4-.72a.62.62,0,0,0-.4-.61L4.33,29c-.33-.15-.54-.1-.63.42,0,.21-.13.22-.24.17L3.3,29.5l-.16-.09a.34.34,0,0,0-.16,0m6.69.35a3.93,3.93,0,0,0,.35-1c.18-.51.22-.65.5-.52a2.55,2.55,0,0,1,.42.24c-.17.47-.31,1-.51,1.39a5.08,5.08,0,0,0-.4,2.45c0,.25-.06.28-.17.23l-.11-.07,0,0-.12,0-.12,0c-.09,0-.16-.13-.13-.35a12.45,12.45,0,0,0-.76-4.18c0-.12-.05-.24-.08-.36v-.14l.4.14c.3.14.34.32.49,1,.09.41.19.81.29,1.28m-3.6-3.55.17,0a.49.49,0,0,1,.17.06.56.56,0,0,1,.31.42c.23.85.47,1.7.71,2.55a.87.87,0,0,0,.17.33c0-.78,0-1.55,0-2.35,0-.45.18-.3.38-.22l.07,0c.18.08.26.2.25.51,0,1.24,0,2.48,0,3.71,0,.15.1.5-.11.4h0c-.11-.05-.23-.05-.35-.1a.6.6,0,0,1-.29-.42c-.25-.87-.5-1.76-.76-2.63a.5.5,0,0,0-.14-.31c0,.81,0,1.58,0,2.37,0,.43-.14.35-.36.25s-.37-.15-.36-.57c0-1.22,0-2.47,0-3.7,0-.16-.09-.49.12-.4h0M2.6,22c-.26-.12-.33,0-.33.32q0,4.37,0,8.72c0,.41.06.55.36.69h0l4.47,2,4.47,2,.08-.06.05-9.52-.08-.13-4.49-2L2.62,22h0" fill="#2da9e0"/>
              <path d="M11.59,26.07l.08.13,7.92,3.57v-.08l-8-3.62" fill="#414a57"/>
              <path d="M11.62,35.72l-.08.06,7,3.17,3.12,1.39v0s0,0,0,0l-10-4.55" fill="#414a57"/>
              <path d="M21.77,33.68l-.08,0,0,6.62v.07c.12-.08.07-.29.07-.46,0-2.06,0-4.13,0-6.2" fill="#3b3d40"/>
              <path d="M16.08,35.26a.41.41,0,0,1-.11-.07A1.73,1.73,0,0,1,15.26,34a4.51,4.51,0,0,1,0-1,2.14,2.14,0,0,1,.1-.8c.14-.36.38-.5.73-.37l.05,0a1.39,1.39,0,0,1,.74,1,3.66,3.66,0,0,1,0,2.13.51.51,0,0,1-.75.31m2.07.93,0,0a1.56,1.56,0,0,1-.76-1.22,8.44,8.44,0,0,1,0-.87c0-.26,0-.54.05-.78.09-.5.41-.67.82-.49h0a1.44,1.44,0,0,1,.74,1.09c0,.15.1.38,0,.4h-.07c-.1-.05-.1-.25-.12-.37a.9.9,0,0,0-.52-.77h0c-.29-.13-.49,0-.55.34a4.3,4.3,0,0,0,0,1.6,1,1,0,0,0,.54.79c.25.11.46.1.53-.25,0-.09,0-.26.13-.22l.05,0c.16.15.08.3,0,.42a.5.5,0,0,1-.75.34m-5.7-2.65h0c-.18-.09-.1-.26-.1-.38,0-1.32,0-2.64,0-3.94,0-.12-.07-.36.1-.3h0c.17.08.1.26.1.37,0,.46,0,.92,0,1.43.15,0,.2-.21.33-.22a.51.51,0,0,1,.32.05,1.46,1.46,0,0,1,.69,1.07,5.79,5.79,0,0,1,0,1.76c0,.38-.18.66-.52.62a.86.86,0,0,1-.23-.06,1.33,1.33,0,0,1-.59-.7c-.07.11,0,.38-.14.3m7,3.17c-.13-.06-.1-.2-.1-.31,0-1.36,0-2.73,0-4.09,0-.11,0-.28.11-.22h0c.14.08.1.22.1.34,0,.84,0,1.67,0,2.59.47-.29.65-1,1.18-1l.07.12a5.81,5.81,0,0,1-.63.75c-.19.16-.15.36,0,.67.25.59.47,1.18.71,1.78a.24.24,0,0,1-.15,0c-.1,0-.16-.15-.22-.3-.15-.42-.32-.84-.49-1.25,0-.13-.1-.36-.19-.4h0c-.12,0-.24.12-.24.37s0,.51,0,.76,0,.29-.11.24h0m-4.9-2.21c-.16-.07-.11-.23-.11-.35,0-.66,0-1.33,0-2s0-1.36,0-2c0-.11-.05-.3.1-.25h0c.13.06.14.19.14.35l0,4.09c0,.12,0,.25-.13.2h0m5-4.73L11.67,26.2l-.05,9.52,10,4.55h0l0-6.62h0a3.83,3.83,0,0,1-1.83-2.36,4.27,4.27,0,0,1-.24-1.51" fill="#142844"/>
              <path d="M6.41,26.28a.49.49,0,0,0-.17-.06l-.17,0H6c-.21-.09-.12.24-.12.4,0,1.23,0,2.48,0,3.7,0,.42.14.47.36.57s.37.18.36-.25c0-.79,0-1.56,0-2.37a.5.5,0,0,1,.14.31c.26.87.51,1.76.76,2.63a.6.6,0,0,0,.29.42c.12.05.24.05.35.1h0c.21.1.11-.25.11-.4,0-1.23,0-2.47,0-3.71,0-.31-.07-.43-.25-.51L8,27c-.2-.08-.39-.23-.38.22,0,.8,0,1.57,0,2.35a.87.87,0,0,1-.17-.33c-.24-.85-.48-1.7-.71-2.55a.56.56,0,0,0-.31-.42" fill="#fefefe"/>
              <path d="M4,28.08l.27-1.35h.06c.08.52.17,1,.27,1.61L4,28.08M4.2,25.3c-.11-.05-.2-.05-.25.15-.16.69-.36,1.35-.52,2A14.83,14.83,0,0,0,3,29.37a.34.34,0,0,1,.16,0l.16.09.16.09c.11.05.2,0,.24-.17.09-.52.3-.57.63-.42l.13.06a.62.62,0,0,1,.4.61c0,.4.17.62.4.72l.15.05.25.09a.62.62,0,0,0,0-.2c-.3-1.52-.61-3-.91-4.55-.05-.22-.13-.3-.22-.34l-.09,0-.07,0,0,0-.1-.05" fill="#fefefe"/>
              <path d="M10.52,28.15c-.28-.13-.32,0-.5.52a3.93,3.93,0,0,1-.35,1c-.1-.47-.2-.87-.29-1.28-.15-.71-.19-.89-.49-1l-.4-.14v.14c0,.12.05.24.08.36A12.45,12.45,0,0,1,9.34,32c0,.22,0,.3.13.35l.12,0,.12,0,0,0,.11.07c.11,0,.19,0,.17-.23a5.08,5.08,0,0,1,.4-2.45c.2-.42.34-.92.51-1.39a2.55,2.55,0,0,0-.42-.24" fill="#fefefe"/>
              <path d="M13.17,33.61l-.11-.06a1.15,1.15,0,0,1-.5-1c0-.21,0-.41,0-.62a4.12,4.12,0,0,1,0-.61c0-.36.18-.61.5-.51l.11,0a1,1,0,0,1,.51.8,4.27,4.27,0,0,1,0,1.6c-.08.33-.25.43-.5.32m-.7-4.69h0c-.17-.06-.1.18-.1.3,0,1.3,0,2.62,0,3.94,0,.12-.08.29.1.38h0c.18.08.07-.19.14-.3a1.33,1.33,0,0,0,.59.7.86.86,0,0,0,.23.06c.34,0,.47-.24.52-.62a5.79,5.79,0,0,0,0-1.76,1.46,1.46,0,0,0-.69-1.07.51.51,0,0,0-.32-.05c-.13,0-.18.18-.33.22,0-.51,0-1,0-1.43,0-.11.07-.29-.1-.37" fill="#fdfdfd"/>
              <path d="M16.07,34.92a1.11,1.11,0,0,1-.57-.9,4.5,4.5,0,0,1,0-1.42c.07-.37.24-.54.56-.42h0a1.11,1.11,0,0,1,.57.86,3,3,0,0,1,.05.78,3.49,3.49,0,0,1-.05.73c-.09.38-.28.49-.58.36m0-3.06-.05,0c-.35-.13-.59,0-.73.37a2.14,2.14,0,0,0-.1.8,4.51,4.51,0,0,0,0,1A1.73,1.73,0,0,0,16,35.19a.41.41,0,0,0,.11.07.51.51,0,0,0,.75-.31,3.66,3.66,0,0,0,0-2.13,1.39,1.39,0,0,0-.74-1" fill="#fbfbfc"/>
              <path d="M19.49,32.09c-.13-.06-.11.11-.11.22,0,1.36,0,2.73,0,4.09,0,.11,0,.25.1.31h0c.15.05.11-.13.11-.24s0-.51,0-.76.12-.36.24-.37h0c.09,0,.14.27.19.4.17.41.34.83.49,1.25.06.15.12.26.22.3a.24.24,0,0,0,.15,0c-.24-.6-.46-1.19-.71-1.78-.14-.31-.18-.51,0-.67a5.81,5.81,0,0,0,.63-.75L20.78,34c-.53,0-.71.75-1.18,1,0-.92,0-1.75,0-2.59,0-.12,0-.26-.1-.34h0" fill="#fdfdfd"/>
              <path d="M18.18,32.8h0c-.41-.18-.73,0-.82.49,0,.24,0,.52-.05.78a8.44,8.44,0,0,0,0,.87,1.56,1.56,0,0,0,.76,1.22l0,0a.5.5,0,0,0,.75-.34c0-.12.12-.27,0-.42l-.05,0c-.1,0-.11.13-.13.22-.07.35-.28.36-.53.25a1,1,0,0,1-.54-.79,4.3,4.3,0,0,1,0-1.6c.06-.37.26-.47.55-.34h0a.9.9,0,0,1,.52.77c0,.12,0,.32.12.37h.07c.14,0,.07-.25,0-.4a1.44,1.44,0,0,0-.74-1.09" fill="#fbfbfb"/>
              <path d="M14.6,29.87h0c-.15-.05-.1.14-.1.25,0,.68,0,1.36,0,2s0,1.34,0,2c0,.12,0,.28.11.35h0c.14.05.13-.08.13-.2l0-4.09c0-.16,0-.29-.14-.35" fill="#f3f4f5"/>
              <path d="M4.36,26.74H4.3L4,28.08l.6.27c-.1-.58-.19-1.09-.27-1.61" fill="#31abe1"/>
              <path d="M13.18,30.89l-.11,0c-.32-.1-.45.15-.5.51a4.12,4.12,0,0,0,0,.61c0,.21,0,.41,0,.62a1.15,1.15,0,0,0,.5,1l.11.06c.25.11.42,0,.5-.32a4.27,4.27,0,0,0,0-1.6,1,1,0,0,0-.51-.8" fill="#142844"/>
              <path d="M16.08,32.19h0c-.32-.12-.49,0-.56.42a4.5,4.5,0,0,0,0,1.42,1.11,1.11,0,0,0,.57.9c.3.13.49,0,.58-.36a3.49,3.49,0,0,0,.05-.73,3,3,0,0,0-.05-.78,1.11,1.11,0,0,0-.57-.86" fill="#152844"/>
              <path d="M20,28.45s0,0-.07,0a2.82,2.82,0,0,0-.33,1.2v.08a4.27,4.27,0,0,0,.24,1.51,3.83,3.83,0,0,0,1.83,2.36h0l.08,0,.17,0c1.49.42,2.3-1.55,1.51-3.63,0-.07-.05-.11-.08-.12a.08.08,0,0,0-.07,0l-1.51.52a.24.24,0,0,1-.12,0,.46.46,0,0,1-.1-.1l-1.51-1.89s0-.06-.07-.06" fill="#00a2fd"/>
              <path d="M21.68,29.32l-.06-.05c-.29-.38-.59-.75-.89-1.12,0,0-.06-.09,0-.14l1-1.58,0-.05a.42.42,0,0,1,.07.13l.8,2.1c.05.12.14.29.12.36s-.14.08-.21.1l-.71.25h-.08m0-3.77L20.25,28c0,.06,0,.1,0,.15.45.55.89,1.11,1.33,1.66l.07.06h.07c.44-.16.88-.31,1.33-.45.07,0,.07-.06,0-.17l-.53-1.37-.88-2.29" fill="#009ff9"/>
            </g>
          </g>
        </g>
      </g>
      <g>
        <polygon points="24.2 19.47 1.42 9.18 25.96 0.24 48.75 10.53 24.2 19.47" fill="#ebebeb"/>
        <g style="isolation: isolate">
          <g clip-path="url(#clip-path-2)">
            <g>
              <path d="M18.62,15.51a8.64,8.64,0,0,1-1-.85c-.38-.31-.71-.63-1.09-.95-.11-.09,0-.14.08-.18l.11,0,.06,0,.08,0,.08,0a.64.64,0,0,1,.42,0l4,1,.16,0a2.26,2.26,0,0,0-.26.11.94.94,0,0,1-.15.06,1.14,1.14,0,0,1-.83,0,1,1,0,0,0-.74,0l-.15.05c-.36.13-.48.26-.17.47.13.09.06.15-.06.19l-.18.06-.19,0-.15.08M23.94,12c-.06-.21-.35-.36-.51-.53s-.3-.33,0-.44l.5-.15a8.42,8.42,0,0,1,.63.73,2.93,2.93,0,0,0,1.48,1c.19.07.15.12,0,.16l-.14,0h0l-.12.06-.12,0a.35.35,0,0,1-.35,0,13.24,13.24,0,0,0-3.62-1l-.32-.06-.11-.05a4.1,4.1,0,0,1,.4-.16c.33-.13.49-.09,1.13.06l1.15.26m-5.31.8.16-.08.17-.07a1,1,0,0,1,.55,0l2.38.44a1.47,1.47,0,0,0,.38,0c-.56-.26-1.11-.52-1.71-.77-.33-.14-.08-.19.12-.27a.13.13,0,0,1,.08,0,.62.62,0,0,1,.56,0L24,13.26c.11.05.44.1.21.19h0c-.12,0-.21.11-.34.15a.93.93,0,0,1-.52,0l-2.49-.45a1,1,0,0,0-.33,0c.58.27,1.13.53,1.72.77.32.13.15.19-.09.28a.74.74,0,0,1-.68,0L18.79,13c-.11-.05-.43-.11-.2-.19h0M13,13.33c-.29.1-.27.16,0,.28,2.12,1,4.23,1.9,6.31,2.85a.81.81,0,0,0,.77,0h0l4.84-1.76L29.76,13l0-.06-6.9-3.12h-.15l-4.86,1.77L13,13.32h0" fill="#2da9e0"/>
              <path d="M22.73,9.78h.15l8.59-3.13,0,0L22.73,9.78" fill="#414a57"/>
              <path d="M29.78,12.89l0,.06,7.61-2.76L40.74,9h-.06l-10.9,4" fill="#414a57"/>
              <path d="M36,6.73l-.07,0,4.79,2.17h.06c0-.09-.16-.13-.28-.19l-4.5-2" fill="#3b3d40"/>
              <path d="M32.82,10.32l-.14,0a2.73,2.73,0,0,1-1.39,0,5.49,5.49,0,0,1-.77-.3A1.46,1.46,0,0,1,30,9.75c-.15-.19-.08-.37.29-.51l.05,0a2.3,2.3,0,0,1,1.26-.09,2.84,2.84,0,0,1,1.55.69c.16.19,0,.38-.34.5m2.24-.82-.06,0a2.5,2.5,0,0,1-1.46,0c-.24-.08-.44-.17-.67-.26A5,5,0,0,1,32.35,9c-.3-.22-.19-.44.25-.61h0A2.5,2.5,0,0,1,34,8.34c.13,0,.35.07.26.15a.09.09,0,0,1-.06,0c-.12.05-.26,0-.36,0a1.56,1.56,0,0,0-1,0h0c-.31.12-.39.25-.17.41a3.76,3.76,0,0,0,1.17.52,1.7,1.7,0,0,0,1,0c.27-.1.42-.22.23-.37s-.18-.1-.08-.14l.08,0a.31.31,0,0,1,.34.12c.19.17,0,.38-.33.51m-6.24,2.23h0a.34.34,0,0,1-.35-.07c-1-.42-1.92-.85-2.86-1.29-.08,0-.32-.07-.14-.14h0c.18-.06.25,0,.34.07l1,.46c.09-.09,0-.17.09-.25a1,1,0,0,1,.29-.15,2.27,2.27,0,0,1,1.3,0,4.31,4.31,0,0,1,1.29.56c.24.15.35.31.06.48l-.22.11a2.43,2.43,0,0,1-.95.09c0,.07.3.1.11.17M36.43,9a.36.36,0,0,1-.3,0l-3-1.34c-.08,0-.22-.08-.08-.13h0a.36.36,0,0,1,.32.06l1.88.84c.15-.34-.23-.67.13-1h.15a1.92,1.92,0,0,1,.07.58c0,.16.14.2.48.23.61.05,1.21.12,1.83.19a.36.36,0,0,1-.12.08,1.11,1.11,0,0,1-.38,0c-.42-.06-.86-.1-1.29-.14a1,1,0,0,0-.42,0l0,0c-.08.07-.1.17.09.25s.38.16.55.25.24.07.09.13h0M31.12,10.9a.36.36,0,0,1-.34-.05l-1.45-.65-1.48-.68c-.08,0-.25-.06-.1-.13h0a.44.44,0,0,1,.36,0l3,1.33c.09.05.19.09.05.14h0m.35-4.26L22.88,9.77l6.9,3.12,10.9-4h0L35.89,6.76l0,0A6.53,6.53,0,0,1,32.75,7a4.38,4.38,0,0,1-1.28-.36" fill="#142844"/>
              <path d="M19,12.65l-.17.07-.16.08h0c-.23.08.09.14.2.19l2.68,1.22a.74.74,0,0,0,.68,0c.24-.09.41-.15.09-.28-.59-.24-1.14-.5-1.72-.77a1,1,0,0,1,.33,0l2.49.45a.93.93,0,0,0,.52,0c.13,0,.22-.11.34-.15h0c.23-.09-.1-.14-.21-.19L21.32,12a.62.62,0,0,0-.56,0,.13.13,0,0,0-.08,0c-.2.08-.45.13-.12.27.6.25,1.15.51,1.71.77a1.47,1.47,0,0,1-.38,0l-2.38-.44a1,1,0,0,0-.55,0" fill="#fefefe"/>
              <path d="M18.48,14.52l-.78-.58.05,0,1.38.37-.65.24m-1.9-1c-.12,0-.19.09-.08.18.38.32.71.64,1.09.95a8.64,8.64,0,0,0,1,.85l.15-.08.19,0,.18-.06c.12,0,.19-.1.06-.19-.31-.21-.19-.34.17-.47l.15-.05a1,1,0,0,1,.74,0,1.14,1.14,0,0,0,.83,0,.94.94,0,0,0,.15-.06,2.26,2.26,0,0,1,.26-.11l-.16,0-4-1a.64.64,0,0,0-.42,0l-.08,0-.08,0-.06,0-.11,0" fill="#fefefe"/>
              <path d="M23.43,11c-.3.11-.23.18,0,.44s.45.32.51.53l-1.15-.26c-.64-.15-.8-.19-1.13-.06a4.1,4.1,0,0,0-.4.16l.11.05.32.06a13.24,13.24,0,0,1,3.62,1,.35.35,0,0,0,.35,0l.12,0,.12-.06h0l.14,0c.11,0,.15-.09,0-.16a2.93,2.93,0,0,1-1.48-1,8.42,8.42,0,0,0-.63-.73l-.5.15" fill="#fefefe"/>
              <path d="M29.42,11.36l-.13,0a1.77,1.77,0,0,1-1.07,0l-.46-.21a2.94,2.94,0,0,1-.44-.2c-.22-.14-.31-.29,0-.44l.11,0a1.59,1.59,0,0,1,1,0,3.34,3.34,0,0,1,1.15.53c.19.15.13.28-.14.37m-3.94-1.14h0c-.18.07.06.11.14.14.94.44,1.9.87,2.86,1.29a.34.34,0,0,0,.35.07h0c.19-.07-.09-.1-.11-.17a2.43,2.43,0,0,0,.95-.09l.22-.11c.29-.17.18-.33-.06-.48a4.31,4.31,0,0,0-1.29-.56,2.27,2.27,0,0,0-1.3,0,1,1,0,0,0-.29.15c-.08.08,0,.16-.09.25l-1-.46c-.09,0-.16-.13-.34-.07" fill="#fdfdfd"/>
              <path d="M32.56,10.22a1.73,1.73,0,0,1-1.08,0,3.19,3.19,0,0,1-1-.46c-.22-.15-.22-.3.11-.43h0a1.81,1.81,0,0,1,1.06,0,3,3,0,0,1,.6.22,2.51,2.51,0,0,1,.49.27c.21.17.15.31-.18.43m-2.21-1-.05,0c-.37.14-.44.32-.29.51a1.46,1.46,0,0,0,.51.32,5.49,5.49,0,0,0,.77.3,2.73,2.73,0,0,0,1.39,0l.14,0c.34-.12.5-.31.34-.5a2.84,2.84,0,0,0-1.55-.69,2.3,2.3,0,0,0-1.26.09" fill="#fbfbfc"/>
              <path d="M33.09,7.45c-.14,0,0,.09.08.13l3,1.34a.36.36,0,0,0,.3,0h0c.15-.06,0-.09-.09-.13s-.36-.17-.55-.25-.17-.18-.09-.25l0,0a1,1,0,0,1,.42,0c.43,0,.87.08,1.29.14a1.11,1.11,0,0,0,.38,0A.36.36,0,0,0,38,8.37c-.62-.07-1.22-.14-1.83-.19-.34,0-.5-.07-.48-.23a1.92,1.92,0,0,0-.07-.58h-.15c-.36.3,0,.63-.13,1L33.43,7.5a.36.36,0,0,0-.32-.06h0" fill="#fdfdfd"/>
              <path d="M32.61,8.39h0c-.44.17-.55.39-.25.61a5,5,0,0,0,.52.28c.23.09.43.18.67.26a2.5,2.5,0,0,0,1.46,0l.06,0c.38-.13.52-.34.33-.51a.31.31,0,0,0-.34-.12l-.08,0c-.1,0,0,.1.08.14s0,.27-.23.37a1.7,1.7,0,0,1-1,0,3.76,3.76,0,0,1-1.17-.52c-.22-.16-.14-.29.17-.41h0a1.56,1.56,0,0,1,1,0c.1,0,.24.1.36,0a.09.09,0,0,0,.06,0c.09-.08-.13-.12-.26-.15a2.5,2.5,0,0,0-1.36.05" fill="#fbfbfb"/>
              <path d="M27.77,9.38h0c-.15.07,0,.1.1.13l1.48.68,1.45.65a.36.36,0,0,0,.34.05h0c.14-.05,0-.09-.05-.14l-3-1.33a.44.44,0,0,0-.36,0" fill="#f3f4f5"/>
              <path d="M17.75,13.91l-.05,0,.78.58.65-.24-1.38-.37" fill="#31abe1"/>
              <path d="M27.44,10.48l-.11,0c-.32.15-.23.3,0,.44a2.94,2.94,0,0,0,.44.2l.46.21a1.77,1.77,0,0,0,1.07,0l.13,0c.27-.09.33-.22.14-.37a3.34,3.34,0,0,0-1.15-.53,1.59,1.59,0,0,0-1,0" fill="#142844"/>
              <path d="M30.59,9.33h0c-.33.13-.33.28-.11.43a3.19,3.19,0,0,0,1,.46,1.73,1.73,0,0,0,1.08,0c.33-.12.39-.26.18-.43a2.51,2.51,0,0,0-.49-.27,3,3,0,0,0-.6-.22,1.81,1.81,0,0,0-1.06,0" fill="#152844"/>
              <path d="M30.81,6s0,0,0,0a1.34,1.34,0,0,0,.62.57l0,0A4.38,4.38,0,0,0,32.75,7a6.53,6.53,0,0,0,3.11-.22l0,0,.07,0,.17-.07c1.44-.68.62-1.75-1.5-2h-.15l0,0-.76,1a.15.15,0,0,1-.09.06l-.15,0L30.91,6l-.1,0" fill="#00a2fd"/>
              <path d="M32.73,5.36l-.08,0-1.49.12c-.07,0-.12,0-.13,0l-.43-1v0h.15l2.13.25a1.33,1.33,0,0,1,.36,0c.05,0,0,.1-.09.15l-.35.46-.06,0M30,4.13l.65,1.56s.07,0,.13,0q1.11-.11,2.22-.18l.09,0,.06,0c.22-.29.44-.58.67-.86,0,0,0-.06-.09-.07l-1.4-.16L30,4.13" fill="#009ff9"/>
            </g>
          </g>
        </g>
      </g>
      <g>
        <polygon points="48.75 10.53 48.59 40.83 24.05 49.76 24.2 19.47 48.75 10.53" fill="#f0f0f0"/>
        <g style="isolation: isolate">
          <g clip-path="url(#clip-path-3)">
            <g>
              <path d="M26.34,39.06c.09-.75.32-1.44.46-2.13s.37-1.54.55-2.32a.42.42,0,0,1,.25-.35l.1,0,.06,0,.07,0,.09,0c.09,0,.18,0,.23.15.31,1.17.63,2.34,1,3.52,0,0,0,.1,0,.17a2.06,2.06,0,0,0-.26.12l-.16.07c-.23.09-.38,0-.41-.36s-.17-.32-.41-.24l-.14,0a1,1,0,0,0-.65.9.4.4,0,0,1-.25.35l-.17,0-.16.05a.42.42,0,0,0-.17.1m6.93-5a7,7,0,0,0,.36-1.27c.18-.61.23-.78.51-.88a3.48,3.48,0,0,1,.44-.11c-.17.58-.32,1.15-.53,1.71a6.35,6.35,0,0,0-.41,2.6c0,.22-.06.32-.17.36l-.12,0h0l-.12.07-.13.06c-.09,0-.16,0-.14-.22a6.49,6.49,0,0,0-.78-3.31l-.09-.26v-.13a3.73,3.73,0,0,1,.4-.18c.32-.12.36,0,.52.56.09.32.19.61.3,1m-3.73-.45.17-.08.18-.09a.22.22,0,0,1,.32.15c.24.61.49,1.21.74,1.82a.3.3,0,0,0,.17.18c0-.74,0-1.48,0-2.21,0-.41.18-.42.38-.51l.08,0c.18-.06.27,0,.26.28,0,1.18,0,2.33,0,3.5,0,.14.11.38-.12.46h0c-.12.05-.24.14-.36.19s-.23,0-.31-.15c-.25-.63-.52-1.25-.78-1.87,0-.06,0-.16-.15-.17,0,.76,0,1.5,0,2.22,0,.39-.15.44-.37.53s-.39.15-.37-.25c0-1.17,0-2.32,0-3.49,0-.15-.1-.39.12-.47h0M26,32.47c-.28.1-.35.23-.35.57q0,4.08,0,8.19c0,.38.06.46.37.35h0l4.63-1.69L35.2,38.2l.09-.11,0-9-.08-.05-4.64,1.69L26,32.46h0" fill="#2da9e0"/>
              <path d="M35.25,29.09l.08.05,8.2-3v-.08l-8.28,3" fill="#414a57"/>
              <path d="M35.29,38.09l-.09.11,7.25-2.63,3.23-1.19v0a0,0,0,0,0,0,0L35.29,38.09" fill="#414a57"/>
              <path d="M45.79,28.06l-.08,0,0,6.21v.07a.72.72,0,0,0,.07-.49c0-1.94,0-3.89,0-5.83" fill="#3b3d40"/>
              <path d="M39.91,34.08l-.12,0c-.4.07-.62-.14-.74-.54a3.88,3.88,0,0,1,0-.9,2.79,2.79,0,0,1,.1-.83,1.45,1.45,0,0,1,.76-.93l0,0a.54.54,0,0,1,.77.31,3.07,3.07,0,0,1,0,2,1.33,1.33,0,0,1-.77.88m2.14-.78-.06,0c-.41.12-.71-.07-.78-.54,0-.24,0-.52-.05-.78s0-.51.06-.77a1.4,1.4,0,0,1,.84-1.12h0a.55.55,0,0,1,.78.42c0,.12.1.28-.05.41l-.07,0c-.11,0-.1-.15-.12-.24-.07-.34-.27-.41-.54-.31h0a.92.92,0,0,0-.57.77,3.93,3.93,0,0,0,0,1.49c.07.33.29.4.57.3a.8.8,0,0,0,.55-.65c0-.11,0-.27.13-.31h.05c.17,0,.08.23,0,.36a1.33,1.33,0,0,1-.78.92m-5.9,2.08h0c-.18.06-.1-.16-.1-.27,0-1.24,0-2.47,0-3.71,0-.11-.08-.28.1-.35h0c.17-.06.1.16.1.27,0,.43,0,.86,0,1.34.15-.16.21-.36.34-.48a1.17,1.17,0,0,1,.33-.2c.33-.12.62,0,.72.45a4.93,4.93,0,0,1,0,1.63,1.36,1.36,0,0,1-.54,1l-.24.12a.52.52,0,0,1-.61-.18c-.07.16,0,.32-.14.39m7.25-2.64c-.13,0-.1-.1-.1-.21,0-1.28,0-2.56,0-3.84,0-.11,0-.24.11-.29h0c.15,0,.11.13.11.23,0,.79,0,1.58,0,2.43.48-.64.67-1.45,1.22-1.91l.07.06c-.21.4-.4.82-.65,1.2s-.16.46,0,.64c.26.35.49.73.74,1.1a.46.46,0,0,1-.16.11c-.09,0-.16,0-.21-.11-.17-.27-.34-.53-.52-.78-.05-.08-.1-.25-.19-.22s0,0,0,0a.71.71,0,0,0-.25.54c0,.23,0,.47,0,.71s0,.25-.11.31h0m-5.06,1.85c-.17.06-.12-.12-.12-.24V32.48c0-.64,0-1.28,0-1.93,0-.1-.05-.23.1-.31h0c.13-.05.14.07.14.21l0,3.84c0,.13,0,.25-.14.3h0m5.19-8.44-8.2,3,0,9,10.38-3.77h0l0-6.21h0a1.41,1.41,0,0,1-1.89-.74,2.5,2.5,0,0,1-.25-1.22" fill="#142844"/>
              <path d="M29.89,33.41l-.18.09-.17.08h0c-.22.08-.12.32-.12.47,0,1.17,0,2.32,0,3.49,0,.4.14.32.37.25s.38-.14.37-.53c0-.72,0-1.46,0-2.22.12,0,.12.11.15.17.26.62.53,1.24.78,1.87.08.18.19.19.31.15s.24-.14.36-.19h0c.23-.08.12-.32.12-.46,0-1.17,0-2.32,0-3.5,0-.3-.08-.34-.26-.28l-.08,0c-.2.09-.4.1-.38.51,0,.73,0,1.47,0,2.21a.3.3,0,0,1-.17-.18c-.25-.61-.5-1.21-.74-1.82a.22.22,0,0,0-.32-.15" fill="#fefefe"/>
              <path d="M27.43,37c.09-.5.19-1,.28-1.48l.06,0,.28,1.28-.62.23m.17-2.74a.42.42,0,0,0-.25.35c-.18.78-.38,1.55-.55,2.32s-.37,1.38-.46,2.13a.42.42,0,0,1,.17-.1l.16-.05.17,0a.4.4,0,0,0,.25-.35,1,1,0,0,1,.65-.9l.14,0c.24-.08.39-.07.41.24s.18.45.41.36l.16-.07a2.06,2.06,0,0,1,.26-.12c0-.07,0-.13,0-.17-.32-1.18-.64-2.35-1-3.52,0-.18-.14-.18-.23-.15l-.09,0-.07,0-.06,0-.1,0" fill="#fefefe"/>
              <path d="M34.14,31.88c-.28.1-.33.27-.51.88A7,7,0,0,1,33.27,34c-.11-.36-.21-.65-.3-1-.16-.54-.2-.68-.52-.56a3.73,3.73,0,0,0-.4.18v.13l.09.26a6.49,6.49,0,0,1,.78,3.31c0,.23,0,.25.14.22l.13-.06.12-.07h0l.12,0c.11,0,.19-.14.17-.36a6.35,6.35,0,0,1,.41-2.6c.21-.56.36-1.13.53-1.71a3.48,3.48,0,0,0-.44.11" fill="#fefefe"/>
              <path d="M36.9,34.87l-.12,0c-.31.06-.5-.1-.52-.49,0-.19,0-.39,0-.58a3.77,3.77,0,0,1,0-.58,1,1,0,0,1,.52-.88l.11,0c.27-.1.45,0,.53.34a3.67,3.67,0,0,1,0,1.51.89.89,0,0,1-.51.7M36.17,31h0c-.18.07-.1.24-.1.35,0,1.24,0,2.47,0,3.71,0,.11-.08.33.1.27h0c.18-.07.07-.23.14-.39a.52.52,0,0,0,.61.18l.24-.12a1.36,1.36,0,0,0,.54-1,4.93,4.93,0,0,0,0-1.63c-.1-.42-.39-.57-.72-.45a1.17,1.17,0,0,0-.33.2c-.13.12-.19.32-.34.48,0-.48,0-.91,0-1.34,0-.11.07-.33-.1-.27" fill="#fdfdfd"/>
              <path d="M39.89,33.78c-.32.11-.51,0-.58-.39a3.5,3.5,0,0,1,0-1.33,1,1,0,0,1,.57-.84h0c.3-.12.49,0,.59.34a3.12,3.12,0,0,1,0,.69,4.43,4.43,0,0,1,0,.72,1,1,0,0,1-.61.81m0-2.88,0,0a1.45,1.45,0,0,0-.76.93,2.79,2.79,0,0,0-.1.83,3.88,3.88,0,0,0,0,.9c.12.4.34.61.74.54l.12,0a1.33,1.33,0,0,0,.77-.88,3.07,3.07,0,0,0,0-2,.54.54,0,0,0-.77-.31" fill="#fbfbfc"/>
              <path d="M43.43,28.4c-.14.05-.11.18-.11.29,0,1.28,0,2.56,0,3.84,0,.11,0,.26.1.21h0c.15-.06.11-.2.11-.31s0-.48,0-.71a.71.71,0,0,1,.25-.54s0,0,0,0,.14.14.19.22c.18.25.35.51.52.78.05.1.12.14.21.11a.46.46,0,0,0,.16-.11c-.25-.37-.48-.75-.74-1.1-.14-.18-.17-.34,0-.64s.44-.8.65-1.2l-.07-.06c-.55.46-.74,1.27-1.22,1.91,0-.85,0-1.64,0-2.43,0-.1,0-.27-.11-.23h0" fill="#fdfdfd"/>
              <path d="M42.07,30.11h0a1.4,1.4,0,0,0-.84,1.12c0,.26,0,.51-.06.77s0,.54.05.78c.07.47.37.66.78.54l.06,0a1.33,1.33,0,0,0,.78-.92c0-.13.12-.35,0-.36h-.05c-.11,0-.11.2-.13.31a.8.8,0,0,1-.55.65c-.28.1-.5,0-.57-.3a3.93,3.93,0,0,1,0-1.49.92.92,0,0,1,.57-.77h0c.27-.1.47,0,.54.31,0,.09,0,.28.12.24l.07,0c.15-.13.07-.29.05-.41a.55.55,0,0,0-.78-.42" fill="#fbfbfb"/>
              <path d="M38.37,30.23h0c-.15.08-.1.21-.1.31,0,.65,0,1.29,0,1.93v1.87c0,.12,0,.3.12.24h0c.14,0,.14-.17.14-.3l0-3.84c0-.14,0-.26-.14-.21" fill="#f3f4f5"/>
              <path d="M27.77,35.49l-.06,0c-.09.49-.19,1-.28,1.48l.62-.23-.28-1.28" fill="#31abe1"/>
              <path d="M36.9,32.32l-.11,0a1,1,0,0,0-.52.88,3.77,3.77,0,0,0,0,.58c0,.19,0,.39,0,.58,0,.39.21.55.52.49l.12,0a.89.89,0,0,0,.51-.7,3.67,3.67,0,0,0,0-1.51c-.08-.35-.26-.44-.53-.34" fill="#142844"/>
              <path d="M39.91,31.22h0a1,1,0,0,0-.57.84,3.5,3.5,0,0,0,0,1.33c.07.35.26.5.58.39A1,1,0,0,0,40.5,33a4.43,4.43,0,0,0,0-.72,3.12,3.12,0,0,0,0-.69c-.1-.32-.29-.46-.59-.34" fill="#152844"/>
              <path d="M44,24.59s-.05,0-.07.1a4.25,4.25,0,0,0-.35,1.38v.08a2.5,2.5,0,0,0,.25,1.22,1.41,1.41,0,0,0,1.89.74h0l.08,0L46,28c1.54-.8,2.38-3.29,1.55-4.6,0,0,0-.06-.07-.05s-.05,0-.08.06l-1.56,1.69a.24.24,0,0,1-.12.09.2.2,0,0,1-.11,0L44,24.59a.08.08,0,0,0-.07,0" fill="#00a2fd"/>
              <path d="M45.7,24.05h-.06l-.93-.33s-.07,0,0-.11l1-2.24,0-.07s0,0,.07.07l.83,1.32c0,.07.14.15.12.24s-.14.18-.22.27c-.24.26-.49.52-.73.79l-.08.06m0-3.54-1.5,3.4c0,.09,0,.11,0,.12l1.38.49a.09.09,0,0,0,.07,0s0,0,.07-.05L47.14,23c.07-.08.08-.11,0-.18-.19-.28-.37-.57-.55-.86l-.91-1.44" fill="#009ff9"/>
            </g>
          </g>
        </g>
      </g>
    </g>
  </g>
</svg>
