<svg id="Capa_1" data-name="Capa 1" xmlns="http://www.w3.org/2000/svg" xmlns:xlink="http://www.w3.org/1999/xlink" width="50" height="50" viewBox="0 0 50 50">
  <defs>
    <clipPath id="clip-path">
      <polygon points="24.04 49.76 1.25 39.47 1.41 9.18 24.2 19.47 24.04 49.76" fill="none"/>
    </clipPath>
    <clipPath id="clip-path-2">
      <polygon points="24.2 19.47 1.41 9.18 25.96 0.24 48.75 10.53 24.2 19.47" fill="none"/>
    </clipPath>
    <clipPath id="clip-path-3">
      <polygon points="48.75 10.53 48.59 40.82 24.04 49.76 24.2 19.47 48.75 10.53" fill="none"/>
    </clipPath>
  </defs>
  <g id="Figment_lido">
    <g style="isolation: isolate">
      <g>
        <polygon points="24.04 49.76 1.25 39.47 1.41 9.18 24.2 19.47 24.04 49.76" fill="#d6d6d6"/>
        <g style="isolation: isolate">
          <g clip-path="url(#clip-path)">
            <g>
              <path d="M15.68,31.2h0m-.26-9.08L6.27,17.91c-.36-.17-.36-.17-.37.31q-.08,8-.16,16c0,.37.07.51.34.64,2.15,1,4.29,2,6.44,2.94,1.81.84,3.63,1.67,5.44,2.52.19.08.3.09.3-.23,0-2.44,0-4.88.06-7.31,0-.22,0-.34-.22-.43-.81-.35-1.62-.74-2.42-1.1l0,.4c0,1.22,0,2.43,0,3.66,0,.37-.08.45-.35.33Q12,34.06,8.72,32.54c-.35-.17-.35-.17-.35-.67L8.46,23c0-.55,0-.55.42-.36l4.36,2,2.18,1c.24.11.33.06.32-.29,0-.86,0-1.71,0-2.56,0-.48,0-.48-.35-.64" fill="#0d52ff"/>
              <path d="M17,26.44,15.93,26a.39.39,0,0,0-.34.1c-1,1-1.94,1.95-2.92,2.92l-.52.55L15.38,31a2.61,2.61,0,0,1,.3.2h0l.18-.24,2.66-2.67.75-.77-.11-.09-2.16-1" fill="#0d52ff"/>
            </g>
          </g>
        </g>
      </g>
      <g>
        <polygon points="24.2 19.47 1.41 9.18 25.96 0.24 48.75 10.53 24.2 19.47" fill="#ebebeb"/>
        <g style="isolation: isolate">
          <g clip-path="url(#clip-path-2)">
            <g>
              <path d="M29.59,8.39h0M22.36,5.45,11.88,9.26c-.41.15-.41.15-.05.32L24.05,15.1a.85.85,0,0,0,.76,0l7.36-2.69,6.24-2.26c.21-.08.3-.13.06-.25-1.88-.83-3.74-1.68-5.61-2.52a.62.62,0,0,0-.5,0l-2.76,1,.34.11c.94.41,1.86.84,2.8,1.26.3.12.3.19,0,.31q-3.81,1.37-7.59,2.75c-.42.15-.42.15-.8,0L17.52,9.73c-.42-.19-.42-.19.05-.37l5-1.82,2.5-.9c.28-.1.31-.17,0-.29-.67-.28-1.3-.59-1.95-.88a.69.69,0,0,0-.78,0" fill="#0d52ff"/>
              <path d="M27,6l-1.23.45a.29.29,0,0,0-.19.22c0,.89,0,1.78-.05,2.67,0,.15,0,.3,0,.48L29.19,8.5c.12-.05.28-.07.4-.11h0l0-.19c0-.81,0-1.62,0-2.43V5.09l-.16,0L27,6" fill="#0d52ff"/>
            </g>
          </g>
        </g>
      </g>
      <g>
        <polygon points="48.75 10.53 48.59 40.82 24.04 49.76 24.2 19.47 48.75 10.53" fill="#f0f0f0"/>
        <g style="isolation: isolate">
          <g clip-path="url(#clip-path-3)">
            <g>
              <path d="M40.67,29.44h0m-.34-9.23L29.75,24.06c-.41.15-.41.15-.41.65q0,8.37-.1,16.77c0,.39.08.46.4.35,2.47-.92,5-1.82,7.43-2.72l6.28-2.27a.44.44,0,0,0,.34-.5l0-7.68c0-.23,0-.32-.26-.24-.92.35-1.86.68-2.79,1l0,.37c0,1.28,0,2.56,0,3.84,0,.38-.08.54-.39.65l-7.65,2.77c-.42.15-.42.15-.41-.37l.05-9.36c0-.58,0-.58.48-.76l5-1.84,2.51-.9c.28-.11.38-.24.37-.6,0-.88,0-1.79,0-2.68,0-.51,0-.51-.4-.36" fill="#0d52ff"/>
              <path d="M42.17,23.29l-1.24.46a1.05,1.05,0,0,0-.38.4c-1.13,1.88-2.24,3.78-3.36,5.67l-.59,1,3.72-1.35a1.51,1.51,0,0,1,.35-.06h0l.21-.41c1-1.73,2-3.44,3-5.17.29-.48.57-1,.87-1.48h-.13l-2.49.9" fill="#0d52ff"/>
            </g>
          </g>
        </g>
      </g>
    </g>
  </g>
</svg>
