<svg id="Capa_1" data-name="Capa 1" xmlns="http://www.w3.org/2000/svg" xmlns:xlink="http://www.w3.org/1999/xlink" width="50" height="50" viewBox="0 0 50 50">
  <defs>
    <clipPath id="clip-path">
      <polygon points="24.04 49.76 1.26 39.47 1.42 9.17 24.2 19.46 24.04 49.76" fill="none"/>
    </clipPath>
    <clipPath id="clip-path-2">
      <polygon points="24.2 19.46 1.42 9.17 25.96 0.24 48.75 10.53 24.2 19.46" fill="none"/>
    </clipPath>
    <clipPath id="clip-path-3">
      <polygon points="48.75 10.53 48.59 40.82 24.04 49.76 24.2 19.46 48.75 10.53" fill="none"/>
    </clipPath>
  </defs>
  <g id="Figment_lido">
    <g style="isolation: isolate">
      <g>
        <polygon points="24.04 49.76 1.26 39.47 1.42 9.17 24.2 19.46 24.04 49.76" fill="#353535"/>
        <g style="isolation: isolate">
          <g clip-path="url(#clip-path)">
            <path d="M9.5,29.31q.95.44,1.89.84h0a1.29,1.29,0,0,1,.7.88c.72,2.05,1.44,4.1,2.18,6.15a7.88,7.88,0,0,0,.54,1L9.68,35.92c.32-.62.63-1.22,1-1.81l.52-1A1.06,1.06,0,0,0,11,31.9a.82.82,0,0,0-.26-.22c-.19-.08-.37,0-.52.29-.51,1-1,2-1.55,2.93a.44.44,0,0,1,0,.09h0a11.39,11.39,0,0,0-.31-1.32c-.61-1.75-1.23-3.51-1.85-5.26l-.18-.53.35.16L9.5,29.31m6,8.55c-.6-1.71-1.17-3.32-1.75-4.94-.27-.78-.54-1.55-.82-2.32a1.1,1.1,0,0,1,0-.91l2.71-5.13,0,0s0,0,0,0c.1.42.17.89.32,1.33.62,1.8,1.26,3.58,1.9,5.38l.11.4-.88-.4-1-.47-1-.46c-.4-.17-.62,0-.63.43a1.07,1.07,0,0,0,.63,1l1.18.54,1.06.46a3.68,3.68,0,0,0,.86.14c-.84,1.6-1.71,3.23-2.6,4.93M10.8,26.62a.34.34,0,0,0,.24,0c.24-.08.36-.44.23-.84-.43-1.24-.87-2.47-1.32-3.7a5,5,0,0,0-.49-.8l5.19,2.32c-.26.5-.5,1-.75,1.43-.6,1.14-1.21,2.28-1.81,3.43a.45.45,0,0,1-.68.23h0l-2.28-1-1.89-.86a1.3,1.3,0,0,0-1.07-.14l2.64-5c.49,1.4,1,2.73,1.44,4.06,0,.1.07.2.11.31a1,1,0,0,0,.45.54M15,22.31h0l-1.34-.59-1.33-.6-1.34-.6-1.34-.6h0a1.13,1.13,0,0,0-1.65.57Q6.56,23.07,5.2,25.66a2.4,2.4,0,0,0,0,1.94q1.37,3.9,2.75,7.79a3.1,3.1,0,0,0,1.58,1.92l2.72,1.21,2.71,1.23h0a.89.89,0,0,0,1.3-.43c.92-1.74,1.84-3.47,2.75-5.21a3.12,3.12,0,0,0,0-2.55c-.89-2.51-1.78-5-2.66-7.53A2.71,2.71,0,0,0,15,22.31" fill="#fff"/>
          </g>
        </g>
      </g>
      <g>
        <polygon points="24.2 19.46 1.42 9.17 25.96 0.24 48.75 10.53 24.2 19.46" fill="#3a3a3a"/>
        <g style="isolation: isolate">
          <g clip-path="url(#clip-path-2)">
            <path d="M23.15,11.15l2.17-.8h0a2.37,2.37,0,0,1,1.23-.1q3.23.45,6.47.87c.39.05.83,0,1.23.05l-5.89,2.14c-.22-.4-.43-.78-.63-1.16-.12-.21-.22-.43-.34-.64s-.51-.39-1-.35a1.62,1.62,0,0,0-.38.07c-.22.08-.28.22-.19.4l1,1.89,0,.06h0c-.4-.08-.81-.2-1.27-.27l-5.51-.74-.55-.09.4-.14,3.25-1.18m11.4-.52-5.19-.69-2.44-.33c-.4,0-.62-.15-.7-.31L24.46,6s0,0,0,0V6c.4.09.82.21,1.27.27,1.88.27,3.77.51,5.65.77.12,0,.23,0,.4.07l-1,.37-1.2.43-1.19.44c-.46.17-.51.35-.18.51a1.76,1.76,0,0,0,1.3,0l1.36-.49,1.19-.45a6,6,0,0,0,.8-.44c.55,1,1.11,2.08,1.7,3.17M22.13,9.48a.51.51,0,0,0,.22-.13c.13-.16-.05-.36-.47-.42-1.29-.18-2.59-.35-3.89-.51a8.51,8.51,0,0,0-1,0l5.95-2.17c.17.33.34.63.5.92.39.74.77,1.48,1.18,2.21.1.2,0,.34-.38.47h0l-2.62,1-2.17.79a2,2,0,0,0-1,.56q-.86-1.59-1.71-3.21L21,9.51l.32,0a1.87,1.87,0,0,0,.78-.07m0-3.86h0l-1.52.56-1.53.56-1.53.55L16,7.86h0c-.85.31-1.13.69-.89,1.14.59,1.12,1.19,2.23,1.79,3.34.18.34.67.58,1.47.68l8.18,1.11a5.77,5.77,0,0,0,2.73-.25l3.12-1.13,3.11-1.13h0c.66-.24.9-.54.71-.89L34.46,7.36c-.24-.44-.9-.73-2-.87L24.6,5.42a5,5,0,0,0-2.44.2" fill="#fff"/>
          </g>
        </g>
      </g>
      <g>
        <polygon points="48.75 10.53 48.59 40.82 24.04 49.76 24.2 19.46 48.75 10.53" fill="#3b3b3b"/>
        <g style="isolation: isolate">
          <g clip-path="url(#clip-path-3)">
            <path d="M33.86,32.23l2-.75h0a.52.52,0,0,1,.74.28q1.16,2.11,2.35,4.19a2.61,2.61,0,0,0,.58.57l-5.55,2c.36-.87.69-1.71,1-2.55l.57-1.4c.24-.58.19-1-.13-1.08a.34.34,0,0,0-.28,0c-.21.07-.4.31-.56.71C34.11,35.58,33.56,37,33,38.34a.85.85,0,0,1-.05.13h0a6.1,6.1,0,0,0-.34-1c-.65-1.21-1.32-2.39-2-3.59l-.19-.37.38-.14,3.06-1.11m6.5,3.33-1.88-3.37c-.3-.53-.58-1.06-.88-1.58a.93.93,0,0,1,0-.89l2.92-7.24s0,0,0,0l0,0a5.92,5.92,0,0,0,.34,1c.66,1.24,1.36,2.45,2,3.68,0,.07.07.16.13.29l-1,.34L41,28.22l-1.12.42a1,1,0,0,0-.69.94c0,.44.24.63.69.47l1.27-.45c.38-.14.76-.28,1.15-.44a6.23,6.23,0,0,0,.92-.57c-.91,2.27-1.85,4.57-2.81,7m-5.1-7a.85.85,0,0,0,.27-.18,1,1,0,0,0,.24-1c-.46-.85-.93-1.69-1.42-2.5-.12-.2-.35-.26-.52-.39l5.6-2c-.29.71-.55,1.37-.81,2-.66,1.61-1.32,3.22-2,4.84a1.18,1.18,0,0,1-.73.79h0L33.45,31l-2,.74a2.52,2.52,0,0,0-1.15.76c.94-2.34,1.89-4.67,2.85-7.05.54,1,1,1.86,1.55,2.76a2.25,2.25,0,0,0,.12.21.39.39,0,0,0,.48.16m4.5-7.66h0l-1.44.53-1.44.52-1.44.53L34,23h0a3.11,3.11,0,0,0-1.78,1.94q-1.48,3.66-3,7.32a2.2,2.2,0,0,0,0,1.91c1,1.78,2,3.56,3,5.32a1.26,1.26,0,0,0,1.7.56L36.79,39l2.93-1.07h0a2.45,2.45,0,0,0,1.41-1.5c1-2.46,2-4.91,3-7.37a2.79,2.79,0,0,0,0-2.48c-.95-1.71-1.91-3.41-2.86-5.14a1.08,1.08,0,0,0-1.5-.52" fill="#fff"/>
          </g>
        </g>
      </g>
    </g>
  </g>
</svg>
