<svg id="Capa_1" data-name="Capa 1" xmlns="http://www.w3.org/2000/svg" xmlns:xlink="http://www.w3.org/1999/xlink" width="50" height="50" viewBox="0 0 50 50">
  <defs>
    <clipPath id="clip-path">
      <polygon points="24.04 49.76 1.26 39.47 1.42 9.17 24.2 19.46 24.04 49.76" fill="none"/>
    </clipPath>
    <clipPath id="clip-path-2">
      <polygon points="24.2 19.46 1.42 9.17 25.96 0.24 48.75 10.53 24.2 19.46" fill="none"/>
    </clipPath>
    <clipPath id="clip-path-3">
      <polygon points="48.75 10.53 48.59 40.82 24.04 49.76 24.2 19.46 48.75 10.53" fill="none"/>
    </clipPath>
  </defs>
  <g id="Figment_lido">
    <g style="isolation: isolate">
      <g>
        <polygon points="24.04 49.76 1.26 39.47 1.42 9.17 24.2 19.46 24.04 49.76" fill="#111011"/>
        <g style="isolation: isolate">
          <g clip-path="url(#clip-path)">
            <g>
              <path d="M15.53,27.83a.3.3,0,0,0-.33.06c-1,.83-2.09,1.63-3.13,2.45-.48.37-1,.74-1.43,1.12l0,.11.6.26a3.9,3.9,0,0,1,.35.19l.21.12A1,1,0,0,0,13,32c1.1-.93,2.24-1.77,3.37-2.63.18-.14.2-.26,0-.51S16,28.3,15.77,28a.71.71,0,0,0-.24-.21" fill="#e10050"/>
              <path d="M12.94,26.42a.45.45,0,0,0-.54,0c-1,.81-2.06,1.62-3.09,2.41-.78.6-.78.61.15,1.7a1.07,1.07,0,0,0,.22.19.24.24,0,0,0,.26-.05Q12.06,29,14.19,27.4a.45.45,0,0,0,.23-.29l-.84-.38-.61-.3h0" fill="#e10050"/>
              <path d="M17.12,30.13c-.06,0-.14,0-.23.07-1.05.83-2.12,1.65-3.18,2.47a.29.29,0,0,0-.16.25l1.59.74,0,0a.27.27,0,0,0,.3,0c.76-.59,1.51-1.18,2.28-1.76.12-.09.14-.2,0-.42s-.32-.69-.46-1.05c-.07-.16-.13-.25-.2-.28" fill="#e10050"/>
              <path d="M10.08,25.08a.36.36,0,0,0-.43,0c-.52.43-1.05.83-1.58,1.24-.71.55-.7.54-.1,1.8a.48.48,0,0,0,.18.26s.11,0,.18-.06l2.83-2.2c.12-.09.23-.19.36-.28l0-.12-.7-.32-.7-.34" fill="#e10050"/>
              <path d="M7.06,31.8c-.09,0-.18-.05-.23.09a1.38,1.38,0,0,0,.17.53l7.17,3.34c.06,0,.12.07.19.1s.21.06.26-.16l0,0,0,0c.1-.2,0-.33-.16-.42l-1.07-.5L7.22,31.89l-.16-.09" fill="#d8024e"/>
              <path d="M8.64,18.22a1,1,0,0,0-.45.34.35.35,0,0,0,.24.29l.05,0,8.5,4h0c.11.05.21.09.26-.07a1.6,1.6,0,0,0-.19-.57c0,.11-.12.09-.2.05l-.11-.05L8.88,18.54l-.11-.05c-.08,0-.14-.1-.13-.27" fill="#e2628f"/>
              <path d="M10.84,22.94c-.22.62-.21.65.35.91l7.07,3.31.27.16c.07,0,.13,0,.15,0s-.09-.43-.17-.65c0,.07-.06.11-.13.08h0Q17,26,15.67,25.4L14,24.62l-1.16-.53-1.64-.79-.11,0a.4.4,0,0,1-.24-.32" fill="#e10754"/>
              <path d="M16.89,21.6c0,.25-.14.18-.27.12L9.32,18.3l-.1,0c-.07,0-.14-.09-.12-.25a.75.75,0,0,0-.46.21c0,.17,0,.23.13.27l.11.05,7.89,3.69.11.05c.08,0,.15.06.2-.05a2.85,2.85,0,0,0-.19-.63" fill="#e37098"/>
              <path d="M16.88,40.19l-.11,0-8.57-4a.86.86,0,0,0,.13.4L17,40.6a.34.34,0,0,0,.24-.17,1,1,0,0,0-.33-.24" fill="#a40d42"/>
              <path d="M8.62,37.46a2.34,2.34,0,0,0,.19.62l6.33,3a1.27,1.27,0,0,0,.9,0A1.13,1.13,0,0,1,15.8,41c-.18-.08-.35-.21-.53-.29L9.12,37.79l-.07,0a1.26,1.26,0,0,1-.43-.29" fill="#92113e"/>
              <path d="M17.88,39.69c-.22.2-.48.14-.76,0l-.06,0c-.26-.14-.52-.26-.78-.38l-1.05-.49-.11,0a.37.37,0,0,1-.22-.27,2,2,0,0,1-1.06-.25l-2.76-1.3L8.32,35.64l-.1,0c-.15-.07-.29-.1-.09.33a1.55,1.55,0,0,1,.57.17l8.2,3.85a.78.78,0,0,0,.73.08.62.62,0,0,0,.25-.33" fill="#ab0b43"/>
              <path d="M18.22,32.86s-.13,0-.26.14a3.65,3.65,0,0,0-.31.24l-1.29,1,2.14,1c.17.08.15-.09.15-.24a8.57,8.57,0,0,0-.25-1.64c-.08-.32-.12-.47-.18-.5" fill="#e0004f"/>
              <path d="M8.39,36.74a2.14,2.14,0,0,0,.16.53l7.82,3.65a.31.31,0,0,0,.27-.12.87.87,0,0,0-.39-.29l-.11,0L8.86,37.05,8.71,37a.87.87,0,0,1-.32-.24" fill="#9b0f40"/>
              <path d="M7.32,33.43c.07.33.14.6.43.74h0l2.79,1.3,2.78,1.31a.67.67,0,0,0,.72,0,2.41,2.41,0,0,0-.58-.36L7.79,33.74l-.06,0a1,1,0,0,1-.41-.28" fill="#c40649"/>
              <path d="M17.27,22.8c-.05.16-.15.12-.26.07h0l-8.5-4-.05,0a.35.35,0,0,1-.24-.29.42.42,0,0,0-.26.25.42.42,0,0,0,.27.29c.55.28,1.1.58,1.65.84.27.12.54.24.81.34s.68.26,1,.4l.16.07c.45.19.9.39,1.34.6l1.27.61,1.29.61c.43.2.86.4,1.29.58.12.05.25.14.36.06a1.16,1.16,0,0,0-.13-.41" fill="#e05788"/>
              <path d="M10.92,22.74c-.06,0-.08.1-.08.2a.4.4,0,0,0,.24.32l.11,0,1.64.79,1.16.53,1.68.78q1.35.63,2.7,1.32h0c.07,0,.1,0,.13-.08a.9.9,0,0,0-.13-.39.35.35,0,0,1-.24-.05L18,26.15,11.32,23,11.16,23a.52.52,0,0,1-.24-.21" fill="#e1125b"/>
              <path d="M14.12,36l-.07,0L9.78,34,7.64,33a1.7,1.7,0,0,0-.51-.14l.06.21a1.36,1.36,0,0,0,.38.26l.13.06,6.67,3.13a.2.2,0,0,0,.12-.22,1,1,0,0,0-.37-.26" fill="#d0044c"/>
              <path d="M7.19,33a1.17,1.17,0,0,0,.13.4,1,1,0,0,0,.41.28l.06,0,5.68,2.66a2.41,2.41,0,0,1,.58.36c.09-.11.26-.09.32-.28L7.7,33.35l-.13-.06A1.36,1.36,0,0,1,7.19,33" fill="#c9054a"/>
              <path d="M17.63,40a.78.78,0,0,1-.73-.08L8.7,36.09a1.55,1.55,0,0,0-.57-.17l.07.21,8.57,4,.11,0a1,1,0,0,1,.33.24,1.1,1.1,0,0,0,.42-.41" fill="#a80c43"/>
              <path d="M16.51,20.7l-.1,0-3.86-1.81L10.63,18a1.17,1.17,0,0,0-.81-.1.59.59,0,0,0,.26.2l.12.06L16.32,21l.13.07a.24.24,0,0,0,.27,0,.34.34,0,0,0-.21-.34" fill="#e287a7"/>
              <path d="M8.33,36.53l.06.21a.87.87,0,0,0,.32.24l.15.07,7.28,3.41.11,0a.87.87,0,0,1,.39.29l.33-.2L8.33,36.53" fill="#9f0e41"/>
              <path d="M7,23.64c-.14-.07-.19,0-.18.2a8.3,8.3,0,0,0,.24,1.68c0,.1.05.17.09.19s0,0,.09,0l1.48-1.15,0-.11-1.11-.52L7,23.65H7" fill="#df004f"/>
              <path d="M16.78,21.25l0,.1c0,.17,0,.17-.09.14l-.1,0-7-3.31A1.09,1.09,0,0,1,9.3,18h0c-.08,0-.13,0-.19.06s.05.22.12.25l.1,0,7.3,3.42c.13.06.26.13.27-.12a.76.76,0,0,0-.11-.35" fill="#e3769c"/>
              <path d="M14.62,35.7c0,.22-.15.21-.26.16s-.13-.08-.19-.1L7,32.42a1.44,1.44,0,0,0,.13.4,1.7,1.7,0,0,1,.51.14l2.14,1,4.27,2,.07,0a1,1,0,0,1,.37.26.71.71,0,0,0,.2-.52h0l0,0" fill="#d4034d"/>
              <path d="M16.37,40.92,8.55,37.27l.07.19a1.26,1.26,0,0,0,.43.29l.07,0,6.15,2.87c.18.08.35.21.53.29A1.13,1.13,0,0,0,16,41a.42.42,0,0,0,.33-.11" fill="#96103f"/>
              <path d="M18.27,25.89c-.08.07-.17,0-.27,0l-.1-.05-6.49-3-.11-.05a.61.61,0,0,1-.26-.23.24.24,0,0,0-.12.22.52.52,0,0,0,.24.21l.16.07L18,26.15l.14.06a.35.35,0,0,0,.24.05l-.11-.37" fill="#e11b61"/>
              <path d="M18.08,25.29h0m0,0h0c0,.14-.15.12-.24.07l-.09,0-6.12-2.87-.05,0a.52.52,0,0,1-.26-.21c-.09,0-.15.08-.2.18a.54.54,0,0,0,.23.18l.15.07,3.15,1.48,3.16,1.47.15.08a.23.23,0,0,0,.24,0,1.07,1.07,0,0,0-.12-.41" fill="#e22568"/>
              <path d="M18.08,25.29h0m-6.47-3.2c-.09.06-.23,0-.29.14a.52.52,0,0,0,.26.21l.05,0,6.12,2.87.09,0c.09.05.19.07.24-.07a1,1,0,0,0-.35-.25L17.61,25l-5.39-2.53a2.12,2.12,0,0,1-.61-.38" fill="#e22b6c"/>
              <path d="M17.7,24.74C15.86,23.89,14,23,12.17,22.16c-.2-.09-.39-.18-.56-.07a2.12,2.12,0,0,0,.61.38L17.61,25l.12.05a1,1,0,0,1,.35.25h0a.59.59,0,0,0-.38-.55" fill="#de306d"/>
              <path d="M17.4,23.21c-.11.08-.24,0-.36-.06-.43-.18-.86-.38-1.29-.58L14.46,22l-1.27-.61c-.44-.21-.89-.41-1.34-.6l-.16-.07c-.35-.14-.69-.28-1-.4s-.54-.22-.81-.34c-.55-.26-1.1-.56-1.65-.84a.42.42,0,0,1-.27-.29.38.38,0,0,0-.2.23.37.37,0,0,0,.19.28,1.59,1.59,0,0,1,.27.12l.64.31.54.26a7.4,7.4,0,0,0,1.15.45,2.06,2.06,0,0,1,1.16.26l5.44,2.56.11,0,.15.05c.1,0,.07-.07,0-.17" fill="#e14f82"/>
              <path d="M18.27,37l-.59-.28-1.17-.55a.94.94,0,0,0-.1.54.49.49,0,0,0,.26.24l.09,0,.73.35.71.33a.93.93,0,0,1,.34.24v-.06c0-.11,0-.23,0-.34a.45.45,0,0,0-.28-.51" fill="#d8024e"/>
              <path d="M14.44,35.13l-3-1.4L7,31.64c-.19-.09-.36-.17-.17.25,0-.14.14-.13.23-.09l.16.09,6.17,2.89,1.07.5c.18.09.26.22.16.42l0,0h0c.11-.44.11-.45-.25-.61" fill="#d6014c"/>
              <path d="M15.82,37.85l-.34.33a.69.69,0,0,0,.32.45c.64.28,1.27.57,1.91.87a.3.3,0,0,0,.44-.29l-2.08-1-.11,0c-.1,0-.18-.11-.14-.33" fill="#bb0847"/>
              <path d="M9.56,17.88c-.11-.05-.18,0-.26.08a1.09,1.09,0,0,0,.22.17l7.05,3.31.1,0c.06,0,.11,0,.09-.14L10,18.17l-.15-.07a.51.51,0,0,1-.25-.22" fill="#e37ba1"/>
              <path d="M15.48,38.18a6.36,6.36,0,0,1-.58.3.37.37,0,0,0,.22.27l.11,0,1.05.49c.26.12.52.24.78.38l.06,0c.28.13.54.19.76,0a.27.27,0,0,0,.13-.2.44.44,0,0,1-.3,0c-.64-.3-1.27-.59-1.91-.87a.69.69,0,0,1-.32-.45" fill="#b50946"/>
              <path d="M16.72,21a.24.24,0,0,1-.27,0L16.32,21,10.2,18.11l-.12-.06a.59.59,0,0,1-.26-.2.24.24,0,0,0-.26,0,.51.51,0,0,0,.25.22l.15.07,6.8,3.18,0-.1L16.72,21" fill="#e380a3"/>
              <path d="M18.2,25.7a.23.23,0,0,1-.24,0l-.15-.08-3.16-1.47L11.5,22.66l-.15-.07a.54.54,0,0,1-.23-.18l-.08.11a.61.61,0,0,0,.26.23l.11.05,6.49,3,.1.05c.1,0,.19.07.27,0l-.07-.19" fill="#e11f64"/>
              <path d="M7,20.71a.61.61,0,0,0-.06.39.46.46,0,0,0,.24.5L8,22l.8.38a.23.23,0,0,0,.28,0l.1-.31-1.83-.86h0A.43.43,0,0,1,7,20.71H7" fill="#e1105a"/>
              <path d="M16,37.58a3.15,3.15,0,0,0-.19.27c0,.22,0,.29.14.33l.11,0,2.08,1a.49.49,0,0,0,.13-.29l-1.39-.65L16.2,38a.3.3,0,0,1-.19-.37" fill="#c00748"/>
              <path d="M16.28,37.07a.61.61,0,0,0-.14.29c0,.27.09.33.25.41l1.54.71a1,1,0,0,1,.4.28.89.89,0,0,0,.14-.46,1.26,1.26,0,0,1-.52-.14L17.68,38l-.38-.19L17,37.72l-.19-.1-.3-.14a.4.4,0,0,1-.25-.41" fill="#c9054a"/>
              <path d="M6.92,21.1l0,.14c-.08.55-.07.56.35.76s.57.25.85.39.35.17.53.27l.08,0c.27.12.37,0,.35-.39a.23.23,0,0,1-.28,0L8,22l-.8-.37a.46.46,0,0,1-.24-.5" fill="#e00653"/>
              <path d="M16.35,36.87a.24.24,0,0,0-.07.2.4.4,0,0,0,.25.41l.3.14.19.1.28.11.38.19.27.14a1.26,1.26,0,0,0,.52.14.63.63,0,0,0,.06-.32c-.05,0-.09.08-.17.05l0,0c-.22-.13-.43-.24-.64-.34l-.4-.17L17,37.35l-.31-.16-.12,0a.34.34,0,0,1-.21-.27" fill="#cf044c"/>
              <path d="M7.73,19a.24.24,0,0,0-.14.19.39.39,0,0,0,.23.31l.12.05,2.19,1,.39-.17A7.4,7.4,0,0,1,9.37,20l-.54-.26-.64-.31a1.59,1.59,0,0,0-.27-.12A.37.37,0,0,1,7.73,19" fill="#e1477e"/>
              <path d="M7.59,19.23a.25.25,0,0,0-.13.21.38.38,0,0,0,.23.3l.12.05,2.11,1,.21-.16-2.19-1-.12-.05a.39.39,0,0,1-.23-.31" fill="#e14179"/>
              <path d="M16.14,37.36l-.13.22a.3.3,0,0,0,.19.37l.69.32,1.39.65,0-.16a1,1,0,0,0-.4-.28l-1.54-.71c-.16-.08-.29-.14-.25-.41" fill="#c40649"/>
              <path d="M7.34,19.67l-.07.14a.34.34,0,0,0,.23.27l0,0,1.81.84c.12.06.24.1.31,0a.5.5,0,0,0-.24-.2l-.16-.07c-.53-.26-1.05-.49-1.57-.75l-.12,0a.52.52,0,0,1-.22-.18" fill="#e13572"/>
              <path d="M7.19,20l-.06.17a.34.34,0,0,0,.21.28l.14.06,1.92.92a.33.33,0,0,0,.14-.2l-2-.93-.12-.05A.58.58,0,0,1,7.19,20" fill="#e12b6b"/>
              <path d="M7.13,20.17a.29.29,0,0,0-.07.22.37.37,0,0,0,.15.25h0l.14.07.57.28.5.25a4,4,0,0,0,.9.32l.07-.13-1.92-.92-.14-.06a.34.34,0,0,1-.21-.28" fill="#e12567"/>
              <path d="M7,20.71a.43.43,0,0,0,.31.42h0L9.14,22l.09-.22L7,20.71" fill="#e11a61"/>
              <path d="M16.41,36.69l-.06.18a.34.34,0,0,0,.21.27l.12,0,.31.16.31.15.4.17c.21.1.42.21.64.34l0,0c.08,0,.12,0,.17-.05v-.09a.93.93,0,0,0-.34-.24l-.71-.33L16.76,37l-.09,0a.49.49,0,0,1-.26-.24" fill="#d4034d"/>
              <path d="M15.14,41l-6.33-3a.4.4,0,0,0,.21.18l.1,0L14.79,41l.06,0a.35.35,0,0,0,.29,0" fill="#8b113c"/>
              <path d="M7.46,19.44a.29.29,0,0,0-.12.23.52.52,0,0,0,.22.18l.12,0c.52.26,1,.49,1.57.75l.16.07a.5.5,0,0,1,.24.2l.09,0,.18-.18-2.11-1-.12-.05a.38.38,0,0,1-.23-.3" fill="#e13c76"/>
              <path d="M9.65,20.92c-.07.12-.19.08-.31,0L7.53,20.1l0,0a.34.34,0,0,1-.23-.27.21.21,0,0,0-.08.19.58.58,0,0,0,.27.25l.12.05,2,.93.2-.26-.09,0" fill="#e12f6e"/>
              <path d="M7.06,20.39a.51.51,0,0,0-.08.32H7l2.25,1.07a1.47,1.47,0,0,1,.1-.22,4,4,0,0,1-.9-.32L7.93,21l-.57-.28-.14-.07h0a.37.37,0,0,1-.15-.25" fill="#e01f63"/>
              <path d="M17.31,36.46a4.69,4.69,0,0,0-.8-.31l1.17.55.59.28a.45.45,0,0,1,.28.51c0,.11,0,.23,0,.34a1.4,1.4,0,0,0,.07-.52.27.27,0,0,0-.13-.29l-.31-.14-.43-.2-.44-.22" fill="#d3014b"/>
            </g>
          </g>
        </g>
      </g>
      <g>
        <polygon points="24.2 19.46 1.42 9.17 25.96 0.24 48.75 10.53 24.2 19.46" fill="#121212"/>
        <g style="isolation: isolate">
          <g clip-path="url(#clip-path-2)">
            <g>
              <path d="M26,7.77a.27.27,0,0,0-.2.2c-.15.84-.34,1.69-.52,2.53L25,11.66l.11,0,.65-.25.41-.13.24-.08c.51-.19.71-.42.75-.72.13-.91.36-1.82.56-2.72,0-.15,0-.19-.39-.16l-1,.09a1.23,1.23,0,0,0-.34.06" fill="#e10050"/>
              <path d="M23,8.74c-.24.09-.35.18-.38.32-.16.83-.33,1.66-.52,2.49-.13.63-.12.63,1.4.47l.3-.06c.1,0,.15-.09.16-.16.23-1.14.47-2.28.71-3.43,0-.06.07-.12,0-.22l-.92.34L23,8.73h0" fill="#e10050"/>
              <path d="M28.88,7.63a.17.17,0,0,0-.12.15c-.17.86-.36,1.72-.53,2.57,0,.05-.07.1.06.17L30,9.88h0c.12,0,.18-.1.19-.17l.39-1.84c0-.09,0-.14-.28-.16s-.76,0-1.13-.08a1,1,0,0,0-.36,0" fill="#e10050"/>
              <path d="M19.8,9.89c-.19.07-.28.14-.3.25-.07.42-.17.85-.26,1.27-.12.57-.12.57,1.27.65a1,1,0,0,0,.33,0,.14.14,0,0,0,.1-.12c.15-.76.31-1.52.47-2.28,0-.1,0-.19.06-.29l-.11,0-.77.28-.79.28" fill="#e10050"/>
              <path d="M22.57,13.75c-.09,0-.16.08-.1.15A1.72,1.72,0,0,0,23,14l7.89-2.88.21-.07c.13,0,.21-.1.09-.2h0c-.08-.11-.24-.12-.44,0l-1.18.42-6.79,2.48-.2.06" fill="#d8024e"/>
              <path d="M13.59,8.45a.45.45,0,0,0-.09.36.64.64,0,0,0,.4,0l.06,0,9.36-3.41h0c.13,0,.24-.09.15-.17a1.75,1.75,0,0,0-.57-.08c.05.06,0,.1-.11.13l-.12,0L14,8.42l-.11.05a.32.32,0,0,1-.3,0" fill="#e2628f"/>
              <path d="M18.78,8.77c.3.33.33.33.94.11L27.51,6a3.18,3.18,0,0,1,.33-.1c.07,0,.11-.06.09-.09s-.39-.09-.62-.11c0,0,0,.06,0,.09h0c-1,.34-2,.7-3,1.06l-1.84.67L21.13,8l-1.82.66-.12,0a.67.67,0,0,1-.41,0" fill="#e10754"/>
              <path d="M22.31,5c.19.09,0,.14-.11.2l-8,2.93-.11,0a.31.31,0,0,1-.28,0,.46.46,0,0,0-.18.32.32.32,0,0,0,.3,0L14,8.42l8.7-3.16.12,0c.09,0,.16-.07.11-.13A3.8,3.8,0,0,0,22.31,5" fill="#e37098"/>
              <path d="M36.24,11l-.13.05-9.44,3.44a1.6,1.6,0,0,0,.4.06l9.54-3.46c.06-.07.09-.12,0-.19a2,2,0,0,0-.42.1" fill="#a40d42"/>
              <path d="M28,14.73a3,3,0,0,0,.61.09l7-2.54a1.49,1.49,0,0,0,.66-.5,1.33,1.33,0,0,1-.24.11l-.61.2L28.6,14.56l-.08,0a2.35,2.35,0,0,1-.54.14" fill="#92113e"/>
              <path d="M36.61,10.33c0,.18-.25.31-.57.42l-.06,0-.87.31L34,11.5l-.13.05a.58.58,0,0,1-.36,0,3.25,3.25,0,0,1-1,.51l-3,1.1-3,1.11-.11,0c-.17.06-.3.13.18.16a2.17,2.17,0,0,1,.55-.26L36.07,11c.28-.1.54-.21.6-.37a.22.22,0,0,0-.06-.25" fill="#ab0b43"/>
              <path d="M31.75,7.92c-.06,0-.07.08-.09.19l-.06.25c-.07.32-.13.65-.22,1l2.36-.85c.19-.07,0-.12-.06-.16A8.83,8.83,0,0,0,32.26,8a1.25,1.25,0,0,0-.51-.06" fill="#e0004f"/>
              <path d="M27.27,14.62a2,2,0,0,0,.52.08l8.6-3.13a.2.2,0,0,0,.12-.2,1.73,1.73,0,0,0-.51.13l-.12,0-8,2.92-.16.06a1.36,1.36,0,0,1-.43.1" fill="#9b0f40"/>
              <path d="M24,14.13a1.36,1.36,0,0,0,.87,0h0L27.94,13,31,11.9c.3-.11.5-.24.53-.4a3.68,3.68,0,0,0-.71.2L24.58,14l-.07,0a1.8,1.8,0,0,1-.52.13" fill="#c40649"/>
              <path d="M23.5,5.17c.09.08,0,.12-.15.17h0L14,8.76l-.06,0a.64.64,0,0,1-.4,0,.18.18,0,0,0,0,.23A.66.66,0,0,0,13.91,9c.62-.21,1.27-.42,1.87-.64.3-.1.59-.22.86-.33s.71-.3,1.08-.44l.18-.07c.47-.19,1-.37,1.45-.55l1.41-.5,1.42-.51,1.4-.53c.14,0,.31-.1.32-.18a1.25,1.25,0,0,0-.4-.06" fill="#e05788"/>
              <path d="M18.68,8.66c0,.05,0,.08.1.11a.67.67,0,0,0,.41,0l.12,0L21.13,8l1.28-.47,1.84-.67c1-.36,2-.72,3-1.06h0c.07,0,.07-.06,0-.09a1.18,1.18,0,0,0-.39-.06.47.47,0,0,1-.21.12l-.15,0L19.19,8.53,19,8.6a1,1,0,0,1-.34.06" fill="#e1125b"/>
              <path d="M31,11.21l-.08,0L26.24,13l-2.36.86a2.48,2.48,0,0,0-.49.23l.2,0a2,2,0,0,0,.48-.12l.14,0,7.36-2.68s0-.09-.07-.13a1.87,1.87,0,0,0-.48.12" fill="#d0044c"/>
              <path d="M23.59,14.07a1.25,1.25,0,0,0,.4.06,1.8,1.8,0,0,0,.52-.13l.07,0,6.25-2.28a3.68,3.68,0,0,1,.71-.2c0-.09.13-.18,0-.28L24.21,13.9l-.14,0a2,2,0,0,1-.48.12" fill="#c9054a"/>
              <path d="M36.67,10.58c-.06.16-.32.27-.6.37l-9,3.29a2.17,2.17,0,0,0-.55.26l.2,0,9.44-3.44.13-.05a2,2,0,0,1,.42-.1.38.38,0,0,0,0-.36" fill="#a80c43"/>
              <path d="M21.36,4.9l-.11,0L17,6.49l-2.12.78a1.55,1.55,0,0,0-.68.41,1.06,1.06,0,0,0,.34-.08l.13,0L21.42,5.1l.14,0c.1,0,.2-.08.21-.15a.57.57,0,0,0-.41,0" fill="#e287a7"/>
              <path d="M27.07,14.59l.2,0a1.36,1.36,0,0,0,.43-.1l.16-.06,8-2.92.12,0a1.73,1.73,0,0,1,.51-.13l.1-.24-9.54,3.46" fill="#9f0e41"/>
              <path d="M16.41,11.13c-.15,0-.14.1,0,.16a8.89,8.89,0,0,0,1.45.42.52.52,0,0,0,.21,0,.06.06,0,0,0,.05-.06c.09-.39.17-.79.25-1.19l-.11,0-1.22.45-.61.22h0" fill="#df004f"/>
              <path d="M22,4.93,22,5c.14,0,.11.07,0,.09l-.12,0L14.18,7.94a2.11,2.11,0,0,1-.29.06h0c-.09,0-.1.07-.1.12a.31.31,0,0,0,.28,0l.11,0,8-2.93c.15-.06.3-.11.11-.2A1.11,1.11,0,0,0,22,4.93" fill="#e3769c"/>
              <path d="M31.18,10.83c.12.1,0,.15-.09.2l-.21.07L23,14a1.29,1.29,0,0,0,.4.06,2.48,2.48,0,0,1,.49-.23L26.24,13l4.7-1.72.08,0a1.87,1.87,0,0,1,.48-.12c0-.11-.07-.2-.24-.28h-.08" fill="#d4034d"/>
              <path d="M36.39,11.57l-8.6,3.13.19,0a2.35,2.35,0,0,0,.54-.14l.08,0,6.78-2.47.61-.2a1.33,1.33,0,0,0,.24-.11c.1-.06.16-.13.16-.21" fill="#96103f"/>
              <path d="M26.57,5.62c0,.07-.1.11-.21.15l-.11,0-7.16,2.6-.11,0a.94.94,0,0,1-.37.07c0,.05,0,.1.07.14A1,1,0,0,0,19,8.6l.17-.07,7.37-2.68.15,0a.47.47,0,0,0,.21-.12l-.35-.06" fill="#e11b61"/>
              <path d="M26,5.53h0m0,0h0c.07.08,0,.12-.13.16l-.09,0L19,8.18,19,8.2a1.06,1.06,0,0,1-.34.08.1.1,0,0,0,0,.16,1,1,0,0,0,.31-.06l.15-.06,3.49-1.27L26,5.78l.17,0c.1,0,.18-.08.19-.14A1.45,1.45,0,0,0,26,5.53" fill="#e22568"/>
              <path d="M26,5.53h0M18.72,8.07c0,.07-.18.13-.11.21A1.06,1.06,0,0,0,19,8.2l.06,0,6.75-2.46.09,0c.11,0,.2-.08.13-.16a1.73,1.73,0,0,0-.45.12l-.13,0L19.46,7.86a4.64,4.64,0,0,1-.74.21" fill="#e22b6c"/>
              <path d="M25.28,5.56,19.19,7.78c-.22.08-.43.16-.47.29a4.64,4.64,0,0,0,.74-.21L25.4,5.69l.13,0A1.73,1.73,0,0,1,26,5.53h0a1,1,0,0,0-.7,0" fill="#de306d"/>
              <path d="M23.9,5.23c0,.08-.18.13-.32.18l-1.4.53-1.42.51L19.35,7c-.49.18-1,.36-1.45.55l-.18.07c-.37.14-.73.29-1.08.44s-.56.23-.86.33c-.6.22-1.25.43-1.87.64A.66.66,0,0,1,13.5,9a.14.14,0,0,0,0,.19.69.69,0,0,0,.35,0l.29-.11.71-.25.6-.22a12,12,0,0,0,1.2-.49,3.13,3.13,0,0,1,1.07-.55l6-2.19.11,0L24,5.3c.09,0,0-.07-.12-.07" fill="#e14f82"/>
              <path d="M34.87,9.23l-.65.24-1.29.47c0,.09.18.16.33.23a.94.94,0,0,0,.37-.07l.11,0,.8-.29.78-.29a2.39,2.39,0,0,1,.44-.1l0,0-.26-.11a.68.68,0,0,0-.59,0" fill="#d8024e"/>
              <path d="M30.61,10.75l-3.29,1.19L22.4,13.73c-.2.08-.39.14.07.17-.06-.07,0-.11.1-.15l.2-.06,6.79-2.48,1.18-.42c.2-.08.36-.07.44,0h.08c-.25-.2-.26-.21-.65-.06" fill="#d6014c"/>
              <path d="M33.68,10.87c0,.1,0,.2,0,.3a1.23,1.23,0,0,0,.58,0l2.08-.77a.45.45,0,0,0,.22-.17.21.21,0,0,0-.1-.17l-2.3.83L34,10.9a.36.36,0,0,1-.36,0" fill="#bb0847"/>
              <path d="M14,7.83c-.12,0-.1.11-.13.17a2.11,2.11,0,0,0,.29-.06L22,5.11l.12,0c.07,0,.1-.05,0-.09L14.54,7.71l-.17.06a1.05,1.05,0,0,1-.35.06" fill="#e37ba1"/>
              <path d="M33.68,11.17c-.07.13-.13.27-.21.41a.58.58,0,0,0,.36,0L34,11.5l1.15-.42.87-.31.06,0c.32-.11.56-.24.57-.42s0-.09,0-.14a.45.45,0,0,1-.22.17l-2.08.77a1.23,1.23,0,0,1-.58,0" fill="#b50946"/>
              <path d="M21.77,4.9c0,.07-.11.11-.21.15l-.14,0L14.67,7.55l-.13,0a1.06,1.06,0,0,1-.34.08c-.12,0-.16.09-.18.15a1.05,1.05,0,0,0,.35-.06l.17-.06L22,5,22,4.93l-.2,0" fill="#e380a3"/>
              <path d="M26.37,5.59c0,.06-.09.1-.19.14l-.17,0L22.54,7.05,19.05,8.32l-.15.06a1,1,0,0,1-.31.06l0,.08A.94.94,0,0,0,19,8.45l.11,0,7.16-2.6.11,0c.11,0,.2-.08.21-.15l-.2,0" fill="#e11f64"/>
              <path d="M14.2,10.18a.41.41,0,0,0,.24.16.7.7,0,0,0,.57,0l.87-.32.89-.32c.13-.05.18-.1.18-.17l-.16-.15-2,.73h0a.7.7,0,0,1-.54,0h0" fill="#e1105a"/>
              <path d="M33.63,10.67a1.46,1.46,0,0,0,0,.2.36.36,0,0,0,.36,0l.12-.05,2.3-.83c0-.06-.05-.11-.13-.16l-1.53.55-.76.28a.42.42,0,0,1-.41,0" fill="#c00748"/>
              <path d="M33.45,10.36c0,.06,0,.12.11.17a.5.5,0,0,0,.49,0l1.69-.62a2.3,2.3,0,0,1,.52-.14A.5.5,0,0,0,36,9.55a2.24,2.24,0,0,1-.49.24l-.31.1-.43.15-.29.12-.21.07-.34.13a.64.64,0,0,1-.49,0" fill="#c9054a"/>
              <path d="M14.44,10.34l.09.07c.35.22.36.22.83.05l.93-.34.6-.21.08,0c.3-.1.29-.2,0-.32,0,.07-.05.12-.18.17l-.89.32-.87.32a.7.7,0,0,1-.57,0" fill="#e00653"/>
              <path d="M33.35,10.26s0,.07.1.1a.64.64,0,0,0,.49,0l.34-.13.21-.07.29-.12.43-.15.31-.1A2.24,2.24,0,0,0,36,9.55a.33.33,0,0,0-.19-.14.12.12,0,0,1-.09.11h0c-.26.07-.5.16-.74.24l-.42.16-.35.13-.35.12-.13.05a.66.66,0,0,1-.36,0" fill="#cf044c"/>
              <path d="M13.52,9.23s0,.09,0,.13a.74.74,0,0,0,.4,0l.12-.05,2.43-.88.16-.27a12,12,0,0,1-1.2.49l-.6.22-.71.25-.29.11a.69.69,0,0,1-.35,0" fill="#e1477e"/>
              <path d="M13.56,9.36c0,.05,0,.1.06.14a.61.61,0,0,0,.39,0l.13-.05c.78-.27,1.56-.56,2.33-.84a.85.85,0,0,0,0-.17l-2.43.88L14,9.34a.74.74,0,0,1-.4,0" fill="#e14179"/>
              <path d="M33.56,10.53a.91.91,0,0,0,.07.14.42.42,0,0,0,.41,0l.76-.28,1.53-.55-.07-.09a2.3,2.3,0,0,0-.52.14l-1.69.62a.5.5,0,0,1-.49,0" fill="#c40649"/>
              <path d="M13.69,9.65l.06.08a.66.66,0,0,0,.38,0h0l2-.73c.14,0,.25-.1.22-.18a1,1,0,0,0-.33.07l-.18.07c-.59.21-1.15.42-1.74.62L14,9.58a1.19,1.19,0,0,1-.31.07" fill="#e13572"/>
              <path d="M13.83,9.84l.08.08a.55.55,0,0,0,.37,0l.15-.06,2.13-.76a.12.12,0,0,0,0-.14c-.72.25-1.44.52-2.16.78l-.14,0a1,1,0,0,1-.38.07" fill="#e12b6b"/>
              <path d="M13.91,9.92c0,.05,0,.08.11.11a.51.51,0,0,0,.3,0h0l.14-.06.65-.22.56-.2a7.07,7.07,0,0,0,.92-.39l-.05-.08-2.13.76-.15.06a.55.55,0,0,1-.37,0" fill="#e12567"/>
              <path d="M14.21,10.18a.7.7,0,0,0,.54,0h0l2-.73-.1-.13-2.48.9" fill="#e11a61"/>
              <path d="M33.26,10.17l.09.09a.66.66,0,0,0,.36,0l.13-.05.35-.12.35-.13L35,9.77c.24-.08.48-.17.74-.24h0a.12.12,0,0,0,.09-.11l-.06,0a2.39,2.39,0,0,0-.44.1l-.78.29-.8.29-.11,0a.94.94,0,0,1-.37.07" fill="#d4034d"/>
              <path d="M35.57,12.28l-7,2.54a.79.79,0,0,0,.29-.05l.11,0,6.26-2.28.06,0a.54.54,0,0,0,.26-.15" fill="#8b113c"/>
              <path d="M13.62,9.5c0,.05,0,.1.07.15A1.19,1.19,0,0,0,14,9.58l.12-.05c.59-.2,1.15-.41,1.74-.62L16,8.84a1,1,0,0,1,.33-.07l.1,0V8.58c-.77.28-1.55.57-2.33.84L14,9.47a.61.61,0,0,1-.39,0" fill="#e13c76"/>
              <path d="M16.37,8.77c0,.08-.08.13-.22.18l-2,.73h0a.66.66,0,0,1-.38,0s0,.08.08.11a1,1,0,0,0,.38-.07l.14,0c.72-.26,1.44-.53,2.16-.78,0-.07,0-.13,0-.2l-.1,0" fill="#e12f6e"/>
              <path d="M14,10c0,.06.08.11.18.15h0l2.48-.9a.83.83,0,0,1-.08-.12,7.07,7.07,0,0,1-.92.39l-.56.2-.65.22-.14.06h0a.51.51,0,0,1-.3,0" fill="#e01f63"/>
              <path d="M33.76,9.59a7.14,7.14,0,0,0-.83.35l1.29-.47.65-.24a.68.68,0,0,1,.59,0l.26.11c0-.08-.21-.14-.33-.21a.43.43,0,0,0-.32,0l-.34.13-.47.17-.5.17" fill="#d3014b"/>
            </g>
          </g>
        </g>
      </g>
      <g>
        <polygon points="48.75 10.53 48.59 40.82 24.04 49.76 24.2 19.46 48.75 10.53" fill="#131213"/>
        <g style="isolation: isolate">
          <g clip-path="url(#clip-path-3)">
            <g>
              <path d="M39.45,26.1a.8.8,0,0,0-.36.34q-1.7,2.58-3.41,5.14l-1.56,2.35,0,.08c.21-.07.43-.17.65-.25l.4-.12.23-.07a2.74,2.74,0,0,0,1.3-1.21c1.19-1.87,2.44-3.7,3.67-5.53.2-.3.21-.42,0-.49l-.68-.23a.34.34,0,0,0-.26,0" fill="#e10050"/>
              <path d="M36.6,26.94a1.15,1.15,0,0,0-.6.51c-1.11,1.69-2.24,3.38-3.37,5.07-.84,1.26-.84,1.27.19,1.54a.36.36,0,0,0,.25,0,.63.63,0,0,0,.28-.27L38,26.84a1.18,1.18,0,0,0,.25-.49l-.92.34c-.23.09-.45.16-.67.23l0,0" fill="#e10050"/>
              <path d="M41.22,27c-.07,0-.15.12-.25.27l-3.46,5.2a.71.71,0,0,0-.18.39l1.76-.64h0a.68.68,0,0,0,.32-.29l2.48-3.72c.14-.2.16-.32.05-.45a6.59,6.59,0,0,1-.52-.64c-.08-.11-.14-.14-.22-.11" fill="#e10050"/>
              <path d="M33.44,28.08a.91.91,0,0,0-.47.41c-.57.87-1.14,1.72-1.72,2.59-.77,1.15-.76,1.14-.1,1.88.08.08.14.12.21.09s.12-.09.2-.22q1.53-2.31,3.08-4.62c.13-.2.25-.39.39-.59l0-.09-.77.28q-.39.15-.78.27" fill="#e10050"/>
              <path d="M30.2,37.37a.4.4,0,0,0-.25.28c0,.2.12.26.19.38L38,35.14l.21-.07a.42.42,0,0,0,.29-.38h0c.1-.28,0-.35-.19-.27l-1.17.42-6.8,2.48-.18,0" fill="#d8024e"/>
              <path d="M31.79,22.53a3.45,3.45,0,0,0-.49.73c.05.15.16.12.27.08l.05,0L41,19.91h0a.39.39,0,0,0,.29-.29.66.66,0,0,0-.22-.41.32.32,0,0,1-.22.23l-.12,0-8.69,3.16-.12.06c-.09,0-.16,0-.15-.16" fill="#e2628f"/>
              <path d="M34.25,25.31c-.23.81-.22.83.39.6l7.8-2.84c.09,0,.21,0,.3-.08a.24.24,0,0,0,.16-.15c.08-.2-.1-.35-.2-.49a.25.25,0,0,1-.13.19h0c-1,.32-2,.67-3,1l-1.85.68-1.28.47-1.81.65-.12,0c-.11,0-.22.06-.27-.1" fill="#e10754"/>
              <path d="M40.88,18.73a.36.36,0,0,1-.3.37l-8,2.93-.11,0c-.08,0-.15,0-.13-.15a2.8,2.8,0,0,0-.51.61c0,.18.06.19.15.16l.12-.06,8.69-3.16.12,0a.32.32,0,0,0,.22-.23c-.09-.14-.06-.38-.21-.47" fill="#e37098"/>
              <path d="M41.06,37.19l-.12.05-9.45,3.43a.45.45,0,0,0,.15.29c3.18-1.14,6.35-2.3,9.53-3.45a1.1,1.1,0,0,0,.25-.37.59.59,0,0,0-.36,0" fill="#a40d42"/>
              <path d="M32,41.63a1,1,0,0,0,.21.45l7-2.54a3.25,3.25,0,0,0,1-.79,1.26,1.26,0,0,1-.26.13c-.19.07-.38.09-.58.16l-6.78,2.48-.08,0a.89.89,0,0,1-.47.08" fill="#92113e"/>
              <path d="M42.15,35.83a1.48,1.48,0,0,1-.83.66l-.07,0-.86.3-1.15.43-.13,0c-.1,0-.19,0-.24-.08a3.47,3.47,0,0,1-1.17.67l-3,1.1-3,1.1-.1,0c-.18.06-.33.15-.1.41a2.12,2.12,0,0,1,.63-.33l9-3.28a1.63,1.63,0,0,0,.8-.54,1.88,1.88,0,0,0,.27-.55" fill="#ab0b43"/>
              <path d="M42.46,28.75a1.43,1.43,0,0,0-.29.37l-.34.51-1.4,2.1,2.36-.86c.18-.07.16-.21.16-.36a5.19,5.19,0,0,0-.29-1.41c-.09-.26-.13-.37-.2-.35" fill="#e0004f"/>
              <path d="M31.71,41.11a.94.94,0,0,0,.18.39l8.61-3.15a1,1,0,0,0,.31-.35.62.62,0,0,0-.44,0l-.12,0-8,2.92-.16.06a.52.52,0,0,1-.36,0" fill="#9b0f40"/>
              <path d="M30.51,38.76c.07.26.15.48.47.36h0L34.06,38l3.07-1.12a1.56,1.56,0,0,0,.79-.63,1.87,1.87,0,0,0-.64.13L31,38.66l-.07,0a.87.87,0,0,1-.44.07" fill="#c40649"/>
              <path d="M41.31,19.61a.39.39,0,0,1-.29.29h0l-9.37,3.41-.05,0c-.11,0-.22.07-.27-.08a1.23,1.23,0,0,0-.28.47c.06.15.18.09.3.05.6-.19,1.21-.37,1.81-.59.3-.11.6-.23.9-.37l1.13-.49.18-.07c.5-.2,1-.39,1.48-.56l1.39-.5c.48-.17.95-.33,1.42-.51s.95-.35,1.42-.54c.14-.06.29-.08.4-.25a.4.4,0,0,0-.14-.29" fill="#e05788"/>
              <path d="M34.34,25a.44.44,0,0,0-.09.27c0,.16.16.14.27.1l.12,0,1.81-.65,1.28-.47,1.85-.68c1-.36,2-.71,3-1h0a.25.25,0,0,0,.13-.19c0-.13-.05-.23-.14-.28a.67.67,0,0,1-.27.17l-.14.05L34.78,25,34.6,25a.3.3,0,0,1-.26,0" fill="#e1125b"/>
              <path d="M38,35.42l-.07,0L33.2,37.16,30.85,38a2.55,2.55,0,0,0-.56.3l.07.15a.89.89,0,0,0,.42-.07l.14-.06,7.35-2.66a.54.54,0,0,0,.13-.32.71.71,0,0,0-.42.06" fill="#d0044c"/>
              <path d="M30.36,38.47a.48.48,0,0,0,.15.29.87.87,0,0,0,.44-.07l.07,0,6.26-2.29a1.87,1.87,0,0,1,.64-.13c.1-.19.29-.32.35-.56l-7.35,2.66-.14.06a.89.89,0,0,1-.42.07" fill="#c9054a"/>
              <path d="M41.88,36.38a1.63,1.63,0,0,1-.8.54l-9,3.28a2.12,2.12,0,0,0-.63.33l.07.14,9.45-3.43.12-.05a.59.59,0,0,1,.36,0,3.67,3.67,0,0,0,.46-.76" fill="#a80c43"/>
              <path d="M40.45,18.18l-.11.05-4.25,1.54L34,20.55a2.21,2.21,0,0,0-.88.59.37.37,0,0,0,.27,0l.14-.05,6.75-2.46.14-.05a.49.49,0,0,0,.29-.22c0-.21-.11-.2-.23-.16" fill="#e287a7"/>
              <path d="M31.64,41l.07.15a.52.52,0,0,0,.36,0l.16-.06,8-2.92.12,0a.62.62,0,0,1,.44,0l.36-.49C38,38.66,34.82,39.82,31.64,41" fill="#9f0e41"/>
              <path d="M30.05,29.33c-.16.05-.21.16-.2.35a5.56,5.56,0,0,0,.28,1.46c0,.08.06.13.11.11a.3.3,0,0,0,.09-.1l1.61-2.41,0-.09-1.22.45-.61.22h0" fill="#df004f"/>
              <path d="M40.76,18.48l0,.13c0,.14,0,.19-.09.21l-.11,0-7.78,2.83a1.77,1.77,0,0,1-.23,0h0a.4.4,0,0,0-.2.22c0,.18.05.18.13.15l.11,0,8-2.93a.36.36,0,0,0,.3-.37.35.35,0,0,0-.12-.25" fill="#e3769c"/>
              <path d="M38.54,34.69a.42.42,0,0,1-.29.38l-.21.07L30.14,38a.54.54,0,0,0,.15.29,2.55,2.55,0,0,1,.56-.3l2.35-.86,4.71-1.71.07,0a.71.71,0,0,1,.42-.06,1.35,1.35,0,0,0,.21-.68h-.07" fill="#d4034d"/>
              <path d="M40.5,38.35,31.89,41.5l.08.13a.89.89,0,0,0,.47-.08l.08,0L39.3,39c.2-.07.39-.09.58-.16a1.12,1.12,0,0,0,.62-.53" fill="#96103f"/>
              <path d="M42.43,21.81a.51.51,0,0,1-.29.22l-.11,0-7.15,2.6-.12,0a.3.3,0,0,1-.29,0,.68.68,0,0,0-.13.33.3.3,0,0,0,.26,0l.18-.07,7.37-2.68.14-.05a.67.67,0,0,0,.27-.17c0-.09-.08-.17-.13-.26" fill="#e11b61"/>
              <path d="M42.22,21.37h0m0,0h0a.37.37,0,0,1-.26.28l-.1,0-6.75,2.46,0,0a.33.33,0,0,1-.29,0,.75.75,0,0,0-.21.34.31.31,0,0,0,.25,0l.16-.06,3.48-1.26,3.48-1.28.16-.05a.46.46,0,0,0,.27-.2.47.47,0,0,0-.14-.3" fill="#e22568"/>
              <path d="M42.22,21.37h0M35.09,23.8c-.1.13-.26.2-.32.39a.33.33,0,0,0,.29,0l0,0,6.75-2.46.1,0a.37.37,0,0,0,.26-.28.65.65,0,0,0-.38.06l-.14,0-5.94,2.16a1.85,1.85,0,0,1-.67.15" fill="#e22b6c"/>
              <path d="M41.8,21.16l-6.1,2.23a1.06,1.06,0,0,0-.61.41,1.85,1.85,0,0,0,.67-.15l5.94-2.16.14,0a.65.65,0,0,1,.38-.06h0c0-.29-.19-.3-.42-.21" fill="#de306d"/>
              <path d="M41.45,19.9c-.11.17-.26.19-.4.25-.47.19-.94.37-1.42.54s-.94.34-1.42.51l-1.39.5c-.49.17-1,.36-1.48.56l-.18.07L34,22.82c-.3.14-.6.26-.9.37-.6.22-1.21.4-1.81.59-.12,0-.24.1-.3-.05a1.08,1.08,0,0,0-.22.41.14.14,0,0,0,.21.1l.3-.11.7-.25.6-.21a8.6,8.6,0,0,0,1.26-.55,3.56,3.56,0,0,1,1.28-.74l6-2.18.11,0,.17-.07c.12-.07.08-.14,0-.19" fill="#e14f82"/>
              <path d="M42.55,32.8,41.9,33l-1.29.46a1.41,1.41,0,0,0-.1.62c.08.08.18.05.28,0l.11,0,.8-.29.79-.29a.6.6,0,0,1,.37-.05v-.06c0-.12,0-.23,0-.35,0-.29-.09-.34-.31-.26" fill="#d8024e"/>
              <path d="M38.33,34.28l-3.28,1.19-4.92,1.79c-.21.08-.4.14-.18.39a.4.4,0,0,1,.25-.28l.18,0,6.8-2.48,1.17-.42c.21-.08.29,0,.19.27h.07c.11-.54.11-.55-.28-.4" fill="#d6014c"/>
              <path d="M39.87,35.78l-.37.63a.28.28,0,0,0,.36.17c.7-.28,1.4-.54,2.1-.79a1.09,1.09,0,0,0,.33-.27,1,1,0,0,0,.15-.4l-2.29.82L40,36c-.11,0-.2,0-.16-.22" fill="#bb0847"/>
              <path d="M32.8,21.4c-.13,0-.2.18-.28.3a1.77,1.77,0,0,0,.23,0l7.78-2.83.11,0c.06,0,.12-.07.09-.21l-7.49,2.73-.17.06a.29.29,0,0,1-.27,0" fill="#e37ba1"/>
              <path d="M39.5,36.41l-.63.8c.05.12.14.11.24.08l.13,0,1.15-.43.86-.3.07,0a1.48,1.48,0,0,0,.83-.66.73.73,0,0,0,.14-.31,1.09,1.09,0,0,1-.33.27c-.7.25-1.4.51-2.1.79a.28.28,0,0,1-.36-.17" fill="#b50946"/>
              <path d="M40.68,18.34a.49.49,0,0,1-.29.22l-.14.05L33.5,21.07l-.14.05a.37.37,0,0,1-.27,0,.6.6,0,0,0-.29.26.29.29,0,0,0,.27,0l.17-.06,7.49-2.73,0-.13-.08-.14" fill="#e380a3"/>
              <path d="M42.36,21.67a.46.46,0,0,1-.27.2l-.16.05L38.45,23.2,35,24.46l-.16.06a.31.31,0,0,1-.25,0l-.09.18a.3.3,0,0,0,.29,0l.12,0L42,22.07l.11,0a.51.51,0,0,0,.29-.22l-.07-.14" fill="#e11f64"/>
              <path d="M30,26.43a.79.79,0,0,0-.07.44c0,.24.06.37.28.29l.88-.33.88-.31a.64.64,0,0,0,.3-.29l.11-.38-2,.73h0c-.16.05-.31.1-.34-.15h0" fill="#e1105a"/>
              <path d="M40.08,35.35l-.21.43c0,.25.05.25.16.22l.12-.06,2.29-.82a.92.92,0,0,0,.14-.4l-1.52.55-.77.28c-.17.06-.24,0-.21-.2" fill="#c00748"/>
              <path d="M40.36,34.62a1.26,1.26,0,0,0-.14.4c0,.3.1.26.27.19l1.7-.62a.75.75,0,0,1,.45-.08,1.41,1.41,0,0,0,.14-.57,2,2,0,0,1-.57.31l-.29.09-.42.15-.31.12-.21.07-.33.12c-.17.06-.27,0-.29-.18" fill="#c9054a"/>
              <path d="M29.93,26.87l0,.18c-.08.61-.07.62.4.45l.93-.35c.2-.07.39-.14.58-.19l.09,0c.3-.11.41-.32.38-.7a.64.64,0,0,1-.3.29l-.88.31-.88.33c-.22.08-.28-.05-.28-.29" fill="#e00653"/>
              <path d="M40.45,34.35a.58.58,0,0,0-.09.27c0,.22.12.24.29.18l.33-.12.21-.07.31-.12.42-.15.29-.09a2,2,0,0,0,.57-.31.86.86,0,0,0,.07-.37.39.39,0,0,1-.19.19h0a4.83,4.83,0,0,0-.71.22l-.43.16-.35.13-.35.11-.12,0c-.1,0-.19.05-.23-.09" fill="#cf044c"/>
              <path d="M30.8,24.14a.54.54,0,0,0-.15.3c.05.15.15.14.25.11l.13-.06,2.42-.86.42-.51a8.6,8.6,0,0,1-1.26.55l-.6.21-.7.25-.3.11a.14.14,0,0,1-.21-.1" fill="#e1477e"/>
              <path d="M30.65,24.44a.62.62,0,0,0-.14.32c0,.15.15.14.26.1l.13-.05L33.22,24l.23-.34L31,24.49l-.13.06c-.1,0-.2,0-.25-.11" fill="#e14179"/>
              <path d="M40.22,35l-.14.33c0,.21,0,.26.21.2l.77-.28,1.52-.55.06-.21a.75.75,0,0,0-.45.08l-1.7.62c-.17.07-.31.11-.27-.19" fill="#c40649"/>
              <path d="M30.38,25.09l-.08.2c.05.14.16.11.26.07h0l2-.72a.55.55,0,0,0,.34-.3.3.3,0,0,0-.26,0l-.19.07L30.75,25l-.13,0a.29.29,0,0,1-.24,0" fill="#e13572"/>
              <path d="M30.22,25.56l-.07.21c.05.14.14.14.24.1l.16-.07c.7-.24,1.41-.49,2.11-.75a.89.89,0,0,0,.15-.31l-2.16.77-.14.06c-.1,0-.21.06-.29,0" fill="#e12b6b"/>
              <path d="M30.15,25.77a.47.47,0,0,0-.07.28c0,.09.08.15.17.12h0l.15-.05.64-.22.54-.18a5.49,5.49,0,0,0,1-.46l.08-.2c-.7.26-1.41.51-2.11.75l-.16.07c-.1,0-.19,0-.24-.1" fill="#e12567"/>
              <path d="M30,26.44c0,.25.18.2.34.15h0l2-.73c0-.1.06-.2.1-.3L30,26.44" fill="#e11a61"/>
              <path d="M40.51,34.12l-.06.23c0,.14.13.13.23.09l.12,0,.35-.11.35-.13.43-.16a4.83,4.83,0,0,1,.71-.22h0a.39.39,0,0,0,.19-.19v-.1a.6.6,0,0,0-.37.05l-.79.29-.8.29-.11,0c-.1,0-.2.06-.28,0" fill="#d4034d"/>
              <path d="M39.16,39.54l-7,2.54a.24.24,0,0,0,.23,0l.11,0,6.26-2.28.06,0a.74.74,0,0,0,.32-.2" fill="#8b113c"/>
              <path d="M30.51,24.76a.68.68,0,0,0-.13.33.29.29,0,0,0,.24,0l.13,0,1.73-.62.19-.07a.3.3,0,0,1,.26,0l.09,0,.2-.34-2.32.84-.13.05c-.11,0-.21.05-.26-.1" fill="#e13c76"/>
              <path d="M32.93,24.33a.55.55,0,0,1-.34.3l-2,.72h0c-.1,0-.21.07-.26-.07a.5.5,0,0,0-.08.27c.08.07.19,0,.29,0l.14-.06,2.16-.77.21-.43-.09,0" fill="#e12f6e"/>
              <path d="M30.08,26.05a.66.66,0,0,0-.08.38h0l2.48-.89a2.64,2.64,0,0,1,.1-.3,5.49,5.49,0,0,1-1,.46l-.54.18-.64.22-.15.05h0c-.09,0-.14,0-.17-.12" fill="#e01f63"/>
              <path d="M41.49,33.12a6.68,6.68,0,0,0-.88.38L41.9,33l.65-.24c.22-.08.33,0,.31.26,0,.12,0,.23,0,.35a1.71,1.71,0,0,0,.07-.58c0-.14,0-.22-.15-.18l-.34.14L42,33l-.49.17" fill="#d3014b"/>
            </g>
          </g>
        </g>
      </g>
    </g>
  </g>
  <g>
    <rect x="46.2" y="41.66" width="1.52" height="1.52" fill="#fff"/>
    <rect x="46.2" y="40.15" width="1.52" height="1.51" fill="#fff"/>
    <rect x="46.2" y="8.34" width="1.52" height="1.52" fill="#fff"/>
    <rect x="46.2" y="6.82" width="1.52" height="1.51" fill="#fff"/>
    <rect x="44.69" y="43.18" width="1.51" height="1.51" fill="#fff"/>
    <rect x="44.69" y="41.66" width="1.51" height="1.52" fill="#ef5454"/>
    <rect x="44.69" y="40.15" width="1.51" height="1.51" fill="#ef5454"/>
    <rect x="44.69" y="38.63" width="1.51" height="1.52" fill="#fff"/>
    <rect x="44.69" y="9.85" width="1.51" height="1.51" fill="#fff"/>
    <rect x="44.69" y="8.34" width="1.51" height="1.52" fill="#aa0707"/>
    <rect x="44.69" y="6.82" width="1.51" height="1.51" fill="#ef5454"/>
    <rect x="44.69" y="5.31" width="1.51" height="1.52" fill="#fff"/>
    <rect x="43.18" y="44.69" width="1.52" height="1.52" fill="#fff"/>
    <rect x="43.18" y="43.18" width="1.52" height="1.51" fill="#aa0707"/>
    <rect x="43.18" y="41.66" width="1.52" height="1.52" fill="#cc1d1d"/>
    <rect x="43.18" y="40.15" width="1.52" height="1.51" fill="#cc1d1d"/>
    <rect x="43.18" y="38.63" width="1.52" height="1.52" fill="#ef5454"/>
    <rect x="43.18" y="37.12" width="1.52" height="1.51" fill="#fff"/>
    <rect x="43.18" y="11.37" width="1.52" height="1.52" fill="#fff"/>
    <rect x="43.18" y="9.85" width="1.52" height="1.51" fill="#aa0707"/>
    <rect x="43.18" y="8.34" width="1.52" height="1.52" fill="#cc1d1d"/>
    <rect x="43.18" y="6.82" width="1.52" height="1.51" fill="#cc1d1d"/>
    <rect x="43.18" y="5.31" width="1.52" height="1.52" fill="#ef5454"/>
    <rect x="43.18" y="3.8" width="1.52" height="1.51" fill="#fff"/>
    <rect x="41.66" y="46.21" width="1.51" height="1.51" fill="#fff"/>
    <rect x="41.66" y="44.69" width="1.51" height="1.52" fill="#aa0707"/>
    <rect x="41.66" y="43.18" width="1.51" height="1.51" fill="#cc1d1d"/>
    <rect x="41.66" y="41.66" width="1.51" height="1.52" fill="#cc1d1d"/>
    <rect x="41.66" y="40.15" width="1.51" height="1.51" fill="#cc1d1d"/>
    <rect x="41.66" y="38.63" width="1.51" height="1.52" fill="#cc1d1d"/>
    <rect x="41.66" y="37.12" width="1.51" height="1.51" fill="#ef5454"/>
    <rect x="41.66" y="35.6" width="1.51" height="1.52" fill="#fff"/>
    <rect x="41.66" y="12.88" width="1.51" height="1.51" fill="#fff"/>
    <rect x="41.66" y="11.37" width="1.51" height="1.52" fill="#aa0707"/>
    <rect x="41.66" y="9.85" width="1.51" height="1.51" fill="#cc1d1d"/>
    <rect x="41.66" y="8.34" width="1.51" height="1.52" fill="#cc1d1d"/>
    <rect x="41.66" y="6.82" width="1.51" height="1.51" fill="#cc1d1d"/>
    <rect x="41.66" y="5.31" width="1.51" height="1.52" fill="#cc1d1d"/>
    <rect x="41.66" y="3.8" width="1.51" height="1.51" fill="#ef5454"/>
    <rect x="41.66" y="2.28" width="1.51" height="1.52" fill="#fff"/>
    <rect x="40.15" y="46.21" width="1.52" height="1.51" fill="#fff"/>
    <rect x="40.15" y="44.69" width="1.52" height="1.52" fill="#aa0707"/>
    <rect x="40.15" y="43.18" width="1.52" height="1.51" fill="#cc1d1d"/>
    <rect x="40.15" y="41.66" width="1.52" height="1.52" fill="#cc1d1d"/>
    <rect x="40.15" y="40.15" width="1.52" height="1.51" fill="#cc1d1d"/>
    <rect x="40.15" y="38.63" width="1.52" height="1.52" fill="#cc1d1d"/>
    <rect x="40.15" y="37.12" width="1.52" height="1.51" fill="#cc1d1d"/>
    <rect x="40.15" y="35.6" width="1.52" height="1.52" fill="#ef5454"/>
    <rect x="40.15" y="34.09" width="1.52" height="1.51" fill="#fff"/>
    <rect x="40.15" y="14.4" width="1.52" height="1.52" fill="#fff"/>
    <rect x="40.15" y="12.88" width="1.52" height="1.51" fill="#aa0707"/>
    <rect x="40.15" y="11.37" width="1.52" height="1.52" fill="#cc1d1d"/>
    <rect x="40.15" y="9.85" width="1.52" height="1.51" fill="#cc1d1d"/>
    <rect x="40.15" y="8.34" width="1.52" height="1.52" fill="#cc1d1d"/>
    <rect x="40.15" y="6.82" width="1.52" height="1.51" fill="#cc1d1d"/>
    <rect x="40.15" y="5.31" width="1.52" height="1.52" fill="#cc1d1d"/>
    <rect x="40.15" y="3.8" width="1.52" height="1.51" fill="#ef5454"/>
    <rect x="40.15" y="2.28" width="1.52" height="1.52" fill="#fff"/>
    <rect x="38.63" y="44.69" width="1.51" height="1.52" fill="#fff"/>
    <rect x="38.63" y="43.18" width="1.51" height="1.51" fill="#aa0707"/>
    <rect x="38.63" y="41.66" width="1.51" height="1.52" fill="#cc1d1d"/>
    <rect x="38.63" y="40.15" width="1.51" height="1.51" fill="#cc1d1d"/>
    <rect x="38.63" y="38.63" width="1.51" height="1.52" fill="#cc1d1d"/>
    <rect x="38.63" y="37.12" width="1.51" height="1.51" fill="#cc1d1d"/>
    <rect x="38.63" y="35.6" width="1.51" height="1.52" fill="#cc1d1d"/>
    <rect x="38.63" y="34.09" width="1.51" height="1.51" fill="#ef5454"/>
    <rect x="38.63" y="32.57" width="1.51" height="1.51" fill="#fff"/>
    <rect x="38.63" y="15.91" width="1.51" height="1.51" fill="#fff"/>
    <rect x="38.63" y="14.4" width="1.51" height="1.52" fill="#aa0707"/>
    <rect x="38.63" y="12.88" width="1.51" height="1.51" fill="#cc1d1d"/>
    <rect x="38.63" y="11.37" width="1.51" height="1.52" fill="#cc1d1d"/>
    <rect x="38.63" y="9.85" width="1.51" height="1.51" fill="#cc1d1d"/>
    <rect x="38.63" y="8.34" width="1.51" height="1.52" fill="#cc1d1d"/>
    <rect x="38.63" y="6.82" width="1.51" height="1.51" fill="#cc1d1d"/>
    <rect x="38.63" y="5.31" width="1.51" height="1.52" fill="#ef5454"/>
    <rect x="38.63" y="3.8" width="1.51" height="1.51" fill="#fff"/>
    <rect x="37.12" y="43.18" width="1.52" height="1.51" fill="#fff"/>
    <rect x="37.12" y="41.66" width="1.52" height="1.52" fill="#aa0707"/>
    <rect x="37.12" y="40.15" width="1.52" height="1.51" fill="#cc1d1d"/>
    <rect x="37.12" y="38.63" width="1.52" height="1.52" fill="#cc1d1d"/>
    <rect x="37.12" y="37.12" width="1.52" height="1.51" fill="#cc1d1d"/>
    <rect x="37.12" y="35.6" width="1.52" height="1.52" fill="#cc1d1d"/>
    <rect x="37.12" y="34.09" width="1.52" height="1.51" fill="#cc1d1d"/>
    <rect x="37.12" y="32.57" width="1.52" height="1.51" fill="#ef5454"/>
    <rect x="37.12" y="31.06" width="1.52" height="1.52" fill="#fff"/>
    <rect x="37.12" y="17.43" width="1.52" height="1.51" fill="#fff"/>
    <rect x="37.12" y="15.91" width="1.52" height="1.51" fill="#aa0707"/>
    <rect x="37.12" y="14.4" width="1.52" height="1.52" fill="#cc1d1d"/>
    <rect x="37.12" y="12.88" width="1.52" height="1.51" fill="#cc1d1d"/>
    <rect x="37.12" y="11.37" width="1.52" height="1.52" fill="#cc1d1d"/>
    <rect x="37.12" y="9.85" width="1.52" height="1.51" fill="#cc1d1d"/>
    <rect x="37.12" y="8.34" width="1.52" height="1.52" fill="#cc1d1d"/>
    <rect x="37.12" y="6.82" width="1.52" height="1.51" fill="#ef5454"/>
    <rect x="37.12" y="5.31" width="1.52" height="1.52" fill="#fff"/>
    <rect x="35.6" y="41.66" width="1.51" height="1.52" fill="#fff"/>
    <rect x="35.6" y="40.15" width="1.51" height="1.51" fill="#aa0707"/>
    <rect x="35.6" y="38.63" width="1.51" height="1.52" fill="#cc1d1d"/>
    <rect x="35.6" y="37.12" width="1.51" height="1.51" fill="#cc1d1d"/>
    <rect x="35.6" y="35.6" width="1.51" height="1.52" fill="#cc1d1d"/>
    <rect x="35.6" y="34.09" width="1.51" height="1.51" fill="#cc1d1d"/>
    <rect x="35.6" y="32.57" width="1.51" height="1.51" fill="#cc1d1d"/>
    <rect x="35.6" y="31.06" width="1.51" height="1.52" fill="#ef5454"/>
    <rect x="35.6" y="29.54" width="1.51" height="1.51" fill="#fff"/>
    <rect x="35.6" y="18.94" width="1.51" height="1.52" fill="#fff"/>
    <rect x="35.6" y="17.43" width="1.51" height="1.51" fill="#aa0707"/>
    <rect x="35.6" y="15.91" width="1.51" height="1.51" fill="#cc1d1d"/>
    <rect x="35.6" y="14.4" width="1.51" height="1.52" fill="#cc1d1d"/>
    <rect x="35.6" y="12.88" width="1.51" height="1.51" fill="#cc1d1d"/>
    <rect x="35.6" y="11.37" width="1.51" height="1.52" fill="#cc1d1d"/>
    <rect x="35.6" y="9.85" width="1.51" height="1.51" fill="#cc1d1d"/>
    <rect x="35.6" y="8.34" width="1.51" height="1.52" fill="#ef5454"/>
    <rect x="35.6" y="6.82" width="1.51" height="1.51" fill="#fff"/>
    <rect x="34.09" y="40.15" width="1.52" height="1.51" fill="#fff"/>
    <rect x="34.09" y="38.63" width="1.52" height="1.52" fill="#aa0707"/>
    <rect x="34.09" y="37.12" width="1.52" height="1.51" fill="#cc1d1d"/>
    <rect x="34.09" y="35.6" width="1.52" height="1.52" fill="#cc1d1d"/>
    <rect x="34.09" y="34.09" width="1.52" height="1.51" fill="#cc1d1d"/>
    <rect x="34.09" y="32.57" width="1.52" height="1.51" fill="#cc1d1d"/>
    <rect x="34.09" y="31.06" width="1.52" height="1.52" fill="#cc1d1d"/>
    <rect x="34.09" y="29.54" width="1.52" height="1.51" fill="#ef5454"/>
    <rect x="34.09" y="28.03" width="1.52" height="1.52" fill="#fff"/>
    <rect x="34.09" y="20.46" width="1.52" height="1.51" fill="#fff"/>
    <rect x="34.09" y="18.94" width="1.52" height="1.52" fill="#aa0707"/>
    <rect x="34.09" y="17.43" width="1.52" height="1.51" fill="#cc1d1d"/>
    <rect x="34.09" y="15.91" width="1.52" height="1.51" fill="#cc1d1d"/>
    <rect x="34.09" y="14.4" width="1.52" height="1.52" fill="#cc1d1d"/>
    <rect x="34.09" y="12.88" width="1.52" height="1.51" fill="#cc1d1d"/>
    <rect x="34.09" y="11.37" width="1.52" height="1.52" fill="#cc1d1d"/>
    <rect x="34.09" y="9.85" width="1.52" height="1.51" fill="#ef5454"/>
    <rect x="34.09" y="8.34" width="1.52" height="1.52" fill="#fff"/>
    <rect x="32.57" y="38.63" width="1.51" height="1.52" fill="#fff"/>
    <rect x="32.57" y="37.12" width="1.51" height="1.51" fill="#aa0707"/>
    <rect x="32.57" y="35.6" width="1.51" height="1.52" fill="#cc1d1d"/>
    <rect x="32.57" y="34.09" width="1.51" height="1.51" fill="#cc1d1d"/>
    <rect x="32.57" y="32.57" width="1.51" height="1.51" fill="#cc1d1d"/>
    <rect x="32.57" y="31.06" width="1.51" height="1.52" fill="#cc1d1d"/>
    <rect x="32.57" y="29.54" width="1.51" height="1.51" fill="#cc1d1d"/>
    <rect x="32.57" y="28.03" width="1.51" height="1.52" fill="#ef5454"/>
    <rect x="32.57" y="26.51" width="1.51" height="1.51" fill="#fff"/>
    <rect x="32.57" y="21.97" width="1.51" height="1.52" fill="#fff"/>
    <rect x="32.57" y="20.46" width="1.51" height="1.51" fill="#aa0707"/>
    <rect x="32.57" y="18.94" width="1.51" height="1.52" fill="#cc1d1d"/>
    <rect x="32.57" y="17.43" width="1.51" height="1.51" fill="#cc1d1d"/>
    <rect x="32.57" y="15.91" width="1.51" height="1.51" fill="#cc1d1d"/>
    <rect x="32.57" y="14.4" width="1.51" height="1.52" fill="#cc1d1d"/>
    <rect x="32.57" y="12.88" width="1.51" height="1.51" fill="#cc1d1d"/>
    <rect x="32.57" y="11.37" width="1.51" height="1.52" fill="#ef5454"/>
    <rect x="32.57" y="9.85" width="1.51" height="1.51" fill="#fff"/>
    <rect x="31.06" y="37.12" width="1.51" height="1.51" fill="#fff"/>
    <rect x="31.06" y="35.6" width="1.51" height="1.52" fill="#aa0707"/>
    <rect x="31.06" y="34.09" width="1.51" height="1.51" fill="#cc1d1d"/>
    <rect x="31.06" y="32.57" width="1.51" height="1.51" fill="#cc1d1d"/>
    <rect x="31.06" y="31.06" width="1.51" height="1.52" fill="#cc1d1d"/>
    <rect x="31.06" y="29.54" width="1.51" height="1.51" fill="#cc1d1d"/>
    <rect x="31.06" y="28.03" width="1.51" height="1.52" fill="#cc1d1d"/>
    <rect x="31.06" y="26.51" width="1.51" height="1.51" fill="#ef5454"/>
    <rect x="31.06" y="25" width="1.51" height="1.52" fill="#fff"/>
    <rect x="31.06" y="23.49" width="1.51" height="1.51" fill="#fff"/>
    <rect x="31.06" y="21.97" width="1.51" height="1.52" fill="#aa0707"/>
    <rect x="31.06" y="20.46" width="1.51" height="1.51" fill="#cc1d1d"/>
    <rect x="31.06" y="18.94" width="1.51" height="1.52" fill="#cc1d1d"/>
    <rect x="31.06" y="17.43" width="1.51" height="1.51" fill="#cc1d1d"/>
    <rect x="31.06" y="15.91" width="1.51" height="1.51" fill="#cc1d1d"/>
    <rect x="31.06" y="14.4" width="1.51" height="1.52" fill="#cc1d1d"/>
    <rect x="31.06" y="12.88" width="1.51" height="1.51" fill="#ef5454"/>
    <rect x="31.06" y="11.37" width="1.51" height="1.52" fill="#fff"/>
    <rect x="29.54" y="35.6" width="1.52" height="1.52" fill="#fff"/>
    <rect x="29.54" y="34.09" width="1.52" height="1.51" fill="#aa0707"/>
    <rect x="29.54" y="32.57" width="1.52" height="1.51" fill="#cc1d1d"/>
    <rect x="29.54" y="31.06" width="1.52" height="1.52" fill="#cc1d1d"/>
    <rect x="29.54" y="29.54" width="1.52" height="1.51" fill="#cc1d1d"/>
    <rect x="29.54" y="28.03" width="1.52" height="1.52" fill="#cc1d1d"/>
    <rect x="29.54" y="26.51" width="1.52" height="1.51" fill="#cc1d1d"/>
    <rect x="29.54" y="25" width="1.52" height="1.52" fill="#aa0707"/>
    <rect x="29.54" y="23.49" width="1.52" height="1.51" fill="#aa0707"/>
    <rect x="29.54" y="21.97" width="1.52" height="1.52" fill="#cc1d1d"/>
    <rect x="29.54" y="20.46" width="1.52" height="1.51" fill="#cc1d1d"/>
    <rect x="29.54" y="18.94" width="1.52" height="1.52" fill="#cc1d1d"/>
    <rect x="29.54" y="17.43" width="1.52" height="1.51" fill="#cc1d1d"/>
    <rect x="29.54" y="15.91" width="1.52" height="1.51" fill="#cc1d1d"/>
    <rect x="29.54" y="14.4" width="1.52" height="1.52" fill="#ef5454"/>
    <rect x="29.54" y="12.88" width="1.52" height="1.51" fill="#fff"/>
    <rect x="28.03" y="34.09" width="1.51" height="1.51" fill="#fff"/>
    <rect x="28.03" y="32.57" width="1.51" height="1.51" fill="#aa0707"/>
    <rect x="28.03" y="31.06" width="1.51" height="1.52" fill="#cc1d1d"/>
    <rect x="28.03" y="29.54" width="1.51" height="1.51" fill="#cc1d1d"/>
    <rect x="28.03" y="28.03" width="1.51" height="1.52" fill="#cc1d1d"/>
    <rect x="28.03" y="26.51" width="1.51" height="1.51" fill="#cc1d1d"/>
    <rect x="28.03" y="25" width="1.51" height="1.52" fill="#cc1d1d"/>
    <rect x="28.03" y="23.49" width="1.51" height="1.51" fill="#cc1d1d"/>
    <rect x="28.03" y="21.97" width="1.51" height="1.52" fill="#cc1d1d"/>
    <rect x="28.03" y="20.46" width="1.51" height="1.51" fill="#cc1d1d"/>
    <rect x="28.03" y="18.94" width="1.51" height="1.52" fill="#cc1d1d"/>
    <rect x="28.03" y="17.43" width="1.51" height="1.51" fill="#cc1d1d"/>
    <rect x="28.03" y="15.91" width="1.51" height="1.51" fill="#ef5454"/>
    <rect x="28.03" y="14.4" width="1.51" height="1.52" fill="#fff"/>
    <rect x="26.51" y="32.57" width="1.52" height="1.51" fill="#fff"/>
    <rect x="26.51" y="31.06" width="1.52" height="1.52" fill="#aa0707"/>
    <rect x="26.51" y="29.54" width="1.52" height="1.51" fill="#cc1d1d"/>
    <rect x="26.51" y="28.03" width="1.52" height="1.52" fill="#cc1d1d"/>
    <rect x="26.51" y="26.51" width="1.52" height="1.51" fill="#cc1d1d"/>
    <rect x="26.51" y="25" width="1.52" height="1.52" fill="#cc1d1d"/>
    <rect x="26.51" y="23.49" width="1.52" height="1.51" fill="#cc1d1d"/>
    <rect x="26.51" y="21.97" width="1.52" height="1.52" fill="#cc1d1d"/>
    <rect x="26.51" y="20.46" width="1.52" height="1.51" fill="#cc1d1d"/>
    <rect x="26.51" y="18.94" width="1.52" height="1.52" fill="#cc1d1d"/>
    <rect x="26.51" y="17.43" width="1.52" height="1.51" fill="#ef5454"/>
    <rect x="26.51" y="15.91" width="1.52" height="1.51" fill="#fff"/>
    <rect x="25" y="31.06" width="1.51" height="1.52" fill="#fff"/>
    <rect x="25" y="29.54" width="1.51" height="1.51" fill="#aa0707"/>
    <rect x="25" y="28.03" width="1.51" height="1.52" fill="#cc1d1d"/>
    <rect x="25" y="26.51" width="1.51" height="1.51" fill="#cc1d1d"/>
    <rect x="25" y="25" width="1.51" height="1.52" fill="#cc1d1d"/>
    <rect x="25" y="23.49" width="1.51" height="1.51" fill="#cc1d1d"/>
    <rect x="25" y="21.97" width="1.51" height="1.52" fill="#cc1d1d"/>
    <rect x="25" y="20.46" width="1.51" height="1.51" fill="#cc1d1d"/>
    <rect x="25" y="18.94" width="1.51" height="1.52" fill="#ef5454"/>
    <rect x="25" y="17.43" width="1.51" height="1.51" fill="#fff"/>
    <rect x="23.49" y="31.06" width="1.52" height="1.52" fill="#fff"/>
    <rect x="23.49" y="29.54" width="1.52" height="1.51" fill="#aa0707"/>
    <rect x="23.49" y="28.03" width="1.52" height="1.52" fill="#cc1d1d"/>
    <rect x="23.49" y="26.51" width="1.52" height="1.51" fill="#cc1d1d"/>
    <rect x="23.49" y="25" width="1.52" height="1.52" fill="#cc1d1d"/>
    <rect x="23.49" y="23.49" width="1.52" height="1.51" fill="#cc1d1d"/>
    <rect x="23.49" y="21.97" width="1.52" height="1.52" fill="#cc1d1d"/>
    <rect x="23.49" y="20.46" width="1.52" height="1.51" fill="#cc1d1d"/>
    <rect x="23.49" y="18.94" width="1.52" height="1.52" fill="#ef5454"/>
    <rect x="23.49" y="17.43" width="1.52" height="1.51" fill="#fff"/>
    <rect x="21.97" y="32.57" width="1.51" height="1.51" fill="#fff"/>
    <rect x="21.97" y="31.06" width="1.51" height="1.52" fill="#aa0707"/>
    <rect x="21.97" y="29.54" width="1.51" height="1.51" fill="#cc1d1d"/>
    <rect x="21.97" y="28.03" width="1.51" height="1.52" fill="#cc1d1d"/>
    <rect x="21.97" y="26.51" width="1.51" height="1.51" fill="#cc1d1d"/>
    <rect x="21.97" y="25" width="1.51" height="1.52" fill="#cc1d1d"/>
    <rect x="21.97" y="23.49" width="1.51" height="1.51" fill="#cc1d1d"/>
    <rect x="21.97" y="21.97" width="1.51" height="1.52" fill="#cc1d1d"/>
    <rect x="21.97" y="20.46" width="1.51" height="1.51" fill="#cc1d1d"/>
    <rect x="21.97" y="18.94" width="1.51" height="1.52" fill="#cc1d1d"/>
    <rect x="21.97" y="17.43" width="1.51" height="1.51" fill="#ef5454"/>
    <rect x="21.97" y="15.91" width="1.51" height="1.51" fill="#fff"/>
    <rect x="20.46" y="34.09" width="1.52" height="1.51" fill="#fff"/>
    <rect x="20.46" y="32.57" width="1.52" height="1.51" fill="#aa0707"/>
    <rect x="20.46" y="31.06" width="1.52" height="1.52" fill="#cc1d1d"/>
    <rect x="20.46" y="29.54" width="1.52" height="1.51" fill="#cc1d1d"/>
    <rect x="20.46" y="28.03" width="1.52" height="1.52" fill="#cc1d1d"/>
    <rect x="20.46" y="26.51" width="1.52" height="1.51" fill="#cc1d1d"/>
    <rect x="20.46" y="25" width="1.52" height="1.52" fill="#cc1d1d"/>
    <rect x="20.46" y="23.49" width="1.52" height="1.51" fill="#cc1d1d"/>
    <rect x="20.46" y="21.97" width="1.52" height="1.52" fill="#cc1d1d"/>
    <rect x="20.46" y="20.46" width="1.52" height="1.51" fill="#cc1d1d"/>
    <rect x="20.46" y="18.94" width="1.52" height="1.52" fill="#cc1d1d"/>
    <rect x="20.46" y="17.43" width="1.52" height="1.51" fill="#cc1d1d"/>
    <rect x="20.46" y="15.91" width="1.52" height="1.51" fill="#ef5454"/>
    <rect x="20.46" y="14.4" width="1.52" height="1.52" fill="#fff"/>
    <rect x="18.94" y="35.6" width="1.51" height="1.52" fill="#fff"/>
    <rect x="18.94" y="34.09" width="1.51" height="1.51" fill="#aa0707"/>
    <rect x="18.94" y="32.57" width="1.51" height="1.51" fill="#cc1d1d"/>
    <rect x="18.94" y="31.06" width="1.51" height="1.52" fill="#cc1d1d"/>
    <rect x="18.94" y="29.54" width="1.51" height="1.51" fill="#cc1d1d"/>
    <rect x="18.94" y="28.03" width="1.51" height="1.52" fill="#cc1d1d"/>
    <rect x="18.94" y="26.51" width="1.51" height="1.51" fill="#cc1d1d"/>
    <rect x="18.94" y="25" width="1.51" height="1.52" fill="#aa0707"/>
    <rect x="18.94" y="23.49" width="1.51" height="1.51" fill="#aa0707"/>
    <rect x="18.94" y="21.97" width="1.51" height="1.52" fill="#cc1d1d"/>
    <rect x="18.94" y="20.46" width="1.51" height="1.51" fill="#cc1d1d"/>
    <rect x="18.94" y="18.94" width="1.51" height="1.52" fill="#cc1d1d"/>
    <rect x="18.94" y="17.43" width="1.51" height="1.51" fill="#cc1d1d"/>
    <rect x="18.94" y="15.91" width="1.51" height="1.51" fill="#cc1d1d"/>
    <rect x="18.94" y="14.4" width="1.51" height="1.52" fill="#ef5454"/>
    <rect x="18.94" y="12.88" width="1.51" height="1.51" fill="#fff"/>
    <rect x="17.43" y="37.12" width="1.52" height="1.51" fill="#fff"/>
    <rect x="17.43" y="35.6" width="1.52" height="1.52" fill="#aa0707"/>
    <rect x="17.43" y="34.09" width="1.52" height="1.51" fill="#cc1d1d"/>
    <rect x="17.43" y="32.57" width="1.52" height="1.51" fill="#cc1d1d"/>
    <rect x="17.43" y="31.06" width="1.52" height="1.52" fill="#cc1d1d"/>
    <rect x="17.43" y="29.54" width="1.52" height="1.51" fill="#cc1d1d"/>
    <rect x="17.43" y="28.03" width="1.52" height="1.52" fill="#cc1d1d"/>
    <rect x="17.43" y="26.51" width="1.52" height="1.51" fill="#ef5454"/>
    <rect x="17.43" y="25" width="1.52" height="1.52" fill="#fff"/>
    <rect x="17.43" y="23.49" width="1.52" height="1.51" fill="#fff"/>
    <rect x="17.43" y="21.97" width="1.52" height="1.52" fill="#aa0707"/>
    <rect x="17.43" y="20.46" width="1.52" height="1.51" fill="#cc1d1d"/>
    <rect x="17.43" y="18.94" width="1.52" height="1.52" fill="#cc1d1d"/>
    <rect x="17.43" y="17.43" width="1.52" height="1.51" fill="#cc1d1d"/>
    <rect x="17.43" y="15.91" width="1.52" height="1.51" fill="#cc1d1d"/>
    <rect x="17.43" y="14.4" width="1.52" height="1.52" fill="#cc1d1d"/>
    <rect x="17.43" y="12.88" width="1.52" height="1.51" fill="#ef5454"/>
    <rect x="17.43" y="11.37" width="1.52" height="1.52" fill="#fff"/>
    <rect x="15.91" y="38.63" width="1.51" height="1.52" fill="#fff"/>
    <rect x="15.91" y="37.12" width="1.51" height="1.51" fill="#aa0707"/>
    <rect x="15.91" y="35.6" width="1.51" height="1.52" fill="#cc1d1d"/>
    <rect x="15.91" y="34.09" width="1.51" height="1.51" fill="#cc1d1d"/>
    <rect x="15.91" y="32.57" width="1.51" height="1.51" fill="#cc1d1d"/>
    <rect x="15.91" y="31.06" width="1.51" height="1.52" fill="#cc1d1d"/>
    <rect x="15.91" y="29.54" width="1.51" height="1.51" fill="#cc1d1d"/>
    <rect x="15.91" y="28.03" width="1.51" height="1.52" fill="#ef5454"/>
    <rect x="15.91" y="26.51" width="1.51" height="1.51" fill="#fff"/>
    <rect x="15.91" y="21.97" width="1.51" height="1.52" fill="#fff"/>
    <rect x="15.91" y="20.46" width="1.51" height="1.51" fill="#aa0707"/>
    <rect x="15.91" y="18.94" width="1.51" height="1.52" fill="#cc1d1d"/>
    <rect x="15.91" y="17.43" width="1.51" height="1.51" fill="#cc1d1d"/>
    <rect x="15.91" y="15.91" width="1.51" height="1.51" fill="#cc1d1d"/>
    <rect x="15.91" y="14.4" width="1.51" height="1.52" fill="#cc1d1d"/>
    <rect x="15.91" y="12.88" width="1.51" height="1.51" fill="#cc1d1d"/>
    <rect x="15.91" y="11.37" width="1.51" height="1.52" fill="#ef5454"/>
    <rect x="15.91" y="9.85" width="1.51" height="1.51" fill="#fff"/>
    <rect x="14.4" y="40.15" width="1.51" height="1.51" fill="#fff"/>
    <rect x="14.4" y="38.63" width="1.51" height="1.52" fill="#aa0707"/>
    <rect x="14.4" y="37.12" width="1.51" height="1.51" fill="#cc1d1d"/>
    <rect x="14.4" y="35.6" width="1.51" height="1.52" fill="#cc1d1d"/>
    <rect x="14.4" y="34.09" width="1.51" height="1.51" fill="#cc1d1d"/>
    <rect x="14.4" y="32.57" width="1.51" height="1.51" fill="#cc1d1d"/>
    <rect x="14.4" y="31.06" width="1.51" height="1.52" fill="#cc1d1d"/>
    <rect x="14.4" y="29.54" width="1.51" height="1.51" fill="#ef5454"/>
    <rect x="14.4" y="28.03" width="1.51" height="1.52" fill="#fff"/>
    <rect x="14.4" y="20.46" width="1.51" height="1.51" fill="#fff"/>
    <rect x="14.4" y="18.94" width="1.51" height="1.52" fill="#aa0707"/>
    <rect x="14.4" y="17.43" width="1.51" height="1.51" fill="#cc1d1d"/>
    <rect x="14.4" y="15.91" width="1.51" height="1.51" fill="#cc1d1d"/>
    <rect x="14.4" y="14.4" width="1.51" height="1.52" fill="#cc1d1d"/>
    <rect x="14.4" y="12.88" width="1.51" height="1.51" fill="#cc1d1d"/>
    <rect x="14.4" y="11.37" width="1.51" height="1.52" fill="#cc1d1d"/>
    <rect x="14.4" y="9.85" width="1.51" height="1.51" fill="#ef5454"/>
    <rect x="14.4" y="8.34" width="1.51" height="1.52" fill="#fff"/>
    <rect x="12.88" y="41.66" width="1.52" height="1.52" fill="#fff"/>
    <rect x="12.88" y="40.15" width="1.52" height="1.51" fill="#aa0707"/>
    <rect x="12.88" y="38.63" width="1.52" height="1.52" fill="#cc1d1d"/>
    <rect x="12.88" y="37.12" width="1.52" height="1.51" fill="#cc1d1d"/>
    <rect x="12.88" y="35.6" width="1.52" height="1.52" fill="#cc1d1d"/>
    <rect x="12.88" y="34.09" width="1.52" height="1.51" fill="#cc1d1d"/>
    <rect x="12.88" y="32.57" width="1.52" height="1.51" fill="#cc1d1d"/>
    <rect x="12.88" y="31.06" width="1.52" height="1.52" fill="#ef5454"/>
    <rect x="12.88" y="29.54" width="1.52" height="1.51" fill="#fff"/>
    <rect x="12.88" y="18.94" width="1.52" height="1.52" fill="#fff"/>
    <rect x="12.88" y="17.43" width="1.52" height="1.51" fill="#aa0707"/>
    <rect x="12.88" y="15.91" width="1.52" height="1.51" fill="#cc1d1d"/>
    <rect x="12.88" y="14.4" width="1.52" height="1.52" fill="#cc1d1d"/>
    <rect x="12.88" y="12.88" width="1.52" height="1.51" fill="#cc1d1d"/>
    <rect x="12.88" y="11.37" width="1.52" height="1.52" fill="#cc1d1d"/>
    <rect x="12.88" y="9.85" width="1.52" height="1.51" fill="#cc1d1d"/>
    <rect x="12.88" y="8.34" width="1.52" height="1.52" fill="#ef5454"/>
    <rect x="12.88" y="6.82" width="1.52" height="1.51" fill="#fff"/>
    <rect x="11.37" y="43.18" width="1.51" height="1.51" fill="#fff"/>
    <rect x="11.37" y="41.66" width="1.51" height="1.52" fill="#aa0707"/>
    <rect x="11.37" y="40.15" width="1.51" height="1.51" fill="#cc1d1d"/>
    <rect x="11.37" y="38.63" width="1.51" height="1.52" fill="#cc1d1d"/>
    <rect x="11.37" y="37.12" width="1.51" height="1.51" fill="#cc1d1d"/>
    <rect x="11.37" y="35.6" width="1.51" height="1.52" fill="#cc1d1d"/>
    <rect x="11.37" y="34.09" width="1.51" height="1.51" fill="#cc1d1d"/>
    <rect x="11.37" y="32.57" width="1.51" height="1.51" fill="#ef5454"/>
    <rect x="11.37" y="31.06" width="1.51" height="1.52" fill="#fff"/>
    <rect x="11.37" y="17.43" width="1.51" height="1.51" fill="#fff"/>
    <rect x="11.37" y="15.91" width="1.51" height="1.51" fill="#aa0707"/>
    <rect x="11.37" y="14.4" width="1.51" height="1.52" fill="#cc1d1d"/>
    <rect x="11.37" y="12.88" width="1.51" height="1.51" fill="#cc1d1d"/>
    <rect x="11.37" y="11.37" width="1.51" height="1.52" fill="#cc1d1d"/>
    <rect x="11.37" y="9.85" width="1.51" height="1.51" fill="#cc1d1d"/>
    <rect x="11.37" y="8.34" width="1.51" height="1.52" fill="#cc1d1d"/>
    <rect x="11.37" y="6.82" width="1.51" height="1.51" fill="#ef5454"/>
    <rect x="11.37" y="5.31" width="1.51" height="1.52" fill="#fff"/>
    <rect x="9.85" y="44.69" width="1.52" height="1.52" fill="#fff"/>
    <rect x="9.85" y="43.18" width="1.52" height="1.51" fill="#aa0707"/>
    <rect x="9.85" y="41.66" width="1.52" height="1.52" fill="#cc1d1d"/>
    <rect x="9.85" y="40.15" width="1.52" height="1.51" fill="#cc1d1d"/>
    <rect x="9.85" y="38.63" width="1.52" height="1.52" fill="#cc1d1d"/>
    <rect x="9.85" y="37.12" width="1.52" height="1.51" fill="#cc1d1d"/>
    <rect x="9.85" y="35.6" width="1.52" height="1.52" fill="#cc1d1d"/>
    <rect x="9.85" y="34.09" width="1.52" height="1.51" fill="#ef5454"/>
    <rect x="9.85" y="32.57" width="1.52" height="1.51" fill="#fff"/>
    <rect x="9.85" y="15.91" width="1.52" height="1.51" fill="#fff"/>
    <rect x="9.85" y="14.4" width="1.52" height="1.52" fill="#aa0707"/>
    <rect x="9.85" y="12.88" width="1.52" height="1.51" fill="#cc1d1d"/>
    <rect x="9.85" y="11.37" width="1.52" height="1.52" fill="#cc1d1d"/>
    <rect x="9.85" y="9.85" width="1.52" height="1.51" fill="#cc1d1d"/>
    <rect x="9.85" y="8.34" width="1.52" height="1.52" fill="#cc1d1d"/>
    <rect x="9.85" y="6.82" width="1.52" height="1.51" fill="#cc1d1d"/>
    <rect x="9.85" y="5.31" width="1.52" height="1.52" fill="#ef5454"/>
    <rect x="9.85" y="3.8" width="1.52" height="1.51" fill="#fff"/>
    <rect x="8.34" y="46.21" width="1.51" height="1.51" fill="#fff"/>
    <rect x="8.34" y="44.69" width="1.51" height="1.52" fill="#aa0707"/>
    <rect x="8.34" y="43.18" width="1.51" height="1.51" fill="#cc1d1d"/>
    <rect x="8.34" y="41.66" width="1.51" height="1.52" fill="#cc1d1d"/>
    <rect x="8.34" y="40.15" width="1.51" height="1.51" fill="#cc1d1d"/>
    <rect x="8.34" y="38.63" width="1.51" height="1.52" fill="#cc1d1d"/>
    <rect x="8.34" y="37.12" width="1.51" height="1.51" fill="#cc1d1d"/>
    <rect x="8.34" y="35.6" width="1.51" height="1.52" fill="#ef5454"/>
    <rect x="8.34" y="34.09" width="1.51" height="1.51" fill="#fff"/>
    <rect x="8.34" y="14.4" width="1.51" height="1.52" fill="#fff"/>
    <rect x="8.34" y="12.88" width="1.51" height="1.51" fill="#aa0707"/>
    <rect x="8.34" y="11.37" width="1.51" height="1.52" fill="#cc1d1d"/>
    <rect x="8.34" y="9.85" width="1.51" height="1.51" fill="#cc1d1d"/>
    <rect x="8.34" y="8.34" width="1.51" height="1.52" fill="#cc1d1d"/>
    <rect x="8.34" y="6.82" width="1.51" height="1.51" fill="#cc1d1d"/>
    <rect x="8.34" y="5.31" width="1.51" height="1.52" fill="#cc1d1d"/>
    <rect x="8.34" y="3.8" width="1.51" height="1.51" fill="#ef5454"/>
    <rect x="8.34" y="2.28" width="1.51" height="1.52" fill="#fff"/>
    <rect x="6.82" y="46.21" width="1.52" height="1.51" fill="#fff"/>
    <rect x="6.82" y="44.69" width="1.52" height="1.52" fill="#aa0707"/>
    <rect x="6.82" y="43.18" width="1.52" height="1.51" fill="#cc1d1d"/>
    <rect x="6.82" y="41.66" width="1.52" height="1.52" fill="#cc1d1d"/>
    <rect x="6.82" y="40.15" width="1.52" height="1.51" fill="#cc1d1d"/>
    <rect x="6.82" y="38.63" width="1.52" height="1.52" fill="#cc1d1d"/>
    <rect x="6.82" y="37.12" width="1.52" height="1.51" fill="#ef5454"/>
    <rect x="6.82" y="35.6" width="1.52" height="1.52" fill="#fff"/>
    <rect x="6.82" y="12.88" width="1.52" height="1.51" fill="#fff"/>
    <rect x="6.82" y="11.37" width="1.52" height="1.52" fill="#aa0707"/>
    <rect x="6.82" y="9.85" width="1.52" height="1.51" fill="#cc1d1d"/>
    <rect x="6.82" y="8.34" width="1.52" height="1.52" fill="#cc1d1d"/>
    <rect x="6.82" y="6.82" width="1.52" height="1.51" fill="#cc1d1d"/>
    <rect x="6.82" y="5.31" width="1.52" height="1.52" fill="#cc1d1d"/>
    <rect x="6.82" y="3.8" width="1.52" height="1.51" fill="#ef5454"/>
    <rect x="6.82" y="2.28" width="1.52" height="1.52" fill="#fff"/>
    <rect x="5.31" y="44.69" width="1.51" height="1.52" fill="#fff"/>
    <rect x="5.31" y="43.18" width="1.51" height="1.51" fill="#aa0707"/>
    <rect x="5.31" y="41.66" width="1.51" height="1.52" fill="#cc1d1d"/>
    <rect x="5.31" y="40.15" width="1.51" height="1.51" fill="#cc1d1d"/>
    <rect x="5.31" y="38.63" width="1.51" height="1.52" fill="#ef5454"/>
    <rect x="5.31" y="37.12" width="1.51" height="1.51" fill="#fff"/>
    <rect x="5.31" y="11.37" width="1.51" height="1.52" fill="#fff"/>
    <rect x="5.31" y="9.85" width="1.51" height="1.51" fill="#aa0707"/>
    <rect x="5.31" y="8.34" width="1.51" height="1.52" fill="#cc1d1d"/>
    <rect x="5.31" y="6.82" width="1.51" height="1.51" fill="#cc1d1d"/>
    <rect x="5.31" y="5.31" width="1.51" height="1.52" fill="#ef5454"/>
    <rect x="5.31" y="3.8" width="1.51" height="1.51" fill="#fff"/>
    <rect x="3.79" y="43.18" width="1.52" height="1.51" fill="#fff"/>
    <rect x="3.79" y="41.66" width="1.52" height="1.52" fill="#aa0707"/>
    <rect x="3.79" y="40.15" width="1.52" height="1.51" fill="#ef5454"/>
    <rect x="3.79" y="38.63" width="1.52" height="1.52" fill="#fff"/>
    <rect x="3.79" y="9.85" width="1.52" height="1.51" fill="#fff"/>
    <rect x="3.79" y="8.34" width="1.52" height="1.52" fill="#aa0707"/>
    <rect x="3.79" y="6.82" width="1.52" height="1.51" fill="#ef5454"/>
    <rect x="3.79" y="5.31" width="1.52" height="1.52" fill="#fff"/>
    <rect x="2.28" y="41.66" width="1.51" height="1.52" fill="#fff"/>
    <rect x="2.28" y="40.15" width="1.51" height="1.51" fill="#fff"/>
    <rect x="2.28" y="8.34" width="1.51" height="1.52" fill="#fff"/>
    <rect x="2.28" y="6.82" width="1.51" height="1.51" fill="#fff"/>
  </g>
</svg>
