<svg id="Capa_1" data-name="Capa 1" xmlns="http://www.w3.org/2000/svg" xmlns:xlink="http://www.w3.org/1999/xlink" width="50" height="50" viewBox="0 0 50 50">
  <defs>
    <clipPath id="clip-path">
      <polygon points="24.04 49.76 1.25 39.47 1.41 9.18 24.2 19.46 24.04 49.76" fill="none"/>
    </clipPath>
    <clipPath id="clip-path-2">
      <polygon points="24.2 19.46 1.41 9.18 25.96 0.24 48.74 10.53 24.2 19.46" fill="none"/>
    </clipPath>
    <clipPath id="clip-path-3">
      <polygon points="48.74 10.53 48.58 40.83 24.04 49.76 24.2 19.46 48.74 10.53" fill="none"/>
    </clipPath>
  </defs>
  <g id="Figment_lido">
    <g style="isolation: isolate">
      <g>
        <polygon points="24.04 49.76 1.25 39.47 1.41 9.18 24.2 19.46 24.04 49.76" fill="#c0bfbf"/>
        <g style="isolation: isolate">
          <g clip-path="url(#clip-path)">
            <g>
              <path d="M14.14,38.5c0-.24,0-.49,0-.73,0-.08.09-.14.16-.16l4-1.07.54-.14c0,.33,0,.63,0,.93s0,.36,0,.53a.22.22,0,0,1-.1.19l-4.55,1.21-.07,0V38.5m-1.31-9.69A.53.53,0,0,1,13,29l2.9,3.61L18.64,36l.14.18-1.44.38-3.11.83h-.1l-.06,0a.47.47,0,0,1-.18-.17L7.15,28.76,7,28.57c.34-.09.66-.19,1-.26H8s.09.07.14.13l0,.05,5.65,7.07.05.06,0,0a.83.83,0,0,0,.16.13.39.39,0,0,0,.24,0c.68-.2,1.37-.36,2.05-.54l.24-.11-4.92-6.1c.37-.1.7-.2,1-.27a.07.07,0,0,1,.06,0m5,3.64c0-.53,0-1,0-1.48a.15.15,0,0,1,.06-.13l1-.25c0,.33,0,.63,0,.94s0,.36,0,.53l-.05.11-1,.28m-7.53-4.89c0-.56,0-1.12,0-1.68,0,0,0,0,0-.09.34.42.66.81,1,1.23a.71.71,0,0,1,.1.33c0,.23,0,.47,0,.7s0,.46,0,.68v0a.61.61,0,0,0,.18.47l4.46,5.52.2.26c-.4.1-.77.2-1.15.28h0a.29.29,0,0,1-.11-.11q-2.29-2.84-4.58-5.69a.51.51,0,0,1-.09-.27c0-.56,0-1.12,0-1.67m4-.07v-.84l.18.19c1,1.23,2,2.47,3,3.69a.74.74,0,0,1,.18.48v0c0,.17,0,.35,0,.54v.77l-1.21-1.5c-.65-.81-1.29-1.62-2-2.43a.59.59,0,0,1-.16-.41v0c0-.16,0-.32,0-.49M11.64,28c0-.24,0-.49,0-.73a.13.13,0,0,1,.1-.11l2.45-.67c0,.27,0,.52,0,.77s0,.49,0,.72c0,.06,0,.13-.08.13l-2.46.65V28m2.5,7.53a.73.73,0,0,1-.16-.15C12.2,33.2,10.43,31,8.63,28.77a1.88,1.88,0,0,1-.5-1.48c0-.85,0-1.75,0-2.63,0-.17,0-.24.15-.27l2.17-.56a.17.17,0,0,1,.12,0,.3.3,0,0,1,.13.09c.29.33.56.69.87,1.07-.44.12-.84.24-1.25.33-.12,0-.17.11-.17.3,0,1.17,0,2.34,0,3.52a.68.68,0,0,0,.18.5l4.44,5.52.15.21c-.26.06-.49.14-.74.18h0M5.74,21.65s0,0,0-.12c.33.42.64.8.94,1.2a.86.86,0,0,1,.07.34c0,.86,0,1.71,0,2.57l0,2.57a.73.73,0,0,0,.18.54q3.45,4.29,6.89,8.6a.65.65,0,0,1,.17.45v0c0,.16,0,.32,0,.49s0,.55,0,.85l-.75-.93L5.83,29.09a.56.56,0,0,1-.16-.39c0-1.18,0-2.35,0-3.52l0-3.53M7,23.12c0-.16,0-.24.17-.26L10.42,22l.13,0c0,.26,0,.5,0,.74s0,.48,0,.71a.2.2,0,0,1-.15.17l-2.19.58c-.14,0-.19.12-.19.33s0,.52,0,.77V26c0,.52,0,1,0,1.55v0c0,.31-.06.46-.29.49a6.13,6.13,0,0,0-.76.2c0-.12,0-.19,0-.26,0-1.23,0-2.45,0-3.67,0-.41,0-.81,0-1.22v0m3.76-.33v-.74l2.11,2.62c-.35.09-.65.18-1,.25h-.09a.28.28,0,0,1-.1-.09c-.29-.35-.58-.71-.86-1.08a.43.43,0,0,1-.1-.25c0-.23,0-.46,0-.7m-.08-2.67,0,0a.79.79,0,0,1,.13.13l7.94,9.93a1.18,1.18,0,0,1,.08.12c-.33.09-.65.18-1,.24h0a.62.62,0,0,1-.17-.16l-3.18-4a.63.63,0,0,0-.18-.16l-.09,0h-.09c-.78.22-1.57.42-2.36.65a.16.16,0,0,1-.1,0h-.09a.42.42,0,0,1-.15-.13l0-.05c-.28-.37-.58-.73-.91-1.14.71-.2,1.38-.38,2.06-.55l.46-.13c.08,0,.12-.06.12-.11s0-.12-.11-.22l-1.74-2.17c-.16-.2-.31-.41-.47-.58a.42.42,0,0,0-.16-.11l0,0h-.1l-3.43.91a.28.28,0,0,1-.18,0h0a.47.47,0,0,1-.18-.17c-.27-.36-.55-.69-.85-1.07l.62-.17,4-1.08h.16m0-.26a.22.22,0,0,0-.16,0q-2.38.64-4.77,1.26c-.1,0-.14.09-.14.25,0,2.46,0,4.9-.07,7.35a.61.61,0,0,0,.15.43l2,2.49,6.22,7.73c.06.08.11.15.18.17a.11.11,0,0,0,.11,0l4.74-1.27A.25.25,0,0,0,19,38c0-.5,0-1,0-1.54a.76.76,0,0,0-.18-.51q-1.81-2.25-3.62-4.51L13,28.71l1.06-.29a.2.2,0,0,1,.17,0,.48.48,0,0,1,.16.14l3.21,4a.35.35,0,0,0,.15.13.12.12,0,0,0,.12,0c.34-.1.68-.2,1-.27.12,0,.16-.12.16-.3,0-.48,0-1,0-1.44a.78.78,0,0,0-.2-.56L10.82,20a.52.52,0,0,0-.18-.16" opacity="0.8"/>
              <path d="M12.83,28.81a.07.07,0,0,0-.06,0c-.34.07-.67.17-1,.27l4.92,6.1-.24.11c-.68.18-1.37.34-2.05.54a.39.39,0,0,1-.24,0,.83.83,0,0,1-.16-.13l0,0-.05-.06L8.22,28.5l0-.05c0-.06-.1-.12-.14-.13H8c-.34.07-.66.17-1,.26l.14.19,6.74,8.42a.47.47,0,0,0,.18.17l.06,0h.1l3.11-.83,1.44-.38L18.64,36l-2.72-3.4L13,29a.53.53,0,0,0-.19-.15" fill="#ffff49" opacity="0.8"/>
              <path d="M10.64,20.12h-.16l-4,1.08-.62.17c.3.38.58.71.85,1.07a.47.47,0,0,0,.18.17h0a.28.28,0,0,0,.18,0l3.43-.91h.1l0,0a.42.42,0,0,1,.16.11c.16.17.31.38.47.58L13,24.58c.08.1.12.17.11.22s0,.08-.12.11l-.46.13c-.68.17-1.35.35-2.06.55.33.41.63.77.91,1.14l0,.05a.42.42,0,0,0,.15.13h.09a.16.16,0,0,0,.1,0c.79-.23,1.58-.43,2.36-.65h.09l.09,0a.63.63,0,0,1,.18.16l3.18,4a.62.62,0,0,0,.17.16h0c.32-.06.64-.15,1-.24a1.18,1.18,0,0,0-.08-.12l-7.94-9.93a.79.79,0,0,0-.13-.13l0,0" fill="#ffff49" opacity="0.8"/>
              <path d="M17.84,30.57h0m-6.25-3.65h0m-.18-.14a.42.42,0,0,0,.15.13.42.42,0,0,1-.15-.13m.34.14a.16.16,0,0,1-.1,0,.16.16,0,0,0,.1,0m2.54-.64-.09,0,.09,0M6.88,22.6h0m6.22,2.2c0,.05,0,.08-.12.11l-.46.13c-.68.17-1.35.35-2.06.55.71-.2,1.38-.38,2.06-.55l.46-.13c.08,0,.12-.06.12-.11m-2.48-3.08,0,0,0,0m-.09-1.61h0l-4,1.08-.62.17.62-.17,4-1.08h0m.15,0a.79.79,0,0,1,.13.13l7.94,9.93a1.18,1.18,0,0,1,.08.12,1.18,1.18,0,0,0-.08-.12l-7.94-9.93a.79.79,0,0,0-.13-.13m0,0h0" fill="#d4d43d" opacity="0.96"/>
              <path d="M5.76,21.53c0,.08,0,.1,0,.12l0,3.53c0,1.17,0,2.34,0,3.52a.56.56,0,0,0,.16.39l7.36,9.15.75.93c0-.3,0-.58,0-.85s0-.33,0-.49v0a.65.65,0,0,0-.17-.45Q10.36,33,6.9,28.75a.73.73,0,0,1-.18-.54l0-2.57c0-.86,0-1.71,0-2.57a.86.86,0,0,0-.07-.34c-.3-.4-.61-.78-.94-1.2" fill="#ffff49" opacity="0.8"/>
              <path d="M10.39,25.79c0,.05,0,.07,0,.09,0,.56,0,1.12,0,1.68s0,1.11,0,1.67a.51.51,0,0,0,.09.27q2.28,2.85,4.58,5.69a.29.29,0,0,0,.11.11h0c.38-.08.75-.18,1.15-.28l-.2-.26-4.46-5.52a.61.61,0,0,1-.18-.47v0c0-.22,0-.45,0-.68s0-.47,0-.7a.71.71,0,0,0-.1-.33c-.32-.42-.64-.81-1-1.23" fill="#ffff49" opacity="0.8"/>
              <path d="M10.55,22l-.13,0-3.29.88c-.12,0-.17.1-.17.26v0c0,.41,0,.81,0,1.22,0,1.22,0,2.44,0,3.67,0,.07,0,.14,0,.26a6.13,6.13,0,0,1,.76-.2c.23,0,.29-.18.29-.49v0c0-.52,0-1,0-1.55v-.78c0-.25,0-.51,0-.77s0-.3.19-.33l2.19-.58a.2.2,0,0,0,.15-.17c0-.23,0-.47,0-.71s0-.48,0-.74" fill="#ffff49" opacity="0.8"/>
              <path d="M18.88,36.4l-.54.14-4,1.07c-.07,0-.16.08-.16.16,0,.24,0,.49,0,.73v.74l.07,0,4.55-1.21a.22.22,0,0,0,.1-.19c0-.17,0-.35,0-.53s0-.6,0-.93" fill="#ffff49" opacity="0.8"/>
              <path d="M14.38,26.65v.84c0,.17,0,.33,0,.49v0a.59.59,0,0,0,.16.41c.66.81,1.3,1.62,2,2.43l1.21,1.5v-.77c0-.19,0-.37,0-.54v0a.74.74,0,0,0-.18-.48c-1-1.22-2-2.46-3-3.69l-.18-.19" fill="#ffff49" opacity="0.8"/>
              <path d="M14.2,26.53l-2.45.67a.13.13,0,0,0-.1.11c0,.24,0,.49,0,.73v.76l2.46-.65s.08-.07.08-.13c0-.23,0-.47,0-.72s0-.5,0-.77" fill="#ffff49" opacity="0.8"/>
              <path d="M10.72,22.05v.74c0,.24,0,.47,0,.7a.43.43,0,0,0,.1.25c.28.37.57.73.86,1.08a.28.28,0,0,0,.1.09h.09c.32-.07.62-.16,1-.25l-2.11-2.62" fill="#ffff49" opacity="0.8"/>
              <path d="M18.94,30.59l-1,.25a.15.15,0,0,0-.06.13c0,.47,0,1,0,1.48l1-.28.05-.11c0-.17,0-.35,0-.53s0-.61,0-.94" fill="#ffff49" opacity="0.8"/>
            </g>
          </g>
        </g>
      </g>
      <g>
        <polygon points="24.2 19.46 1.41 9.18 25.96 0.24 48.74 10.53 24.2 19.46" fill="#d3d2d1"/>
        <g style="isolation: isolate">
          <g clip-path="url(#clip-path-2)">
            <g>
              <path d="M33.25,11.74l-.57-.26c-.06,0,0-.11,0-.15L35.09,8.6l.33-.37.73.33.41.19c.06,0,.1.09.06.12L33.9,12l-.07,0-.58-.26M24.5,9.13a.82.82,0,0,1,.28-.05c1.73-.16,3.47-.3,5.2-.45l4.9-.41.25,0-.86,1-1.86,2.11a.16.16,0,0,1-.08.06s0,0-.06,0a.94.94,0,0,1-.28,0l-12.12,1-.28,0c.21-.24.39-.46.61-.68h0a1.09,1.09,0,0,1,.22,0h.08l10.17-.85h.15l.24,0a.48.48,0,0,0,.2-.14c.39-.46.81-.92,1.23-1.39a.82.82,0,0,0,.11-.18l-8.82.77c.22-.25.41-.48.63-.71l.06,0m7-1.69-1.16-.53s-.06-.06,0-.08l.59-.67.74.34a4.08,4.08,0,0,1,.42.19l.05.07-.59.68m-10,2.71-1.31-.59-.06-.05,1.77-.14a.93.93,0,0,1,.34.05l.56.24.53.25,0,0a1.18,1.18,0,0,0,.52.06l8-.7.36,0-.7.77h0a.52.52,0,0,1-.18,0l-8.21.7a.66.66,0,0,1-.29,0c-.45-.19-.88-.39-1.32-.59m3.21-2.39-.66-.29.3,0L29.67,7a1,1,0,0,1,.52.06l0,0,.42.19.61.27-2.17.19-3.5.3a.84.84,0,0,1-.46,0h0l-.38-.18m-1.78,1.8-.57-.26a.05.05,0,0,1,0-.09l1.46-1.68.6.28.56.26c.05,0,.07.06,0,.09L23.53,9.83l-.6-.27m8,1.16-.24,0c-3.2.27-6.42.53-9.61.82a2.58,2.58,0,0,1-1.58-.22c-.63-.32-1.36-.62-2.06-.93-.13-.06-.16-.11-.09-.18l1.31-1.48.12-.06a.53.53,0,0,1,.18,0l1.54-.14c-.25.3-.49.58-.74.85-.08.08-.05.14.1.2l2.75,1.25a1,1,0,0,0,.56.07l8-.69h.29c-.16.17-.29.34-.46.5,0,0,0,0,0,0m-17.83.08L13,10.75l1.71-.14a1.07,1.07,0,0,1,.32.08l2,.91,2,.91a1,1,0,0,0,.57.08l12.4-1.05a1,1,0,0,1,.49.06h0l.37.18.68.3-1.36.12-13.2,1.13a.8.8,0,0,1-.44,0l-2.76-1.25L13.09,10.8m2.15-.2c-.12-.06-.15-.12-.07-.2l2-2.23.09-.08.58.26.54.25a.09.09,0,0,1,0,.15c-.43.5-.86,1-1.31,1.49-.08.09-.06.15.11.23l.61.27.61.28,1.22.54h0c.24.11.31.2.15.34a4.62,4.62,0,0,0-.46.52l-.21-.09L16.23,11l-1-.43h0M18,8.28,17.44,8l3.78-.32c-.21.24-.38.45-.58.65l0,0-.05,0-.15,0c-.51,0-1,.09-1.55.12a.58.58,0,0,1-.27,0L18,8.28m-2.18-.89h.05a.66.66,0,0,1,.21,0L30.4,6.14h.16c-.19.22-.38.44-.59.65h0l-.27.05L24,7.34a1.3,1.3,0,0,0-.28,0,.26.26,0,0,0-.09.05l-.07,0c-.45.54-.93,1.08-1.39,1.62l-.07.06L22,9.2h0a.6.6,0,0,1-.22,0h-.07L20,9.4,21.26,8c.09-.11.19-.21.27-.32s.06-.09,0-.11a.57.57,0,0,0-.27,0l-3.14.26c-.28,0-.57,0-.83.07L17.1,8l-.05,0S17,8,17,8c-.7.77-1.38,1.55-2.06,2.33a.33.33,0,0,1-.15.1h0a.94.94,0,0,1-.28,0l-1.54.12.37-.42,2.4-2.73,0,0,.06,0,0,0m-.2-.09a.28.28,0,0,0-.14.09l-2.86,3.24c-.06.07,0,.11.08.17l5.76,2.6a.88.88,0,0,0,.47.07l3.6-.31,11.16-1a1.18,1.18,0,0,0,.28,0l.1-.07C35,11,36,9.94,36.92,8.87c0,0,0-.13-.09-.16-.38-.19-.81-.37-1.2-.56a1,1,0,0,0-.55-.07l-6.5.56-4,.33c.22-.25.44-.48.63-.72a.5.5,0,0,1,.14-.1,1.18,1.18,0,0,1,.25,0l5.77-.49a1,1,0,0,0,.22,0,.3.3,0,0,0,.11-.07c.19-.24.39-.47.61-.7.08-.08,0-.14-.1-.2-.38-.17-.77-.33-1.13-.51a1,1,0,0,0-.6-.08L15.91,7.25a.93.93,0,0,0-.27,0" opacity="0.8"/>
              <path d="M24.5,9.13l-.06,0c-.22.23-.41.46-.63.71l8.82-.77a.82.82,0,0,1-.11.18c-.42.47-.84.93-1.23,1.39a.48.48,0,0,1-.2.14l-.24,0H30.7l-10.17.85h-.08a1.09,1.09,0,0,0-.22,0h0c-.22.22-.4.44-.61.68l.28,0,12.12-1a.94.94,0,0,0,.28,0s0,0,.06,0a.16.16,0,0,0,.08-.06l1.86-2.11.86-1-.25,0L30,8.63c-1.73.15-3.47.29-5.2.45a.82.82,0,0,0-.28.05" fill="#ffff49" opacity="0.8"/>
              <path d="M15.84,7.39l0,0-.06,0,0,0-2.4,2.73-.37.42,1.54-.12a.94.94,0,0,0,.28,0h0a.33.33,0,0,0,.15-.1C15.59,9.58,16.27,8.8,17,8,17,8,17,8,17.05,8l.05,0,.21,0c.26,0,.55-.05.83-.07l3.14-.26a.57.57,0,0,1,.27,0s0,.06,0,.11-.18.21-.27.32L20,9.4l1.65-.14h.07a.6.6,0,0,0,.22,0h0l.06,0,.07-.06c.46-.54.94-1.08,1.39-1.62l.07,0a.26.26,0,0,1,.09-.05,1.3,1.3,0,0,1,.28,0l5.7-.48.27-.05h0c.21-.21.4-.43.59-.65H30.4L16.1,7.35a.66.66,0,0,0-.21,0h-.05" fill="#ffff49" opacity="0.8"/>
              <path d="M30,6.8h0M22,9.2h0m-.25.06a.6.6,0,0,0,.22,0,.6.6,0,0,1-.22,0m.38-.15-.07.06.07-.06m1.55-1.72a.26.26,0,0,0-.09.05.26.26,0,0,1,.09-.05m-8.92,3.07h0m6.79-2.89s0,.06,0,.11-.18.21-.27.32L20,9.4,21.26,8c.09-.11.19-.21.27-.32s.06-.09,0-.11M17.1,8l-.05,0,.05,0m-1.36-.5,0,0-2.4,2.73-.37.42.37-.42,2.4-2.73,0,0m.15-.07a.66.66,0,0,1,.21,0L30.4,6.14h0L16.1,7.35a.66.66,0,0,0-.21,0m-.05,0,0,0,0,0" fill="#d4d43d" opacity="0.96"/>
              <path d="M13,10.75l.08.05,2.77,1.25,2.76,1.25a.8.8,0,0,0,.44,0l13.2-1.13,1.36-.12-.68-.3-.37-.18h0a1,1,0,0,0-.49-.06l-12.4,1.05a1,1,0,0,1-.57-.08l-2-.91-2-.91a1.07,1.07,0,0,0-.32-.08L13,10.75" fill="#ffff49" opacity="0.8"/>
              <path d="M20.13,9.51l.06.05,1.31.59c.44.2.87.4,1.32.59a.66.66,0,0,0,.29,0l8.21-.7a.52.52,0,0,0,.18,0h0l.7-.77-.36,0-8,.7a1.18,1.18,0,0,1-.52-.06l0,0-.53-.25-.56-.24a.93.93,0,0,0-.34-.05l-1.77.14" fill="#ffff49" opacity="0.8"/>
              <path d="M17.23,8.09l-.09.08-2,2.23c-.08.08-.05.14.07.2h0l1,.43,2.88,1.3.21.09a4.62,4.62,0,0,1,.46-.52c.16-.14.09-.23-.15-.34h0L18.38,11l-.61-.28-.61-.27c-.17-.08-.19-.14-.11-.23.45-.5.88-1,1.31-1.49a.09.09,0,0,0,0-.15l-.54-.25-.58-.26" fill="#ffff49" opacity="0.8"/>
              <path d="M35.42,8.23l-.33.37-2.41,2.73s-.06.12,0,.15l.57.26.58.26.07,0,2.72-3.09s0-.09-.06-.12l-.41-.19-.73-.33" fill="#ffff49" opacity="0.8"/>
              <path d="M24.05,7.47l.66.29.38.18h0a.84.84,0,0,0,.46,0l3.5-.3,2.17-.19-.61-.27-.42-.19,0,0A1,1,0,0,0,29.67,7l-5.32.46-.3,0" fill="#ffff49" opacity="0.8"/>
              <path d="M23.81,7.53,22.35,9.21a.05.05,0,0,0,0,.09l.57.26.6.27L25,8.16s0-.07,0-.09l-.56-.26-.6-.28" fill="#ffff49" opacity="0.8"/>
              <path d="M17.44,8l.58.27.56.24a.58.58,0,0,0,.27,0c.52,0,1-.08,1.55-.12l.15,0,.05,0,0,0c.2-.2.37-.41.58-.65L17.44,8" fill="#ffff49" opacity="0.8"/>
              <path d="M30.85,6.16l-.59.67s0,.06,0,.08l1.16.53.59-.68L32,6.69a4.08,4.08,0,0,0-.42-.19l-.74-.34" fill="#ffff49" opacity="0.8"/>
            </g>
          </g>
        </g>
      </g>
      <g>
        <polygon points="48.74 10.53 48.58 40.83 24.04 49.76 24.2 19.46 48.74 10.53" fill="#d8d7d6"/>
        <g style="isolation: isolate">
          <g clip-path="url(#clip-path-3)">
            <g>
              <path d="M38.69,38.37c0-.26,0-.52,0-.79a.72.72,0,0,1,.19-.32l4.73-4.83.64-.65v1c0,.19,0,.38,0,.57a.5.5,0,0,1-.12.29q-2.67,2.74-5.36,5.47l-.09.06c0-.27,0-.53,0-.8m-1.6-9.13a.3.3,0,0,1,.21,0c1.16.38,2.3.78,3.44,1.18L44,31.53l.16.07-1.69,1.73c-1.22,1.25-2.45,2.49-3.67,3.75a.53.53,0,0,1-.12.1.15.15,0,0,1-.07,0,.26.26,0,0,1-.21,0l-8-2.78a1.56,1.56,0,0,1-.17-.07c.41-.42.79-.82,1.18-1.19l0,0a.49.49,0,0,1,.17,0l.05,0,6.71,2.33.06,0h0a.45.45,0,0,0,.2,0,.82.82,0,0,0,.28-.21c.8-.83,1.61-1.64,2.41-2.46.08-.08.15-.17.29-.34l-5.85-2L37,29.28l.08,0m6-.76c0-.56,0-1.08,0-1.59a.4.4,0,0,1,.07-.19l1.16-1.18v1c0,.2,0,.39,0,.58l-.06.17-1.17,1.2M34.15,30.2c0-.6,0-1.2,0-1.8,0,0,0-.06,0-.13.41.14.79.26,1.17.41a.34.34,0,0,1,.12.26c0,.25,0,.49,0,.74s0,.5,0,.75v0c0,.21.07.29.21.34L41,32.58l.23.09c-.47.48-.91.93-1.35,1.36h0l0,0a.19.19,0,0,1-.13,0q-2.73-.91-5.43-1.86a.22.22,0,0,1-.12-.2c0-.6,0-1.2,0-1.79m4.75-3.78v-.91l.21,0c1.18.4,2.35.81,3.53,1.2.15,0,.21.14.21.34v0c0,.2,0,.4,0,.6v.82l-1.43-.49c-.78-.26-1.55-.54-2.32-.79a.26.26,0,0,1-.2-.29v0c0-.18,0-.35,0-.53m-3.22,3.1c0-.26,0-.52,0-.79a.38.38,0,0,1,.1-.2l2.89-3v.83c0,.26,0,.52,0,.78a.36.36,0,0,1-.09.21l-2.91,3c0-.28,0-.55,0-.82m3,5.73a.4.4,0,0,1-.19,0c-2.11-.73-4.22-1.5-6.35-2.18-.47-.15-.64-.43-.6-1.1,0-1,0-1.9,0-2.84a.52.52,0,0,1,.17-.42l2.56-2.61a.46.46,0,0,1,.15-.09.26.26,0,0,1,.15,0c.34.09.66.22,1,.34-.51.53-1,1-1.46,1.5a.58.58,0,0,0-.2.48c0,1.25,0,2.51,0,3.78,0,.22.06.31.22.37l5.27,1.79.18.09-.88.88,0,0m-10-7.11s0-.06,0-.14a11.12,11.12,0,0,1,1.11.41c.07,0,.08.18.09.29,0,.92,0,1.85,0,2.77l0,2.77c0,.23.06.34.23.39l8.18,2.83a.3.3,0,0,1,.2.33v0c0,.17,0,.35,0,.53v.91l-.9-.3-8.73-3c-.11,0-.2-.07-.2-.27l0-3.79c0-1.26,0-2.53,0-3.79m1.45.44a.54.54,0,0,1,.19-.43l3.88-4a1.1,1.1,0,0,1,.15-.14v.79c0,.26,0,.51,0,.77a.61.61,0,0,1-.18.32c-.86.89-1.71,1.76-2.58,2.63a.69.69,0,0,0-.22.53c0,.28,0,.56,0,.84v.83c0,.56,0,1.11,0,1.66v0a.94.94,0,0,1-.33.79c-.31.26-.58.59-.9.91,0-.12,0-.19,0-.27,0-1.32,0-2.63,0-4,0-.43,0-.87,0-1.31v0m4.42-3.8c0-.26,0-.53,0-.81l2.5.87c-.42.42-.77.79-1.14,1.15a.1.1,0,0,1-.05,0l0,0a.31.31,0,0,1-.13,0q-.52-.16-1-.36a.21.21,0,0,1-.11-.18c0-.25,0-.5,0-.75M34.44,22h.05a.31.31,0,0,1,.16,0l9.43,3.28.09.05c-.39.4-.76.79-1.14,1.15l0,0h0a.34.34,0,0,1-.2,0L39,25.21a.28.28,0,0,0-.22,0l-.1.05-.11.1c-.93,1-1.86,1.9-2.78,2.86a1.13,1.13,0,0,1-.11.11l-.08.05h0a.28.28,0,0,1-.18,0h0c-.34-.15-.69-.25-1.08-.39l2.42-2.48.55-.56a.46.46,0,0,0,.14-.23c0-.06,0-.1-.14-.13l-2.06-.72a3.65,3.65,0,0,0-.56-.18.3.3,0,0,0-.18,0h0a.36.36,0,0,0-.12.08q-2,2.06-4,4.13a.83.83,0,0,1-.21.16h0a.31.31,0,0,1-.21,0c-.32-.14-.65-.24-1-.36l.73-.76,4.73-4.83.06-.06.08,0,0,0m0-.28a.44.44,0,0,0-.19.14l-5.62,5.73a.51.51,0,0,0-.17.4q0,3.95,0,7.89c0,.2.05.28.18.33.8.26,1.59.54,2.38.81l7.38,2.52a.3.3,0,0,0,.21,0,.5.5,0,0,0,.13-.1l5.59-5.72a.64.64,0,0,0,.15-.37c0-.56,0-1.11,0-1.67,0-.22,0-.33-.21-.38L40,29.85,37.33,29c.44-.45.85-.86,1.25-1.29a.56.56,0,0,1,.2-.14.25.25,0,0,1,.19,0l3.81,1.31a.2.2,0,0,0,.17,0,.44.44,0,0,0,.15-.11c.4-.42.81-.84,1.22-1.24A.61.61,0,0,0,44.5,27c0-.51,0-1,0-1.55,0-.26-.06-.36-.23-.42q-4.81-1.65-9.61-3.34a.33.33,0,0,0-.22,0" opacity="0.8"/>
              <path d="M37.09,29.24l-.08,0-1.23,1.25,5.85,2c-.14.17-.21.26-.29.34-.8.82-1.61,1.63-2.41,2.46a.82.82,0,0,1-.28.21.45.45,0,0,1-.2,0h0l-.06,0-6.71-2.33-.05,0a.49.49,0,0,0-.17,0l0,0c-.39.37-.77.77-1.18,1.19a1.56,1.56,0,0,0,.17.07l8,2.78a.26.26,0,0,0,.21,0,.15.15,0,0,0,.07,0,.53.53,0,0,0,.12-.1c1.22-1.26,2.45-2.5,3.67-3.75l1.69-1.73L44,31.53l-3.24-1.11c-1.14-.4-2.28-.8-3.44-1.18a.3.3,0,0,0-.21,0" fill="#ffff49" opacity="0.8"/>
              <path d="M34.44,22l0,0-.08,0-.06.06L29.53,27l-.73.76c.36.12.69.22,1,.36a.31.31,0,0,0,.21,0h0a.83.83,0,0,0,.21-.16q2-2.07,4-4.13a.36.36,0,0,1,.12-.08h0a.3.3,0,0,1,.18,0,3.65,3.65,0,0,1,.56.18l2.06.72c.1,0,.15.07.14.13a.46.46,0,0,1-.14.23l-.55.56L34.27,28c.39.14.74.24,1.08.39h0a.28.28,0,0,0,.18,0h0l.08-.05a1.13,1.13,0,0,0,.11-.11c.92-1,1.85-1.9,2.78-2.86l.11-.1.1-.05a.28.28,0,0,1,.22,0l3.77,1.3a.34.34,0,0,0,.2,0h0l0,0c.38-.36.75-.75,1.14-1.15l-.09-.05L34.65,22a.31.31,0,0,0-.16,0h-.05" fill="#ffff49" opacity="0.8"/>
              <path d="M43,26.51h0m-7.4,1.87h0m-.21,0a.28.28,0,0,0,.18,0,.28.28,0,0,1-.18,0m.4-.17a1.13,1.13,0,0,1-.11.11,1.13,1.13,0,0,0,.11-.11m3-3-.1.05.1-.05M30,28.1h0m7.35-3.38a.46.46,0,0,1-.14.23l-.55.56L34.27,28l2.42-2.48.55-.56a.46.46,0,0,0,.14-.23m-2.94-1h0m-.12-1.64-.06.06L29.53,27l-.73.76.73-.76,4.73-4.83.06-.06m.17-.09a.31.31,0,0,1,.16,0l9.43,3.28.09.05-.09-.05L34.65,22a.31.31,0,0,0-.16,0m-.05,0,0,0,0,0" fill="#d4d43d" opacity="0.96"/>
              <path d="M28.7,28c0,.08,0,.11,0,.14,0,1.26,0,2.53,0,3.79l0,3.79c0,.2.09.23.2.27l8.73,3,.9.3v-.91c0-.18,0-.36,0-.53v0a.3.3,0,0,0-.2-.33l-8.18-2.83c-.17-.05-.23-.16-.23-.39l0-2.77c0-.92,0-1.85,0-2.77,0-.11,0-.27-.09-.29A11.12,11.12,0,0,0,28.7,28" fill="#ffff49" opacity="0.8"/>
              <path d="M34.18,28.27c0,.07,0,.1,0,.13,0,.6,0,1.2,0,1.8s0,1.19,0,1.79a.22.22,0,0,0,.12.2q2.7.95,5.43,1.86a.19.19,0,0,0,.13,0l0,0h0c.44-.43.88-.88,1.35-1.36L41,32.58l-5.31-1.77c-.14,0-.21-.13-.21-.34v0c0-.25,0-.5,0-.75s0-.49,0-.74a.34.34,0,0,0-.12-.26c-.38-.15-.76-.27-1.17-.41" fill="#ffff49" opacity="0.8"/>
              <path d="M34.35,24.05a1.1,1.1,0,0,0-.15.14l-3.88,4a.54.54,0,0,0-.19.43v0c0,.44,0,.88,0,1.31,0,1.32,0,2.63,0,4,0,.08,0,.15,0,.27.32-.32.59-.65.9-.91a.94.94,0,0,0,.33-.79v0c0-.55,0-1.1,0-1.66v-.83c0-.28,0-.56,0-.84a.69.69,0,0,1,.22-.53c.87-.87,1.72-1.74,2.58-2.63a.61.61,0,0,0,.18-.32c0-.26,0-.51,0-.77v-.79" fill="#ffff49" opacity="0.8"/>
              <path d="M44.26,31.78l-.64.65-4.73,4.83a.72.72,0,0,0-.19.32c0,.27,0,.53,0,.79s0,.53,0,.8l.09-.06q2.68-2.73,5.36-5.47a.5.5,0,0,0,.12-.29c0-.19,0-.38,0-.57v-1" fill="#ffff49" opacity="0.8"/>
              <path d="M38.9,25.51v.91c0,.18,0,.35,0,.53v0a.26.26,0,0,0,.2.29c.77.25,1.54.53,2.32.79l1.43.49v-.82c0-.2,0-.4,0-.6v0c0-.2-.06-.29-.21-.34-1.18-.39-2.35-.8-3.53-1.2l-.21,0" fill="#ffff49" opacity="0.8"/>
              <path d="M38.68,25.56l-2.89,3a.38.38,0,0,0-.1.2c0,.27,0,.53,0,.79s0,.54,0,.82l2.91-3a.36.36,0,0,0,.09-.21c0-.26,0-.52,0-.78v-.83" fill="#ffff49" opacity="0.8"/>
              <path d="M34.56,24c0,.28,0,.55,0,.81s0,.5,0,.75a.21.21,0,0,0,.11.18q.49.2,1,.36a.31.31,0,0,0,.13,0l0,0a.1.1,0,0,0,.05,0c.37-.36.72-.73,1.14-1.15L34.56,24" fill="#ffff49" opacity="0.8"/>
              <path d="M44.3,25.52,43.14,26.7a.4.4,0,0,0-.07.19c0,.51,0,1,0,1.59l1.17-1.2.06-.17c0-.19,0-.38,0-.58v-1" fill="#ffff49" opacity="0.8"/>
            </g>
          </g>
        </g>
      </g>
    </g>
  </g>
  <g>
    <rect x="46.2" y="41.66" width="1.52" height="1.51" fill="#fff"/>
    <rect x="46.2" y="40.15" width="1.52" height="1.52" fill="#fff"/>
    <rect x="46.2" y="8.34" width="1.52" height="1.51" fill="#fff"/>
    <rect x="46.2" y="6.82" width="1.52" height="1.52" fill="#fff"/>
    <rect x="44.69" y="43.18" width="1.51" height="1.52" fill="#fff"/>
    <rect x="44.69" y="41.66" width="1.51" height="1.51" fill="#ef5454"/>
    <rect x="44.69" y="40.15" width="1.51" height="1.52" fill="#ef5454"/>
    <rect x="44.69" y="38.63" width="1.51" height="1.51" fill="#fff"/>
    <rect x="44.69" y="9.85" width="1.51" height="1.52" fill="#fff"/>
    <rect x="44.69" y="8.34" width="1.51" height="1.51" fill="#aa0707"/>
    <rect x="44.69" y="6.82" width="1.51" height="1.52" fill="#ef5454"/>
    <rect x="44.69" y="5.31" width="1.51" height="1.51" fill="#fff"/>
    <rect x="43.18" y="44.69" width="1.51" height="1.51" fill="#fff"/>
    <rect x="43.18" y="43.18" width="1.51" height="1.52" fill="#aa0707"/>
    <rect x="43.18" y="41.66" width="1.51" height="1.51" fill="#cc1d1d"/>
    <rect x="43.18" y="40.15" width="1.51" height="1.52" fill="#cc1d1d"/>
    <rect x="43.18" y="38.63" width="1.51" height="1.51" fill="#ef5454"/>
    <rect x="43.18" y="37.12" width="1.51" height="1.52" fill="#fff"/>
    <rect x="43.18" y="11.37" width="1.51" height="1.51" fill="#fff"/>
    <rect x="43.18" y="9.85" width="1.51" height="1.52" fill="#aa0707"/>
    <rect x="43.18" y="8.34" width="1.51" height="1.51" fill="#cc1d1d"/>
    <rect x="43.18" y="6.82" width="1.51" height="1.52" fill="#cc1d1d"/>
    <rect x="43.18" y="5.31" width="1.51" height="1.51" fill="#ef5454"/>
    <rect x="43.18" y="3.79" width="1.51" height="1.52" fill="#fff"/>
    <rect x="41.66" y="46.2" width="1.52" height="1.52" fill="#fff"/>
    <rect x="41.66" y="44.69" width="1.52" height="1.51" fill="#aa0707"/>
    <rect x="41.66" y="43.18" width="1.52" height="1.52" fill="#cc1d1d"/>
    <rect x="41.66" y="41.66" width="1.52" height="1.51" fill="#cc1d1d"/>
    <rect x="41.66" y="40.15" width="1.52" height="1.52" fill="#cc1d1d"/>
    <rect x="41.66" y="38.63" width="1.52" height="1.51" fill="#cc1d1d"/>
    <rect x="41.66" y="37.12" width="1.52" height="1.52" fill="#ef5454"/>
    <rect x="41.66" y="35.6" width="1.52" height="1.51" fill="#fff"/>
    <rect x="41.66" y="12.88" width="1.52" height="1.51" fill="#fff"/>
    <rect x="41.66" y="11.37" width="1.52" height="1.51" fill="#aa0707"/>
    <rect x="41.66" y="9.85" width="1.52" height="1.52" fill="#cc1d1d"/>
    <rect x="41.66" y="8.34" width="1.52" height="1.51" fill="#cc1d1d"/>
    <rect x="41.66" y="6.82" width="1.52" height="1.52" fill="#cc1d1d"/>
    <rect x="41.66" y="5.31" width="1.52" height="1.51" fill="#cc1d1d"/>
    <rect x="41.66" y="3.79" width="1.52" height="1.52" fill="#ef5454"/>
    <rect x="41.66" y="2.28" width="1.52" height="1.51" fill="#fff"/>
    <rect x="40.15" y="46.2" width="1.51" height="1.52" fill="#fff"/>
    <rect x="40.15" y="44.69" width="1.51" height="1.51" fill="#aa0707"/>
    <rect x="40.15" y="43.18" width="1.51" height="1.52" fill="#cc1d1d"/>
    <rect x="40.15" y="41.66" width="1.51" height="1.51" fill="#cc1d1d"/>
    <rect x="40.15" y="40.15" width="1.51" height="1.52" fill="#cc1d1d"/>
    <rect x="40.15" y="38.63" width="1.51" height="1.51" fill="#cc1d1d"/>
    <rect x="40.15" y="37.12" width="1.51" height="1.52" fill="#cc1d1d"/>
    <rect x="40.15" y="35.6" width="1.51" height="1.51" fill="#ef5454"/>
    <rect x="40.15" y="34.09" width="1.51" height="1.52" fill="#fff"/>
    <rect x="40.15" y="14.4" width="1.51" height="1.52" fill="#fff"/>
    <rect x="40.15" y="12.88" width="1.51" height="1.51" fill="#aa0707"/>
    <rect x="40.15" y="11.37" width="1.51" height="1.51" fill="#cc1d1d"/>
    <rect x="40.15" y="9.85" width="1.51" height="1.52" fill="#cc1d1d"/>
    <rect x="40.15" y="8.34" width="1.51" height="1.51" fill="#cc1d1d"/>
    <rect x="40.15" y="6.82" width="1.51" height="1.52" fill="#cc1d1d"/>
    <rect x="40.15" y="5.31" width="1.51" height="1.51" fill="#cc1d1d"/>
    <rect x="40.15" y="3.79" width="1.51" height="1.52" fill="#ef5454"/>
    <rect x="40.15" y="2.28" width="1.51" height="1.51" fill="#fff"/>
    <rect x="38.63" y="44.69" width="1.52" height="1.51" fill="#fff"/>
    <rect x="38.63" y="43.18" width="1.52" height="1.52" fill="#aa0707"/>
    <rect x="38.63" y="41.66" width="1.52" height="1.51" fill="#cc1d1d"/>
    <rect x="38.63" y="40.15" width="1.52" height="1.52" fill="#cc1d1d"/>
    <rect x="38.63" y="38.63" width="1.52" height="1.51" fill="#cc1d1d"/>
    <rect x="38.63" y="37.12" width="1.52" height="1.52" fill="#cc1d1d"/>
    <rect x="38.63" y="35.6" width="1.52" height="1.51" fill="#cc1d1d"/>
    <rect x="38.63" y="34.09" width="1.52" height="1.52" fill="#ef5454"/>
    <rect x="38.63" y="32.57" width="1.52" height="1.51" fill="#fff"/>
    <rect x="38.63" y="15.91" width="1.52" height="1.51" fill="#fff"/>
    <rect x="38.63" y="14.4" width="1.52" height="1.52" fill="#aa0707"/>
    <rect x="38.63" y="12.88" width="1.52" height="1.51" fill="#cc1d1d"/>
    <rect x="38.63" y="11.37" width="1.52" height="1.51" fill="#cc1d1d"/>
    <rect x="38.63" y="9.85" width="1.52" height="1.52" fill="#cc1d1d"/>
    <rect x="38.63" y="8.34" width="1.52" height="1.51" fill="#cc1d1d"/>
    <rect x="38.63" y="6.82" width="1.52" height="1.52" fill="#cc1d1d"/>
    <rect x="38.63" y="5.31" width="1.52" height="1.51" fill="#ef5454"/>
    <rect x="38.63" y="3.79" width="1.52" height="1.52" fill="#fff"/>
    <rect x="37.12" y="43.18" width="1.51" height="1.52" fill="#fff"/>
    <rect x="37.12" y="41.66" width="1.51" height="1.51" fill="#aa0707"/>
    <rect x="37.12" y="40.15" width="1.51" height="1.52" fill="#cc1d1d"/>
    <rect x="37.12" y="38.63" width="1.51" height="1.51" fill="#cc1d1d"/>
    <rect x="37.12" y="37.12" width="1.51" height="1.52" fill="#cc1d1d"/>
    <rect x="37.12" y="35.6" width="1.51" height="1.51" fill="#cc1d1d"/>
    <rect x="37.12" y="34.09" width="1.51" height="1.52" fill="#cc1d1d"/>
    <rect x="37.12" y="32.57" width="1.51" height="1.51" fill="#ef5454"/>
    <rect x="37.12" y="31.06" width="1.51" height="1.51" fill="#fff"/>
    <rect x="37.12" y="17.43" width="1.51" height="1.52" fill="#fff"/>
    <rect x="37.12" y="15.91" width="1.51" height="1.51" fill="#aa0707"/>
    <rect x="37.12" y="14.4" width="1.51" height="1.52" fill="#cc1d1d"/>
    <rect x="37.12" y="12.88" width="1.51" height="1.51" fill="#cc1d1d"/>
    <rect x="37.12" y="11.37" width="1.51" height="1.51" fill="#cc1d1d"/>
    <rect x="37.12" y="9.85" width="1.51" height="1.52" fill="#cc1d1d"/>
    <rect x="37.12" y="8.34" width="1.51" height="1.51" fill="#cc1d1d"/>
    <rect x="37.12" y="6.82" width="1.51" height="1.52" fill="#ef5454"/>
    <rect x="37.12" y="5.31" width="1.51" height="1.51" fill="#fff"/>
    <rect x="35.6" y="41.66" width="1.52" height="1.51" fill="#fff"/>
    <rect x="35.6" y="40.15" width="1.52" height="1.52" fill="#aa0707"/>
    <rect x="35.6" y="38.63" width="1.52" height="1.51" fill="#cc1d1d"/>
    <rect x="35.6" y="37.12" width="1.52" height="1.52" fill="#cc1d1d"/>
    <rect x="35.6" y="35.6" width="1.52" height="1.51" fill="#cc1d1d"/>
    <rect x="35.6" y="34.09" width="1.52" height="1.52" fill="#cc1d1d"/>
    <rect x="35.6" y="32.57" width="1.52" height="1.51" fill="#cc1d1d"/>
    <rect x="35.6" y="31.06" width="1.52" height="1.51" fill="#ef5454"/>
    <rect x="35.6" y="29.54" width="1.52" height="1.52" fill="#fff"/>
    <rect x="35.6" y="18.94" width="1.52" height="1.51" fill="#fff"/>
    <rect x="35.6" y="17.43" width="1.52" height="1.52" fill="#aa0707"/>
    <rect x="35.6" y="15.91" width="1.52" height="1.51" fill="#cc1d1d"/>
    <rect x="35.6" y="14.4" width="1.52" height="1.52" fill="#cc1d1d"/>
    <rect x="35.6" y="12.88" width="1.52" height="1.51" fill="#cc1d1d"/>
    <rect x="35.6" y="11.37" width="1.52" height="1.51" fill="#cc1d1d"/>
    <rect x="35.6" y="9.85" width="1.52" height="1.52" fill="#cc1d1d"/>
    <rect x="35.6" y="8.34" width="1.52" height="1.51" fill="#ef5454"/>
    <rect x="35.6" y="6.82" width="1.52" height="1.52" fill="#fff"/>
    <rect x="34.09" y="40.15" width="1.51" height="1.52" fill="#fff"/>
    <rect x="34.09" y="38.63" width="1.51" height="1.51" fill="#aa0707"/>
    <rect x="34.09" y="37.12" width="1.51" height="1.52" fill="#cc1d1d"/>
    <rect x="34.09" y="35.6" width="1.51" height="1.51" fill="#cc1d1d"/>
    <rect x="34.09" y="34.09" width="1.51" height="1.52" fill="#cc1d1d"/>
    <rect x="34.09" y="32.57" width="1.51" height="1.51" fill="#cc1d1d"/>
    <rect x="34.09" y="31.06" width="1.51" height="1.51" fill="#cc1d1d"/>
    <rect x="34.09" y="29.54" width="1.51" height="1.52" fill="#ef5454"/>
    <rect x="34.09" y="28.03" width="1.51" height="1.51" fill="#fff"/>
    <rect x="34.09" y="20.46" width="1.51" height="1.52" fill="#fff"/>
    <rect x="34.09" y="18.94" width="1.51" height="1.51" fill="#aa0707"/>
    <rect x="34.09" y="17.43" width="1.51" height="1.52" fill="#cc1d1d"/>
    <rect x="34.09" y="15.91" width="1.51" height="1.51" fill="#cc1d1d"/>
    <rect x="34.09" y="14.4" width="1.51" height="1.52" fill="#cc1d1d"/>
    <rect x="34.09" y="12.88" width="1.51" height="1.51" fill="#cc1d1d"/>
    <rect x="34.09" y="11.37" width="1.51" height="1.51" fill="#cc1d1d"/>
    <rect x="34.09" y="9.85" width="1.51" height="1.52" fill="#ef5454"/>
    <rect x="34.09" y="8.34" width="1.51" height="1.51" fill="#fff"/>
    <rect x="32.57" y="38.63" width="1.52" height="1.51" fill="#fff"/>
    <rect x="32.57" y="37.12" width="1.52" height="1.52" fill="#aa0707"/>
    <rect x="32.57" y="35.6" width="1.52" height="1.51" fill="#cc1d1d"/>
    <rect x="32.57" y="34.09" width="1.52" height="1.52" fill="#cc1d1d"/>
    <rect x="32.57" y="32.57" width="1.52" height="1.51" fill="#cc1d1d"/>
    <rect x="32.57" y="31.06" width="1.52" height="1.51" fill="#cc1d1d"/>
    <rect x="32.57" y="29.54" width="1.52" height="1.52" fill="#cc1d1d"/>
    <rect x="32.57" y="28.03" width="1.52" height="1.51" fill="#ef5454"/>
    <rect x="32.57" y="26.51" width="1.52" height="1.52" fill="#fff"/>
    <rect x="32.57" y="21.97" width="1.52" height="1.51" fill="#fff"/>
    <rect x="32.57" y="20.46" width="1.52" height="1.52" fill="#aa0707"/>
    <rect x="32.57" y="18.94" width="1.52" height="1.51" fill="#cc1d1d"/>
    <rect x="32.57" y="17.43" width="1.52" height="1.52" fill="#cc1d1d"/>
    <rect x="32.57" y="15.91" width="1.52" height="1.51" fill="#cc1d1d"/>
    <rect x="32.57" y="14.4" width="1.52" height="1.52" fill="#cc1d1d"/>
    <rect x="32.57" y="12.88" width="1.52" height="1.51" fill="#cc1d1d"/>
    <rect x="32.57" y="11.37" width="1.52" height="1.51" fill="#ef5454"/>
    <rect x="32.57" y="9.85" width="1.52" height="1.52" fill="#fff"/>
    <rect x="31.06" y="37.12" width="1.51" height="1.52" fill="#fff"/>
    <rect x="31.06" y="35.6" width="1.51" height="1.51" fill="#aa0707"/>
    <rect x="31.06" y="34.09" width="1.51" height="1.52" fill="#cc1d1d"/>
    <rect x="31.06" y="32.57" width="1.51" height="1.51" fill="#cc1d1d"/>
    <rect x="31.06" y="31.06" width="1.51" height="1.51" fill="#cc1d1d"/>
    <rect x="31.06" y="29.54" width="1.51" height="1.52" fill="#cc1d1d"/>
    <rect x="31.06" y="28.03" width="1.51" height="1.51" fill="#cc1d1d"/>
    <rect x="31.06" y="26.51" width="1.51" height="1.52" fill="#ef5454"/>
    <rect x="31.06" y="25" width="1.51" height="1.51" fill="#fff"/>
    <rect x="31.06" y="23.49" width="1.51" height="1.52" fill="#fff"/>
    <rect x="31.06" y="21.97" width="1.51" height="1.51" fill="#aa0707"/>
    <rect x="31.06" y="20.46" width="1.51" height="1.52" fill="#cc1d1d"/>
    <rect x="31.06" y="18.94" width="1.51" height="1.51" fill="#cc1d1d"/>
    <rect x="31.06" y="17.43" width="1.51" height="1.52" fill="#cc1d1d"/>
    <rect x="31.06" y="15.91" width="1.51" height="1.51" fill="#cc1d1d"/>
    <rect x="31.06" y="14.4" width="1.51" height="1.52" fill="#cc1d1d"/>
    <rect x="31.06" y="12.88" width="1.51" height="1.51" fill="#ef5454"/>
    <rect x="31.06" y="11.37" width="1.51" height="1.51" fill="#fff"/>
    <rect x="29.54" y="35.6" width="1.52" height="1.51" fill="#fff"/>
    <rect x="29.54" y="34.09" width="1.52" height="1.52" fill="#aa0707"/>
    <rect x="29.54" y="32.57" width="1.52" height="1.51" fill="#cc1d1d"/>
    <rect x="29.54" y="31.06" width="1.52" height="1.51" fill="#cc1d1d"/>
    <rect x="29.54" y="29.54" width="1.52" height="1.52" fill="#cc1d1d"/>
    <rect x="29.54" y="28.03" width="1.52" height="1.51" fill="#cc1d1d"/>
    <rect x="29.54" y="26.51" width="1.52" height="1.52" fill="#cc1d1d"/>
    <rect x="29.54" y="25" width="1.52" height="1.51" fill="#aa0707"/>
    <rect x="29.54" y="23.49" width="1.52" height="1.52" fill="#aa0707"/>
    <rect x="29.54" y="21.97" width="1.52" height="1.51" fill="#cc1d1d"/>
    <rect x="29.54" y="20.46" width="1.52" height="1.52" fill="#cc1d1d"/>
    <rect x="29.54" y="18.94" width="1.52" height="1.51" fill="#cc1d1d"/>
    <rect x="29.54" y="17.43" width="1.52" height="1.52" fill="#cc1d1d"/>
    <rect x="29.54" y="15.91" width="1.52" height="1.51" fill="#cc1d1d"/>
    <rect x="29.54" y="14.4" width="1.52" height="1.52" fill="#ef5454"/>
    <rect x="29.54" y="12.88" width="1.52" height="1.51" fill="#fff"/>
    <rect x="28.03" y="34.09" width="1.51" height="1.52" fill="#fff"/>
    <rect x="28.03" y="32.57" width="1.51" height="1.51" fill="#aa0707"/>
    <rect x="28.03" y="31.06" width="1.51" height="1.51" fill="#cc1d1d"/>
    <rect x="28.03" y="29.54" width="1.51" height="1.52" fill="#cc1d1d"/>
    <rect x="28.03" y="28.03" width="1.51" height="1.51" fill="#cc1d1d"/>
    <rect x="28.03" y="26.51" width="1.51" height="1.52" fill="#cc1d1d"/>
    <rect x="28.03" y="25" width="1.51" height="1.51" fill="#cc1d1d"/>
    <rect x="28.03" y="23.49" width="1.51" height="1.52" fill="#cc1d1d"/>
    <rect x="28.03" y="21.97" width="1.51" height="1.51" fill="#cc1d1d"/>
    <rect x="28.03" y="20.46" width="1.51" height="1.52" fill="#cc1d1d"/>
    <rect x="28.03" y="18.94" width="1.51" height="1.51" fill="#cc1d1d"/>
    <rect x="28.03" y="17.43" width="1.51" height="1.52" fill="#cc1d1d"/>
    <rect x="28.03" y="15.91" width="1.51" height="1.51" fill="#ef5454"/>
    <rect x="28.03" y="14.4" width="1.51" height="1.52" fill="#fff"/>
    <rect x="26.52" y="32.57" width="1.51" height="1.51" fill="#fff"/>
    <rect x="26.52" y="31.06" width="1.51" height="1.51" fill="#aa0707"/>
    <rect x="26.52" y="29.54" width="1.51" height="1.52" fill="#cc1d1d"/>
    <rect x="26.52" y="28.03" width="1.51" height="1.51" fill="#cc1d1d"/>
    <rect x="26.52" y="26.51" width="1.51" height="1.52" fill="#cc1d1d"/>
    <rect x="26.52" y="25" width="1.51" height="1.51" fill="#cc1d1d"/>
    <rect x="26.52" y="23.49" width="1.51" height="1.52" fill="#cc1d1d"/>
    <rect x="26.52" y="21.97" width="1.51" height="1.51" fill="#cc1d1d"/>
    <rect x="26.52" y="20.46" width="1.51" height="1.52" fill="#cc1d1d"/>
    <rect x="26.52" y="18.94" width="1.51" height="1.51" fill="#cc1d1d"/>
    <rect x="26.52" y="17.43" width="1.51" height="1.52" fill="#ef5454"/>
    <rect x="26.52" y="15.91" width="1.51" height="1.51" fill="#fff"/>
    <rect x="25" y="31.06" width="1.52" height="1.51" fill="#fff"/>
    <rect x="25" y="29.54" width="1.52" height="1.52" fill="#aa0707"/>
    <rect x="25" y="28.03" width="1.52" height="1.51" fill="#cc1d1d"/>
    <rect x="25" y="26.51" width="1.52" height="1.52" fill="#cc1d1d"/>
    <rect x="25" y="25" width="1.52" height="1.51" fill="#cc1d1d"/>
    <rect x="25" y="23.49" width="1.52" height="1.52" fill="#cc1d1d"/>
    <rect x="25" y="21.97" width="1.52" height="1.51" fill="#cc1d1d"/>
    <rect x="25" y="20.46" width="1.52" height="1.52" fill="#cc1d1d"/>
    <rect x="25" y="18.94" width="1.52" height="1.51" fill="#ef5454"/>
    <rect x="25" y="17.43" width="1.52" height="1.52" fill="#fff"/>
    <rect x="23.49" y="31.06" width="1.51" height="1.51" fill="#fff"/>
    <rect x="23.49" y="29.54" width="1.51" height="1.52" fill="#aa0707"/>
    <rect x="23.49" y="28.03" width="1.51" height="1.51" fill="#cc1d1d"/>
    <rect x="23.49" y="26.51" width="1.51" height="1.52" fill="#cc1d1d"/>
    <rect x="23.49" y="25" width="1.51" height="1.51" fill="#cc1d1d"/>
    <rect x="23.49" y="23.49" width="1.51" height="1.52" fill="#cc1d1d"/>
    <rect x="23.49" y="21.97" width="1.51" height="1.51" fill="#cc1d1d"/>
    <rect x="23.49" y="20.46" width="1.51" height="1.52" fill="#cc1d1d"/>
    <rect x="23.49" y="18.94" width="1.51" height="1.51" fill="#ef5454"/>
    <rect x="23.49" y="17.43" width="1.51" height="1.52" fill="#fff"/>
    <rect x="21.97" y="32.57" width="1.52" height="1.51" fill="#fff"/>
    <rect x="21.97" y="31.06" width="1.52" height="1.51" fill="#aa0707"/>
    <rect x="21.97" y="29.54" width="1.52" height="1.52" fill="#cc1d1d"/>
    <rect x="21.97" y="28.03" width="1.52" height="1.51" fill="#cc1d1d"/>
    <rect x="21.97" y="26.51" width="1.52" height="1.52" fill="#cc1d1d"/>
    <rect x="21.97" y="25" width="1.52" height="1.51" fill="#cc1d1d"/>
    <rect x="21.97" y="23.49" width="1.52" height="1.52" fill="#cc1d1d"/>
    <rect x="21.97" y="21.97" width="1.52" height="1.51" fill="#cc1d1d"/>
    <rect x="21.97" y="20.46" width="1.52" height="1.52" fill="#cc1d1d"/>
    <rect x="21.97" y="18.94" width="1.52" height="1.51" fill="#cc1d1d"/>
    <rect x="21.97" y="17.43" width="1.52" height="1.52" fill="#ef5454"/>
    <rect x="21.97" y="15.91" width="1.52" height="1.51" fill="#fff"/>
    <rect x="20.46" y="34.09" width="1.51" height="1.52" fill="#fff"/>
    <rect x="20.46" y="32.57" width="1.51" height="1.51" fill="#aa0707"/>
    <rect x="20.46" y="31.06" width="1.51" height="1.51" fill="#cc1d1d"/>
    <rect x="20.46" y="29.54" width="1.51" height="1.52" fill="#cc1d1d"/>
    <rect x="20.46" y="28.03" width="1.51" height="1.51" fill="#cc1d1d"/>
    <rect x="20.46" y="26.51" width="1.51" height="1.52" fill="#cc1d1d"/>
    <rect x="20.46" y="25" width="1.51" height="1.51" fill="#cc1d1d"/>
    <rect x="20.46" y="23.49" width="1.51" height="1.52" fill="#cc1d1d"/>
    <rect x="20.46" y="21.97" width="1.51" height="1.51" fill="#cc1d1d"/>
    <rect x="20.46" y="20.46" width="1.51" height="1.52" fill="#cc1d1d"/>
    <rect x="20.46" y="18.94" width="1.51" height="1.51" fill="#cc1d1d"/>
    <rect x="20.46" y="17.43" width="1.51" height="1.52" fill="#cc1d1d"/>
    <rect x="20.46" y="15.91" width="1.51" height="1.51" fill="#ef5454"/>
    <rect x="20.46" y="14.4" width="1.51" height="1.52" fill="#fff"/>
    <rect x="18.94" y="35.6" width="1.52" height="1.51" fill="#fff"/>
    <rect x="18.94" y="34.09" width="1.52" height="1.52" fill="#aa0707"/>
    <rect x="18.94" y="32.57" width="1.52" height="1.51" fill="#cc1d1d"/>
    <rect x="18.94" y="31.06" width="1.52" height="1.51" fill="#cc1d1d"/>
    <rect x="18.94" y="29.54" width="1.52" height="1.52" fill="#cc1d1d"/>
    <rect x="18.94" y="28.03" width="1.52" height="1.51" fill="#cc1d1d"/>
    <rect x="18.94" y="26.51" width="1.52" height="1.52" fill="#cc1d1d"/>
    <rect x="18.94" y="25" width="1.52" height="1.51" fill="#aa0707"/>
    <rect x="18.94" y="23.49" width="1.52" height="1.52" fill="#aa0707"/>
    <rect x="18.94" y="21.97" width="1.52" height="1.51" fill="#cc1d1d"/>
    <rect x="18.94" y="20.46" width="1.52" height="1.52" fill="#cc1d1d"/>
    <rect x="18.94" y="18.94" width="1.52" height="1.51" fill="#cc1d1d"/>
    <rect x="18.94" y="17.43" width="1.52" height="1.52" fill="#cc1d1d"/>
    <rect x="18.94" y="15.91" width="1.52" height="1.51" fill="#cc1d1d"/>
    <rect x="18.94" y="14.4" width="1.52" height="1.52" fill="#ef5454"/>
    <rect x="18.94" y="12.88" width="1.52" height="1.51" fill="#fff"/>
    <rect x="17.43" y="37.12" width="1.51" height="1.52" fill="#fff"/>
    <rect x="17.43" y="35.6" width="1.51" height="1.51" fill="#aa0707"/>
    <rect x="17.43" y="34.09" width="1.51" height="1.52" fill="#cc1d1d"/>
    <rect x="17.43" y="32.57" width="1.51" height="1.51" fill="#cc1d1d"/>
    <rect x="17.43" y="31.06" width="1.51" height="1.51" fill="#cc1d1d"/>
    <rect x="17.43" y="29.54" width="1.51" height="1.52" fill="#cc1d1d"/>
    <rect x="17.43" y="28.03" width="1.51" height="1.51" fill="#cc1d1d"/>
    <rect x="17.43" y="26.51" width="1.51" height="1.52" fill="#ef5454"/>
    <rect x="17.43" y="25" width="1.51" height="1.51" fill="#fff"/>
    <rect x="17.43" y="23.49" width="1.51" height="1.52" fill="#fff"/>
    <rect x="17.43" y="21.97" width="1.51" height="1.51" fill="#aa0707"/>
    <rect x="17.43" y="20.46" width="1.51" height="1.52" fill="#cc1d1d"/>
    <rect x="17.43" y="18.94" width="1.51" height="1.51" fill="#cc1d1d"/>
    <rect x="17.43" y="17.43" width="1.51" height="1.52" fill="#cc1d1d"/>
    <rect x="17.43" y="15.91" width="1.51" height="1.51" fill="#cc1d1d"/>
    <rect x="17.43" y="14.4" width="1.51" height="1.52" fill="#cc1d1d"/>
    <rect x="17.43" y="12.88" width="1.51" height="1.51" fill="#ef5454"/>
    <rect x="17.43" y="11.37" width="1.51" height="1.51" fill="#fff"/>
    <rect x="15.91" y="38.63" width="1.52" height="1.51" fill="#fff"/>
    <rect x="15.91" y="37.12" width="1.52" height="1.52" fill="#aa0707"/>
    <rect x="15.91" y="35.6" width="1.52" height="1.51" fill="#cc1d1d"/>
    <rect x="15.91" y="34.09" width="1.52" height="1.52" fill="#cc1d1d"/>
    <rect x="15.91" y="32.57" width="1.52" height="1.51" fill="#cc1d1d"/>
    <rect x="15.91" y="31.06" width="1.52" height="1.51" fill="#cc1d1d"/>
    <rect x="15.91" y="29.54" width="1.52" height="1.52" fill="#cc1d1d"/>
    <rect x="15.91" y="28.03" width="1.52" height="1.51" fill="#ef5454"/>
    <rect x="15.91" y="26.51" width="1.52" height="1.52" fill="#fff"/>
    <rect x="15.91" y="21.97" width="1.52" height="1.51" fill="#fff"/>
    <rect x="15.91" y="20.46" width="1.52" height="1.52" fill="#aa0707"/>
    <rect x="15.91" y="18.94" width="1.52" height="1.51" fill="#cc1d1d"/>
    <rect x="15.91" y="17.43" width="1.52" height="1.52" fill="#cc1d1d"/>
    <rect x="15.91" y="15.91" width="1.52" height="1.51" fill="#cc1d1d"/>
    <rect x="15.91" y="14.4" width="1.52" height="1.52" fill="#cc1d1d"/>
    <rect x="15.91" y="12.88" width="1.52" height="1.51" fill="#cc1d1d"/>
    <rect x="15.91" y="11.37" width="1.52" height="1.51" fill="#ef5454"/>
    <rect x="15.91" y="9.85" width="1.52" height="1.52" fill="#fff"/>
    <rect x="14.4" y="40.15" width="1.51" height="1.52" fill="#fff"/>
    <rect x="14.4" y="38.63" width="1.51" height="1.51" fill="#aa0707"/>
    <rect x="14.4" y="37.12" width="1.51" height="1.52" fill="#cc1d1d"/>
    <rect x="14.4" y="35.6" width="1.51" height="1.51" fill="#cc1d1d"/>
    <rect x="14.4" y="34.09" width="1.51" height="1.52" fill="#cc1d1d"/>
    <rect x="14.4" y="32.57" width="1.51" height="1.51" fill="#cc1d1d"/>
    <rect x="14.4" y="31.06" width="1.51" height="1.51" fill="#cc1d1d"/>
    <rect x="14.4" y="29.54" width="1.51" height="1.52" fill="#ef5454"/>
    <rect x="14.4" y="28.03" width="1.51" height="1.51" fill="#fff"/>
    <rect x="14.4" y="20.46" width="1.51" height="1.52" fill="#fff"/>
    <rect x="14.4" y="18.94" width="1.51" height="1.51" fill="#aa0707"/>
    <rect x="14.4" y="17.43" width="1.51" height="1.52" fill="#cc1d1d"/>
    <rect x="14.4" y="15.91" width="1.51" height="1.51" fill="#cc1d1d"/>
    <rect x="14.4" y="14.4" width="1.51" height="1.52" fill="#cc1d1d"/>
    <rect x="14.4" y="12.88" width="1.51" height="1.51" fill="#cc1d1d"/>
    <rect x="14.4" y="11.37" width="1.51" height="1.51" fill="#cc1d1d"/>
    <rect x="14.4" y="9.85" width="1.51" height="1.52" fill="#ef5454"/>
    <rect x="14.4" y="8.34" width="1.51" height="1.51" fill="#fff"/>
    <rect x="12.88" y="41.66" width="1.52" height="1.51" fill="#fff"/>
    <rect x="12.88" y="40.15" width="1.52" height="1.52" fill="#aa0707"/>
    <rect x="12.88" y="38.63" width="1.52" height="1.51" fill="#cc1d1d"/>
    <rect x="12.88" y="37.12" width="1.52" height="1.52" fill="#cc1d1d"/>
    <rect x="12.88" y="35.6" width="1.52" height="1.51" fill="#cc1d1d"/>
    <rect x="12.88" y="34.09" width="1.52" height="1.52" fill="#cc1d1d"/>
    <rect x="12.88" y="32.57" width="1.52" height="1.51" fill="#cc1d1d"/>
    <rect x="12.88" y="31.06" width="1.52" height="1.51" fill="#ef5454"/>
    <rect x="12.88" y="29.54" width="1.52" height="1.52" fill="#fff"/>
    <rect x="12.88" y="18.94" width="1.52" height="1.51" fill="#fff"/>
    <rect x="12.88" y="17.43" width="1.52" height="1.52" fill="#aa0707"/>
    <rect x="12.88" y="15.91" width="1.52" height="1.51" fill="#cc1d1d"/>
    <rect x="12.88" y="14.4" width="1.52" height="1.52" fill="#cc1d1d"/>
    <rect x="12.88" y="12.88" width="1.52" height="1.51" fill="#cc1d1d"/>
    <rect x="12.88" y="11.37" width="1.52" height="1.51" fill="#cc1d1d"/>
    <rect x="12.88" y="9.85" width="1.52" height="1.52" fill="#cc1d1d"/>
    <rect x="12.88" y="8.34" width="1.52" height="1.51" fill="#ef5454"/>
    <rect x="12.88" y="6.82" width="1.52" height="1.52" fill="#fff"/>
    <rect x="11.37" y="43.18" width="1.51" height="1.52" fill="#fff"/>
    <rect x="11.37" y="41.66" width="1.51" height="1.51" fill="#aa0707"/>
    <rect x="11.37" y="40.15" width="1.51" height="1.52" fill="#cc1d1d"/>
    <rect x="11.37" y="38.63" width="1.51" height="1.51" fill="#cc1d1d"/>
    <rect x="11.37" y="37.12" width="1.51" height="1.52" fill="#cc1d1d"/>
    <rect x="11.37" y="35.6" width="1.51" height="1.51" fill="#cc1d1d"/>
    <rect x="11.37" y="34.09" width="1.51" height="1.52" fill="#cc1d1d"/>
    <rect x="11.37" y="32.57" width="1.51" height="1.51" fill="#ef5454"/>
    <rect x="11.37" y="31.06" width="1.51" height="1.51" fill="#fff"/>
    <rect x="11.37" y="17.43" width="1.51" height="1.52" fill="#fff"/>
    <rect x="11.37" y="15.91" width="1.51" height="1.51" fill="#aa0707"/>
    <rect x="11.37" y="14.4" width="1.51" height="1.52" fill="#cc1d1d"/>
    <rect x="11.37" y="12.88" width="1.51" height="1.51" fill="#cc1d1d"/>
    <rect x="11.37" y="11.37" width="1.51" height="1.51" fill="#cc1d1d"/>
    <rect x="11.37" y="9.85" width="1.51" height="1.52" fill="#cc1d1d"/>
    <rect x="11.37" y="8.34" width="1.51" height="1.51" fill="#cc1d1d"/>
    <rect x="11.37" y="6.82" width="1.51" height="1.52" fill="#ef5454"/>
    <rect x="11.37" y="5.31" width="1.51" height="1.51" fill="#fff"/>
    <rect x="9.85" y="44.69" width="1.51" height="1.51" fill="#fff"/>
    <rect x="9.85" y="43.18" width="1.51" height="1.52" fill="#aa0707"/>
    <rect x="9.85" y="41.66" width="1.51" height="1.51" fill="#cc1d1d"/>
    <rect x="9.85" y="40.15" width="1.51" height="1.52" fill="#cc1d1d"/>
    <rect x="9.85" y="38.63" width="1.51" height="1.51" fill="#cc1d1d"/>
    <rect x="9.85" y="37.12" width="1.51" height="1.52" fill="#cc1d1d"/>
    <rect x="9.85" y="35.6" width="1.51" height="1.51" fill="#cc1d1d"/>
    <rect x="9.85" y="34.09" width="1.51" height="1.52" fill="#ef5454"/>
    <rect x="9.85" y="32.57" width="1.51" height="1.51" fill="#fff"/>
    <rect x="9.85" y="15.91" width="1.51" height="1.51" fill="#fff"/>
    <rect x="9.85" y="14.4" width="1.51" height="1.52" fill="#aa0707"/>
    <rect x="9.85" y="12.88" width="1.51" height="1.51" fill="#cc1d1d"/>
    <rect x="9.85" y="11.37" width="1.51" height="1.51" fill="#cc1d1d"/>
    <rect x="9.85" y="9.85" width="1.51" height="1.52" fill="#cc1d1d"/>
    <rect x="9.85" y="8.34" width="1.51" height="1.51" fill="#cc1d1d"/>
    <rect x="9.85" y="6.82" width="1.51" height="1.52" fill="#cc1d1d"/>
    <rect x="9.85" y="5.31" width="1.51" height="1.51" fill="#ef5454"/>
    <rect x="9.85" y="3.79" width="1.51" height="1.52" fill="#fff"/>
    <rect x="8.34" y="46.2" width="1.52" height="1.52" fill="#fff"/>
    <rect x="8.34" y="44.69" width="1.52" height="1.51" fill="#aa0707"/>
    <rect x="8.34" y="43.18" width="1.52" height="1.52" fill="#cc1d1d"/>
    <rect x="8.34" y="41.66" width="1.52" height="1.51" fill="#cc1d1d"/>
    <rect x="8.34" y="40.15" width="1.52" height="1.52" fill="#cc1d1d"/>
    <rect x="8.34" y="38.63" width="1.52" height="1.51" fill="#cc1d1d"/>
    <rect x="8.34" y="37.12" width="1.52" height="1.52" fill="#cc1d1d"/>
    <rect x="8.34" y="35.6" width="1.52" height="1.51" fill="#ef5454"/>
    <rect x="8.34" y="34.09" width="1.52" height="1.52" fill="#fff"/>
    <rect x="8.34" y="14.4" width="1.52" height="1.52" fill="#fff"/>
    <rect x="8.34" y="12.88" width="1.52" height="1.51" fill="#aa0707"/>
    <rect x="8.34" y="11.37" width="1.52" height="1.51" fill="#cc1d1d"/>
    <rect x="8.34" y="9.85" width="1.52" height="1.52" fill="#cc1d1d"/>
    <rect x="8.34" y="8.34" width="1.52" height="1.51" fill="#cc1d1d"/>
    <rect x="8.34" y="6.82" width="1.52" height="1.52" fill="#cc1d1d"/>
    <rect x="8.34" y="5.31" width="1.52" height="1.51" fill="#cc1d1d"/>
    <rect x="8.34" y="3.79" width="1.52" height="1.52" fill="#ef5454"/>
    <rect x="8.34" y="2.28" width="1.52" height="1.51" fill="#fff"/>
    <rect x="6.82" y="46.2" width="1.51" height="1.52" fill="#fff"/>
    <rect x="6.82" y="44.69" width="1.51" height="1.51" fill="#aa0707"/>
    <rect x="6.82" y="43.18" width="1.51" height="1.52" fill="#cc1d1d"/>
    <rect x="6.82" y="41.66" width="1.51" height="1.51" fill="#cc1d1d"/>
    <rect x="6.82" y="40.15" width="1.51" height="1.52" fill="#cc1d1d"/>
    <rect x="6.82" y="38.63" width="1.51" height="1.51" fill="#cc1d1d"/>
    <rect x="6.82" y="37.12" width="1.51" height="1.52" fill="#ef5454"/>
    <rect x="6.82" y="35.6" width="1.51" height="1.51" fill="#fff"/>
    <rect x="6.82" y="12.88" width="1.51" height="1.51" fill="#fff"/>
    <rect x="6.82" y="11.37" width="1.51" height="1.51" fill="#aa0707"/>
    <rect x="6.82" y="9.85" width="1.51" height="1.52" fill="#cc1d1d"/>
    <rect x="6.82" y="8.34" width="1.51" height="1.51" fill="#cc1d1d"/>
    <rect x="6.82" y="6.82" width="1.51" height="1.52" fill="#cc1d1d"/>
    <rect x="6.82" y="5.31" width="1.51" height="1.51" fill="#cc1d1d"/>
    <rect x="6.82" y="3.79" width="1.51" height="1.52" fill="#ef5454"/>
    <rect x="6.82" y="2.28" width="1.51" height="1.51" fill="#fff"/>
    <rect x="5.31" y="44.69" width="1.52" height="1.51" fill="#fff"/>
    <rect x="5.31" y="43.18" width="1.52" height="1.52" fill="#aa0707"/>
    <rect x="5.31" y="41.66" width="1.52" height="1.51" fill="#cc1d1d"/>
    <rect x="5.31" y="40.15" width="1.52" height="1.52" fill="#cc1d1d"/>
    <rect x="5.31" y="38.63" width="1.52" height="1.51" fill="#ef5454"/>
    <rect x="5.31" y="37.12" width="1.52" height="1.52" fill="#fff"/>
    <rect x="5.31" y="11.37" width="1.52" height="1.51" fill="#fff"/>
    <rect x="5.31" y="9.85" width="1.52" height="1.52" fill="#aa0707"/>
    <rect x="5.31" y="8.34" width="1.52" height="1.51" fill="#cc1d1d"/>
    <rect x="5.31" y="6.82" width="1.52" height="1.52" fill="#cc1d1d"/>
    <rect x="5.31" y="5.31" width="1.52" height="1.51" fill="#ef5454"/>
    <rect x="5.31" y="3.79" width="1.52" height="1.52" fill="#fff"/>
    <rect x="3.8" y="43.18" width="1.51" height="1.52" fill="#fff"/>
    <rect x="3.8" y="41.66" width="1.51" height="1.51" fill="#aa0707"/>
    <rect x="3.8" y="40.15" width="1.51" height="1.52" fill="#ef5454"/>
    <rect x="3.8" y="38.63" width="1.51" height="1.51" fill="#fff"/>
    <rect x="3.8" y="9.85" width="1.51" height="1.52" fill="#fff"/>
    <rect x="3.8" y="8.34" width="1.51" height="1.51" fill="#aa0707"/>
    <rect x="3.8" y="6.82" width="1.51" height="1.52" fill="#ef5454"/>
    <rect x="3.8" y="5.31" width="1.51" height="1.51" fill="#fff"/>
    <rect x="2.28" y="41.66" width="1.52" height="1.51" fill="#fff"/>
    <rect x="2.28" y="40.15" width="1.52" height="1.52" fill="#fff"/>
    <rect x="2.28" y="8.34" width="1.52" height="1.51" fill="#fff"/>
    <rect x="2.28" y="6.82" width="1.52" height="1.52" fill="#fff"/>
  </g>
</svg>
