<svg id="Capa_1" data-name="Capa 1" xmlns="http://www.w3.org/2000/svg" xmlns:xlink="http://www.w3.org/1999/xlink" width="50" height="50" viewBox="0 0 50 50">
  <defs>
    <clipPath id="clip-path">
      <polygon points="24.04 49.76 1.25 39.47 1.41 9.17 24.2 19.46 24.04 49.76" fill="none"/>
    </clipPath>
    <clipPath id="clip-path-2">
      <polygon points="24.2 19.46 1.41 9.17 25.96 0.24 48.74 10.53 24.2 19.46" fill="none"/>
    </clipPath>
    <clipPath id="clip-path-3">
      <polygon points="48.74 10.53 48.59 40.82 24.04 49.76 24.2 19.46 48.74 10.53" fill="none"/>
    </clipPath>
  </defs>
  <g id="Figment_lido">
    <g style="isolation: isolate">
      <g>
        <polygon points="24.04 49.76 1.25 39.47 1.41 9.17 24.2 19.46 24.04 49.76" fill="#d6d6d6"/>
        <g style="isolation: isolate">
          <g clip-path="url(#clip-path)">
            <g>
              <path d="M14.15,38.5c0-.25,0-.49,0-.73a.22.22,0,0,1,.16-.16l4-1.07.54-.14c0,.33,0,.63,0,.93s0,.36,0,.53,0,.17-.1.18l-4.54,1.21h-.08c0-.25,0-.5,0-.74m-1.31-9.7A.67.67,0,0,1,13,29l2.9,3.61L18.64,36a1.94,1.94,0,0,1,.14.18l-1.44.38-3.11.83h-.1l-.06,0a.69.69,0,0,1-.18-.17Q10.53,33,7.15,28.76a1.58,1.58,0,0,1-.14-.2c.34-.09.67-.19,1-.25H8a.61.61,0,0,1,.14.14l0,.05,5.65,7.07.06.06,0,0a.39.39,0,0,0,.17.13.3.3,0,0,0,.23,0c.68-.2,1.37-.37,2.05-.54.07,0,.13-.06.25-.11l-4.93-6.1c.37-.1.7-.2,1-.27h.07m5,3.65c0-.53,0-1,0-1.48,0-.06,0-.12.06-.13l1-.26c0,.33,0,.64,0,.94s0,.36,0,.54l-.05.11-1,.28m-7.53-4.9c0-.55,0-1.11,0-1.67,0,0,0,0,0-.1.34.43.67.82,1,1.23a.79.79,0,0,1,.1.34c0,.23,0,.46,0,.7s0,.46,0,.68v0a.65.65,0,0,0,.18.47l4.46,5.52a2.42,2.42,0,0,1,.2.26l-1.15.28h0a.33.33,0,0,1-.11-.1c-1.53-1.89-3-3.79-4.58-5.69a.62.62,0,0,1-.09-.27c0-.56,0-1.12,0-1.68m4-.06c0-.27,0-.55,0-.84l.17.19c1,1.23,2,2.47,3,3.69a.69.69,0,0,1,.18.48v0c0,.18,0,.36,0,.55s0,.49,0,.76c-.42-.53-.82-1-1.2-1.5-.65-.8-1.3-1.62-2-2.42a.6.6,0,0,1-.16-.42v0c0-.16,0-.32,0-.49M11.64,28c0-.25,0-.49,0-.73a.13.13,0,0,1,.09-.11l2.45-.67c0,.27,0,.52,0,.77s0,.48,0,.72a.14.14,0,0,1-.08.13l-2.46.65V28m2.5,7.52a.49.49,0,0,1-.15-.14C12.21,33.2,10.43,31,8.64,28.76a1.91,1.91,0,0,1-.51-1.47c0-.86,0-1.75,0-2.63,0-.17,0-.24.15-.27.73-.18,1.45-.39,2.17-.56a.2.2,0,0,1,.13,0,.58.58,0,0,1,.12.1c.29.33.56.68.87,1.07-.44.12-.84.24-1.24.33-.13,0-.18.11-.18.3,0,1.17,0,2.34,0,3.51a.68.68,0,0,0,.18.51l4.44,5.52a1,1,0,0,1,.15.21c-.26.06-.49.13-.74.18h0M5.74,21.65s0,0,0-.12c.33.42.64.8.94,1.2a.71.71,0,0,1,.07.34c0,.85,0,1.71,0,2.57l0,2.57a.71.71,0,0,0,.19.53q3.43,4.31,6.89,8.6a.63.63,0,0,1,.16.45v0c0,.16,0,.32,0,.49v.85c-.27-.33-.52-.63-.76-.94L5.84,29.09a.53.53,0,0,1-.17-.4c0-1.17,0-2.34,0-3.51l0-3.53M7,23.12c0-.16,0-.24.17-.27,1.1-.28,2.19-.58,3.29-.87l.13,0c0,.26,0,.5,0,.74s0,.47,0,.71a.23.23,0,0,1-.16.17c-.73.2-1.45.39-2.19.57-.13,0-.19.12-.19.33v.78c0,.26,0,.52,0,.78,0,.51,0,1,0,1.55v0c0,.31-.06.46-.28.49a5.28,5.28,0,0,0-.76.19,2.45,2.45,0,0,1,0-.25l0-3.67c0-.41,0-.82,0-1.23v0m3.76-.33c0-.24,0-.48,0-.75.7.89,1.39,1.74,2.1,2.63-.35.09-.65.18-1,.25h0l0,0a.21.21,0,0,1-.11-.08c-.29-.35-.58-.71-.86-1.08a.45.45,0,0,1-.09-.25c0-.23,0-.46,0-.7m-.08-2.67,0,0a.52.52,0,0,1,.13.13q4,5,7.94,9.92l.08.12a8.64,8.64,0,0,1-1,.25h0a.53.53,0,0,1-.18-.16l-3.17-4a.52.52,0,0,0-.19-.16.15.15,0,0,0-.09,0,.14.14,0,0,0-.09,0c-.78.22-1.57.42-2.36.65h-.18a.43.43,0,0,1-.16-.13l0-.05c-.28-.38-.58-.73-.91-1.15L12.52,25l.46-.12c.08,0,.13-.06.13-.11a.43.43,0,0,0-.12-.22L11.25,22.4c-.16-.19-.31-.41-.47-.58a.54.54,0,0,0-.16-.1l0,0h-.1c-1.15.29-2.29.6-3.43.91a.22.22,0,0,1-.18,0h0a.43.43,0,0,1-.18-.16c-.27-.36-.55-.7-.85-1.08l.62-.17,4-1.07h.16m0-.26a.18.18,0,0,0-.16,0c-1.59.43-3.18.84-4.77,1.26-.1,0-.14.09-.14.25q0,3.67-.07,7.34a.64.64,0,0,0,.15.44l2,2.49,6.21,7.73a.57.57,0,0,0,.18.17.14.14,0,0,0,.11,0l4.74-1.27A.25.25,0,0,0,19,38c0-.51,0-1,0-1.54a.68.68,0,0,0-.18-.51l-3.62-4.51L13,28.71l1.07-.29a.22.22,0,0,1,.16,0,.71.71,0,0,1,.16.15l3.21,4a.35.35,0,0,0,.15.13.17.17,0,0,0,.12,0c.34-.1.69-.2,1-.28.12,0,.17-.11.16-.29,0-.48,0-1,0-1.44a.72.72,0,0,0-.2-.56Q14.87,25.09,10.83,20a.52.52,0,0,0-.19-.16"/>
              <path d="M12.84,28.8h-.07c-.34.07-.67.17-1,.27l4.93,6.1c-.12.05-.18.09-.25.11-.68.17-1.37.34-2.05.54a.3.3,0,0,1-.23,0,.39.39,0,0,1-.17-.13l0,0-.06-.06L8.22,28.5l0-.05A.61.61,0,0,0,8,28.31H8c-.33.06-.66.16-1,.25a1.58,1.58,0,0,0,.14.2q3.38,4.2,6.74,8.42a.69.69,0,0,0,.18.17l.06,0h.1l3.11-.83,1.44-.38a1.94,1.94,0,0,0-.14-.18l-2.72-3.4L13,29a.67.67,0,0,0-.18-.16" fill="#ffff49"/>
              <path d="M10.64,20.12h-.16l-4,1.07-.62.17c.3.38.58.72.85,1.08a.43.43,0,0,0,.18.16h0a.22.22,0,0,0,.18,0c1.14-.31,2.28-.62,3.43-.91h.1l0,0a.54.54,0,0,1,.16.1c.16.17.31.39.47.58L13,24.58a.43.43,0,0,1,.12.22c0,.05,0,.08-.13.11l-.46.12-2.06.55c.33.42.63.77.91,1.15l0,.05a.43.43,0,0,0,.16.13h.18c.79-.23,1.58-.43,2.36-.65a.14.14,0,0,1,.09,0,.15.15,0,0,1,.09,0,.52.52,0,0,1,.19.16l3.17,4a.53.53,0,0,0,.18.16h0a8.64,8.64,0,0,0,1-.25l-.08-.12q-4-5-7.94-9.92a.52.52,0,0,0-.13-.13l0,0" fill="#ffff49"/>
              <path d="M5.76,21.53c0,.07,0,.1,0,.12l0,3.53c0,1.17,0,2.34,0,3.51a.53.53,0,0,0,.17.4l7.35,9.14c.24.31.49.61.76.94v-.85c0-.17,0-.33,0-.49v0a.63.63,0,0,0-.16-.45q-3.45-4.29-6.89-8.6a.71.71,0,0,1-.19-.53l0-2.57c0-.86,0-1.72,0-2.57a.71.71,0,0,0-.07-.34c-.3-.4-.61-.78-.94-1.2" fill="#ffff49"/>
              <path d="M10.39,25.78c0,.06,0,.08,0,.1,0,.56,0,1.12,0,1.67s0,1.12,0,1.68a.62.62,0,0,0,.09.27C12,31.4,13.48,33.3,15,35.19a.33.33,0,0,0,.11.1h0L16.3,35a2.42,2.42,0,0,0-.2-.26l-4.46-5.52a.65.65,0,0,1-.18-.47v0c0-.22,0-.45,0-.68s0-.47,0-.7a.79.79,0,0,0-.1-.34c-.31-.41-.64-.8-1-1.23" fill="#ffff49"/>
              <path d="M10.55,22l-.13,0c-1.1.29-2.19.59-3.29.87C7,22.88,7,23,7,23.12v0c0,.41,0,.82,0,1.23l0,3.67a2.45,2.45,0,0,0,0,.25,5.28,5.28,0,0,1,.76-.19c.22,0,.28-.18.28-.49v0c0-.52,0-1,0-1.55,0-.26,0-.52,0-.78v-.78c0-.21.06-.29.19-.33.74-.18,1.46-.37,2.19-.57a.23.23,0,0,0,.16-.17c0-.24,0-.47,0-.71s0-.48,0-.74" fill="#ffff49"/>
              <path d="M18.88,36.4l-.54.14-4,1.07a.22.22,0,0,0-.16.16c0,.24,0,.48,0,.73s0,.49,0,.74h.08L18.76,38c.06,0,.1-.1.1-.18s0-.35,0-.53,0-.6,0-.93" fill="#ffff49"/>
              <path d="M14.39,26.65c0,.29,0,.57,0,.84s0,.33,0,.49v0a.6.6,0,0,0,.16.42c.66.8,1.31,1.62,2,2.42.38.49.78,1,1.2,1.5,0-.27,0-.52,0-.76s0-.37,0-.55v0a.69.69,0,0,0-.18-.48c-1-1.22-2-2.46-3-3.69l-.17-.19" fill="#ffff49"/>
              <path d="M14.2,26.53l-2.45.67a.13.13,0,0,0-.09.11c0,.24,0,.48,0,.73v.76l2.46-.65a.14.14,0,0,0,.08-.13c0-.24,0-.47,0-.72s0-.5,0-.77" fill="#ffff49"/>
              <path d="M10.73,22c0,.27,0,.51,0,.75s0,.47,0,.7a.45.45,0,0,0,.09.25c.28.37.57.73.86,1.08a.21.21,0,0,0,.11.08l0,0h0c.32-.07.62-.16,1-.25-.71-.89-1.4-1.74-2.1-2.63" fill="#ffff49"/>
              <path d="M18.94,30.58l-1,.26s-.06.07-.06.13c0,.47,0,1,0,1.48l1-.28.05-.11c0-.18,0-.35,0-.54s0-.61,0-.94" fill="#ffff49"/>
            </g>
          </g>
        </g>
      </g>
      <g>
        <polygon points="24.2 19.46 1.41 9.17 25.96 0.24 48.74 10.53 24.2 19.46" fill="#ebebeb"/>
        <g style="isolation: isolate">
          <g clip-path="url(#clip-path-2)">
            <g>
              <path d="M33.25,11.74l-.57-.26c-.06,0,0-.11,0-.16l2.41-2.73.33-.36.73.32.41.2c.06,0,.1.08.06.12-.89,1-1.81,2.06-2.72,3.09l-.07,0-.58-.26M24.5,9.13a1.15,1.15,0,0,1,.28-.06L30,8.63l4.9-.42h.26l-.87,1c-.61.71-1.24,1.41-1.85,2.12,0,0-.05.05-.08.06l-.06,0a1.08,1.08,0,0,1-.28,0l-12.13,1-.28,0c.21-.24.4-.46.61-.68l0,0,.22,0h.08l10.17-.86h.15a1.25,1.25,0,0,0,.24,0,.51.51,0,0,0,.2-.14c.39-.46.82-.93,1.23-1.39a.82.82,0,0,0,.11-.18l-8.82.76c.22-.24.41-.47.63-.7l.06,0m7-1.7-1.16-.52s-.07-.06-.05-.08c.18-.22.38-.43.59-.67l.73.33.43.2,0,.07-.58.67m-10,2.72-1.31-.59-.06-.05,1.77-.15a1.21,1.21,0,0,1,.34.06l.56.24.53.25h0a1,1,0,0,0,.52.06l8-.7.36,0c-.24.27-.46.52-.7.77h0l-.17,0-8.22.7a.66.66,0,0,1-.29,0l-1.32-.59m3.21-2.39-.66-.3.3,0L29.67,7a1,1,0,0,1,.52.06l0,0,.43.19.6.27-2.17.19-3.5.3a.84.84,0,0,1-.46,0h0l-.38-.18m-1.78,1.8-.56-.26a.06.06,0,0,1,0-.09l1.46-1.68.6.27.56.26c.05,0,.07.07,0,.09-.48.56-1,1.11-1.48,1.68l-.6-.27m8,1.16-.24,0c-3.2.27-6.42.53-9.61.82a2.61,2.61,0,0,1-1.57-.22c-.64-.33-1.37-.62-2.06-.94-.14-.05-.17-.1-.1-.18.44-.49.87-1,1.32-1.47,0,0,.06,0,.11-.06L19,8.66l1.54-.13c-.25.3-.49.57-.74.84-.08.09-.05.15.1.21l2.75,1.25a1.1,1.1,0,0,0,.56.07l8-.69h.29c-.16.17-.29.34-.46.5l0,0m-17.83.08L13,10.75l1.71-.14a.94.94,0,0,1,.33.08l2,.91,2,.91a1,1,0,0,0,.58.08l12.39-1.05a.92.92,0,0,1,.49.06h0l.38.18.67.3-1.36.12-13.2,1.13a.92.92,0,0,1-.44,0l-2.76-1.25L13.09,10.8m2.16-.21c-.13-.06-.15-.11-.08-.19l2-2.23.09-.09.58.27.55.25c.06,0,0,.1,0,.15-.43.5-.86,1-1.31,1.49-.08.09-.06.15.11.23l.61.27.61.28,1.22.54h0c.24.11.31.2.15.34a5.57,5.57,0,0,0-.46.51l-.21-.08L16.23,11l-1-.43,0,0M18,8.27,17.44,8l3.78-.32c-.21.24-.38.44-.58.65l0,0-.05,0a.45.45,0,0,1-.16,0l-1.55.13a.77.77,0,0,1-.27,0L18,8.27m-2.19-.88.06,0,.2,0,14.3-1.2h.17c-.2.23-.38.45-.6.66h0a1.18,1.18,0,0,1-.28,0L24,7.34a1.43,1.43,0,0,0-.28,0l-.09,0-.06.06c-.46.54-.94,1.08-1.4,1.61l-.06.07L22,9.2h0l-.23,0h-.07L20,9.4c.42-.49.83-1,1.23-1.4.09-.11.19-.21.27-.32s.06-.09,0-.11a.68.68,0,0,0-.27,0l-3.13.27c-.29,0-.57,0-.84.07L17.1,8l0,0L17,8c-.7.78-1.38,1.56-2.06,2.34a.44.44,0,0,1-.15.1h0a1.43,1.43,0,0,1-.28,0l-1.54.12.37-.42c.8-.91,1.61-1.82,2.4-2.73l0,0,.06,0,0,0m-.2-.1a.5.5,0,0,0-.14.1l-2.86,3.24c-.06.06,0,.11.08.17l5.77,2.6a.86.86,0,0,0,.47.06l3.59-.31,11.16-1,.28,0,.1-.07,2.83-3.23s0-.12-.09-.15c-.38-.19-.8-.37-1.2-.56a1,1,0,0,0-.55-.07l-6.5.55-4,.34.64-.72a.22.22,0,0,1,.13-.1l.25,0,5.77-.49a1,1,0,0,0,.22,0,.3.3,0,0,0,.11-.07c.19-.24.4-.47.62-.71.07-.08,0-.13-.11-.19L31.09,6.1a1,1,0,0,0-.6-.08L15.92,7.24a1.43,1.43,0,0,0-.28,0"/>
              <path d="M24.5,9.13l-.06,0c-.22.23-.41.46-.63.7l8.82-.76a.82.82,0,0,1-.11.18c-.41.46-.84.93-1.23,1.39a.51.51,0,0,1-.2.14,1.25,1.25,0,0,1-.24,0H30.7l-10.17.86h-.08l-.22,0,0,0c-.21.22-.4.44-.61.68l.28,0,12.13-1a1.08,1.08,0,0,0,.28,0l.06,0s0,0,.08-.06c.61-.71,1.24-1.41,1.85-2.12l.87-1h-.26L30,8.63l-5.2.44a1.15,1.15,0,0,0-.28.06" fill="#ffff49"/>
              <path d="M15.84,7.39l0,0-.06,0,0,0c-.79.91-1.6,1.82-2.4,2.73l-.37.42,1.54-.12a1.43,1.43,0,0,0,.28,0h0a.44.44,0,0,0,.15-.1C15.59,9.58,16.27,8.8,17,8l.09,0,0,0,.21,0c.27,0,.55-.05.84-.07l3.13-.27a.68.68,0,0,1,.27,0s0,0,0,.11-.18.21-.27.32c-.4.45-.81.91-1.23,1.4l1.65-.14h.07l.23,0h0l.07,0,.06-.07c.46-.53.94-1.07,1.4-1.61l.06-.06.09,0a1.43,1.43,0,0,1,.28,0l5.7-.49a1.18,1.18,0,0,0,.28,0h0c.22-.21.4-.43.6-.66H30.4L16.1,7.34l-.2,0-.06,0" fill="#ffff49"/>
              <path d="M13,10.75l.08.05,2.77,1.25,2.76,1.25a.92.92,0,0,0,.44,0l13.2-1.13,1.36-.12-.67-.3-.38-.18h0a.92.92,0,0,0-.49-.06L19.66,12.59a1,1,0,0,1-.58-.08l-2-.91-2-.91a.94.94,0,0,0-.33-.08L13,10.75" fill="#ffff49"/>
              <path d="M20.13,9.51l.06.05,1.31.59,1.32.59a.66.66,0,0,0,.29,0l8.22-.7.17,0h0c.24-.25.46-.5.7-.77l-.36,0-8,.7a1,1,0,0,1-.52-.06h0l-.53-.25-.56-.24a1.21,1.21,0,0,0-.34-.06l-1.77.15" fill="#ffff49"/>
              <path d="M17.23,8.08l-.09.09-2,2.23c-.07.08-.05.13.08.19l0,0,1,.43,2.88,1.3.21.08a5.57,5.57,0,0,1,.46-.51c.16-.14.09-.23-.15-.34h0L18.38,11l-.61-.28-.61-.27c-.17-.08-.19-.14-.11-.23.45-.5.88-1,1.31-1.49,0-.05.06-.12,0-.15l-.55-.25-.58-.27" fill="#ffff49"/>
              <path d="M35.42,8.23l-.33.36-2.41,2.73s-.06.12,0,.16l.57.26.58.26.07,0c.91-1,1.83-2.06,2.72-3.09,0,0,0-.1-.06-.12l-.41-.2-.73-.32" fill="#ffff49"/>
              <path d="M24.05,7.46l.66.3.38.18h0a.84.84,0,0,0,.46,0l3.5-.3,2.17-.19-.6-.27-.43-.19,0,0A1,1,0,0,0,29.67,7l-5.32.46-.3,0" fill="#ffff49"/>
              <path d="M23.81,7.53,22.35,9.21a.06.06,0,0,0,0,.09l.56.26.6.27c.51-.57,1-1.12,1.48-1.68,0,0,0-.07,0-.09l-.56-.26-.6-.27" fill="#ffff49"/>
              <path d="M17.44,8l.59.26.55.25a.77.77,0,0,0,.27,0l1.55-.13a.45.45,0,0,0,.16,0l.05,0,0,0c.2-.21.37-.41.58-.65L17.44,8" fill="#ffff49"/>
              <path d="M30.86,6.16c-.21.24-.41.45-.59.67,0,0,0,.06.05.08l1.16.52.58-.67,0-.07-.43-.2-.73-.33" fill="#ffff49"/>
            </g>
          </g>
        </g>
      </g>
      <g>
        <polygon points="48.74 10.53 48.59 40.82 24.04 49.76 24.2 19.46 48.74 10.53" fill="#f0f0f0"/>
        <g style="isolation: isolate">
          <g clip-path="url(#clip-path-3)">
            <g>
              <path d="M38.69,38.37c0-.26,0-.52,0-.79a.72.72,0,0,1,.19-.32l4.73-4.84.64-.64v1c0,.19,0,.38,0,.57a.47.47,0,0,1-.12.29c-1.78,1.83-3.57,3.65-5.35,5.47l-.09.06v-.8m-1.6-9.13a.28.28,0,0,1,.22,0c1.15.38,2.29.78,3.44,1.18L44,31.53l.16.07-1.69,1.73-3.66,3.75-.13.1-.06,0a.28.28,0,0,1-.22,0l-8-2.78-.17-.07c.41-.42.79-.82,1.18-1.2l0,0a.3.3,0,0,1,.16,0l.05,0,6.71,2.33.06,0h0a.34.34,0,0,0,.2,0,.67.67,0,0,0,.28-.2c.8-.83,1.61-1.64,2.41-2.46.08-.08.15-.18.29-.34l-5.84-2c.43-.44.82-.86,1.22-1.25l.08,0m6-.76c0-.57,0-1.08,0-1.6a.39.39,0,0,1,.06-.18l1.16-1.18v1c0,.19,0,.39,0,.58l-.06.17-1.17,1.2m-8.91,1.71c0-.6,0-1.2,0-1.8a.49.49,0,0,1,0-.12c.4.14.79.26,1.16.41.06,0,.12.15.12.26s0,.49,0,.74,0,.5,0,.75v0a.3.3,0,0,0,.22.34c1.77.58,3.53,1.18,5.3,1.77l.23.09c-.46.48-.91.92-1.35,1.36h0l0,0a.2.2,0,0,1-.13,0q-2.73-.91-5.43-1.86a.23.23,0,0,1-.12-.2c0-.6,0-1.2,0-1.8m4.75-3.77c0-.3,0-.6,0-.91a1.08,1.08,0,0,1,.21,0c1.17.4,2.34.81,3.52,1.2.15,0,.21.14.21.34v0c0,.2,0,.39,0,.59v.83l-1.43-.5c-.77-.26-1.54-.53-2.32-.78-.13,0-.19-.12-.2-.3v0c0-.18,0-.36,0-.53m-3.22,3.1c0-.27,0-.53,0-.79a.4.4,0,0,1,.11-.2c.94-1,1.89-2,2.89-3,0,.29,0,.56,0,.82s0,.53,0,.78a.31.31,0,0,1-.09.21c-.95,1-1.91,1.95-2.91,3,0-.28,0-.55,0-.82m3,5.72a.31.31,0,0,1-.19,0c-2.11-.73-4.22-1.5-6.35-2.18-.47-.15-.64-.43-.6-1.11,0-1,0-1.89,0-2.83a.53.53,0,0,1,.18-.43c.85-.86,1.7-1.74,2.56-2.6a.42.42,0,0,1,.14-.09.28.28,0,0,1,.15,0c.34.1.66.22,1,.35-.52.53-1,1-1.47,1.49a.61.61,0,0,0-.2.49c0,1.25,0,2.51,0,3.77,0,.23.06.32.22.38l5.27,1.79.18.09-.88.88,0,0m-10-7.1s0-.06,0-.15c.39.14.76.26,1.12.42.06,0,.08.18.08.29,0,.92,0,1.84,0,2.76s0,1.85,0,2.77c0,.24.05.35.22.4l8.18,2.83c.14,0,.2.14.2.33v0c0,.17,0,.35,0,.52v.92l-.9-.3-8.73-3a.23.23,0,0,1-.19-.28c0-1.26,0-2.52,0-3.78s0-2.53,0-3.79m1.45.44a.56.56,0,0,1,.19-.44q2-2,3.88-3.95a1.1,1.1,0,0,1,.15-.14v.79c0,.26,0,.51,0,.77a.61.61,0,0,1-.18.32c-.86.88-1.71,1.76-2.58,2.63a.66.66,0,0,0-.22.53v.83c0,.28,0,.56,0,.84v1.69a.94.94,0,0,1-.33.79c-.3.26-.58.58-.9.9,0-.12,0-.19,0-.26,0-1.32,0-2.63,0-4,0-.44,0-.87,0-1.31v0m4.43-3.8V24l2.5.86c-.41.43-.77.8-1.14,1.16l-.05,0,0,0a.2.2,0,0,1-.13,0,8.8,8.8,0,0,1-1-.36.2.2,0,0,1-.11-.18v-.74M34.45,22h0a.28.28,0,0,1,.15,0l9.43,3.28s0,0,.1.05c-.4.4-.77.79-1.15,1.15,0,0,0,0,0,0h0a.49.49,0,0,1-.21,0L39,25.21a.34.34,0,0,0-.22,0,.53.53,0,0,0-.1.06l-.11.1c-.92,1-1.85,1.9-2.78,2.86l-.11.11-.08.05h0a.28.28,0,0,1-.18,0l0,0c-.34-.14-.69-.24-1.08-.38l2.42-2.48.55-.56c.1-.11.15-.18.15-.23s0-.1-.14-.13l-2.07-.72a3.65,3.65,0,0,0-.56-.18.39.39,0,0,0-.18,0l0,0-.12.08q-2,2.06-4,4.13a.83.83,0,0,1-.21.16h0a.34.34,0,0,1-.22,0c-.31-.14-.65-.24-1-.37l.73-.75q2.37-2.41,4.73-4.84l.06-.05L34.4,22l.05,0m0-.29a.7.7,0,0,0-.19.14c-1.87,1.92-3.75,3.83-5.62,5.74a.59.59,0,0,0-.17.4c0,2.63,0,5.26,0,7.89,0,.2.05.28.19.33.79.26,1.58.54,2.37.81l7.38,2.52a.26.26,0,0,0,.21,0,.4.4,0,0,0,.14-.09l5.58-5.72a.64.64,0,0,0,.15-.37c0-.56,0-1.11,0-1.67,0-.23,0-.33-.21-.38L40,29.85,37.33,29l1.26-1.29a.59.59,0,0,1,.19-.15.25.25,0,0,1,.19,0l3.81,1.31a.25.25,0,0,0,.17,0,.36.36,0,0,0,.15-.11c.4-.42.81-.84,1.22-1.24A.56.56,0,0,0,44.5,27c0-.51,0-1,0-1.55,0-.26-.06-.36-.23-.42l-9.61-3.34a.34.34,0,0,0-.22,0"/>
              <path d="M37.09,29.24l-.08,0c-.4.39-.79.81-1.22,1.25l5.84,2c-.14.16-.21.26-.29.34-.8.82-1.61,1.63-2.41,2.46a.67.67,0,0,1-.28.2.34.34,0,0,1-.2,0h0l-.06,0-6.71-2.33-.05,0a.3.3,0,0,0-.16,0l0,0c-.39.38-.77.78-1.18,1.2l.17.07,8,2.78a.28.28,0,0,0,.22,0l.06,0,.13-.1,3.66-3.75,1.69-1.73L44,31.53l-3.23-1.11c-1.15-.4-2.29-.8-3.44-1.18a.28.28,0,0,0-.22,0" fill="#ffff49"/>
              <path d="M34.45,22l-.05,0-.08.06-.06.05Q31.9,24.56,29.53,27l-.73.75c.36.13.7.23,1,.37a.34.34,0,0,0,.22,0h0a.83.83,0,0,0,.21-.16q2-2.07,4-4.13l.12-.08,0,0a.39.39,0,0,1,.18,0,3.65,3.65,0,0,1,.56.18l2.07.72c.09,0,.14.07.14.13s0,.12-.15.23l-.55.56L34.27,28c.39.14.74.24,1.08.38l0,0a.28.28,0,0,0,.18,0h0l.08-.05.11-.11c.93-1,1.86-1.9,2.78-2.86l.11-.1a.53.53,0,0,1,.1-.06.34.34,0,0,1,.22,0l3.77,1.3a.49.49,0,0,0,.21,0h0s0,0,0,0c.38-.36.75-.75,1.15-1.15-.06,0-.08-.05-.1-.05L34.65,22a.28.28,0,0,0-.15,0h0" fill="#ffff49"/>
              <path d="M28.7,28c0,.09,0,.12,0,.15,0,1.26,0,2.52,0,3.79s0,2.52,0,3.78a.23.23,0,0,0,.19.28l8.73,3,.9.3v-.92c0-.17,0-.35,0-.52v0c0-.19-.06-.28-.2-.33l-8.18-2.83c-.17-.05-.23-.16-.22-.4,0-.92,0-1.84,0-2.77s0-1.84,0-2.76c0-.11,0-.27-.08-.29-.36-.16-.73-.28-1.12-.42" fill="#ffff49"/>
              <path d="M34.19,28.27a.49.49,0,0,0,0,.12c0,.6,0,1.2,0,1.8s0,1.2,0,1.8a.23.23,0,0,0,.12.2q2.7.95,5.43,1.86a.2.2,0,0,0,.13,0l0,0h0c.44-.44.89-.88,1.35-1.36L41,32.58c-1.77-.59-3.53-1.19-5.3-1.77a.3.3,0,0,1-.22-.34v0c0-.25,0-.5,0-.75s0-.5,0-.74-.06-.24-.12-.26c-.37-.15-.76-.27-1.16-.41" fill="#ffff49"/>
              <path d="M34.35,24.05a1.1,1.1,0,0,0-.15.14q-1.94,2-3.88,3.95a.56.56,0,0,0-.19.44v0c0,.44,0,.87,0,1.31,0,1.32,0,2.63,0,4,0,.07,0,.14,0,.26.32-.32.6-.64.9-.9a.94.94,0,0,0,.33-.79V30.76c0-.28,0-.56,0-.84v-.83a.66.66,0,0,1,.22-.53c.87-.87,1.72-1.75,2.58-2.63a.61.61,0,0,0,.18-.32c0-.26,0-.51,0-.77v-.79" fill="#ffff49"/>
              <path d="M44.26,31.78l-.64.64-4.73,4.84a.72.72,0,0,0-.19.32c0,.27,0,.53,0,.79v.8l.09-.06c1.78-1.82,3.57-3.64,5.35-5.47a.47.47,0,0,0,.12-.29c0-.19,0-.38,0-.57v-1" fill="#ffff49"/>
              <path d="M38.91,25.51c0,.31,0,.61,0,.91s0,.35,0,.53v0c0,.18.07.26.2.3.78.25,1.55.52,2.32.78l1.43.5v-.83c0-.2,0-.39,0-.59v0c0-.2-.06-.29-.21-.34-1.18-.39-2.35-.8-3.52-1.2a1.08,1.08,0,0,0-.21,0" fill="#ffff49"/>
              <path d="M38.69,25.56c-1,1-1.95,2-2.89,3a.4.4,0,0,0-.11.2c0,.26,0,.52,0,.79s0,.54,0,.82c1-1,2-2,2.91-3a.31.31,0,0,0,.09-.21c0-.25,0-.51,0-.78s0-.53,0-.82" fill="#ffff49"/>
              <path d="M34.56,24v1.55a.2.2,0,0,0,.11.18,8.8,8.8,0,0,0,1,.36.2.2,0,0,0,.13,0l0,0,.05,0c.37-.36.73-.73,1.14-1.16L34.56,24" fill="#ffff49"/>
              <path d="M44.3,25.52,43.14,26.7a.39.39,0,0,0-.06.18c0,.52,0,1,0,1.6l1.17-1.2.06-.17c0-.19,0-.39,0-.58v-1" fill="#ffff49"/>
            </g>
          </g>
        </g>
      </g>
    </g>
  </g>
</svg>
