<svg id="Capa_1" data-name="Capa 1" xmlns="http://www.w3.org/2000/svg" xmlns:xlink="http://www.w3.org/1999/xlink" width="50" height="50" viewBox="0 0 50 50">
  <defs>
    <clipPath id="clip-path">
      <polygon points="24.04 49.76 1.26 39.47 1.42 9.17 24.2 19.46 24.04 49.76" fill="none"/>
    </clipPath>
    <clipPath id="clip-path-2">
      <polygon points="24.2 19.46 1.42 9.17 25.96 0.24 48.75 10.53 24.2 19.46" fill="none"/>
    </clipPath>
    <clipPath id="clip-path-3">
      <polygon points="48.75 10.53 48.59 40.82 24.04 49.76 24.2 19.46 48.75 10.53" fill="none"/>
    </clipPath>
  </defs>
  <g id="Figment_lido">
    <g style="isolation: isolate">
      <g>
        <polygon points="24.04 49.76 1.26 39.47 1.42 9.17 24.2 19.46 24.04 49.76" fill="#353535"/>
        <g style="isolation: isolate">
          <g clip-path="url(#clip-path)">
            <path d="M9.5,29.31q.95.44,1.89.84h0a1.29,1.29,0,0,1,.7.88q1.07,3.08,2.18,6.15a7.88,7.88,0,0,0,.54,1L9.68,35.92l.94-1.81c.18-.33.36-.66.53-1A1,1,0,0,0,11,31.91a.87.87,0,0,0-.26-.23c-.19-.08-.37,0-.52.29-.51,1-1,2-1.55,2.93a.44.44,0,0,1,0,.09h0a11.39,11.39,0,0,0-.31-1.32c-.61-1.75-1.24-3.5-1.85-5.25-.06-.15-.1-.31-.18-.54l.35.16L9.5,29.31m6,8.55c-.6-1.71-1.18-3.32-1.75-4.94-.27-.78-.54-1.55-.82-2.32a1.06,1.06,0,0,1,0-.91q1.35-2.57,2.71-5.13l0,0s0,0,0,0A13.49,13.49,0,0,0,16,25.89c.62,1.8,1.26,3.59,1.89,5.38,0,.11.07.22.12.4l-.88-.4-1.05-.47-1-.46c-.4-.17-.63,0-.63.43a1.07,1.07,0,0,0,.63,1l1.18.54,1.06.46a3.68,3.68,0,0,0,.86.14c-.85,1.6-1.71,3.23-2.6,4.93M10.8,26.62a.34.34,0,0,0,.24,0c.24-.07.36-.44.22-.84-.42-1.24-.86-2.47-1.32-3.7a4.35,4.35,0,0,0-.48-.8l5.19,2.33c-.26.5-.5,1-.75,1.42-.6,1.14-1.21,2.28-1.81,3.43a.45.45,0,0,1-.68.23h0l-2.28-1-1.89-.86a1.3,1.3,0,0,0-1.07-.14c.87-1.64,1.74-3.3,2.64-5,.49,1.4,1,2.73,1.44,4.06a1.63,1.63,0,0,0,.11.31.93.93,0,0,0,.45.54M15,22.31h0l-1.33-.59-1.34-.6-1.33-.6-1.34-.6h0a1.13,1.13,0,0,0-1.65.57Q6.56,23.07,5.2,25.66a2.4,2.4,0,0,0,0,1.94q1.37,3.9,2.75,7.79a3.1,3.1,0,0,0,1.58,1.92l2.71,1.21,2.72,1.23h0a.9.9,0,0,0,1.31-.43c.91-1.74,1.83-3.47,2.75-5.21a3.16,3.16,0,0,0,0-2.55c-.89-2.51-1.78-5-2.66-7.53A2.71,2.71,0,0,0,15,22.31" fill="#fff"/>
          </g>
        </g>
      </g>
      <g>
        <polygon points="24.2 19.46 1.42 9.17 25.96 0.24 48.75 10.53 24.2 19.46" fill="#3a3a3a"/>
        <g style="isolation: isolate">
          <g clip-path="url(#clip-path-2)">
            <path d="M23.15,11.15l2.16-.8h0a2.47,2.47,0,0,1,1.23-.1c2.15.3,4.3.59,6.47.87.39.05.83,0,1.23.05l-5.9,2.14-.62-1.16c-.12-.21-.22-.43-.34-.64s-.51-.39-1-.35a1.62,1.62,0,0,0-.38.07c-.22.08-.29.22-.19.4.34.63.67,1.26,1,1.89a.28.28,0,0,1,0,.06h0c-.4-.09-.81-.21-1.27-.28l-5.51-.74-.55-.09.4-.14,3.25-1.18m11.4-.52-5.2-.69-2.43-.33c-.4,0-.62-.15-.7-.31C25.63,8.2,25,7.1,24.46,6a0,0,0,0,1,0,0h0c.4.09.82.21,1.27.28L31.38,7l.4.07-1,.37-1.2.43-1.19.44c-.46.17-.51.35-.18.51a1.74,1.74,0,0,0,1.29,0l1.36-.49,1.2-.45a6,6,0,0,0,.8-.44c.55,1,1.11,2.08,1.7,3.17M22.13,9.48a.58.58,0,0,0,.22-.13c.13-.16-.05-.36-.47-.42-1.29-.18-2.59-.35-3.89-.51a8.51,8.51,0,0,0-1,0l5.95-2.17c.17.33.34.63.49.92.39.74.77,1.48,1.18,2.21.11.2,0,.34-.37.47h0l-2.62.94-2.17.79a2.05,2.05,0,0,0-1,.56l-1.7-3.21L21,9.51l.32,0a1.89,1.89,0,0,0,.78-.07m0-3.85h0l-1.52.56-1.53.56-1.53.55L16,7.86h0c-.85.31-1.13.69-.89,1.15l1.78,3.34c.18.33.68.57,1.48.67q4.08.57,8.18,1.11a5.91,5.91,0,0,0,2.73-.24l3.11-1.14,3.12-1.13h0c.66-.24.9-.53.71-.89L34.46,7.36c-.24-.44-.9-.73-2-.87L24.59,5.42a4.93,4.93,0,0,0-2.43.21" fill="#fff"/>
          </g>
        </g>
      </g>
      <g>
        <polygon points="48.75 10.53 48.59 40.82 24.04 49.76 24.2 19.46 48.75 10.53" fill="#3b3b3b"/>
        <g style="isolation: isolate">
          <g clip-path="url(#clip-path-3)">
            <path d="M33.86,32.23l2-.75h0a.53.53,0,0,1,.75.28q1.16,2.11,2.35,4.19a2.61,2.61,0,0,0,.58.57l-5.55,2c.36-.88.69-1.72,1-2.56l.57-1.4c.23-.58.19-1-.13-1.08a.34.34,0,0,0-.28,0c-.21.07-.4.31-.56.71L33,38.34a.85.85,0,0,1-.05.13h0a6.1,6.1,0,0,0-.34-1c-.65-1.21-1.32-2.39-2-3.59-.06-.1-.11-.22-.19-.37l.38-.14,3.06-1.11m6.5,3.33c-.65-1.16-1.27-2.26-1.88-3.37-.3-.53-.59-1.06-.89-1.58a1,1,0,0,1,0-.89c1-2.41,2-4.83,2.93-7.24,0,0,0,0,0,0l0,0a6.93,6.93,0,0,0,.35,1c.66,1.25,1.36,2.45,2,3.68a2.35,2.35,0,0,1,.12.29l-1,.35-1.13.4-1.12.42a1,1,0,0,0-.69.94c0,.45.24.63.69.47s.85-.29,1.27-.45.76-.28,1.14-.44a5.82,5.82,0,0,0,.93-.57c-.92,2.27-1.85,4.57-2.81,7m-5.1-7a.71.71,0,0,0,.27-.18,1,1,0,0,0,.24-1c-.46-.85-.93-1.69-1.42-2.5-.12-.2-.35-.26-.52-.39l5.6-2c-.29.71-.55,1.37-.81,2-.66,1.61-1.32,3.23-2,4.84a1.18,1.18,0,0,1-.73.79h0L33.45,31l-2,.73a2.52,2.52,0,0,0-1.15.76c.94-2.34,1.89-4.67,2.85-7.05l1.55,2.76a1.43,1.43,0,0,0,.12.21.39.39,0,0,0,.48.16m4.5-7.66h0l-1.43.53-1.44.53-1.45.52L34,23h0a3.15,3.15,0,0,0-1.79,1.94l-2.95,7.32a2.17,2.17,0,0,0,0,1.91c1,1.78,2,3.56,3,5.32a1.26,1.26,0,0,0,1.7.56L36.79,39l2.93-1.06h0a2.45,2.45,0,0,0,1.41-1.5c1-2.46,2-4.91,3-7.37a2.79,2.79,0,0,0,0-2.48c-.95-1.71-1.92-3.41-2.86-5.14a1.09,1.09,0,0,0-1.5-.52" fill="#fff"/>
          </g>
        </g>
      </g>
    </g>
  </g>
</svg>
