<svg id="Capa_1" data-name="Capa 1" xmlns="http://www.w3.org/2000/svg" xmlns:xlink="http://www.w3.org/1999/xlink" width="50" height="50" viewBox="0 0 50 50">
  <defs>
    <clipPath id="clip-path">
      <polygon points="24.04 49.76 1.26 39.47 1.42 9.17 24.2 19.46 24.04 49.76" fill="none"/>
    </clipPath>
    <clipPath id="clip-path-2">
      <polygon points="24.2 19.46 1.42 9.17 25.96 0.24 48.75 10.53 24.2 19.46" fill="none"/>
    </clipPath>
    <clipPath id="clip-path-3">
      <polygon points="48.75 10.53 48.59 40.82 24.04 49.76 24.2 19.46 48.75 10.53" fill="none"/>
    </clipPath>
  </defs>
  <g id="Figment_lido">
    <g style="isolation: isolate">
      <g>
        <polygon points="24.04 49.76 1.26 39.47 1.42 9.17 24.2 19.46 24.04 49.76" fill="silver"/>
        <g style="isolation: isolate">
          <g clip-path="url(#clip-path)">
            <g>
              <path d="M12.85,24.13h0v.08c0,3.61-.07,7.21-.11,10.83h0a1.65,1.65,0,0,0,.27.4q2.16,2.64,4.27,5.32a.76.76,0,0,0,.23.24l.1,0c.66.8,1.31,1.6,2,2.41a.53.53,0,0,0,.17.17c.05,0,.08,0,.08-.24,0-3.5.07-7,.11-10.51q-1.39-1.7-2.78-3.4-2-2.49-4-5a.81.81,0,0,1-.19-.3s0,0,0,0h0" fill="#1a8e5c"/>
              <path d="M5.7,26.36h0c0,.95,0,1.91,0,2.86l0,2.4,0,3.17,0,2.37,2.69-.78.06,0a.27.27,0,0,0,.25,0c1.29-.39,2.59-.79,3.89-1.17.1,0,.2,0,.23-.19h0a7,7,0,0,0-.83-1.09q-2.58-3.21-5.18-6.41L5.7,26.36" fill="#fefefe"/>
              <path d="M19.91,22l-1,.3a.71.71,0,0,0-.29,0c-1.07.32-2.15.62-3.21,1-.71.21-1.42.4-2.13.62-.14,0-.32,0-.41.21s0,0,0,0a.81.81,0,0,0,.19.3q2,2.48,4,5,1.38,1.71,2.78,3.4c0-3.51.08-7,.12-10.55L19.91,22" fill="#fefefe"/>
              <path d="M5.77,15.49l0,1,0,2.47,0,2.49,0,1.58,0,2.33c0,.33,0,.65,0,1h0a10.72,10.72,0,0,1,1.66-.54c1.79-.55,3.58-1.08,5.37-1.61h.08v-.08a1.07,1.07,0,0,0-.23-.34c-.73-.92-1.48-1.83-2.21-2.74S8.71,19,7.87,18a3.6,3.6,0,0,0-.66-.73L5.77,15.49" fill="#1a8e5c"/>
              <path d="M12.81,24.21h-.08c-1.79.53-3.58,1.06-5.37,1.61a10.72,10.72,0,0,0-1.66.54l.93,1.16q2.6,3.19,5.18,6.41A7,7,0,0,1,12.64,35h.06c0-3.62.08-7.22.11-10.83" fill="#bfdabc"/>
            </g>
          </g>
        </g>
      </g>
      <g>
        <polygon points="24.2 19.46 1.42 9.17 25.96 0.24 48.75 10.53 24.2 19.46" fill="#d3d3d3"/>
        <g style="isolation: isolate">
          <g clip-path="url(#clip-path-2)">
            <g>
              <path d="M21.83,7.85l0,0h0l0,0,8,3.61,0,0a2.9,2.9,0,0,0,.51,0c2.41-.22,4.81-.43,7.23-.62a1.36,1.36,0,0,0,.36-.05l.08,0,3.3-.29a.9.9,0,0,0,.25,0c.06,0,0-.06-.11-.12L33.68,6.83,29,7.26l-6.79.6a1.51,1.51,0,0,1-.37,0s0,0,0,0h0" fill="#1a8e5c"/>
              <path d="M18.06,12.55h0l2.11,1,1.78.81,2.34,1.06,1.76.79c.51-.6,1-1.17,1.46-1.75l.07,0a.34.34,0,0,0,.18-.14l2.09-2.55c.06-.06.11-.12,0-.19h0a11.8,11.8,0,0,0-1.46.1l-8.74.77-1.57.13" fill="#fefefe"/>
              <path d="M25.64,3.25l-.53.66a1,1,0,0,0-.23.15c-.57.7-1.16,1.4-1.72,2.1-.38.47-.78.92-1.15,1.39-.08.09-.23.19-.16.3s0,0,0,0a1.51,1.51,0,0,0,.37,0L29,7.26l4.66-.43L25.87,3.3l-.23,0" fill="#fefefe"/>
              <path d="M10,9l.74.33,1.84.83,1.84.83,1.17.53,1.73.78.73.32h0a8.34,8.34,0,0,1,.85-1.1L21.8,8l.06,0,0,0h0a1.93,1.93,0,0,0-.42,0c-1.25.1-2.5.22-3.74.33l-4.22.37a7,7,0,0,0-1.05.13L10,9" fill="#1a8e5c"/>
              <path d="M21.86,7.91,21.8,8l-2.89,3.5a8.34,8.34,0,0,0-.85,1.1l1.57-.13,8.74-.77a11.8,11.8,0,0,1,1.46-.1h0l0,0-8-3.61" fill="#bfdabc"/>
            </g>
          </g>
        </g>
      </g>
      <g>
        <polygon points="48.75 10.53 48.59 40.82 24.04 49.76 24.2 19.46 48.75 10.53" fill="#d8d8d8"/>
        <g style="isolation: isolate">
          <g clip-path="url(#clip-path-3)">
            <g>
              <path d="M37.16,24.66l0,0v0h0v.06c0,3.57,0,7.13,0,10.71l0,0c.07.11.19.13.3.17,1.57.51,3.12,1,4.66,1.59a.38.38,0,0,0,.26,0,.46.46,0,0,0,.1-.07l2.14.7c.08,0,.14.05.18,0s.09-.1.1-.3c0-3.47,0-6.94,0-10.4-1-.32-2-.64-3-1l-4.4-1.46c-.08,0-.17,0-.22-.12l0-.05h0" fill="#1a8e5c"/>
              <path d="M29.41,32.93h0l0,2.85v2.37l0,3.13v2.36l2.91-3,.06,0a.66.66,0,0,0,.27-.23l4.22-4.45a.73.73,0,0,0,.25-.38h0a2.34,2.34,0,0,0-.91-.37q-2.82-1-5.66-1.89c-.34-.11-.68-.24-1-.34" fill="#fefefe"/>
              <path d="M44.8,16.62c-.36.39-.72.76-1.09,1.15a2.1,2.1,0,0,0-.3.24c-1.16,1.22-2.33,2.44-3.48,3.67l-2.31,2.41a1.84,1.84,0,0,0-.45.57l0,.05c.05.1.14.1.22.12l4.4,1.46c1,.34,2,.66,3,1,0-3.48.05-7,.06-10.45l-.06-.2" fill="#fefefe"/>
              <path d="M29.41,22.21v1l0,2.46V32c0,.32,0,.63,0,.95h0c.57-.71,1.2-1.31,1.8-1.95,1.93-2.05,3.88-4.09,5.81-6.13l.09-.07v-.06h0c0-.11-.16-.12-.25-.15-.8-.29-1.62-.53-2.42-.81s-1.81-.62-2.73-.91a1.58,1.58,0,0,0-.72-.15l-1.58-.48" fill="#1a8e5c"/>
              <path d="M37.11,24.78l-.09.07c-1.93,2-3.88,4.08-5.81,6.13-.6.64-1.23,1.24-1.8,1.95.34.1.68.23,1,.34q2.84.93,5.66,1.89a2.34,2.34,0,0,1,.91.37h0l0,0c0-3.58,0-7.14,0-10.71" fill="#bfdabc"/>
            </g>
          </g>
        </g>
      </g>
    </g>
  </g>
</svg>
