<svg id="Capa_1" data-name="Capa 1" xmlns="http://www.w3.org/2000/svg" xmlns:xlink="http://www.w3.org/1999/xlink" width="50" height="50" viewBox="0 0 50 50">
  <defs>
    <clipPath id="clip-path">
      <polygon points="24.04 49.76 1.25 39.47 1.41 9.17 24.2 19.46 24.04 49.76" fill="none"/>
    </clipPath>
    <clipPath id="clip-path-2">
      <polygon points="24.2 19.46 1.41 9.17 25.96 0.24 48.74 10.53 24.2 19.46" fill="none"/>
    </clipPath>
    <clipPath id="clip-path-3">
      <polygon points="48.74 10.53 48.58 40.83 24.04 49.76 24.2 19.46 48.74 10.53" fill="none"/>
    </clipPath>
  </defs>
  <g id="Figment_lido">
    <g style="isolation: isolate">
      <g>
        <polygon points="24.04 49.76 1.25 39.47 1.41 9.17 24.2 19.46 24.04 49.76" fill="#06162d"/>
        <g style="isolation: isolate">
          <g clip-path="url(#clip-path)">
            <g>
              <path d="M4.39,24.17l.88.4.85.4h0c.13.06.18.16.18.35,0,.79,0,1.57,0,2.36,0,.2-.06.25-.21.18l-.86-.4q-.44-.21-.87-.39a.37.37,0,0,1-.2-.38l0-2.35c0-.19.06-.25.19-.19h0M8.27,23,2.32,20.3c-.23-.11-.25-.1-.25.21l-.08,8c0,.32,0,.35.25.46l2.94,1.36,3,1.37c.21.09.24.07.24-.22l.09-8.07c0-.26,0-.33-.22-.41" fill="#fff" opacity="0.8"/>
              <path d="M11.47,24.51l-1.64-.75c-.25-.12-.27-.1-.27.23l-.09,8c0,.29,0,.35.24.45l1.66.77c.21.09.24.06.24-.23l0-2.31v-.26l.2.09,1.71.79c.18.09.23.06.23-.18l0-2.32c0-.27,0-.3-.22-.4L12,27.7l-.37-.17v-.27c0-.78,0-1.56,0-2.34,0-.25,0-.32-.22-.41" fill="#fff" opacity="0.8"/>
              <path d="M15.69,32.29,14,31.5c-.17-.07-.21,0-.22.19l0,2.35a.35.35,0,0,0,.18.36h0l.29.13.58.27.85.39c.18.08.22,0,.22-.18l0-2.33c0-.25,0-.32-.23-.4" fill="#fff" opacity="0.8"/>
              <path d="M15.8,26.51,14,25.69c-.13-.06-.18,0-.19.16l0,2.4a.32.32,0,0,0,.2.35l.28.13.58.27.58.26.29.14c.14.06.21,0,.21-.17l0-2.39a.32.32,0,0,0-.18-.33" fill="#fff" opacity="0.8"/>
              <path d="M23.25,29.94l-1.72-.79c-.14-.07-.21,0-.21.18,0,.78,0,1.55,0,2.33,0,.25,0,.32.22.41l1.69.77c.19.09.22.06.23-.21V30.34c0-.25,0-.32-.21-.4" fill="#fff" opacity="0.8"/>
              <path d="M19,28l-1.78-.82c-.11-.05-.17,0-.17.15l0,2.44a.31.31,0,0,0,.17.32l1.79.82c.12.06.18,0,.18-.16,0-.41,0-.81,0-1.2h0c0-.4,0-.81,0-1.2A.35.35,0,0,0,19,28" fill="#fff" opacity="0.8"/>
              <path d="M19.32,31.05c-.12-.05-.16,0-.16.18l0,2.4a.31.31,0,0,0,.17.32h0l1.76.81h0c.11,0,.17,0,.17-.18V32.23a.33.33,0,0,0-.18-.36l-1.77-.81h0" fill="#fff" opacity="0.8"/>
              <path d="M18.91,33.77l-1.14-.52L17.19,33c-.13-.06-.2,0-.2.18l0,2.37a.35.35,0,0,0,.18.35h0l.86.4.86.39c.18.09.21.06.22-.18l0-2.33c0-.24,0-.3-.22-.39" fill="#fff" opacity="0.8"/>
              <path d="M23.18,35.74,21.48,35c-.17-.08-.22-.05-.22.18,0,.78,0,1.57,0,2.35a.34.34,0,0,0,.19.36l1.76.81c.13.06.19,0,.19-.17,0-.39,0-.78,0-1.18V36.14c0-.25,0-.31-.22-.4" fill="#fff" opacity="0.8"/>
            </g>
          </g>
        </g>
      </g>
      <g>
        <polygon points="24.2 19.46 1.41 9.17 25.96 0.24 48.74 10.53 24.2 19.46" fill="#061832"/>
        <g style="isolation: isolate">
          <g clip-path="url(#clip-path-2)">
            <g>
              <path d="M14.81,12.72l1-.36.94-.34h0a.53.53,0,0,1,.41,0l1.74.78c.14.07.13.12,0,.18l-1,.34-.95.35a.5.5,0,0,1-.43,0l-1.74-.78c-.14-.06-.14-.11,0-.17h0m2.1-2.51-6.56,2.38c-.26.1-.26.11,0,.21l5.92,2.67a.52.52,0,0,0,.54,0L20,14.31l3.28-1.2c.24-.08.24-.11,0-.2l-5.95-2.69a.46.46,0,0,0-.47,0" fill="#fff" opacity="0.8"/>
              <path d="M20.44,8.92l-1.82.66c-.27.1-.27.12,0,.23l5.9,2.66a.53.53,0,0,0,.52,0l1.82-.67c.23-.08.23-.11,0-.2l-1.7-.78L25,10.76l.21-.08L27.07,10c.2-.07.21-.1,0-.18L25.4,9a.46.46,0,0,0-.47,0l-1.69.62-.41.15-.19-.09-1.73-.78a.52.52,0,0,0-.47,0" fill="#fff" opacity="0.8"/>
              <path d="M29.43,9.13l-1.88.69c-.18.07-.19.1,0,.18l1.73.78a.53.53,0,0,0,.41,0h0l.31-.12.65-.23.93-.34c.19-.07.2-.11,0-.18L29.9,9.14a.52.52,0,0,0-.47,0" fill="#fff" opacity="0.8"/>
              <path d="M25.2,7.19l-2,.71c-.14,0-.14.1,0,.15l1.77.8a.49.49,0,0,0,.41,0l.32-.12.64-.23L27,8.28l.32-.11c.15-.06.19-.11,0-.18L25.58,7.2a.46.46,0,0,0-.38,0" fill="#fff" opacity="0.8"/>
              <path d="M33.42,4.2l-1.9.69c-.15.05-.17.1,0,.17l1.72.78a.51.51,0,0,0,.48,0l1.86-.67c.21-.08.21-.1,0-.2l-.85-.38-.83-.38a.5.5,0,0,0-.46,0" fill="#fff" opacity="0.8"/>
              <path d="M28.73,5.9l-1.95.71q-.2.08,0,.15l1.8.81a.45.45,0,0,0,.36,0l2-.72c.13,0,.14-.09,0-.15L30,6.31h0l-.89-.4a.5.5,0,0,0-.4,0" fill="#fff" opacity="0.8"/>
              <path d="M31.26,6.73c-.13,0-.11.09,0,.15L33,7.67a.43.43,0,0,0,.37,0h0L35.37,7h0c.13,0,.12-.1,0-.15l-.86-.39L33.63,6a.46.46,0,0,0-.4,0l-1.95.71h0" fill="#fff" opacity="0.8"/>
              <path d="M33,7.84l-1.26.46-.64.23c-.15.06-.17.11,0,.18l1.75.79a.48.48,0,0,0,.39,0h0l1-.34.94-.35c.21-.07.21-.1,0-.18l-1.72-.78a.54.54,0,0,0-.45,0" fill="#fff" opacity="0.8"/>
              <path d="M37.68,6.13l-1.87.68c-.19.07-.2.11,0,.18l1.73.79a.49.49,0,0,0,.41,0l1.95-.71c.14,0,.14-.1,0-.16L39,6.53l-.86-.39a.52.52,0,0,0-.47,0" fill="#fff" opacity="0.8"/>
            </g>
          </g>
        </g>
      </g>
      <g>
        <polygon points="48.74 10.53 48.58 40.83 24.04 49.76 24.2 19.46 48.74 10.53" fill="#071833"/>
        <g style="isolation: isolate">
          <g clip-path="url(#clip-path-3)">
            <g>
              <path d="M27.2,32l1-.35.94-.34h0c.15-.05.21,0,.21.2,0,.79,0,1.57,0,2.36a.34.34,0,0,1-.23.36l-.95.34-1,.35C27,35,27,35,27,34.76V32.4c0-.19.06-.3.21-.35h0m4.25-4.45L24.89,30c-.25.1-.26.12-.27.43l0,8.05c0,.33,0,.34.28.25l3.25-1.19,3.28-1.19c.23-.08.26-.14.26-.42l.05-8.09c0-.26,0-.3-.25-.22" fill="#fff" opacity="0.8"/>
              <path d="M35,26.3,33.17,27c-.27.1-.29.13-.29.47l-.05,8c0,.29,0,.31.27.24L34.92,35c.23-.08.26-.14.27-.43,0-.77,0-1.55,0-2.32V32l.21-.07,1.89-.69c.2-.07.25-.14.25-.38V28.56c0-.27,0-.29-.25-.2L35.63,29l-.41.15v-.26c0-.78,0-1.57,0-2.34,0-.26,0-.29-.25-.22" fill="#fff" opacity="0.8"/>
              <path d="M39.67,30.4l-1.88.68c-.18.07-.23.15-.23.38l0,2.35c0,.19.07.25.21.2h0l.32-.12.64-.23.93-.34c.2-.07.24-.15.24-.37l0-2.33c0-.25-.05-.28-.25-.21" fill="#fff" opacity="0.8"/>
              <path d="M39.75,24.57l-2,.71a.3.3,0,0,0-.2.32V28c0,.19.06.24.21.18l.32-.11.64-.23.63-.24.32-.11a.32.32,0,0,0,.23-.35l0-2.4c0-.17-.07-.22-.2-.17" fill="#fff" opacity="0.8"/>
              <path d="M48,21.58l-1.9.69a.31.31,0,0,0-.23.35c0,.78,0,1.56,0,2.34,0,.25,0,.29.25.21l1.86-.68c.21-.07.24-.13.25-.4V21.8c0-.26,0-.29-.23-.22" fill="#fff" opacity="0.8"/>
              <path d="M43.28,23.28l-2,.71a.29.29,0,0,0-.19.31l0,2.44c0,.15.06.21.19.17l2-.72a.3.3,0,0,0,.19-.32v-1.2h0c0-.4,0-.8,0-1.2,0-.18-.06-.24-.21-.19" fill="#fff" opacity="0.8"/>
              <path d="M43.65,26.05a.3.3,0,0,0-.18.32v2.41c0,.16,0,.22.18.17h0l2-.71h0c.12,0,.18-.15.18-.32V25.53c0-.18,0-.25-.2-.19l-1.95.71h0" fill="#fff" opacity="0.8"/>
              <path d="M43.22,29.11,42,29.57l-.64.23a.31.31,0,0,0-.22.35l0,2.38c0,.18.07.24.2.19h0l1-.34.94-.35c.21-.07.25-.13.25-.37l0-2.34c0-.24-.05-.26-.24-.2" fill="#fff" opacity="0.8"/>
              <path d="M47.92,27.4l-1.87.68c-.19.07-.24.14-.24.36,0,.79,0,1.57,0,2.37,0,.18.05.25.21.19L48,30.29a.3.3,0,0,0,.2-.33c0-.39,0-.79,0-1.18V27.6c0-.24,0-.27-.25-.2" fill="#fff" opacity="0.8"/>
            </g>
          </g>
        </g>
      </g>
    </g>
  </g>
  <g>
    <rect x="46.2" y="41.66" width="1.52" height="1.51" fill="#fff"/>
    <rect x="46.2" y="40.15" width="1.52" height="1.52" fill="#fff"/>
    <rect x="46.2" y="8.34" width="1.52" height="1.51" fill="#fff"/>
    <rect x="46.2" y="6.82" width="1.52" height="1.52" fill="#fff"/>
    <rect x="44.69" y="43.18" width="1.51" height="1.52" fill="#fff"/>
    <rect x="44.69" y="41.66" width="1.51" height="1.51" fill="#ef5454"/>
    <rect x="44.69" y="40.15" width="1.51" height="1.52" fill="#ef5454"/>
    <rect x="44.69" y="38.63" width="1.51" height="1.51" fill="#fff"/>
    <rect x="44.69" y="9.85" width="1.51" height="1.52" fill="#fff"/>
    <rect x="44.69" y="8.34" width="1.51" height="1.51" fill="#aa0707"/>
    <rect x="44.69" y="6.82" width="1.51" height="1.52" fill="#ef5454"/>
    <rect x="44.69" y="5.31" width="1.51" height="1.51" fill="#fff"/>
    <rect x="43.18" y="44.69" width="1.52" height="1.51" fill="#fff"/>
    <rect x="43.18" y="43.18" width="1.52" height="1.52" fill="#aa0707"/>
    <rect x="43.18" y="41.66" width="1.52" height="1.51" fill="#cc1d1d"/>
    <rect x="43.18" y="40.15" width="1.52" height="1.52" fill="#cc1d1d"/>
    <rect x="43.18" y="38.63" width="1.52" height="1.51" fill="#ef5454"/>
    <rect x="43.18" y="37.12" width="1.52" height="1.52" fill="#fff"/>
    <rect x="43.18" y="11.37" width="1.52" height="1.51" fill="#fff"/>
    <rect x="43.18" y="9.85" width="1.52" height="1.52" fill="#aa0707"/>
    <rect x="43.18" y="8.34" width="1.52" height="1.51" fill="#cc1d1d"/>
    <rect x="43.18" y="6.82" width="1.52" height="1.52" fill="#cc1d1d"/>
    <rect x="43.18" y="5.31" width="1.52" height="1.51" fill="#ef5454"/>
    <rect x="43.18" y="3.79" width="1.52" height="1.52" fill="#fff"/>
    <rect x="41.66" y="46.2" width="1.51" height="1.51" fill="#fff"/>
    <rect x="41.66" y="44.69" width="1.51" height="1.51" fill="#aa0707"/>
    <rect x="41.66" y="43.18" width="1.51" height="1.52" fill="#cc1d1d"/>
    <rect x="41.66" y="41.66" width="1.51" height="1.51" fill="#cc1d1d"/>
    <rect x="41.66" y="40.15" width="1.51" height="1.52" fill="#cc1d1d"/>
    <rect x="41.66" y="38.63" width="1.51" height="1.51" fill="#cc1d1d"/>
    <rect x="41.66" y="37.12" width="1.51" height="1.52" fill="#ef5454"/>
    <rect x="41.66" y="35.6" width="1.51" height="1.51" fill="#fff"/>
    <rect x="41.66" y="12.88" width="1.51" height="1.51" fill="#fff"/>
    <rect x="41.66" y="11.37" width="1.51" height="1.51" fill="#aa0707"/>
    <rect x="41.66" y="9.85" width="1.51" height="1.52" fill="#cc1d1d"/>
    <rect x="41.66" y="8.34" width="1.51" height="1.51" fill="#cc1d1d"/>
    <rect x="41.66" y="6.82" width="1.51" height="1.52" fill="#cc1d1d"/>
    <rect x="41.66" y="5.31" width="1.51" height="1.51" fill="#cc1d1d"/>
    <rect x="41.66" y="3.79" width="1.51" height="1.52" fill="#ef5454"/>
    <rect x="41.66" y="2.28" width="1.51" height="1.51" fill="#fff"/>
    <rect x="40.15" y="46.2" width="1.52" height="1.51" fill="#fff"/>
    <rect x="40.15" y="44.69" width="1.52" height="1.51" fill="#aa0707"/>
    <rect x="40.15" y="43.18" width="1.52" height="1.52" fill="#cc1d1d"/>
    <rect x="40.15" y="41.66" width="1.52" height="1.51" fill="#cc1d1d"/>
    <rect x="40.15" y="40.15" width="1.52" height="1.52" fill="#cc1d1d"/>
    <rect x="40.15" y="38.63" width="1.52" height="1.51" fill="#cc1d1d"/>
    <rect x="40.15" y="37.12" width="1.52" height="1.52" fill="#cc1d1d"/>
    <rect x="40.15" y="35.6" width="1.52" height="1.51" fill="#ef5454"/>
    <rect x="40.15" y="34.09" width="1.52" height="1.52" fill="#fff"/>
    <rect x="40.15" y="14.4" width="1.52" height="1.52" fill="#fff"/>
    <rect x="40.15" y="12.88" width="1.52" height="1.51" fill="#aa0707"/>
    <rect x="40.15" y="11.37" width="1.52" height="1.51" fill="#cc1d1d"/>
    <rect x="40.15" y="9.85" width="1.52" height="1.52" fill="#cc1d1d"/>
    <rect x="40.15" y="8.34" width="1.52" height="1.51" fill="#cc1d1d"/>
    <rect x="40.15" y="6.82" width="1.52" height="1.52" fill="#cc1d1d"/>
    <rect x="40.15" y="5.31" width="1.52" height="1.51" fill="#cc1d1d"/>
    <rect x="40.15" y="3.79" width="1.52" height="1.52" fill="#ef5454"/>
    <rect x="40.15" y="2.28" width="1.52" height="1.51" fill="#fff"/>
    <rect x="38.63" y="44.69" width="1.51" height="1.51" fill="#fff"/>
    <rect x="38.63" y="43.18" width="1.51" height="1.52" fill="#aa0707"/>
    <rect x="38.63" y="41.66" width="1.51" height="1.51" fill="#cc1d1d"/>
    <rect x="38.63" y="40.15" width="1.51" height="1.52" fill="#cc1d1d"/>
    <rect x="38.63" y="38.63" width="1.51" height="1.51" fill="#cc1d1d"/>
    <rect x="38.63" y="37.12" width="1.51" height="1.52" fill="#cc1d1d"/>
    <rect x="38.63" y="35.6" width="1.51" height="1.51" fill="#cc1d1d"/>
    <rect x="38.63" y="34.09" width="1.51" height="1.52" fill="#ef5454"/>
    <rect x="38.63" y="32.57" width="1.51" height="1.51" fill="#fff"/>
    <rect x="38.63" y="15.91" width="1.51" height="1.51" fill="#fff"/>
    <rect x="38.63" y="14.4" width="1.51" height="1.52" fill="#aa0707"/>
    <rect x="38.63" y="12.88" width="1.51" height="1.51" fill="#cc1d1d"/>
    <rect x="38.63" y="11.37" width="1.51" height="1.51" fill="#cc1d1d"/>
    <rect x="38.63" y="9.85" width="1.51" height="1.52" fill="#cc1d1d"/>
    <rect x="38.63" y="8.34" width="1.51" height="1.51" fill="#cc1d1d"/>
    <rect x="38.63" y="6.82" width="1.51" height="1.52" fill="#cc1d1d"/>
    <rect x="38.63" y="5.31" width="1.51" height="1.51" fill="#ef5454"/>
    <rect x="38.63" y="3.79" width="1.51" height="1.52" fill="#fff"/>
    <rect x="37.12" y="43.18" width="1.51" height="1.52" fill="#fff"/>
    <rect x="37.12" y="41.66" width="1.51" height="1.51" fill="#aa0707"/>
    <rect x="37.12" y="40.15" width="1.51" height="1.52" fill="#cc1d1d"/>
    <rect x="37.12" y="38.63" width="1.51" height="1.51" fill="#cc1d1d"/>
    <rect x="37.12" y="37.12" width="1.51" height="1.52" fill="#cc1d1d"/>
    <rect x="37.12" y="35.6" width="1.51" height="1.51" fill="#cc1d1d"/>
    <rect x="37.12" y="34.09" width="1.51" height="1.52" fill="#cc1d1d"/>
    <rect x="37.12" y="32.57" width="1.51" height="1.51" fill="#ef5454"/>
    <rect x="37.12" y="31.06" width="1.51" height="1.52" fill="#fff"/>
    <rect x="37.12" y="17.43" width="1.51" height="1.52" fill="#fff"/>
    <rect x="37.12" y="15.91" width="1.51" height="1.51" fill="#aa0707"/>
    <rect x="37.12" y="14.4" width="1.51" height="1.52" fill="#cc1d1d"/>
    <rect x="37.12" y="12.88" width="1.51" height="1.51" fill="#cc1d1d"/>
    <rect x="37.12" y="11.37" width="1.51" height="1.51" fill="#cc1d1d"/>
    <rect x="37.12" y="9.85" width="1.51" height="1.52" fill="#cc1d1d"/>
    <rect x="37.12" y="8.34" width="1.51" height="1.51" fill="#cc1d1d"/>
    <rect x="37.12" y="6.82" width="1.51" height="1.52" fill="#ef5454"/>
    <rect x="37.12" y="5.31" width="1.51" height="1.51" fill="#fff"/>
    <rect x="35.6" y="41.66" width="1.52" height="1.51" fill="#fff"/>
    <rect x="35.6" y="40.15" width="1.52" height="1.52" fill="#aa0707"/>
    <rect x="35.6" y="38.63" width="1.52" height="1.51" fill="#cc1d1d"/>
    <rect x="35.6" y="37.12" width="1.52" height="1.52" fill="#cc1d1d"/>
    <rect x="35.6" y="35.6" width="1.52" height="1.51" fill="#cc1d1d"/>
    <rect x="35.6" y="34.09" width="1.52" height="1.52" fill="#cc1d1d"/>
    <rect x="35.6" y="32.57" width="1.52" height="1.51" fill="#cc1d1d"/>
    <rect x="35.6" y="31.06" width="1.52" height="1.52" fill="#ef5454"/>
    <rect x="35.6" y="29.54" width="1.52" height="1.51" fill="#fff"/>
    <rect x="35.6" y="18.94" width="1.52" height="1.51" fill="#fff"/>
    <rect x="35.6" y="17.43" width="1.52" height="1.52" fill="#aa0707"/>
    <rect x="35.6" y="15.91" width="1.52" height="1.51" fill="#cc1d1d"/>
    <rect x="35.6" y="14.4" width="1.52" height="1.52" fill="#cc1d1d"/>
    <rect x="35.6" y="12.88" width="1.52" height="1.51" fill="#cc1d1d"/>
    <rect x="35.6" y="11.37" width="1.52" height="1.51" fill="#cc1d1d"/>
    <rect x="35.6" y="9.85" width="1.52" height="1.52" fill="#cc1d1d"/>
    <rect x="35.6" y="8.34" width="1.52" height="1.51" fill="#ef5454"/>
    <rect x="35.6" y="6.82" width="1.52" height="1.52" fill="#fff"/>
    <rect x="34.09" y="40.15" width="1.51" height="1.52" fill="#fff"/>
    <rect x="34.09" y="38.63" width="1.51" height="1.51" fill="#aa0707"/>
    <rect x="34.09" y="37.12" width="1.51" height="1.52" fill="#cc1d1d"/>
    <rect x="34.09" y="35.6" width="1.51" height="1.51" fill="#cc1d1d"/>
    <rect x="34.09" y="34.09" width="1.51" height="1.52" fill="#cc1d1d"/>
    <rect x="34.09" y="32.57" width="1.51" height="1.51" fill="#cc1d1d"/>
    <rect x="34.09" y="31.06" width="1.51" height="1.52" fill="#cc1d1d"/>
    <rect x="34.09" y="29.54" width="1.51" height="1.51" fill="#ef5454"/>
    <rect x="34.09" y="28.03" width="1.51" height="1.51" fill="#fff"/>
    <rect x="34.09" y="20.46" width="1.51" height="1.52" fill="#fff"/>
    <rect x="34.09" y="18.94" width="1.51" height="1.51" fill="#aa0707"/>
    <rect x="34.09" y="17.43" width="1.51" height="1.52" fill="#cc1d1d"/>
    <rect x="34.09" y="15.91" width="1.51" height="1.51" fill="#cc1d1d"/>
    <rect x="34.09" y="14.4" width="1.51" height="1.52" fill="#cc1d1d"/>
    <rect x="34.09" y="12.88" width="1.51" height="1.51" fill="#cc1d1d"/>
    <rect x="34.09" y="11.37" width="1.51" height="1.51" fill="#cc1d1d"/>
    <rect x="34.09" y="9.85" width="1.51" height="1.52" fill="#ef5454"/>
    <rect x="34.09" y="8.34" width="1.51" height="1.51" fill="#fff"/>
    <rect x="32.57" y="38.63" width="1.52" height="1.51" fill="#fff"/>
    <rect x="32.57" y="37.12" width="1.52" height="1.52" fill="#aa0707"/>
    <rect x="32.57" y="35.6" width="1.52" height="1.51" fill="#cc1d1d"/>
    <rect x="32.57" y="34.09" width="1.52" height="1.52" fill="#cc1d1d"/>
    <rect x="32.57" y="32.57" width="1.52" height="1.51" fill="#cc1d1d"/>
    <rect x="32.57" y="31.06" width="1.52" height="1.52" fill="#cc1d1d"/>
    <rect x="32.57" y="29.54" width="1.52" height="1.51" fill="#cc1d1d"/>
    <rect x="32.57" y="28.03" width="1.52" height="1.51" fill="#ef5454"/>
    <rect x="32.57" y="26.51" width="1.52" height="1.52" fill="#fff"/>
    <rect x="32.57" y="21.97" width="1.52" height="1.51" fill="#fff"/>
    <rect x="32.57" y="20.46" width="1.52" height="1.52" fill="#aa0707"/>
    <rect x="32.57" y="18.94" width="1.52" height="1.51" fill="#cc1d1d"/>
    <rect x="32.57" y="17.43" width="1.52" height="1.52" fill="#cc1d1d"/>
    <rect x="32.57" y="15.91" width="1.52" height="1.51" fill="#cc1d1d"/>
    <rect x="32.57" y="14.4" width="1.52" height="1.52" fill="#cc1d1d"/>
    <rect x="32.57" y="12.88" width="1.52" height="1.51" fill="#cc1d1d"/>
    <rect x="32.57" y="11.37" width="1.52" height="1.51" fill="#ef5454"/>
    <rect x="32.57" y="9.85" width="1.52" height="1.52" fill="#fff"/>
    <rect x="31.06" y="37.12" width="1.51" height="1.52" fill="#fff"/>
    <rect x="31.06" y="35.6" width="1.51" height="1.51" fill="#aa0707"/>
    <rect x="31.06" y="34.09" width="1.51" height="1.52" fill="#cc1d1d"/>
    <rect x="31.06" y="32.57" width="1.51" height="1.51" fill="#cc1d1d"/>
    <rect x="31.06" y="31.06" width="1.51" height="1.52" fill="#cc1d1d"/>
    <rect x="31.06" y="29.54" width="1.51" height="1.51" fill="#cc1d1d"/>
    <rect x="31.06" y="28.03" width="1.51" height="1.51" fill="#cc1d1d"/>
    <rect x="31.06" y="26.51" width="1.51" height="1.52" fill="#ef5454"/>
    <rect x="31.06" y="25" width="1.51" height="1.51" fill="#fff"/>
    <rect x="31.06" y="23.49" width="1.51" height="1.52" fill="#fff"/>
    <rect x="31.06" y="21.97" width="1.51" height="1.51" fill="#aa0707"/>
    <rect x="31.06" y="20.46" width="1.51" height="1.52" fill="#cc1d1d"/>
    <rect x="31.06" y="18.94" width="1.51" height="1.51" fill="#cc1d1d"/>
    <rect x="31.06" y="17.43" width="1.51" height="1.52" fill="#cc1d1d"/>
    <rect x="31.06" y="15.91" width="1.51" height="1.51" fill="#cc1d1d"/>
    <rect x="31.06" y="14.4" width="1.51" height="1.52" fill="#cc1d1d"/>
    <rect x="31.06" y="12.88" width="1.51" height="1.51" fill="#ef5454"/>
    <rect x="31.06" y="11.37" width="1.51" height="1.51" fill="#fff"/>
    <rect x="29.54" y="35.6" width="1.52" height="1.51" fill="#fff"/>
    <rect x="29.54" y="34.09" width="1.52" height="1.52" fill="#aa0707"/>
    <rect x="29.54" y="32.57" width="1.52" height="1.51" fill="#cc1d1d"/>
    <rect x="29.54" y="31.06" width="1.52" height="1.52" fill="#cc1d1d"/>
    <rect x="29.54" y="29.54" width="1.52" height="1.51" fill="#cc1d1d"/>
    <rect x="29.54" y="28.03" width="1.52" height="1.51" fill="#cc1d1d"/>
    <rect x="29.54" y="26.51" width="1.52" height="1.52" fill="#cc1d1d"/>
    <rect x="29.54" y="25" width="1.52" height="1.51" fill="#aa0707"/>
    <rect x="29.54" y="23.49" width="1.52" height="1.52" fill="#aa0707"/>
    <rect x="29.54" y="21.97" width="1.52" height="1.51" fill="#cc1d1d"/>
    <rect x="29.54" y="20.46" width="1.52" height="1.52" fill="#cc1d1d"/>
    <rect x="29.54" y="18.94" width="1.52" height="1.51" fill="#cc1d1d"/>
    <rect x="29.54" y="17.43" width="1.52" height="1.52" fill="#cc1d1d"/>
    <rect x="29.54" y="15.91" width="1.52" height="1.51" fill="#cc1d1d"/>
    <rect x="29.54" y="14.4" width="1.52" height="1.52" fill="#ef5454"/>
    <rect x="29.54" y="12.88" width="1.52" height="1.51" fill="#fff"/>
    <rect x="28.03" y="34.09" width="1.51" height="1.52" fill="#fff"/>
    <rect x="28.03" y="32.57" width="1.51" height="1.51" fill="#aa0707"/>
    <rect x="28.03" y="31.06" width="1.51" height="1.52" fill="#cc1d1d"/>
    <rect x="28.03" y="29.54" width="1.51" height="1.51" fill="#cc1d1d"/>
    <rect x="28.03" y="28.03" width="1.51" height="1.51" fill="#cc1d1d"/>
    <rect x="28.03" y="26.51" width="1.51" height="1.52" fill="#cc1d1d"/>
    <rect x="28.03" y="25" width="1.51" height="1.51" fill="#cc1d1d"/>
    <rect x="28.03" y="23.49" width="1.51" height="1.52" fill="#cc1d1d"/>
    <rect x="28.03" y="21.97" width="1.51" height="1.51" fill="#cc1d1d"/>
    <rect x="28.03" y="20.46" width="1.51" height="1.52" fill="#cc1d1d"/>
    <rect x="28.03" y="18.94" width="1.51" height="1.51" fill="#cc1d1d"/>
    <rect x="28.03" y="17.43" width="1.51" height="1.52" fill="#cc1d1d"/>
    <rect x="28.03" y="15.91" width="1.51" height="1.51" fill="#ef5454"/>
    <rect x="28.03" y="14.4" width="1.51" height="1.52" fill="#fff"/>
    <rect x="26.51" y="32.57" width="1.52" height="1.51" fill="#fff"/>
    <rect x="26.51" y="31.06" width="1.52" height="1.52" fill="#aa0707"/>
    <rect x="26.51" y="29.54" width="1.52" height="1.51" fill="#cc1d1d"/>
    <rect x="26.51" y="28.03" width="1.52" height="1.51" fill="#cc1d1d"/>
    <rect x="26.51" y="26.51" width="1.52" height="1.52" fill="#cc1d1d"/>
    <rect x="26.51" y="25" width="1.52" height="1.51" fill="#cc1d1d"/>
    <rect x="26.51" y="23.49" width="1.52" height="1.52" fill="#cc1d1d"/>
    <rect x="26.51" y="21.97" width="1.52" height="1.51" fill="#cc1d1d"/>
    <rect x="26.51" y="20.46" width="1.52" height="1.52" fill="#cc1d1d"/>
    <rect x="26.51" y="18.94" width="1.52" height="1.51" fill="#cc1d1d"/>
    <rect x="26.51" y="17.43" width="1.52" height="1.52" fill="#ef5454"/>
    <rect x="26.51" y="15.91" width="1.52" height="1.51" fill="#fff"/>
    <rect x="25" y="31.06" width="1.51" height="1.52" fill="#fff"/>
    <rect x="25" y="29.54" width="1.51" height="1.51" fill="#aa0707"/>
    <rect x="25" y="28.03" width="1.51" height="1.51" fill="#cc1d1d"/>
    <rect x="25" y="26.51" width="1.51" height="1.52" fill="#cc1d1d"/>
    <rect x="25" y="25" width="1.51" height="1.51" fill="#cc1d1d"/>
    <rect x="25" y="23.49" width="1.51" height="1.52" fill="#cc1d1d"/>
    <rect x="25" y="21.97" width="1.51" height="1.51" fill="#cc1d1d"/>
    <rect x="25" y="20.46" width="1.51" height="1.52" fill="#cc1d1d"/>
    <rect x="25" y="18.94" width="1.51" height="1.51" fill="#ef5454"/>
    <rect x="25" y="17.43" width="1.51" height="1.52" fill="#fff"/>
    <rect x="23.48" y="31.06" width="1.52" height="1.52" fill="#fff"/>
    <rect x="23.48" y="29.54" width="1.52" height="1.51" fill="#aa0707"/>
    <rect x="23.48" y="28.03" width="1.52" height="1.51" fill="#cc1d1d"/>
    <rect x="23.48" y="26.51" width="1.52" height="1.52" fill="#cc1d1d"/>
    <rect x="23.48" y="25" width="1.52" height="1.51" fill="#cc1d1d"/>
    <rect x="23.48" y="23.49" width="1.52" height="1.52" fill="#cc1d1d"/>
    <rect x="23.48" y="21.97" width="1.52" height="1.51" fill="#cc1d1d"/>
    <rect x="23.48" y="20.46" width="1.52" height="1.52" fill="#cc1d1d"/>
    <rect x="23.48" y="18.94" width="1.52" height="1.51" fill="#ef5454"/>
    <rect x="23.48" y="17.43" width="1.52" height="1.52" fill="#fff"/>
    <rect x="21.97" y="32.57" width="1.51" height="1.51" fill="#fff"/>
    <rect x="21.97" y="31.06" width="1.51" height="1.52" fill="#aa0707"/>
    <rect x="21.97" y="29.54" width="1.51" height="1.51" fill="#cc1d1d"/>
    <rect x="21.97" y="28.03" width="1.51" height="1.51" fill="#cc1d1d"/>
    <rect x="21.97" y="26.51" width="1.51" height="1.52" fill="#cc1d1d"/>
    <rect x="21.97" y="25" width="1.51" height="1.51" fill="#cc1d1d"/>
    <rect x="21.97" y="23.49" width="1.51" height="1.52" fill="#cc1d1d"/>
    <rect x="21.97" y="21.97" width="1.51" height="1.51" fill="#cc1d1d"/>
    <rect x="21.97" y="20.46" width="1.51" height="1.52" fill="#cc1d1d"/>
    <rect x="21.97" y="18.94" width="1.51" height="1.51" fill="#cc1d1d"/>
    <rect x="21.97" y="17.43" width="1.51" height="1.52" fill="#ef5454"/>
    <rect x="21.97" y="15.91" width="1.51" height="1.51" fill="#fff"/>
    <rect x="20.46" y="34.09" width="1.52" height="1.52" fill="#fff"/>
    <rect x="20.46" y="32.57" width="1.52" height="1.51" fill="#aa0707"/>
    <rect x="20.46" y="31.06" width="1.52" height="1.52" fill="#cc1d1d"/>
    <rect x="20.46" y="29.54" width="1.52" height="1.51" fill="#cc1d1d"/>
    <rect x="20.46" y="28.03" width="1.52" height="1.51" fill="#cc1d1d"/>
    <rect x="20.46" y="26.51" width="1.52" height="1.52" fill="#cc1d1d"/>
    <rect x="20.46" y="25" width="1.52" height="1.51" fill="#cc1d1d"/>
    <rect x="20.46" y="23.49" width="1.52" height="1.52" fill="#cc1d1d"/>
    <rect x="20.46" y="21.97" width="1.52" height="1.51" fill="#cc1d1d"/>
    <rect x="20.46" y="20.46" width="1.52" height="1.52" fill="#cc1d1d"/>
    <rect x="20.46" y="18.94" width="1.52" height="1.51" fill="#cc1d1d"/>
    <rect x="20.46" y="17.43" width="1.52" height="1.52" fill="#cc1d1d"/>
    <rect x="20.46" y="15.91" width="1.52" height="1.51" fill="#ef5454"/>
    <rect x="20.46" y="14.4" width="1.52" height="1.52" fill="#fff"/>
    <rect x="18.94" y="35.6" width="1.51" height="1.51" fill="#fff"/>
    <rect x="18.94" y="34.09" width="1.51" height="1.52" fill="#aa0707"/>
    <rect x="18.94" y="32.57" width="1.51" height="1.51" fill="#cc1d1d"/>
    <rect x="18.94" y="31.06" width="1.51" height="1.52" fill="#cc1d1d"/>
    <rect x="18.94" y="29.54" width="1.51" height="1.51" fill="#cc1d1d"/>
    <rect x="18.94" y="28.03" width="1.51" height="1.51" fill="#cc1d1d"/>
    <rect x="18.94" y="26.51" width="1.51" height="1.52" fill="#cc1d1d"/>
    <rect x="18.94" y="25" width="1.51" height="1.51" fill="#aa0707"/>
    <rect x="18.94" y="23.49" width="1.51" height="1.52" fill="#aa0707"/>
    <rect x="18.94" y="21.97" width="1.51" height="1.51" fill="#cc1d1d"/>
    <rect x="18.94" y="20.46" width="1.51" height="1.52" fill="#cc1d1d"/>
    <rect x="18.94" y="18.94" width="1.51" height="1.51" fill="#cc1d1d"/>
    <rect x="18.94" y="17.43" width="1.51" height="1.52" fill="#cc1d1d"/>
    <rect x="18.94" y="15.91" width="1.51" height="1.51" fill="#cc1d1d"/>
    <rect x="18.94" y="14.4" width="1.51" height="1.52" fill="#ef5454"/>
    <rect x="18.94" y="12.88" width="1.51" height="1.51" fill="#fff"/>
    <rect x="17.43" y="37.12" width="1.51" height="1.52" fill="#fff"/>
    <rect x="17.43" y="35.6" width="1.51" height="1.51" fill="#aa0707"/>
    <rect x="17.43" y="34.09" width="1.51" height="1.52" fill="#cc1d1d"/>
    <rect x="17.43" y="32.57" width="1.51" height="1.51" fill="#cc1d1d"/>
    <rect x="17.43" y="31.06" width="1.51" height="1.52" fill="#cc1d1d"/>
    <rect x="17.43" y="29.54" width="1.51" height="1.51" fill="#cc1d1d"/>
    <rect x="17.43" y="28.03" width="1.51" height="1.51" fill="#cc1d1d"/>
    <rect x="17.43" y="26.51" width="1.51" height="1.52" fill="#ef5454"/>
    <rect x="17.43" y="25" width="1.51" height="1.51" fill="#fff"/>
    <rect x="17.43" y="23.49" width="1.51" height="1.52" fill="#fff"/>
    <rect x="17.43" y="21.97" width="1.51" height="1.51" fill="#aa0707"/>
    <rect x="17.43" y="20.46" width="1.51" height="1.52" fill="#cc1d1d"/>
    <rect x="17.43" y="18.94" width="1.51" height="1.51" fill="#cc1d1d"/>
    <rect x="17.43" y="17.43" width="1.51" height="1.52" fill="#cc1d1d"/>
    <rect x="17.43" y="15.91" width="1.51" height="1.51" fill="#cc1d1d"/>
    <rect x="17.43" y="14.4" width="1.51" height="1.52" fill="#cc1d1d"/>
    <rect x="17.43" y="12.88" width="1.51" height="1.51" fill="#ef5454"/>
    <rect x="17.43" y="11.37" width="1.51" height="1.51" fill="#fff"/>
    <rect x="15.91" y="38.63" width="1.52" height="1.51" fill="#fff"/>
    <rect x="15.91" y="37.12" width="1.52" height="1.52" fill="#aa0707"/>
    <rect x="15.91" y="35.6" width="1.52" height="1.51" fill="#cc1d1d"/>
    <rect x="15.91" y="34.09" width="1.52" height="1.52" fill="#cc1d1d"/>
    <rect x="15.91" y="32.57" width="1.52" height="1.51" fill="#cc1d1d"/>
    <rect x="15.91" y="31.06" width="1.52" height="1.52" fill="#cc1d1d"/>
    <rect x="15.91" y="29.54" width="1.52" height="1.51" fill="#cc1d1d"/>
    <rect x="15.91" y="28.03" width="1.52" height="1.51" fill="#ef5454"/>
    <rect x="15.91" y="26.51" width="1.52" height="1.52" fill="#fff"/>
    <rect x="15.91" y="21.97" width="1.52" height="1.51" fill="#fff"/>
    <rect x="15.91" y="20.46" width="1.52" height="1.52" fill="#aa0707"/>
    <rect x="15.91" y="18.94" width="1.52" height="1.51" fill="#cc1d1d"/>
    <rect x="15.91" y="17.43" width="1.52" height="1.52" fill="#cc1d1d"/>
    <rect x="15.91" y="15.91" width="1.52" height="1.51" fill="#cc1d1d"/>
    <rect x="15.91" y="14.4" width="1.52" height="1.52" fill="#cc1d1d"/>
    <rect x="15.91" y="12.88" width="1.52" height="1.51" fill="#cc1d1d"/>
    <rect x="15.91" y="11.37" width="1.52" height="1.51" fill="#ef5454"/>
    <rect x="15.91" y="9.85" width="1.52" height="1.52" fill="#fff"/>
    <rect x="14.4" y="40.15" width="1.51" height="1.52" fill="#fff"/>
    <rect x="14.4" y="38.63" width="1.51" height="1.51" fill="#aa0707"/>
    <rect x="14.4" y="37.12" width="1.51" height="1.52" fill="#cc1d1d"/>
    <rect x="14.4" y="35.6" width="1.51" height="1.51" fill="#cc1d1d"/>
    <rect x="14.4" y="34.09" width="1.51" height="1.52" fill="#cc1d1d"/>
    <rect x="14.4" y="32.57" width="1.51" height="1.51" fill="#cc1d1d"/>
    <rect x="14.4" y="31.06" width="1.51" height="1.52" fill="#cc1d1d"/>
    <rect x="14.4" y="29.54" width="1.51" height="1.51" fill="#ef5454"/>
    <rect x="14.4" y="28.03" width="1.51" height="1.51" fill="#fff"/>
    <rect x="14.4" y="20.46" width="1.51" height="1.52" fill="#fff"/>
    <rect x="14.4" y="18.94" width="1.51" height="1.51" fill="#aa0707"/>
    <rect x="14.4" y="17.43" width="1.51" height="1.52" fill="#cc1d1d"/>
    <rect x="14.4" y="15.91" width="1.51" height="1.51" fill="#cc1d1d"/>
    <rect x="14.4" y="14.4" width="1.51" height="1.52" fill="#cc1d1d"/>
    <rect x="14.4" y="12.88" width="1.51" height="1.51" fill="#cc1d1d"/>
    <rect x="14.4" y="11.37" width="1.51" height="1.51" fill="#cc1d1d"/>
    <rect x="14.4" y="9.85" width="1.51" height="1.52" fill="#ef5454"/>
    <rect x="14.4" y="8.34" width="1.51" height="1.51" fill="#fff"/>
    <rect x="12.88" y="41.66" width="1.52" height="1.51" fill="#fff"/>
    <rect x="12.88" y="40.15" width="1.52" height="1.52" fill="#aa0707"/>
    <rect x="12.88" y="38.63" width="1.52" height="1.51" fill="#cc1d1d"/>
    <rect x="12.88" y="37.12" width="1.52" height="1.52" fill="#cc1d1d"/>
    <rect x="12.88" y="35.6" width="1.52" height="1.51" fill="#cc1d1d"/>
    <rect x="12.88" y="34.09" width="1.52" height="1.52" fill="#cc1d1d"/>
    <rect x="12.88" y="32.57" width="1.52" height="1.51" fill="#cc1d1d"/>
    <rect x="12.88" y="31.06" width="1.52" height="1.52" fill="#ef5454"/>
    <rect x="12.88" y="29.54" width="1.52" height="1.51" fill="#fff"/>
    <rect x="12.88" y="18.94" width="1.52" height="1.51" fill="#fff"/>
    <rect x="12.88" y="17.43" width="1.52" height="1.52" fill="#aa0707"/>
    <rect x="12.88" y="15.91" width="1.52" height="1.51" fill="#cc1d1d"/>
    <rect x="12.88" y="14.4" width="1.52" height="1.52" fill="#cc1d1d"/>
    <rect x="12.88" y="12.88" width="1.52" height="1.51" fill="#cc1d1d"/>
    <rect x="12.88" y="11.37" width="1.52" height="1.51" fill="#cc1d1d"/>
    <rect x="12.88" y="9.85" width="1.52" height="1.52" fill="#cc1d1d"/>
    <rect x="12.88" y="8.34" width="1.52" height="1.51" fill="#ef5454"/>
    <rect x="12.88" y="6.82" width="1.52" height="1.52" fill="#fff"/>
    <rect x="11.37" y="43.18" width="1.51" height="1.52" fill="#fff"/>
    <rect x="11.37" y="41.66" width="1.51" height="1.51" fill="#aa0707"/>
    <rect x="11.37" y="40.15" width="1.51" height="1.52" fill="#cc1d1d"/>
    <rect x="11.37" y="38.63" width="1.51" height="1.51" fill="#cc1d1d"/>
    <rect x="11.37" y="37.12" width="1.51" height="1.52" fill="#cc1d1d"/>
    <rect x="11.37" y="35.6" width="1.51" height="1.51" fill="#cc1d1d"/>
    <rect x="11.37" y="34.09" width="1.51" height="1.52" fill="#cc1d1d"/>
    <rect x="11.37" y="32.57" width="1.51" height="1.51" fill="#ef5454"/>
    <rect x="11.37" y="31.06" width="1.51" height="1.52" fill="#fff"/>
    <rect x="11.37" y="17.43" width="1.51" height="1.52" fill="#fff"/>
    <rect x="11.37" y="15.91" width="1.51" height="1.51" fill="#aa0707"/>
    <rect x="11.37" y="14.4" width="1.51" height="1.52" fill="#cc1d1d"/>
    <rect x="11.37" y="12.88" width="1.51" height="1.51" fill="#cc1d1d"/>
    <rect x="11.37" y="11.37" width="1.51" height="1.51" fill="#cc1d1d"/>
    <rect x="11.37" y="9.85" width="1.51" height="1.52" fill="#cc1d1d"/>
    <rect x="11.37" y="8.34" width="1.51" height="1.51" fill="#cc1d1d"/>
    <rect x="11.37" y="6.82" width="1.51" height="1.52" fill="#ef5454"/>
    <rect x="11.37" y="5.31" width="1.51" height="1.51" fill="#fff"/>
    <rect x="9.85" y="44.69" width="1.52" height="1.51" fill="#fff"/>
    <rect x="9.85" y="43.18" width="1.52" height="1.52" fill="#aa0707"/>
    <rect x="9.85" y="41.66" width="1.52" height="1.51" fill="#cc1d1d"/>
    <rect x="9.85" y="40.15" width="1.52" height="1.52" fill="#cc1d1d"/>
    <rect x="9.85" y="38.63" width="1.52" height="1.51" fill="#cc1d1d"/>
    <rect x="9.85" y="37.12" width="1.52" height="1.52" fill="#cc1d1d"/>
    <rect x="9.85" y="35.6" width="1.52" height="1.51" fill="#cc1d1d"/>
    <rect x="9.85" y="34.09" width="1.52" height="1.52" fill="#ef5454"/>
    <rect x="9.85" y="32.57" width="1.52" height="1.51" fill="#fff"/>
    <rect x="9.85" y="15.91" width="1.52" height="1.51" fill="#fff"/>
    <rect x="9.85" y="14.4" width="1.52" height="1.52" fill="#aa0707"/>
    <rect x="9.85" y="12.88" width="1.52" height="1.51" fill="#cc1d1d"/>
    <rect x="9.85" y="11.37" width="1.52" height="1.51" fill="#cc1d1d"/>
    <rect x="9.85" y="9.85" width="1.52" height="1.52" fill="#cc1d1d"/>
    <rect x="9.85" y="8.34" width="1.52" height="1.51" fill="#cc1d1d"/>
    <rect x="9.85" y="6.82" width="1.52" height="1.52" fill="#cc1d1d"/>
    <rect x="9.85" y="5.31" width="1.52" height="1.51" fill="#ef5454"/>
    <rect x="9.85" y="3.79" width="1.52" height="1.52" fill="#fff"/>
    <rect x="8.34" y="46.2" width="1.51" height="1.51" fill="#fff"/>
    <rect x="8.34" y="44.69" width="1.51" height="1.51" fill="#aa0707"/>
    <rect x="8.34" y="43.18" width="1.51" height="1.52" fill="#cc1d1d"/>
    <rect x="8.34" y="41.66" width="1.51" height="1.51" fill="#cc1d1d"/>
    <rect x="8.34" y="40.15" width="1.51" height="1.52" fill="#cc1d1d"/>
    <rect x="8.34" y="38.63" width="1.51" height="1.51" fill="#cc1d1d"/>
    <rect x="8.34" y="37.12" width="1.51" height="1.52" fill="#cc1d1d"/>
    <rect x="8.34" y="35.6" width="1.51" height="1.51" fill="#ef5454"/>
    <rect x="8.34" y="34.09" width="1.51" height="1.52" fill="#fff"/>
    <rect x="8.34" y="14.4" width="1.51" height="1.52" fill="#fff"/>
    <rect x="8.34" y="12.88" width="1.51" height="1.51" fill="#aa0707"/>
    <rect x="8.34" y="11.37" width="1.51" height="1.51" fill="#cc1d1d"/>
    <rect x="8.34" y="9.85" width="1.51" height="1.52" fill="#cc1d1d"/>
    <rect x="8.34" y="8.34" width="1.51" height="1.51" fill="#cc1d1d"/>
    <rect x="8.34" y="6.82" width="1.51" height="1.52" fill="#cc1d1d"/>
    <rect x="8.34" y="5.31" width="1.51" height="1.51" fill="#cc1d1d"/>
    <rect x="8.34" y="3.79" width="1.51" height="1.52" fill="#ef5454"/>
    <rect x="8.34" y="2.28" width="1.51" height="1.51" fill="#fff"/>
    <rect x="6.82" y="46.2" width="1.52" height="1.51" fill="#fff"/>
    <rect x="6.82" y="44.69" width="1.52" height="1.51" fill="#aa0707"/>
    <rect x="6.82" y="43.18" width="1.52" height="1.52" fill="#cc1d1d"/>
    <rect x="6.82" y="41.66" width="1.52" height="1.51" fill="#cc1d1d"/>
    <rect x="6.82" y="40.15" width="1.52" height="1.52" fill="#cc1d1d"/>
    <rect x="6.82" y="38.63" width="1.52" height="1.51" fill="#cc1d1d"/>
    <rect x="6.82" y="37.12" width="1.52" height="1.52" fill="#ef5454"/>
    <rect x="6.82" y="35.6" width="1.52" height="1.51" fill="#fff"/>
    <rect x="6.82" y="12.88" width="1.52" height="1.51" fill="#fff"/>
    <rect x="6.82" y="11.37" width="1.52" height="1.51" fill="#aa0707"/>
    <rect x="6.82" y="9.85" width="1.52" height="1.52" fill="#cc1d1d"/>
    <rect x="6.82" y="8.34" width="1.52" height="1.51" fill="#cc1d1d"/>
    <rect x="6.82" y="6.82" width="1.52" height="1.52" fill="#cc1d1d"/>
    <rect x="6.82" y="5.31" width="1.52" height="1.51" fill="#cc1d1d"/>
    <rect x="6.82" y="3.79" width="1.52" height="1.52" fill="#ef5454"/>
    <rect x="6.82" y="2.28" width="1.52" height="1.51" fill="#fff"/>
    <rect x="5.31" y="44.69" width="1.51" height="1.51" fill="#fff"/>
    <rect x="5.31" y="43.18" width="1.51" height="1.52" fill="#aa0707"/>
    <rect x="5.31" y="41.66" width="1.51" height="1.51" fill="#cc1d1d"/>
    <rect x="5.31" y="40.15" width="1.51" height="1.52" fill="#cc1d1d"/>
    <rect x="5.31" y="38.63" width="1.51" height="1.51" fill="#ef5454"/>
    <rect x="5.31" y="37.12" width="1.51" height="1.52" fill="#fff"/>
    <rect x="5.31" y="11.37" width="1.51" height="1.51" fill="#fff"/>
    <rect x="5.31" y="9.85" width="1.51" height="1.52" fill="#aa0707"/>
    <rect x="5.31" y="8.34" width="1.51" height="1.51" fill="#cc1d1d"/>
    <rect x="5.31" y="6.82" width="1.51" height="1.52" fill="#cc1d1d"/>
    <rect x="5.31" y="5.31" width="1.51" height="1.51" fill="#ef5454"/>
    <rect x="5.31" y="3.79" width="1.51" height="1.52" fill="#fff"/>
    <rect x="3.79" y="43.18" width="1.52" height="1.52" fill="#fff"/>
    <rect x="3.79" y="41.66" width="1.52" height="1.51" fill="#aa0707"/>
    <rect x="3.79" y="40.15" width="1.52" height="1.52" fill="#ef5454"/>
    <rect x="3.79" y="38.63" width="1.52" height="1.51" fill="#fff"/>
    <rect x="3.79" y="9.85" width="1.52" height="1.52" fill="#fff"/>
    <rect x="3.79" y="8.34" width="1.52" height="1.51" fill="#aa0707"/>
    <rect x="3.79" y="6.82" width="1.52" height="1.52" fill="#ef5454"/>
    <rect x="3.79" y="5.31" width="1.52" height="1.51" fill="#fff"/>
    <rect x="2.28" y="41.66" width="1.51" height="1.51" fill="#fff"/>
    <rect x="2.28" y="40.15" width="1.51" height="1.52" fill="#fff"/>
    <rect x="2.28" y="8.34" width="1.51" height="1.51" fill="#fff"/>
    <rect x="2.28" y="6.82" width="1.51" height="1.52" fill="#fff"/>
  </g>
</svg>
