<svg id="Capa_1" data-name="Capa 1" xmlns="http://www.w3.org/2000/svg" xmlns:xlink="http://www.w3.org/1999/xlink" width="50" height="50" viewBox="0 0 50 50">
  <defs>
    <clipPath id="clip-path">
      <polygon points="24.04 49.76 1.25 39.47 1.41 9.18 24.2 19.47 24.04 49.76" fill="none"/>
    </clipPath>
    <clipPath id="clip-path-2">
      <polygon points="24.2 19.47 1.41 9.18 25.96 0.24 48.74 10.53 24.2 19.47" fill="none"/>
    </clipPath>
    <clipPath id="clip-path-3">
      <polygon points="48.74 10.53 48.59 40.83 24.04 49.76 24.2 19.47 48.74 10.53" fill="none"/>
    </clipPath>
  </defs>
  <g id="Figment_lido">
    <g style="isolation: isolate">
      <g>
        <polygon points="24.04 49.76 1.25 39.47 1.41 9.18 24.2 19.47 24.04 49.76" fill="#06162d"/>
        <g style="isolation: isolate">
          <g clip-path="url(#clip-path)">
            <g>
              <path d="M12.27,19.86l0,7a4.13,4.13,0,0,1,1.82,3.53c0,1.29-.66,1.88-1.84,1.7l0,7.05c2.57,1,4.59.47,6-1.84,1.58-2.63,1.51-6.94-.18-10.85q-2.1-4.89-5.73-6.62" fill="#fff"/>
              <path d="M11.31,19.42l-4.48-2L6.76,36.69l4.48,2,.07-19.28" fill="#fff"/>
            </g>
          </g>
        </g>
      </g>
      <g>
        <polygon points="24.2 19.47 1.41 9.18 25.96 0.24 48.74 10.53 24.2 19.47" fill="#061832"/>
        <g style="isolation: isolate">
          <g clip-path="url(#clip-path-2)">
            <g>
              <path d="M17.42,6.74l5.27,2.38a6.24,6.24,0,0,1,4.08.17c1,.45.91,1-.16,1.6l5.28,2.39c2.79-1.1,4-2.41,3.32-4-.74-1.77-4-3.18-8.31-3.55a22.71,22.71,0,0,0-9.48,1" fill="#fff"/>
              <path d="M16.33,7.14,11.3,9,25.75,15.5l5-1.84L16.33,7.14" fill="#fff"/>
            </g>
          </g>
        </g>
      </g>
      <g>
        <polygon points="48.74 10.53 48.59 40.83 24.04 49.76 24.2 19.47 48.74 10.53" fill="#071833"/>
        <g style="isolation: isolate">
          <g clip-path="url(#clip-path-3)">
            <g>
              <path d="M36.07,20.69l0,7.22c1.47-.07,2.09.54,2.06,2A4,4,0,0,1,36,33.27l0,7.24a12.73,12.73,0,0,0,6.76-7.09c1.8-4.06,1.72-8.42-.18-11-1.58-2.1-3.74-2.71-6.48-1.78" fill="#fff"/>
              <path d="M35,21.09l-5.07,1.84-.1,19.79,5.07-1.85L35,21.09" fill="#fff"/>
            </g>
          </g>
        </g>
      </g>
    </g>
  </g>
</svg>
