<svg id="Capa_1" data-name="Capa 1" xmlns="http://www.w3.org/2000/svg" xmlns:xlink="http://www.w3.org/1999/xlink" width="50" height="50" viewBox="0 0 50 50">
  <defs>
    <clipPath id="clip-path">
      <polygon points="24.04 49.76 1.26 39.47 1.42 9.18 24.2 19.46 24.04 49.76" fill="none"/>
    </clipPath>
    <clipPath id="clip-path-2">
      <polygon points="24.2 19.46 1.42 9.18 25.96 0.24 48.75 10.53 24.2 19.46" fill="none"/>
    </clipPath>
    <clipPath id="clip-path-3">
      <polygon points="48.75 10.53 48.59 40.83 24.04 49.76 24.2 19.46 48.75 10.53" fill="none"/>
    </clipPath>
  </defs>
  <g id="Figment_lido">
    <g style="isolation: isolate">
      <g>
        <polygon points="24.04 49.76 1.26 39.47 1.42 9.18 24.2 19.46 24.04 49.76" fill="#0c1d33"/>
        <g style="isolation: isolate">
          <g clip-path="url(#clip-path)">
            <g>
              <path d="M9.88,28.4V26.94l1.36,1.78,0,.19L9.88,28.4m.87-10.12c0,.83-.06,1.42,0,2,.24,2.3-.24,3.83-1.61,4.49-.43.21-.57.71-.56,1.43a1.32,1.32,0,0,1-.33.92A28.22,28.22,0,0,1,6,29c-.29.21-.3.5-.15,1a6.39,6.39,0,0,0,2.82,3.89,1.65,1.65,0,0,0,.85.16,1.54,1.54,0,0,1,.76.13A4.09,4.09,0,0,1,11.78,36c.78,1.24,1.58,2.47,2.38,3.71.28.44.57.87,1,1.47.14-1.75.27-3.34.42-5.16l.63,1.73a6.79,6.79,0,0,0,.87-.65,1.13,1.13,0,0,0,.28-.59c.11-.73.18-1.49.29-2.48.31.87.5,1.44.77,2.21.16-.77.26-1.39.43-1.94a1.23,1.23,0,0,0-.27-1.17c-.9-1.29-1.76-2.63-2.68-3.9a2.81,2.81,0,0,1-.65-2.05,3.74,3.74,0,0,0-.68-2.37c-1.09-1.81-2.13-3.67-3.19-5.51-.16-.26-.32-.51-.6-1" fill="#00e0f8"/>
              <path d="M8.79,17.56c0,1.09,0,2.09,0,3.1s.06,2.07.09,3.16c2-.57,1.9-3.57-.09-6.26" fill="#00e0f8"/>
            </g>
          </g>
        </g>
      </g>
      <g>
        <polygon points="24.2 19.46 1.42 9.18 25.96 0.24 48.75 10.53 24.2 19.46" fill="#0d1f38"/>
        <g style="isolation: isolate">
          <g clip-path="url(#clip-path-2)">
            <g>
              <path d="M22.07,10.88l-1.13-.51,2.47-.17a.57.57,0,0,0,.13.08l-1.47.6M15,6.9a16.44,16.44,0,0,0,1.57.7c2,.66,2.75,1.46,2.15,2.46-.18.32.08.58.65.82.28.12.45.34.44.5a11.76,11.76,0,0,1-.38,1.93c-.06.24.15.35.65.43a11.43,11.43,0,0,0,5.26-.27,2.67,2.67,0,0,0,.81-.43,2.55,2.55,0,0,1,.7-.39,7.88,7.88,0,0,1,2.54-.26c1.59,0,3.17-.06,4.76-.09l1.91,0-3.61-2,1.82.24a4,4,0,0,0,.21-.72.45.45,0,0,0-.24-.36c-.47-.32-1-.62-1.66-1l2.31.32c-.45-.35-.85-.62-1.15-.91a1.41,1.41,0,0,0-1.1-.25c-1.71.07-3.44.11-5.15.19a3.62,3.62,0,0,1-2.1-.33A4.81,4.81,0,0,0,23,7c-2.26,0-4.53,0-6.79-.06-.32,0-.64,0-1.23,0" fill="#00e0f8"/>
              <path d="M12.87,7.77c.83.37,1.59.73,2.38,1.07s1.63.68,2.5,1c1.16-1.33-1.22-2.31-4.88-2.1" fill="#00e0f8"/>
            </g>
          </g>
        </g>
      </g>
      <g>
        <polygon points="48.75 10.53 48.59 40.83 24.04 49.76 24.2 19.46 48.75 10.53" fill="#0d2039"/>
        <g style="isolation: isolate">
          <g clip-path="url(#clip-path-3)">
            <g>
              <path d="M33.73,32.08v-1.4l1.43.59,0,.21-1.4.6m.92-10.31c0,.78-.06,1.4,0,1.94A7,7,0,0,1,33,29.27a2.58,2.58,0,0,0-.6,1.81A2.33,2.33,0,0,1,32,32.22c-.76,1.22-1.55,2.41-2.36,3.59a1,1,0,0,0-.16,1.08,2.32,2.32,0,0,0,3,1.41,2.87,2.87,0,0,0,.89-.53,2.66,2.66,0,0,1,.79-.49c.64-.23,1.07.09,1.58.43.81.55,1.65,1.07,2.49,1.61.29.19.59.36,1,.61.16-1.78.3-3.39.46-5.23.3.52.5.88.65,1.13.34-.48.65-.88.91-1.31a2.38,2.38,0,0,0,.3-.79c.12-.79.19-1.57.31-2.6l.8,1.48c.18-.85.28-1.52.46-2.19.13-.51,0-.73-.28-.89C41.88,29,41,28.46,40,28a1.19,1.19,0,0,1-.69-1.41,1.67,1.67,0,0,0-.7-1.71c-1.15-.84-2.24-1.76-3.35-2.65-.16-.13-.33-.24-.63-.45" fill="#00e0f8"/>
              <path d="M32.6,22.66c0,1,0,2,0,2.95s.06,1.92.1,2.92c2.08-2.14,2-4.92-.09-5.87" fill="#00e0f8"/>
            </g>
          </g>
        </g>
      </g>
    </g>
  </g>
</svg>
