<svg id="Capa_1" data-name="Capa 1" xmlns="http://www.w3.org/2000/svg" xmlns:xlink="http://www.w3.org/1999/xlink" width="50" height="50" viewBox="0 0 50 50">
  <defs>
    <clipPath id="clip-path">
      <polygon points="24.04 49.76 1.26 39.47 1.42 9.17 24.2 19.46 24.04 49.76" fill="none"/>
    </clipPath>
    <clipPath id="clip-path-2">
      <polygon points="24.2 19.46 1.42 9.17 25.96 0.24 48.75 10.53 24.2 19.46" fill="none"/>
    </clipPath>
    <clipPath id="clip-path-3">
      <polygon points="48.75 10.53 48.59 40.82 24.04 49.76 24.2 19.46 48.75 10.53" fill="none"/>
    </clipPath>
  </defs>
  <g id="Figment_lido">
    <g style="isolation: isolate">
      <g>
        <polygon points="24.04 49.76 1.26 39.47 1.42 9.17 24.2 19.46 24.04 49.76" fill="#91c4b5"/>
        <g style="isolation: isolate">
          <g clip-path="url(#clip-path)">
            <g>
              <path d="M12.31,18a.84.84,0,0,0-.66,0c-2,.66-3.93,1.31-5.88,2-.55.19-.54.37,0,1,2,2.49,4.05,5,6.09,7.45a1.76,1.76,0,0,1,.45,1.24c0,3.15,0,6.32,0,9.49,0,.57,0,.85.21.92s.26,0,.5-.06c1.94-.64,3.86-1.3,5.78-2a1,1,0,0,0,.69-1c.05-1,0-1.93,0-2.9,0-.18,0-.31-.12-.36l-.12,0c-.71,0-1.09.41-1.06,1.41,0,.75-.18,1.1-.65,1.24-1.11.33-2.19.73-3.29,1.1a.81.81,0,0,1-.47.07c-.14-.07-.17-.31-.17-.86,0-2.47,0-4.94,0-7.41A1.88,1.88,0,0,0,13.15,28c-1.62-1.94-3.22-3.92-4.82-5.9-.49-.6-.49-.76,0-.94,1.11-.38,2.24-.73,3.33-1.15a.9.9,0,0,1,.7,0,1.49,1.49,0,0,1,.59.59,1.74,1.74,0,0,0,.68.68.66.66,0,0,0,.68-.09,3.61,3.61,0,0,1,.61-.23c-.71-.87-1.34-1.66-2-2.42a1.77,1.77,0,0,0-.62-.51" fill="#fff"/>
              <path d="M5.25,21.48c-.11-.05-.16.06-.15.45,0,2.81,0,5.6,0,8.4a2.81,2.81,0,0,0,.58,1.82c1.87,2.34,3.76,4.64,5.65,7,.06.07.12.16.19.19s.08,0,.12,0A3.67,3.67,0,0,0,11.29,37C9.85,35.24,8.41,33.46,7,31.7a2.14,2.14,0,0,1-.54-1.5c0-1.1,0-2.22,0-3.33,0-.92-.06-1.87,0-2.74a2.77,2.77,0,0,0-.86-2.36,2.14,2.14,0,0,0-.33-.29" fill="#fff"/>
              <path d="M15.6,22a1.19,1.19,0,0,0-1.27.28c1,1.26,2,2.47,3,3.62a3.58,3.58,0,0,1,.91,2.55c0,1.34,0,2.71,0,4.07,0,.18-.11.44.16.57h0c.41.18,1.14-.48,1.14-1,0-1.42,0-2.83,0-4.24a3.26,3.26,0,0,0-.76-2.18A31.86,31.86,0,0,1,16.64,23a2.74,2.74,0,0,0-1-1" fill="#fff"/>
            </g>
          </g>
        </g>
      </g>
      <g>
        <polygon points="24.2 19.46 1.42 9.17 25.96 0.24 48.75 10.53 24.2 19.46" fill="#9fd8c7"/>
        <g style="isolation: isolate">
          <g clip-path="url(#clip-path-2)">
            <g>
              <path d="M16.57,6.07a1.24,1.24,0,0,0-.56.36c-1.09,1.35-2.18,2.7-3.23,4.06-.3.38-.16.43.78.35q5.34-.43,10.66-.9a2.36,2.36,0,0,1,1.31.17L32.8,13.4c.44.2.67.28.87.2a.82.82,0,0,0,.36-.31c1.08-1.32,2.13-2.65,3.19-4,.2-.26.23-.52-.19-.74-.69-.35-1.46-.68-2.2-1a.49.49,0,0,0-.37,0l-.12.06c-.59.4-.58.77.22,1.1.6.24.71.48.43.8-.65.74-1.22,1.5-1.83,2.26a.92.92,0,0,1-.33.29c-.17.06-.37,0-.79-.2-1.9-.85-3.8-1.7-5.67-2.57A2.66,2.66,0,0,0,24.9,9c-2.8.25-5.61.48-8.43.72-.86.07-1,0-.72-.32.6-.77,1.25-1.53,1.82-2.31a1.13,1.13,0,0,1,.55-.4,3.16,3.16,0,0,1,.94-.14,3,3,0,0,0,1.07-.15A.69.69,0,0,0,20.61,6a3.08,3.08,0,0,1,.32-.43c-1.24.11-2.36.19-3.46.3a3.4,3.4,0,0,0-.9.18" fill="#fff"/>
              <path d="M13.51,11.31c-.13,0-.08.11.21.24,2.17,1,4.31,1.93,6.45,2.9a3.75,3.75,0,0,0,1.87.3c3.31-.26,6.61-.55,9.91-.83a1.37,1.37,0,0,0,.31,0,.06.06,0,0,0,.05-.09,3.89,3.89,0,0,0-2-.57c-2.53.21-5.07.42-7.6.65a2.94,2.94,0,0,1-1.59-.22c-.82-.39-1.69-.77-2.54-1.15s-1.49-.61-2.09-1a3.77,3.77,0,0,0-2.5-.32,2.14,2.14,0,0,0-.49.09" fill="#fff"/>
              <path d="M22.29,5.56a1.13,1.13,0,0,0-.81.82c1.79-.15,3.49-.27,5.17-.44a5.07,5.07,0,0,1,2.7.36c1,.49,2.07,1,3.12,1.41a.53.53,0,0,0,.57.1h0a.54.54,0,0,0,.13-1L29.93,5.34A4.43,4.43,0,0,0,27.64,5c-1.23.11-2.46.27-3.7.3a5.45,5.45,0,0,0-1.65.24" fill="#fff"/>
            </g>
          </g>
        </g>
      </g>
      <g>
        <polygon points="48.75 10.53 48.59 40.82 24.04 49.76 24.2 19.46 48.75 10.53" fill="#a3dccb"/>
        <g style="isolation: isolate">
          <g clip-path="url(#clip-path-3)">
            <g>
              <path d="M36.84,19.17a2,2,0,0,0-.74.52c-2.18,2.33-4.37,4.66-6.54,7-.61.66-.6.83,0,1,2.25.78,4.49,1.56,6.74,2.32.36.12.5.34.49.86,0,3.19,0,6.37-.06,9.54,0,.58,0,.83.22.76a2,2,0,0,0,.57-.5c2.15-2.28,4.28-4.57,6.43-6.86a2.6,2.6,0,0,0,.77-1.58c.06-1,0-2,0-2.94,0-.18,0-.29-.14-.25l-.13.08a2.64,2.64,0,0,0-1.19,2.32,2.22,2.22,0,0,1-.72,1.79c-1.24,1.27-2.44,2.6-3.66,3.89a2.14,2.14,0,0,1-.53.47c-.16.06-.18-.16-.18-.71,0-2.48,0-5,0-7.45,0-.57-.11-.86-.54-1-1.79-.58-3.56-1.21-5.33-1.83-.54-.2-.54-.35,0-.94,1.23-1.33,2.49-2.63,3.71-4a2.08,2.08,0,0,1,.77-.6.69.69,0,0,1,.66.08.82.82,0,0,0,.75.11,1.75,1.75,0,0,0,.76-.67c.17-.23.38-.42.68-.75-.79-.27-1.48-.53-2.19-.75a1,1,0,0,0-.69,0" fill="#fff"/>
              <path d="M29,28.65c-.12,0-.17.19-.17.57,0,2.81,0,5.63,0,8.45,0,.66.18,1.17.64,1.33,2.07.75,4.16,1.46,6.25,2.19a.39.39,0,0,0,.21,0,.38.38,0,0,0,.14-.16c.21-.46,0-1.83-.38-2-1.6-.56-3.19-1.12-4.8-1.66-.42-.14-.61-.43-.59-1.05,0-1.13,0-2.23,0-3.35,0-.92-.06-1.83,0-2.77s-.22-1.5-.95-1.63a.67.67,0,0,0-.37,0" fill="#fff"/>
              <path d="M40.48,20.37a3.23,3.23,0,0,0-1.41,1.36c1.13.39,2.18.8,3.27,1.12.71.22,1,.77,1,1.79,0,1.38,0,2.73,0,4.09,0,.18-.13.53.18.43h0a3.24,3.24,0,0,0,1.27-2c0-1.42,0-2.84,0-4.26,0-.84-.26-1.34-.84-1.54a11.52,11.52,0,0,1-2.33-.83,1.31,1.31,0,0,0-1.15-.16" fill="#fff"/>
            </g>
          </g>
        </g>
      </g>
    </g>
  </g>
</svg>
