<svg id="Capa_1" data-name="Capa 1" xmlns="http://www.w3.org/2000/svg" xmlns:xlink="http://www.w3.org/1999/xlink" width="50" height="50" viewBox="0 0 50 50">
  <defs>
    <clipPath id="clip-path">
      <polygon points="24.04 49.76 1.26 39.47 1.42 9.17 24.2 19.46 24.04 49.76" fill="none"/>
    </clipPath>
    <clipPath id="clip-path-2">
      <polygon points="24.2 19.46 1.42 9.17 25.96 0.24 48.75 10.53 24.2 19.46" fill="none"/>
    </clipPath>
    <clipPath id="clip-path-3">
      <polygon points="48.75 10.53 48.59 40.82 24.04 49.76 24.2 19.46 48.75 10.53" fill="none"/>
    </clipPath>
  </defs>
  <g id="Figment_lido">
    <g style="isolation: isolate">
      <g>
        <polygon points="24.04 49.76 1.26 39.47 1.42 9.17 24.2 19.46 24.04 49.76" fill="#052e5f"/>
        <g style="isolation: isolate">
          <g clip-path="url(#clip-path)">
            <g>
              <path d="M13.51,26.13c-.48-.23-1-.37-1.46-.55l-2.83-1C8,24.14,6.7,23.68,5.44,23.24a.17.17,0,0,0-.19.11c0,.4,0,.82,0,1.27l1.54.64,3.1,1.24c.76.3,1.51.6,2.27.93.39.18.78.35,1.16.54s.9.44,1.35.67c.86.44,1.72.95,2.58,1.43l1.76,1c.42.25.84.47,1.28.71l0-1.19-.43-.3-3.23-2.15c-.92-.62-1.85-1.3-2.79-1.84l-.32-.17" fill="#fff"/>
              <path d="M14.29,23.68l-.07,0L12,23.06,7.83,22l-2.54-.67,0,1.36c.73.24,1.42.47,2.1.68l2.71.86c1.08.34,2.15.69,3.22,1.05.24.09.49.16.73.27a3.13,3.13,0,0,1,.34.21c1.91,1.38,3.82,2.81,5.72,4.22l.23.14c0-.3,0-.56,0-.8a.59.59,0,0,0-.23-.56l-5.54-4.85a1.59,1.59,0,0,0-.27-.18" fill="#fff"/>
              <path d="M5.11,30.39c0,.3,0,.56,0,.81a.64.64,0,0,0,.19.53c1.65,1.9,3.31,3.81,5,5.7a1.19,1.19,0,0,0,.34.26l.12.05L17.19,39c.91.18,1.84.36,2.76.51a.16.16,0,0,0,.18-.13c0-.34,0-.7,0-1.1L20,38.19l-3.68-.91L11,36a2,2,0,0,1-.37-.12,1.1,1.1,0,0,1-.26-.18c-1.68-1.66-3.36-3.35-5-5a1.94,1.94,0,0,0-.25-.23" fill="#fff"/>
              <path d="M14.9,21.26a.35.35,0,0,0-.13-.05c-2-.4-3.91-.78-5.87-1.16-1.11-.22-2.23-.45-3.34-.65-.09,0-.22,0-.23.11a8.71,8.71,0,0,0,0,1l.17.09.07,0c.58.15,1.17.32,1.76.46l7.44,1.95.1,0a.71.71,0,0,1,.18.12L19.9,28l.44.42c0-.32,0-.58,0-.84a.61.61,0,0,0-.19-.5l-4.94-5.61a.88.88,0,0,0-.33-.25" fill="#fff"/>
              <path d="M12.75,28.53l-.21-.09c-.85-.4-1.7-.74-2.54-1.12-1.38-.6-2.75-1.22-4.12-1.81-.71-.31-.7-.29-.7.67a.4.4,0,0,0,.21.4c.44.21.87.44,1.31.67l6,3.1a3.68,3.68,0,0,1,.35.15c2.18.95,4.34,1.91,6.52,2.84.87.37.67.51.73-.68a.33.33,0,0,0-.2-.37l-1.33-.69-3.84-2-2.15-1.09" fill="#fff"/>
              <path d="M20.23,34.28l-1.54-.63-2.6-1c-.92-.35-1.84-.71-2.76-1.09-.44-.19-.88-.37-1.31-.57l-.56-.29c-.94-.49-1.89-1.05-2.83-1.59l-2.2-1.29-1.26-.7c0,.31,0,.59,0,.84a.43.43,0,0,0,.18.41c.43.29.86.58,1.28.88l4,2.77a9.85,9.85,0,0,0,1.19.83l.14.06c1.1.42,2.2.71,3.3,1.06s2,.64,3,1c.57.18,1.14.37,1.71.53a.19.19,0,0,0,.21-.15c0-.31,0-.66,0-1" fill="#fff"/>
              <path d="M5.14,28.78c0,.32,0,.58,0,.82a.61.61,0,0,0,.25.61l5.57,4.85a1,1,0,0,0,.29.19,1.19,1.19,0,0,0,.22.08c.92.25,1.85.47,2.78.71l5.26,1.32c.23.06.54.22.64.08s.05-.61.07-.92v-.07L20,36.18c-.53-.18-1.06-.33-1.59-.49l-2.91-.88-3.19-1a7.89,7.89,0,0,1-.94-.3,1.28,1.28,0,0,1-.25-.15c-1.35-1-2.67-2-4-3.06l-2-1.53" fill="#fff"/>
            </g>
          </g>
        </g>
      </g>
      <g>
        <polygon points="24.2 19.46 1.42 9.17 25.96 0.24 48.75 10.53 24.2 19.46" fill="#063368"/>
        <g style="isolation: isolate">
          <g clip-path="url(#clip-path-2)">
            <g>
              <path d="M23.15,8.34c-.53.19-1,.42-1.5.63-1,.42-1.89.84-2.85,1.25L15,11.89c-.07,0-.1.11-.06.13.29.15.6.28.94.43.57-.22,1.11-.43,1.62-.65l3.25-1.32c.78-.32,1.57-.64,2.38-1l1.27-.48,1.51-.53c1-.33,2-.65,3-1l2.07-.65c.5-.15,1-.32,1.49-.48L31.54,6,31,6.16l-4,1.1c-1.16.31-2.36.61-3.46,1l-.37.13" fill="#fff"/>
              <path d="M21.89,7.11l-.08,0-2.12,1-3.92,2-2.39,1.19,1,.46,2.07-.95c.89-.4,1.77-.82,2.66-1.23l3.19-1.44c.24-.11.48-.22.74-.32a4.21,4.21,0,0,1,.42-.12c2.45-.62,5-1.21,7.43-1.81l.27-.08c-.22-.1-.42-.18-.59-.27A.78.78,0,0,0,30,5.52L22.22,7a1.59,1.59,0,0,0-.33.09" fill="#fff"/>
              <path d="M20.11,14.38l.6.28a.91.91,0,0,0,.54.06l8-.91a2,2,0,0,0,.45-.11l.13,0,5.74-3.2c.82-.45,1.64-.9,2.44-1.36.06,0,.09-.12,0-.15-.24-.12-.51-.24-.81-.37l-.16.07-3.42,1.75L28.7,12.9a3.17,3.17,0,0,1-.36.16,1.59,1.59,0,0,1-.33.09l-7.54,1.17-.36.06" fill="#fff"/>
              <path d="M20.51,6l-.13,0C18.62,7,16.88,8,15.14,8.93c-1,.55-2,1.09-3,1.65-.08,0-.15.13-.09.16s.49.23.76.35L13,11l.08,0,1.66-.83,7-3.5.11,0,.22-.06,7.24-1.15L30,5.3,29.37,5A.85.85,0,0,0,28.85,5c-2.63.31-5.27.61-7.9.93a1.49,1.49,0,0,0-.44.1" fill="#fff"/>
              <path d="M24.39,9.54l-.23.08-2.72,1.06c-1.48.56-3,1.12-4.43,1.69-.76.3-.74.3,0,.61a.57.57,0,0,0,.46,0l1.48-.51,6.77-2.31.38-.15,7-2.69c.93-.37.89-.22,0-.63a.48.48,0,0,0-.42,0l-1.5.51L26.81,8.69c-.8.28-1.63.56-2.42.85" fill="#fff"/>
              <path d="M34.28,7.24l-1.61.65L30,9c-.95.4-1.9.8-2.87,1.18l-1.41.55-.63.21c-1.07.37-2.19.71-3.3,1.06l-2.61.8-1.46.48.62.28a.6.6,0,0,0,.44,0l1.61-.43,5.08-1.33c.5-.13,1.08-.24,1.52-.4l.14,0c1.14-.48,2.17-1,3.26-1.5l3-1.36c.56-.26,1.13-.51,1.68-.78.07,0,.1-.13,0-.16-.22-.12-.49-.22-.77-.35" fill="#fff"/>
              <path d="M18.92,13.85a6,6,0,0,1,.6.27.89.89,0,0,0,.66.06L28,12.66l.36-.1a1.12,1.12,0,0,0,.22-.1c.88-.43,1.73-.87,2.6-1.31l4.91-2.5c.21-.1.56-.23.53-.33S36.18,8.1,36,8l-.06,0h-.32L34,8.7,31.19,10l-3.12,1.45c-.31.14-.58.3-.92.42l-.3.1c-1.73.42-3.51.82-5.28,1.23l-2.65.62" fill="#fff"/>
            </g>
          </g>
        </g>
      </g>
      <g>
        <polygon points="48.75 10.53 48.59 40.82 24.04 49.76 24.2 19.46 48.75 10.53" fill="#06346a"/>
        <g style="isolation: isolate">
          <g clip-path="url(#clip-path-3)">
            <g>
              <path d="M37.2,26.16c-.53.19-1.07.48-1.61.73l-3.11,1.5c-1.39.65-2.78,1.29-4.16,1.95a.54.54,0,0,0-.21.27c0,.42,0,.83,0,1.29.59-.25,1.15-.47,1.69-.71l3.42-1.48c.83-.36,1.66-.73,2.5-1.05L37,28.17l1.48-.51c1-.32,1.9-.56,2.85-.83l1.94-.55,1.41-.41v-1.2l-.47.07c-1.19.24-2.38.46-3.57.69-1,.2-2,.34-3.08.61l-.36.12" fill="#fff"/>
              <path d="M38,23.05l-.08,0-2.46,1.36L30.91,27l-2.79,1.55V29.9l2.31-1.15c1-.5,2-1,3-1.52q1.77-.9,3.54-1.77a8.16,8.16,0,0,1,.8-.36,1.64,1.64,0,0,1,.38-.1c2.11-.3,4.22-.54,6.32-.81l.25-.07c0-.29,0-.54,0-.8s-.06-.35-.26-.35l-6.14,0a1,1,0,0,0-.29.05" fill="#fff"/>
              <path d="M28.06,37.71c0,.3,0,.56,0,.82s.05.31.22.35c1.84.44,3.68.89,5.53,1.32a.74.74,0,0,0,.38-.05l.13-.06,7.11-4.43,3-1.89a.55.55,0,0,0,.2-.3c0-.36,0-.71,0-1.11l-.17.08-4.05,2.31-5.81,3.3a2.42,2.42,0,0,1-.4.19.79.79,0,0,1-.29.06c-1.87-.18-3.73-.39-5.6-.59h-.28" fill="#fff"/>
              <path d="M38.65,20.12a.61.61,0,0,0-.14.07c-2.15,1.31-4.3,2.64-6.45,4-1.22.76-2.45,1.51-3.67,2.28a.67.67,0,0,0-.25.31c0,.35,0,.68,0,1.05l.19-.06.08,0c.64-.36,1.29-.71,1.93-1.08,2.73-1.51,5.45-3,8.18-4.56l.11-.05a.51.51,0,0,1,.2,0l5.41.5.49,0c0-.32,0-.58,0-.85s0-.3-.21-.33c-1.83-.41-3.66-.84-5.49-1.24a.6.6,0,0,0-.37,0" fill="#fff"/>
              <path d="M36.4,29.21l-.23.08c-.93.35-1.87.75-2.8,1.12-1.51.6-3,1.18-4.53,1.8-.78.31-.78.32-.76,1.27,0,.21.06.26.24.2l1.44-.47,6.58-2.13.39-.17C39.13,30,41.51,29,43.91,28c1-.4.75-.09.79-1.31,0-.21-.06-.25-.22-.19L43,27,38.77,28.4c-.78.27-1.58.52-2.37.81" fill="#fff"/>
              <path d="M44.68,28.36,43,29.08l-2.87,1.28c-1,.45-2,.9-3,1.33-.48.19-1,.4-1.44.57-.21.08-.41.15-.62.21-1,.33-2.08.6-3.12.89L29.47,34l-1.39.41c0,.31,0,.58,0,.85s.06.26.21.24l1.41-.25,4.45-.76a7.58,7.58,0,0,0,1.32-.22l.15-.06c1.22-.55,2.42-1.22,3.64-1.83s2.21-1.12,3.32-1.68c.62-.32,1.25-.63,1.88-1a.55.55,0,0,0,.22-.32c0-.34,0-.67,0-1.05" fill="#fff"/>
              <path d="M28.07,36.09c0,.32,0,.57,0,.82s.06.39.29.39l6.17,0a1,1,0,0,0,.32-.07l.24-.11c1-.56,2-1.15,3.05-1.73l5.79-3.28c.24-.14.59-.25.7-.48a2.57,2.57,0,0,0,.06-1v-.06l-.18-.13c-.59.29-1.17.6-1.75.9L39.54,33,36,34.79a10.07,10.07,0,0,1-1,.53,1.64,1.64,0,0,1-.28.07c-1.48.21-2.95.31-4.43.46l-2.22.24" fill="#fff"/>
            </g>
          </g>
        </g>
      </g>
    </g>
  </g>
</svg>
