<svg id="Capa_1" data-name="Capa 1" xmlns="http://www.w3.org/2000/svg" xmlns:xlink="http://www.w3.org/1999/xlink" width="50" height="50" viewBox="0 0 50 50">
  <defs>
    <clipPath id="clip-path">
      <polygon points="24.04 49.77 1.25 39.48 1.41 9.17 24.19 19.46 24.04 49.77" fill="none"/>
    </clipPath>
    <clipPath id="clip-path-2">
      <polygon points="24.19 19.46 1.41 9.17 25.96 0.24 48.74 10.53 24.19 19.46" fill="none"/>
    </clipPath>
    <clipPath id="clip-path-3">
      <polygon points="48.74 10.53 48.59 40.83 24.04 49.77 24.19 19.46 48.74 10.53" fill="none"/>
    </clipPath>
  </defs>
  <g id="Figment_lido">
    <g style="isolation: isolate">
      <g>
        <polygon points="24.04 49.77 1.25 39.48 1.41 9.17 24.19 19.46 24.04 49.77" fill="#6f46bc"/>
        <g style="isolation: isolate">
          <g clip-path="url(#clip-path)">
            <g>
              <path d="M12.64,19.94c-4-1.74-7.16,1.24-7.15,6.65s3.24,11.2,7.2,12.94c3.74,1.64,6.8-.93,7.13-5.76l-3.88-1.7a3.68,3.68,0,0,1-.64,1.62l1.57,2.81-.5.47-1.56-2.81a2,2,0,0,1-1.71.27v3l-.71-.31V34.14a5.38,5.38,0,0,1-1.77-1.73L9.13,33.8l-.5-.9,1.48-1.38a7.77,7.77,0,0,1-.75-2.75l-2.1-.92v-1l2.09.92a3.73,3.73,0,0,1,.75-2.1L8.6,23l.5-.47,1.5,2.7a2.07,2.07,0,0,1,1.77-.18V22.14l.71.31V25.4a5.76,5.76,0,0,1,1.71,1.76l1.55-1.44.5.9-1.55,1.45a7.92,7.92,0,0,1,.64,2.18L19.81,32c-.34-5.13-3.42-10.38-7.17-12" fill="#fff"/>
              <path d="M12.65,26.74c-1.21-.53-2.19.38-2.18,2a4.51,4.51,0,0,0,2.19,3.94c1.21.53,2.18-.38,2.18-2a4.53,4.53,0,0,0-2.19-3.94" fill="#fff"/>
            </g>
          </g>
        </g>
      </g>
      <g>
        <polygon points="24.19 19.46 1.41 9.17 25.96 0.24 48.74 10.53 24.19 19.46" fill="#7a4cce"/>
        <g style="isolation: isolate">
          <g clip-path="url(#clip-path-2)">
            <g>
              <path d="M17.92,6.41c-4.62,1.68-5,4.58-.78,6.47s11.33,2.06,15.94.38C37.43,11.68,38,9,34.52,7.13L30,8.77a1.51,1.51,0,0,1,.72.94l3.47.08,0,.45-3.46-.08a2.13,2.13,0,0,1-1.2,1.08l2.29,1-.83.3-2.27-1a10.66,10.66,0,0,1-2.79.42l-.16,1.35-1.12,0,.16-1.34A9.87,9.87,0,0,1,22,11.41l-2.44.89L18.83,12l2.44-.89a1.72,1.72,0,0,1-1-1.16L17,9.83,17,9.38l3.32.08a2.39,2.39,0,0,1,1.32-1.09l-2.27-1,.83-.3,2.29,1a11,11,0,0,1,2.77-.37l.17-1.4,1.11,0-.17,1.4a10.06,10.06,0,0,1,2.22.4l4.51-1.65a24.78,24.78,0,0,0-15.19-.08" fill="#fff"/>
              <path d="M23.17,8.8c-1.41.51-1.51,1.39-.24,2a7.41,7.41,0,0,0,4.86.12c1.41-.52,1.51-1.4.24-2a7.41,7.41,0,0,0-4.86-.12" fill="#fff"/>
            </g>
          </g>
        </g>
      </g>
      <g>
        <polygon points="48.74 10.53 48.59 40.83 24.04 49.77 24.19 19.46 48.74 10.53" fill="#7c4ed3"/>
        <g style="isolation: isolate">
          <g clip-path="url(#clip-path-3)">
            <g>
              <path d="M37.12,20.23c-4.63,1.68-8.41,7.68-8.44,13.4s3.7,9,8.33,7.3c4.37-1.59,8-7,8.4-12.43l-4.53,1.65a7.66,7.66,0,0,1-.76,2.28L41.93,34l-.59.93-1.81-1.58a5.78,5.78,0,0,1-2,1.8v3.12l-.83.3v-3.1a2.6,2.6,0,0,1-2.05-.26L32.89,38l-.59-.51,1.75-2.78a3.86,3.86,0,0,1-.86-2.24l-2.44.89v-1l2.45-.89a7.33,7.33,0,0,1,.89-2.88l-1.73-1.52.59-.93,1.73,1.52a5.91,5.91,0,0,1,2.07-1.76l0-3.1.83-.3,0,3.12a2.58,2.58,0,0,1,2,.34l1.83-2.9.59.51L40.15,26.5a3.7,3.7,0,0,1,.74,1.73l4.53-1.65c-.36-5.12-3.93-7.94-8.3-6.35" fill="#fff"/>
              <path d="M37.07,27.43a4.54,4.54,0,0,0-2.58,4.08c0,1.75,1.13,2.74,2.54,2.23a4.56,4.56,0,0,0,2.57-4.08c0-1.75-1.12-2.74-2.53-2.23" fill="#fff"/>
            </g>
          </g>
        </g>
      </g>
    </g>
  </g>
</svg>
