<svg id="Capa_1" data-name="Capa 1" xmlns="http://www.w3.org/2000/svg" xmlns:xlink="http://www.w3.org/1999/xlink" width="50" height="50" viewBox="0 0 50 50">
  <defs>
    <clipPath id="clip-path">
      <polygon points="24.04 49.76 1.25 39.47 1.41 9.17 24.2 19.46 24.04 49.76" fill="none"/>
    </clipPath>
    <clipPath id="clip-path-2">
      <polygon points="24.2 19.46 1.41 9.17 25.96 0.24 48.75 10.53 24.2 19.46" fill="none"/>
    </clipPath>
    <clipPath id="clip-path-3">
      <polygon points="48.75 10.53 48.59 40.82 24.04 49.76 24.2 19.46 48.75 10.53" fill="none"/>
    </clipPath>
  </defs>
  <g id="Figment_lido">
    <g style="isolation: isolate">
      <g>
        <polygon points="24.04 49.76 1.25 39.47 1.41 9.17 24.2 19.46 24.04 49.76" fill="#cf6833"/>
        <g style="isolation: isolate">
          <g clip-path="url(#clip-path)">
            <g>
              <path d="M12.34,33.73l-.05-.15.08-.07.06.15-.09.07m.73.27a.16.16,0,0,1-.08-.17l.11-.06.08.16-.11.07m.8-2.14a.22.22,0,0,1-.12-.22l.09-.06a.26.26,0,0,1,.11.22l-.08.06m-5-2.42s0,0,0,0a.47.47,0,0,1-.25-.37c0-.1.09,0,.13,0a.4.4,0,0,1,.23.3c0,.09,0,.15-.09.13m2.17.85c-.06,0-.07-.11-.07-.19l.07-.08a.18.18,0,0,1,.08.18l-.08.09M8.28,28.72a.5.5,0,0,1-.23-.4.39.39,0,0,1,.15,0,.29.29,0,0,1,.14.24l-.06.14m1.73.13a.18.18,0,0,1-.09-.21.12.12,0,0,1,.18-.11.21.21,0,0,1,.11.22c0,.11-.1.13-.19.1h0M7.07,27.2s0,0-.05-.09.06-.11.12-.15l.12-.08a.21.21,0,0,1,.27-.06.82.82,0,0,1,.22.17c.2.18.17.43.17.66v.26c0,.1,0,.2-.11.19h0c-.08,0-.11-.15-.13-.24a2.25,2.25,0,0,0-.22-.56.43.43,0,0,0-.15-.17s-.06,0-.1,0-.07.08-.12.06m10.69,2.25-.14-.1,0-.14c.18-.06.35-.21.57-.17h0a.3.3,0,0,1,.14.24c0,.13-.07.17-.14.15a.87.87,0,0,0-.48,0M6.63,22.56a.16.16,0,0,1-.06-.18l.07-.08h0s.06.1.06.16,0,.12-.09.1m3.62.6c.1.05.19,0,.29,0,.62-.2,1.23-.43,1.86-.63a.47.47,0,0,1,.35,0,.77.77,0,0,1,.21.18c.37.47.75.9,1.11,1.4a3.13,3.13,0,0,1,.25.26c.67.87,1.36,1.68,2,2.53s.63.56.64,1.77v.51c0,.25,0,.35-.08.32s-.11-.09-.22-.22c-1-1.27-2.06-2.57-3.11-3.8a4.15,4.15,0,0,0-.39-.52,1.28,1.28,0,0,0-.47-.44.31.31,0,0,0-.21,0,3,3,0,0,0-1.38.52c-.05.85,0,1.74,0,2.61,0,.22.07.37.2.42a.35.35,0,0,0,.18,0,3.91,3.91,0,0,0,.82-.26.48.48,0,0,1,.39,0,1.27,1.27,0,0,1,.43.37c.69.82,1.3,1.8,2,2.53.52.61,1,1.26,1.53,1.88a1.23,1.23,0,0,1,.3.86c0,.39,0,.79,0,1.2s-.08.54-.31.63c-1.18.41-2.38.77-3.54,1.21a.55.55,0,0,1-.42,0,1.58,1.58,0,0,1-.48-.44c-.57-.73-1.15-1.44-1.75-2.12l-.56-.72a19.5,19.5,0,0,1-1.39-1.8.87.87,0,0,1-.21-.62c0-.47,0-.94,0-1.42a.75.75,0,0,0,0-.28,1.84,1.84,0,0,1,.26.46c.74.9,1.48,1.8,2.21,2.72a2.53,2.53,0,0,1,.57.7,6.31,6.31,0,0,1,.68.89,2.83,2.83,0,0,1,.36.4,1.07,1.07,0,0,0,.32.27.46.46,0,0,0,.28,0,5.48,5.48,0,0,0,1.2-.41.29.29,0,0,0,.19-.29,17.54,17.54,0,0,0,0-2.4c0-.22-.08-.37-.21-.43L14,31a3,3,0,0,0-1,.28.51.51,0,0,1-.3,0A1,1,0,0,1,12.4,31c-.22-.3-.45-.56-.67-.84-.45-.57-.92-1.08-1.36-1.64-.53-.75-1.11-1.4-1.67-2.1a1.32,1.32,0,0,1-.31-.86v-1.2c0-.34.1-.5.32-.58.39-.12.79-.24,1.17-.39.12-.05.24-.09.21-.33a.39.39,0,0,0,.16.14m5-.31h0a.26.26,0,0,1-.15-.27c0-.07,0-.13.1-.11l0,0a.42.42,0,0,1,.17.28c0,.1-.06.11-.12.09m-4.87-2.17,0,0a.26.26,0,0,1-.13-.23c0-.11.08-.16.17-.12h0a.31.31,0,0,1,.13.25c0,.12-.09.14-.16.11m.8-.31a1.18,1.18,0,0,0,.49,0l.1,0a.48.48,0,0,1,.69-.22,5.93,5.93,0,0,1,.8.54l0,0a.41.41,0,0,1,.16,0c.24.1.36.45.52.72a.91.91,0,0,0,.37.4.35.35,0,0,0,.14,0l.07,0a.19.19,0,0,1,.08.25c-.1.23,0,.35.16.51a1.6,1.6,0,0,1,.31,1c0,.22.06.45.24.53h0c.23.08.16-.23.18-.42s-.16-.62.06-.63h.08c.16.08.12.44.24.6l0,.08c.07.19.28.37.21.57s-.09.08-.15.05l-.08,0-.1-.05h0c-.09,0-.22-.08-.2.1s.13.19.22.24l.09,0c.25.12.41-.08.61-.15s.11-.08.16-.06a.17.17,0,0,1,.06.06c.08.15,0,.19-.07.26s-.17.19-.07.38a.18.18,0,0,0,.09.1c.07,0,.14,0,.21,0s.31-.11.41-.06.2.21.26.49h-.07l-.13-.09a.47.47,0,0,0-.12-.09c-.05,0-.09,0-.11.11-.06.34.26.28.35.47a5.75,5.75,0,0,1,.57,1c0,.1.06.22.14.25l0,0a.18.18,0,0,0,.21-.14.41.41,0,0,0-.15-.36c-.17-.22-.4-.34-.5-.69a.83.83,0,0,1,.21.06,1.42,1.42,0,0,1,.69,1.41c0,.3,0,.63-.07.91s.1.28.17.41.07.21,0,.25a0,0,0,0,1-.06,0s-.07-.07-.09-.14a.35.35,0,0,0-.2-.25l-.09,0-.12,0a1.5,1.5,0,0,1-.73-1.53.82.82,0,0,0,0-.51.51.51,0,0,0-.19-.23.1.1,0,0,0-.09,0c-.11.05-.07.21,0,.37s.18.24.11.36-.09.05-.15,0a.09.09,0,0,1-.05,0c-.16-.12-.14-.29-.15-.45v-.17a.44.44,0,0,0-.15-.4h0c-.09,0-.13,0-.17.14s-.06.19-.13.16a.16.16,0,0,1-.09-.08c-.14-.19,0-.26,0-.31l0-.16-.13-.14h0c-.12-.06-.21,0-.32,0a.14.14,0,0,1-.09,0,.15.15,0,0,1-.08-.09.15.15,0,0,1,.05-.2c.08-.06.25-.07.14-.3a.31.31,0,0,0-.12-.13c-.08,0-.17,0-.25,0a.31.31,0,0,1-.21,0,1.06,1.06,0,0,1-.53-.73,1.39,1.39,0,0,0-.66-1h0c-.05,0-.12,0-.17,0a.14.14,0,0,1-.08-.12.28.28,0,0,1,.16-.32l.17,0c.11,0,.21.06.21-.13a.39.39,0,0,0-.13-.33l-.12-.07a.1.1,0,0,0-.16.06c-.11.33-.44.1-.6.29l-.14-.09.06-.15.11,0c.1-.05.14-.16.05-.34a.29.29,0,0,0-.12-.14.14.14,0,0,0-.15,0,.49.49,0,0,1-.51.09,1.19,1.19,0,0,1-.48-.51.27.27,0,0,0-.11-.14.09.09,0,0,0-.08,0c-.08.05-.07.17,0,.3l.12.19c.06.09.1.2,0,.27a.06.06,0,0,1-.08,0,.56.56,0,0,1-.11-.11,1.86,1.86,0,0,0-.24-.3l-.09-.05c-.08,0-.14,0-.08.22s0,.34-.13.28l-.09-.05-.13-.08c-.25-.11-.4,0-.52.27s-.1.15-.17.12a.46.46,0,0,1-.14-.14.39.39,0,0,0-.12-.15h-.07a.17.17,0,0,1-.12,0c-.08,0-.13-.15-.18-.3a.46.46,0,0,0-.25-.31.73.73,0,0,0-.2-.05c-.17,0-.39-.09-.46.16a.42.42,0,0,0,0,.44,1.46,1.46,0,0,0,.21.16.19.19,0,0,0,.25-.07.17.17,0,0,1,.23-.09.51.51,0,0,1,.18.18c.12.2.34.45.16.69-.09-.15-.14-.33-.26-.42a.59.59,0,0,0-.11-.08c-.08,0-.13,0-.09.2s0,.24-.06.21a.31.31,0,0,1-.12-.09.8.8,0,0,0-.23-.16.42.42,0,0,0-.38,0,.2.2,0,0,0-.15.19c0,.15,0,.39-.15.32h0a.64.64,0,0,1-.29-.47c0-.15,0-.28-.13-.33h0c-.14,0-.14.14-.13.28.06.54,0,1,.05,1.56a7.35,7.35,0,0,1-.05,1.42.76.76,0,0,0,.33.79c.42.24.5.79.67,1.24.08.18.13.31.21.34s.1,0,.17-.05a.18.18,0,0,1,.2,0,.28.28,0,0,1,.13.16c.09.23-.05.23-.15.27s-.12.26,0,.42a4.35,4.35,0,0,0,.58.56l.08.05a.19.19,0,0,0,.25-.08c.05-.06.11-.12.17-.1a.33.33,0,0,1,.11.15c.1.23.1.43,0,.5s-.3.08-.45.13l-.07.12.11.17a.6.6,0,0,1,.34.06,1.67,1.67,0,0,1,.23.12,1.34,1.34,0,0,0,.26.14.38.38,0,0,0,.47,0c.09.17,0,.21,0,.32s.05.32.13.35a.11.11,0,0,0,.12,0,.39.39,0,0,1,.33,0c.12.05.23.19.32.46a.45.45,0,0,0,.24.25l.12,0h0c.16.07.23.2.24.44s-.08.31-.25.24h0l-.54-.21c-.08,0-.17,0-.17.12a.34.34,0,0,0,.13.3h0l.16.05.21.1.19.1a.54.54,0,0,0,.52,0c.32-.19.28-.8-.08-1.2l-.07-.15.07-.1a.28.28,0,0,1,.2,0,.77.77,0,0,1,.38.69c0,.39.14.9-.19,1.06a1,1,0,0,1-.92.06,1.68,1.68,0,0,1-.6-.49,2,2,0,0,1-.56-.82L11.35,32a2.06,2.06,0,0,1-.73-.67c-.28-.38-.17-.42,0-.6-.22-.08-.4-.21-.57-.08a.14.14,0,0,1-.14,0,.32.32,0,0,1-.15-.27,1.07,1.07,0,0,0-.25-.65l-.06-.16c0-.49-.31-.8-.45-1.21,0-.1-.07-.15-.11-.17s-.11,0-.15.1-.06.24-.16.19,0,0-.05,0A.71.71,0,0,1,8.37,28c0-.12,0-.23,0-.35a.67.67,0,0,0-.23-.55A.48.48,0,0,1,8,26.85a.73.73,0,0,0-.46-.64h0c-.27-.11-.36.15-.5.3l0,.15c0,.07-.06.11-.11.08l-.06,0c-.09-.1-.13-.22,0-.3.3-.31.21-.9.22-1.42,0-.08,0-.19,0-.22a.21.21,0,0,0-.08,0,.14.14,0,0,1-.11,0c-.11,0-.13-.21-.13-.36,0-.38,0-.75,0-1.12,0-.11,0-.27.07-.28h0c.07,0,.09.19.14.28l.12.14a2.45,2.45,0,0,0-.1-1.22.38.38,0,0,1,0-.43c.17-.2.32-.44.61-.41s.42-.24.69-.22c.06.19-.06.21-.08.31a.39.39,0,0,0,0,.33.4.4,0,0,0,.12.11l.09,0a.14.14,0,0,0,.13-.2c-.07-.45.12-.37.34-.38a1.1,1.1,0,0,0,1-.64c0-.06,0-.18.12-.15l.05,0a.39.39,0,0,1,.1.36,4.73,4.73,0,0,0,0,.54.41.41,0,0,0,.22.39h0c.12.05.19-.05.19-.19a2,2,0,0,1,.14-.64c.06-.14.12-.2.19-.17s.12.12.19.28.13.26.23.3l.09,0c.09,0,.17,0,.18-.18a.44.44,0,0,0-.15-.35,4.11,4.11,0,0,1-.3-.29c-.08-.09-.2-.19-.17-.34s.09-.1.16-.07l.08.05.12.08m1.62-.58-.13-.12c0-.11,0-.12.11-.11l.12.16c0,.09,0,.08-.1.07m0-.58a.32.32,0,0,0-.17,0,2.11,2.11,0,0,0-1,.5l-.15.08L7.23,21.19c-.26.09-.56.09-.75.37-.12,1.48-.14,3-.16,4.53a1.78,1.78,0,0,0,.46,1.24,13.22,13.22,0,0,0,1,1.12c.12.14.25.27.37.4a.3.3,0,0,0-.17,0c-.07,0-.13.05-.19.06a7.14,7.14,0,0,1-.93.28c-.32,0-.51.24-.51.73s0,.82,0,1.24a2,2,0,0,0,.54,1.51c.24.36.5.65.75,1,1,1.28,2.07,2.53,3.09,3.83a1,1,0,0,1,.34.43,1.9,1.9,0,0,0,.41.57,8.12,8.12,0,0,1,.87,1,1,1,0,0,0,.38.31.42.42,0,0,0,.36,0c1.9-.61,3.77-1.28,5.66-1.91a.48.48,0,0,0,.33-.57c0-1.1.08-2.21.07-3.33a3.22,3.22,0,0,1,0-.93,1.86,1.86,0,0,0-.51-1.39c-.27-.33-.53-.68-.81-1s-.26-.41,0-.51.63-.24.95-.33c.13-.05.3-.08.32-.32A15.45,15.45,0,0,0,19,26.91a5.74,5.74,0,0,0-.7-.94C17.53,25,16.72,24,15.94,23c-.35-.37-.67-.82-1-1.22-.59-.72-1.16-1.47-1.76-2.18a1.47,1.47,0,0,0-.42-.41" fill="#f7f7f7"/>
              <path d="M12.42,20.13a.48.48,0,0,0-.69.22l-.1,0a1.18,1.18,0,0,1-.49,0L11,20.29l-.08-.05c-.07,0-.14,0-.16.07s.09.25.17.34a4.11,4.11,0,0,0,.3.29.44.44,0,0,1,.15.35c0,.16-.09.18-.18.18l-.09,0c-.1,0-.16-.16-.23-.3s-.13-.26-.19-.28-.13,0-.19.17a2,2,0,0,0-.14.64c0,.14-.07.24-.19.19h0a.41.41,0,0,1-.22-.39,4.73,4.73,0,0,1,0-.54.39.39,0,0,0-.1-.36l-.05,0c-.08,0-.09.09-.12.15a1.1,1.1,0,0,1-1,.64c-.22,0-.41-.07-.34.38a.14.14,0,0,1-.13.2l-.09,0a.4.4,0,0,1-.12-.11.39.39,0,0,1,0-.33c0-.1.14-.12.08-.31-.27,0-.44.24-.69.22s-.44.21-.61.41a.38.38,0,0,0,0,.43,2.45,2.45,0,0,1,.1,1.22l-.12-.14c0-.09-.07-.25-.14-.28h0c-.1,0-.07.17-.07.28,0,.37,0,.74,0,1.12,0,.15,0,.32.13.36a.14.14,0,0,0,.11,0,.21.21,0,0,1,.08,0c.06,0,0,.14,0,.22,0,.52.08,1.11-.22,1.42-.08.08,0,.2,0,.3l.06,0s.09,0,.11-.08l0-.15c.14-.15.23-.41.5-.3h0a.73.73,0,0,1,.46.64.48.48,0,0,0,.18.24.67.67,0,0,1,.23.55c0,.12,0,.23,0,.35a.71.71,0,0,0,.13.43s0,0,.05,0,.11-.11.16-.19.1-.12.15-.1.07.07.11.17c.14.41.49.72.45,1.21l.06.16a1.07,1.07,0,0,1,.25.65.32.32,0,0,0,.15.27.14.14,0,0,0,.14,0c.17-.13.35,0,.57.08-.14.18-.25.22,0,.6a2.06,2.06,0,0,0,.73.67l.15.21a2,2,0,0,0,.56.82,1.68,1.68,0,0,0,.6.49,1,1,0,0,0,.92-.06c.33-.16.19-.67.19-1.06a.77.77,0,0,0-.38-.69.28.28,0,0,0-.2,0l-.07.1.07.15c.36.4.4,1,.08,1.2a.54.54,0,0,1-.52,0l-.19-.1-.21-.1-.16-.05h0a.34.34,0,0,1-.13-.3c0-.13.09-.15.17-.12l.54.21h0c.17.07.25,0,.25-.24s-.08-.37-.24-.44h0l-.12,0a.45.45,0,0,1-.24-.25c-.09-.27-.2-.41-.32-.46a.39.39,0,0,0-.33,0,.11.11,0,0,1-.12,0c-.08,0-.12-.17-.13-.35s.1-.15,0-.32a.38.38,0,0,1-.47,0,1.34,1.34,0,0,1-.26-.14,1.67,1.67,0,0,0-.23-.12.6.6,0,0,0-.34-.06l-.11-.17.07-.12c.15,0,.31-.07.45-.13s.15-.27,0-.5a.33.33,0,0,0-.11-.15c-.06,0-.12,0-.17.1a.19.19,0,0,1-.25.08l-.08-.05a4.35,4.35,0,0,1-.58-.56c-.13-.16-.16-.35,0-.42s.24,0,.15-.27a.28.28,0,0,0-.13-.16.18.18,0,0,0-.2,0c-.07.06-.13.07-.17.05s-.13-.16-.21-.34c-.17-.45-.25-1-.67-1.24a.76.76,0,0,1-.33-.79A7.35,7.35,0,0,0,8,24.21c-.05-.54,0-1-.05-1.56,0-.14,0-.31.13-.28h0c.11.05.1.18.13.33a.64.64,0,0,0,.29.47h0c.18.07.13-.17.15-.32a.2.2,0,0,1,.15-.19.42.42,0,0,1,.38,0,.8.8,0,0,1,.23.16.31.31,0,0,0,.12.09c.06,0,.1,0,.06-.21s0-.23.09-.2a.59.59,0,0,1,.11.08c.12.09.17.27.26.42.18-.24,0-.49-.16-.69a.51.51,0,0,0-.18-.18.17.17,0,0,0-.23.09.19.19,0,0,1-.25.07,1.46,1.46,0,0,1-.21-.16.42.42,0,0,1,0-.44c.07-.25.29-.18.46-.16a.73.73,0,0,1,.2.05.46.46,0,0,1,.25.31c.05.15.1.26.18.3a.17.17,0,0,0,.12,0h.07a.39.39,0,0,1,.12.15.46.46,0,0,0,.14.14c.07,0,.12,0,.17-.12s.27-.38.52-.27l.13.08.09.05c.12.06.21,0,.13-.28s0-.26.08-.22l.09.05a1.86,1.86,0,0,1,.24.3.56.56,0,0,0,.11.11.06.06,0,0,0,.08,0c.06-.07,0-.18,0-.27l-.12-.19c-.08-.13-.09-.25,0-.3a.09.09,0,0,1,.08,0,.27.27,0,0,1,.11.14,1.19,1.19,0,0,0,.48.51.49.49,0,0,0,.51-.09.14.14,0,0,1,.15,0,.29.29,0,0,1,.12.14c.09.18,0,.29-.05.34l-.11,0-.06.15.14.09c.16-.19.49,0,.6-.29a.1.1,0,0,1,.16-.06l.12.07a.39.39,0,0,1,.13.33c0,.19-.1.16-.21.13l-.17,0a.28.28,0,0,0-.16.32.14.14,0,0,0,.08.12s.12,0,.17,0h0a1.39,1.39,0,0,1,.66,1,1.06,1.06,0,0,0,.53.73.31.31,0,0,0,.21,0c.08,0,.17-.07.25,0a.31.31,0,0,1,.12.13c.11.23-.06.24-.14.3a.15.15,0,0,0-.05.2.15.15,0,0,0,.08.09.14.14,0,0,0,.09,0c.11,0,.2-.09.32,0h0l.13.14,0,.16c-.09.05-.18.12,0,.31a.16.16,0,0,0,.09.08c.07,0,.1-.08.13-.16s.08-.18.17-.14h0a.44.44,0,0,1,.15.4v.17c0,.16,0,.33.15.45a.09.09,0,0,0,.05,0c.06,0,.12,0,.15,0s-.08-.24-.11-.36-.08-.32,0-.37a.1.1,0,0,1,.09,0,.51.51,0,0,1,.19.23.82.82,0,0,1,0,.51,1.5,1.5,0,0,0,.73,1.53l.12,0,.09,0a.35.35,0,0,1,.2.25c0,.07.05.13.09.14a0,0,0,0,0,.06,0c.08,0,.07-.14,0-.25s-.2-.24-.17-.41,0-.61.07-.91A1.42,1.42,0,0,0,18,26.2a.83.83,0,0,0-.21-.06c.1.35.33.47.5.69a.41.41,0,0,1,.15.36.18.18,0,0,1-.21.14l0,0c-.08,0-.11-.15-.14-.25a5.75,5.75,0,0,0-.57-1c-.09-.19-.41-.13-.35-.47,0-.12.06-.13.11-.11a.47.47,0,0,1,.12.09l.13.09h.07c-.06-.28-.14-.44-.26-.49s-.23,0-.41.06-.14.09-.21,0a.18.18,0,0,1-.09-.1c-.1-.19,0-.27.07-.38s.15-.11.07-.26a.17.17,0,0,0-.06-.06c-.05,0-.11,0-.16.06s-.36.27-.61.15l-.09,0c-.09-.05-.22-.07-.22-.24s.11-.13.2-.1h0l.1.05.08,0c.06,0,.12,0,.15-.05s-.14-.38-.21-.57l0-.08c-.12-.16-.08-.52-.24-.6h-.08c-.22,0,0,.41-.06.63s.05.5-.18.42h0c-.18-.08-.2-.31-.24-.53a1.6,1.6,0,0,0-.31-1c-.16-.16-.26-.28-.16-.51a.19.19,0,0,0-.08-.25l-.07,0a.35.35,0,0,1-.14,0,.91.91,0,0,1-.37-.4c-.16-.27-.28-.62-.52-.72a.41.41,0,0,0-.16,0l0,0a5.93,5.93,0,0,0-.8-.54" fill="#f7f7f7"/>
              <path d="M7.53,26.82a.21.21,0,0,0-.27.06L7.14,27c-.06,0-.17,0-.12.15s0,.08.05.09.09,0,.12-.06.07,0,.1,0a.43.43,0,0,1,.15.17,2.25,2.25,0,0,1,.22.56c0,.09,0,.2.13.24h0c.09,0,.1-.09.11-.19v-.26c0-.23,0-.48-.17-.66a.82.82,0,0,0-.22-.17" fill="#f7f7f7"/>
              <path d="M18.24,29.05h0c-.22,0-.39.11-.57.17l0,.14.14.1a.87.87,0,0,1,.48,0c.07,0,.13,0,.14-.15a.3.3,0,0,0-.14-.24" fill="#f7f7f7"/>
              <path d="M8.74,29s-.14-.06-.13,0a.47.47,0,0,0,.25.37s0,0,0,0,.1,0,.09-.13a.4.4,0,0,0-.23-.3" fill="#f7f7f7"/>
              <path d="M10.35,20.31c-.09,0-.15,0-.17.12a.26.26,0,0,0,.13.23l0,0c.07,0,.13,0,.16-.11a.31.31,0,0,0-.13-.25h0" fill="#f7f7f7"/>
              <path d="M10.1,28.53a.12.12,0,0,0-.18.11.18.18,0,0,0,.09.21h0c.09,0,.17,0,.19-.1a.21.21,0,0,0-.11-.22" fill="#f7f7f7"/>
              <path d="M15.14,22.46c-.06,0-.09,0-.1.11a.26.26,0,0,0,.15.27h0c.06,0,.11,0,.12-.09a.42.42,0,0,0-.17-.28l0,0" fill="#f7f7f7"/>
              <path d="M8.2,28.34a.39.39,0,0,0-.15,0,.5.5,0,0,0,.23.4l.06-.14a.29.29,0,0,0-.14-.24" fill="#f7f7f7"/>
              <path d="M13.84,31.58l-.09.06a.22.22,0,0,0,.12.22L14,31.8a.26.26,0,0,0-.11-.22" fill="#f7f7f7"/>
              <path d="M13.1,33.77l-.11.06a.16.16,0,0,0,.08.17l.11-.07-.08-.16" fill="#f7f7f7"/>
              <path d="M12.74,19.56c-.06,0-.13,0-.11.11l.13.12c.05,0,.1,0,.1-.07l-.12-.16" fill="#f7f7f7"/>
              <path d="M6.66,22.3h0l-.07.08a.16.16,0,0,0,.06.18c.06,0,.09,0,.09-.1s0-.14-.06-.16" fill="#f7f7f7"/>
              <path d="M11.05,30,11,30.1c0,.08,0,.16.07.19l.08-.09a.18.18,0,0,0-.08-.18" fill="#f7f7f7"/>
              <polyline points="12.37 33.51 12.29 33.58 12.34 33.73 12.43 33.66 12.37 33.51" fill="#f7f7f7"/>
            </g>
          </g>
        </g>
      </g>
      <g>
        <polygon points="24.2 19.46 1.41 9.17 25.96 0.24 48.75 10.53 24.2 19.46" fill="#e37238"/>
        <g style="isolation: isolate">
          <g clip-path="url(#clip-path-2)">
            <g>
              <path d="M27.92,11.47l-.15,0v-.07l.16,0,0,.07m.76-.31a.21.21,0,0,1-.19,0l.05-.09.17,0,0,.08m-1-1.14a.43.43,0,0,1-.25,0l0-.07a.33.33,0,0,1,.24,0l0,.07M22.09,12h0a.8.8,0,0,1-.46,0c-.08,0,.05-.06.07-.08a.69.69,0,0,1,.4,0c.07,0,.09.06,0,.09m2.3-.91a.3.3,0,0,1-.19,0V11a.29.29,0,0,1,.19,0V11m-3.3,1a.84.84,0,0,1-.47,0l.13-.07A.56.56,0,0,1,21,12l.05.08m1.43-.91a.28.28,0,0,1-.22,0c-.06,0,0-.1.06-.14a.3.3,0,0,1,.25,0c.06,0,0,.1-.08.14h0M19,12.2a.2.2,0,0,1-.11,0c-.14,0,0-.07,0-.11l0-.1c0-.07.07-.12.17-.16a1.91,1.91,0,0,1,.3-.07.86.86,0,0,1,.61.13l.19.08c.07,0,.14.08.07.12l0,0a.5.5,0,0,1-.27,0A3.41,3.41,0,0,0,19.4,12a.85.85,0,0,0-.25,0,.09.09,0,0,0-.06.06.08.08,0,0,1-.05.08M29,7.08l-.18,0-.1-.06c.11-.12.12-.26.32-.36l0,0a.57.57,0,0,1,.29,0c.08,0,.07.09,0,.13a1.08,1.08,0,0,0-.36.26M15.29,10.91a.23.23,0,0,1-.19,0v-.07h0a.25.25,0,0,1,.17,0c.05,0,.07.05,0,.08m3.23-1.78a.39.39,0,0,0,.2-.17c.34-.41.64-.82,1-1.23A.48.48,0,0,1,20,7.54a1.05,1.05,0,0,1,.3-.06c.63-.05,1.25-.12,1.89-.15l.39,0C23.69,7.2,24.83,7.09,26,7s.91-.16,1.8.23l.37.17c.18.09.25.12.18.15a1.75,1.75,0,0,1-.33,0c-1.74.15-3.49.28-5.21.44-.23,0-.45,0-.68.05a2.27,2.27,0,0,0-.69.11.46.46,0,0,0-.18.11,2.21,2.21,0,0,0-.69.92c.59.31,1.26.59,1.91.88a.6.6,0,0,0,.45,0,.51.51,0,0,0,.16-.09,3.22,3.22,0,0,0,.45-.54.58.58,0,0,1,.3-.21,2.58,2.58,0,0,1,.6-.11c1.14-.11,2.33-.12,3.43-.28l2.56-.22a1.55,1.55,0,0,1,.87.12c.28.14.58.27.88.4s.33.23.22.38c-.6.78-1.27,1.56-1.84,2.34a.66.66,0,0,1-.33.23,2.46,2.46,0,0,1-.7.12c-1,.07-1.95.15-2.91.26l-1,.07c-.81.05-1.58.17-2.4.17a1.2,1.2,0,0,1-.62-.09c-.34-.16-.68-.32-1-.47a.86.86,0,0,0-.25-.07,2,2,0,0,1,.55,0c1.23-.11,2.47-.22,3.71-.31a4.14,4.14,0,0,1,1-.09,9.12,9.12,0,0,1,1.18-.07,5.07,5.07,0,0,1,.58-.08,1.73,1.73,0,0,0,.45-.08.69.69,0,0,0,.24-.14,4.38,4.38,0,0,0,.62-.79c0-.08,0-.15-.07-.2a13.4,13.4,0,0,0-1.78-.79.64.64,0,0,0-.47,0l-.11.05c-.31.2-.38.43-.58.65a.63.63,0,0,1-.25.16,1.71,1.71,0,0,1-.41.07c-.39,0-.76.07-1.14.09-.76.06-1.5.15-2.26.21-1,0-1.89.14-2.83.22a1.71,1.71,0,0,1-.88-.12l-.88-.39c-.25-.11-.29-.23-.18-.37s.43-.51.62-.77c.05-.08.12-.16-.08-.23a.61.61,0,0,0,.22,0M22.14,6.3h0a.37.37,0,0,1-.31,0c-.05,0-.07-.06,0-.09h0a.78.78,0,0,1,.34,0c.07,0,0,.07,0,.09m-5.37,2-.05,0a.39.39,0,0,1-.26,0c-.06,0-.05-.1.05-.13h0a.56.56,0,0,1,.29,0c.07,0,0,.09,0,.12m.39-.54a1.38,1.38,0,0,0,.39-.25l.06-.08c-.09-.21.09-.35.36-.45s.68-.17,1-.26h0a.55.55,0,0,1,.15-.08,2.82,2.82,0,0,1,.93,0,1.68,1.68,0,0,0,.58-.07l.14-.07.06,0a.24.24,0,0,1,.25,0c.09.13.26.11.49.08a2,2,0,0,1,1,.15,1,1,0,0,0,.58.05l0,0c.24-.1-.05-.16-.17-.24s-.58-.11-.42-.24l.07,0c.18-.07.41.07.63.06h.09c.2,0,.5,0,.59.07s0,.08-.08.1l-.1,0-.11,0,0,0c-.09,0-.22.09-.08.14s.24,0,.35,0l.11,0c.27-.1.26-.26.36-.39s0-.08.08-.11h.09c.17,0,.12.08.14.12s0,.16.22.17a.3.3,0,0,0,.15,0c.08,0,.08-.08.12-.13a.51.51,0,0,1,.27-.24A1,1,0,0,1,26,6L26,6l-.17,0-.15,0c-.06,0-.08,0,0,.1s.4,0,.62,0a8.81,8.81,0,0,1,1.15,0,.61.61,0,0,0,.3,0l0,0c.08,0,.13-.1.07-.16a.59.59,0,0,0-.38,0,3.29,3.29,0,0,1-.9.05,1,1,0,0,1,.21-.1A2.11,2.11,0,0,1,28.32,6c.19.12.46.21.62.34s.28,0,.43,0,.21,0,.18.09,0,0,0,0h-.17a.6.6,0,0,0-.34,0l-.09,0-.13,0a2.18,2.18,0,0,1-1.69-.11.9.9,0,0,0-.73-.11l-.07,0c-.05.08.1.11.25.14s.32,0,.34.06,0,.07-.09.09l-.06,0a.68.68,0,0,1-.45-.07l-.12-.06a.59.59,0,0,0-.42,0h0c-.1,0-.07.09,0,.14s.09.1,0,.13l-.12,0c-.25,0-.23-.06-.2-.13l-.08-.08-.2,0h0c-.14,0-.16.12-.23.19l-.07,0-.14,0c-.11,0-.11-.06-.09-.1s.14-.16-.12-.17a.5.5,0,0,0-.19,0,.36.36,0,0,0-.17.15.48.48,0,0,1-.19.11,1.83,1.83,0,0,1-.93,0A2.32,2.32,0,0,0,21.7,7h0a1.29,1.29,0,0,1-.16.09.25.25,0,0,1-.15,0c-.16,0-.13-.12-.11-.19l.12-.1c.11,0,.21-.1.07-.16a.55.55,0,0,0-.34,0l-.15,0c-.07,0-.12.07-.08.11s-.27.28-.26.43l-.16,0-.07-.08.05-.07c0-.07,0-.13-.2-.14A.4.4,0,0,0,20,7a.13.13,0,0,0-.1.09.45.45,0,0,1-.32.31,2.47,2.47,0,0,1-.75.09l-.19,0-.05,0c0,.06.07.09.23.1h.23c.12,0,.23,0,.24.07s0,0,0,0a.74.74,0,0,1-.17,0,2.5,2.5,0,0,0-.4,0l-.11,0c-.09,0-.12.07.09.12s.25.11.11.16a.29.29,0,0,1-.1,0l-.16.05c-.27.1-.29.23-.21.38s0,.1-.05.13l-.2,0a1.18,1.18,0,0,0-.21,0l-.05,0-.09.07a.86.86,0,0,1-.36,0,.78.78,0,0,0-.42,0L16.75,9c-.16.09-.38.19-.25.31a.38.38,0,0,0,.35.13l.28-.06c.1,0,.16-.09.14-.16s0-.12.12-.16a.83.83,0,0,1,.26,0c.25,0,.6,0,.64.14a2.15,2.15,0,0,0-.51,0l-.14,0c-.09,0-.1.07.07.11s.18.08.11.11l-.15,0a1.6,1.6,0,0,0-.3.08.48.48,0,0,0-.29.21s-.06.1,0,.14.3.12.11.19h0a1.06,1.06,0,0,1-.56,0,.51.51,0,0,0-.34,0l-.05,0c-.13.07,0,.13.11.17.43.14.74.34,1.18.48a5.94,5.94,0,0,1,1,.5,1,1,0,0,0,.84.08,3.38,3.38,0,0,1,1.42,0,1.21,1.21,0,0,0,.42,0,.14.14,0,0,0,.09-.12.23.23,0,0,1,.12-.12.47.47,0,0,1,.22,0c.25,0,.13.11.09.17s.09.15.31.13a6.07,6.07,0,0,0,.87-.13l.09,0c.12,0,.15-.11.14-.17s0-.1.06-.12a.34.34,0,0,1,.19,0c.25,0,.39.08.33.19a2.18,2.18,0,0,1-.25.28l0,.09h.22a.65.65,0,0,1,.3-.16,1.22,1.22,0,0,1,.27-.09l.3-.1c.19-.06.33-.15.33-.27.19,0,.15.08.23.11a.54.54,0,0,0,.36,0,.22.22,0,0,0,.09-.07.46.46,0,0,1,.24-.19,1.31,1.31,0,0,1,.59,0,.67.67,0,0,0,.36-.05l.12,0h0a.62.62,0,0,1,.5,0c.18.08.17.14,0,.21h0l-.57.22c-.09,0-.14.09,0,.14a.45.45,0,0,0,.32,0h0l.16-.06.24-.09.21-.07a.75.75,0,0,0,.43-.28c.1-.24-.37-.41-.95-.35h-.16l0-.07a.42.42,0,0,1,.17-.11,1.19,1.19,0,0,1,.81,0c.27.13.76.22.63.45a1.17,1.17,0,0,1-.67.53,3.12,3.12,0,0,1-.82.16,3.05,3.05,0,0,1-1.05,0l-.26,0a4.44,4.44,0,0,1-1.06.17c-.5,0-.45,0-.47-.18-.23.09-.47.15-.5.29a.15.15,0,0,1-.09.08.47.47,0,0,1-.31,0,1.48,1.48,0,0,0-.67-.07l-.17,0a3.52,3.52,0,0,0-1.24-.15.36.36,0,0,0-.21,0c-.06,0-.06.07,0,.12s.12.11,0,.15H21a.81.81,0,0,1-.42-.07l-.26-.11a.86.86,0,0,0-.58-.05.69.69,0,0,1-.32,0,1.19,1.19,0,0,0-.82.05h-.05c-.28.11-.16.25-.16.38l.07.07s.05.06,0,.09h-.08c-.14,0-.26,0-.26-.07,0-.26-.5-.41-.87-.59-.07,0-.14-.07-.21,0l-.06,0-.09.06a.49.49,0,0,1-.37,0l-.82-.37c-.08,0-.23-.07-.16-.13h0a1.16,1.16,0,0,1,.32,0l.2,0a2.34,2.34,0,0,0-1-.34c-.21,0-.29-.08-.3-.15s-.07-.33.17-.48.15-.31.37-.45c.19,0,.11.1.17.15a.32.32,0,0,0,.26.09l.17,0,.08-.05c.08,0,.07-.11,0-.14-.39-.1-.18-.18,0-.31s.44-.48.3-.75c0,0-.1-.08,0-.12h.06a.47.47,0,0,1,.35.07l.36.19a.64.64,0,0,0,.47,0h0c.13-.05.11-.12,0-.17a.84.84,0,0,1-.36-.29c-.07-.07-.06-.13,0-.15a.9.9,0,0,1,.36,0,1,1,0,0,0,.4,0L18,8c.07,0,.12-.1,0-.15a.67.67,0,0,0-.38,0l-.44.07c-.13,0-.29,0-.38,0s0-.08.06-.11l.11,0,.15,0M18,6.63l-.18,0c-.1,0-.05-.06,0-.09l.21,0c.07,0,0,.06,0,.08m-.43-.18a.37.37,0,0,0-.14.08,1.32,1.32,0,0,0-.44.74l-.06.11c-.72.92-1.46,1.83-2.17,2.75-.14.17-.37.34-.31.53,1,.55,2.1,1.07,3.21,1.59a2.45,2.45,0,0,0,1.27.15c.53,0,1.06-.09,1.57-.16l.59-.07a.46.46,0,0,0-.15.09,1.2,1.2,0,0,0-.11.12c-.2.2-.26.41-.51.6s-.22.36.15.53l.9.41a2.76,2.76,0,0,0,1.54.2c.45,0,.86-.06,1.29-.1,1.74-.14,3.46-.3,5.2-.42a1.85,1.85,0,0,1,.58,0,3.61,3.61,0,0,0,.74,0,12.57,12.57,0,0,1,1.39-.16,2.14,2.14,0,0,0,.52-.11.57.57,0,0,0,.29-.19c1-1.24,2-2.49,3-3.73C36,9.2,36,9.06,35.71,9c-.78-.39-1.57-.77-2.4-1.14a2.55,2.55,0,0,1-.68-.31,2.53,2.53,0,0,0-1.42-.18l-1.36.11c-.44,0-.51,0-.38-.17s.31-.42.48-.63.18-.19,0-.27a12.61,12.61,0,0,0-1.91-.81,9.92,9.92,0,0,0-1.23.07c-1.34.1-2.66.24-4,.33-.55.07-1.12.09-1.68.15-1,.08-2,.15-3,.24a2.77,2.77,0,0,0-.63.1" fill="#f7f7f7"/>
              <path d="M18,6.93c-.27.1-.45.24-.36.45l-.06.08a1.38,1.38,0,0,1-.39.25l-.15,0-.11,0c-.07,0-.12.07-.06.11s.25,0,.38,0l.44-.07a.67.67,0,0,1,.38,0c.11,0,.06.1,0,.15L18,8.08a1,1,0,0,1-.4,0,.9.9,0,0,0-.36,0c-.07,0-.08.08,0,.15a.84.84,0,0,0,.36.29c.1,0,.12.12,0,.17h0a.64.64,0,0,1-.47,0l-.36-.19a.47.47,0,0,0-.35-.07h-.06c-.08,0,0,.08,0,.12.14.27,0,.52-.3.75s-.37.21,0,.31c.11,0,.12.09,0,.14L16,9.84l-.17,0a.32.32,0,0,1-.26-.09c-.06,0,0-.12-.17-.15-.22.14-.16.32-.37.45s-.19.32-.17.48.09.14.3.15a2.34,2.34,0,0,1,1,.34l-.2,0a1.16,1.16,0,0,0-.32,0h0c-.07.06.08.1.16.13l.82.37a.49.49,0,0,0,.37,0l.09-.06.06,0c.07,0,.14,0,.21,0,.37.18.87.33.87.59,0,.07.12.09.26.07h.08c.06,0,.05-.06,0-.09L18.43,12c0-.13-.12-.27.16-.38h.05a1.19,1.19,0,0,1,.82-.05.69.69,0,0,0,.32,0,.86.86,0,0,1,.58.05l.26.11a.81.81,0,0,0,.42.07h.06c.11,0,0-.1,0-.15s0-.1,0-.12a.36.36,0,0,1,.21,0,3.52,3.52,0,0,1,1.24.15l.17,0a1.48,1.48,0,0,1,.67.07.47.47,0,0,0,.31,0,.15.15,0,0,0,.09-.08c0-.14.27-.2.5-.29,0,.14,0,.21.47.18a4.44,4.44,0,0,0,1.06-.17l.26,0a3.05,3.05,0,0,0,1.05,0,3.12,3.12,0,0,0,.82-.16,1.17,1.17,0,0,0,.67-.53c.13-.23-.36-.32-.63-.45a1.19,1.19,0,0,0-.81,0,.42.42,0,0,0-.17.11l0,.07h.16c.58-.06,1.05.11.95.35a.75.75,0,0,1-.43.28l-.21.07-.24.09-.16.06h0a.45.45,0,0,1-.32,0c-.1-.05,0-.1,0-.14l.57-.22h0c.19-.07.2-.13,0-.21a.62.62,0,0,0-.5,0h0l-.12,0a.67.67,0,0,1-.36.05,1.31,1.31,0,0,0-.59,0,.46.46,0,0,0-.24.19.22.22,0,0,1-.09.07.54.54,0,0,1-.36,0c-.08,0,0-.1-.23-.11,0,.12-.14.21-.33.27l-.3.1a1.22,1.22,0,0,0-.27.09.65.65,0,0,0-.3.16h-.22l0-.09a2.18,2.18,0,0,0,.25-.28c.06-.11-.08-.18-.33-.19a.34.34,0,0,0-.19,0c-.07,0-.07.07-.06.12s0,.13-.14.17l-.09,0a6.07,6.07,0,0,1-.87.13c-.22,0-.38,0-.31-.13s.16-.14-.09-.17a.47.47,0,0,0-.22,0,.23.23,0,0,0-.12.12.14.14,0,0,1-.09.12,1.21,1.21,0,0,1-.42,0,3.38,3.38,0,0,0-1.42,0,1,1,0,0,1-.84-.08,5.94,5.94,0,0,0-1-.5c-.44-.14-.75-.34-1.18-.48-.11,0-.24-.1-.11-.17l.05,0a.51.51,0,0,1,.34,0,1.06,1.06,0,0,0,.56,0h0c.19-.07,0-.13-.11-.19s-.07-.09,0-.14a.48.48,0,0,1,.29-.21,1.6,1.6,0,0,1,.3-.08l.15,0c.07,0,.07-.06-.11-.11s-.16-.08-.07-.11l.14,0a2.15,2.15,0,0,1,.51,0c0-.18-.39-.14-.64-.14a.83.83,0,0,0-.26,0c-.1,0-.14.09-.12.16s0,.12-.14.16l-.28.06a.38.38,0,0,1-.35-.13c-.13-.12.09-.22.25-.31l.19-.09a.78.78,0,0,1,.42,0,.86.86,0,0,0,.36,0l.09-.07.05,0a1.18,1.18,0,0,1,.21,0l.2,0c.08,0,.09-.08.05-.13s-.06-.28.21-.38l.16-.05a.29.29,0,0,0,.1,0c.14-.05.16-.11-.11-.16s-.18-.09-.09-.12l.11,0a2.5,2.5,0,0,1,.4,0,.74.74,0,0,0,.17,0s.05,0,0,0-.12-.07-.24-.07h-.23c-.16,0-.25,0-.23-.1l.05,0,.19,0a2.47,2.47,0,0,0,.75-.09.45.45,0,0,0,.32-.31A.13.13,0,0,1,20,7a.4.4,0,0,1,.2,0c.2,0,.25.07.2.14l-.05.07.07.08.16,0c0-.15.42-.26.26-.43s0-.08.08-.11l.15,0a.55.55,0,0,1,.34,0c.14.06,0,.11-.07.16l-.12.1c0,.07,0,.16.11.19a.25.25,0,0,0,.15,0,1.29,1.29,0,0,0,.16-.09h0a2.32,2.32,0,0,1,1.23,0,1.83,1.83,0,0,0,.93,0,.48.48,0,0,0,.19-.11.36.36,0,0,1,.17-.15.5.5,0,0,1,.19,0c.26,0,.13.11.12.17s0,.08.09.1l.14,0,.07,0c.07-.07.09-.14.23-.19h0l.2,0,.08.08c0,.07-.05.14.2.13l.12,0c.08,0,0-.08,0-.13s-.07-.1,0-.14h0a.59.59,0,0,1,.42,0l.12.06a.68.68,0,0,0,.45.07l.06,0c.07,0,.11-.06.09-.09s-.23,0-.34-.06-.3-.06-.25-.14l.07,0a.9.9,0,0,1,.73.11,2.18,2.18,0,0,0,1.69.11l.13,0,.09,0a.6.6,0,0,1,.34,0h.17s0,0,0,0-.05-.08-.18-.09-.33,0-.43,0-.43-.22-.62-.34a2.11,2.11,0,0,0-1.57-.09,1,1,0,0,0-.21.1,3.29,3.29,0,0,0,.9-.05.59.59,0,0,1,.38,0c.06.06,0,.11-.07.16l0,0a.61.61,0,0,1-.3,0,8.81,8.81,0,0,0-1.15,0c-.22,0-.41.18-.62,0s0-.08,0-.1l.15,0L26,6,26,6a1,1,0,0,0-.57,0,.51.51,0,0,0-.27.24c0,.05,0,.11-.12.13a.3.3,0,0,1-.15,0c-.22,0-.19-.1-.22-.17s0-.12-.14-.12h-.09c-.06,0-.05.08-.08.11s-.09.29-.36.39l-.11,0c-.11,0-.22.1-.35,0s0-.1.08-.14l0,0,.11,0,.1,0c.07,0,.12-.06.08-.1s-.39,0-.59-.07h-.09c-.22,0-.45-.13-.63-.06l-.07,0c-.16.13.27.16.42.24s.41.14.17.24l0,0a1,1,0,0,1-.58-.05,2,2,0,0,0-1-.15c-.23,0-.4,0-.49-.08a.24.24,0,0,0-.25,0l-.06,0-.14.07a1.68,1.68,0,0,1-.58.07,2.82,2.82,0,0,0-.93,0,.55.55,0,0,0-.15.08h0c-.34.09-.73.16-1,.26" fill="#f7f7f7"/>
              <path d="M19.11,11.83c-.1,0-.17.09-.17.16l0,.1s-.12.1,0,.11a.2.2,0,0,0,.11,0,.08.08,0,0,0,.05-.08.09.09,0,0,1,.06-.06.85.85,0,0,1,.25,0,3.41,3.41,0,0,1,.58.07.5.5,0,0,0,.27,0l0,0c.07,0,0-.08-.07-.12L20,11.89a.86.86,0,0,0-.61-.13,1.91,1.91,0,0,0-.3.07" fill="#f7f7f7"/>
              <path d="M29,6.69l0,0c-.2.1-.21.24-.32.36l.1.06.18,0a1.08,1.08,0,0,1,.36-.26c.07,0,.08-.08,0-.13a.57.57,0,0,0-.29,0" fill="#f7f7f7"/>
              <path d="M21.66,11.89s-.15,0-.07.08a.8.8,0,0,0,.46,0h0c.06,0,0-.07,0-.09a.69.69,0,0,0-.4,0" fill="#f7f7f7"/>
              <path d="M16.51,8.13c-.1,0-.11.08-.05.13a.39.39,0,0,0,.26,0l.05,0c.08,0,.11-.07,0-.12a.56.56,0,0,0-.29,0h0" fill="#f7f7f7"/>
              <path d="M22.36,11c-.09,0-.12.09-.06.14a.28.28,0,0,0,.22,0h0c.1,0,.14-.09.08-.14a.3.3,0,0,0-.25,0" fill="#f7f7f7"/>
              <path d="M21.79,6.21c-.06,0,0,.06,0,.09a.37.37,0,0,0,.31,0h0c.06,0,.09,0,0-.09a.78.78,0,0,0-.34,0h0" fill="#f7f7f7"/>
              <path d="M20.75,12l-.13.07a.84.84,0,0,0,.47,0L21,12a.56.56,0,0,0-.29,0" fill="#f7f7f7"/>
              <path d="M27.5,9.94l0,.07a.43.43,0,0,0,.25,0l0-.07a.33.33,0,0,0-.24,0" fill="#f7f7f7"/>
              <path d="M28.54,11.06l-.05.09a.21.21,0,0,0,.19,0l0-.08-.17,0" fill="#f7f7f7"/>
              <path d="M17.8,6.57c-.05,0-.1.07,0,.09l.18,0c.06,0,.1,0,0-.08l-.21,0" fill="#f7f7f7"/>
              <path d="M15.11,10.81h0v.07a.23.23,0,0,0,.19,0c.06,0,0-.05,0-.08a.25.25,0,0,0-.17,0" fill="#f7f7f7"/>
              <path d="M24.19,11V11a.3.3,0,0,0,.19,0V11a.29.29,0,0,0-.19,0" fill="#f7f7f7"/>
              <polyline points="27.78 11.38 27.77 11.45 27.93 11.47 27.94 11.4 27.78 11.38" fill="#f7f7f7"/>
            </g>
          </g>
        </g>
      </g>
      <g>
        <polygon points="48.75 10.53 48.59 40.82 24.04 49.76 24.2 19.46 48.75 10.53" fill="#e87539"/>
        <g style="isolation: isolate">
          <g clip-path="url(#clip-path-3)">
            <g>
              <path d="M36,34.72l-.06-.11.09-.13.06.1-.09.14m.8-.35c-.07,0-.1,0-.09-.11l.13-.15.08.1-.12.16m.88-2.81c-.08,0-.12,0-.12-.12l.09-.13c.08,0,.12,0,.13.12l-.1.13m-5.48,1.8h0c-.12,0-.27,0-.27-.15s.1-.11.14-.15.23,0,.25.1a.2.2,0,0,1-.09.2m2.39-1c-.07,0-.08-.06-.08-.13l.08-.14c.07,0,.08,0,.08.11l-.08.16m-3.06.77c-.15.05-.21,0-.25-.2l.17-.1c.07,0,.12,0,.15.11l-.07.19m1.91-1.33c-.07,0-.12,0-.1-.13a.34.34,0,0,1,.2-.26c.08,0,.14,0,.13.12a.37.37,0,0,1-.22.26h0m-3.23.84s-.05,0-.07,0,.08-.17.14-.25l.13-.19a.56.56,0,0,1,.3-.28.49.49,0,0,1,.24,0c.22,0,.19.29.19.51v.27a.34.34,0,0,1-.11.28h0c-.08,0-.11-.05-.14-.12a.74.74,0,0,0-.24-.38c-.06,0-.11-.07-.17,0a.26.26,0,0,0-.1.09.56.56,0,0,1-.13.16M42,25.86l-.15,0v-.16a3.83,3.83,0,0,1,.63-.64l0,0c.08,0,.14,0,.15.12a.31.31,0,0,1-.16.27,2.13,2.13,0,0,0-.52.4M29.69,28.41c-.07,0-.08-.05-.07-.13l.08-.14h0c.06,0,.07,0,.07.11a.18.18,0,0,1-.1.17m4-2.45a1.22,1.22,0,0,0,.32-.29c.69-.72,1.36-1.47,2-2.2a1,1,0,0,1,.39-.29.3.3,0,0,1,.23,0c.41.16.83.26,1.22.45a.82.82,0,0,1,.28.05c.74.3,1.5.53,2.24.8s.7,0,.7,1.23v.51c0,.25,0,.36-.09.39a.67.67,0,0,1-.24,0c-1.14-.39-2.27-.82-3.42-1.17a2.08,2.08,0,0,0-.43-.19.67.67,0,0,0-.52,0,.83.83,0,0,0-.23.14A10.33,10.33,0,0,0,34.66,27c-.06.89,0,1.75,0,2.62,0,.22.08.31.21.26a.52.52,0,0,0,.2-.13,10.39,10.39,0,0,0,.91-1,1.06,1.06,0,0,1,.43-.32.69.69,0,0,1,.47,0,13.9,13.9,0,0,0,2.24.8c.56.18,1.12.39,1.67.59.24.07.35.25.33.6s0,.8,0,1.2a1.2,1.2,0,0,1-.35.89c-1.3,1.41-2.63,2.78-3.91,4.21a1.25,1.25,0,0,1-.46.34.7.7,0,0,1-.53,0,16,16,0,0,0-1.92-.64c-.21-.08-.43-.15-.63-.24a6.51,6.51,0,0,1-1.52-.63c-.18,0-.23-.2-.23-.44,0-.47,0-1,0-1.41a.49.49,0,0,0-.05-.25.66.66,0,0,1,.29.24c.81.27,1.62.55,2.42.85a.92.92,0,0,1,.63.21,2.18,2.18,0,0,1,.75.32,1.06,1.06,0,0,1,.4.08.47.47,0,0,0,.35,0,.85.85,0,0,0,.31-.21A16.29,16.29,0,0,0,38,33.55a.73.73,0,0,0,.21-.45,15.73,15.73,0,0,0,0-2.38c0-.2-.09-.3-.23-.25l-.12.07a10.15,10.15,0,0,0-1.13,1.14.8.8,0,0,1-.33.23.4.4,0,0,1-.32,0c-.24-.11-.49-.17-.74-.26-.48-.19-1-.31-1.49-.49A17.68,17.68,0,0,0,32,30.47a.55.55,0,0,1-.34-.6V28.68a1.13,1.13,0,0,1,.35-.85c.43-.45.87-.91,1.3-1.39a.63.63,0,0,0,.23-.5.25.25,0,0,0,.17,0m5.48-4.52h0c-.1,0-.17,0-.16-.14s0-.17.11-.19h0a.16.16,0,0,1,.18.15.17.17,0,0,1-.12.18m-5.37,2h0c-.08,0-.14,0-.13-.13A.29.29,0,0,1,33.8,23h0c.08,0,.14,0,.14.14a.29.29,0,0,1-.17.24m.89-1a2.5,2.5,0,0,0,.53-.38l.12-.13a1.32,1.32,0,0,1,.76-.81A3.66,3.66,0,0,1,37,21h0a.58.58,0,0,1,.18-.11c.25-.09.39.15.57.28a.37.37,0,0,0,.4.09.65.65,0,0,0,.16-.09l.07,0c.09,0,.14,0,.09.19s0,.33.18.36.28.43.33.71.07.4.27.33h0c.25-.12.18-.37.2-.58s-.17-.48.07-.68l.09-.05c.18-.07.13.33.26.38l.05.05c.09.13.31.13.24.38a.27.27,0,0,1-.17.19l-.09,0-.1,0,0,0c-.11,0-.24.1-.23.27s.15.08.25.06l.1,0c.27-.1.45-.43.67-.67.06-.06.12-.17.18-.19a.06.06,0,0,1,.07,0c.09.07,0,.2-.08.31s-.19.33-.08.44a.1.1,0,0,0,.1,0c.08,0,.15-.15.23-.24a1.51,1.51,0,0,1,.45-.4c.14-.05.22,0,.29.27a.21.21,0,0,1-.08.06h-.14a.27.27,0,0,0-.13,0c-.06,0-.11.07-.12.2-.07.39.28.06.38.17s.49.21.63.49c0,.07,0,.17.15.14a.05.05,0,0,1,0,0,.55.55,0,0,0,.23-.32c0-.18-.06-.21-.16-.24s-.44,0-.55-.25a.89.89,0,0,1,.23-.13c.48-.17.83.18.75.83,0,.33,0,.63-.07,1s.11.19.19.26.07.15,0,.25a.22.22,0,0,1-.07.07.08.08,0,0,1-.1-.06.16.16,0,0,0-.22-.09l-.1.05-.13.06c-.54.19-.88-.18-.8-.91,0-.18.05-.37,0-.47a.2.2,0,0,0-.21-.07.26.26,0,0,0-.1.07.33.33,0,0,0,0,.39c0,.09.2.09.12.27a.33.33,0,0,1-.16.15h-.06c-.17,0-.16-.18-.16-.33v-.16c0-.16,0-.3-.17-.27h0c-.1,0-.15.16-.19.29s-.07.24-.15.27a.1.1,0,0,1-.09,0c-.15-.07,0-.21,0-.34l.05-.2-.15,0h0c-.14.05-.24.2-.36.31a.27.27,0,0,1-.1.06.08.08,0,0,1-.09,0c-.05-.08,0-.16.06-.24s.28-.28.15-.42a.13.13,0,0,0-.13,0,1.26,1.26,0,0,0-.28.25.65.65,0,0,1-.23.15.42.42,0,0,1-.58-.27.52.52,0,0,0-.72-.41h0c-.06,0-.13.1-.19.12s-.07,0-.09-.05.09-.32.18-.45l.19-.17c.12-.06.24-.12.24-.31s0-.22-.15-.21l-.13,0a.3.3,0,0,0-.18.2c-.12.42-.48.47-.66.8l-.15,0,.06-.21.12-.12c.11-.14.16-.28.06-.39a.13.13,0,0,0-.13,0,.42.42,0,0,0-.17.16,1.27,1.27,0,0,1-.56.52.52.52,0,0,1-.52-.11.13.13,0,0,0-.13,0,.16.16,0,0,0-.09.08c-.08.12-.07.22,0,.29l.14.08a.17.17,0,0,1,0,.24.15.15,0,0,1-.09.1.25.25,0,0,1-.12,0c-.09,0-.17-.11-.27-.1l-.09,0c-.09,0-.16.11-.09.29s0,.35-.15.4l-.1,0a.58.58,0,0,0-.14,0,1.12,1.12,0,0,0-.58.71A.42.42,0,0,1,34,25a.13.13,0,0,1-.14,0,.15.15,0,0,0-.14,0,.18.18,0,0,0-.08.05.27.27,0,0,1-.13.1c-.08,0-.14,0-.2-.14a.19.19,0,0,0-.27-.1l-.22.11c-.19.13-.43.24-.51.56-.05.15-.11.38,0,.41a.58.58,0,0,0,.23,0,.54.54,0,0,0,.28-.28.5.5,0,0,1,.25-.28.21.21,0,0,1,.2,0c.14.1.38.16.17.56-.09-.09-.15-.21-.28-.21l-.12,0c-.09,0-.14.11-.1.27s0,.24-.07.27H32.8a.52.52,0,0,0-.25,0,1,1,0,0,0-.43.34A.55.55,0,0,0,32,27c0,.16,0,.37-.16.44h0a.24.24,0,0,1-.32-.22c0-.13,0-.26-.14-.22l-.05,0a.38.38,0,0,0-.14.39c.06.49,0,1,.05,1.51a7.35,7.35,0,0,1-.07,1.47c0,.36.07.57.37.49.46-.11.55.38.74.67.08.12.13.21.22.18a.51.51,0,0,0,.19-.2c.06-.08.14-.19.22-.21a.11.11,0,0,1,.14.05c.11.15-.05.27-.16.4s-.14.36,0,.4a1.94,1.94,0,0,0,.64.07h.08a.65.65,0,0,0,.29-.3.47.47,0,0,1,.18-.24s.07,0,.12.06a.41.41,0,0,1-.06.54c-.15.18-.33.33-.49.5l-.09.2.13.06a1,1,0,0,1,.37-.22,1.53,1.53,0,0,1,.26-.08,1.29,1.29,0,0,0,.28-.08.89.89,0,0,0,.52-.44c.1.1,0,.23,0,.33s0,.28.14.24a.38.38,0,0,0,.14-.11,1,1,0,0,1,.36-.3c.13-.05.25,0,.36.19s.16.07.26,0l.12,0h0c.18-.06.26,0,.26.23a.43.43,0,0,1-.27.46h0q-.3.11-.6.24a.32.32,0,0,0-.19.27c0,.13.07.22.14.19h0l.17-.07.23-.08.21-.07A1.1,1.1,0,0,0,37,33.3c.36-.46.32-1-.08-1.13l-.08-.09.08-.16a.72.72,0,0,1,.22-.15c.23-.08.43.05.42.36s.15.78-.21,1.22a2.54,2.54,0,0,1-1,.84,1.06,1.06,0,0,1-.66,0c-.23-.07-.51,0-.63-.34l-.16-.08a1.1,1.1,0,0,1-.8-.06c-.31-.14-.19-.27,0-.57-.23.1-.44.12-.62.39a.31.31,0,0,1-.15.14c-.09,0-.16,0-.17-.13a.42.42,0,0,0-.28-.44L32.75,33c0-.52-.34-.53-.5-.82,0-.08-.07-.09-.11-.08s-.12.13-.17.23-.07.28-.18.32h-.06c-.12,0-.12-.19-.14-.32s0-.23,0-.34,0-.36-.25-.35-.17,0-.19-.09c-.07-.33-.26-.34-.51-.25l0,0c-.3.12-.4.46-.56.73l0,.18c0,.08-.06.16-.12.18H29.8c-.09,0-.14-.1-.05-.25a2.86,2.86,0,0,0,.24-1.6c0-.08,0-.2,0-.18l-.09.06a.27.27,0,0,1-.13.1c-.11,0-.13-.11-.13-.26,0-.37,0-.75,0-1.12,0-.1,0-.24.07-.33l0,0c.08,0,.1.11.16.16L30,29c0-.42.12-.86-.12-1.13a.4.4,0,0,1,0-.44,2.59,2.59,0,0,1,.68-.94c.27-.19.46-.59.76-.79.07.13-.06.25-.09.38s-.07.24,0,.3a.12.12,0,0,0,.13,0l.11-.06a.33.33,0,0,0,.14-.31c-.08-.38.13-.47.37-.66a3.61,3.61,0,0,0,1.1-1.47c0-.09.05-.22.13-.25h0c.12,0,.12.14.11.28a5.46,5.46,0,0,0,0,.57c0,.19.09.25.24.2h0a.39.39,0,0,0,.21-.35,2.88,2.88,0,0,1,.16-.75c.06-.19.13-.31.2-.33s.14,0,.22.11.14.15.24.11a.27.27,0,0,0,.1-.06.43.43,0,0,0,.21-.32c0-.15-.06-.22-.17-.23a1.75,1.75,0,0,1-.33,0c-.08,0-.21,0-.18-.19a.23.23,0,0,1,.17-.2.15.15,0,0,1,.09,0,.7.7,0,0,0,.14,0m1.78-1.94-.14,0a.2.2,0,0,1,.12-.2l.13.06a.17.17,0,0,1-.11.16m0-.57a.47.47,0,0,0-.18.12,6.49,6.49,0,0,0-1.15,1.38l-.17.21c-1.53,1.64-3.07,3.28-4.6,4.93a4.06,4.06,0,0,0-.82,1c-.13,1.57-.16,3.11-.19,4.66a.75.75,0,0,0,.5.84,5.64,5.64,0,0,0,1.07.29c.13,0,.28.06.41.09a.58.58,0,0,0-.19.13c-.07.06-.14.15-.21.21-.35.34-.65.77-1,1.07A1.44,1.44,0,0,0,29.33,36c0,.41,0,.83,0,1.24,0,.56.15,1,.6,1a4.14,4.14,0,0,0,.82.33c1.13.41,2.28.76,3.4,1.2a.36.36,0,0,1,.37.14.68.68,0,0,0,.45.23,3.07,3.07,0,0,1,1,.23.67.67,0,0,0,.42,0,1.09,1.09,0,0,0,.4-.29c2.09-2.21,4.16-4.47,6.24-6.69a1.08,1.08,0,0,0,.37-.84c0-1.14.09-2.27.08-3.38a3.3,3.3,0,0,1,0-.94.8.8,0,0,0-.56-.95c-.3-.1-.58-.23-.89-.32s-.29-.19,0-.51.68-.77,1-1.13a1,1,0,0,0,.35-.58,12.76,12.76,0,0,0-.06-2.48c-.2-.23-.51-.24-.77-.34-.85-.34-1.75-.59-2.6-.94a11.11,11.11,0,0,1-1.11-.37c-.65-.21-1.28-.48-1.94-.68a.72.72,0,0,0-.46-.05" fill="#f7f7f7"/>
              <path d="M36.09,21.09a1.32,1.32,0,0,0-.76.81l-.12.13a2.5,2.5,0,0,1-.53.38.7.7,0,0,1-.14,0,.15.15,0,0,0-.09,0,.23.23,0,0,0-.17.2c0,.17.1.17.18.19a1.75,1.75,0,0,0,.33,0c.11,0,.17.08.17.23a.43.43,0,0,1-.21.32.27.27,0,0,1-.1.06c-.1,0-.16,0-.24-.11s-.15-.14-.22-.11-.14.14-.2.33a2.88,2.88,0,0,0-.16.75.39.39,0,0,1-.21.35h0c-.15.05-.25,0-.24-.2a5.46,5.46,0,0,1,0-.57c0-.14,0-.27-.11-.28h0c-.08,0-.1.16-.13.25A3.61,3.61,0,0,1,32,25.39c-.24.19-.45.28-.37.66a.33.33,0,0,1-.14.31l-.11.06a.12.12,0,0,1-.13,0c-.09-.06,0-.19,0-.3s.16-.25.09-.38c-.3.2-.49.6-.76.79a2.59,2.59,0,0,0-.68.94.4.4,0,0,0,0,.44c.24.27.11.71.12,1.13l-.13,0c-.06,0-.08-.19-.16-.16l0,0c-.1.09-.07.23-.07.33,0,.37,0,.75,0,1.12,0,.15,0,.3.13.26a.27.27,0,0,0,.13-.1l.09-.06c.07,0,0,.1,0,.18a2.86,2.86,0,0,1-.24,1.6c-.09.15,0,.23.05.25h.07c.06,0,.09-.1.12-.18l0-.18c.16-.27.26-.61.56-.73l0,0c.25-.09.44-.08.51.25,0,.09.11.09.19.09s.25.14.25.35,0,.23,0,.34,0,.31.14.32h.06c.11,0,.12-.21.18-.32s.11-.21.17-.23.08,0,.11.08c.16.29.55.3.5.82l.06.11a.42.42,0,0,1,.28.44c0,.11.08.16.17.13a.31.31,0,0,0,.15-.14c.18-.27.39-.29.62-.39-.15.3-.27.43,0,.57a1.1,1.1,0,0,0,.8.06l.16.08c.12.3.4.27.63.34a1.06,1.06,0,0,0,.66,0,2.54,2.54,0,0,0,1-.84c.36-.44.2-.83.21-1.22s-.19-.44-.42-.36a.72.72,0,0,0-.22.15l-.08.16.08.09c.4.1.44.67.08,1.13a1.1,1.1,0,0,1-.57.42l-.21.07-.23.08-.17.07h0c-.07,0-.15-.06-.14-.19a.32.32,0,0,1,.19-.27q.3-.14.6-.24h0a.43.43,0,0,0,.27-.46c0-.22-.08-.29-.26-.23h0l-.12,0c-.1,0-.2,0-.26,0s-.23-.24-.36-.19a1,1,0,0,0-.36.3.38.38,0,0,1-.14.11c-.09,0-.13-.07-.14-.24s.11-.23,0-.33a.89.89,0,0,1-.52.44,1.29,1.29,0,0,1-.28.08,1.53,1.53,0,0,0-.26.08,1,1,0,0,0-.37.22L33.51,33l.09-.2c.16-.17.34-.32.49-.5a.41.41,0,0,0,.06-.54c0-.06-.09-.07-.12-.06a.47.47,0,0,0-.18.24.65.65,0,0,1-.29.3h-.08a1.94,1.94,0,0,1-.64-.07c-.15,0-.18-.2,0-.4s.27-.25.16-.4a.11.11,0,0,0-.14-.05c-.08,0-.16.13-.22.21a.51.51,0,0,1-.19.2c-.09,0-.14-.06-.22-.18-.19-.29-.28-.78-.74-.67-.3.08-.4-.13-.37-.49a7.35,7.35,0,0,0,.07-1.47c-.06-.49,0-1-.05-1.51a.38.38,0,0,1,.14-.39l.05,0c.12,0,.12.09.14.22a.24.24,0,0,0,.32.22h0c.19-.07.14-.28.16-.44a.55.55,0,0,1,.16-.31,1,1,0,0,1,.43-.34.52.52,0,0,1,.25,0h.13c.07,0,.11-.1.07-.27s0-.24.1-.27l.12,0c.13,0,.19.12.28.21.21-.4,0-.46-.17-.56a.21.21,0,0,0-.2,0,.5.5,0,0,0-.25.28.54.54,0,0,1-.28.28.58.58,0,0,1-.23,0c-.14,0-.08-.26,0-.41.08-.32.32-.43.51-.56l.22-.11a.19.19,0,0,1,.27.1c.06.11.12.17.2.14a.27.27,0,0,0,.13-.1.18.18,0,0,1,.08-.05.15.15,0,0,1,.14,0A.13.13,0,0,0,34,25a.42.42,0,0,0,.19-.26A1.12,1.12,0,0,1,34.8,24a.58.58,0,0,1,.14,0l.1,0c.14,0,.23-.18.15-.4s0-.25.09-.29l.09,0c.1,0,.18.06.27.1a.25.25,0,0,0,.12,0,.15.15,0,0,0,.09-.1.17.17,0,0,0,0-.24L35.67,23c-.08-.07-.09-.17,0-.29a.16.16,0,0,1,.09-.08.13.13,0,0,1,.13,0,.52.52,0,0,0,.52.11,1.27,1.27,0,0,0,.56-.52.42.42,0,0,1,.17-.16.13.13,0,0,1,.13,0c.1.11.05.25-.06.39l-.12.12-.06.21.15,0c.18-.33.54-.38.66-.8a.3.3,0,0,1,.18-.2l.13,0c.11,0,.15.08.15.21s-.12.25-.24.31l-.19.17c-.09.13-.22.3-.18.45s0,.07.09.05.13-.1.19-.12h0a.52.52,0,0,1,.72.41.42.42,0,0,0,.58.27.65.65,0,0,0,.23-.15,1.26,1.26,0,0,1,.28-.25.13.13,0,0,1,.13,0c.13.14-.06.29-.15.42s-.11.16-.06.24a.08.08,0,0,0,.09,0,.27.27,0,0,0,.1-.06c.12-.11.22-.26.36-.31h0l.15,0-.05.2c-.1.13-.2.27,0,.34a.1.1,0,0,0,.09,0c.08,0,.11-.16.15-.27s.09-.25.19-.29h0c.14,0,.16.11.17.27v.16c0,.15,0,.34.16.33h.06a.33.33,0,0,0,.16-.15c.08-.18-.08-.18-.12-.27a.33.33,0,0,1,0-.39.26.26,0,0,1,.1-.07.2.2,0,0,1,.21.07c.1.1.07.29,0,.47-.08.73.26,1.1.8.91l.13-.06.1-.05a.16.16,0,0,1,.22.09.08.08,0,0,0,.1.06.22.22,0,0,0,.07-.07c.08-.1.07-.2,0-.25s-.23-.07-.19-.26,0-.64.07-1c.08-.65-.27-1-.75-.83a.89.89,0,0,0-.23.13c.11.26.37.18.55.25s.2.06.16.24a.55.55,0,0,1-.23.32.05.05,0,0,0,0,0c-.1,0-.12-.07-.15-.14-.14-.28-.43-.31-.63-.49s-.45.22-.38-.17c0-.13.06-.18.12-.2a.27.27,0,0,1,.13,0h.14a.21.21,0,0,0,.08-.06c-.07-.23-.15-.32-.29-.27a1.51,1.51,0,0,0-.45.4c-.08.09-.15.21-.23.24a.1.1,0,0,1-.1,0c-.11-.11,0-.29.08-.44s.17-.24.08-.31a.06.06,0,0,0-.07,0c-.06,0-.12.13-.18.19-.22.24-.4.57-.67.67l-.1,0c-.1,0-.24.11-.25-.06s.12-.22.23-.27l0,0,.1,0,.09,0a.27.27,0,0,0,.17-.19c.07-.25-.15-.25-.24-.38l-.05-.05c-.13,0-.08-.45-.26-.38l-.09.05c-.24.2,0,.44-.07.68s.05.46-.2.58h0c-.2.07-.22-.14-.27-.33s0-.67-.33-.71-.29-.06-.18-.36,0-.22-.09-.19l-.07,0a.65.65,0,0,1-.16.09.37.37,0,0,1-.4-.09c-.18-.13-.32-.37-.57-.28A.58.58,0,0,0,37,21h0a3.66,3.66,0,0,0-.87.13" fill="#f7f7f7"/>
              <path d="M30.67,31.9a.56.56,0,0,0-.3.28l-.13.19c-.06.08-.19.16-.14.25s0,.05.07,0a.56.56,0,0,0,.13-.16.26.26,0,0,1,.1-.09c.06,0,.11,0,.17,0a.74.74,0,0,1,.24.38c0,.07.06.15.14.12h0a.34.34,0,0,0,.11-.28v-.27c0-.22,0-.49-.19-.51a.49.49,0,0,0-.24,0" fill="#f7f7f7"/>
              <path d="M42.48,25.07l0,0a3.83,3.83,0,0,0-.63.64v.16l.15,0a2.13,2.13,0,0,1,.52-.4.31.31,0,0,0,.16-.27c0-.1-.07-.15-.15-.12" fill="#f7f7f7"/>
              <path d="M32,33.06s-.16.06-.14.15.15.16.27.15h0a.2.2,0,0,0,.09-.2c0-.14-.13-.13-.25-.1" fill="#f7f7f7"/>
              <path d="M33.8,23a.29.29,0,0,0-.18.25c0,.11.05.14.13.13h0a.29.29,0,0,0,.17-.24c0-.11-.06-.15-.14-.14h0" fill="#f7f7f7"/>
              <path d="M33.5,31.43a.34.34,0,0,0-.2.26c0,.1,0,.15.1.13h0a.37.37,0,0,0,.22-.26c0-.11-.05-.14-.13-.12" fill="#f7f7f7"/>
              <path d="M39.08,21.12c-.07,0-.1.11-.11.19s.06.17.16.14h0a.17.17,0,0,0,.12-.18.16.16,0,0,0-.18-.15h0" fill="#f7f7f7"/>
              <path d="M31.41,32.85l-.17.1c0,.15.1.25.25.2l.07-.19c0-.12-.08-.14-.15-.11" fill="#f7f7f7"/>
              <path d="M37.61,31.31l-.09.13c0,.1,0,.15.12.12l.1-.13c0-.1-.05-.14-.13-.12" fill="#f7f7f7"/>
              <path d="M36.8,34.11l-.13.15c0,.09,0,.14.09.11l.12-.16-.08-.1" fill="#f7f7f7"/>
              <path d="M36.44,20.25a.2.2,0,0,0-.12.2l.14,0a.17.17,0,0,0,.11-.16l-.13-.06" fill="#f7f7f7"/>
              <path d="M29.72,28.13h0l-.08.14c0,.08,0,.14.07.13a.18.18,0,0,0,.1-.17c0-.07,0-.13-.07-.11" fill="#f7f7f7"/>
              <path d="M34.55,32.11l-.08.14c0,.07,0,.14.08.13l.08-.16c0-.06,0-.13-.08-.11" fill="#f7f7f7"/>
              <polyline points="35.99 34.48 35.9 34.61 35.96 34.72 36.05 34.58 35.99 34.48" fill="#f7f7f7"/>
            </g>
          </g>
        </g>
      </g>
    </g>
  </g>
</svg>
