<svg id="Capa_1" data-name="Capa 1" xmlns="http://www.w3.org/2000/svg" xmlns:xlink="http://www.w3.org/1999/xlink" width="50" height="50" viewBox="0 0 50 50">
  <defs>
    <clipPath id="clip-path">
      <polygon points="24.05 49.76 1.26 39.47 1.42 9.17 24.2 19.46 24.05 49.76" fill="none"/>
    </clipPath>
    <clipPath id="clip-path-2">
      <polygon points="24.2 19.46 1.42 9.17 25.96 0.24 48.75 10.53 24.2 19.46" fill="none"/>
    </clipPath>
    <clipPath id="clip-path-3">
      <polygon points="48.75 10.53 48.59 40.82 24.05 49.76 24.2 19.46 48.75 10.53" fill="none"/>
    </clipPath>
  </defs>
  <g id="Figment_lido">
    <g style="isolation: isolate">
      <g>
        <polygon points="24.05 49.76 1.26 39.47 1.42 9.17 24.2 19.46 24.05 49.76" fill="#d6d6d6"/>
        <g style="isolation: isolate">
          <g clip-path="url(#clip-path)">
            <g>
              <path d="M6.53,23.71a.2.2,0,0,0-.24,0c-.5.43-1.1.72-1.26,1.66v.66a4.7,4.7,0,0,0,.47,1.49c1.82,3.35,3.62,6.71,5.43,10.06a2.69,2.69,0,0,0,1.13,1.16,1,1,0,0,0,1.16-.11l5.64-4.92A2.58,2.58,0,0,0,19.06,31c-.26-.61-.6-1.16-.91-1.73a.53.53,0,0,0-.11-.14.86.86,0,0,0-.17-.13.35.35,0,0,0-.39.1l-5,4.35a.34.34,0,0,1-.37.09.85.85,0,0,1-.35-.39c-.41-.68-.77-1.39-1.15-2.09q-1.89-3.48-3.76-7a.88.88,0,0,0-.34-.4" fill="#202020"/>
              <path d="M12.31,19.39a1.06,1.06,0,0,0-1.19.14c-1.12.95-2.22,1.93-3.33,2.9-.23.2-.23.51,0,.93L9.23,26a1,1,0,0,0,.36.43.32.32,0,0,0,.36-.1l1.88-1.64c.15-.13.28-.17.41-.11a1.06,1.06,0,0,1,.39.48l1.86,3.43a.76.76,0,0,0,.32.37.3.3,0,0,0,.33-.06l1.56-1.36a.39.39,0,0,0,.14-.36.88.88,0,0,0-.13-.51q-1.62-3-3.22-6a2.88,2.88,0,0,0-1.18-1.25" fill="#fe6521"/>
            </g>
          </g>
        </g>
      </g>
      <g>
        <polygon points="24.2 19.46 1.42 9.17 25.96 0.24 48.75 10.53 24.2 19.46" fill="#ebebeb"/>
        <g style="isolation: isolate">
          <g clip-path="url(#clip-path-2)">
            <g>
              <path d="M17.08,11c-.09,0-.14.08-.15.14-.06.42-.29.85.29,1.24l.48.22a5.9,5.9,0,0,0,1.47.22l11.55.27a4.84,4.84,0,0,0,1.71-.24c.46-.17.75-.4.79-.67.19-1.57.38-3.13.56-4.7.06-.47-.76-.9-1.88-1-.65-.06-1.31,0-2-.07l-.19,0a1,1,0,0,0-.22,0,.27.27,0,0,0-.21.25c-.16,1.38-.33,2.77-.51,4.15a.26.26,0,0,1-.21.23,1.52,1.52,0,0,1-.55.07c-.81,0-1.61,0-2.42,0l-8-.19a1.6,1.6,0,0,0-.55.06" fill="#202020"/>
              <path d="M18.2,6.44c-.46.17-.76.41-.8.7-.12.93-.23,1.85-.33,2.77,0,.2.2.3.68.31l3.08.07a1.56,1.56,0,0,0,.59-.06.25.25,0,0,0,.2-.23c.07-.52.13-1,.19-1.56A.31.31,0,0,1,22,8.18a2.11,2.11,0,0,1,.66-.07l3.94.1a1.76,1.76,0,0,0,.52-.06c.12-.05.18-.11.2-.2,0-.44.1-.87.16-1.3,0-.07,0-.14-.17-.2a1.2,1.2,0,0,0-.48-.09L20,6.2a5,5,0,0,0-1.8.24" fill="#fe6521"/>
            </g>
          </g>
        </g>
      </g>
      <g>
        <polygon points="48.75 10.53 48.59 40.82 24.05 49.76 24.2 19.46 48.75 10.53" fill="#f0f0f0"/>
        <g style="isolation: isolate">
          <g clip-path="url(#clip-path-3)">
            <g>
              <path d="M30.82,29.67a.57.57,0,0,0-.26.24,7.38,7.38,0,0,0-1.35,2.7v.65a2,2,0,0,0,.53,1c2,1.72,3.95,3.46,5.93,5.19a1.2,1.2,0,0,0,1.23.17,2.57,2.57,0,0,0,1.24-1.08l6-9.57a2.71,2.71,0,0,0,.2-2.84,7.82,7.82,0,0,0-1-.92.42.42,0,0,0-.12,0,.35.35,0,0,0-.18,0,1,1,0,0,0-.42.42Q40,29.88,37.33,34.11a.94.94,0,0,1-.4.4.43.43,0,0,1-.38-.08c-.44-.32-.84-.71-1.25-1.07-1.38-1.19-2.74-2.39-4.11-3.59a.39.39,0,0,0-.37-.1" fill="#202020"/>
              <path d="M37,20.58a2.77,2.77,0,0,0-1.28,1.14l-3.56,5.64c-.25.4-.24.69,0,.91l1.58,1.39a.37.37,0,0,0,.39.11.88.88,0,0,0,.4-.4l2-3.19c.16-.25.29-.4.43-.45a.41.41,0,0,1,.43.13l2,1.77a.32.32,0,0,0,.35.08.7.7,0,0,0,.35-.34c.56-.88,1.11-1.76,1.67-2.63a.86.86,0,0,0,.15-.49.4.4,0,0,0-.15-.37Q40,22.34,38.28,20.8A1.22,1.22,0,0,0,37,20.58" fill="#fe6521"/>
            </g>
          </g>
        </g>
      </g>
    </g>
  </g>
</svg>
