<svg id="Capa_1" data-name="Capa 1" xmlns="http://www.w3.org/2000/svg" xmlns:xlink="http://www.w3.org/1999/xlink" width="50" height="50" viewBox="0 0 50 50">
  <defs>
    <clipPath id="clip-path">
      <polygon points="24.04 49.77 1.25 39.48 1.41 9.17 24.2 19.46 24.04 49.77" fill="none"/>
    </clipPath>
    <clipPath id="clip-path-2">
      <polygon points="24.2 19.46 1.41 9.17 25.96 0.24 48.75 10.53 24.2 19.46" fill="none"/>
    </clipPath>
    <clipPath id="clip-path-3">
      <polygon points="48.75 10.53 48.59 40.83 24.04 49.77 24.2 19.46 48.75 10.53" fill="none"/>
    </clipPath>
  </defs>
  <g id="Figment_lido">
    <g style="isolation: isolate">
      <g>
        <polygon points="24.04 49.77 1.25 39.48 1.41 9.17 24.2 19.46 24.04 49.77" fill="#06162d"/>
        <g style="isolation: isolate">
          <g clip-path="url(#clip-path)">
            <g>
              <path d="M13.79,25.81c-1.58-.71-3.28-.5-3.89.65.37.61.74,1.24,1.1,1.86a3.32,3.32,0,0,1,2.92-.22,5.61,5.61,0,0,1,2.41,2.76c1.19,2.38,1.24,4.55.15,6.15a2,2,0,0,1-2,.91,3.21,3.21,0,0,1-.85-.26A6.19,6.19,0,0,1,11,34.91c-.4.31-.75.58-1.12.89a8.11,8.11,0,0,0,3.84,4.11,3.61,3.61,0,0,0,1.6.36c2.2-.05,3.61-2.15,3.55-5.47a11.61,11.61,0,0,0-3.94-8.3,5.23,5.23,0,0,0-1.11-.69" fill="#fff"/>
              <path d="M10.84,18.81A3.18,3.18,0,0,0,7,19.43c-2.23,2.45-1.63,7.18.62,10.62A7.6,7.6,0,0,0,10.77,33c1.59.72,3.09.46,3.82-.66L13.47,30.4a2.6,2.6,0,0,1-2.75.3,5.56,5.56,0,0,1-2.35-2.35c-1.32-2.27-1.47-5.24-.32-6.73a2.16,2.16,0,0,1,2.29-.76,2.72,2.72,0,0,1,.55.18,6.82,6.82,0,0,1,2.62,2.78l1.19-.92a8.9,8.9,0,0,0-3.86-4.09" fill="#fff"/>
            </g>
          </g>
        </g>
      </g>
      <g>
        <polygon points="24.2 19.46 1.41 9.17 25.96 0.24 48.75 10.53 24.2 19.46" fill="#061832"/>
        <g style="isolation: isolate">
          <g clip-path="url(#clip-path-2)">
            <g>
              <path d="M24.36,7.83c-1.75.64-2.92,1.65-2.53,2.38.74,0,1.5,0,2.24,0a3.77,3.77,0,0,1,2.09-1.69A10.32,10.32,0,0,1,30.1,8.1c2.69.13,4.35.82,4.7,2,.16.5-.15,1-.88,1.41a5.51,5.51,0,0,1-.85.39,11.82,11.82,0,0,1-4.1.56c-.08.32-.15.6-.22.91a15.12,15.12,0,0,0,6-.76,5.91,5.91,0,0,0,1.51-.77C38,10.56,37.49,9.09,35,8a17.37,17.37,0,0,0-9.24-.57,11.73,11.73,0,0,0-1.37.39" fill="#fff"/>
              <path d="M16.85,7.14c-1.64.6-2.55,1.46-2.51,2.34.1,2,4.09,3.29,8.4,3.19a14.7,14.7,0,0,0,4.61-.79c1.76-.65,2.73-1.57,2.46-2.34H27.53a2.77,2.77,0,0,1-1.9,1.62,10.62,10.62,0,0,1-3.58.52c-2.71,0-5-.92-5.26-2.06-.1-.57.36-1.08,1.2-1.52a4.87,4.87,0,0,1,.57-.24,12.78,12.78,0,0,1,4.1-.54c.08-.32.15-.63.23-1a16.57,16.57,0,0,0-6,.78" fill="#fff"/>
            </g>
          </g>
        </g>
      </g>
      <g>
        <polygon points="48.75 10.53 48.59 40.83 24.04 49.77 24.2 19.46 48.75 10.53" fill="#071833"/>
        <g style="isolation: isolate">
          <g clip-path="url(#clip-path-3)">
            <g>
              <path d="M38.08,25.91a8.09,8.09,0,0,0-4.36,4c.41.3.83.61,1.23.93a8.62,8.62,0,0,1,3.28-2.75,2.37,2.37,0,0,1,2.71.71c1.34,1.37,1.39,3.53.17,6.1a6.3,6.3,0,0,1-2.25,2.66,4.78,4.78,0,0,1-1,.48,2.88,2.88,0,0,1-3-.49c-.45.66-.84,1.23-1.26,1.87.67,1.07,2.44,1.52,4.31.84a6.45,6.45,0,0,0,1.8-1,11,11,0,0,0,4-8.63c-.07-3.06-1.91-5.15-4.42-5a4.53,4.53,0,0,0-1.25.27" fill="#fff"/>
              <path d="M34.77,21.37a8.73,8.73,0,0,0-4.31,4c-2.5,4.42-1.82,8.69.7,10.23a4,4,0,0,0,3.55.2,8,8,0,0,0,4.27-4l-1.26-.94a6.86,6.86,0,0,1-3.07,2.69A2.67,2.67,0,0,1,32,33.17c-1.47-1.15-1.64-4-.35-6.54a6.65,6.65,0,0,1,2.56-2.75,4.88,4.88,0,0,1,.62-.29,3,3,0,0,1,2.94.54l1.33-2a4.06,4.06,0,0,0-4.33-.8" fill="#fff"/>
            </g>
          </g>
        </g>
      </g>
    </g>
  </g>
</svg>
