<svg id="Capa_1" data-name="Capa 1" xmlns="http://www.w3.org/2000/svg" xmlns:xlink="http://www.w3.org/1999/xlink" width="50" height="50" viewBox="0 0 50 50">
  <defs>
    <clipPath id="clip-path">
      <polygon points="24.04 49.76 1.25 39.47 1.41 9.17 24.2 19.46 24.04 49.76" fill="none"/>
    </clipPath>
    <clipPath id="clip-path-2">
      <polygon points="24.2 19.46 1.41 9.17 25.96 0.24 48.74 10.53 24.2 19.46" fill="none"/>
    </clipPath>
    <clipPath id="clip-path-3">
      <polygon points="48.74 10.53 48.59 40.83 24.04 49.76 24.2 19.46 48.74 10.53" fill="none"/>
    </clipPath>
  </defs>
  <g id="Figment_lido">
    <g style="isolation: isolate">
      <g>
        <polygon points="24.04 49.76 1.25 39.47 1.41 9.17 24.2 19.46 24.04 49.76" fill="#014fc2"/>
        <g style="isolation: isolate">
          <g clip-path="url(#clip-path)">
            <path d="M13.22,20.2a6.28,6.28,0,0,0-1.33-.44c-3.64-.7-6.08,2.91-5.48,8.12C7,32.52,9.67,37,13,38.51a6.48,6.48,0,0,0,1.24.42c2.93.67,5.21-1.57,5.59-5.4,0-.25,0-.34-.2-.43l-1.27-.58-1.73-.82c-.15-.07-.22,0-.26.16-.4,2-1.79,2.72-3.27,2a3.61,3.61,0,0,1-.56-.32,7.21,7.21,0,0,1-2.66-6.64c.34-2,1.75-2.83,3.28-2.12a4.79,4.79,0,0,1,.56.33,6.93,6.93,0,0,1,2.68,4.74.41.41,0,0,0,.25.39l1.49.69,1.55.73c.14.06.21.06.17-.17s0-.48,0-.73c-.55-4.69-3.36-9.1-6.54-10.59" fill="#fff"/>
          </g>
        </g>
      </g>
      <g>
        <polygon points="24.2 19.46 1.41 9.17 25.96 0.24 48.74 10.53 24.2 19.46" fill="#0157d5"/>
        <g style="isolation: isolate">
          <g clip-path="url(#clip-path-2)">
            <path d="M19.07,7a9.62,9.62,0,0,0-1.29.57c-3.17,1.73-2.34,4.19,1.89,5.52a21.64,21.64,0,0,0,12.51-.15,11.29,11.29,0,0,0,1.21-.53c2.63-1.37,2.67-3.3.17-4.72a.46.46,0,0,0-.46,0l-1.35.5-1.87.68c-.15,0-.19.09-.07.18,1.16.85.67,1.83-.92,2.4a4.83,4.83,0,0,1-.64.2c-2.36.6-5.31.31-6.77-.67-1.2-.82-.78-1.84.86-2.43a5.52,5.52,0,0,1,.65-.2,10.63,10.63,0,0,1,5.4.06.68.68,0,0,0,.47,0l1.59-.58,1.67-.61c.14,0,.19-.09,0-.14s-.37-.14-.58-.2A21.65,21.65,0,0,0,19.07,7" fill="#fff"/>
          </g>
        </g>
      </g>
      <g>
        <polygon points="48.74 10.53 48.59 40.83 24.04 49.76 24.2 19.46 48.74 10.53" fill="#0158d9"/>
        <g style="isolation: isolate">
          <g clip-path="url(#clip-path-3)">
            <path d="M37.06,22.06a8,8,0,0,0-1.44.71,13.47,13.47,0,0,0-5.84,12.57c.62,4.07,3.6,6.1,7.16,4.81a7.75,7.75,0,0,0,1.34-.64c3.17-1.84,5.61-6,6-10,0-.26,0-.32-.22-.24l-1.38.5-1.88.68c-.16.06-.23.14-.27.37A6.29,6.29,0,0,1,37,35.57a3.29,3.29,0,0,1-.6.15c-2.07.31-3.35-1.52-2.93-4.22A6.24,6.24,0,0,1,37,26.66a2.69,2.69,0,0,1,.62-.16c1.56-.23,2.53.6,2.93,2.35,0,.19.11.23.27.17l1.61-.6,1.69-.6c.15-.06.22-.12.18-.32s0-.45-.07-.66c-.63-4.12-3.7-6-7.15-4.78" fill="#fff"/>
          </g>
        </g>
      </g>
    </g>
  </g>
</svg>
