<svg id="Capa_1" data-name="Capa 1" xmlns="http://www.w3.org/2000/svg" xmlns:xlink="http://www.w3.org/1999/xlink" width="50" height="50" viewBox="0 0 50 50">
  <defs>
    <clipPath id="clip-path">
      <polygon points="24.04 49.76 1.25 39.47 1.41 9.18 24.2 19.47 24.04 49.76" fill="none"/>
    </clipPath>
    <clipPath id="clip-path-2">
      <polygon points="24.2 19.47 1.41 9.18 25.96 0.24 48.75 10.53 24.2 19.47" fill="none"/>
    </clipPath>
    <clipPath id="clip-path-3">
      <polygon points="48.75 10.53 48.59 40.83 24.04 49.76 24.2 19.47 48.75 10.53" fill="none"/>
    </clipPath>
  </defs>
  <g id="Figment_lido">
    <g style="isolation: isolate">
      <g>
        <polygon points="24.04 49.76 1.25 39.47 1.41 9.18 24.2 19.47 24.04 49.76" fill="#003227"/>
        <g style="isolation: isolate">
          <g clip-path="url(#clip-path)">
            <path d="M10.33,35.32c-.21-.1-.26-.24-.26-.5,0-.81,0-1.63,0-2.45s0-1.59,0-2.4c0-.29.05-.39.28-.28l1.34.6,1.19.53q.3.12.6.27a3.93,3.93,0,0,1,2,2.73c.46,2.12-.49,3.5-2,2.88l-1.12-.47-.78-.36-1.26-.55m0-8.06c-.19-.08-.25-.21-.25-.45,0-.75,0-1.5,0-2.26s0-1.47,0-2.2c0-.29.06-.39.3-.29.46.22.91.42,1.37.62l1.37.61a4,4,0,0,1,2,4.08,1.32,1.32,0,0,1-1.94,1.15l-.82-.35-.82-.37-1.22-.54m-.33-8L6.53,17.7l-.31-.1c0,.69,0,1.35,0,2a.56.56,0,0,0,.29.57,4.5,4.5,0,0,1,1.79,3.45c0,1.31-.61,2.23-1.55,2.16-.16,0-.33-.06-.52-.09,0,.62,0,1.21,0,1.79a.49.49,0,0,0,.26.51,4.4,4.4,0,0,1,1.81,3.5c0,1.36-.67,2.25-1.66,2.1l-.39-.06v2.59l.2.12,5,2.22,2.5,1.11a4,4,0,0,0,2,.32c1.38-.13,2.32-1.45,2.35-3.32A7.75,7.75,0,0,0,16.09,31l-.15-.2.14-.07c2.07-.56,2.2-4.39.54-7.07a7,7,0,0,0-3.14-2.83Q11.74,20,10,19.24" fill="#02fd9e"/>
          </g>
        </g>
      </g>
      <g>
        <polygon points="24.2 19.47 1.41 9.18 25.96 0.24 48.75 10.53 24.2 19.47" fill="#00362b"/>
        <g style="isolation: isolate">
          <g clip-path="url(#clip-path-2)">
            <path d="M28.16,12.88a.71.71,0,0,1-.59,0c-.61-.29-1.25-.57-1.88-.85s-1.21-.56-1.83-.83c-.23-.1-.26-.17,0-.26l1.55-.56,1.36-.5.7-.25a7.09,7.09,0,0,1,3.71-.19c2,.47,2.28,1.49.59,2.13L30.51,12l-.9.32-1.45.53M22,10.1a.66.66,0,0,1-.55,0L19.7,9.3,18,8.54c-.22-.1-.25-.17,0-.27l1.58-.56,1.58-.58A6,6,0,0,1,26,7.39c.68.46.43,1.08-.69,1.5l-.93.35-.94.34L22,10.1M15.56,7.51,11.57,9l-.33.14,1.53.7a.79.79,0,0,0,.66,0,7.14,7.14,0,0,1,4.09.17c1,.43,1.23,1.12.41,1.64l-.49.26c.47.21.93.41,1.37.63a.75.75,0,0,0,.59,0,7,7,0,0,1,4.15.17c1.08.46,1.19,1.16.27,1.68l-.36.2,2,.9.26-.08,5.75-2.09,2.88-1.05a6.21,6.21,0,0,0,1.84-1c1-.83.77-1.83-.65-2.49a10.78,10.78,0,0,0-6-.7h-.28l.06-.1c1.26-1.38-1.57-2.78-5-2.76a14.08,14.08,0,0,0-4.71.82l-4,1.45" fill="#02fd9e"/>
          </g>
        </g>
      </g>
      <g>
        <polygon points="48.75 10.53 48.59 40.83 24.04 49.76 24.2 19.47 48.75 10.53" fill="#00382c"/>
        <g style="isolation: isolate">
          <g clip-path="url(#clip-path-3)">
            <path d="M35.05,37.13c-.23.09-.28,0-.28-.27,0-.8,0-1.6,0-2.4s0-1.57,0-2.36c0-.28.06-.42.31-.51l1.45-.52,1.29-.48.65-.23a1.54,1.54,0,0,1,2.15,1,4,4,0,0,1-2.18,4.48c-.4.16-.81.32-1.21.46l-.84.3-1.37.5m0-7.9c-.2.08-.27,0-.27-.23,0-.75,0-1.47,0-2.22s0-1.44,0-2.16c0-.29.06-.43.32-.52l1.48-.53L38.13,23c1.49-.52,2.44.53,2.16,2.32a3.58,3.58,0,0,1-2.11,2.74l-.88.34-.89.32-1.33.48m-.32-7.59L31,23a3.4,3.4,0,0,0-.34.16c0,.68,0,1.32,0,2,0,.3.07.36.31.31,1.08-.2,1.87.6,1.92,1.91a4.26,4.26,0,0,1-1.69,3.4c-.18.13-.36.22-.56.34,0,.61,0,1.18,0,1.77,0,.26.06.32.28.28,1.1-.24,1.91.58,1.95,1.93A4.16,4.16,0,0,1,31,38.52l-.42.27,0,2.54.23,0,5.41-2,2.71-1A7.1,7.1,0,0,0,41.06,37a7.41,7.41,0,0,0,2.56-5.21c.05-2.14-.73-3.4-2.31-3.7L41.15,28l.16-.19c2.25-2.27,2.41-6.13.61-7.39a3.63,3.63,0,0,0-3.39-.17l-3.77,1.36" fill="#02fd9e"/>
          </g>
        </g>
      </g>
    </g>
  </g>
</svg>
