<svg id="Capa_1" data-name="Capa 1" xmlns="http://www.w3.org/2000/svg" xmlns:xlink="http://www.w3.org/1999/xlink" width="50" height="50" viewBox="0 0 50 50">
  <defs>
    <clipPath id="clip-path">
      <polygon points="24.04 49.76 1.25 39.47 1.41 9.17 24.2 19.46 24.04 49.76" fill="none"/>
    </clipPath>
    <clipPath id="clip-path-2">
      <polygon points="24.2 19.46 1.41 9.17 25.96 0.24 48.75 10.53 24.2 19.46" fill="none"/>
    </clipPath>
    <clipPath id="clip-path-3">
      <polygon points="48.75 10.53 48.59 40.82 24.04 49.76 24.2 19.46 48.75 10.53" fill="none"/>
    </clipPath>
  </defs>
  <g id="Figment_lido">
    <g style="isolation: isolate">
      <g>
        <polygon points="24.04 49.76 1.25 39.47 1.41 9.17 24.2 19.46 24.04 49.76" fill="#d6d3cb"/>
        <g style="isolation: isolate">
          <g clip-path="url(#clip-path)">
            <path d="M12.77,36.31c-3-1.35-5.36-5.86-5.12-9.88.2-3.4,2.29-5.27,4.85-4.34l.36.14A7.94,7.94,0,0,1,16,25.18a.88.88,0,0,1,0,1.05l-3,2.49a.93.93,0,0,0,0,1.07L16,35.32c.2.39.17.86-.08,1a3.35,3.35,0,0,1-3.1,0m-.22-18.14c-4.43-2-8,1.24-8.08,7.26S8,38,12.42,40s8-1.24,8.08-7.26S17,20.18,12.55,18.17" fill="#69e2db"/>
          </g>
        </g>
      </g>
      <g>
        <polygon points="24.2 19.46 1.41 9.17 25.96 0.24 48.75 10.53 24.2 19.46" fill="#ebe7df"/>
        <g style="isolation: isolate">
          <g clip-path="url(#clip-path-2)">
            <path d="M31.19,12c-3.39,1.23-8.73,1.05-11.62-.45-2.44-1.27-2.22-3.09.52-4.23l.39-.16a15.42,15.42,0,0,1,4.78-.81c.47,0,.86.15.83.34l-.47,2.56c0,.19.32.36.8.38L33,9.88c.46,0,.79.2.7.38A4.18,4.18,0,0,1,31.19,12M17.13,6c-5,1.84-5.42,5-.84,7.07s12.37,2.25,17.42.42,5.42-5,.84-7.07S22.18,4.15,17.13,6" fill="#69e2db"/>
          </g>
        </g>
      </g>
      <g>
        <polygon points="48.75 10.53 48.59 40.82 24.04 49.76 24.2 19.46 48.75 10.53" fill="#f0ece4"/>
        <g style="isolation: isolate">
          <g clip-path="url(#clip-path-3)">
            <path d="M37.09,37.4c-3.17,1.15-5.69-1.23-5.45-5.28.2-3.42,2.42-6.94,5.14-8.15l.38-.16a3.88,3.88,0,0,1,3.39.21c.25.16.27.63,0,1L37.4,29.87a.88.88,0,0,0,0,1.05l3.09,2.91a.82.82,0,0,1-.07,1,7.63,7.63,0,0,1-3.3,2.55m-.26-17.23c-4.7,1.71-8.54,7.8-8.57,13.61S32,42.9,36.72,41.19s8.54-7.81,8.58-13.61-3.76-9.12-8.47-7.41" fill="#69e2db"/>
          </g>
        </g>
      </g>
    </g>
  </g>
</svg>
