<svg id="Capa_1" data-name="Capa 1" xmlns="http://www.w3.org/2000/svg" xmlns:xlink="http://www.w3.org/1999/xlink" width="50" height="50" viewBox="0 0 50 50">
  <defs>
    <clipPath id="clip-path">
      <polygon points="24.04 49.77 1.25 39.48 1.41 9.18 24.2 19.47 24.04 49.77" fill="none"/>
    </clipPath>
    <clipPath id="clip-path-2">
      <polygon points="24.2 19.47 1.41 9.18 25.96 0.24 48.75 10.54 24.2 19.47" fill="none"/>
    </clipPath>
    <clipPath id="clip-path-3">
      <polygon points="48.75 10.54 48.59 40.83 24.04 49.77 24.2 19.47 48.75 10.54" fill="none"/>
    </clipPath>
  </defs>
  <g id="Figment_lido">
    <g style="isolation: isolate">
      <g>
        <polygon points="24.04 49.77 1.25 39.48 1.41 9.18 24.2 19.47 24.04 49.77" fill="#353535"/>
        <g style="isolation: isolate">
          <g clip-path="url(#clip-path)">
            <g>
              <path d="M9.66,33.82a5.09,5.09,0,0,1-2.23-2.91c-.93-2.71.12-4.84,2-4.09.3.12.61.25.91.39l1.83.86c0,1.36.06,2.75-.06,4C12,33.54,11.1,34.2,10,33.93a1.52,1.52,0,0,1-.32-.11m3.11-9.67c-1.17-.54-2.35-1.07-3.52-1.58a3,3,0,0,0-3.79.69c-1.95,2.2-1.94,6.21,0,10.16A9.37,9.37,0,0,0,9.64,38a3.45,3.45,0,0,0,4.75-1.39,7.8,7.8,0,0,0,.91-3.85c0-1.07,0-2.16,0-3.29l2.56,1.17,0-4.12-.43-.19-4.71-2.16" fill="#fff" opacity="0.8"/>
              <path d="M20.79,22.47l-2-.91-.06,6.8,2,.91.05-6.8" fill="#fff" opacity="0.8"/>
            </g>
          </g>
        </g>
      </g>
      <g>
        <polygon points="24.2 19.47 1.41 9.18 25.96 0.24 48.75 10.54 24.2 19.47" fill="#3a3a3a"/>
        <g style="isolation: isolate">
          <g clip-path="url(#clip-path-2)">
            <g>
              <path d="M27.31,12.85a8.38,8.38,0,0,1-3.72.26c-2.62-.35-3.37-1.59-1.42-2.37l.95-.36c.64-.23,1.31-.46,1.95-.7,1,.44,2,.84,2.83,1.3s.74,1.23-.27,1.74l-.32.13M22.69,8.14,19,9.51c-1.56.59-2.37,1.35-2.3,2.23.14,1.73,3,3,7.25,3.23a16.62,16.62,0,0,0,6.35-.79c1.94-.71,3-1.8,2.5-3a4,4,0,0,0-2.09-1.7c-.75-.35-1.53-.69-2.33-1l2.71-1L28.14,6.16l-.45.17-5,1.81" fill="#fff" opacity="0.8"/>
              <path d="M27.39,3.36l-2.12.77,4.82,2.18,2.12-.77L27.39,3.36" fill="#fff" opacity="0.8"/>
            </g>
          </g>
        </g>
      </g>
      <g>
        <polygon points="48.75 10.54 48.59 40.83 24.04 49.77 24.2 19.47 48.75 10.54" fill="#3b3b3b"/>
        <g style="isolation: isolate">
          <g clip-path="url(#clip-path-3)">
            <g>
              <path d="M34.41,37a1.86,1.86,0,0,1-2.31-.93c-1-1.77.11-4.6,2.09-5.44l.94-.37c.63-.23,1.26-.43,1.89-.66,0,1.28.07,2.52-.05,3.79a4.56,4.56,0,0,1-2.23,3.45l-.33.16m3.18-11.51c-1.22.44-2.43.89-3.64,1.35A7.88,7.88,0,0,0,30,30.56c-2,3.61-2,7.34,0,9.49a3.86,3.86,0,0,0,4.35.88,9.15,9.15,0,0,0,4.89-5.1,10.86,10.86,0,0,0,.92-4.31c0-1,0-2,0-3.08l2.64-1,0-3.87-.44.16-4.86,1.76" fill="#fff" opacity="0.8"/>
              <path d="M45.85,17.55l-2.06.75,0,6.38,2.07-.75,0-6.38" fill="#fff" opacity="0.8"/>
            </g>
          </g>
        </g>
      </g>
    </g>
  </g>
  <g>
    <rect x="46.2" y="41.66" width="1.51" height="1.52" fill="#fff"/>
    <rect x="46.2" y="40.15" width="1.51" height="1.51" fill="#fff"/>
    <rect x="46.2" y="8.34" width="1.51" height="1.52" fill="#fff"/>
    <rect x="46.2" y="6.82" width="1.51" height="1.51" fill="#fff"/>
    <rect x="44.69" y="43.18" width="1.52" height="1.51" fill="#fff"/>
    <rect x="44.69" y="41.66" width="1.52" height="1.52" fill="#ef5454"/>
    <rect x="44.69" y="40.15" width="1.52" height="1.51" fill="#ef5454"/>
    <rect x="44.69" y="38.63" width="1.52" height="1.52" fill="#fff"/>
    <rect x="44.69" y="9.85" width="1.52" height="1.51" fill="#fff"/>
    <rect x="44.69" y="8.34" width="1.52" height="1.52" fill="#aa0707"/>
    <rect x="44.69" y="6.82" width="1.52" height="1.51" fill="#ef5454"/>
    <rect x="44.69" y="5.31" width="1.52" height="1.52" fill="#fff"/>
    <rect x="43.18" y="44.69" width="1.51" height="1.52" fill="#fff"/>
    <rect x="43.18" y="43.18" width="1.51" height="1.51" fill="#aa0707"/>
    <rect x="43.18" y="41.66" width="1.51" height="1.52" fill="#cc1d1d"/>
    <rect x="43.18" y="40.15" width="1.51" height="1.51" fill="#cc1d1d"/>
    <rect x="43.18" y="38.63" width="1.51" height="1.52" fill="#ef5454"/>
    <rect x="43.18" y="37.12" width="1.51" height="1.51" fill="#fff"/>
    <rect x="43.18" y="11.37" width="1.51" height="1.51" fill="#fff"/>
    <rect x="43.18" y="9.85" width="1.51" height="1.51" fill="#aa0707"/>
    <rect x="43.18" y="8.34" width="1.51" height="1.52" fill="#cc1d1d"/>
    <rect x="43.18" y="6.82" width="1.51" height="1.51" fill="#cc1d1d"/>
    <rect x="43.18" y="5.31" width="1.51" height="1.52" fill="#ef5454"/>
    <rect x="43.18" y="3.8" width="1.51" height="1.51" fill="#fff"/>
    <rect x="41.66" y="46.21" width="1.51" height="1.51" fill="#fff"/>
    <rect x="41.66" y="44.69" width="1.51" height="1.52" fill="#aa0707"/>
    <rect x="41.66" y="43.18" width="1.51" height="1.51" fill="#cc1d1d"/>
    <rect x="41.66" y="41.66" width="1.51" height="1.52" fill="#cc1d1d"/>
    <rect x="41.66" y="40.15" width="1.51" height="1.51" fill="#cc1d1d"/>
    <rect x="41.66" y="38.63" width="1.51" height="1.52" fill="#cc1d1d"/>
    <rect x="41.66" y="37.12" width="1.51" height="1.51" fill="#ef5454"/>
    <rect x="41.66" y="35.6" width="1.51" height="1.52" fill="#fff"/>
    <rect x="41.66" y="12.88" width="1.51" height="1.52" fill="#fff"/>
    <rect x="41.66" y="11.37" width="1.51" height="1.51" fill="#aa0707"/>
    <rect x="41.66" y="9.85" width="1.51" height="1.51" fill="#cc1d1d"/>
    <rect x="41.66" y="8.34" width="1.51" height="1.52" fill="#cc1d1d"/>
    <rect x="41.66" y="6.82" width="1.51" height="1.51" fill="#cc1d1d"/>
    <rect x="41.66" y="5.31" width="1.51" height="1.52" fill="#cc1d1d"/>
    <rect x="41.66" y="3.8" width="1.51" height="1.51" fill="#ef5454"/>
    <rect x="41.66" y="2.28" width="1.51" height="1.52" fill="#fff"/>
    <rect x="40.15" y="46.21" width="1.52" height="1.51" fill="#fff"/>
    <rect x="40.15" y="44.69" width="1.52" height="1.52" fill="#aa0707"/>
    <rect x="40.15" y="43.18" width="1.52" height="1.51" fill="#cc1d1d"/>
    <rect x="40.15" y="41.66" width="1.52" height="1.52" fill="#cc1d1d"/>
    <rect x="40.15" y="40.15" width="1.52" height="1.51" fill="#cc1d1d"/>
    <rect x="40.15" y="38.63" width="1.52" height="1.52" fill="#cc1d1d"/>
    <rect x="40.15" y="37.12" width="1.52" height="1.51" fill="#cc1d1d"/>
    <rect x="40.15" y="35.6" width="1.52" height="1.52" fill="#ef5454"/>
    <rect x="40.15" y="34.09" width="1.52" height="1.51" fill="#fff"/>
    <rect x="40.15" y="14.4" width="1.52" height="1.51" fill="#fff"/>
    <rect x="40.15" y="12.88" width="1.52" height="1.52" fill="#aa0707"/>
    <rect x="40.15" y="11.37" width="1.52" height="1.51" fill="#cc1d1d"/>
    <rect x="40.15" y="9.85" width="1.52" height="1.51" fill="#cc1d1d"/>
    <rect x="40.15" y="8.34" width="1.52" height="1.52" fill="#cc1d1d"/>
    <rect x="40.15" y="6.82" width="1.52" height="1.51" fill="#cc1d1d"/>
    <rect x="40.15" y="5.31" width="1.52" height="1.52" fill="#cc1d1d"/>
    <rect x="40.15" y="3.8" width="1.52" height="1.51" fill="#ef5454"/>
    <rect x="40.15" y="2.28" width="1.52" height="1.52" fill="#fff"/>
    <rect x="38.63" y="44.69" width="1.51" height="1.52" fill="#fff"/>
    <rect x="38.63" y="43.18" width="1.51" height="1.51" fill="#aa0707"/>
    <rect x="38.63" y="41.66" width="1.51" height="1.52" fill="#cc1d1d"/>
    <rect x="38.63" y="40.15" width="1.51" height="1.51" fill="#cc1d1d"/>
    <rect x="38.63" y="38.63" width="1.51" height="1.52" fill="#cc1d1d"/>
    <rect x="38.63" y="37.12" width="1.51" height="1.51" fill="#cc1d1d"/>
    <rect x="38.63" y="35.6" width="1.51" height="1.52" fill="#cc1d1d"/>
    <rect x="38.63" y="34.09" width="1.51" height="1.51" fill="#ef5454"/>
    <rect x="38.63" y="32.57" width="1.51" height="1.52" fill="#fff"/>
    <rect x="38.63" y="15.91" width="1.51" height="1.52" fill="#fff"/>
    <rect x="38.63" y="14.4" width="1.51" height="1.51" fill="#aa0707"/>
    <rect x="38.63" y="12.88" width="1.51" height="1.52" fill="#cc1d1d"/>
    <rect x="38.63" y="11.37" width="1.51" height="1.51" fill="#cc1d1d"/>
    <rect x="38.63" y="9.85" width="1.51" height="1.51" fill="#cc1d1d"/>
    <rect x="38.63" y="8.34" width="1.51" height="1.52" fill="#cc1d1d"/>
    <rect x="38.63" y="6.82" width="1.51" height="1.51" fill="#cc1d1d"/>
    <rect x="38.63" y="5.31" width="1.51" height="1.52" fill="#ef5454"/>
    <rect x="38.63" y="3.8" width="1.51" height="1.51" fill="#fff"/>
    <rect x="37.12" y="43.18" width="1.52" height="1.51" fill="#fff"/>
    <rect x="37.12" y="41.66" width="1.52" height="1.52" fill="#aa0707"/>
    <rect x="37.12" y="40.15" width="1.52" height="1.51" fill="#cc1d1d"/>
    <rect x="37.12" y="38.63" width="1.52" height="1.52" fill="#cc1d1d"/>
    <rect x="37.12" y="37.12" width="1.52" height="1.51" fill="#cc1d1d"/>
    <rect x="37.12" y="35.6" width="1.52" height="1.52" fill="#cc1d1d"/>
    <rect x="37.12" y="34.09" width="1.52" height="1.51" fill="#cc1d1d"/>
    <rect x="37.12" y="32.57" width="1.52" height="1.52" fill="#ef5454"/>
    <rect x="37.12" y="31.06" width="1.52" height="1.51" fill="#fff"/>
    <rect x="37.12" y="17.43" width="1.52" height="1.51" fill="#fff"/>
    <rect x="37.12" y="15.91" width="1.52" height="1.52" fill="#aa0707"/>
    <rect x="37.12" y="14.4" width="1.52" height="1.51" fill="#cc1d1d"/>
    <rect x="37.12" y="12.88" width="1.52" height="1.52" fill="#cc1d1d"/>
    <rect x="37.12" y="11.37" width="1.52" height="1.51" fill="#cc1d1d"/>
    <rect x="37.12" y="9.85" width="1.52" height="1.51" fill="#cc1d1d"/>
    <rect x="37.12" y="8.34" width="1.52" height="1.52" fill="#cc1d1d"/>
    <rect x="37.12" y="6.82" width="1.52" height="1.51" fill="#ef5454"/>
    <rect x="37.12" y="5.31" width="1.52" height="1.52" fill="#fff"/>
    <rect x="35.6" y="41.66" width="1.51" height="1.52" fill="#fff"/>
    <rect x="35.6" y="40.15" width="1.51" height="1.51" fill="#aa0707"/>
    <rect x="35.6" y="38.63" width="1.51" height="1.52" fill="#cc1d1d"/>
    <rect x="35.6" y="37.12" width="1.51" height="1.51" fill="#cc1d1d"/>
    <rect x="35.6" y="35.6" width="1.51" height="1.52" fill="#cc1d1d"/>
    <rect x="35.6" y="34.09" width="1.51" height="1.51" fill="#cc1d1d"/>
    <rect x="35.6" y="32.57" width="1.51" height="1.52" fill="#cc1d1d"/>
    <rect x="35.6" y="31.06" width="1.51" height="1.51" fill="#ef5454"/>
    <rect x="35.6" y="29.54" width="1.51" height="1.51" fill="#fff"/>
    <rect x="35.6" y="18.94" width="1.51" height="1.52" fill="#fff"/>
    <rect x="35.6" y="17.43" width="1.51" height="1.51" fill="#aa0707"/>
    <rect x="35.6" y="15.91" width="1.51" height="1.52" fill="#cc1d1d"/>
    <rect x="35.6" y="14.4" width="1.51" height="1.51" fill="#cc1d1d"/>
    <rect x="35.6" y="12.88" width="1.51" height="1.52" fill="#cc1d1d"/>
    <rect x="35.6" y="11.37" width="1.51" height="1.51" fill="#cc1d1d"/>
    <rect x="35.6" y="9.85" width="1.51" height="1.51" fill="#cc1d1d"/>
    <rect x="35.6" y="8.34" width="1.51" height="1.52" fill="#ef5454"/>
    <rect x="35.6" y="6.82" width="1.51" height="1.51" fill="#fff"/>
    <rect x="34.09" y="40.15" width="1.52" height="1.51" fill="#fff"/>
    <rect x="34.09" y="38.63" width="1.52" height="1.52" fill="#aa0707"/>
    <rect x="34.09" y="37.12" width="1.52" height="1.51" fill="#cc1d1d"/>
    <rect x="34.09" y="35.6" width="1.52" height="1.52" fill="#cc1d1d"/>
    <rect x="34.09" y="34.09" width="1.52" height="1.51" fill="#cc1d1d"/>
    <rect x="34.09" y="32.57" width="1.52" height="1.52" fill="#cc1d1d"/>
    <rect x="34.09" y="31.06" width="1.52" height="1.51" fill="#cc1d1d"/>
    <rect x="34.09" y="29.54" width="1.52" height="1.51" fill="#ef5454"/>
    <rect x="34.09" y="28.03" width="1.52" height="1.52" fill="#fff"/>
    <rect x="34.09" y="20.46" width="1.52" height="1.51" fill="#fff"/>
    <rect x="34.09" y="18.94" width="1.52" height="1.52" fill="#aa0707"/>
    <rect x="34.09" y="17.43" width="1.52" height="1.51" fill="#cc1d1d"/>
    <rect x="34.09" y="15.91" width="1.52" height="1.52" fill="#cc1d1d"/>
    <rect x="34.09" y="14.4" width="1.52" height="1.51" fill="#cc1d1d"/>
    <rect x="34.09" y="12.88" width="1.52" height="1.52" fill="#cc1d1d"/>
    <rect x="34.09" y="11.37" width="1.52" height="1.51" fill="#cc1d1d"/>
    <rect x="34.09" y="9.85" width="1.52" height="1.51" fill="#ef5454"/>
    <rect x="34.09" y="8.34" width="1.52" height="1.52" fill="#fff"/>
    <rect x="32.57" y="38.63" width="1.51" height="1.52" fill="#fff"/>
    <rect x="32.57" y="37.12" width="1.51" height="1.51" fill="#aa0707"/>
    <rect x="32.57" y="35.6" width="1.51" height="1.52" fill="#cc1d1d"/>
    <rect x="32.57" y="34.09" width="1.51" height="1.51" fill="#cc1d1d"/>
    <rect x="32.57" y="32.57" width="1.51" height="1.52" fill="#cc1d1d"/>
    <rect x="32.57" y="31.06" width="1.51" height="1.51" fill="#cc1d1d"/>
    <rect x="32.57" y="29.54" width="1.51" height="1.51" fill="#cc1d1d"/>
    <rect x="32.57" y="28.03" width="1.51" height="1.52" fill="#ef5454"/>
    <rect x="32.57" y="26.52" width="1.51" height="1.51" fill="#fff"/>
    <rect x="32.57" y="21.97" width="1.51" height="1.52" fill="#fff"/>
    <rect x="32.57" y="20.46" width="1.51" height="1.51" fill="#aa0707"/>
    <rect x="32.57" y="18.94" width="1.51" height="1.52" fill="#cc1d1d"/>
    <rect x="32.57" y="17.43" width="1.51" height="1.51" fill="#cc1d1d"/>
    <rect x="32.57" y="15.91" width="1.51" height="1.52" fill="#cc1d1d"/>
    <rect x="32.57" y="14.4" width="1.51" height="1.51" fill="#cc1d1d"/>
    <rect x="32.57" y="12.88" width="1.51" height="1.52" fill="#cc1d1d"/>
    <rect x="32.57" y="11.37" width="1.51" height="1.51" fill="#ef5454"/>
    <rect x="32.57" y="9.85" width="1.51" height="1.51" fill="#fff"/>
    <rect x="31.06" y="37.12" width="1.52" height="1.51" fill="#fff"/>
    <rect x="31.06" y="35.6" width="1.52" height="1.52" fill="#aa0707"/>
    <rect x="31.06" y="34.09" width="1.52" height="1.51" fill="#cc1d1d"/>
    <rect x="31.06" y="32.57" width="1.52" height="1.52" fill="#cc1d1d"/>
    <rect x="31.06" y="31.06" width="1.52" height="1.51" fill="#cc1d1d"/>
    <rect x="31.06" y="29.54" width="1.52" height="1.51" fill="#cc1d1d"/>
    <rect x="31.06" y="28.03" width="1.52" height="1.52" fill="#cc1d1d"/>
    <rect x="31.06" y="26.52" width="1.52" height="1.51" fill="#ef5454"/>
    <rect x="31.06" y="25" width="1.52" height="1.52" fill="#fff"/>
    <rect x="31.06" y="23.49" width="1.52" height="1.51" fill="#fff"/>
    <rect x="31.06" y="21.97" width="1.52" height="1.52" fill="#aa0707"/>
    <rect x="31.06" y="20.46" width="1.52" height="1.51" fill="#cc1d1d"/>
    <rect x="31.06" y="18.94" width="1.52" height="1.52" fill="#cc1d1d"/>
    <rect x="31.06" y="17.43" width="1.52" height="1.51" fill="#cc1d1d"/>
    <rect x="31.06" y="15.91" width="1.52" height="1.52" fill="#cc1d1d"/>
    <rect x="31.06" y="14.4" width="1.52" height="1.51" fill="#cc1d1d"/>
    <rect x="31.06" y="12.88" width="1.52" height="1.52" fill="#ef5454"/>
    <rect x="31.06" y="11.37" width="1.52" height="1.51" fill="#fff"/>
    <rect x="29.54" y="35.6" width="1.51" height="1.52" fill="#fff"/>
    <rect x="29.54" y="34.09" width="1.51" height="1.51" fill="#aa0707"/>
    <rect x="29.54" y="32.57" width="1.51" height="1.52" fill="#cc1d1d"/>
    <rect x="29.54" y="31.06" width="1.51" height="1.51" fill="#cc1d1d"/>
    <rect x="29.54" y="29.54" width="1.51" height="1.51" fill="#cc1d1d"/>
    <rect x="29.54" y="28.03" width="1.51" height="1.52" fill="#cc1d1d"/>
    <rect x="29.54" y="26.52" width="1.51" height="1.51" fill="#cc1d1d"/>
    <rect x="29.54" y="25" width="1.51" height="1.52" fill="#aa0707"/>
    <rect x="29.54" y="23.49" width="1.51" height="1.51" fill="#aa0707"/>
    <rect x="29.54" y="21.97" width="1.51" height="1.52" fill="#cc1d1d"/>
    <rect x="29.54" y="20.46" width="1.51" height="1.51" fill="#cc1d1d"/>
    <rect x="29.54" y="18.94" width="1.51" height="1.52" fill="#cc1d1d"/>
    <rect x="29.54" y="17.43" width="1.51" height="1.51" fill="#cc1d1d"/>
    <rect x="29.54" y="15.91" width="1.51" height="1.52" fill="#cc1d1d"/>
    <rect x="29.54" y="14.4" width="1.51" height="1.51" fill="#ef5454"/>
    <rect x="29.54" y="12.88" width="1.51" height="1.52" fill="#fff"/>
    <rect x="28.03" y="34.09" width="1.52" height="1.51" fill="#fff"/>
    <rect x="28.03" y="32.57" width="1.52" height="1.52" fill="#aa0707"/>
    <rect x="28.03" y="31.06" width="1.52" height="1.51" fill="#cc1d1d"/>
    <rect x="28.03" y="29.54" width="1.52" height="1.51" fill="#cc1d1d"/>
    <rect x="28.03" y="28.03" width="1.52" height="1.52" fill="#cc1d1d"/>
    <rect x="28.03" y="26.52" width="1.52" height="1.51" fill="#cc1d1d"/>
    <rect x="28.03" y="25" width="1.52" height="1.52" fill="#cc1d1d"/>
    <rect x="28.03" y="23.49" width="1.52" height="1.51" fill="#cc1d1d"/>
    <rect x="28.03" y="21.97" width="1.52" height="1.52" fill="#cc1d1d"/>
    <rect x="28.03" y="20.46" width="1.52" height="1.51" fill="#cc1d1d"/>
    <rect x="28.03" y="18.94" width="1.52" height="1.52" fill="#cc1d1d"/>
    <rect x="28.03" y="17.43" width="1.52" height="1.51" fill="#cc1d1d"/>
    <rect x="28.03" y="15.91" width="1.52" height="1.52" fill="#ef5454"/>
    <rect x="28.03" y="14.4" width="1.52" height="1.51" fill="#fff"/>
    <rect x="26.51" y="32.57" width="1.51" height="1.52" fill="#fff"/>
    <rect x="26.51" y="31.06" width="1.51" height="1.51" fill="#aa0707"/>
    <rect x="26.51" y="29.54" width="1.51" height="1.51" fill="#cc1d1d"/>
    <rect x="26.51" y="28.03" width="1.51" height="1.52" fill="#cc1d1d"/>
    <rect x="26.51" y="26.52" width="1.51" height="1.51" fill="#cc1d1d"/>
    <rect x="26.51" y="25" width="1.51" height="1.52" fill="#cc1d1d"/>
    <rect x="26.51" y="23.49" width="1.51" height="1.51" fill="#cc1d1d"/>
    <rect x="26.51" y="21.97" width="1.51" height="1.52" fill="#cc1d1d"/>
    <rect x="26.51" y="20.46" width="1.51" height="1.51" fill="#cc1d1d"/>
    <rect x="26.51" y="18.94" width="1.51" height="1.52" fill="#cc1d1d"/>
    <rect x="26.51" y="17.43" width="1.51" height="1.51" fill="#ef5454"/>
    <rect x="26.51" y="15.91" width="1.51" height="1.52" fill="#fff"/>
    <rect x="25" y="31.06" width="1.51" height="1.51" fill="#fff"/>
    <rect x="25" y="29.54" width="1.51" height="1.51" fill="#aa0707"/>
    <rect x="25" y="28.03" width="1.51" height="1.52" fill="#cc1d1d"/>
    <rect x="25" y="26.52" width="1.51" height="1.51" fill="#cc1d1d"/>
    <rect x="25" y="25" width="1.51" height="1.52" fill="#cc1d1d"/>
    <rect x="25" y="23.49" width="1.51" height="1.51" fill="#cc1d1d"/>
    <rect x="25" y="21.97" width="1.51" height="1.52" fill="#cc1d1d"/>
    <rect x="25" y="20.46" width="1.51" height="1.51" fill="#cc1d1d"/>
    <rect x="25" y="18.94" width="1.51" height="1.52" fill="#ef5454"/>
    <rect x="25" y="17.43" width="1.51" height="1.51" fill="#fff"/>
    <rect x="23.49" y="31.06" width="1.52" height="1.51" fill="#fff"/>
    <rect x="23.49" y="29.54" width="1.52" height="1.51" fill="#aa0707"/>
    <rect x="23.49" y="28.03" width="1.52" height="1.52" fill="#cc1d1d"/>
    <rect x="23.49" y="26.52" width="1.52" height="1.51" fill="#cc1d1d"/>
    <rect x="23.49" y="25" width="1.52" height="1.52" fill="#cc1d1d"/>
    <rect x="23.49" y="23.49" width="1.52" height="1.51" fill="#cc1d1d"/>
    <rect x="23.49" y="21.97" width="1.52" height="1.52" fill="#cc1d1d"/>
    <rect x="23.49" y="20.46" width="1.52" height="1.51" fill="#cc1d1d"/>
    <rect x="23.49" y="18.94" width="1.52" height="1.52" fill="#ef5454"/>
    <rect x="23.49" y="17.43" width="1.52" height="1.51" fill="#fff"/>
    <rect x="21.97" y="32.57" width="1.51" height="1.52" fill="#fff"/>
    <rect x="21.97" y="31.06" width="1.51" height="1.51" fill="#aa0707"/>
    <rect x="21.97" y="29.54" width="1.51" height="1.51" fill="#cc1d1d"/>
    <rect x="21.97" y="28.03" width="1.51" height="1.52" fill="#cc1d1d"/>
    <rect x="21.97" y="26.52" width="1.51" height="1.51" fill="#cc1d1d"/>
    <rect x="21.97" y="25" width="1.51" height="1.52" fill="#cc1d1d"/>
    <rect x="21.97" y="23.49" width="1.51" height="1.51" fill="#cc1d1d"/>
    <rect x="21.97" y="21.97" width="1.51" height="1.52" fill="#cc1d1d"/>
    <rect x="21.97" y="20.46" width="1.51" height="1.51" fill="#cc1d1d"/>
    <rect x="21.97" y="18.94" width="1.51" height="1.52" fill="#cc1d1d"/>
    <rect x="21.97" y="17.43" width="1.51" height="1.51" fill="#ef5454"/>
    <rect x="21.97" y="15.91" width="1.51" height="1.52" fill="#fff"/>
    <rect x="20.46" y="34.09" width="1.52" height="1.51" fill="#fff"/>
    <rect x="20.46" y="32.57" width="1.52" height="1.52" fill="#aa0707"/>
    <rect x="20.46" y="31.06" width="1.52" height="1.51" fill="#cc1d1d"/>
    <rect x="20.46" y="29.54" width="1.52" height="1.51" fill="#cc1d1d"/>
    <rect x="20.46" y="28.03" width="1.52" height="1.52" fill="#cc1d1d"/>
    <rect x="20.46" y="26.52" width="1.52" height="1.51" fill="#cc1d1d"/>
    <rect x="20.46" y="25" width="1.52" height="1.52" fill="#cc1d1d"/>
    <rect x="20.46" y="23.49" width="1.52" height="1.51" fill="#cc1d1d"/>
    <rect x="20.46" y="21.97" width="1.52" height="1.52" fill="#cc1d1d"/>
    <rect x="20.46" y="20.46" width="1.52" height="1.51" fill="#cc1d1d"/>
    <rect x="20.46" y="18.94" width="1.52" height="1.52" fill="#cc1d1d"/>
    <rect x="20.46" y="17.43" width="1.52" height="1.51" fill="#cc1d1d"/>
    <rect x="20.46" y="15.91" width="1.52" height="1.52" fill="#ef5454"/>
    <rect x="20.46" y="14.4" width="1.52" height="1.51" fill="#fff"/>
    <rect x="18.94" y="35.6" width="1.51" height="1.52" fill="#fff"/>
    <rect x="18.94" y="34.09" width="1.51" height="1.51" fill="#aa0707"/>
    <rect x="18.94" y="32.57" width="1.51" height="1.52" fill="#cc1d1d"/>
    <rect x="18.94" y="31.06" width="1.51" height="1.51" fill="#cc1d1d"/>
    <rect x="18.94" y="29.54" width="1.51" height="1.51" fill="#cc1d1d"/>
    <rect x="18.94" y="28.03" width="1.51" height="1.52" fill="#cc1d1d"/>
    <rect x="18.94" y="26.52" width="1.51" height="1.51" fill="#cc1d1d"/>
    <rect x="18.94" y="25" width="1.51" height="1.52" fill="#aa0707"/>
    <rect x="18.94" y="23.49" width="1.51" height="1.51" fill="#aa0707"/>
    <rect x="18.94" y="21.97" width="1.51" height="1.52" fill="#cc1d1d"/>
    <rect x="18.94" y="20.46" width="1.51" height="1.51" fill="#cc1d1d"/>
    <rect x="18.94" y="18.94" width="1.51" height="1.52" fill="#cc1d1d"/>
    <rect x="18.94" y="17.43" width="1.51" height="1.51" fill="#cc1d1d"/>
    <rect x="18.94" y="15.91" width="1.51" height="1.52" fill="#cc1d1d"/>
    <rect x="18.94" y="14.4" width="1.51" height="1.51" fill="#ef5454"/>
    <rect x="18.94" y="12.88" width="1.51" height="1.52" fill="#fff"/>
    <rect x="17.43" y="37.12" width="1.52" height="1.51" fill="#fff"/>
    <rect x="17.43" y="35.6" width="1.52" height="1.52" fill="#aa0707"/>
    <rect x="17.43" y="34.09" width="1.52" height="1.51" fill="#cc1d1d"/>
    <rect x="17.43" y="32.57" width="1.52" height="1.52" fill="#cc1d1d"/>
    <rect x="17.43" y="31.06" width="1.52" height="1.51" fill="#cc1d1d"/>
    <rect x="17.43" y="29.54" width="1.52" height="1.51" fill="#cc1d1d"/>
    <rect x="17.43" y="28.03" width="1.52" height="1.52" fill="#cc1d1d"/>
    <rect x="17.43" y="26.52" width="1.52" height="1.51" fill="#ef5454"/>
    <rect x="17.43" y="25" width="1.52" height="1.52" fill="#fff"/>
    <rect x="17.43" y="23.49" width="1.52" height="1.51" fill="#fff"/>
    <rect x="17.43" y="21.97" width="1.52" height="1.52" fill="#aa0707"/>
    <rect x="17.43" y="20.46" width="1.52" height="1.51" fill="#cc1d1d"/>
    <rect x="17.43" y="18.94" width="1.52" height="1.52" fill="#cc1d1d"/>
    <rect x="17.43" y="17.43" width="1.52" height="1.51" fill="#cc1d1d"/>
    <rect x="17.43" y="15.91" width="1.52" height="1.52" fill="#cc1d1d"/>
    <rect x="17.43" y="14.4" width="1.52" height="1.51" fill="#cc1d1d"/>
    <rect x="17.43" y="12.88" width="1.52" height="1.52" fill="#ef5454"/>
    <rect x="17.43" y="11.37" width="1.52" height="1.51" fill="#fff"/>
    <rect x="15.91" y="38.63" width="1.51" height="1.52" fill="#fff"/>
    <rect x="15.91" y="37.12" width="1.51" height="1.51" fill="#aa0707"/>
    <rect x="15.91" y="35.6" width="1.51" height="1.52" fill="#cc1d1d"/>
    <rect x="15.91" y="34.09" width="1.51" height="1.51" fill="#cc1d1d"/>
    <rect x="15.91" y="32.57" width="1.51" height="1.52" fill="#cc1d1d"/>
    <rect x="15.91" y="31.06" width="1.51" height="1.51" fill="#cc1d1d"/>
    <rect x="15.91" y="29.54" width="1.51" height="1.51" fill="#cc1d1d"/>
    <rect x="15.91" y="28.03" width="1.51" height="1.52" fill="#ef5454"/>
    <rect x="15.91" y="26.52" width="1.51" height="1.51" fill="#fff"/>
    <rect x="15.91" y="21.97" width="1.51" height="1.52" fill="#fff"/>
    <rect x="15.91" y="20.46" width="1.51" height="1.51" fill="#aa0707"/>
    <rect x="15.91" y="18.94" width="1.51" height="1.52" fill="#cc1d1d"/>
    <rect x="15.91" y="17.43" width="1.51" height="1.51" fill="#cc1d1d"/>
    <rect x="15.91" y="15.91" width="1.51" height="1.52" fill="#cc1d1d"/>
    <rect x="15.91" y="14.4" width="1.51" height="1.51" fill="#cc1d1d"/>
    <rect x="15.91" y="12.88" width="1.51" height="1.52" fill="#cc1d1d"/>
    <rect x="15.91" y="11.37" width="1.51" height="1.51" fill="#ef5454"/>
    <rect x="15.91" y="9.85" width="1.51" height="1.51" fill="#fff"/>
    <rect x="14.4" y="40.15" width="1.52" height="1.51" fill="#fff"/>
    <rect x="14.4" y="38.63" width="1.52" height="1.52" fill="#aa0707"/>
    <rect x="14.4" y="37.12" width="1.52" height="1.51" fill="#cc1d1d"/>
    <rect x="14.4" y="35.6" width="1.52" height="1.52" fill="#cc1d1d"/>
    <rect x="14.4" y="34.09" width="1.52" height="1.51" fill="#cc1d1d"/>
    <rect x="14.4" y="32.57" width="1.52" height="1.52" fill="#cc1d1d"/>
    <rect x="14.4" y="31.06" width="1.52" height="1.51" fill="#cc1d1d"/>
    <rect x="14.4" y="29.54" width="1.52" height="1.51" fill="#ef5454"/>
    <rect x="14.4" y="28.03" width="1.52" height="1.52" fill="#fff"/>
    <rect x="14.4" y="20.46" width="1.52" height="1.51" fill="#fff"/>
    <rect x="14.4" y="18.94" width="1.52" height="1.52" fill="#aa0707"/>
    <rect x="14.4" y="17.43" width="1.52" height="1.51" fill="#cc1d1d"/>
    <rect x="14.4" y="15.91" width="1.52" height="1.52" fill="#cc1d1d"/>
    <rect x="14.4" y="14.4" width="1.52" height="1.51" fill="#cc1d1d"/>
    <rect x="14.4" y="12.88" width="1.52" height="1.52" fill="#cc1d1d"/>
    <rect x="14.4" y="11.37" width="1.52" height="1.51" fill="#cc1d1d"/>
    <rect x="14.4" y="9.85" width="1.52" height="1.51" fill="#ef5454"/>
    <rect x="14.4" y="8.34" width="1.52" height="1.52" fill="#fff"/>
    <rect x="12.88" y="41.66" width="1.51" height="1.52" fill="#fff"/>
    <rect x="12.88" y="40.15" width="1.51" height="1.51" fill="#aa0707"/>
    <rect x="12.88" y="38.63" width="1.51" height="1.52" fill="#cc1d1d"/>
    <rect x="12.88" y="37.12" width="1.51" height="1.51" fill="#cc1d1d"/>
    <rect x="12.88" y="35.6" width="1.51" height="1.52" fill="#cc1d1d"/>
    <rect x="12.88" y="34.09" width="1.51" height="1.51" fill="#cc1d1d"/>
    <rect x="12.88" y="32.57" width="1.51" height="1.52" fill="#cc1d1d"/>
    <rect x="12.88" y="31.06" width="1.51" height="1.51" fill="#ef5454"/>
    <rect x="12.88" y="29.54" width="1.51" height="1.51" fill="#fff"/>
    <rect x="12.88" y="18.94" width="1.51" height="1.52" fill="#fff"/>
    <rect x="12.88" y="17.43" width="1.51" height="1.51" fill="#aa0707"/>
    <rect x="12.88" y="15.91" width="1.51" height="1.52" fill="#cc1d1d"/>
    <rect x="12.88" y="14.4" width="1.51" height="1.51" fill="#cc1d1d"/>
    <rect x="12.88" y="12.88" width="1.51" height="1.52" fill="#cc1d1d"/>
    <rect x="12.88" y="11.37" width="1.51" height="1.51" fill="#cc1d1d"/>
    <rect x="12.88" y="9.85" width="1.51" height="1.51" fill="#cc1d1d"/>
    <rect x="12.88" y="8.34" width="1.51" height="1.52" fill="#ef5454"/>
    <rect x="12.88" y="6.82" width="1.51" height="1.51" fill="#fff"/>
    <rect x="11.37" y="43.18" width="1.52" height="1.51" fill="#fff"/>
    <rect x="11.37" y="41.66" width="1.52" height="1.52" fill="#aa0707"/>
    <rect x="11.37" y="40.15" width="1.52" height="1.51" fill="#cc1d1d"/>
    <rect x="11.37" y="38.63" width="1.52" height="1.52" fill="#cc1d1d"/>
    <rect x="11.37" y="37.12" width="1.52" height="1.51" fill="#cc1d1d"/>
    <rect x="11.37" y="35.6" width="1.52" height="1.52" fill="#cc1d1d"/>
    <rect x="11.37" y="34.09" width="1.52" height="1.51" fill="#cc1d1d"/>
    <rect x="11.37" y="32.57" width="1.52" height="1.52" fill="#ef5454"/>
    <rect x="11.37" y="31.06" width="1.52" height="1.51" fill="#fff"/>
    <rect x="11.37" y="17.43" width="1.52" height="1.51" fill="#fff"/>
    <rect x="11.37" y="15.91" width="1.52" height="1.52" fill="#aa0707"/>
    <rect x="11.37" y="14.4" width="1.52" height="1.51" fill="#cc1d1d"/>
    <rect x="11.37" y="12.88" width="1.52" height="1.52" fill="#cc1d1d"/>
    <rect x="11.37" y="11.37" width="1.52" height="1.51" fill="#cc1d1d"/>
    <rect x="11.37" y="9.85" width="1.52" height="1.51" fill="#cc1d1d"/>
    <rect x="11.37" y="8.34" width="1.52" height="1.52" fill="#cc1d1d"/>
    <rect x="11.37" y="6.82" width="1.52" height="1.51" fill="#ef5454"/>
    <rect x="11.37" y="5.31" width="1.52" height="1.52" fill="#fff"/>
    <rect x="9.85" y="44.69" width="1.51" height="1.52" fill="#fff"/>
    <rect x="9.85" y="43.18" width="1.51" height="1.51" fill="#aa0707"/>
    <rect x="9.85" y="41.66" width="1.51" height="1.52" fill="#cc1d1d"/>
    <rect x="9.85" y="40.15" width="1.51" height="1.51" fill="#cc1d1d"/>
    <rect x="9.85" y="38.63" width="1.51" height="1.52" fill="#cc1d1d"/>
    <rect x="9.85" y="37.12" width="1.51" height="1.51" fill="#cc1d1d"/>
    <rect x="9.85" y="35.6" width="1.51" height="1.52" fill="#cc1d1d"/>
    <rect x="9.85" y="34.09" width="1.51" height="1.51" fill="#ef5454"/>
    <rect x="9.85" y="32.57" width="1.51" height="1.52" fill="#fff"/>
    <rect x="9.85" y="15.91" width="1.51" height="1.52" fill="#fff"/>
    <rect x="9.85" y="14.4" width="1.51" height="1.51" fill="#aa0707"/>
    <rect x="9.85" y="12.88" width="1.51" height="1.52" fill="#cc1d1d"/>
    <rect x="9.85" y="11.37" width="1.51" height="1.51" fill="#cc1d1d"/>
    <rect x="9.85" y="9.85" width="1.51" height="1.51" fill="#cc1d1d"/>
    <rect x="9.85" y="8.34" width="1.51" height="1.52" fill="#cc1d1d"/>
    <rect x="9.85" y="6.82" width="1.51" height="1.51" fill="#cc1d1d"/>
    <rect x="9.85" y="5.31" width="1.51" height="1.52" fill="#ef5454"/>
    <rect x="9.85" y="3.8" width="1.51" height="1.51" fill="#fff"/>
    <rect x="8.34" y="46.21" width="1.51" height="1.51" fill="#fff"/>
    <rect x="8.34" y="44.69" width="1.51" height="1.52" fill="#aa0707"/>
    <rect x="8.34" y="43.18" width="1.51" height="1.51" fill="#cc1d1d"/>
    <rect x="8.34" y="41.66" width="1.51" height="1.52" fill="#cc1d1d"/>
    <rect x="8.34" y="40.15" width="1.51" height="1.51" fill="#cc1d1d"/>
    <rect x="8.34" y="38.63" width="1.51" height="1.52" fill="#cc1d1d"/>
    <rect x="8.34" y="37.12" width="1.51" height="1.51" fill="#cc1d1d"/>
    <rect x="8.34" y="35.6" width="1.51" height="1.52" fill="#ef5454"/>
    <rect x="8.34" y="34.09" width="1.51" height="1.51" fill="#fff"/>
    <rect x="8.34" y="14.4" width="1.51" height="1.51" fill="#fff"/>
    <rect x="8.34" y="12.88" width="1.51" height="1.52" fill="#aa0707"/>
    <rect x="8.34" y="11.37" width="1.51" height="1.51" fill="#cc1d1d"/>
    <rect x="8.34" y="9.85" width="1.51" height="1.51" fill="#cc1d1d"/>
    <rect x="8.34" y="8.34" width="1.51" height="1.52" fill="#cc1d1d"/>
    <rect x="8.34" y="6.82" width="1.51" height="1.51" fill="#cc1d1d"/>
    <rect x="8.34" y="5.31" width="1.51" height="1.52" fill="#cc1d1d"/>
    <rect x="8.34" y="3.8" width="1.51" height="1.51" fill="#ef5454"/>
    <rect x="8.34" y="2.28" width="1.51" height="1.52" fill="#fff"/>
    <rect x="6.82" y="46.21" width="1.52" height="1.51" fill="#fff"/>
    <rect x="6.82" y="44.69" width="1.52" height="1.52" fill="#aa0707"/>
    <rect x="6.82" y="43.18" width="1.52" height="1.51" fill="#cc1d1d"/>
    <rect x="6.82" y="41.66" width="1.52" height="1.52" fill="#cc1d1d"/>
    <rect x="6.82" y="40.15" width="1.52" height="1.51" fill="#cc1d1d"/>
    <rect x="6.82" y="38.63" width="1.52" height="1.52" fill="#cc1d1d"/>
    <rect x="6.82" y="37.12" width="1.52" height="1.51" fill="#ef5454"/>
    <rect x="6.82" y="35.6" width="1.52" height="1.52" fill="#fff"/>
    <rect x="6.82" y="12.88" width="1.52" height="1.52" fill="#fff"/>
    <rect x="6.82" y="11.37" width="1.52" height="1.51" fill="#aa0707"/>
    <rect x="6.82" y="9.85" width="1.52" height="1.51" fill="#cc1d1d"/>
    <rect x="6.82" y="8.34" width="1.52" height="1.52" fill="#cc1d1d"/>
    <rect x="6.82" y="6.82" width="1.52" height="1.51" fill="#cc1d1d"/>
    <rect x="6.82" y="5.31" width="1.52" height="1.52" fill="#cc1d1d"/>
    <rect x="6.82" y="3.8" width="1.52" height="1.51" fill="#ef5454"/>
    <rect x="6.82" y="2.28" width="1.52" height="1.52" fill="#fff"/>
    <rect x="5.31" y="44.69" width="1.51" height="1.52" fill="#fff"/>
    <rect x="5.31" y="43.18" width="1.51" height="1.51" fill="#aa0707"/>
    <rect x="5.31" y="41.66" width="1.51" height="1.52" fill="#cc1d1d"/>
    <rect x="5.31" y="40.15" width="1.51" height="1.51" fill="#cc1d1d"/>
    <rect x="5.31" y="38.63" width="1.51" height="1.52" fill="#ef5454"/>
    <rect x="5.31" y="37.12" width="1.51" height="1.51" fill="#fff"/>
    <rect x="5.31" y="11.37" width="1.51" height="1.51" fill="#fff"/>
    <rect x="5.31" y="9.85" width="1.51" height="1.51" fill="#aa0707"/>
    <rect x="5.31" y="8.34" width="1.51" height="1.52" fill="#cc1d1d"/>
    <rect x="5.31" y="6.82" width="1.51" height="1.51" fill="#cc1d1d"/>
    <rect x="5.31" y="5.31" width="1.51" height="1.52" fill="#ef5454"/>
    <rect x="5.31" y="3.8" width="1.51" height="1.51" fill="#fff"/>
    <rect x="3.8" y="43.18" width="1.52" height="1.51" fill="#fff"/>
    <rect x="3.8" y="41.66" width="1.52" height="1.52" fill="#aa0707"/>
    <rect x="3.8" y="40.15" width="1.52" height="1.51" fill="#ef5454"/>
    <rect x="3.8" y="38.63" width="1.52" height="1.52" fill="#fff"/>
    <rect x="3.8" y="9.85" width="1.52" height="1.51" fill="#fff"/>
    <rect x="3.8" y="8.34" width="1.52" height="1.52" fill="#aa0707"/>
    <rect x="3.8" y="6.82" width="1.52" height="1.51" fill="#ef5454"/>
    <rect x="3.8" y="5.31" width="1.52" height="1.52" fill="#fff"/>
    <rect x="2.28" y="41.66" width="1.51" height="1.52" fill="#fff"/>
    <rect x="2.28" y="40.15" width="1.51" height="1.51" fill="#fff"/>
    <rect x="2.28" y="8.34" width="1.51" height="1.52" fill="#fff"/>
    <rect x="2.28" y="6.82" width="1.51" height="1.51" fill="#fff"/>
  </g>
</svg>
