<svg id="Capa_1" data-name="Capa 1" xmlns="http://www.w3.org/2000/svg" xmlns:xlink="http://www.w3.org/1999/xlink" width="50" height="50" viewBox="0 0 50 50">
  <defs>
    <clipPath id="clip-path">
      <polygon points="24.04 49.76 1.25 39.47 1.41 9.17 24.2 19.46 24.04 49.76" fill="none"/>
    </clipPath>
    <clipPath id="clip-path-2">
      <polygon points="24.2 19.46 1.41 9.17 25.96 0.24 48.75 10.53 24.2 19.46" fill="none"/>
    </clipPath>
    <clipPath id="clip-path-3">
      <polygon points="48.75 10.53 48.59 40.82 24.04 49.76 24.2 19.46 48.75 10.53" fill="none"/>
    </clipPath>
  </defs>
  <g id="Figment_lido">
    <g style="isolation: isolate">
      <g>
        <polygon points="24.04 49.76 1.25 39.47 1.41 9.17 24.2 19.46 24.04 49.76" fill="#d6d6d6"/>
        <g style="isolation: isolate">
          <g clip-path="url(#clip-path)">
            <g>
              <path d="M8.93,26.35,6,25l0,0,.1,0,2.77,1.24m2.42-4-.11-.05h0l.11,0m1.94.87-.14-.06.13.07h0m-3.71-1.7h0M5.87,17.65h0M16.18,29.59l-2.87-1.3.15,0,4,1.77.15.11-1.4-.62M15,26.88v0L17.44,28v0L15,26.88M7.53,23.53v0l2,.88v0l-2-.88m0-.1,0-.21V20.83c0-.07,0-.16,0-.18v2.78M15,21.7v0l-1.52-.67L13.3,21h-.08l-1.88-.84-.1-.08H11.1l-1.52-.69v0h0l-.11,0-.1-.05L6.05,17.71H6l0,0a.27.27,0,0,0-.12,0c-.06.14,0,.34-.06.48,0,2.17,0,4.34,0,6.51l0,.25.06.06h0v0h0l0-7.12,0,0,0,7.12h0L11,27.21l.11,0a.19.19,0,0,1,.09.09l-.14,0-.2-.09.33.16h.07a5.8,5.8,0,0,0,0-1.11V24.34a.89.89,0,0,0,0-.32s0,0,0,0h0l0,.13V25a.83.83,0,0,0-.23-.15l-.12,0-.2-.09c-.18-.1-.36-.18-.54-.27l-.38-.17h0s-.08,0-.13,0v0h0l-.1.06-.93-.43-.93-.42-.06-.06,0-.15V21l.07-.17a.38.38,0,0,1,.17,0l.07,0,1.5.67.08,0a.23.23,0,0,0,.18,0h0v0l-2-.91H7.6l0,0,0,0h0l1.81.81.05,0h0a.05.05,0,0,1,0,0l0,0,.06,0h0l1.65.74.15,0,1.75.78.15.12,1.65.74.14,0,2.29,1,0,0,.05,0-.05,0,0,0-2.48-1.12h0V24h0a.31.31,0,0,0,.17.14l.1.05,1,.46,1,.45a1.24,1.24,0,0,1,.65.75,1.94,1.94,0,0,1,.12.58,2,2,0,0,1,0,.65,1.08,1.08,0,0,1-.13.46.43.43,0,0,1-.64.22h0l-.93-.43L15,26.76l-.11-.14h0a.27.27,0,0,1-.15,0,.7.7,0,0,1-.16-.1l-.21-.11a1.31,1.31,0,0,0-.28-.09l-.08,0-.22-.13-.15-.06-.21-.1c-.07,0-.09,0-.15,0v-.64c0-.1,0-.2,0-.29v0l-.05,0a1,1,0,0,0,0,.3c0,.59,0,1.17,0,1.75a3.53,3.53,0,0,0,0,.46,2.18,2.18,0,0,0,0,.67l.06.07.72.32.72.32,1.38.62,1.39.63.06.05a1.22,1.22,0,0,0,1.12,0,1.31,1.31,0,0,0,.53-.56,3,3,0,0,0,.35-1,5.16,5.16,0,0,0,.11-1,2.92,2.92,0,0,0-.08-1l0-.26a6.24,6.24,0,0,0-.51-1.9A3.81,3.81,0,0,0,17.64,23a.25.25,0,0,0-.1-.08l-.09,0-2.28-1-.09,0A.25.25,0,0,1,15,21.7" fill="#ce112b"/>
              <path d="M15.34,32.05l-2.08-.93c0,.33-.06.65-.07,1,0,1.35,0,2.69,0,4.06l0,0v2.27l-.06,0v1.1a1.79,1.79,0,0,0,0,.56l.06.07,1.38.61.09,0c.06,0,.11,0,.15,0s0-.22,0-.34c0-.41,0-.85,0-1.25h0v0c0-.75,0-1.5,0-2.25h0a1.83,1.83,0,0,1,0-.32V34.78a2.46,2.46,0,0,1,0-.55s.08,0,.12,0l.09,0,2.07.93.09,0a.29.29,0,0,1,.14.11,4.67,4.67,0,0,1,.3.43,2,2,0,0,1,.17.57l0,.26a2.59,2.59,0,0,1,0,.62l0,.06,0,.16a1.42,1.42,0,0,1-.07.22.44.44,0,0,1-.52.32.52.52,0,0,1-.16-.06l-.1,0-.1-.05a.7.7,0,0,0-.19-.06l0,0h0c0,.44,0,.87,0,1.32,0,.28,0,.54,0,.82l.14.07.2.08.14.06a2.91,2.91,0,0,1,.42.23l-.16,0,.13.08a1.17,1.17,0,0,0,1,0,1.79,1.79,0,0,0,.53-.56,4.32,4.32,0,0,0,.33-.9c.06-.13,0-.34.07-.47a7.11,7.11,0,0,0,0-1v-.13a1.38,1.38,0,0,1,0-.4l0-.12a2,2,0,0,0-.1-.49c0-.1-.05-.2-.07-.3a4,4,0,0,0-2-3l-2.07-.94" fill="#ce112b"/>
              <path d="M11,39.11l-.56-.24-.76-.35,0,0,.62.28.62.28H11M7.45,33.55c-.07,0,0-.1,0-.14V31c0-.08,0-.18,0-.19,0,.91,0,1.84,0,2.77M5.82,27.78c-.06.13,0,.35-.05.48v.16l0,6.53,0,.15.06,0h0l0,0c0-.06,0-.06.09,0l.08,0,1.62.72v0c0-.37,0-.73,0-1.11a2.21,2.21,0,0,1,0-.78c0-.08-.07-.16-.07-.24h0l-.11-.13,0-.06c0-.8,0-1.59,0-2.39l0-.2.76.32.43.2.44.2.22.09a.24.24,0,0,1,.12.24c0,.84,0,1.69,0,2.51v.06h0l0,.19v2.08h0l0,0v1.32a.72.72,0,0,0,0,.32l0,0,0,0,1.58.71h0V37.56h0v1.55h0v.05l0,0,0-.11c0-.19,0-.4,0-.6s0-.32,0-.49v-.44l-.05,0V35.27h0v-.1a.53.53,0,0,0,.05-.32c0-1.25,0-2.49,0-3.75,0-.3,0-.6-.06-.91L5.82,27.78" fill="#ce112b"/>
              <path d="M13.34,20.38c0,.12,0,.27,0,.37a.13.13,0,0,1,0-.06.07.07,0,0,1,0,0V21l.14.1,1.52.67v0a2.44,2.44,0,0,0,0-.27s0,0,0,0h0c-.16-.09-.32-.18-.48-.25l-.2-.08a.52.52,0,0,1-.16-.06l-.19-.1-.19-.09a.75.75,0,0,0-.24-.08l0,0a.16.16,0,0,1-.08-.18l0-.16" fill="#850c1d"/>
              <path d="M11.22,18.4c0,.12,0,.28,0,.37a.27.27,0,0,1-.14,0l-.14-.07-.13-.07-.12,0a.63.63,0,0,1-.22-.05l-.18-.11-.17-.08a.57.57,0,0,0-.25-.06H9.77a.49.49,0,0,1-.16-.16h0v.14a.09.09,0,0,1,0,.05v-.05a.35.35,0,0,0,.17.17l.09,0,.81.35.36.17.1,0s.06,0,.07,0,0,.08,0,.13v.39c0,.18,0,.36,0,.54h0V20a8.34,8.34,0,0,0,0-1.12c0-.17,0-.29,0-.46" fill="#ab0e24"/>
              <path d="M11.14,18.32l-.08,0-1.45-.66v.09l.94.43.48.21a.22.22,0,0,1,.15.27v.14c.08-.09,0-.25,0-.37a.13.13,0,0,0-.08-.08" fill="#ba051e"/>
              <path d="M13.49,19.37a.18.18,0,0,0-.14,0c-.1,0,0,.32,0,.48a4.12,4.12,0,0,0,0,.86.13.13,0,0,0,0,.06c0-.1,0-.25,0-.37V19.7h0c0-.35,0-.35.25-.24l1.36.61v0l-1.22-.55h0l-.09,0-.11-.05" fill="#b20f25"/>
              <path d="M11.05,24.45a.48.48,0,0,0-.15,0l-.15-.06-.35-.17L10,24a3,3,0,0,0-.47-.17v.39s.08,0,.13,0h0l.38.17c.18.09.36.17.54.27l.2.09.12,0a.83.83,0,0,1,.23.15v-.3a.3.3,0,0,0-.15-.21" fill="#c61029"/>
              <path d="M14.93,25.94a.5.5,0,0,1-.29-.05.37.37,0,0,1-.12-.07l-.26-.16a1.15,1.15,0,0,0-.29-.08l-.1,0a1.3,1.3,0,0,1-.25-.18l-.1-.07a.16.16,0,0,0-.2.06v.33c0-.06.09,0,.17,0l0,0,.35.16a5.08,5.08,0,0,0,.71.26l0,0a2.59,2.59,0,0,1,.31.19v-.4" fill="#c01028"/>
              <path d="M14.62,26.15l0,0a5.08,5.08,0,0,1-.71-.26l-.35-.16,0,0c-.08,0-.13-.05-.17,0V26c.06,0,.08-.07.15,0l.21.1.15.06.22.13.08,0a1.31,1.31,0,0,1,.28.09l.21.11a.7.7,0,0,0,.16.1.27.27,0,0,0,.15,0h0v-.28a2.59,2.59,0,0,0-.31-.19" fill="#c9112a"/>
              <path d="M14.93,25.65a.29.29,0,0,1-.16,0l0,0a1.86,1.86,0,0,0-.33-.19,3.61,3.61,0,0,0-.42-.16l-.07,0a1,1,0,0,1-.17-.1L13.51,25c-.1,0-.15,0-.19.06h0c0,.09,0,.19,0,.29a.16.16,0,0,1,.2-.06l.1.07a1.3,1.3,0,0,0,.25.18l.1,0a1.15,1.15,0,0,1,.29.08l.26.16a.37.37,0,0,0,.12.07.5.5,0,0,0,.29.05v-.29" fill="#b60f26"/>
              <path d="M11,24.11a.77.77,0,0,0-.19-.05.47.47,0,0,1-.15-.06l-.16-.07-.11-.06a1.2,1.2,0,0,0-.29-.09l-.06,0c-.08,0-.18-.12-.27-.17a.25.25,0,0,0-.19,0v.25A3,3,0,0,1,10,24l.36.18.35.17.15.06a.48.48,0,0,1,.15,0,.3.3,0,0,1,.15.21v-.3a.36.36,0,0,0-.2-.25" fill="#bd0f27"/>
              <path d="M11.22,23.34h0v.35c0,.09,0,.11-.13.06l-.11,0c-.25-.14-.5-.26-.74-.37s-.36-.16-.54-.22h-.1v.24a1.12,1.12,0,0,1,.34.11l.13.05c.19.07.38.16.56.24s.21.05.31.1a.58.58,0,0,1,.28.28l0-.13h0v-.65" fill="#ac0e24"/>
              <path d="M10.92,23.84c-.1-.05-.21-.06-.31-.1s-.37-.17-.56-.24l-.13-.05a1.12,1.12,0,0,0-.34-.11v.24a.25.25,0,0,1,.19,0c.09.05.19.13.27.17l.06,0a1.2,1.2,0,0,1,.29.09l.11.06.16.07a.47.47,0,0,0,.15.06.77.77,0,0,1,.19.05.36.36,0,0,1,.2.25v-.24a.58.58,0,0,0-.28-.28" fill="#b50f26"/>
              <path d="M11.09,27.25l-.11,0L5.9,24.92h0v0h0L6,25H6l2.92,1.31,1.91.86.2.09.14,0a.19.19,0,0,0-.09-.09" fill="#ba0821"/>
              <path d="M5.93,17.8l0,0,0,7.12h0l0-7.12" fill="#cb0923"/>
              <path d="M17.43,30.1l-4-1.77-.15,0,2.87,1.3,1.4.62-.15-.11" fill="#ba0821"/>
              <path d="M13.14,23.08l-1.75-.78-.15,0v0l.11.05,1.8.81.14.06v0l-.15-.12" fill="#c50b25"/>
              <path d="M17.44,28,15,26.86v0L17.44,28v0" fill="#cd0a24"/>
              <path d="M17.37,25l-2.29-1-.14,0,2.48,1.12,0,0h0l0,0" fill="#c40b24"/>
              <path d="M14.94,23.94l-1.65-.74v0h0V24h0V23.9c0-.58,0-.64.33-.48l.13,0L15,24h0V24h0" fill="#940d20"/>
              <path d="M9.44,21.42l-1.81-.81H7.54l2,.91h0l-.06,0,0,0-.05,0" fill="#c30a24"/>
              <path d="M11.24,22.28l-1.65-.74h0v0h0c.49.22,1,.45,1.49.66a.23.23,0,0,1,.13.26v.35h0c0-.18,0-.35,0-.53h0v0" fill="#970d21"/>
              <path d="M7.51,20.65c-.06,0,0,.11,0,.18v2.39l0,.21V20.65" fill="#cd0b26"/>
              <path d="M9.49,24.39l-1.95-.88v0l2,.88v0" fill="#cd0924"/>
              <path d="M11.21,20l-1.62-.73h0v0L11.1,20h.11" fill="#ab0e24"/>
              <path d="M13.32,24h0v1.07h0V24" fill="#b60f26"/>
              <path d="M15.05,37,15,37h0c0,.75,0,1.5,0,2.25v0h0l.07,0a.3.3,0,0,1,.18,0l.11.06.1,0,0,0,.25.1v0l-.17-.07-.18-.09-.08,0c-.11-.05-.13-.16-.12-.34,0-.41,0-.86,0-1.25,0-.06,0-.15,0-.24s0-.3.16-.31h0s0,0,0,0l-.07,0-.07,0-.09,0" fill="#820b1c"/>
              <path d="M16.34,37.57l-.16-.06,0,0h0a6.92,6.92,0,0,0,0,1,4.12,4.12,0,0,1,0,1.12l-.4-.18h0l-.25-.1v0l1.28.58.42.19a1.66,1.66,0,0,0,.37.14l.16,0a2.91,2.91,0,0,0-.42-.23l-.14-.06-.2-.08L16.78,40l-.25-.11a.41.41,0,0,1-.2-.47,3.86,3.86,0,0,0,0-.68c0-.35,0-.73,0-1.06l0-.06" fill="#b81027"/>
              <path d="M13.23,36.18l0,0-.28-.11a.44.44,0,0,1,.11.3c0,.59,0,1.21,0,1.83,0,.07,0,.07,0,.06l-.05,0-.06,0h0v0l.07.08.27.13.06,0V36.18" fill="#840b1d"/>
              <path d="M16.64,37.71h-.07l0,0-.06.2c.05.25,0,.43,0,.64s0,.42,0,.64a2.2,2.2,0,0,1,0,.63l.25.11c0-.28,0-.54,0-.82,0-.45,0-.88,0-1.32h0l-.14-.09" fill="#c71029"/>
              <path d="M11.19,35.27v2.26l.05,0,.24.1.14,0v-.05l-.06,0c-.16-.07-.1-.28-.09-.38a2.61,2.61,0,0,0,0-.39v0a7.56,7.56,0,0,0,0-1.17l.06-.2-.3-.14h0" fill="#840c1d"/>
              <path d="M7.7,33.65a.1.1,0,0,0-.09,0h0c0,.08.09.16.07.24a2.21,2.21,0,0,0,0,.78c0,.38,0,.74,0,1.11v0l.24.11v0a1.16,1.16,0,0,1,0-.61c0-.07,0-.23,0-.34a6.13,6.13,0,0,1,0-1c0-.06-.06-.16,0-.25h0l0-.05a.28.28,0,0,0-.09-.07" fill="#c8102a"/>
              <path d="M5.91,35.06s-.07,0-.09,0l0,0,.06,0a1.66,1.66,0,0,0,.41.26l.26.11c.16.06.31.14.46.21l.29.13a4.53,4.53,0,0,0,.57.23l0,0-.1-.13h0l-.24-.11h0L6,35.1l-.08,0" fill="#c11129"/>
              <path d="M7.47,30.78c-.07,0,0,.11,0,.19v2.44s0,.1,0,.14c0-.93,0-1.86,0-2.77" fill="#cd0b26"/>
              <path d="M9.5,34.52h0v2c0,.18,0,.23-.13.19l0,0-.09,0-.16-.07v.06a.7.7,0,0,0,.2.16.31.31,0,0,0,.19,0h0l0,0h0V34.71l0-.19" fill="#8c0c1f"/>
              <path d="M11.13,39.12h0L9.52,38.4l0,0,0,0,.09,0,.76.35.56.24.15.06v-.05" fill="#b8132a"/>
              <path d="M11.13,37.57h0v1.55h0V37.57" fill="#cd0924"/>
              <path d="M12.3,35.77l-.18-.08c-.19.13-.11.46-.1.71s0,.35,0,.55,0,.42,0,.65l0,.2.46.21c0-.36,0-.68,0-1a8.8,8.8,0,0,1,0-.89c0-.19-.11-.2-.16-.31" fill="#aa0e24"/>
              <path d="M11.65,35.47l-.14,0-.06.2a7.56,7.56,0,0,1,0,1.17v0a2.61,2.61,0,0,1,0,.39c0,.1-.07.31.09.38l.06,0h0c0-.48.07-.94,0-1.45a5,5,0,0,1,0-.55c0-.07,0-.07,0-.06h0l0,0,0,0-.15-.08" fill="#8f0c1f"/>
              <path d="M12.91,36.05l-.11,0a.36.36,0,0,1,.07.24,14.75,14.75,0,0,0,0,1.49,2.12,2.12,0,0,1,0,.44h0l.06,0,.05,0s0,0,0-.06c0-.62,0-1.24,0-1.83a.44.44,0,0,0-.11-.3" fill="#8e0c1e"/>
              <path d="M12.8,36l-.14-.06a3.92,3.92,0,0,1,0,.76c0,.47,0,.95,0,1.42l.11.05a2.12,2.12,0,0,0,0-.44,14.75,14.75,0,0,1,0-1.49A.36.36,0,0,0,12.8,36" fill="#970c20"/>
              <path d="M12.12,35.69l-.18-.08s-.09.06-.07.16c.06.27,0,.48,0,.76a1,1,0,0,1,0,.39,5.34,5.34,0,0,1,0,.8v0l.14.06,0-.2c0-.23,0-.44,0-.65s0-.36,0-.55-.09-.58.1-.71" fill="#a30d22"/>
              <path d="M12.41,35.81l-.11,0c0,.11.16.12.16.31a8.8,8.8,0,0,0,0,.89c0,.36,0,.68,0,1l.11.05h0a15.14,15.14,0,0,1,0-1.65.94.94,0,0,0-.09-.55l-.11-.06" fill="#a30d22"/>
              <path d="M11.94,35.61l-.14-.06,0,0c0,.7,0,1.41,0,2.1h0l.1.05v0a5.34,5.34,0,0,0,0-.8,1,1,0,0,0,0-.39c-.08-.28,0-.49,0-.76,0-.1,0-.11.07-.16" fill="#9e0d22"/>
              <path d="M12.66,35.94l-.14-.07a.94.94,0,0,1,.09.55,15.14,15.14,0,0,0,0,1.65l.11,0c0-.47,0-.95,0-1.42a3.92,3.92,0,0,0,0-.76" fill="#9e0d22"/>
              <path d="M15,21.2,14.39,21c-.24-.11-.48-.19-.71-.29l-.24-.12h-.07a.16.16,0,0,0,.08.18l0,0a.75.75,0,0,1,.24.08l.19.09.19.1a.52.52,0,0,0,.16.06l.2.08c.16.07.32.16.48.25h0V21.2" fill="#8b0c1e"/>
              <path d="M13.34,20.23v.15l0,.16h.07l.24.12c.23.1.47.18.71.29l.56.25v-.15l-.88-.41-.52-.22-.05,0a.25.25,0,0,1-.16-.17" fill="#930c20"/>
              <path d="M11.21,19.47l0,0c0,.09,0,.17-.06.14l-.06,0a.3.3,0,0,0-.11-.06l-.13-.05-.11,0-.06,0-.12-.06-.29-.12L10,19.14A1.63,1.63,0,0,1,9.65,19H9.6c0,.11,0,.22,0,.33l1.62.73c0-.18,0-.36,0-.54" fill="#850c1d"/>
              <path d="M10.73,18.35a.54.54,0,0,1-.32-.06l-.23-.12L10,18,9.78,18h0l0-.05a.46.46,0,0,0-.07-.07h0v.2h0a.49.49,0,0,0,.16.16h.06a.57.57,0,0,1,.25.06l.17.08.18.11a.63.63,0,0,0,.22.05l.12,0,.13.07.14.07a.27.27,0,0,0,.14,0v-.14l-.13-.05a1.11,1.11,0,0,1-.27-.19l0,0" fill="#b40f26"/>
              <path d="M11.21,19.23c0,.1-.1.09-.17.06l0,0-.43-.21-.21-.1-.22-.09a3.47,3.47,0,0,1-.46-.25H9.6v.15A3.65,3.65,0,0,0,10,19l.36.14.17.07c.21.09.41.21.62.32l0,0v-.24" fill="#940d20"/>
              <path d="M9.6,18.35v.25h.07a3.47,3.47,0,0,0,.46.25l.22.09.21.1.43.21,0,0c.07,0,.14,0,.17-.06v-.15c0,.07-.1.05-.17,0l0,0-1.27-.57h0a.52.52,0,0,1-.12-.16" fill="#9b0d21"/>
              <path d="M9.6,18.21v.14a.52.52,0,0,0,.12.16h0l1.27.57,0,0c.07,0,.13,0,.17,0s0-.12,0-.13,0,0-.07,0l-.1,0-.36-.17-.81-.35-.09,0a.35.35,0,0,1-.17-.17" fill="#a30e23"/>
              <path d="M11,18.36l-.48-.21-.94-.43v.15s0,0,0,0h0a.46.46,0,0,1,.07.07l0,.05h0L10,18l.23.13.23.12a.54.54,0,0,0,.32.06l0,0a1.11,1.11,0,0,0,.27.19l.13.05a.22.22,0,0,0-.15-.27" fill="#ba1027"/>
              <path d="M9.6,18.75V19h.05a1.63,1.63,0,0,0,.34.19l.25.11.29.12.12.06.06,0,.11,0,.13.05a.3.3,0,0,1,.11.06l.06,0c.07,0,.06,0,.06-.14-.21-.11-.41-.23-.62-.32l-.17-.07L10,19a3.65,3.65,0,0,1-.43-.23" fill="#8d0c1e"/>
              <path d="M14.48,20.09a.81.81,0,0,0-.29-.09A.41.41,0,0,1,14,20l-.16-.09-.15-.09-.11,0a1.27,1.27,0,0,1-.23-.12v.1h0a.4.4,0,0,0,.2.26l.09,0a3.39,3.39,0,0,1,.41.15c.18.08.37.18.55.28l0,0,.09,0,.11,0a.24.24,0,0,1,.09.06v-.2a2.91,2.91,0,0,0-.47-.28" fill="#b20f25"/>
              <path d="M15,20.12,14,19.7l-.47-.21c-.11,0-.18-.06-.17.12a1.27,1.27,0,0,0,.23.12l.11,0,.15.09L14,20a.41.41,0,0,0,.17.05.81.81,0,0,1,.29.09,2.91,2.91,0,0,1,.47.28v-.25" fill="#ba1027"/>
              <path d="M13.37,19.71h0v.19a.31.31,0,0,0,.16.2l.1,0,.46.23a3.13,3.13,0,0,0,.32.15l.14.06.12.06.09,0a.46.46,0,0,0,.22.06v-.15a.24.24,0,0,0-.09-.06l-.11,0-.09,0,0,0c-.18-.1-.37-.2-.55-.28a3.39,3.39,0,0,0-.41-.15l-.09,0a.4.4,0,0,1-.2-.26" fill="#a80e24"/>
              <path d="M13.34,20.09v.14a.25.25,0,0,0,.16.17l.05,0,.52.22.88.41v-.14c-.15-.08-.31-.21-.46-.28a.69.69,0,0,0-.24-.05s0,0-.07,0a.88.88,0,0,1-.17-.12l-.08,0-.18-.07-.17-.06a.57.57,0,0,1-.24-.19" fill="#9b0d21"/>
              <path d="M13.34,19.89v.2a.57.57,0,0,0,.24.19l.17.06.18.07.08,0a.88.88,0,0,0,.17.12s.05,0,.07,0a.69.69,0,0,1,.24.05c.15.07.31.2.46.28v-.19a.46.46,0,0,1-.22-.06l-.09,0-.12-.06-.14-.06a3.13,3.13,0,0,1-.32-.15l-.46-.23-.1,0a.31.31,0,0,1-.16-.2" fill="#a20e22"/>
              <path d="M15,20.07l-1.36-.61c-.25-.11-.25-.11-.25.24h0v-.1c0-.18.06-.17.17-.12l.47.21.94.42v-.05" fill="#ba051e"/>
              <path d="M11.07,22.24c-.5-.21-1-.44-1.49-.66v.49a.32.32,0,0,1,.3,0,.38.38,0,0,1,.13.08l0,0c.06,0,.12,0,.18,0l.13,0,.29.14.24.13.15.06h0c.12.06.11.18.15.28V22.5a.23.23,0,0,0-.13-.26" fill="#830c1d"/>
              <path d="M10.36,22.24l-.13,0c-.06,0-.12,0-.18,0l0,0a.38.38,0,0,0-.13-.08.32.32,0,0,0-.3,0v.15a3.83,3.83,0,0,1,.69.25,5.7,5.7,0,0,1,.69.36H11l.06,0a.23.23,0,0,1,.11.16h0v-.18c0-.1,0-.22-.15-.28h0l-.15-.06-.24-.13-.29-.14" fill="#880c1e"/>
              <path d="M10.27,22.47a3.83,3.83,0,0,0-.69-.25v.29c.11,0,.21,0,.34.06l.17.07.35.16.11.05.5.25c.11.06.11.15.15.23V23a.23.23,0,0,0-.11-.16l-.06,0H11a5.7,5.7,0,0,0-.69-.36" fill="#8f0c1f"/>
              <path d="M10.09,22.64l-.17-.07c-.13-.05-.23-.1-.34-.06v.24c.05-.06.09-.06.17,0l0,0,.23.11.23.1.34.14.14.06.11.06.1,0a.87.87,0,0,1,.26.18v-.1c0-.08,0-.17-.15-.23l-.5-.25-.11-.05-.35-.16" fill="#970d21"/>
              <path d="M10.55,23.26l-.35-.15L10,23l-.23-.11h0c-.08,0-.09.08-.15.06v.15h.1c.18.06.36.14.54.22s.49.23.74.37l.11,0c.09.05.12,0,.13-.06a.59.59,0,0,0-.3-.26l-.05,0-.06,0-.06,0-.18-.08" fill="#a50e23"/>
              <path d="M10.59,23.09,10.25,23l-.23-.1-.23-.11,0,0c-.08,0-.12,0-.17,0V23c.06,0,.07-.09.15-.06h0L10,23l.23.1.35.15.18.08.06,0,.06,0,.05,0a.59.59,0,0,1,.3.26v-.25a.87.87,0,0,0-.26-.18l-.1,0-.11-.06-.14-.06" fill="#9e0d22"/>
              <path d="M13.66,23.42c-.34-.16-.34-.1-.33.48,0-.13.11-.14.21-.1l.06,0,.2.1L14,24l.32.14.11,0,.12.05.11.05a1.33,1.33,0,0,1,.28.16c0-.16,0-.32,0-.48h0l-1.16-.53-.13,0" fill="#840b1d"/>
              <path d="M13.54,23.8c-.1,0-.17,0-.21.1v.24a.15.15,0,0,1,.22-.06s0,0,.06,0a3,3,0,0,0,.4.21c.21.1.43.17.64.26a2.39,2.39,0,0,1,.21.13.12.12,0,0,0,.08,0v-.24a1.33,1.33,0,0,0-.28-.16l-.11-.05-.12-.05-.11,0L14,24l-.2-.09-.2-.1-.06,0" fill="#8c0c1e"/>
              <path d="M14.08,25l-.41-.16h0l-.08,0-.07,0c-.07,0-.13,0-.17,0v.25c0-.08.09-.1.19-.06l.22.13a1,1,0,0,0,.17.1l.07,0a3.61,3.61,0,0,1,.42.16,1.86,1.86,0,0,1,.33.19l0,0a.29.29,0,0,0,.16,0v-.19c-.28-.14-.57-.3-.85-.43" fill="#ad0e24"/>
              <path d="M13.46,24.26c-.07,0-.11,0-.14.08v.29c0-.09.07-.13.17-.09l0,0a1,1,0,0,0,.23.12l.24.1.32.14.29.14a1.07,1.07,0,0,0,.32.1V25c-.16-.07-.33-.17-.5-.24l-.2-.08-.17-.07c-.2-.09-.39-.21-.6-.31" fill="#9b0d21"/>
              <path d="M13.54,24.08a.15.15,0,0,0-.22.06v.2c0-.06.07-.11.14-.08s.4.22.6.31l.17.07.2.08c.17.07.34.17.5.24v-.24a.12.12,0,0,1-.08,0,2.39,2.39,0,0,0-.21-.13c-.21-.09-.43-.16-.64-.26a3,3,0,0,1-.4-.21s0,0-.06,0" fill="#940d20"/>
              <path d="M14.93,25.16a1.07,1.07,0,0,1-.32-.1l-.29-.14L14,24.78l-.24-.1a1,1,0,0,1-.23-.12l0,0c-.1,0-.13,0-.17.09v.19c0-.07.1-.06.17,0l.07,0,.08,0h0l.41.16c.28.13.57.29.85.43v-.3" fill="#a40e23"/>
              <path d="M11.23,22.86h0v.48h0v-.48" fill="#a50e23"/>
              <path d="M15.2,39.29a.3.3,0,0,0-.18,0l.43.19v0l0,0-.1,0-.11-.06" fill="#980e21"/>
              <path d="M12.58,38.06,12.47,38,12,37.8l-.14-.06h0s-.09,0-.14,0h0l-.08,0-.14,0,1.43.65-.07-.08-.09,0-.06,0a.19.19,0,0,1-.1-.1" fill="#9e0d22"/>
              <path d="M15.32,37.14c-.14,0-.17.12-.16.31s.05.18,0,.24c-.06.39,0,.84,0,1.25,0,.18,0,.29.12.34l.08,0c0-.34,0-.69,0-1a7.29,7.29,0,0,1,0-.81.77.77,0,0,1,.06-.24l-.11-.06h0" fill="#8a0c1e"/>
              <path d="M15.78,37.36l-.14-.07c-.13,0-.15.1-.13.3s0,.63,0,.95a1.92,1.92,0,0,0,0,.75l0,.1.17.07h0a5.32,5.32,0,0,0,0-.89c0-.39.06-.75,0-1.16l.06,0" fill="#980e21"/>
              <path d="M15.64,37.29l-.21-.09a.77.77,0,0,0-.06.24,7.29,7.29,0,0,0,0,.81c0,.36,0,.71,0,1l.18.09,0-.1a1.92,1.92,0,0,1,0-.75c0-.32,0-.62,0-.95s0-.3.13-.3" fill="#900c1f"/>
              <path d="M15.92,39.56l-.22-.1v0l.4.18-.18-.13" fill="#980e21"/>
              <path d="M16.18,37.54h0L16,37.46c-.12.06-.08.27-.06.4,0,.34-.06.61,0,1s-.06.47,0,.74l.18.13a4.12,4.12,0,0,0,0-1.12,6.92,6.92,0,0,1,0-1" fill="#ad0e24"/>
              <path d="M16.61,37.73l0,0-.21-.09h0c-.06.33,0,.71,0,1.06a3.86,3.86,0,0,1,0,.68.41.41,0,0,0,.2.47,2.2,2.2,0,0,0,0-.63c0-.22,0-.4,0-.64s.06-.39,0-.64l.06-.2" fill="#bf1028"/>
              <path d="M12.83,38.17l-.11-.05-.11,0h0a.19.19,0,0,0,.1.1l.06,0,.09,0v0" fill="#8e0c1e"/>
              <path d="M16,37.46l-.22-.1-.06,0c0,.41,0,.77,0,1.16a5.32,5.32,0,0,1,0,.89l.22.1c0-.27.07-.47,0-.74s0-.62,0-1c0-.13-.06-.34.06-.4" fill="#a20d22"/>
              <path d="M11.86,37.74l-.1-.05h0l-.14-.07v.05l.08,0h0s.1,0,.14,0" fill="#8f0c1f"/>
              <path d="M8,33.83l-.13-.06h0c0,.09.06.19,0,.25a6.13,6.13,0,0,0,0,1c0,.11,0,.27,0,.34a1.16,1.16,0,0,0,0,.61v0L8,36v0a.73.73,0,0,1,0-.47c.08-.49,0-1.06,0-1.52,0-.08-.06-.12-.08-.18" fill="#c11129"/>
              <path d="M8.28,34l-.11,0a2,2,0,0,1,0,.81c0,.25,0,.52,0,.76s0,.27,0,.4,0,.18-.09.14l0,0H8l-.16-.08.1.13H8l.5.23v0l-.17-.09h0v0a.58.58,0,0,0,0-.37v-.12c.08-.41,0-.9,0-1.31A.63.63,0,0,0,8.28,34" fill="#b20f26"/>
              <path d="M9.49,34.51h0l-.33-.14a.42.42,0,0,1,.08.33,6.19,6.19,0,0,0,0,.75c0,.32,0,.67,0,1,0,.1,0,.11-.07.09l-.06,0-.06,0H9v0l.1,0h0l.16.07.09,0,0,0c.1,0,.14,0,.13-.19v-2h0" fill="#840b1d"/>
              <path d="M8.74,34.18l-.14-.06c.14.18.06.34.07.5,0,.48,0,.92,0,1.42,0,.08.05.29-.09.23l0,0-.07,0v.05l.18.12.39.18v0l-.1,0H9l-.19-.09h.08c0-.62,0-1.21,0-1.8a.65.65,0,0,0-.1-.4" fill="#9b0d21"/>
              <path d="M9.14,34.36l-.22-.09a.48.48,0,0,1,.08.31c0,.64,0,1.24,0,1.86H9l.06,0,.06,0s.07,0,.07-.09c0-.31,0-.66,0-1a6.19,6.19,0,0,1,0-.75.42.42,0,0,0-.08-.33" fill="#8c0c1f"/>
              <path d="M8.17,33.93,8,33.83c0,.06.1.1.08.18-.09.46,0,1,0,1.52A.73.73,0,0,0,8,36v0l0,0c.08,0,.09,0,.09-.14s0-.28,0-.4,0-.51,0-.76a2,2,0,0,0,0-.81" fill="#ba0f27"/>
              <path d="M8.92,34.27l-.18-.09a.65.65,0,0,1,.1.4c0,.59,0,1.18,0,1.8l.11,0H9c0-.62,0-1.22,0-1.86a.48.48,0,0,0-.08-.31" fill="#940d20"/>
              <path d="M8.6,34.12l-.15-.07a1.67,1.67,0,0,1,.07.72,10.51,10.51,0,0,0,0,1.48l0,0c.14.06.1-.15.09-.23,0-.5,0-.94,0-1.42,0-.16.07-.32-.07-.5" fill="#a30e22"/>
              <path d="M8.45,34.05,8.28,34a.63.63,0,0,1,.09.38c-.06.41,0,.9,0,1.31v.12a.58.58,0,0,1,0,.37l.15.07.07,0a10.51,10.51,0,0,1,0-1.48,1.67,1.67,0,0,0-.07-.72" fill="#ab0e24"/>
              <path d="M11.76,35.59l0,0h0s0,0,0,.06a5,5,0,0,0,0,.55c0,.51,0,1,0,1.45l.14.07h0c0-.69,0-1.4,0-2.1" fill="#980d20"/>
              <polyline points="8.48 36.27 8.48 36.31 8.65 36.39 8.48 36.27" fill="#a30e22"/>
              <polyline points="8.48 36.22 8.34 36.15 8.32 36.17 8.32 36.17 8.31 36.18 8.48 36.27 8.48 36.22" fill="#a30e22"/>
              <path d="M9,36.43l-.11,0H8.76l.19.09v0" fill="#8c0c1f"/>
            </g>
          </g>
        </g>
      </g>
      <g>
        <polygon points="24.2 19.46 1.41 9.17 25.96 0.24 48.75 10.53 24.2 19.46" fill="#ebebeb"/>
        <g style="isolation: isolate">
          <g clip-path="url(#clip-path-2)">
            <g>
              <path d="M19.86,10.91l-3.22,1.17.06,0,.11,0,3.05-1.11M18.78,8.27l-.12,0h0l.11,0m2.14-.78-.15,0,.15,0h0M16.81,9h0m-5.73.76h0M27.83,8,24.66,9.14l.15-.07,4.36-1.59.19-.05L27.83,8M24.9,7.76h0l2.72-1h0l-2.72,1m-8.2,3h0L18.84,10h0l-2.16.79m-.1,0-.19-.05-1.75-.79c-.06,0-.14,0-.1-.08l2,.92m4.47-4.67,0,0-1.67.61-.18,0-.06,0-2.07.76-.14,0h0l-.09.06-1.68.6h0l-.1,0-.12,0L11.26,9.64l0,0h0a.2.2,0,0,0-.12.06c.07.07.26.11.31.19l4.79,2.16.2.06h.08l0,0h0L11.2,9.75l0,0,5.23,2.37h0l5.6-2,.11-.05a.23.23,0,0,1,.15,0l-.14.06-.23.08.38-.13,0,0a4.85,4.85,0,0,0-.79-.39c-.47-.2-.93-.42-1.4-.63a1.21,1.21,0,0,0-.27-.09h0l.07.06.19.08.21.1.23.1a1.54,1.54,0,0,0-.29.07l-.14.06-.22.07-.61.21a3.52,3.52,0,0,1-.42.15h0c-.06,0-.07.05-.1.07h0l0,.08-1,.37-1,.37h-.09l-.13,0-1.64-.74-.08-.09a.54.54,0,0,1,.17-.08l.08,0,1.65-.6.08,0a.3.3,0,0,0,.15-.1h0l-2.25.81,0,0h0l0,0,2-.73h.1l.08,0h0l1.82-.66.13-.08,1.93-.7.2,0,1.82-.66.11-.07,2.53-.92h0l.05,0-.05,0h.05l-2.73,1h.05a1,1,0,0,0,.23,0l.11,0,1.12-.41,1.12-.4a2.11,2.11,0,0,1,1.05-.11,2.06,2.06,0,0,1,.53.12,1.65,1.65,0,0,1,.48.21.69.69,0,0,1,.25.22c.09.17,0,.31-.34.42h0l-1,.37-1.4.52h-.18a.61.61,0,0,1-.14.07l-.2.06-.24.08L23.82,8l-.08,0-.27.07-.16.07-.23.08c-.08,0,0,.06-.1.1l-.22-.11-.25-.11-.21-.09h0l0,0a.67.67,0,0,0,.2.12c.43.19.87.38,1.29.58l.33.15a2,2,0,0,0,.53.2h.1l.78-.29.8-.29L27.8,8c.5-.19,1-.37,1.53-.55l.08,0a1.48,1.48,0,0,0,.85-.63.52.52,0,0,0,0-.47,1.32,1.32,0,0,0-.45-.51,3.4,3.4,0,0,0-.63-.39,2.55,2.55,0,0,0-.81-.28l-.22-.07a7.68,7.68,0,0,0-1.8-.34A6.64,6.64,0,0,0,24.06,5l-.14,0-.09,0L21.31,6l-.1,0-.14,0" fill="#ce112b"/>
              <path d="M29,9.27l-2.28.83c.21.12.42.25.66.36,1,.45,2,.91,3,1.34l0,0,1.68.76-.06,0,.3.13.51.23a1.5,1.5,0,0,0,.44.17h.1l1.51-.56.1,0c.06,0,.11-.05.12-.08s-.13-.09-.22-.14a9.39,9.39,0,0,1-.9-.42h0l-1.65-.75,0,0a1.2,1.2,0,0,1-.25-.09l-1.37-.62a2.36,2.36,0,0,1-.39-.19s0-.06.09-.08l.1,0,2.28-.83.09,0,.2-.05.55,0a3,3,0,0,1,.55.09l.22.07a3.49,3.49,0,0,1,.47.2l0,0,.09.07a.35.35,0,0,1,.1.11c.12.14.07.27-.16.39l-.16.07-.11,0-.11,0-.19.08a0,0,0,0,0,0,0h0c.32.15.61.31,1,.44s.39.19.62.27l.16-.06.2-.08.16,0a4.7,4.7,0,0,1,.49-.16l-.15.08.16-.05a1.32,1.32,0,0,0,.74-.58.59.59,0,0,0,0-.47c-.05-.17-.26-.32-.4-.48S37.07,9.1,37,9a7.28,7.28,0,0,0-.74-.37l-.1,0a1.55,1.55,0,0,1-.31-.12l-.11,0a1.8,1.8,0,0,0-.43-.11l-.27-.06a6.81,6.81,0,0,0-3.76.13L29,9.27" fill="#ce112b"/>
              <path d="M30.86,14l-.61.23-.85.31h0l.68-.24L30.8,14l.06,0M24,14.09a.14.14,0,0,1-.14,0l-1.79-.81c-.06,0-.15,0-.11-.09l2,.92m-5.52-1c.05.08.27.11.32.19l.11.06,4.8,2.17.14,0,.08,0,0,0-.07,0s0-.05,0-.06l.09,0,1.78-.65v0a8.84,8.84,0,0,0-.81-.37,1.76,1.76,0,0,1-.55-.27s-.17,0-.23,0h0l-.17,0H24l-1.76-.79-.11-.1.82-.31.48-.17.48-.17.24-.09a.31.31,0,0,1,.27,0c.61.28,1.25.55,1.84.84l.05,0h0l.17,0L28,14H28l1,.43a.51.51,0,0,0,.27.08h0L31,13.92h0l-1.14-.51,0,0,1.14.52h0l.05,0L31,13.85l-.44-.21c-.14-.05-.23-.11-.36-.16l-.32-.15-.06,0-1.66-.75h-.06c0-.06-.11-.1-.2-.14L25.17,11.2a6.19,6.19,0,0,0-.73-.27l-5.92,2.15" fill="#ce112b"/>
              <path d="M18.85,6.52c.07.05.22.08.25.14l-.06,0,0,0,.11,0,0,0,.18,0,1.67-.61,0,0L20.88,6h0l-.56.18-.21.08-.16.07-.22.07-.22.08-.25.1,0,0a.24.24,0,0,1-.2,0l-.14,0" fill="#850c1d"/>
              <path d="M15.76,7c.07,0,.23.07.24.14a.61.61,0,0,1-.14.07l-.17,0-.15,0a.38.38,0,0,0-.11,0,1,1,0,0,1-.21.1L15,7.56l-.19.07a.82.82,0,0,0-.23.11l-.06,0a.86.86,0,0,1-.24,0h0l.11,0h0a.6.6,0,0,0,.25,0l.1,0,.88-.33.4-.14.1,0s0,0,0,0,.07,0,.11,0l.11,0,.18.08.4.17h0l0,0a7,7,0,0,0-.82-.37c-.15,0-.19-.11-.36-.13" fill="#ab0e24"/>
              <path d="M15.63,7l-.08,0L14,7.66l.06,0,1.05-.38.51-.19a.36.36,0,0,1,.32,0l.11,0c0-.07-.17-.09-.24-.14h-.13" fill="#ba051e"/>
              <path d="M18.22,6.1a.37.37,0,0,0-.13.07c-.05.07.22.12.32.19a3.71,3.71,0,0,0,.63.28l.06,0c0-.06-.18-.09-.25-.14l-.11,0-.11,0-.14-.06-.15-.07h0c-.26-.11-.26-.11,0-.21l1.5-.55h0L18.49,6l0,0-.1,0-.12,0" fill="#b20f25"/>
              <path d="M20.09,9.12l-.15.07-.15.06-.4.13L19,9.52l-.49.2.26.12h0s0,0,.1-.07h0a3.52,3.52,0,0,0,.42-.15l.61-.21.22-.07.14-.06a1.54,1.54,0,0,1,.29-.07l-.23-.1a.36.36,0,0,0-.26,0" fill="#c61029"/>
              <path d="M24.18,7.48a1.26,1.26,0,0,1-.26.14l-.15,0a1.68,1.68,0,0,0-.32.09,1.2,1.2,0,0,0-.28.13l-.1,0a1.5,1.5,0,0,1-.32.08l-.12,0c-.09,0-.13.08-.12.13l.25.11s0-.06.12-.09l0,0L23.31,8a7,7,0,0,0,.73-.3l.05,0c.11,0,.26-.07.38-.1l-.29-.13" fill="#c01028"/>
              <path d="M24.09,7.71l-.05,0a7,7,0,0,1-.73.3l-.39.14,0,0c-.08,0-.14.05-.12.09l.22.11c.05,0,0-.07.1-.1l.23-.08.16-.07.27-.07.08,0,.28-.12.24-.08.2-.06a.61.61,0,0,0,.14-.07h0l-.2-.09c-.12,0-.27.06-.38.1" fill="#c9112a"/>
              <path d="M24,7.38a.41.41,0,0,1-.12.09l-.07,0-.39.11-.44.18-.07,0-.21.06L22.4,8c-.11,0-.13.07-.11.12h0l.21.09c0-.05,0-.09.12-.13l.12,0a1.5,1.5,0,0,0,.32-.08l.1,0a1.2,1.2,0,0,1,.28-.13,1.68,1.68,0,0,1,.32-.09l.15,0a1.26,1.26,0,0,0,.26-.14L24,7.38" fill="#b60f26"/>
              <path d="M19.8,9l-.19.09-.16.07-.17.06-.13,0a1.57,1.57,0,0,0-.29.13l-.06,0c-.09,0-.23.06-.33.1a.29.29,0,0,0-.16.1l.18.08.49-.2.41-.14.4-.13.15-.06.15-.07a.36.36,0,0,1,.26,0L20.14,9a.6.6,0,0,0-.34,0" fill="#bd0f27"/>
              <path d="M19.41,8.66h0l.07,0,.18.08c.07,0,.06.05-.05.09l-.12,0-.85.29L18,9.42,18,9.48l.17.08a1.6,1.6,0,0,1,.35-.15l.14-.06.6-.23L19.54,9A1,1,0,0,1,20,8.93l-.07-.06h0l-.47-.21" fill="#ac0e24"/>
              <path d="M19.54,9l-.32.13-.6.23-.14.06a1.6,1.6,0,0,0-.35.15l.18.08a.29.29,0,0,1,.16-.1c.1,0,.24-.06.33-.1l.06,0a1.57,1.57,0,0,1,.29-.13l.13,0,.17-.06.16-.07L19.8,9a.6.6,0,0,1,.34,0L20,8.93a1,1,0,0,0-.41.06" fill="#b50f26"/>
              <path d="M22.18,10l-.11.05-5.6,2h0l0,0h0l.17-.05h0l3.22-1.17,2.1-.77.23-.08.14-.06a.23.23,0,0,0-.15,0" fill="#ba0821"/>
              <path d="M11.24,9.73l0,0,5.23,2.36h0L11.24,9.73" fill="#cb0923"/>
              <path d="M29.17,7.48,24.81,9.07l-.15.07L27.83,8l1.53-.56-.19.05" fill="#ba0821"/>
              <path d="M20.69,7.52l-1.93.7-.13.08h0l.12,0,2-.73.15,0,0,0-.2,0" fill="#c50b25"/>
              <path d="M27.61,6.77l-2.72,1h0l2.72-1h0" fill="#cd0a24"/>
              <path d="M25.35,5.82l-2.53.92-.11.07,2.73-1h-.09" fill="#c40b24"/>
              <path d="M22.71,6.81l-1.82.66,0,0h0l.55.24h0l-.06,0c-.43-.19-.47-.21-.1-.35l.15,0,1.27-.46h0" fill="#940d20"/>
              <path d="M16.61,9l-2,.73,0,0h0l0,0L16.8,9h0l-.08,0h-.1" fill="#c30a24"/>
              <path d="M18.63,8.3,16.81,9h0V9h0l1.63-.6a.35.35,0,0,1,.3,0l.25.12h0l-.38-.19h0" fill="#970d21"/>
              <path d="M14.56,9.81s0,.06.1.08l1.75.79.19.05-2-.92" fill="#cd0b26"/>
              <path d="M18.84,10l-2.15.79h0L18.86,10h0" fill="#cd0924"/>
              <path d="M16.94,7.56l-1.79.65h0l1.68-.6.09-.06h0" fill="#ab0e24"/>
              <path d="M21.5,7.72h0l.79.36h0L22.11,8,22,7.93l-.21-.1-.16-.06-.1,0" fill="#b60f26"/>
              <path d="M32.43,11.05l-.1,0,0,0,1.65.75H34l.06,0a.54.54,0,0,1,.17-.08l.13-.05.1,0,.05,0,.26-.1,0,0-.19.07-.2.07-.07,0a.41.41,0,0,1-.35,0c-.28-.15-.64-.28-.88-.44,0,0-.15,0-.21-.06s-.21-.11-.11-.18h-.06l-.07,0-.08,0-.1,0" fill="#820b1c"/>
              <path d="M33.85,10.54l-.17.07h0a5.1,5.1,0,0,0,.74.36,2.78,2.78,0,0,1,.79.4l-.44.16h0l-.26.1h0L36,11.13l.47-.17.39-.15.15-.08a4.7,4.7,0,0,0-.49.16l-.16,0-.2.08-.16.06-.28.1a.56.56,0,0,1-.5,0,2.54,2.54,0,0,0-.5-.23c-.23-.13-.56-.23-.77-.36h0" fill="#b81027"/>
              <path d="M30.42,11.78l0,0-.31.12a.58.58,0,0,1,.3,0c.42.21.9.4,1.35.61.05,0,0,0,0,0h-.07l-.06,0h0l0,0,.11,0,.31-.1.06,0-1.68-.76" fill="#840b1d"/>
              <path d="M34.18,10.42s0,0,0,0l0,0,.11.1c.22.05.28.16.46.22a4.13,4.13,0,0,1,.47.21,1.51,1.51,0,0,1,.46.21l.28-.1c-.23-.08-.41-.18-.62-.27s-.64-.29-1-.44h0l-.17.05" fill="#c71029"/>
              <path d="M28.18,12.61l1.66.75.06,0,.25-.09.13-.07h0l-.06,0a.36.36,0,0,1-.36-.07,1.34,1.34,0,0,0-.3-.12h0a6.42,6.42,0,0,0-.83-.4l-.11-.1-.34.12h0" fill="#840c1d"/>
              <path d="M24.3,14a.13.13,0,0,0-.07,0h0c.06,0,.19,0,.23,0a1.76,1.76,0,0,0,.55.27,8.84,8.84,0,0,1,.81.37h0l.26-.09h0c-.17-.06-.4-.09-.46-.2s-.17-.07-.26-.1a4.12,4.12,0,0,1-.7-.33s-.16,0-.22,0h0l-.13,0" fill="#c8102a"/>
              <path d="M24,15.44s-.07,0,0,.06l.07,0h.07a4.06,4.06,0,0,0,.51-.14l.29-.11.51-.19.31-.11c.21-.08.42-.15.62-.24v0h-.19l-.26.09h0l-1.78.65-.09,0" fill="#c11129"/>
              <path d="M22,13.17s.05.06.11.09l1.79.81a.14.14,0,0,0,.14,0l-2-.92" fill="#cd0b26"/>
              <path d="M26.32,13.29h0l1.44.65c.14.06.14.09,0,.13l-.06,0-.1,0-.18.07.05,0a.91.91,0,0,0,.26-.06.35.35,0,0,0,.17-.1H28l-1.53-.7-.17,0" fill="#8c0c1f"/>
              <path d="M31,13.91h0l-1.74.64h.09l.1,0,.85-.31.61-.23.16-.06h0" fill="#b8132a"/>
              <path d="M29.84,13.39l0,0,1.14.51h0l-1.14-.52" fill="#cd0924"/>
              <path d="M29.41,12.16l-.2.08c-.05.14.26.21.45.28s.25.13.41.18a4.32,4.32,0,0,0,.48.21l.13.08.51-.18c-.3-.1-.49-.24-.78-.34a5.56,5.56,0,0,1-.65-.3c-.14-.06-.24,0-.35,0" fill="#aa0e24"/>
              <path d="M28.69,12.42l-.15.06.11.1a6.42,6.42,0,0,1,.83.4h0a1.34,1.34,0,0,1,.3.12.36.36,0,0,0,.36.07l.06,0h0c-.36-.16-.64-.35-1-.5-.15-.05-.28-.12-.42-.18s0,0,0,0h0l.05,0v0l-.17.06" fill="#8f0c1f"/>
              <path d="M30.08,11.92,30,12a.68.68,0,0,1,.23,0c.3.19.74.33,1.09.5a1.79,1.79,0,0,1,.31.16h0l.06,0h.07s0,0,0,0c-.45-.21-.93-.4-1.35-.61a.58.58,0,0,0-.3,0" fill="#8e0c1e"/>
              <path d="M30,12,29.8,12a2.78,2.78,0,0,1,.6.23l1.07.46.12-.05a1.79,1.79,0,0,0-.31-.16c-.35-.17-.79-.31-1.09-.5A.68.68,0,0,0,30,12" fill="#970c20"/>
              <path d="M29.21,12.24l-.19.07s0,.07.06.09c.24,0,.31.18.57.23a.53.53,0,0,1,.27.15c.17.1.48.14.59.26h0l.15-.06-.13-.08a4.32,4.32,0,0,1-.48-.21c-.16,0-.26-.13-.41-.18s-.5-.14-.45-.28" fill="#a30d22"/>
              <path d="M29.52,12.12l-.11,0c.11,0,.21-.05.35,0a5.56,5.56,0,0,0,.65.3c.29.1.48.24.78.34l.12-.05h0c-.46-.16-.82-.36-1.22-.54a.86.86,0,0,0-.48-.13l-.13,0" fill="#a30d22"/>
              <path d="M29,12.31l-.16,0v0c.51.23,1.05.45,1.54.69h0l.11,0h0c-.11-.12-.42-.16-.59-.26a.53.53,0,0,0-.27-.15c-.26-.05-.33-.18-.57-.23-.09,0,0-.06-.06-.09" fill="#9e0d22"/>
              <path d="M29.8,12l-.15.06a.86.86,0,0,1,.48.13c.4.18.76.38,1.22.54l.12,0-1.07-.46a2.78,2.78,0,0,0-.6-.23" fill="#9e0d22"/>
              <path d="M20.69,5.9l-.62.23-.76.29-.27.1-.05,0a.24.24,0,0,0,.2,0l0,0,.25-.1.22-.08.22-.07.16-.07.21-.08L20.84,6h0l-.14-.07" fill="#8b0c1e"/>
              <path d="M18.74,6.47l.11,0,.14,0,.05,0,.27-.1.76-.29.62-.23-.11,0-1,.34L19,6.42l-.06,0a.56.56,0,0,1-.24,0" fill="#930c20"/>
              <path d="M16.54,7.39v0c.07,0,.13,0,.06.08l-.08,0-.13,0-.13.06-.12,0-.07,0-.13.05-.31.12-.28.1a2.09,2.09,0,0,1-.4.12l0,0,.24.11,1.79-.65-.4-.17" fill="#850c1d"/>
              <path d="M15.34,7.28a.88.88,0,0,1-.29.16l-.27.08-.27.09-.17.07h-.1l-.1,0h0v0l.14.07h0a.86.86,0,0,0,.24,0l.06,0a.82.82,0,0,1,.23-.11L15,7.56l.22-.07a1,1,0,0,0,.21-.1.38.38,0,0,1,.11,0l.15,0,.17,0A.61.61,0,0,0,16,7.17l-.11,0-.14.06a1.48,1.48,0,0,1-.35.09h-.06" fill="#b40f26"/>
              <path d="M16.36,7.31c.05.05,0,.08-.09.11l-.06,0-.49.17-.23.08-.23.09L14.72,8l-.07,0,.11,0,.51-.16a2.39,2.39,0,0,0,.37-.15l.19-.07.71-.23v0l-.18-.08" fill="#940d20"/>
              <path d="M14.47,7.9l.18.08.07,0,.54-.17.23-.09.23-.08.49-.17.06,0c.08,0,.14-.06.09-.11l-.11,0s-.05.07-.12.1h0l-1.4.51h0a.72.72,0,0,1-.21,0" fill="#9b0d21"/>
              <path d="M14.37,7.86h0l.06,0a.72.72,0,0,0,.21,0h0l1.4-.51h0c.07,0,.14-.06.12-.1s-.07,0-.11,0,0,0,0,0l-.1,0-.4.14-.88.33-.1,0a.6.6,0,0,1-.25,0" fill="#a30e23"/>
              <path d="M15.57,7.12l-.51.19L14,7.69l.11,0v0h0l.1,0h.1l.17-.07.27-.09.27-.08a.88.88,0,0,0,.29-.16h.06a1.48,1.48,0,0,0,.35-.09l.14-.06a.36.36,0,0,0-.32,0" fill="#ba1027"/>
              <path d="M14.76,8l.15.07,0,0a2.09,2.09,0,0,0,.4-.12l.28-.1.31-.12.13-.05.07,0,.12,0,.13-.06.13,0,.08,0c.07,0,0,0-.06-.08l-.71.23-.19.07a2.39,2.39,0,0,1-.37.15L14.76,8" fill="#8d0c1e"/>
              <path d="M19.5,5.8a1.2,1.2,0,0,0-.28.13L19.06,6l-.2.06a1.27,1.27,0,0,0-.18.06l-.11,0-.27.09.08,0h0a.61.61,0,0,0,.34,0,.19.19,0,0,0,.09,0L19.24,6l.63-.21h0l.09,0,.12-.06.11,0-.15-.06a4.91,4.91,0,0,0-.58.17" fill="#b20f25"/>
              <path d="M19.9,5.55l-1,.38-.52.18c-.12,0-.18.09,0,.14l.27-.09.11,0a1.27,1.27,0,0,1,.18-.06l.2-.06.16-.07a1.2,1.2,0,0,1,.28-.13,4.91,4.91,0,0,1,.58-.17l-.18-.08" fill="#ba1027"/>
              <path d="M18.38,6.28h0l.15.07a.5.5,0,0,0,.26,0l.1,0,.52-.18L19.74,6l.15-.06.13,0,.11,0a.75.75,0,0,0,.2-.11l-.1,0-.11,0L20,5.78l-.09,0h0L19.24,6l-.43.17a.19.19,0,0,1-.09,0,.61.61,0,0,1-.34,0" fill="#a80e24"/>
              <path d="M18.63,6.42l.11,0a.56.56,0,0,0,.24,0l.06,0,.55-.22,1-.34-.11-.05c-.17.06-.38.1-.56.16a.82.82,0,0,0-.21.11s0,0-.06,0l-.22,0-.1,0-.19.08L19,6.35a1,1,0,0,1-.33.07" fill="#9b0d21"/>
              <path d="M18.49,6.36l.14.06A1,1,0,0,0,19,6.35l.17-.07.19-.08.1,0,.22,0s.05,0,.06,0A.82.82,0,0,1,19.91,6c.18-.06.39-.1.56-.16l-.14-.07a.75.75,0,0,1-.2.11l-.11,0-.13,0L19.74,6l-.37.12-.52.18-.1,0a.5.5,0,0,1-.26,0" fill="#a20e22"/>
              <path d="M19.86,5.53l-1.5.55c-.28.1-.28.1,0,.21h0l-.08,0c-.14,0-.08-.09,0-.14l.52-.18,1-.38,0,0" fill="#ba051e"/>
              <path d="M18.47,8.38,16.84,9l.36.16A.36.36,0,0,1,17.42,9a.62.62,0,0,1,.16,0l.05,0a.83.83,0,0,0,.16-.09l.13-.05.33-.11.28-.09.16-.07h0a.57.57,0,0,1,.32,0l-.25-.12a.35.35,0,0,0-.3,0" fill="#830c1d"/>
              <path d="M17.92,8.77l-.13.05a.83.83,0,0,1-.16.09l-.05,0a.62.62,0,0,0-.16,0,.36.36,0,0,0-.22.17l.11,0a6,6,0,0,1,.72-.3l.79-.26h0l.05,0,.06,0a.35.35,0,0,1,.21,0h0L19,8.51a.57.57,0,0,0-.32,0h0l-.16.07-.28.09-.33.11" fill="#880c1e"/>
              <path d="M18,8.89a6,6,0,0,0-.72.3l.21.09a.74.74,0,0,1,.31-.16L18,9.05l.39-.14.12-.05.57-.19a.57.57,0,0,1,.29,0l-.21-.1h0a.35.35,0,0,0-.21,0l-.06,0-.05,0h0L18,8.89" fill="#8f0c1f"/>
              <path d="M18,9.05l-.18.07a.74.74,0,0,0-.31.16l.18.09s0-.08.11-.11h0l.26-.09.25-.1.37-.14.15-.05.14,0,.1,0a2.28,2.28,0,0,1,.33-.08l-.07,0a.57.57,0,0,0-.29,0l-.57.19-.12.05L18,9.05" fill="#970d21"/>
              <path d="M18.83,9l-.39.14-.25.1-.26.09h0c-.09,0,0,.07-.07.1l.11.05L18,9.42l.58-.22.85-.29.12,0c.11,0,.12-.06.05-.09a1.21,1.21,0,0,0-.42.08l-.05,0-.06,0-.08,0L18.83,9" fill="#a50e23"/>
              <path d="M18.73,8.92l-.37.14-.25.1-.26.09h0c-.08,0-.12.06-.11.11l.15.06c.06,0,0-.07.07-.1h0l.26-.09.25-.1L18.83,9,19,8.93l.08,0,.06,0,.05,0a1.21,1.21,0,0,1,.42-.08l-.18-.08a2.28,2.28,0,0,0-.33.08l-.1,0-.14,0-.15.05" fill="#9e0d22"/>
              <path d="M21.33,7.34c-.37.14-.33.16.1.35-.06-.07,0-.11.1-.15l.07,0,.23-.07.22-.09.35-.12.13-.05.12,0,.12,0a2.31,2.31,0,0,1,.34-.1l-.35-.16h0l-1.27.46-.15,0" fill="#840b1d"/>
              <path d="M21.53,7.54c-.12,0-.16.08-.1.15l.06,0h0l.1,0c0-.06,0-.11.13-.15l.07,0,.46-.14L23,7.18l.26-.07.07,0L23.11,7a2.31,2.31,0,0,0-.34.1l-.12,0-.12,0-.13.05-.35.12-.22.09-.23.07-.07,0" fill="#8c0c1e"/>
              <path d="M22.85,7.65l-.43.17h0l-.08,0-.09,0c-.07,0-.12.05-.1.1l.18.08c0-.05,0-.08.11-.12l.26-.08.21-.06.07,0,.44-.18.39-.11.07,0A.41.41,0,0,0,24,7.38l-.14-.06c-.32.11-.66.21-1,.33" fill="#ad0e24"/>
              <path d="M21.81,7.73c-.08,0-.08.06,0,.1l.21.1s0-.08.06-.12l0,0a1.43,1.43,0,0,0,.27-.09l.25-.09L23,7.48l.33-.12a1.92,1.92,0,0,0,.32-.14l-.14-.07-.57.2a1,1,0,0,0-.21.08l-.18.07-.69.23" fill="#9b0d21"/>
              <path d="M21.73,7.62c-.11,0-.14.09-.13.15l.16.06s0-.07,0-.1l.69-.23.18-.07a1,1,0,0,1,.21-.08l.57-.2-.18-.08-.07,0L23,7.18l-.69.28-.46.14-.07,0" fill="#940d20"/>
              <path d="M23.6,7.22a1.92,1.92,0,0,1-.32.14L23,7.48l-.35.13-.25.09a1.43,1.43,0,0,1-.27.09l0,0c-.1,0-.1.07-.06.12l.14.06s0-.08.1-.1l.09,0,.08,0h0l.43-.17c.31-.12.65-.22,1-.33l-.22-.1" fill="#a40e23"/>
              <path d="M19.05,8.5h0l.14.06h0l.21.1h0l-.36-.16" fill="#a50e23"/>
              <path d="M34.24,11.73a.54.54,0,0,0-.17.08l.47-.17h0l-.05,0-.1,0-.13.05" fill="#980e21"/>
              <path d="M31.31,12.76l-.12.05-.51.18-.15.06h0s-.06.06-.11.07l0,0-.1,0-.13.07,1.58-.58-.11,0-.1,0-.05,0-.16,0" fill="#9e0d22"/>
              <path d="M32.74,11c-.1.07,0,.13.11.18s.17,0,.21.06c.24.16.6.29.88.44a.41.41,0,0,0,.35,0l.07,0c-.25-.12-.48-.25-.76-.36A4.17,4.17,0,0,1,33,11a.36.36,0,0,1-.13-.11l-.12,0h0" fill="#8a0c1e"/>
              <path d="M33.26,10.77l-.16.06c-.1.07,0,.11.12.17s.47.21.71.31a1.89,1.89,0,0,0,.58.23l.05,0,.19-.07h0a6.86,6.86,0,0,0-.66-.29c-.29-.13-.51-.28-.84-.4v-.05" fill="#980e21"/>
              <path d="M33.1,10.83l-.23.08A.36.36,0,0,0,33,11a4.17,4.17,0,0,0,.6.27c.28.11.51.24.76.36l.2-.07-.05,0a1.89,1.89,0,0,1-.58-.23c-.24-.1-.44-.22-.71-.31s-.22-.1-.12-.17" fill="#900c1f"/>
              <path d="M35,11.42l-.24.09,0,0,.44-.16-.24.05" fill="#980e21"/>
              <path d="M33.7,10.61h0l-.18.06c0,.09.14.14.25.17.29.09.41.24.71.32s.3.19.53.25l.24-.05a2.78,2.78,0,0,0-.79-.4,5.1,5.1,0,0,1-.74-.36" fill="#ad0e24"/>
              <path d="M34.17,10.44l0,0-.24.08h0c.21.13.54.23.77.36a2.54,2.54,0,0,1,.5.23.56.56,0,0,0,.5,0,1.51,1.51,0,0,0-.46-.21,4.13,4.13,0,0,0-.47-.21c-.18-.06-.24-.17-.46-.22l-.11-.1" fill="#bf1028"/>
              <path d="M31.59,12.66l-.12.05-.12,0h0l.16,0,.05,0,.1,0,0,0" fill="#8e0c1e"/>
              <path d="M33.5,10.68l-.24.09v.05c.33.12.55.27.84.4a6.86,6.86,0,0,1,.66.29l.24-.09c-.23-.06-.29-.19-.53-.25s-.42-.23-.71-.32c-.11,0-.3-.08-.25-.17" fill="#a20d22"/>
              <path d="M30.52,13.05l-.11,0h0l-.16.06h0l.1,0,0,0c.05,0,.1,0,.11-.07" fill="#8f0c1f"/>
              <path d="M24.62,13.91l-.14.05h0c.06,0,.19,0,.22,0a4.12,4.12,0,0,0,.7.33c.09,0,.24.06.26.1s.29.14.46.2h0l.19-.06h0a.73.73,0,0,1-.38-.13c-.3-.2-.81-.32-1.09-.53,0,0-.13,0-.2,0" fill="#c11129"/>
              <path d="M25,13.78l-.12,0a1.5,1.5,0,0,1,.62.26c.17.09.4.16.55.25s.21.09.29.14.12.07,0,.1h-.05l-.19.06h.19l.55-.2,0,0-.19.07h0v0a.49.49,0,0,0-.28-.12l-.09,0c-.24-.17-.68-.28-.94-.45a.63.63,0,0,0-.35-.07" fill="#b20f26"/>
              <path d="M26.32,13.29h0l-.37.13a.51.51,0,0,1,.31.07c.15.09.35.18.52.26s.52.21.74.32.05.06,0,.07l-.06,0-.07,0s0,0,0,0h0l.12,0h0l.18-.07.1,0,.06,0c.1,0,.1-.07,0-.13l-1.44-.65h0" fill="#840b1d"/>
              <path d="M25.5,13.59l-.16.06c.24,0,.3.08.43.12.38.14.65.33,1.05.47.06,0,.25.07.1.12l0,0-.08,0h0l.23-.05.44-.16,0,0-.12,0h0l-.2.07.05-.05c-.5-.18-.9-.39-1.34-.59a.77.77,0,0,0-.36-.08" fill="#9b0d21"/>
              <path d="M25.93,13.43l-.23.09a.55.55,0,0,1,.28.06c.5.2.92.42,1.37.63,0,0,0,0,0,0l.07,0,.06,0c.05,0,.07,0,0-.07s-.51-.2-.74-.32-.37-.17-.52-.26a.51.51,0,0,0-.31-.07" fill="#8c0c1f"/>
              <path d="M24.86,13.82l-.24.09c.07,0,.16,0,.2,0,.28.21.79.33,1.09.53a.73.73,0,0,0,.38.13h.07c.08,0,0-.07,0-.1s-.2-.09-.29-.14-.38-.16-.55-.25a1.5,1.5,0,0,0-.62-.26" fill="#ba0f27"/>
              <path d="M25.7,13.52l-.2.07a.77.77,0,0,1,.36.08c.44.2.84.41,1.34.59l.11,0h0c-.45-.21-.87-.43-1.37-.63a.55.55,0,0,0-.28-.06" fill="#940d20"/>
              <path d="M25.34,13.65l-.16.06a1.57,1.57,0,0,1,.58.2,8.39,8.39,0,0,0,1.12.47l0,0c.15,0,0-.1-.1-.12-.4-.14-.67-.33-1.05-.47-.13,0-.19-.14-.43-.12" fill="#a30e22"/>
              <path d="M25.18,13.71l-.2.07a.63.63,0,0,1,.35.07c.26.17.7.28.94.45l.09,0a.49.49,0,0,1,.28.12l.16-.05.08,0a8.39,8.39,0,0,1-1.12-.47,1.57,1.57,0,0,0-.58-.2" fill="#ab0e24"/>
              <path d="M28.86,12.4l-.05,0h0s0,0,0,0,.27.13.42.18c.39.15.67.34,1,.5l.16-.06h0c-.49-.24-1-.46-1.54-.69" fill="#980d20"/>
              <polyline points="26.83 14.42 26.86 14.44 27.06 14.37 26.83 14.42" fill="#a30e22"/>
              <polyline points="26.8 14.41 26.64 14.46 26.64 14.48 26.64 14.48 26.64 14.49 26.83 14.42 26.8 14.41" fill="#a30e22"/>
              <path d="M27.31,14.22l-.11,0-.05.05.2-.07,0,0" fill="#8c0c1f"/>
            </g>
          </g>
        </g>
      </g>
      <g>
        <polygon points="48.75 10.53 48.59 40.82 24.04 49.76 24.2 19.46 48.75 10.53" fill="#f0f0f0"/>
        <g style="isolation: isolate">
          <g clip-path="url(#clip-path-3)">
            <g>
              <path d="M32.22,30.26,29,31.43h.05l.11-.05,3.06-1.11m2.66-6-.12.05h0l.12-.05M37,23.47l-.15.05.14,0h0m-4.08,1.44h0m-4.1-.71h0M40.2,27.33,37,28.47l.17-.09,4.36-1.6.17,0-1.54.57m-1.33-1.67v0l2.72-1v0l-2.72,1m-8.19,3v0l2.16-.78v0l-2.16.79m0-.07-.05-.18V26c0-.08,0-.15,0-.22v2.78m8.23-8.07a.09.09,0,0,0,0,.05l-1.67.61-.16,0-.08.06L34.87,22h-.13l-.13.09c-.56.2-1.11.41-1.67.6v0h0l-.12.06-.12,0L29,24.1l0,0h0a.27.27,0,0,0-.14.07c-.06.19,0,.34-.07.53l0,6.52,0,.22h.06v0h0l0-7.12h0l0,7.11h0l5.59-2,.12-.06a.14.14,0,0,1,.11,0l-.16.08-.23.09.37-.13.08-.07a5.46,5.46,0,0,0,0-1.14c0-.63,0-1.26,0-1.89a.63.63,0,0,0,0-.31h0l0,.15V27a.53.53,0,0,0-.25,0l-.14.06-.22.07c-.2.05-.4.13-.6.2l-.42.15h0a.53.53,0,0,0-.15.11v0l0,0-.11.14-1,.36-1,.38h-.06l0-.13,0-2.23.06-.22a.62.62,0,0,1,.2-.1l.08,0,1.65-.6.08,0a.43.43,0,0,0,.2-.14h0v-.05l-2.25.82.07-.06,0,0,0,0,0,0,2-.72h.16l1.82-.67.16-.1,1.94-.71H37l1.82-.66.15-.1,2.52-.92h0l0,0-2.73,1h0v0h0a.25.25,0,0,0,.19,0l.11,0,1.11-.4L41.38,22a.55.55,0,0,1,.72.2,1,1,0,0,1,.13.47,2,2,0,0,1,0,.64,1.9,1.9,0,0,1-.14.57,1.21,1.21,0,0,1-.7.76h0l-1,.36-1.4.52-.12-.05h0a.37.37,0,0,1-.16.09l-.18,0-.23.06a2.1,2.1,0,0,0-.3.15l-.1,0a.68.68,0,0,0-.23.05l-.17.07-.23.08c-.08,0-.11.11-.17.17v-.93h0l-.05.06a1.23,1.23,0,0,0,0,.32c0,.58,0,1.16,0,1.74a3.53,3.53,0,0,0,0,.46,2,2,0,0,0,0,.65H37l.8-.3.79-.28,1.52-.56,1.52-.54h.07a3.07,3.07,0,0,0,1.24-1,4.06,4.06,0,0,0,.59-1A6.21,6.21,0,0,0,44,23.58a5.75,5.75,0,0,0,.12-1.07,1.92,1.92,0,0,0-.09-.94l0-.22a2.71,2.71,0,0,0-.57-1.45,1.49,1.49,0,0,0-1.55-.42.25.25,0,0,0-.12,0l-.09,0-2.52.91-.1,0a.17.17,0,0,1-.12,0" fill="#ce112b"/>
              <path d="M39.27,30.5,37,31.33a9.29,9.29,0,0,0-.08,1c0,1.35,0,2.72,0,4h0c0,.75,0,1.51,0,2.26l-.06,0c0,.14,0,.28,0,.41v.7a1.32,1.32,0,0,0,0,.53H37l1.52-.56.1,0a.32.32,0,0,0,.17-.12,1,1,0,0,0,0-.37,10.82,10.82,0,0,1,0-1.27l0,0v0c0-.75,0-1.5,0-2.24l0,0a1.51,1.51,0,0,1,0-.3V33.55a3.66,3.66,0,0,1,0-.57.26.26,0,0,1,.14-.12l.1,0L41.38,32l.09,0a.22.22,0,0,1,.16,0,1.32,1.32,0,0,1,.33.18,1,1,0,0,1,.19.42l0,.23a2.47,2.47,0,0,1,0,.61l0,.07,0,.19a2.76,2.76,0,0,1-.08.27,1.29,1.29,0,0,1-.57.76l-.18.09-.11,0-.1,0-.22.1,0,.06h0c0,.45,0,.91,0,1.33s0,.55,0,.81l.15,0,.22-.08.15-.06a2.06,2.06,0,0,1,.47-.13l-.18.1.14,0A2.84,2.84,0,0,0,42.94,36a5.89,5.89,0,0,0,.58-1,8.07,8.07,0,0,0,.37-1.18c.06-.18,0-.35.08-.53A6.56,6.56,0,0,0,44,32.17v-.12a1.5,1.5,0,0,1,0-.37l0-.11c0-.13,0-.31-.11-.4s-.05-.16-.07-.24a1.58,1.58,0,0,0-2.23-1.25l-2.28.82" fill="#ce112b"/>
              <path d="M34.47,41.22c-.21.09-.41.17-.62.24l-.84.3h0l.69-.24.68-.26.07,0m-3.89-2.53c-.08,0,0-.07,0-.11V36.14c0-.08,0-.16.05-.23,0,.92,0,1.85,0,2.78m-1.79-4.37c-.07.19,0,.34-.06.52V35c0,2.18,0,4.36,0,6.53l0,.11.08,0,0,0h-.06a.18.18,0,0,1,.1-.13l.09,0,1.78-.65,0,0a10.27,10.27,0,0,0,0-1.11,2.41,2.41,0,0,1,0-.8c0-.1-.08-.1-.07-.19v0l-.12,0,0,0c0-.79,0-1.58,0-2.38l.06-.24.83-.33.48-.17.48-.17.24-.09c.11,0,.14,0,.14.13,0,.84,0,1.68,0,2.52v.06h0l0,.17v2.08H32.8v1.31a.45.45,0,0,0,.05.29h0l0,0,1.73-.63h0V39.58l0,0v1.56h0v0l.06,0,0-.13c0-.2,0-.41,0-.61s0-.33,0-.49v-.44l-.06,0,0-2.27h0v-.07a.69.69,0,0,0,.06-.37c0-1.25,0-2.5,0-3.75a5.85,5.85,0,0,0-.07-.85l-5.92,2.15" fill="#ce112b"/>
              <path d="M37.08,20.57a1.39,1.39,0,0,1,0,.4.13.13,0,0,0,0-.06A.2.2,0,0,1,37,21v.2l.16,0,1.67-.61a.09.09,0,0,1,0-.05c0-.09,0-.18,0-.26l0,0h0l-.53.16-.22.09-.17.08-.21.06-.22.07a1.51,1.51,0,0,0-.26.12l0,0c-.06,0-.1,0-.09-.11l0-.14" fill="#850c1d"/>
              <path d="M34.74,20.4c0,.13,0,.25,0,.4a.48.48,0,0,1-.16.08.42.42,0,0,1-.15,0l-.15,0-.13.06a1.1,1.1,0,0,1-.23.13,1.66,1.66,0,0,1-.21.06l-.19.06a.73.73,0,0,0-.27.15l-.06,0a.22.22,0,0,1-.18,0h0v.14s0,0,0,0v-.05c0,.07.11.06.18,0l.11,0,.89-.34.39-.14.12-.06a.22.22,0,0,1,.07-.07s0,.07,0,.13v.38c0,.18,0,.35,0,.54h0l0-.06a8.37,8.37,0,0,0,0-1.12c0-.13,0-.31,0-.42" fill="#ab0e24"/>
              <path d="M34.66,20.38l-.1.05q-.8.27-1.59.57v.09l1-.38.52-.19c.12,0,.19-.05.17.13v.15c.08-.15,0-.27,0-.4a.06.06,0,0,0-.08,0" fill="#ba051e"/>
              <path d="M37.25,19.44a.42.42,0,0,0-.16.09c-.11.13,0,.34-.06.52a4.12,4.12,0,0,0,0,.86A.13.13,0,0,1,37,21a1.39,1.39,0,0,0,0-.4v-.68h0c0-.35,0-.35.28-.45l1.49-.54v0l-1.34.49,0,0-.1,0-.11,0" fill="#b20f25"/>
              <path d="M34.55,26.57c-.06,0-.12.07-.17.09l-.15.06-.39.13-.4.13a3.74,3.74,0,0,0-.51.22v.39a.53.53,0,0,1,.15-.11h0l.42-.15c.2-.07.4-.15.6-.2l.22-.07.14-.06a.53.53,0,0,1,.25,0v-.31c0-.1-.09-.11-.16-.08" fill="#c61029"/>
              <path d="M38.82,24.76a.91.91,0,0,1-.32.2.28.28,0,0,1-.13,0l-.29.06a2,2,0,0,0-.32.17.53.53,0,0,1-.1.06.89.89,0,0,1-.28,0l-.11,0a.47.47,0,0,0-.22.22v.34a.29.29,0,0,1,.19-.16h0l.38-.14a6.5,6.5,0,0,0,.78-.33l.05,0a1.91,1.91,0,0,1,.33-.06v-.4" fill="#c01028"/>
              <path d="M38.49,25.22l-.05,0a6.5,6.5,0,0,1-.78.33l-.38.14h0a.29.29,0,0,0-.19.16v.31c.06-.06.09-.14.17-.17l.23-.08.17-.07a.68.68,0,0,1,.23-.05l.1,0a2.1,2.1,0,0,1,.3-.15l.23-.06.18,0a.37.37,0,0,0,.16-.09h0v-.28a1.91,1.91,0,0,0-.33.06" fill="#c9112a"/>
              <path d="M38.83,24.47a.44.44,0,0,1-.18.13l-.06,0a1.82,1.82,0,0,0-.36.08l-.46.2-.07,0-.2.05-.24.06a.33.33,0,0,0-.21.22h0v.28a.47.47,0,0,1,.22-.22l.11,0a.89.89,0,0,0,.28,0,.53.53,0,0,0,.1-.06,2,2,0,0,1,.32-.17l.29-.06a.28.28,0,0,0,.13,0,.91.91,0,0,0,.32-.2v-.29" fill="#b60f26"/>
              <path d="M34.5,26.27a1.39,1.39,0,0,0-.21.11l-.17.08-.17.05-.13,0a1.33,1.33,0,0,0-.32.15l-.06,0c-.09,0-.2,0-.3.06a.47.47,0,0,0-.21.16v.24a3.74,3.74,0,0,1,.51-.22l.4-.13.39-.13.15-.06s.11-.07.17-.09.13,0,.16.08v-.29a.14.14,0,0,0-.21-.09" fill="#bd0f27"/>
              <path d="M34.74,25.32h0v.34c0,.1,0,.14-.15.18l-.11,0c-.28.08-.55.17-.83.27l-.59.23-.11.09v.24a1.46,1.46,0,0,1,.38-.18l.14-.06c.2-.09.42-.16.62-.24s.22-.12.34-.16a.26.26,0,0,1,.3,0l0-.15h0v-.64" fill="#ac0e24"/>
              <path d="M34.41,26.07c-.12,0-.24.12-.34.16s-.42.15-.62.24l-.14.06a1.46,1.46,0,0,0-.38.18V27a.47.47,0,0,1,.21-.16c.1,0,.21,0,.3-.06l.06,0a1.33,1.33,0,0,1,.32-.15l.13,0,.17-.05.17-.08a1.39,1.39,0,0,1,.21-.11.14.14,0,0,1,.21.09v-.25a.26.26,0,0,0-.3,0" fill="#b50f26"/>
              <path d="M34.59,29.32l-.12.06-5.59,2h0v0h0l.15,0h0l3.22-1.17,2.09-.76.23-.09.16-.08a.14.14,0,0,0-.11,0" fill="#ba0821"/>
              <path d="M28.92,24.29h0l0,7.12h0l0-7.11" fill="#cb0923"/>
              <path d="M41.57,26.78l-4.36,1.6-.17.09,3.16-1.14,1.54-.57-.17,0" fill="#ba0821"/>
              <path d="M36.86,23.43l-1.94.71-.16.1v.05l.12-.05,2-.72.15-.05v0h-.16" fill="#c50b25"/>
              <path d="M41.59,24.65l-2.72,1v0l2.72-1v0" fill="#cd0a24"/>
              <path d="M41.51,21.74,39,22.66l-.15.1,2.73-1,0,0h0" fill="#c40b24"/>
              <path d="M38.84,22.76,37,23.42v0h0c0,.25,0,.49,0,.73l0,0v-.09c0-.57,0-.63.37-.77l.14-.05,1.28-.46h0v0h0" fill="#940d20"/>
              <path d="M32.78,24.92l-2,.72,0,0h0l-.07.06,2.25-.82h-.15" fill="#c30a24"/>
              <path d="M34.76,24.24l-1.82.67h0V25h0l1.64-.6c.12-.05.16,0,.15.14s0,.23,0,.34h0c0-.18,0-.36,0-.54h0v-.05" fill="#970d21"/>
              <path d="M30.65,25.79c-.07.07,0,.14,0,.22v2.38l.05.18V25.79" fill="#cd0b26"/>
              <path d="M32.84,27.83l-2.16.78v0l2.16-.79v0" fill="#cd0924"/>
              <path d="M34.74,22,33,22.66h0v0c.56-.19,1.11-.4,1.67-.6l.13-.09h0" fill="#ab0e24"/>
              <path d="M37.05,24.19h0v1.07h0V24.19" fill="#b60f26"/>
              <path d="M39,35.67l-.1,0,0,0c0,.74,0,1.49,0,2.24v0l0,0h0l.08,0a.44.44,0,0,1,.2-.11l.12,0,.1,0,.06,0,.26-.11v0l-.19.07-.2.08-.09,0c-.12,0-.14,0-.13-.25,0-.42,0-.84.06-1.28,0-.07,0-.11,0-.2a.51.51,0,0,1,.18-.45h0l-.08,0-.07,0-.1,0" fill="#820b1c"/>
              <path d="M40.37,35.15l-.18.07v0h0a5.29,5.29,0,0,0,0,1,4.59,4.59,0,0,1-.06,1.16l-.44.16h0l-.26.11v0l1.4-.51.47-.16a4.34,4.34,0,0,0,.4-.17l.18-.1a2.06,2.06,0,0,0-.47.13l-.15.06-.22.08-.15,0-.28.1c-.16,0-.28-.05-.22-.29a3.21,3.21,0,0,0,0-.69c0-.37,0-.7,0-1.07l0,0" fill="#b81027"/>
              <path d="M37,36.4h0l-.32.13a.18.18,0,0,1,.12.2c0,.63,0,1.22,0,1.84,0,.06,0,.09-.06.1h0l-.06,0,0,0v0l.08,0,.3-.11.06,0c0-.75,0-1.51,0-2.26" fill="#840b1d"/>
              <path d="M40.7,35a.22.22,0,0,0-.07.06l0,0-.06.26c0,.2,0,.46,0,.64s0,.44,0,.64a1.67,1.67,0,0,1,0,.63l.28-.1c0-.26,0-.54,0-.81s0-.88,0-1.33h0l-.16,0" fill="#c71029"/>
              <path d="M34.7,37.22l0,2.27.06,0,.26-.1.16-.1v0h0l-.06,0c-.18.06-.12-.19-.11-.3a1.51,1.51,0,0,0,0-.37v0a7.85,7.85,0,0,0,0-1.18l.06-.26-.33.11h0" fill="#840c1d"/>
              <path d="M30.85,38.58a.24.24,0,0,0-.1.08v0c0,.09.09.09.07.19a2.41,2.41,0,0,0,0,.8,10.27,10.27,0,0,1,0,1.11v0l.26-.09v0a.9.9,0,0,1,0-.59c0-.1,0-.22,0-.33a6.36,6.36,0,0,1,0-1c0-.07-.06-.11-.05-.2h0l0,0a.14.14,0,0,0-.11,0" fill="#c8102a"/>
              <path d="M28.88,41.49a.18.18,0,0,0-.1.13h.12a1.2,1.2,0,0,0,.45-.09l.29-.12.51-.17.31-.12a6.48,6.48,0,0,0,.64-.25l0-.09-.11,0h0l-.26.09h0L29,41.47l-.09,0" fill="#c11129"/>
              <path d="M30.6,35.91c-.08.07-.05.15-.05.23v2.44s0,.13,0,.11c0-.93,0-1.86,0-2.78" fill="#cd0b26"/>
              <path d="M32.84,37.91h0c0,.66,0,1.31,0,1.95,0,.18,0,.26-.15.3l-.06,0-.09,0-.18.07v.06a.41.41,0,0,0,.22,0,.69.69,0,0,0,.21-.15h.08V38.08l0-.17" fill="#8c0c1f"/>
              <path d="M34.63,41.12h0l-1.73.63,0,0,0,0,.1,0,.84-.3c.21-.07.41-.15.62-.24l.16-.07v0" fill="#b8132a"/>
              <path d="M34.64,39.56l0,0v1.55h0V39.56" fill="#cd0924"/>
              <path d="M35.92,36.79l-.2.07a1,1,0,0,0-.1.78c0,.18,0,.37,0,.55s0,.44,0,.64l0,.23.51-.19c0-.33,0-.7,0-1a8.81,8.81,0,0,1,0-.89c0-.19-.13-.1-.18-.16" fill="#aa0e24"/>
              <path d="M35.21,37l-.16.07-.06.26a7.85,7.85,0,0,1,0,1.18v0A1.51,1.51,0,0,1,35,39c0,.11-.07.36.11.3l.06,0h0c0-.49.08-1,0-1.48,0-.18,0-.37,0-.55s0-.09,0-.09h0l.06,0,0-.07-.16,0" fill="#8f0c1f"/>
              <path d="M36.59,36.54l-.12,0c0,.06.1.09.08.18a12.38,12.38,0,0,0,0,1.49,2.74,2.74,0,0,1,0,.48l0,0,.06,0h0s.06,0,.06-.1c0-.62,0-1.21,0-1.84a.18.18,0,0,0-.12-.2" fill="#8e0c1e"/>
              <path d="M36.47,36.58l-.16.06a2.45,2.45,0,0,1,0,.72c0,.47,0,.94,0,1.41l.12,0a2.74,2.74,0,0,0,0-.48,12.38,12.38,0,0,1,0-1.49c0-.09,0-.12-.08-.18" fill="#970c20"/>
              <path d="M35.72,36.86l-.19.07c0,.07-.1.13-.08.22s-.05.51,0,.73a1,1,0,0,1,0,.41c0,.27.08.51,0,.8v0l.15,0,0-.23c0-.2,0-.45,0-.64s0-.37,0-.55a1,1,0,0,1,.1-.78" fill="#a30d22"/>
              <path d="M36,36.73l-.12.06c0,.06.18,0,.18.16a8.81,8.81,0,0,0,0,.89c0,.33,0,.7,0,1l.12,0h0c0-.52,0-1.09,0-1.64,0-.16,0-.38-.1-.47l-.12,0" fill="#a30d22"/>
              <path d="M35.53,36.93l-.16.06,0,.07c0,.7,0,1.39,0,2.09h0l.11,0v0c.09-.29,0-.53,0-.8a1,1,0,0,0,0-.41c-.08-.22,0-.52,0-.73s0-.15.08-.22" fill="#9e0d22"/>
              <path d="M36.31,36.64l-.15.06c.13.09.1.31.1.47,0,.55,0,1.12,0,1.64l.12,0c0-.47,0-.94,0-1.41a2.45,2.45,0,0,0,0-.72" fill="#9e0d22"/>
              <path d="M38.85,20l-.62.23c-.26.09-.52.22-.78.31l-.27.09-.07.06c0,.1,0,.13.09.11l0,0a1.51,1.51,0,0,1,.26-.12l.22-.07.21-.06.17-.08.22-.09.53-.16h0V20" fill="#8b0c1e"/>
              <path d="M37.08,20.42v.15l0,.14.07-.06.27-.09c.26-.09.52-.22.78-.31l.62-.23v-.14c-.32.11-.65.21-1,.33s-.38.14-.58.23l0,0c-.07,0-.13,0-.17,0" fill="#930c20"/>
              <path d="M34.73,21.47l0,.06c0,.1,0,.17-.07.2h-.07a.23.23,0,0,0-.11,0l-.15.06-.12.05-.06,0L34,22l-.32.13-.28.11a1.54,1.54,0,0,1-.37.09l0,0c0,.11,0,.22,0,.34L34.74,22c0-.19,0-.36,0-.54" fill="#850c1d"/>
              <path d="M34.2,20.76a1,1,0,0,1-.35.22l-.25.07-.26.07-.18.09h0a.06.06,0,0,1-.06,0s0,0-.08,0h0l0,0v.2h0a.22.22,0,0,0,.18,0l.06,0a.73.73,0,0,1,.27-.15l.19-.06a1.66,1.66,0,0,0,.21-.06,1.1,1.1,0,0,0,.23-.13l.13-.06.15,0a.42.42,0,0,0,.15,0,.48.48,0,0,0,.16-.08v-.15l-.14.07a.78.78,0,0,1-.3,0H34.2" fill="#b40f26"/>
              <path d="M34.73,21.23a.29.29,0,0,1-.19.21l0,0a4.34,4.34,0,0,0-.48.14l-.23.09-.23.09-.52.15L33,22v.15a4.12,4.12,0,0,0,.47-.13l.39-.17.2-.08c.22-.08.45-.14.68-.21l0-.06v-.24" fill="#940d20"/>
              <path d="M33,21.72V22l.07,0,.52-.15.23-.09L34,21.6a4.34,4.34,0,0,1,.48-.14l0,0a.29.29,0,0,0,.19-.21v-.14a.27.27,0,0,1-.19.16h0l-1.4.51h0c-.06,0-.09,0-.13-.05" fill="#9b0d21"/>
              <path d="M33,21.58v.14s.07.08.13.05h0l1.4-.51h0a.27.27,0,0,0,.19-.16c0-.06,0-.14,0-.13a.22.22,0,0,0-.07.07l-.12.06-.39.14-.89.34-.11,0c-.07,0-.13,0-.18,0" fill="#a30e23"/>
              <path d="M34.53,20.52l-.52.19-1,.38v.15s0,0,0,0h0s0,0,.08,0a.06.06,0,0,0,.06,0h0l.18-.09.26-.07.25-.07a1,1,0,0,0,.35-.22h.06a.78.78,0,0,0,.3,0l.14-.07c0-.18-.05-.17-.17-.13" fill="#ba1027"/>
              <path d="M33,22.12v.2l0,0a1.54,1.54,0,0,0,.37-.09l.28-.11L34,22l.14-.05.06,0,.12-.05.15-.06a.23.23,0,0,1,.11,0h.07c.07,0,.07-.1.07-.2-.23.07-.46.13-.68.21l-.2.08-.39.17a4.12,4.12,0,0,1-.47.13" fill="#8d0c1e"/>
              <path d="M38.33,19.31a1.91,1.91,0,0,0-.32.16.76.76,0,0,1-.18.09.39.39,0,0,1-.18,0l-.17,0-.11.05-.26.08v.1h0c0,.12.14.11.22.08l.1-.05.45-.19.61-.19h0l.1-.05a.52.52,0,0,1,.13-.06.15.15,0,0,1,.09,0v-.2a3.52,3.52,0,0,0-.52.12" fill="#b20f25"/>
              <path d="M38.86,19l-1,.38-.52.18c-.12,0-.2.1-.19.27l.26-.08.11-.05.17,0a.39.39,0,0,0,.18,0,.76.76,0,0,0,.18-.09,1.91,1.91,0,0,1,.32-.16,3.52,3.52,0,0,1,.52-.12V19" fill="#ba1027"/>
              <path d="M37.11,19.88h0v.19c.05.09.1.09.17.06l.11,0,.51-.17.35-.12.15-.06.14-.05.1,0a.94.94,0,0,0,.24-.13v-.15a.15.15,0,0,0-.09,0,.52.52,0,0,0-.13.06l-.1.05h0l-.61.19-.45.19-.1.05c-.08,0-.17,0-.22-.08" fill="#a80e24"/>
              <path d="M37.08,20.28v.14c0,.07.1.07.17,0l0,0c.2-.09.39-.16.58-.23s.65-.22,1-.33v-.15a4.7,4.7,0,0,0-.51.12.79.79,0,0,0-.26.15l-.07.05a1.37,1.37,0,0,1-.19,0l-.09,0a1.21,1.21,0,0,0-.2.09l-.19.08a.34.34,0,0,1-.26,0" fill="#9b0d21"/>
              <path d="M37.08,20.08v.2a.34.34,0,0,0,.26,0l.19-.08a1.21,1.21,0,0,1,.2-.09l.09,0a1.37,1.37,0,0,0,.19,0l.07-.05a.79.79,0,0,1,.26-.15,4.7,4.7,0,0,1,.51-.12v-.19a.94.94,0,0,1-.24.13l-.1,0-.14.05-.15.06-.35.12-.51.17-.11,0c-.07,0-.12,0-.17-.06" fill="#a20e22"/>
              <path d="M38.85,18.9l-1.49.54c-.28.1-.28.1-.28.45h0v-.1c0-.17.07-.22.19-.27l.52-.18,1-.38V18.9" fill="#ba051e"/>
              <path d="M34.57,24.36l-1.64.6c0,.17,0,.32,0,.48a1,1,0,0,1,.34-.27l.13,0h.05a1.13,1.13,0,0,0,.2-.13l.14-.06.32-.1a1.53,1.53,0,0,0,.26-.08l.17-.07h0c.13-.05.12.09.17.14,0-.11,0-.22,0-.34s0-.19-.15-.14" fill="#830c1d"/>
              <path d="M33.79,25l-.14.06a1.13,1.13,0,0,1-.2.13H33.4l-.13,0a1,1,0,0,0-.34.27v.15a7,7,0,0,1,.76-.33,5.94,5.94,0,0,1,.76-.23h0l.06,0s0,0,.06,0a.09.09,0,0,1,.13.06h0v-.19c0-.05,0-.19-.17-.14h0l-.17.07a1.53,1.53,0,0,1-.26.08l-.32.1" fill="#880c1e"/>
              <path d="M33.69,25.26a7,7,0,0,0-.76.33v.29a1,1,0,0,1,.38-.23l.18-.07.39-.14.12,0c.18-.07.37-.12.55-.18s.12.06.17.11V25h0a.09.09,0,0,0-.13-.06s0,0-.06,0l-.06,0h0a5.94,5.94,0,0,0-.76.23" fill="#8f0c1f"/>
              <path d="M33.49,25.58l-.18.07a1,1,0,0,0-.38.23v.25a.28.28,0,0,1,.19-.18h0l.25-.09.26-.1L34,25.6l.16-.05.12,0,.11,0a.59.59,0,0,1,.29,0v-.1s0-.14-.17-.11-.37.11-.55.18l-.12,0-.39.14" fill="#970d21"/>
              <path d="M34,25.81l-.38.14-.26.1-.26.09h0c-.09,0-.09.15-.16.18v.15l.11-.09.59-.23c.28-.1.55-.19.83-.27l.11,0c.11,0,.14-.08.15-.18s-.22,0-.34,0l0,0-.08,0-.06,0-.2.07" fill="#a50e23"/>
              <path d="M34,25.6l-.37.15-.26.1-.25.09h0a.28.28,0,0,0-.19.18v.19c.07,0,.07-.15.16-.18h0l.26-.09.26-.1.38-.14.2-.07.06,0,.08,0,0,0c.12,0,.24-.08.34,0v-.24a.59.59,0,0,0-.29,0l-.11,0-.12,0L34,25.6" fill="#9e0d22"/>
              <path d="M37.43,23.32c-.37.14-.37.2-.37.77a.34.34,0,0,1,.24-.28l.07,0a1.66,1.66,0,0,0,.21-.06l.23-.09.35-.13.12,0,.13,0,.12-.05a1.57,1.57,0,0,1,.31-.08c0-.16,0-.31,0-.48h0l-1.28.46-.14.05" fill="#840b1d"/>
              <path d="M37.3,23.81a.34.34,0,0,0-.24.28v.09h0v.14a.47.47,0,0,1,.25-.25l.07,0,.43-.12c.24-.09.47-.2.71-.3a1.55,1.55,0,0,0,.23-.05.2.2,0,0,0,.09-.05v-.25a1.57,1.57,0,0,0-.31.08l-.12.05-.13,0-.12,0-.35.13-.23.09a1.66,1.66,0,0,1-.21.06l-.07,0" fill="#8c0c1e"/>
              <path d="M37.89,24.58l-.45.18,0,0-.08,0-.08,0a.33.33,0,0,0-.19.18v.25a.33.33,0,0,1,.21-.22L37.5,25l.2-.05.07,0,.46-.2a1.82,1.82,0,0,1,.36-.08l.06,0a.44.44,0,0,0,.18-.13v-.19c-.32.1-.63.18-.94.3" fill="#ad0e24"/>
              <path d="M37.21,24.33a.29.29,0,0,0-.15.2v.29c0-.12.07-.19.18-.23h0l.26-.08.26-.11.35-.13.32-.11a1.47,1.47,0,0,0,.36-.17v-.2c-.18.07-.37.12-.55.18l-.22.1-.19.07c-.22.08-.44.13-.66.2" fill="#9b0d21"/>
              <path d="M37.3,24.08a.47.47,0,0,0-.25.25v.2a.29.29,0,0,1,.15-.2c.22-.07.44-.12.66-.2l.19-.07.22-.1c.18-.06.37-.11.55-.18v-.24a.2.2,0,0,1-.09.05,1.55,1.55,0,0,1-.23.05c-.24.1-.47.21-.71.3l-.43.12-.07,0" fill="#940d20"/>
              <path d="M38.83,24a1.47,1.47,0,0,1-.36.17l-.32.11-.35.13-.26.11-.26.08h0c-.11,0-.14.11-.18.23V25a.33.33,0,0,1,.19-.18l.08,0,.08,0,0,0,.45-.18c.31-.12.62-.2.94-.3V24" fill="#a40e23"/>
              <path d="M34.75,24.83h0V25h0v.29h0v-.49" fill="#a50e23"/>
              <path d="M39.12,37.83a.44.44,0,0,0-.2.11l.48-.18v0l-.06,0-.1,0-.12,0" fill="#980e21"/>
              <path d="M36.23,38.82l-.12,0-.51.19-.15,0h0a.32.32,0,0,1-.15.12h0l-.09,0-.16.1,1.58-.57-.08,0-.1,0-.06,0s-.07,0-.11,0" fill="#9e0d22"/>
              <path d="M39.25,35.58a.51.51,0,0,0-.18.45c0,.09.06.13,0,.2-.07.44,0,.86-.06,1.28,0,.2,0,.29.13.25l.09,0c0-.36,0-.74,0-1.08a4.38,4.38,0,0,1,0-.81.88.88,0,0,1,.06-.28l-.12,0h0" fill="#8a0c1e"/>
              <path d="M39.76,35.41l-.16.05a.39.39,0,0,0-.14.41c0,.3,0,.63,0,.94s-.09.52,0,.72l0,.11.19-.07h0a5.16,5.16,0,0,0,0-.88c0-.38.06-.8,0-1.18l.07-.1" fill="#980e21"/>
              <path d="M39.6,35.46l-.23.09a.88.88,0,0,0-.06.28,4.38,4.38,0,0,0,0,.81c0,.34,0,.72,0,1.08l.2-.08,0-.11c-.12-.2,0-.49,0-.72s0-.64,0-.94a.39.39,0,0,1,.14-.41" fill="#900c1f"/>
              <path d="M39.91,37.49l-.24.08v0l.44-.16-.2,0" fill="#980e21"/>
              <path d="M40.2,35.25h0l-.18.07a.53.53,0,0,0-.07.46c0,.3-.06.65,0,.95s-.07.52,0,.76l.2,0a4.59,4.59,0,0,0,.06-1.16,5.29,5.29,0,0,1,0-1" fill="#ad0e24"/>
              <path d="M40.67,35.07l0,0-.24.09h0c-.06.37,0,.7,0,1.07a3.21,3.21,0,0,1,0,.69c-.06.24.06.34.22.29a1.67,1.67,0,0,0,0-.63c0-.2,0-.43,0-.64s.06-.44,0-.64l.06-.26" fill="#bf1028"/>
              <path d="M36.5,38.73l-.12,0-.12,0h0s.07,0,.11,0l.06,0,.1,0v0" fill="#8e0c1e"/>
              <path d="M40,35.32l-.24.09-.07.1c0,.38,0,.8,0,1.18a5.16,5.16,0,0,1,0,.88l.24-.08c0-.24.08-.54,0-.76s0-.65,0-.95a.53.53,0,0,1,.07-.46" fill="#a20d22"/>
              <path d="M35.44,39.11l-.11,0h0l-.16.06h0v0l.09,0h0a.32.32,0,0,0,.15-.12" fill="#8f0c1f"/>
              <path d="M31.13,38.54l-.14.05h0c0,.09.07.13.05.2a6.36,6.36,0,0,0,0,1c0,.11.06.23,0,.33a.9.9,0,0,0,0,.59v0l.18-.06v0c-.1-.1-.07-.29,0-.43.09-.55-.05-1,0-1.56,0-.09-.07,0-.09-.1" fill="#c11129"/>
              <path d="M31.49,38.41l-.12,0a1.61,1.61,0,0,1,0,.79c0,.27,0,.5,0,.77s0,.27,0,.4,0,.19-.1.22h-.05l-.18.06.11,0h0l.55-.2v0l-.19.06,0,0h0v0a.47.47,0,0,0,0-.37V40c.09-.47,0-.88,0-1.34a.27.27,0,0,0-.1-.29" fill="#b20f26"/>
              <path d="M32.83,37.91h0l-.37.14c.08,0,.11.11.09.27a6.45,6.45,0,0,0,0,.76c0,.34,0,.65,0,1,0,.1,0,.14-.09.15l-.06,0-.06,0h-.06v0l.11,0h0l.18-.07.09,0,.06,0c.11,0,.15-.12.15-.3,0-.64,0-1.29,0-1.95h0" fill="#840b1d"/>
              <path d="M32,38.22l-.16.06c.16.06.07.28.09.44,0,.44-.05,1,0,1.41,0,.07.05.25-.09.3h-.05l-.08,0v.05l.19,0,.44-.16v0l-.11,0h0l-.2.07.09-.08a17.81,17.81,0,0,1,0-1.79.33.33,0,0,0-.11-.31" fill="#9b0d21"/>
              <path d="M32.44,38.06l-.24.09c.08,0,.08.14.08.25,0,.61,0,1.24,0,1.87h0l.06,0,.06,0c.05,0,.08,0,.09-.15,0-.33,0-.64,0-1a6.45,6.45,0,0,1,0-.76c0-.16,0-.22-.09-.27" fill="#8c0c1f"/>
              <path d="M31.37,38.45l-.24.09c0,.05.11,0,.09.1-.1.55,0,1,0,1.56,0,.14-.05.33,0,.43h.05c.09,0,.1-.13.1-.22s0-.27,0-.4,0-.5,0-.77a1.61,1.61,0,0,0,0-.79" fill="#ba0f27"/>
              <path d="M32.2,38.15l-.2.07a.33.33,0,0,1,.11.31,17.81,17.81,0,0,0,0,1.79l.11,0h0c0-.63.05-1.26,0-1.87,0-.11,0-.22-.08-.25" fill="#940d20"/>
              <path d="M31.84,38.28l-.16.06c.13.16.07.43.07.66a9.78,9.78,0,0,0,0,1.44h.05c.14,0,.1-.23.09-.3-.05-.46,0-1,0-1.41,0-.16.07-.38-.09-.44" fill="#a30e22"/>
              <path d="M31.68,38.34l-.19.07a.27.27,0,0,1,.1.29c-.06.46.05.87,0,1.34v.12a.47.47,0,0,1,0,.37l.16-.06.08,0a9.78,9.78,0,0,1,0-1.44c0-.23.06-.5-.07-.66" fill="#ab0e24"/>
              <path d="M35.33,37.06l-.06,0h0s0,0,0,.09,0,.37,0,.55c0,.48,0,1,0,1.48l.16-.06h0c0-.7,0-1.39,0-2.09" fill="#980d20"/>
              <polyline points="31.71 40.52 31.71 40.56 31.91 40.49 31.71 40.52" fill="#a30e22"/>
              <polyline points="31.71 40.47 31.55 40.53 31.54 40.55 31.54 40.56 31.52 40.58 31.71 40.52 31.71 40.47" fill="#a30e22"/>
              <path d="M32.22,40.28l-.11,0L32,40.4l.2-.07v0" fill="#8c0c1f"/>
            </g>
          </g>
        </g>
      </g>
    </g>
  </g>
</svg>
