<svg id="Capa_1" data-name="Capa 1" xmlns="http://www.w3.org/2000/svg" xmlns:xlink="http://www.w3.org/1999/xlink" width="50" height="50" viewBox="0 0 50 50">
  <defs>
    <clipPath id="clip-path">
      <polygon points="24.05 49.76 1.26 39.47 1.42 9.17 24.2 19.46 24.05 49.76" fill="none"/>
    </clipPath>
    <clipPath id="clip-path-2">
      <polygon points="24.2 19.46 1.42 9.17 25.96 0.24 48.75 10.53 24.2 19.46" fill="none"/>
    </clipPath>
    <clipPath id="clip-path-3">
      <polygon points="48.75 10.53 48.59 40.82 24.05 49.76 24.2 19.46 48.75 10.53" fill="none"/>
    </clipPath>
  </defs>
  <g id="Figment_lido">
    <g style="isolation: isolate">
      <g>
        <polygon points="24.05 49.76 1.26 39.47 1.42 9.17 24.2 19.46 24.05 49.76" fill="#0a50b6"/>
        <g style="isolation: isolate">
          <g clip-path="url(#clip-path)">
            <g>
              <path d="M13.17,17.24c-.15-.07-.24.05-.28.34l0,.34v3.3c0,1.13,0,2.26,0,3.4a1.71,1.71,0,0,0,.21.83c1,1.67,2.1,3.31,3.13,5a.88.88,0,0,0,.36.38.38.38,0,0,0,.36-.06l3-2c.38-.24.37-.42,0-1l-5-7.85c-.5-.79-1-1.57-1.49-2.34a.72.72,0,0,0-.27-.28" fill="#fff"/>
              <path d="M16.56,31.44a.31.31,0,0,0-.33,0c-1,.7-2,1.41-3.07,2.06-.27.17-.36.44-.35.89,0,1.07,0,2.14,0,3.19h0c0,1.17,0,2.35,0,3.53a1.18,1.18,0,0,0,.2.63l.06.05a.38.38,0,0,0,.33-.05c.55-.34,1.08-.72,1.62-1.08l4.9-3.27c.28-.18.29-.42,0-.81-1-1.63-2-3.22-3.06-4.85a.83.83,0,0,0-.34-.34" fill="#fff"/>
              <path d="M12.45,17a.39.39,0,0,0-.35,0c-.66.41-1.31.86-2,1.29-1.52,1-3.05,2-4.57,3-.29.2-.28.43,0,.9,1,1.59,2,3.18,3,4.77a.93.93,0,0,0,.34.38.35.35,0,0,0,.36-.06c1-.72,2.06-1.41,3.09-2.09a.67.67,0,0,0,.29-.66c0-1.15,0-2.29,0-3.44s0-2.31,0-3.46a1.34,1.34,0,0,0-.18-.64.19.19,0,0,0-.07-.06" fill="#fff"/>
              <path d="M8.94,28a.36.36,0,0,0-.35.06L5.84,29.94c-.67.44-.67.44,0,1.47Q8.91,36.28,12,41.15a1,1,0,0,0,.34.34h.07c.11,0,.18-.27.19-.47,0-1.14,0-2.31,0-3.47s0-2.31,0-3.47a1.38,1.38,0,0,0-.19-.7c-1-1.68-2.1-3.33-3.16-5A.91.91,0,0,0,8.94,28" fill="#fff"/>
              <path d="M12.77,25.45a.27.27,0,0,0-.27,0l-3,2c-.35.25-.36.43,0,1L12.44,33a.74.74,0,0,0,.3.31.28.28,0,0,0,.31-.05c1-.66,2-1.33,3-2,.09-.05.15-.17.24-.28a4.19,4.19,0,0,0-.2-.46l-3-4.84a.58.58,0,0,0-.26-.26" fill="#a2caed"/>
              <path d="M5.4,22.47a.14.14,0,0,0-.09,0c-.1,0-.19.26-.19.45,0,1,0,2,0,3.07h0V29.1a1.09,1.09,0,0,0,.18.54l.38.1c.94-.6,1.87-1.23,2.79-1.86.29-.21.28-.37,0-.83-.9-1.44-1.8-2.86-2.72-4.28a1,1,0,0,0-.31-.3" fill="#fff"/>
            </g>
          </g>
        </g>
      </g>
      <g>
        <polygon points="24.2 19.46 1.42 9.17 25.96 0.24 48.75 10.53 24.2 19.46" fill="#0b58c8"/>
        <g style="isolation: isolate">
          <g clip-path="url(#clip-path-2)">
            <g>
              <path d="M16.56,5.5c-.16.06-.15.16,0,.27l.25.13L19.34,7c.85.38,1.7.78,2.59,1.15a2,2,0,0,0,.8.16L29,8.26a1.94,1.94,0,0,0,.57-.07A.39.39,0,0,0,29.8,8c.27-.79.55-1.58.83-2.37.11-.3,0-.35-.76-.34L20,5.4l-3,0a1.84,1.84,0,0,0-.44.06" fill="#fff"/>
              <path d="M30,8.41a.32.32,0,0,0-.23.2c-.28.81-.55,1.63-.88,2.43-.08.21.06.35.4.5l2.42,1.09h0c.89.4,1.77.81,2.68,1.2a1.83,1.83,0,0,0,.64.1l.09,0a.4.4,0,0,0,.22-.2c.17-.43.31-.86.47-1.29.46-1.29.94-2.58,1.4-3.87.09-.23-.09-.31-.58-.3l-6.11.08a1.64,1.64,0,0,0-.53.08" fill="#fff"/>
              <path d="M15.79,5.82a.48.48,0,0,0-.26.21c-.21.51-.38,1-.57,1.54-.43,1.2-.87,2.41-1.32,3.61-.08.24.11.31.69.31l6-.09a1.62,1.62,0,0,0,.56-.07.33.33,0,0,0,.24-.22c.26-.82.56-1.64.87-2.45.06-.16,0-.27-.27-.39L19.13,7.1c-.87-.39-1.74-.8-2.62-1.18a1.49,1.49,0,0,0-.62-.12l-.1,0" fill="#fff"/>
              <path d="M21.4,11.55a.34.34,0,0,0-.23.22L20.39,14c-.2.53-.2.53,1.11.51l12.3-.19a2,2,0,0,0,.53-.08.09.09,0,0,0,.06,0c.08-.07-.06-.19-.2-.26-.86-.4-1.75-.79-2.63-1.19l-2.63-1.18a1.79,1.79,0,0,0-.68-.13l-6.31.08a2.14,2.14,0,0,0-.54.07" fill="#fff"/>
              <path d="M22.49,8.51a.32.32,0,0,0-.2.17c-.27.79-.57,1.57-.84,2.35-.09.28,0,.35.75.34L28,11.28a1.41,1.41,0,0,0,.47-.06.32.32,0,0,0,.21-.2l.85-2.37c0-.07,0-.14,0-.23-.2,0-.35-.05-.51-.05l-6.09.09a1.35,1.35,0,0,0-.4,0" fill="#a2caed"/>
              <path d="M14.37,11.67s-.06,0-.07.05,0,.2.18.26c.74.35,1.53.7,2.31,1h0l2.37,1.06a1.64,1.64,0,0,0,.56.09l.37-.19c.29-.73.55-1.47.81-2.21.07-.23-.06-.28-.64-.28-1.81,0-3.6.05-5.41.09a1.72,1.72,0,0,0-.47.07" fill="#fff"/>
            </g>
          </g>
        </g>
      </g>
      <g>
        <polygon points="48.75 10.53 48.59 40.82 24.05 49.76 24.2 19.46 48.75 10.53" fill="#0b59cc"/>
        <g style="isolation: isolate">
          <g clip-path="url(#clip-path-3)">
            <g>
              <path d="M37.2,18.35c-.16.06-.27.25-.3.57l0,.35,0,3.28c0,1.12,0,2.25,0,3.35a.82.82,0,0,0,.24.64c1.13.78,2.28,1.52,3.42,2.28a.4.4,0,0,0,.38.08,1,1,0,0,0,.4-.36c1.08-1.51,2.17-3,3.27-4.52.41-.56.4-.73,0-1q-2.73-1.77-5.44-3.57c-.55-.36-1.08-.72-1.63-1.06a.34.34,0,0,0-.3,0" fill="#fff"/>
              <path d="M40.9,29.54a.8.8,0,0,0-.37.32c-1.11,1.55-2.22,3.1-3.36,4.62a1.73,1.73,0,0,0-.38,1.17c0,1.05,0,2.12,0,3.17h0c0,1.17,0,2.34,0,3.5,0,.19.09.41.22.45a.06.06,0,0,0,.06,0,1,1,0,0,0,.36-.32c.6-.81,1.19-1.63,1.78-2.44l5.36-7.35c.32-.42.32-.66,0-.84-1.12-.75-2.23-1.47-3.35-2.21a.38.38,0,0,0-.36-.06" fill="#fff"/>
              <path d="M36.41,18.69A1.12,1.12,0,0,0,36,19c-.72,1-1.43,1.95-2.14,2.93l-5,6.85c-.33.45-.32.67,0,.89l3.29,2.17a.38.38,0,0,0,.38.08.91.91,0,0,0,.4-.36c1.11-1.57,2.25-3.12,3.38-4.66a1.38,1.38,0,0,0,.32-.9c0-1.13,0-2.26,0-3.4s0-2.3,0-3.44c0-.19-.08-.45-.19-.49h-.08" fill="#fff"/>
              <path d="M32.57,32.57a1,1,0,0,0-.39.36c-1,1.38-2,2.77-3,4.16-.73,1-.73,1,0,1.46,2.25,1.49,4.51,3,6.76,4.43a.5.5,0,0,0,.38,0,.18.18,0,0,0,.07-.05,1.07,1.07,0,0,0,.21-.62c0-1.14,0-2.29,0-3.45s0-2.3,0-3.43a.72.72,0,0,0-.2-.54l-3.46-2.29a.38.38,0,0,0-.36-.07" fill="#fff"/>
              <path d="M36.76,26.8a.73.73,0,0,0-.3.27c-1.08,1.49-2.17,3-3.25,4.47-.38.53-.39.72,0,1,1.06.68,2.13,1.37,3.19,2.07a.32.32,0,0,0,.32.06.77.77,0,0,0,.34-.32q1.65-2.23,3.28-4.5a4.16,4.16,0,0,0,.26-.48c-.09-.11-.13-.23-.21-.29L37,26.84a.32.32,0,0,0-.28,0" fill="#a2caed"/>
              <path d="M28.69,30.07a.18.18,0,0,0-.09.06,1.05,1.05,0,0,0-.22.61c0,1,0,2,0,3.05h0c0,1,0,2.06,0,3.09,0,.16.08.37.19.4L29,37c1-1.38,2-2.78,3.06-4.18.31-.45.3-.6,0-.82-1-.66-2-1.31-3-1.94a.4.4,0,0,0-.34,0" fill="#fff"/>
            </g>
          </g>
        </g>
      </g>
    </g>
  </g>
</svg>
