<svg id="Capa_1" data-name="Capa 1" xmlns="http://www.w3.org/2000/svg" xmlns:xlink="http://www.w3.org/1999/xlink" width="50" height="50" viewBox="0 0 50 50">
  <defs>
    <clipPath id="clip-path">
      <polygon points="24.04 49.76 1.25 39.47 1.41 9.17 24.2 19.46 24.04 49.76" fill="none"/>
    </clipPath>
    <clipPath id="clip-path-2">
      <polygon points="24.2 19.46 1.41 9.17 25.96 0.24 48.74 10.53 24.2 19.46" fill="none"/>
    </clipPath>
    <clipPath id="clip-path-3">
      <polygon points="48.74 10.53 48.59 40.82 24.04 49.76 24.2 19.46 48.74 10.53" fill="none"/>
    </clipPath>
  </defs>
  <g id="Figment_lido">
    <g style="isolation: isolate">
      <g>
        <polygon points="24.04 49.76 1.25 39.47 1.41 9.17 24.2 19.46 24.04 49.76" fill="#d6d6d6"/>
        <g style="isolation: isolate">
          <g clip-path="url(#clip-path)">
            <g>
              <path d="M10.84,39.13a9.07,9.07,0,0,0,1.86,1.13,6.6,6.6,0,0,0,1.49.48,7.29,7.29,0,0,1-1.43-.48l-.2-.09a10.36,10.36,0,0,1-1.72-1m-.29-5.33a.54.54,0,0,0,.24.21.54.54,0,0,1-.24-.21M7.7,31.48a.27.27,0,0,1,.11.1.27.27,0,0,0-.11-.1m3.16.73h0M7.91,30.64c0-.31.14-.26.23-.26a11.83,11.83,0,0,1,3.43.48,1.38,1.38,0,0,1,.25.05c.08,0,.15.12.17.33,0,.46-.21.26-.38.2a13.68,13.68,0,0,0-3.47-.72,1.6,1.6,0,0,1-.23-.08m6.77-7.91c-.08,0-.16,0-.24.19-.34.66-.69,1.31-1,1.94-.06.13-.1.38-.28.3l0,0c-.18-.1-.16-.38-.24-.55s-.06-.71-.32-.82l0,0c-.25-.07-.21.41-.3.62A10.32,10.32,0,0,0,12,27.11c0,.89,0,1.58,0,2.28,0,.34-.06.5-.32.42a14,14,0,0,0-3.53-.46.32.32,0,0,1-.14,0s-.09-.09-.11-.27c-.13-1,.18-1.75.76-1.84a1,1,0,0,1,.58.08,2.39,2.39,0,0,1,1.06,1.37.64.64,0,0,0,.28.38c.09,0,.19,0,.29.07.26.07.3-.13.29-.42A11.83,11.83,0,0,0,11,26c0-.2,0-.45-.23-.54h0c-.15-.06-.16.17-.2.29s-.07.34-.23.28h0c-.15-.07-.18-.28-.24-.46-.19-.58-.38-1.17-.58-1.74-.13-.35-.2-.54-.28-.57s-.17.08-.3.32c-.22.41-.45.81-.67,1.2-.06.11-.09.28-.22.23h0c-.15-.07-.18-.28-.23-.46s-.07-.41-.2-.47h0c-.17-.07-.19.19-.24.33a3.22,3.22,0,0,0-.15,1c0,1.19,0,2.37,0,3.57,0,.33-.08.47-.3.51a4.89,4.89,0,0,0-1.25.38.36.36,0,0,1-.29,0,.17.17,0,0,1-.09-.08,16.12,16.12,0,0,0,.48,1.68c0-.13.08-.2.28-.23a11.4,11.4,0,0,1,5.24.53,2.61,2.61,0,0,1,.38.14c.32.14.32.29.32,1,0,.48,0,1,0,1.43a.53.53,0,0,0,.33.6l.1,0,.09,0,.07,0c.18.08.33.09.33-.31,0-.58,0-1.13,0-1.7,0-.37.06-.48.3-.37l.08,0a18.2,18.2,0,0,1,2.93,2.12.67.67,0,0,1,.26.64c0,.27,0,.56,0,.84a.56.56,0,0,0,.32.6h0c.24.1.36,0,.35-.3v-.87a24.29,24.29,0,0,1,2.19,2.58c.15-.24.28-.48.41-.74h0c-.1,0-.24-.29-.35-.42a20,20,0,0,0-6-5l-.19-.11h-.07a.43.43,0,0,1-.24-.45c0-.26.09-.29.27-.21l.09,0A19.29,19.29,0,0,1,20,36.55a.87.87,0,0,1,.15.21,10.24,10.24,0,0,0,.45-2c0,.09-.09.1-.17.07a1.2,1.2,0,0,1-.23-.17,28.41,28.41,0,0,0-5-3.57l-.45-.21c-.47-.21-.94-.38-1.41-.55l-.08,0c-.21-.09-.28-.22-.24-.57.12-1,.68-1.59,1.45-1.4l.25.08a3.25,3.25,0,0,1,1.51,2.07c.09.3.08.64.35.88a2,2,0,0,0,.37.27c.27.12.39-.08.39-.66,0-.95,0-1.91,0-2.85A8.09,8.09,0,0,0,16.92,26a.53.53,0,0,0-.17-.36h0c-.13-.05-.14.1-.2.19s-.09.81-.4.67h0c-.28-.14-.31-.68-.44-1-.28-.76-.51-1.52-.77-2.29a.72.72,0,0,0-.22-.4" fill="#fff"/>
              <path d="M12.78,18.68A4.92,4.92,0,0,0,6.69,19.8C4.81,22,4.37,25.23,5.13,29.35a1.33,1.33,0,0,0,.16.49.17.17,0,0,0,.09.08.36.36,0,0,0,.29,0,4.89,4.89,0,0,1,1.25-.38c.22,0,.3-.18.3-.51,0-1.2,0-2.38,0-3.57a3.22,3.22,0,0,1,.15-1c0-.14.07-.4.24-.33h0c.13.06.15.31.2.47s.08.39.23.46h0c.13,0,.16-.12.22-.23.22-.39.45-.79.67-1.2.13-.24.22-.36.3-.32s.15.22.28.57c.2.57.39,1.16.58,1.74.06.18.09.39.24.46h0c.16.06.17-.15.23-.28s.05-.35.2-.29h0c.18.09.18.34.23.54a11.83,11.83,0,0,1,.14,2.7c0,.29,0,.49-.29.42-.1,0-.2,0-.29-.07a.64.64,0,0,1-.28-.38,2.39,2.39,0,0,0-1.06-1.37,1,1,0,0,0-.58-.08c-.58.09-.89.85-.76,1.84,0,.18.06.24.11.27a.32.32,0,0,0,.14,0,14,14,0,0,1,3.53.46c.26.08.33-.08.32-.42,0-.7,0-1.39,0-2.28a10.32,10.32,0,0,1,.19-2.74c.09-.21.05-.69.3-.62l0,0c.26.11.19.55.32.82s.06.45.24.55l0,0c.18.08.22-.17.28-.3.36-.63.71-1.28,1-1.94.08-.16.16-.22.24-.19a.72.72,0,0,1,.22.4c.26.77.49,1.53.77,2.29.13.37.16.91.44,1h0c.31.14.26-.45.4-.67s.07-.24.2-.19h0a.53.53,0,0,1,.17.36,8.09,8.09,0,0,1,.35,2.09c0,.94,0,1.9,0,2.85,0,.58-.12.78-.39.66a2,2,0,0,1-.37-.27c-.27-.24-.26-.58-.35-.88a3.25,3.25,0,0,0-1.51-2.07l-.25-.08c-.77-.19-1.33.38-1.45,1.4,0,.35,0,.48.24.57l.08,0c.47.17.94.34,1.41.55l.45.21a28.41,28.41,0,0,1,5,3.57,1.2,1.2,0,0,0,.23.17c.08,0,.14,0,.17-.07a.56.56,0,0,0,.05-.23,17.17,17.17,0,0,0-1.44-8.57c-1.58-3.62-4-6.17-6.38-7.25" fill="#f48624"/>
              <path d="M7.7,31.48a.27.27,0,0,1,.11.1,1,1,0,0,1,.08.47v.07c0,.32-.12.37-.36.27s-.34-.28-.34-.61.25-.36.45-.32l.06,0m3.16.73h0a.5.5,0,0,1,.25.54v.53a.52.52,0,0,0,0,.14c0,.12,0,.27,0,.39s-.06.3-.33.2h0a.54.54,0,0,1-.24-.21.67.67,0,0,1-.07-.27v-.06c0-.17,0-.35,0-.52s0-.21,0-.32v-.09c0-.29.06-.46.34-.35l0,0m.81-.25a2.61,2.61,0,0,0-.38-.14,11.4,11.4,0,0,0-5.24-.53c-.2,0-.28.1-.28.23a1.21,1.21,0,0,0,.12.44,15.79,15.79,0,0,0,5,7.17,10.36,10.36,0,0,0,1.72,1l.2.09a7.29,7.29,0,0,0,1.43.48c2.1.46,3.81-.37,5.18-2.3l0,0a24.29,24.29,0,0,0-2.19-2.58v.87c0,.34-.11.4-.35.3h0a.56.56,0,0,1-.32-.6c0-.28,0-.57,0-.84a.67.67,0,0,0-.26-.64,18.2,18.2,0,0,0-2.93-2.12l-.08,0c-.24-.11-.31,0-.3.37,0,.57,0,1.12,0,1.7,0,.4-.15.39-.33.31l-.07,0-.09,0-.1,0a.53.53,0,0,1-.33-.6c0-.47,0-1,0-1.43,0-.71,0-.86-.32-1" fill="#f48624"/>
              <path d="M13.24,31.46l-.09,0c-.18-.08-.26-.05-.27.21a.43.43,0,0,0,.24.45h.07l.19.11a20,20,0,0,1,6,5c.11.13.25.38.35.42h0l0,0a2,2,0,0,0,.35-.69.44.44,0,0,0,0-.18.87.87,0,0,0-.15-.21,19.29,19.29,0,0,0-6.71-5.09" fill="#0f3040"/>
              <path d="M11.82,30.91a1.38,1.38,0,0,0-.25-.05,11.83,11.83,0,0,0-3.43-.48c-.09,0-.22-.05-.23.26a1.6,1.6,0,0,0,.23.08,13.68,13.68,0,0,1,3.47.72c.17.06.43.26.38-.2,0-.21-.09-.29-.17-.33" fill="#0f3040"/>
              <path d="M10.86,32.21l0,0c-.28-.11-.34.06-.34.35v.09c0,.11,0,.21,0,.32s0,.35,0,.52v.06a.67.67,0,0,0,.07.27.54.54,0,0,0,.24.21h0c.27.1.33,0,.33-.2s0-.27,0-.39a.52.52,0,0,1,0-.14v-.53a.5.5,0,0,0-.25-.54h0" fill="#fdfcfb"/>
              <path d="M7.7,31.48l-.06,0c-.2,0-.45-.1-.45.32s.09.5.34.61.37,0,.36-.27v-.07a1,1,0,0,0-.08-.47.27.27,0,0,0-.11-.1" fill="#fdfcfb"/>
            </g>
          </g>
        </g>
      </g>
      <g>
        <polygon points="24.2 19.46 1.41 9.17 25.96 0.24 48.74 10.53 24.2 19.46" fill="#ebebeb"/>
        <g style="isolation: isolate">
          <g clip-path="url(#clip-path-2)">
            <g>
              <path d="M30.75,14.07A18,18,0,0,0,33,13.43a12.46,12.46,0,0,0,1.49-.66,10.68,10.68,0,0,1-1.46.62l-.22.08a17.39,17.39,0,0,1-2.09.6M26.6,12.48a1,1,0,0,0,.33-.07,1,1,0,0,1-.33.07m-3.91.8.16,0-.16,0m3-1.5h0m-3.43,1.1c-.22-.1-.08-.16,0-.21a17.54,17.54,0,0,1,3-1.72,1.14,1.14,0,0,1,.22-.12.55.55,0,0,1,.38,0c.37.13,0,.2-.14.27a22.85,22.85,0,0,0-3.21,1.67,1.94,1.94,0,0,1-.24.1m-.61-6.32c-.09,0-.1.09-.05.19.22.41.43.81.63,1.22,0,.08.19.18,0,.25h0a1.65,1.65,0,0,1-.59-.05c-.3,0-.57-.2-.85-.1l0,0c-.25.11.14.24.23.37.35.45,1.38.7,1.88,1,.65.3,1.15.53,1.68.75.26.11.32.2.06.32a21.28,21.28,0,0,0-3.06,1.78.5.5,0,0,1-.12.08.42.42,0,0,1-.28,0c-.83-.25-1.15-.67-.77-1a1.45,1.45,0,0,1,.5-.3,4.26,4.26,0,0,1,1.83-.12,1.15,1.15,0,0,0,.5,0c.1,0,.17-.09.27-.13.26-.12.13-.21-.09-.3a9.79,9.79,0,0,0-2.1-.81,1,1,0,0,0-.57-.06h0c-.16.06,0,.13.06.2s.2.15,0,.22h0a1,1,0,0,1-.51,0l-1.75-.25a1.9,1.9,0,0,0-.63,0c-.09,0-.07.12,0,.28s.25.51.36.76c0,.07.14.14,0,.19h0a1,1,0,0,1-.52,0,1.21,1.21,0,0,0-.5,0h0c-.18.07,0,.17.06.24a2,2,0,0,0,.64.42l2.63,1.18c.25.11.29.19.15.33a4.58,4.58,0,0,0-.69.81.29.29,0,0,1-.19.17.25.25,0,0,1-.13,0c.53.11,1.07.21,1.62.29-.1,0-.09-.11,0-.23a16.56,16.56,0,0,1,4.43-2.71l.39-.16c.36-.13.46-.08,1,.16.35.16.72.31,1.05.48a.76.76,0,0,0,.69,0l.11,0,.1,0,.08,0c.2-.08.33-.15,0-.28s-.82-.38-1.25-.56-.31-.19,0-.29l.09,0a36.27,36.27,0,0,1,3.82-.91.91.91,0,0,1,.67.07c.2.1.42.18.61.28a.83.83,0,0,0,.69,0h0c.26-.1.3-.19,0-.3l-.64-.28c1.24-.18,2.39-.27,3.59-.35a2.27,2.27,0,0,0-.23-.47h0a3.1,3.1,0,0,1-.57,0,39.2,39.2,0,0,0-8.31,1.64l-.23.07-.05,0h0a.65.65,0,0,1-.51,0c-.19-.09-.15-.14,0-.21l.11,0a36.79,36.79,0,0,1,8.92-2,1.22,1.22,0,0,1,.27,0A5.78,5.78,0,0,0,35,7.29s0,.09-.09.12a2.28,2.28,0,0,1-.3.07A53.94,53.94,0,0,0,28.1,9.07l-.51.17c-.52.19-1,.4-1.49.6l-.09,0a.57.57,0,0,1-.6-.06c-.67-.4-.66-.89.07-1.25l.26-.11a5.52,5.52,0,0,1,2.69-.15,2.39,2.39,0,0,0,.92.1,3.3,3.3,0,0,0,.48-.12c.3-.11.24-.24-.19-.43-.68-.32-1.41-.62-2.08-.95a9.48,9.48,0,0,0-1.81-.5.77.77,0,0,0-.4,0h0c-.14.05,0,.11,0,.17s.52.31.18.44h0a2.93,2.93,0,0,1-1.11-.11c-.77-.1-1.52-.22-2.28-.33a1,1,0,0,0-.46,0" fill="#fff"/>
              <path d="M17.17,6.26c-2.47.9-4,2.22-3.88,3.72.16,1.74,2.22,3.06,5.85,4a1.69,1.69,0,0,0,.48.08.25.25,0,0,0,.13,0,.29.29,0,0,0,.19-.17,4.58,4.58,0,0,1,.69-.81c.14-.14.1-.22-.15-.33l-2.63-1.18a2,2,0,0,1-.64-.42c-.06-.07-.24-.17-.06-.24h0a1.21,1.21,0,0,1,.5,0,1,1,0,0,0,.52,0h0c.14,0,0-.12,0-.19-.11-.25-.24-.51-.36-.76s-.1-.24,0-.28a1.9,1.9,0,0,1,.63,0L20.2,10a1,1,0,0,0,.51,0h0c.17-.07,0-.15,0-.22s-.22-.14-.06-.2h0a1,1,0,0,1,.57.06,9.79,9.79,0,0,1,2.1.81c.22.09.35.18.09.3-.1,0-.17.1-.27.13a1.15,1.15,0,0,1-.5,0,4.26,4.26,0,0,0-1.83.12,1.45,1.45,0,0,0-.5.3c-.38.35-.06.77.77,1a.42.42,0,0,0,.28,0,.5.5,0,0,0,.12-.08,21.28,21.28,0,0,1,3.06-1.78c.26-.12.2-.21-.06-.32-.53-.22-1-.45-1.68-.75-.5-.3-1.53-.55-1.88-1-.09-.13-.48-.26-.23-.37l0,0c.28-.1.55.09.85.1a1.65,1.65,0,0,0,.59.05h0c.19-.07,0-.17,0-.25-.2-.41-.41-.81-.63-1.22-.05-.1,0-.16.05-.19a1,1,0,0,1,.46,0c.76.11,1.51.23,2.28.33A2.93,2.93,0,0,0,25.47,7h0c.34-.13-.13-.29-.18-.44s-.13-.12,0-.17h0a.77.77,0,0,1,.4,0,9.48,9.48,0,0,1,1.81.5c.67.33,1.4.63,2.08.95.43.19.49.32.19.43a3.3,3.3,0,0,1-.48.12,2.39,2.39,0,0,1-.92-.1,5.52,5.52,0,0,0-2.69.15l-.26.11c-.73.36-.74.85-.07,1.25a.57.57,0,0,0,.6.06l.09,0c.49-.2,1-.41,1.49-.6l.51-.17a53.94,53.94,0,0,1,6.51-1.59,2.28,2.28,0,0,0,.3-.07q.14,0,.09-.12a.38.38,0,0,0-.13-.1,18,18,0,0,0-7.44-2A25.18,25.18,0,0,0,17.17,6.26" fill="#f48624"/>
              <path d="M22.69,13.28l.16,0a1.13,1.13,0,0,1,.41.11l0,0c.24.1.18.19-.08.29a.84.84,0,0,1-.71,0c-.31-.13-.07-.25.11-.35l.06,0m3-1.5h0a.69.69,0,0,1,.59,0l.12,0,.27.12a.18.18,0,0,0,.08.06c.09,0,.22.07.31.12s.18.13-.11.24h0a1,1,0,0,1-.33.07.88.88,0,0,1-.26-.06h0l-.38-.18a1.33,1.33,0,0,0-.24-.1l-.07,0c-.21-.1-.29-.19,0-.3l0,0m.44-.53-.39.16a16.56,16.56,0,0,0-4.43,2.71c-.13.12-.14.18,0,.23a1.6,1.6,0,0,0,.41.08,27,27,0,0,0,9.1-.36,17.39,17.39,0,0,0,2.09-.6l.22-.08a10.68,10.68,0,0,0,1.46-.62c2-1,2.67-2.22,2.3-3.61h-.07c-1.2.08-2.35.17-3.59.35l.64.28c.26.11.22.2,0,.3h0a.83.83,0,0,1-.69,0c-.19-.1-.41-.18-.61-.28a.91.91,0,0,0-.67-.07,36.27,36.27,0,0,0-3.82.91l-.09,0c-.27.1-.24.17,0,.29s.82.37,1.25.56.18.2,0,.28l-.08,0-.1,0-.11,0a.76.76,0,0,1-.69,0c-.33-.17-.7-.32-1.05-.48-.53-.24-.63-.29-1-.16" fill="#f48624"/>
              <path d="M27,10.23l-.11,0c-.19.07-.23.12,0,.21a.65.65,0,0,0,.51,0h0l.05,0,.23-.07a39.2,39.2,0,0,1,8.31-1.64,3.1,3.1,0,0,0,.57,0h0v0c0-.15-.15-.3-.23-.42a.58.58,0,0,0-.16,0,1.22,1.22,0,0,0-.27,0,36.79,36.79,0,0,0-8.92,2" fill="#0f3040"/>
              <path d="M25.44,10.83a1.14,1.14,0,0,0-.22.12,17.54,17.54,0,0,0-3,1.72c-.07.05-.21.11,0,.21a1.94,1.94,0,0,0,.24-.1,22.85,22.85,0,0,1,3.21-1.67c.17-.07.51-.14.14-.27a.55.55,0,0,0-.38,0" fill="#0f3040"/>
              <path d="M25.66,11.78l0,0c-.3.11-.22.2,0,.3l.07,0a1.33,1.33,0,0,1,.24.1l.38.18h0a.88.88,0,0,0,.26.06,1,1,0,0,0,.33-.07h0c.29-.11.24-.18.11-.24s-.22-.08-.31-.12a.18.18,0,0,1-.08-.06l-.27-.12-.12,0a.69.69,0,0,0-.59,0h0" fill="#fdfcfb"/>
              <path d="M22.69,13.28l-.06,0c-.18.1-.42.22-.11.35a.84.84,0,0,0,.71,0c.26-.1.32-.19.08-.29l0,0a1.13,1.13,0,0,0-.41-.11l-.16,0" fill="#fdfcfb"/>
            </g>
          </g>
        </g>
      </g>
      <g>
        <polygon points="48.74 10.53 48.59 40.82 24.04 49.76 24.2 19.46 48.74 10.53" fill="#f0f0f0"/>
        <g style="isolation: isolate">
          <g clip-path="url(#clip-path-3)">
            <g>
              <path d="M34.3,41.37a7.22,7.22,0,0,0,2.05-.45A9.82,9.82,0,0,0,38,40.14a9.85,9.85,0,0,1-1.58.73l-.22.08a8.74,8.74,0,0,1-1.89.42M34,36.31c.06,0,.15,0,.26,0-.11,0-.2,0-.26,0m-3.14.11a.13.13,0,0,1,.12,0,.13.13,0,0,0-.12,0m3.48-2h0m-3.25.94a.5.5,0,0,1,.25-.46,24.48,24.48,0,0,1,3.79-2.43c.08,0,.18-.12.27-.15s.16,0,.19.18c.05.41-.23.43-.42.52a23.33,23.33,0,0,0-3.82,2.22c-.08,0-.16.07-.26.12m7.47-13.62c-.08,0-.17.16-.26.39-.38.95-.77,1.89-1.16,2.82-.07.19-.11.47-.31.54h0c-.19,0-.17-.24-.26-.35s-.06-.65-.35-.55l0,0c-.28.14-.23.57-.33.86a11.22,11.22,0,0,0-.21,2.89c0,.89,0,1.59,0,2.27a.65.65,0,0,1-.35.7,27.44,27.44,0,0,0-3.89,2.53L31.2,34c-.07,0-.11,0-.13-.17a2.89,2.89,0,0,1,.84-2.48,1.94,1.94,0,0,1,.64-.42.94.94,0,0,1,1.16.47c.11.16.21.17.32.13a2.55,2.55,0,0,0,.32-.17.61.61,0,0,0,.31-.66,9.48,9.48,0,0,0-.14-2.58c-.06-.15-.05-.4-.25-.34h0c-.17.06-.17.3-.22.46s-.08.4-.25.47h0c-.17.06-.2-.13-.26-.25-.22-.41-.42-.84-.65-1.24-.13-.24-.22-.36-.31-.33s-.18.22-.33.58c-.24.59-.49,1.18-.74,1.76-.06.16-.09.35-.24.41h0c-.17.06-.2-.13-.26-.27s-.07-.35-.21-.29h0c-.18.08-.2.35-.26.53a3.78,3.78,0,0,0-.16,1.14c0,1.19,0,2.37,0,3.56a.9.9,0,0,1-.33.76,17.16,17.16,0,0,0-1.38,1.44.85.85,0,0,1-.32.29.17.17,0,0,1-.1,0,9,9,0,0,0,.53,1.26c0-.13.09-.27.31-.46a23.87,23.87,0,0,1,5.78-3.93l.41-.18c.36-.13.35,0,.36.73,0,.48,0,1,0,1.44s.16.38.37.31L36,36l.1,0,.08,0c.19-.07.36-.18.35-.58,0-.56,0-1.13,0-1.68,0-.36.07-.53.33-.63L37,33a12.54,12.54,0,0,1,3.23-.38c.23,0,.3.14.28.43s0,.55,0,.84.09.42.35.33h0a.53.53,0,0,0,.39-.6v-.86a9.32,9.32,0,0,1,2.42.71c.16-.36.3-.72.44-1.08l0,0c-.11,0-.26-.09-.38-.13a11.23,11.23,0,0,0-6.59.08l-.21.06,0,0h0c-.17.06-.26,0-.26-.24a.42.42,0,0,1,.29-.44l.11,0a12,12,0,0,1,7.39-.62c.06,0,.12,0,.16.08A17,17,0,0,0,45,28.75a.32.32,0,0,1-.2.21.64.64,0,0,1-.25,0,19.27,19.27,0,0,0-5.55.73,4,4,0,0,0-.49.16c-.52.19-1,.42-1.56.65l-.09,0c-.23.09-.3,0-.26-.37a3.46,3.46,0,0,1,1.59-2.62l.28-.13a1.26,1.26,0,0,1,1.67.78c.1.22.08.57.38.58a1,1,0,0,0,.41-.05c.3-.11.42-.41.43-1,0-.95,0-1.9,0-2.86A5,5,0,0,0,41,23.12c0-.11-.06-.23-.19-.21h0c-.14,0-.16.22-.22.36-.16.34-.1.88-.44,1h0c-.3.09-.33-.42-.48-.67-.3-.52-.56-1.08-.84-1.63-.08-.17-.16-.24-.25-.21" fill="#fff"/>
              <path d="M36.47,19.35a13.32,13.32,0,0,0-6.72,6.29A14.67,14.67,0,0,0,28,36.47c.05.19.09.32.17.36a.17.17,0,0,0,.1,0,.85.85,0,0,0,.32-.29A17.16,17.16,0,0,1,30,35.1a.9.9,0,0,0,.33-.76c0-1.19,0-2.37,0-3.56a3.78,3.78,0,0,1,.16-1.14c.06-.18.08-.45.26-.53h0c.14-.06.16.17.21.29s.09.33.26.27h0c.15-.06.18-.25.24-.41.25-.58.5-1.17.74-1.76.15-.36.24-.55.33-.58s.18.09.31.33c.23.4.43.83.65,1.24.06.12.09.31.26.25h0c.17-.07.19-.3.25-.47s.05-.4.22-.46h0c.2-.06.19.19.25.34a9.48,9.48,0,0,1,.14,2.58.61.61,0,0,1-.31.66,2.55,2.55,0,0,1-.32.17c-.11,0-.21,0-.32-.13A.94.94,0,0,0,32.55,31a1.94,1.94,0,0,0-.64.42,2.89,2.89,0,0,0-.84,2.48c0,.16.06.19.13.17l.15-.11a27.44,27.44,0,0,1,3.89-2.53.65.65,0,0,0,.35-.7c0-.68,0-1.38,0-2.27a11.22,11.22,0,0,1,.21-2.89c.1-.29,0-.72.33-.86l0,0c.29-.1.2.4.35.55s.07.39.26.35h0c.2-.07.24-.35.31-.54.39-.93.78-1.87,1.16-2.82.09-.23.18-.36.26-.39s.17,0,.25.21c.28.55.54,1.11.84,1.63.15.25.18.76.48.67h0c.34-.12.28-.66.44-1,.06-.14.08-.31.22-.36h0c.13,0,.16.1.19.21a5,5,0,0,1,.38,1.79c0,1,0,1.91,0,2.86,0,.57-.13.87-.43,1a1,1,0,0,1-.41.05c-.3,0-.28-.36-.38-.58a1.26,1.26,0,0,0-1.67-.78l-.28.13a3.46,3.46,0,0,0-1.59,2.62c0,.38,0,.46.26.37l.09,0c.52-.23,1-.46,1.56-.65a4,4,0,0,1,.49-.16A19.27,19.27,0,0,1,44.57,29a.64.64,0,0,0,.25,0,.32.32,0,0,0,.2-.21,1.46,1.46,0,0,0,0-.27c.3-3-.2-5.49-1.58-7.31a5.85,5.85,0,0,0-7-1.82" fill="#f48624"/>
              <path d="M30.85,36.42a.13.13,0,0,1,.12,0c.08,0,.08.25.09.4v.07a.55.55,0,0,1-.4.58c-.27.1-.38,0-.37-.32a.76.76,0,0,1,.49-.7l.07,0m3.48-2h0c.26-.08.29.09.28.31v.54a.39.39,0,0,0,0,.15c0,.12,0,.25,0,.38s-.07.35-.37.47h0c-.11,0-.2,0-.26,0a.35.35,0,0,1-.08-.22V36c0-.18,0-.35,0-.53s0-.21,0-.31v-.09a.6.6,0,0,1,.38-.64h0m.89-.94-.41.18A23.87,23.87,0,0,0,29,37.63c-.22.19-.31.33-.31.46a.66.66,0,0,0,.13.34,5.57,5.57,0,0,0,5.45,2.94A8.74,8.74,0,0,0,36.19,41l.22-.08A9.85,9.85,0,0,0,38,40.14a15,15,0,0,0,5.72-6.7h0a9.32,9.32,0,0,0-2.42-.71v.86a.53.53,0,0,1-.39.6h0c-.26.09-.36,0-.35-.33s0-.56,0-.84,0-.42-.28-.43A12.54,12.54,0,0,0,37,33l-.09,0c-.26.1-.34.27-.33.63,0,.55,0,1.12,0,1.68,0,.4-.16.51-.35.58l-.08,0L36,36l-.11,0c-.21.07-.39.09-.37-.31s0-1,0-1.44c0-.71,0-.86-.36-.73" fill="#f48624"/>
              <path d="M37,31.7l-.11,0a.42.42,0,0,0-.29.44c0,.25.09.3.26.24h0l0,0,.21-.06a11.23,11.23,0,0,1,6.59-.08c.12,0,.27.17.38.13l0,0,0,0a5.81,5.81,0,0,0,.39-1,.3.3,0,0,0,0-.16c0-.07-.1-.07-.16-.08A12,12,0,0,0,37,31.7" fill="#0f3040"/>
              <path d="M35.39,32.36c-.09,0-.19.12-.27.15a24.48,24.48,0,0,0-3.79,2.43.5.5,0,0,0-.25.46c.1,0,.18-.07.26-.12a23.33,23.33,0,0,1,3.82-2.22c.19-.09.47-.11.42-.52,0-.19-.1-.22-.19-.18" fill="#0f3040"/>
              <path d="M34.33,34.46h0a.6.6,0,0,0-.38.64v.09c0,.1,0,.21,0,.31s0,.35,0,.53v.05a.35.35,0,0,0,.08.22c.06,0,.15,0,.26,0h0c.3-.12.37-.29.37-.47s0-.26,0-.38a.39.39,0,0,1,0-.15v-.54c0-.22,0-.39-.28-.31h0" fill="#fdfcfb"/>
              <path d="M30.85,36.42l-.07,0a.76.76,0,0,0-.49.7c0,.33.1.42.37.32a.55.55,0,0,0,.4-.58v-.07c0-.15,0-.35-.09-.4a.13.13,0,0,0-.12,0" fill="#fdfcfb"/>
            </g>
          </g>
        </g>
      </g>
    </g>
  </g>
</svg>
