<svg id="Capa_1" data-name="Capa 1" xmlns="http://www.w3.org/2000/svg" xmlns:xlink="http://www.w3.org/1999/xlink" width="50" height="50" viewBox="0 0 50 50">
  <defs>
    <clipPath id="clip-path">
      <polygon points="24.04 49.76 1.25 39.47 1.41 9.18 24.2 19.47 24.04 49.76" fill="none"/>
    </clipPath>
    <clipPath id="clip-path-2">
      <polygon points="24.2 19.47 1.41 9.18 25.96 0.24 48.75 10.53 24.2 19.47" fill="none"/>
    </clipPath>
    <clipPath id="clip-path-3">
      <polygon points="48.75 10.53 48.59 40.83 24.04 49.76 24.2 19.47 48.75 10.53" fill="none"/>
    </clipPath>
  </defs>
  <g id="Figment_lido">
    <g style="isolation: isolate">
      <g>
        <polygon points="24.04 49.76 1.25 39.47 1.41 9.18 24.2 19.47 24.04 49.76" fill="#d6d6d6"/>
        <g style="isolation: isolate">
          <g clip-path="url(#clip-path)">
            <g>
              <path d="M12.41,17.15l-.05,0,0,.11c0,.15,0,.31,0,.46s0,.5,0,.75-.06.75-.11,1.12a11.38,11.38,0,0,1-.58,2.51,7.41,7.41,0,0,1-.71,1.47,8.78,8.78,0,0,1-1,1.29c-.24.25-.5.49-.75.73s-.43.44-.63.68a5.77,5.77,0,0,0-.84,1.31A7.27,7.27,0,0,0,7,29.83a6,6,0,0,0-.06,1v.45A9.54,9.54,0,0,0,7,32.53a13.37,13.37,0,0,0,.63,2.72,14.61,14.61,0,0,0,1.42,3.08,11.24,11.24,0,0,0,1.36,1.84,5.85,5.85,0,0,0,1,.85l.06.06.18.08h0c.08,0,.09-.08.07-.19a2.14,2.14,0,0,0-.09-.34c-.12-.41-.27-.8-.4-1.2a18.36,18.36,0,0,1-.59-2.23,12.67,12.67,0,0,1-.22-1.79,5.63,5.63,0,0,1,.07-1.24,6.08,6.08,0,0,1,.44-1.55,9,9,0,0,1,.83-1.5c.31-.46.64-.89,1-1.33s.61-.82.89-1.26a7.43,7.43,0,0,0,.64-1.26,5,5,0,0,0,.3-1.89l0-.85c0-.34-.06-.68-.1-1-.09-.69-.21-1.38-.37-2.07a17.93,17.93,0,0,0-.91-2.83,9,9,0,0,0-.74-1.45" fill="#282e5b"/>
              <path d="M16.21,28.65l-.08,0v.12a6.68,6.68,0,0,1-.18.71A11.4,11.4,0,0,1,15.25,31c-.26.5-.55.94-.84,1.39a9.25,9.25,0,0,0-1,2,7.59,7.59,0,0,0-.53,2.49,8,8,0,0,0,.08,1.6,9.42,9.42,0,0,0,.52,1.92c.2.52.43,1,.67,1.5l.25.5.08,0,.1-.16a1.05,1.05,0,0,1,.25-.3,1.69,1.69,0,0,1,.59-.28l.27-.07a3.81,3.81,0,0,0,1.75-1.45A5.67,5.67,0,0,0,18.32,38a7.8,7.8,0,0,0,.16-1.48,10.94,10.94,0,0,0-.11-2,13.58,13.58,0,0,0-.72-2.89,15.06,15.06,0,0,0-1.41-2.91l0-.06" fill="#1bc2ef"/>
            </g>
          </g>
        </g>
      </g>
      <g>
        <polygon points="24.2 19.47 1.41 9.18 25.96 0.24 48.75 10.53 24.2 19.47" fill="#ebebeb"/>
        <g style="isolation: isolate">
          <g clip-path="url(#clip-path-2)">
            <g>
              <path d="M15.75,6,15.7,6l.06,0,.33.16.53.27c.25.14.5.28.74.43A6.17,6.17,0,0,1,18.76,8a2.87,2.87,0,0,1,.54.88,2.8,2.8,0,0,1,.16,1c0,.22,0,.44,0,.66a3.62,3.62,0,0,0,0,.57,2.09,2.09,0,0,0,.32.89,3.81,3.81,0,0,0,1.17,1.11,6.75,6.75,0,0,0,.66.35l.34.15a9.53,9.53,0,0,0,1,.38,17.1,17.1,0,0,0,2.5.55,23,23,0,0,0,3.37.24,19.25,19.25,0,0,0,2.41-.15,11.12,11.12,0,0,0,1.37-.25h.09l.2-.07h0c.05-.05,0-.08-.09-.11l-.32-.06L31.27,14c-.73-.11-1.44-.25-2.11-.42a11.19,11.19,0,0,1-1.48-.47,4.07,4.07,0,0,1-.86-.44,3.3,3.3,0,0,1-.81-.75,3.81,3.81,0,0,1-.47-1c-.1-.33-.15-.65-.23-1a7.17,7.17,0,0,0-.24-.91,2.76,2.76,0,0,0-.44-.77,2.9,2.9,0,0,0-1.16-.78l-.65-.27L22,7c-.58-.18-1.19-.34-1.82-.48A25.46,25.46,0,0,0,17.39,6,12.71,12.71,0,0,0,15.75,6" fill="#282e5b"/>
              <path d="M27.16,7.67l-.05,0,.09,0a3.22,3.22,0,0,1,.38.33,4,4,0,0,1,.6.89,4.83,4.83,0,0,1,.38.92,3.87,3.87,0,0,0,.67,1.19,4.36,4.36,0,0,0,1.43,1.11,6.93,6.93,0,0,0,1.25.49,11,11,0,0,0,1.81.34c.54.07,1.08.1,1.63.13l.56,0,.09,0,0-.11a.3.3,0,0,1,0-.23.9.9,0,0,1,.24-.42l.16-.17a1.63,1.63,0,0,0,.28-1.44,2.44,2.44,0,0,0-1-1.22,6,6,0,0,0-1-.58,10.27,10.27,0,0,0-1.52-.58,16.08,16.08,0,0,0-2.7-.56,22.88,22.88,0,0,0-3.23-.19h-.07" fill="#1bc2ef"/>
            </g>
          </g>
        </g>
      </g>
      <g>
        <polygon points="48.75 10.53 48.59 40.83 24.04 49.76 24.2 19.47 48.75 10.53" fill="#f0f0f0"/>
        <g style="isolation: isolate">
          <g clip-path="url(#clip-path-3)">
            <g>
              <path d="M36.06,18.15H36l0,.13c0,.16,0,.31,0,.47s0,.52,0,.78-.07.8-.12,1.2a18.55,18.55,0,0,1-.64,3,17.43,17.43,0,0,1-.79,2.08c-.34.74-.72,1.44-1.12,2.14-.27.46-.56.91-.83,1.37s-.48.8-.71,1.22a16.69,16.69,0,0,0-.92,2,12.9,12.9,0,0,0-.72,2.81,8.87,8.87,0,0,0-.07,1v.45a7.56,7.56,0,0,0,.78,3.39,5.23,5.23,0,0,0,1.56,1.87,3.75,3.75,0,0,0,1.51.67,3.39,3.39,0,0,0,1.06,0H35l.19-.07v0a.24.24,0,0,0,.08-.26,1,1,0,0,0-.09-.26c-.14-.3-.3-.57-.45-.85a7.73,7.73,0,0,1-.64-1.73,7.43,7.43,0,0,1-.24-1.6,6.26,6.26,0,0,1,.07-1.28,10.82,10.82,0,0,1,.49-1.92,21.26,21.26,0,0,1,.92-2.2c.34-.73.71-1.44,1.06-2.15s.68-1.33,1-2a14.71,14.71,0,0,0,.7-1.81,6.41,6.41,0,0,0,.34-2.13l0-.82c0-.32-.06-.63-.11-.94A10.53,10.53,0,0,0,37.87,21a7.42,7.42,0,0,0-1-2.06,2.83,2.83,0,0,0-.82-.8" fill="#282e5b"/>
              <path d="M40.23,26.38l-.08.08,0,.14a6.87,6.87,0,0,1-.19.85,20.69,20.69,0,0,1-.77,2.12c-.28.71-.6,1.41-.93,2.1a23.23,23.23,0,0,0-1.1,2.8,11.73,11.73,0,0,0-.59,2.93,6.32,6.32,0,0,0,.09,1.52,4.38,4.38,0,0,0,.57,1.47,5.71,5.71,0,0,0,.74.93,3.83,3.83,0,0,0,.28.29l.08,0,.11-.24a2.53,2.53,0,0,1,.28-.51,5.07,5.07,0,0,1,.65-.78l.3-.31a12.4,12.4,0,0,0,1.93-2.93,11.56,11.56,0,0,0,1-3,10,10,0,0,0,.17-1.61,8.69,8.69,0,0,0-.12-1.86,6.63,6.63,0,0,0-.79-2.27,4.9,4.9,0,0,0-1.55-1.7l0,0" fill="#1bc2ef"/>
            </g>
          </g>
        </g>
      </g>
    </g>
  </g>
</svg>
