<svg id="Capa_1" data-name="Capa 1" xmlns="http://www.w3.org/2000/svg" xmlns:xlink="http://www.w3.org/1999/xlink" width="50" height="50" viewBox="0 0 50 50">
  <defs>
    <clipPath id="clip-path">
      <polygon points="24.04 49.77 1.26 39.48 1.42 9.18 24.2 19.47 24.04 49.77" fill="none"/>
    </clipPath>
    <clipPath id="clip-path-2">
      <polygon points="24.2 19.47 1.42 9.18 25.96 0.25 48.75 10.54 24.2 19.47" fill="none"/>
    </clipPath>
    <clipPath id="clip-path-3">
      <polygon points="48.75 10.54 48.59 40.83 24.04 49.77 24.2 19.47 48.75 10.54" fill="none"/>
    </clipPath>
  </defs>
  <g id="Figment_lido">
    <g style="isolation: isolate">
      <g>
        <polygon points="24.04 49.77 1.26 39.48 1.42 9.18 24.2 19.47 24.04 49.77" fill="#445aad"/>
        <g style="isolation: isolate">
          <g clip-path="url(#clip-path)">
            <g>
              <path d="M17.45,37.77l-2.26-.29v.69l-.66-.3V37.4l-1.27-.16a1.72,1.72,0,0,1,.1.64,1.36,1.36,0,0,1,0,.29l4.27.54a1.91,1.91,0,0,1-.16-.78.81.81,0,0,1,0-.16M7.56,33.22v.12a1,1,0,0,1-.19.66l4.26,3.4a1.84,1.84,0,0,1,0-.33,1.19,1.19,0,0,1,.11-.53l-1.14-.92V36l-.66-.3v-.6L7.56,33.22M6.46,21.57,6.37,31.68a.63.63,0,0,1,.32.06A1.15,1.15,0,0,1,7,32l0-4.9-.44-.33L6.8,26l.29.22,0-4.25a.79.79,0,0,1-.29-.06,1.67,1.67,0,0,1-.38-.29m12.32,5.6a.67.67,0,0,1-.38-.06,1,1,0,0,1-.28-.19l0,4.37.36.06.14.94-.51-.07,0,4.85a.7.7,0,0,1,.3.06,1.31,1.31,0,0,1,.36.27l.09-10.23m-7-6.79-4.33-.32a2.09,2.09,0,0,1,.25.7l.34.28,3.88.28a2,2,0,0,1-.16-.76,1.1,1.1,0,0,1,0-.18m1.74.8c0,.06,0,.13,0,.19a1.13,1.13,0,0,1-.17.61l3.84,3.26.34,0a.84.84,0,0,1,.24-.48l-4.26-3.61" fill="#fff" opacity="0.8"/>
              <path d="M8.05,21l-.32,0v0a1.12,1.12,0,0,1-.12.55L11.69,25a2,2,0,0,1,0-.34,1.11,1.11,0,0,1,.11-.52L8.05,21m9.16,4.2-3.88-.4a1.75,1.75,0,0,1,.09.6,1.15,1.15,0,0,1,0,.33l4.28.45a2.17,2.17,0,0,1-.13-.71l-.32-.27" fill="#fff" opacity="0.8"/>
              <path d="M7.71,20.76a2.28,2.28,0,0,1,0,.26l.32,0-.34-.28m9.84,4.51-.34,0,.32.27h0a1.94,1.94,0,0,1,0-.24" fill="#fff" opacity="0.96"/>
              <path d="M11.69,25a1.76,1.76,0,0,0,.84,1.26.58.58,0,0,0,.85-.46l-.83-.08L11.69,25m.86-1.13a.55.55,0,0,0-.78.27l.79.65.77.08a1.66,1.66,0,0,0-.78-1" fill="#fff" opacity="0.8"/>
              <path d="M11.77,24.11a1.11,1.11,0,0,0-.11.52,2,2,0,0,0,0,.34l.86.72.83.08a1.15,1.15,0,0,0,0-.33,1.75,1.75,0,0,0-.09-.6l-.77-.08-.79-.65" fill="#fff" opacity="0.96"/>
              <path d="M18.13,26.26l-.47,0a2,2,0,0,0,.46.7v-.66m.3-1.54a.55.55,0,0,0-.64.07l1,.86,0,1.52c.3-.06.51-.37.52-.85a1.86,1.86,0,0,0-.87-1.6" fill="#fff" opacity="0.8"/>
              <path d="M17.79,24.79a.84.84,0,0,0-.24.48l.83.09.16.95-.41,0v.66a1,1,0,0,0,.28.19.67.67,0,0,0,.38.06l0-1.52-1-.86" fill="#fff" opacity="0.96"/>
              <path d="M17.53,25.51a2.17,2.17,0,0,0,.13.71l.47,0V26l-.6-.51" fill="#fff" opacity="0.96"/>
              <path d="M18.38,25.36l-.83-.09a1.94,1.94,0,0,0,0,.24h0l.6.51v.24l.41,0-.16-.95" fill="#fff" opacity="0.99"/>
              <path d="M12.65,21.37l-.72-.05a1.51,1.51,0,0,0,.71.84.54.54,0,0,0,.73-.18l-.72-.61m0-1.6c-.44-.2-.81.07-.88.61l.87.06.87.74a1.78,1.78,0,0,0-.86-1.41" fill="#fff" opacity="0.8"/>
              <path d="M12.66,20.44l-.87-.06a1.1,1.1,0,0,0,0,.18,2,2,0,0,0,.16.76l.72.05.72.61a1.13,1.13,0,0,0,.17-.61c0-.06,0-.13,0-.19l-.87-.74" fill="#fff" opacity="0.96"/>
              <path d="M7.13,21.22v.7a.54.54,0,0,0,.48-.31l-.48-.39m-.27-1.76c-.48-.22-.88.13-.89.79a2.1,2.1,0,0,0,.49,1.32l0-1.58,1,.07a1.39,1.39,0,0,0-.6-.6" fill="#fff" opacity="0.8"/>
              <path d="M7.46,20.06l-1-.07,0,1.58a1.67,1.67,0,0,0,.38.29.79.79,0,0,0,.29.06v-.7l-.41-.34.18-.79.81.67a2.09,2.09,0,0,0-.25-.7" fill="#fff" opacity="0.96"/>
              <path d="M7.73,21,7.13,21v.25l.48.39a1.12,1.12,0,0,0,.12-.55v0" fill="#fff" opacity="0.96"/>
              <path d="M6.9,20.09l-.18.79.41.34V21l.6.05a2.28,2.28,0,0,0,0-.26l-.81-.67" fill="#fff" opacity="0.99"/>
              <path d="M7,32v.81l.54.42A2,2,0,0,0,7,32m-.66-.31c-.33,0-.57.35-.57.85a1.84,1.84,0,0,0,.87,1.61.56.56,0,0,0,.7-.14l-1-.81V31.68" fill="#fff" opacity="0.8"/>
              <path d="M6.69,31.74a.63.63,0,0,0-.32-.06v1.51l1,.81a1,1,0,0,0,.19-.66v-.12L7,32.8V32a1.15,1.15,0,0,0-.34-.25" fill="#fff" opacity="0.96"/>
              <path d="M9.32,28.83A2,2,0,0,0,10,30.25v-.92l-.64-.5m.89-.82a.53.53,0,0,0-.64.08l1.06.83v1.53c.27-.08.46-.39.47-.84a1.85,1.85,0,0,0-.88-1.6" fill="#fff" opacity="0.8"/>
              <path d="M13.33,38.17l-.87-.11-.83-.66a1.78,1.78,0,0,0,.84,1.27c.41.19.76,0,.86-.5m-.84-1.9a.56.56,0,0,0-.78.27l.76.6.79.1a1.61,1.61,0,0,0-.77-1" fill="#fff" opacity="0.8"/>
              <path d="M13.26,37.24l-.79-.1-.76-.6a1.19,1.19,0,0,0-.11.53,1.84,1.84,0,0,0,0,.33l.83.66.87.11a1.36,1.36,0,0,0,0-.29,1.72,1.72,0,0,0-.1-.64" fill="#fff" opacity="0.96"/>
              <path d="M18.69,37.4l0,1.45-1.07-.14a1.58,1.58,0,0,0,.71.82c.48.22.88-.13.89-.79a2,2,0,0,0-.51-1.34M18,37.07c-.31,0-.54.27-.58.7l.57.07v-.77" fill="#fff" opacity="0.8"/>
              <path d="M18.33,37.13a.7.7,0,0,0-.3-.06v.77l-.57-.07a.81.81,0,0,0,0,.16,1.91,1.91,0,0,0,.16.78l1.07.14,0-1.45a1.31,1.31,0,0,0-.36-.27" fill="#fff" opacity="0.96"/>
              <path d="M10.62,30.45a.6.6,0,0,1-.43,0,.87.87,0,0,1-.23-.16L9.91,35.1l.66.52,0-5.17M7.09,26.17v.92l2.24,1.74v0a1,1,0,0,1,.25-.71L7.09,26.17" fill="#fff" opacity="0.8"/>
              <path d="M9.91,35.1v.6l.66.3v-.38l-.66-.52M6.8,26l-.16.81.44.33v-.92L6.8,26" fill="#fff" opacity="0.96"/>
              <path d="M9.57,28.09a1,1,0,0,0-.25.71v0l.64.5v.92a.87.87,0,0,0,.23.16.6.6,0,0,0,.43,0V28.92l-1.06-.83" fill="#fff" opacity="0.96"/>
              <path d="M15.89,31.9l-.65-.1v.93c.37,0,.65-.3.66-.83M15,30.27c-.49-.23-.89.13-.89.79a2,2,0,0,0,.44,1.26l0-1.54,1.07.16a1.44,1.44,0,0,0-.64-.67" fill="#fff" opacity="0.8"/>
              <path d="M18.08,31.29l-2.42-.35a2,2,0,0,1,.23.93v0l2.18.32v-.93" fill="#fff" opacity="0.8"/>
              <polyline points="18.44 31.35 18.08 31.29 18.07 32.22 18.58 32.29 18.44 31.35" fill="#fff" opacity="0.96"/>
              <path d="M14.57,32.32l0,5.08.66.08,0-4.75a.75.75,0,0,1-.23-.07,1.24,1.24,0,0,1-.43-.34" fill="#fff" opacity="0.8"/>
              <polyline points="15.19 37.48 14.53 37.4 14.52 37.87 15.18 38.17 15.19 37.48" fill="#fff" opacity="0.96"/>
              <path d="M15.66,30.94l-1.07-.16,0,1.54a1.24,1.24,0,0,0,.43.34.75.75,0,0,0,.23.07V31.8l.65.1v0a2,2,0,0,0-.23-.93" fill="#fff" opacity="0.96"/>
            </g>
          </g>
        </g>
      </g>
      <g>
        <polygon points="24.2 19.47 1.42 9.18 25.96 0.25 48.75 10.54 24.2 19.47" fill="#4b63be"/>
        <g style="isolation: isolate">
          <g clip-path="url(#clip-path-2)">
            <g>
              <path d="M35.58,9.93l-2,1.19.52.23-.75.28L33,11.47l-1.12.66a1.9,1.9,0,0,1,.57.16.56.56,0,0,1,.2.12l3.76-2.25a2.24,2.24,0,0,1-.73-.17l-.11-.06M24.34,14l.1,0c.21.1.33.22.35.34l5.95-1.28a1.84,1.84,0,0,1-.28-.09.73.73,0,0,1-.32-.25l-1.6.35.29.12-.75.28-.46-.21-3.28.7M14.55,10.7l7.67,3.47a1,1,0,0,1,.31-.16A2,2,0,0,1,23,13.9l-3.71-1.68-.6.13L18.18,12l.39-.09-3.23-1.45a1.45,1.45,0,0,1-.28.14,2.55,2.55,0,0,1-.51.11m14-5.11a.9.9,0,0,1-.34.2,2,2,0,0,1-.37.09l3.32,1.5.32-.18.84.24-.46.26,3.68,1.66a1.92,1.92,0,0,1,.29-.15,2.35,2.35,0,0,1,.49-.11L28.5,5.59M17.81,7.28,14.18,9.63a2.81,2.81,0,0,1,.73.09l.48-.1,3.25-2.1a2.66,2.66,0,0,1-.7-.17l-.13-.07m2-.72.15.06a.52.52,0,0,1,.34.3l5.5-1.08.3-.19a.33.33,0,0,1-.18-.3L19.79,6.56" fill="#fff" opacity="0.8"/>
              <path d="M15.39,9.62l-.27.18h0a.73.73,0,0,1,.32.26l5.78-1.19a1.24,1.24,0,0,1-.29-.1.62.62,0,0,1-.31-.24L15.39,9.62M25.78,5.84,22.44,7.91a2.4,2.4,0,0,1,.53.14,1.16,1.16,0,0,1,.23.14l3.69-2.28a2.3,2.3,0,0,1-.64-.17l-.47.1" fill="#fff" opacity="0.8"/>
              <path d="M14.91,9.72l.21.08.27-.18-.48.1M26.08,5.65l-.3.19.47-.1h0l-.17-.09" fill="#fff" opacity="0.96"/>
              <path d="M21.26,8.88a3,3,0,0,0,1.62-.05c.45-.16.56-.43.32-.64l-.72.44-1.22.25M21.06,8c-.38.14-.52.34-.4.53l1.12-.23.66-.4a3,3,0,0,0-1.38.1" fill="#fff" opacity="0.8"/>
              <path d="M20.66,8.54a.62.62,0,0,0,.31.24,1.24,1.24,0,0,0,.29.1l1.22-.25.72-.44A1.16,1.16,0,0,0,23,8.05a2.4,2.4,0,0,0-.53-.14l-.66.4-1.12.23" fill="#fff" opacity="0.96"/>
              <path d="M27.29,5.66l-.4.25a3.38,3.38,0,0,0,.9,0l-.5-.22M26.34,5c-.28.1-.43.24-.44.38l1.44-.28,1.16.52c.19-.19.11-.41-.25-.58a3,3,0,0,0-1.91,0" fill="#fff" opacity="0.8"/>
              <path d="M25.9,5.35a.33.33,0,0,0,.18.3l.72-.44.85.23-.36.22.5.22a2,2,0,0,0,.37-.09.9.9,0,0,0,.34-.2l-1.16-.52-1.44.28" fill="#fff" opacity="0.96"/>
              <path d="M26.25,5.74a2.3,2.3,0,0,0,.64.17l.4-.25-.18-.08-.86.16" fill="#fff" opacity="0.96"/>
              <path d="M26.8,5.21l-.72.44.17.09h0l.86-.16.18.08.36-.22-.85-.23" fill="#fff" opacity="0.99"/>
              <path d="M19.25,7.12l-.61.4a2.81,2.81,0,0,0,1.21-.13c.34-.12.49-.3.43-.47l-1,.2M18,6.57c-.5.18-.58.48-.22.71l.73-.48,1.25-.24a3,3,0,0,0-1.76,0" fill="#fff" opacity="0.8"/>
              <path d="M18.54,6.8l-.73.48.13.07a2.66,2.66,0,0,0,.7.17l.61-.4,1-.2a.52.52,0,0,0-.34-.3l-.15-.06-1.25.24" fill="#fff" opacity="0.96"/>
              <path d="M14.81,10.21l.53.24c.16-.12.21-.25.14-.38l-.67.14m-1.56-.45c-.56.21-.6.55-.1.78a2.89,2.89,0,0,0,1.4.16l-1.2-.54.83-.53a2.72,2.72,0,0,0-.93.13" fill="#fff" opacity="0.8"/>
              <path d="M14.18,9.63l-.83.53,1.2.54a2.55,2.55,0,0,0,.51-.11,1.45,1.45,0,0,0,.28-.14l-.53-.24-.59.12L13.75,10l1.16-.24a2.81,2.81,0,0,0-.73-.09" fill="#fff" opacity="0.96"/>
              <path d="M15.12,9.8l-.5.32.19.09.67-.14a.73.73,0,0,0-.32-.26h0" fill="#fff" opacity="0.96"/>
              <path d="M13.75,10l.47.37.59-.12-.19-.09.5-.32-.21-.08L13.75,10" fill="#fff" opacity="0.99"/>
              <path d="M23,13.9l.62.27.74-.16A3,3,0,0,0,23,13.9m-.76.27c-.24.19-.17.44.21.61a2.93,2.93,0,0,0,1.92.05c.31-.12.46-.28.44-.44l-1.41.3-1.16-.52" fill="#fff" opacity="0.8"/>
              <path d="M22.53,14a1,1,0,0,0-.31.16l1.16.52,1.41-.3c0-.12-.14-.24-.35-.34l-.1,0-.74.16L23,13.9a2,2,0,0,0-.45.11" fill="#fff" opacity="0.96"/>
              <path d="M22.36,11.53a3,3,0,0,0,1.58.12l-.7-.32-.88.2m.07-.78c-.29.1-.44.25-.45.39l1.47-.32,1.17.52c.15-.18.06-.39-.28-.55a2.9,2.9,0,0,0-1.91,0" fill="#fff" opacity="0.8"/>
              <path d="M32.66,12.41l-.77.46-1.15.24a3,3,0,0,0,1.63,0c.46-.17.56-.44.29-.65m-2.11-.17c-.38.14-.52.34-.41.53l1.05-.22.7-.42a3,3,0,0,0-1.34.11" fill="#fff" opacity="0.8"/>
              <path d="M31.89,12.13l-.7.42-1.05.22a.73.73,0,0,0,.32.25,1.84,1.84,0,0,0,.28.09l1.15-.24.77-.46a.56.56,0,0,0-.2-.12,1.9,1.9,0,0,0-.57-.16" fill="#fff" opacity="0.96"/>
              <path d="M36.27,9.1l1.1.5-.95.56A2.83,2.83,0,0,0,37.6,10c.56-.21.6-.55.09-.78a2.85,2.85,0,0,0-1.42-.16m-.78.26c-.22.18-.2.4.09.57l.5-.3-.59-.27" fill="#fff" opacity="0.8"/>
              <path d="M35.78,9.21a1.92,1.92,0,0,0-.29.15l.59.27-.5.3.11.06a2.24,2.24,0,0,0,.73.17l.95-.56-1.1-.5a2.35,2.35,0,0,0-.49.11" fill="#fff" opacity="0.96"/>
              <path d="M24.62,11.34a1,1,0,0,1-.37.23l-.31.08,3.68,1.66.92-.19-3.92-1.78m-6.05.56.7.32,3.09-.69h0c-.24-.11-.35-.24-.35-.38l-3.41.76" fill="#fff" opacity="0.8"/>
              <path d="M27.62,13.31l.46.21.75-.28-.29-.12-.92.19M18.18,12l.49.36.6-.13-.7-.32-.39.09" fill="#fff" opacity="0.96"/>
              <path d="M22,11.14c0,.14.11.27.35.38h0l.88-.2.7.32.31-.08a1,1,0,0,0,.37-.23l-1.17-.52L22,11.14" fill="#fff" opacity="0.96"/>
              <path d="M29.86,8.83l-.58.34.7.32c.31-.2.27-.47-.12-.66m-1.94-.05c-.55.2-.59.55-.09.77a2.66,2.66,0,0,0,1.32.17L28,9.2l1-.56a2.77,2.77,0,0,0-1,.14" fill="#fff" opacity="0.8"/>
              <path d="M31.11,7.38,28.94,8.64a2.48,2.48,0,0,1,.9.18h0L31.81,7.7l-.7-.32" fill="#fff" opacity="0.8"/>
              <polyline points="31.43 7.2 31.11 7.38 31.81 7.7 32.27 7.44 31.43 7.2" fill="#fff" opacity="0.96"/>
              <path d="M29.15,9.72,33,11.47l.58-.35L30,9.49l-.24.11a2.57,2.57,0,0,1-.59.12" fill="#fff" opacity="0.8"/>
              <polyline points="33.59 11.12 33.01 11.47 33.36 11.63 34.11 11.35 33.59 11.12" fill="#fff" opacity="0.96"/>
              <path d="M28.94,8.64,28,9.2l1.17.52a2.57,2.57,0,0,0,.59-.12L30,9.49l-.7-.32.58-.34h0a2.48,2.48,0,0,0-.9-.18" fill="#fff" opacity="0.96"/>
            </g>
          </g>
        </g>
      </g>
      <g>
        <polygon points="48.75 10.54 48.59 40.83 24.04 49.77 24.2 19.47 48.75 10.54" fill="#4c65c2"/>
        <g style="isolation: isolate">
          <g clip-path="url(#clip-path-3)">
            <g>
              <path d="M42.36,35.11l-2.55,1.7v.7l-.74.28V37.3l-1.43,1a1.15,1.15,0,0,1,.12.55,1.32,1.32,0,0,1,0,.34l4.83-3.21a1.1,1.1,0,0,1-.19-.66,1,1,0,0,1,0-.17M31.17,39.17s0,.08,0,.13a2.1,2.1,0,0,1-.22.84l4.83-.28a1.12,1.12,0,0,1,0-.32,1.78,1.78,0,0,1,.13-.64l-1.3.08v.38l-.75.28V39l-2.66.15m-1.3-10.93-.05,10.4a1.1,1.1,0,0,1,.36-.21.78.78,0,0,1,.39,0l0-5-.49,0,.18-1,.32,0,0-4.38a1.5,1.5,0,0,1-.32.19.8.8,0,0,1-.43,0m13.94-5.12a1.37,1.37,0,0,1-.42.27.78.78,0,0,1-.33.05l0,4.5.41-.26.16.84-.57.37,0,5a1.28,1.28,0,0,1,.34-.19.75.75,0,0,1,.41,0l.05-10.52m-7.93-.78L31,25.83a.91.91,0,0,1,.28.49h.38L36,23.18a1.08,1.08,0,0,1-.18-.64,1.5,1.5,0,0,1,0-.2m2-.71a1.15,1.15,0,0,1,0,.19,1.89,1.89,0,0,1-.18.77L42,22.53l.4-.27a2.05,2.05,0,0,1,.26-.7l-4.83.07" fill="#fff" opacity="0.8"/>
              <path d="M31.66,26.31l-.36.25s0,0,0,.05a2.16,2.16,0,0,1-.14.67l4.62-.16a1.66,1.66,0,0,1,0-.32,1.73,1.73,0,0,1,.12-.64l-4.22.15M42,22.53l-4.38,3a1.19,1.19,0,0,1,.11.53,1.55,1.55,0,0,1,0,.37l4.84-3.31a1.11,1.11,0,0,1-.16-.6H42" fill="#fff" opacity="0.8"/>
              <path d="M31.28,26.32a1.94,1.94,0,0,1,0,.24l.36-.25h-.38m11.14-4.06-.4.27h.37a1.22,1.22,0,0,1,0-.26" fill="#fff" opacity="0.96"/>
              <path d="M35.79,27.12a.69.69,0,0,0,1,.54,1.72,1.72,0,0,0,1-1.22l-.94.65-1,0m1-1.92a1.65,1.65,0,0,0-.88,1l.9,0,.86-.59a.67.67,0,0,0-.88-.34" fill="#fff" opacity="0.8"/>
              <path d="M35.88,26.16a1.73,1.73,0,0,0-.12.64,1.66,1.66,0,0,0,0,.32l1,0,.94-.65a1.55,1.55,0,0,0,0-.37,1.19,1.19,0,0,0-.11-.53l-.86.59-.9,0" fill="#fff" opacity="0.96"/>
              <path d="M43.07,22.77l-.52.36a.63.63,0,0,0,.51.31v-.67m.33-1.84a1.5,1.5,0,0,0-.72.63h1.14v1.57a1.9,1.9,0,0,0,.58-1.32c0-.68-.44-1.07-1-.87" fill="#fff" opacity="0.8"/>
              <path d="M42.68,21.56a2.05,2.05,0,0,0-.26.7l.93-.64.19.83-.47.32v.67a.78.78,0,0,0,.33-.05,1.37,1.37,0,0,0,.42-.27V21.55H42.68" fill="#fff" opacity="0.96"/>
              <path d="M42.39,22.53a1.11,1.11,0,0,0,.16.6l.52-.36v-.25h-.68" fill="#fff" opacity="0.96"/>
              <path d="M43.35,21.62l-.93.64a1.22,1.22,0,0,0,0,.26h.68v.25l.47-.32-.19-.83" fill="#fff" opacity="0.99"/>
              <path d="M36.86,22.6l-.82.58a.65.65,0,0,0,.81.23,1.61,1.61,0,0,0,.83-.82h-.82m0-1.65a1.75,1.75,0,0,0-1,1.39l1-.7h1a.72.72,0,0,0-1-.68" fill="#fff" opacity="0.8"/>
              <path d="M36.86,21.64l-1,.7a1.5,1.5,0,0,0,0,.2,1.08,1.08,0,0,0,.18.64l.82-.58h.82a1.89,1.89,0,0,0,.18-.77,1.15,1.15,0,0,0,0-.19h-1" fill="#fff" opacity="0.96"/>
              <path d="M30.63,27.3V28a1.89,1.89,0,0,0,.55-.74l-.54,0m-.32-1.56a1.78,1.78,0,0,0-1,1.6.83.83,0,0,0,.56.9V26.62L31,25.83a.67.67,0,0,0-.69-.09" fill="#fff" opacity="0.8"/>
              <path d="M31,25.83l-1.12.79v1.62a.8.8,0,0,0,.43,0,1.5,1.5,0,0,0,.32-.19V27.3l-.47,0,.19-1,.93,0a.91.91,0,0,0-.28-.49" fill="#fff" opacity="0.96"/>
              <path d="M31.3,26.56l-.67.49v.25l.54,0a2.16,2.16,0,0,0,.14-.67s0,0,0-.05" fill="#fff" opacity="0.96"/>
              <path d="M30.35,26.35l-.19,1,.47,0v-.25l.67-.49a1.94,1.94,0,0,0,0-.24l-.93,0" fill="#fff" opacity="0.99"/>
              <path d="M30.57,38.38v.83l.61,0a.77.77,0,0,0-.6-.79m-.75.26A1.92,1.92,0,0,0,29.18,40c0,.68.44,1.07,1,.87a1.55,1.55,0,0,0,.79-.75l-1.15.07V38.64" fill="#fff" opacity="0.8"/>
              <path d="M30.18,38.43a1.1,1.1,0,0,0-.36.21v1.57L31,40.14a2.1,2.1,0,0,0,.22-.84s0-.09,0-.13l-.61,0v-.83a.78.78,0,0,0-.39,0" fill="#fff" opacity="0.96"/>
              <path d="M33.14,33.14c0,.55.31.9.72.89v-1l-.73.06m1-1.62a1.47,1.47,0,0,0-.73.65l1.21-.09v1.58a1.93,1.93,0,0,0,.52-1.27c0-.68-.44-1.07-1-.87" fill="#fff" opacity="0.8"/>
              <path d="M37.71,39.15l-1,.65-.94.06a.69.69,0,0,0,1,.55,1.71,1.71,0,0,0,1-1.26m-1-1.21a1.65,1.65,0,0,0-.88,1l.85,0,.9-.59a.67.67,0,0,0-.87-.32" fill="#fff" opacity="0.8"/>
              <path d="M37.63,38.26l-.9.59-.85,0a1.78,1.78,0,0,0-.13.64,1.12,1.12,0,0,0,0,.32l.94-.06,1-.65a1.32,1.32,0,0,0,0-.34,1.15,1.15,0,0,0-.12-.55" fill="#fff" opacity="0.96"/>
              <path d="M43.76,33.64v1.49l-1.21.81a.66.66,0,0,0,.8.21,1.77,1.77,0,0,0,1-1.6.82.82,0,0,0-.58-.91m-.75.24a1.91,1.91,0,0,0-.65,1.23l.65-.43v-.8" fill="#fff" opacity="0.8"/>
              <path d="M43.35,33.69a1.28,1.28,0,0,0-.34.19v.8l-.65.43a1,1,0,0,0,0,.17,1.1,1.1,0,0,0,.19.66l1.21-.81V33.64a.75.75,0,0,0-.41,0" fill="#fff" opacity="0.96"/>
              <path d="M34.61,33.66a1.35,1.35,0,0,1-.48.32.65.65,0,0,1-.27.05l0,5,.75,0,0-5.32m-4-1.26v.94l2.55-.2v0a1.86,1.86,0,0,1,.27-.94l-2.81.23" fill="#fff" opacity="0.8"/>
              <path d="M33.83,39v.62l.75-.28V39l-.75,0m-3.55-6.6-.18,1,.49,0V32.4l-.32,0" fill="#fff" opacity="0.96"/>
              <path d="M33.41,32.17a1.86,1.86,0,0,0-.27.94v0l.73-.06v1a.65.65,0,0,0,.27-.05,1.35,1.35,0,0,0,.48-.32V32.08l-1.21.09" fill="#fff" opacity="0.96"/>
              <path d="M40.57,30.49l-.73.47v.95a1.84,1.84,0,0,0,.74-1.42m-1-.9a1.8,1.8,0,0,0-1,1.6.86.86,0,0,0,.52.89V30.5l1.22-.78a.68.68,0,0,0-.73-.13" fill="#fff" opacity="0.8"/>
              <path d="M43,27.94l-2.73,1.78a1,1,0,0,1,.26.74v0L43,28.89v-.95" fill="#fff" opacity="0.8"/>
              <polyline points="43.45 27.68 43.04 27.95 43.04 28.89 43.61 28.52 43.45 27.68" fill="#fff" opacity="0.96"/>
              <path d="M39.09,32.08l0,5.22.75-.49,0-4.9a1.35,1.35,0,0,1-.26.15.8.8,0,0,1-.48,0" fill="#fff" opacity="0.8"/>
              <polyline points="39.81 36.81 39.06 37.3 39.06 37.79 39.8 37.52 39.81 36.81" fill="#fff" opacity="0.96"/>
              <path d="M40.31,29.72l-1.22.78v1.58a.8.8,0,0,0,.48,0,1.35,1.35,0,0,0,.26-.15V31l.73-.47v0a1,1,0,0,0-.26-.74" fill="#fff" opacity="0.96"/>
            </g>
          </g>
        </g>
      </g>
    </g>
  </g>
  <g>
    <rect x="46.2" y="41.66" width="1.52" height="1.52" fill="#fff"/>
    <rect x="46.2" y="40.15" width="1.52" height="1.51" fill="#fff"/>
    <rect x="46.2" y="8.34" width="1.52" height="1.51" fill="#fff"/>
    <rect x="46.2" y="6.82" width="1.52" height="1.51" fill="#fff"/>
    <rect x="44.69" y="43.18" width="1.51" height="1.51" fill="#fff"/>
    <rect x="44.69" y="41.66" width="1.51" height="1.52" fill="#ef5454"/>
    <rect x="44.69" y="40.15" width="1.51" height="1.51" fill="#ef5454"/>
    <rect x="44.69" y="38.63" width="1.51" height="1.52" fill="#fff"/>
    <rect x="44.69" y="9.85" width="1.51" height="1.52" fill="#fff"/>
    <rect x="44.69" y="8.34" width="1.51" height="1.51" fill="#aa0707"/>
    <rect x="44.69" y="6.82" width="1.51" height="1.51" fill="#ef5454"/>
    <rect x="44.69" y="5.31" width="1.51" height="1.52" fill="#fff"/>
    <rect x="43.18" y="44.69" width="1.51" height="1.51" fill="#fff"/>
    <rect x="43.18" y="43.18" width="1.51" height="1.51" fill="#aa0707"/>
    <rect x="43.18" y="41.66" width="1.51" height="1.52" fill="#cc1d1d"/>
    <rect x="43.18" y="40.15" width="1.51" height="1.51" fill="#cc1d1d"/>
    <rect x="43.18" y="38.63" width="1.51" height="1.52" fill="#ef5454"/>
    <rect x="43.18" y="37.12" width="1.51" height="1.51" fill="#fff"/>
    <rect x="43.18" y="11.37" width="1.51" height="1.51" fill="#fff"/>
    <rect x="43.18" y="9.85" width="1.51" height="1.52" fill="#aa0707"/>
    <rect x="43.18" y="8.34" width="1.51" height="1.51" fill="#cc1d1d"/>
    <rect x="43.18" y="6.82" width="1.51" height="1.51" fill="#cc1d1d"/>
    <rect x="43.18" y="5.31" width="1.51" height="1.52" fill="#ef5454"/>
    <rect x="43.18" y="3.8" width="1.51" height="1.51" fill="#fff"/>
    <rect x="41.66" y="46.2" width="1.52" height="1.52" fill="#fff"/>
    <rect x="41.66" y="44.69" width="1.52" height="1.51" fill="#aa0707"/>
    <rect x="41.66" y="43.18" width="1.52" height="1.51" fill="#cc1d1d"/>
    <rect x="41.66" y="41.66" width="1.52" height="1.52" fill="#cc1d1d"/>
    <rect x="41.66" y="40.15" width="1.52" height="1.51" fill="#cc1d1d"/>
    <rect x="41.66" y="38.63" width="1.52" height="1.52" fill="#cc1d1d"/>
    <rect x="41.66" y="37.12" width="1.52" height="1.51" fill="#ef5454"/>
    <rect x="41.66" y="35.6" width="1.52" height="1.52" fill="#fff"/>
    <rect x="41.66" y="12.88" width="1.52" height="1.52" fill="#fff"/>
    <rect x="41.66" y="11.37" width="1.52" height="1.51" fill="#aa0707"/>
    <rect x="41.66" y="9.85" width="1.52" height="1.52" fill="#cc1d1d"/>
    <rect x="41.66" y="8.34" width="1.52" height="1.51" fill="#cc1d1d"/>
    <rect x="41.66" y="6.82" width="1.52" height="1.51" fill="#cc1d1d"/>
    <rect x="41.66" y="5.31" width="1.52" height="1.52" fill="#cc1d1d"/>
    <rect x="41.66" y="3.8" width="1.52" height="1.51" fill="#ef5454"/>
    <rect x="41.66" y="2.28" width="1.52" height="1.52" fill="#fff"/>
    <rect x="40.15" y="46.2" width="1.51" height="1.52" fill="#fff"/>
    <rect x="40.15" y="44.69" width="1.51" height="1.51" fill="#aa0707"/>
    <rect x="40.15" y="43.18" width="1.51" height="1.51" fill="#cc1d1d"/>
    <rect x="40.15" y="41.66" width="1.51" height="1.52" fill="#cc1d1d"/>
    <rect x="40.15" y="40.15" width="1.51" height="1.51" fill="#cc1d1d"/>
    <rect x="40.15" y="38.63" width="1.51" height="1.52" fill="#cc1d1d"/>
    <rect x="40.15" y="37.12" width="1.51" height="1.51" fill="#cc1d1d"/>
    <rect x="40.15" y="35.6" width="1.51" height="1.52" fill="#ef5454"/>
    <rect x="40.15" y="34.09" width="1.51" height="1.51" fill="#fff"/>
    <rect x="40.15" y="14.4" width="1.51" height="1.51" fill="#fff"/>
    <rect x="40.15" y="12.88" width="1.51" height="1.52" fill="#aa0707"/>
    <rect x="40.15" y="11.37" width="1.51" height="1.51" fill="#cc1d1d"/>
    <rect x="40.15" y="9.85" width="1.51" height="1.52" fill="#cc1d1d"/>
    <rect x="40.15" y="8.34" width="1.51" height="1.51" fill="#cc1d1d"/>
    <rect x="40.15" y="6.82" width="1.51" height="1.51" fill="#cc1d1d"/>
    <rect x="40.15" y="5.31" width="1.51" height="1.52" fill="#cc1d1d"/>
    <rect x="40.15" y="3.8" width="1.51" height="1.51" fill="#ef5454"/>
    <rect x="40.15" y="2.28" width="1.51" height="1.52" fill="#fff"/>
    <rect x="38.63" y="44.69" width="1.52" height="1.51" fill="#fff"/>
    <rect x="38.63" y="43.18" width="1.52" height="1.51" fill="#aa0707"/>
    <rect x="38.63" y="41.66" width="1.52" height="1.52" fill="#cc1d1d"/>
    <rect x="38.63" y="40.15" width="1.52" height="1.51" fill="#cc1d1d"/>
    <rect x="38.63" y="38.63" width="1.52" height="1.52" fill="#cc1d1d"/>
    <rect x="38.63" y="37.12" width="1.52" height="1.51" fill="#cc1d1d"/>
    <rect x="38.63" y="35.6" width="1.52" height="1.52" fill="#cc1d1d"/>
    <rect x="38.63" y="34.09" width="1.52" height="1.51" fill="#ef5454"/>
    <rect x="38.63" y="32.57" width="1.52" height="1.52" fill="#fff"/>
    <rect x="38.63" y="15.91" width="1.52" height="1.52" fill="#fff"/>
    <rect x="38.63" y="14.4" width="1.52" height="1.51" fill="#aa0707"/>
    <rect x="38.63" y="12.88" width="1.52" height="1.52" fill="#cc1d1d"/>
    <rect x="38.63" y="11.37" width="1.52" height="1.51" fill="#cc1d1d"/>
    <rect x="38.63" y="9.85" width="1.52" height="1.52" fill="#cc1d1d"/>
    <rect x="38.63" y="8.34" width="1.52" height="1.51" fill="#cc1d1d"/>
    <rect x="38.63" y="6.82" width="1.52" height="1.51" fill="#cc1d1d"/>
    <rect x="38.63" y="5.31" width="1.52" height="1.52" fill="#ef5454"/>
    <rect x="38.63" y="3.8" width="1.52" height="1.51" fill="#fff"/>
    <rect x="37.12" y="43.18" width="1.51" height="1.51" fill="#fff"/>
    <rect x="37.12" y="41.66" width="1.51" height="1.52" fill="#aa0707"/>
    <rect x="37.12" y="40.15" width="1.51" height="1.51" fill="#cc1d1d"/>
    <rect x="37.12" y="38.63" width="1.51" height="1.52" fill="#cc1d1d"/>
    <rect x="37.12" y="37.12" width="1.51" height="1.51" fill="#cc1d1d"/>
    <rect x="37.12" y="35.6" width="1.51" height="1.52" fill="#cc1d1d"/>
    <rect x="37.12" y="34.09" width="1.51" height="1.51" fill="#cc1d1d"/>
    <rect x="37.12" y="32.57" width="1.51" height="1.52" fill="#ef5454"/>
    <rect x="37.12" y="31.06" width="1.51" height="1.51" fill="#fff"/>
    <rect x="37.12" y="17.43" width="1.51" height="1.51" fill="#fff"/>
    <rect x="37.12" y="15.91" width="1.51" height="1.52" fill="#aa0707"/>
    <rect x="37.12" y="14.4" width="1.51" height="1.51" fill="#cc1d1d"/>
    <rect x="37.12" y="12.88" width="1.51" height="1.52" fill="#cc1d1d"/>
    <rect x="37.12" y="11.37" width="1.51" height="1.51" fill="#cc1d1d"/>
    <rect x="37.12" y="9.85" width="1.51" height="1.52" fill="#cc1d1d"/>
    <rect x="37.12" y="8.34" width="1.51" height="1.51" fill="#cc1d1d"/>
    <rect x="37.12" y="6.82" width="1.51" height="1.51" fill="#ef5454"/>
    <rect x="37.12" y="5.31" width="1.51" height="1.52" fill="#fff"/>
    <rect x="35.6" y="41.66" width="1.52" height="1.52" fill="#fff"/>
    <rect x="35.6" y="40.15" width="1.52" height="1.51" fill="#aa0707"/>
    <rect x="35.6" y="38.63" width="1.52" height="1.52" fill="#cc1d1d"/>
    <rect x="35.6" y="37.12" width="1.52" height="1.51" fill="#cc1d1d"/>
    <rect x="35.6" y="35.6" width="1.52" height="1.52" fill="#cc1d1d"/>
    <rect x="35.6" y="34.09" width="1.52" height="1.51" fill="#cc1d1d"/>
    <rect x="35.6" y="32.57" width="1.52" height="1.52" fill="#cc1d1d"/>
    <rect x="35.6" y="31.06" width="1.52" height="1.51" fill="#ef5454"/>
    <rect x="35.6" y="29.54" width="1.52" height="1.52" fill="#fff"/>
    <rect x="35.6" y="18.94" width="1.52" height="1.52" fill="#fff"/>
    <rect x="35.6" y="17.43" width="1.52" height="1.51" fill="#aa0707"/>
    <rect x="35.6" y="15.91" width="1.52" height="1.52" fill="#cc1d1d"/>
    <rect x="35.6" y="14.4" width="1.52" height="1.51" fill="#cc1d1d"/>
    <rect x="35.6" y="12.88" width="1.52" height="1.52" fill="#cc1d1d"/>
    <rect x="35.6" y="11.37" width="1.52" height="1.51" fill="#cc1d1d"/>
    <rect x="35.6" y="9.85" width="1.52" height="1.52" fill="#cc1d1d"/>
    <rect x="35.6" y="8.34" width="1.52" height="1.51" fill="#ef5454"/>
    <rect x="35.6" y="6.82" width="1.52" height="1.51" fill="#fff"/>
    <rect x="34.09" y="40.15" width="1.51" height="1.51" fill="#fff"/>
    <rect x="34.09" y="38.63" width="1.51" height="1.52" fill="#aa0707"/>
    <rect x="34.09" y="37.12" width="1.51" height="1.51" fill="#cc1d1d"/>
    <rect x="34.09" y="35.6" width="1.51" height="1.52" fill="#cc1d1d"/>
    <rect x="34.09" y="34.09" width="1.51" height="1.51" fill="#cc1d1d"/>
    <rect x="34.09" y="32.57" width="1.51" height="1.52" fill="#cc1d1d"/>
    <rect x="34.09" y="31.06" width="1.51" height="1.51" fill="#cc1d1d"/>
    <rect x="34.09" y="29.54" width="1.51" height="1.52" fill="#ef5454"/>
    <rect x="34.09" y="28.03" width="1.51" height="1.51" fill="#fff"/>
    <rect x="34.09" y="20.46" width="1.51" height="1.51" fill="#fff"/>
    <rect x="34.09" y="18.94" width="1.51" height="1.52" fill="#aa0707"/>
    <rect x="34.09" y="17.43" width="1.51" height="1.51" fill="#cc1d1d"/>
    <rect x="34.09" y="15.91" width="1.51" height="1.52" fill="#cc1d1d"/>
    <rect x="34.09" y="14.4" width="1.51" height="1.51" fill="#cc1d1d"/>
    <rect x="34.09" y="12.88" width="1.51" height="1.52" fill="#cc1d1d"/>
    <rect x="34.09" y="11.37" width="1.51" height="1.51" fill="#cc1d1d"/>
    <rect x="34.09" y="9.85" width="1.51" height="1.52" fill="#ef5454"/>
    <rect x="34.09" y="8.34" width="1.51" height="1.51" fill="#fff"/>
    <rect x="32.57" y="38.63" width="1.52" height="1.52" fill="#fff"/>
    <rect x="32.57" y="37.12" width="1.52" height="1.51" fill="#aa0707"/>
    <rect x="32.57" y="35.6" width="1.52" height="1.52" fill="#cc1d1d"/>
    <rect x="32.57" y="34.09" width="1.52" height="1.51" fill="#cc1d1d"/>
    <rect x="32.57" y="32.57" width="1.52" height="1.52" fill="#cc1d1d"/>
    <rect x="32.57" y="31.06" width="1.52" height="1.51" fill="#cc1d1d"/>
    <rect x="32.57" y="29.54" width="1.52" height="1.52" fill="#cc1d1d"/>
    <rect x="32.57" y="28.03" width="1.52" height="1.51" fill="#ef5454"/>
    <rect x="32.57" y="26.52" width="1.52" height="1.51" fill="#fff"/>
    <rect x="32.57" y="21.97" width="1.52" height="1.52" fill="#fff"/>
    <rect x="32.57" y="20.46" width="1.52" height="1.51" fill="#aa0707"/>
    <rect x="32.57" y="18.94" width="1.52" height="1.52" fill="#cc1d1d"/>
    <rect x="32.57" y="17.43" width="1.52" height="1.51" fill="#cc1d1d"/>
    <rect x="32.57" y="15.91" width="1.52" height="1.52" fill="#cc1d1d"/>
    <rect x="32.57" y="14.4" width="1.52" height="1.51" fill="#cc1d1d"/>
    <rect x="32.57" y="12.88" width="1.52" height="1.52" fill="#cc1d1d"/>
    <rect x="32.57" y="11.37" width="1.52" height="1.51" fill="#ef5454"/>
    <rect x="32.57" y="9.85" width="1.52" height="1.52" fill="#fff"/>
    <rect x="31.06" y="37.12" width="1.51" height="1.51" fill="#fff"/>
    <rect x="31.06" y="35.6" width="1.51" height="1.52" fill="#aa0707"/>
    <rect x="31.06" y="34.09" width="1.51" height="1.51" fill="#cc1d1d"/>
    <rect x="31.06" y="32.57" width="1.51" height="1.52" fill="#cc1d1d"/>
    <rect x="31.06" y="31.06" width="1.51" height="1.51" fill="#cc1d1d"/>
    <rect x="31.06" y="29.54" width="1.51" height="1.52" fill="#cc1d1d"/>
    <rect x="31.06" y="28.03" width="1.51" height="1.51" fill="#cc1d1d"/>
    <rect x="31.06" y="26.52" width="1.51" height="1.51" fill="#ef5454"/>
    <rect x="31.06" y="25" width="1.51" height="1.52" fill="#fff"/>
    <rect x="31.06" y="23.49" width="1.51" height="1.51" fill="#fff"/>
    <rect x="31.06" y="21.97" width="1.51" height="1.52" fill="#aa0707"/>
    <rect x="31.06" y="20.46" width="1.51" height="1.51" fill="#cc1d1d"/>
    <rect x="31.06" y="18.94" width="1.51" height="1.52" fill="#cc1d1d"/>
    <rect x="31.06" y="17.43" width="1.51" height="1.51" fill="#cc1d1d"/>
    <rect x="31.06" y="15.91" width="1.51" height="1.52" fill="#cc1d1d"/>
    <rect x="31.06" y="14.4" width="1.51" height="1.51" fill="#cc1d1d"/>
    <rect x="31.06" y="12.88" width="1.51" height="1.52" fill="#ef5454"/>
    <rect x="31.06" y="11.37" width="1.51" height="1.51" fill="#fff"/>
    <rect x="29.54" y="35.6" width="1.52" height="1.52" fill="#fff"/>
    <rect x="29.54" y="34.09" width="1.52" height="1.51" fill="#aa0707"/>
    <rect x="29.54" y="32.57" width="1.52" height="1.52" fill="#cc1d1d"/>
    <rect x="29.54" y="31.06" width="1.52" height="1.51" fill="#cc1d1d"/>
    <rect x="29.54" y="29.54" width="1.52" height="1.52" fill="#cc1d1d"/>
    <rect x="29.54" y="28.03" width="1.52" height="1.51" fill="#cc1d1d"/>
    <rect x="29.54" y="26.52" width="1.52" height="1.51" fill="#cc1d1d"/>
    <rect x="29.54" y="25" width="1.52" height="1.52" fill="#aa0707"/>
    <rect x="29.54" y="23.49" width="1.52" height="1.51" fill="#aa0707"/>
    <rect x="29.54" y="21.97" width="1.52" height="1.52" fill="#cc1d1d"/>
    <rect x="29.54" y="20.46" width="1.52" height="1.51" fill="#cc1d1d"/>
    <rect x="29.54" y="18.94" width="1.52" height="1.52" fill="#cc1d1d"/>
    <rect x="29.54" y="17.43" width="1.52" height="1.51" fill="#cc1d1d"/>
    <rect x="29.54" y="15.91" width="1.52" height="1.52" fill="#cc1d1d"/>
    <rect x="29.54" y="14.4" width="1.52" height="1.51" fill="#ef5454"/>
    <rect x="29.54" y="12.88" width="1.52" height="1.52" fill="#fff"/>
    <rect x="28.03" y="34.09" width="1.51" height="1.51" fill="#fff"/>
    <rect x="28.03" y="32.57" width="1.51" height="1.52" fill="#aa0707"/>
    <rect x="28.03" y="31.06" width="1.51" height="1.51" fill="#cc1d1d"/>
    <rect x="28.03" y="29.54" width="1.51" height="1.52" fill="#cc1d1d"/>
    <rect x="28.03" y="28.03" width="1.51" height="1.51" fill="#cc1d1d"/>
    <rect x="28.03" y="26.52" width="1.51" height="1.51" fill="#cc1d1d"/>
    <rect x="28.03" y="25" width="1.51" height="1.52" fill="#cc1d1d"/>
    <rect x="28.03" y="23.49" width="1.51" height="1.51" fill="#cc1d1d"/>
    <rect x="28.03" y="21.97" width="1.51" height="1.52" fill="#cc1d1d"/>
    <rect x="28.03" y="20.46" width="1.51" height="1.51" fill="#cc1d1d"/>
    <rect x="28.03" y="18.94" width="1.51" height="1.52" fill="#cc1d1d"/>
    <rect x="28.03" y="17.43" width="1.51" height="1.51" fill="#cc1d1d"/>
    <rect x="28.03" y="15.91" width="1.51" height="1.52" fill="#ef5454"/>
    <rect x="28.03" y="14.4" width="1.51" height="1.51" fill="#fff"/>
    <rect x="26.52" y="32.57" width="1.51" height="1.52" fill="#fff"/>
    <rect x="26.52" y="31.06" width="1.51" height="1.51" fill="#aa0707"/>
    <rect x="26.52" y="29.54" width="1.51" height="1.52" fill="#cc1d1d"/>
    <rect x="26.52" y="28.03" width="1.51" height="1.51" fill="#cc1d1d"/>
    <rect x="26.52" y="26.52" width="1.51" height="1.51" fill="#cc1d1d"/>
    <rect x="26.52" y="25" width="1.51" height="1.52" fill="#cc1d1d"/>
    <rect x="26.52" y="23.49" width="1.51" height="1.51" fill="#cc1d1d"/>
    <rect x="26.52" y="21.97" width="1.51" height="1.52" fill="#cc1d1d"/>
    <rect x="26.52" y="20.46" width="1.51" height="1.51" fill="#cc1d1d"/>
    <rect x="26.52" y="18.94" width="1.51" height="1.52" fill="#cc1d1d"/>
    <rect x="26.52" y="17.43" width="1.51" height="1.51" fill="#ef5454"/>
    <rect x="26.52" y="15.91" width="1.51" height="1.52" fill="#fff"/>
    <rect x="25" y="31.06" width="1.52" height="1.51" fill="#fff"/>
    <rect x="25" y="29.54" width="1.52" height="1.52" fill="#aa0707"/>
    <rect x="25" y="28.03" width="1.52" height="1.51" fill="#cc1d1d"/>
    <rect x="25" y="26.52" width="1.52" height="1.51" fill="#cc1d1d"/>
    <rect x="25" y="25" width="1.52" height="1.52" fill="#cc1d1d"/>
    <rect x="25" y="23.49" width="1.52" height="1.51" fill="#cc1d1d"/>
    <rect x="25" y="21.97" width="1.52" height="1.52" fill="#cc1d1d"/>
    <rect x="25" y="20.46" width="1.52" height="1.51" fill="#cc1d1d"/>
    <rect x="25" y="18.94" width="1.52" height="1.52" fill="#ef5454"/>
    <rect x="25" y="17.43" width="1.52" height="1.51" fill="#fff"/>
    <rect x="23.49" y="31.06" width="1.51" height="1.51" fill="#fff"/>
    <rect x="23.49" y="29.54" width="1.51" height="1.52" fill="#aa0707"/>
    <rect x="23.49" y="28.03" width="1.51" height="1.51" fill="#cc1d1d"/>
    <rect x="23.49" y="26.52" width="1.51" height="1.51" fill="#cc1d1d"/>
    <rect x="23.49" y="25" width="1.51" height="1.52" fill="#cc1d1d"/>
    <rect x="23.49" y="23.49" width="1.51" height="1.51" fill="#cc1d1d"/>
    <rect x="23.49" y="21.97" width="1.51" height="1.52" fill="#cc1d1d"/>
    <rect x="23.49" y="20.46" width="1.51" height="1.51" fill="#cc1d1d"/>
    <rect x="23.49" y="18.94" width="1.51" height="1.52" fill="#ef5454"/>
    <rect x="23.49" y="17.43" width="1.51" height="1.51" fill="#fff"/>
    <rect x="21.97" y="32.57" width="1.52" height="1.52" fill="#fff"/>
    <rect x="21.97" y="31.06" width="1.52" height="1.51" fill="#aa0707"/>
    <rect x="21.97" y="29.54" width="1.52" height="1.52" fill="#cc1d1d"/>
    <rect x="21.97" y="28.03" width="1.52" height="1.51" fill="#cc1d1d"/>
    <rect x="21.97" y="26.52" width="1.52" height="1.51" fill="#cc1d1d"/>
    <rect x="21.97" y="25" width="1.52" height="1.52" fill="#cc1d1d"/>
    <rect x="21.97" y="23.49" width="1.52" height="1.51" fill="#cc1d1d"/>
    <rect x="21.97" y="21.97" width="1.52" height="1.52" fill="#cc1d1d"/>
    <rect x="21.97" y="20.46" width="1.52" height="1.51" fill="#cc1d1d"/>
    <rect x="21.97" y="18.94" width="1.52" height="1.52" fill="#cc1d1d"/>
    <rect x="21.97" y="17.43" width="1.52" height="1.51" fill="#ef5454"/>
    <rect x="21.97" y="15.91" width="1.52" height="1.52" fill="#fff"/>
    <rect x="20.46" y="34.09" width="1.51" height="1.51" fill="#fff"/>
    <rect x="20.46" y="32.57" width="1.51" height="1.52" fill="#aa0707"/>
    <rect x="20.46" y="31.06" width="1.51" height="1.51" fill="#cc1d1d"/>
    <rect x="20.46" y="29.54" width="1.51" height="1.52" fill="#cc1d1d"/>
    <rect x="20.46" y="28.03" width="1.51" height="1.51" fill="#cc1d1d"/>
    <rect x="20.46" y="26.52" width="1.51" height="1.51" fill="#cc1d1d"/>
    <rect x="20.46" y="25" width="1.51" height="1.52" fill="#cc1d1d"/>
    <rect x="20.46" y="23.49" width="1.51" height="1.51" fill="#cc1d1d"/>
    <rect x="20.46" y="21.97" width="1.51" height="1.52" fill="#cc1d1d"/>
    <rect x="20.46" y="20.46" width="1.51" height="1.51" fill="#cc1d1d"/>
    <rect x="20.46" y="18.94" width="1.51" height="1.52" fill="#cc1d1d"/>
    <rect x="20.46" y="17.43" width="1.51" height="1.51" fill="#cc1d1d"/>
    <rect x="20.46" y="15.91" width="1.51" height="1.52" fill="#ef5454"/>
    <rect x="20.46" y="14.4" width="1.51" height="1.51" fill="#fff"/>
    <rect x="18.94" y="35.6" width="1.52" height="1.52" fill="#fff"/>
    <rect x="18.94" y="34.09" width="1.52" height="1.51" fill="#aa0707"/>
    <rect x="18.94" y="32.57" width="1.52" height="1.52" fill="#cc1d1d"/>
    <rect x="18.94" y="31.06" width="1.52" height="1.51" fill="#cc1d1d"/>
    <rect x="18.94" y="29.54" width="1.52" height="1.52" fill="#cc1d1d"/>
    <rect x="18.94" y="28.03" width="1.52" height="1.51" fill="#cc1d1d"/>
    <rect x="18.94" y="26.52" width="1.52" height="1.51" fill="#cc1d1d"/>
    <rect x="18.94" y="25" width="1.52" height="1.52" fill="#aa0707"/>
    <rect x="18.94" y="23.49" width="1.52" height="1.51" fill="#aa0707"/>
    <rect x="18.94" y="21.97" width="1.52" height="1.52" fill="#cc1d1d"/>
    <rect x="18.94" y="20.46" width="1.52" height="1.51" fill="#cc1d1d"/>
    <rect x="18.94" y="18.94" width="1.52" height="1.52" fill="#cc1d1d"/>
    <rect x="18.94" y="17.43" width="1.52" height="1.51" fill="#cc1d1d"/>
    <rect x="18.94" y="15.91" width="1.52" height="1.52" fill="#cc1d1d"/>
    <rect x="18.94" y="14.4" width="1.52" height="1.51" fill="#ef5454"/>
    <rect x="18.94" y="12.88" width="1.52" height="1.52" fill="#fff"/>
    <rect x="17.43" y="37.12" width="1.51" height="1.51" fill="#fff"/>
    <rect x="17.43" y="35.6" width="1.51" height="1.52" fill="#aa0707"/>
    <rect x="17.43" y="34.09" width="1.51" height="1.51" fill="#cc1d1d"/>
    <rect x="17.43" y="32.57" width="1.51" height="1.52" fill="#cc1d1d"/>
    <rect x="17.43" y="31.06" width="1.51" height="1.51" fill="#cc1d1d"/>
    <rect x="17.43" y="29.54" width="1.51" height="1.52" fill="#cc1d1d"/>
    <rect x="17.43" y="28.03" width="1.51" height="1.51" fill="#cc1d1d"/>
    <rect x="17.43" y="26.52" width="1.51" height="1.51" fill="#ef5454"/>
    <rect x="17.43" y="25" width="1.51" height="1.52" fill="#fff"/>
    <rect x="17.43" y="23.49" width="1.51" height="1.51" fill="#fff"/>
    <rect x="17.43" y="21.97" width="1.51" height="1.52" fill="#aa0707"/>
    <rect x="17.43" y="20.46" width="1.51" height="1.51" fill="#cc1d1d"/>
    <rect x="17.43" y="18.94" width="1.51" height="1.52" fill="#cc1d1d"/>
    <rect x="17.43" y="17.43" width="1.51" height="1.51" fill="#cc1d1d"/>
    <rect x="17.43" y="15.91" width="1.51" height="1.52" fill="#cc1d1d"/>
    <rect x="17.43" y="14.4" width="1.51" height="1.51" fill="#cc1d1d"/>
    <rect x="17.43" y="12.88" width="1.51" height="1.52" fill="#ef5454"/>
    <rect x="17.43" y="11.37" width="1.51" height="1.51" fill="#fff"/>
    <rect x="15.91" y="38.63" width="1.52" height="1.52" fill="#fff"/>
    <rect x="15.91" y="37.12" width="1.52" height="1.51" fill="#aa0707"/>
    <rect x="15.91" y="35.6" width="1.52" height="1.52" fill="#cc1d1d"/>
    <rect x="15.91" y="34.09" width="1.52" height="1.51" fill="#cc1d1d"/>
    <rect x="15.91" y="32.57" width="1.52" height="1.52" fill="#cc1d1d"/>
    <rect x="15.91" y="31.06" width="1.52" height="1.51" fill="#cc1d1d"/>
    <rect x="15.91" y="29.54" width="1.52" height="1.52" fill="#cc1d1d"/>
    <rect x="15.91" y="28.03" width="1.52" height="1.51" fill="#ef5454"/>
    <rect x="15.91" y="26.52" width="1.52" height="1.51" fill="#fff"/>
    <rect x="15.91" y="21.97" width="1.52" height="1.52" fill="#fff"/>
    <rect x="15.91" y="20.46" width="1.52" height="1.51" fill="#aa0707"/>
    <rect x="15.91" y="18.94" width="1.52" height="1.52" fill="#cc1d1d"/>
    <rect x="15.91" y="17.43" width="1.52" height="1.51" fill="#cc1d1d"/>
    <rect x="15.91" y="15.91" width="1.52" height="1.52" fill="#cc1d1d"/>
    <rect x="15.91" y="14.4" width="1.52" height="1.51" fill="#cc1d1d"/>
    <rect x="15.91" y="12.88" width="1.52" height="1.52" fill="#cc1d1d"/>
    <rect x="15.91" y="11.37" width="1.52" height="1.51" fill="#ef5454"/>
    <rect x="15.91" y="9.85" width="1.52" height="1.52" fill="#fff"/>
    <rect x="14.4" y="40.15" width="1.51" height="1.51" fill="#fff"/>
    <rect x="14.4" y="38.63" width="1.51" height="1.52" fill="#aa0707"/>
    <rect x="14.4" y="37.12" width="1.51" height="1.51" fill="#cc1d1d"/>
    <rect x="14.4" y="35.6" width="1.51" height="1.52" fill="#cc1d1d"/>
    <rect x="14.4" y="34.09" width="1.51" height="1.51" fill="#cc1d1d"/>
    <rect x="14.4" y="32.57" width="1.51" height="1.52" fill="#cc1d1d"/>
    <rect x="14.4" y="31.06" width="1.51" height="1.51" fill="#cc1d1d"/>
    <rect x="14.4" y="29.54" width="1.51" height="1.52" fill="#ef5454"/>
    <rect x="14.4" y="28.03" width="1.51" height="1.51" fill="#fff"/>
    <rect x="14.4" y="20.46" width="1.51" height="1.51" fill="#fff"/>
    <rect x="14.4" y="18.94" width="1.51" height="1.52" fill="#aa0707"/>
    <rect x="14.4" y="17.43" width="1.51" height="1.51" fill="#cc1d1d"/>
    <rect x="14.4" y="15.91" width="1.51" height="1.52" fill="#cc1d1d"/>
    <rect x="14.4" y="14.4" width="1.51" height="1.51" fill="#cc1d1d"/>
    <rect x="14.4" y="12.88" width="1.51" height="1.52" fill="#cc1d1d"/>
    <rect x="14.4" y="11.37" width="1.51" height="1.51" fill="#cc1d1d"/>
    <rect x="14.4" y="9.85" width="1.51" height="1.52" fill="#ef5454"/>
    <rect x="14.4" y="8.34" width="1.51" height="1.51" fill="#fff"/>
    <rect x="12.88" y="41.66" width="1.52" height="1.52" fill="#fff"/>
    <rect x="12.88" y="40.15" width="1.52" height="1.51" fill="#aa0707"/>
    <rect x="12.88" y="38.63" width="1.52" height="1.52" fill="#cc1d1d"/>
    <rect x="12.88" y="37.12" width="1.52" height="1.51" fill="#cc1d1d"/>
    <rect x="12.88" y="35.6" width="1.52" height="1.52" fill="#cc1d1d"/>
    <rect x="12.88" y="34.09" width="1.52" height="1.51" fill="#cc1d1d"/>
    <rect x="12.88" y="32.57" width="1.52" height="1.52" fill="#cc1d1d"/>
    <rect x="12.88" y="31.06" width="1.52" height="1.51" fill="#ef5454"/>
    <rect x="12.88" y="29.54" width="1.52" height="1.52" fill="#fff"/>
    <rect x="12.88" y="18.94" width="1.52" height="1.52" fill="#fff"/>
    <rect x="12.88" y="17.43" width="1.52" height="1.51" fill="#aa0707"/>
    <rect x="12.88" y="15.91" width="1.52" height="1.52" fill="#cc1d1d"/>
    <rect x="12.88" y="14.4" width="1.52" height="1.51" fill="#cc1d1d"/>
    <rect x="12.88" y="12.88" width="1.52" height="1.52" fill="#cc1d1d"/>
    <rect x="12.88" y="11.37" width="1.52" height="1.51" fill="#cc1d1d"/>
    <rect x="12.88" y="9.85" width="1.52" height="1.52" fill="#cc1d1d"/>
    <rect x="12.88" y="8.34" width="1.52" height="1.51" fill="#ef5454"/>
    <rect x="12.88" y="6.82" width="1.52" height="1.51" fill="#fff"/>
    <rect x="11.37" y="43.18" width="1.51" height="1.51" fill="#fff"/>
    <rect x="11.37" y="41.66" width="1.51" height="1.52" fill="#aa0707"/>
    <rect x="11.37" y="40.15" width="1.51" height="1.51" fill="#cc1d1d"/>
    <rect x="11.37" y="38.63" width="1.51" height="1.52" fill="#cc1d1d"/>
    <rect x="11.37" y="37.12" width="1.51" height="1.51" fill="#cc1d1d"/>
    <rect x="11.37" y="35.6" width="1.51" height="1.52" fill="#cc1d1d"/>
    <rect x="11.37" y="34.09" width="1.51" height="1.51" fill="#cc1d1d"/>
    <rect x="11.37" y="32.57" width="1.51" height="1.52" fill="#ef5454"/>
    <rect x="11.37" y="31.06" width="1.51" height="1.51" fill="#fff"/>
    <rect x="11.37" y="17.43" width="1.51" height="1.51" fill="#fff"/>
    <rect x="11.37" y="15.91" width="1.51" height="1.52" fill="#aa0707"/>
    <rect x="11.37" y="14.4" width="1.51" height="1.51" fill="#cc1d1d"/>
    <rect x="11.37" y="12.88" width="1.51" height="1.52" fill="#cc1d1d"/>
    <rect x="11.37" y="11.37" width="1.51" height="1.51" fill="#cc1d1d"/>
    <rect x="11.37" y="9.85" width="1.51" height="1.52" fill="#cc1d1d"/>
    <rect x="11.37" y="8.34" width="1.51" height="1.51" fill="#cc1d1d"/>
    <rect x="11.37" y="6.82" width="1.51" height="1.51" fill="#ef5454"/>
    <rect x="11.37" y="5.31" width="1.51" height="1.52" fill="#fff"/>
    <rect x="9.85" y="44.69" width="1.51" height="1.51" fill="#fff"/>
    <rect x="9.85" y="43.18" width="1.51" height="1.51" fill="#aa0707"/>
    <rect x="9.85" y="41.66" width="1.51" height="1.52" fill="#cc1d1d"/>
    <rect x="9.85" y="40.15" width="1.51" height="1.51" fill="#cc1d1d"/>
    <rect x="9.85" y="38.63" width="1.51" height="1.52" fill="#cc1d1d"/>
    <rect x="9.85" y="37.12" width="1.51" height="1.51" fill="#cc1d1d"/>
    <rect x="9.85" y="35.6" width="1.51" height="1.52" fill="#cc1d1d"/>
    <rect x="9.85" y="34.09" width="1.51" height="1.51" fill="#ef5454"/>
    <rect x="9.85" y="32.57" width="1.51" height="1.52" fill="#fff"/>
    <rect x="9.85" y="15.91" width="1.51" height="1.52" fill="#fff"/>
    <rect x="9.85" y="14.4" width="1.51" height="1.51" fill="#aa0707"/>
    <rect x="9.85" y="12.88" width="1.51" height="1.52" fill="#cc1d1d"/>
    <rect x="9.85" y="11.37" width="1.51" height="1.51" fill="#cc1d1d"/>
    <rect x="9.85" y="9.85" width="1.51" height="1.52" fill="#cc1d1d"/>
    <rect x="9.85" y="8.34" width="1.51" height="1.51" fill="#cc1d1d"/>
    <rect x="9.85" y="6.82" width="1.51" height="1.51" fill="#cc1d1d"/>
    <rect x="9.85" y="5.31" width="1.51" height="1.52" fill="#ef5454"/>
    <rect x="9.85" y="3.8" width="1.51" height="1.51" fill="#fff"/>
    <rect x="8.34" y="46.2" width="1.52" height="1.52" fill="#fff"/>
    <rect x="8.34" y="44.69" width="1.52" height="1.51" fill="#aa0707"/>
    <rect x="8.34" y="43.18" width="1.52" height="1.51" fill="#cc1d1d"/>
    <rect x="8.34" y="41.66" width="1.52" height="1.52" fill="#cc1d1d"/>
    <rect x="8.34" y="40.15" width="1.52" height="1.51" fill="#cc1d1d"/>
    <rect x="8.34" y="38.63" width="1.52" height="1.52" fill="#cc1d1d"/>
    <rect x="8.34" y="37.12" width="1.52" height="1.51" fill="#cc1d1d"/>
    <rect x="8.34" y="35.6" width="1.52" height="1.52" fill="#ef5454"/>
    <rect x="8.34" y="34.09" width="1.52" height="1.51" fill="#fff"/>
    <rect x="8.34" y="14.4" width="1.52" height="1.51" fill="#fff"/>
    <rect x="8.34" y="12.88" width="1.52" height="1.52" fill="#aa0707"/>
    <rect x="8.34" y="11.37" width="1.52" height="1.51" fill="#cc1d1d"/>
    <rect x="8.34" y="9.85" width="1.52" height="1.52" fill="#cc1d1d"/>
    <rect x="8.34" y="8.34" width="1.52" height="1.51" fill="#cc1d1d"/>
    <rect x="8.34" y="6.82" width="1.52" height="1.51" fill="#cc1d1d"/>
    <rect x="8.34" y="5.31" width="1.52" height="1.52" fill="#cc1d1d"/>
    <rect x="8.34" y="3.8" width="1.52" height="1.51" fill="#ef5454"/>
    <rect x="8.34" y="2.28" width="1.52" height="1.52" fill="#fff"/>
    <rect x="6.82" y="46.2" width="1.51" height="1.52" fill="#fff"/>
    <rect x="6.82" y="44.69" width="1.51" height="1.51" fill="#aa0707"/>
    <rect x="6.82" y="43.18" width="1.51" height="1.51" fill="#cc1d1d"/>
    <rect x="6.82" y="41.66" width="1.51" height="1.52" fill="#cc1d1d"/>
    <rect x="6.82" y="40.15" width="1.51" height="1.51" fill="#cc1d1d"/>
    <rect x="6.82" y="38.63" width="1.51" height="1.52" fill="#cc1d1d"/>
    <rect x="6.82" y="37.12" width="1.51" height="1.51" fill="#ef5454"/>
    <rect x="6.82" y="35.6" width="1.51" height="1.52" fill="#fff"/>
    <rect x="6.82" y="12.88" width="1.51" height="1.52" fill="#fff"/>
    <rect x="6.82" y="11.37" width="1.51" height="1.51" fill="#aa0707"/>
    <rect x="6.82" y="9.85" width="1.51" height="1.52" fill="#cc1d1d"/>
    <rect x="6.82" y="8.34" width="1.51" height="1.51" fill="#cc1d1d"/>
    <rect x="6.82" y="6.82" width="1.51" height="1.51" fill="#cc1d1d"/>
    <rect x="6.82" y="5.31" width="1.51" height="1.52" fill="#cc1d1d"/>
    <rect x="6.82" y="3.8" width="1.51" height="1.51" fill="#ef5454"/>
    <rect x="6.82" y="2.28" width="1.51" height="1.52" fill="#fff"/>
    <rect x="5.31" y="44.69" width="1.52" height="1.51" fill="#fff"/>
    <rect x="5.31" y="43.18" width="1.52" height="1.51" fill="#aa0707"/>
    <rect x="5.31" y="41.66" width="1.52" height="1.52" fill="#cc1d1d"/>
    <rect x="5.31" y="40.15" width="1.52" height="1.51" fill="#cc1d1d"/>
    <rect x="5.31" y="38.63" width="1.52" height="1.52" fill="#ef5454"/>
    <rect x="5.31" y="37.12" width="1.52" height="1.51" fill="#fff"/>
    <rect x="5.31" y="11.37" width="1.52" height="1.51" fill="#fff"/>
    <rect x="5.31" y="9.85" width="1.52" height="1.52" fill="#aa0707"/>
    <rect x="5.31" y="8.34" width="1.52" height="1.51" fill="#cc1d1d"/>
    <rect x="5.31" y="6.82" width="1.52" height="1.51" fill="#cc1d1d"/>
    <rect x="5.31" y="5.31" width="1.52" height="1.52" fill="#ef5454"/>
    <rect x="5.31" y="3.8" width="1.52" height="1.51" fill="#fff"/>
    <rect x="3.8" y="43.18" width="1.51" height="1.51" fill="#fff"/>
    <rect x="3.8" y="41.66" width="1.51" height="1.52" fill="#aa0707"/>
    <rect x="3.8" y="40.15" width="1.51" height="1.51" fill="#ef5454"/>
    <rect x="3.8" y="38.63" width="1.51" height="1.52" fill="#fff"/>
    <rect x="3.8" y="9.85" width="1.51" height="1.52" fill="#fff"/>
    <rect x="3.8" y="8.34" width="1.51" height="1.51" fill="#aa0707"/>
    <rect x="3.8" y="6.82" width="1.51" height="1.51" fill="#ef5454"/>
    <rect x="3.8" y="5.31" width="1.51" height="1.52" fill="#fff"/>
    <rect x="2.28" y="41.66" width="1.52" height="1.52" fill="#fff"/>
    <rect x="2.28" y="40.15" width="1.52" height="1.51" fill="#fff"/>
    <rect x="2.28" y="8.34" width="1.52" height="1.51" fill="#fff"/>
    <rect x="2.28" y="6.82" width="1.52" height="1.51" fill="#fff"/>
  </g>
</svg>
