<svg id="Capa_1" data-name="Capa 1" xmlns="http://www.w3.org/2000/svg" xmlns:xlink="http://www.w3.org/1999/xlink" width="50" height="50" viewBox="0 0 50 50">
  <defs>
    <clipPath id="clip-path">
      <polygon points="24.04 49.76 1.25 39.47 1.41 9.18 24.2 19.46 24.04 49.76" fill="none"/>
    </clipPath>
    <clipPath id="clip-path-2">
      <polygon points="24.2 19.46 1.41 9.18 25.96 0.24 48.74 10.53 24.2 19.46" fill="none"/>
    </clipPath>
    <clipPath id="clip-path-3">
      <polygon points="48.74 10.53 48.58 40.83 24.04 49.76 24.2 19.46 48.74 10.53" fill="none"/>
    </clipPath>
  </defs>
  <g id="Figment_lido">
    <g style="isolation: isolate">
      <g>
        <polygon points="24.04 49.76 1.25 39.47 1.41 9.18 24.2 19.46 24.04 49.76" fill="#d6d6d6"/>
        <g style="isolation: isolate">
          <g clip-path="url(#clip-path)">
            <g>
              <path d="M14.64,38.07V35.63l1.82.82v2.44l-1.82-.82m0-7.68,1.86.84,0,2.5h0v0l-1.85-.84-3.79-1.71L9,30.33v0l0,0H9V27.84l1.87.84h0l3.8,1.72M9,22.69V20l7.52,3.4,0,2.57h0v.14l1.82.82h0l0,2.44-1.82-.83h0l-1.88-.85v0l0,0h0V25.24l-3.74-1.69V26L9,25.14v0l0,0-1.84-.83,0-2.45L9,22.69l0,2.45H9V22.69m11.32-.08-1.89-.86v2.51l-1.88-.85V20.9L9,17.5,9,20l-1.88-.85V16.64l-1.88-.85L5.16,31.2l0-2.57,1.89.86h0l1.86.84v0l0,0h0v2.54l1.87.84,0,2.57-1.88-.85v0l0,0,0,0v0L7,34.57l0,2.61,11.3,5.11V39.73l-1.87-.84,0-5.13h0v0l1.88.85h0l1.88.85.07-12.84" fill="#381c45"/>
              <path d="M8.93,30.34,7.07,29.5v2.55l-1.9-.85v0l0,5.11L7,37.18l0-2.61,1.85.84V32.87h0V30.34m0,0v0H9l0,0" fill="#22f2cc"/>
              <path d="M18.37,34.61l-1.88-.85,0,5.13,1.87.84v2.56l1.89.85,0-5.11-1.88-.85v0h0l0-2.57m-1.88-.87h0v0" fill="#22f2cc"/>
              <path d="M9,17.5l-1.89-.86v2.51L9,20l0-2.5" fill="#22f2cc"/>
              <path d="M18.43,21.75l-1.88-.85v2.51l1.88.85V21.75" fill="#22f2cc"/>
              <path d="M9,22.69l-1.84-.83,0,2.45L9,25.14H9l0-2.45" fill="#22f2cc"/>
              <path d="M18.34,26.93l-1.82-.82,0,2.43h0l1.81.81V26.94h0" fill="#22f2cc"/>
              <path d="M9,30.33h0l0,0v0m1.88-1.65L9,27.84v2.49l1.88.85h0l0-2.49" fill="#22f2cc"/>
              <path d="M16.49,33.74h0v0h0m0-2.51-1.86-.84v2.5l1.85.84,0-2.5" fill="#22f2cc"/>
              <path d="M5.16,31.2h0l0,0v0m1.91-1.71-1.89-.86,0,2.57,1.9.85V29.5h0" fill="#1acb23"/>
              <path d="M18.35,37.18h0v0m1.91-1.72h0l-1.88-.85h0l0,2.57,1.88.85h0V35.46" fill="#1acb23"/>
              <path d="M8.89,35.44l0,0,0,0v0m1.9-1.72-1.87-.84h0v2.57l1.88.85,0-2.57" fill="#1acb23"/>
              <path d="M16.47,36.45l-1.82-.82v2.44l1.82.82V36.45" fill="#1acb23"/>
              <path d="M14.63,30.39l-3.8-1.72h0l0,2.49h0l3.79,1.71v-2.5" fill="#1acb23"/>
              <path d="M16.53,23.4,9,20v2.58l1.89.85v.12l3.74,1.69v-.12l1.88.85,0-2.57" fill="#1acb23"/>
              <path d="M9,25.14H9l0,0v0m1.9-1.71L9,22.58v2.56l1.89.86V23.43" fill="#1acb23"/>
              <path d="M14.62,27.69h0l0,0v0M16.52,26h0l-1.88-.85v2.57l1.88.85,0-2.43V26" fill="#1acb23"/>
            </g>
          </g>
        </g>
      </g>
      <g>
        <polygon points="24.2 19.46 1.41 9.18 25.96 0.24 48.74 10.53 24.2 19.46" fill="#ebebeb"/>
        <g style="isolation: isolate">
          <g clip-path="url(#clip-path-2)">
            <g>
              <path d="M32.91,11.63l-1.8-.81,2-.73,1.79.81-2,.73M27.22,9.11l2.05-.75,1.84.83h0l-2.05.75-4.18,1.52-2.06.75h0L21,11.38,23,10.64h0l4.19-1.52m-10,.56-2-.89,8.27-3,1.9.85h0l.1,0,2-.73h0l1.8.81-2,.73h0l-2.08.76h0l-1.8-.82-4.12,1.5,1.8.82L19,10.49h0l-2,.74-1.8-.81,2-.74,1.79.81h0L17.2,9.67m8.63-6.25-2.08.76L25.6,5l-2.08.75-1.84-.83-8.3,3,1.84.84-2.07.75L11.3,8.71l-2.08.75,11.33,5.12-1.89-.85L20.75,13h0l2.06-.74h0l1.86.84,2.06-.75,1.88.85-2.07.76h0l-2,.74,1.92.87L38.85,11,37,10.15l-2.06.75L31.15,9.19h0l2.06-.75h0l2.07-.75L25.83,3.42" fill="#381c45"/>
              <path d="M22.82,12.23,20.76,13l1.88.85-2.09.76h0l3.76,1.69,2.08-.75-1.92-.87,2-.74-1.87-.84h0l-1.86-.84m0,0h0" fill="#22f2cc"/>
              <path d="M33.21,8.44l-2.06.75,3.76,1.71L37,10.15l1.88.85,2.08-.76-3.76-1.7L35.1,9.3h0l-1.89-.86m-2.08.75h0" fill="#22f2cc"/>
              <path d="M13.38,8l-2.08.76,1.85.83,2.07-.75L13.38,8" fill="#22f2cc"/>
              <path d="M23.75,4.18l-2.07.75,1.84.83L25.6,5l-1.85-.83" fill="#22f2cc"/>
              <path d="M17.2,9.68l-2,.74,1.8.81,2-.74h0L17.2,9.68" fill="#22f2cc"/>
              <path d="M27.51,5.93l-2,.73,1.79.81h0l2-.73-1.79-.81h0" fill="#22f2cc"/>
              <path d="M22.82,12.21h0M23,10.64,21,11.38l1.84.83,2.06-.75h0L23,10.64" fill="#22f2cc"/>
              <path d="M31.13,9.19h0m-1.86-.83-2.05.75,1.84.83,2.05-.75-1.84-.83" fill="#22f2cc"/>
              <path d="M20.55,14.58h0m.2-1.61-2.09.76,1.89.85,2.09-.76L20.76,13h0" fill="#1acb23"/>
              <path d="M35.1,9.3h0m.19-1.62h0l-2.07.75h0l1.89.86,2.07-.76h0l-1.89-.86" fill="#1acb23"/>
              <path d="M26.55,13.93h0m.19-1.61-2.06.75h0l1.87.84h0l2.07-.76-1.88-.85" fill="#1acb23"/>
              <path d="M33.12,10.09l-2,.73,1.8.81,2-.73-1.79-.81" fill="#1acb23"/>
              <path d="M27.22,9.11,23,10.63h0l1.83.82h0l4.18-1.52-1.84-.83" fill="#1acb23"/>
              <path d="M23.5,5.77l-8.27,3,2,.89-.08,0,2.09-.76.08,0,4.12-1.5-.09,0,2.08-.76-1.9-.85" fill="#1acb23"/>
              <path d="M19,10.49h0m.2-1.62-2.09.76.08,0,1.81.82,2.08-.76-1.8-.82-.08,0" fill="#1acb23"/>
              <path d="M25.21,8.23h0m.19-1.61h0l-2.08.76.09,0,1.8.82,2.08-.76L25.5,6.66l-.1,0" fill="#1acb23"/>
            </g>
          </g>
        </g>
      </g>
      <g>
        <polygon points="48.74 10.53 48.58 40.83 24.04 49.76 24.2 19.46 48.74 10.53" fill="#f0f0f0"/>
        <g style="isolation: isolate">
          <g clip-path="url(#clip-path-3)">
            <g>
              <path d="M38.5,37.08l0-2.44,2-.73v2.44l-2,.73m0-7.64,2-.74,0,2.5h0l0,0v0l-2,.74L34.3,33.46l-2.07.75v0l0,0h0l0-2.49,2-.75h0l4.19-1.53m-6.21-2.87V23.88l8.28-3v2.57h0v.13l2-.73h0v2.45l-2,.73h0l-2.08.75v0l0,0h0l0-2.45-4.12,1.5,0,2.45L32.27,29v0l0,0-2,.74V27.32l2-.74,0,2.45h0V26.57m12.47-9.72-2.08.76v2.51l-2.07.75V18.36l-8.31,3v2.51l-2.07.76V22.14l-2.08.76-.08,15.4,0-2.56L30.16,35h0l2.05-.74v0l0,0h0v2.53L34.26,36V38.6l-2.08.75v0l0,0h0v0l-2,.74,0,2.61,12.45-4.53,0-2.56-2.06.75,0-5.13h0l0,0v0l2.07-.75h0l2.07-.75.07-12.85" fill="#381c45"/>
              <path d="M32.21,34.25,30.16,35v2.55l-2.09.76v0l0,5.1,2.08-.75,0-2.61,2-.74V36.79h0V34.25m0,0v0h0l0,0" fill="#22f2cc"/>
              <path d="M42.61,30.46l-2.07.75,0,5.13,2.06-.75,0,2.56,2.08-.76,0-5.12L42.6,33v0h0V30.46m-2.07.73,0,0h0v0" fill="#22f2cc"/>
              <path d="M32.29,21.38l-2.07.76v2.51l2.07-.76V21.38" fill="#22f2cc"/>
              <path d="M42.67,17.61l-2.07.75v2.51l2.07-.75V17.61" fill="#22f2cc"/>
              <path d="M32.27,26.58l-2,.74v2.45l2-.74h0l0-2.45" fill="#22f2cc"/>
              <path d="M42.58,22.84l-2,.73V26h0l2-.73,0-2.43h0" fill="#22f2cc"/>
              <path d="M32.23,34.21h0l0,0v0M34.3,31l-2,.75,0,2.49,2.07-.75h0V31" fill="#22f2cc"/>
              <path d="M40.54,31.19h0v0l0,0m0-2.49-2,.74v2.5l2-.74,0-2.5" fill="#22f2cc"/>
              <path d="M28.06,38.3h0l0,0v0M30.16,35l-2.08.76,0,2.56,2.09-.76V35h0" fill="#1acb23"/>
              <path d="M42.6,33h0v0m2.1-3.34h0l-2.07.75h0V33l2.07-.76h0l0-2.58" fill="#1acb23"/>
              <path d="M32.17,39.35h0l0,0v0M34.26,36l-2.06.75h0v2.56l2.08-.75V36" fill="#1acb23"/>
              <path d="M40.52,33.91l-2,.73,0,2.44,2-.73V33.91" fill="#1acb23"/>
              <path d="M38.49,29.44,34.3,31h0v2.5h0l4.18-1.52v-2.5" fill="#1acb23"/>
              <path d="M40.57,20.87l-8.28,3v2.58l2.09-.76v.11l4.12-1.5V24.2l2.07-.76V20.87" fill="#1acb23"/>
              <path d="M32.27,29h0l0,0v0m2.1-3.32-2.09.76V29l2.08-.76,0-2.45V25.7" fill="#1acb23"/>
              <path d="M38.47,26.76h0l0,0v0m2.1-3.32h0l-2.07.76v.11l0,2.45L40.55,26V23.44" fill="#1acb23"/>
            </g>
          </g>
        </g>
      </g>
    </g>
  </g>
</svg>
