<svg id="Capa_1" data-name="Capa 1" xmlns="http://www.w3.org/2000/svg" xmlns:xlink="http://www.w3.org/1999/xlink" width="50" height="50" viewBox="0 0 50 50">
  <defs>
    <clipPath id="clip-path">
      <polygon points="24.04 49.76 1.25 39.47 1.41 9.17 24.2 19.46 24.04 49.76" fill="none"/>
    </clipPath>
    <clipPath id="clip-path-2">
      <polygon points="24.2 19.46 1.41 9.17 25.96 0.24 48.74 10.53 24.2 19.46" fill="none"/>
    </clipPath>
    <clipPath id="clip-path-3">
      <polygon points="48.74 10.53 48.58 40.82 24.04 49.76 24.2 19.46 48.74 10.53" fill="none"/>
    </clipPath>
  </defs>
  <g id="Figment_lido">
    <g style="isolation: isolate">
      <g>
        <polygon points="24.04 49.76 1.25 39.47 1.41 9.17 24.2 19.46 24.04 49.76" fill="#019e76"/>
        <g style="isolation: isolate">
          <g clip-path="url(#clip-path)">
            <g>
              <path d="M14.1,21.54a.66.66,0,0,0-.69,0c-.15.12-.29.26-.44.37a.64.64,0,0,1-.13.19l-.54.49c-.46.44-.93.85-1.39,1.28-.67.61-1.34,1.24-2,1.83,0,0-.08.15-.15.12l0,0c-.08-.1,0-.23,0-.34,0-1.12,0-2.25,0-3.37A2.24,2.24,0,0,0,7.6,20.18l-.18-.06a.79.79,0,0,0-.65.2l0,0c0,.13-.12.22-.16.35a1.34,1.34,0,0,0-.07.51c0,3.86,0,7.73,0,11.6a1.65,1.65,0,0,0,.07.57c0,.19.15.37.19.57a1.8,1.8,0,0,0,.81.91,1.09,1.09,0,0,0,.24.07c.41.08.69-.12.83-.61,0-.22.05-.43.05-.66,0-1.12,0-2.23,0-3.36,0-.06,0-.13,0-.14h0s0,.07.08.11a.31.31,0,0,1,0,.1c1.5,2.74,3,5.44,4.51,8.21l0,.06a1.54,1.54,0,0,0,.25.31,2.07,2.07,0,0,0,.46.31.64.64,0,0,0,.6,0,2.42,2.42,0,0,0,.43-.36,10.06,10.06,0,0,1,1-.9c.3-.27.58-.55.88-.8s.77-.71,1.17-1.05a.59.59,0,0,0,.21-.42,6.15,6.15,0,0,0,0-.75,2.52,2.52,0,0,0-.76-1.45,1.34,1.34,0,0,0-.27-.17.86.86,0,0,0-.72,0,.68.68,0,0,0-.18.13c-.16.16-.32.33-.49.47s-.59.55-.89.81-.58.51-.87.78c0,0-.07.05-.1,0s-.07,0-.11-.11-.16-.32-.26-.47a.77.77,0,0,1-.14-.27,1.55,1.55,0,0,0-.12-.22c-1-1.81-2-3.62-3-5.42a.83.83,0,0,1-.13-.34.25.25,0,0,1,.11-.22l1.26-1.15c.42-.39.85-.75,1.25-1.17a.3.3,0,0,1,.18-.17c.09,0,.13-.14.21-.19a.27.27,0,0,1,.11-.1,1.36,1.36,0,0,1,.12-.12.29.29,0,0,1,.14-.13l.1-.07c.14-.15.2-.21.27-.19a1.1,1.1,0,0,1,.22.32.54.54,0,0,1,.07.13l.4.71.07.12a.8.8,0,0,0,.08.16.57.57,0,0,1,.08.13c.12.24.25.48.39.71,0,0,.05.08.07.13l.54,1a.37.37,0,0,1,.07.12l.09.17a.41.41,0,0,1,.08.13,4.91,4.91,0,0,0,.33.59,1.83,1.83,0,0,0,.74.67.7.7,0,0,0,.83-.11A2.1,2.1,0,0,0,18,27.92c-.21-.36-.42-.73-.62-1.1L16,24.31c-.37-.67-.74-1.35-1.12-2a1.82,1.82,0,0,0-.78-.76" fill="#fefefe"/>
              <path d="M13.23,29.16h0m.9-.23a.7.7,0,0,0-.74.05.93.93,0,0,1-.16.18c-.06.12-.1.25-.16.36a2.36,2.36,0,0,0,.57,2,1.56,1.56,0,0,0,.46.35.69.69,0,0,0,.93-.28,2.09,2.09,0,0,0-.21-2.05,1.57,1.57,0,0,0-.69-.65" fill="#fefefe"/>
            </g>
          </g>
        </g>
      </g>
      <g>
        <polygon points="24.2 19.46 1.41 9.17 25.96 0.24 48.74 10.53 24.2 19.46" fill="#01ad82"/>
        <g style="isolation: isolate">
          <g clip-path="url(#clip-path-2)">
            <g>
              <path d="M21.48,5.79c-.3.11-.51.26-.55.43s0,.26-.08.39a.29.29,0,0,1,0,.16,4.1,4.1,0,0,0-.06.49c0,.43-.1.86-.15,1.3-.07.62-.14,1.24-.23,1.86,0,0,.05.11,0,.14h-.07a.54.54,0,0,1-.3-.1c-.9-.4-1.82-.81-2.7-1.22a3.8,3.8,0,0,0-2.46-.06l-.2.09a.72.72,0,0,0-.4.46v0c.07.07.07.15.14.22a.84.84,0,0,0,.35.22l9.3,4.2a1.53,1.53,0,0,0,.51.16c.2.05.43.05.62.09a3.45,3.45,0,0,0,1.42-.15,1.92,1.92,0,0,0,.25-.12c.41-.21.49-.46.21-.71a3.15,3.15,0,0,0-.48-.27c-.91-.4-1.78-.81-2.7-1.21-.05,0-.12,0-.08-.08h.29c3.47.09,6.94.15,10.4.27h.09a3,3,0,0,0,.44,0,4.2,4.2,0,0,0,.64-.17.78.78,0,0,0,.5-.36.76.76,0,0,0,.08-.39,5.49,5.49,0,0,1,.09-.9c0-.27.05-.54.11-.81s.08-.72.14-1.08c0-.09,0-.19-.16-.28s-.37-.19-.58-.28A4.25,4.25,0,0,0,34.07,8a2.74,2.74,0,0,0-.37.11,1.18,1.18,0,0,0-.61.42.44.44,0,0,0-.05.15,2.42,2.42,0,0,1,0,.47c-.06.28-.06.55-.1.83s-.08.53-.11.79c0,0,0,.06-.06.08l-.18,0c-.2,0-.4,0-.59,0a1.9,1.9,0,0,1-.34,0l-.28,0-6.88-.16a1.17,1.17,0,0,1-.38,0c-.09-.05-.09-.1-.08-.15.05-.39.1-.78.14-1.17a11.6,11.6,0,0,0,.12-1.17.12.12,0,0,1,0-.17c0-.06,0-.13,0-.19a.12.12,0,0,1,0-.1.49.49,0,0,1,0-.12.11.11,0,0,1,0-.13.32.32,0,0,1,0-.09c0-.13,0-.19.07-.22a1.51,1.51,0,0,1,.44,0h.17l.89,0h.53c.3,0,.6,0,.9,0h.17c.41,0,.83,0,1.25,0h.53l.75,0A4.19,4.19,0,0,0,31.25,7c.37-.14.6-.33.61-.54-.09-.47-.95-.73-2-.73l-1.41,0L25.3,5.66,22.74,5.6a3.84,3.84,0,0,0-1.26.19" fill="#fefefe"/>
              <path d="M26.85,9.06h0m.58-.62a.89.89,0,0,0-.59.46.3.3,0,0,1,0,.16,1.5,1.5,0,0,1,.15.23,3.09,3.09,0,0,0,2.12.4,3.59,3.59,0,0,0,.68-.16c.44-.16.67-.4.56-.65s-.91-.62-1.82-.62a3.58,3.58,0,0,0-1.11.18" fill="#fefefe"/>
            </g>
          </g>
        </g>
      </g>
      <g>
        <polygon points="48.74 10.53 48.58 40.82 24.04 49.76 24.2 19.46 48.74 10.53" fill="#01b185"/>
        <g style="isolation: isolate">
          <g clip-path="url(#clip-path-3)">
            <g>
              <path d="M38.8,20.47a1.73,1.73,0,0,0-.79.64c-.16.25-.32.51-.49.75a1.3,1.3,0,0,1-.16.31l-.6,1c-.52.85-1,1.68-1.57,2.51-.76,1.21-1.52,2.42-2.29,3.61,0,.08-.09.23-.17.25h0c-.1,0,0-.2,0-.31,0-1.15,0-2.3,0-3.45,0-.76-.49-1.3-1.2-1.05l-.2.1a2.45,2.45,0,0,0-.74.76l0,.07c-.05.17-.14.33-.18.5a1.69,1.69,0,0,0-.08.58l-.06,11.84a1.08,1.08,0,0,0,.07.52c.06.16.17.26.22.42a.77.77,0,0,0,.91.23l.26-.13a2.09,2.09,0,0,0,.94-1.35,5.83,5.83,0,0,0,.06-.71c0-1.14,0-2.28,0-3.42a.23.23,0,0,1,0-.18h0s.06,0,.09,0l.06,0c1.68,1.5,3.41,2.93,5,4.49l.06,0c.09,0,.16.11.27.1a1.57,1.57,0,0,0,.52-.08,1.49,1.49,0,0,0,.68-.53,7.9,7.9,0,0,0,.49-.74c.33-.61.72-1.17,1.09-1.75s.65-1.05,1-1.57c.45-.68.87-1.39,1.32-2.08a1.4,1.4,0,0,0,.24-.61,6.83,6.83,0,0,0,0-.78.91.91,0,0,0-.84-.83,1.23,1.23,0,0,0-.32.07,2,2,0,0,0-.8.61,1.42,1.42,0,0,0-.2.28c-.19.3-.37.62-.57.92-.35.51-.67,1.06-1,1.59s-.66,1-1,1.54c0,.07-.08.11-.12.12s-.07,0-.12,0a3.36,3.36,0,0,0-.29-.24.29.29,0,0,1-.16-.15.89.89,0,0,0-.13-.14c-1.13-1-2.24-2-3.36-2.93a.32.32,0,0,1-.15-.24.75.75,0,0,1,.13-.32l1.43-2.26c.47-.76,1-1.5,1.42-2.28a.83.83,0,0,1,.2-.32c.1-.11.14-.26.23-.37a1.32,1.32,0,0,1,.12-.2l.14-.23a1.1,1.1,0,0,1,.17-.25l.11-.16c.15-.27.22-.39.29-.42s.13,0,.26.13a.18.18,0,0,1,.08.07l.44.38a.27.27,0,0,1,.08.07.28.28,0,0,0,.1.09.16.16,0,0,1,.08.06,5.22,5.22,0,0,0,.43.39.31.31,0,0,1,.09.07,7.84,7.84,0,0,0,.61.54.18.18,0,0,1,.08.07.39.39,0,0,0,.1.08.27.27,0,0,1,.08.07,1.85,1.85,0,0,0,.37.32,1,1,0,0,0,.84.05,1.92,1.92,0,0,0,.93-.83c.5-1,.36-1.8-.17-2.19-.24-.18-.47-.38-.7-.58-.51-.47-1-.91-1.55-1.37s-.82-.74-1.25-1.08a.85.85,0,0,0-.87-.11" fill="#fefefe"/>
              <path d="M37.78,29h0m1-1a1.76,1.76,0,0,0-.83.69,3.37,3.37,0,0,1-.19.32c-.06.17-.11.34-.18.51-.19.79.08,1.47.63,1.59a1,1,0,0,0,.53-.05A2,2,0,0,0,39.81,30a1.57,1.57,0,0,0-.23-1.91A.8.8,0,0,0,38.8,28" fill="#fefefe"/>
            </g>
          </g>
        </g>
      </g>
    </g>
  </g>
</svg>
