<svg id="Capa_1" data-name="Capa 1" xmlns="http://www.w3.org/2000/svg" xmlns:xlink="http://www.w3.org/1999/xlink" width="50" height="50" viewBox="0 0 50 50">
  <defs>
    <clipPath id="clip-path">
      <polygon points="24.04 49.76 1.25 39.47 1.41 9.17 24.2 19.46 24.04 49.76" fill="none"/>
    </clipPath>
    <clipPath id="clip-path-2">
      <polygon points="24.2 19.46 1.41 9.17 25.96 0.24 48.74 10.53 24.2 19.46" fill="none"/>
    </clipPath>
    <clipPath id="clip-path-3">
      <polygon points="48.74 10.53 48.58 40.83 24.04 49.76 24.2 19.46 48.74 10.53" fill="none"/>
    </clipPath>
  </defs>
  <g id="Figment_lido">
    <g style="isolation: isolate">
      <g>
        <polygon points="24.04 49.76 1.25 39.47 1.41 9.17 24.2 19.46 24.04 49.76" fill="#173385"/>
        <g style="isolation: isolate">
          <g clip-path="url(#clip-path)">
            <g>
              <path d="M17.15,33a5.11,5.11,0,0,1-.55-.31c.08-.89.1-1.11.48-.95l.5.29c.07.92,0,1.18-.43,1m1.2-1a.68.68,0,0,1-.39-.85c0-.24.24-.36.36-.55l.29.17a7.64,7.64,0,0,1,.24.91c0,.5-.2.42-.48.33h0m-1.27-2.11c-.4-.17-.44-.44-.47-1.35a3.41,3.41,0,0,1,.57.16c.42.19.46.5.41,1.35a2.82,2.82,0,0,1-.51-.16M12.4,31.51a2.75,2.75,0,0,1-.77-.52,4.87,4.87,0,0,1-1.36-3.27c0-1.21.64-2,1.55-2a1.51,1.51,0,0,1,.56.15A3.33,3.33,0,0,1,14,28a1.79,1.79,0,0,0,1,1.29l.21.08.17.06.34.16a1.24,1.24,0,0,0,.2.1,2,2,0,0,0,.22.09l.07,0c.28.12.41.34.41.8s-.12.58-.41.45l-.07,0-.26-.11-.12,0-.12-.07-.39-.19c-.56-.25-1-.28-1.38.49a1,1,0,0,1-1.48.44m-.17,3L12,34.37C9.91,33.26,8.18,30.09,8,27.12c-.14-2.81,1.35-4.85,3.33-4.55a3.73,3.73,0,0,1,.94.28,7.66,7.66,0,0,1,3.84,5,1.18,1.18,0,0,1-.43-.11,2.26,2.26,0,0,1-1-1.18,5.19,5.19,0,0,0-2.35-2.45,2.51,2.51,0,0,0-1.46-.2c-1.25.26-2,1.7-1.87,3.65a7.12,7.12,0,0,0,2.5,5.14,4.31,4.31,0,0,0,.88.52,1.86,1.86,0,0,0,2.34-.41.74.74,0,0,1,1-.23,2.17,2.17,0,0,1,.38.22c-.26,1.71-2.1,2.46-3.87,1.68m0-13.47c-.17-.05-.42-.1-.66-.18-3.16-1-5.47,2.44-4.74,7,.59,3.69,2.43,6.74,5.19,8.27a3.17,3.17,0,0,0,.41.21c1.89.84,3.9.3,4.94-2.32.14-.35.29-.55.59-.42l.14.08.18.1c.37.16.57-.06.59-.61s.17-.61.44-.49l.16.09.13.07c.42.18.49-.21.49-.73s-.07-.91-.47-1.09l-.12,0-.15-.06c-.3-.13-.47-.39-.48-.93a1.09,1.09,0,0,0-.52-1.06l-.15-.05-.16-.05c-.37-.16-.54-.57-.72-1.12-1-3.3-2.73-5.47-5.09-6.69" fill="#fff" opacity="0.8"/>
              <path d="M12.34,27.4c-.56-.25-.92.08-.94.84a1.87,1.87,0,0,0,.92,1.69c.56.25.93-.09.94-.83a1.82,1.82,0,0,0-.92-1.7" fill="#fff" opacity="0.8"/>
            </g>
          </g>
        </g>
      </g>
      <g>
        <polygon points="24.2 19.46 1.41 9.17 25.96 0.24 48.74 10.53 24.2 19.46" fill="#193892"/>
        <g style="isolation: isolate">
          <g clip-path="url(#clip-path-2)">
            <g>
              <path d="M31.23,8.7a4.58,4.58,0,0,1-.61.19c-.54-.32-.67-.39-.29-.53.12,0,.31-.1.55-.17.68.24.83.34.35.51m.2-.9a.85.85,0,0,1-.85-.06c-.13-.09-.07-.23-.11-.35l.32-.09c.25,0,.57.08.79.15.38.13.14.23-.12.34h0m-2.33,0c-.4.15-.62.08-1.26-.18a5,5,0,0,1,.52-.23c.43-.16.67-.09,1.22.2l-.48.21m-2.24,2.87a6.7,6.7,0,0,1-.91.23,6.37,6.37,0,0,1-3.2-.31c-.81-.38-.9-.94-.22-1.38A2.59,2.59,0,0,1,23,9a5.58,5.58,0,0,1,2.59-.22,2.9,2.9,0,0,0,1.57-.09l.21-.09.16-.06.35-.12.22-.08.21-.08.07,0a1,1,0,0,1,.84,0c.31.14.31.24,0,.35l-.07,0-.26.1-.12,0-.13,0a3.26,3.26,0,0,0-.41.14c-.57.2-.93.43-.65.84s-.14.66-.76.89m1.9,1-.27.09a13.24,13.24,0,0,1-7.74-.23c-2-.78-2.33-2.17-.71-3.07a5,5,0,0,1,.87-.39,12.31,12.31,0,0,1,6.16-.41,2.64,2.64,0,0,1-.38.18A3.91,3.91,0,0,1,25.16,8a8.94,8.94,0,0,0-3.34.44,3.42,3.42,0,0,0-1.19.68c-.72.71-.28,1.53,1.14,2.06a9.88,9.88,0,0,0,5.28.31,8.91,8.91,0,0,0,1-.29c.91-.33,1.43-.76,1.4-1.31,0-.26.17-.43.54-.56a3.08,3.08,0,0,1,.42-.12c1,.65.17,1.81-1.63,2.47M19.65,7.52l-.59.28c-2.92,1.31-2.27,3.52,1.37,4.55a16.83,16.83,0,0,0,9.33-.1l.44-.14c1.92-.7,3-1.89,2-3.22-.14-.17-.17-.31.14-.42l.15-.05.19-.06c.38-.14.38-.31,0-.49s-.3-.26,0-.37l.18,0,.13,0c.43-.16.22-.31-.14-.47a1.32,1.32,0,0,0-1.07-.1l-.13,0L31.47,7a1.22,1.22,0,0,1-1,0,1.47,1.47,0,0,0-1.09-.07l-.15.07L29.11,7a2.45,2.45,0,0,1-1.27,0,16.92,16.92,0,0,0-8.19.53" fill="#fff" opacity="0.8"/>
              <path d="M24,9.44c-.58.21-.61.49-.1.73a2.59,2.59,0,0,0,1.8.05c.57-.2.6-.49.11-.72A2.56,2.56,0,0,0,24,9.44" fill="#fff" opacity="0.8"/>
            </g>
          </g>
        </g>
      </g>
      <g>
        <polygon points="48.74 10.53 48.58 40.83 24.04 49.76 24.2 19.46 48.74 10.53" fill="#193995"/>
        <g style="isolation: isolate">
          <g clip-path="url(#clip-path-3)">
            <g>
              <path d="M41.24,30.5a4,4,0,0,1-.61.16c.1-.95.12-1.19.53-1.34a4.29,4.29,0,0,1,.55-.14c.08.85,0,1.14-.47,1.32m1.31-1.95c-.39.14-.52-.08-.42-.52a4.26,4.26,0,0,1,.4-.84l.31-.07a2.73,2.73,0,0,1,.26.69c.06.46-.22.59-.52.73h0m-1.38-1c-.43.15-.47-.08-.5-1a4.68,4.68,0,0,1,.61-.3c.47-.17.51.09.45,1a5.74,5.74,0,0,1-.56.28M36,33.06a2.07,2.07,0,0,1-.84.12,1.89,1.89,0,0,1-1.48-2.09,4.29,4.29,0,0,1,1.7-3.23,2.2,2.2,0,0,1,.62-.33,1.35,1.35,0,0,1,1.81.65.73.73,0,0,0,1.06.46l.23-.1.18-.07.37-.13.23-.07.23-.1.09,0c.3-.11.44,0,.44.45s-.14.68-.46.79l-.07,0-.28.1-.13.06-.14,0-.43.13a2.36,2.36,0,0,0-1.5,1.64A2.82,2.82,0,0,1,36,33.06m-.2,3.1-.28.09c-2.26.63-4.14-1.07-4.28-3.88a8.87,8.87,0,0,1,3.66-7.29,5.61,5.61,0,0,1,1-.52c1.86-.67,3.6,0,4.18,1.75a1.8,1.8,0,0,1-.47.25,1,1,0,0,1-1.1-.31A2.3,2.3,0,0,0,36,25.79a4.64,4.64,0,0,0-1.6,1A6.78,6.78,0,0,0,32.37,32c.14,1.93,1.17,3.13,2.71,3a3.52,3.52,0,0,0,1-.22,4.91,4.91,0,0,0,2.57-2.37,2,2,0,0,1,1.06-1,1.84,1.84,0,0,1,.42-.1,7.35,7.35,0,0,1-4.25,4.9M36,22.78c-.2.1-.46.25-.73.38-3.46,1.71-6,7-5.22,10.92.63,3.16,2.64,4.63,5.65,3.84l.45-.14c2.06-.75,4.27-3,5.42-6.44.15-.46.32-.79.65-.91a.8.8,0,0,1,.15,0l.19,0a1.11,1.11,0,0,0,.66-1.11c0-.49.18-.74.48-.85l.18,0,.13,0c.46-.17.54-.61.55-1.13s-.08-.85-.51-.69l-.14.06-.16.07c-.33.12-.52,0-.53-.52s-.17-.76-.55-.62a1,1,0,0,0-.18.09l-.17.08c-.4.14-.59-.11-.78-.51-1.09-2.43-3-3.12-5.54-2.36" fill="#fff" opacity="0.8"/>
              <path d="M36,29a1.72,1.72,0,0,0-1,1.63c0,.74.41,1.1,1,.9A1.71,1.71,0,0,0,37,30c0-.78-.39-1.12-1-.92" fill="#fff" opacity="0.8"/>
            </g>
          </g>
        </g>
      </g>
    </g>
  </g>
  <g>
    <rect x="46.2" y="41.66" width="1.52" height="1.52" fill="#fff"/>
    <rect x="46.2" y="40.15" width="1.52" height="1.51" fill="#fff"/>
    <rect x="46.2" y="8.34" width="1.52" height="1.52" fill="#fff"/>
    <rect x="46.2" y="6.82" width="1.52" height="1.51" fill="#fff"/>
    <rect x="44.69" y="43.18" width="1.51" height="1.51" fill="#fff"/>
    <rect x="44.69" y="41.66" width="1.51" height="1.52" fill="#ef5454"/>
    <rect x="44.69" y="40.15" width="1.51" height="1.51" fill="#ef5454"/>
    <rect x="44.69" y="38.63" width="1.51" height="1.52" fill="#fff"/>
    <rect x="44.69" y="9.85" width="1.51" height="1.51" fill="#fff"/>
    <rect x="44.69" y="8.34" width="1.51" height="1.52" fill="#aa0707"/>
    <rect x="44.69" y="6.82" width="1.51" height="1.51" fill="#ef5454"/>
    <rect x="44.69" y="5.31" width="1.51" height="1.52" fill="#fff"/>
    <rect x="43.18" y="44.69" width="1.52" height="1.52" fill="#fff"/>
    <rect x="43.18" y="43.18" width="1.52" height="1.51" fill="#aa0707"/>
    <rect x="43.18" y="41.66" width="1.52" height="1.52" fill="#cc1d1d"/>
    <rect x="43.18" y="40.15" width="1.52" height="1.51" fill="#cc1d1d"/>
    <rect x="43.18" y="38.63" width="1.52" height="1.52" fill="#ef5454"/>
    <rect x="43.18" y="37.12" width="1.52" height="1.51" fill="#fff"/>
    <rect x="43.18" y="11.37" width="1.52" height="1.52" fill="#fff"/>
    <rect x="43.18" y="9.85" width="1.52" height="1.51" fill="#aa0707"/>
    <rect x="43.18" y="8.34" width="1.52" height="1.52" fill="#cc1d1d"/>
    <rect x="43.18" y="6.82" width="1.52" height="1.51" fill="#cc1d1d"/>
    <rect x="43.18" y="5.31" width="1.52" height="1.52" fill="#ef5454"/>
    <rect x="43.18" y="3.8" width="1.52" height="1.51" fill="#fff"/>
    <rect x="41.66" y="46.21" width="1.51" height="1.51" fill="#fff"/>
    <rect x="41.66" y="44.69" width="1.51" height="1.52" fill="#aa0707"/>
    <rect x="41.66" y="43.18" width="1.51" height="1.51" fill="#cc1d1d"/>
    <rect x="41.66" y="41.66" width="1.51" height="1.52" fill="#cc1d1d"/>
    <rect x="41.66" y="40.15" width="1.51" height="1.51" fill="#cc1d1d"/>
    <rect x="41.66" y="38.63" width="1.51" height="1.52" fill="#cc1d1d"/>
    <rect x="41.66" y="37.12" width="1.51" height="1.51" fill="#ef5454"/>
    <rect x="41.66" y="35.6" width="1.51" height="1.51" fill="#fff"/>
    <rect x="41.66" y="12.88" width="1.51" height="1.51" fill="#fff"/>
    <rect x="41.66" y="11.37" width="1.51" height="1.52" fill="#aa0707"/>
    <rect x="41.66" y="9.85" width="1.51" height="1.51" fill="#cc1d1d"/>
    <rect x="41.66" y="8.34" width="1.51" height="1.52" fill="#cc1d1d"/>
    <rect x="41.66" y="6.82" width="1.51" height="1.51" fill="#cc1d1d"/>
    <rect x="41.66" y="5.31" width="1.51" height="1.52" fill="#cc1d1d"/>
    <rect x="41.66" y="3.8" width="1.51" height="1.51" fill="#ef5454"/>
    <rect x="41.66" y="2.28" width="1.51" height="1.51" fill="#fff"/>
    <rect x="40.15" y="46.21" width="1.52" height="1.51" fill="#fff"/>
    <rect x="40.15" y="44.69" width="1.52" height="1.52" fill="#aa0707"/>
    <rect x="40.15" y="43.18" width="1.52" height="1.51" fill="#cc1d1d"/>
    <rect x="40.15" y="41.66" width="1.52" height="1.52" fill="#cc1d1d"/>
    <rect x="40.15" y="40.15" width="1.52" height="1.51" fill="#cc1d1d"/>
    <rect x="40.15" y="38.63" width="1.52" height="1.52" fill="#cc1d1d"/>
    <rect x="40.15" y="37.12" width="1.52" height="1.51" fill="#cc1d1d"/>
    <rect x="40.15" y="35.6" width="1.52" height="1.51" fill="#ef5454"/>
    <rect x="40.15" y="34.09" width="1.52" height="1.52" fill="#fff"/>
    <rect x="40.15" y="14.4" width="1.52" height="1.52" fill="#fff"/>
    <rect x="40.15" y="12.88" width="1.52" height="1.51" fill="#aa0707"/>
    <rect x="40.15" y="11.37" width="1.52" height="1.52" fill="#cc1d1d"/>
    <rect x="40.15" y="9.85" width="1.52" height="1.51" fill="#cc1d1d"/>
    <rect x="40.15" y="8.34" width="1.52" height="1.52" fill="#cc1d1d"/>
    <rect x="40.15" y="6.82" width="1.52" height="1.51" fill="#cc1d1d"/>
    <rect x="40.15" y="5.31" width="1.52" height="1.52" fill="#cc1d1d"/>
    <rect x="40.15" y="3.8" width="1.52" height="1.51" fill="#ef5454"/>
    <rect x="40.15" y="2.28" width="1.52" height="1.51" fill="#fff"/>
    <rect x="38.63" y="44.69" width="1.51" height="1.52" fill="#fff"/>
    <rect x="38.63" y="43.18" width="1.51" height="1.51" fill="#aa0707"/>
    <rect x="38.63" y="41.66" width="1.51" height="1.52" fill="#cc1d1d"/>
    <rect x="38.63" y="40.15" width="1.51" height="1.51" fill="#cc1d1d"/>
    <rect x="38.63" y="38.63" width="1.51" height="1.52" fill="#cc1d1d"/>
    <rect x="38.63" y="37.12" width="1.51" height="1.51" fill="#cc1d1d"/>
    <rect x="38.63" y="35.6" width="1.51" height="1.51" fill="#cc1d1d"/>
    <rect x="38.63" y="34.09" width="1.51" height="1.52" fill="#ef5454"/>
    <rect x="38.63" y="32.57" width="1.51" height="1.51" fill="#fff"/>
    <rect x="38.63" y="15.91" width="1.51" height="1.51" fill="#fff"/>
    <rect x="38.63" y="14.4" width="1.51" height="1.52" fill="#aa0707"/>
    <rect x="38.63" y="12.88" width="1.51" height="1.51" fill="#cc1d1d"/>
    <rect x="38.63" y="11.37" width="1.51" height="1.52" fill="#cc1d1d"/>
    <rect x="38.63" y="9.85" width="1.51" height="1.51" fill="#cc1d1d"/>
    <rect x="38.63" y="8.34" width="1.51" height="1.52" fill="#cc1d1d"/>
    <rect x="38.63" y="6.82" width="1.51" height="1.51" fill="#cc1d1d"/>
    <rect x="38.63" y="5.31" width="1.51" height="1.52" fill="#ef5454"/>
    <rect x="38.63" y="3.8" width="1.51" height="1.51" fill="#fff"/>
    <rect x="37.12" y="43.18" width="1.51" height="1.51" fill="#fff"/>
    <rect x="37.12" y="41.66" width="1.51" height="1.52" fill="#aa0707"/>
    <rect x="37.12" y="40.15" width="1.51" height="1.51" fill="#cc1d1d"/>
    <rect x="37.12" y="38.63" width="1.51" height="1.52" fill="#cc1d1d"/>
    <rect x="37.12" y="37.12" width="1.51" height="1.51" fill="#cc1d1d"/>
    <rect x="37.12" y="35.6" width="1.51" height="1.51" fill="#cc1d1d"/>
    <rect x="37.12" y="34.09" width="1.51" height="1.52" fill="#cc1d1d"/>
    <rect x="37.12" y="32.57" width="1.51" height="1.51" fill="#ef5454"/>
    <rect x="37.12" y="31.06" width="1.51" height="1.52" fill="#fff"/>
    <rect x="37.12" y="17.43" width="1.51" height="1.52" fill="#fff"/>
    <rect x="37.12" y="15.91" width="1.51" height="1.51" fill="#aa0707"/>
    <rect x="37.12" y="14.4" width="1.51" height="1.52" fill="#cc1d1d"/>
    <rect x="37.12" y="12.88" width="1.51" height="1.51" fill="#cc1d1d"/>
    <rect x="37.12" y="11.37" width="1.51" height="1.52" fill="#cc1d1d"/>
    <rect x="37.12" y="9.85" width="1.51" height="1.51" fill="#cc1d1d"/>
    <rect x="37.12" y="8.34" width="1.51" height="1.52" fill="#cc1d1d"/>
    <rect x="37.12" y="6.82" width="1.51" height="1.51" fill="#ef5454"/>
    <rect x="37.12" y="5.31" width="1.51" height="1.52" fill="#fff"/>
    <rect x="35.6" y="41.66" width="1.52" height="1.52" fill="#fff"/>
    <rect x="35.6" y="40.15" width="1.52" height="1.51" fill="#aa0707"/>
    <rect x="35.6" y="38.63" width="1.52" height="1.52" fill="#cc1d1d"/>
    <rect x="35.6" y="37.12" width="1.52" height="1.51" fill="#cc1d1d"/>
    <rect x="35.6" y="35.6" width="1.52" height="1.51" fill="#cc1d1d"/>
    <rect x="35.6" y="34.09" width="1.52" height="1.52" fill="#cc1d1d"/>
    <rect x="35.6" y="32.57" width="1.52" height="1.51" fill="#cc1d1d"/>
    <rect x="35.6" y="31.06" width="1.52" height="1.52" fill="#ef5454"/>
    <rect x="35.6" y="29.54" width="1.52" height="1.51" fill="#fff"/>
    <rect x="35.6" y="18.94" width="1.52" height="1.51" fill="#fff"/>
    <rect x="35.6" y="17.43" width="1.52" height="1.52" fill="#aa0707"/>
    <rect x="35.6" y="15.91" width="1.52" height="1.51" fill="#cc1d1d"/>
    <rect x="35.6" y="14.4" width="1.52" height="1.52" fill="#cc1d1d"/>
    <rect x="35.6" y="12.88" width="1.52" height="1.51" fill="#cc1d1d"/>
    <rect x="35.6" y="11.37" width="1.52" height="1.52" fill="#cc1d1d"/>
    <rect x="35.6" y="9.85" width="1.52" height="1.51" fill="#cc1d1d"/>
    <rect x="35.6" y="8.34" width="1.52" height="1.52" fill="#ef5454"/>
    <rect x="35.6" y="6.82" width="1.52" height="1.51" fill="#fff"/>
    <rect x="34.09" y="40.15" width="1.51" height="1.51" fill="#fff"/>
    <rect x="34.09" y="38.63" width="1.51" height="1.52" fill="#aa0707"/>
    <rect x="34.09" y="37.12" width="1.51" height="1.51" fill="#cc1d1d"/>
    <rect x="34.09" y="35.6" width="1.51" height="1.51" fill="#cc1d1d"/>
    <rect x="34.09" y="34.09" width="1.51" height="1.52" fill="#cc1d1d"/>
    <rect x="34.09" y="32.57" width="1.51" height="1.51" fill="#cc1d1d"/>
    <rect x="34.09" y="31.06" width="1.51" height="1.52" fill="#cc1d1d"/>
    <rect x="34.09" y="29.54" width="1.51" height="1.51" fill="#ef5454"/>
    <rect x="34.09" y="28.03" width="1.51" height="1.52" fill="#fff"/>
    <rect x="34.09" y="20.46" width="1.51" height="1.51" fill="#fff"/>
    <rect x="34.09" y="18.94" width="1.51" height="1.51" fill="#aa0707"/>
    <rect x="34.09" y="17.43" width="1.51" height="1.52" fill="#cc1d1d"/>
    <rect x="34.09" y="15.91" width="1.51" height="1.51" fill="#cc1d1d"/>
    <rect x="34.09" y="14.4" width="1.51" height="1.52" fill="#cc1d1d"/>
    <rect x="34.09" y="12.88" width="1.51" height="1.51" fill="#cc1d1d"/>
    <rect x="34.09" y="11.37" width="1.51" height="1.52" fill="#cc1d1d"/>
    <rect x="34.09" y="9.85" width="1.51" height="1.51" fill="#ef5454"/>
    <rect x="34.09" y="8.34" width="1.51" height="1.52" fill="#fff"/>
    <rect x="32.57" y="38.63" width="1.52" height="1.52" fill="#fff"/>
    <rect x="32.57" y="37.12" width="1.52" height="1.51" fill="#aa0707"/>
    <rect x="32.57" y="35.6" width="1.52" height="1.51" fill="#cc1d1d"/>
    <rect x="32.57" y="34.09" width="1.52" height="1.52" fill="#cc1d1d"/>
    <rect x="32.57" y="32.57" width="1.52" height="1.51" fill="#cc1d1d"/>
    <rect x="32.57" y="31.06" width="1.52" height="1.52" fill="#cc1d1d"/>
    <rect x="32.57" y="29.54" width="1.52" height="1.51" fill="#cc1d1d"/>
    <rect x="32.57" y="28.03" width="1.52" height="1.52" fill="#ef5454"/>
    <rect x="32.57" y="26.51" width="1.52" height="1.51" fill="#fff"/>
    <rect x="32.57" y="21.97" width="1.52" height="1.52" fill="#fff"/>
    <rect x="32.57" y="20.46" width="1.52" height="1.51" fill="#aa0707"/>
    <rect x="32.57" y="18.94" width="1.52" height="1.51" fill="#cc1d1d"/>
    <rect x="32.57" y="17.43" width="1.52" height="1.52" fill="#cc1d1d"/>
    <rect x="32.57" y="15.91" width="1.52" height="1.51" fill="#cc1d1d"/>
    <rect x="32.57" y="14.4" width="1.52" height="1.52" fill="#cc1d1d"/>
    <rect x="32.57" y="12.88" width="1.52" height="1.51" fill="#cc1d1d"/>
    <rect x="32.57" y="11.37" width="1.52" height="1.52" fill="#ef5454"/>
    <rect x="32.57" y="9.85" width="1.52" height="1.51" fill="#fff"/>
    <rect x="31.06" y="37.12" width="1.51" height="1.51" fill="#fff"/>
    <rect x="31.06" y="35.6" width="1.51" height="1.51" fill="#aa0707"/>
    <rect x="31.06" y="34.09" width="1.51" height="1.52" fill="#cc1d1d"/>
    <rect x="31.06" y="32.57" width="1.51" height="1.51" fill="#cc1d1d"/>
    <rect x="31.06" y="31.06" width="1.51" height="1.52" fill="#cc1d1d"/>
    <rect x="31.06" y="29.54" width="1.51" height="1.51" fill="#cc1d1d"/>
    <rect x="31.06" y="28.03" width="1.51" height="1.52" fill="#cc1d1d"/>
    <rect x="31.06" y="26.51" width="1.51" height="1.51" fill="#ef5454"/>
    <rect x="31.06" y="25" width="1.51" height="1.52" fill="#fff"/>
    <rect x="31.06" y="23.49" width="1.51" height="1.51" fill="#fff"/>
    <rect x="31.06" y="21.97" width="1.51" height="1.52" fill="#aa0707"/>
    <rect x="31.06" y="20.46" width="1.51" height="1.51" fill="#cc1d1d"/>
    <rect x="31.06" y="18.94" width="1.51" height="1.51" fill="#cc1d1d"/>
    <rect x="31.06" y="17.43" width="1.51" height="1.52" fill="#cc1d1d"/>
    <rect x="31.06" y="15.91" width="1.51" height="1.51" fill="#cc1d1d"/>
    <rect x="31.06" y="14.4" width="1.51" height="1.52" fill="#cc1d1d"/>
    <rect x="31.06" y="12.88" width="1.51" height="1.51" fill="#ef5454"/>
    <rect x="31.06" y="11.37" width="1.51" height="1.52" fill="#fff"/>
    <rect x="29.54" y="35.6" width="1.52" height="1.51" fill="#fff"/>
    <rect x="29.54" y="34.09" width="1.52" height="1.52" fill="#aa0707"/>
    <rect x="29.54" y="32.57" width="1.52" height="1.51" fill="#cc1d1d"/>
    <rect x="29.54" y="31.06" width="1.52" height="1.52" fill="#cc1d1d"/>
    <rect x="29.54" y="29.54" width="1.52" height="1.51" fill="#cc1d1d"/>
    <rect x="29.54" y="28.03" width="1.52" height="1.52" fill="#cc1d1d"/>
    <rect x="29.54" y="26.51" width="1.52" height="1.51" fill="#cc1d1d"/>
    <rect x="29.54" y="25" width="1.52" height="1.52" fill="#aa0707"/>
    <rect x="29.54" y="23.49" width="1.52" height="1.51" fill="#aa0707"/>
    <rect x="29.54" y="21.97" width="1.52" height="1.52" fill="#cc1d1d"/>
    <rect x="29.54" y="20.46" width="1.52" height="1.51" fill="#cc1d1d"/>
    <rect x="29.54" y="18.94" width="1.52" height="1.51" fill="#cc1d1d"/>
    <rect x="29.54" y="17.43" width="1.52" height="1.52" fill="#cc1d1d"/>
    <rect x="29.54" y="15.91" width="1.52" height="1.51" fill="#cc1d1d"/>
    <rect x="29.54" y="14.4" width="1.52" height="1.52" fill="#ef5454"/>
    <rect x="29.54" y="12.88" width="1.52" height="1.51" fill="#fff"/>
    <rect x="28.03" y="34.09" width="1.51" height="1.52" fill="#fff"/>
    <rect x="28.03" y="32.57" width="1.51" height="1.51" fill="#aa0707"/>
    <rect x="28.03" y="31.06" width="1.51" height="1.52" fill="#cc1d1d"/>
    <rect x="28.03" y="29.54" width="1.51" height="1.51" fill="#cc1d1d"/>
    <rect x="28.03" y="28.03" width="1.51" height="1.52" fill="#cc1d1d"/>
    <rect x="28.03" y="26.51" width="1.51" height="1.51" fill="#cc1d1d"/>
    <rect x="28.03" y="25" width="1.51" height="1.52" fill="#cc1d1d"/>
    <rect x="28.03" y="23.49" width="1.51" height="1.51" fill="#cc1d1d"/>
    <rect x="28.03" y="21.97" width="1.51" height="1.52" fill="#cc1d1d"/>
    <rect x="28.03" y="20.46" width="1.51" height="1.51" fill="#cc1d1d"/>
    <rect x="28.03" y="18.94" width="1.51" height="1.51" fill="#cc1d1d"/>
    <rect x="28.03" y="17.43" width="1.51" height="1.52" fill="#cc1d1d"/>
    <rect x="28.03" y="15.91" width="1.51" height="1.51" fill="#ef5454"/>
    <rect x="28.03" y="14.4" width="1.51" height="1.52" fill="#fff"/>
    <rect x="26.51" y="32.57" width="1.52" height="1.51" fill="#fff"/>
    <rect x="26.51" y="31.06" width="1.52" height="1.52" fill="#aa0707"/>
    <rect x="26.51" y="29.54" width="1.52" height="1.51" fill="#cc1d1d"/>
    <rect x="26.51" y="28.03" width="1.52" height="1.52" fill="#cc1d1d"/>
    <rect x="26.51" y="26.51" width="1.52" height="1.51" fill="#cc1d1d"/>
    <rect x="26.51" y="25" width="1.52" height="1.52" fill="#cc1d1d"/>
    <rect x="26.51" y="23.49" width="1.52" height="1.51" fill="#cc1d1d"/>
    <rect x="26.51" y="21.97" width="1.52" height="1.52" fill="#cc1d1d"/>
    <rect x="26.51" y="20.46" width="1.52" height="1.51" fill="#cc1d1d"/>
    <rect x="26.51" y="18.94" width="1.52" height="1.51" fill="#cc1d1d"/>
    <rect x="26.51" y="17.43" width="1.52" height="1.52" fill="#ef5454"/>
    <rect x="26.51" y="15.91" width="1.52" height="1.51" fill="#fff"/>
    <rect x="25" y="31.06" width="1.51" height="1.52" fill="#fff"/>
    <rect x="25" y="29.54" width="1.51" height="1.51" fill="#aa0707"/>
    <rect x="25" y="28.03" width="1.51" height="1.52" fill="#cc1d1d"/>
    <rect x="25" y="26.51" width="1.51" height="1.51" fill="#cc1d1d"/>
    <rect x="25" y="25" width="1.51" height="1.52" fill="#cc1d1d"/>
    <rect x="25" y="23.49" width="1.51" height="1.51" fill="#cc1d1d"/>
    <rect x="25" y="21.97" width="1.51" height="1.52" fill="#cc1d1d"/>
    <rect x="25" y="20.46" width="1.51" height="1.51" fill="#cc1d1d"/>
    <rect x="25" y="18.94" width="1.51" height="1.51" fill="#ef5454"/>
    <rect x="25" y="17.43" width="1.51" height="1.52" fill="#fff"/>
    <rect x="23.48" y="31.06" width="1.52" height="1.52" fill="#fff"/>
    <rect x="23.48" y="29.54" width="1.52" height="1.51" fill="#aa0707"/>
    <rect x="23.48" y="28.03" width="1.52" height="1.52" fill="#cc1d1d"/>
    <rect x="23.48" y="26.51" width="1.52" height="1.51" fill="#cc1d1d"/>
    <rect x="23.48" y="25" width="1.52" height="1.52" fill="#cc1d1d"/>
    <rect x="23.48" y="23.49" width="1.52" height="1.51" fill="#cc1d1d"/>
    <rect x="23.48" y="21.97" width="1.52" height="1.52" fill="#cc1d1d"/>
    <rect x="23.48" y="20.46" width="1.52" height="1.51" fill="#cc1d1d"/>
    <rect x="23.48" y="18.94" width="1.52" height="1.51" fill="#ef5454"/>
    <rect x="23.48" y="17.43" width="1.52" height="1.52" fill="#fff"/>
    <rect x="21.97" y="32.57" width="1.51" height="1.51" fill="#fff"/>
    <rect x="21.97" y="31.06" width="1.51" height="1.52" fill="#aa0707"/>
    <rect x="21.97" y="29.54" width="1.51" height="1.51" fill="#cc1d1d"/>
    <rect x="21.97" y="28.03" width="1.51" height="1.52" fill="#cc1d1d"/>
    <rect x="21.97" y="26.51" width="1.51" height="1.51" fill="#cc1d1d"/>
    <rect x="21.97" y="25" width="1.51" height="1.52" fill="#cc1d1d"/>
    <rect x="21.97" y="23.49" width="1.51" height="1.51" fill="#cc1d1d"/>
    <rect x="21.97" y="21.97" width="1.51" height="1.52" fill="#cc1d1d"/>
    <rect x="21.97" y="20.46" width="1.51" height="1.51" fill="#cc1d1d"/>
    <rect x="21.97" y="18.94" width="1.51" height="1.51" fill="#cc1d1d"/>
    <rect x="21.97" y="17.43" width="1.51" height="1.52" fill="#ef5454"/>
    <rect x="21.97" y="15.91" width="1.51" height="1.51" fill="#fff"/>
    <rect x="20.46" y="34.09" width="1.52" height="1.52" fill="#fff"/>
    <rect x="20.46" y="32.57" width="1.52" height="1.51" fill="#aa0707"/>
    <rect x="20.46" y="31.06" width="1.52" height="1.52" fill="#cc1d1d"/>
    <rect x="20.46" y="29.54" width="1.52" height="1.51" fill="#cc1d1d"/>
    <rect x="20.46" y="28.03" width="1.52" height="1.52" fill="#cc1d1d"/>
    <rect x="20.46" y="26.51" width="1.52" height="1.51" fill="#cc1d1d"/>
    <rect x="20.46" y="25" width="1.52" height="1.52" fill="#cc1d1d"/>
    <rect x="20.46" y="23.49" width="1.52" height="1.51" fill="#cc1d1d"/>
    <rect x="20.46" y="21.97" width="1.52" height="1.52" fill="#cc1d1d"/>
    <rect x="20.46" y="20.46" width="1.52" height="1.51" fill="#cc1d1d"/>
    <rect x="20.46" y="18.94" width="1.52" height="1.51" fill="#cc1d1d"/>
    <rect x="20.46" y="17.43" width="1.52" height="1.52" fill="#cc1d1d"/>
    <rect x="20.46" y="15.91" width="1.52" height="1.51" fill="#ef5454"/>
    <rect x="20.46" y="14.4" width="1.52" height="1.52" fill="#fff"/>
    <rect x="18.94" y="35.6" width="1.51" height="1.51" fill="#fff"/>
    <rect x="18.94" y="34.09" width="1.51" height="1.52" fill="#aa0707"/>
    <rect x="18.94" y="32.57" width="1.51" height="1.51" fill="#cc1d1d"/>
    <rect x="18.94" y="31.06" width="1.51" height="1.52" fill="#cc1d1d"/>
    <rect x="18.94" y="29.54" width="1.51" height="1.51" fill="#cc1d1d"/>
    <rect x="18.94" y="28.03" width="1.51" height="1.52" fill="#cc1d1d"/>
    <rect x="18.94" y="26.51" width="1.51" height="1.51" fill="#cc1d1d"/>
    <rect x="18.94" y="25" width="1.51" height="1.52" fill="#aa0707"/>
    <rect x="18.94" y="23.49" width="1.51" height="1.51" fill="#aa0707"/>
    <rect x="18.94" y="21.97" width="1.51" height="1.52" fill="#cc1d1d"/>
    <rect x="18.94" y="20.46" width="1.51" height="1.51" fill="#cc1d1d"/>
    <rect x="18.94" y="18.94" width="1.51" height="1.51" fill="#cc1d1d"/>
    <rect x="18.94" y="17.43" width="1.51" height="1.52" fill="#cc1d1d"/>
    <rect x="18.94" y="15.91" width="1.51" height="1.51" fill="#cc1d1d"/>
    <rect x="18.94" y="14.4" width="1.51" height="1.52" fill="#ef5454"/>
    <rect x="18.94" y="12.88" width="1.51" height="1.51" fill="#fff"/>
    <rect x="17.43" y="37.12" width="1.51" height="1.51" fill="#fff"/>
    <rect x="17.43" y="35.6" width="1.51" height="1.51" fill="#aa0707"/>
    <rect x="17.43" y="34.09" width="1.51" height="1.52" fill="#cc1d1d"/>
    <rect x="17.43" y="32.57" width="1.51" height="1.51" fill="#cc1d1d"/>
    <rect x="17.43" y="31.06" width="1.51" height="1.52" fill="#cc1d1d"/>
    <rect x="17.43" y="29.54" width="1.51" height="1.51" fill="#cc1d1d"/>
    <rect x="17.43" y="28.03" width="1.51" height="1.52" fill="#cc1d1d"/>
    <rect x="17.43" y="26.51" width="1.51" height="1.51" fill="#ef5454"/>
    <rect x="17.43" y="25" width="1.51" height="1.52" fill="#fff"/>
    <rect x="17.43" y="23.49" width="1.51" height="1.51" fill="#fff"/>
    <rect x="17.43" y="21.97" width="1.51" height="1.52" fill="#aa0707"/>
    <rect x="17.43" y="20.46" width="1.51" height="1.51" fill="#cc1d1d"/>
    <rect x="17.43" y="18.94" width="1.51" height="1.51" fill="#cc1d1d"/>
    <rect x="17.43" y="17.43" width="1.51" height="1.52" fill="#cc1d1d"/>
    <rect x="17.43" y="15.91" width="1.51" height="1.51" fill="#cc1d1d"/>
    <rect x="17.43" y="14.4" width="1.51" height="1.52" fill="#cc1d1d"/>
    <rect x="17.43" y="12.88" width="1.51" height="1.51" fill="#ef5454"/>
    <rect x="17.43" y="11.37" width="1.51" height="1.52" fill="#fff"/>
    <rect x="15.91" y="38.63" width="1.52" height="1.52" fill="#fff"/>
    <rect x="15.91" y="37.12" width="1.52" height="1.51" fill="#aa0707"/>
    <rect x="15.91" y="35.6" width="1.52" height="1.51" fill="#cc1d1d"/>
    <rect x="15.91" y="34.09" width="1.52" height="1.52" fill="#cc1d1d"/>
    <rect x="15.91" y="32.57" width="1.52" height="1.51" fill="#cc1d1d"/>
    <rect x="15.91" y="31.06" width="1.52" height="1.52" fill="#cc1d1d"/>
    <rect x="15.91" y="29.54" width="1.52" height="1.51" fill="#cc1d1d"/>
    <rect x="15.91" y="28.03" width="1.52" height="1.52" fill="#ef5454"/>
    <rect x="15.91" y="26.51" width="1.52" height="1.51" fill="#fff"/>
    <rect x="15.91" y="21.97" width="1.52" height="1.52" fill="#fff"/>
    <rect x="15.91" y="20.46" width="1.52" height="1.51" fill="#aa0707"/>
    <rect x="15.91" y="18.94" width="1.52" height="1.51" fill="#cc1d1d"/>
    <rect x="15.91" y="17.43" width="1.52" height="1.52" fill="#cc1d1d"/>
    <rect x="15.91" y="15.91" width="1.52" height="1.51" fill="#cc1d1d"/>
    <rect x="15.91" y="14.4" width="1.52" height="1.52" fill="#cc1d1d"/>
    <rect x="15.91" y="12.88" width="1.52" height="1.51" fill="#cc1d1d"/>
    <rect x="15.91" y="11.37" width="1.52" height="1.52" fill="#ef5454"/>
    <rect x="15.91" y="9.85" width="1.52" height="1.51" fill="#fff"/>
    <rect x="14.4" y="40.15" width="1.51" height="1.51" fill="#fff"/>
    <rect x="14.4" y="38.63" width="1.51" height="1.52" fill="#aa0707"/>
    <rect x="14.4" y="37.12" width="1.51" height="1.51" fill="#cc1d1d"/>
    <rect x="14.4" y="35.6" width="1.51" height="1.51" fill="#cc1d1d"/>
    <rect x="14.4" y="34.09" width="1.51" height="1.52" fill="#cc1d1d"/>
    <rect x="14.4" y="32.57" width="1.51" height="1.51" fill="#cc1d1d"/>
    <rect x="14.4" y="31.06" width="1.51" height="1.52" fill="#cc1d1d"/>
    <rect x="14.4" y="29.54" width="1.51" height="1.51" fill="#ef5454"/>
    <rect x="14.4" y="28.03" width="1.51" height="1.52" fill="#fff"/>
    <rect x="14.4" y="20.46" width="1.51" height="1.51" fill="#fff"/>
    <rect x="14.4" y="18.94" width="1.51" height="1.51" fill="#aa0707"/>
    <rect x="14.4" y="17.43" width="1.51" height="1.52" fill="#cc1d1d"/>
    <rect x="14.4" y="15.91" width="1.51" height="1.51" fill="#cc1d1d"/>
    <rect x="14.4" y="14.4" width="1.51" height="1.52" fill="#cc1d1d"/>
    <rect x="14.4" y="12.88" width="1.51" height="1.51" fill="#cc1d1d"/>
    <rect x="14.4" y="11.37" width="1.51" height="1.52" fill="#cc1d1d"/>
    <rect x="14.4" y="9.85" width="1.51" height="1.51" fill="#ef5454"/>
    <rect x="14.4" y="8.34" width="1.51" height="1.52" fill="#fff"/>
    <rect x="12.88" y="41.66" width="1.52" height="1.52" fill="#fff"/>
    <rect x="12.88" y="40.15" width="1.52" height="1.51" fill="#aa0707"/>
    <rect x="12.88" y="38.63" width="1.52" height="1.52" fill="#cc1d1d"/>
    <rect x="12.88" y="37.12" width="1.52" height="1.51" fill="#cc1d1d"/>
    <rect x="12.88" y="35.6" width="1.52" height="1.51" fill="#cc1d1d"/>
    <rect x="12.88" y="34.09" width="1.52" height="1.52" fill="#cc1d1d"/>
    <rect x="12.88" y="32.57" width="1.52" height="1.51" fill="#cc1d1d"/>
    <rect x="12.88" y="31.06" width="1.52" height="1.52" fill="#ef5454"/>
    <rect x="12.88" y="29.54" width="1.52" height="1.51" fill="#fff"/>
    <rect x="12.88" y="18.94" width="1.52" height="1.51" fill="#fff"/>
    <rect x="12.88" y="17.43" width="1.52" height="1.52" fill="#aa0707"/>
    <rect x="12.88" y="15.91" width="1.52" height="1.51" fill="#cc1d1d"/>
    <rect x="12.88" y="14.4" width="1.52" height="1.52" fill="#cc1d1d"/>
    <rect x="12.88" y="12.88" width="1.52" height="1.51" fill="#cc1d1d"/>
    <rect x="12.88" y="11.37" width="1.52" height="1.52" fill="#cc1d1d"/>
    <rect x="12.88" y="9.85" width="1.52" height="1.51" fill="#cc1d1d"/>
    <rect x="12.88" y="8.34" width="1.52" height="1.52" fill="#ef5454"/>
    <rect x="12.88" y="6.82" width="1.52" height="1.51" fill="#fff"/>
    <rect x="11.37" y="43.18" width="1.51" height="1.51" fill="#fff"/>
    <rect x="11.37" y="41.66" width="1.51" height="1.52" fill="#aa0707"/>
    <rect x="11.37" y="40.15" width="1.51" height="1.51" fill="#cc1d1d"/>
    <rect x="11.37" y="38.63" width="1.51" height="1.52" fill="#cc1d1d"/>
    <rect x="11.37" y="37.12" width="1.51" height="1.51" fill="#cc1d1d"/>
    <rect x="11.37" y="35.6" width="1.51" height="1.51" fill="#cc1d1d"/>
    <rect x="11.37" y="34.09" width="1.51" height="1.52" fill="#cc1d1d"/>
    <rect x="11.37" y="32.57" width="1.51" height="1.51" fill="#ef5454"/>
    <rect x="11.37" y="31.06" width="1.51" height="1.52" fill="#fff"/>
    <rect x="11.37" y="17.43" width="1.51" height="1.52" fill="#fff"/>
    <rect x="11.37" y="15.91" width="1.51" height="1.51" fill="#aa0707"/>
    <rect x="11.37" y="14.4" width="1.51" height="1.52" fill="#cc1d1d"/>
    <rect x="11.37" y="12.88" width="1.51" height="1.51" fill="#cc1d1d"/>
    <rect x="11.37" y="11.37" width="1.51" height="1.52" fill="#cc1d1d"/>
    <rect x="11.37" y="9.85" width="1.51" height="1.51" fill="#cc1d1d"/>
    <rect x="11.37" y="8.34" width="1.51" height="1.52" fill="#cc1d1d"/>
    <rect x="11.37" y="6.82" width="1.51" height="1.51" fill="#ef5454"/>
    <rect x="11.37" y="5.31" width="1.51" height="1.52" fill="#fff"/>
    <rect x="9.85" y="44.69" width="1.52" height="1.52" fill="#fff"/>
    <rect x="9.85" y="43.18" width="1.52" height="1.51" fill="#aa0707"/>
    <rect x="9.85" y="41.66" width="1.52" height="1.52" fill="#cc1d1d"/>
    <rect x="9.85" y="40.15" width="1.52" height="1.51" fill="#cc1d1d"/>
    <rect x="9.85" y="38.63" width="1.52" height="1.52" fill="#cc1d1d"/>
    <rect x="9.85" y="37.12" width="1.52" height="1.51" fill="#cc1d1d"/>
    <rect x="9.85" y="35.6" width="1.52" height="1.51" fill="#cc1d1d"/>
    <rect x="9.85" y="34.09" width="1.52" height="1.52" fill="#ef5454"/>
    <rect x="9.85" y="32.57" width="1.52" height="1.51" fill="#fff"/>
    <rect x="9.85" y="15.91" width="1.52" height="1.51" fill="#fff"/>
    <rect x="9.85" y="14.4" width="1.52" height="1.52" fill="#aa0707"/>
    <rect x="9.85" y="12.88" width="1.52" height="1.51" fill="#cc1d1d"/>
    <rect x="9.85" y="11.37" width="1.52" height="1.52" fill="#cc1d1d"/>
    <rect x="9.85" y="9.85" width="1.52" height="1.51" fill="#cc1d1d"/>
    <rect x="9.85" y="8.34" width="1.52" height="1.52" fill="#cc1d1d"/>
    <rect x="9.85" y="6.82" width="1.52" height="1.51" fill="#cc1d1d"/>
    <rect x="9.85" y="5.31" width="1.52" height="1.52" fill="#ef5454"/>
    <rect x="9.85" y="3.8" width="1.52" height="1.51" fill="#fff"/>
    <rect x="8.34" y="46.21" width="1.51" height="1.51" fill="#fff"/>
    <rect x="8.34" y="44.69" width="1.51" height="1.52" fill="#aa0707"/>
    <rect x="8.34" y="43.18" width="1.51" height="1.51" fill="#cc1d1d"/>
    <rect x="8.34" y="41.66" width="1.51" height="1.52" fill="#cc1d1d"/>
    <rect x="8.34" y="40.15" width="1.51" height="1.51" fill="#cc1d1d"/>
    <rect x="8.34" y="38.63" width="1.51" height="1.52" fill="#cc1d1d"/>
    <rect x="8.34" y="37.12" width="1.51" height="1.51" fill="#cc1d1d"/>
    <rect x="8.34" y="35.6" width="1.51" height="1.51" fill="#ef5454"/>
    <rect x="8.34" y="34.09" width="1.51" height="1.52" fill="#fff"/>
    <rect x="8.34" y="14.4" width="1.51" height="1.52" fill="#fff"/>
    <rect x="8.34" y="12.88" width="1.51" height="1.51" fill="#aa0707"/>
    <rect x="8.34" y="11.37" width="1.51" height="1.52" fill="#cc1d1d"/>
    <rect x="8.34" y="9.85" width="1.51" height="1.51" fill="#cc1d1d"/>
    <rect x="8.34" y="8.34" width="1.51" height="1.52" fill="#cc1d1d"/>
    <rect x="8.34" y="6.82" width="1.51" height="1.51" fill="#cc1d1d"/>
    <rect x="8.34" y="5.31" width="1.51" height="1.52" fill="#cc1d1d"/>
    <rect x="8.34" y="3.8" width="1.51" height="1.51" fill="#ef5454"/>
    <rect x="8.34" y="2.28" width="1.51" height="1.51" fill="#fff"/>
    <rect x="6.82" y="46.21" width="1.52" height="1.51" fill="#fff"/>
    <rect x="6.82" y="44.69" width="1.52" height="1.52" fill="#aa0707"/>
    <rect x="6.82" y="43.18" width="1.52" height="1.51" fill="#cc1d1d"/>
    <rect x="6.82" y="41.66" width="1.52" height="1.52" fill="#cc1d1d"/>
    <rect x="6.82" y="40.15" width="1.52" height="1.51" fill="#cc1d1d"/>
    <rect x="6.82" y="38.63" width="1.52" height="1.52" fill="#cc1d1d"/>
    <rect x="6.82" y="37.12" width="1.52" height="1.51" fill="#ef5454"/>
    <rect x="6.82" y="35.6" width="1.52" height="1.51" fill="#fff"/>
    <rect x="6.82" y="12.88" width="1.52" height="1.51" fill="#fff"/>
    <rect x="6.82" y="11.37" width="1.52" height="1.52" fill="#aa0707"/>
    <rect x="6.82" y="9.85" width="1.52" height="1.51" fill="#cc1d1d"/>
    <rect x="6.82" y="8.34" width="1.52" height="1.52" fill="#cc1d1d"/>
    <rect x="6.82" y="6.82" width="1.52" height="1.51" fill="#cc1d1d"/>
    <rect x="6.82" y="5.31" width="1.52" height="1.52" fill="#cc1d1d"/>
    <rect x="6.82" y="3.8" width="1.52" height="1.51" fill="#ef5454"/>
    <rect x="6.82" y="2.28" width="1.52" height="1.51" fill="#fff"/>
    <rect x="5.31" y="44.69" width="1.51" height="1.52" fill="#fff"/>
    <rect x="5.31" y="43.18" width="1.51" height="1.51" fill="#aa0707"/>
    <rect x="5.31" y="41.66" width="1.51" height="1.52" fill="#cc1d1d"/>
    <rect x="5.31" y="40.15" width="1.51" height="1.51" fill="#cc1d1d"/>
    <rect x="5.31" y="38.63" width="1.51" height="1.52" fill="#ef5454"/>
    <rect x="5.31" y="37.12" width="1.51" height="1.51" fill="#fff"/>
    <rect x="5.31" y="11.37" width="1.51" height="1.52" fill="#fff"/>
    <rect x="5.31" y="9.85" width="1.51" height="1.51" fill="#aa0707"/>
    <rect x="5.31" y="8.34" width="1.51" height="1.52" fill="#cc1d1d"/>
    <rect x="5.31" y="6.82" width="1.51" height="1.51" fill="#cc1d1d"/>
    <rect x="5.31" y="5.31" width="1.51" height="1.52" fill="#ef5454"/>
    <rect x="5.31" y="3.8" width="1.51" height="1.51" fill="#fff"/>
    <rect x="3.79" y="43.18" width="1.52" height="1.51" fill="#fff"/>
    <rect x="3.79" y="41.66" width="1.52" height="1.52" fill="#aa0707"/>
    <rect x="3.79" y="40.15" width="1.52" height="1.51" fill="#ef5454"/>
    <rect x="3.79" y="38.63" width="1.52" height="1.52" fill="#fff"/>
    <rect x="3.79" y="9.85" width="1.52" height="1.51" fill="#fff"/>
    <rect x="3.79" y="8.34" width="1.52" height="1.52" fill="#aa0707"/>
    <rect x="3.79" y="6.82" width="1.52" height="1.51" fill="#ef5454"/>
    <rect x="3.79" y="5.31" width="1.52" height="1.52" fill="#fff"/>
    <rect x="2.28" y="41.66" width="1.51" height="1.52" fill="#fff"/>
    <rect x="2.28" y="40.15" width="1.51" height="1.51" fill="#fff"/>
    <rect x="2.28" y="8.34" width="1.51" height="1.52" fill="#fff"/>
    <rect x="2.28" y="6.82" width="1.51" height="1.51" fill="#fff"/>
  </g>
</svg>
