<svg id="Capa_1" data-name="Capa 1" xmlns="http://www.w3.org/2000/svg" xmlns:xlink="http://www.w3.org/1999/xlink" width="50" height="50" viewBox="0 0 50 50">
  <defs>
    <clipPath id="clip-path">
      <polygon points="24.04 49.76 1.25 39.47 1.41 9.17 24.2 19.46 24.04 49.76" fill="none"/>
    </clipPath>
    <clipPath id="clip-path-2">
      <polygon points="24.2 19.46 1.41 9.17 25.95 0.24 48.74 10.53 24.2 19.46" fill="none"/>
    </clipPath>
    <clipPath id="clip-path-3">
      <polygon points="48.74 10.53 48.58 40.82 24.04 49.76 24.2 19.46 48.74 10.53" fill="none"/>
    </clipPath>
  </defs>
  <g id="Figment_lido">
    <g style="isolation: isolate">
      <g>
        <polygon points="24.04 49.76 1.25 39.47 1.41 9.17 24.2 19.46 24.04 49.76" fill="#d6d6d6"/>
        <g style="isolation: isolate">
          <g clip-path="url(#clip-path)">
            <g>
              <polyline points="10.02 26.55 8.81 33.72 10.22 40.62 11.51 34.01 10.02 26.55" fill="#5065ba"/>
              <polyline points="7.07 25.18 3.58 23.61 6.68 39.15 10.24 40.75 10.22 40.62 8.81 33.72 7.07 25.18" fill="#6a7adb"/>
              <polyline points="13.52 28.12 10.02 26.55 11.51 34.01 13.13 42.09 13.42 42.22 15.02 35.5 13.52 28.12" fill="#6a7adb"/>
              <path d="M15,35.43l0,.07-1.6,6.72v0l4,1.81L15,35.43m2.51-10.5h0l-2,8.53L18,41.57l2.75-14-3.15-2.67" fill="#6a7adb"/>
              <polyline points="20.5 20.5 16.5 24.07 17.55 24.93 20.92 27.7 21.89 28.5 20.5 20.5" fill="#6a7adb"/>
              <polyline points="15.5 33.41 15.02 35.36 15.04 35.43 17.47 44.05 17.96 41.61 17.95 41.57 15.51 33.45 15.5 33.41" fill="#5065ba"/>
            </g>
          </g>
        </g>
      </g>
      <g>
        <polygon points="24.2 19.46 1.41 9.17 25.95 0.24 48.74 10.53 24.2 19.46" fill="#ebebeb"/>
        <g style="isolation: isolate">
          <g clip-path="url(#clip-path-2)">
            <g>
              <polyline points="20.84 10.37 25.2 13.4 31.37 14.9 27.49 12.01 20.84 10.37" fill="#5065ba"/>
              <polyline points="17.55 11.54 13.71 12.94 27.56 16.36 31.48 14.93 31.37 14.9 25.2 13.4 17.55 11.54" fill="#6a7adb"/>
              <polyline points="24.69 8.97 20.84 10.37 27.49 12.01 34.7 13.79 35.02 13.68 31.3 10.58 24.69 8.97" fill="#6a7adb"/>
              <path d="M31.26,10.55l0,0L35,13.68h0l4.46-1.62-8.23-1.51M25.45,5.7h0l4.73,3.93L38,11,29.85,4.86l-4.4.84" fill="#6a7adb"/>
              <polyline points="24.46 2.62 24.01 6 25.45 5.7 30.1 4.77 31.44 4.5 24.46 2.62" fill="#6a7adb"/>
              <polyline points="30.13 9.63 31.19 10.54 31.26 10.55 39.49 12.06 38.08 10.98 38.04 10.97 30.16 9.64 30.13 9.63" fill="#5065ba"/>
            </g>
          </g>
        </g>
      </g>
      <g>
        <polygon points="48.74 10.53 48.58 40.82 24.04 49.76 24.2 19.46 48.74 10.53" fill="#f0f0f0"/>
        <g style="isolation: isolate">
          <g clip-path="url(#clip-path-3)">
            <g>
              <polyline points="33.41 29.53 32.07 37.7 33.61 43.38 35.05 35.69 33.41 29.53" fill="#5065ba"/>
              <polyline points="30.16 30.66 26.32 32.06 29.71 44.91 33.64 43.48 33.61 43.38 32.07 37.7 30.16 30.66" fill="#6a7adb"/>
              <polyline points="37.27 28.13 33.41 29.53 35.05 35.69 36.82 42.38 37.14 42.26 38.91 34.21 37.27 28.13" fill="#6a7adb"/>
              <path d="M38.93,34.12l0,.09-1.77,8v0l4.46-1.63-2.67-6.53m2.79-12.59h0L39.45,31.75l2.69,6,3-16.24H41.72" fill="#6a7adb"/>
              <polyline points="44.97 14.62 40.56 21.57 41.72 21.53 45.43 21.44 46.5 21.41 44.97 14.62" fill="#6a7adb"/>
              <polyline points="39.44 31.73 38.91 34.07 38.93 34.12 41.6 40.65 42.15 37.8 42.14 37.77 39.45 31.75 39.44 31.73" fill="#5065ba"/>
            </g>
          </g>
        </g>
      </g>
    </g>
  </g>
</svg>
