<svg id="Capa_1" data-name="Capa 1" xmlns="http://www.w3.org/2000/svg" xmlns:xlink="http://www.w3.org/1999/xlink" width="50" height="50" viewBox="0 0 50 50">
  <defs>
    <clipPath id="clip-path">
      <polygon points="24.04 49.76 1.26 39.47 1.42 9.18 24.2 19.46 24.04 49.76" fill="none"/>
    </clipPath>
    <clipPath id="clip-path-2">
      <polygon points="24.2 19.46 1.42 9.18 25.96 0.24 48.75 10.53 24.2 19.46" fill="none"/>
    </clipPath>
    <clipPath id="clip-path-3">
      <polygon points="48.75 10.53 48.59 40.83 24.04 49.76 24.2 19.46 48.75 10.53" fill="none"/>
    </clipPath>
  </defs>
  <g id="Figment_lido">
    <g style="isolation: isolate">
      <g>
        <polygon points="24.04 49.76 1.26 39.47 1.42 9.18 24.2 19.46 24.04 49.76" fill="#126468"/>
        <g style="isolation: isolate">
          <g clip-path="url(#clip-path)">
            <g>
              <path d="M15.84,30.91l-3.31,3-3.27-6,3.31-3,3.27,5.95m-9.75-4.4L12.5,38.22,19,32.35,12.6,20.64,6.09,26.51" fill="#fff" opacity="0.8"/>
              <polyline points="4.91 33.41 6.75 36.77 8.62 35.09 6.78 31.73 4.91 33.41" fill="#fff" opacity="0.8"/>
              <polyline points="4.99 18.06 6.83 21.42 8.7 19.73 6.86 16.38 4.99 18.06" fill="#fff" opacity="0.8"/>
              <polyline points="16.29 38.43 18.13 41.79 20 40.11 18.15 36.75 16.29 38.43" fill="#fff" opacity="0.8"/>
              <polyline points="16.37 23.08 18.21 26.44 20.09 24.76 18.23 21.38 16.37 23.08" fill="#fff" opacity="0.8"/>
            </g>
          </g>
        </g>
      </g>
      <g>
        <polygon points="24.2 19.46 1.42 9.18 25.96 0.24 48.75 10.53 24.2 19.46" fill="#136e72"/>
        <g style="isolation: isolate">
          <g clip-path="url(#clip-path-2)">
            <g>
              <path d="M27.9,11.39l-6.78-.16.33-2.75,6.77.16-.32,2.75M18.33,7.07l-.64,5.41L31,12.8l.65-5.41L18.33,7.07" fill="#fff" opacity="0.8"/>
              <polyline points="11.32 8.71 11.13 10.27 14.96 10.36 15.14 8.81 11.32 8.71" fill="#fff" opacity="0.8"/>
              <polyline points="23.52 4.27 23.34 5.83 27.16 5.92 27.34 4.37 23.52 4.27" fill="#fff" opacity="0.8"/>
              <polyline points="22.57 13.72 22.39 15.27 26.22 15.37 26.39 13.81 22.57 13.72" fill="#fff" opacity="0.8"/>
              <polyline points="34.77 9.28 34.59 10.83 38.42 10.93 38.61 9.37 34.77 9.28" fill="#fff" opacity="0.8"/>
            </g>
          </g>
        </g>
      </g>
      <g>
        <polygon points="48.75 10.53 48.59 40.83 24.04 49.76 24.2 19.46 48.75 10.53" fill="#147075"/>
        <g style="isolation: isolate">
          <g clip-path="url(#clip-path-3)">
            <g>
              <path d="M36.26,35.09l-3.6-3.15,3.65-5.78,3.59,3.15-3.64,5.78m.07-13.25L29.16,33.22l7.08,6.19L43.4,28l-7.07-6.19" fill="#fff" opacity="0.8"/>
              <polyline points="30.33 22.48 28.27 25.74 30.3 27.52 32.36 24.26 30.33 22.48" fill="#fff" opacity="0.8"/>
              <polyline points="42.76 17.95 40.71 21.22 42.74 23 44.79 19.73 42.76 17.95" fill="#fff" opacity="0.8"/>
              <polyline points="30.34 37.91 28.29 41.17 30.32 42.96 32.37 39.68 30.34 37.91" fill="#fff" opacity="0.8"/>
              <polyline points="42.78 33.38 40.72 36.65 42.75 38.44 44.82 35.15 42.78 33.38" fill="#fff" opacity="0.8"/>
            </g>
          </g>
        </g>
      </g>
    </g>
  </g>
  <g>
    <rect x="46.2" y="41.66" width="1.52" height="1.51" fill="#fff"/>
    <rect x="46.2" y="40.15" width="1.52" height="1.52" fill="#fff"/>
    <rect x="46.2" y="8.34" width="1.52" height="1.51" fill="#fff"/>
    <rect x="46.2" y="6.82" width="1.52" height="1.52" fill="#fff"/>
    <rect x="44.69" y="43.18" width="1.51" height="1.52" fill="#fff"/>
    <rect x="44.69" y="41.66" width="1.51" height="1.51" fill="#ef5454"/>
    <rect x="44.69" y="40.15" width="1.51" height="1.52" fill="#ef5454"/>
    <rect x="44.69" y="38.63" width="1.51" height="1.51" fill="#fff"/>
    <rect x="44.69" y="9.85" width="1.51" height="1.52" fill="#fff"/>
    <rect x="44.69" y="8.34" width="1.51" height="1.51" fill="#aa0707"/>
    <rect x="44.69" y="6.82" width="1.51" height="1.52" fill="#ef5454"/>
    <rect x="44.69" y="5.31" width="1.51" height="1.51" fill="#fff"/>
    <rect x="43.18" y="44.69" width="1.51" height="1.51" fill="#fff"/>
    <rect x="43.18" y="43.18" width="1.51" height="1.52" fill="#aa0707"/>
    <rect x="43.18" y="41.66" width="1.51" height="1.51" fill="#cc1d1d"/>
    <rect x="43.18" y="40.15" width="1.51" height="1.52" fill="#cc1d1d"/>
    <rect x="43.18" y="38.63" width="1.51" height="1.51" fill="#ef5454"/>
    <rect x="43.18" y="37.12" width="1.51" height="1.52" fill="#fff"/>
    <rect x="43.18" y="11.37" width="1.51" height="1.51" fill="#fff"/>
    <rect x="43.18" y="9.85" width="1.51" height="1.52" fill="#aa0707"/>
    <rect x="43.18" y="8.34" width="1.51" height="1.51" fill="#cc1d1d"/>
    <rect x="43.18" y="6.82" width="1.51" height="1.52" fill="#cc1d1d"/>
    <rect x="43.18" y="5.31" width="1.51" height="1.51" fill="#ef5454"/>
    <rect x="43.18" y="3.79" width="1.51" height="1.52" fill="#fff"/>
    <rect x="41.66" y="46.2" width="1.52" height="1.52" fill="#fff"/>
    <rect x="41.66" y="44.69" width="1.52" height="1.51" fill="#aa0707"/>
    <rect x="41.66" y="43.18" width="1.52" height="1.52" fill="#cc1d1d"/>
    <rect x="41.66" y="41.66" width="1.52" height="1.51" fill="#cc1d1d"/>
    <rect x="41.66" y="40.15" width="1.52" height="1.52" fill="#cc1d1d"/>
    <rect x="41.66" y="38.63" width="1.52" height="1.51" fill="#cc1d1d"/>
    <rect x="41.66" y="37.12" width="1.52" height="1.52" fill="#ef5454"/>
    <rect x="41.66" y="35.6" width="1.52" height="1.51" fill="#fff"/>
    <rect x="41.66" y="12.88" width="1.52" height="1.51" fill="#fff"/>
    <rect x="41.66" y="11.37" width="1.52" height="1.51" fill="#aa0707"/>
    <rect x="41.66" y="9.85" width="1.52" height="1.52" fill="#cc1d1d"/>
    <rect x="41.66" y="8.34" width="1.52" height="1.51" fill="#cc1d1d"/>
    <rect x="41.66" y="6.82" width="1.52" height="1.52" fill="#cc1d1d"/>
    <rect x="41.66" y="5.31" width="1.52" height="1.51" fill="#cc1d1d"/>
    <rect x="41.66" y="3.79" width="1.52" height="1.52" fill="#ef5454"/>
    <rect x="41.66" y="2.28" width="1.52" height="1.51" fill="#fff"/>
    <rect x="40.15" y="46.2" width="1.51" height="1.52" fill="#fff"/>
    <rect x="40.15" y="44.69" width="1.51" height="1.51" fill="#aa0707"/>
    <rect x="40.15" y="43.18" width="1.51" height="1.52" fill="#cc1d1d"/>
    <rect x="40.15" y="41.66" width="1.51" height="1.51" fill="#cc1d1d"/>
    <rect x="40.15" y="40.15" width="1.51" height="1.52" fill="#cc1d1d"/>
    <rect x="40.15" y="38.63" width="1.51" height="1.51" fill="#cc1d1d"/>
    <rect x="40.15" y="37.12" width="1.51" height="1.52" fill="#cc1d1d"/>
    <rect x="40.15" y="35.6" width="1.51" height="1.51" fill="#ef5454"/>
    <rect x="40.15" y="34.09" width="1.51" height="1.52" fill="#fff"/>
    <rect x="40.15" y="14.4" width="1.51" height="1.52" fill="#fff"/>
    <rect x="40.15" y="12.88" width="1.51" height="1.51" fill="#aa0707"/>
    <rect x="40.15" y="11.37" width="1.51" height="1.51" fill="#cc1d1d"/>
    <rect x="40.15" y="9.85" width="1.51" height="1.52" fill="#cc1d1d"/>
    <rect x="40.15" y="8.34" width="1.51" height="1.51" fill="#cc1d1d"/>
    <rect x="40.15" y="6.82" width="1.51" height="1.52" fill="#cc1d1d"/>
    <rect x="40.15" y="5.31" width="1.51" height="1.51" fill="#cc1d1d"/>
    <rect x="40.15" y="3.79" width="1.51" height="1.52" fill="#ef5454"/>
    <rect x="40.15" y="2.28" width="1.51" height="1.51" fill="#fff"/>
    <rect x="38.63" y="44.69" width="1.52" height="1.51" fill="#fff"/>
    <rect x="38.63" y="43.18" width="1.52" height="1.52" fill="#aa0707"/>
    <rect x="38.63" y="41.66" width="1.52" height="1.51" fill="#cc1d1d"/>
    <rect x="38.63" y="40.15" width="1.52" height="1.52" fill="#cc1d1d"/>
    <rect x="38.63" y="38.63" width="1.52" height="1.51" fill="#cc1d1d"/>
    <rect x="38.63" y="37.12" width="1.52" height="1.52" fill="#cc1d1d"/>
    <rect x="38.63" y="35.6" width="1.52" height="1.51" fill="#cc1d1d"/>
    <rect x="38.63" y="34.09" width="1.52" height="1.52" fill="#ef5454"/>
    <rect x="38.63" y="32.57" width="1.52" height="1.51" fill="#fff"/>
    <rect x="38.63" y="15.91" width="1.52" height="1.51" fill="#fff"/>
    <rect x="38.63" y="14.4" width="1.52" height="1.52" fill="#aa0707"/>
    <rect x="38.63" y="12.88" width="1.52" height="1.51" fill="#cc1d1d"/>
    <rect x="38.63" y="11.37" width="1.52" height="1.51" fill="#cc1d1d"/>
    <rect x="38.63" y="9.85" width="1.52" height="1.52" fill="#cc1d1d"/>
    <rect x="38.63" y="8.34" width="1.52" height="1.51" fill="#cc1d1d"/>
    <rect x="38.63" y="6.82" width="1.52" height="1.52" fill="#cc1d1d"/>
    <rect x="38.63" y="5.31" width="1.52" height="1.51" fill="#ef5454"/>
    <rect x="38.63" y="3.79" width="1.52" height="1.52" fill="#fff"/>
    <rect x="37.12" y="43.18" width="1.51" height="1.52" fill="#fff"/>
    <rect x="37.12" y="41.66" width="1.51" height="1.51" fill="#aa0707"/>
    <rect x="37.12" y="40.15" width="1.51" height="1.52" fill="#cc1d1d"/>
    <rect x="37.12" y="38.63" width="1.51" height="1.51" fill="#cc1d1d"/>
    <rect x="37.12" y="37.12" width="1.51" height="1.52" fill="#cc1d1d"/>
    <rect x="37.12" y="35.6" width="1.51" height="1.51" fill="#cc1d1d"/>
    <rect x="37.12" y="34.09" width="1.51" height="1.52" fill="#cc1d1d"/>
    <rect x="37.12" y="32.57" width="1.51" height="1.51" fill="#ef5454"/>
    <rect x="37.12" y="31.06" width="1.51" height="1.51" fill="#fff"/>
    <rect x="37.12" y="17.43" width="1.51" height="1.52" fill="#fff"/>
    <rect x="37.12" y="15.91" width="1.51" height="1.51" fill="#aa0707"/>
    <rect x="37.12" y="14.4" width="1.51" height="1.52" fill="#cc1d1d"/>
    <rect x="37.12" y="12.88" width="1.51" height="1.51" fill="#cc1d1d"/>
    <rect x="37.12" y="11.37" width="1.51" height="1.51" fill="#cc1d1d"/>
    <rect x="37.12" y="9.85" width="1.51" height="1.52" fill="#cc1d1d"/>
    <rect x="37.12" y="8.34" width="1.51" height="1.51" fill="#cc1d1d"/>
    <rect x="37.12" y="6.82" width="1.51" height="1.52" fill="#ef5454"/>
    <rect x="37.12" y="5.31" width="1.51" height="1.51" fill="#fff"/>
    <rect x="35.6" y="41.66" width="1.52" height="1.51" fill="#fff"/>
    <rect x="35.6" y="40.15" width="1.52" height="1.52" fill="#aa0707"/>
    <rect x="35.6" y="38.63" width="1.52" height="1.51" fill="#cc1d1d"/>
    <rect x="35.6" y="37.12" width="1.52" height="1.52" fill="#cc1d1d"/>
    <rect x="35.6" y="35.6" width="1.52" height="1.51" fill="#cc1d1d"/>
    <rect x="35.6" y="34.09" width="1.52" height="1.52" fill="#cc1d1d"/>
    <rect x="35.6" y="32.57" width="1.52" height="1.51" fill="#cc1d1d"/>
    <rect x="35.6" y="31.06" width="1.52" height="1.51" fill="#ef5454"/>
    <rect x="35.6" y="29.54" width="1.52" height="1.52" fill="#fff"/>
    <rect x="35.6" y="18.94" width="1.52" height="1.51" fill="#fff"/>
    <rect x="35.6" y="17.43" width="1.52" height="1.52" fill="#aa0707"/>
    <rect x="35.6" y="15.91" width="1.52" height="1.51" fill="#cc1d1d"/>
    <rect x="35.6" y="14.4" width="1.52" height="1.52" fill="#cc1d1d"/>
    <rect x="35.6" y="12.88" width="1.52" height="1.51" fill="#cc1d1d"/>
    <rect x="35.6" y="11.37" width="1.52" height="1.51" fill="#cc1d1d"/>
    <rect x="35.6" y="9.85" width="1.52" height="1.52" fill="#cc1d1d"/>
    <rect x="35.6" y="8.34" width="1.52" height="1.51" fill="#ef5454"/>
    <rect x="35.6" y="6.82" width="1.52" height="1.52" fill="#fff"/>
    <rect x="34.09" y="40.15" width="1.51" height="1.52" fill="#fff"/>
    <rect x="34.09" y="38.63" width="1.51" height="1.51" fill="#aa0707"/>
    <rect x="34.09" y="37.12" width="1.51" height="1.52" fill="#cc1d1d"/>
    <rect x="34.09" y="35.6" width="1.51" height="1.51" fill="#cc1d1d"/>
    <rect x="34.09" y="34.09" width="1.51" height="1.52" fill="#cc1d1d"/>
    <rect x="34.09" y="32.57" width="1.51" height="1.51" fill="#cc1d1d"/>
    <rect x="34.09" y="31.06" width="1.51" height="1.51" fill="#cc1d1d"/>
    <rect x="34.09" y="29.54" width="1.51" height="1.52" fill="#ef5454"/>
    <rect x="34.09" y="28.03" width="1.51" height="1.51" fill="#fff"/>
    <rect x="34.09" y="20.46" width="1.51" height="1.52" fill="#fff"/>
    <rect x="34.09" y="18.94" width="1.51" height="1.51" fill="#aa0707"/>
    <rect x="34.09" y="17.43" width="1.51" height="1.52" fill="#cc1d1d"/>
    <rect x="34.09" y="15.91" width="1.51" height="1.51" fill="#cc1d1d"/>
    <rect x="34.09" y="14.4" width="1.51" height="1.52" fill="#cc1d1d"/>
    <rect x="34.09" y="12.88" width="1.51" height="1.51" fill="#cc1d1d"/>
    <rect x="34.09" y="11.37" width="1.51" height="1.51" fill="#cc1d1d"/>
    <rect x="34.09" y="9.85" width="1.51" height="1.52" fill="#ef5454"/>
    <rect x="34.09" y="8.34" width="1.51" height="1.51" fill="#fff"/>
    <rect x="32.57" y="38.63" width="1.52" height="1.51" fill="#fff"/>
    <rect x="32.57" y="37.12" width="1.52" height="1.52" fill="#aa0707"/>
    <rect x="32.57" y="35.6" width="1.52" height="1.51" fill="#cc1d1d"/>
    <rect x="32.57" y="34.09" width="1.52" height="1.52" fill="#cc1d1d"/>
    <rect x="32.57" y="32.57" width="1.52" height="1.51" fill="#cc1d1d"/>
    <rect x="32.57" y="31.06" width="1.52" height="1.51" fill="#cc1d1d"/>
    <rect x="32.57" y="29.54" width="1.52" height="1.52" fill="#cc1d1d"/>
    <rect x="32.57" y="28.03" width="1.52" height="1.51" fill="#ef5454"/>
    <rect x="32.57" y="26.51" width="1.52" height="1.52" fill="#fff"/>
    <rect x="32.57" y="21.97" width="1.52" height="1.51" fill="#fff"/>
    <rect x="32.57" y="20.46" width="1.52" height="1.52" fill="#aa0707"/>
    <rect x="32.57" y="18.94" width="1.52" height="1.51" fill="#cc1d1d"/>
    <rect x="32.57" y="17.43" width="1.52" height="1.52" fill="#cc1d1d"/>
    <rect x="32.57" y="15.91" width="1.52" height="1.51" fill="#cc1d1d"/>
    <rect x="32.57" y="14.4" width="1.52" height="1.52" fill="#cc1d1d"/>
    <rect x="32.57" y="12.88" width="1.52" height="1.51" fill="#cc1d1d"/>
    <rect x="32.57" y="11.37" width="1.52" height="1.51" fill="#ef5454"/>
    <rect x="32.57" y="9.85" width="1.52" height="1.52" fill="#fff"/>
    <rect x="31.06" y="37.12" width="1.51" height="1.52" fill="#fff"/>
    <rect x="31.06" y="35.6" width="1.51" height="1.51" fill="#aa0707"/>
    <rect x="31.06" y="34.09" width="1.51" height="1.52" fill="#cc1d1d"/>
    <rect x="31.06" y="32.57" width="1.51" height="1.51" fill="#cc1d1d"/>
    <rect x="31.06" y="31.06" width="1.51" height="1.51" fill="#cc1d1d"/>
    <rect x="31.06" y="29.54" width="1.51" height="1.52" fill="#cc1d1d"/>
    <rect x="31.06" y="28.03" width="1.51" height="1.51" fill="#cc1d1d"/>
    <rect x="31.06" y="26.51" width="1.51" height="1.52" fill="#ef5454"/>
    <rect x="31.06" y="25" width="1.51" height="1.51" fill="#fff"/>
    <rect x="31.06" y="23.49" width="1.51" height="1.52" fill="#fff"/>
    <rect x="31.06" y="21.97" width="1.51" height="1.51" fill="#aa0707"/>
    <rect x="31.06" y="20.46" width="1.51" height="1.52" fill="#cc1d1d"/>
    <rect x="31.06" y="18.94" width="1.51" height="1.51" fill="#cc1d1d"/>
    <rect x="31.06" y="17.43" width="1.51" height="1.52" fill="#cc1d1d"/>
    <rect x="31.06" y="15.91" width="1.51" height="1.51" fill="#cc1d1d"/>
    <rect x="31.06" y="14.4" width="1.51" height="1.52" fill="#cc1d1d"/>
    <rect x="31.06" y="12.88" width="1.51" height="1.51" fill="#ef5454"/>
    <rect x="31.06" y="11.37" width="1.51" height="1.51" fill="#fff"/>
    <rect x="29.54" y="35.6" width="1.52" height="1.51" fill="#fff"/>
    <rect x="29.54" y="34.09" width="1.52" height="1.52" fill="#aa0707"/>
    <rect x="29.54" y="32.57" width="1.52" height="1.51" fill="#cc1d1d"/>
    <rect x="29.54" y="31.06" width="1.52" height="1.51" fill="#cc1d1d"/>
    <rect x="29.54" y="29.54" width="1.52" height="1.52" fill="#cc1d1d"/>
    <rect x="29.54" y="28.03" width="1.52" height="1.51" fill="#cc1d1d"/>
    <rect x="29.54" y="26.51" width="1.52" height="1.52" fill="#cc1d1d"/>
    <rect x="29.54" y="25" width="1.52" height="1.51" fill="#aa0707"/>
    <rect x="29.54" y="23.49" width="1.52" height="1.52" fill="#aa0707"/>
    <rect x="29.54" y="21.97" width="1.52" height="1.51" fill="#cc1d1d"/>
    <rect x="29.54" y="20.46" width="1.52" height="1.52" fill="#cc1d1d"/>
    <rect x="29.54" y="18.94" width="1.52" height="1.51" fill="#cc1d1d"/>
    <rect x="29.54" y="17.43" width="1.52" height="1.52" fill="#cc1d1d"/>
    <rect x="29.54" y="15.91" width="1.52" height="1.51" fill="#cc1d1d"/>
    <rect x="29.54" y="14.4" width="1.52" height="1.52" fill="#ef5454"/>
    <rect x="29.54" y="12.88" width="1.52" height="1.51" fill="#fff"/>
    <rect x="28.03" y="34.09" width="1.51" height="1.52" fill="#fff"/>
    <rect x="28.03" y="32.57" width="1.51" height="1.51" fill="#aa0707"/>
    <rect x="28.03" y="31.06" width="1.51" height="1.51" fill="#cc1d1d"/>
    <rect x="28.03" y="29.54" width="1.51" height="1.52" fill="#cc1d1d"/>
    <rect x="28.03" y="28.03" width="1.51" height="1.51" fill="#cc1d1d"/>
    <rect x="28.03" y="26.51" width="1.51" height="1.52" fill="#cc1d1d"/>
    <rect x="28.03" y="25" width="1.51" height="1.51" fill="#cc1d1d"/>
    <rect x="28.03" y="23.49" width="1.51" height="1.52" fill="#cc1d1d"/>
    <rect x="28.03" y="21.97" width="1.51" height="1.51" fill="#cc1d1d"/>
    <rect x="28.03" y="20.46" width="1.51" height="1.52" fill="#cc1d1d"/>
    <rect x="28.03" y="18.94" width="1.51" height="1.51" fill="#cc1d1d"/>
    <rect x="28.03" y="17.43" width="1.51" height="1.52" fill="#cc1d1d"/>
    <rect x="28.03" y="15.91" width="1.51" height="1.51" fill="#ef5454"/>
    <rect x="28.03" y="14.4" width="1.51" height="1.52" fill="#fff"/>
    <rect x="26.52" y="32.57" width="1.51" height="1.51" fill="#fff"/>
    <rect x="26.52" y="31.06" width="1.51" height="1.51" fill="#aa0707"/>
    <rect x="26.52" y="29.54" width="1.51" height="1.52" fill="#cc1d1d"/>
    <rect x="26.52" y="28.03" width="1.51" height="1.51" fill="#cc1d1d"/>
    <rect x="26.52" y="26.51" width="1.51" height="1.52" fill="#cc1d1d"/>
    <rect x="26.52" y="25" width="1.51" height="1.51" fill="#cc1d1d"/>
    <rect x="26.52" y="23.49" width="1.51" height="1.52" fill="#cc1d1d"/>
    <rect x="26.52" y="21.97" width="1.51" height="1.51" fill="#cc1d1d"/>
    <rect x="26.52" y="20.46" width="1.51" height="1.52" fill="#cc1d1d"/>
    <rect x="26.52" y="18.94" width="1.51" height="1.51" fill="#cc1d1d"/>
    <rect x="26.52" y="17.43" width="1.51" height="1.52" fill="#ef5454"/>
    <rect x="26.52" y="15.91" width="1.51" height="1.51" fill="#fff"/>
    <rect x="25" y="31.06" width="1.52" height="1.51" fill="#fff"/>
    <rect x="25" y="29.54" width="1.52" height="1.52" fill="#aa0707"/>
    <rect x="25" y="28.03" width="1.52" height="1.51" fill="#cc1d1d"/>
    <rect x="25" y="26.51" width="1.52" height="1.52" fill="#cc1d1d"/>
    <rect x="25" y="25" width="1.52" height="1.51" fill="#cc1d1d"/>
    <rect x="25" y="23.49" width="1.52" height="1.52" fill="#cc1d1d"/>
    <rect x="25" y="21.97" width="1.52" height="1.51" fill="#cc1d1d"/>
    <rect x="25" y="20.46" width="1.52" height="1.52" fill="#cc1d1d"/>
    <rect x="25" y="18.94" width="1.52" height="1.51" fill="#ef5454"/>
    <rect x="25" y="17.43" width="1.52" height="1.52" fill="#fff"/>
    <rect x="23.49" y="31.06" width="1.51" height="1.51" fill="#fff"/>
    <rect x="23.49" y="29.54" width="1.51" height="1.52" fill="#aa0707"/>
    <rect x="23.49" y="28.03" width="1.51" height="1.51" fill="#cc1d1d"/>
    <rect x="23.49" y="26.51" width="1.51" height="1.52" fill="#cc1d1d"/>
    <rect x="23.49" y="25" width="1.51" height="1.51" fill="#cc1d1d"/>
    <rect x="23.49" y="23.49" width="1.51" height="1.52" fill="#cc1d1d"/>
    <rect x="23.49" y="21.97" width="1.51" height="1.51" fill="#cc1d1d"/>
    <rect x="23.49" y="20.46" width="1.51" height="1.52" fill="#cc1d1d"/>
    <rect x="23.49" y="18.94" width="1.51" height="1.51" fill="#ef5454"/>
    <rect x="23.49" y="17.43" width="1.51" height="1.52" fill="#fff"/>
    <rect x="21.97" y="32.57" width="1.52" height="1.51" fill="#fff"/>
    <rect x="21.97" y="31.06" width="1.52" height="1.51" fill="#aa0707"/>
    <rect x="21.97" y="29.54" width="1.52" height="1.52" fill="#cc1d1d"/>
    <rect x="21.97" y="28.03" width="1.52" height="1.51" fill="#cc1d1d"/>
    <rect x="21.97" y="26.51" width="1.52" height="1.52" fill="#cc1d1d"/>
    <rect x="21.97" y="25" width="1.52" height="1.51" fill="#cc1d1d"/>
    <rect x="21.97" y="23.49" width="1.52" height="1.52" fill="#cc1d1d"/>
    <rect x="21.97" y="21.97" width="1.52" height="1.51" fill="#cc1d1d"/>
    <rect x="21.97" y="20.46" width="1.52" height="1.52" fill="#cc1d1d"/>
    <rect x="21.97" y="18.94" width="1.52" height="1.51" fill="#cc1d1d"/>
    <rect x="21.97" y="17.43" width="1.52" height="1.52" fill="#ef5454"/>
    <rect x="21.97" y="15.91" width="1.52" height="1.51" fill="#fff"/>
    <rect x="20.46" y="34.09" width="1.51" height="1.52" fill="#fff"/>
    <rect x="20.46" y="32.57" width="1.51" height="1.51" fill="#aa0707"/>
    <rect x="20.46" y="31.06" width="1.51" height="1.51" fill="#cc1d1d"/>
    <rect x="20.46" y="29.54" width="1.51" height="1.52" fill="#cc1d1d"/>
    <rect x="20.46" y="28.03" width="1.51" height="1.51" fill="#cc1d1d"/>
    <rect x="20.46" y="26.51" width="1.51" height="1.52" fill="#cc1d1d"/>
    <rect x="20.46" y="25" width="1.51" height="1.51" fill="#cc1d1d"/>
    <rect x="20.46" y="23.49" width="1.51" height="1.52" fill="#cc1d1d"/>
    <rect x="20.46" y="21.97" width="1.51" height="1.51" fill="#cc1d1d"/>
    <rect x="20.46" y="20.46" width="1.51" height="1.52" fill="#cc1d1d"/>
    <rect x="20.46" y="18.94" width="1.51" height="1.51" fill="#cc1d1d"/>
    <rect x="20.46" y="17.43" width="1.51" height="1.52" fill="#cc1d1d"/>
    <rect x="20.46" y="15.91" width="1.51" height="1.51" fill="#ef5454"/>
    <rect x="20.46" y="14.4" width="1.51" height="1.52" fill="#fff"/>
    <rect x="18.94" y="35.6" width="1.52" height="1.51" fill="#fff"/>
    <rect x="18.94" y="34.09" width="1.52" height="1.52" fill="#aa0707"/>
    <rect x="18.94" y="32.57" width="1.52" height="1.51" fill="#cc1d1d"/>
    <rect x="18.94" y="31.06" width="1.52" height="1.51" fill="#cc1d1d"/>
    <rect x="18.94" y="29.54" width="1.52" height="1.52" fill="#cc1d1d"/>
    <rect x="18.94" y="28.03" width="1.52" height="1.51" fill="#cc1d1d"/>
    <rect x="18.94" y="26.51" width="1.52" height="1.52" fill="#cc1d1d"/>
    <rect x="18.94" y="25" width="1.52" height="1.51" fill="#aa0707"/>
    <rect x="18.94" y="23.49" width="1.52" height="1.52" fill="#aa0707"/>
    <rect x="18.94" y="21.97" width="1.52" height="1.51" fill="#cc1d1d"/>
    <rect x="18.94" y="20.46" width="1.52" height="1.52" fill="#cc1d1d"/>
    <rect x="18.94" y="18.94" width="1.52" height="1.51" fill="#cc1d1d"/>
    <rect x="18.94" y="17.43" width="1.52" height="1.52" fill="#cc1d1d"/>
    <rect x="18.94" y="15.91" width="1.52" height="1.51" fill="#cc1d1d"/>
    <rect x="18.94" y="14.4" width="1.52" height="1.52" fill="#ef5454"/>
    <rect x="18.94" y="12.88" width="1.52" height="1.51" fill="#fff"/>
    <rect x="17.43" y="37.12" width="1.51" height="1.52" fill="#fff"/>
    <rect x="17.43" y="35.6" width="1.51" height="1.51" fill="#aa0707"/>
    <rect x="17.43" y="34.09" width="1.51" height="1.52" fill="#cc1d1d"/>
    <rect x="17.43" y="32.57" width="1.51" height="1.51" fill="#cc1d1d"/>
    <rect x="17.43" y="31.06" width="1.51" height="1.51" fill="#cc1d1d"/>
    <rect x="17.43" y="29.54" width="1.51" height="1.52" fill="#cc1d1d"/>
    <rect x="17.43" y="28.03" width="1.51" height="1.51" fill="#cc1d1d"/>
    <rect x="17.43" y="26.51" width="1.51" height="1.52" fill="#ef5454"/>
    <rect x="17.43" y="25" width="1.51" height="1.51" fill="#fff"/>
    <rect x="17.43" y="23.49" width="1.51" height="1.52" fill="#fff"/>
    <rect x="17.43" y="21.97" width="1.51" height="1.51" fill="#aa0707"/>
    <rect x="17.43" y="20.46" width="1.51" height="1.52" fill="#cc1d1d"/>
    <rect x="17.43" y="18.94" width="1.51" height="1.51" fill="#cc1d1d"/>
    <rect x="17.43" y="17.43" width="1.51" height="1.52" fill="#cc1d1d"/>
    <rect x="17.43" y="15.91" width="1.51" height="1.51" fill="#cc1d1d"/>
    <rect x="17.43" y="14.4" width="1.51" height="1.52" fill="#cc1d1d"/>
    <rect x="17.43" y="12.88" width="1.51" height="1.51" fill="#ef5454"/>
    <rect x="17.43" y="11.37" width="1.51" height="1.51" fill="#fff"/>
    <rect x="15.91" y="38.63" width="1.52" height="1.51" fill="#fff"/>
    <rect x="15.91" y="37.12" width="1.52" height="1.52" fill="#aa0707"/>
    <rect x="15.91" y="35.6" width="1.52" height="1.51" fill="#cc1d1d"/>
    <rect x="15.91" y="34.09" width="1.52" height="1.52" fill="#cc1d1d"/>
    <rect x="15.91" y="32.57" width="1.52" height="1.51" fill="#cc1d1d"/>
    <rect x="15.91" y="31.06" width="1.52" height="1.51" fill="#cc1d1d"/>
    <rect x="15.91" y="29.54" width="1.52" height="1.52" fill="#cc1d1d"/>
    <rect x="15.91" y="28.03" width="1.52" height="1.51" fill="#ef5454"/>
    <rect x="15.91" y="26.51" width="1.52" height="1.52" fill="#fff"/>
    <rect x="15.91" y="21.97" width="1.52" height="1.51" fill="#fff"/>
    <rect x="15.91" y="20.46" width="1.52" height="1.52" fill="#aa0707"/>
    <rect x="15.91" y="18.94" width="1.52" height="1.51" fill="#cc1d1d"/>
    <rect x="15.91" y="17.43" width="1.52" height="1.52" fill="#cc1d1d"/>
    <rect x="15.91" y="15.91" width="1.52" height="1.51" fill="#cc1d1d"/>
    <rect x="15.91" y="14.4" width="1.52" height="1.52" fill="#cc1d1d"/>
    <rect x="15.91" y="12.88" width="1.52" height="1.51" fill="#cc1d1d"/>
    <rect x="15.91" y="11.37" width="1.52" height="1.51" fill="#ef5454"/>
    <rect x="15.91" y="9.85" width="1.52" height="1.52" fill="#fff"/>
    <rect x="14.4" y="40.15" width="1.51" height="1.52" fill="#fff"/>
    <rect x="14.4" y="38.63" width="1.51" height="1.51" fill="#aa0707"/>
    <rect x="14.4" y="37.12" width="1.51" height="1.52" fill="#cc1d1d"/>
    <rect x="14.4" y="35.6" width="1.51" height="1.51" fill="#cc1d1d"/>
    <rect x="14.4" y="34.09" width="1.51" height="1.52" fill="#cc1d1d"/>
    <rect x="14.4" y="32.57" width="1.51" height="1.51" fill="#cc1d1d"/>
    <rect x="14.4" y="31.06" width="1.51" height="1.51" fill="#cc1d1d"/>
    <rect x="14.4" y="29.54" width="1.51" height="1.52" fill="#ef5454"/>
    <rect x="14.4" y="28.03" width="1.51" height="1.51" fill="#fff"/>
    <rect x="14.4" y="20.46" width="1.51" height="1.52" fill="#fff"/>
    <rect x="14.4" y="18.94" width="1.51" height="1.51" fill="#aa0707"/>
    <rect x="14.4" y="17.43" width="1.51" height="1.52" fill="#cc1d1d"/>
    <rect x="14.4" y="15.91" width="1.51" height="1.51" fill="#cc1d1d"/>
    <rect x="14.4" y="14.4" width="1.51" height="1.52" fill="#cc1d1d"/>
    <rect x="14.4" y="12.88" width="1.51" height="1.51" fill="#cc1d1d"/>
    <rect x="14.4" y="11.37" width="1.51" height="1.51" fill="#cc1d1d"/>
    <rect x="14.4" y="9.85" width="1.51" height="1.52" fill="#ef5454"/>
    <rect x="14.4" y="8.34" width="1.51" height="1.51" fill="#fff"/>
    <rect x="12.88" y="41.66" width="1.52" height="1.51" fill="#fff"/>
    <rect x="12.88" y="40.15" width="1.52" height="1.52" fill="#aa0707"/>
    <rect x="12.88" y="38.63" width="1.52" height="1.51" fill="#cc1d1d"/>
    <rect x="12.88" y="37.12" width="1.52" height="1.52" fill="#cc1d1d"/>
    <rect x="12.88" y="35.6" width="1.52" height="1.51" fill="#cc1d1d"/>
    <rect x="12.88" y="34.09" width="1.52" height="1.52" fill="#cc1d1d"/>
    <rect x="12.88" y="32.57" width="1.52" height="1.51" fill="#cc1d1d"/>
    <rect x="12.88" y="31.06" width="1.52" height="1.51" fill="#ef5454"/>
    <rect x="12.88" y="29.54" width="1.52" height="1.52" fill="#fff"/>
    <rect x="12.88" y="18.94" width="1.52" height="1.51" fill="#fff"/>
    <rect x="12.88" y="17.43" width="1.52" height="1.52" fill="#aa0707"/>
    <rect x="12.88" y="15.91" width="1.52" height="1.51" fill="#cc1d1d"/>
    <rect x="12.88" y="14.4" width="1.52" height="1.52" fill="#cc1d1d"/>
    <rect x="12.88" y="12.88" width="1.52" height="1.51" fill="#cc1d1d"/>
    <rect x="12.88" y="11.37" width="1.52" height="1.51" fill="#cc1d1d"/>
    <rect x="12.88" y="9.85" width="1.52" height="1.52" fill="#cc1d1d"/>
    <rect x="12.88" y="8.34" width="1.52" height="1.51" fill="#ef5454"/>
    <rect x="12.88" y="6.82" width="1.52" height="1.52" fill="#fff"/>
    <rect x="11.37" y="43.18" width="1.51" height="1.52" fill="#fff"/>
    <rect x="11.37" y="41.66" width="1.51" height="1.51" fill="#aa0707"/>
    <rect x="11.37" y="40.15" width="1.51" height="1.52" fill="#cc1d1d"/>
    <rect x="11.37" y="38.63" width="1.51" height="1.51" fill="#cc1d1d"/>
    <rect x="11.37" y="37.12" width="1.51" height="1.52" fill="#cc1d1d"/>
    <rect x="11.37" y="35.6" width="1.51" height="1.51" fill="#cc1d1d"/>
    <rect x="11.37" y="34.09" width="1.51" height="1.52" fill="#cc1d1d"/>
    <rect x="11.37" y="32.57" width="1.51" height="1.51" fill="#ef5454"/>
    <rect x="11.37" y="31.06" width="1.51" height="1.51" fill="#fff"/>
    <rect x="11.37" y="17.43" width="1.51" height="1.52" fill="#fff"/>
    <rect x="11.37" y="15.91" width="1.51" height="1.51" fill="#aa0707"/>
    <rect x="11.37" y="14.4" width="1.51" height="1.52" fill="#cc1d1d"/>
    <rect x="11.37" y="12.88" width="1.51" height="1.51" fill="#cc1d1d"/>
    <rect x="11.37" y="11.37" width="1.51" height="1.51" fill="#cc1d1d"/>
    <rect x="11.37" y="9.85" width="1.51" height="1.52" fill="#cc1d1d"/>
    <rect x="11.37" y="8.34" width="1.51" height="1.51" fill="#cc1d1d"/>
    <rect x="11.37" y="6.82" width="1.51" height="1.52" fill="#ef5454"/>
    <rect x="11.37" y="5.31" width="1.51" height="1.51" fill="#fff"/>
    <rect x="9.85" y="44.69" width="1.51" height="1.51" fill="#fff"/>
    <rect x="9.85" y="43.18" width="1.51" height="1.52" fill="#aa0707"/>
    <rect x="9.85" y="41.66" width="1.51" height="1.51" fill="#cc1d1d"/>
    <rect x="9.85" y="40.15" width="1.51" height="1.52" fill="#cc1d1d"/>
    <rect x="9.85" y="38.63" width="1.51" height="1.51" fill="#cc1d1d"/>
    <rect x="9.85" y="37.12" width="1.51" height="1.52" fill="#cc1d1d"/>
    <rect x="9.85" y="35.6" width="1.51" height="1.51" fill="#cc1d1d"/>
    <rect x="9.85" y="34.09" width="1.51" height="1.52" fill="#ef5454"/>
    <rect x="9.85" y="32.57" width="1.51" height="1.51" fill="#fff"/>
    <rect x="9.85" y="15.91" width="1.51" height="1.51" fill="#fff"/>
    <rect x="9.85" y="14.4" width="1.51" height="1.52" fill="#aa0707"/>
    <rect x="9.85" y="12.88" width="1.51" height="1.51" fill="#cc1d1d"/>
    <rect x="9.85" y="11.37" width="1.51" height="1.51" fill="#cc1d1d"/>
    <rect x="9.85" y="9.85" width="1.51" height="1.52" fill="#cc1d1d"/>
    <rect x="9.85" y="8.34" width="1.51" height="1.51" fill="#cc1d1d"/>
    <rect x="9.85" y="6.82" width="1.51" height="1.52" fill="#cc1d1d"/>
    <rect x="9.85" y="5.31" width="1.51" height="1.51" fill="#ef5454"/>
    <rect x="9.85" y="3.79" width="1.51" height="1.52" fill="#fff"/>
    <rect x="8.34" y="46.2" width="1.52" height="1.52" fill="#fff"/>
    <rect x="8.34" y="44.69" width="1.52" height="1.51" fill="#aa0707"/>
    <rect x="8.34" y="43.18" width="1.52" height="1.52" fill="#cc1d1d"/>
    <rect x="8.34" y="41.66" width="1.52" height="1.51" fill="#cc1d1d"/>
    <rect x="8.34" y="40.15" width="1.52" height="1.52" fill="#cc1d1d"/>
    <rect x="8.34" y="38.63" width="1.52" height="1.51" fill="#cc1d1d"/>
    <rect x="8.34" y="37.12" width="1.52" height="1.52" fill="#cc1d1d"/>
    <rect x="8.34" y="35.6" width="1.52" height="1.51" fill="#ef5454"/>
    <rect x="8.34" y="34.09" width="1.52" height="1.52" fill="#fff"/>
    <rect x="8.34" y="14.4" width="1.52" height="1.52" fill="#fff"/>
    <rect x="8.34" y="12.88" width="1.52" height="1.51" fill="#aa0707"/>
    <rect x="8.34" y="11.37" width="1.52" height="1.51" fill="#cc1d1d"/>
    <rect x="8.34" y="9.85" width="1.52" height="1.52" fill="#cc1d1d"/>
    <rect x="8.34" y="8.34" width="1.52" height="1.51" fill="#cc1d1d"/>
    <rect x="8.34" y="6.82" width="1.52" height="1.52" fill="#cc1d1d"/>
    <rect x="8.34" y="5.31" width="1.52" height="1.51" fill="#cc1d1d"/>
    <rect x="8.34" y="3.79" width="1.52" height="1.52" fill="#ef5454"/>
    <rect x="8.34" y="2.28" width="1.52" height="1.51" fill="#fff"/>
    <rect x="6.82" y="46.2" width="1.51" height="1.52" fill="#fff"/>
    <rect x="6.82" y="44.69" width="1.51" height="1.51" fill="#aa0707"/>
    <rect x="6.82" y="43.18" width="1.51" height="1.52" fill="#cc1d1d"/>
    <rect x="6.82" y="41.66" width="1.51" height="1.51" fill="#cc1d1d"/>
    <rect x="6.82" y="40.15" width="1.51" height="1.52" fill="#cc1d1d"/>
    <rect x="6.82" y="38.63" width="1.51" height="1.51" fill="#cc1d1d"/>
    <rect x="6.82" y="37.12" width="1.51" height="1.52" fill="#ef5454"/>
    <rect x="6.82" y="35.6" width="1.51" height="1.51" fill="#fff"/>
    <rect x="6.82" y="12.88" width="1.51" height="1.51" fill="#fff"/>
    <rect x="6.82" y="11.37" width="1.51" height="1.51" fill="#aa0707"/>
    <rect x="6.82" y="9.85" width="1.51" height="1.52" fill="#cc1d1d"/>
    <rect x="6.82" y="8.34" width="1.51" height="1.51" fill="#cc1d1d"/>
    <rect x="6.82" y="6.82" width="1.51" height="1.52" fill="#cc1d1d"/>
    <rect x="6.82" y="5.31" width="1.51" height="1.51" fill="#cc1d1d"/>
    <rect x="6.82" y="3.79" width="1.51" height="1.52" fill="#ef5454"/>
    <rect x="6.82" y="2.28" width="1.51" height="1.51" fill="#fff"/>
    <rect x="5.31" y="44.69" width="1.52" height="1.51" fill="#fff"/>
    <rect x="5.31" y="43.18" width="1.52" height="1.52" fill="#aa0707"/>
    <rect x="5.31" y="41.66" width="1.52" height="1.51" fill="#cc1d1d"/>
    <rect x="5.31" y="40.15" width="1.52" height="1.52" fill="#cc1d1d"/>
    <rect x="5.31" y="38.63" width="1.52" height="1.51" fill="#ef5454"/>
    <rect x="5.31" y="37.12" width="1.52" height="1.52" fill="#fff"/>
    <rect x="5.31" y="11.37" width="1.52" height="1.51" fill="#fff"/>
    <rect x="5.31" y="9.85" width="1.52" height="1.52" fill="#aa0707"/>
    <rect x="5.31" y="8.34" width="1.52" height="1.51" fill="#cc1d1d"/>
    <rect x="5.31" y="6.82" width="1.52" height="1.52" fill="#cc1d1d"/>
    <rect x="5.31" y="5.31" width="1.52" height="1.51" fill="#ef5454"/>
    <rect x="5.31" y="3.79" width="1.52" height="1.52" fill="#fff"/>
    <rect x="3.8" y="43.18" width="1.51" height="1.52" fill="#fff"/>
    <rect x="3.8" y="41.66" width="1.51" height="1.51" fill="#aa0707"/>
    <rect x="3.8" y="40.15" width="1.51" height="1.52" fill="#ef5454"/>
    <rect x="3.8" y="38.63" width="1.51" height="1.51" fill="#fff"/>
    <rect x="3.8" y="9.85" width="1.51" height="1.52" fill="#fff"/>
    <rect x="3.8" y="8.34" width="1.51" height="1.51" fill="#aa0707"/>
    <rect x="3.8" y="6.82" width="1.51" height="1.52" fill="#ef5454"/>
    <rect x="3.8" y="5.31" width="1.51" height="1.51" fill="#fff"/>
    <rect x="2.28" y="41.66" width="1.52" height="1.51" fill="#fff"/>
    <rect x="2.28" y="40.15" width="1.52" height="1.52" fill="#fff"/>
    <rect x="2.28" y="8.34" width="1.52" height="1.51" fill="#fff"/>
    <rect x="2.28" y="6.82" width="1.52" height="1.52" fill="#fff"/>
  </g>
</svg>
