<svg id="Capa_1" data-name="Capa 1" xmlns="http://www.w3.org/2000/svg" xmlns:xlink="http://www.w3.org/1999/xlink" width="50" height="50" viewBox="0 0 50 50">
  <defs>
    <clipPath id="clip-path">
      <polygon points="24.04 49.76 1.25 39.47 1.41 9.17 24.2 19.46 24.04 49.76" fill="none"/>
    </clipPath>
    <clipPath id="clip-path-2">
      <polygon points="24.2 19.46 1.41 9.17 25.96 0.24 48.74 10.53 24.2 19.46" fill="none"/>
    </clipPath>
    <clipPath id="clip-path-3">
      <polygon points="48.74 10.53 48.58 40.83 24.04 49.76 24.2 19.46 48.74 10.53" fill="none"/>
    </clipPath>
  </defs>
  <g id="Figment_lido">
    <g style="isolation: isolate">
      <g>
        <polygon points="24.04 49.76 1.25 39.47 1.41 9.17 24.2 19.46 24.04 49.76" fill="silver"/>
        <g style="isolation: isolate">
          <g clip-path="url(#clip-path)">
            <g>
              <path d="M12.85,24.13h0v.08q0,5.41-.11,10.83h0a1.28,1.28,0,0,0,.27.4c1.43,1.76,2.86,3.53,4.27,5.32a.67.67,0,0,0,.23.24.16.16,0,0,0,.1,0c.66.8,1.31,1.6,2,2.41a.66.66,0,0,0,.16.17c.06,0,.09,0,.09-.24,0-3.5.06-7,.1-10.51-.92-1.13-1.85-2.26-2.77-3.4l-4-5a.88.88,0,0,1-.2-.29s0,0,0,0h0" fill="#1a8e5c" opacity="0.75"/>
              <path d="M5.69,26.36h0c0,.95,0,1.91,0,2.86l0,2.4,0,3.17,0,2.37c.93-.26,1.81-.52,2.68-.78l.06,0a.27.27,0,0,0,.25,0l3.9-1.17a.25.25,0,0,0,.23-.19h0a6.1,6.1,0,0,0-.83-1.1q-2.58-3.21-5.18-6.41l-.93-1.16" fill="#fefefe" opacity="0.75"/>
              <path d="M19.91,22l-1,.31a.54.54,0,0,0-.28,0c-1.07.32-2.15.62-3.21,1-.72.21-1.43.41-2.13.63-.15,0-.33,0-.42.21a.79.79,0,0,1,.21.23l5.11,6.32c.48.59.95,1.16,1.42,1.76a1.11,1.11,0,0,1,.24.39c0-3.51.09-7,.12-10.55L19.91,22" fill="#fefefe" opacity="0.75"/>
              <path d="M12.86,24.14s0,0,0,0a.88.88,0,0,0,.2.29l4,5c.92,1.14,1.85,2.27,2.77,3.4a1.11,1.11,0,0,0-.24-.39c-.47-.6-.94-1.17-1.42-1.76l-5.11-6.32a.79.79,0,0,0-.21-.23" fill="#d0e8de" opacity="0.94"/>
              <path d="M5.76,15.5v1l0,2.48,0,2.48,0,1.58,0,2.33c0,.33,0,.65,0,1h.06a12.38,12.38,0,0,1,1.63-.53l5.38-1.61h0v0l.05-.05a1,1,0,0,0-.22-.34c-.73-.92-1.48-1.82-2.21-2.74S8.7,19,7.86,18a3.51,3.51,0,0,0-.66-.72c-.46-.57-.93-1.12-1.44-1.74" fill="#1a8e5c" opacity="0.75"/>
              <path d="M12.8,24.13l-.05.05v0h.06v-.08" fill="#1a8e5c" opacity="0.94"/>
              <path d="M5.72,26.35h0" fill="#48a47c" opacity="0.94"/>
              <path d="M12.65,35h0m.08-10.73a1.4,1.4,0,0,1-.57.21L6.91,26.08a4.12,4.12,0,0,1-1.16.29c.63.68,1.22,1.46,1.81,2.19l4.27,5.27c.21.25.41.53.62.78a.94.94,0,0,1,.16.23,3.39,3.39,0,0,1,0-.45l.11-9.69a1.75,1.75,0,0,1,0-.4h0" fill="#bfdabc" opacity="0.75"/>
              <path d="M12.8,24.21l-.07.08h0a1.75,1.75,0,0,0,0,.4l-.11,9.69a3.39,3.39,0,0,0,0,.45.53.53,0,0,1,0,.18h0q.06-5.41.11-10.83" fill="#9ecba9" opacity="0.94"/>
              <path d="M5.75,26.37H5.69l.93,1.16q2.6,3.19,5.18,6.41a6.1,6.1,0,0,1,.83,1.1h0l0-.13v0a.94.94,0,0,0-.16-.23c-.21-.25-.41-.53-.62-.78L7.56,28.56c-.59-.73-1.18-1.51-1.81-2.19" fill="#cce1c9" opacity="0.94"/>
              <path d="M12.61,34.84v0l0,.13a.53.53,0,0,0,0-.18" fill="#c3ddc4" opacity="0.98"/>
              <path d="M12.74,24.21h0L7.35,25.82a12.38,12.38,0,0,0-1.63.53h0v0a4.12,4.12,0,0,0,1.16-.29l5.25-1.58a1.4,1.4,0,0,0,.57-.21v-.08" fill="#9ecba9" opacity="0.94"/>
              <path d="M12.8,24.21h-.06v.08l.07-.08" fill="#98c8a5" opacity="0.98"/>
              <path d="M5.74,26.35h0v0" fill="#a3cdad" opacity="0.98"/>
            </g>
          </g>
        </g>
      </g>
      <g>
        <polygon points="24.2 19.46 1.41 9.17 25.96 0.24 48.74 10.53 24.2 19.46" fill="#d3d3d3"/>
        <g style="isolation: isolate">
          <g clip-path="url(#clip-path-2)">
            <g>
              <path d="M21.83,7.85h0v0h0l0,0,8,3.62,0,0a3,3,0,0,0,.52,0q3.6-.33,7.23-.62a1.73,1.73,0,0,0,.35-.05.26.26,0,0,0,.09,0l3.29-.3a.79.79,0,0,0,.26,0c.06,0,0-.06-.11-.13C38.86,9.18,36.27,8,33.68,6.83L29,7.26q-3.4.29-6.79.6a1.51,1.51,0,0,1-.37,0s0,0,0,0h0" fill="#1a8e5c" opacity="0.75"/>
              <path d="M18.06,12.55h0l2.11,1,1.77.81,2.35,1.05,1.76.8c.51-.6,1-1.18,1.46-1.75l.07,0a.31.31,0,0,0,.17-.14l2.09-2.55c.06-.06.12-.12,0-.19h0a11.78,11.78,0,0,0-1.45.1l-8.74.77-1.57.13" fill="#fefefe" opacity="0.75"/>
              <path d="M25.64,3.25l-.54.66a.94.94,0,0,0-.22.15c-.57.7-1.17,1.4-1.73,2.1L22,7.54c-.07.1-.22.2-.16.31a1.57,1.57,0,0,1,.33,0l8.63-.76,2.39-.21a2.68,2.68,0,0,1,.49,0L25.87,3.3l-.23,0" fill="#fefefe" opacity="0.75"/>
              <path d="M21.84,7.85s0,0,0,0a1.51,1.51,0,0,0,.37,0q3.39-.32,6.79-.6l4.66-.43a2.68,2.68,0,0,0-.49,0l-2.39.21-8.63.76a1.57,1.57,0,0,0-.33,0" fill="#d0e8de" opacity="0.94"/>
              <path d="M10,8.94l.74.34,1.84.83,1.84.83,1.17.53,1.72.78.74.32.05,0a8.09,8.09,0,0,1,.84-1.08Q20.35,9.7,21.8,8h0l0,0v0a1.54,1.54,0,0,0-.43,0c-1.25.1-2.49.22-3.74.33l-4.22.37a7,7,0,0,0-1,.13L10,8.94" fill="#1a8e5c" opacity="0.75"/>
              <path d="M21.8,7.88v0l0,0,0,0,0,0h0" fill="#1a8e5c" opacity="0.94"/>
              <path d="M18.07,12.53l-.05,0h0v0" fill="#48a47c" opacity="0.94"/>
              <path d="M29.83,11.54h0M21.86,8c0,.14-.17.25-.28.38-.94,1.15-1.86,2.29-2.82,3.43a3,3,0,0,1-.66.74c1-.12,2-.19,3-.28l7.18-.64,1.06-.08a1,1,0,0,1,.3,0,2.32,2.32,0,0,1-.35-.14L22.14,8.12A1.83,1.83,0,0,1,21.86,8h0" fill="#bfdabc" opacity="0.75"/>
              <path d="M21.85,7.9a.2.2,0,0,1,0,.07h0a1.83,1.83,0,0,0,.28.14l7.18,3.24a2.32,2.32,0,0,0,.35.14l.16,0h0l0,0-8-3.62" fill="#9ecba9" opacity="0.94"/>
              <path d="M18.1,12.52l0,0,1.57-.13,8.74-.77a11.78,11.78,0,0,1,1.45-.1h0l-.12,0h0a1,1,0,0,0-.3,0l-1.06.08-7.18.64c-1,.09-2,.16-3,.28" fill="#cce1c9" opacity="0.94"/>
              <path d="M29.67,11.5h0l.12,0-.16,0" fill="#c3ddc4" opacity="0.98"/>
              <path d="M21.81,7.94h0q-1.46,1.74-2.89,3.5a8.09,8.09,0,0,0-.84,1.08h0a3,3,0,0,0,.66-.74c1-1.14,1.88-2.28,2.82-3.43.11-.13.26-.24.28-.38l-.05,0" fill="#9ecba9" opacity="0.94"/>
              <path d="M21.85,7.9l0,0,.05,0a.2.2,0,0,0,0-.07" fill="#98c8a5" opacity="0.98"/>
              <path d="M18.08,12.52h0v0l0,0h0" fill="#a3cdad" opacity="0.98"/>
            </g>
          </g>
        </g>
      </g>
      <g>
        <polygon points="48.74 10.53 48.58 40.83 24.04 49.76 24.2 19.46 48.74 10.53" fill="#d8d8d8"/>
        <g style="isolation: isolate">
          <g clip-path="url(#clip-path-3)">
            <g>
              <path d="M37.15,24.66l0,0,0,0v.08c0,3.56,0,7.13,0,10.71l-.05,0c.07.1.2.12.31.16,1.56.51,3.12,1,4.66,1.6.08,0,.16.07.25,0a.23.23,0,0,0,.11-.07l2.14.7a.25.25,0,0,0,.18,0c.06,0,.09-.1.09-.3,0-3.47,0-6.93,0-10.4-1-.32-2-.64-3-1-1.46-.49-2.93-1-4.4-1.45-.08,0-.17,0-.21-.13a.17.17,0,0,1,0-.05h0" fill="#1a8e5c" opacity="0.75"/>
              <path d="M29.41,32.93h0l0,2.85,0,2.37v5.49l2.91-3,.06,0a.64.64,0,0,0,.27-.23c1.4-1.48,2.81-3,4.22-4.44a.83.83,0,0,0,.25-.39h0a2.36,2.36,0,0,0-.91-.37q-2.82-1-5.66-1.89l-1-.34" fill="#fefefe" opacity="0.75"/>
              <path d="M44.8,16.62c-.36.39-.73.77-1.09,1.15a2.34,2.34,0,0,0-.31.24c-1.16,1.22-2.33,2.44-3.48,3.67-.77.81-1.54,1.61-2.3,2.42a1.79,1.79,0,0,0-.45.56c.08,0,.14,0,.22.05,1.86.63,3.73,1.24,5.59,1.86l1.55.52a.45.45,0,0,1,.27.18c0-3.48,0-7,.06-10.45l-.06-.2" fill="#fefefe" opacity="0.75"/>
              <path d="M37.17,24.66a.17.17,0,0,0,0,.05c0,.1.13.1.21.13,1.47.47,2.94,1,4.4,1.45,1,.34,2,.66,3,1a.45.45,0,0,0-.27-.18L43,26.57c-1.86-.62-3.73-1.23-5.59-1.86-.08,0-.14-.07-.22-.05" fill="#d0e8de" opacity="0.94"/>
              <path d="M29.41,22.21V32c0,.32,0,.63,0,.95l.07,0C30,32.2,30.61,31.61,31.2,31L37,24.85l0,0v0l.05-.08c-.05-.11-.15-.12-.24-.15-.8-.28-1.62-.53-2.42-.81s-1.82-.62-2.74-.9A1.34,1.34,0,0,0,31,22.7l-1.57-.49" fill="#1a8e5c" opacity="0.75"/>
              <path d="M37.1,24.71l-.05.08v0l.06,0v-.08" fill="#1a8e5c" opacity="0.94"/>
              <path d="M29.44,32.89l-.07,0h0l0,0" fill="#48a47c" opacity="0.94"/>
              <path d="M37,35.51h0m0-10.58a3.92,3.92,0,0,1-.61.67c-1.9,2-3.79,4-5.69,6a12.41,12.41,0,0,1-1.25,1.26,16.27,16.27,0,0,1,2,.62c1.56.51,3.1,1,4.66,1.54.23.07.45.17.68.24a.44.44,0,0,1,.18.09,1.93,1.93,0,0,1,0-.42l.05-9.6a1.93,1.93,0,0,1,0-.41h0" fill="#bfdabc" opacity="0.75"/>
              <path d="M37.1,24.79a1,1,0,0,1-.08.14h0a1.93,1.93,0,0,0,0,.41L36.94,35a1.93,1.93,0,0,0,0,.42.26.26,0,0,1,0,.14h0l.05,0c0-3.58,0-7.15,0-10.71" fill="#9ecba9" opacity="0.94"/>
              <path d="M29.47,32.88l-.06,0,1,.34q2.84.93,5.66,1.89a2.36,2.36,0,0,1,.91.37h0a.3.3,0,0,1,0-.1v0a.44.44,0,0,0-.18-.09c-.23-.07-.45-.17-.68-.24-1.56-.5-3.1-1-4.66-1.54a16.27,16.27,0,0,0-2-.62" fill="#cce1c9" opacity="0.94"/>
              <path d="M37,35.37v0a.3.3,0,0,0,0,.1.26.26,0,0,0,0-.14" fill="#c3ddc4" opacity="0.98"/>
              <path d="M37,24.83l0,0L31.2,31c-.59.63-1.2,1.22-1.76,1.91h0a12.41,12.41,0,0,0,1.25-1.26c1.9-2,3.79-4,5.69-6a3.92,3.92,0,0,0,.61-.67l0-.1" fill="#9ecba9" opacity="0.94"/>
              <path d="M37.1,24.79l-.06,0,0,.1a1,1,0,0,0,.08-.14" fill="#98c8a5" opacity="0.98"/>
              <path d="M29.45,32.88h0l0,0,.06,0h0" fill="#a3cdad" opacity="0.98"/>
            </g>
          </g>
        </g>
      </g>
    </g>
  </g>
  <g>
    <rect x="40.92" y="37.51" width="1.14" height="1.14" fill="#fff"/>
    <rect x="40.92" y="36.37" width="1.14" height="1.14" fill="#fff"/>
    <rect x="40.92" y="12.49" width="1.14" height="1.14" fill="#fff"/>
    <rect x="40.92" y="11.36" width="1.14" height="1.14" fill="#fff"/>
    <rect x="39.78" y="38.64" width="1.14" height="1.14" fill="#fff"/>
    <rect x="39.78" y="37.51" width="1.14" height="1.14" fill="#ef5454"/>
    <rect x="39.78" y="36.37" width="1.14" height="1.14" fill="#ef5454"/>
    <rect x="39.78" y="35.23" width="1.14" height="1.14" fill="#fff"/>
    <rect x="39.78" y="13.63" width="1.14" height="1.14" fill="#fff"/>
    <rect x="39.78" y="12.49" width="1.14" height="1.14" fill="#aa0707"/>
    <rect x="39.78" y="11.36" width="1.14" height="1.14" fill="#ef5454"/>
    <rect x="39.78" y="10.22" width="1.14" height="1.14" fill="#fff"/>
    <rect x="38.64" y="39.78" width="1.14" height="1.14" fill="#fff"/>
    <rect x="38.64" y="38.64" width="1.14" height="1.14" fill="#aa0707"/>
    <rect x="38.64" y="37.51" width="1.14" height="1.14" fill="#cc1d1d"/>
    <rect x="38.64" y="36.37" width="1.14" height="1.14" fill="#cc1d1d"/>
    <rect x="38.64" y="35.23" width="1.14" height="1.14" fill="#ef5454"/>
    <rect x="38.64" y="34.1" width="1.14" height="1.14" fill="#fff"/>
    <rect x="38.64" y="14.77" width="1.14" height="1.14" fill="#fff"/>
    <rect x="38.64" y="13.63" width="1.14" height="1.14" fill="#aa0707"/>
    <rect x="38.64" y="12.49" width="1.14" height="1.14" fill="#cc1d1d"/>
    <rect x="38.64" y="11.36" width="1.14" height="1.14" fill="#cc1d1d"/>
    <rect x="38.64" y="10.22" width="1.14" height="1.14" fill="#ef5454"/>
    <rect x="38.64" y="9.08" width="1.14" height="1.14" fill="#fff"/>
    <rect x="37.51" y="40.92" width="1.14" height="1.14" fill="#fff"/>
    <rect x="37.51" y="39.78" width="1.14" height="1.14" fill="#aa0707"/>
    <rect x="37.51" y="38.64" width="1.14" height="1.14" fill="#cc1d1d"/>
    <rect x="37.51" y="37.51" width="1.14" height="1.14" fill="#cc1d1d"/>
    <rect x="37.51" y="36.37" width="1.14" height="1.14" fill="#cc1d1d"/>
    <rect x="37.51" y="35.23" width="1.14" height="1.14" fill="#cc1d1d"/>
    <rect x="37.51" y="34.1" width="1.14" height="1.14" fill="#ef5454"/>
    <rect x="37.51" y="32.96" width="1.14" height="1.14" fill="#fff"/>
    <rect x="37.51" y="15.9" width="1.14" height="1.14" fill="#fff"/>
    <rect x="37.51" y="14.77" width="1.14" height="1.14" fill="#aa0707"/>
    <rect x="37.51" y="13.63" width="1.14" height="1.14" fill="#cc1d1d"/>
    <rect x="37.51" y="12.49" width="1.14" height="1.14" fill="#cc1d1d"/>
    <rect x="37.51" y="11.36" width="1.14" height="1.14" fill="#cc1d1d"/>
    <rect x="37.51" y="10.22" width="1.14" height="1.14" fill="#cc1d1d"/>
    <rect x="37.51" y="9.08" width="1.14" height="1.14" fill="#ef5454"/>
    <rect x="37.51" y="7.95" width="1.14" height="1.14" fill="#fff"/>
    <rect x="36.37" y="40.92" width="1.14" height="1.14" fill="#fff"/>
    <rect x="36.37" y="39.78" width="1.14" height="1.14" fill="#aa0707"/>
    <rect x="36.37" y="38.64" width="1.14" height="1.14" fill="#cc1d1d"/>
    <rect x="36.37" y="37.51" width="1.14" height="1.14" fill="#cc1d1d"/>
    <rect x="36.37" y="36.37" width="1.14" height="1.14" fill="#cc1d1d"/>
    <rect x="36.37" y="35.23" width="1.14" height="1.14" fill="#cc1d1d"/>
    <rect x="36.37" y="34.1" width="1.14" height="1.14" fill="#cc1d1d"/>
    <rect x="36.37" y="32.96" width="1.14" height="1.14" fill="#ef5454"/>
    <rect x="36.37" y="31.82" width="1.14" height="1.14" fill="#fff"/>
    <rect x="36.37" y="17.04" width="1.14" height="1.14" fill="#fff"/>
    <rect x="36.37" y="15.9" width="1.14" height="1.14" fill="#aa0707"/>
    <rect x="36.37" y="14.77" width="1.14" height="1.14" fill="#cc1d1d"/>
    <rect x="36.37" y="13.63" width="1.14" height="1.14" fill="#cc1d1d"/>
    <rect x="36.37" y="12.49" width="1.14" height="1.14" fill="#cc1d1d"/>
    <rect x="36.37" y="11.36" width="1.14" height="1.14" fill="#cc1d1d"/>
    <rect x="36.37" y="10.22" width="1.14" height="1.14" fill="#cc1d1d"/>
    <rect x="36.37" y="9.08" width="1.14" height="1.14" fill="#ef5454"/>
    <rect x="36.37" y="7.95" width="1.14" height="1.14" fill="#fff"/>
    <rect x="35.23" y="39.78" width="1.14" height="1.14" fill="#fff"/>
    <rect x="35.23" y="38.64" width="1.14" height="1.14" fill="#aa0707"/>
    <rect x="35.23" y="37.51" width="1.14" height="1.14" fill="#cc1d1d"/>
    <rect x="35.23" y="36.37" width="1.14" height="1.14" fill="#cc1d1d"/>
    <rect x="35.23" y="35.23" width="1.14" height="1.14" fill="#cc1d1d"/>
    <rect x="35.23" y="34.1" width="1.14" height="1.14" fill="#cc1d1d"/>
    <rect x="35.23" y="32.96" width="1.14" height="1.14" fill="#cc1d1d"/>
    <rect x="35.23" y="31.82" width="1.14" height="1.14" fill="#ef5454"/>
    <rect x="35.23" y="30.68" width="1.14" height="1.14" fill="#fff"/>
    <rect x="35.23" y="18.18" width="1.14" height="1.14" fill="#fff"/>
    <rect x="35.23" y="17.04" width="1.14" height="1.14" fill="#aa0707"/>
    <rect x="35.23" y="15.9" width="1.14" height="1.14" fill="#cc1d1d"/>
    <rect x="35.23" y="14.77" width="1.14" height="1.14" fill="#cc1d1d"/>
    <rect x="35.23" y="13.63" width="1.14" height="1.14" fill="#cc1d1d"/>
    <rect x="35.23" y="12.49" width="1.14" height="1.14" fill="#cc1d1d"/>
    <rect x="35.23" y="11.36" width="1.14" height="1.14" fill="#cc1d1d"/>
    <rect x="35.23" y="10.22" width="1.14" height="1.14" fill="#ef5454"/>
    <rect x="35.23" y="9.08" width="1.14" height="1.14" fill="#fff"/>
    <rect x="34.1" y="38.64" width="1.14" height="1.14" fill="#fff"/>
    <rect x="34.1" y="37.51" width="1.14" height="1.14" fill="#aa0707"/>
    <rect x="34.1" y="36.37" width="1.14" height="1.14" fill="#cc1d1d"/>
    <rect x="34.1" y="35.23" width="1.14" height="1.14" fill="#cc1d1d"/>
    <rect x="34.1" y="34.1" width="1.14" height="1.14" fill="#cc1d1d"/>
    <rect x="34.1" y="32.96" width="1.14" height="1.14" fill="#cc1d1d"/>
    <rect x="34.1" y="31.82" width="1.14" height="1.14" fill="#cc1d1d"/>
    <rect x="34.1" y="30.68" width="1.14" height="1.14" fill="#ef5454"/>
    <rect x="34.1" y="29.55" width="1.14" height="1.14" fill="#fff"/>
    <rect x="34.1" y="19.31" width="1.14" height="1.14" fill="#fff"/>
    <rect x="34.1" y="18.18" width="1.14" height="1.14" fill="#aa0707"/>
    <rect x="34.1" y="17.04" width="1.14" height="1.14" fill="#cc1d1d"/>
    <rect x="34.1" y="15.9" width="1.14" height="1.14" fill="#cc1d1d"/>
    <rect x="34.1" y="14.77" width="1.14" height="1.14" fill="#cc1d1d"/>
    <rect x="34.1" y="13.63" width="1.14" height="1.14" fill="#cc1d1d"/>
    <rect x="34.1" y="12.49" width="1.14" height="1.14" fill="#cc1d1d"/>
    <rect x="34.1" y="11.36" width="1.14" height="1.14" fill="#ef5454"/>
    <rect x="34.1" y="10.22" width="1.14" height="1.14" fill="#fff"/>
    <rect x="32.96" y="37.51" width="1.14" height="1.14" fill="#fff"/>
    <rect x="32.96" y="36.37" width="1.14" height="1.14" fill="#aa0707"/>
    <rect x="32.96" y="35.23" width="1.14" height="1.14" fill="#cc1d1d"/>
    <rect x="32.96" y="34.1" width="1.14" height="1.14" fill="#cc1d1d"/>
    <rect x="32.96" y="32.96" width="1.14" height="1.14" fill="#cc1d1d"/>
    <rect x="32.96" y="31.82" width="1.14" height="1.14" fill="#cc1d1d"/>
    <rect x="32.96" y="30.68" width="1.14" height="1.14" fill="#cc1d1d"/>
    <rect x="32.96" y="29.55" width="1.14" height="1.14" fill="#ef5454"/>
    <rect x="32.96" y="28.41" width="1.14" height="1.14" fill="#fff"/>
    <rect x="32.96" y="20.45" width="1.14" height="1.14" fill="#fff"/>
    <rect x="32.96" y="19.31" width="1.14" height="1.14" fill="#aa0707"/>
    <rect x="32.96" y="18.18" width="1.14" height="1.14" fill="#cc1d1d"/>
    <rect x="32.96" y="17.04" width="1.14" height="1.14" fill="#cc1d1d"/>
    <rect x="32.96" y="15.9" width="1.14" height="1.14" fill="#cc1d1d"/>
    <rect x="32.96" y="14.77" width="1.14" height="1.14" fill="#cc1d1d"/>
    <rect x="32.96" y="13.63" width="1.14" height="1.14" fill="#cc1d1d"/>
    <rect x="32.96" y="12.49" width="1.14" height="1.14" fill="#ef5454"/>
    <rect x="32.96" y="11.36" width="1.14" height="1.14" fill="#fff"/>
    <rect x="31.82" y="36.37" width="1.14" height="1.14" fill="#fff"/>
    <rect x="31.82" y="35.23" width="1.14" height="1.14" fill="#aa0707"/>
    <rect x="31.82" y="34.1" width="1.14" height="1.14" fill="#cc1d1d"/>
    <rect x="31.82" y="32.96" width="1.14" height="1.14" fill="#cc1d1d"/>
    <rect x="31.82" y="31.82" width="1.14" height="1.14" fill="#cc1d1d"/>
    <rect x="31.82" y="30.68" width="1.14" height="1.14" fill="#cc1d1d"/>
    <rect x="31.82" y="29.55" width="1.14" height="1.14" fill="#cc1d1d"/>
    <rect x="31.82" y="28.41" width="1.14" height="1.14" fill="#ef5454"/>
    <rect x="31.82" y="27.27" width="1.14" height="1.14" fill="#fff"/>
    <rect x="31.82" y="21.59" width="1.14" height="1.14" fill="#fff"/>
    <rect x="31.82" y="20.45" width="1.14" height="1.14" fill="#aa0707"/>
    <rect x="31.82" y="19.31" width="1.14" height="1.14" fill="#cc1d1d"/>
    <rect x="31.82" y="18.18" width="1.14" height="1.14" fill="#cc1d1d"/>
    <rect x="31.82" y="17.04" width="1.14" height="1.14" fill="#cc1d1d"/>
    <rect x="31.82" y="15.9" width="1.14" height="1.14" fill="#cc1d1d"/>
    <rect x="31.82" y="14.77" width="1.14" height="1.14" fill="#cc1d1d"/>
    <rect x="31.82" y="13.63" width="1.14" height="1.14" fill="#ef5454"/>
    <rect x="31.82" y="12.49" width="1.14" height="1.14" fill="#fff"/>
    <rect x="30.69" y="35.23" width="1.14" height="1.14" fill="#fff"/>
    <rect x="30.69" y="34.1" width="1.14" height="1.14" fill="#aa0707"/>
    <rect x="30.69" y="32.96" width="1.14" height="1.14" fill="#cc1d1d"/>
    <rect x="30.69" y="31.82" width="1.14" height="1.14" fill="#cc1d1d"/>
    <rect x="30.69" y="30.68" width="1.14" height="1.14" fill="#cc1d1d"/>
    <rect x="30.69" y="29.55" width="1.14" height="1.14" fill="#cc1d1d"/>
    <rect x="30.69" y="28.41" width="1.14" height="1.14" fill="#cc1d1d"/>
    <rect x="30.69" y="27.27" width="1.14" height="1.14" fill="#ef5454"/>
    <rect x="30.69" y="26.14" width="1.14" height="1.14" fill="#fff"/>
    <rect x="30.69" y="22.73" width="1.14" height="1.14" fill="#fff"/>
    <rect x="30.69" y="21.59" width="1.14" height="1.14" fill="#aa0707"/>
    <rect x="30.69" y="20.45" width="1.14" height="1.14" fill="#cc1d1d"/>
    <rect x="30.69" y="19.31" width="1.14" height="1.14" fill="#cc1d1d"/>
    <rect x="30.69" y="18.18" width="1.14" height="1.14" fill="#cc1d1d"/>
    <rect x="30.69" y="17.04" width="1.14" height="1.14" fill="#cc1d1d"/>
    <rect x="30.69" y="15.9" width="1.14" height="1.14" fill="#cc1d1d"/>
    <rect x="30.69" y="14.77" width="1.14" height="1.14" fill="#ef5454"/>
    <rect x="30.69" y="13.63" width="1.14" height="1.14" fill="#fff"/>
    <rect x="29.55" y="34.1" width="1.14" height="1.14" fill="#fff"/>
    <rect x="29.55" y="32.96" width="1.14" height="1.14" fill="#aa0707"/>
    <rect x="29.55" y="31.82" width="1.14" height="1.14" fill="#cc1d1d"/>
    <rect x="29.55" y="30.68" width="1.14" height="1.14" fill="#cc1d1d"/>
    <rect x="29.55" y="29.55" width="1.14" height="1.14" fill="#cc1d1d"/>
    <rect x="29.55" y="28.41" width="1.14" height="1.14" fill="#cc1d1d"/>
    <rect x="29.55" y="27.27" width="1.14" height="1.14" fill="#cc1d1d"/>
    <rect x="29.55" y="26.14" width="1.14" height="1.14" fill="#ef5454"/>
    <rect x="29.55" y="25" width="1.14" height="1.14" fill="#fff"/>
    <rect x="29.55" y="23.86" width="1.14" height="1.14" fill="#fff"/>
    <rect x="29.55" y="22.73" width="1.14" height="1.14" fill="#aa0707"/>
    <rect x="29.55" y="21.59" width="1.14" height="1.14" fill="#cc1d1d"/>
    <rect x="29.55" y="20.45" width="1.14" height="1.14" fill="#cc1d1d"/>
    <rect x="29.55" y="19.31" width="1.14" height="1.14" fill="#cc1d1d"/>
    <rect x="29.55" y="18.18" width="1.14" height="1.14" fill="#cc1d1d"/>
    <rect x="29.55" y="17.04" width="1.14" height="1.14" fill="#cc1d1d"/>
    <rect x="29.55" y="15.9" width="1.14" height="1.14" fill="#ef5454"/>
    <rect x="29.55" y="14.77" width="1.14" height="1.14" fill="#fff"/>
    <rect x="28.41" y="32.96" width="1.14" height="1.14" fill="#fff"/>
    <rect x="28.41" y="31.82" width="1.14" height="1.14" fill="#aa0707"/>
    <rect x="28.41" y="30.68" width="1.14" height="1.14" fill="#cc1d1d"/>
    <rect x="28.41" y="29.55" width="1.14" height="1.14" fill="#cc1d1d"/>
    <rect x="28.41" y="28.41" width="1.14" height="1.14" fill="#cc1d1d"/>
    <rect x="28.41" y="27.27" width="1.14" height="1.14" fill="#cc1d1d"/>
    <rect x="28.41" y="26.14" width="1.14" height="1.14" fill="#cc1d1d"/>
    <rect x="28.41" y="25" width="1.14" height="1.14" fill="#aa0707"/>
    <rect x="28.41" y="23.86" width="1.14" height="1.14" fill="#aa0707"/>
    <rect x="28.41" y="22.73" width="1.14" height="1.14" fill="#cc1d1d"/>
    <rect x="28.41" y="21.59" width="1.14" height="1.14" fill="#cc1d1d"/>
    <rect x="28.41" y="20.45" width="1.14" height="1.14" fill="#cc1d1d"/>
    <rect x="28.41" y="19.31" width="1.14" height="1.14" fill="#cc1d1d"/>
    <rect x="28.41" y="18.18" width="1.14" height="1.14" fill="#cc1d1d"/>
    <rect x="28.41" y="17.04" width="1.14" height="1.14" fill="#ef5454"/>
    <rect x="28.41" y="15.9" width="1.14" height="1.14" fill="#fff"/>
    <rect x="27.27" y="31.82" width="1.14" height="1.14" fill="#fff"/>
    <rect x="27.27" y="30.68" width="1.14" height="1.14" fill="#aa0707"/>
    <rect x="27.27" y="29.55" width="1.14" height="1.14" fill="#cc1d1d"/>
    <rect x="27.27" y="28.41" width="1.14" height="1.14" fill="#cc1d1d"/>
    <rect x="27.27" y="27.27" width="1.14" height="1.14" fill="#cc1d1d"/>
    <rect x="27.27" y="26.14" width="1.14" height="1.14" fill="#cc1d1d"/>
    <rect x="27.27" y="25" width="1.14" height="1.14" fill="#cc1d1d"/>
    <rect x="27.27" y="23.86" width="1.14" height="1.14" fill="#cc1d1d"/>
    <rect x="27.27" y="22.73" width="1.14" height="1.14" fill="#cc1d1d"/>
    <rect x="27.27" y="21.59" width="1.14" height="1.14" fill="#cc1d1d"/>
    <rect x="27.27" y="20.45" width="1.14" height="1.14" fill="#cc1d1d"/>
    <rect x="27.27" y="19.31" width="1.14" height="1.14" fill="#cc1d1d"/>
    <rect x="27.27" y="18.18" width="1.14" height="1.14" fill="#ef5454"/>
    <rect x="27.27" y="17.04" width="1.14" height="1.14" fill="#fff"/>
    <rect x="26.14" y="30.68" width="1.14" height="1.14" fill="#fff"/>
    <rect x="26.14" y="29.55" width="1.14" height="1.14" fill="#aa0707"/>
    <rect x="26.14" y="28.41" width="1.14" height="1.14" fill="#cc1d1d"/>
    <rect x="26.14" y="27.27" width="1.14" height="1.14" fill="#cc1d1d"/>
    <rect x="26.14" y="26.14" width="1.14" height="1.14" fill="#cc1d1d"/>
    <rect x="26.14" y="25" width="1.14" height="1.14" fill="#cc1d1d"/>
    <rect x="26.14" y="23.86" width="1.14" height="1.14" fill="#cc1d1d"/>
    <rect x="26.14" y="22.73" width="1.14" height="1.14" fill="#cc1d1d"/>
    <rect x="26.14" y="21.59" width="1.14" height="1.14" fill="#cc1d1d"/>
    <rect x="26.14" y="20.45" width="1.14" height="1.14" fill="#cc1d1d"/>
    <rect x="26.14" y="19.31" width="1.14" height="1.14" fill="#ef5454"/>
    <rect x="26.14" y="18.18" width="1.14" height="1.14" fill="#fff"/>
    <rect x="25" y="29.55" width="1.14" height="1.14" fill="#fff"/>
    <rect x="25" y="28.41" width="1.14" height="1.14" fill="#aa0707"/>
    <rect x="25" y="27.27" width="1.14" height="1.14" fill="#cc1d1d"/>
    <rect x="25" y="26.14" width="1.14" height="1.14" fill="#cc1d1d"/>
    <rect x="25" y="25" width="1.14" height="1.14" fill="#cc1d1d"/>
    <rect x="25" y="23.86" width="1.14" height="1.14" fill="#cc1d1d"/>
    <rect x="25" y="22.73" width="1.14" height="1.14" fill="#cc1d1d"/>
    <rect x="25" y="21.59" width="1.14" height="1.14" fill="#cc1d1d"/>
    <rect x="25" y="20.45" width="1.14" height="1.14" fill="#ef5454"/>
    <rect x="25" y="19.31" width="1.14" height="1.14" fill="#fff"/>
    <rect x="23.86" y="29.55" width="1.14" height="1.14" fill="#fff"/>
    <rect x="23.86" y="28.41" width="1.14" height="1.14" fill="#aa0707"/>
    <rect x="23.86" y="27.27" width="1.14" height="1.14" fill="#cc1d1d"/>
    <rect x="23.86" y="26.14" width="1.14" height="1.14" fill="#cc1d1d"/>
    <rect x="23.86" y="25" width="1.14" height="1.14" fill="#cc1d1d"/>
    <rect x="23.86" y="23.86" width="1.14" height="1.14" fill="#cc1d1d"/>
    <rect x="23.86" y="22.73" width="1.14" height="1.14" fill="#cc1d1d"/>
    <rect x="23.86" y="21.59" width="1.14" height="1.14" fill="#cc1d1d"/>
    <rect x="23.86" y="20.45" width="1.14" height="1.14" fill="#ef5454"/>
    <rect x="23.86" y="19.31" width="1.14" height="1.14" fill="#fff"/>
    <rect x="22.73" y="30.68" width="1.14" height="1.14" fill="#fff"/>
    <rect x="22.73" y="29.55" width="1.14" height="1.14" fill="#aa0707"/>
    <rect x="22.73" y="28.41" width="1.14" height="1.14" fill="#cc1d1d"/>
    <rect x="22.73" y="27.27" width="1.14" height="1.14" fill="#cc1d1d"/>
    <rect x="22.73" y="26.14" width="1.14" height="1.14" fill="#cc1d1d"/>
    <rect x="22.73" y="25" width="1.14" height="1.14" fill="#cc1d1d"/>
    <rect x="22.73" y="23.86" width="1.14" height="1.14" fill="#cc1d1d"/>
    <rect x="22.73" y="22.73" width="1.14" height="1.14" fill="#cc1d1d"/>
    <rect x="22.73" y="21.59" width="1.14" height="1.14" fill="#cc1d1d"/>
    <rect x="22.73" y="20.45" width="1.14" height="1.14" fill="#cc1d1d"/>
    <rect x="22.73" y="19.31" width="1.14" height="1.14" fill="#ef5454"/>
    <rect x="22.73" y="18.18" width="1.14" height="1.14" fill="#fff"/>
    <rect x="21.59" y="31.82" width="1.14" height="1.14" fill="#fff"/>
    <rect x="21.59" y="30.68" width="1.14" height="1.14" fill="#aa0707"/>
    <rect x="21.59" y="29.55" width="1.14" height="1.14" fill="#cc1d1d"/>
    <rect x="21.59" y="28.41" width="1.14" height="1.14" fill="#cc1d1d"/>
    <rect x="21.59" y="27.27" width="1.14" height="1.14" fill="#cc1d1d"/>
    <rect x="21.59" y="26.14" width="1.14" height="1.14" fill="#cc1d1d"/>
    <rect x="21.59" y="25" width="1.14" height="1.14" fill="#cc1d1d"/>
    <rect x="21.59" y="23.86" width="1.14" height="1.14" fill="#cc1d1d"/>
    <rect x="21.59" y="22.73" width="1.14" height="1.14" fill="#cc1d1d"/>
    <rect x="21.59" y="21.59" width="1.14" height="1.14" fill="#cc1d1d"/>
    <rect x="21.59" y="20.45" width="1.14" height="1.14" fill="#cc1d1d"/>
    <rect x="21.59" y="19.31" width="1.14" height="1.14" fill="#cc1d1d"/>
    <rect x="21.59" y="18.18" width="1.14" height="1.14" fill="#ef5454"/>
    <rect x="21.59" y="17.04" width="1.14" height="1.14" fill="#fff"/>
    <rect x="20.45" y="32.96" width="1.14" height="1.14" fill="#fff"/>
    <rect x="20.45" y="31.82" width="1.14" height="1.14" fill="#aa0707"/>
    <rect x="20.45" y="30.68" width="1.14" height="1.14" fill="#cc1d1d"/>
    <rect x="20.45" y="29.55" width="1.14" height="1.14" fill="#cc1d1d"/>
    <rect x="20.45" y="28.41" width="1.14" height="1.14" fill="#cc1d1d"/>
    <rect x="20.45" y="27.27" width="1.14" height="1.14" fill="#cc1d1d"/>
    <rect x="20.45" y="26.14" width="1.14" height="1.14" fill="#cc1d1d"/>
    <rect x="20.45" y="25" width="1.14" height="1.14" fill="#aa0707"/>
    <rect x="20.45" y="23.86" width="1.14" height="1.14" fill="#aa0707"/>
    <rect x="20.45" y="22.73" width="1.14" height="1.14" fill="#cc1d1d"/>
    <rect x="20.45" y="21.59" width="1.14" height="1.14" fill="#cc1d1d"/>
    <rect x="20.45" y="20.45" width="1.14" height="1.14" fill="#cc1d1d"/>
    <rect x="20.45" y="19.31" width="1.14" height="1.14" fill="#cc1d1d"/>
    <rect x="20.45" y="18.18" width="1.14" height="1.14" fill="#cc1d1d"/>
    <rect x="20.45" y="17.04" width="1.14" height="1.14" fill="#ef5454"/>
    <rect x="20.45" y="15.9" width="1.14" height="1.14" fill="#fff"/>
    <rect x="19.32" y="34.1" width="1.14" height="1.14" fill="#fff"/>
    <rect x="19.32" y="32.96" width="1.14" height="1.14" fill="#aa0707"/>
    <rect x="19.32" y="31.82" width="1.14" height="1.14" fill="#cc1d1d"/>
    <rect x="19.32" y="30.68" width="1.14" height="1.14" fill="#cc1d1d"/>
    <rect x="19.32" y="29.55" width="1.14" height="1.14" fill="#cc1d1d"/>
    <rect x="19.32" y="28.41" width="1.14" height="1.14" fill="#cc1d1d"/>
    <rect x="19.32" y="27.27" width="1.14" height="1.14" fill="#cc1d1d"/>
    <rect x="19.32" y="26.14" width="1.14" height="1.14" fill="#ef5454"/>
    <rect x="19.32" y="25" width="1.14" height="1.14" fill="#fff"/>
    <rect x="19.32" y="23.86" width="1.14" height="1.14" fill="#fff"/>
    <rect x="19.32" y="22.73" width="1.14" height="1.14" fill="#aa0707"/>
    <rect x="19.32" y="21.59" width="1.14" height="1.14" fill="#cc1d1d"/>
    <rect x="19.32" y="20.45" width="1.14" height="1.14" fill="#cc1d1d"/>
    <rect x="19.32" y="19.31" width="1.14" height="1.14" fill="#cc1d1d"/>
    <rect x="19.32" y="18.18" width="1.14" height="1.14" fill="#cc1d1d"/>
    <rect x="19.32" y="17.04" width="1.14" height="1.14" fill="#cc1d1d"/>
    <rect x="19.32" y="15.9" width="1.14" height="1.14" fill="#ef5454"/>
    <rect x="19.32" y="14.77" width="1.14" height="1.14" fill="#fff"/>
    <rect x="18.18" y="35.23" width="1.14" height="1.14" fill="#fff"/>
    <rect x="18.18" y="34.1" width="1.14" height="1.14" fill="#aa0707"/>
    <rect x="18.18" y="32.96" width="1.14" height="1.14" fill="#cc1d1d"/>
    <rect x="18.18" y="31.82" width="1.14" height="1.14" fill="#cc1d1d"/>
    <rect x="18.18" y="30.68" width="1.14" height="1.14" fill="#cc1d1d"/>
    <rect x="18.18" y="29.55" width="1.14" height="1.14" fill="#cc1d1d"/>
    <rect x="18.18" y="28.41" width="1.14" height="1.14" fill="#cc1d1d"/>
    <rect x="18.18" y="27.27" width="1.14" height="1.14" fill="#ef5454"/>
    <rect x="18.18" y="26.14" width="1.14" height="1.14" fill="#fff"/>
    <rect x="18.18" y="22.73" width="1.14" height="1.14" fill="#fff"/>
    <rect x="18.18" y="21.59" width="1.14" height="1.14" fill="#aa0707"/>
    <rect x="18.18" y="20.45" width="1.14" height="1.14" fill="#cc1d1d"/>
    <rect x="18.18" y="19.31" width="1.14" height="1.14" fill="#cc1d1d"/>
    <rect x="18.18" y="18.18" width="1.14" height="1.14" fill="#cc1d1d"/>
    <rect x="18.18" y="17.04" width="1.14" height="1.14" fill="#cc1d1d"/>
    <rect x="18.18" y="15.9" width="1.14" height="1.14" fill="#cc1d1d"/>
    <rect x="18.18" y="14.77" width="1.14" height="1.14" fill="#ef5454"/>
    <rect x="18.18" y="13.63" width="1.14" height="1.14" fill="#fff"/>
    <rect x="17.04" y="36.37" width="1.14" height="1.14" fill="#fff"/>
    <rect x="17.04" y="35.23" width="1.14" height="1.14" fill="#aa0707"/>
    <rect x="17.04" y="34.1" width="1.14" height="1.14" fill="#cc1d1d"/>
    <rect x="17.04" y="32.96" width="1.14" height="1.14" fill="#cc1d1d"/>
    <rect x="17.04" y="31.82" width="1.14" height="1.14" fill="#cc1d1d"/>
    <rect x="17.04" y="30.68" width="1.14" height="1.14" fill="#cc1d1d"/>
    <rect x="17.04" y="29.55" width="1.14" height="1.14" fill="#cc1d1d"/>
    <rect x="17.04" y="28.41" width="1.14" height="1.14" fill="#ef5454"/>
    <rect x="17.04" y="27.27" width="1.14" height="1.14" fill="#fff"/>
    <rect x="17.04" y="21.59" width="1.14" height="1.14" fill="#fff"/>
    <rect x="17.04" y="20.45" width="1.14" height="1.14" fill="#aa0707"/>
    <rect x="17.04" y="19.31" width="1.14" height="1.14" fill="#cc1d1d"/>
    <rect x="17.04" y="18.18" width="1.14" height="1.14" fill="#cc1d1d"/>
    <rect x="17.04" y="17.04" width="1.14" height="1.14" fill="#cc1d1d"/>
    <rect x="17.04" y="15.9" width="1.14" height="1.14" fill="#cc1d1d"/>
    <rect x="17.04" y="14.77" width="1.14" height="1.14" fill="#cc1d1d"/>
    <rect x="17.04" y="13.63" width="1.14" height="1.14" fill="#ef5454"/>
    <rect x="17.04" y="12.49" width="1.14" height="1.14" fill="#fff"/>
    <rect x="15.9" y="37.51" width="1.14" height="1.14" fill="#fff"/>
    <rect x="15.9" y="36.37" width="1.14" height="1.14" fill="#aa0707"/>
    <rect x="15.9" y="35.23" width="1.14" height="1.14" fill="#cc1d1d"/>
    <rect x="15.9" y="34.1" width="1.14" height="1.14" fill="#cc1d1d"/>
    <rect x="15.9" y="32.96" width="1.14" height="1.14" fill="#cc1d1d"/>
    <rect x="15.9" y="31.82" width="1.14" height="1.14" fill="#cc1d1d"/>
    <rect x="15.9" y="30.68" width="1.14" height="1.14" fill="#cc1d1d"/>
    <rect x="15.9" y="29.55" width="1.14" height="1.14" fill="#ef5454"/>
    <rect x="15.9" y="28.41" width="1.14" height="1.14" fill="#fff"/>
    <rect x="15.9" y="20.45" width="1.14" height="1.14" fill="#fff"/>
    <rect x="15.9" y="19.31" width="1.14" height="1.14" fill="#aa0707"/>
    <rect x="15.9" y="18.18" width="1.14" height="1.14" fill="#cc1d1d"/>
    <rect x="15.9" y="17.04" width="1.14" height="1.14" fill="#cc1d1d"/>
    <rect x="15.9" y="15.9" width="1.14" height="1.14" fill="#cc1d1d"/>
    <rect x="15.9" y="14.77" width="1.14" height="1.14" fill="#cc1d1d"/>
    <rect x="15.9" y="13.63" width="1.14" height="1.14" fill="#cc1d1d"/>
    <rect x="15.9" y="12.49" width="1.14" height="1.14" fill="#ef5454"/>
    <rect x="15.9" y="11.36" width="1.14" height="1.14" fill="#fff"/>
    <rect x="14.77" y="38.64" width="1.14" height="1.14" fill="#fff"/>
    <rect x="14.77" y="37.51" width="1.14" height="1.14" fill="#aa0707"/>
    <rect x="14.77" y="36.37" width="1.14" height="1.14" fill="#cc1d1d"/>
    <rect x="14.77" y="35.23" width="1.14" height="1.14" fill="#cc1d1d"/>
    <rect x="14.77" y="34.1" width="1.14" height="1.14" fill="#cc1d1d"/>
    <rect x="14.77" y="32.96" width="1.14" height="1.14" fill="#cc1d1d"/>
    <rect x="14.77" y="31.82" width="1.14" height="1.14" fill="#cc1d1d"/>
    <rect x="14.77" y="30.68" width="1.14" height="1.14" fill="#ef5454"/>
    <rect x="14.77" y="29.55" width="1.14" height="1.14" fill="#fff"/>
    <rect x="14.77" y="19.31" width="1.14" height="1.14" fill="#fff"/>
    <rect x="14.77" y="18.18" width="1.14" height="1.14" fill="#aa0707"/>
    <rect x="14.77" y="17.04" width="1.14" height="1.14" fill="#cc1d1d"/>
    <rect x="14.77" y="15.9" width="1.14" height="1.14" fill="#cc1d1d"/>
    <rect x="14.77" y="14.77" width="1.14" height="1.14" fill="#cc1d1d"/>
    <rect x="14.77" y="13.63" width="1.14" height="1.14" fill="#cc1d1d"/>
    <rect x="14.77" y="12.49" width="1.14" height="1.14" fill="#cc1d1d"/>
    <rect x="14.77" y="11.36" width="1.14" height="1.14" fill="#ef5454"/>
    <rect x="14.77" y="10.22" width="1.14" height="1.14" fill="#fff"/>
    <rect x="13.63" y="39.78" width="1.14" height="1.14" fill="#fff"/>
    <rect x="13.63" y="38.64" width="1.14" height="1.14" fill="#aa0707"/>
    <rect x="13.63" y="37.51" width="1.14" height="1.14" fill="#cc1d1d"/>
    <rect x="13.63" y="36.37" width="1.14" height="1.14" fill="#cc1d1d"/>
    <rect x="13.63" y="35.23" width="1.14" height="1.14" fill="#cc1d1d"/>
    <rect x="13.63" y="34.1" width="1.14" height="1.14" fill="#cc1d1d"/>
    <rect x="13.63" y="32.96" width="1.14" height="1.14" fill="#cc1d1d"/>
    <rect x="13.63" y="31.82" width="1.14" height="1.14" fill="#ef5454"/>
    <rect x="13.63" y="30.68" width="1.14" height="1.14" fill="#fff"/>
    <rect x="13.63" y="18.18" width="1.14" height="1.14" fill="#fff"/>
    <rect x="13.63" y="17.04" width="1.14" height="1.14" fill="#aa0707"/>
    <rect x="13.63" y="15.9" width="1.14" height="1.14" fill="#cc1d1d"/>
    <rect x="13.63" y="14.77" width="1.14" height="1.14" fill="#cc1d1d"/>
    <rect x="13.63" y="13.63" width="1.14" height="1.14" fill="#cc1d1d"/>
    <rect x="13.63" y="12.49" width="1.14" height="1.14" fill="#cc1d1d"/>
    <rect x="13.63" y="11.36" width="1.14" height="1.14" fill="#cc1d1d"/>
    <rect x="13.63" y="10.22" width="1.14" height="1.14" fill="#ef5454"/>
    <rect x="13.63" y="9.08" width="1.14" height="1.14" fill="#fff"/>
    <rect x="12.49" y="40.92" width="1.14" height="1.14" fill="#fff"/>
    <rect x="12.49" y="39.78" width="1.14" height="1.14" fill="#aa0707"/>
    <rect x="12.49" y="38.64" width="1.14" height="1.14" fill="#cc1d1d"/>
    <rect x="12.49" y="37.51" width="1.14" height="1.14" fill="#cc1d1d"/>
    <rect x="12.49" y="36.37" width="1.14" height="1.14" fill="#cc1d1d"/>
    <rect x="12.49" y="35.23" width="1.14" height="1.14" fill="#cc1d1d"/>
    <rect x="12.49" y="34.1" width="1.14" height="1.14" fill="#cc1d1d"/>
    <rect x="12.49" y="32.96" width="1.14" height="1.14" fill="#ef5454"/>
    <rect x="12.49" y="31.82" width="1.14" height="1.14" fill="#fff"/>
    <rect x="12.49" y="17.04" width="1.14" height="1.14" fill="#fff"/>
    <rect x="12.49" y="15.9" width="1.14" height="1.14" fill="#aa0707"/>
    <rect x="12.49" y="14.77" width="1.14" height="1.14" fill="#cc1d1d"/>
    <rect x="12.49" y="13.63" width="1.14" height="1.14" fill="#cc1d1d"/>
    <rect x="12.49" y="12.49" width="1.14" height="1.14" fill="#cc1d1d"/>
    <rect x="12.49" y="11.36" width="1.14" height="1.14" fill="#cc1d1d"/>
    <rect x="12.49" y="10.22" width="1.14" height="1.14" fill="#cc1d1d"/>
    <rect x="12.49" y="9.08" width="1.14" height="1.14" fill="#ef5454"/>
    <rect x="12.49" y="7.95" width="1.14" height="1.14" fill="#fff"/>
    <rect x="11.36" y="40.92" width="1.14" height="1.14" fill="#fff"/>
    <rect x="11.36" y="39.78" width="1.14" height="1.14" fill="#aa0707"/>
    <rect x="11.36" y="38.64" width="1.14" height="1.14" fill="#cc1d1d"/>
    <rect x="11.36" y="37.51" width="1.14" height="1.14" fill="#cc1d1d"/>
    <rect x="11.36" y="36.37" width="1.14" height="1.14" fill="#cc1d1d"/>
    <rect x="11.36" y="35.23" width="1.14" height="1.14" fill="#cc1d1d"/>
    <rect x="11.36" y="34.1" width="1.14" height="1.14" fill="#ef5454"/>
    <rect x="11.36" y="32.96" width="1.14" height="1.14" fill="#fff"/>
    <rect x="11.36" y="15.9" width="1.14" height="1.14" fill="#fff"/>
    <rect x="11.36" y="14.77" width="1.14" height="1.14" fill="#aa0707"/>
    <rect x="11.36" y="13.63" width="1.14" height="1.14" fill="#cc1d1d"/>
    <rect x="11.36" y="12.49" width="1.14" height="1.14" fill="#cc1d1d"/>
    <rect x="11.36" y="11.36" width="1.14" height="1.14" fill="#cc1d1d"/>
    <rect x="11.36" y="10.22" width="1.14" height="1.14" fill="#cc1d1d"/>
    <rect x="11.36" y="9.08" width="1.14" height="1.14" fill="#ef5454"/>
    <rect x="11.36" y="7.95" width="1.14" height="1.14" fill="#fff"/>
    <rect x="10.22" y="39.78" width="1.14" height="1.14" fill="#fff"/>
    <rect x="10.22" y="38.64" width="1.14" height="1.14" fill="#aa0707"/>
    <rect x="10.22" y="37.51" width="1.14" height="1.14" fill="#cc1d1d"/>
    <rect x="10.22" y="36.37" width="1.14" height="1.14" fill="#cc1d1d"/>
    <rect x="10.22" y="35.23" width="1.14" height="1.14" fill="#ef5454"/>
    <rect x="10.22" y="34.1" width="1.14" height="1.14" fill="#fff"/>
    <rect x="10.22" y="14.77" width="1.14" height="1.14" fill="#fff"/>
    <rect x="10.22" y="13.63" width="1.14" height="1.14" fill="#aa0707"/>
    <rect x="10.22" y="12.49" width="1.14" height="1.14" fill="#cc1d1d"/>
    <rect x="10.22" y="11.36" width="1.14" height="1.14" fill="#cc1d1d"/>
    <rect x="10.22" y="10.22" width="1.14" height="1.14" fill="#ef5454"/>
    <rect x="10.22" y="9.08" width="1.14" height="1.14" fill="#fff"/>
    <rect x="9.08" y="38.64" width="1.14" height="1.14" fill="#fff"/>
    <rect x="9.08" y="37.51" width="1.14" height="1.14" fill="#aa0707"/>
    <rect x="9.08" y="36.37" width="1.14" height="1.14" fill="#ef5454"/>
    <rect x="9.08" y="35.23" width="1.14" height="1.14" fill="#fff"/>
    <rect x="9.08" y="13.63" width="1.14" height="1.14" fill="#fff"/>
    <rect x="9.08" y="12.49" width="1.14" height="1.14" fill="#aa0707"/>
    <rect x="9.08" y="11.36" width="1.14" height="1.14" fill="#ef5454"/>
    <rect x="9.08" y="10.22" width="1.14" height="1.14" fill="#fff"/>
    <rect x="7.95" y="37.51" width="1.14" height="1.14" fill="#fff"/>
    <rect x="7.95" y="36.37" width="1.14" height="1.14" fill="#fff"/>
    <rect x="7.95" y="12.49" width="1.14" height="1.14" fill="#fff"/>
    <rect x="7.95" y="11.36" width="1.14" height="1.14" fill="#fff"/>
  </g>
</svg>
