<svg id="Capa_1" data-name="Capa 1" xmlns="http://www.w3.org/2000/svg" xmlns:xlink="http://www.w3.org/1999/xlink" width="50" height="50" viewBox="0 0 50 50">
  <defs>
    <clipPath id="clip-path">
      <polygon points="24.04 49.76 1.26 39.47 1.42 9.18 24.2 19.47 24.04 49.76" fill="none"/>
    </clipPath>
    <clipPath id="clip-path-2">
      <polygon points="24.2 19.47 1.42 9.18 25.96 0.24 48.75 10.53 24.2 19.47" fill="none"/>
    </clipPath>
    <clipPath id="clip-path-3">
      <polygon points="48.75 10.53 48.59 40.83 24.04 49.76 24.2 19.47 48.75 10.53" fill="none"/>
    </clipPath>
  </defs>
  <g id="Figment_lido">
    <g style="isolation: isolate">
      <g>
        <polygon points="24.04 49.76 1.26 39.47 1.42 9.18 24.2 19.47 24.04 49.76" fill="#1d3762"/>
        <g style="isolation: isolate">
          <g clip-path="url(#clip-path)">
            <g>
              <path d="M12.75,20.07a3.29,3.29,0,0,0-.44-.16,2,2,0,0,0-2.6,1.49,6,6,0,0,0,.49,4.68c1.26,2.7,2.55,5.41,3.82,8.1a3.75,3.75,0,0,1,.38,2.07c-.13,1.1-.88,1.66-1.75,1.28h0a3.65,3.65,0,0,1-1.75-2.77c0-.24,0-.46,0-.69-.38,0-.73,0-1.08-.07s-.4,0-.32.51c.31,2.24,1.65,4.29,3.16,5a3,3,0,0,0,.68.21c2.36.41,3.38-3,1.87-6.2C14.57,32.22,14,31,13.38,29.71c-.7-1.49-1.42-3-2.11-4.49a3.12,3.12,0,0,1-.16-2.63,1.08,1.08,0,0,1,1.58-.6l.09,0a3.3,3.3,0,0,1,1.57,2.25,9,9,0,0,1,.16,1.09c.46.06.91.1,1.4.15,0-.19,0-.4-.05-.61-.27-2-1.56-4.14-3.11-4.84" fill="#edb500" opacity="0.8"/>
              <path d="M8.89,23.24a2.09,2.09,0,0,0-2.46.48c-.94,1-1.2,2.53-.73,4.53a6.88,6.88,0,0,0,2.85,4.4,3.51,3.51,0,0,0,.56.31c1.38.63,2.4,0,3.25-1.17l-.95-2c-.3.32-.59.64-.88.93A1.28,1.28,0,0,1,9,30.89a2.79,2.79,0,0,1-.86-.65A4.64,4.64,0,0,1,7,26.83c.09-1.08.77-1.75,1.62-1.59a4.32,4.32,0,0,1,.72.23c-.16-.74-.31-1.47-.48-2.23" fill="#fff" opacity="0.8"/>
              <path d="M16.29,26.57l-.3-.12c-1.34-.44-2.26.19-3,1.26l.95,2c.32-.34.61-.66.93-.95a1.22,1.22,0,0,1,1.42-.16,3,3,0,0,1,1.07.88A4.52,4.52,0,0,1,18.25,33c-.25,1.11-1,1.59-2,1.19L15.94,34c.17.76.33,1.48.49,2.26a5.62,5.62,0,0,0,.62.15c1.8.25,3-1.6,2.74-4.15s-1.76-4.91-3.5-5.7" fill="#fff" opacity="0.8"/>
            </g>
          </g>
        </g>
      </g>
      <g>
        <polygon points="24.2 19.47 1.42 9.18 25.96 0.24 48.75 10.53 24.2 19.47" fill="#203c6c"/>
        <g style="isolation: isolate">
          <g clip-path="url(#clip-path-2)">
            <g>
              <path d="M17.77,6.21l-.49.21C16,7,15.63,7.74,16.3,8.5s2.12,1.25,4.15,1.38l9.67.61a4.33,4.33,0,0,1,2,.51c.77.47.6,1.11-.42,1.5h0a6.45,6.45,0,0,1-3.67.05l-.58-.22c-.33.21-.62.42-.95.61s-.36.23.14.37a11.62,11.62,0,0,0,6.62-.11,4.76,4.76,0,0,0,.72-.33c2.29-1.26.44-3.07-3.4-3.32L26,9.28c-1.78-.12-3.57-.22-5.35-.35a2.91,2.91,0,0,1-2.24-.84c-.3-.46,0-.85.84-1.15l.1,0a6.06,6.06,0,0,1,3.1-.14c.38.08.7.2,1,.29l1.29-.77-.53-.19a11.64,11.64,0,0,0-6.46.12" fill="#edb500" opacity="0.8"/>
              <path d="M17.09,9.64c-1.09.45-1.68,1-1.66,1.64,0,.91,1,1.61,3,2.05a12.44,12.44,0,0,0,5.89-.13c.26-.07.5-.14.72-.22,1.65-.6,2-1.43,1.76-2.35-.79-.06-1.58-.11-2.39-.15,0,.29,0,.57,0,.85s-.43.71-1.09.95a5.72,5.72,0,0,1-1.23.28A6.45,6.45,0,0,1,18.42,12c-.78-.44-.76-1.08.08-1.54.23-.12.53-.23.78-.34l-2.19-.51" fill="#fff" opacity="0.8"/>
              <path d="M25.92,6.42l-.35.14C24.1,7.2,23.85,8,24.06,8.81L26.45,9a8.74,8.74,0,0,1,0-.89c0-.36.43-.67,1.05-.9a6.51,6.51,0,0,1,1.6-.33,5.75,5.75,0,0,1,3.55.7c.69.54.41,1.19-.69,1.6l-.39.14,2.22.52c.19-.1.43-.2.63-.32,1.7-1,1.23-2.36-1-3.11a12.83,12.83,0,0,0-7.47,0" fill="#fff" opacity="0.8"/>
            </g>
          </g>
        </g>
      </g>
      <g>
        <polygon points="48.75 10.53 48.59 40.83 24.04 49.76 24.2 19.47 48.75 10.53" fill="#213d6e"/>
        <g style="isolation: isolate">
          <g clip-path="url(#clip-path-3)">
            <g>
              <path d="M37,20.19a3.22,3.22,0,0,0-.5.23,6.09,6.09,0,0,0-3,3.8c-.56,1.84-.36,3.32.56,4.35,1.43,1.66,2.89,3.3,4.33,5a2.2,2.2,0,0,1,.43,1.78,3.61,3.61,0,0,1-2,2.84h0a1.45,1.45,0,0,1-2-1.31c0-.22,0-.45,0-.67-.43.31-.82.61-1.22.86s-.46.32-.37.81c.36,2,1.88,2.94,3.59,2.31a3.79,3.79,0,0,0,.76-.37c2.68-1.65,3.83-6,2.12-8-.67-.77-1.35-1.52-2-2.29-.79-.92-1.61-1.81-2.39-2.75a2.52,2.52,0,0,1-.18-2.55,3.16,3.16,0,0,1,1.79-2l.1,0a1.29,1.29,0,0,1,1.77.92,5.54,5.54,0,0,1,.19,1L40.59,23c0-.18,0-.39-.06-.58A2.57,2.57,0,0,0,37,20.19" fill="#edb500" opacity="0.8"/>
              <path d="M32.65,26.81a6,6,0,0,0-2.79,2.64A6.39,6.39,0,0,0,29,34.72a2.61,2.61,0,0,0,3.22,2,3.58,3.58,0,0,0,.64-.18c1.56-.57,2.72-2.08,3.67-4-.35-.41-.7-.82-1.07-1.23-.34.59-.66,1.17-1,1.72a3.46,3.46,0,0,1-1.68,1.48,1.72,1.72,0,0,1-1,.09c-.92-.2-1.43-1.16-1.31-2.48a4.24,4.24,0,0,1,1.84-3.05,7.41,7.41,0,0,1,.81-.39c-.18-.61-.35-1.23-.54-1.86" fill="#fff" opacity="0.8"/>
              <path d="M41,23.75l-.34.14a7.91,7.91,0,0,0-3.43,3.94L38.33,29c.36-.62.69-1.21,1.05-1.78A3.27,3.27,0,0,1,41,25.86a1.8,1.8,0,0,1,1.21,0c.87.29,1.31,1.45,1,2.76a4.06,4.06,0,0,1-2.24,3l-.37.13c.19.63.36,1.23.55,1.88a6.82,6.82,0,0,0,3.8-7c-.31-2.33-2-3.47-4-2.76" fill="#fff" opacity="0.8"/>
            </g>
          </g>
        </g>
      </g>
    </g>
  </g>
  <g>
    <rect x="46.2" y="41.66" width="1.51" height="1.52" fill="#fff"/>
    <rect x="46.2" y="40.15" width="1.51" height="1.51" fill="#fff"/>
    <rect x="46.2" y="8.34" width="1.51" height="1.52" fill="#fff"/>
    <rect x="46.2" y="6.82" width="1.51" height="1.51" fill="#fff"/>
    <rect x="44.69" y="43.18" width="1.52" height="1.51" fill="#fff"/>
    <rect x="44.69" y="41.66" width="1.52" height="1.52" fill="#ef5454"/>
    <rect x="44.69" y="40.15" width="1.52" height="1.51" fill="#ef5454"/>
    <rect x="44.69" y="38.63" width="1.52" height="1.52" fill="#fff"/>
    <rect x="44.69" y="9.85" width="1.52" height="1.51" fill="#fff"/>
    <rect x="44.69" y="8.34" width="1.52" height="1.52" fill="#aa0707"/>
    <rect x="44.69" y="6.82" width="1.52" height="1.51" fill="#ef5454"/>
    <rect x="44.69" y="5.31" width="1.52" height="1.52" fill="#fff"/>
    <rect x="43.18" y="44.69" width="1.51" height="1.52" fill="#fff"/>
    <rect x="43.18" y="43.18" width="1.51" height="1.51" fill="#aa0707"/>
    <rect x="43.18" y="41.66" width="1.51" height="1.52" fill="#cc1d1d"/>
    <rect x="43.18" y="40.15" width="1.51" height="1.51" fill="#cc1d1d"/>
    <rect x="43.18" y="38.63" width="1.51" height="1.52" fill="#ef5454"/>
    <rect x="43.18" y="37.12" width="1.51" height="1.51" fill="#fff"/>
    <rect x="43.18" y="11.37" width="1.51" height="1.52" fill="#fff"/>
    <rect x="43.18" y="9.85" width="1.51" height="1.51" fill="#aa0707"/>
    <rect x="43.18" y="8.34" width="1.51" height="1.52" fill="#cc1d1d"/>
    <rect x="43.18" y="6.82" width="1.51" height="1.51" fill="#cc1d1d"/>
    <rect x="43.18" y="5.31" width="1.51" height="1.52" fill="#ef5454"/>
    <rect x="43.18" y="3.8" width="1.51" height="1.51" fill="#fff"/>
    <rect x="41.66" y="46.21" width="1.51" height="1.51" fill="#fff"/>
    <rect x="41.66" y="44.69" width="1.51" height="1.52" fill="#aa0707"/>
    <rect x="41.66" y="43.18" width="1.51" height="1.51" fill="#cc1d1d"/>
    <rect x="41.66" y="41.66" width="1.51" height="1.52" fill="#cc1d1d"/>
    <rect x="41.66" y="40.15" width="1.51" height="1.51" fill="#cc1d1d"/>
    <rect x="41.66" y="38.63" width="1.51" height="1.52" fill="#cc1d1d"/>
    <rect x="41.66" y="37.12" width="1.51" height="1.51" fill="#ef5454"/>
    <rect x="41.66" y="35.6" width="1.51" height="1.51" fill="#fff"/>
    <rect x="41.66" y="12.88" width="1.51" height="1.51" fill="#fff"/>
    <rect x="41.66" y="11.37" width="1.51" height="1.52" fill="#aa0707"/>
    <rect x="41.66" y="9.85" width="1.51" height="1.51" fill="#cc1d1d"/>
    <rect x="41.66" y="8.34" width="1.51" height="1.52" fill="#cc1d1d"/>
    <rect x="41.66" y="6.82" width="1.51" height="1.51" fill="#cc1d1d"/>
    <rect x="41.66" y="5.31" width="1.51" height="1.52" fill="#cc1d1d"/>
    <rect x="41.66" y="3.8" width="1.51" height="1.51" fill="#ef5454"/>
    <rect x="41.66" y="2.28" width="1.51" height="1.52" fill="#fff"/>
    <rect x="40.15" y="46.21" width="1.52" height="1.51" fill="#fff"/>
    <rect x="40.15" y="44.69" width="1.52" height="1.52" fill="#aa0707"/>
    <rect x="40.15" y="43.18" width="1.52" height="1.51" fill="#cc1d1d"/>
    <rect x="40.15" y="41.66" width="1.52" height="1.52" fill="#cc1d1d"/>
    <rect x="40.15" y="40.15" width="1.52" height="1.51" fill="#cc1d1d"/>
    <rect x="40.15" y="38.63" width="1.52" height="1.52" fill="#cc1d1d"/>
    <rect x="40.15" y="37.12" width="1.52" height="1.51" fill="#cc1d1d"/>
    <rect x="40.15" y="35.6" width="1.52" height="1.51" fill="#ef5454"/>
    <rect x="40.15" y="34.09" width="1.52" height="1.52" fill="#fff"/>
    <rect x="40.15" y="14.4" width="1.52" height="1.52" fill="#fff"/>
    <rect x="40.15" y="12.88" width="1.52" height="1.51" fill="#aa0707"/>
    <rect x="40.15" y="11.37" width="1.52" height="1.52" fill="#cc1d1d"/>
    <rect x="40.15" y="9.85" width="1.52" height="1.51" fill="#cc1d1d"/>
    <rect x="40.15" y="8.34" width="1.52" height="1.52" fill="#cc1d1d"/>
    <rect x="40.15" y="6.82" width="1.52" height="1.51" fill="#cc1d1d"/>
    <rect x="40.15" y="5.31" width="1.52" height="1.52" fill="#cc1d1d"/>
    <rect x="40.15" y="3.8" width="1.52" height="1.51" fill="#ef5454"/>
    <rect x="40.15" y="2.28" width="1.52" height="1.52" fill="#fff"/>
    <rect x="38.63" y="44.69" width="1.51" height="1.52" fill="#fff"/>
    <rect x="38.63" y="43.18" width="1.51" height="1.51" fill="#aa0707"/>
    <rect x="38.63" y="41.66" width="1.51" height="1.52" fill="#cc1d1d"/>
    <rect x="38.63" y="40.15" width="1.51" height="1.51" fill="#cc1d1d"/>
    <rect x="38.63" y="38.63" width="1.51" height="1.52" fill="#cc1d1d"/>
    <rect x="38.63" y="37.12" width="1.51" height="1.51" fill="#cc1d1d"/>
    <rect x="38.63" y="35.6" width="1.51" height="1.51" fill="#cc1d1d"/>
    <rect x="38.63" y="34.09" width="1.51" height="1.52" fill="#ef5454"/>
    <rect x="38.63" y="32.57" width="1.51" height="1.51" fill="#fff"/>
    <rect x="38.63" y="15.91" width="1.51" height="1.51" fill="#fff"/>
    <rect x="38.63" y="14.4" width="1.51" height="1.52" fill="#aa0707"/>
    <rect x="38.63" y="12.88" width="1.51" height="1.51" fill="#cc1d1d"/>
    <rect x="38.63" y="11.37" width="1.51" height="1.52" fill="#cc1d1d"/>
    <rect x="38.63" y="9.85" width="1.51" height="1.51" fill="#cc1d1d"/>
    <rect x="38.63" y="8.34" width="1.51" height="1.52" fill="#cc1d1d"/>
    <rect x="38.63" y="6.82" width="1.51" height="1.51" fill="#cc1d1d"/>
    <rect x="38.63" y="5.31" width="1.51" height="1.52" fill="#ef5454"/>
    <rect x="38.63" y="3.8" width="1.51" height="1.51" fill="#fff"/>
    <rect x="37.12" y="43.18" width="1.52" height="1.51" fill="#fff"/>
    <rect x="37.12" y="41.66" width="1.52" height="1.52" fill="#aa0707"/>
    <rect x="37.12" y="40.15" width="1.52" height="1.51" fill="#cc1d1d"/>
    <rect x="37.12" y="38.63" width="1.52" height="1.52" fill="#cc1d1d"/>
    <rect x="37.12" y="37.12" width="1.52" height="1.51" fill="#cc1d1d"/>
    <rect x="37.12" y="35.6" width="1.52" height="1.51" fill="#cc1d1d"/>
    <rect x="37.12" y="34.09" width="1.52" height="1.52" fill="#cc1d1d"/>
    <rect x="37.12" y="32.57" width="1.52" height="1.51" fill="#ef5454"/>
    <rect x="37.12" y="31.06" width="1.52" height="1.52" fill="#fff"/>
    <rect x="37.12" y="17.43" width="1.52" height="1.52" fill="#fff"/>
    <rect x="37.12" y="15.91" width="1.52" height="1.51" fill="#aa0707"/>
    <rect x="37.12" y="14.4" width="1.52" height="1.52" fill="#cc1d1d"/>
    <rect x="37.12" y="12.88" width="1.52" height="1.51" fill="#cc1d1d"/>
    <rect x="37.12" y="11.37" width="1.52" height="1.52" fill="#cc1d1d"/>
    <rect x="37.12" y="9.85" width="1.52" height="1.51" fill="#cc1d1d"/>
    <rect x="37.12" y="8.34" width="1.52" height="1.52" fill="#cc1d1d"/>
    <rect x="37.12" y="6.82" width="1.52" height="1.51" fill="#ef5454"/>
    <rect x="37.12" y="5.31" width="1.52" height="1.52" fill="#fff"/>
    <rect x="35.6" y="41.66" width="1.51" height="1.52" fill="#fff"/>
    <rect x="35.6" y="40.15" width="1.51" height="1.51" fill="#aa0707"/>
    <rect x="35.6" y="38.63" width="1.51" height="1.52" fill="#cc1d1d"/>
    <rect x="35.6" y="37.12" width="1.51" height="1.51" fill="#cc1d1d"/>
    <rect x="35.6" y="35.6" width="1.51" height="1.51" fill="#cc1d1d"/>
    <rect x="35.6" y="34.09" width="1.51" height="1.52" fill="#cc1d1d"/>
    <rect x="35.6" y="32.57" width="1.51" height="1.51" fill="#cc1d1d"/>
    <rect x="35.6" y="31.06" width="1.51" height="1.52" fill="#ef5454"/>
    <rect x="35.6" y="29.54" width="1.51" height="1.51" fill="#fff"/>
    <rect x="35.6" y="18.94" width="1.51" height="1.51" fill="#fff"/>
    <rect x="35.6" y="17.43" width="1.51" height="1.52" fill="#aa0707"/>
    <rect x="35.6" y="15.91" width="1.51" height="1.51" fill="#cc1d1d"/>
    <rect x="35.6" y="14.4" width="1.51" height="1.52" fill="#cc1d1d"/>
    <rect x="35.6" y="12.88" width="1.51" height="1.51" fill="#cc1d1d"/>
    <rect x="35.6" y="11.37" width="1.51" height="1.52" fill="#cc1d1d"/>
    <rect x="35.6" y="9.85" width="1.51" height="1.51" fill="#cc1d1d"/>
    <rect x="35.6" y="8.34" width="1.51" height="1.52" fill="#ef5454"/>
    <rect x="35.6" y="6.82" width="1.51" height="1.51" fill="#fff"/>
    <rect x="34.09" y="40.15" width="1.52" height="1.51" fill="#fff"/>
    <rect x="34.09" y="38.63" width="1.52" height="1.52" fill="#aa0707"/>
    <rect x="34.09" y="37.12" width="1.52" height="1.51" fill="#cc1d1d"/>
    <rect x="34.09" y="35.6" width="1.52" height="1.51" fill="#cc1d1d"/>
    <rect x="34.09" y="34.09" width="1.52" height="1.52" fill="#cc1d1d"/>
    <rect x="34.09" y="32.57" width="1.52" height="1.51" fill="#cc1d1d"/>
    <rect x="34.09" y="31.06" width="1.52" height="1.52" fill="#cc1d1d"/>
    <rect x="34.09" y="29.54" width="1.52" height="1.51" fill="#ef5454"/>
    <rect x="34.09" y="28.03" width="1.52" height="1.52" fill="#fff"/>
    <rect x="34.09" y="20.46" width="1.52" height="1.51" fill="#fff"/>
    <rect x="34.09" y="18.94" width="1.52" height="1.51" fill="#aa0707"/>
    <rect x="34.09" y="17.43" width="1.52" height="1.52" fill="#cc1d1d"/>
    <rect x="34.09" y="15.91" width="1.52" height="1.51" fill="#cc1d1d"/>
    <rect x="34.09" y="14.4" width="1.52" height="1.52" fill="#cc1d1d"/>
    <rect x="34.09" y="12.88" width="1.52" height="1.51" fill="#cc1d1d"/>
    <rect x="34.09" y="11.37" width="1.52" height="1.52" fill="#cc1d1d"/>
    <rect x="34.09" y="9.85" width="1.52" height="1.51" fill="#ef5454"/>
    <rect x="34.09" y="8.34" width="1.52" height="1.52" fill="#fff"/>
    <rect x="32.57" y="38.63" width="1.51" height="1.52" fill="#fff"/>
    <rect x="32.57" y="37.12" width="1.51" height="1.51" fill="#aa0707"/>
    <rect x="32.57" y="35.6" width="1.51" height="1.51" fill="#cc1d1d"/>
    <rect x="32.57" y="34.09" width="1.51" height="1.52" fill="#cc1d1d"/>
    <rect x="32.57" y="32.57" width="1.51" height="1.51" fill="#cc1d1d"/>
    <rect x="32.57" y="31.06" width="1.51" height="1.52" fill="#cc1d1d"/>
    <rect x="32.57" y="29.54" width="1.51" height="1.51" fill="#cc1d1d"/>
    <rect x="32.57" y="28.03" width="1.51" height="1.52" fill="#ef5454"/>
    <rect x="32.57" y="26.51" width="1.51" height="1.51" fill="#fff"/>
    <rect x="32.57" y="21.97" width="1.51" height="1.52" fill="#fff"/>
    <rect x="32.57" y="20.46" width="1.51" height="1.51" fill="#aa0707"/>
    <rect x="32.57" y="18.94" width="1.51" height="1.51" fill="#cc1d1d"/>
    <rect x="32.57" y="17.43" width="1.51" height="1.52" fill="#cc1d1d"/>
    <rect x="32.57" y="15.91" width="1.51" height="1.51" fill="#cc1d1d"/>
    <rect x="32.57" y="14.4" width="1.51" height="1.52" fill="#cc1d1d"/>
    <rect x="32.57" y="12.88" width="1.51" height="1.51" fill="#cc1d1d"/>
    <rect x="32.57" y="11.37" width="1.51" height="1.52" fill="#ef5454"/>
    <rect x="32.57" y="9.85" width="1.51" height="1.51" fill="#fff"/>
    <rect x="31.06" y="37.12" width="1.52" height="1.51" fill="#fff"/>
    <rect x="31.06" y="35.6" width="1.52" height="1.51" fill="#aa0707"/>
    <rect x="31.06" y="34.09" width="1.52" height="1.52" fill="#cc1d1d"/>
    <rect x="31.06" y="32.57" width="1.52" height="1.51" fill="#cc1d1d"/>
    <rect x="31.06" y="31.06" width="1.52" height="1.52" fill="#cc1d1d"/>
    <rect x="31.06" y="29.54" width="1.52" height="1.51" fill="#cc1d1d"/>
    <rect x="31.06" y="28.03" width="1.52" height="1.52" fill="#cc1d1d"/>
    <rect x="31.06" y="26.51" width="1.52" height="1.51" fill="#ef5454"/>
    <rect x="31.06" y="25" width="1.52" height="1.52" fill="#fff"/>
    <rect x="31.06" y="23.49" width="1.52" height="1.51" fill="#fff"/>
    <rect x="31.06" y="21.97" width="1.52" height="1.52" fill="#aa0707"/>
    <rect x="31.06" y="20.46" width="1.52" height="1.51" fill="#cc1d1d"/>
    <rect x="31.06" y="18.94" width="1.52" height="1.51" fill="#cc1d1d"/>
    <rect x="31.06" y="17.43" width="1.52" height="1.52" fill="#cc1d1d"/>
    <rect x="31.06" y="15.91" width="1.52" height="1.51" fill="#cc1d1d"/>
    <rect x="31.06" y="14.4" width="1.52" height="1.52" fill="#cc1d1d"/>
    <rect x="31.06" y="12.88" width="1.52" height="1.51" fill="#ef5454"/>
    <rect x="31.06" y="11.37" width="1.52" height="1.52" fill="#fff"/>
    <rect x="29.54" y="35.6" width="1.51" height="1.51" fill="#fff"/>
    <rect x="29.54" y="34.09" width="1.51" height="1.52" fill="#aa0707"/>
    <rect x="29.54" y="32.57" width="1.51" height="1.51" fill="#cc1d1d"/>
    <rect x="29.54" y="31.06" width="1.51" height="1.52" fill="#cc1d1d"/>
    <rect x="29.54" y="29.54" width="1.51" height="1.51" fill="#cc1d1d"/>
    <rect x="29.54" y="28.03" width="1.51" height="1.52" fill="#cc1d1d"/>
    <rect x="29.54" y="26.51" width="1.51" height="1.51" fill="#cc1d1d"/>
    <rect x="29.54" y="25" width="1.51" height="1.52" fill="#aa0707"/>
    <rect x="29.54" y="23.49" width="1.51" height="1.51" fill="#aa0707"/>
    <rect x="29.54" y="21.97" width="1.51" height="1.52" fill="#cc1d1d"/>
    <rect x="29.54" y="20.46" width="1.51" height="1.51" fill="#cc1d1d"/>
    <rect x="29.54" y="18.94" width="1.51" height="1.51" fill="#cc1d1d"/>
    <rect x="29.54" y="17.43" width="1.51" height="1.52" fill="#cc1d1d"/>
    <rect x="29.54" y="15.91" width="1.51" height="1.51" fill="#cc1d1d"/>
    <rect x="29.54" y="14.4" width="1.51" height="1.52" fill="#ef5454"/>
    <rect x="29.54" y="12.88" width="1.51" height="1.51" fill="#fff"/>
    <rect x="28.03" y="34.09" width="1.52" height="1.52" fill="#fff"/>
    <rect x="28.03" y="32.57" width="1.52" height="1.51" fill="#aa0707"/>
    <rect x="28.03" y="31.06" width="1.52" height="1.52" fill="#cc1d1d"/>
    <rect x="28.03" y="29.54" width="1.52" height="1.51" fill="#cc1d1d"/>
    <rect x="28.03" y="28.03" width="1.52" height="1.52" fill="#cc1d1d"/>
    <rect x="28.03" y="26.51" width="1.52" height="1.51" fill="#cc1d1d"/>
    <rect x="28.03" y="25" width="1.52" height="1.52" fill="#cc1d1d"/>
    <rect x="28.03" y="23.49" width="1.52" height="1.51" fill="#cc1d1d"/>
    <rect x="28.03" y="21.97" width="1.52" height="1.52" fill="#cc1d1d"/>
    <rect x="28.03" y="20.46" width="1.52" height="1.51" fill="#cc1d1d"/>
    <rect x="28.03" y="18.94" width="1.52" height="1.51" fill="#cc1d1d"/>
    <rect x="28.03" y="17.43" width="1.52" height="1.52" fill="#cc1d1d"/>
    <rect x="28.03" y="15.91" width="1.52" height="1.51" fill="#ef5454"/>
    <rect x="28.03" y="14.4" width="1.52" height="1.52" fill="#fff"/>
    <rect x="26.51" y="32.57" width="1.51" height="1.51" fill="#fff"/>
    <rect x="26.51" y="31.06" width="1.51" height="1.52" fill="#aa0707"/>
    <rect x="26.51" y="29.54" width="1.51" height="1.51" fill="#cc1d1d"/>
    <rect x="26.51" y="28.03" width="1.51" height="1.52" fill="#cc1d1d"/>
    <rect x="26.51" y="26.51" width="1.51" height="1.51" fill="#cc1d1d"/>
    <rect x="26.51" y="25" width="1.51" height="1.52" fill="#cc1d1d"/>
    <rect x="26.51" y="23.49" width="1.51" height="1.51" fill="#cc1d1d"/>
    <rect x="26.51" y="21.97" width="1.51" height="1.52" fill="#cc1d1d"/>
    <rect x="26.51" y="20.46" width="1.51" height="1.51" fill="#cc1d1d"/>
    <rect x="26.51" y="18.94" width="1.51" height="1.51" fill="#cc1d1d"/>
    <rect x="26.51" y="17.43" width="1.51" height="1.52" fill="#ef5454"/>
    <rect x="26.51" y="15.91" width="1.51" height="1.51" fill="#fff"/>
    <rect x="25" y="31.06" width="1.51" height="1.52" fill="#fff"/>
    <rect x="25" y="29.54" width="1.51" height="1.51" fill="#aa0707"/>
    <rect x="25" y="28.03" width="1.51" height="1.52" fill="#cc1d1d"/>
    <rect x="25" y="26.51" width="1.51" height="1.51" fill="#cc1d1d"/>
    <rect x="25" y="25" width="1.51" height="1.52" fill="#cc1d1d"/>
    <rect x="25" y="23.49" width="1.51" height="1.51" fill="#cc1d1d"/>
    <rect x="25" y="21.97" width="1.51" height="1.52" fill="#cc1d1d"/>
    <rect x="25" y="20.46" width="1.51" height="1.51" fill="#cc1d1d"/>
    <rect x="25" y="18.94" width="1.51" height="1.51" fill="#ef5454"/>
    <rect x="25" y="17.43" width="1.51" height="1.52" fill="#fff"/>
    <rect x="23.49" y="31.06" width="1.52" height="1.52" fill="#fff"/>
    <rect x="23.49" y="29.54" width="1.52" height="1.51" fill="#aa0707"/>
    <rect x="23.49" y="28.03" width="1.52" height="1.52" fill="#cc1d1d"/>
    <rect x="23.49" y="26.51" width="1.52" height="1.51" fill="#cc1d1d"/>
    <rect x="23.49" y="25" width="1.52" height="1.52" fill="#cc1d1d"/>
    <rect x="23.49" y="23.49" width="1.52" height="1.51" fill="#cc1d1d"/>
    <rect x="23.49" y="21.97" width="1.52" height="1.52" fill="#cc1d1d"/>
    <rect x="23.49" y="20.46" width="1.52" height="1.51" fill="#cc1d1d"/>
    <rect x="23.49" y="18.94" width="1.52" height="1.51" fill="#ef5454"/>
    <rect x="23.49" y="17.43" width="1.52" height="1.52" fill="#fff"/>
    <rect x="21.97" y="32.57" width="1.51" height="1.51" fill="#fff"/>
    <rect x="21.97" y="31.06" width="1.51" height="1.52" fill="#aa0707"/>
    <rect x="21.97" y="29.54" width="1.51" height="1.51" fill="#cc1d1d"/>
    <rect x="21.97" y="28.03" width="1.51" height="1.52" fill="#cc1d1d"/>
    <rect x="21.97" y="26.51" width="1.51" height="1.51" fill="#cc1d1d"/>
    <rect x="21.97" y="25" width="1.51" height="1.52" fill="#cc1d1d"/>
    <rect x="21.97" y="23.49" width="1.51" height="1.51" fill="#cc1d1d"/>
    <rect x="21.97" y="21.97" width="1.51" height="1.52" fill="#cc1d1d"/>
    <rect x="21.97" y="20.46" width="1.51" height="1.51" fill="#cc1d1d"/>
    <rect x="21.97" y="18.94" width="1.51" height="1.51" fill="#cc1d1d"/>
    <rect x="21.97" y="17.43" width="1.51" height="1.52" fill="#ef5454"/>
    <rect x="21.97" y="15.91" width="1.51" height="1.51" fill="#fff"/>
    <rect x="20.46" y="34.09" width="1.52" height="1.52" fill="#fff"/>
    <rect x="20.46" y="32.57" width="1.52" height="1.51" fill="#aa0707"/>
    <rect x="20.46" y="31.06" width="1.52" height="1.52" fill="#cc1d1d"/>
    <rect x="20.46" y="29.54" width="1.52" height="1.51" fill="#cc1d1d"/>
    <rect x="20.46" y="28.03" width="1.52" height="1.52" fill="#cc1d1d"/>
    <rect x="20.46" y="26.51" width="1.52" height="1.51" fill="#cc1d1d"/>
    <rect x="20.46" y="25" width="1.52" height="1.52" fill="#cc1d1d"/>
    <rect x="20.46" y="23.49" width="1.52" height="1.51" fill="#cc1d1d"/>
    <rect x="20.46" y="21.97" width="1.52" height="1.52" fill="#cc1d1d"/>
    <rect x="20.46" y="20.46" width="1.52" height="1.51" fill="#cc1d1d"/>
    <rect x="20.46" y="18.94" width="1.52" height="1.51" fill="#cc1d1d"/>
    <rect x="20.46" y="17.43" width="1.52" height="1.52" fill="#cc1d1d"/>
    <rect x="20.46" y="15.91" width="1.52" height="1.51" fill="#ef5454"/>
    <rect x="20.46" y="14.4" width="1.52" height="1.52" fill="#fff"/>
    <rect x="18.94" y="35.6" width="1.51" height="1.51" fill="#fff"/>
    <rect x="18.94" y="34.09" width="1.51" height="1.52" fill="#aa0707"/>
    <rect x="18.94" y="32.57" width="1.51" height="1.51" fill="#cc1d1d"/>
    <rect x="18.94" y="31.06" width="1.51" height="1.52" fill="#cc1d1d"/>
    <rect x="18.94" y="29.54" width="1.51" height="1.51" fill="#cc1d1d"/>
    <rect x="18.94" y="28.03" width="1.51" height="1.52" fill="#cc1d1d"/>
    <rect x="18.94" y="26.51" width="1.51" height="1.51" fill="#cc1d1d"/>
    <rect x="18.94" y="25" width="1.51" height="1.52" fill="#aa0707"/>
    <rect x="18.94" y="23.49" width="1.51" height="1.51" fill="#aa0707"/>
    <rect x="18.94" y="21.97" width="1.51" height="1.52" fill="#cc1d1d"/>
    <rect x="18.94" y="20.46" width="1.51" height="1.51" fill="#cc1d1d"/>
    <rect x="18.94" y="18.94" width="1.51" height="1.51" fill="#cc1d1d"/>
    <rect x="18.94" y="17.43" width="1.51" height="1.52" fill="#cc1d1d"/>
    <rect x="18.94" y="15.91" width="1.51" height="1.51" fill="#cc1d1d"/>
    <rect x="18.94" y="14.4" width="1.51" height="1.52" fill="#ef5454"/>
    <rect x="18.94" y="12.88" width="1.51" height="1.51" fill="#fff"/>
    <rect x="17.43" y="37.12" width="1.52" height="1.51" fill="#fff"/>
    <rect x="17.43" y="35.6" width="1.52" height="1.51" fill="#aa0707"/>
    <rect x="17.43" y="34.09" width="1.52" height="1.52" fill="#cc1d1d"/>
    <rect x="17.43" y="32.57" width="1.52" height="1.51" fill="#cc1d1d"/>
    <rect x="17.43" y="31.06" width="1.52" height="1.52" fill="#cc1d1d"/>
    <rect x="17.43" y="29.54" width="1.52" height="1.51" fill="#cc1d1d"/>
    <rect x="17.43" y="28.03" width="1.52" height="1.52" fill="#cc1d1d"/>
    <rect x="17.43" y="26.51" width="1.52" height="1.51" fill="#ef5454"/>
    <rect x="17.43" y="25" width="1.52" height="1.52" fill="#fff"/>
    <rect x="17.43" y="23.49" width="1.52" height="1.51" fill="#fff"/>
    <rect x="17.43" y="21.97" width="1.52" height="1.52" fill="#aa0707"/>
    <rect x="17.43" y="20.46" width="1.52" height="1.51" fill="#cc1d1d"/>
    <rect x="17.43" y="18.94" width="1.52" height="1.51" fill="#cc1d1d"/>
    <rect x="17.43" y="17.43" width="1.52" height="1.52" fill="#cc1d1d"/>
    <rect x="17.43" y="15.91" width="1.52" height="1.51" fill="#cc1d1d"/>
    <rect x="17.43" y="14.4" width="1.52" height="1.52" fill="#cc1d1d"/>
    <rect x="17.43" y="12.88" width="1.52" height="1.51" fill="#ef5454"/>
    <rect x="17.43" y="11.37" width="1.52" height="1.52" fill="#fff"/>
    <rect x="15.91" y="38.63" width="1.51" height="1.52" fill="#fff"/>
    <rect x="15.91" y="37.12" width="1.51" height="1.51" fill="#aa0707"/>
    <rect x="15.91" y="35.6" width="1.51" height="1.51" fill="#cc1d1d"/>
    <rect x="15.91" y="34.09" width="1.51" height="1.52" fill="#cc1d1d"/>
    <rect x="15.91" y="32.57" width="1.51" height="1.51" fill="#cc1d1d"/>
    <rect x="15.91" y="31.06" width="1.51" height="1.52" fill="#cc1d1d"/>
    <rect x="15.91" y="29.54" width="1.51" height="1.51" fill="#cc1d1d"/>
    <rect x="15.91" y="28.03" width="1.51" height="1.52" fill="#ef5454"/>
    <rect x="15.91" y="26.51" width="1.51" height="1.51" fill="#fff"/>
    <rect x="15.91" y="21.97" width="1.51" height="1.52" fill="#fff"/>
    <rect x="15.91" y="20.46" width="1.51" height="1.51" fill="#aa0707"/>
    <rect x="15.91" y="18.94" width="1.51" height="1.51" fill="#cc1d1d"/>
    <rect x="15.91" y="17.43" width="1.51" height="1.52" fill="#cc1d1d"/>
    <rect x="15.91" y="15.91" width="1.51" height="1.51" fill="#cc1d1d"/>
    <rect x="15.91" y="14.4" width="1.51" height="1.52" fill="#cc1d1d"/>
    <rect x="15.91" y="12.88" width="1.51" height="1.51" fill="#cc1d1d"/>
    <rect x="15.91" y="11.37" width="1.51" height="1.52" fill="#ef5454"/>
    <rect x="15.91" y="9.85" width="1.51" height="1.51" fill="#fff"/>
    <rect x="14.4" y="40.15" width="1.52" height="1.51" fill="#fff"/>
    <rect x="14.4" y="38.63" width="1.52" height="1.52" fill="#aa0707"/>
    <rect x="14.4" y="37.12" width="1.52" height="1.51" fill="#cc1d1d"/>
    <rect x="14.4" y="35.6" width="1.52" height="1.51" fill="#cc1d1d"/>
    <rect x="14.4" y="34.09" width="1.52" height="1.52" fill="#cc1d1d"/>
    <rect x="14.4" y="32.57" width="1.52" height="1.51" fill="#cc1d1d"/>
    <rect x="14.4" y="31.06" width="1.52" height="1.52" fill="#cc1d1d"/>
    <rect x="14.4" y="29.54" width="1.52" height="1.51" fill="#ef5454"/>
    <rect x="14.4" y="28.03" width="1.52" height="1.52" fill="#fff"/>
    <rect x="14.4" y="20.46" width="1.52" height="1.51" fill="#fff"/>
    <rect x="14.4" y="18.94" width="1.52" height="1.51" fill="#aa0707"/>
    <rect x="14.4" y="17.43" width="1.52" height="1.52" fill="#cc1d1d"/>
    <rect x="14.4" y="15.91" width="1.52" height="1.51" fill="#cc1d1d"/>
    <rect x="14.4" y="14.4" width="1.52" height="1.52" fill="#cc1d1d"/>
    <rect x="14.4" y="12.88" width="1.52" height="1.51" fill="#cc1d1d"/>
    <rect x="14.4" y="11.37" width="1.52" height="1.52" fill="#cc1d1d"/>
    <rect x="14.4" y="9.85" width="1.52" height="1.51" fill="#ef5454"/>
    <rect x="14.4" y="8.34" width="1.52" height="1.52" fill="#fff"/>
    <rect x="12.88" y="41.66" width="1.51" height="1.52" fill="#fff"/>
    <rect x="12.88" y="40.15" width="1.51" height="1.51" fill="#aa0707"/>
    <rect x="12.88" y="38.63" width="1.51" height="1.52" fill="#cc1d1d"/>
    <rect x="12.88" y="37.12" width="1.51" height="1.51" fill="#cc1d1d"/>
    <rect x="12.88" y="35.6" width="1.51" height="1.51" fill="#cc1d1d"/>
    <rect x="12.88" y="34.09" width="1.51" height="1.52" fill="#cc1d1d"/>
    <rect x="12.88" y="32.57" width="1.51" height="1.51" fill="#cc1d1d"/>
    <rect x="12.88" y="31.06" width="1.51" height="1.52" fill="#ef5454"/>
    <rect x="12.88" y="29.54" width="1.51" height="1.51" fill="#fff"/>
    <rect x="12.88" y="18.94" width="1.51" height="1.51" fill="#fff"/>
    <rect x="12.88" y="17.43" width="1.51" height="1.52" fill="#aa0707"/>
    <rect x="12.88" y="15.91" width="1.51" height="1.51" fill="#cc1d1d"/>
    <rect x="12.88" y="14.4" width="1.51" height="1.52" fill="#cc1d1d"/>
    <rect x="12.88" y="12.88" width="1.51" height="1.51" fill="#cc1d1d"/>
    <rect x="12.88" y="11.37" width="1.51" height="1.52" fill="#cc1d1d"/>
    <rect x="12.88" y="9.85" width="1.51" height="1.51" fill="#cc1d1d"/>
    <rect x="12.88" y="8.34" width="1.51" height="1.52" fill="#ef5454"/>
    <rect x="12.88" y="6.82" width="1.51" height="1.51" fill="#fff"/>
    <rect x="11.37" y="43.18" width="1.52" height="1.51" fill="#fff"/>
    <rect x="11.37" y="41.66" width="1.52" height="1.52" fill="#aa0707"/>
    <rect x="11.37" y="40.15" width="1.52" height="1.51" fill="#cc1d1d"/>
    <rect x="11.37" y="38.63" width="1.52" height="1.52" fill="#cc1d1d"/>
    <rect x="11.37" y="37.12" width="1.52" height="1.51" fill="#cc1d1d"/>
    <rect x="11.37" y="35.6" width="1.52" height="1.51" fill="#cc1d1d"/>
    <rect x="11.37" y="34.09" width="1.52" height="1.52" fill="#cc1d1d"/>
    <rect x="11.37" y="32.57" width="1.52" height="1.51" fill="#ef5454"/>
    <rect x="11.37" y="31.06" width="1.52" height="1.52" fill="#fff"/>
    <rect x="11.37" y="17.43" width="1.52" height="1.52" fill="#fff"/>
    <rect x="11.37" y="15.91" width="1.52" height="1.51" fill="#aa0707"/>
    <rect x="11.37" y="14.4" width="1.52" height="1.52" fill="#cc1d1d"/>
    <rect x="11.37" y="12.88" width="1.52" height="1.51" fill="#cc1d1d"/>
    <rect x="11.37" y="11.37" width="1.52" height="1.52" fill="#cc1d1d"/>
    <rect x="11.37" y="9.85" width="1.52" height="1.51" fill="#cc1d1d"/>
    <rect x="11.37" y="8.34" width="1.52" height="1.52" fill="#cc1d1d"/>
    <rect x="11.37" y="6.82" width="1.52" height="1.51" fill="#ef5454"/>
    <rect x="11.37" y="5.31" width="1.52" height="1.52" fill="#fff"/>
    <rect x="9.85" y="44.69" width="1.51" height="1.52" fill="#fff"/>
    <rect x="9.85" y="43.18" width="1.51" height="1.51" fill="#aa0707"/>
    <rect x="9.85" y="41.66" width="1.51" height="1.52" fill="#cc1d1d"/>
    <rect x="9.85" y="40.15" width="1.51" height="1.51" fill="#cc1d1d"/>
    <rect x="9.85" y="38.63" width="1.51" height="1.52" fill="#cc1d1d"/>
    <rect x="9.85" y="37.12" width="1.51" height="1.51" fill="#cc1d1d"/>
    <rect x="9.85" y="35.6" width="1.51" height="1.51" fill="#cc1d1d"/>
    <rect x="9.85" y="34.09" width="1.51" height="1.52" fill="#ef5454"/>
    <rect x="9.85" y="32.57" width="1.51" height="1.51" fill="#fff"/>
    <rect x="9.85" y="15.91" width="1.51" height="1.51" fill="#fff"/>
    <rect x="9.85" y="14.4" width="1.51" height="1.52" fill="#aa0707"/>
    <rect x="9.85" y="12.88" width="1.51" height="1.51" fill="#cc1d1d"/>
    <rect x="9.85" y="11.37" width="1.51" height="1.52" fill="#cc1d1d"/>
    <rect x="9.85" y="9.85" width="1.51" height="1.51" fill="#cc1d1d"/>
    <rect x="9.85" y="8.34" width="1.51" height="1.52" fill="#cc1d1d"/>
    <rect x="9.85" y="6.82" width="1.51" height="1.51" fill="#cc1d1d"/>
    <rect x="9.85" y="5.31" width="1.51" height="1.52" fill="#ef5454"/>
    <rect x="9.85" y="3.8" width="1.51" height="1.51" fill="#fff"/>
    <rect x="8.34" y="46.21" width="1.51" height="1.51" fill="#fff"/>
    <rect x="8.34" y="44.69" width="1.51" height="1.52" fill="#aa0707"/>
    <rect x="8.34" y="43.18" width="1.51" height="1.51" fill="#cc1d1d"/>
    <rect x="8.34" y="41.66" width="1.51" height="1.52" fill="#cc1d1d"/>
    <rect x="8.34" y="40.15" width="1.51" height="1.51" fill="#cc1d1d"/>
    <rect x="8.34" y="38.63" width="1.51" height="1.52" fill="#cc1d1d"/>
    <rect x="8.34" y="37.12" width="1.51" height="1.51" fill="#cc1d1d"/>
    <rect x="8.34" y="35.6" width="1.51" height="1.51" fill="#ef5454"/>
    <rect x="8.34" y="34.09" width="1.51" height="1.52" fill="#fff"/>
    <rect x="8.34" y="14.4" width="1.51" height="1.52" fill="#fff"/>
    <rect x="8.34" y="12.88" width="1.51" height="1.51" fill="#aa0707"/>
    <rect x="8.34" y="11.37" width="1.51" height="1.52" fill="#cc1d1d"/>
    <rect x="8.34" y="9.85" width="1.51" height="1.51" fill="#cc1d1d"/>
    <rect x="8.34" y="8.34" width="1.51" height="1.52" fill="#cc1d1d"/>
    <rect x="8.34" y="6.82" width="1.51" height="1.51" fill="#cc1d1d"/>
    <rect x="8.34" y="5.31" width="1.51" height="1.52" fill="#cc1d1d"/>
    <rect x="8.34" y="3.8" width="1.51" height="1.51" fill="#ef5454"/>
    <rect x="8.34" y="2.28" width="1.51" height="1.52" fill="#fff"/>
    <rect x="6.82" y="46.21" width="1.52" height="1.51" fill="#fff"/>
    <rect x="6.82" y="44.69" width="1.52" height="1.52" fill="#aa0707"/>
    <rect x="6.82" y="43.18" width="1.52" height="1.51" fill="#cc1d1d"/>
    <rect x="6.82" y="41.66" width="1.52" height="1.52" fill="#cc1d1d"/>
    <rect x="6.82" y="40.15" width="1.52" height="1.51" fill="#cc1d1d"/>
    <rect x="6.82" y="38.63" width="1.52" height="1.52" fill="#cc1d1d"/>
    <rect x="6.82" y="37.12" width="1.52" height="1.51" fill="#ef5454"/>
    <rect x="6.82" y="35.6" width="1.52" height="1.51" fill="#fff"/>
    <rect x="6.82" y="12.88" width="1.52" height="1.51" fill="#fff"/>
    <rect x="6.82" y="11.37" width="1.52" height="1.52" fill="#aa0707"/>
    <rect x="6.82" y="9.85" width="1.52" height="1.51" fill="#cc1d1d"/>
    <rect x="6.82" y="8.34" width="1.52" height="1.52" fill="#cc1d1d"/>
    <rect x="6.82" y="6.82" width="1.52" height="1.51" fill="#cc1d1d"/>
    <rect x="6.82" y="5.31" width="1.52" height="1.52" fill="#cc1d1d"/>
    <rect x="6.82" y="3.8" width="1.52" height="1.51" fill="#ef5454"/>
    <rect x="6.82" y="2.28" width="1.52" height="1.52" fill="#fff"/>
    <rect x="5.31" y="44.69" width="1.51" height="1.52" fill="#fff"/>
    <rect x="5.31" y="43.18" width="1.51" height="1.51" fill="#aa0707"/>
    <rect x="5.31" y="41.66" width="1.51" height="1.52" fill="#cc1d1d"/>
    <rect x="5.31" y="40.15" width="1.51" height="1.51" fill="#cc1d1d"/>
    <rect x="5.31" y="38.63" width="1.51" height="1.52" fill="#ef5454"/>
    <rect x="5.31" y="37.12" width="1.51" height="1.51" fill="#fff"/>
    <rect x="5.31" y="11.37" width="1.51" height="1.52" fill="#fff"/>
    <rect x="5.31" y="9.85" width="1.51" height="1.51" fill="#aa0707"/>
    <rect x="5.31" y="8.34" width="1.51" height="1.52" fill="#cc1d1d"/>
    <rect x="5.31" y="6.82" width="1.51" height="1.51" fill="#cc1d1d"/>
    <rect x="5.31" y="5.31" width="1.51" height="1.52" fill="#ef5454"/>
    <rect x="5.31" y="3.8" width="1.51" height="1.51" fill="#fff"/>
    <rect x="3.8" y="43.18" width="1.52" height="1.51" fill="#fff"/>
    <rect x="3.8" y="41.66" width="1.52" height="1.52" fill="#aa0707"/>
    <rect x="3.8" y="40.15" width="1.52" height="1.51" fill="#ef5454"/>
    <rect x="3.8" y="38.63" width="1.52" height="1.52" fill="#fff"/>
    <rect x="3.8" y="9.85" width="1.52" height="1.51" fill="#fff"/>
    <rect x="3.8" y="8.34" width="1.52" height="1.52" fill="#aa0707"/>
    <rect x="3.8" y="6.82" width="1.52" height="1.51" fill="#ef5454"/>
    <rect x="3.8" y="5.31" width="1.52" height="1.52" fill="#fff"/>
    <rect x="2.28" y="41.66" width="1.51" height="1.52" fill="#fff"/>
    <rect x="2.28" y="40.15" width="1.51" height="1.51" fill="#fff"/>
    <rect x="2.28" y="8.34" width="1.51" height="1.52" fill="#fff"/>
    <rect x="2.28" y="6.82" width="1.51" height="1.51" fill="#fff"/>
  </g>
</svg>
