<svg id="Capa_1" data-name="Capa 1" xmlns="http://www.w3.org/2000/svg" xmlns:xlink="http://www.w3.org/1999/xlink" width="50" height="50" viewBox="0 0 50 50">
  <defs>
    <clipPath id="clip-path">
      <polygon points="24.04 49.76 1.25 39.47 1.41 9.17 24.2 19.46 24.04 49.76" fill="none"/>
    </clipPath>
    <clipPath id="clip-path-2">
      <polygon points="24.2 19.46 1.41 9.17 25.96 0.24 48.75 10.53 24.2 19.46" fill="none"/>
    </clipPath>
    <clipPath id="clip-path-3">
      <polygon points="48.75 10.53 48.59 40.82 24.04 49.76 24.2 19.46 48.75 10.53" fill="none"/>
    </clipPath>
  </defs>
  <g id="Figment_lido">
    <g style="isolation: isolate">
      <g>
        <polygon points="24.04 49.76 1.25 39.47 1.41 9.17 24.2 19.46 24.04 49.76" fill="#2e435d"/>
        <g style="isolation: isolate">
          <g clip-path="url(#clip-path)">
            <g>
              <path d="M15.21,28.39a.65.65,0,0,0-.75.1c-.61.56-1.2,1.15-1.78,1.75-.25.26-.16.72.19,1.08s.43.42.65.65a7.29,7.29,0,0,1,1.41,1.9c.65,1.35.39,2.68-.55,2.77a2.05,2.05,0,0,1-.65,0,6.13,6.13,0,0,1-1.11-.39,10.61,10.61,0,0,1-2.28-1.45C9.66,34.22,9,33.6,8.31,33a2.83,2.83,0,0,0-.09.27c-.29,1-.57,2-.88,2.94a.56.56,0,0,0,.19.67,17.05,17.05,0,0,0,5.13,3.77,10.94,10.94,0,0,0,3.07.89,2.57,2.57,0,0,0,2.87-1.41,7.54,7.54,0,0,0,.56-4A10.69,10.69,0,0,0,18.53,33a12.42,12.42,0,0,0-2.9-4.35,1.5,1.5,0,0,0-.42-.3" fill="#fff"/>
              <path d="M13.56,18a5.73,5.73,0,0,0-3.29-.56,2.9,2.9,0,0,0-2.4,2.36,10.36,10.36,0,0,0,2.3,8.89,2.4,2.4,0,0,0,.76.61,1,1,0,0,0,1.1-.16c.49-.45,1-.93,1.41-1.42s.24-.7-.19-1.16a12.34,12.34,0,0,1-1.18-1.39,3,3,0,0,1-.56-2.32.93.93,0,0,1,1.22-.88,3.56,3.56,0,0,1,1,.31,8.64,8.64,0,0,1,2,1.32c.57.49,1.12,1.06,1.72,1.63l1.1-3.52-.34-.36a17.89,17.89,0,0,0-3.25-2.61A14.22,14.22,0,0,0,13.56,18" fill="#f89367"/>
            </g>
          </g>
        </g>
      </g>
      <g>
        <polygon points="24.2 19.46 1.41 9.17 25.96 0.24 48.75 10.53 24.2 19.46" fill="#334a66"/>
        <g style="isolation: isolate">
          <g clip-path="url(#clip-path-2)">
            <g>
              <path d="M26,8.34c-.32.12-.5.28-.52.47a14.29,14.29,0,0,0-.08,1.6c0,.23.43.34,1,.26.34,0,.67-.1,1-.15A13.62,13.62,0,0,1,30,10.37c1.54.09,2.35.69,1.68,1.25a2.91,2.91,0,0,1-.55.36c-.36.18-.76.34-1.18.5a20.83,20.83,0,0,1-2.92.8c-.95.2-1.95.37-3,.55a1.79,1.79,0,0,0,.14.15c.52.5,1.05,1,1.55,1.5.15.15.3.17.66.12a34.54,34.54,0,0,0,7-1.63,19.19,19.19,0,0,0,3.12-1.45c1.08-.63,1.63-1.33,1.2-2.11a4.78,4.78,0,0,0-2.59-1.66A11.56,11.56,0,0,0,32.23,8a22.52,22.52,0,0,0-5.64.17,3.19,3.19,0,0,0-.55.13" fill="#fff"/>
              <path d="M16.77,5.74a8.93,8.93,0,0,0-3,1.67c-.76.71-.91,1.45-.1,2.18,1.52,1.37,5,2.07,8.62,1.71a4.18,4.18,0,0,0,1.06-.23c.46-.16.73-.4.76-.67,0-.43,0-.86,0-1.29s-.34-.37-1-.28-1.32.16-2,.19a3.6,3.6,0,0,1-2.22-.47c-.49-.35-.28-.68.29-1a7.58,7.58,0,0,1,1-.46,16.84,16.84,0,0,1,2.57-.67c.83-.16,1.71-.28,2.62-.42L23.54,4.18,23,4.25a36,36,0,0,0-4.57,1c-.58.17-1.13.34-1.65.53" fill="#f89367"/>
            </g>
          </g>
        </g>
      </g>
      <g>
        <polygon points="48.75 10.53 48.59 40.82 24.04 49.76 24.2 19.46 48.75 10.53" fill="#344b68"/>
        <g style="isolation: isolate">
          <g clip-path="url(#clip-path-3)">
            <g>
              <path d="M38.89,27.92a1.55,1.55,0,0,0-.74.67c-.61,1-1.19,1.94-1.76,2.92-.25.42-.16.77.18.82s.44,0,.65.08a2.3,2.3,0,0,1,1.4.62,2.18,2.18,0,0,1-.55,2.9,3.9,3.9,0,0,1-.64.45,7.25,7.25,0,0,1-1.1.51,7.93,7.93,0,0,1-2.25.44c-.67,0-1.33,0-2,0,0,.08-.06.19-.09.3-.29,1.11-.56,2.21-.86,3.31-.09.32-.05.42.18.45a10,10,0,0,0,5.07-.55,15.06,15.06,0,0,0,3-1.55,7.29,7.29,0,0,0,2.84-3.45,8.42,8.42,0,0,0,.54-4,5,5,0,0,0-.62-2.31,3.77,3.77,0,0,0-2.87-1.68,1,1,0,0,0-.41.05" fill="#fff"/>
              <path d="M37.25,19.88a9.59,9.59,0,0,0-3.24,2,7.84,7.84,0,0,0-2.38,3.95c-.75,3.07.18,5.57,2.28,6.18a1.21,1.21,0,0,0,.75,0,2.23,2.23,0,0,0,1.09-1c.48-.77.93-1.55,1.39-2.34.32-.55.24-.81-.19-.89a4.11,4.11,0,0,1-1.16-.35c-.5-.25-.7-.82-.56-1.63a2.46,2.46,0,0,1,1.21-1.73,4.86,4.86,0,0,1,1-.47,5.63,5.63,0,0,1,1.95-.33,17,17,0,0,1,1.7.15c.36-1.31.71-2.63,1.08-4l-.33-.07a9.47,9.47,0,0,0-3.21.15,11.05,11.05,0,0,0-1.36.39" fill="#f89367"/>
            </g>
          </g>
        </g>
      </g>
    </g>
  </g>
</svg>
