<svg id="Capa_1" data-name="Capa 1" xmlns="http://www.w3.org/2000/svg" xmlns:xlink="http://www.w3.org/1999/xlink" width="50" height="50" viewBox="0 0 50 50">
  <defs>
    <clipPath id="clip-path">
      <polygon points="24.04 49.76 1.25 39.47 1.41 9.17 24.2 19.46 24.04 49.76" fill="none"/>
    </clipPath>
    <clipPath id="clip-path-2">
      <polygon points="24.2 19.46 1.41 9.17 25.96 0.24 48.75 10.53 24.2 19.46" fill="none"/>
    </clipPath>
    <clipPath id="clip-path-3">
      <polygon points="48.75 10.53 48.59 40.82 24.04 49.76 24.2 19.46 48.75 10.53" fill="none"/>
    </clipPath>
  </defs>
  <g id="Figment_lido">
    <g style="isolation: isolate">
      <g>
        <polygon points="24.04 49.76 1.25 39.47 1.41 9.17 24.2 19.46 24.04 49.76" fill="#1c38a0"/>
        <g style="isolation: isolate">
          <g clip-path="url(#clip-path)">
            <g>
              <path d="M8.67,34.74v0h0M8.09,19l0,0h0m3.36,17.57c-.14-.06-.12-.26-.15-.4s0-.28.09-.23h0c.18.08.2.31.27.49s-.09.16-.16.15l-.06,0M15.1,37.8a1.7,1.7,0,0,0-.29-.54c.22.14.45.23.34.42a.61.61,0,0,0-.05.12M11.78,18.64a1,1,0,0,0-.28-.09,3,3,0,0,1-.85-.18,1.07,1.07,0,0,1-.21-.13,1,1,0,0,0-.16-.1.77.77,0,0,0-.54,0,.66.66,0,0,1-.5,0A.47.47,0,0,1,9.06,18h0c-.05,0-.15.1-.18.19s-.08.18-.2.13a.25.25,0,0,1-.08-.05l-.17-.09C8,18,8,18.41,8.1,19a1.6,1.6,0,0,0,.38.33c.07,0,.14,0,.18,0,.24-.38.68-.26,1-.12l.19.09.15.08a5.66,5.66,0,0,0,.58.2,4.76,4.76,0,0,1,.6.21,2.25,2.25,0,0,1,.86.67,1.83,1.83,0,0,0-.43-.34.31.31,0,0,0-.25,0c-.41.17-.91-.11-1.35-.16s-.79.19-1.25.08a1.43,1.43,0,0,0-.94.35,15.18,15.18,0,0,0-1.26,1c-.25.24-.34.78-.7.92l0,.28c.15.38.12.49-.19.39s-.3.14-.25.47a.62.62,0,0,0,.33.47l.07,0c.23.06.32-.14.26-.44S6,23,6.22,23.1h0c.09,0,.26-.06.25-.14,0-.7.69-.37.65-1.06,0-.05.11-.1.17-.08.51.11.81-.37,1.26-.43.05,0,.1-.1.15-.07l.07.07c.08.16,0,.32,0,.32-.43,0-.62.41-.92.65a15.57,15.57,0,0,0-1,1.36c-.24.37-.31,1-.54,1.25-.39.4.06,1.42-.44,1.64l0,.22c.16.32.1.46-.06.6s-.13.41,0,.69a.72.72,0,0,0,.26.3.34.34,0,0,0,.2,0c.19-.05.23-.27.19-.56s-.19-.32-.08-.49A4.05,4.05,0,0,0,7,25.6c0-.15.08-.21.17-.17l.06,0c.11.09.15.3.1.35C7,26,7.18,26.59,7.12,27a5.75,5.75,0,0,0,.07,2.6c0,.08-.05.16-.08.25a.86.86,0,0,0,.15.8c.15.21.18.33.09.52a.69.69,0,0,0,.08.67c.39.49.06,1.39.75,1.7v.14c-.22.58.13.82.48,1.06.05-.31.31-.6,0-1a.6.6,0,0,1-.19-.64.73.73,0,0,0-.21-.65c-.29-.24-.15-.38-.09-.54s0-.23.08-.2l.08.07c.11.14.3.25.27.53a1,1,0,0,0,.39,1,.49.49,0,0,1,.15.42,1,1,0,0,0,.41.81c.1.09.22.11.23.34.08.82.88,1,1,1.76,0,0,0,0,.09.06l.18.07a.53.53,0,0,1,.12,0,.2.2,0,0,1,.1.16c.07.37.19.52.32.58s.36,0,.55,0c0,.38,0,.79.3.9a.29.29,0,0,0,.19,0,.42.42,0,0,1,.23,0c.11.05.18.17.27.41a.43.43,0,0,0,.21.27.27.27,0,0,0,.23,0c.14-.1.18-.32.06-.59a.6.6,0,0,0-.25-.3.23.23,0,0,0-.2,0,2.21,2.21,0,0,0-.28.21c0-.43-.08-.84-.37-1l-.15,0c-.08,0-.16,0-.22,0s-.09-.09-.1-.26-.22-.41,0-.45a.35.35,0,0,1,.27,0q.09,0,.18.21a.92.92,0,0,0,.5.51l.26.1.26.09a1,1,0,0,1,.41.32l0,0,.13,0,.18,0a.62.62,0,0,1,.31.34.12.12,0,0,0,.07.07.15.15,0,0,0,.18,0,.76.76,0,0,0,.3-.43c.06.15.16.28.21.43l.21.13a.28.28,0,0,0,.35-.06c.28-.29.95.56,1-.32l.14.16a.92.92,0,0,0,.23.19c.12,0,.23,0,.29-.15a.87.87,0,0,0-.17-.72.48.48,0,0,0-.18-.15.24.24,0,0,0-.34.17c0,.17-.1.21-.15.19s-.16-.2-.23-.27a.3.3,0,0,0-.45.17c0,.09-.07.11-.11.09s-.13-.19-.2-.24a.34.34,0,0,1-.13-.34c0-.1.08-.13.15-.1l.11.09a.53.53,0,0,0,.14.1c.18.08.32,0,.47-.1l.05-.17.12.07c.52.23.66-.66,1.18-.47.06,0,.14-.16.16-.29s.07-.32.26-.27.39-.22.4-.6l0-.13.14,0a.48.48,0,0,0,.45-.26c0-.42-.14-.73-.42-.86l-.14,0-.1,0a.29.29,0,0,1-.13-.2.28.28,0,0,1,.1-.27c.37-.39.33-1.17.53-1.73,0-.17-.19-.39-.06-.5.45-.38-.13-1.39.19-1.85-.4-.54-.12-.86-.08-1.27s-.49-.49-.37-.79c.26-.65-.12-.94-.53-1.24.06-.08.08-.15.12-.17.2-.14.23-.37,0-.68a.65.65,0,0,0-.21-.2.2.2,0,0,0-.25.06.59.59,0,0,0,.07.75c.23.25.14.38.19.63a15.23,15.23,0,0,1,.23,1.86l.12.21c.07.1.08.17,0,.23-.39.34,0,1.16-.15,1.71s-.17,1.11-.3,1.5a3.55,3.55,0,0,1-1.15,1.81,2.22,2.22,0,0,1-1.84.65,3.64,3.64,0,0,0-1.15-.26,1,1,0,0,1-.49-.09,2.85,2.85,0,0,1-.6-.4,7.59,7.59,0,0,1-1.8-2A8.76,8.76,0,0,1,10,29.45a6.6,6.6,0,0,1,0-2.62,2.35,2.35,0,0,1,1.68-2.09,2.51,2.51,0,0,1,1.58.18,4.82,4.82,0,0,1,1.82,1.61A6.74,6.74,0,0,1,16.4,30c0,.24-.14.53.11.71,0,0,0,0,0,0s.26-.18.35-.33c.73-1.14.76-2.63.3-4.48a12.14,12.14,0,0,0-2-4.28c-.38-.54-.93-.79-1.19-1.52-.3-.23-.66-.2-.89-.75a.68.68,0,0,1-.31-.08,2.72,2.72,0,0,1-.5-.31,3.17,3.17,0,0,0-.52-.32" fill="#f3f5fb"/>
              <path d="M8.09,19h0l0,0m-.48-.54c-.15-.07-.22.12-.3.55,0,.17-.07.2-.11.18S7.07,19,7,19l0,0c-.2-.09-.32,0-.33.28a.57.57,0,0,0,.25.53l0,0c.17.07.27,0,.31-.23s-.06-.33.07-.41a.92.92,0,0,0,.34.31c.22.1.35-.14.44-.48a1.75,1.75,0,0,0-.48-.55" fill="#f3f5fb"/>
              <path d="M6.26,29.93c-.2-.09-.33,0-.33.32a.6.6,0,0,0,.32.56l0,0c.19.06.28-.06.3-.32a.7.7,0,0,0-.32-.57h0" fill="#f3f5fb"/>
              <path d="M6.18,28.62h0c-.24-.08-.37.07-.35.41a.64.64,0,0,0,.34.58l0,0c.21.07.32-.08.33-.41a.77.77,0,0,0-.35-.59" fill="#f3f5fb"/>
              <path d="M9.34,36h0v0m.1-.1h0m-.77-1.14h0m.23.07a.86.86,0,0,0-.23-.06A1.1,1.1,0,0,0,9.31,36h0v-.17a0,0,0,0,1,0,0s0,.07.07.1c0-.53-.21-.92-.54-1.07" fill="#f3f5fb"/>
              <path d="M14.27,38.92l-.06,0c-.18,0-.32.06-.26.35s.08.5.25.58l0,0c.2,0,.27-.18.32-.4s-.13-.46-.29-.53" fill="#f3f5fb"/>
              <path d="M17.69,24.19c-.18-.05-.3,0-.31.3a.63.63,0,0,0,.32.61h0c.22.08.33-.06.31-.36a.63.63,0,0,0-.34-.56" fill="#f3f5fb"/>
              <path d="M9.34,36v0h0v0m.12,0c0,.1,0,.11-.07.09l-.05,0a2.26,2.26,0,0,1,0,.26.61.61,0,0,0,.3.64l0,0c.17.08.28,0,.29-.25a.6.6,0,0,0-.34-.61l-.06,0a.17.17,0,0,1-.1-.09m0-.06h0l0,.06a.18.18,0,0,0,0-.06" fill="#f3f5fb"/>
              <path d="M15.05,39.3h0l-.24.27v.11l0,.17L15,40a.5.5,0,0,0,.14.08.27.27,0,0,0,.37-.12.71.71,0,0,0-.41-.68" fill="#f3f5fb"/>
              <path d="M5.37,24c-.2-.09-.3,0-.3.28a.57.57,0,0,0,.26.53h0c.17.08.29,0,.31-.24A.57.57,0,0,0,5.39,24h0" fill="#f3f5fb"/>
              <path d="M6.47,31.24c-.2,0-.29.07-.27.35a.52.52,0,0,0,.28.47h0c.16,0,.27,0,.27-.27a.6.6,0,0,0-.3-.56" fill="#f3f5fb"/>
              <path d="M17.15,23c-.17-.05-.28,0-.28.31a.54.54,0,0,0,.3.5c.18.08.29,0,.3-.22a.57.57,0,0,0-.32-.59" fill="#f3f5fb"/>
              <path d="M10.33,37.21c-.17-.08-.26,0-.27.24a.55.55,0,0,0,.28.53h0c.16,0,.24-.07.26-.28a.59.59,0,0,0-.29-.5h0" fill="#f3f5fb"/>
              <path d="M5.11,25.09h0c-.18-.08-.24.07-.27.27a.65.65,0,0,0,.27.47l0,0c.18,0,.25-.1.22-.34a.42.42,0,0,0-.25-.41" fill="#f3f5fb"/>
              <path d="M6.25,19.55c-.14-.07-.24,0-.25.21a.5.5,0,0,0,.26.51h0c.14.06.22,0,.25-.23a.55.55,0,0,0-.27-.5h0" fill="#f3f5fb"/>
              <path d="M16.54,21.87c-.15-.06-.25,0-.27.24a.56.56,0,0,0,.26.51c.17.07.29,0,.29-.21a.53.53,0,0,0-.25-.52l0,0" fill="#f3f5fb"/>
              <path d="M11.11,38.22c-.12,0-.22,0-.23.19a.48.48,0,0,0,.23.52h0c.15.06.22,0,.25-.21a.56.56,0,0,0-.21-.49l-.05,0" fill="#f3f5fb"/>
              <path d="M16,39.64c-.15-.07-.22.07-.2.46a1,1,0,0,0,.29.29c.16.07.21-.13.2-.5a.86.86,0,0,0-.29-.25" fill="#f3f5fb"/>
              <path d="M15.84,20.85c-.14-.06-.24,0-.24.23a.46.46,0,0,0,.25.44h0c.14.06.22,0,.25-.19a.51.51,0,0,0-.22-.47l-.05,0" fill="#f3f5fb"/>
              <path d="M5,26.27H5c-.13,0-.2,0-.21.2a.44.44,0,0,0,.25.46c.12,0,.22,0,.21-.23A.45.45,0,0,0,5,26.27" fill="#f3f5fb"/>
              <path d="M6.82,32.59c-.13,0-.24,0-.26.18a.51.51,0,0,0,.22.53l0,0c.12.05.21,0,.23-.18a.58.58,0,0,0-.24-.56" fill="#f3f5fb"/>
              <path d="M12,39.13h0c-.12,0-.2,0-.2.19a.45.45,0,0,0,.23.43h0c.15.06.22,0,.23-.23a.43.43,0,0,0-.22-.38" fill="#f3f5fb"/>
              <path d="M16.89,39.79c-.14-.06-.2.09-.25.27a.84.84,0,0,0,.33.38l.07,0a.44.44,0,0,0-.15-.67" fill="#f3f5fb"/>
              <path d="M7.26,33.92h0c-.12,0-.2,0-.2.2a.5.5,0,0,0,.23.44c.15.05.23,0,.23-.27a.47.47,0,0,0-.21-.36" fill="#f3f5fb"/>
              <path d="M15.09,19.9h0c-.13-.05-.2.05-.21.22a.48.48,0,0,0,.2.4h0c.14.07.21,0,.24-.19a.52.52,0,0,0-.24-.43" fill="#f3f5fb"/>
              <path d="M19.72,26.79c-.06,0-.12,0-.18.08s0,.41.17.59c.16,0,.24-.12.27-.31a.83.83,0,0,0-.26-.36" fill="#f3f5fb"/>
              <path d="M5.65,20.27c-.1,0-.18,0-.19.15a.4.4,0,0,0,.2.44h0c.12.05.19,0,.21-.17a.44.44,0,0,0-.19-.4l0,0" fill="#f3f5fb"/>
              <path d="M19.65,32.62a1.09,1.09,0,0,0-.4,0,1.09,1.09,0,0,0,.42,1.07c.23-.07.42-.2.26-.66a.61.61,0,0,0-.28-.37" fill="#f3f5fb"/>
              <path d="M19.87,31.58h0c-.19-.08-.31,0-.32.29a.68.68,0,0,0,.35.63c.19,0,.31,0,.31-.31a.62.62,0,0,0-.32-.61" fill="#f3f5fb"/>
              <path d="M19.23,33.51a.23.23,0,0,0-.29.11c-.21.32,0,.68.29,1,.34.11.43-.14.4-.57a1.12,1.12,0,0,0-.4-.5" fill="#f3f5fb"/>
              <path d="M18.41,37.64h0M18,37.4c-.15-.07-.25,0-.29.23a.59.59,0,0,0,.29.65h0c.23.1.36,0,.35-.37a2.43,2.43,0,0,1,0-.27l-.2-.13A.53.53,0,0,0,18,37.4" fill="#f3f5fb"/>
              <path d="M20,30.46c-.17-.08-.29,0-.3.27a.66.66,0,0,0,.3.58c.2,0,.31,0,.31-.32a.62.62,0,0,0-.28-.52h0" fill="#f3f5fb"/>
              <path d="M20,29.28c-.17-.08-.28,0-.29.25A.58.58,0,0,0,20,30c.16.06.27,0,.27-.25a.51.51,0,0,0-.27-.51" fill="#f3f5fb"/>
              <path d="M18.5,37.58s-.06,0-.09.06h0c.08,0,.11,0,.12,0l0,0m.28-.53c-.15-.07-.24,0-.29.22s.05.24,0,.33.12.2.18.24h0c.18.08.31.06.35-.17a.59.59,0,0,0-.24-.59l-.07,0" fill="#f3f5fb"/>
              <path d="M19.45,36.54c-.17-.07-.28,0-.28.22a.55.55,0,0,0,.26.53h0c.16.07.24,0,.28-.24a.57.57,0,0,0-.26-.51h0" fill="#f3f5fb"/>
              <path d="M20,35.86c-.15,0-.24,0-.24.22a.45.45,0,0,0,.25.46h0c.15.05.22-.06.21-.26a.45.45,0,0,0-.25-.43" fill="#f3f5fb"/>
              <path d="M20,28.08a.86.86,0,0,0-.23,0h0c-.05.26-.11.53.2.71l0,0c.15.06.23,0,.22-.24s-.1-.39-.22-.44" fill="#f3f5fb"/>
              <path d="M20.47,35c-.11,0-.22,0-.23.19a.44.44,0,0,0,.23.44h0c.12.06.2,0,.21-.16a.45.45,0,0,0-.22-.47" fill="#f3f5fb"/>
            </g>
          </g>
        </g>
      </g>
      <g>
        <polygon points="24.2 19.46 1.41 9.17 25.96 0.24 48.75 10.53 24.2 19.46" fill="#1e3eb0"/>
        <g style="isolation: isolate">
          <g clip-path="url(#clip-path-2)">
            <g>
              <path d="M25.86,13.82h0M13.78,8.94h0m15.56,4a.71.71,0,0,1-.41-.05c-.13,0-.23-.07-.1-.12h0a1.22,1.22,0,0,1,.57,0c.18.06.05.11,0,.14l-.06,0m3.72-1.6a3.62,3.62,0,0,0-.62,0c.27-.07.52-.17.57,0a.18.18,0,0,0,.05.07M16.36,6.8a1.82,1.82,0,0,0-.28.13,5.79,5.79,0,0,1-.79.4L15,7.41l-.2,0a.91.91,0,0,0-.41.3A.84.84,0,0,1,14,8l-.22.06h0c-.05,0,0,.11,0,.16s.08.1,0,.15l-.11,0-.19.06c-.45.16-.2.31.33.44a2.5,2.5,0,0,0,.53-.1c.08,0,.12-.06.1-.11-.09-.26.33-.46.66-.58l.22-.07L15.48,8l.6-.25c.2-.09.4-.19.62-.27a4.69,4.69,0,0,1,1.15-.25,4.32,4.32,0,0,0-.59.13.31.31,0,0,0-.19.13c-.2.28-.79.46-1.16.68s-.47.51-.91.72a1.09,1.09,0,0,0-.47.63,6.28,6.28,0,0,0-.21,1c0,.22.31.45.14.69l.19.1c.4.05.46.1.15.23s-.14.22.15.29a1,1,0,0,0,.6,0l.07,0c.22-.11.15-.23-.13-.29s-.39-.12-.12-.22h0c.1,0,.16-.16.1-.18-.55-.21.25-.5-.29-.71,0,0,0-.09.07-.12.48-.24.35-.57.65-.83,0,0,0-.08.07-.11h.11c.17,0,.25.09.2.12-.35.23-.18.48-.22.73a4.89,4.89,0,0,0,.26,1c.1.26.49.5.51.71s1.1.44.87.79l.2.05c.36,0,.41.09.4.23s.2.2.52.22a1.27,1.27,0,0,0,.42-.05.38.38,0,0,0,.16-.11c.11-.12,0-.21-.26-.29s-.39,0-.43-.12a2,2,0,0,0-.92-.88c-.09-.06-.09-.11,0-.14l.07,0c.16,0,.34,0,.34.06-.09.25.45.34.71.51a4.7,4.7,0,0,0,2,.81c.07,0,.08.09.12.13a1,1,0,0,0,.71.19c.27,0,.39,0,.45.12a.67.67,0,0,0,.56.17c.67,0,1.08.43,1.83.15l.11,0c.26.31.71.2,1.16.09-.2-.13-.21-.37-.76-.31a.73.73,0,0,1-.62-.11.9.9,0,0,0-.64-.1c-.4.08-.4,0-.46-.13s-.17-.08-.09-.11h.11c.19,0,.42-.09.59,0a1.41,1.41,0,0,0,1,.11.6.6,0,0,1,.43.05,1.47,1.47,0,0,0,.91,0,.66.66,0,0,1,.44,0c.66.22,1.38-.17,2.07,0,0,0,.05,0,.11,0l.19-.07.12-.06a.3.3,0,0,1,.19,0,1.07,1.07,0,0,0,.67,0c.19-.06.28-.2.45-.29a1.2,1.2,0,0,0,.9.13.51.51,0,0,0,.16-.09.71.71,0,0,1,.2-.12,1.18,1.18,0,0,1,.51,0,.73.73,0,0,0,.37,0,.24.24,0,0,0,.16-.13c0-.11-.09-.2-.39-.22a1,1,0,0,0-.41,0,.22.22,0,0,0-.14.1.87.87,0,0,0-.08.23,1.51,1.51,0,0,0-1-.12l-.15.07c-.06,0-.1.1-.16.12a.42.42,0,0,1-.28,0c-.12,0-.47,0-.36-.13a.48.48,0,0,1,.2-.16,1.05,1.05,0,0,1,.3,0,1.89,1.89,0,0,0,.76-.1l.26-.11.28-.12a2,2,0,0,1,.55-.11l.07,0,.13-.06a.75.75,0,0,1,.18-.08,1.12,1.12,0,0,1,.49-.06h.1c.06,0,.11-.07.11-.11a.26.26,0,0,0-.08-.31c.15,0,.33,0,.47,0l.26-.08c.14-.05.24-.11.23-.21s1.14-.34.56-.67l.23,0a1.13,1.13,0,0,0,.31-.06c.14,0,.19-.12.12-.21A1,1,0,0,0,34.8,10a.76.76,0,0,0-.25,0c-.17.07-.21.17-.13.25s.07.12,0,.14-.27,0-.38,0-.31.18-.22.3,0,.08,0,.09a3.11,3.11,0,0,1-.33,0,.45.45,0,0,1-.35,0c-.06,0,0-.09,0-.12a.57.57,0,0,1,.15,0l.18-.05c.2-.07.22-.18.29-.29l-.09-.08.14,0c.58-.22,0-.58.57-.81.06,0,0-.13-.09-.18s-.19-.15,0-.23.14-.29-.13-.42l-.13,0,.13-.06c.16-.1.2-.22.15-.34a1.36,1.36,0,0,0-1,0l-.14.06-.1.05a.38.38,0,0,1-.24,0c-.13,0-.12-.08-.12-.14,0-.33-.61-.57-.88-.86-.15,0-.43,0-.41-.13.07-.38-1.13-.39-1.23-.72-.7,0-.72-.21-1-.37s-.74.11-.87-.06c-.28-.36-.78-.24-1.32-.12,0-.06-.05-.09,0-.12s-.09-.25-.49-.23a1.13,1.13,0,0,0-.31.06c-.1,0-.15.08-.14.15s.26.25.6.21.39,0,.61.1a14.15,14.15,0,0,1,1.55.49h.25c.13,0,.19,0,.18.07,0,.33.84.39,1.14.65a9.17,9.17,0,0,1,.88.66,1.25,1.25,0,0,1,.45,1.22,1.64,1.64,0,0,1-.94,1.23,5.92,5.92,0,0,0-1.07.54,1.47,1.47,0,0,1-.45.25,5,5,0,0,1-.76.19,13.48,13.48,0,0,1-2.84.34,12.17,12.17,0,0,1-2.78-.29A5.18,5.18,0,0,1,21,10.49c-.75-.55-.71-1.12-.24-1.61a3.37,3.37,0,0,1,1.34-.81A9.31,9.31,0,0,1,24.7,7.6a9.4,9.4,0,0,1,3.58.4c.19.07.29.25.61.17H29c.17-.07.06-.2,0-.3-.29-.78-1.37-1.28-3.08-1.64a18.23,18.23,0,0,0-4.71-.31,10.54,10.54,0,0,1-2,.15,3.1,3.1,0,0,1-1.24.25,1.68,1.68,0,0,1-.3.14,4.89,4.89,0,0,1-.61.17c-.22.06-.44.11-.64.18" fill="#f3f5fb"/>
              <path d="M13.78,8.94h0M13,9c-.16.06-.08.16.18.35.1.06.09.1,0,.12l-.28,0-.06,0c-.21.08-.24.18-.05.27a.83.83,0,0,0,.59,0l.06,0c.19-.07.19-.15.07-.25s-.29-.07-.25-.17a2,2,0,0,0,.49-.08c.25-.09.17-.24,0-.41A4.41,4.41,0,0,0,13,9" fill="#f3f5fb"/>
              <path d="M20.45,13.55c-.22.09-.24.2,0,.29a1,1,0,0,0,.67,0l0,0c.2-.08.18-.18,0-.27a1.1,1.1,0,0,0-.67,0h0" fill="#f3f5fb"/>
              <path d="M19.42,13.17h0c-.24.11-.23.23,0,.33a1,1,0,0,0,.68,0l.05,0c.21-.09.19-.2-.05-.31a1.19,1.19,0,0,0-.7,0" fill="#f3f5fb"/>
              <path d="M27.29,13.86h0m0-.09h0m-1.43.05h0m.23-.1-.22.1a1.63,1.63,0,0,0,1.4,0h0l-.12-.06s0,0,0,0h.12a1.73,1.73,0,0,0-1.2,0" fill="#f3f5fb"/>
              <path d="M33.25,12.12l-.06,0c-.18.09-.2.2.06.26a1.1,1.1,0,0,0,.62.06l0,0c.19-.09.08-.21,0-.31a1,1,0,0,0-.61,0" fill="#f3f5fb"/>
              <path d="M25,5.39c-.18.08-.21.17,0,.26a.94.94,0,0,0,.7,0h0c.23-.09.2-.2,0-.29a1,1,0,0,0-.67,0" fill="#f3f5fb"/>
              <path d="M27.29,13.86h0m.08-.08c.08,0,.06.05,0,.07l-.07,0,.19.09a.93.93,0,0,0,.7,0l.05,0c.19-.06.19-.16,0-.24a.94.94,0,0,0-.72,0l-.06,0a.22.22,0,0,1-.14,0m-.06,0h0" fill="#f3f5fb"/>
              <path d="M34.13,11.81h0l0,.22.08,0,.16,0h.21l.16,0c.17-.06.23-.14.2-.25a1.16,1.16,0,0,0-.82,0" fill="#f3f5fb"/>
              <path d="M15.37,12.08c-.22.08-.21.17,0,.26a.87.87,0,0,0,.6,0h0c.19-.07.22-.16.06-.25a.83.83,0,0,0-.64,0h0" fill="#f3f5fb"/>
              <path d="M21.58,13.87c-.19.1-.17.18.05.27a.83.83,0,0,0,.56,0h0c.17-.07.19-.16,0-.24a.88.88,0,0,0-.64,0" fill="#f3f5fb"/>
              <path d="M23.72,5.29c-.17.08-.19.17,0,.26a.86.86,0,0,0,.59,0c.19-.07.24-.16.07-.24a.83.83,0,0,0-.68,0" fill="#f3f5fb"/>
              <path d="M29,13.71c-.19.07-.19.16,0,.23a.81.81,0,0,0,.61,0l0,0c.17-.08.14-.16,0-.24a.92.92,0,0,0-.59,0h0" fill="#f3f5fb"/>
              <path d="M16,12.59h0c-.2.07-.14.15,0,.24a1,1,0,0,0,.55,0l0,0c.17-.08.12-.17-.08-.23a.69.69,0,0,0-.49,0" fill="#f3f5fb"/>
              <path d="M12.77,10.14c-.16.06-.15.14,0,.21a.72.72,0,0,0,.58,0h0c.15,0,.15-.13,0-.21a.85.85,0,0,0-.57,0h0" fill="#f3f5fb"/>
              <path d="M22.41,5.25c-.17.06-.16.15,0,.23a.81.81,0,0,0,.58,0c.17-.06.24-.14.06-.23a.79.79,0,0,0-.57,0h0" fill="#f3f5fb"/>
              <path d="M30.3,13.62c-.13.05-.16.12,0,.19a.68.68,0,0,0,.57,0h0c.16-.06.15-.13,0-.2a.73.73,0,0,0-.53,0H30.3" fill="#f3f5fb"/>
              <path d="M35.11,11.41c-.17.06-.13.14.18.26a2.16,2.16,0,0,0,.44-.06c.17-.07.07-.16-.21-.28a1.82,1.82,0,0,0-.41.08" fill="#f3f5fb"/>
              <path d="M21.12,5.3c-.16.06-.18.14,0,.21a.77.77,0,0,0,.52,0h0c.16,0,.17-.12.06-.19a.72.72,0,0,0-.52,0l-.05,0" fill="#f3f5fb"/>
              <path d="M16.75,13.05l0,0c-.13,0-.13.12,0,.18a.7.7,0,0,0,.52,0c.12-.06.17-.13,0-.19a.75.75,0,0,0-.49,0" fill="#f3f5fb"/>
              <path d="M22.85,14.12c-.14.06-.2.13-.08.21a.73.73,0,0,0,.57.05l.05,0c.14,0,.14-.12.05-.19a.86.86,0,0,0-.59-.05" fill="#f3f5fb"/>
              <path d="M31.62,13.46l-.05,0c-.12.06-.13.13,0,.18a.66.66,0,0,0,.48,0h0c.15-.06.14-.14,0-.2a.64.64,0,0,0-.45,0" fill="#f3f5fb"/>
              <path d="M35.9,11c-.14,0-.08.14,0,.22a1.47,1.47,0,0,0,.53,0l.07,0c0-.11-.08-.22-.42-.18l-.2,0" fill="#f3f5fb"/>
              <path d="M24.16,14.32l0,0c-.12.06-.13.13,0,.18a.72.72,0,0,0,.5,0c.16-.07.15-.14,0-.22a.7.7,0,0,0-.43,0" fill="#f3f5fb"/>
              <path d="M19.84,5.4h0c-.13,0-.11.13,0,.18a.68.68,0,0,0,.45,0h0c.15-.06.14-.13,0-.2a.72.72,0,0,0-.5,0" fill="#f3f5fb"/>
              <path d="M28.48,5.13c-.06,0-.09.06-.07.12s.31.13.56.1.1-.17,0-.25a1.38,1.38,0,0,0-.47,0" fill="#f3f5fb"/>
              <path d="M12.84,10.71c-.11,0-.15.09,0,.15a.53.53,0,0,0,.48,0h0c.13-.05.13-.11,0-.17a.6.6,0,0,0-.44,0l-.05,0" fill="#f3f5fb"/>
              <path d="M32.74,7.09a1.79,1.79,0,0,0-.34.2,1.41,1.41,0,0,0,1.12.12c.12-.14.17-.29-.29-.36a1,1,0,0,0-.49,0" fill="#f3f5fb"/>
              <path d="M32.14,6.63h0c-.2.08-.21.19,0,.28a1.07,1.07,0,0,0,.73,0c.19-.09.21-.18,0-.27a.89.89,0,0,0-.7,0" fill="#f3f5fb"/>
              <path d="M33.08,7.61c-.11,0-.17.11-.15.2s.47.24.93.15.24-.28-.11-.4a1.9,1.9,0,0,0-.67.05" fill="#f3f5fb"/>
              <path d="M35.49,9.42h0M35,9.54c-.17.06-.19.15-.06.24a.86.86,0,0,0,.71.06h0c.26-.09.27-.21,0-.31l-.2-.09-.24.06a.9.9,0,0,0-.22,0" fill="#f3f5fb"/>
              <path d="M31.42,6.18c-.2.07-.21.17,0,.25a.93.93,0,0,0,.66,0c.19-.09.2-.19,0-.27a.92.92,0,0,0-.59,0h0" fill="#f3f5fb"/>
              <path d="M30.56,5.78c-.18.06-.19.16,0,.23a.87.87,0,0,0,.6,0c.16-.07.19-.16,0-.24a.8.8,0,0,0-.59,0" fill="#f3f5fb"/>
              <path d="M35.52,9.35s-.05,0,0,.07h0c.07,0,.08-.06,0-.08h0M35.33,9c-.16.07-.16.14,0,.24s.22.05.27.08.24,0,.32,0h0c.19-.07.29-.15.15-.25A.75.75,0,0,0,35.43,9l-.1,0" fill="#f3f5fb"/>
              <path d="M35.48,8.49c-.18.07-.22.15,0,.23a.85.85,0,0,0,.59,0h0c.18-.07.15-.15,0-.23a.88.88,0,0,0-.58,0h0" fill="#f3f5fb"/>
              <path d="M35.4,8c-.15.07-.17.14,0,.21a.7.7,0,0,0,.53,0h0c.15-.07.12-.14,0-.21a.75.75,0,0,0-.51,0" fill="#f3f5fb"/>
              <path d="M29.62,5.42a.88.88,0,0,0-.21.12h0a.64.64,0,0,0,.68.13h0c.16-.06.15-.14,0-.2a.71.71,0,0,0-.49,0" fill="#f3f5fb"/>
              <path d="M35.15,7.43c-.11.05-.18.12,0,.19a.66.66,0,0,0,.5,0h0c.13,0,.14-.11,0-.16a.65.65,0,0,0-.53,0" fill="#f3f5fb"/>
            </g>
          </g>
        </g>
      </g>
      <g>
        <polygon points="48.75 10.53 48.59 40.82 24.04 49.76 24.2 19.46 48.75 10.53" fill="#1f3fb4"/>
        <g style="isolation: isolate">
          <g clip-path="url(#clip-path-3)">
            <g>
              <path d="M31.92,38.84v0h0m-.62-15.2v0h0M35,38.29c-.15.06-.14-.15-.17-.26s0-.25.1-.31h0c.2-.07.22.15.3.26s-.1.24-.18.29a.09.09,0,0,1-.06,0m4-1.86a.59.59,0,0,0-.32-.3c.24-.05.5-.15.37.13a1.54,1.54,0,0,0-.05.17M35.36,20.16a1.91,1.91,0,0,0-.32.16,5.71,5.71,0,0,1-.93.53l-.23.06a.57.57,0,0,0-.18,0,1.82,1.82,0,0,0-.59.46,2,2,0,0,1-.55.44.69.69,0,0,1-.2,0h0a.89.89,0,0,0-.2.33c0,.17-.09.26-.21.31l-.1,0-.18,0c-.45.16-.49.58-.36,1.07a1,1,0,0,0,.41,0,.35.35,0,0,0,.2-.2A1.79,1.79,0,0,1,33,22.5l.21-.07.17-.05c.21-.08.43-.19.64-.29a6.56,6.56,0,0,1,.67-.3,1.4,1.4,0,0,1,.94-.07,1.12,1.12,0,0,0-.48,0,.56.56,0,0,0-.26.19,5.71,5.71,0,0,1-1.49,1c-.49.33-.88.87-1.39,1.16a4.49,4.49,0,0,0-1,1.14c-.48.67-.95,1.38-1.39,2.09a8.89,8.89,0,0,1-.77,1.5l0,.29c.16.27.13.4-.21.56a.58.58,0,0,0-.27.67.24.24,0,0,0,.35.2l.08,0a.57.57,0,0,0,.29-.66c-.08-.27-.07-.41.2-.51h0a.67.67,0,0,0,.28-.35c0-.66.75-.95.71-1.61a.47.47,0,0,1,.2-.23c.56-.32.89-1.05,1.38-1.5.06-.05.1-.17.17-.19s0,0,.07,0,0,.29,0,.34a5,5,0,0,0-1,1.44c-.19.29-.9,1.83-1.05,2.15-.26.57-.34,1.24-.6,1.71-.43.72.06,1.37-.49,2l.05.19c.18.18.1.37-.06.65a.51.51,0,0,0,0,.67.28.28,0,0,0,.3.07.76.76,0,0,0,.21-.15.83.83,0,0,0,.22-.72c0-.15-.22-.16-.09-.43a7.21,7.21,0,0,0,.58-2.23c0-.17.08-.27.18-.31h.07c.12,0,.16.18.11.26-.36.5-.18.91-.24,1.37A4.61,4.61,0,0,0,30.3,35c0,.06-.06.21-.09.32-.09.32-.06.57.16.68s.2.17.1.44-.08.53.09.59c.43.16.07,1.34.83,1.06v.13c-.24.77.15.71.53.65,0-.35.34-.86,0-1s-.26-.19-.21-.49,0-.46-.23-.46-.16-.26-.1-.47,0-.24.09-.26h.08c.13,0,.34,0,.3.3s.1.64.43.64c.15,0,.17.11.17.28,0,.36.18.47.45.46.11,0,.24-.07.26.14.08.75,1,.22,1.11.9l.09,0,.2-.08.14-.08s.08,0,.1.08c.09.3.21.36.35.31a5.43,5.43,0,0,0,.61-.44c0,.38.06.74.33.64a.63.63,0,0,0,.21-.13.86.86,0,0,1,.26-.17c.12,0,.19,0,.29.19a.17.17,0,0,0,.24.08.63.63,0,0,0,.25-.2c.16-.23.2-.47.06-.63a.24.24,0,0,0-.27-.1.77.77,0,0,0-.22.17c-.09.11-.17.25-.31.45,0-.39-.09-.76-.41-.65l-.17.09a2.84,2.84,0,0,1-.23.19c-.06,0-.1,0-.11-.18s-.24-.23,0-.43.19-.21.3-.24a.17.17,0,0,1,.2,0,.44.44,0,0,0,.55.09,2.28,2.28,0,0,0,.28-.13l.3-.13a.61.61,0,0,1,.44,0h.06l.15-.08.19-.1a.29.29,0,0,1,.35.07s0,0,.07,0a.58.58,0,0,0,.2-.19,1.84,1.84,0,0,0,.33-.68c.06.1.18.14.23.25l.24-.06a.72.72,0,0,0,.38-.35c.31-.52,1-.25,1.14-1.19l.16,0a.52.52,0,0,0,.25,0,.57.57,0,0,0,.32-.39.44.44,0,0,0-.19-.57.25.25,0,0,0-.19,0,.71.71,0,0,0-.38.46c-.05.21-.1.29-.16.31s-.18-.06-.26-.06a.82.82,0,0,0-.5.55.36.36,0,0,1-.11.18c-.08,0-.15-.08-.22-.08s-.19,0-.15-.22.09-.2.16-.22a.2.2,0,0,1,.13,0,.41.41,0,0,0,.16,0c.19-.07.34-.3.51-.49l.05-.21.14,0c.58-.21.73-1.21,1.3-1.46a.91.91,0,0,0,.18-.43c0-.23.07-.38.29-.49a1,1,0,0,0,.43-.93l0-.1.15-.08a1.56,1.56,0,0,0,.5-.64c0-.4-.15-.62-.46-.5l-.16.08-.1.05c-.07,0-.12,0-.15-.09a.54.54,0,0,1,.11-.35,9.45,9.45,0,0,0,.59-2.17c-.05-.14-.22-.23-.08-.45.51-.76-.14-1.28.21-2-.43-.21-.12-.76-.08-1.19s-.54-.08-.41-.48c.29-.88-.13-.83-.58-.79a2.35,2.35,0,0,1,.13-.27c.22-.31.26-.56,0-.68a.27.27,0,0,0-.23,0,.6.6,0,0,0-.27.26c-.18.32-.16.65.07.69s.16.26.21.48a10.79,10.79,0,0,1,.26,1.64l.13.11c.07.05.09.11,0,.23-.43.66,0,1.16-.17,1.83-.11.52-.18,1.24-.33,1.75A9.08,9.08,0,0,1,41,31.3a7,7,0,0,1-2,2.21,6.38,6.38,0,0,0-1.26.72,1.61,1.61,0,0,1-.55.33,1.82,1.82,0,0,1-.66.11,3.13,3.13,0,0,1-2-.45,3.29,3.29,0,0,1-1.17-1.74,6.15,6.15,0,0,1,0-2.63,6.48,6.48,0,0,1,1.86-3.51A5,5,0,0,1,37,25.18a2.49,2.49,0,0,1,2,.06,2.57,2.57,0,0,1,1.48,2.29c0,.22-.15.64.12.61h0c.18-.06.28-.39.39-.62a6.11,6.11,0,0,0,.33-4.72,4.17,4.17,0,0,0-2.21-2.55c-.43-.22-1,0-1.31-.51-.33,0-.74.37-1,0a1.16,1.16,0,0,1-.34.19,2.55,2.55,0,0,1-.55.11,2.42,2.42,0,0,0-.57.12" fill="#f3f5fb"/>
              <path d="M31.3,23.64h0v0m-.54-.12c-.16.06-.24.3-.33.8,0,.18-.07.25-.12.27s-.15,0-.22,0l-.05,0a.57.57,0,0,0-.36.55c0,.23.09.36.28.32l.06,0a.59.59,0,0,0,.34-.49c0-.15-.07-.28.07-.47a.49.49,0,0,0,.37,0c.25-.09.39-.44.49-.86-.25-.12-.41-.17-.53-.13" fill="#f3f5fb"/>
              <path d="M29.27,36.09a.61.61,0,0,0-.36.6c0,.26.13.37.35.29l0,0a.62.62,0,0,0,.33-.57c0-.25-.15-.37-.35-.3h0" fill="#f3f5fb"/>
              <path d="M29.18,34.86h0a.66.66,0,0,0-.38.7c0,.27.15.37.36.29l.05,0a.71.71,0,0,0,.37-.69c-.06-.19-.15-.37-.39-.28" fill="#f3f5fb"/>
              <path d="M32.66,39.52h0v0m.11-.19h0m-.84-.49v0h0m.24-.11a1.33,1.33,0,0,0-.24.12c-.07.7.21.86.7.68h0v-.16a.14.14,0,0,1,0-.07s.05,0,.08,0c-.05-.49-.23-.74-.6-.6" fill="#f3f5fb"/>
              <path d="M38.09,38.25s0,0-.06,0a.51.51,0,0,0-.29.57c0,.17.09.43.28.36l0,0a.9.9,0,0,0,.35-.67c0-.21-.14-.34-.32-.27" fill="#f3f5fb"/>
              <path d="M41.87,20.67a.62.62,0,0,0-.34.56c0,.29.12.43.35.34h0a.61.61,0,0,0,.34-.63c0-.26-.15-.33-.37-.27" fill="#f3f5fb"/>
              <path d="M32.66,39.52v0h0v0m.14-.14a.13.13,0,0,1-.08.15h-.06a2.53,2.53,0,0,1,0,.27c0,.3.08.45.33.39h0a.58.58,0,0,0,.33-.51c0-.3-.14-.4-.38-.32l-.07,0s-.08,0-.1,0m0-.05h0l0,0s0,0,0-.05" fill="#f3f5fb"/>
              <path d="M39,38h0c-.09.16-.17.32-.26.47v.1l.05.13.11.1a.32.32,0,0,0,.14,0,.82.82,0,0,0,.42-.44c0-.32-.19-.43-.45-.33" fill="#f3f5fb"/>
              <path d="M28.29,30.93a.51.51,0,0,0-.33.53c0,.23.1.35.29.3h0a.53.53,0,0,0,.34-.5c0-.28-.1-.38-.31-.33h0" fill="#f3f5fb"/>
              <path d="M29.5,37.22a.57.57,0,0,0-.3.58c0,.23.14.29.31.23h0a.52.52,0,0,0,.3-.5c0-.27-.12-.35-.33-.3" fill="#f3f5fb"/>
              <path d="M41.28,20a.58.58,0,0,0-.31.55c0,.24.13.31.33.24a.47.47,0,0,0,.32-.47c0-.28-.09-.39-.34-.32" fill="#f3f5fb"/>
              <path d="M33.76,39.88a.48.48,0,0,0-.3.47c0,.25.1.37.3.3l0,0a.6.6,0,0,0,.3-.51c0-.21-.14-.31-.33-.24h0" fill="#f3f5fb"/>
              <path d="M28,32.25h0c-.2.08-.26.28-.29.51s.13.29.29.23L28,33a.48.48,0,0,0,.24-.52c0-.19-.11-.25-.28-.19" fill="#f3f5fb"/>
              <path d="M29.26,25.76a.47.47,0,0,0-.27.43c0,.24.08.36.29.28h0a.5.5,0,0,0,.28-.44c0-.21-.1-.33-.29-.27h0" fill="#f3f5fb"/>
              <path d="M40.6,19.34a.52.52,0,0,0-.29.47c0,.22.1.32.28.29a.51.51,0,0,0,.33-.47c0-.24-.1-.34-.28-.3h0" fill="#f3f5fb"/>
              <path d="M34.61,40.23a.45.45,0,0,0-.26.39c0,.24,0,.38.26.32h0a.5.5,0,0,0,.27-.42c0-.22-.08-.33-.24-.3h0" fill="#f3f5fb"/>
              <path d="M40,37.5c-.17.06-.25.26-.22.63a.43.43,0,0,0,.32,0c.17-.06.23-.31.22-.67a.58.58,0,0,0-.32,0" fill="#f3f5fb"/>
              <path d="M39.84,18.92a.41.41,0,0,0-.27.43c0,.21.11.28.27.23h0a.49.49,0,0,0,.28-.4c0-.22-.09-.32-.25-.28l0,0" fill="#f3f5fb"/>
              <path d="M27.85,33.54h0a.41.41,0,0,0-.22.38c0,.22.07.29.27.25a.43.43,0,0,0,.23-.42c0-.18-.09-.28-.25-.22" fill="#f3f5fb"/>
              <path d="M29.89,38.27a.5.5,0,0,0-.3.4c0,.25.07.37.25.34l.05,0a.46.46,0,0,0,.26-.37c0-.27-.07-.35-.26-.35" fill="#f3f5fb"/>
              <path d="M35.54,40.43l-.06,0a.4.4,0,0,0-.22.37c0,.2.1.28.25.23h0a.43.43,0,0,0,.25-.42c0-.19-.11-.24-.24-.19" fill="#f3f5fb"/>
              <path d="M41,36.89c-.15,0-.22.26-.27.48a.31.31,0,0,0,.35.1l.08,0c.13-.23.22-.48,0-.54a.19.19,0,0,0-.15,0" fill="#f3f5fb"/>
              <path d="M30.37,39.22l-.05,0a.41.41,0,0,0-.23.37c0,.2.11.29.26.24a.46.46,0,0,0,.25-.46c0-.14-.1-.23-.23-.18" fill="#f3f5fb"/>
              <path d="M39,18.61h0a.41.41,0,0,0-.22.39c0,.16.07.26.21.23h0a.46.46,0,0,0,.27-.4c0-.18-.11-.28-.26-.22" fill="#f3f5fb"/>
              <path d="M44.1,21.54c-.06,0-.13.09-.2.23-.14.31,0,.4.19.44a.72.72,0,0,0,.3-.53c-.09-.09-.18-.18-.29-.14" fill="#f3f5fb"/>
              <path d="M28.6,27a.34.34,0,0,0-.21.31c0,.22.05.33.22.27h0a.41.41,0,0,0,.23-.34c0-.18-.07-.28-.22-.24h0" fill="#f3f5fb"/>
              <path d="M44,27.4a2.86,2.86,0,0,0-.44.3c0,.43,0,.8.47.71.25-.26.46-.55.28-.87-.09-.16-.19-.18-.31-.14" fill="#f3f5fb"/>
              <path d="M44.26,26.19h0a.58.58,0,0,0-.36.56c0,.3.15.39.38.33a.61.61,0,0,0,.35-.57c0-.28-.12-.42-.36-.33" fill="#f3f5fb"/>
              <path d="M43.56,28.65a.64.64,0,0,0-.32.36c-.23.48,0,.7.32.7a.8.8,0,0,0,.44-.9.43.43,0,0,0-.44-.16" fill="#f3f5fb"/>
              <path d="M42.65,33.46h0m-.4.07a.58.58,0,0,0-.33.48c-.05.32.09.48.33.4h0a.6.6,0,0,0,.39-.66,2.43,2.43,0,0,1,0-.27l-.21,0a.4.4,0,0,0-.19,0" fill="#f3f5fb"/>
              <path d="M44.42,25a.55.55,0,0,0-.34.52c0,.28.13.36.33.33a.61.61,0,0,0,.34-.58c0-.22-.12-.34-.3-.28h0" fill="#f3f5fb"/>
              <path d="M44.45,23.75a.52.52,0,0,0-.32.49c0,.24.12.31.32.27a.5.5,0,0,0,.29-.48c0-.23-.1-.35-.29-.28" fill="#f3f5fb"/>
              <path d="M42.76,33.32s-.07,0-.11.14h0q.12-.08.12-.15h0m.3-.77c-.17.06-.26.23-.32.47s.06.2,0,.29.14.1.21.08h0a.56.56,0,0,0,.39-.46c0-.27-.06-.42-.27-.39l-.08,0" fill="#f3f5fb"/>
              <path d="M43.8,31.48a.48.48,0,0,0-.31.46c0,.24.11.35.29.31h0a.58.58,0,0,0,.31-.48c0-.22-.1-.34-.29-.29h0" fill="#f3f5fb"/>
              <path d="M44.41,30.33a.44.44,0,0,0-.27.43c0,.24.11.31.28.24h0a.47.47,0,0,0,.24-.45c0-.21-.12-.26-.28-.21" fill="#f3f5fb"/>
              <path d="M44.36,22.62a1.43,1.43,0,0,0-.26.15h0c0,.3-.12.62.22.54h0a.41.41,0,0,0,.24-.43c0-.25-.11-.29-.24-.25" fill="#f3f5fb"/>
              <path d="M44.92,29.12a.42.42,0,0,0-.25.38c0,.21.1.29.26.24h0a.38.38,0,0,0,.23-.34c0-.21,0-.33-.25-.28" fill="#f3f5fb"/>
            </g>
          </g>
        </g>
      </g>
    </g>
  </g>
</svg>
