<svg id="Capa_1" data-name="Capa 1" xmlns="http://www.w3.org/2000/svg" xmlns:xlink="http://www.w3.org/1999/xlink" width="50" height="50" viewBox="0 0 50 50">
  <defs>
    <clipPath id="clip-path">
      <polygon points="24.04 49.77 1.25 39.48 1.41 9.18 24.2 19.47 24.04 49.77" fill="none"/>
    </clipPath>
    <clipPath id="clip-path-2">
      <polygon points="24.2 19.47 1.41 9.18 25.96 0.24 48.75 10.54 24.2 19.47" fill="none"/>
    </clipPath>
    <clipPath id="clip-path-3">
      <polygon points="48.75 10.54 48.59 40.83 24.04 49.77 24.2 19.47 48.75 10.54" fill="none"/>
    </clipPath>
  </defs>
  <g id="Figment_lido">
    <g style="isolation: isolate">
      <g>
        <polygon points="24.04 49.77 1.25 39.48 1.41 9.18 24.2 19.47 24.04 49.77" fill="#353535"/>
        <g style="isolation: isolate">
          <g clip-path="url(#clip-path)">
            <g>
              <path d="M9.66,33.82a5.09,5.09,0,0,1-2.23-2.91c-.93-2.71.12-4.84,2-4.09.3.12.61.25.91.39l1.83.86c0,1.36.06,2.75-.06,4C12,33.54,11.1,34.2,10,33.93a1.52,1.52,0,0,1-.32-.11m3.11-9.67c-1.17-.54-2.35-1.07-3.52-1.58a3,3,0,0,0-3.79.69c-1.95,2.2-1.94,6.21,0,10.16A9.37,9.37,0,0,0,9.64,38a3.45,3.45,0,0,0,4.75-1.39,7.8,7.8,0,0,0,.91-3.85c0-1.07,0-2.16,0-3.29l2.56,1.17,0-4.12-.43-.19-4.71-2.16" fill="#fff"/>
              <path d="M20.79,22.47l-2-.91-.06,6.8,2,.91.05-6.8" fill="#fff"/>
            </g>
          </g>
        </g>
      </g>
      <g>
        <polygon points="24.2 19.47 1.41 9.18 25.96 0.24 48.75 10.54 24.2 19.47" fill="#3a3a3a"/>
        <g style="isolation: isolate">
          <g clip-path="url(#clip-path-2)">
            <g>
              <path d="M27.31,12.85a8.38,8.38,0,0,1-3.72.26c-2.62-.35-3.37-1.59-1.42-2.37l.95-.36c.64-.23,1.31-.46,1.95-.7,1,.44,2,.84,2.83,1.3s.74,1.23-.27,1.74l-.32.13M22.69,8.14,19,9.51c-1.56.59-2.37,1.35-2.3,2.23.14,1.73,3,3,7.25,3.23a16.62,16.62,0,0,0,6.35-.79c1.94-.71,3-1.8,2.5-3a4,4,0,0,0-2.09-1.7c-.75-.35-1.53-.69-2.33-1l2.71-1L28.14,6.16l-.45.17-5,1.81" fill="#fff"/>
              <path d="M27.39,3.36l-2.12.77,4.82,2.18,2.12-.77L27.39,3.36" fill="#fff"/>
            </g>
          </g>
        </g>
      </g>
      <g>
        <polygon points="48.75 10.54 48.59 40.83 24.04 49.77 24.2 19.47 48.75 10.54" fill="#3b3b3b"/>
        <g style="isolation: isolate">
          <g clip-path="url(#clip-path-3)">
            <g>
              <path d="M34.41,37a1.86,1.86,0,0,1-2.31-.93c-1-1.77.11-4.6,2.09-5.44l.94-.37c.63-.23,1.26-.43,1.89-.66,0,1.28.07,2.52-.05,3.79a4.56,4.56,0,0,1-2.23,3.45l-.33.16m3.18-11.51c-1.22.44-2.43.89-3.64,1.35A7.88,7.88,0,0,0,30,30.56c-2,3.61-2,7.34,0,9.49a3.86,3.86,0,0,0,4.35.88,9.15,9.15,0,0,0,4.89-5.1,10.86,10.86,0,0,0,.92-4.31c0-1,0-2,0-3.08l2.64-1,0-3.87-.44.16-4.86,1.76" fill="#fff"/>
              <path d="M45.85,17.55l-2.06.75,0,6.38,2.07-.75,0-6.38" fill="#fff"/>
            </g>
          </g>
        </g>
      </g>
    </g>
  </g>
</svg>
