<svg id="Capa_1" data-name="Capa 1" xmlns="http://www.w3.org/2000/svg" xmlns:xlink="http://www.w3.org/1999/xlink" width="50" height="50" viewBox="0 0 50 50">
  <defs>
    <clipPath id="clip-path">
      <polygon points="24.04 49.77 1.25 39.48 1.41 9.17 24.2 19.46 24.04 49.77" fill="none"/>
    </clipPath>
    <clipPath id="clip-path-2">
      <polygon points="24.2 19.46 1.41 9.17 25.96 0.24 48.74 10.53 24.2 19.46" fill="none"/>
    </clipPath>
    <clipPath id="clip-path-3">
      <polygon points="48.74 10.53 48.59 40.83 24.04 49.77 24.2 19.46 48.74 10.53" fill="none"/>
    </clipPath>
  </defs>
  <g id="Figment_lido">
    <g style="isolation: isolate">
      <g>
        <polygon points="24.04 49.77 1.25 39.48 1.41 9.17 24.2 19.46 24.04 49.77" fill="#d6cb81"/>
        <g style="isolation: isolate">
          <g clip-path="url(#clip-path)">
            <path d="M16.84,22.65l-8.68-4L8,35.24l2.19,1,.09-7.06,6.15,2.85,0-2.65-6.15-2.85.05-4.21,6.49,3,0-2.69"/>
          </g>
        </g>
      </g>
      <g>
        <polygon points="24.2 19.46 1.41 9.17 25.96 0.24 48.74 10.53 24.2 19.46" fill="#ebdf8e"/>
        <g style="isolation: isolate">
          <g clip-path="url(#clip-path-2)">
            <path d="M24.65,5.16,15.38,8.54,27.26,13.9l2.34-.85-5.05-2.28,6.58-2.39-1.89-.86L22.67,9.91l-3-1.36L26.58,6l-1.93-.87"/>
          </g>
        </g>
      </g>
      <g>
        <polygon points="48.74 10.53 48.59 40.83 24.04 49.77 24.2 19.46 48.74 10.53" fill="#f0e491"/>
        <g style="isolation: isolate">
          <g clip-path="url(#clip-path-3)">
            <path d="M41.52,21.2l-8.66,3.15-.08,15.11,2.19-.8,0-6.42L41.15,30V27.59L35,29.83,35,26l6.47-2.36V21.2"/>
          </g>
        </g>
      </g>
    </g>
  </g>
</svg>
