<svg id="Capa_1" data-name="Capa 1" xmlns="http://www.w3.org/2000/svg" xmlns:xlink="http://www.w3.org/1999/xlink" width="50" height="50" viewBox="0 0 50 50">
  <defs>
    <clipPath id="clip-path">
      <polygon points="24.04 49.76 1.25 39.47 1.41 9.17 24.2 19.46 24.04 49.76" fill="none"/>
    </clipPath>
    <clipPath id="clip-path-2">
      <polygon points="24.2 19.46 1.41 9.17 25.96 0.24 48.74 10.53 24.2 19.46" fill="none"/>
    </clipPath>
    <clipPath id="clip-path-3">
      <polygon points="48.74 10.53 48.59 40.82 24.04 49.76 24.2 19.46 48.74 10.53" fill="none"/>
    </clipPath>
  </defs>
  <g id="Figment_lido">
    <g style="isolation: isolate">
      <g>
        <polygon points="24.04 49.76 1.25 39.47 1.41 9.17 24.2 19.46 24.04 49.76" fill="#06162d"/>
        <g style="isolation: isolate">
          <g clip-path="url(#clip-path)">
            <g>
              <path d="M12.27,19.86l0,7a4.1,4.1,0,0,1,1.82,3.53c0,1.3-.65,1.89-1.83,1.7l0,7c2.57,1,4.59.47,6-1.83,1.59-2.63,1.52-6.95-.17-10.85q-2.1-4.89-5.73-6.62" fill="#fff"/>
              <path d="M11.31,19.42l-4.48-2L6.75,36.68l4.48,2,.08-19.28" fill="#fff"/>
            </g>
          </g>
        </g>
      </g>
      <g>
        <polygon points="24.2 19.46 1.41 9.17 25.96 0.24 48.74 10.53 24.2 19.46" fill="#061832"/>
        <g style="isolation: isolate">
          <g clip-path="url(#clip-path-2)">
            <g>
              <path d="M17.42,6.74l5.26,2.38a6.2,6.2,0,0,1,4.09.17c1,.45.91,1-.16,1.6l5.28,2.38c2.79-1.09,4-2.41,3.32-4-.74-1.77-4-3.18-8.31-3.55a22.55,22.55,0,0,0-9.48,1" fill="#fff"/>
              <path d="M16.33,7.13,11.3,9l14.45,6.52,5-1.83L16.33,7.13" fill="#fff"/>
            </g>
          </g>
        </g>
      </g>
      <g>
        <polygon points="48.74 10.53 48.59 40.82 24.04 49.76 24.2 19.46 48.74 10.53" fill="#071833"/>
        <g style="isolation: isolate">
          <g clip-path="url(#clip-path-3)">
            <g>
              <path d="M36.07,20.69l0,7.21c1.47-.07,2.09.55,2.06,2A4,4,0,0,1,36,33.27l0,7.23a12.67,12.67,0,0,0,6.76-7.08c1.8-4.07,1.72-8.42-.18-11-1.58-2.11-3.74-2.71-6.48-1.78" fill="#fff"/>
              <path d="M35,21.08l-5.07,1.85-.1,19.78,5.07-1.84L35,21.08" fill="#fff"/>
            </g>
          </g>
        </g>
      </g>
    </g>
  </g>
</svg>
