<svg id="Capa_1" data-name="Capa 1" xmlns="http://www.w3.org/2000/svg" xmlns:xlink="http://www.w3.org/1999/xlink" width="50" height="50" viewBox="0 0 50 50">
  <defs>
    <clipPath id="clip-path">
      <polygon points="24.04 49.76 1.26 39.47 1.42 9.18 24.2 19.46 24.04 49.76" fill="none"/>
    </clipPath>
    <clipPath id="clip-path-2">
      <polygon points="24.2 19.46 1.42 9.18 25.96 0.24 48.75 10.53 24.2 19.46" fill="none"/>
    </clipPath>
    <clipPath id="clip-path-3">
      <polygon points="48.75 10.53 48.59 40.83 24.04 49.76 24.2 19.46 48.75 10.53" fill="none"/>
    </clipPath>
  </defs>
  <g id="Figment_lido">
    <g style="isolation: isolate">
      <g>
        <polygon points="24.04 49.76 1.26 39.47 1.42 9.18 24.2 19.46 24.04 49.76" fill="#127883"/>
        <g style="isolation: isolate">
          <g clip-path="url(#clip-path)">
            <g>
              <path d="M11.87,35,9.3,30.24,12,27.9l2.58,4.77L11.87,35M12,24.47l-5.23,4.6,5.06,9.36,5.24-4.58L12,24.47" fill="#fff"/>
              <polyline points="7.67 21.22 6.17 22.55 7.62 25.24 9.13 23.93 7.67 21.22" fill="#fff"/>
              <polyline points="16.66 25.4 15.16 26.73 16.61 29.41 18.12 28.1 16.66 25.4" fill="#fff"/>
              <polyline points="7.59 33.54 6.09 34.87 7.54 37.55 9.05 36.24 7.59 33.54" fill="#fff"/>
              <polyline points="16.58 37.72 15.08 39.04 16.53 41.73 18.04 40.42 16.58 37.72" fill="#fff"/>
              <path d="M22.05,26.28l-1.37.45-.2-.08-1.37-1.73-.13,0a3.12,3.12,0,0,0-.1,2.52,3.49,3.49,0,0,0,1.65,2.15l.26.09c1.36.4,2.11-1.37,1.4-3.26l-.14-.12" fill="#fff"/>
              <path d="M20.53,25.61l-.8-1,0-.12c.3-.47.58-.95.88-1.41l0-.06.06.12c.24.65.48,1.28.72,1.91l.11.33-.2.1-.64.2-.13-.05m.1-3.36L19.29,24.4l0,.15,1.2,1.52.12.06,1.22-.4,0-.13-.47-1.26c-.27-.69-.52-1.38-.79-2.09" fill="#fff"/>
            </g>
          </g>
        </g>
      </g>
      <g>
        <polygon points="24.2 19.46 1.42 9.18 25.96 0.24 48.75 10.53 24.2 19.46" fill="#148490"/>
        <g style="isolation: isolate">
          <g clip-path="url(#clip-path-2)">
            <g>
              <path d="M29.44,12.76l-5.58-.13.26-2.27,5.6.14-.28,2.26M21.55,9.2,21,13.66l11,.26.54-4.45-11-.27" fill="#fff"/>
              <polyline points="15.77 10.55 15.63 11.84 18.77 11.91 18.94 10.63 15.77 10.55" fill="#fff"/>
              <polyline points="25.83 6.89 25.69 8.18 28.83 8.25 29 6.97 25.83 6.89" fill="#fff"/>
              <polyline points="25.05 14.68 24.9 15.96 28.05 16.04 28.22 14.76 25.05 14.68" fill="#fff"/>
              <polyline points="35.11 11.02 34.96 12.3 38.11 12.38 38.28 11.1 35.11 11.02" fill="#fff"/>
              <path d="M30.63,4.16c-.23.31-.47.61-.71.92l-.22.09-2.36.19-.11.07c.23.42.82.73,1.84.89A6.26,6.26,0,0,0,32,6.11L32.23,6c1.34-.63.58-1.64-1.4-1.87l-.2,0" fill="#fff"/>
              <path d="M29,4.8l-1.39.11-.12,0c-.13-.32-.27-.64-.39-1l0,0h.14l2,.23.33,0-.08.15c-.12.14-.22.29-.34.43L29,4.8M26.48,3.62l.61,1.47.13,0L29.3,5l.14,0q.3-.41.63-.81L30,4l-1.32-.14-2.19-.26" fill="#fff"/>
            </g>
          </g>
        </g>
      </g>
      <g>
        <polygon points="48.75 10.53 48.59 40.83 24.04 49.76 24.2 19.46 48.75 10.53" fill="#158793"/>
        <g style="isolation: isolate">
          <g clip-path="url(#clip-path-3)">
            <g>
              <path d="M35.51,37.38l-2.9-2.54,2.94-4.69,2.92,2.55-3,4.68m.06-10.73-5.8,9.22,5.73,5,5.81-9.21-5.74-5" fill="#fff"/>
              <polyline points="30.71 27.16 29.04 29.82 30.68 31.26 32.36 28.61 30.71 27.16" fill="#fff"/>
              <polyline points="40.78 23.5 39.12 26.15 40.76 27.59 42.43 24.95 40.78 23.5" fill="#fff"/>
              <polyline points="30.72 39.66 29.06 42.32 30.7 43.76 32.37 41.11 30.72 39.66" fill="#fff"/>
              <polyline points="40.79 36 39.13 38.65 40.77 40.09 42.45 37.45 40.79 36" fill="#fff"/>
              <path d="M46.81,19.67l-1.54,1.66-.22.09c-.51-.2-1-.37-1.54-.56l-.14.1a3.12,3.12,0,0,0-.09,2.63,1.39,1.39,0,0,0,1.85.73l.3-.13C47,23.4,47.77,21,47,19.66h-.16" fill="#fff"/>
              <path d="M45.1,20.33,44.2,20l0-.1c.32-.74.64-1.47,1-2.2l0-.08.07.07c.27.44.55.86.81,1.3l.14.23-.23.27-.71.77-.15.07m.09-3.48c-.5,1.13-1,2.24-1.48,3.34l0,.12,1.36.49.13-.05,1.36-1.47,0-.16c-.19-.28-.36-.57-.54-.85l-.89-1.42" fill="#fff"/>
            </g>
          </g>
        </g>
      </g>
    </g>
  </g>
</svg>
