<svg id="Capa_1" data-name="Capa 1" xmlns="http://www.w3.org/2000/svg" xmlns:xlink="http://www.w3.org/1999/xlink" width="50" height="50" viewBox="0 0 50 50">
  <defs>
    <clipPath id="clip-path">
      <polygon points="24.04 49.76 1.25 39.47 1.41 9.18 24.2 19.47 24.04 49.76" fill="none"/>
    </clipPath>
    <clipPath id="clip-path-2">
      <polygon points="24.2 19.47 1.41 9.18 25.96 0.24 48.75 10.53 24.2 19.47" fill="none"/>
    </clipPath>
    <clipPath id="clip-path-3">
      <polygon points="48.75 10.53 48.59 40.83 24.04 49.76 24.2 19.47 48.75 10.53" fill="none"/>
    </clipPath>
  </defs>
  <g id="Figment_lido">
    <g style="isolation: isolate">
      <g>
        <polygon points="24.04 49.76 1.25 39.47 1.41 9.18 24.2 19.47 24.04 49.76" fill="#103cd6"/>
        <g style="isolation: isolate">
          <g clip-path="url(#clip-path)">
            <g>
              <path d="M17.81,31.42V30.28l4.66,2.07v1.14l-4.66-2.07m5.13-.1-1.4-.6-1.39-.62-1.91-.84-1-.43,0,0c-.27-.12-.35,0-.35.38,0,.88,0,1.75,0,2.62,0,.34.05.52.32.64L23,35c.27.12.39.05.37-.34,0-.85,0-1.69,0-2.51,0-.47-.1-.68-.45-.84" fill="#fff"/>
              <path d="M3.09,24.89V23.76l4.66,2.07V27L3.09,24.89m5.17-.08-1.4-.6-1.42-.63L4,23l-1.41-.64c-.33-.15-.44,0-.43.41,0,.87,0,1.73,0,2.56,0,.37.09.53.35.65l5.82,2.58c.24.1.32,0,.31-.32,0-.88,0-1.76,0-2.62,0-.43-.08-.61-.41-.76" fill="#fff"/>
              <path d="M15.55,28.05l-2.64-1.16-2.65-1.17c-.77-.35-.77-.35-.68.74l.05.16L15.08,29a3.61,3.61,0,0,1,0,.39c0,.84,0,.84-.59.57l-3.07-1.36c-.52-.23-1-.45-1.54-.69h0c-.35-.15-.36.14-.35.47s0,.62.35.79l2.87,1.26,2.87,1.29c.31.14.4,0,.39-.38,0-.82,0-1.65,0-2.47,0-.48-.11-.68-.47-.84" fill="#fff"/>
              <path d="M16,33.12,9.57,30.28l0,.29c0,.84,0,.84.58,1.11L15.3,34c.77.34.78.33.68-.77l0-.09" fill="#fff"/>
              <path d="M17.26,33.63c-.3-.13-.37,0-.37.44s.08.66.44.82.52.1.45-.45-.15-.62-.45-.78l-.07,0" fill="#fff"/>
              <path d="M2.62,27.14c-.34-.15-.47-.09-.45.41s.06.64.39.79h0c.31.13.56.19.45-.42.11-.47-.09-.63-.42-.79" fill="#fff"/>
            </g>
          </g>
        </g>
      </g>
      <g>
        <polygon points="24.2 19.47 1.41 9.18 25.96 0.24 48.75 10.53 24.2 19.47" fill="#1241eb"/>
        <g style="isolation: isolate">
          <g clip-path="url(#clip-path-2)">
            <g>
              <path d="M30.13,7.68l-.8-.36,5-1.8.81.36-5,1.8m3.78-2.74-1.48.55L31,6l-2,.74-1,.37h0c-.29.11-.28.18,0,.31.65.27,1.26.55,1.87.83a.73.73,0,0,0,.69,0l6.14-2.23c.28-.1.32-.19,0-.31-.61-.26-1.21-.53-1.77-.8a1,1,0,0,0-.92,0" fill="#fff"/>
              <path d="M14.49,13.38,13.7,13l4.95-1.81.8.36-5,1.81m3.82-2.76c-.48.19-1,.37-1.48.55l-1.51.55-1.5.55-1.51.53c-.36.14-.36.23,0,.37.63.26,1.24.54,1.81.82a.88.88,0,0,0,.73,0L21,11.76c.26-.1.25-.17,0-.27-.63-.28-1.26-.55-1.85-.84a.92.92,0,0,0-.84,0" fill="#fff"/>
              <path d="M26.06,7.8l-2.8,1-2.81,1c-.82.3-.82.3,0,.6l.15,0,5.79-2.1.29.1c.62.26.62.26,0,.5-1.1.39-2.18.79-3.26,1.19l-1.64.59h0c-.36.13-.17.23.08.33a.89.89,0,0,0,.82.07l3-1.11,3.06-1.11c.33-.12.31-.21,0-.33-.58-.25-1.18-.51-1.75-.79a1,1,0,0,0-.94,0" fill="#fff"/>
              <path d="M30,9.2l-6.78,2.47.18.11c.56.29.57.28,1.22.05l5.5-2c.81-.3.82-.31,0-.61L30,9.2" fill="#fff"/>
              <path d="M31.29,8.68c-.32.12-.26.21,0,.34a1,1,0,0,0,.91,0c.37-.14.46-.25,0-.38s-.55-.12-.89,0l-.07,0" fill="#fff"/>
              <path d="M15.74,14.34c-.36.13-.42.22-.05.37a1,1,0,0,0,.85,0h0c.32-.13.56-.24.05-.38a.86.86,0,0,0-.88,0" fill="#fff"/>
            </g>
          </g>
        </g>
      </g>
      <g>
        <polygon points="48.75 10.53 48.59 40.83 24.04 49.76 24.2 19.47 48.75 10.53" fill="#1243f0"/>
        <g style="isolation: isolate">
          <g clip-path="url(#clip-path-3)">
            <g>
              <path d="M41.92,28.22v-1l4.67-1.7v1l-4.68,1.7m5.16-4-1.41.53-1.39.5-1.92.71-1,.34h0c-.27.1-.35.26-.35.62,0,.78,0,1.58,0,2.37,0,.32.06.43.33.33l5.8-2.11a.52.52,0,0,0,.37-.59c0-.77,0-1.53,0-2.29,0-.44-.09-.55-.44-.42" fill="#fff"/>
              <path d="M27.16,33.6v-1l4.68-1.7v1l-4.67,1.7m5.2-4-1.42.53-1.42.51-1.42.52-1.41.5c-.34.12-.45.31-.44.71,0,.77,0,1.55,0,2.33,0,.33.09.4.36.31l5.83-2.12c.24-.09.32-.24.31-.53,0-.79,0-1.58,0-2.38,0-.4-.08-.5-.4-.38" fill="#fff"/>
              <path d="M39.67,26.9l-2.66,1-2.65,1c-.77.28-.77.28-.69,1.21l0,.1,5.46-2a2.23,2.23,0,0,1,0,.32c0,.75,0,.75-.59,1l-3.08,1.13L34,31.13h0c-.34.13-.35.4-.34.69s0,.59.34.45l2.88-1.05,2.88-1c.31-.11.4-.29.39-.64,0-.74,0-1.48,0-2.25,0-.45-.1-.53-.46-.4" fill="#fff"/>
              <path d="M40.06,31.18l-6.41,2.34,0,.27c-.05.8,0,.79.57.57l5.19-1.89c.77-.28.78-.29.69-1.21l0-.08" fill="#fff"/>
              <path d="M41.36,30.65c-.3.11-.38.32-.38.69s.09.54.45.41a.6.6,0,0,0,.45-.76c.09-.53-.15-.44-.45-.36l-.07,0" fill="#fff"/>
              <path d="M26.68,36c-.34.12-.47.28-.45.71s.05.55.38.43h0c.31-.13.57-.26.46-.73.11-.51-.1-.51-.42-.4" fill="#fff"/>
            </g>
          </g>
        </g>
      </g>
    </g>
  </g>
</svg>
