<svg id="Capa_1" data-name="Capa 1" xmlns="http://www.w3.org/2000/svg" xmlns:xlink="http://www.w3.org/1999/xlink" width="50" height="50" viewBox="0 0 50 50">
  <defs>
    <clipPath id="clip-path">
      <polygon points="24.04 49.76 1.25 39.47 1.41 9.17 24.2 19.46 24.04 49.76" fill="none"/>
    </clipPath>
    <clipPath id="clip-path-2">
      <polygon points="24.2 19.46 1.41 9.17 25.96 0.24 48.74 10.53 24.2 19.46" fill="none"/>
    </clipPath>
    <clipPath id="clip-path-3">
      <polygon points="48.74 10.53 48.58 40.83 24.04 49.76 24.2 19.46 48.74 10.53" fill="none"/>
    </clipPath>
  </defs>
  <g id="Figment_lido">
    <g style="isolation: isolate">
      <g>
        <polygon points="24.04 49.76 1.25 39.47 1.41 9.17 24.2 19.46 24.04 49.76" fill="#014fc2"/>
        <g style="isolation: isolate">
          <g clip-path="url(#clip-path)">
            <g>
              <path d="M14.93,35.28a5.11,5.11,0,0,1-.55-.31c.08-.89.1-1.11.48-.95l.5.29c.08.92,0,1.18-.43,1m1.2-1a.69.69,0,0,1-.39-.85c0-.24.24-.36.36-.55l.29.17a6.12,6.12,0,0,1,.24.91c.06.5-.2.42-.47.33h0m-1.27-2.11c-.39-.17-.43-.45-.46-1.36A4.32,4.32,0,0,1,15,31c.42.19.47.5.42,1.35a2.71,2.71,0,0,1-.52-.16m-4.67,1.63a2.62,2.62,0,0,1-.77-.52,4.85,4.85,0,0,1-1.37-3.27c0-1.21.64-2,1.55-2a1.71,1.71,0,0,1,.56.14,3.35,3.35,0,0,1,1.66,2.07,1.78,1.78,0,0,0,1,1.28l.2.08.17.07.34.16.21.1.21.09.08,0c.27.12.41.34.41.8s-.13.58-.42.45l-.07,0-.25-.11-.13,0-.12-.07L13,32.91c-.56-.25-1-.28-1.37.49a1,1,0,0,1-1.48.44m-.18,3-.26-.13C7.69,35.59,6,32.42,5.82,29.45c-.14-2.81,1.35-4.85,3.33-4.55a3.73,3.73,0,0,1,.94.28,7.66,7.66,0,0,1,3.84,5,1.44,1.44,0,0,1-.42-.11,2.35,2.35,0,0,1-1-1.18,5.19,5.19,0,0,0-2.35-2.45,2.43,2.43,0,0,0-1.46-.2c-1.24.26-2,1.7-1.87,3.65a7.16,7.16,0,0,0,2.5,5.14,4.82,4.82,0,0,0,.88.52,1.88,1.88,0,0,0,2.35-.41.72.72,0,0,1,1-.23,2.17,2.17,0,0,1,.38.22c-.26,1.7-2.1,2.46-3.87,1.68m.06-13.48a6.48,6.48,0,0,1-.66-.17c-3.17-.95-5.48,2.44-4.75,7,.59,3.69,2.43,6.73,5.19,8.27l.41.21c1.89.84,3.9.29,5-2.32.13-.35.28-.55.59-.42l.13.08a1,1,0,0,0,.18.09c.37.17.58,0,.6-.61s.16-.6.43-.48a.65.65,0,0,1,.16.09l.13.07c.42.18.49-.21.49-.73s-.07-.92-.46-1.09l-.13,0-.15-.05c-.3-.13-.47-.39-.48-.93a1.1,1.1,0,0,0-.51-1.06L16,31.22l-.16,0c-.36-.16-.54-.57-.71-1.12-1-3.31-2.73-5.47-5.09-6.7" fill="#fff"/>
              <path d="M10.13,29.73c-.57-.25-.93.08-.94.84a1.83,1.83,0,0,0,.91,1.68c.56.25.93-.08.94-.83a1.8,1.8,0,0,0-.91-1.69" fill="#fff"/>
              <path d="M21.76,26.65l-1.92.68-.29-.12-1.93-2.39-.17,0a4.44,4.44,0,0,0-.11,3.56,4.91,4.91,0,0,0,2.35,3l.35.11c1.9.51,2.93-2,1.91-4.67l-.19-.15" fill="#00a2fd"/>
              <path d="M19.62,25.76c-.37-.48-.76-1-1.14-1.42l0-.17,1.21-2,0-.07.09.17,1,2.67.16.46-.28.13-.89.33-.18-.07M19.7,21l-1.83,3.1,0,.18,1.7,2.11.18.08,1.69-.59,0-.21-.68-1.74L19.7,21" fill="#009ff9"/>
            </g>
          </g>
        </g>
      </g>
      <g>
        <polygon points="24.2 19.46 1.41 9.17 25.96 0.24 48.74 10.53 24.2 19.46" fill="#0157d5"/>
        <g style="isolation: isolate">
          <g clip-path="url(#clip-path-2)">
            <g>
              <path d="M31.22,10.54l-.6.18c-.55-.31-.68-.39-.3-.53l.55-.17c.68.25.83.35.35.52m.21-.9a.86.86,0,0,1-.86-.07c-.13-.09-.07-.23-.11-.35l.33-.09a6,6,0,0,1,.78.16c.38.12.15.22-.11.34h0m-2.34,0c-.4.14-.61.08-1.25-.18a3.65,3.65,0,0,1,.51-.24c.43-.16.67-.08,1.22.2a4.5,4.5,0,0,1-.48.22M26.85,12.5a4.31,4.31,0,0,1-.91.23,6.21,6.21,0,0,1-3.19-.31c-.82-.37-.9-.93-.23-1.38a2.59,2.59,0,0,1,.5-.24,5.49,5.49,0,0,1,2.6-.21,2.91,2.91,0,0,0,1.57-.1l.2-.08.16-.06.36-.13.21-.07.21-.08.08,0a1,1,0,0,1,.83,0c.31.14.31.24,0,.35l-.07,0-.26.09-.12.05-.13,0-.41.14c-.57.21-.92.43-.65.85s-.14.65-.76.88m1.9,1-.27.09a13.24,13.24,0,0,1-7.74-.22c-2-.79-2.33-2.17-.7-3.08a6.3,6.3,0,0,1,.86-.39,12.31,12.31,0,0,1,6.16-.41,1.88,1.88,0,0,1-.38.18,3.89,3.89,0,0,1-1.53.16,8.76,8.76,0,0,0-3.34.44,3.51,3.51,0,0,0-1.19.67c-.71.71-.28,1.53,1.14,2.06a9.78,9.78,0,0,0,5.28.31A9.2,9.2,0,0,0,28,13c.9-.33,1.43-.77,1.39-1.32,0-.26.18-.42.54-.56l.43-.12c1,.65.16,1.82-1.64,2.47M19.64,9.36l-.59.28c-2.92,1.31-2.27,3.52,1.37,4.54a16.92,16.92,0,0,0,9.33-.09l.44-.15c1.92-.7,3-1.88,2-3.21-.14-.18-.17-.32.14-.43l.15,0,.19-.06c.39-.14.38-.31,0-.49s-.3-.27,0-.37l.18-.06.13,0c.43-.15.22-.31-.14-.47a1.36,1.36,0,0,0-1.07-.1l-.12.05-.14.06a1.25,1.25,0,0,1-1,0,1.52,1.52,0,0,0-1.09-.06l-.15.06-.15.07a2.52,2.52,0,0,1-1.26,0,17,17,0,0,0-8.2.53" fill="#fff"/>
              <path d="M24,11.27c-.57.21-.61.5-.1.74a2.64,2.64,0,0,0,1.8.05c.57-.21.61-.5.11-.73A2.56,2.56,0,0,0,24,11.27" fill="#fff"/>
              <path d="M30.26,4.44c-.3.4-.61.79-.91,1.18l-.3.11-3,.25-.14.08c.28.55,1.05.94,2.35,1.14A8,8,0,0,0,32,6.93l.33-.15C34,6,33,4.69,30.49,4.39l-.23.05" fill="#00a2fd"/>
              <path d="M28.12,5.26l-1.79.14-.13,0c-.18-.41-.34-.83-.52-1.24l0,0h.18l2.56.29.42.06-.11.18-.42.55-.17.08M25,3.76l.79,1.87.15,0,2.65-.22.18-.06.81-1-.11-.08-1.67-.19L25,3.76" fill="#009ff9"/>
            </g>
          </g>
        </g>
      </g>
      <g>
        <polygon points="48.74 10.53 48.58 40.83 24.04 49.76 24.2 19.46 48.74 10.53" fill="#0158d9"/>
        <g style="isolation: isolate">
          <g clip-path="url(#clip-path-3)">
            <g>
              <path d="M38.8,34.67a5.44,5.44,0,0,1-.61.15c.1-1,.12-1.19.53-1.34a4.78,4.78,0,0,1,.55-.14c.08.85,0,1.14-.47,1.33m1.31-2c-.38.14-.52-.08-.42-.52a4.54,4.54,0,0,1,.4-.84l.31-.07a3.19,3.19,0,0,1,.27.69c0,.46-.22.59-.53.73h0m-1.37-1c-.44.16-.48-.08-.51-1a3.88,3.88,0,0,1,.61-.31c.47-.17.52.1.46,1-.24.12-.42.22-.56.27m-5.13,5.53a2.11,2.11,0,0,1-.85.12,1.89,1.89,0,0,1-1.48-2.09A4.27,4.27,0,0,1,33,32a2.15,2.15,0,0,1,.61-.33,1.36,1.36,0,0,1,1.82.65.72.72,0,0,0,1,.46l.23-.1.18-.07.38-.13.22-.07.23-.1.09,0c.3-.11.44,0,.44.45s-.14.68-.46.8l-.07,0-.28.1-.13.06-.13,0-.44.13a2.36,2.36,0,0,0-1.5,1.64,2.8,2.8,0,0,1-1.62,1.68m-.21,3.1-.28.09c-2.25.63-4.13-1.07-4.28-3.88a8.85,8.85,0,0,1,3.67-7.29,5.53,5.53,0,0,1,1-.52c1.86-.67,3.6,0,4.18,1.75a2.48,2.48,0,0,1-.46.26,1,1,0,0,1-1.11-.32A2.29,2.29,0,0,0,33.59,30,4.79,4.79,0,0,0,32,31a6.81,6.81,0,0,0-2.06,5.18c.15,1.94,1.18,3.14,2.72,3a3.54,3.54,0,0,0,1-.22,4.92,4.92,0,0,0,2.58-2.37,2,2,0,0,1,1-1,2,2,0,0,1,.42-.1,7.32,7.32,0,0,1-4.25,4.9m.12-13.38c-.2.1-.46.25-.73.38-3.46,1.71-6,7-5.22,10.92.63,3.16,2.64,4.63,5.65,3.84l.45-.14c2.06-.75,4.27-3,5.42-6.44.15-.46.32-.78.65-.91l.15,0,.19-.05a1.11,1.11,0,0,0,.66-1.11c0-.49.18-.74.48-.84l.18-.05.14,0c.45-.17.53-.61.54-1.13s-.08-.85-.51-.69l-.14.06a.71.71,0,0,1-.16.07c-.32.12-.52,0-.52-.52s-.18-.76-.56-.62l-.17.09-.18.08c-.4.14-.59-.11-.77-.51-1.1-2.42-3-3.12-5.55-2.36" fill="#fff"/>
              <path d="M33.56,33.19a1.69,1.69,0,0,0-1,1.63c0,.74.4,1.1,1,.9a1.69,1.69,0,0,0,1-1.61c0-.77-.39-1.12-1-.92" fill="#fff"/>
              <path d="M46.31,20.41l-2.1,2.28-.32.11-2.1-.75-.19.13a4.31,4.31,0,0,0-.13,3.62,1.94,1.94,0,0,0,2.56,1l.38-.19c2.08-1.08,3.22-4.44,2.11-6.22l-.21,0" fill="#00a2fd"/>
              <path d="M44,21.32c-.41-.16-.83-.31-1.25-.45l0-.14c.44-1,.89-2,1.33-3l0-.11.1.1c.37.59.75,1.18,1.12,1.78l.17.32-.3.36-1,1.07-.2.09m.11-4.78c-.68,1.56-1.35,3.08-2,4.6l0,.15c.62.21,1.23.44,1.85.66l.19-.07,1.85-2,0-.24-.74-1.15-1.23-1.95" fill="#009ff9"/>
            </g>
          </g>
        </g>
      </g>
    </g>
  </g>
</svg>
