<svg id="Capa_1" data-name="Capa 1" xmlns="http://www.w3.org/2000/svg" xmlns:xlink="http://www.w3.org/1999/xlink" width="50" height="50" viewBox="0 0 50 50">
  <defs>
    <clipPath id="clip-path">
      <polygon points="24.04 49.76 1.25 39.47 1.41 9.18 24.2 19.46 24.04 49.76" fill="none"/>
    </clipPath>
    <clipPath id="clip-path-2">
      <polygon points="24.2 19.46 1.41 9.18 25.96 0.24 48.75 10.53 24.2 19.46" fill="none"/>
    </clipPath>
    <clipPath id="clip-path-3">
      <polygon points="48.75 10.53 48.59 40.82 24.04 49.76 24.2 19.46 48.75 10.53" fill="none"/>
    </clipPath>
  </defs>
  <g id="Figment_lido">
    <g style="isolation: isolate">
      <g>
        <polygon points="24.04 49.76 1.25 39.47 1.41 9.18 24.2 19.46 24.04 49.76" fill="#af3c3c"/>
        <g style="isolation: isolate">
          <g clip-path="url(#clip-path)">
            <g>
              <polyline points="7.63 27.26 2.6 25.04 2.6 31.87 7.64 34.09 7.63 27.26" fill="#faffff" opacity="0.75"/>
              <polyline points="22.84 27.04 17.81 24.82 17.81 31.66 22.84 33.88 22.84 27.04" fill="#faffff" opacity="0.75"/>
              <path d="M8.48,20.55a4.33,4.33,0,0,0-.87-.29v6.93a1.33,1.33,0,0,1,.39.12c.72.32,2.33,1.46,4,5.52a9.87,9.87,0,0,0,5,5.57,5.3,5.3,0,0,0,.74.27v-7l-.09,0c-.43-.19-2.28-1.2-4-5.11s-4-5.45-5.19-6" fill="#faffff" opacity="0.75"/>
            </g>
          </g>
        </g>
      </g>
      <g>
        <polygon points="24.2 19.46 1.41 9.18 25.96 0.24 48.75 10.53 24.2 19.46" fill="#c14141"/>
        <g style="isolation: isolate">
          <g clip-path="url(#clip-path-2)">
            <g>
              <polyline points="19.5 11.91 13.95 13.92 18.97 16.19 24.51 14.17 19.5 11.91" fill="#faffff" opacity="0.75"/>
              <polyline points="31.18 3.51 25.63 5.53 30.65 7.79 36.19 5.78 31.18 3.51" fill="#faffff" opacity="0.75"/>
              <path d="M15.24,9.22a6.21,6.21,0,0,0-.89.38l5.08,2.29a2.66,2.66,0,0,1,.4-.17c.8-.29,2.88-.79,7.12-.34a18.3,18.3,0,0,0,8-.91c.5-.19.77-.32.77-.32L30.62,7.84l-.1,0a16.79,16.79,0,0,1-6.85.49,19.78,19.78,0,0,0-8.43.85" fill="#faffff" opacity="0.75"/>
            </g>
          </g>
        </g>
      </g>
      <g>
        <polygon points="48.75 10.53 48.59 40.82 24.04 49.76 24.2 19.46 48.75 10.53" fill="#c54343"/>
        <g style="isolation: isolate">
          <g clip-path="url(#clip-path-3)">
            <g>
              <polyline points="30.78 32.22 25.24 34.24 25.2 41.06 30.75 39.04 30.78 32.22" fill="#faffff" opacity="0.75"/>
              <polyline points="47.58 19.21 42.04 21.23 42 28.05 47.55 26.03 47.58 19.21" fill="#faffff" opacity="0.75"/>
              <path d="M31.76,24.82a5.45,5.45,0,0,0-1,.44l0,6.91A2.08,2.08,0,0,1,31.2,32c.79-.29,2.56-.5,4.34,2.18,1.57,2.36,4.21,1.79,5.54,1.31a6.26,6.26,0,0,0,.81-.35l0-7-.1,0c-.47.17-2.51.73-4.38-1.74a4.68,4.68,0,0,0-5.69-1.61" fill="#faffff" opacity="0.75"/>
            </g>
          </g>
        </g>
      </g>
    </g>
  </g>
  <g>
    <rect x="40.92" y="37.51" width="1.14" height="1.14" fill="#fff"/>
    <rect x="40.92" y="36.37" width="1.14" height="1.14" fill="#fff"/>
    <rect x="40.92" y="12.49" width="1.14" height="1.14" fill="#fff"/>
    <rect x="40.92" y="11.36" width="1.14" height="1.14" fill="#fff"/>
    <rect x="39.78" y="38.64" width="1.14" height="1.14" fill="#fff"/>
    <rect x="39.78" y="37.51" width="1.14" height="1.14" fill="#ef5454"/>
    <rect x="39.78" y="36.37" width="1.14" height="1.14" fill="#ef5454"/>
    <rect x="39.78" y="35.23" width="1.14" height="1.14" fill="#fff"/>
    <rect x="39.78" y="13.63" width="1.14" height="1.14" fill="#fff"/>
    <rect x="39.78" y="12.49" width="1.14" height="1.14" fill="#aa0707"/>
    <rect x="39.78" y="11.36" width="1.14" height="1.14" fill="#ef5454"/>
    <rect x="39.78" y="10.22" width="1.14" height="1.14" fill="#fff"/>
    <rect x="38.64" y="39.78" width="1.14" height="1.14" fill="#fff"/>
    <rect x="38.64" y="38.64" width="1.14" height="1.14" fill="#aa0707"/>
    <rect x="38.64" y="37.51" width="1.14" height="1.14" fill="#cc1d1d"/>
    <rect x="38.64" y="36.37" width="1.14" height="1.14" fill="#cc1d1d"/>
    <rect x="38.64" y="35.23" width="1.14" height="1.14" fill="#ef5454"/>
    <rect x="38.64" y="34.1" width="1.14" height="1.14" fill="#fff"/>
    <rect x="38.64" y="14.77" width="1.14" height="1.14" fill="#fff"/>
    <rect x="38.64" y="13.63" width="1.14" height="1.14" fill="#aa0707"/>
    <rect x="38.64" y="12.49" width="1.14" height="1.14" fill="#cc1d1d"/>
    <rect x="38.64" y="11.36" width="1.14" height="1.14" fill="#cc1d1d"/>
    <rect x="38.64" y="10.22" width="1.14" height="1.14" fill="#ef5454"/>
    <rect x="38.64" y="9.08" width="1.14" height="1.14" fill="#fff"/>
    <rect x="37.51" y="40.92" width="1.14" height="1.14" fill="#fff"/>
    <rect x="37.51" y="39.78" width="1.14" height="1.14" fill="#aa0707"/>
    <rect x="37.51" y="38.64" width="1.14" height="1.14" fill="#cc1d1d"/>
    <rect x="37.51" y="37.51" width="1.14" height="1.14" fill="#cc1d1d"/>
    <rect x="37.51" y="36.37" width="1.14" height="1.14" fill="#cc1d1d"/>
    <rect x="37.51" y="35.23" width="1.14" height="1.14" fill="#cc1d1d"/>
    <rect x="37.51" y="34.1" width="1.14" height="1.14" fill="#ef5454"/>
    <rect x="37.51" y="32.96" width="1.14" height="1.14" fill="#fff"/>
    <rect x="37.51" y="15.9" width="1.14" height="1.14" fill="#fff"/>
    <rect x="37.51" y="14.77" width="1.14" height="1.14" fill="#aa0707"/>
    <rect x="37.51" y="13.63" width="1.14" height="1.14" fill="#cc1d1d"/>
    <rect x="37.51" y="12.49" width="1.14" height="1.14" fill="#cc1d1d"/>
    <rect x="37.51" y="11.36" width="1.14" height="1.14" fill="#cc1d1d"/>
    <rect x="37.51" y="10.22" width="1.14" height="1.14" fill="#cc1d1d"/>
    <rect x="37.51" y="9.08" width="1.14" height="1.14" fill="#ef5454"/>
    <rect x="37.51" y="7.95" width="1.14" height="1.14" fill="#fff"/>
    <rect x="36.37" y="40.92" width="1.14" height="1.14" fill="#fff"/>
    <rect x="36.37" y="39.78" width="1.14" height="1.14" fill="#aa0707"/>
    <rect x="36.37" y="38.64" width="1.14" height="1.14" fill="#cc1d1d"/>
    <rect x="36.37" y="37.51" width="1.14" height="1.14" fill="#cc1d1d"/>
    <rect x="36.37" y="36.37" width="1.14" height="1.14" fill="#cc1d1d"/>
    <rect x="36.37" y="35.23" width="1.14" height="1.14" fill="#cc1d1d"/>
    <rect x="36.37" y="34.1" width="1.14" height="1.14" fill="#cc1d1d"/>
    <rect x="36.37" y="32.96" width="1.14" height="1.14" fill="#ef5454"/>
    <rect x="36.37" y="31.82" width="1.14" height="1.14" fill="#fff"/>
    <rect x="36.37" y="17.04" width="1.14" height="1.14" fill="#fff"/>
    <rect x="36.37" y="15.9" width="1.14" height="1.14" fill="#aa0707"/>
    <rect x="36.37" y="14.77" width="1.14" height="1.14" fill="#cc1d1d"/>
    <rect x="36.37" y="13.63" width="1.14" height="1.14" fill="#cc1d1d"/>
    <rect x="36.37" y="12.49" width="1.14" height="1.14" fill="#cc1d1d"/>
    <rect x="36.37" y="11.36" width="1.14" height="1.14" fill="#cc1d1d"/>
    <rect x="36.37" y="10.22" width="1.14" height="1.14" fill="#cc1d1d"/>
    <rect x="36.37" y="9.08" width="1.14" height="1.14" fill="#ef5454"/>
    <rect x="36.37" y="7.95" width="1.14" height="1.14" fill="#fff"/>
    <rect x="35.23" y="39.78" width="1.14" height="1.14" fill="#fff"/>
    <rect x="35.23" y="38.64" width="1.14" height="1.14" fill="#aa0707"/>
    <rect x="35.23" y="37.51" width="1.14" height="1.14" fill="#cc1d1d"/>
    <rect x="35.23" y="36.37" width="1.14" height="1.14" fill="#cc1d1d"/>
    <rect x="35.23" y="35.23" width="1.14" height="1.14" fill="#cc1d1d"/>
    <rect x="35.23" y="34.1" width="1.14" height="1.14" fill="#cc1d1d"/>
    <rect x="35.23" y="32.96" width="1.14" height="1.14" fill="#cc1d1d"/>
    <rect x="35.23" y="31.82" width="1.14" height="1.14" fill="#ef5454"/>
    <rect x="35.23" y="30.68" width="1.14" height="1.14" fill="#fff"/>
    <rect x="35.23" y="18.18" width="1.14" height="1.14" fill="#fff"/>
    <rect x="35.23" y="17.04" width="1.14" height="1.14" fill="#aa0707"/>
    <rect x="35.23" y="15.9" width="1.14" height="1.14" fill="#cc1d1d"/>
    <rect x="35.23" y="14.77" width="1.14" height="1.14" fill="#cc1d1d"/>
    <rect x="35.23" y="13.63" width="1.14" height="1.14" fill="#cc1d1d"/>
    <rect x="35.23" y="12.49" width="1.14" height="1.14" fill="#cc1d1d"/>
    <rect x="35.23" y="11.36" width="1.14" height="1.14" fill="#cc1d1d"/>
    <rect x="35.23" y="10.22" width="1.14" height="1.14" fill="#ef5454"/>
    <rect x="35.23" y="9.08" width="1.14" height="1.14" fill="#fff"/>
    <rect x="34.1" y="38.64" width="1.14" height="1.14" fill="#fff"/>
    <rect x="34.1" y="37.51" width="1.14" height="1.14" fill="#aa0707"/>
    <rect x="34.1" y="36.37" width="1.14" height="1.14" fill="#cc1d1d"/>
    <rect x="34.1" y="35.23" width="1.14" height="1.14" fill="#cc1d1d"/>
    <rect x="34.1" y="34.1" width="1.14" height="1.14" fill="#cc1d1d"/>
    <rect x="34.1" y="32.96" width="1.14" height="1.14" fill="#cc1d1d"/>
    <rect x="34.1" y="31.82" width="1.14" height="1.14" fill="#cc1d1d"/>
    <rect x="34.1" y="30.68" width="1.14" height="1.14" fill="#ef5454"/>
    <rect x="34.1" y="29.55" width="1.14" height="1.14" fill="#fff"/>
    <rect x="34.1" y="19.31" width="1.14" height="1.14" fill="#fff"/>
    <rect x="34.1" y="18.18" width="1.14" height="1.14" fill="#aa0707"/>
    <rect x="34.1" y="17.04" width="1.14" height="1.14" fill="#cc1d1d"/>
    <rect x="34.1" y="15.9" width="1.14" height="1.14" fill="#cc1d1d"/>
    <rect x="34.1" y="14.77" width="1.14" height="1.14" fill="#cc1d1d"/>
    <rect x="34.1" y="13.63" width="1.14" height="1.14" fill="#cc1d1d"/>
    <rect x="34.1" y="12.49" width="1.14" height="1.14" fill="#cc1d1d"/>
    <rect x="34.1" y="11.36" width="1.14" height="1.14" fill="#ef5454"/>
    <rect x="34.1" y="10.22" width="1.14" height="1.14" fill="#fff"/>
    <rect x="32.96" y="37.51" width="1.14" height="1.14" fill="#fff"/>
    <rect x="32.96" y="36.37" width="1.14" height="1.14" fill="#aa0707"/>
    <rect x="32.96" y="35.23" width="1.14" height="1.14" fill="#cc1d1d"/>
    <rect x="32.96" y="34.1" width="1.14" height="1.14" fill="#cc1d1d"/>
    <rect x="32.96" y="32.96" width="1.14" height="1.14" fill="#cc1d1d"/>
    <rect x="32.96" y="31.82" width="1.14" height="1.14" fill="#cc1d1d"/>
    <rect x="32.96" y="30.68" width="1.14" height="1.14" fill="#cc1d1d"/>
    <rect x="32.96" y="29.55" width="1.14" height="1.14" fill="#ef5454"/>
    <rect x="32.96" y="28.41" width="1.14" height="1.14" fill="#fff"/>
    <rect x="32.96" y="20.45" width="1.14" height="1.14" fill="#fff"/>
    <rect x="32.96" y="19.31" width="1.14" height="1.14" fill="#aa0707"/>
    <rect x="32.96" y="18.18" width="1.14" height="1.14" fill="#cc1d1d"/>
    <rect x="32.96" y="17.04" width="1.14" height="1.14" fill="#cc1d1d"/>
    <rect x="32.96" y="15.9" width="1.14" height="1.14" fill="#cc1d1d"/>
    <rect x="32.96" y="14.77" width="1.14" height="1.14" fill="#cc1d1d"/>
    <rect x="32.96" y="13.63" width="1.14" height="1.14" fill="#cc1d1d"/>
    <rect x="32.96" y="12.49" width="1.14" height="1.14" fill="#ef5454"/>
    <rect x="32.96" y="11.36" width="1.14" height="1.14" fill="#fff"/>
    <rect x="31.82" y="36.37" width="1.14" height="1.14" fill="#fff"/>
    <rect x="31.82" y="35.23" width="1.14" height="1.14" fill="#aa0707"/>
    <rect x="31.82" y="34.1" width="1.14" height="1.14" fill="#cc1d1d"/>
    <rect x="31.82" y="32.96" width="1.14" height="1.14" fill="#cc1d1d"/>
    <rect x="31.82" y="31.82" width="1.14" height="1.14" fill="#cc1d1d"/>
    <rect x="31.82" y="30.68" width="1.14" height="1.14" fill="#cc1d1d"/>
    <rect x="31.82" y="29.55" width="1.14" height="1.14" fill="#cc1d1d"/>
    <rect x="31.82" y="28.41" width="1.14" height="1.14" fill="#ef5454"/>
    <rect x="31.82" y="27.27" width="1.14" height="1.14" fill="#fff"/>
    <rect x="31.82" y="21.59" width="1.14" height="1.14" fill="#fff"/>
    <rect x="31.82" y="20.45" width="1.14" height="1.14" fill="#aa0707"/>
    <rect x="31.82" y="19.31" width="1.14" height="1.14" fill="#cc1d1d"/>
    <rect x="31.82" y="18.18" width="1.14" height="1.14" fill="#cc1d1d"/>
    <rect x="31.82" y="17.04" width="1.14" height="1.14" fill="#cc1d1d"/>
    <rect x="31.82" y="15.9" width="1.14" height="1.14" fill="#cc1d1d"/>
    <rect x="31.82" y="14.77" width="1.14" height="1.14" fill="#cc1d1d"/>
    <rect x="31.82" y="13.63" width="1.14" height="1.14" fill="#ef5454"/>
    <rect x="31.82" y="12.49" width="1.14" height="1.14" fill="#fff"/>
    <rect x="30.69" y="35.23" width="1.14" height="1.14" fill="#fff"/>
    <rect x="30.69" y="34.1" width="1.14" height="1.14" fill="#aa0707"/>
    <rect x="30.69" y="32.96" width="1.14" height="1.14" fill="#cc1d1d"/>
    <rect x="30.69" y="31.82" width="1.14" height="1.14" fill="#cc1d1d"/>
    <rect x="30.69" y="30.68" width="1.14" height="1.14" fill="#cc1d1d"/>
    <rect x="30.69" y="29.55" width="1.14" height="1.14" fill="#cc1d1d"/>
    <rect x="30.69" y="28.41" width="1.14" height="1.14" fill="#cc1d1d"/>
    <rect x="30.69" y="27.27" width="1.14" height="1.14" fill="#ef5454"/>
    <rect x="30.69" y="26.14" width="1.14" height="1.14" fill="#fff"/>
    <rect x="30.69" y="22.73" width="1.14" height="1.14" fill="#fff"/>
    <rect x="30.69" y="21.59" width="1.14" height="1.14" fill="#aa0707"/>
    <rect x="30.69" y="20.45" width="1.14" height="1.14" fill="#cc1d1d"/>
    <rect x="30.69" y="19.31" width="1.14" height="1.14" fill="#cc1d1d"/>
    <rect x="30.69" y="18.18" width="1.14" height="1.14" fill="#cc1d1d"/>
    <rect x="30.69" y="17.04" width="1.14" height="1.14" fill="#cc1d1d"/>
    <rect x="30.69" y="15.9" width="1.14" height="1.14" fill="#cc1d1d"/>
    <rect x="30.69" y="14.77" width="1.14" height="1.14" fill="#ef5454"/>
    <rect x="30.69" y="13.63" width="1.14" height="1.14" fill="#fff"/>
    <rect x="29.55" y="34.1" width="1.14" height="1.14" fill="#fff"/>
    <rect x="29.55" y="32.96" width="1.14" height="1.14" fill="#aa0707"/>
    <rect x="29.55" y="31.82" width="1.14" height="1.14" fill="#cc1d1d"/>
    <rect x="29.55" y="30.68" width="1.14" height="1.14" fill="#cc1d1d"/>
    <rect x="29.55" y="29.55" width="1.14" height="1.14" fill="#cc1d1d"/>
    <rect x="29.55" y="28.41" width="1.14" height="1.14" fill="#cc1d1d"/>
    <rect x="29.55" y="27.27" width="1.14" height="1.14" fill="#cc1d1d"/>
    <rect x="29.55" y="26.14" width="1.14" height="1.14" fill="#ef5454"/>
    <rect x="29.55" y="25" width="1.14" height="1.14" fill="#fff"/>
    <rect x="29.55" y="23.86" width="1.14" height="1.14" fill="#fff"/>
    <rect x="29.55" y="22.73" width="1.14" height="1.14" fill="#aa0707"/>
    <rect x="29.55" y="21.59" width="1.14" height="1.14" fill="#cc1d1d"/>
    <rect x="29.55" y="20.45" width="1.14" height="1.14" fill="#cc1d1d"/>
    <rect x="29.55" y="19.31" width="1.14" height="1.14" fill="#cc1d1d"/>
    <rect x="29.55" y="18.18" width="1.14" height="1.14" fill="#cc1d1d"/>
    <rect x="29.55" y="17.04" width="1.14" height="1.14" fill="#cc1d1d"/>
    <rect x="29.55" y="15.9" width="1.14" height="1.14" fill="#ef5454"/>
    <rect x="29.55" y="14.77" width="1.14" height="1.14" fill="#fff"/>
    <rect x="28.41" y="32.96" width="1.14" height="1.14" fill="#fff"/>
    <rect x="28.41" y="31.82" width="1.14" height="1.14" fill="#aa0707"/>
    <rect x="28.41" y="30.68" width="1.14" height="1.14" fill="#cc1d1d"/>
    <rect x="28.41" y="29.55" width="1.14" height="1.14" fill="#cc1d1d"/>
    <rect x="28.41" y="28.41" width="1.14" height="1.14" fill="#cc1d1d"/>
    <rect x="28.41" y="27.27" width="1.14" height="1.14" fill="#cc1d1d"/>
    <rect x="28.41" y="26.14" width="1.14" height="1.14" fill="#cc1d1d"/>
    <rect x="28.41" y="25" width="1.14" height="1.14" fill="#aa0707"/>
    <rect x="28.41" y="23.86" width="1.14" height="1.14" fill="#aa0707"/>
    <rect x="28.41" y="22.73" width="1.14" height="1.14" fill="#cc1d1d"/>
    <rect x="28.41" y="21.59" width="1.14" height="1.14" fill="#cc1d1d"/>
    <rect x="28.41" y="20.45" width="1.14" height="1.14" fill="#cc1d1d"/>
    <rect x="28.41" y="19.31" width="1.14" height="1.14" fill="#cc1d1d"/>
    <rect x="28.41" y="18.18" width="1.14" height="1.14" fill="#cc1d1d"/>
    <rect x="28.41" y="17.04" width="1.14" height="1.14" fill="#ef5454"/>
    <rect x="28.41" y="15.9" width="1.14" height="1.14" fill="#fff"/>
    <rect x="27.27" y="31.82" width="1.14" height="1.14" fill="#fff"/>
    <rect x="27.27" y="30.68" width="1.14" height="1.14" fill="#aa0707"/>
    <rect x="27.27" y="29.55" width="1.14" height="1.14" fill="#cc1d1d"/>
    <rect x="27.27" y="28.41" width="1.14" height="1.14" fill="#cc1d1d"/>
    <rect x="27.27" y="27.27" width="1.14" height="1.14" fill="#cc1d1d"/>
    <rect x="27.27" y="26.14" width="1.14" height="1.14" fill="#cc1d1d"/>
    <rect x="27.27" y="25" width="1.14" height="1.14" fill="#cc1d1d"/>
    <rect x="27.27" y="23.86" width="1.14" height="1.14" fill="#cc1d1d"/>
    <rect x="27.27" y="22.73" width="1.14" height="1.14" fill="#cc1d1d"/>
    <rect x="27.27" y="21.59" width="1.14" height="1.14" fill="#cc1d1d"/>
    <rect x="27.27" y="20.45" width="1.14" height="1.14" fill="#cc1d1d"/>
    <rect x="27.27" y="19.31" width="1.14" height="1.14" fill="#cc1d1d"/>
    <rect x="27.27" y="18.18" width="1.14" height="1.14" fill="#ef5454"/>
    <rect x="27.27" y="17.04" width="1.14" height="1.14" fill="#fff"/>
    <rect x="26.14" y="30.68" width="1.14" height="1.14" fill="#fff"/>
    <rect x="26.14" y="29.55" width="1.14" height="1.14" fill="#aa0707"/>
    <rect x="26.14" y="28.41" width="1.14" height="1.14" fill="#cc1d1d"/>
    <rect x="26.14" y="27.27" width="1.14" height="1.14" fill="#cc1d1d"/>
    <rect x="26.14" y="26.14" width="1.14" height="1.14" fill="#cc1d1d"/>
    <rect x="26.14" y="25" width="1.14" height="1.14" fill="#cc1d1d"/>
    <rect x="26.14" y="23.86" width="1.14" height="1.14" fill="#cc1d1d"/>
    <rect x="26.14" y="22.73" width="1.14" height="1.14" fill="#cc1d1d"/>
    <rect x="26.14" y="21.59" width="1.14" height="1.14" fill="#cc1d1d"/>
    <rect x="26.14" y="20.45" width="1.14" height="1.14" fill="#cc1d1d"/>
    <rect x="26.14" y="19.31" width="1.14" height="1.14" fill="#ef5454"/>
    <rect x="26.14" y="18.18" width="1.14" height="1.14" fill="#fff"/>
    <rect x="25" y="29.55" width="1.14" height="1.14" fill="#fff"/>
    <rect x="25" y="28.41" width="1.14" height="1.14" fill="#aa0707"/>
    <rect x="25" y="27.27" width="1.14" height="1.14" fill="#cc1d1d"/>
    <rect x="25" y="26.14" width="1.14" height="1.14" fill="#cc1d1d"/>
    <rect x="25" y="25" width="1.14" height="1.14" fill="#cc1d1d"/>
    <rect x="25" y="23.86" width="1.14" height="1.14" fill="#cc1d1d"/>
    <rect x="25" y="22.73" width="1.14" height="1.14" fill="#cc1d1d"/>
    <rect x="25" y="21.59" width="1.14" height="1.14" fill="#cc1d1d"/>
    <rect x="25" y="20.45" width="1.14" height="1.14" fill="#ef5454"/>
    <rect x="25" y="19.31" width="1.14" height="1.14" fill="#fff"/>
    <rect x="23.86" y="29.55" width="1.14" height="1.14" fill="#fff"/>
    <rect x="23.86" y="28.41" width="1.14" height="1.14" fill="#aa0707"/>
    <rect x="23.86" y="27.27" width="1.14" height="1.14" fill="#cc1d1d"/>
    <rect x="23.86" y="26.14" width="1.14" height="1.14" fill="#cc1d1d"/>
    <rect x="23.86" y="25" width="1.14" height="1.14" fill="#cc1d1d"/>
    <rect x="23.86" y="23.86" width="1.14" height="1.14" fill="#cc1d1d"/>
    <rect x="23.86" y="22.73" width="1.14" height="1.14" fill="#cc1d1d"/>
    <rect x="23.86" y="21.59" width="1.14" height="1.14" fill="#cc1d1d"/>
    <rect x="23.86" y="20.45" width="1.14" height="1.14" fill="#ef5454"/>
    <rect x="23.86" y="19.31" width="1.14" height="1.14" fill="#fff"/>
    <rect x="22.73" y="30.68" width="1.14" height="1.14" fill="#fff"/>
    <rect x="22.73" y="29.55" width="1.14" height="1.14" fill="#aa0707"/>
    <rect x="22.73" y="28.41" width="1.14" height="1.14" fill="#cc1d1d"/>
    <rect x="22.73" y="27.27" width="1.14" height="1.14" fill="#cc1d1d"/>
    <rect x="22.73" y="26.14" width="1.14" height="1.14" fill="#cc1d1d"/>
    <rect x="22.73" y="25" width="1.14" height="1.14" fill="#cc1d1d"/>
    <rect x="22.73" y="23.86" width="1.14" height="1.14" fill="#cc1d1d"/>
    <rect x="22.73" y="22.73" width="1.14" height="1.14" fill="#cc1d1d"/>
    <rect x="22.73" y="21.59" width="1.14" height="1.14" fill="#cc1d1d"/>
    <rect x="22.73" y="20.45" width="1.14" height="1.14" fill="#cc1d1d"/>
    <rect x="22.73" y="19.31" width="1.14" height="1.14" fill="#ef5454"/>
    <rect x="22.73" y="18.18" width="1.14" height="1.14" fill="#fff"/>
    <rect x="21.59" y="31.82" width="1.14" height="1.14" fill="#fff"/>
    <rect x="21.59" y="30.68" width="1.14" height="1.14" fill="#aa0707"/>
    <rect x="21.59" y="29.55" width="1.14" height="1.14" fill="#cc1d1d"/>
    <rect x="21.59" y="28.41" width="1.14" height="1.14" fill="#cc1d1d"/>
    <rect x="21.59" y="27.27" width="1.14" height="1.14" fill="#cc1d1d"/>
    <rect x="21.59" y="26.14" width="1.14" height="1.14" fill="#cc1d1d"/>
    <rect x="21.59" y="25" width="1.14" height="1.14" fill="#cc1d1d"/>
    <rect x="21.59" y="23.86" width="1.14" height="1.14" fill="#cc1d1d"/>
    <rect x="21.59" y="22.73" width="1.14" height="1.14" fill="#cc1d1d"/>
    <rect x="21.59" y="21.59" width="1.14" height="1.14" fill="#cc1d1d"/>
    <rect x="21.59" y="20.45" width="1.14" height="1.14" fill="#cc1d1d"/>
    <rect x="21.59" y="19.31" width="1.14" height="1.14" fill="#cc1d1d"/>
    <rect x="21.59" y="18.18" width="1.14" height="1.14" fill="#ef5454"/>
    <rect x="21.59" y="17.04" width="1.14" height="1.14" fill="#fff"/>
    <rect x="20.45" y="32.96" width="1.14" height="1.14" fill="#fff"/>
    <rect x="20.45" y="31.82" width="1.14" height="1.14" fill="#aa0707"/>
    <rect x="20.45" y="30.68" width="1.14" height="1.14" fill="#cc1d1d"/>
    <rect x="20.45" y="29.55" width="1.14" height="1.14" fill="#cc1d1d"/>
    <rect x="20.45" y="28.41" width="1.14" height="1.14" fill="#cc1d1d"/>
    <rect x="20.45" y="27.27" width="1.14" height="1.14" fill="#cc1d1d"/>
    <rect x="20.45" y="26.14" width="1.14" height="1.14" fill="#cc1d1d"/>
    <rect x="20.45" y="25" width="1.14" height="1.14" fill="#aa0707"/>
    <rect x="20.45" y="23.86" width="1.14" height="1.14" fill="#aa0707"/>
    <rect x="20.45" y="22.73" width="1.14" height="1.14" fill="#cc1d1d"/>
    <rect x="20.45" y="21.59" width="1.14" height="1.14" fill="#cc1d1d"/>
    <rect x="20.45" y="20.45" width="1.14" height="1.14" fill="#cc1d1d"/>
    <rect x="20.45" y="19.31" width="1.14" height="1.14" fill="#cc1d1d"/>
    <rect x="20.45" y="18.18" width="1.14" height="1.14" fill="#cc1d1d"/>
    <rect x="20.45" y="17.04" width="1.14" height="1.14" fill="#ef5454"/>
    <rect x="20.45" y="15.9" width="1.14" height="1.14" fill="#fff"/>
    <rect x="19.32" y="34.1" width="1.14" height="1.14" fill="#fff"/>
    <rect x="19.32" y="32.96" width="1.14" height="1.14" fill="#aa0707"/>
    <rect x="19.32" y="31.82" width="1.14" height="1.14" fill="#cc1d1d"/>
    <rect x="19.32" y="30.68" width="1.14" height="1.14" fill="#cc1d1d"/>
    <rect x="19.32" y="29.55" width="1.14" height="1.14" fill="#cc1d1d"/>
    <rect x="19.32" y="28.41" width="1.14" height="1.14" fill="#cc1d1d"/>
    <rect x="19.32" y="27.27" width="1.14" height="1.14" fill="#cc1d1d"/>
    <rect x="19.32" y="26.14" width="1.14" height="1.14" fill="#ef5454"/>
    <rect x="19.32" y="25" width="1.14" height="1.14" fill="#fff"/>
    <rect x="19.32" y="23.86" width="1.14" height="1.14" fill="#fff"/>
    <rect x="19.32" y="22.73" width="1.14" height="1.14" fill="#aa0707"/>
    <rect x="19.32" y="21.59" width="1.14" height="1.14" fill="#cc1d1d"/>
    <rect x="19.32" y="20.45" width="1.14" height="1.14" fill="#cc1d1d"/>
    <rect x="19.32" y="19.31" width="1.14" height="1.14" fill="#cc1d1d"/>
    <rect x="19.32" y="18.18" width="1.14" height="1.14" fill="#cc1d1d"/>
    <rect x="19.32" y="17.04" width="1.14" height="1.14" fill="#cc1d1d"/>
    <rect x="19.32" y="15.9" width="1.14" height="1.14" fill="#ef5454"/>
    <rect x="19.32" y="14.77" width="1.14" height="1.14" fill="#fff"/>
    <rect x="18.18" y="35.23" width="1.14" height="1.14" fill="#fff"/>
    <rect x="18.18" y="34.1" width="1.14" height="1.14" fill="#aa0707"/>
    <rect x="18.18" y="32.96" width="1.14" height="1.14" fill="#cc1d1d"/>
    <rect x="18.18" y="31.82" width="1.14" height="1.14" fill="#cc1d1d"/>
    <rect x="18.18" y="30.68" width="1.14" height="1.14" fill="#cc1d1d"/>
    <rect x="18.18" y="29.55" width="1.14" height="1.14" fill="#cc1d1d"/>
    <rect x="18.18" y="28.41" width="1.14" height="1.14" fill="#cc1d1d"/>
    <rect x="18.18" y="27.27" width="1.14" height="1.14" fill="#ef5454"/>
    <rect x="18.18" y="26.14" width="1.14" height="1.14" fill="#fff"/>
    <rect x="18.18" y="22.73" width="1.14" height="1.14" fill="#fff"/>
    <rect x="18.18" y="21.59" width="1.14" height="1.14" fill="#aa0707"/>
    <rect x="18.18" y="20.45" width="1.14" height="1.14" fill="#cc1d1d"/>
    <rect x="18.18" y="19.31" width="1.14" height="1.14" fill="#cc1d1d"/>
    <rect x="18.18" y="18.18" width="1.14" height="1.14" fill="#cc1d1d"/>
    <rect x="18.18" y="17.04" width="1.14" height="1.14" fill="#cc1d1d"/>
    <rect x="18.18" y="15.9" width="1.14" height="1.14" fill="#cc1d1d"/>
    <rect x="18.18" y="14.77" width="1.14" height="1.14" fill="#ef5454"/>
    <rect x="18.18" y="13.63" width="1.14" height="1.14" fill="#fff"/>
    <rect x="17.04" y="36.37" width="1.14" height="1.14" fill="#fff"/>
    <rect x="17.04" y="35.23" width="1.14" height="1.14" fill="#aa0707"/>
    <rect x="17.04" y="34.1" width="1.14" height="1.14" fill="#cc1d1d"/>
    <rect x="17.04" y="32.96" width="1.14" height="1.14" fill="#cc1d1d"/>
    <rect x="17.04" y="31.82" width="1.14" height="1.14" fill="#cc1d1d"/>
    <rect x="17.04" y="30.68" width="1.14" height="1.14" fill="#cc1d1d"/>
    <rect x="17.04" y="29.55" width="1.14" height="1.14" fill="#cc1d1d"/>
    <rect x="17.04" y="28.41" width="1.14" height="1.14" fill="#ef5454"/>
    <rect x="17.04" y="27.27" width="1.14" height="1.14" fill="#fff"/>
    <rect x="17.04" y="21.59" width="1.14" height="1.14" fill="#fff"/>
    <rect x="17.04" y="20.45" width="1.14" height="1.14" fill="#aa0707"/>
    <rect x="17.04" y="19.31" width="1.14" height="1.14" fill="#cc1d1d"/>
    <rect x="17.04" y="18.18" width="1.14" height="1.14" fill="#cc1d1d"/>
    <rect x="17.04" y="17.04" width="1.14" height="1.14" fill="#cc1d1d"/>
    <rect x="17.04" y="15.9" width="1.14" height="1.14" fill="#cc1d1d"/>
    <rect x="17.04" y="14.77" width="1.14" height="1.14" fill="#cc1d1d"/>
    <rect x="17.04" y="13.63" width="1.14" height="1.14" fill="#ef5454"/>
    <rect x="17.04" y="12.49" width="1.14" height="1.14" fill="#fff"/>
    <rect x="15.9" y="37.51" width="1.14" height="1.14" fill="#fff"/>
    <rect x="15.9" y="36.37" width="1.14" height="1.14" fill="#aa0707"/>
    <rect x="15.9" y="35.23" width="1.14" height="1.14" fill="#cc1d1d"/>
    <rect x="15.9" y="34.1" width="1.14" height="1.14" fill="#cc1d1d"/>
    <rect x="15.9" y="32.96" width="1.14" height="1.14" fill="#cc1d1d"/>
    <rect x="15.9" y="31.82" width="1.14" height="1.14" fill="#cc1d1d"/>
    <rect x="15.9" y="30.68" width="1.14" height="1.14" fill="#cc1d1d"/>
    <rect x="15.9" y="29.55" width="1.14" height="1.14" fill="#ef5454"/>
    <rect x="15.9" y="28.41" width="1.14" height="1.14" fill="#fff"/>
    <rect x="15.9" y="20.45" width="1.14" height="1.14" fill="#fff"/>
    <rect x="15.9" y="19.31" width="1.14" height="1.14" fill="#aa0707"/>
    <rect x="15.9" y="18.18" width="1.14" height="1.14" fill="#cc1d1d"/>
    <rect x="15.9" y="17.04" width="1.14" height="1.14" fill="#cc1d1d"/>
    <rect x="15.9" y="15.9" width="1.14" height="1.14" fill="#cc1d1d"/>
    <rect x="15.9" y="14.77" width="1.14" height="1.14" fill="#cc1d1d"/>
    <rect x="15.9" y="13.63" width="1.14" height="1.14" fill="#cc1d1d"/>
    <rect x="15.9" y="12.49" width="1.14" height="1.14" fill="#ef5454"/>
    <rect x="15.9" y="11.36" width="1.14" height="1.14" fill="#fff"/>
    <rect x="14.77" y="38.64" width="1.14" height="1.14" fill="#fff"/>
    <rect x="14.77" y="37.51" width="1.14" height="1.14" fill="#aa0707"/>
    <rect x="14.77" y="36.37" width="1.14" height="1.14" fill="#cc1d1d"/>
    <rect x="14.77" y="35.23" width="1.14" height="1.14" fill="#cc1d1d"/>
    <rect x="14.77" y="34.1" width="1.14" height="1.14" fill="#cc1d1d"/>
    <rect x="14.77" y="32.96" width="1.14" height="1.14" fill="#cc1d1d"/>
    <rect x="14.77" y="31.82" width="1.14" height="1.14" fill="#cc1d1d"/>
    <rect x="14.77" y="30.68" width="1.14" height="1.14" fill="#ef5454"/>
    <rect x="14.77" y="29.55" width="1.14" height="1.14" fill="#fff"/>
    <rect x="14.77" y="19.31" width="1.14" height="1.14" fill="#fff"/>
    <rect x="14.77" y="18.18" width="1.14" height="1.14" fill="#aa0707"/>
    <rect x="14.77" y="17.04" width="1.14" height="1.14" fill="#cc1d1d"/>
    <rect x="14.77" y="15.9" width="1.14" height="1.14" fill="#cc1d1d"/>
    <rect x="14.77" y="14.77" width="1.14" height="1.14" fill="#cc1d1d"/>
    <rect x="14.77" y="13.63" width="1.14" height="1.14" fill="#cc1d1d"/>
    <rect x="14.77" y="12.49" width="1.14" height="1.14" fill="#cc1d1d"/>
    <rect x="14.77" y="11.36" width="1.14" height="1.14" fill="#ef5454"/>
    <rect x="14.77" y="10.22" width="1.14" height="1.14" fill="#fff"/>
    <rect x="13.63" y="39.78" width="1.14" height="1.14" fill="#fff"/>
    <rect x="13.63" y="38.64" width="1.14" height="1.14" fill="#aa0707"/>
    <rect x="13.63" y="37.51" width="1.14" height="1.14" fill="#cc1d1d"/>
    <rect x="13.63" y="36.37" width="1.14" height="1.14" fill="#cc1d1d"/>
    <rect x="13.63" y="35.23" width="1.14" height="1.14" fill="#cc1d1d"/>
    <rect x="13.63" y="34.1" width="1.14" height="1.14" fill="#cc1d1d"/>
    <rect x="13.63" y="32.96" width="1.14" height="1.14" fill="#cc1d1d"/>
    <rect x="13.63" y="31.82" width="1.14" height="1.14" fill="#ef5454"/>
    <rect x="13.63" y="30.68" width="1.14" height="1.14" fill="#fff"/>
    <rect x="13.63" y="18.18" width="1.14" height="1.14" fill="#fff"/>
    <rect x="13.63" y="17.04" width="1.14" height="1.14" fill="#aa0707"/>
    <rect x="13.63" y="15.9" width="1.14" height="1.14" fill="#cc1d1d"/>
    <rect x="13.63" y="14.77" width="1.14" height="1.14" fill="#cc1d1d"/>
    <rect x="13.63" y="13.63" width="1.14" height="1.14" fill="#cc1d1d"/>
    <rect x="13.63" y="12.49" width="1.14" height="1.14" fill="#cc1d1d"/>
    <rect x="13.63" y="11.36" width="1.14" height="1.14" fill="#cc1d1d"/>
    <rect x="13.63" y="10.22" width="1.14" height="1.14" fill="#ef5454"/>
    <rect x="13.63" y="9.08" width="1.14" height="1.14" fill="#fff"/>
    <rect x="12.49" y="40.92" width="1.14" height="1.14" fill="#fff"/>
    <rect x="12.49" y="39.78" width="1.14" height="1.14" fill="#aa0707"/>
    <rect x="12.49" y="38.64" width="1.14" height="1.14" fill="#cc1d1d"/>
    <rect x="12.49" y="37.51" width="1.14" height="1.14" fill="#cc1d1d"/>
    <rect x="12.49" y="36.37" width="1.14" height="1.14" fill="#cc1d1d"/>
    <rect x="12.49" y="35.23" width="1.14" height="1.14" fill="#cc1d1d"/>
    <rect x="12.49" y="34.1" width="1.14" height="1.14" fill="#cc1d1d"/>
    <rect x="12.49" y="32.96" width="1.14" height="1.14" fill="#ef5454"/>
    <rect x="12.49" y="31.82" width="1.14" height="1.14" fill="#fff"/>
    <rect x="12.49" y="17.04" width="1.14" height="1.14" fill="#fff"/>
    <rect x="12.49" y="15.9" width="1.14" height="1.14" fill="#aa0707"/>
    <rect x="12.49" y="14.77" width="1.14" height="1.14" fill="#cc1d1d"/>
    <rect x="12.49" y="13.63" width="1.14" height="1.14" fill="#cc1d1d"/>
    <rect x="12.49" y="12.49" width="1.14" height="1.14" fill="#cc1d1d"/>
    <rect x="12.49" y="11.36" width="1.14" height="1.14" fill="#cc1d1d"/>
    <rect x="12.49" y="10.22" width="1.14" height="1.14" fill="#cc1d1d"/>
    <rect x="12.49" y="9.08" width="1.14" height="1.14" fill="#ef5454"/>
    <rect x="12.49" y="7.95" width="1.14" height="1.14" fill="#fff"/>
    <rect x="11.36" y="40.92" width="1.14" height="1.14" fill="#fff"/>
    <rect x="11.36" y="39.78" width="1.14" height="1.14" fill="#aa0707"/>
    <rect x="11.36" y="38.64" width="1.14" height="1.14" fill="#cc1d1d"/>
    <rect x="11.36" y="37.51" width="1.14" height="1.14" fill="#cc1d1d"/>
    <rect x="11.36" y="36.37" width="1.14" height="1.14" fill="#cc1d1d"/>
    <rect x="11.36" y="35.23" width="1.14" height="1.14" fill="#cc1d1d"/>
    <rect x="11.36" y="34.1" width="1.14" height="1.14" fill="#ef5454"/>
    <rect x="11.36" y="32.96" width="1.14" height="1.14" fill="#fff"/>
    <rect x="11.36" y="15.9" width="1.14" height="1.14" fill="#fff"/>
    <rect x="11.36" y="14.77" width="1.14" height="1.14" fill="#aa0707"/>
    <rect x="11.36" y="13.63" width="1.14" height="1.14" fill="#cc1d1d"/>
    <rect x="11.36" y="12.49" width="1.14" height="1.14" fill="#cc1d1d"/>
    <rect x="11.36" y="11.36" width="1.14" height="1.14" fill="#cc1d1d"/>
    <rect x="11.36" y="10.22" width="1.14" height="1.14" fill="#cc1d1d"/>
    <rect x="11.36" y="9.08" width="1.14" height="1.14" fill="#ef5454"/>
    <rect x="11.36" y="7.95" width="1.14" height="1.14" fill="#fff"/>
    <rect x="10.22" y="39.78" width="1.14" height="1.14" fill="#fff"/>
    <rect x="10.22" y="38.64" width="1.14" height="1.14" fill="#aa0707"/>
    <rect x="10.22" y="37.51" width="1.14" height="1.14" fill="#cc1d1d"/>
    <rect x="10.22" y="36.37" width="1.14" height="1.14" fill="#cc1d1d"/>
    <rect x="10.22" y="35.23" width="1.14" height="1.14" fill="#ef5454"/>
    <rect x="10.22" y="34.1" width="1.14" height="1.14" fill="#fff"/>
    <rect x="10.22" y="14.77" width="1.14" height="1.14" fill="#fff"/>
    <rect x="10.22" y="13.63" width="1.14" height="1.14" fill="#aa0707"/>
    <rect x="10.22" y="12.49" width="1.14" height="1.14" fill="#cc1d1d"/>
    <rect x="10.22" y="11.36" width="1.14" height="1.14" fill="#cc1d1d"/>
    <rect x="10.22" y="10.22" width="1.14" height="1.14" fill="#ef5454"/>
    <rect x="10.22" y="9.08" width="1.14" height="1.14" fill="#fff"/>
    <rect x="9.08" y="38.64" width="1.14" height="1.14" fill="#fff"/>
    <rect x="9.08" y="37.51" width="1.14" height="1.14" fill="#aa0707"/>
    <rect x="9.08" y="36.37" width="1.14" height="1.14" fill="#ef5454"/>
    <rect x="9.08" y="35.23" width="1.14" height="1.14" fill="#fff"/>
    <rect x="9.08" y="13.63" width="1.14" height="1.14" fill="#fff"/>
    <rect x="9.08" y="12.49" width="1.14" height="1.14" fill="#aa0707"/>
    <rect x="9.08" y="11.36" width="1.14" height="1.14" fill="#ef5454"/>
    <rect x="9.08" y="10.22" width="1.14" height="1.14" fill="#fff"/>
    <rect x="7.95" y="37.51" width="1.14" height="1.14" fill="#fff"/>
    <rect x="7.95" y="36.37" width="1.14" height="1.14" fill="#fff"/>
    <rect x="7.95" y="12.49" width="1.14" height="1.14" fill="#fff"/>
    <rect x="7.95" y="11.36" width="1.14" height="1.14" fill="#fff"/>
  </g>
</svg>
