<svg id="Capa_1" data-name="Capa 1" xmlns="http://www.w3.org/2000/svg" xmlns:xlink="http://www.w3.org/1999/xlink" width="50" height="50" viewBox="0 0 50 50">
  <defs>
    <clipPath id="clip-path">
      <polygon points="24.04 49.76 1.25 39.47 1.41 9.17 24.2 19.46 24.04 49.76" fill="none"/>
    </clipPath>
    <clipPath id="clip-path-2">
      <polygon points="24.2 19.46 1.41 9.17 25.96 0.24 48.74 10.53 24.2 19.46" fill="none"/>
    </clipPath>
    <clipPath id="clip-path-3">
      <polygon points="48.74 10.53 48.58 40.82 24.04 49.76 24.2 19.46 48.74 10.53" fill="none"/>
    </clipPath>
  </defs>
  <g id="Figment_lido">
    <g style="isolation: isolate">
      <g>
        <polygon points="24.04 49.76 1.25 39.47 1.41 9.17 24.2 19.46 24.04 49.76" fill="#cf6833"/>
        <g style="isolation: isolate">
          <g clip-path="url(#clip-path)">
            <g>
              <path d="M12.34,33.73l-.05-.15.08-.07.06.15-.09.07m.73.27a.17.17,0,0,1-.08-.18l.12,0,.07.15-.11.08m.8-2.14a.23.23,0,0,1-.12-.22l.09-.06a.22.22,0,0,1,.11.21l-.08.07m-5-2.43h0a.51.51,0,0,1-.25-.37c0-.1.09,0,.13,0a.38.38,0,0,1,.23.3c0,.09,0,.15-.08.12m2.17.86A.2.2,0,0,1,11,30.1l.08-.08a.2.2,0,0,1,.07.18l-.07.09M8.28,28.71c-.13-.06-.19-.21-.23-.4a.66.66,0,0,1,.15,0c.07,0,.12.09.15.24l-.07.13m1.73.13a.19.19,0,0,1-.09-.2.12.12,0,0,1,.18-.11.22.22,0,0,1,.12.21.14.14,0,0,1-.2.11h0M7.08,27.2A.17.17,0,0,1,7,27.11c0-.13.06-.12.12-.15l.12-.09a.22.22,0,0,1,.27-.05.65.65,0,0,1,.22.17c.2.18.17.43.17.66v.26c0,.1,0,.2-.11.19h0c-.08,0-.1-.14-.13-.23a1.92,1.92,0,0,0-.22-.56.43.43,0,0,0-.15-.17.08.08,0,0,0-.1,0s-.07.08-.11.06m10.69,2.25-.14-.1v-.14c.19-.06.35-.21.57-.17h0a.29.29,0,0,1,.14.24c0,.13-.06.17-.14.15a.83.83,0,0,0-.47,0M6.63,22.56a.17.17,0,0,1-.06-.18l.07-.09h0s.06.1.06.16,0,.12-.09.1m3.62.6c.1.05.2,0,.29,0,.62-.19,1.23-.43,1.86-.63a.53.53,0,0,1,.35,0,.56.56,0,0,1,.21.18c.37.47.76.9,1.11,1.4a1.6,1.6,0,0,1,.26.26c.67.86,1.35,1.68,2,2.53s.63.56.64,1.77v.51c0,.25,0,.35-.08.32a1,1,0,0,1-.22-.22c-1-1.27-2.06-2.57-3.11-3.81a4.91,4.91,0,0,0-.39-.51,1.28,1.28,0,0,0-.47-.44.31.31,0,0,0-.21,0,3.07,3.07,0,0,0-1.38.52c-.05.85,0,1.74,0,2.61a.43.43,0,0,0,.19.42.35.35,0,0,0,.18,0,3.91,3.91,0,0,0,.82-.26.48.48,0,0,1,.39,0,1.27,1.27,0,0,1,.43.37c.7.82,1.3,1.8,2,2.52.51.62,1,1.26,1.52,1.89a1.18,1.18,0,0,1,.3.86c0,.39,0,.79,0,1.2s-.09.54-.32.62c-1.18.42-2.38.78-3.54,1.22a.51.51,0,0,1-.42,0,1.42,1.42,0,0,1-.48-.43c-.57-.73-1.15-1.44-1.75-2.12l-.56-.72a21,21,0,0,1-1.39-1.8.87.87,0,0,1-.21-.62c0-.47,0-.95,0-1.42A1.08,1.08,0,0,0,8.28,29a1.74,1.74,0,0,1,.26.47c.74.9,1.48,1.8,2.21,2.72a2.63,2.63,0,0,1,.57.69,6.24,6.24,0,0,1,.68.9,2.77,2.77,0,0,1,.37.39.82.82,0,0,0,.32.28.45.45,0,0,0,.28,0,5.58,5.58,0,0,0,1.19-.41.3.3,0,0,0,.19-.29,17.68,17.68,0,0,0,0-2.41.45.45,0,0,0-.21-.42L14,31a3.28,3.28,0,0,0-1,.27.39.39,0,0,1-.3,0A.88.88,0,0,1,12.4,31c-.21-.3-.45-.56-.67-.84-.44-.57-.91-1.08-1.36-1.65-.53-.74-1.11-1.39-1.67-2.09a1.35,1.35,0,0,1-.31-.87V24.32c0-.34.11-.51.32-.58.39-.13.79-.24,1.17-.4A.26.26,0,0,0,10.1,23a.32.32,0,0,0,.15.14m5-.31,0,0a.24.24,0,0,1-.15-.26c0-.08,0-.14.1-.11h0a.47.47,0,0,1,.17.29c0,.1-.06.11-.11.09m-4.88-2.18h0a.24.24,0,0,1-.12-.23c0-.11.07-.16.16-.12h0a.29.29,0,0,1,.13.25c0,.12-.08.14-.16.1m.81-.3a1,1,0,0,0,.48,0l.11,0a.48.48,0,0,1,.69-.22,5.86,5.86,0,0,1,.79.54l0,0a.29.29,0,0,1,.16,0c.24.1.36.45.52.72a1,1,0,0,0,.37.4.37.37,0,0,0,.15,0h.06a.21.21,0,0,1,.08.26c-.1.22,0,.34.16.5a1.56,1.56,0,0,1,.31,1c0,.23.06.46.24.54h0c.23.08.16-.23.18-.42s-.16-.62.07-.63h.07c.17.08.12.44.24.59l0,.09c.08.19.28.37.21.57s-.08.08-.15.05l-.08,0-.1-.05h0c-.09,0-.21-.08-.2.09s.13.19.22.25l.09,0c.25.11.41-.08.61-.15s.11-.08.17-.06,0,0,0,.06,0,.19-.06.26-.18.19-.08.38a.18.18,0,0,0,.09.1c.07,0,.14,0,.21-.06s.32-.1.41-.05.2.21.27.49h-.08l-.12-.09a.61.61,0,0,0-.12-.09c-.06,0-.1,0-.11.11-.07.34.25.27.35.47a5.12,5.12,0,0,1,.56,1c0,.1.06.22.14.25h0a.17.17,0,0,0,.21-.13.43.43,0,0,0-.14-.36c-.17-.22-.41-.34-.51-.69a.83.83,0,0,1,.21.06,1.42,1.42,0,0,1,.69,1.41c0,.3,0,.63-.06.91s.09.28.16.41.07.21,0,.25a.06.06,0,0,1-.07,0,.26.26,0,0,1-.09-.14.37.37,0,0,0-.19-.25l-.09,0-.13,0a1.5,1.5,0,0,1-.72-1.54.88.88,0,0,0,0-.5.53.53,0,0,0-.19-.24h-.09c-.11.05-.07.21,0,.37s.17.24.1.35a.11.11,0,0,1-.15,0l-.05,0c-.15-.12-.14-.29-.15-.45v-.17a.44.44,0,0,0-.15-.4h0c-.1-.05-.14,0-.18.13s-.06.2-.13.17,0,0-.09-.08c-.14-.2,0-.26.05-.31l0-.16-.13-.14,0,0c-.13-.05-.22,0-.33,0h-.08a.13.13,0,0,1-.09-.1.13.13,0,0,1,.06-.19c.07-.06.24-.07.13-.3a.31.31,0,0,0-.12-.13c-.08,0-.17,0-.25,0a.31.31,0,0,1-.21,0,1.09,1.09,0,0,1-.53-.73,1.37,1.37,0,0,0-.66-1l0,0c-.05,0-.12,0-.17,0s-.06,0-.08-.12a.27.27,0,0,1,.16-.32l.17,0c.11,0,.22,0,.22-.14a.39.39,0,0,0-.14-.32.34.34,0,0,0-.11-.07c-.07,0-.13,0-.17.05-.1.33-.44.1-.6.29l-.13-.08.05-.16.11,0c.1-.05.15-.16.05-.34a.22.22,0,0,0-.12-.14.14.14,0,0,0-.15,0,.48.48,0,0,1-.5.09,1.19,1.19,0,0,1-.48-.51.35.35,0,0,0-.12-.14.07.07,0,0,0-.08,0c-.08.05-.06.16,0,.3l.13.18a.27.27,0,0,1,0,.28.07.07,0,0,1-.09,0,.56.56,0,0,1-.11-.11,1.44,1.44,0,0,0-.24-.3l-.09-.05c-.08,0-.14,0-.08.22s0,.34-.13.28l-.09-.05-.13-.08c-.24-.11-.4,0-.52.27s-.1.15-.17.11a.27.27,0,0,1-.13-.13c0-.07-.08-.13-.13-.15h-.07a.24.24,0,0,1-.12,0,.55.55,0,0,1-.18-.3.46.46,0,0,0-.25-.31.73.73,0,0,0-.2-.05c-.17,0-.39-.1-.46.16a.42.42,0,0,0,0,.44.91.91,0,0,0,.21.15.17.17,0,0,0,.25-.06c.07-.1.15-.13.23-.09a.51.51,0,0,1,.18.18c.12.2.34.45.16.69a1.16,1.16,0,0,0-.26-.42.38.38,0,0,0-.11-.08c-.08,0-.13,0-.09.19s0,.25-.06.22l-.12-.09a.64.64,0,0,0-.23-.16.42.42,0,0,0-.38,0,.19.19,0,0,0-.15.19c0,.14,0,.39-.14.32h0a.64.64,0,0,1-.29-.47c0-.15,0-.28-.13-.33h0c-.14,0-.14.14-.12.28,0,.53,0,1,0,1.56a8.22,8.22,0,0,1-.06,1.42.76.76,0,0,0,.34.79c.41.24.49.79.67,1.23.07.19.12.32.2.35s.1,0,.17-.05a.21.21,0,0,1,.2-.05c.05,0,.09.07.13.17s-.05.23-.15.27-.12.26,0,.42a4.35,4.35,0,0,0,.58.56l.08.05a.21.21,0,0,0,.26-.08c.05-.07.1-.13.16-.1a.35.35,0,0,1,.11.14c.11.23.1.44,0,.51a3.6,3.6,0,0,1-.44.12l-.08.13.11.17a.47.47,0,0,1,.34.06l.24.12.25.14a.36.36,0,0,0,.47,0c.09.17,0,.22,0,.33s.05.32.13.35a.11.11,0,0,0,.12,0,.39.39,0,0,1,.33,0c.12.05.23.19.33.46a.36.36,0,0,0,.24.24l.11.05h0a.42.42,0,0,1,.23.43c0,.25-.08.32-.25.25h0l-.53-.22c-.09,0-.17,0-.18.13a.34.34,0,0,0,.13.3h0l.16.06.21.1.19.09a.54.54,0,0,0,.52,0c.32-.2.28-.8-.08-1.21l-.07-.14.07-.11a.27.27,0,0,1,.2,0,.77.77,0,0,1,.39.69c0,.39.13.89-.19,1.06a1,1,0,0,1-.92.06,1.62,1.62,0,0,1-.6-.49,1.94,1.94,0,0,1-.57-.82L11.35,32a2.15,2.15,0,0,1-.73-.67c-.28-.38-.17-.42,0-.61-.21-.07-.4-.21-.56-.07a.16.16,0,0,1-.15,0,.31.31,0,0,1-.14-.27,1.09,1.09,0,0,0-.26-.65l-.06-.16c.05-.49-.31-.8-.45-1.21a.26.26,0,0,0-.11-.17s-.1,0-.15.1-.06.23-.16.19l-.05,0A.71.71,0,0,1,8.37,28c0-.12,0-.24,0-.35a.67.67,0,0,0-.23-.55A.41.41,0,0,1,8,26.85a.75.75,0,0,0-.47-.64l0,0c-.28-.1-.37.16-.51.31l0,.14c0,.08,0,.12-.1.09s0,0-.06,0-.14-.22-.06-.3c.3-.31.22-.9.22-1.42,0-.08,0-.19,0-.22a.08.08,0,0,0-.07,0,.16.16,0,0,1-.12,0c-.11,0-.12-.21-.12-.36,0-.38,0-.75,0-1.12,0-.11,0-.27.07-.28h0c.08,0,.1.19.14.27a.83.83,0,0,0,.12.15,2.34,2.34,0,0,0-.1-1.22.38.38,0,0,1,0-.43c.17-.2.33-.44.62-.41s.41-.25.68-.22c.07.19,0,.21-.08.31a.39.39,0,0,0,0,.33.27.27,0,0,0,.12.1.16.16,0,0,0,.1,0c.09,0,.15-.07.12-.2-.07-.44.13-.36.34-.37a1.12,1.12,0,0,0,1-.64c0-.06,0-.18.12-.15l.05,0a.39.39,0,0,1,.1.36c0,.17,0,.36,0,.54a.42.42,0,0,0,.22.39h0c.12.05.19-.05.19-.19a2,2,0,0,1,.14-.64c.06-.14.12-.2.19-.17s.12.11.2.27.12.27.22.31l.09,0c.09,0,.18,0,.18-.18a.44.44,0,0,0-.15-.35l-.3-.29c-.07-.1-.19-.19-.16-.34s.08-.1.15-.07l.08.05.13.08m1.61-.58-.13-.13c0-.1,0-.11.11-.1l.12.16c0,.09,0,.08-.1.07m0-.58a.23.23,0,0,0-.16,0,2.14,2.14,0,0,0-1.05.5l-.15.08L7.23,21.19c-.26.09-.56.09-.75.37-.11,1.48-.14,3-.16,4.53a1.9,1.9,0,0,0,.46,1.24c.31.39.64.78,1,1.12.12.14.25.26.38.4a.35.35,0,0,0-.18,0,.82.82,0,0,0-.19.06,5.84,5.84,0,0,1-.93.27c-.31,0-.51.25-.51.74s0,.82,0,1.24a2.05,2.05,0,0,0,.55,1.51,9.1,9.1,0,0,0,.75,1c1,1.28,2.07,2.52,3.08,3.83a1,1,0,0,1,.35.43,1.72,1.72,0,0,0,.4.57,8.27,8.27,0,0,1,.88,1,1,1,0,0,0,.37.31.45.45,0,0,0,.36,0c1.9-.61,3.77-1.29,5.66-1.91a.47.47,0,0,0,.33-.57c0-1.1.08-2.21.07-3.34a2.82,2.82,0,0,1,0-.92,1.9,1.9,0,0,0-.52-1.39c-.27-.33-.53-.69-.8-1s-.27-.41,0-.51.62-.24.94-.34c.13,0,.3-.07.32-.31A15.43,15.43,0,0,0,19,26.91a4.89,4.89,0,0,0-.7-.94C17.53,25,16.72,24,15.94,23c-.35-.37-.67-.82-1-1.22-.6-.72-1.17-1.47-1.77-2.18a1.35,1.35,0,0,0-.42-.41" fill="#f7f7f7"/>
              <path d="M12.43,20.13a.48.48,0,0,0-.69.22l-.11,0a1,1,0,0,1-.48,0L11,20.29l-.08-.05c-.07,0-.14,0-.15.07s.09.24.16.34l.3.29a.44.44,0,0,1,.15.35c0,.16-.09.18-.18.18l-.09,0c-.1,0-.15-.16-.22-.31s-.14-.25-.2-.27-.13,0-.19.17a2,2,0,0,0-.14.64c0,.14-.07.24-.19.19h0a.42.42,0,0,1-.22-.39c0-.18,0-.37,0-.54a.39.39,0,0,0-.1-.36l-.05,0c-.07,0-.09.09-.12.15a1.12,1.12,0,0,1-1,.64c-.21,0-.41-.07-.34.37,0,.13,0,.21-.12.2a.16.16,0,0,1-.1,0,.27.27,0,0,1-.12-.1.39.39,0,0,1,0-.33c0-.1.15-.12.08-.31-.27,0-.44.24-.68.22s-.45.21-.62.41a.38.38,0,0,0,0,.43,2.34,2.34,0,0,1,.1,1.22.83.83,0,0,1-.12-.15c0-.08-.06-.24-.14-.27h0c-.1,0-.07.17-.07.28,0,.37,0,.74,0,1.12,0,.15,0,.32.12.36a.16.16,0,0,0,.12,0,.08.08,0,0,1,.07,0c.06,0,0,.14,0,.22,0,.52.08,1.11-.22,1.42-.08.08,0,.2.06.3s0,0,.06,0,.08,0,.1-.09l0-.14c.14-.15.23-.41.51-.31l0,0a.75.75,0,0,1,.47.64.41.41,0,0,0,.17.24.67.67,0,0,1,.23.55c0,.11,0,.23,0,.35a.71.71,0,0,0,.13.43l.05,0c.1,0,.11-.12.16-.19s.1-.12.15-.1a.26.26,0,0,1,.11.17c.14.41.5.72.45,1.21l.06.16a1.09,1.09,0,0,1,.26.65.31.31,0,0,0,.14.27.16.16,0,0,0,.15,0c.16-.14.35,0,.56.07-.14.19-.25.23,0,.61a2.15,2.15,0,0,0,.73.67l.15.21a1.94,1.94,0,0,0,.57.82,1.62,1.62,0,0,0,.6.49,1,1,0,0,0,.92-.06c.32-.17.18-.67.19-1.06a.77.77,0,0,0-.39-.69.27.27,0,0,0-.2,0l-.07.11.07.14c.36.41.4,1,.08,1.21a.54.54,0,0,1-.52,0L12.56,33l-.21-.1-.16-.06h0a.34.34,0,0,1-.13-.3c0-.14.09-.16.18-.13l.53.22h0c.17.07.25,0,.25-.25a.42.42,0,0,0-.23-.43h0l-.11-.05a.36.36,0,0,1-.24-.24c-.1-.27-.21-.41-.33-.46a.39.39,0,0,0-.33,0,.11.11,0,0,1-.12,0c-.08,0-.12-.18-.13-.35s.1-.16,0-.33a.36.36,0,0,1-.47,0l-.25-.14-.24-.12a.47.47,0,0,0-.34-.06l-.11-.17L10.2,30a3.6,3.6,0,0,0,.44-.12c.15-.07.16-.28,0-.51a.35.35,0,0,0-.11-.14c-.06,0-.11,0-.16.1a.21.21,0,0,1-.26.08l-.08-.05a4.35,4.35,0,0,1-.58-.56c-.13-.16-.16-.35,0-.42s.24,0,.15-.27-.08-.15-.13-.17a.21.21,0,0,0-.2.05c-.07.06-.13.07-.17.05s-.13-.16-.2-.35c-.18-.44-.26-1-.67-1.23a.76.76,0,0,1-.34-.79A8.22,8.22,0,0,0,8,24.21c-.06-.54,0-1,0-1.56,0-.14,0-.31.12-.28h0c.11.05.11.18.13.33a.64.64,0,0,0,.29.47h0c.17.07.12-.18.14-.32a.19.19,0,0,1,.15-.19.42.42,0,0,1,.38,0,.64.64,0,0,1,.23.16l.12.09c.06,0,.1,0,.06-.22s0-.22.09-.19a.38.38,0,0,1,.11.08,1.16,1.16,0,0,1,.26.42c.18-.24,0-.49-.16-.69a.51.51,0,0,0-.18-.18c-.08,0-.16,0-.23.09a.17.17,0,0,1-.25.06.91.91,0,0,1-.21-.15.42.42,0,0,1,0-.44c.07-.26.29-.18.46-.16a.73.73,0,0,1,.2.05.46.46,0,0,1,.25.31.55.55,0,0,0,.18.3.24.24,0,0,0,.12,0h.07s.08.08.13.15a.27.27,0,0,0,.13.13c.07,0,.13,0,.17-.11s.28-.38.52-.27l.13.08.09.05c.12.06.21,0,.13-.28s0-.26.08-.22l.09.05a1.44,1.44,0,0,1,.24.3.56.56,0,0,0,.11.11.07.07,0,0,0,.09,0,.27.27,0,0,0,0-.28l-.13-.18c-.07-.14-.09-.25,0-.3a.07.07,0,0,1,.08,0,.35.35,0,0,1,.12.14,1.19,1.19,0,0,0,.48.51.48.48,0,0,0,.5-.09.14.14,0,0,1,.15,0,.22.22,0,0,1,.12.14c.1.18,0,.29-.05.34l-.11,0-.05.16.13.08c.16-.19.5,0,.6-.29,0-.08.1-.08.17-.05a.34.34,0,0,1,.11.07.39.39,0,0,1,.14.32c0,.19-.11.17-.22.14l-.17,0a.27.27,0,0,0-.16.32c0,.07,0,.1.08.12s.12,0,.17,0l0,0a1.37,1.37,0,0,1,.66,1,1.09,1.09,0,0,0,.53.73.31.31,0,0,0,.21,0c.08,0,.17-.07.25,0a.31.31,0,0,1,.12.13c.11.23-.06.24-.13.3a.13.13,0,0,0-.06.19.13.13,0,0,0,.09.1h.08c.11,0,.2-.09.33,0l0,0,.13.14,0,.16c-.09.05-.19.11-.05.31,0,0,.06.07.09.08s.1-.08.13-.17.08-.18.18-.13h0a.44.44,0,0,1,.15.4v.17c0,.16,0,.33.15.45l.05,0a.11.11,0,0,0,.15,0c.07-.11-.07-.23-.1-.35s-.09-.32,0-.37h.09a.53.53,0,0,1,.19.24.88.88,0,0,1,0,.5,1.5,1.5,0,0,0,.72,1.54l.13,0,.09,0a.37.37,0,0,1,.19.25.26.26,0,0,0,.09.14.06.06,0,0,0,.07,0c.07,0,.06-.14,0-.25s-.2-.24-.16-.41,0-.61.06-.91A1.42,1.42,0,0,0,18,26.2a.83.83,0,0,0-.21-.06c.1.35.34.47.51.69a.43.43,0,0,1,.14.36.17.17,0,0,1-.21.13h0c-.08,0-.1-.15-.14-.25a5.12,5.12,0,0,0-.56-1c-.1-.2-.42-.13-.35-.47,0-.12.05-.14.11-.11a.61.61,0,0,1,.12.09l.12.09h.08c-.07-.28-.15-.44-.27-.49s-.22,0-.41.05-.14.09-.21.06a.18.18,0,0,1-.09-.1c-.1-.19,0-.27.08-.38s.15-.11.06-.26,0-.05,0-.06-.12,0-.17.06-.36.26-.61.15l-.09,0c-.09-.06-.22-.07-.22-.25s.11-.12.2-.09h0l.1.05.08,0c.07,0,.12,0,.15-.05s-.13-.38-.21-.57l0-.09c-.12-.15-.07-.51-.24-.59h-.07c-.23,0-.05.41-.07.63s.05.5-.18.42h0c-.18-.08-.2-.31-.24-.54a1.56,1.56,0,0,0-.31-1c-.15-.16-.26-.28-.16-.5a.21.21,0,0,0-.08-.26h-.06a.37.37,0,0,1-.15,0,1,1,0,0,1-.37-.4c-.16-.27-.28-.62-.52-.72a.29.29,0,0,0-.16,0l0,0a5.86,5.86,0,0,0-.79-.54" fill="#f7f7f7"/>
              <path d="M7.53,26.82a.22.22,0,0,0-.27.05L7.14,27c-.06,0-.17,0-.12.15a.17.17,0,0,0,.06.09s.08,0,.11-.06a.08.08,0,0,1,.1,0,.43.43,0,0,1,.15.17,1.92,1.92,0,0,1,.22.56c0,.09,0,.2.13.23h0c.09,0,.1-.09.11-.19v-.26c0-.23,0-.48-.17-.66a.65.65,0,0,0-.22-.17" fill="#f7f7f7"/>
              <path d="M18.24,29.05h0c-.22,0-.38.11-.57.17v.14l.14.1a.83.83,0,0,1,.47,0c.08,0,.13,0,.14-.15a.29.29,0,0,0-.14-.24" fill="#f7f7f7"/>
              <path d="M8.74,29s-.14-.06-.13,0a.51.51,0,0,0,.25.37h0c.06,0,.09,0,.08-.12a.38.38,0,0,0-.23-.3" fill="#f7f7f7"/>
              <path d="M10.35,20.31c-.09,0-.15,0-.16.12a.24.24,0,0,0,.12.23h0c.08,0,.13,0,.16-.1a.29.29,0,0,0-.13-.25h0" fill="#f7f7f7"/>
              <path d="M10.1,28.53a.12.12,0,0,0-.18.11.19.19,0,0,0,.09.2h0a.14.14,0,0,0,.2-.11.22.22,0,0,0-.12-.21" fill="#f7f7f7"/>
              <path d="M15.14,22.46c-.06,0-.09,0-.1.11a.24.24,0,0,0,.15.26l0,0s.1,0,.11-.09a.47.47,0,0,0-.17-.29h0" fill="#f7f7f7"/>
              <path d="M8.2,28.34a.66.66,0,0,0-.15,0c0,.19.1.34.23.4l.07-.13c0-.15-.08-.21-.15-.24" fill="#f7f7f7"/>
              <path d="M13.84,31.58l-.09.06a.23.23,0,0,0,.12.22l.08-.07a.22.22,0,0,0-.11-.21" fill="#f7f7f7"/>
              <path d="M13.11,33.77l-.12,0a.17.17,0,0,0,.08.18l.11-.08-.07-.15" fill="#f7f7f7"/>
              <path d="M12.74,19.56c-.06,0-.12,0-.11.1l.13.13c.06,0,.1,0,.1-.07l-.12-.16" fill="#f7f7f7"/>
              <path d="M6.66,22.3h0l-.07.09a.17.17,0,0,0,.06.18c.06,0,.09,0,.09-.1s0-.14-.06-.16" fill="#f7f7f7"/>
              <path d="M11.06,30,11,30.1a.2.2,0,0,0,.08.19l.07-.09a.2.2,0,0,0-.07-.18" fill="#f7f7f7"/>
              <polyline points="12.37 33.51 12.29 33.58 12.34 33.73 12.43 33.66 12.37 33.51" fill="#f7f7f7"/>
            </g>
          </g>
        </g>
      </g>
      <g>
        <polygon points="24.2 19.46 1.41 9.17 25.96 0.24 48.74 10.53 24.2 19.46" fill="#e37238"/>
        <g style="isolation: isolate">
          <g clip-path="url(#clip-path-2)">
            <g>
              <path d="M27.92,11.47l-.15,0v-.07l.16,0,0,.07m.76-.31a.25.25,0,0,1-.19,0l.05-.09.17,0,0,.08m-1-1.14a.43.43,0,0,1-.25,0l0-.07a.36.36,0,0,1,.25,0l0,.07M22.08,12h0a.8.8,0,0,1-.46,0c-.08,0,.05-.06.07-.08a.61.61,0,0,1,.4,0c.07,0,.09.06,0,.09M24.39,11a.3.3,0,0,1-.19,0V11a.29.29,0,0,1,.19,0V11m-3.3,1a.87.87,0,0,1-.48,0l.14-.07A.47.47,0,0,1,21,12l.05.08m1.43-.91a.28.28,0,0,1-.22,0c-.07,0,0-.1.06-.14a.3.3,0,0,1,.25,0c.06,0,0,.1-.08.14h0M19,12.2a.2.2,0,0,1-.11,0c-.14,0,0-.07,0-.11l0-.1c0-.07.07-.12.17-.16a1.77,1.77,0,0,1,.29-.07.87.87,0,0,1,.62.13l.19.08c.07,0,.13.08.07.12l0,0a.5.5,0,0,1-.27,0A3.41,3.41,0,0,0,19.4,12a.85.85,0,0,0-.25,0,.09.09,0,0,0-.06.06s0,.06-.05.08M29,7.08l-.17,0-.1-.06c.1-.12.12-.26.32-.37h0a.48.48,0,0,1,.29,0c.08,0,.07.09,0,.13a1.26,1.26,0,0,0-.37.26M15.29,10.91a.27.27,0,0,1-.19,0v-.07h0a.25.25,0,0,1,.17,0c.05,0,.07.05,0,.08m3.23-1.78a.39.39,0,0,0,.2-.17c.34-.41.64-.82,1-1.23A.55.55,0,0,1,20,7.54a1.05,1.05,0,0,1,.3-.06c.63-.05,1.24-.12,1.89-.15l.38,0C23.69,7.2,24.83,7.09,26,7s.91-.17,1.8.23l.37.17c.18.09.25.12.18.15a1.92,1.92,0,0,1-.34,0c-1.73.15-3.48.28-5.2.44-.23,0-.46,0-.68.05a2.27,2.27,0,0,0-.69.11.5.5,0,0,0-.18.1,2.3,2.3,0,0,0-.69.93c.59.31,1.26.59,1.9.88a.62.62,0,0,0,.46,0,.51.51,0,0,0,.16-.09,2.74,2.74,0,0,0,.44-.54.66.66,0,0,1,.31-.21,2.58,2.58,0,0,1,.6-.11c1.14-.11,2.33-.12,3.43-.28l2.56-.22a1.58,1.58,0,0,1,.87.12c.28.14.58.27.88.4s.33.23.22.38c-.61.78-1.27,1.56-1.84,2.34a.66.66,0,0,1-.33.23,2.46,2.46,0,0,1-.7.12c-1,.07-1.95.15-2.91.26l-1,.07c-.81.05-1.58.17-2.4.16a1.09,1.09,0,0,1-.62-.09l-1-.46a.86.86,0,0,0-.25-.07,2,2,0,0,1,.55,0c1.23-.11,2.47-.22,3.71-.31a4.14,4.14,0,0,1,1-.09,9.12,9.12,0,0,1,1.18-.07,5.07,5.07,0,0,1,.58-.08,1.73,1.73,0,0,0,.45-.08.69.69,0,0,0,.24-.14,4.38,4.38,0,0,0,.62-.79c0-.08,0-.15-.07-.2a13.4,13.4,0,0,0-1.78-.79.7.7,0,0,0-.47,0l-.11.06c-.31.2-.38.43-.58.65a.63.63,0,0,1-.25.16,1.81,1.81,0,0,1-.41.07c-.39,0-.76.06-1.14.09-.76.06-1.51.15-2.26.21-1,0-1.89.14-2.84.22a1.79,1.79,0,0,1-.87-.12l-.88-.39c-.26-.11-.29-.23-.18-.37s.43-.51.61-.77c.06-.08.13-.16-.07-.23a.61.61,0,0,0,.22,0M22.13,6.3h0a.37.37,0,0,1-.31,0c-.05,0-.07-.07,0-.09h0a.78.78,0,0,1,.34,0c.07,0,0,.06,0,.09m-5.37,2,0,0a.38.38,0,0,1-.26,0c-.06,0-.05-.1.05-.13h0a.56.56,0,0,1,.29,0c.06,0,0,.09,0,.12m.4-.54a1.55,1.55,0,0,0,.39-.25l.06-.08c-.09-.22.09-.35.36-.45s.68-.17,1-.26h0a.55.55,0,0,1,.15-.08,2.82,2.82,0,0,1,.93,0,1.68,1.68,0,0,0,.58-.07l.14-.07.06,0a.24.24,0,0,1,.25,0c.09.13.25.11.49.08a2,2,0,0,1,.95.15,1,1,0,0,0,.59.05l0,0c.23-.1-.05-.16-.17-.24s-.59-.11-.42-.24l.07,0c.18-.06.41.08.62.07h.1c.2,0,.49,0,.58.07s0,.08-.07.1l-.1,0-.11,0,0,0c-.09,0-.23.09-.09.14s.25,0,.36,0l.11,0c.27-.1.25-.26.36-.39s0-.08.08-.11h.09c.17,0,.12.08.14.12s0,.16.22.17a.32.32,0,0,0,.15,0c.07,0,.08-.08.12-.13a.51.51,0,0,1,.27-.24A1,1,0,0,1,26,6L26,6l-.16,0-.16,0s-.07,0,0,.1.4,0,.62,0a8.83,8.83,0,0,1,1.15,0,.61.61,0,0,0,.3,0l0,0c.08,0,.13-.1.07-.16a.59.59,0,0,0-.38,0,3.29,3.29,0,0,1-.9.05,1,1,0,0,1,.21-.1A2.11,2.11,0,0,1,28.32,6c.19.12.46.21.62.34s.28,0,.43,0,.21,0,.18.09,0,0,0,0h-.18a.58.58,0,0,0-.33,0l-.09,0-.13.06a2.18,2.18,0,0,1-1.69-.11.9.9,0,0,0-.73-.11l-.07,0c-.05.08.1.11.25.14s.31,0,.34.06,0,.06-.09.09l-.07,0a.66.66,0,0,1-.44-.07l-.12-.06a.59.59,0,0,0-.42,0h0c-.11,0-.08.09,0,.14s.1.1,0,.13l-.12,0c-.25,0-.23-.06-.2-.13l-.08-.08-.2,0h0c-.14,0-.16.12-.23.19l-.07,0-.14,0c-.11,0-.11-.06-.1-.1s.14-.16-.12-.17a.32.32,0,0,0-.18,0,.36.36,0,0,0-.17.15.56.56,0,0,1-.19.11,1.86,1.86,0,0,1-.94,0A2.28,2.28,0,0,0,21.7,7h0c-.07,0-.1.07-.16.09a.25.25,0,0,1-.15,0c-.17,0-.13-.12-.11-.19l.12-.1c.11,0,.2-.1.06-.16a.53.53,0,0,0-.34,0l-.14,0c-.08,0-.12.07-.08.11s-.27.28-.26.43l-.16,0-.08-.08.06-.07c0-.07,0-.13-.2-.14A.38.38,0,0,0,20,7a.13.13,0,0,0-.1.09.45.45,0,0,1-.32.31,2.47,2.47,0,0,1-.75.09l-.19,0-.05,0c0,.06.07.09.23.09h.23c.12,0,.22,0,.24.07s0,0,0,0a.65.65,0,0,1-.16,0,2.73,2.73,0,0,0-.41,0l-.1,0c-.09,0-.12.07.09.12s.25.11.11.16l-.11,0-.15.05c-.27.1-.29.23-.21.38s0,.1-.05.13l-.2,0a1.18,1.18,0,0,0-.21,0,.09.09,0,0,0-.05,0l-.09.07a.86.86,0,0,1-.36,0,.82.82,0,0,0-.43,0L16.74,9c-.15.09-.37.19-.24.31a.37.37,0,0,0,.35.13l.28-.06c.1,0,.16-.09.14-.16s0-.12.11-.16a1,1,0,0,1,.27,0c.25,0,.6,0,.64.14a2.15,2.15,0,0,0-.51,0l-.14,0c-.09,0-.1.07.07.11s.18.08.11.11l-.15,0a1.6,1.6,0,0,0-.3.08.48.48,0,0,0-.29.21s-.06.1,0,.14.31.12.12.19h0a1,1,0,0,1-.57,0,.48.48,0,0,0-.33,0l-.05,0c-.13.07,0,.13.11.17.43.14.74.34,1.18.48a5.94,5.94,0,0,1,1,.5,1,1,0,0,0,.83.08,3.42,3.42,0,0,1,1.43,0,1,1,0,0,0,.42,0,.12.12,0,0,0,.09-.11.2.2,0,0,1,.12-.12.47.47,0,0,1,.22,0c.24,0,.13.11.09.17s.09.15.31.13a7.91,7.91,0,0,0,.87-.13l.09,0c.11,0,.15-.11.14-.17s0-.1.06-.12a.39.39,0,0,1,.18,0c.26,0,.4.09.34.2a2.18,2.18,0,0,1-.25.28l0,.09h.21a1,1,0,0,1,.3-.17l.28-.08.3-.1c.19-.06.33-.15.33-.27.19,0,.15.08.23.11a.54.54,0,0,0,.36,0,.22.22,0,0,0,.09-.07.42.42,0,0,1,.24-.19,1.3,1.3,0,0,1,.59,0,.67.67,0,0,0,.36-.05l.12,0h0a.66.66,0,0,1,.5,0c.19.09.18.15,0,.22h0l-.57.22c-.09,0-.14.09-.05.14a.48.48,0,0,0,.33,0h0l.16-.06.24-.09.21-.07a.69.69,0,0,0,.42-.28c.11-.24-.37-.41-.94-.35h-.17l0-.07a.42.42,0,0,1,.17-.11,1.16,1.16,0,0,1,.8,0c.28.13.77.22.64.45a1.17,1.17,0,0,1-.67.53,3.6,3.6,0,0,1-.82.16,3.05,3.05,0,0,1-1.05,0l-.27,0a4.35,4.35,0,0,1-1.06.17c-.49,0-.44,0-.47-.18-.22.09-.46.15-.49.29a.15.15,0,0,1-.09.08.47.47,0,0,1-.31,0,1.52,1.52,0,0,0-.68-.07l-.17,0c-.32-.19-.83-.1-1.23-.16a.42.42,0,0,0-.21,0c-.06,0-.06.07,0,.12s.12.11,0,.15H21a.79.79,0,0,1-.41-.07,2,2,0,0,1-.26-.11.92.92,0,0,0-.58-.06.59.59,0,0,1-.32,0,1.29,1.29,0,0,0-.83,0l0,0c-.28.11-.17.25-.16.38l.07.07s0,.06,0,.08l-.08,0c-.15,0-.26,0-.26-.07,0-.26-.5-.41-.88-.59-.06,0-.13-.07-.2,0l-.06,0-.09.06a.53.53,0,0,1-.37,0l-.83-.37c-.07,0-.22-.07-.15-.13h0a1.16,1.16,0,0,1,.32,0l.2,0a2.21,2.21,0,0,0-1-.34c-.21,0-.29-.08-.3-.15s-.07-.33.17-.48.15-.31.37-.45c.19,0,.11.1.17.15a.32.32,0,0,0,.26.09l.16,0,.09-.05c.08,0,.07-.11,0-.14-.39-.1-.18-.18,0-.31s.44-.48.3-.75c0,0-.1-.09,0-.12h.06a.47.47,0,0,1,.35.07l.36.19a.64.64,0,0,0,.47,0h0c.13-.05.1-.12,0-.17a.87.87,0,0,1-.37-.29c-.06-.07-.06-.13,0-.16a1.25,1.25,0,0,1,.36,0,1,1,0,0,0,.39,0L18,8c.07,0,.12-.1,0-.15a.67.67,0,0,0-.38,0l-.44.07c-.13,0-.29,0-.38,0s0-.08.06-.11l.11,0,.15,0M18,6.63l-.19,0c-.09,0-.05-.06,0-.09l.21,0c.07,0,0,.06,0,.08m-.43-.18a.37.37,0,0,0-.14.08,1.27,1.27,0,0,0-.44.74l-.06.11c-.73.91-1.46,1.83-2.18,2.75-.13.17-.36.34-.3.53,1,.55,2.1,1.07,3.21,1.59a2.45,2.45,0,0,0,1.27.15c.52,0,1.06-.09,1.57-.16l.59-.07a.38.38,0,0,0-.15.09,1.2,1.2,0,0,0-.11.12c-.2.2-.26.41-.51.6s-.22.36.14.53l.91.41a2.86,2.86,0,0,0,1.54.2c.45,0,.86-.06,1.29-.1,1.73-.14,3.46-.3,5.2-.43a1.83,1.83,0,0,1,.58,0,3.48,3.48,0,0,0,.73,0,13,13,0,0,1,1.4-.16,2.14,2.14,0,0,0,.52-.11.57.57,0,0,0,.29-.19c1-1.24,2-2.49,3-3.73.1-.13.13-.27-.16-.37-.78-.39-1.57-.77-2.4-1.14a2.55,2.55,0,0,1-.68-.31,2.53,2.53,0,0,0-1.42-.18l-1.37.11c-.43,0-.51,0-.37-.17s.31-.42.48-.63.18-.19,0-.27a12.61,12.61,0,0,0-1.91-.81,8.22,8.22,0,0,0-1.23.07c-1.34.1-2.66.24-4,.33-.55.07-1.13.09-1.69.14l-3,.25a2.77,2.77,0,0,0-.63.1" fill="#f7f7f7"/>
              <path d="M18,6.93c-.27.1-.45.23-.36.45l-.06.08a1.55,1.55,0,0,1-.39.25l-.15,0-.11,0c-.07,0-.12.07-.06.11s.25,0,.38,0l.44-.07a.67.67,0,0,1,.38,0c.11,0,.06.1,0,.15l-.09.05a1,1,0,0,1-.39,0,1.25,1.25,0,0,0-.36,0c-.08,0-.08.09,0,.16a.87.87,0,0,0,.37.29c.09,0,.12.12,0,.17h0a.64.64,0,0,1-.47,0l-.36-.19a.47.47,0,0,0-.35-.07h-.06c-.08,0,0,.08,0,.12.14.27,0,.52-.3.75s-.37.21,0,.31c.11,0,.12.09,0,.14L16,9.84l-.16,0a.32.32,0,0,1-.26-.09c-.06,0,0-.12-.17-.15-.22.14-.16.32-.37.45s-.19.31-.17.48.09.13.3.15a2.21,2.21,0,0,1,1,.34l-.2,0a1.16,1.16,0,0,0-.32,0h0c-.07.06.08.09.15.13l.83.37a.53.53,0,0,0,.37,0l.09-.06.06,0c.07,0,.14,0,.2,0,.38.18.88.33.88.59,0,.07.11.09.26.07l.08,0c.05,0,.05,0,0-.08L18.43,12c0-.13-.12-.27.16-.38l0,0a1.29,1.29,0,0,1,.83,0,.59.59,0,0,0,.32,0,.92.92,0,0,1,.58.06,2,2,0,0,0,.26.11.79.79,0,0,0,.41.07h.07c.11,0,0-.11,0-.15s0-.1,0-.12a.42.42,0,0,1,.21,0c.4.06.91,0,1.23.16l.17,0a1.52,1.52,0,0,1,.68.07.47.47,0,0,0,.31,0,.15.15,0,0,0,.09-.08c0-.14.27-.2.49-.29,0,.14,0,.21.47.18a4.35,4.35,0,0,0,1.06-.17l.27,0a3.05,3.05,0,0,0,1.05,0,3.6,3.6,0,0,0,.82-.16,1.17,1.17,0,0,0,.67-.53c.13-.23-.36-.32-.64-.45a1.16,1.16,0,0,0-.8,0,.42.42,0,0,0-.17.11l0,.07h.17c.57-.06,1.05.11.94.35a.69.69,0,0,1-.42.28l-.21.07-.24.09-.16.06h0a.48.48,0,0,1-.33,0c-.09-.05,0-.1.05-.14l.57-.22h0c.19-.07.2-.13,0-.22a.66.66,0,0,0-.5,0h0l-.12,0a.67.67,0,0,1-.36.05,1.3,1.3,0,0,0-.59,0,.42.42,0,0,0-.24.19.22.22,0,0,1-.09.07.54.54,0,0,1-.36,0c-.08,0,0-.1-.23-.11,0,.12-.14.21-.33.27l-.3.1-.28.08a1,1,0,0,0-.3.17h-.21l0-.09a2.18,2.18,0,0,0,.25-.28c.06-.11-.08-.18-.34-.2a.39.39,0,0,0-.18,0c-.07,0-.07.07-.06.12s0,.13-.14.17l-.09,0a7.91,7.91,0,0,1-.87.13c-.22,0-.38,0-.31-.13s.15-.14-.09-.17a.47.47,0,0,0-.22,0,.2.2,0,0,0-.12.12.12.12,0,0,1-.09.11,1,1,0,0,1-.42,0,3.42,3.42,0,0,0-1.43,0,1,1,0,0,1-.83-.08,5.94,5.94,0,0,0-1-.5c-.44-.14-.75-.34-1.18-.48-.11,0-.24-.1-.11-.17l.05,0a.48.48,0,0,1,.33,0,1,1,0,0,0,.57,0h0c.19-.07,0-.13-.12-.19s-.06-.09,0-.14a.48.48,0,0,1,.29-.21,1.6,1.6,0,0,1,.3-.08l.15,0c.07,0,.07-.06-.11-.11s-.16-.08-.07-.11l.14,0a2.15,2.15,0,0,1,.51,0c0-.18-.39-.14-.64-.14a1,1,0,0,0-.27,0c-.09,0-.13.09-.11.16s0,.12-.14.16l-.28.06a.37.37,0,0,1-.35-.13c-.13-.12.09-.22.24-.31l.19-.09a.82.82,0,0,1,.43,0,.86.86,0,0,0,.36,0l.09-.07a.09.09,0,0,1,.05,0,1.18,1.18,0,0,1,.21,0l.2,0c.08,0,.09-.08.05-.13s-.06-.28.21-.38l.15-.05.11,0c.14-.05.16-.11-.11-.16s-.18-.09-.09-.12l.1,0a2.73,2.73,0,0,1,.41,0,.65.65,0,0,0,.16,0s.06,0,0,0-.12-.07-.24-.07h-.23c-.16,0-.25,0-.23-.09l.05,0,.19,0a2.47,2.47,0,0,0,.75-.09.45.45,0,0,0,.32-.31A.13.13,0,0,1,20,7a.38.38,0,0,1,.2,0c.2,0,.24.07.2.14l-.06.07.08.08.16,0c0-.15.42-.26.26-.43s0-.08.08-.11l.14,0a.53.53,0,0,1,.34,0c.14.06,0,.11-.06.16l-.12.1c0,.07-.06.16.11.19a.25.25,0,0,0,.15,0c.06,0,.09-.06.16-.09h0a2.28,2.28,0,0,1,1.22,0,1.86,1.86,0,0,0,.94,0,.56.56,0,0,0,.19-.11.36.36,0,0,1,.17-.15.32.32,0,0,1,.18,0c.26,0,.14.11.12.17s0,.08.1.1l.14,0,.07,0c.07-.07.09-.14.23-.19h0l.2,0,.08.08c0,.07-.05.14.2.13l.12,0c.08,0,0-.08,0-.13s-.07-.1,0-.14h0a.59.59,0,0,1,.42,0l.12.06a.66.66,0,0,0,.44.07l.07,0c.07,0,.11-.06.09-.09s-.23,0-.34-.06-.3-.06-.25-.14l.07,0a.9.9,0,0,1,.73.11,2.18,2.18,0,0,0,1.69.11l.13-.06.09,0a.58.58,0,0,1,.33,0h.18s0,0,0,0-.05-.09-.18-.09-.34,0-.43,0-.43-.22-.62-.34a2.11,2.11,0,0,0-1.57-.09,1,1,0,0,0-.21.1,3.29,3.29,0,0,0,.9-.05.59.59,0,0,1,.38,0c.06.06,0,.11-.07.16l0,0a.61.61,0,0,1-.3,0,8.83,8.83,0,0,0-1.15,0c-.22,0-.41.18-.62,0s0-.08,0-.1l.16,0L26,6,26,6a1,1,0,0,0-.57,0,.51.51,0,0,0-.27.24c0,.05-.05.11-.12.13a.32.32,0,0,1-.15,0c-.22,0-.19-.1-.22-.17s0-.12-.14-.12h-.09c-.06,0-.05.08-.08.11s-.09.29-.36.39l-.11,0c-.11,0-.22.1-.36,0s0-.1.09-.14l0,0,.11,0,.1,0c.07,0,.11-.06.07-.1s-.38,0-.58-.07h-.1c-.21,0-.44-.13-.62-.07l-.07,0c-.17.13.27.16.42.24s.4.14.17.24l0,0a1,1,0,0,1-.59-.05,2,2,0,0,0-.95-.15c-.24,0-.4,0-.49-.08a.24.24,0,0,0-.25,0l-.06,0-.14.07a1.68,1.68,0,0,1-.58.07,2.82,2.82,0,0,0-.93,0,.55.55,0,0,0-.15.08h0c-.34.09-.73.16-1,.26" fill="#f7f7f7"/>
              <path d="M19.11,11.83c-.1,0-.17.09-.17.16l0,.1s-.12.09,0,.11a.2.2,0,0,0,.11,0c.05,0,0-.06.05-.08a.09.09,0,0,1,.06-.06.85.85,0,0,1,.25,0,3.41,3.41,0,0,1,.58.07.5.5,0,0,0,.27,0l0,0c.06,0,0-.08-.07-.12L20,11.89a.87.87,0,0,0-.62-.13,1.77,1.77,0,0,0-.29.07" fill="#f7f7f7"/>
              <path d="M29,6.69h0c-.2.11-.22.25-.32.37l.1.06.17,0a1.26,1.26,0,0,1,.37-.26c.07,0,.08-.08,0-.13a.48.48,0,0,0-.29,0" fill="#f7f7f7"/>
              <path d="M21.66,11.89s-.15,0-.07.08a.8.8,0,0,0,.46,0h0c.07,0,.05-.07,0-.09a.61.61,0,0,0-.4,0" fill="#f7f7f7"/>
              <path d="M16.51,8.13c-.1,0-.11.08-.05.13a.38.38,0,0,0,.26,0l0,0c.09,0,.11-.07,0-.12a.56.56,0,0,0-.29,0h0" fill="#f7f7f7"/>
              <path d="M22.36,11c-.09,0-.13.09-.06.14a.28.28,0,0,0,.22,0h0c.1,0,.14-.09.08-.14a.3.3,0,0,0-.25,0" fill="#f7f7f7"/>
              <path d="M21.79,6.21c-.06,0,0,.06,0,.09a.37.37,0,0,0,.31,0h0c.07,0,.1,0,0-.09a.78.78,0,0,0-.34,0h0" fill="#f7f7f7"/>
              <path d="M20.75,12l-.14.07a.87.87,0,0,0,.48,0L21,12a.47.47,0,0,0-.29,0" fill="#f7f7f7"/>
              <path d="M27.49,9.94l0,.07a.43.43,0,0,0,.25,0l0-.07a.36.36,0,0,0-.25,0" fill="#f7f7f7"/>
              <path d="M28.54,11.06l-.05.09a.25.25,0,0,0,.19,0l0-.08-.17,0" fill="#f7f7f7"/>
              <path d="M17.8,6.57c-.06,0-.1.07,0,.09l.19,0c.06,0,.1,0,0-.08l-.21,0" fill="#f7f7f7"/>
              <path d="M15.11,10.81h0v.07a.27.27,0,0,0,.19,0c.06,0,0-.06,0-.08a.25.25,0,0,0-.17,0" fill="#f7f7f7"/>
              <path d="M24.19,11V11a.3.3,0,0,0,.19,0V11a.29.29,0,0,0-.19,0" fill="#f7f7f7"/>
              <polyline points="27.78 11.38 27.77 11.45 27.92 11.47 27.94 11.4 27.78 11.38" fill="#f7f7f7"/>
            </g>
          </g>
        </g>
      </g>
      <g>
        <polygon points="48.74 10.53 48.58 40.82 24.04 49.76 24.2 19.46 48.74 10.53" fill="#e87539"/>
        <g style="isolation: isolate">
          <g clip-path="url(#clip-path-3)">
            <g>
              <path d="M36,34.72l-.06-.11.09-.13.06.1-.09.14m.8-.35c-.07,0-.1,0-.09-.11l.13-.15.08.09-.12.17m.88-2.81c-.08,0-.12,0-.12-.12l.09-.13c.08,0,.12,0,.13.12l-.1.13m-5.48,1.8h0c-.12,0-.27,0-.28-.15s.1-.11.15-.15.23,0,.25.1a.2.2,0,0,1-.09.2m2.39-1c-.07,0-.08-.06-.08-.13l.08-.14c.07,0,.08,0,.08.11l-.08.16m-3.06.77c-.15.05-.21,0-.25-.2a1,1,0,0,1,.16-.1c.08,0,.13,0,.16.11l-.07.19m1.91-1.33c-.07,0-.12,0-.1-.13a.34.34,0,0,1,.2-.26c.08,0,.14,0,.13.12a.37.37,0,0,1-.22.26h0m-3.23.84s-.05,0-.07,0,.08-.17.14-.25l.13-.19a.56.56,0,0,1,.3-.28.49.49,0,0,1,.24,0c.22,0,.19.29.18.51v.27a.34.34,0,0,1-.11.28h0c-.09,0-.11-.05-.14-.13a.75.75,0,0,0-.24-.37c-.06,0-.11-.07-.17,0a.2.2,0,0,0-.1.09.56.56,0,0,1-.13.16M42,25.86l-.15,0v-.16a3.83,3.83,0,0,1,.63-.64l0,0c.08,0,.14,0,.15.12a.31.31,0,0,1-.16.27,2.13,2.13,0,0,0-.52.4M29.69,28.41c-.07,0-.08-.05-.07-.13l.08-.14h0c.06,0,.07,0,.07.11a.18.18,0,0,1-.1.17m4-2.46a1.15,1.15,0,0,0,.32-.28c.69-.72,1.36-1.47,2-2.2a1.25,1.25,0,0,1,.38-.3.39.39,0,0,1,.24,0c.4.16.83.26,1.22.45a.92.92,0,0,1,.28.05c.74.3,1.49.53,2.24.8s.7,0,.7,1.23v.51c0,.25,0,.36-.08.39a.55.55,0,0,1-.24-.05c-1.15-.38-2.27-.81-3.42-1.16a2.08,2.08,0,0,0-.43-.19.67.67,0,0,0-.52,0,.71.71,0,0,0-.23.14A10.85,10.85,0,0,0,34.65,27c0,.89,0,1.75,0,2.62,0,.22.08.31.21.26a.61.61,0,0,0,.2-.13,10.39,10.39,0,0,0,.91-1,1.06,1.06,0,0,1,.43-.32.69.69,0,0,1,.47,0,13.9,13.9,0,0,0,2.24.8c.56.18,1.11.39,1.67.59.24.07.35.25.33.6s0,.8,0,1.2a1.18,1.18,0,0,1-.36.89c-1.29,1.41-2.62,2.78-3.9,4.21a1.25,1.25,0,0,1-.46.34.66.66,0,0,1-.53,0,18.72,18.72,0,0,0-1.92-.63c-.22-.08-.43-.15-.63-.24a6.51,6.51,0,0,1-1.52-.63c-.18,0-.23-.2-.23-.44,0-.47,0-1,0-1.41a.49.49,0,0,0-.05-.25.66.66,0,0,1,.29.24c.81.27,1.62.55,2.42.85a.92.92,0,0,1,.63.21,2.08,2.08,0,0,1,.75.32,1.06,1.06,0,0,1,.4.08.47.47,0,0,0,.35,0,1,1,0,0,0,.31-.21A17.87,17.87,0,0,0,38,33.55a.73.73,0,0,0,.21-.45,15.73,15.73,0,0,0,0-2.38c0-.2-.09-.3-.23-.25l-.12.07a10.15,10.15,0,0,0-1.13,1.14.8.8,0,0,1-.33.23.4.4,0,0,1-.32,0c-.24-.11-.5-.17-.74-.26-.49-.19-1-.31-1.5-.49A16.72,16.72,0,0,0,32,30.47a.55.55,0,0,1-.34-.6V28.68a1.13,1.13,0,0,1,.35-.85c.43-.46.87-.91,1.29-1.39a.61.61,0,0,0,.24-.5.2.2,0,0,0,.17,0m5.48-4.51h0c-.1,0-.18,0-.16-.14s0-.17.1-.19h0c.1,0,.15.05.18.15a.18.18,0,0,1-.12.18m-5.37,2h0c-.08,0-.14,0-.13-.13A.29.29,0,0,1,33.8,23h0c.08,0,.14,0,.14.14a.31.31,0,0,1-.17.24m.88-1a2.32,2.32,0,0,0,.54-.38l.12-.13a1.32,1.32,0,0,1,.76-.81A3.66,3.66,0,0,1,37,21h0a.77.77,0,0,1,.19-.11c.25-.09.39.15.56.28a.41.41,0,0,0,.41.09l.16-.09.07,0c.09,0,.14,0,.09.19s0,.33.18.36.27.42.33.71.07.4.27.33h0c.25-.12.17-.37.2-.58s-.17-.48.07-.68a.2.2,0,0,1,.09-.05c.18-.07.13.33.26.38l.05.05c.09.12.31.13.24.38a.3.3,0,0,1-.17.19l-.09,0-.11,0h0c-.11.06-.24.11-.23.28s.15.07.25.05l.1,0c.27-.1.45-.43.67-.67.06-.06.12-.17.18-.2a.07.07,0,0,1,.06,0c.1.07,0,.2-.07.31s-.2.33-.08.44a.1.1,0,0,0,.1,0c.08,0,.15-.15.23-.24a1.4,1.4,0,0,1,.45-.4c.14-.05.22,0,.29.27a.24.24,0,0,1-.09.06h-.13a.27.27,0,0,0-.13,0c-.06,0-.11.07-.12.2-.07.39.27.06.38.17s.49.21.62.49c0,.07.06.17.16.13h0a.55.55,0,0,0,.23-.32c0-.18-.07-.21-.16-.24s-.44,0-.56-.25a1.15,1.15,0,0,1,.24-.13c.48-.17.82.18.75.83,0,.33,0,.63-.07,1s.11.19.19.26.07.15,0,.25a.22.22,0,0,1-.07.07.1.1,0,0,1-.11-.06.15.15,0,0,0-.21-.09l-.1.05-.13.06c-.54.19-.89-.18-.8-.91,0-.18.05-.37,0-.47a.2.2,0,0,0-.21-.07.26.26,0,0,0-.1.07.32.32,0,0,0,0,.38c0,.1.2.1.11.28a.31.31,0,0,1-.15.15h-.07c-.16,0-.15-.18-.15-.33v-.16c0-.16,0-.3-.17-.27h0c-.1,0-.15.16-.19.29s-.07.24-.15.27a.1.1,0,0,1-.09,0c-.16-.07,0-.22,0-.34l.05-.2-.15,0h0c-.14.05-.24.2-.36.31l-.1.06a.08.08,0,0,1-.09,0c-.05-.08,0-.16.06-.24s.27-.28.15-.42a.13.13,0,0,0-.13,0,1.26,1.26,0,0,0-.28.25.65.65,0,0,1-.23.15.42.42,0,0,1-.58-.27.53.53,0,0,0-.73-.41h0c-.06,0-.13.1-.19.12s-.07,0-.09-.05.08-.32.18-.45l.19-.17a.34.34,0,0,0,.24-.31c0-.13,0-.22-.15-.21l-.13,0a.3.3,0,0,0-.18.2c-.12.42-.48.47-.67.8l-.14,0,.06-.21.12-.12c.11-.14.16-.28.06-.39a.14.14,0,0,0-.13,0,.36.36,0,0,0-.17.16,1.27,1.27,0,0,1-.56.52.54.54,0,0,1-.53-.11s-.08-.05-.12,0a.16.16,0,0,0-.09.08.19.19,0,0,0,0,.29l.14.08a.17.17,0,0,1,0,.24.18.18,0,0,1-.09.1.25.25,0,0,1-.12,0c-.09,0-.17-.11-.27-.1l-.1,0c-.08,0-.15.11-.09.29s0,.35-.14.4l-.1,0a.58.58,0,0,0-.14,0,1.12,1.12,0,0,0-.58.71A.42.42,0,0,1,34,25a.13.13,0,0,1-.14,0,.15.15,0,0,0-.14,0,.18.18,0,0,0-.08.05.27.27,0,0,1-.13.1c-.08,0-.14,0-.2-.14a.19.19,0,0,0-.27-.1l-.22.11c-.19.13-.43.24-.52.56,0,.15-.1.38,0,.41a.93.93,0,0,0,.23,0,.54.54,0,0,0,.28-.28.5.5,0,0,1,.25-.28.21.21,0,0,1,.2,0c.14.1.37.16.17.55-.09-.08-.15-.2-.28-.2l-.12,0c-.09,0-.14.11-.1.27s0,.24-.07.27H32.8a.52.52,0,0,0-.25,0,1,1,0,0,0-.43.34A.45.45,0,0,0,32,27c0,.16,0,.37-.16.44h0a.24.24,0,0,1-.32-.22c0-.13,0-.26-.14-.22l-.05,0a.36.36,0,0,0-.14.39c.05.49,0,1,.05,1.51a7.35,7.35,0,0,1-.07,1.47c0,.36.06.57.37.49.46-.11.54.38.74.67.07.12.13.21.22.18a.51.51,0,0,0,.19-.2c.06-.08.14-.19.22-.21a.11.11,0,0,1,.14.05c.1.15-.06.27-.16.39s-.14.37,0,.41a1.94,1.94,0,0,0,.64.07h.08a.59.59,0,0,0,.28-.3.62.62,0,0,1,.18-.24s.08,0,.12.06a.41.41,0,0,1,0,.54c-.16.18-.33.33-.49.5l-.09.19.13.07a1.13,1.13,0,0,1,.37-.23l.26-.07a1.29,1.29,0,0,0,.28-.08.89.89,0,0,0,.52-.44c.1.1,0,.23,0,.33s0,.28.14.24a.38.38,0,0,0,.14-.11,1,1,0,0,1,.36-.3c.13-.05.25,0,.36.19s.16.07.26,0l.12,0h0c.17-.06.25,0,.26.23a.43.43,0,0,1-.27.46h0l-.59.25a.3.3,0,0,0-.19.27c0,.13.07.22.14.19h0l.17-.07.23-.08.21-.07A1.14,1.14,0,0,0,37,33.3c.36-.46.31-1-.08-1.13l-.08-.09.08-.16a.72.72,0,0,1,.22-.15c.23-.08.43.05.42.36s.15.78-.21,1.22a2.57,2.57,0,0,1-1,.84,1.06,1.06,0,0,1-.66,0c-.22-.07-.5,0-.62-.34l-.17-.08a1.07,1.07,0,0,1-.79-.06c-.32-.14-.19-.27,0-.57-.23.1-.44.12-.62.39a.34.34,0,0,1-.16.14c-.08,0-.15,0-.16-.13a.42.42,0,0,0-.28-.44L32.75,33c0-.52-.35-.53-.5-.82,0-.08-.08-.1-.11-.08s-.13.13-.17.23-.07.28-.18.32h-.06c-.12,0-.12-.19-.14-.32s0-.23,0-.34-.06-.36-.25-.35-.17,0-.19-.1c-.08-.32-.26-.33-.51-.24l0,0c-.3.12-.4.46-.56.73l-.05.18a.27.27,0,0,1-.11.18H29.8c-.1,0-.14-.1-.06-.25a2.87,2.87,0,0,0,.25-1.6c0-.09,0-.2,0-.18l-.09.06a.27.27,0,0,1-.13.1c-.11,0-.13-.11-.13-.26,0-.37,0-.75,0-1.12,0-.1,0-.24.07-.33l0,0c.08,0,.1.11.15.16L30,29c0-.42.12-.86-.12-1.13-.1-.11-.06-.28,0-.44a2.48,2.48,0,0,1,.68-.94c.27-.19.46-.59.76-.79.07.13-.07.25-.09.38s-.07.24,0,.3a.12.12,0,0,0,.13,0,.27.27,0,0,0,.1-.06.34.34,0,0,0,.15-.31c-.08-.38.13-.47.37-.66a3.59,3.59,0,0,0,1.09-1.47c0-.09,0-.22.14-.25h0c.12,0,.12.14.11.28s0,.38,0,.57.1.25.25.2h0a.39.39,0,0,0,.21-.35,2.79,2.79,0,0,1,.16-.75c.06-.19.13-.31.2-.33s.14,0,.22.11.14.15.24.11a.27.27,0,0,0,.1-.06.4.4,0,0,0,.2-.32c0-.15-.05-.22-.16-.23a1.75,1.75,0,0,1-.33,0c-.08,0-.22,0-.18-.19a.23.23,0,0,1,.16-.2.2.2,0,0,1,.1,0l.13,0m1.79-1.94-.14,0a.2.2,0,0,1,.12-.2l.13.06a.17.17,0,0,1-.11.16m0-.57a.47.47,0,0,0-.18.12,6.49,6.49,0,0,0-1.15,1.38l-.17.21c-1.53,1.64-3.07,3.28-4.6,4.93a4.06,4.06,0,0,0-.82,1c-.13,1.57-.16,3.11-.19,4.65,0,.5.17.74.5.85a5.64,5.64,0,0,0,1.07.29c.13,0,.27.06.41.09a.58.58,0,0,0-.19.13c-.08.06-.14.15-.22.21a14.78,14.78,0,0,1-1,1.07A1.44,1.44,0,0,0,29.33,36c0,.41,0,.83,0,1.24,0,.56.15,1,.6,1a4.14,4.14,0,0,0,.82.33c1.13.41,2.28.76,3.39,1.2a.39.39,0,0,1,.38.14.66.66,0,0,0,.45.23,3.07,3.07,0,0,1,1,.23.67.67,0,0,0,.42,0,1,1,0,0,0,.39-.29c2.1-2.21,4.16-4.47,6.25-6.69a1.09,1.09,0,0,0,.37-.85c0-1.13.09-2.26.08-3.38a2.91,2.91,0,0,1,0-.93.8.8,0,0,0-.56-.95c-.3-.1-.58-.23-.89-.32s-.29-.19,0-.51.69-.77,1-1.13a1.09,1.09,0,0,0,.35-.58,13.6,13.6,0,0,0-.06-2.48c-.2-.23-.51-.24-.77-.34-.85-.34-1.75-.59-2.6-.94a11.11,11.11,0,0,1-1.11-.37c-.65-.22-1.28-.48-1.94-.68a.66.66,0,0,0-.46-.05" fill="#f7f7f7"/>
              <path d="M36.09,21.09a1.32,1.32,0,0,0-.76.81l-.12.13a2.32,2.32,0,0,1-.54.38l-.13,0a.2.2,0,0,0-.1,0,.23.23,0,0,0-.16.2c0,.17.1.17.18.19a1.75,1.75,0,0,0,.33,0c.11,0,.16.08.16.23a.4.4,0,0,1-.2.32.27.27,0,0,1-.1.06c-.1,0-.17,0-.24-.11s-.15-.14-.22-.11-.14.14-.2.33a2.79,2.79,0,0,0-.16.75.39.39,0,0,1-.21.35h0c-.15.05-.25,0-.25-.2s0-.38,0-.57,0-.27-.11-.28h0c-.09,0-.1.16-.14.25A3.59,3.59,0,0,1,32,25.39c-.24.19-.45.28-.37.66a.34.34,0,0,1-.15.31.27.27,0,0,1-.1.06.12.12,0,0,1-.13,0c-.09-.06,0-.19,0-.3s.16-.25.09-.38c-.3.2-.49.6-.76.79a2.48,2.48,0,0,0-.68.94c-.09.16-.13.33,0,.44.24.27.11.71.12,1.13l-.14,0c-.05,0-.07-.19-.15-.16l0,0c-.1.09-.07.23-.07.33,0,.37,0,.75,0,1.12,0,.15,0,.3.13.26a.27.27,0,0,0,.13-.1l.09-.06c.07,0,0,.09,0,.18a2.87,2.87,0,0,1-.25,1.6c-.08.15,0,.23.06.25h.07a.27.27,0,0,0,.11-.18l.05-.18c.16-.27.26-.61.56-.73l0,0c.25-.09.43-.08.51.24,0,.1.11.1.19.1s.25.14.25.35,0,.23,0,.34,0,.31.14.32h.06c.11,0,.12-.21.18-.32s.1-.21.17-.23.07,0,.11.08c.15.29.55.3.5.82l.06.11a.42.42,0,0,1,.28.44c0,.11.08.16.16.13a.34.34,0,0,0,.16-.14c.18-.27.39-.29.62-.39-.15.3-.28.43,0,.57a1.07,1.07,0,0,0,.79.06l.17.08c.12.3.4.27.62.34a1.06,1.06,0,0,0,.66,0,2.57,2.57,0,0,0,1-.84c.36-.44.2-.83.21-1.22s-.19-.44-.42-.36a.72.72,0,0,0-.22.15l-.08.16.08.09c.39.1.44.67.08,1.13a1.14,1.14,0,0,1-.57.42l-.21.07-.23.08-.17.07h0c-.07,0-.15-.06-.14-.19a.3.3,0,0,1,.19-.27l.59-.25h0a.43.43,0,0,0,.27-.46c0-.22-.09-.29-.26-.23h0l-.12,0c-.1,0-.2.06-.26,0s-.23-.24-.36-.19a1,1,0,0,0-.36.3.38.38,0,0,1-.14.11c-.09,0-.13-.07-.14-.24s.11-.23,0-.33a.89.89,0,0,1-.52.44,1.29,1.29,0,0,1-.28.08l-.26.07a1.13,1.13,0,0,0-.37.23L33.51,33l.09-.19c.16-.17.33-.32.49-.5a.41.41,0,0,0,0-.54c0-.06-.08-.07-.12-.06a.62.62,0,0,0-.18.24.59.59,0,0,1-.28.3h-.08a1.94,1.94,0,0,1-.64-.07c-.15,0-.18-.2,0-.41s.26-.24.16-.39a.11.11,0,0,0-.14-.05c-.08,0-.16.13-.22.21a.51.51,0,0,1-.19.2c-.09,0-.15-.06-.22-.18-.2-.29-.28-.78-.74-.67-.31.08-.4-.13-.37-.49a7.35,7.35,0,0,0,.07-1.47c-.07-.49,0-1-.05-1.51a.36.36,0,0,1,.14-.39l.05,0c.12,0,.12.09.14.22a.24.24,0,0,0,.32.22h0c.19-.07.14-.28.16-.44a.45.45,0,0,1,.16-.31,1,1,0,0,1,.43-.34.52.52,0,0,1,.25,0h.13c.07,0,.11-.1.07-.27s0-.24.1-.27l.12,0c.13,0,.19.12.28.2.2-.39,0-.45-.17-.55a.21.21,0,0,0-.2,0,.5.5,0,0,0-.25.28.54.54,0,0,1-.28.28.93.93,0,0,1-.23,0c-.14,0-.08-.26,0-.41.09-.32.33-.43.52-.56l.22-.11a.19.19,0,0,1,.27.1c.06.11.12.17.2.14a.27.27,0,0,0,.13-.1.18.18,0,0,1,.08-.05.15.15,0,0,1,.14,0A.13.13,0,0,0,34,25a.42.42,0,0,0,.19-.26A1.12,1.12,0,0,1,34.8,24a.58.58,0,0,1,.14,0l.1,0c.14,0,.23-.18.14-.4s0-.25.09-.29l.1,0c.1,0,.18.06.27.1a.25.25,0,0,0,.12,0,.18.18,0,0,0,.09-.1.17.17,0,0,0,0-.24L35.67,23a.19.19,0,0,1,0-.29.16.16,0,0,1,.09-.08s.08,0,.12,0a.54.54,0,0,0,.53.11,1.27,1.27,0,0,0,.56-.52.36.36,0,0,1,.17-.16.14.14,0,0,1,.13,0c.1.11.05.25-.06.39l-.12.12-.06.21.14,0c.19-.33.55-.38.67-.8a.3.3,0,0,1,.18-.2l.13,0c.11,0,.15.08.15.21a.34.34,0,0,1-.24.31l-.19.17c-.1.13-.22.3-.18.45s0,.07.09.05.13-.1.19-.12h0a.53.53,0,0,1,.73.41.42.42,0,0,0,.58.27.65.65,0,0,0,.23-.15,1.26,1.26,0,0,1,.28-.25.13.13,0,0,1,.13,0c.12.14-.06.29-.15.42s-.11.16-.06.24a.08.08,0,0,0,.09,0l.1-.06c.12-.11.22-.26.36-.31h0l.15,0-.05.2c-.1.12-.21.27,0,.34a.1.1,0,0,0,.09,0c.08,0,.11-.16.15-.27s.09-.25.19-.29h0c.14,0,.16.11.17.27v.16c0,.15,0,.34.15.33h.07a.31.31,0,0,0,.15-.15c.09-.18-.07-.18-.11-.28a.32.32,0,0,1,0-.38.26.26,0,0,1,.1-.07.2.2,0,0,1,.21.07c.1.1.07.29,0,.47-.09.73.26,1.1.8.91l.13-.06.1-.05a.15.15,0,0,1,.21.09.1.1,0,0,0,.11.06.22.22,0,0,0,.07-.07c.08-.1.07-.2,0-.25s-.23-.07-.19-.26,0-.64.07-1c.07-.65-.27-1-.75-.83a1.15,1.15,0,0,0-.24.13c.12.26.38.18.56.25s.19.06.16.24a.55.55,0,0,1-.23.32h0c-.1,0-.12-.06-.16-.13-.13-.28-.42-.31-.62-.49s-.45.22-.38-.17c0-.13.06-.18.12-.2a.27.27,0,0,1,.13,0h.13a.24.24,0,0,0,.09-.06c-.07-.23-.15-.32-.29-.27a1.4,1.4,0,0,0-.45.4c-.08.09-.15.21-.23.24a.1.1,0,0,1-.1,0c-.12-.11,0-.29.08-.44s.17-.24.07-.31a.07.07,0,0,0-.06,0c-.06,0-.12.14-.18.2-.22.24-.4.57-.67.67l-.1,0c-.1,0-.24.12-.25-.05s.12-.22.23-.28h0l.11,0,.09,0a.3.3,0,0,0,.17-.19c.07-.25-.15-.26-.24-.38l-.05-.05c-.13,0-.08-.45-.26-.38a.2.2,0,0,0-.09.05c-.24.2,0,.44-.07.68s.05.46-.2.58h0c-.2.07-.22-.15-.27-.33s0-.67-.33-.71-.29-.06-.18-.36,0-.22-.09-.19l-.07,0-.16.09a.41.41,0,0,1-.41-.09c-.17-.13-.31-.37-.56-.28A.77.77,0,0,0,37,21h0a3.66,3.66,0,0,0-.87.13" fill="#f7f7f7"/>
              <path d="M30.67,31.9a.56.56,0,0,0-.3.28l-.13.19c-.06.08-.19.16-.14.25s0,.05.07,0a.56.56,0,0,0,.13-.16.2.2,0,0,1,.1-.09c.06,0,.11,0,.17,0a.75.75,0,0,1,.24.37c0,.08.05.16.14.13h0a.34.34,0,0,0,.11-.28v-.27c0-.22,0-.49-.18-.51a.49.49,0,0,0-.24,0" fill="#f7f7f7"/>
              <path d="M42.48,25.07l0,0a3.83,3.83,0,0,0-.63.64v.16l.15,0a2.13,2.13,0,0,1,.52-.4.31.31,0,0,0,.16-.27c0-.1-.07-.15-.15-.12" fill="#f7f7f7"/>
              <path d="M32,33.06c-.05,0-.16,0-.15.15s.16.16.28.15h0a.2.2,0,0,0,.09-.2c0-.14-.13-.13-.25-.1" fill="#f7f7f7"/>
              <path d="M33.8,23a.29.29,0,0,0-.18.25c0,.11.05.14.13.13h0a.31.31,0,0,0,.17-.24c0-.11-.06-.15-.14-.14h0" fill="#f7f7f7"/>
              <path d="M33.5,31.43a.34.34,0,0,0-.2.26c0,.1,0,.15.1.13h0a.37.37,0,0,0,.22-.26c0-.11-.05-.14-.13-.12" fill="#f7f7f7"/>
              <path d="M39.07,21.12c-.06,0-.09.11-.1.19s.06.17.16.14h0a.18.18,0,0,0,.12-.18c0-.1-.08-.16-.18-.15h0" fill="#f7f7f7"/>
              <path d="M31.4,32.85a1,1,0,0,0-.16.1c0,.15.1.25.25.2l.07-.19c0-.12-.08-.14-.16-.11" fill="#f7f7f7"/>
              <path d="M37.61,31.31l-.09.13c0,.1,0,.15.12.12l.1-.13c0-.1-.05-.14-.13-.12" fill="#f7f7f7"/>
              <path d="M36.8,34.11l-.13.15c0,.09,0,.14.09.11l.12-.17-.08-.09" fill="#f7f7f7"/>
              <path d="M36.44,20.25a.2.2,0,0,0-.12.2l.14,0a.17.17,0,0,0,.11-.16l-.13-.06" fill="#f7f7f7"/>
              <path d="M29.72,28.13h0l-.08.14c0,.08,0,.14.07.13a.18.18,0,0,0,.1-.17c0-.07,0-.13-.07-.11" fill="#f7f7f7"/>
              <path d="M34.55,32.11l-.08.14c0,.07,0,.14.08.13l.08-.16c0-.06,0-.13-.08-.11" fill="#f7f7f7"/>
              <polyline points="35.98 34.48 35.9 34.61 35.96 34.72 36.05 34.58 35.98 34.48" fill="#f7f7f7"/>
            </g>
          </g>
        </g>
      </g>
    </g>
  </g>
</svg>
