<svg id="Capa_1" data-name="Capa 1" xmlns="http://www.w3.org/2000/svg" xmlns:xlink="http://www.w3.org/1999/xlink" width="50" height="50" viewBox="0 0 50 50">
  <defs>
    <clipPath id="clip-path">
      <polygon points="24.04 49.77 1.25 39.48 1.41 9.17 24.2 19.46 24.04 49.77" fill="none"/>
    </clipPath>
    <clipPath id="clip-path-2">
      <polygon points="24.2 19.46 1.41 9.17 25.96 0.24 48.74 10.53 24.2 19.46" fill="none"/>
    </clipPath>
    <clipPath id="clip-path-3">
      <polygon points="48.74 10.53 48.59 40.83 24.04 49.77 24.2 19.46 48.74 10.53" fill="none"/>
    </clipPath>
  </defs>
  <g id="Figment_lido">
    <g style="isolation: isolate">
      <g>
        <polygon points="24.04 49.77 1.25 39.48 1.41 9.17 24.2 19.46 24.04 49.77" fill="#566dd6"/>
        <g style="isolation: isolate">
          <g clip-path="url(#clip-path)">
            <g>
              <path d="M11.21,21l-.34-.12c-.26,0-.34.22-.25.61.05.22.14.42.21.63.63,1.93,1.28,3.86,1.92,5.78.75,2.29,1.54,4.57,2.28,6.86,0,.09.07.18.1.27.4,1.25.83,2.48,1.23,3.72a1.92,1.92,0,0,0,.27.62l3.16,1.36c0-.05,0-.13,0-.2-.47-1.45-.95-2.89-1.44-4.33-.56-1.7-1.13-3.39-1.69-5.08-.19-.59-.4-1.18-.59-1.77s-.38-1.16-.58-1.73c-.27-.83-.57-1.66-.82-2.49l0-.08c-.23-.62-.4-1.25-.63-1.87a2.46,2.46,0,0,0-1.21-1.49l-.28-.12-.27-.12-.41-.18-.16-.06-.22-.1L11.21,21" fill="#fefefe"/>
              <path d="M11.29,26.54l-.08,0-.48-.2-.48-.21-.71-.31a.84.84,0,0,0-1,.34c-.24.42-.42.93-.65,1.37-.26.64-.54,1.24-.83,1.85s-.42,1-.64,1.46c-.31.71-.63,1.41-1,2.11-.16.41-.36.77-.52,1.18,0,.08-.09.13-.06.26l3.2,1.38a.38.38,0,0,0,.12-.18c.2-.5.43-.94.64-1.43.32-.74.66-1.46,1-2.2l1-2.2c.2-.46.4-.92.62-1.36.12-.27.25-.53.36-.8a.81.81,0,0,0-.38-1l-.11-.06" fill="#fefefe"/>
            </g>
          </g>
        </g>
      </g>
      <g>
        <polygon points="24.2 19.46 1.41 9.17 25.96 0.24 48.74 10.53 24.2 19.46" fill="#5e78eb"/>
        <g style="isolation: isolate">
          <g clip-path="url(#clip-path-2)">
            <g>
              <path d="M17,7.76l-.38.14c-.19.17-.1.27.27.36a6.32,6.32,0,0,0,.65.1q3,.48,6,.93c2.37.38,4.77.73,7.13,1.11l.29,0c1.27.21,2.58.4,3.86.6a3,3,0,0,0,.69.07l3.66-1.33s-.09,0-.16-.06L34.49,9,29.22,8.2l-1.85-.29c-.6-.09-1.2-.19-1.8-.27-.86-.14-1.74-.26-2.59-.41H22.9c-.66-.08-1.29-.2-1.95-.29a4.54,4.54,0,0,0-2.14.17l-.32.11-.32.12-.47.17-.19.07-.25.09-.28.1" fill="#fefefe"/>
              <path d="M21.25,9.64l-.09,0-.55.2-.56.21-.83.3c-.45.19-.65.43-.59.7s.37.56.51.85.5.75.73,1.12.4.59.57.88.56.86.83,1.29c.19.23.29.48.46.71,0,0,0,.1.16.12l3.71-1.34a.19.19,0,0,0,0-.14c-.22-.28-.36-.57-.57-.86-.29-.44-.56-.89-.86-1.33s-.57-.9-.86-1.34c-.18-.28-.36-.56-.52-.84s-.2-.32-.32-.48a1.06,1.06,0,0,0-1.05-.13l-.13.05" fill="#fefefe"/>
            </g>
          </g>
        </g>
      </g>
      <g>
        <polygon points="48.74 10.53 48.59 40.83 24.04 49.77 24.2 19.46 48.74 10.53" fill="#607af0"/>
        <g style="isolation: isolate">
          <g clip-path="url(#clip-path-3)">
            <g>
              <path d="M35.76,22.37l-.36.15a.72.72,0,0,0-.28.8,3,3,0,0,0,.22.44q1,2.05,2,4.08c.77,1.63,1.6,3.21,2.37,4.85a.78.78,0,0,1,.11.18c.41.89.87,1.74,1.28,2.62.08.16.14.33.28.4l3.39-1.24c0-.08,0-.13,0-.18-.49-1-1-2-1.5-3.06-.59-1.19-1.18-2.39-1.76-3.58-.2-.42-.42-.83-.62-1.25s-.4-.82-.61-1.22c-.28-.59-.59-1.15-.85-1.76l0-.06c-.24-.41-.42-.88-.66-1.3a1,1,0,0,0-1.29-.48l-.29.1-.3.11-.44.16-.17.07-.23.08-.26.09" fill="#fefefe"/>
              <path d="M35.79,27.66l-.09,0-.51.19-.52.19-.77.28a2.42,2.42,0,0,0-1.1,1.15c-.27.61-.46,1.25-.71,1.86-.29.83-.6,1.65-.92,2.47q-.34,1-.72,2c-.34.94-.69,1.89-1.05,2.83-.17.53-.4,1-.57,1.57,0,.1-.1.2-.06.3l3.43-1.25a.84.84,0,0,0,.13-.27c.22-.64.48-1.26.7-1.9.36-1,.74-2,1.09-3l1.1-2.94c.22-.61.45-1.23.69-1.83.12-.36.27-.72.39-1.07s0-.75-.39-.65l-.12,0" fill="#fefefe"/>
            </g>
          </g>
        </g>
      </g>
    </g>
  </g>
</svg>
