<svg id="Capa_1" data-name="Capa 1" xmlns="http://www.w3.org/2000/svg" xmlns:xlink="http://www.w3.org/1999/xlink" width="50" height="50" viewBox="0 0 50 50">
  <defs>
    <clipPath id="clip-path">
      <polygon points="24.04 49.76 1.25 39.47 1.41 9.17 24.2 19.46 24.04 49.76" fill="none"/>
    </clipPath>
    <clipPath id="clip-path-2">
      <polygon points="24.2 19.46 1.41 9.17 25.96 0.24 48.75 10.53 24.2 19.46" fill="none"/>
    </clipPath>
    <clipPath id="clip-path-3">
      <polygon points="48.75 10.53 48.59 40.82 24.04 49.76 24.2 19.46 48.75 10.53" fill="none"/>
    </clipPath>
  </defs>
  <g id="Figment_lido">
    <g style="isolation: isolate">
      <g>
        <polygon points="24.04 49.76 1.25 39.47 1.41 9.17 24.2 19.46 24.04 49.76" fill="#133248"/>
        <g style="isolation: isolate">
          <g clip-path="url(#clip-path)">
            <path d="M18.34,22.23l-.26-.09c-2.39-.94-4.87-1.93-7.1-1.61a6.7,6.7,0,0,0-3.93,2.09,6.87,6.87,0,0,0-2,4.79,10.83,10.83,0,0,0,.1,1.39l.33.16c7.5,3.27,12.5-5.81,12.83-6-5,11.8-10.58,10.29-12.06,9.69a9.8,9.8,0,0,0,4.54,5,3.34,3.34,0,0,0,1.38.28,5.57,5.57,0,0,0,4-2,10,10,0,0,0,2.12-5.13l0-.12a41.64,41.64,0,0,0,.48-4.59c.05-.79.06-1.59.06-2.4a4.35,4.35,0,0,0,0-1.14.81.81,0,0,0-.41-.34" fill="#03c99a"/>
          </g>
        </g>
      </g>
      <g>
        <polygon points="24.2 19.46 1.41 9.17 25.96 0.24 48.75 10.53 24.2 19.46" fill="#15374f"/>
        <g style="isolation: isolate">
          <g clip-path="url(#clip-path-2)">
            <path d="M24.81,4.7l-.27.11c-2.54,1-5.18,2-6.67,3.32A3.93,3.93,0,0,0,16.32,11a2.8,2.8,0,0,0,1.89,2.69,10.53,10.53,0,0,0,1.08.4l.37-.12c8.19-3,5.49-8.69,5.63-8.93,4.67,6.6-.76,9.13-2.34,9.73a17.85,17.85,0,0,0,7.19-.8,5.19,5.19,0,0,0,1.27-.65A3.31,3.31,0,0,0,33,10.45c0-1-.84-2-2.06-2.85l-.08,0a27.06,27.06,0,0,0-2.95-1.77c-.54-.28-1.11-.56-1.7-.82a3.31,3.31,0,0,0-.85-.37,1.54,1.54,0,0,0-.55.11" fill="#03c99a"/>
          </g>
        </g>
      </g>
      <g>
        <polygon points="48.75 10.53 48.59 40.82 24.04 49.76 24.2 19.46 48.75 10.53" fill="#163851"/>
        <g style="isolation: isolate">
          <g clip-path="url(#clip-path-3)">
            <path d="M42.67,19.23l-.27.11A24.15,24.15,0,0,0,35,23.43a21.42,21.42,0,0,0-4.11,5.06c-1.06,1.82-2.15,4.1-2.16,6.11a8.12,8.12,0,0,0,.09,1.24l.34-.12C37,32.89,42.23,20.42,42.58,20,37.28,35,31.5,38,30,38.61a4,4,0,0,0,4.69,1.15,5.32,5.32,0,0,0,1.43-.82,17.4,17.4,0,0,0,4.14-5,19.65,19.65,0,0,0,2.25-6.5l0-.13A44.58,44.58,0,0,0,43,22.58c0-.77.08-1.54.08-2.3,0-.22.09-.92,0-1.05s-.25-.06-.41,0" fill="#03c99a"/>
          </g>
        </g>
      </g>
    </g>
  </g>
</svg>
