<svg id="Capa_1" data-name="Capa 1" xmlns="http://www.w3.org/2000/svg" xmlns:xlink="http://www.w3.org/1999/xlink" width="50" height="50" viewBox="0 0 50 50">
  <defs>
    <clipPath id="clip-path">
      <polygon points="24.04 49.76 1.25 39.47 1.41 9.18 24.2 19.47 24.04 49.76" fill="none"/>
    </clipPath>
    <clipPath id="clip-path-2">
      <polygon points="24.2 19.47 1.41 9.18 25.96 0.24 48.75 10.53 24.2 19.47" fill="none"/>
    </clipPath>
    <clipPath id="clip-path-3">
      <polygon points="48.75 10.53 48.59 40.83 24.04 49.76 24.2 19.47 48.75 10.53" fill="none"/>
    </clipPath>
  </defs>
  <g id="Figment_lido">
    <g style="isolation: isolate">
      <g>
        <polygon points="24.04 49.76 1.25 39.47 1.41 9.18 24.2 19.47 24.04 49.76" fill="#d6d6d6"/>
        <g style="isolation: isolate">
          <g clip-path="url(#clip-path)">
            <g>
              <path d="M10.84,39.14a9.25,9.25,0,0,0,1.86,1.13,6.53,6.53,0,0,0,1.48.48,7.76,7.76,0,0,1-1.43-.48l-.2-.1a10,10,0,0,1-1.71-1m-.29-5.33a.45.45,0,0,0,.23.2.45.45,0,0,1-.23-.2M7.69,31.49a.23.23,0,0,1,.12.1.23.23,0,0,0-.12-.1m3.17.72,0,0,0,0m-3-1.57c0-.3.15-.26.24-.26a12.2,12.2,0,0,1,3.43.49,1.14,1.14,0,0,1,.24.05c.08,0,.15.12.18.33,0,.45-.21.26-.38.2a14.15,14.15,0,0,0-3.47-.73.74.74,0,0,1-.24-.08m6.78-7.9c-.08,0-.16,0-.25.19-.34.65-.68,1.31-1,1.94-.07.13-.11.37-.28.29h0c-.18-.11-.16-.38-.25-.56s-.05-.7-.31-.82h0c-.26-.07-.21.4-.3.62A10.29,10.29,0,0,0,12,27.12c0,.89,0,1.58,0,2.28,0,.34-.06.5-.32.42a13.64,13.64,0,0,0-3.53-.46H8c-.06,0-.1-.1-.12-.27-.12-1,.18-1.75.77-1.84a1.05,1.05,0,0,1,.58.07,2.41,2.41,0,0,1,1,1.38c.1.24.19.33.29.37s.18,0,.29.08c.26.07.29-.13.28-.43A11.31,11.31,0,0,0,11,26c0-.19,0-.45-.23-.54h0c-.15-.07-.15.17-.2.29s-.07.34-.22.28h0c-.15-.06-.18-.28-.24-.45-.2-.58-.38-1.17-.59-1.75-.12-.35-.2-.53-.28-.57s-.16.08-.3.33-.44.81-.67,1.2c0,.11-.08.27-.22.22H8c-.15-.07-.17-.28-.23-.46s-.07-.41-.19-.47h0c-.17-.07-.18.19-.24.33a2.91,2.91,0,0,0-.14,1c0,1.2,0,2.38,0,3.58,0,.33-.07.47-.29.51a4.66,4.66,0,0,0-1.25.38.36.36,0,0,1-.29,0,.25.25,0,0,1-.1-.08c.14.57.3,1.13.49,1.68,0-.14.08-.21.28-.23a11.27,11.27,0,0,1,5.24.52l.38.14c.32.15.31.3.32,1,0,.48,0,1,0,1.43a.54.54,0,0,0,.34.6l.1,0,.09,0,.07,0c.18.08.33.1.32-.31,0-.57,0-1.12,0-1.69,0-.37.06-.48.3-.37l.08,0a18.76,18.76,0,0,1,2.93,2.11.73.73,0,0,1,.26.65c0,.27,0,.56,0,.83a.55.55,0,0,0,.32.61h0c.24.1.35,0,.35-.31s0-.52,0-.86a25.22,25.22,0,0,1,2.19,2.57,5.81,5.81,0,0,0,.4-.74h0c-.09,0-.23-.3-.34-.42a20.2,20.2,0,0,0-6-5l-.19-.11,0,0h0c-.16-.07-.24-.19-.24-.44s.09-.29.26-.21l.1,0A19.05,19.05,0,0,1,20,36.56a.6.6,0,0,1,.14.2,10,10,0,0,0,.46-2,.11.11,0,0,1-.17.06.88.88,0,0,1-.23-.16,28.41,28.41,0,0,0-5-3.57,4.54,4.54,0,0,0-.45-.21c-.47-.21-.94-.38-1.41-.56l-.08,0c-.21-.09-.28-.23-.24-.57.11-1,.67-1.6,1.44-1.41a1.34,1.34,0,0,1,.26.09,3.22,3.22,0,0,1,1.51,2.07c.09.29.08.63.35.88a1.68,1.68,0,0,0,.37.27c.27.12.38-.09.39-.66,0-1,0-1.91,0-2.86A8.46,8.46,0,0,0,16.92,26a.5.5,0,0,0-.18-.36h0c-.13-.06-.15.1-.2.19s-.09.8-.4.66h0c-.28-.14-.31-.68-.44-1-.28-.76-.52-1.53-.77-2.29-.07-.23-.15-.37-.22-.4" fill="#fff"/>
              <path d="M12.78,18.69a4.92,4.92,0,0,0-6.1,1.12C4.81,22,4.36,25.24,5.13,29.36a1.35,1.35,0,0,0,.15.49.25.25,0,0,0,.1.08.36.36,0,0,0,.29,0,4.66,4.66,0,0,1,1.25-.38c.22,0,.3-.18.29-.51,0-1.2,0-2.38,0-3.58a2.91,2.91,0,0,1,.14-1c.06-.14.07-.4.24-.33h0c.12.06.15.31.19.47s.08.39.23.46h0c.14,0,.17-.11.22-.22.23-.39.45-.8.67-1.2s.22-.36.3-.33.16.22.28.57c.21.58.39,1.17.59,1.75.06.17.09.39.24.45h0c.15.06.17-.16.22-.28s.05-.36.2-.29h0c.18.09.18.35.23.54a11.31,11.31,0,0,1,.13,2.7c0,.3,0,.5-.28.43-.11,0-.2,0-.29-.08s-.19-.13-.29-.37a2.41,2.41,0,0,0-1-1.38,1.05,1.05,0,0,0-.58-.07c-.59.09-.89.85-.77,1.84,0,.17.06.24.12.27h.14a13.64,13.64,0,0,1,3.53.46c.26.08.33-.08.32-.42,0-.7,0-1.39,0-2.28a10.29,10.29,0,0,1,.19-2.74c.09-.22,0-.69.3-.62h0c.26.12.18.56.31.82s.07.45.25.56h0c.17.08.21-.16.28-.29.36-.63.7-1.29,1-1.94.09-.16.17-.22.25-.19s.15.17.22.4c.25.76.49,1.53.77,2.29.13.36.16.9.44,1h0c.31.14.25-.44.4-.66s.07-.25.2-.19h0a.5.5,0,0,1,.18.36,8.46,8.46,0,0,1,.35,2.08c0,1,0,1.91,0,2.86,0,.57-.12.78-.39.66a1.68,1.68,0,0,1-.37-.27c-.27-.25-.26-.59-.35-.88a3.22,3.22,0,0,0-1.51-2.07,1.34,1.34,0,0,0-.26-.09c-.77-.19-1.33.39-1.44,1.41,0,.34,0,.48.24.57l.08,0c.47.18.94.35,1.41.56a4.54,4.54,0,0,1,.45.21,28.41,28.41,0,0,1,5,3.57.88.88,0,0,0,.23.16.11.11,0,0,0,.17-.06.89.89,0,0,0,.05-.23,17.17,17.17,0,0,0-1.44-8.57c-1.58-3.62-4-6.17-6.38-7.25" fill="#f48624"/>
              <path d="M7.69,31.49a.23.23,0,0,1,.12.1,1.16,1.16,0,0,1,.08.47v.07c0,.31-.12.37-.37.27a.55.55,0,0,1-.33-.61c0-.42.25-.36.45-.32l.05,0m3.17.72,0,0c.23.12.25.31.25.53v.54a.25.25,0,0,0,0,.13c0,.12,0,.27,0,.4s-.06.3-.33.19h0a.45.45,0,0,1-.23-.2.55.55,0,0,1-.07-.28v-1c0-.29,0-.46.34-.35h0m.81-.25-.38-.14a11.27,11.27,0,0,0-5.24-.52c-.2,0-.28.09-.28.23a1.39,1.39,0,0,0,.11.44,15.8,15.8,0,0,0,5,7.17,10,10,0,0,0,1.71,1l.2.1a7.76,7.76,0,0,0,1.43.48c2.11.46,3.82-.37,5.19-2.31l0,0a25.22,25.22,0,0,0-2.19-2.57c0,.34,0,.61,0,.86s-.11.41-.35.31h0a.55.55,0,0,1-.32-.61c0-.27,0-.56,0-.83a.73.73,0,0,0-.26-.65,18.76,18.76,0,0,0-2.93-2.11l-.08,0c-.24-.11-.31,0-.3.37,0,.57,0,1.12,0,1.69,0,.41-.14.39-.32.31l-.07,0-.09,0-.1,0a.54.54,0,0,1-.34-.6c0-.47,0-.95,0-1.43,0-.71,0-.86-.32-1" fill="#f48624"/>
              <path d="M13.24,31.47l-.1,0c-.17-.08-.26-.05-.26.21s.08.37.24.44h0l0,0,.19.11a20.2,20.2,0,0,1,6,5c.11.12.25.37.34.42h.07a2.14,2.14,0,0,0,.35-.69.5.5,0,0,0,0-.19.6.6,0,0,0-.14-.2,19.05,19.05,0,0,0-6.71-5.09" fill="#0f3040"/>
              <path d="M11.81,30.92a1.14,1.14,0,0,0-.24-.05,12.2,12.2,0,0,0-3.43-.49c-.09,0-.23,0-.24.26a.74.74,0,0,0,.24.08,14.15,14.15,0,0,1,3.47.73c.17.06.42.25.38-.2,0-.21-.1-.3-.18-.33" fill="#0f3040"/>
              <path d="M10.86,32.21h0c-.29-.11-.34.06-.34.35v1a.55.55,0,0,0,.07.28.45.45,0,0,0,.23.2h0c.27.11.33,0,.33-.19s0-.28,0-.4a.25.25,0,0,1,0-.13v-.54c0-.22,0-.41-.25-.53l0,0" fill="#fdfcfb"/>
              <path d="M7.69,31.49l-.05,0c-.2,0-.45-.1-.45.32a.55.55,0,0,0,.33.61c.25.1.37,0,.37-.27v-.07a1.16,1.16,0,0,0-.08-.47.23.23,0,0,0-.12-.1" fill="#fdfcfb"/>
            </g>
          </g>
        </g>
      </g>
      <g>
        <polygon points="24.2 19.47 1.41 9.18 25.96 0.24 48.75 10.53 24.2 19.47" fill="#ebebeb"/>
        <g style="isolation: isolate">
          <g clip-path="url(#clip-path-2)">
            <g>
              <path d="M30.75,14.08A16.45,16.45,0,0,0,33,13.43a9.92,9.92,0,0,0,1.49-.66,12,12,0,0,1-1.46.63l-.22.08a17.39,17.39,0,0,1-2.09.6m-4.15-1.6a1,1,0,0,0,.33-.06,1,1,0,0,1-.33.06m-3.91.8.16,0-.16,0m3-1.49,0,0,0,0m-3.43,1.1c-.22-.11-.08-.16,0-.21a17.55,17.55,0,0,1,3-1.73l.22-.12a.56.56,0,0,1,.38,0c.37.12,0,.2-.14.27a21.84,21.84,0,0,0-3.21,1.67l-.24.1m-.61-6.32c-.09,0-.1.09-.05.19.22.4.43.81.63,1.21,0,.08.19.18,0,.26h0a1.65,1.65,0,0,1-.59-.05c-.3,0-.57-.2-.85-.1h0c-.25.12.14.25.23.37.35.46,1.38.71,1.88,1,.65.29,1.15.53,1.68.75.26.11.32.2.06.32a20.39,20.39,0,0,0-3.06,1.78.29.29,0,0,1-.12.07.35.35,0,0,1-.28,0c-.83-.26-1.15-.68-.77-1a1.43,1.43,0,0,1,.5-.29,4.24,4.24,0,0,1,1.83-.13,1,1,0,0,0,.5,0l.27-.13c.26-.12.13-.21-.09-.3a10.34,10.34,0,0,0-2.1-.82,1,1,0,0,0-.57-.05h0c-.16.06,0,.14.06.21s.2.15,0,.21h0a1.11,1.11,0,0,1-.51,0l-1.75-.26a2.09,2.09,0,0,0-.63,0c-.09,0-.07.12,0,.27s.25.51.36.77c0,.06.14.13,0,.19h0a1,1,0,0,1-.52,0,1.07,1.07,0,0,0-.5,0h0c-.18.07,0,.16.06.24a1.86,1.86,0,0,0,.64.41l2.63,1.18c.25.11.29.2.15.34a4.25,4.25,0,0,0-.69.81.32.32,0,0,1-.19.17l-.13,0q.79.18,1.62.3c-.1,0-.09-.12,0-.23a16.07,16.07,0,0,1,4.43-2.71l.39-.16c.36-.13.46-.08,1,.16.35.15.72.31,1.05.47a.8.8,0,0,0,.69,0l.11,0,.1,0,.08,0c.2-.07.33-.15,0-.28s-.82-.38-1.25-.55-.31-.19,0-.29l.09,0a33.94,33.94,0,0,1,3.82-.91.91.91,0,0,1,.67.07c.2.09.42.18.61.28a.79.79,0,0,0,.69,0h0c.26-.1.3-.18,0-.29l-.64-.28c1.24-.18,2.39-.28,3.59-.36a2.2,2.2,0,0,0-.23-.46h0a4.32,4.32,0,0,1-.57,0,39.22,39.22,0,0,0-8.31,1.63l-.23.07-.05,0h0a.57.57,0,0,1-.51,0c-.19-.08-.15-.14,0-.21l.11,0a36.81,36.81,0,0,1,8.92-2,.82.82,0,0,1,.27,0A5.78,5.78,0,0,0,35,7.3s0,.08-.09.11a1.33,1.33,0,0,1-.3.07,55.86,55.86,0,0,0-6.51,1.6l-.51.17c-.52.19-1,.39-1.49.59l-.09,0a.62.62,0,0,1-.6-.06c-.67-.4-.66-.9.07-1.26l.26-.11a5.64,5.64,0,0,1,2.69-.15,2.21,2.21,0,0,0,.92.1,2.47,2.47,0,0,0,.48-.11c.3-.11.24-.24-.19-.43-.68-.32-1.41-.63-2.08-1a8.81,8.81,0,0,0-1.81-.49.68.68,0,0,0-.4,0h0c-.14.05,0,.11,0,.18s.52.31.18.43h0a2.91,2.91,0,0,1-1.11-.1c-.77-.1-1.52-.22-2.28-.34a1,1,0,0,0-.46,0" fill="#fff"/>
              <path d="M17.17,6.27c-2.47.9-4,2.22-3.88,3.71.16,1.75,2.22,3.07,5.85,4a1.62,1.62,0,0,0,.48.07l.13,0a.32.32,0,0,0,.19-.17,4.25,4.25,0,0,1,.69-.81c.14-.14.1-.23-.15-.34l-2.63-1.18a1.86,1.86,0,0,1-.64-.41c-.06-.08-.24-.17-.06-.24h0a1.07,1.07,0,0,1,.5,0,1,1,0,0,0,.52,0h0c.14-.06,0-.13,0-.19-.11-.26-.24-.51-.36-.77s-.1-.24,0-.27a2.09,2.09,0,0,1,.63,0L20.2,10a1.11,1.11,0,0,0,.51,0h0c.17-.06,0-.14,0-.21s-.22-.15-.06-.21h0a1,1,0,0,1,.57.05,10.34,10.34,0,0,1,2.1.82c.22.09.35.18.09.3l-.27.13a1,1,0,0,1-.5,0,4.24,4.24,0,0,0-1.83.13,1.43,1.43,0,0,0-.5.29c-.38.35-.06.77.77,1a.35.35,0,0,0,.28,0,.29.29,0,0,0,.12-.07,20.39,20.39,0,0,1,3.06-1.78c.26-.12.2-.21-.06-.32-.53-.22-1-.46-1.68-.75-.5-.3-1.53-.55-1.88-1-.09-.12-.48-.25-.23-.37h0c.28-.1.55.08.85.1a1.65,1.65,0,0,0,.59.05h0c.19-.08,0-.18,0-.26-.2-.4-.41-.81-.63-1.21-.05-.1,0-.16.05-.19a1,1,0,0,1,.46,0c.76.12,1.51.24,2.28.34a2.91,2.91,0,0,0,1.11.1h0c.34-.12-.13-.28-.18-.43s-.13-.13,0-.18h0a.68.68,0,0,1,.4,0,8.81,8.81,0,0,1,1.81.49c.67.33,1.4.64,2.08,1,.43.19.49.32.19.43a2.47,2.47,0,0,1-.48.11,2.21,2.21,0,0,1-.92-.1,5.64,5.64,0,0,0-2.69.15l-.26.11c-.73.36-.74.86-.07,1.26a.62.62,0,0,0,.6.06l.09,0c.49-.2,1-.4,1.49-.59l.51-.17a55.86,55.86,0,0,1,6.51-1.6,1.33,1.33,0,0,0,.3-.07c.09,0,.12-.06.09-.11a.38.38,0,0,0-.13-.11,18,18,0,0,0-7.44-2A25,25,0,0,0,17.17,6.27" fill="#f48624"/>
              <path d="M22.69,13.28l.16,0a1.14,1.14,0,0,1,.41.12l0,0c.24.1.18.19-.08.29a.84.84,0,0,1-.71,0c-.31-.14-.07-.25.11-.35l.06,0m3-1.49,0,0a.77.77,0,0,1,.59,0l.12.06.27.12a.17.17,0,0,0,.09.06l.3.11c.13.06.18.14-.11.25h0a1,1,0,0,1-.33.06.85.85,0,0,1-.26-.05l0,0-.38-.17-.24-.11-.07,0c-.21-.09-.29-.18,0-.3h0m.44-.53-.39.16a16.07,16.07,0,0,0-4.43,2.71c-.13.11-.14.18,0,.23a2.22,2.22,0,0,0,.41.08,27.21,27.21,0,0,0,9.1-.36,17.39,17.39,0,0,0,2.09-.6l.22-.08a12,12,0,0,0,1.46-.63c2-1,2.67-2.21,2.3-3.6h-.07c-1.2.08-2.35.18-3.59.36l.64.28c.26.11.22.19,0,.29h0a.79.79,0,0,1-.69,0c-.19-.1-.41-.19-.61-.28a.91.91,0,0,0-.67-.07,33.94,33.94,0,0,0-3.82.91l-.09,0c-.27.1-.24.17,0,.29s.82.37,1.25.55.18.21,0,.28l-.08,0-.1,0-.11,0a.8.8,0,0,1-.69,0c-.33-.16-.7-.32-1.05-.47-.53-.24-.63-.29-1-.16" fill="#f48624"/>
              <path d="M27,10.23l-.11,0c-.19.07-.23.13,0,.21a.57.57,0,0,0,.51,0h0l.05,0,.23-.07a39.22,39.22,0,0,1,8.31-1.63,4.32,4.32,0,0,0,.57,0h0a0,0,0,0,0,0,0c0-.14-.15-.29-.23-.42a.34.34,0,0,0-.16,0,.82.82,0,0,0-.27,0,36.81,36.81,0,0,0-8.92,2" fill="#0f3040"/>
              <path d="M25.44,10.83l-.22.12a17.55,17.55,0,0,0-3,1.73c-.07.05-.21.1,0,.21l.24-.1a21.84,21.84,0,0,1,3.21-1.67c.17-.07.51-.15.14-.27a.56.56,0,0,0-.38,0" fill="#0f3040"/>
              <path d="M25.66,11.79h0c-.3.12-.22.21,0,.3l.07,0,.24.11.38.17,0,0a.85.85,0,0,0,.26.05,1,1,0,0,0,.33-.06h0c.29-.11.24-.19.11-.25l-.3-.11a.17.17,0,0,1-.09-.06l-.27-.12-.12-.06a.77.77,0,0,0-.59,0l0,0" fill="#fdfcfb"/>
              <path d="M22.69,13.28l-.06,0c-.18.1-.42.21-.11.35a.84.84,0,0,0,.71,0c.26-.1.32-.19.08-.29l0,0a1.14,1.14,0,0,0-.41-.12l-.16,0" fill="#fdfcfb"/>
            </g>
          </g>
        </g>
      </g>
      <g>
        <polygon points="48.75 10.53 48.59 40.83 24.04 49.76 24.2 19.47 48.75 10.53" fill="#f0f0f0"/>
        <g style="isolation: isolate">
          <g clip-path="url(#clip-path-3)">
            <g>
              <path d="M34.3,41.38a7.5,7.5,0,0,0,2.05-.45A9.14,9.14,0,0,0,38,40.14a9.9,9.9,0,0,1-1.58.74l-.22.07a8.23,8.23,0,0,1-1.89.43M34,36.31a.26.26,0,0,0,.26,0,.26.26,0,0,1-.26,0m-3.14.11a.12.12,0,0,1,.12,0,.12.12,0,0,0-.12,0m3.48-2h0m-3.25.94a.49.49,0,0,1,.25-.45,24.21,24.21,0,0,1,3.79-2.43,2.4,2.4,0,0,1,.27-.16c.09,0,.16,0,.19.18.05.42-.23.44-.42.52a24.86,24.86,0,0,0-3.82,2.22,1,1,0,0,1-.26.12m7.47-13.61c-.08,0-.17.16-.26.39-.38.94-.77,1.89-1.16,2.82-.07.19-.11.46-.31.53h0c-.19.05-.17-.24-.26-.34s-.06-.66-.35-.55h0c-.28.14-.23.58-.33.87a11.19,11.19,0,0,0-.21,2.89c0,.89,0,1.58,0,2.27a.63.63,0,0,1-.35.69,29.31,29.31,0,0,0-3.89,2.53.55.55,0,0,1-.15.11c-.07,0-.11,0-.13-.17a2.91,2.91,0,0,1,.84-2.48,2.33,2.33,0,0,1,.64-.42.93.93,0,0,1,1.16.48c.11.16.21.17.32.13s.2-.12.32-.17a.62.62,0,0,0,.31-.67,9.43,9.43,0,0,0-.14-2.57c-.06-.15-.05-.41-.25-.34h0c-.17.06-.17.29-.22.46s-.08.39-.25.46h0c-.17.06-.2-.13-.26-.25-.22-.41-.42-.84-.65-1.24s-.22-.37-.31-.33-.18.21-.33.58c-.24.58-.49,1.18-.74,1.76-.06.15-.09.35-.24.41h0c-.17.06-.2-.13-.26-.26s-.07-.35-.21-.3h0c-.18.07-.2.34-.26.53a3.76,3.76,0,0,0-.16,1.13c0,1.19,0,2.38,0,3.57a.91.91,0,0,1-.33.76,17.16,17.16,0,0,0-1.38,1.44.8.8,0,0,1-.32.28.09.09,0,0,1-.1,0,9.13,9.13,0,0,0,.53,1.27c0-.14.09-.27.31-.47a23.82,23.82,0,0,1,5.78-3.92l.41-.18c.36-.13.35,0,.36.73,0,.48,0,1,0,1.43s.16.39.37.31L36,36l.1,0,.08,0c.19-.07.36-.18.35-.59,0-.56,0-1.12,0-1.68,0-.36.07-.53.33-.62L37,33a12.54,12.54,0,0,1,3.23-.38c.23,0,.3.14.28.42s0,.56,0,.84.09.43.35.34h0a.55.55,0,0,0,.39-.6v-.86a9.31,9.31,0,0,1,2.42.7c.16-.35.3-.71.44-1.08l0,0c-.11,0-.26-.09-.38-.13a11.24,11.24,0,0,0-6.59.09l-.21.06,0,0h0c-.17.06-.26,0-.26-.25a.4.4,0,0,1,.29-.43l.11,0a12.09,12.09,0,0,1,7.39-.62c.06,0,.12,0,.16.08a16.53,16.53,0,0,0,.51-2.4.32.32,0,0,1-.2.21.64.64,0,0,1-.25,0,18.91,18.91,0,0,0-5.55.72l-.49.17c-.52.19-1,.42-1.56.64l-.09,0c-.23.08-.3,0-.26-.37a3.46,3.46,0,0,1,1.59-2.62,1.17,1.17,0,0,1,.28-.13,1.25,1.25,0,0,1,1.67.77c.1.22.08.57.38.59a1.24,1.24,0,0,0,.41,0c.3-.11.42-.41.43-1,0-.95,0-1.89,0-2.86A4.9,4.9,0,0,0,41,23.13c0-.11-.06-.24-.19-.21h0c-.14.05-.16.22-.22.36-.16.34-.1.87-.44,1h0c-.3.1-.33-.41-.48-.67-.3-.52-.56-1.08-.84-1.63-.08-.16-.16-.23-.25-.2" fill="#fff"/>
              <path d="M36.47,19.36a13.33,13.33,0,0,0-6.72,6.28A14.68,14.68,0,0,0,28,36.47c.05.19.09.32.17.36a.09.09,0,0,0,.1,0,.8.8,0,0,0,.32-.28A17.16,17.16,0,0,1,30,35.11a.91.91,0,0,0,.33-.76c0-1.19,0-2.38,0-3.57a3.76,3.76,0,0,1,.16-1.13c.06-.19.08-.46.26-.53h0c.14-.05.16.18.21.3s.09.32.26.26h0c.15-.06.18-.26.24-.41.25-.58.5-1.18.74-1.76.15-.37.24-.55.33-.58s.18.08.31.33.43.83.65,1.24c.06.12.09.31.26.25h0c.17-.07.19-.29.25-.46s.05-.4.22-.46h0c.2-.07.19.19.25.34a9.43,9.43,0,0,1,.14,2.57.62.62,0,0,1-.31.67c-.12.05-.22.13-.32.17s-.21,0-.32-.13A.93.93,0,0,0,32.55,31a2.33,2.33,0,0,0-.64.42,2.91,2.91,0,0,0-.84,2.48c0,.16.06.19.13.17a.55.55,0,0,0,.15-.11,29.31,29.31,0,0,1,3.89-2.53.63.63,0,0,0,.35-.69c0-.69,0-1.38,0-2.27a11.19,11.19,0,0,1,.21-2.89c.1-.29,0-.73.33-.87h0c.29-.11.2.39.35.55s.07.39.26.34h0c.2-.07.24-.34.31-.53.39-.93.78-1.88,1.16-2.82.09-.23.18-.36.26-.39s.17,0,.25.2c.28.55.54,1.11.84,1.63.15.26.18.77.48.67h0c.34-.13.28-.66.44-1,.06-.14.08-.31.22-.36h0c.13,0,.16.1.19.21a4.9,4.9,0,0,1,.38,1.78c0,1,0,1.91,0,2.86,0,.58-.13.88-.43,1a1.24,1.24,0,0,1-.41,0c-.3,0-.28-.37-.38-.59a1.25,1.25,0,0,0-1.67-.77,1.17,1.17,0,0,0-.28.13,3.46,3.46,0,0,0-1.59,2.62c0,.38,0,.45.26.37l.09,0c.52-.22,1-.45,1.56-.64l.49-.17A18.91,18.91,0,0,1,44.57,29a.64.64,0,0,0,.25,0,.32.32,0,0,0,.2-.21,1.46,1.46,0,0,0,0-.27c.3-3-.2-5.5-1.58-7.32a5.84,5.84,0,0,0-7-1.81" fill="#f48624"/>
              <path d="M30.85,36.42a.12.12,0,0,1,.12,0c.08,0,.08.25.09.4v.06a.57.57,0,0,1-.4.59c-.27.09-.38,0-.37-.33a.76.76,0,0,1,.49-.7l.07,0m3.48-2h0c.26-.08.29.1.28.32v.54a.34.34,0,0,0,0,.15c0,.12,0,.25,0,.37a.49.49,0,0,1-.37.48h0a.26.26,0,0,1-.26,0,.3.3,0,0,1-.08-.21v-.05c0-.18,0-.36,0-.53s0-.21,0-.31v-.09a.6.6,0,0,1,.38-.64l0,0m.89-.93-.41.18A23.82,23.82,0,0,0,29,37.63c-.22.2-.31.33-.31.47a.69.69,0,0,0,.13.34,5.57,5.57,0,0,0,5.45,2.94A8.23,8.23,0,0,0,36.19,41l.22-.07A9.9,9.9,0,0,0,38,40.14a14.94,14.94,0,0,0,5.72-6.69l0,0a9.31,9.31,0,0,0-2.42-.7v.86a.55.55,0,0,1-.39.6h0c-.26.09-.36,0-.35-.34s0-.55,0-.84,0-.41-.28-.42A12.54,12.54,0,0,0,37,33l-.09,0c-.26.09-.34.26-.33.62,0,.56,0,1.12,0,1.68,0,.41-.16.52-.35.59l-.08,0L36,36l-.11,0c-.21.08-.39.1-.37-.31s0-.95,0-1.43c0-.71,0-.86-.36-.73" fill="#f48624"/>
              <path d="M37,31.7l-.11,0a.4.4,0,0,0-.29.43c0,.26.09.31.26.25h0l0,0,.21-.06a11.24,11.24,0,0,1,6.59-.09c.12,0,.27.17.38.13l0,0,0,0a5.5,5.5,0,0,0,.39-1,.35.35,0,0,0,0-.16c0-.06-.1-.06-.16-.08A12.09,12.09,0,0,0,37,31.7" fill="#0f3040"/>
              <path d="M35.39,32.36a2.4,2.4,0,0,0-.27.16A24.21,24.21,0,0,0,31.33,35a.49.49,0,0,0-.25.45,1,1,0,0,0,.26-.12,24.86,24.86,0,0,1,3.82-2.22c.19-.08.47-.1.42-.52,0-.19-.1-.21-.19-.18" fill="#0f3040"/>
              <path d="M34.33,34.46l0,0a.6.6,0,0,0-.38.64v.09c0,.1,0,.2,0,.31s0,.35,0,.53v.05a.3.3,0,0,0,.08.21.26.26,0,0,0,.26,0h0a.49.49,0,0,0,.37-.48c0-.12,0-.25,0-.37a.34.34,0,0,1,0-.15v-.54c0-.22,0-.4-.28-.32h0" fill="#fdfcfb"/>
              <path d="M30.85,36.42l-.07,0a.76.76,0,0,0-.49.7c0,.33.1.42.37.33a.57.57,0,0,0,.4-.59v-.06c0-.15,0-.35-.09-.4a.12.12,0,0,0-.12,0" fill="#fdfcfb"/>
            </g>
          </g>
        </g>
      </g>
    </g>
  </g>
</svg>
