<svg id="Capa_1" data-name="Capa 1" xmlns="http://www.w3.org/2000/svg" xmlns:xlink="http://www.w3.org/1999/xlink" width="50" height="50" viewBox="0 0 50 50">
  <defs>
    <clipPath id="clip-path">
      <polygon points="24.03 49.76 1.25 39.47 1.41 9.18 24.19 19.47 24.03 49.76" fill="none"/>
    </clipPath>
    <clipPath id="clip-path-2">
      <polygon points="24.19 19.47 1.41 9.18 25.96 0.24 48.74 10.53 24.19 19.47" fill="none"/>
    </clipPath>
    <clipPath id="clip-path-3">
      <polygon points="48.74 10.53 48.59 40.83 24.03 49.76 24.19 19.47 48.74 10.53" fill="none"/>
    </clipPath>
  </defs>
  <g id="Figment_lido">
    <g style="isolation: isolate">
      <g>
        <polygon points="24.03 49.76 1.25 39.47 1.41 9.18 24.19 19.47 24.03 49.76" fill="#019e76"/>
        <g style="isolation: isolate">
          <g clip-path="url(#clip-path)">
            <g>
              <path d="M14.1,21.54a.67.67,0,0,0-.7.05c-.15.12-.28.25-.43.36a.55.55,0,0,1-.14.19c-.18.16-.36.32-.53.49-.46.44-.93.86-1.4,1.29-.67.61-1.33,1.23-2,1.83-.05,0-.08.15-.15.12s0,0,0,0,0-.22,0-.33c0-1.13,0-2.26,0-3.38a2.22,2.22,0,0,0-1.07-1.93.64.64,0,0,0-.18-.06.8.8,0,0,0-.65.19l0,0c0,.13-.12.22-.16.36a1.32,1.32,0,0,0-.07.5q0,5.81,0,11.61a1.93,1.93,0,0,0,.07.57c0,.19.15.37.2.57a1.76,1.76,0,0,0,.81.91l.23.07c.41.07.7-.12.83-.62a4.51,4.51,0,0,0,.05-.65c0-1.12,0-2.23,0-3.36,0-.06,0-.14,0-.14h0s0,.07.07.11l.06.09c1.5,2.74,3,5.45,4.5,8.22l.05.06a1.44,1.44,0,0,0,.24.3,1.69,1.69,0,0,0,.46.31.59.59,0,0,0,.6,0,1.66,1.66,0,0,0,.44-.36,11.62,11.62,0,0,1,1-.9c.29-.26.58-.54.88-.79s.77-.71,1.16-1.05a.64.64,0,0,0,.22-.43,6,6,0,0,0,0-.74,2.6,2.6,0,0,0-.75-1.46,1.64,1.64,0,0,0-.28-.16.81.81,0,0,0-.71,0,.44.44,0,0,0-.18.12c-.17.16-.32.34-.5.48s-.59.54-.89.81-.58.51-.86.78c0,0-.08.05-.11,0s-.06,0-.1-.12-.17-.32-.27-.46a.87.87,0,0,1-.14-.27,2.4,2.4,0,0,0-.11-.23c-1-1.8-2-3.61-3-5.41a.89.89,0,0,1-.13-.34.28.28,0,0,1,.11-.22c.43-.38.85-.77,1.26-1.16s.86-.74,1.26-1.17a.3.3,0,0,1,.18-.17c.08,0,.12-.14.2-.18a.35.35,0,0,1,.11-.1.49.49,0,0,1,.13-.12.25.25,0,0,1,.14-.13l.1-.07c.13-.15.19-.22.26-.19s.12.13.23.31,0,.09.07.14c.13.23.25.47.39.7a.54.54,0,0,1,.07.13.83.83,0,0,0,.09.16.54.54,0,0,1,.07.13c.12.24.26.47.39.7a.61.61,0,0,1,.07.14c.18.33.36.66.55,1a.83.83,0,0,1,.07.13.51.51,0,0,0,.09.16.83.83,0,0,1,.07.13,5.6,5.6,0,0,0,.33.59,1.86,1.86,0,0,0,.74.68.7.7,0,0,0,.83-.11A2.1,2.1,0,0,0,18,27.93c-.22-.36-.43-.73-.63-1.1-.45-.85-.92-1.67-1.38-2.51-.37-.67-.74-1.35-1.12-2a1.83,1.83,0,0,0-.77-.77" fill="#fefefe"/>
              <path d="M13.22,29.16h0m.9-.23a.75.75,0,0,0-.74.05.47.47,0,0,1-.16.18,2.43,2.43,0,0,1-.16.36,2.37,2.37,0,0,0,.57,2,1.38,1.38,0,0,0,.47.36.69.69,0,0,0,.93-.28,2.15,2.15,0,0,0-.21-2.05,1.67,1.67,0,0,0-.7-.66" fill="#fefefe"/>
            </g>
          </g>
        </g>
      </g>
      <g>
        <polygon points="24.19 19.47 1.41 9.18 25.96 0.24 48.74 10.53 24.19 19.47" fill="#01ad82"/>
        <g style="isolation: isolate">
          <g clip-path="url(#clip-path-2)">
            <g>
              <path d="M21.47,5.8c-.3.11-.5.26-.54.43s0,.26-.08.39a.21.21,0,0,1,0,.15l-.06.5c0,.43-.09.86-.14,1.29-.08.62-.14,1.25-.24,1.87,0,0,.06.1,0,.13h-.06c-.15,0-.21-.05-.3-.09-.91-.41-1.82-.81-2.7-1.23a3.74,3.74,0,0,0-2.46-.05l-.2.08a.71.71,0,0,0-.4.46v0c.07.07.08.15.15.22a1,1,0,0,0,.35.23l9.29,4.2a2,2,0,0,0,.52.16c.2,0,.42.05.62.09a3.38,3.38,0,0,0,1.41-.16l.26-.11c.4-.22.49-.46.21-.72-.15-.09-.3-.18-.48-.27l-2.7-1.21c-.05,0-.12,0-.09-.07h.3c3.46.1,6.93.15,10.39.27h.1a2.18,2.18,0,0,0,.44,0,3.32,3.32,0,0,0,.64-.16.78.78,0,0,0,.5-.36.91.91,0,0,0,.08-.39,4.58,4.58,0,0,1,.09-.9c0-.27.05-.54.1-.81s.09-.72.15-1.08a.27.27,0,0,0-.16-.28,6.27,6.27,0,0,0-.58-.28A4.25,4.25,0,0,0,34.07,8a2.8,2.8,0,0,0-.37.1,1.18,1.18,0,0,0-.61.43A.23.23,0,0,0,33,8.7a2.56,2.56,0,0,1,0,.47c-.06.27-.06.55-.11.82s-.07.53-.1.8a.07.07,0,0,1-.06.07.44.44,0,0,1-.18,0c-.2,0-.4,0-.6,0a1.83,1.83,0,0,1-.33,0h-.28l-6.88-.16a1.46,1.46,0,0,1-.38,0c-.09,0-.09-.09-.08-.14.05-.39.1-.79.14-1.18a11.6,11.6,0,0,0,.12-1.17.12.12,0,0,1,0-.17c.06-.06,0-.12,0-.18a.14.14,0,0,1,0-.11.21.21,0,0,1,0-.11.12.12,0,0,1,0-.14.31.31,0,0,1,0-.08c0-.13,0-.2.07-.22a1.49,1.49,0,0,1,.45,0H25l.9,0h.36a.49.49,0,0,1,.17,0l.89,0h.17l1.25,0h.54c.25,0,.5,0,.75,0A3.74,3.74,0,0,0,31.24,7c.37-.13.6-.32.62-.53-.09-.47-.95-.73-2-.73l-1.41,0L25.3,5.67c-.85,0-1.7,0-2.56-.06a3.47,3.47,0,0,0-1.27.19" fill="#fefefe"/>
              <path d="M26.85,9.07h0m.57-.62c-.31.11-.53.27-.58.46a.29.29,0,0,1,0,.16,2.17,2.17,0,0,1,.15.22,3.08,3.08,0,0,0,2.12.4,3,3,0,0,0,.68-.15c.44-.16.66-.41.56-.66s-.91-.62-1.82-.61a3.33,3.33,0,0,0-1.12.18" fill="#fefefe"/>
            </g>
          </g>
        </g>
      </g>
      <g>
        <polygon points="48.74 10.53 48.59 40.83 24.03 49.76 24.19 19.47 48.74 10.53" fill="#01b185"/>
        <g style="isolation: isolate">
          <g clip-path="url(#clip-path-3)">
            <g>
              <path d="M38.79,20.47a1.63,1.63,0,0,0-.78.65c-.17.24-.32.5-.49.75a1.3,1.3,0,0,1-.16.31c-.2.32-.41.64-.6,1-.52.84-1,1.67-1.58,2.51-.76,1.2-1.51,2.41-2.28,3.61,0,.08-.09.22-.17.25h0c-.09,0,0-.2,0-.31,0-1.14,0-2.29,0-3.45,0-.76-.49-1.3-1.2-1a1.89,1.89,0,0,0-.21.09,2.66,2.66,0,0,0-.73.76l0,.08c-.05.17-.14.32-.18.49a1.69,1.69,0,0,0-.08.58q0,5.92-.07,11.85a1.1,1.1,0,0,0,.08.52c.05.16.17.25.21.42a.77.77,0,0,0,.91.22,1.11,1.11,0,0,0,.27-.13,2,2,0,0,0,.94-1.34,5.83,5.83,0,0,0,.06-.72c0-1.13,0-2.28,0-3.41,0-.07,0-.13,0-.18l0,0s.06,0,.09,0l.06.05c1.68,1.5,3.41,2.92,5,4.48l0,0c.1,0,.17.11.28.1A1.34,1.34,0,0,0,39.41,38a5.63,5.63,0,0,0,.5-.74c.33-.6.72-1.17,1.08-1.75s.66-1.05,1-1.56c.45-.68.87-1.39,1.32-2.08a1.43,1.43,0,0,0,.24-.62,6.66,6.66,0,0,0,0-.77.94.94,0,0,0-.85-.84,1.18,1.18,0,0,0-.31.08,2,2,0,0,0-.81.6l-.2.28c-.18.31-.36.63-.56.92-.35.52-.67,1.06-1,1.59l-1,1.54a.3.3,0,0,1-.11.13.14.14,0,0,1-.12,0,1.66,1.66,0,0,0-.3-.24.33.33,0,0,1-.15-.16L38,34.23c-1.13-1-2.24-2-3.36-2.94a.32.32,0,0,1-.15-.23.56.56,0,0,1,.13-.32c.48-.75,1-1.51,1.43-2.27s1-1.5,1.41-2.27a.93.93,0,0,1,.21-.33c.09-.1.14-.25.23-.36a.82.82,0,0,1,.12-.2,1.76,1.76,0,0,1,.14-.23,1.13,1.13,0,0,1,.16-.26l.12-.15c.15-.27.22-.39.29-.42s.13,0,.26.12a.6.6,0,0,1,.08.08c.14.12.28.26.44.38a.21.21,0,0,1,.08.06.26.26,0,0,0,.09.09.19.19,0,0,1,.08.07,5.2,5.2,0,0,0,.44.38.3.3,0,0,1,.08.08l.62.53.08.07a.26.26,0,0,0,.09.09s.06,0,.09.07a2.3,2.3,0,0,0,.37.32,1,1,0,0,0,.83,0,1.87,1.87,0,0,0,.94-.82,1.7,1.7,0,0,0-.17-2.2,7.69,7.69,0,0,1-.7-.58c-.51-.47-1-.91-1.55-1.36s-.83-.74-1.26-1.09a.89.89,0,0,0-.87-.11" fill="#fefefe"/>
              <path d="M37.78,29h0m1-1a1.86,1.86,0,0,0-.84.69,1.74,1.74,0,0,1-.18.33c-.06.17-.11.34-.18.5-.19.79.08,1.47.63,1.59a1,1,0,0,0,.53,0A2,2,0,0,0,39.81,30a1.59,1.59,0,0,0-.23-1.91A.85.85,0,0,0,38.8,28" fill="#fefefe"/>
            </g>
          </g>
        </g>
      </g>
    </g>
  </g>
</svg>
