<svg id="Capa_1" data-name="Capa 1" xmlns="http://www.w3.org/2000/svg" xmlns:xlink="http://www.w3.org/1999/xlink" width="50" height="50" viewBox="0 0 50 50">
  <defs>
    <clipPath id="clip-path">
      <polygon points="24.04 49.76 1.25 39.47 1.41 9.18 24.2 19.47 24.04 49.76" fill="none"/>
    </clipPath>
    <clipPath id="clip-path-2">
      <polygon points="24.2 19.47 1.41 9.18 25.96 0.25 48.74 10.54 24.2 19.47" fill="none"/>
    </clipPath>
    <clipPath id="clip-path-3">
      <polygon points="48.74 10.54 48.58 40.83 24.04 49.76 24.2 19.47 48.74 10.54" fill="none"/>
    </clipPath>
  </defs>
  <g id="Figment_lido">
    <g style="isolation: isolate">
      <g>
        <polygon points="24.04 49.76 1.25 39.47 1.41 9.18 24.2 19.47 24.04 49.76" fill="#d6d6d6"/>
        <g style="isolation: isolate">
          <g clip-path="url(#clip-path)">
            <g>
              <path d="M8.25,21.83a2.73,2.73,0,0,0-2.67.07l1.59,3.15a1.27,1.27,0,0,1,1.09,0,2.51,2.51,0,0,1,.79.61l1.21-2.25a6,6,0,0,0-2-1.62" fill="#0779b8"/>
              <path d="M5.58,21.9a4.34,4.34,0,0,0-1.66,3.78,10,10,0,0,0,.14,1.52l2.33.26a3.77,3.77,0,0,1-.06-.66,1.86,1.86,0,0,1,.84-1.75L5.58,21.9" fill="#005fa1"/>
              <path d="M6.39,27.46,4.06,27.2c.46,2.71,2.1,5.32,4.09,6.24a2.74,2.74,0,0,0,2.62,0L9.44,30.21a1.19,1.19,0,0,1-1.23.06,3.81,3.81,0,0,1-1.82-2.81" fill="#e98b2b"/>
              <path d="M10.26,23.45,9.05,25.7a4.27,4.27,0,0,1,.87,1.53l1.93-1a9.54,9.54,0,0,0-1.59-2.81" fill="#0f8bcb"/>
              <path d="M17.66,34a1.2,1.2,0,0,1-1.08.05l0,0a2.42,2.42,0,0,1-.74-.55L14.68,35.9a5.53,5.53,0,0,0,1.8,1.39l.23.1a2.61,2.61,0,0,0,2.62-.27L17.66,34" fill="#03adde"/>
              <path d="M20.63,31.65l-2.29-.09a4.62,4.62,0,0,1,.08.65A2,2,0,0,1,17.66,34l1.67,3.08a4.6,4.6,0,0,0,1.49-3.95,9.72,9.72,0,0,0-.19-1.52" fill="#46c1e0"/>
              <path d="M16.6,25.7l-.21-.09a2.65,2.65,0,0,0-2.57.23L15.23,29a1.19,1.19,0,0,1,1.21-.15l.08,0a3.81,3.81,0,0,1,1.82,2.7l2.29.09c-.53-2.63-2.13-5.08-4-5.95" fill="#e98b2b"/>
              <path d="M14.87,32,13,33.16a9.29,9.29,0,0,0,1.68,2.74l1.11-2.38A4,4,0,0,1,14.87,32" fill="#10a6db"/>
            </g>
          </g>
        </g>
      </g>
      <g>
        <polygon points="24.2 19.47 1.41 9.18 25.96 0.25 48.74 10.54 24.2 19.47" fill="#ebebeb"/>
        <g style="isolation: isolate">
          <g clip-path="url(#clip-path-2)">
            <g>
              <path d="M16.72,9.45a3.24,3.24,0,0,0-2,1.53l3.65.16a1.66,1.66,0,0,1,.88-.6,5,5,0,0,1,1.08-.24l-.77-1.44a11.19,11.19,0,0,0-2.8.59" fill="#0779b8"/>
              <path d="M14.68,11c-.29.77.21,1.59,1.59,2.21a8.21,8.21,0,0,0,1.27.43l2-1.23a3.42,3.42,0,0,1-.54-.18c-.67-.3-.89-.7-.68-1.07L14.68,11" fill="#005fa1"/>
              <path d="M19.55,12.39l-2,1.23a14.48,14.48,0,0,0,8-.21,3.35,3.35,0,0,0,2-1.49L24,11.59c-.08.27-.37.52-.91.72a6.4,6.4,0,0,1-3.58.08" fill="#e98b2b"/>
              <path d="M19.52,8.86l.77,1.44a7.15,7.15,0,0,1,1.85,0l.77-1.42a16,16,0,0,0-3.39,0" fill="#0f8bcb"/>
              <path d="M33.38,8.23a1.35,1.35,0,0,1-.8.63l-.06,0a4.78,4.78,0,0,1-1,.24l.94,1.42A11.08,11.08,0,0,0,34.94,10l.26-.1c1.09-.44,1.68-1,1.84-1.58l-3.66-.09" fill="#03adde"/>
              <path d="M33.88,5.75,32,7a4.59,4.59,0,0,1,.56.18c.7.28,1,.68.8,1L37,8.32c.2-.77-.39-1.57-1.85-2.16a8.36,8.36,0,0,0-1.31-.41" fill="#46c1e0"/>
              <path d="M26.2,6,26,6.11c-1.06.43-1.66,1-1.83,1.54l3.49.25c.06-.27.32-.53.83-.73l.1,0A6.56,6.56,0,0,1,32,7l1.86-1.26A14.42,14.42,0,0,0,26.2,6" fill="#e98b2b"/>
              <path d="M29.67,9.14l-.6,1.43a15.45,15.45,0,0,0,3.4,0l-.94-1.42a7.24,7.24,0,0,1-1.86,0" fill="#10a6db"/>
            </g>
          </g>
        </g>
      </g>
      <g>
        <polygon points="48.74 10.54 48.58 40.83 24.04 49.76 24.2 19.47 48.74 10.54" fill="#f0f0f0"/>
        <g style="isolation: isolate">
          <g clip-path="url(#clip-path-3)">
            <g>
              <path d="M31.91,26.12a6.72,6.72,0,0,0-3,2.39l1.79,1.78a2.89,2.89,0,0,1,1.21-.9,1.6,1.6,0,0,1,.88-.07L34.14,26a3.46,3.46,0,0,0-2.23.11" fill="#0779b8"/>
              <path d="M28.93,28.51a9.14,9.14,0,0,0-1.82,5.23,5.66,5.66,0,0,0,.16,1.4l2.59-1.75a2.43,2.43,0,0,1-.07-.61,4,4,0,0,1,.93-2.49l-1.79-1.78" fill="#005fa1"/>
              <path d="M29.86,33.39l-2.59,1.75c.52,2.34,2.35,3.54,4.57,2.73a6.78,6.78,0,0,0,2.92-2.3l-1.49-2.06a3,3,0,0,1-1.37,1.13,1.48,1.48,0,0,1-2-1.25" fill="#e98b2b"/>
              <path d="M34.14,26l-1.33,3.31a1.39,1.39,0,0,1,1,.78l2.14-2.65A3.19,3.19,0,0,0,34.14,26" fill="#0f8bcb"/>
              <path d="M42.42,30.25a3.21,3.21,0,0,1-1.2,1l0,0a1.76,1.76,0,0,1-.83.09L39.12,34.7a3.5,3.5,0,0,0,2-.16l.26-.1a7,7,0,0,0,2.91-2.55l-1.87-1.64" fill="#03adde"/>
              <path d="M45.71,25.27l-2.54,1.89a3.33,3.33,0,0,1,.09.59,4.07,4.07,0,0,1-.84,2.5l1.87,1.64a8.94,8.94,0,0,0,1.64-5.25,5.77,5.77,0,0,0-.22-1.37" fill="#46c1e0"/>
              <path d="M41.21,22.78l-.24.09a7,7,0,0,0-2.85,2.46l1.57,1.93A3.27,3.27,0,0,1,41,26.06l.1,0a1.48,1.48,0,0,1,2,1.14l2.54-1.89a3.27,3.27,0,0,0-4.5-2.49" fill="#e98b2b"/>
              <path d="M39.31,30.65,37.24,33.4a3.06,3.06,0,0,0,1.88,1.3l1.22-3.35a1.41,1.41,0,0,1-1-.7" fill="#10a6db"/>
            </g>
          </g>
        </g>
      </g>
    </g>
  </g>
</svg>
