<svg id="Capa_1" data-name="Capa 1" xmlns="http://www.w3.org/2000/svg" xmlns:xlink="http://www.w3.org/1999/xlink" width="50" height="50" viewBox="0 0 50 50">
  <defs>
    <clipPath id="clip-path">
      <polygon points="24.04 49.76 1.25 39.47 1.41 9.17 24.2 19.46 24.04 49.76" fill="none"/>
    </clipPath>
    <clipPath id="clip-path-2">
      <polygon points="24.2 19.46 1.41 9.17 25.96 0.24 48.75 10.53 24.2 19.46" fill="none"/>
    </clipPath>
    <clipPath id="clip-path-3">
      <polygon points="48.75 10.53 48.59 40.82 24.04 49.76 24.2 19.46 48.75 10.53" fill="none"/>
    </clipPath>
  </defs>
  <g id="Figment_lido">
    <g style="isolation: isolate">
      <g>
        <polygon points="24.04 49.76 1.25 39.47 1.41 9.17 24.2 19.46 24.04 49.76" fill="#d6d6d6"/>
        <g style="isolation: isolate">
          <g clip-path="url(#clip-path)">
            <g>
              <path d="M12.77,18.55c-4.43-2-8,1.28-8.07,7.31s3.55,12.53,8,14.52l0-4.17a1.27,1.27,0,0,0,0,.41,6.94,6.94,0,0,1,0,.79,1.25,1.25,0,0,1-.35-.37L9,32.87c-.43-.53-.42-1.67,0-1.87a.49.49,0,0,1,.44,0,1.29,1.29,0,0,1,.45.42c.83,1.07,1.68,2.11,2.54,3.15.08.1.14.26.25.3a.08.08,0,0,0,.08,0h0V32.75a.94.94,0,0,0,0,.39,7.45,7.45,0,0,1,0,.82c-1.27-1.55-2.53-3.12-3.8-4.67a.72.72,0,0,1-.18-.55c0-.2,0-.41,0-.62,0-.54.32-.78.68-.62a1,1,0,0,1,.34.29l2.64,3.27c.1.11.18.27.29.32l.06,0h0l0-2.11a1,1,0,0,0,0,.4,5.75,5.75,0,0,1,0,.83l-3.8-4.69a.65.65,0,0,1-.18-.49c0-.29,0-.59,0-.89s0-.27.16-.31c1.29-.4,2.54-.92,3.86-1.27l.05.06,0-4.34-.05,0" fill="#fda301"/>
              <path d="M12.82,18.58l0,4.34,3.91,4.87-1.65.57c-.67.22-1.32.46-2,.66a.42.42,0,0,0-.31.26l0,2.11c.91-.2,1.76-.57,2.65-.85.3-.1.46-.15.61-.08s.33.3.67.8l-2.48.85a11.58,11.58,0,0,1-1.14.36.42.42,0,0,0-.32.28v2.11A26.58,26.58,0,0,0,15.37,34,.7.7,0,0,1,16,34a1.84,1.84,0,0,1,.69.77l-2.36.8a11.08,11.08,0,0,1-1.23.41.43.43,0,0,0-.34.28l0,4.17c4.42,2,8-1.28,8.06-7.31s-3.52-12.48-7.93-14.49" fill="#fd4201"/>
              <path d="M12.75,22.86c-1.32.35-2.57.87-3.86,1.27-.12,0-.16.14-.16.31s0,.6,0,.89a.65.65,0,0,0,.18.49l3.8,4.69a5.75,5.75,0,0,0,0-.83,1,1,0,0,1,0-.4.42.42,0,0,1,.31-.26c.67-.2,1.32-.44,2-.66l1.65-.57L12.8,22.92l-.05-.06" fill="#fefdfc"/>
              <path d="M9.4,31A.49.49,0,0,0,9,31c-.41.2-.42,1.34,0,1.87L12.34,37a1.25,1.25,0,0,0,.35.37,6.94,6.94,0,0,0,0-.79,1.27,1.27,0,0,1,0-.41.43.43,0,0,1,.34-.28,11.08,11.08,0,0,0,1.23-.41l2.36-.8A1.84,1.84,0,0,0,16,34a.7.7,0,0,0-.58,0,26.58,26.58,0,0,1-2.65.89h0a.08.08,0,0,1-.08,0c-.11,0-.17-.2-.25-.3-.86-1-1.71-2.08-2.54-3.15A1.29,1.29,0,0,0,9.4,31" fill="#fefbf8"/>
              <path d="M16,30.46c-.15-.07-.31,0-.61.08-.89.28-1.74.65-2.65.85h0l-.06,0c-.11-.05-.19-.21-.29-.32L9.74,27.79a1,1,0,0,0-.34-.29c-.36-.16-.68.08-.68.62,0,.21,0,.42,0,.62a.72.72,0,0,0,.18.55c1.27,1.55,2.53,3.12,3.8,4.67a7.45,7.45,0,0,0,0-.82.94.94,0,0,1,0-.39.42.42,0,0,1,.32-.28,11.58,11.58,0,0,0,1.14-.36l2.48-.85c-.34-.5-.5-.72-.67-.8" fill="#fefbf8"/>
            </g>
          </g>
        </g>
      </g>
      <g>
        <polygon points="24.2 19.46 1.41 9.17 25.96 0.24 48.75 10.53 24.2 19.46" fill="#ebebeb"/>
        <g style="isolation: isolate">
          <g clip-path="url(#clip-path-2)">
            <g>
              <path d="M17.06,6.23c-4.89,1.77-5.25,4.84-.82,6.84s12,2.18,16.86.4l-3.05-1.39a.56.56,0,0,0,.28.15c.22.08.38.17.58.26a2.26,2.26,0,0,1-.53.07L24.7,13c-.72.07-1.55-.31-1.39-.6a.59.59,0,0,1,.32-.25,2.42,2.42,0,0,1,.66-.11c1.43-.1,2.85-.23,4.28-.36a1.84,1.84,0,0,0,.42,0,.18.18,0,0,0,.07,0h0l-1.55-.7a.6.6,0,0,0,.27.14,5.5,5.5,0,0,1,.6.28L22,11.9a1,1,0,0,1-.54-.08c-.15-.08-.31-.14-.46-.21-.39-.18-.32-.44.07-.58a1.78,1.78,0,0,1,.47-.09L26,10.57a2.05,2.05,0,0,0,.46-.06l.06,0h0L25,9.78a.5.5,0,0,0,.27.14c.22.08.39.19.6.28l-6.39.55a.87.87,0,0,1-.5-.07c-.21-.1-.43-.2-.66-.29s-.17-.11-.1-.19c.7-.84,1.27-1.7,2-2.54h.07L17.12,6.21l-.06,0" fill="#fda301"/>
              <path d="M17.12,6.21,20.3,7.66l6.61-.55-.85,1.1c-.35.44-.67.87-1,1.31-.08.1-.11.18,0,.26l1.54.7a21.94,21.94,0,0,0,1.41-1.74,1,1,0,0,1,.41-.36,4.58,4.58,0,0,1,1.11-.11L28.16,9.92c-.2.25-.38.5-.61.75-.09.1-.12.18,0,.26l1.55.7a21.55,21.55,0,0,0,1.38-1.75.89.89,0,0,1,.43-.32A3.23,3.23,0,0,1,32,9.44c-.42.52-.81,1-1.22,1.56a9.49,9.49,0,0,1-.65.8c-.1.11-.13.2-.05.28l3.05,1.39c4.88-1.77,5.25-4.84.82-6.84S22,4.45,17.12,6.21" fill="#fd4201"/>
              <path d="M20.23,7.66c-.77.84-1.34,1.7-2,2.54-.07.08,0,.13.1.19s.45.19.66.29a.87.87,0,0,0,.5.07l6.39-.55c-.21-.09-.38-.2-.6-.28A.5.5,0,0,1,25,9.78c-.07-.08,0-.16,0-.26.38-.44.7-.87,1-1.31l.85-1.1-6.61.55h-.07" fill="#fefdfc"/>
              <path d="M23.63,12.18a.59.59,0,0,0-.32.25c-.16.29.67.67,1.39.6l5.68-.47a2.26,2.26,0,0,0,.53-.07c-.2-.09-.36-.18-.58-.26a.56.56,0,0,1-.28-.15c-.08-.08-.05-.17.05-.28a9.49,9.49,0,0,0,.65-.8c.41-.52.8-1,1.22-1.56a3.23,3.23,0,0,0-1.1.12.89.89,0,0,0-.43.32,21.55,21.55,0,0,1-1.38,1.75h0a.18.18,0,0,1-.07,0,1.84,1.84,0,0,1-.42,0c-1.43.13-2.85.26-4.28.36a2.42,2.42,0,0,0-.66.11" fill="#fefbf8"/>
              <path d="M28.33,8.38a1,1,0,0,0-.41.36,21.94,21.94,0,0,1-1.41,1.74h0l-.06,0a2.05,2.05,0,0,1-.46.06l-4.45.37a1.78,1.78,0,0,0-.47.09c-.39.14-.46.4-.07.58.15.07.31.13.46.21a1,1,0,0,0,.54.08l6.38-.55a5.5,5.5,0,0,0-.6-.28.6.6,0,0,1-.27-.14c-.08-.08-.05-.16,0-.26.23-.25.41-.5.61-.75l1.28-1.65a4.58,4.58,0,0,0-1.11.11" fill="#fefbf8"/>
            </g>
          </g>
        </g>
      </g>
      <g>
        <polygon points="48.75 10.53 48.59 40.82 24.04 49.76 24.2 19.46 48.75 10.53" fill="#f0f0f0"/>
        <g style="isolation: isolate">
          <g clip-path="url(#clip-path-3)">
            <g>
              <path d="M36.45,19.23c-4.88,1.78-8.87,8.1-8.9,14.13s3.9,9.47,8.79,7.69l0-4.17a1,1,0,0,0,0,.43,6.76,6.76,0,0,1,0,.78c-.15,0-.26,0-.38-.07l-3.71-1.3c-.47-.17-.46-1.3,0-1.84a1.12,1.12,0,0,1,.49-.4.67.67,0,0,1,.5,0c.91.37,1.85.67,2.8,1,.08,0,.16.13.27.09l.09-.06h0l0-2.12a.92.92,0,0,0,0,.41,5.78,5.78,0,0,1,0,.83l-4.19-1.43C32,33.16,32,33,32,32.83s0-.42,0-.63A1.29,1.29,0,0,1,32.72,31a.53.53,0,0,1,.39,0L36,32c.11,0,.19.13.32.08l.06,0,0,0V29.94a1,1,0,0,0,0,.42c0,.26,0,.55,0,.83l-4.19-1.43c-.14-.05-.21-.14-.2-.34s0-.6,0-.89a.64.64,0,0,1,.18-.44c1.42-1.5,2.8-3.08,4.25-4.54l0,0,0-4.35h-.06" fill="#fda301"/>
              <path d="M36.51,19.22l0,4.35,4.31,1.53c-.64.68-1.22,1.32-1.82,2s-1.45,1.58-2.19,2.34a1.4,1.4,0,0,0-.35.53v2.11c1-1,1.94-2.06,2.91-3.09.34-.35.51-.54.68-.6s.36,0,.74.22l-2.74,3c-.42.45-.82.91-1.25,1.33a1.12,1.12,0,0,0-.35.54l0,2.12c1-1.05,2-2.05,2.92-3.14a1.66,1.66,0,0,1,.64-.51.75.75,0,0,1,.76.18l-2.6,2.8c-.45.49-.9,1-1.36,1.45a1.34,1.34,0,0,0-.37.57l0,4.17c4.88-1.77,8.86-8.1,8.89-14.12s-3.87-9.44-8.72-7.71" fill="#fd4201"/>
              <path d="M36.42,23.55c-1.45,1.46-2.83,3-4.25,4.54a.64.64,0,0,0-.18.44c0,.29,0,.59,0,.89s.06.29.2.34l4.19,1.43c0-.28,0-.57,0-.83a1,1,0,0,1,0-.42,1.4,1.4,0,0,1,.35-.53c.74-.76,1.46-1.56,2.19-2.34s1.18-1.29,1.82-2l-4.31-1.53,0,0" fill="#fefdfc"/>
              <path d="M32.72,34.48a1.12,1.12,0,0,0-.49.4c-.44.54-.45,1.67,0,1.84L36,38c.12,0,.23.12.38.07a6.76,6.76,0,0,0,0-.78,1,1,0,0,1,0-.43,1.34,1.34,0,0,1,.37-.57c.46-.46.91-1,1.36-1.45l2.6-2.8a.75.75,0,0,0-.76-.18,1.66,1.66,0,0,0-.64.51c-.93,1.09-1.94,2.09-2.92,3.14h0l-.09.06c-.11,0-.19-.06-.27-.09-1-.32-1.89-.62-2.8-1a.67.67,0,0,0-.5,0" fill="#fefbf8"/>
              <path d="M40,28.36c-.17.06-.34.25-.68.6-1,1-1.91,2.12-2.91,3.09l0,0-.06,0c-.13,0-.21,0-.32-.08l-2.9-1a.53.53,0,0,0-.39,0A1.29,1.29,0,0,0,32,32.2c0,.21,0,.41,0,.63s0,.33.2.39l4.19,1.43a5.78,5.78,0,0,0,0-.83.92.92,0,0,1,0-.41,1.12,1.12,0,0,1,.35-.54c.43-.42.83-.88,1.25-1.33l2.74-3c-.38-.2-.55-.29-.74-.22" fill="#fefbf8"/>
            </g>
          </g>
        </g>
      </g>
    </g>
  </g>
</svg>
