<svg id="Capa_1" data-name="Capa 1" xmlns="http://www.w3.org/2000/svg" xmlns:xlink="http://www.w3.org/1999/xlink" width="50" height="50" viewBox="0 0 50 50">
  <defs>
    <clipPath id="clip-path">
      <polygon points="24.04 49.76 1.25 39.47 1.41 9.17 24.2 19.46 24.04 49.76" fill="none"/>
    </clipPath>
    <clipPath id="clip-path-2">
      <polygon points="24.2 19.46 1.41 9.17 25.96 0.24 48.74 10.53 24.2 19.46" fill="none"/>
    </clipPath>
    <clipPath id="clip-path-3">
      <polygon points="48.74 10.53 48.59 40.82 24.04 49.76 24.2 19.46 48.74 10.53" fill="none"/>
    </clipPath>
  </defs>
  <g id="Figment_lido">
    <g style="isolation: isolate">
      <g>
        <polygon points="24.04 49.76 1.25 39.47 1.41 9.17 24.2 19.46 24.04 49.76" fill="#d6d6d6"/>
        <g style="isolation: isolate">
          <g clip-path="url(#clip-path)">
            <g>
              <path d="M12.41,30.17c0-.38.24-.59.53-.46a1.07,1.07,0,0,1,.5.92.56.56,0,0,1-.15.42.32.32,0,0,1-.2.08.51.51,0,0,1-.17,0h0a1.07,1.07,0,0,1-.51-.92m-1-3.54a7,7,0,0,0-.6,3,11.1,11.1,0,0,0,.45,3.12l.15,0a3.32,3.32,0,0,0,3.34-1.34.3.3,0,0,0,.08-.2.68.68,0,0,0-.08-.26,14.43,14.43,0,0,0-1.57-2.62,7.21,7.21,0,0,0-1.77-1.73" fill="#9be52c"/>
              <path d="M16,24.91a3.2,3.2,0,0,0-4,.74,9.74,9.74,0,0,1,1.87,2A18.68,18.68,0,0,1,16,31.56a.6.6,0,0,1,.06.24A.38.38,0,0,1,16,32a4.42,4.42,0,0,1-3.45,2.38,4.53,4.53,0,0,1-.73,0A9.1,9.1,0,0,0,15.94,39c2.86,1.29,5.19-.82,5.21-4.71S18.86,26.2,16,24.91" fill="#9ce62d"/>
              <path d="M10.79,24.88a4.88,4.88,0,0,0-1.43-.4A3.86,3.86,0,0,0,6,25.9C6,26,5.94,26,5.9,26s-.06-.08-.11-.21a22.64,22.64,0,0,1-.66-2.51,1.1,1.1,0,0,0-.48-.8.27.27,0,0,0-.12,0c-.28,0-.42.33-.32.81a20.82,20.82,0,0,0,.93,3.39.57.57,0,0,1,0,.54,9.78,9.78,0,0,0-1,2.52,1.14,1.14,0,0,0,.33,1,.55.55,0,0,0,.14.09c.2.09.38,0,.46-.3a10.46,10.46,0,0,1,.66-1.86c.05-.1.09-.14.13-.12a.53.53,0,0,1,.13.21,14.56,14.56,0,0,0,2.29,3.43A7.59,7.59,0,0,0,10.73,34a4.62,4.62,0,0,0,.86.3l.2,0a12.42,12.42,0,0,1-.55-1.55l-.34-.11-.15-.06a8.14,8.14,0,0,1-3.29-3.22,18,18,0,0,1-.88-1.62c-.07-.15-.1-.26,0-.35A3.45,3.45,0,0,1,9.69,26a3,3,0,0,1,1,.26l.28.14c.15.08.3.16.45.26a4.32,4.32,0,0,1,.62-1c-.12-.11-.25-.2-.38-.3a5.06,5.06,0,0,0-.84-.47"/>
              <path d="M12,25.65a4.32,4.32,0,0,0-.62,1,7.21,7.21,0,0,1,1.77,1.73A14.43,14.43,0,0,1,14.73,31a.68.68,0,0,1,.08.26.3.3,0,0,1-.08.2,3.32,3.32,0,0,1-3.34,1.34l-.15,0a12.42,12.42,0,0,0,.55,1.55,4.53,4.53,0,0,0,.73,0A4.42,4.42,0,0,0,16,32a.38.38,0,0,0,0-.15.6.6,0,0,0-.06-.24,18.68,18.68,0,0,0-2.08-3.91,9.74,9.74,0,0,0-1.87-2"/>
              <path d="M12.94,29.71c-.29-.13-.53.08-.53.46a1.07,1.07,0,0,0,.51.92h0a.51.51,0,0,0,.17,0,.32.32,0,0,0,.2-.08.56.56,0,0,0,.15-.42,1.07,1.07,0,0,0-.5-.92"/>
            </g>
          </g>
        </g>
      </g>
      <g>
        <polygon points="24.2 19.46 1.41 9.17 25.96 0.24 48.74 10.53 24.2 19.46" fill="#ebebeb"/>
        <g style="isolation: isolate">
          <g clip-path="url(#clip-path-2)">
            <g>
              <path d="M25.15,10c-.28-.13-.26-.33.07-.45a1.69,1.69,0,0,1,1.09,0c.14.06.21.14.2.22a.22.22,0,0,1-.1.14.48.48,0,0,1-.16.08h0a1.72,1.72,0,0,1-1.1,0m-3.47-.62a4,4,0,0,0,1.78,1.34,11.41,11.41,0,0,0,2.7.8l.16-.07C27.64,10.75,28,10,27.93,9.11a.11.11,0,0,0-.09-.1.68.68,0,0,0-.25,0,24.56,24.56,0,0,0-3.21,0,14.44,14.44,0,0,0-2.7.41" fill="#9be52c"/>
              <path d="M24,6.21c-1.79.65-2.66,1.57-2.57,2.48a18.26,18.26,0,0,1,3-.37A30.46,30.46,0,0,1,29,8.46a.75.75,0,0,1,.22.06s.07,0,.08.07a2.24,2.24,0,0,1-.91,2.74,7.11,7.11,0,0,1-.61.39A16.75,16.75,0,0,0,34.58,11c3.22-1.17,3.46-3.19.54-4.51A17,17,0,0,0,24,6.21" fill="#9ce62d"/>
              <path d="M19.89,9.12a7.49,7.49,0,0,0-1.42.67,2.6,2.6,0,0,0-1.55,2.34s0,.08,0,.1a.74.74,0,0,1-.25,0c-.84-.13-1.65-.29-2.41-.48a1.94,1.94,0,0,0-1,0l-.11.06c-.23.15-.08.34.35.45a24.62,24.62,0,0,0,3.29.62c.25,0,.36.08.41.19a4.32,4.32,0,0,0,1.14,1.38,1.42,1.42,0,0,0,1,.15l.18,0c.23-.09.3-.22.14-.36a4.71,4.71,0,0,1-.88-1c0-.06,0-.09,0-.11H19A24.54,24.54,0,0,0,23.42,13a15.45,15.45,0,0,0,3.28-.74c.31-.12.61-.24.9-.38l.17-.11c-.55-.05-1.09-.12-1.61-.21l-.34.16-.17.06a15.71,15.71,0,0,1-5,.76c-.64,0-1.27,0-1.9-.05-.17,0-.28,0-.28-.11a2.29,2.29,0,0,1,1.38-2.23,5.34,5.34,0,0,1,1-.45l.33-.11.55-.17a1.42,1.42,0,0,1-.25-.68l-.53.12a8.58,8.58,0,0,0-1,.31"/>
              <path d="M21.43,8.69a1.42,1.42,0,0,0,.25.68A14.44,14.44,0,0,1,24.38,9a24.56,24.56,0,0,1,3.21,0,.68.68,0,0,1,.25,0,.11.11,0,0,1,.09.1c.07.85-.29,1.64-1.61,2.33l-.16.07c.52.09,1.06.16,1.61.21a7.11,7.11,0,0,0,.61-.39,2.24,2.24,0,0,0,.91-2.74s0-.05-.08-.07A.75.75,0,0,0,29,8.46a30.46,30.46,0,0,0-4.59-.14,18.26,18.26,0,0,0-3,.37"/>
              <path d="M25.22,9.54c-.33.12-.35.32-.07.45a1.72,1.72,0,0,0,1.1,0h0a.48.48,0,0,0,.16-.08.22.22,0,0,0,.1-.14c0-.08-.06-.16-.2-.22a1.69,1.69,0,0,0-1.09,0"/>
            </g>
          </g>
        </g>
      </g>
      <g>
        <polygon points="48.74 10.53 48.59 40.82 24.04 49.76 24.2 19.46 48.74 10.53" fill="#f0f0f0"/>
        <g style="isolation: isolate">
          <g clip-path="url(#clip-path-3)">
            <g>
              <path d="M36.07,31a1,1,0,0,1,.57-.89c.3-.11.55.11.55.48a1,1,0,0,1-.17.54,1.12,1.12,0,0,1-.22.26.61.61,0,0,1-.18.09h0c-.3.1-.56-.12-.55-.49M35,28.35a10.06,10.06,0,0,0-.65,3.46,7,7,0,0,0,.48,2.69l.18-.09a10.4,10.4,0,0,0,3.64-4.13.59.59,0,0,0,.08-.25.25.25,0,0,0-.09-.19,4.53,4.53,0,0,0-1.7-1.27A3.34,3.34,0,0,0,35,28.35" fill="#9be52c"/>
              <path d="M40,22.78a8.68,8.68,0,0,0-4.35,4.08,4,4,0,0,1,2,.4,5.89,5.89,0,0,1,2.28,2.11.33.33,0,0,1,.06.19.58.58,0,0,1-.06.19A14.28,14.28,0,0,1,36.19,35c-.27.22-.54.39-.8.57a3.76,3.76,0,0,0,4.52,1.16c3.12-1.13,5.66-5.17,5.68-9S43.1,21.64,40,22.78" fill="#9ce62d"/>
              <path d="M34.3,27.13a7.27,7.27,0,0,0-1.56.81,12.18,12.18,0,0,0-3.63,4.2.5.5,0,0,1-.14.18s-.07,0-.12-.12a9.76,9.76,0,0,1-.72-1.92c-.09-.33-.3-.47-.53-.39a.46.46,0,0,0-.13.08A1,1,0,0,0,27.12,31a9.19,9.19,0,0,0,1,2.55.57.57,0,0,1,0,.54,18.67,18.67,0,0,0-1.05,3.28c-.09.4.07.72.36.73a.4.4,0,0,0,.15,0,.93.93,0,0,0,.5-.68A18.77,18.77,0,0,1,28.83,35c.05-.14.09-.21.13-.23s.09,0,.15.09a4.7,4.7,0,0,0,2.49,1.47,4.8,4.8,0,0,0,2.63-.23,7.07,7.07,0,0,0,.94-.43l.22-.15a5,5,0,0,1-.61-1.06l-.37.18-.16.06a3.77,3.77,0,0,1-3.58-.41,4.84,4.84,0,0,1-1-.85.25.25,0,0,1,0-.34,11.19,11.19,0,0,1,3.41-4,5.3,5.3,0,0,1,1-.55l.31-.09a3.24,3.24,0,0,1,.49-.13,11.15,11.15,0,0,1,.68-1.49l-.41,0a5,5,0,0,0-.92.24"/>
              <path d="M35.63,26.86A11.15,11.15,0,0,0,35,28.35a3.34,3.34,0,0,1,1.94.22,4.53,4.53,0,0,1,1.7,1.27.25.25,0,0,1,.09.19.59.59,0,0,1-.08.25A10.4,10.4,0,0,1,35,34.41l-.18.09a5,5,0,0,0,.61,1.06c.26-.18.53-.35.8-.57a14.28,14.28,0,0,0,3.75-5.24.58.58,0,0,0,.06-.19.33.33,0,0,0-.06-.19,5.89,5.89,0,0,0-2.28-2.11,4,4,0,0,0-2-.4"/>
              <path d="M36.64,30.09a1,1,0,0,0-.57.89c0,.37.25.59.55.49h0a.61.61,0,0,0,.18-.09,1.12,1.12,0,0,0,.22-.26,1,1,0,0,0,.17-.54c0-.37-.25-.59-.55-.48"/>
            </g>
          </g>
        </g>
      </g>
    </g>
  </g>
</svg>
