<svg id="Capa_1" data-name="Capa 1" xmlns="http://www.w3.org/2000/svg" xmlns:xlink="http://www.w3.org/1999/xlink" width="50" height="50" viewBox="0 0 50 50">
  <defs>
    <clipPath id="clip-path">
      <polygon points="24.04 49.76 1.26 39.47 1.42 9.17 24.2 19.46 24.04 49.76" fill="none"/>
    </clipPath>
    <clipPath id="clip-path-2">
      <polygon points="24.2 19.46 1.42 9.17 25.96 0.24 48.75 10.53 24.2 19.46" fill="none"/>
    </clipPath>
    <clipPath id="clip-path-3">
      <polygon points="48.75 10.53 48.59 40.82 24.04 49.76 24.2 19.46 48.75 10.53" fill="none"/>
    </clipPath>
  </defs>
  <g id="Figment_lido">
    <g style="isolation: isolate">
      <g>
        <polygon points="24.04 49.76 1.26 39.47 1.42 9.17 24.2 19.46 24.04 49.76" fill="#d6d6d6"/>
        <g style="isolation: isolate">
          <g clip-path="url(#clip-path)">
            <g>
              <path d="M15.71,32.45q-1.48,1.36-3,2.76l-3-5.37L8,31.44q2.36,4.25,4.72,8.48l4.69-4.36c-.58-1-1.16-2.07-1.74-3.11" fill="#f3ba2f"/>
              <path d="M12.71,19,8,23.36c.57,1,1.15,2.08,1.73,3.12l3-2.76,3,5.36,1.72-1.6L12.71,19" fill="#f3ba2f"/>
              <path d="M12.73,27.08,11,28.7l1.75,3.15,1.74-1.62-1.75-3.15" fill="#f3ba2f"/>
              <path d="M6.77,24.52,5.06,26.11l1.73,3.1L8.5,27.62c-.57-1-1.15-2.07-1.73-3.1" fill="#f3ba2f"/>
              <path d="M18.67,29.73,17,31.31l1.72,3.1,1.72-1.59-1.73-3.09" fill="#f3ba2f"/>
            </g>
          </g>
        </g>
      </g>
      <g>
        <polygon points="24.2 19.46 1.42 9.17 25.96 0.24 48.75 10.53 24.2 19.46" fill="#ebebeb"/>
        <g style="isolation: isolate">
          <g clip-path="url(#clip-path-2)">
            <g>
              <path d="M29.59,9.21l-.3,2.54L23,11.6c-.05.5-.1,1-.16,1.47l9.89.24.48-4-3.64-.09" fill="#f3ba2f"/>
              <path d="M17.42,6.39l-.48,4,3.63.09.31-2.55,6.25.15c.06-.49.13-1,.18-1.47l-9.89-.23" fill="#f3ba2f"/>
              <path d="M23.34,9.06c-.06.5-.13,1-.18,1.49l3.67.08L27,9.15l-3.67-.09" fill="#f3ba2f"/>
              <path d="M16.81,11.46l-.17,1.47,3.61.08c.05-.49.12-1,.18-1.46l-3.62-.09" fill="#f3ba2f"/>
              <path d="M29.92,6.69l-.18,1.46,3.61.09.18-1.46-3.61-.09" fill="#f3ba2f"/>
            </g>
          </g>
        </g>
      </g>
      <g>
        <polygon points="48.75 10.53 48.59 40.82 24.04 49.76 24.2 19.46 48.75 10.53" fill="#f0f0f0"/>
        <g style="isolation: isolate">
          <g clip-path="url(#clip-path-3)">
            <g>
              <path d="M39.67,30.62l-3.31,5.25L33.1,33l-1.91,3,5.15,4.52,5.22-8.29c-.63-.54-1.26-1.1-1.89-1.66" fill="#f3ba2f"/>
              <path d="M36.45,19.71C34.72,22.47,33,25.24,31.23,28l1.9,1.66,3.3-5.25,3.26,2.85c.64-1,1.28-2,1.91-3l-5.15-4.52" fill="#f3ba2f"/>
              <path d="M36.41,27.77l-1.93,3.06c.63.57,1.28,1.12,1.91,1.68.64-1,1.29-2,1.93-3.07l-1.91-1.67" fill="#f3ba2f"/>
              <path d="M29.85,30.19l-1.9,3,1.88,1.64,1.91-3-1.89-1.65" fill="#f3ba2f"/>
              <path d="M43,25.42l-1.9,3,1.88,1.65,1.9-3L43,25.42" fill="#f3ba2f"/>
            </g>
          </g>
        </g>
      </g>
    </g>
  </g>
</svg>
