<svg id="Capa_1" data-name="Capa 1" xmlns="http://www.w3.org/2000/svg" xmlns:xlink="http://www.w3.org/1999/xlink" width="50" height="50" viewBox="0 0 50 50">
  <defs>
    <clipPath id="clip-path">
      <polygon points="24.05 49.76 1.26 39.47 1.42 9.17 24.2 19.46 24.05 49.76" fill="none"/>
    </clipPath>
    <clipPath id="clip-path-2">
      <polygon points="24.2 19.46 1.42 9.17 25.96 0.24 48.75 10.53 24.2 19.46" fill="none"/>
    </clipPath>
    <clipPath id="clip-path-3">
      <polygon points="48.75 10.53 48.59 40.82 24.05 49.76 24.2 19.46 48.75 10.53" fill="none"/>
    </clipPath>
  </defs>
  <g id="Figment_lido">
    <g style="isolation: isolate">
      <g>
        <polygon points="24.05 49.76 1.26 39.47 1.42 9.17 24.2 19.46 24.05 49.76" fill="#5d8bb5"/>
        <g style="isolation: isolate">
          <g clip-path="url(#clip-path)">
            <g>
              <path d="M8.69,19.51l-1,.35a.25.25,0,0,0,.14.13l.1,0L12.3,22l.1.05a.12.12,0,0,0,.14,0,12.35,12.35,0,0,0-1-1.22c0,.11-.14.08-.23,0l0,0L9,19.81l0,0a.39.39,0,0,1-.24-.28" fill="#fff"/>
              <path d="M14.58,24.54c0,.05-.1,0-.16,0l-.13-.07L5.93,20.77l-.14-.05a.44.44,0,0,1-.16-.15.42.42,0,0,0-.28.1.26.26,0,0,0,.16.15l.13.05,4.47,2,4.46,2,.14.07a.12.12,0,0,0,.16,0,1.42,1.42,0,0,0-.29-.35" fill="#fff"/>
              <path d="M10.11,19A.13.13,0,0,0,10,19l-1.3.47a.39.39,0,0,0,.24.28l0,0,2.29,1,0,0c.09,0,.18.07.23,0-.4-.57-.84-1.08-1.26-1.62a.48.48,0,0,0-.16-.14" fill="#fff"/>
              <path d="M14.3,24.19a.13.13,0,0,1-.16,0L14,24.12,10.11,22.4l-3.9-1.74-.14-.05a.32.32,0,0,1-.15-.14.38.38,0,0,0-.29.1.44.44,0,0,0,.16.15l.14.05,8.36,3.71.13.07c.06,0,.12,0,.16,0a1.66,1.66,0,0,0-.28-.35" fill="#fff"/>
              <path d="M14,23.84a.16.16,0,0,1-.15,0l-.12-.06-3.64-1.61L6.47,20.55l-.12-.05a.35.35,0,0,1-.15-.13l-.28.1a.32.32,0,0,0,.15.14l.14.05,3.9,1.74L14,24.12l.14.07a.13.13,0,0,0,.16,0L14,23.84" fill="#fff"/>
              <path d="M15.79,38,15.64,38l-2.27-1-2.26-1c-.14,0-.33,0-.27.34a.3.3,0,0,1,.27,0l4.12,1.83.1,0a.25.25,0,0,1,.14.13c.18,0,.31-.07.46-.12a.3.3,0,0,0-.14-.21" fill="#fff"/>
              <path d="M5.37,34.11c-.08,0-.16,0-.21.06l.46.57a.2.2,0,0,1,.15,0l.15.08,3.42,1.51V36a.45.45,0,0,0-.28-.28h0l-1.2-.53L5.46,34.15l-.09,0" fill="#fff"/>
              <path d="M13.68,23.43a.11.11,0,0,1-.15,0l-.14-.07-3.28-1.46L6.83,20.47l-.14,0a.26.26,0,0,1-.15-.16l-.34.11a.35.35,0,0,0,.15.13l.12.05,3.64,1.62,3.64,1.61.12.06a.16.16,0,0,0,.15,0l-.34-.41" fill="#fff"/>
              <path d="M8.92,35.31,5,33.58c-.13-.06-.25-.1-.33,0a5.44,5.44,0,0,0,.46.57c0-.11.13-.09.21-.06l.09,0,2.39,1.07,1.2.53h0a.45.45,0,0,1,.28.28v-.31a.73.73,0,0,0-.42-.41" fill="#fff"/>
              <path d="M11.12,36.66c-.15-.06-.23,0-.28.11v.16l2.33,1,1.16.52.13.05a.33.33,0,0,1,.16.15c.16,0,.25-.13.4-.13a.36.36,0,0,0-.23-.25l0,0-1.81-.8-1.82-.82" fill="#fff"/>
              <path d="M14.87,24.89a.12.12,0,0,1-.16,0l-.14-.07-4.46-2-4.47-2-.13-.05a.26.26,0,0,1-.16-.15l-.22.07a.33.33,0,0,0,.15.14l.14.05,2.05.91,2.05.91.07,0A.72.72,0,0,1,9.9,23a.3.3,0,0,1,.21,0,.63.63,0,0,1,.21.17c.1,0,.2,0,.32,0l.06,0,2.05.91,2,.91.15.08a.14.14,0,0,0,.15,0l-.22-.27" fill="#fff"/>
              <path d="M3.75,32.23a.15.15,0,0,0-.17,0l.51.61c0-.12.08-.12.14-.1l.14.08,2,.88,2,.89a1.26,1.26,0,0,0,.44.12,1.37,1.37,0,0,0-.31-.39l-4.56-2-.16-.08" fill="#fff"/>
              <path d="M8.07,33.84,3.3,31.73c0,.26.17.35.28.5a.15.15,0,0,1,.17,0l.16.08,4.56,2a1.93,1.93,0,0,0-.4-.48" fill="#fff"/>
              <path d="M12.11,35.63a.53.53,0,0,0-.32.1,1.84,1.84,0,0,0,.45.28l1.7.75,2.31,1a.59.59,0,0,1,.14.06.3.3,0,0,1,.16.14c.14,0,.33.06.33-.23l-4.77-2.13" fill="#fff"/>
              <path d="M13,22.59c-.05.06-.1.05-.16,0l-.13-.06-2.6-1.16-2.6-1.16-.13,0A.3.3,0,0,1,7.22,20a.8.8,0,0,0-.34.11.35.35,0,0,0,.15.13l.13,0,2.95,1.31,3,1.31.13.07a.14.14,0,0,0,.14,0,1.91,1.91,0,0,0-.33-.41" fill="#fff"/>
              <path d="M15.33,38.23l-.1,0-4.12-1.83a.3.3,0,0,0-.27,0v.46c.05-.15.13-.17.28-.11l1.82.82,1.81.8,0,0a.36.36,0,0,1,.23.25.76.76,0,0,0,.45-.19.25.25,0,0,0-.14-.13" fill="#fff"/>
              <path d="M3.3,31.42v.31l4.77,2.11a1.89,1.89,0,0,0-.36-.46l-4.41-2" fill="#fff"/>
              <path d="M13.62,35.1l-.42.15a.31.31,0,0,0,.18.19l.06,0,.08,0,1.12.5,2.25,1V36.6l-3-1.32-.15-.05a.36.36,0,0,1-.15-.13" fill="#fff"/>
              <path d="M6.46,31.84a.16.16,0,0,1-.15,0l-.14-.08L3.3,30.5v.38L7,32.51a4.05,4.05,0,0,0-.54-.67" fill="#fff"/>
              <path d="M12.8,35.4a.41.41,0,0,0-.32.1.62.62,0,0,0,.25.19l.1,0,4.06,1.8v-.31L12.8,35.4" fill="#fff"/>
              <path d="M11.1,37.2c-.23-.11-.22.08-.22.29l1.34.59,1.34.6.13,0c.06,0,.12.08.14.22.2,0,.32-.17.51-.17a.23.23,0,0,0-.14-.2l-.06,0-1.52-.67L11.1,37.2h0" fill="#fff"/>
              <path d="M8.48,23.22l-.09,0L4.27,21.35a2.37,2.37,0,0,0,.4.48l3.79,1.69a.52.52,0,0,0,.29-.11.75.75,0,0,0-.27-.19" fill="#fff"/>
              <path d="M11.9,24.73a1.19,1.19,0,0,0-.43-.11,1.45,1.45,0,0,0,.28.36l3.8,1.68a.76.76,0,0,0,.39-.13l-2.67-1.18-1.33-.6,0,0" fill="#fff"/>
              <path d="M9,36.36H9L7.76,35.8l-1.51-.68-.08,0c-.09,0-.17-.06-.21,0l.45.58a.13.13,0,0,1,.2,0l.13.06L9.3,36.86a.41.41,0,0,0-.26-.5" fill="#fff"/>
              <path d="M12.54,22a.12.12,0,0,1-.14,0L12.3,22,7.92,20l-.1,0a.25.25,0,0,1-.14-.13l-.29.1a.32.32,0,0,0,.15.14l.12,0,2.45,1.09,2.45,1.08a.67.67,0,0,0,.12.06.12.12,0,0,0,.15,0L12.54,22" fill="#fff"/>
              <path d="M9.15,35.16l-4.53-2-.14-.08a.13.13,0,0,0-.17,0,2.72,2.72,0,0,0,.39.48c.08-.12.2-.08.33,0l3.89,1.73a.73.73,0,0,1,.42.41.51.51,0,0,0-.19-.56" fill="#fff"/>
              <path d="M7,32.51,3.3,30.88v.31L7,32.82l.11,0c.08,0,.15.06.22,0a1.15,1.15,0,0,0-.3-.38" fill="#fff"/>
              <path d="M14.17,34.92a1.78,1.78,0,0,0-.55.18.36.36,0,0,0,.15.13l.15.05,3,1.32v-.38l-2.43-1.08-.13,0a.3.3,0,0,1-.16-.17" fill="#fff"/>
              <path d="M16.89,29.66l0,0v.53c0,.29-.08.29-.25.21l-1.32-.59-.88-.39c0,.15,0,.31,0,.46L16.84,31c0-.1,0-.23.05-.28v-1" fill="#fff"/>
              <path d="M16.18,38l-.11-.05L11.4,35.87a.45.45,0,0,0-.29.1l2.26,1,2.27,1,.15.05a.3.3,0,0,1,.14.21l.39-.13a.26.26,0,0,0-.14-.12" fill="#fff"/>
              <path d="M11.79,35.73a.8.8,0,0,0-.39.14l4.67,2.07.11.05a.26.26,0,0,1,.14.12c.1,0,.15-.09.23-.12a.3.3,0,0,0-.16-.14.59.59,0,0,0-.14-.06l-2.31-1L12.24,36a1.84,1.84,0,0,1-.45-.28" fill="#fff"/>
              <path d="M4.84,20.84a.43.43,0,0,0-.28.11.3.3,0,0,0,.16.14l.14.05L9,23l.15.05a.35.35,0,0,1,.17.17.59.59,0,0,0,.4-.14l-4.55-2L5,21a.44.44,0,0,1-.16-.15" fill="#fff"/>
              <path d="M15.37,25.52s-.1,0-.16,0l-.16-.08-4.55-2a2.51,2.51,0,0,0,.4.5.13.13,0,0,1,.17,0l.14.08,4.15,1.84.14.07a.18.18,0,0,0,.16,0c-.12-.08-.16-.3-.29-.36" fill="#fff"/>
              <path d="M8.78,34.71a1.26,1.26,0,0,1-.44-.12l-2-.89-2-.88-.14-.08c-.06,0-.12,0-.14.1l.22.28a.13.13,0,0,1,.17,0l.14.08,4.53,2a1.82,1.82,0,0,0-.37-.45" fill="#fff"/>
              <path d="M5.91,31.17c0,.06-.1.06-.17,0l-.14-.08-1.15-.5-1.14-.51v.39l2.87,1.26.14.08a.16.16,0,0,0,.15,0,6.14,6.14,0,0,0-.55-.67" fill="#fff"/>
              <path d="M3.31,26.1v.62a.58.58,0,0,0,.36.55l0,0,.89.38,1.2.53v-.46l-1.24-.55-.93-.4h0a.42.42,0,0,1-.25-.51c0-.06,0-.12,0-.17" fill="#fff"/>
              <path d="M3.31,25.48v.62s0,.11,0,.17L5.8,27.35v-.46l-2.2-1a.2.2,0,0,0-.08,0c-.09,0-.17-.1-.16-.3l0-.1" fill="#fff"/>
              <path d="M9.05,37H9l-.9-.39-1-.46c-.14-.06-.27-.12-.36,0a4.35,4.35,0,0,0,.45.57.62.62,0,0,1,.32.07l.16.08.15.08.07,0,.18.08.26.12.25.11a2.55,2.55,0,0,0,.35.14l.07,0a.57.57,0,0,1,.33.54v-.54A.52.52,0,0,0,9.05,37" fill="#fff"/>
              <path d="M4.56,21a.38.38,0,0,0-.29.09.28.28,0,0,0,.16.15l.13,0,4.58,2,.18-.07A.35.35,0,0,0,9.15,23L9,23,4.86,21.14l-.14-.05A.3.3,0,0,1,4.56,21" fill="#fff"/>
              <path d="M15.66,25.88a.18.18,0,0,1-.16,0l-.14-.07L11.21,24l-.14-.08a.13.13,0,0,0-.17,0l.17.22,4.58,2,.14.07a.12.12,0,0,0,.15,0,1.06,1.06,0,0,0-.28-.34" fill="#fff"/>
              <path d="M5.13,20.74l-.29.1A.44.44,0,0,0,5,21l.17.06,4.55,2A.15.15,0,0,0,9.9,23a.72.72,0,0,0-.31-.23l-.07,0-2-.91-2-.91-.14-.05a.33.33,0,0,1-.15-.14" fill="#fff"/>
              <path d="M15.09,25.16a.14.14,0,0,1-.15,0l-.15-.08-2-.91-2.05-.91-.06,0c-.12,0-.22-.09-.32,0a.43.43,0,0,0,.18.23l4.55,2,.16.08c.06,0,.11,0,.16,0l-.28-.36" fill="#fff"/>
              <path d="M15.94,26.22a.12.12,0,0,1-.15,0l-.14-.07-4.58-2a3.18,3.18,0,0,0,.4.48,1.19,1.19,0,0,1,.43.11l0,0,1.33.6,2.67,1.18c.06,0,.16,0,.15-.1a.32.32,0,0,0-.15-.21" fill="#fff"/>
              <path d="M4.27,21c-.06,0-.14,0-.15.07s.09.17.15.24l4.12,1.83.09,0a.75.75,0,0,1,.27.19.76.76,0,0,0,.39-.13l-4.58-2-.13,0A.28.28,0,0,1,4.27,21" fill="#fff"/>
              <path d="M16.84,31.64,14.4,30.56V31l2.44,1.08v-.46" fill="#fff"/>
              <path d="M13.51,23.21a.14.14,0,0,1-.16,0l-.14-.08-3.1-1.37L7,20.4a.75.75,0,0,1-.13-.06.3.3,0,0,1-.16-.14l-.17.06a.26.26,0,0,0,.15.16l.14,0,3.28,1.46,3.28,1.46.14.07a.11.11,0,0,0,.15,0l-.17-.22" fill="#fff"/>
              <path d="M12.48,35.5a.64.64,0,0,0-.37.13l4.77,2.13v-.23l-4.06-1.8-.1,0a.62.62,0,0,1-.25-.19" fill="#fff"/>
              <path d="M13.33,23a.14.14,0,0,1-.14,0l-.13-.07-3-1.31L7.16,20.31l-.13,0a.35.35,0,0,1-.15-.13l-.17.07a.3.3,0,0,0,.16.14A.75.75,0,0,0,7,20.4l3.11,1.38,3.1,1.37.14.08a.14.14,0,0,0,.16,0L13.33,23" fill="#fff"/>
              <path d="M7.3,32.89c-.07,0-.14,0-.22,0l-.11,0L3.3,31.19v.23l4.41,2a2.48,2.48,0,0,0-.41-.49" fill="#fff"/>
              <path d="M16.89,30.67c-.07,0,0,.18-.05.28,0,.27-.07.28-.23.21h0l-.94-.42-1.26-.56v.39l2.44,1.08c0-.08,0-.17.05-.21v-.76" fill="#fff"/>
              <path d="M5.79,30.83,3.31,29.72v.39l1.14.51,1.15.5.14.08c.07,0,.13,0,.17,0a.87.87,0,0,1-.12-.34" fill="#fff"/>
              <path d="M11.06,37.87c-.18-.08-.15.13-.22.21v.39c0-.21.13-.25.3-.18l0,0,.77.35.3.14.54.23.11,0a.31.31,0,0,1,.15.15l.39-.14c.05-.12,0-.16-.09-.19L12,38.31l-1-.44h0" fill="#fff"/>
              <path d="M16.89,32.13l-.05,0c0,.3,0,.38-.25.29h0L15.64,32l-1.24-.54v.38l2.44,1.09.05-.06v-.69" fill="#fff"/>
              <path d="M3.31,27.57v.53l2.48,1.11v-.39l-2.16-1-.06,0a.41.41,0,0,1-.26-.26" fill="#fff"/>
              <path d="M16.89,33.44c-.07.11-.16.09-.26,0l-.07,0-2.16-1v.39L16.89,34v-.54" fill="#fff"/>
              <path d="M16.89,34.21l-2.49-1.1v.38l2.49,1.11v-.39" fill="#fff"/>
              <path d="M3.31,29v.38l2.48,1.11v-.39L3.31,29" fill="#fff"/>
              <path d="M16.89,35.52l-2.49-1.1v.38l2.5,1.11v-.39" fill="#fff"/>
              <path d="M13.69,38.73l-.13,0-1.34-.6-1.34-.59,0,.09s0,0,0,0v.46c.07-.08,0-.29.22-.21h0l1,.44,1.31.58c.08,0,.14.07.09.19a.57.57,0,0,0,.4-.13c0-.14-.08-.2-.14-.22" fill="#fff"/>
              <path d="M5.8,27.35,3.36,26.27a.42.42,0,0,0,.25.51h0l.93.4,1.24.55v-.39" fill="#fff"/>
              <path d="M5.8,25.58,3.36,24.49v.39L5.8,26v-.39" fill="#fff"/>
              <path d="M5.8,26,3.36,24.88a.42.42,0,0,0,.25.51h0l.93.41,1.24.55V26" fill="#fff"/>
              <path d="M16.84,32.88,14.4,31.79v.39l1.24.55.93.42h0c.21.09.28,0,.25-.28" fill="#fff"/>
              <path d="M16.84,32.1,14.4,31v.39l1.24.54.93.43h0c.21.09.28,0,.25-.29" fill="#fff"/>
              <path d="M13.2,35.25a.64.64,0,0,0-.4.15l4.09,1.82V37l-2.25-1-1.12-.5-.08,0-.06,0a.31.31,0,0,1-.18-.19" fill="#fff"/>
              <path d="M9,37.42l-.07,0a2.55,2.55,0,0,1-.35-.14l-.25-.11L8.08,37l-.18-.08-.07,0-.15-.08-.16-.08a.62.62,0,0,0-.32-.07l.68.84c.09-.08.2-.05.31,0l.11,0,.41.19a1.82,1.82,0,0,0,.3.11l.05,0a.54.54,0,0,1,.28.45V38A.57.57,0,0,0,9,37.42" fill="#fff"/>
              <path d="M12.83,22.38a.12.12,0,0,1-.15,0,.67.67,0,0,1-.12-.06l-2.45-1.08L7.66,20.15l-.12,0A.32.32,0,0,1,7.39,20a.18.18,0,0,0-.17.06.3.3,0,0,0,.16.17l.13,0,2.6,1.16,2.6,1.16.13.06c.06,0,.11,0,.16,0a.51.51,0,0,0-.17-.21" fill="#fff"/>
              <path d="M5,22.19a3.88,3.88,0,0,0,.4.49l2.39,1.07a.57.57,0,0,0,.4-.13L5,22.19" fill="#fff"/>
              <path d="M15.26,26.77l-3.19-1.41a2.1,2.1,0,0,0,.36.46l2.42,1.08c.13-.06.3,0,.41-.13" fill="#fff"/>
              <path d="M11.14,38.29c-.17-.07-.26,0-.3.18v.31c0-.11.1-.19.23-.13h0l.39.18.2.09.3.13.15.07h0a.25.25,0,0,1,.17.31,2.1,2.1,0,0,0,.69-.24.31.31,0,0,0-.15-.15l-.11,0-.54-.23-.3-.14-.77-.35,0,0" fill="#fff"/>
              <path d="M8.46,23.52,4.67,21.83a1.45,1.45,0,0,0,.28.36l3.19,1.43a.46.46,0,0,0,.32-.1" fill="#fff"/>
              <path d="M15.55,26.66,11.75,25a1.35,1.35,0,0,0,.32.38l3.19,1.41a.52.52,0,0,0,.29-.11" fill="#fff"/>
              <path d="M14.39,34.8l-.22.12a.3.3,0,0,0,.16.17l.13,0,2.43,1.08v-.31l-2.5-1.11" fill="#fff"/>
              <path d="M3.36,24.8l0,0v.7l0,.1L5.8,26.66v-.31L4.56,25.8l-.93-.41h0a.42.42,0,0,1-.25-.51V24.8" fill="#fff"/>
              <path d="M16.89,32.82l-.05.06c0,.3,0,.37-.25.28h0l-.93-.42-1.24-.55v.31l2.16,1,.07,0c.1.05.19.07.26,0v-.62" fill="#fff"/>
              <path d="M3.31,26.72v.46a.45.45,0,0,0,.29.36h0l1.3.57.88.39V28.2l-1.2-.53-.89-.38,0,0a.58.58,0,0,1-.36-.55" fill="#fff"/>
              <path d="M3.31,27.18v.39a.41.41,0,0,0,.26.26l.06,0,2.16,1v-.31l-.88-.39-1.3-.57h0a.45.45,0,0,1-.29-.36" fill="#fff"/>
              <path d="M5.79,29.21,3.31,28.1v.31l2.48,1.11v-.31" fill="#fff"/>
              <path d="M5.79,30.52,3.31,29.41v.31l2.48,1.11v-.31" fill="#fff"/>
              <path d="M5.79,29.52,3.31,28.41v.31l2.48,1.11v-.31" fill="#fff"/>
              <path d="M3.31,28.72V29l2.48,1.1v-.3L3.31,28.72" fill="#fff"/>
              <path d="M16.89,34.9,14.4,33.8v.31l2.49,1.1V34.9" fill="#fff"/>
              <path d="M16.89,34.6h0L14.4,33.49v.31l2.49,1.1v-.3" fill="#fff"/>
              <path d="M16.89,35.21l-2.49-1.1v.31l2.49,1.1v-.31" fill="#fff"/>
              <path d="M14.69,29.14c-.12,0-.31-.05-.29.26l.88.39,1.32.59c.17.08.27.08.25-.21l-1.25-.55L15,29.35l-.07,0-.06,0a.35.35,0,0,1-.16-.16" fill="#fff"/>
              <path d="M16.84,31,14.4,29.86v.31l1.26.56.94.42h0c.16.07.26.06.23-.21" fill="#fff"/>
              <path d="M3.36,23.18l0,0v.93c0,.06,0,.12,0,.17l.8.36,1.19.52s.07.06.11.07.08,0,0-.15a1.23,1.23,0,0,0-.28-.35.12.12,0,0,1-.16,0c-.06,0-.11-.06-.16-.08l-.38-.17-.38-.17-.57-.25h0a.28.28,0,0,1-.19-.32v-.54" fill="#fff"/>
              <path d="M6.61,35.67a.13.13,0,0,0-.2,0,1.94,1.94,0,0,0,.34.4c.09-.12.22-.06.36,0l1,.46L9,37h0a.52.52,0,0,1,.29.45V37a.07.07,0,0,1,0-.05l0-.12L6.74,35.73l-.13-.06" fill="#fff"/>
              <path d="M11.54,39.23a1.14,1.14,0,0,0-.26-.09L11,39l0,0h0c-.15-.06,0,.26-.13.31V40L12,39.59a1.16,1.16,0,0,0-.47-.36" fill="#fff"/>
              <path d="M14.85,26.9l-2.42-1.08a2.75,2.75,0,0,0,.4.48l1.64.74a.66.66,0,0,0,.38-.14" fill="#fff"/>
              <path d="M5.35,22.68a2.34,2.34,0,0,0,.39.48l1.64.73c.13,0,.27,0,.36-.14L5.35,22.68" fill="#fff"/>
              <path d="M15.08,29l-.39.15a.35.35,0,0,0,.16.16l.06,0,.07,0,.62.27,1.25.55v-.3l-1-.44-.49-.22-.13-.05a.3.3,0,0,1-.16-.17" fill="#fff"/>
              <path d="M4.38,23.65A1,1,0,0,1,4,23.54l-.23-.11-.23-.11-.15-.06v.46l.89.4.44.19.09.05s.09,0,0-.14a3.65,3.65,0,0,0-.45-.57" fill="#fff"/>
              <path d="M14.46,38.53l-.13-.05L13.17,38l-2.33-1v.65l0-.09c0-.21,0-.4.22-.29h0l1.52.68,1.52.67.06,0a.23.23,0,0,1,.14.2l.28-.1a.33.33,0,0,0-.16-.15" fill="#fff"/>
              <path d="M5.77,34.75a.2.2,0,0,0-.15,0c.11.14.22.27.34.4,0-.11.12-.09.21,0l.08,0,1.51.68L9,36.35H9a.41.41,0,0,1,.26.5l0,.12v-.64L5.92,34.83l-.15-.08" fill="#fff"/>
              <path d="M11.07,38.65c-.13-.06-.19,0-.23.13v.54c.09,0,0-.37.13-.31h0l0,0,.25.1a1.14,1.14,0,0,1,.26.09,1.16,1.16,0,0,1,.47.36l.34-.13a.25.25,0,0,0-.17-.31h0L12,39.06l-.3-.13-.2-.09-.39-.18h0" fill="#fff"/>
              <path d="M9.06,37.9l-.05,0a1.82,1.82,0,0,1-.3-.11l-.41-.19-.11,0c-.11-.05-.22-.08-.31,0a5.2,5.2,0,0,0,.55.66.74.74,0,0,1,.4.08l.18.09.18.09.15,0v-.15a.54.54,0,0,0-.28-.45" fill="#fff"/>
              <path d="M5.51,25.06c0,.16,0,.17,0,.15s-.08-.06-.11-.07l-1.19-.52-.8-.36v.23L5.8,25.58c0-.29-.16-.37-.29-.52" fill="#fff"/>
              <path d="M16.89,34l-2.49-1.1v.23l2.49,1.1V34" fill="#fff"/>
              <path d="M7.38,23.89l-1.64-.73.72.91a.25.25,0,0,0,.09.09.14.14,0,0,0,.11,0l.72-.26" fill="#fff"/>
              <path d="M12.83,26.3l.72.91a.38.38,0,0,0,.11.11.1.1,0,0,0,.09,0l.72-.27-1.64-.74" fill="#fff"/>
              <path d="M5.8,26.66,3.36,25.58c0,.2.07.26.16.3a.2.2,0,0,1,.08,0l2.2,1v-.23" fill="#fff"/>
              <path d="M8.83,38.27a.74.74,0,0,0-.4-.08c.28.41.59.76.91,1.15V38.5l-.15,0L9,38.36l-.18-.09" fill="#fff"/>
              <path d="M4.83,24.22c0,.15,0,.16,0,.14l-.09-.05-.44-.19-.89-.4a.28.28,0,0,0,.19.32h0l.57.25.38.17.38.17s.1.06.16.08a.12.12,0,0,0,.16,0,2.44,2.44,0,0,0-.4-.49" fill="#fff"/>
              <path d="M15.37,28.9a.44.44,0,0,0-.29.09.3.3,0,0,0,.16.17l.13.05.49.22,1,.44v-.23L16,29.28l-.4-.18-.07,0-.05,0a.27.27,0,0,1-.15-.15" fill="#fff"/>
              <path d="M16.89,28.73c-.08.08,0,.24,0,.37s0,.29-.19.23l0,0-.32-.15L15.88,29c-.09,0-.16-.07-.11-.21a.8.8,0,0,0-.4.14.27.27,0,0,0,.15.15l.05,0,.07,0,.4.18.81.36,0,0v-.93" fill="#fff"/>
              <path d="M16.87,28.36l-.82.29a.85.85,0,0,0,.34.25l.17.07.17.07.12.06c0-.13,0-.29,0-.37a.8.8,0,0,0,0-.37" fill="#fff"/>
              <path d="M16.05,28.65l-.28.11c0,.14,0,.18.11.21l.43.19.32.15,0,0c.15.06.21,0,.19-.23L16.73,29,16.56,29l-.17-.07a.85.85,0,0,1-.34-.25" fill="#fff"/>
              <path d="M4,23.16a.41.41,0,0,1-.26,0l-.13-.06L3.44,23l-.08,0v.31l.15.06.23.11.23.11a1,1,0,0,0,.41.11L4,23.16" fill="#fff"/>
              <path d="M3.34,22.34a.91.91,0,0,0,0,.36.39.39,0,0,1,0,.25l.08,0,.15.08.13.06a.41.41,0,0,0,.26,0l-.64-.82" fill="#fff"/>
              <path d="M16.89,31.43c-.06,0,0,.13-.05.21v.46l.05,0v-.7" fill="#fff"/>
              <path d="M3.32,24.09v.69l0,0v-.54c0-.05,0-.11,0-.17" fill="#fff"/>
              <path d="M3.31,22.7c0,.16,0,.31,0,.46l0,0V23a.39.39,0,0,0,0-.25" fill="#fff"/>
              <polyline points="8.44 30.02 7.11 30.53 10.07 34.28 13.14 33.22 11.74 31.49 10.06 32.07 8.44 30.02" fill="#fff" opacity="0.33"/>
              <path d="M11.74,29.3l-1.39.48,1.39,1.71L13.13,31,11.74,29.3M8.48,27.8l-1.38.52L8.44,30l1.38-.53L8.48,27.8" fill="#fff" opacity="0.18"/>
              <polyline points="9.82 29.5 8.44 30.02 10.06 32.07 11.74 31.49 10.35 29.78 10.1 29.86 9.82 29.5" fill="#fff" opacity="0.45"/>
              <polyline points="10.09 25 7.15 26.12 8.48 27.8 10.05 27.21 11.74 29.3 13.17 28.81 10.09 25" fill="#fff" opacity="0.73"/>
              <polyline points="10.05 27.21 8.48 27.8 9.82 29.5 10.06 29.41 10.35 29.78 11.74 29.3 10.05 27.21" fill="#fff" opacity="0.78"/>
              <polyline points="10.06 29.41 9.82 29.5 10.1 29.86 10.35 29.78 10.06 29.41" fill="#fff" opacity="0.85"/>
              <path d="M17.1,23.79s-.05,0-.07.05A3.33,3.33,0,0,0,17,26.53a3.71,3.71,0,0,0,1.77,2.28l.27.08c1.44.39,2.23-1.52,1.45-3.53a.24.24,0,0,0-.08-.12h-.07l-1.45.51a.11.11,0,0,1-.11,0,.2.2,0,0,1-.1-.09l-1.47-1.82-.06-.06" fill="#fff"/>
              <path d="M18.73,24.62a.13.13,0,0,1-.06-.05c-.28-.36-.57-.72-.86-1.07,0-.05-.07-.09,0-.14l.92-1.54,0,0a.2.2,0,0,1,.06.12c.27.67.53,1.35.79,2a1.37,1.37,0,0,1,.12.36c0,.07-.14.07-.21.09l-.68.25h-.08m0-3.65c-.48.79-.93,1.56-1.39,2.34,0,.06,0,.09,0,.14l1.29,1.6a.17.17,0,0,0,.06.06.08.08,0,0,0,.07,0l1.28-.45c.06,0,.07-.05,0-.15-.18-.44-.34-.89-.52-1.33L18.74,21" fill="#fff"/>
            </g>
          </g>
        </g>
      </g>
      <g>
        <polygon points="24.2 19.46 1.42 9.17 25.96 0.24 48.75 10.53 24.2 19.46" fill="#6699c6"/>
        <g style="isolation: isolate">
          <g clip-path="url(#clip-path-2)">
            <g>
              <path d="M15.09,8.68l-.53.67a.6.6,0,0,0,.21,0l.11,0,4.83-1.76.11,0c.05,0,.1-.05.1-.08-.56,0-1.14.06-1.68.15,0,.06,0,.1-.15.14H18l-2.51.92,0,0a.68.68,0,0,1-.39,0" fill="#fff"/>
              <path d="M23.36,7.11s-.05.07-.12.09l-.16,0-9.2,3.36-.15.05a.5.5,0,0,1-.23,0,.33.33,0,0,0-.15.19.55.55,0,0,0,.24,0l.14,0L18.65,9l4.92-1.79.16-.06c.06,0,.11,0,.11-.09a3.58,3.58,0,0,0-.48,0" fill="#fff"/>
              <path d="M15.84,7.74a.22.22,0,0,0-.09.07c-.21.29-.44.58-.66.87a.68.68,0,0,0,.39,0l0,0L18,7.7h.05c.1,0,.19-.08.15-.14-.73,0-1.45.1-2.16.15a1.19,1.19,0,0,0-.24,0" fill="#fff"/>
              <path d="M22.88,7.15s-.06.07-.12.09l-.16,0L18.31,8.85,14,10.41l-.15.06a.48.48,0,0,1-.22,0,.33.33,0,0,0-.15.19.5.5,0,0,0,.23,0l.15-.05,9.2-3.36.16,0q.11,0,.12-.09a3.58,3.58,0,0,0-.48,0" fill="#fff"/>
              <path d="M22.4,7.19s-.06.06-.11.08l-.14.05-4,1.46-4,1.45-.14.06a.58.58,0,0,1-.21,0l-.14.19a.48.48,0,0,0,.22,0l.15-.06,4.29-1.56L22.6,7.29l.16,0c.06,0,.11,0,.12-.09l-.48,0" fill="#fff"/>
              <path d="M34.2,10.91l-.15.07-2.49.91-2.5.9c-.09.09-.26.18,0,.27a.53.53,0,0,1,.25-.14l4.54-1.65.11,0a.38.38,0,0,1,.2,0c.17-.09.18-.2.27-.29a.49.49,0,0,0-.27,0" fill="#fff"/>
              <path d="M23.25,15.32c-.09,0-.16.07-.12.14l.78-.06s.06-.06.12-.09l.17-.05L28,13.89l-.23-.11a.76.76,0,0,0-.42.07h0L26,14.33l-2.63,1-.1,0" fill="#fff"/>
              <path d="M21.85,7.24s-.05.07-.11.09l-.16,0L18,8.7,14.35,10l-.14.06a.43.43,0,0,1-.24,0l-.18.22a.58.58,0,0,0,.21,0l.14-.06,4-1.45,4-1.46.14-.05c.05,0,.1,0,.11-.08l-.55,0" fill="#fff"/>
              <path d="M26.88,13.78l-4.29,1.55c-.14.06-.26.11-.23.19.26,0,.52,0,.77-.06,0-.07,0-.1.12-.14l.1,0,2.63-1,1.32-.48h0a.76.76,0,0,1,.42-.07l-.23-.1a1.35,1.35,0,0,0-.63.1" fill="#fff"/>
              <path d="M29.58,13c-.16.06-.21.11-.14.19l.12,0,2.56-.93,1.28-.47.15-.06a.51.51,0,0,1,.23,0c.14-.08.1-.18.21-.26a.58.58,0,0,0-.36,0h-.05l-2,.73-2,.73" fill="#fff"/>
              <path d="M23.84,7.07s-.05.07-.11.09l-.16.06L18.65,9,13.73,10.8l-.14,0a.55.55,0,0,1-.24,0l-.12.14a.65.65,0,0,0,.22,0l.15-.07,2.26-.81,2.25-.83.09,0a1.32,1.32,0,0,1,.4-.09.45.45,0,0,1,.17-.11A1.05,1.05,0,0,1,19.06,9a.66.66,0,0,1,.28-.15l.07,0L21.67,8l2.25-.82.17-.06c.06,0,.11,0,.12-.08l-.37,0" fill="#fff"/>
              <path d="M20.6,15.59c-.06,0-.11.05-.12.09l.84-.07c-.07-.06,0-.09,0-.11l.16-.05,2.19-.8,2.19-.8a1.72,1.72,0,0,0,.43-.2,3,3,0,0,0-.53,0l-5,1.83-.19.06" fill="#fff"/>
              <path d="M25.14,13.75,19.9,15.67a1,1,0,0,0,.58,0s.06-.07.12-.09l.19-.06,5-1.83a3.53,3.53,0,0,0-.66.05" fill="#fff"/>
              <path d="M29.59,12.13c-.09.07-.16.13-.17.21a4,4,0,0,0,.55-.15l1.86-.68,2.56-.93.15-.06a.67.67,0,0,1,.22,0c.11-.08.3-.16.1-.26l-5.27,1.91" fill="#fff"/>
              <path d="M20.7,7.33s-.05.07-.11.1l-.15.05-2.86,1-2.87,1-.14.06a.56.56,0,0,1-.24,0,.5.5,0,0,0-.18.22.6.6,0,0,0,.21,0l.13-.05L17.74,8.6,21,7.41l.14,0c.06,0,.1,0,.11-.08a4.89,4.89,0,0,0-.55,0" fill="#fff"/>
              <path d="M34,11.23l-.11,0-4.54,1.65a.53.53,0,0,0-.25.14l.34.15c-.07-.08,0-.13.14-.19l2-.73,2-.73h.05a.58.58,0,0,1,.36,0,.57.57,0,0,0,.21-.31.38.38,0,0,0-.2,0" fill="#fff"/>
              <path d="M19.67,15.57l.23.1,5.24-1.92a4.21,4.21,0,0,0-.62.05l-4.85,1.77" fill="#fff"/>
              <path d="M30.36,11.13l-.2.28a.69.69,0,0,0,.27,0l.07,0,.08,0,1.23-.45,2.48-.9L34,9.84,30.73,11l-.15.06a.67.67,0,0,1-.22,0" fill="#fff"/>
              <path d="M22.42,14s-.05.07-.11.09l-.17,0L19,15.26l.28.13,4.06-1.49c-.31,0-.61,0-.91.07" fill="#fff"/>
              <path d="M30,11.68a.31.31,0,0,0-.17.21,1,1,0,0,0,.33-.08l.11,0,4.47-1.62L34.46,10,30,11.68" fill="#fff"/>
              <path d="M30,13.21c-.25.09-.11.14.06.21l1.47-.53L33,12.35l.14-.06a.44.44,0,0,1,.28,0c.17-.1.12-.23.26-.34a.44.44,0,0,0-.26,0l-.06,0-1.67.61L30,13.2h0" fill="#fff"/>
              <path d="M17.65,10l-.1,0L13,11.7a3.64,3.64,0,0,0,.67,0l4.18-1.52c.06-.06.14-.13.14-.19a1.13,1.13,0,0,0-.35.08" fill="#fff"/>
              <path d="M21.42,8.65a1.64,1.64,0,0,0-.42.2,3.73,3.73,0,0,0,.48,0l4.19-1.52c.08-.09.18-.17.2-.27L22.93,8.1l-1.47.53,0,0" fill="#fff"/>
              <path d="M27.74,14.06h0l-1.38.51-1.67.61-.09,0c-.09,0-.17.07-.12.13.26,0,.52,0,.77-.06,0-.06,0-.09.12-.12l.15-.05,2.81-1a.57.57,0,0,0-.57,0" fill="#fff"/>
              <path d="M19.92,7.4s-.05.06-.1.08l-.11,0L14.88,9.27l-.11,0a.6.6,0,0,1-.21,0l-.14.19a.67.67,0,0,0,.22,0l.12-.05,2.7-1,2.7-1,.14,0c.05,0,.1,0,.11-.08l-.49,0" fill="#fff"/>
              <path d="M27,13.6l-5,1.82-.18.06c-.06,0-.11,0-.11.1a4.91,4.91,0,0,0,.67-.06c0-.08.09-.13.23-.19l4.29-1.55a1.35,1.35,0,0,1,.63-.1A.66.66,0,0,0,27,13.6" fill="#fff"/>
              <path d="M23.33,13.9l-4.06,1.49.23.1,4-1.47.12,0a.35.35,0,0,0,.19-.12,2.89,2.89,0,0,0-.52,0" fill="#fff"/>
              <path d="M30.66,10.77a1.4,1.4,0,0,0-.3.36.67.67,0,0,0,.22,0l.15-.06L34,9.84l-.29-.13-2.68,1-.13.05a.59.59,0,0,1-.25,0" fill="#fff"/>
              <path d="M28.91,7.54l-.06,0,.17.07.23.11c.23.07.15.13,0,.2l-1.46.52-1,.36.34.15,2.69-1c-.07,0-.19-.06-.17-.12l-.74-.33" fill="#fff"/>
              <path d="M34.47,10.68l-.11.05L29.21,12.6c-.07.06-.14.12-.15.19l2.5-.9L34.05,11l.15-.07a.49.49,0,0,1,.27,0c.07-.09.13-.18.2-.26a.6.6,0,0,0-.2,0" fill="#fff"/>
              <path d="M29.42,12.34c-.09.09-.19.17-.21.26l5.15-1.87.11-.05a.6.6,0,0,1,.2,0c.1-.05.06-.11.09-.17a.67.67,0,0,0-.22,0l-.15.06-2.56.93L30,12.19a4,4,0,0,1-.55.15" fill="#fff"/>
              <path d="M13.08,11.22a.39.39,0,0,0-.14.19.51.51,0,0,0,.23,0l.15-.06,4.57-1.67A.94.94,0,0,0,18,9.59a.66.66,0,0,1,.26,0,.48.48,0,0,0,.21-.27l-5,1.82-.17.07a.55.55,0,0,1-.24,0" fill="#fff"/>
              <path d="M24.69,7s-.07.07-.13.09l-.18.06L19.37,9A3.63,3.63,0,0,0,20,8.92s.05-.07.11-.1l.17-.05,4.57-1.66.16-.06c.06,0,.11,0,.12-.08-.15,0-.34,0-.48,0" fill="#fff"/>
              <path d="M26.33,13.65a1.72,1.72,0,0,1-.43.2l-2.19.8-2.19.8-.16.05c-.07,0-.11.05,0,.11l.37,0c0-.05,0-.08.11-.1l.18-.06,5-1.82a4.1,4.1,0,0,0-.62.05" fill="#fff"/>
              <path d="M21.51,14.05s0,.08-.11.11l-.17.05L20,14.67l-1.26.46.28.13,3.15-1.15.17,0c.06,0,.1-.05.11-.09-.3,0-.63,0-.91.08" fill="#fff"/>
              <path d="M15.77,13.8l.45.21a1,1,0,0,0,.69,0h0l1-.37,1.32-.47L18.9,13l-1.37.5-1,.37h0a.59.59,0,0,1-.58,0l-.15,0" fill="#fff"/>
              <path d="M15.31,13.6l.46.2.15,0,2.69-1-.34-.16-2.41.88-.09,0a.36.36,0,0,1-.35,0h-.11" fill="#fff"/>
              <path d="M28.2,14.26h0l-1,.37L26.07,15c-.14.05-.29.1-.28.19a4.81,4.81,0,0,0,.77-.06,1.4,1.4,0,0,1,.3-.15L27,15l.18-.06.07,0,.2-.08.29-.1.27-.1.38-.15.07,0a1,1,0,0,1,.65,0l-.39-.18a.83.83,0,0,0-.56,0" fill="#fff"/>
              <path d="M12.94,11.41a.29.29,0,0,0-.15.19.51.51,0,0,0,.23,0l.15-.06,5-1.84.09-.11a.66.66,0,0,0-.26,0,.94.94,0,0,1-.15.06l-4.57,1.67-.15.06a.51.51,0,0,1-.23,0" fill="#fff"/>
              <path d="M25.17,7s-.06.06-.12.08l-.16.06L20.32,8.77l-.17.05c-.06,0-.12.06-.11.1l.3,0,5-1.83L25.54,7c.06,0,.11,0,.11-.09a1.86,1.86,0,0,0-.48,0" fill="#fff"/>
              <path d="M13.23,11l-.15.19a.55.55,0,0,0,.24,0l.17-.07,5-1.82a.12.12,0,0,0,.09-.12,1.32,1.32,0,0,0-.4.09l-.09,0-2.25.83-2.26.81-.15.07a.65.65,0,0,1-.22,0" fill="#fff"/>
              <path d="M24.21,7s-.06.06-.12.08l-.17.06L21.67,8l-2.26.82-.07,0a.66.66,0,0,0-.28.15.8.8,0,0,0,.31,0l5-1.83.18-.06c.06,0,.12,0,.13-.09l-.48,0" fill="#fff"/>
              <path d="M25.65,6.92s0,.07-.11.09l-.16.06-5,1.83c.23,0,.44,0,.66-.05a1.64,1.64,0,0,1,.42-.2l0,0,1.47-.53L25.87,7s.14-.07,0-.11a.58.58,0,0,0-.26,0" fill="#fff"/>
              <path d="M12.79,11.6s-.12.08-.06.11a.45.45,0,0,0,.28,0l4.54-1.65.1,0A1.13,1.13,0,0,1,18,9.94c.09-.09.19-.17.21-.27l-5,1.84-.15.06a.51.51,0,0,1-.23,0" fill="#fff"/>
              <path d="M30.33,8.22l-2.69,1,.34.15,2.69-1-.34-.15" fill="#fff"/>
              <path d="M21.55,7.26s-.05.07-.11.09l-.16.05L17.86,8.65,14.44,9.89l-.15.06a.68.68,0,0,1-.23,0L14,10.1a.43.43,0,0,0,.24,0l.14-.06L18,8.7l3.61-1.32.16,0c.06,0,.11,0,.11-.09l-.3,0" fill="#fff"/>
              <path d="M29.78,11.89c-.09.08-.18.15-.19.24l5.27-1.91-.17-.07-4.47,1.62-.11,0a1,1,0,0,1-.33.08" fill="#fff"/>
              <path d="M21.25,7.28s-.05.06-.11.08l-.14,0L17.74,8.6,14.49,9.78l-.13.05a.6.6,0,0,1-.21,0l-.09.12a.68.68,0,0,0,.23,0l.15-.06,3.42-1.24L21.28,7.4l.16-.05c.06,0,.1,0,.11-.09l-.3,0" fill="#fff"/>
              <path d="M23.85,13.86a.35.35,0,0,1-.19.12l-.12,0-4,1.47.17.08,4.85-1.77a4.91,4.91,0,0,0-.67.06" fill="#fff"/>
              <path d="M29.65,7.87c0,.06.1.08.17.12s.15.13,0,.2h0l-1,.38-1.38.5.28.13,2.69-1c-.06,0-.14-.05-.12-.09l-.56-.26" fill="#fff"/>
              <path d="M21.16,14l-2.74,1,.29.13L20,14.67l1.26-.46.17-.05c.07,0,.12-.06.11-.11a1,1,0,0,1-.35,0" fill="#fff"/>
              <path d="M30.42,13.45c-.2.07,0,.13,0,.19h0l.29.13c-.13-.09-.08-.16.11-.23h0l.85-.3.34-.12.58-.22.12,0a.5.5,0,0,1,.23,0c.07-.08.13-.17.2-.26s-.13,0-.21,0l-1.44.52-1.07.39h0" fill="#fff"/>
              <path d="M30.72,8.36h0c.24.09.24.15,0,.24h0l-1,.36-1.36.5.29.13,2.68-1v0l-.51-.23" fill="#fff"/>
              <path d="M16.84,14.29l.39.18,2.74-1-.28-.13-2.38.87-.07,0a.81.81,0,0,1-.4,0" fill="#fff"/>
              <path d="M31.69,8.79c0,.08-.07.12-.18.16l-.07,0-2.38.87.28.13,2.74-1-.39-.18" fill="#fff"/>
              <path d="M32.25,9.05l-2.74,1,.28.13,2.74-1-.28-.13" fill="#fff"/>
              <path d="M17.91,14.77l.29.13,2.74-1-.29-.12-2.74,1" fill="#fff"/>
              <path d="M33.21,9.48l-2.74,1,.27.13,2.76-1-.29-.13" fill="#fff"/>
              <path d="M33.09,12.29l-.14.06-1.47.54L30,13.42l0,.05,0,0,.3.14h0c0-.06-.18-.12,0-.19h0l1.07-.39,1.44-.52c.08,0,.15,0,.21,0a.52.52,0,0,0,.22-.26.44.44,0,0,0-.28,0" fill="#fff"/>
              <path d="M18.61,12.86l-2.69,1a.59.59,0,0,0,.58,0h0l1-.37L18.9,13l-.29-.12" fill="#fff"/>
              <path d="M17.31,12.26l-2.69,1,.23.11.06,0,2.68-1-.28-.14" fill="#fff"/>
              <path d="M17.59,12.4l-2.68,1a.57.57,0,0,0,.57,0h0l1-.37,1.37-.5-.29-.12" fill="#fff"/>
              <path d="M31.23,8.63l-2.68,1,.28.13,1.36-.5,1-.37h0c.24-.08.24-.15,0-.23" fill="#fff"/>
              <path d="M30.67,8.37,28,9.35l.28.13L29.62,9l1-.36h0c.24-.09.24-.15,0-.24" fill="#fff"/>
              <path d="M30.16,11.41c-.1.09-.2.17-.21.27L34.46,10,34.29,10l-2.48.9-1.23.45-.08,0-.07,0a.69.69,0,0,1-.27,0" fill="#fff"/>
              <path d="M28.5,14.42l-.07,0-.38.15-.27.1-.29.1-.2.08-.07,0L27,15l-.18.06a1.4,1.4,0,0,0-.3.15l1.15-.09c0-.08.11-.13.23-.17l.13-.05.46-.16.31-.12.05,0a.86.86,0,0,1,.55,0l-.29-.13a1,1,0,0,0-.65,0" fill="#fff"/>
              <path d="M20.41,7.36s-.06.06-.11.08l-.14,0-2.7,1-2.7,1-.12.05a.67.67,0,0,1-.22,0c-.06,0-.1.07-.09.11a.56.56,0,0,0,.24,0l.14-.06,2.87-1,2.86-1,.15-.05c.06,0,.11,0,.11-.1a1.29,1.29,0,0,0-.29,0" fill="#fff"/>
              <path d="M14.16,11.61a4.91,4.91,0,0,0,.67-.06l2.64-1a.45.45,0,0,0,.21-.26l-3.52,1.27" fill="#fff"/>
              <path d="M25.52,7.48,22,8.76a3.08,3.08,0,0,0,.61,0l2.67-1c.06-.09.22-.16.22-.26" fill="#fff"/>
              <path d="M30.8,13.54c-.19.07-.24.14-.11.23l.22.1c0-.06-.05-.11.09-.17h0l.44-.16.22-.08.33-.12.16-.06h.06a.36.36,0,0,1,.36,0,1.65,1.65,0,0,0,.36-.46.5.5,0,0,0-.23,0l-.12,0-.58.22-.34.12-.85.3h0" fill="#fff"/>
              <path d="M17.86,10.13l-4.18,1.52a2.52,2.52,0,0,0,.48,0l3.52-1.27c.1-.07.17-.14.18-.21" fill="#fff"/>
              <path d="M25.67,7.29,21.48,8.81A3.1,3.1,0,0,0,22,8.76l3.5-1.28c.07-.06.14-.12.15-.19" fill="#fff"/>
              <path d="M30.74,10.61a1.19,1.19,0,0,1-.08.16.59.59,0,0,0,.25,0l.13-.05,2.68-1-.22-.1-2.76,1" fill="#fff"/>
              <path d="M14.85,13.35l0,0,.51.23h.11l2.68-1-.22-.11-1.37.5-1,.37h0a.57.57,0,0,1-.57,0l-.06,0" fill="#fff"/>
              <path d="M31.23,8.59v0c.25.08.25.15,0,.23h0l-1,.37-1.36.5.23.1L31.44,9l.07,0c.11,0,.21-.08.18-.16l-.46-.2" fill="#fff"/>
              <path d="M16.22,14l.34.15a.79.79,0,0,0,.49,0h0l1.43-.52,1-.35-.22-.1-1.32.47-1,.37h0a1,1,0,0,1-.69,0" fill="#fff"/>
              <path d="M16.56,14.16l.28.13a.81.81,0,0,0,.4,0l.07,0,2.38-.87-.23-.1-1,.35-1.43.52h0a.79.79,0,0,1-.49,0" fill="#fff"/>
              <path d="M20,13.47l-2.74,1,.23.1,2.74-1-.23-.1" fill="#fff"/>
              <path d="M20.94,13.9l-2.74,1,.22.1,2.74-1-.22-.11" fill="#fff"/>
              <path d="M20.2,13.57l-2.74,1,.23.1,2.74-1-.23-.1" fill="#fff"/>
              <path d="M17.69,14.67l.22.1,2.74-1-.22-.11-2.74,1" fill="#fff"/>
              <path d="M32.76,9.28l-2.74,1,.23.11,2.74-1-.23-.1" fill="#fff"/>
              <path d="M32.53,9.17h0l-2.74,1,.23.1,2.74-1-.23-.11" fill="#fff"/>
              <path d="M33,9.38l-2.74,1,.22.1,2.74-1L33,9.38" fill="#fff"/>
              <path d="M26.82,8.57c-.07.08-.28.16,0,.25l1-.36,1.46-.52c.19-.07.27-.13,0-.2l-1.37.49-.68.25-.08,0-.06,0a.58.58,0,0,1-.24,0" fill="#fff"/>
              <path d="M29.82,8,27.13,9l.23.1,1.38-.5,1-.38h0c.18-.07.25-.12,0-.2" fill="#fff"/>
              <path d="M13.66,12.81l-.05,0,.68.31.16,0,.88-.32,1.31-.48.14,0s.07,0-.07-.08a2.45,2.45,0,0,0-.48,0s-.05.07-.12.1l-.18,0-.42.16-.42.15-.62.23h0a.46.46,0,0,1-.38,0l-.33-.15-.06,0" fill="#fff"/>
              <path d="M25.35,15.16c-.08,0-.15.06-.12.12a2.54,2.54,0,0,0,.56,0c0-.09.14-.14.28-.19l1.13-.41,1-.37h0a.83.83,0,0,1,.56,0l-.29-.13h0l-.11,0-2.81,1-.15.05" fill="#fff"/>
              <path d="M31.8,13.64l-.28.11-.26.1-.06,0h0c-.16.06.16.1.12.17l.51.23.6-.78a2,2,0,0,0-.62.14" fill="#fff"/>
              <path d="M25.3,7.74l-2.67,1a4.77,4.77,0,0,0,.66-.05L25.1,8a.47.47,0,0,0,.2-.26" fill="#fff"/>
              <path d="M14.83,11.55a3.6,3.6,0,0,0,.66-.05l1.8-.66c.08-.08.19-.15.18-.24l-2.64,1" fill="#fff"/>
              <path d="M27,8.31l-.2.26a.58.58,0,0,0,.24,0l.06,0,.08,0,.68-.25,1.37-.49L29,7.63,27.94,8l-.55.2-.13,0a.56.56,0,0,1-.24,0" fill="#fff"/>
              <path d="M14.79,12.41a2.49,2.49,0,0,1-.4.19l-.25.08-.26.09-.16.07.33.15,1-.36.49-.18.11,0s.07,0-.06-.07a4.93,4.93,0,0,0-.78.06" fill="#fff"/>
              <path d="M33.55,11.8l-.15.06-1.28.47-2.56.93.51.23,0,0,0-.05c-.17-.07-.31-.12-.06-.21h0l1.68-.6L33.31,12l.06,0a.44.44,0,0,1,.26,0l.15-.18a.51.51,0,0,0-.23,0" fill="#fff"/>
              <path d="M24,15.31c-.06,0-.11,0-.12.09l.55-.06c-.05-.06,0-.1.12-.13l.09,0,1.67-.61,1.38-.51h0a.57.57,0,0,1,.57,0l.11,0h0l-.5-.22L24.2,15.26l-.17.05" fill="#fff"/>
              <path d="M31,13.7c-.14.06-.13.11-.09.17l.4.18c0-.07-.28-.11-.12-.17h0l.06,0,.26-.1.28-.11a2,2,0,0,1,.62-.14l.17-.23a.36.36,0,0,0-.36,0h-.06l-.16.06-.33.12-.22.08L31,13.7h0" fill="#fff"/>
              <path d="M28.89,14.56l-.05,0-.31.12-.46.16-.13.05c-.12,0-.22.09-.23.17.31,0,.61,0,.9-.08a1.07,1.07,0,0,1,.37-.19l.22-.08.19-.06.16-.07-.11,0a.86.86,0,0,0-.55,0" fill="#fff"/>
              <path d="M16.71,12.25c.14,0,.12.06.07.08l-.14,0-1.31.48-.88.32.17.07,2.69-1a1,1,0,0,0-.6,0" fill="#fff"/>
              <path d="M32.08,9l-2.74,1,.17.07,2.74-1L32.08,9" fill="#fff"/>
              <path d="M17.29,10.84l-1.8.66,1.22-.09.14,0a.19.19,0,0,0,.08-.07l.36-.48" fill="#fff"/>
              <path d="M23.29,8.66l1.22-.1a.37.37,0,0,0,.17,0s.06,0,.07,0L25.1,8l-1.81.66" fill="#fff"/>
              <path d="M18.1,12.63l-2.68,1a.36.36,0,0,0,.35,0l.09,0,2.41-.88-.17-.07" fill="#fff"/>
              <path d="M29,14.81a1.07,1.07,0,0,0-.37.19c.52,0,1-.08,1.55-.12l-.61-.28-.16.07-.19.06-.22.08" fill="#fff"/>
              <path d="M15.57,12.35c.13,0,.11.05.06.07l-.11,0-.49.18-1,.36a.46.46,0,0,0,.38,0h0l.62-.23.42-.15.42-.16.18,0c.07,0,.12-.06.12-.1a3.52,3.52,0,0,0-.66.06" fill="#fff"/>
              <path d="M27.17,8.12a.33.33,0,0,0-.15.19.56.56,0,0,0,.24,0l.13,0,.55-.2L29,7.63l-.17-.07L28,7.88,27.52,8l-.07,0-.05,0a.51.51,0,0,1-.23,0" fill="#fff"/>
              <path d="M28.23,7.23c0,.07.15.1.23.15s.19.12,0,.18h0l-.36.12-.47.18c-.1,0-.18.06-.24,0a.62.62,0,0,0-.21.26.51.51,0,0,0,.23,0l.05,0,.07,0L28,7.88l.88-.32.06,0-.68-.31" fill="#fff"/>
              <path d="M27.93,7.12l-.41.55a2.39,2.39,0,0,0,.44-.1l.18-.08.18-.07.14,0c-.08,0-.24-.08-.23-.15a.9.9,0,0,0-.3-.11" fill="#fff"/>
              <path d="M27.52,7.67l-.14.19c.06.07.14,0,.24,0l.47-.18.36-.12h0c.17-.06.15-.12,0-.18l-.14,0-.18.07L28,7.57a2.39,2.39,0,0,1-.44.1" fill="#fff"/>
              <path d="M14.13,12.46a.5.5,0,0,1-.24.13l-.15.05-.17.06-.08,0,.17.08.06,0,.16-.07.26-.09.25-.08a2.49,2.49,0,0,0,.4-.19l-.66.05" fill="#fff"/>
              <path d="M13,12.54a.57.57,0,0,0,.24.14.42.42,0,0,1,.22.05l.08,0,.17-.06.15-.05a.5.5,0,0,0,.24-.13l-1.1.08" fill="#fff"/>
              <path d="M30.21,8.13s.06.06.12.09l.34.15h0l-.51-.23" fill="#fff"/>
              <path d="M14.29,13.14l.51.23,0,0-.23-.11-.17-.07-.16,0" fill="#fff"/>
              <path d="M13.27,12.68l.34.15.05,0-.17-.08a.42.42,0,0,0-.22-.05" fill="#fff"/>
              <polyline points="22.63 12.29 21.96 13.19 27.01 12.81 28.61 10.77 26.26 10.97 25.38 12.08 22.63 12.29" fill="#fff" opacity="0.33"/>
              <path d="M24.65,10.24l-.73.92L26.26,11l.73-.92-2.34.19M21,11.53l-.68.93,2.29-.17.68-.93L21,11.53" fill="#fff" opacity="0.18"/>
              <polyline points="23.31 11.36 22.63 12.29 25.38 12.08 26.26 10.97 23.92 11.16 23.79 11.33 23.31 11.36" fill="#fff" opacity="0.45"/>
              <polyline points="20.21 9.72 18.75 11.71 21.02 11.54 21.8 10.48 24.65 10.24 25.4 9.29 20.21 9.72" fill="#fff" opacity="0.73"/>
              <polyline points="21.8 10.48 21.02 11.54 23.31 11.36 23.43 11.2 23.92 11.16 24.65 10.24 21.8 10.48" fill="#fff" opacity="0.78"/>
              <polyline points="23.43 11.2 23.31 11.36 23.79 11.33 23.92 11.16 23.43 11.2" fill="#fff" opacity="0.85"/>
              <path d="M24.75,5.49s0,0,0,0c.23.45.86.77,1.92.94a6.39,6.39,0,0,0,3.05-.23A2.21,2.21,0,0,0,30,6.13c1.41-.66.61-1.71-1.47-1.95h-.15s0,0-.05,0c-.24.32-.5.64-.75,1a.12.12,0,0,1-.08.06.31.31,0,0,1-.15,0l-2.47.2a.22.22,0,0,0-.1,0" fill="#fff"/>
              <path d="M26.63,4.86l-.08,0L25.09,5C25,5,25,5,25,5c-.13-.34-.27-.67-.41-1v0a.33.33,0,0,1,.14,0l2.09.24a2.06,2.06,0,0,1,.36,0s-.06.1-.09.15l-.35.45-.06,0M24,3.65l.64,1.54s.07,0,.13,0L26.9,5H27A.1.1,0,0,0,27,5c.22-.28.44-.57.67-.85,0,0,0-.06-.1-.07l-1.37-.15L24,3.65" fill="#fff"/>
            </g>
          </g>
        </g>
      </g>
      <g>
        <polygon points="48.75 10.53 48.59 40.82 24.05 49.76 24.2 19.46 48.75 10.53" fill="#689cca"/>
        <g style="isolation: isolate">
          <g clip-path="url(#clip-path-3)">
            <g>
              <path d="M33,24.13l-1.11,1.2a.15.15,0,0,0,.16,0l.11-.05,4.78-1.74.11,0a.26.26,0,0,0,.15-.13,4.58,4.58,0,0,0-1.1-.36.37.37,0,0,1-.25.24h0l-2.49.91,0,0c-.11,0-.22.06-.27-.08" fill="#fff"/>
              <path d="M39.39,24.18a.31.31,0,0,1-.17.14l-.15.05L30,27.68l-.15.07a.15.15,0,0,1-.17,0,1.26,1.26,0,0,0-.31.34.15.15,0,0,0,.17,0,.94.94,0,0,1,.15-.06l4.87-1.77,4.87-1.78.15,0a.34.34,0,0,0,.17-.15.51.51,0,0,0-.31-.11" fill="#fff"/>
              <path d="M34.52,22.48a.5.5,0,0,0-.13.1c-.47.52-.94,1-1.42,1.55.05.14.16.12.27.08l0,0,2.49-.91h0a.37.37,0,0,0,.25-.24c-.44-.22-.91-.36-1.37-.54a.28.28,0,0,0-.18,0" fill="#fff"/>
              <path d="M39.08,24.07a.29.29,0,0,1-.17.13l-.15.05L34.51,25.8l-4.25,1.54-.15.07a.17.17,0,0,1-.17,0,1.41,1.41,0,0,0-.31.33.15.15,0,0,0,.17,0l.15-.07,9.12-3.31.15-.05a.31.31,0,0,0,.17-.14.49.49,0,0,0-.31-.11" fill="#fff"/>
              <path d="M38.77,24a.3.3,0,0,1-.16.12l-.13,0-4,1.45-4,1.44-.14.06a.15.15,0,0,1-.16,0c-.1.11-.21.22-.31.34a.17.17,0,0,0,.17,0l.15-.07,4.25-1.54,4.25-1.55.15-.05a.29.29,0,0,0,.17-.13L38.77,24" fill="#fff"/>
              <path d="M40.65,36.49l-.16.08L38,37.46l-2.47.9c-.15.15-.36.27-.29.57a.64.64,0,0,1,.29-.19l4.5-1.63.11,0a.14.14,0,0,1,.15,0,3,3,0,0,0,.5-.5c0-.11-.09-.11-.16-.09" fill="#fff"/>
              <path d="M29.29,41.33a.33.33,0,0,0-.23.23l.5.18a.32.32,0,0,1,.17-.12l.16,0,3.73-1.36V39.9c-.07-.12-.19-.08-.31,0h0L32,40.35l-2.61.94-.09,0" fill="#fff"/>
              <path d="M38.41,23.84a.3.3,0,0,1-.17.15l-.15,0-3.58,1.31-3.58,1.3a.94.94,0,0,1-.15.06.11.11,0,0,1-.16,0l-.37.39a.15.15,0,0,0,.16,0l.14-.06,4-1.44,4-1.45.13,0a.3.3,0,0,0,.16-.12l-.36-.12" fill="#fff"/>
              <path d="M33.16,39.54l-4.24,1.54a.61.61,0,0,0-.36.3,1.5,1.5,0,0,0,.5.18.33.33,0,0,1,.23-.23l.09,0L32,40.35l1.31-.48h0c.12,0,.24-.08.31,0v-.3c-.11-.15-.28-.13-.46-.06" fill="#fff"/>
              <path d="M35.56,39a.47.47,0,0,0-.31.34v.16l2.54-.92,1.27-.47.15-.06a.15.15,0,0,1,.17,0c.17-.11.28-.34.43-.47-.05-.11-.14-.09-.24,0h0l-2,.73-2,.71" fill="#fff"/>
              <path d="M39.7,24.29a.34.34,0,0,1-.17.15l-.15,0-4.87,1.78L29.64,28a.94.94,0,0,0-.15.06.15.15,0,0,1-.17,0l-.25.25a.17.17,0,0,0,.17,0l.16-.06,2.23-.81,2.23-.82.09,0a.43.43,0,0,1,.33,0,.68.68,0,0,1,.23-.17.41.41,0,0,1,.22,0,.76.76,0,0,1,.35-.21l.07,0,2.23-.81,2.24-.81.15-.05a.34.34,0,0,0,.17-.13l-.24-.08" fill="#fff"/>
              <path d="M27.52,40.82a.37.37,0,0,0-.18.14l.55.18a.28.28,0,0,1,.15-.21l.16,0,2.16-.79,2.17-.79a1.75,1.75,0,0,0,.49-.25.54.54,0,0,0-.35-.11l-5,1.82-.18,0" fill="#fff"/>
              <path d="M32.24,38.8,27,40.7c0,.27.17.21.3.26a.37.37,0,0,1,.18-.14l.18,0,5-1.82a.66.66,0,0,0-.43-.15" fill="#fff"/>
              <path d="M36.65,37.19a1.38,1.38,0,0,0-.35.37,1.48,1.48,0,0,0,.49-.1l1.85-.68,2.53-.91.15-.07a.15.15,0,0,1,.17,0c.15-.14.35-.22.37-.51l-5.21,1.88" fill="#fff"/>
              <path d="M37.67,23.57a.32.32,0,0,1-.17.16l-.15,0-2.83,1-2.84,1-.15.06a.14.14,0,0,1-.17,0,1.69,1.69,0,0,0-.36.39.16.16,0,0,0,.15,0,.59.59,0,0,0,.14-.06L34.51,25l3.23-1.17.14,0a.35.35,0,0,0,.15-.13.85.85,0,0,0-.36-.12" fill="#fff"/>
              <path d="M40.16,37.06l-.11,0-4.5,1.63a.64.64,0,0,0-.29.19v.45a.47.47,0,0,1,.31-.34l2-.71,2-.73h0c.1,0,.19-.06.24,0a2.47,2.47,0,0,0,.5-.56.14.14,0,0,0-.15,0" fill="#fff"/>
              <path d="M27,40.4v.3l5.2-1.9a.63.63,0,0,0-.39-.15L27,40.4" fill="#fff"/>
              <path d="M38.29,35.41l-.45.5c0,.07.12.06.19,0l.07,0,.08,0,1.23-.44,2.45-.9v-.38l-3.24,1.18-.16.07a.2.2,0,0,1-.17,0" fill="#fff"/>
              <path d="M30.49,38.17a.41.41,0,0,1-.17.13l-.15,0L27,39.48v.38l4-1.48a1.61,1.61,0,0,0-.58-.21" fill="#fff"/>
              <path d="M37.4,36.39a1.25,1.25,0,0,0-.35.37.37.37,0,0,0,.27,0l.12,0,4.42-1.61v-.31L37.4,36.39" fill="#fff"/>
              <path d="M35.54,39.58c-.26.1-.25.27-.24.48l1.46-.54L38.21,39l.15-.07c.07,0,.13,0,.15.11.22-.14.35-.44.56-.6,0-.12-.08-.11-.15-.08l-.06,0L37.2,39l-1.66.59h0" fill="#fff"/>
              <path d="M32.73,28l-.1,0-4.5,1.64a1,1,0,0,0,.44.15l4.13-1.51a1.48,1.48,0,0,0,.32-.34.37.37,0,0,0-.29,0" fill="#fff"/>
              <path d="M36.46,26.61a1.84,1.84,0,0,0-.48.25.62.62,0,0,0,.32.11l4.14-1.5a2.8,2.8,0,0,0,.43-.47L38,26.07l-1.46.52,0,0" fill="#fff"/>
              <path d="M33.29,40.48h0L31.89,41l-1.64.6-.09,0a.32.32,0,0,0-.24.24l.5.18a.34.34,0,0,1,.22-.22l.14,0,2.79-1c0-.3,0-.37-.28-.28" fill="#fff"/>
              <path d="M37.17,23.39a.26.26,0,0,1-.15.13l-.11,0-4.78,1.74-.11.05a.15.15,0,0,1-.16,0l-.31.33a.14.14,0,0,0,.16,0l.13-.06,2.68-1,2.67-1,.13,0a.32.32,0,0,0,.16-.13l-.31-.12" fill="#fff"/>
              <path d="M33.41,39.21,28.48,41l-.17,0a.36.36,0,0,0-.18.17.92.92,0,0,0,.43.15.61.61,0,0,1,.36-.3l4.24-1.54c.18-.07.35-.09.46.06,0-.25,0-.43-.21-.39" fill="#fff"/>
              <path d="M31.07,38.38l-4,1.48v.31l4-1.46.12,0a.47.47,0,0,0,.24-.16.41.41,0,0,0-.33-.13" fill="#fff"/>
              <path d="M38.9,34.77a6.2,6.2,0,0,0-.61.64.2.2,0,0,0,.17,0l.16-.07,3.24-1.18v-.38l-2.65,1-.13,0a.14.14,0,0,1-.18,0" fill="#fff"/>
              <path d="M41.9,27.3l0,0v.53c0,.26-.08.34-.27.41l-1.44.52-1,.34v.46l2.66-1c0-.1,0-.2,0-.32v-1" fill="#fff"/>
              <path d="M41.08,36.12l-.11.05L35.87,38a1.74,1.74,0,0,0-.32.34l2.47-.9,2.47-.89.16-.08c.07,0,.13,0,.16.09l.43-.46a.18.18,0,0,0-.16,0" fill="#fff"/>
              <path d="M36.3,37.56a2.37,2.37,0,0,0-.43.46L41,36.17l.11-.05a.18.18,0,0,1,.16,0c.11-.06.16-.21.25-.3a.15.15,0,0,0-.17,0l-.15.07-2.53.91-1.85.68a1.48,1.48,0,0,1-.49.1" fill="#fff"/>
              <path d="M28.76,28.66a1.52,1.52,0,0,0-.31.35.17.17,0,0,0,.17,0l.16-.06,4.52-1.64.16-.08a.17.17,0,0,1,.18,0,1.81,1.81,0,0,0,.44-.47l-5,1.81-.18.07a.17.17,0,0,1-.18,0" fill="#fff"/>
              <path d="M40.25,24.48a.33.33,0,0,1-.18.14l-.17.05-5,1.82a.83.83,0,0,0,.44.15.33.33,0,0,1,.18-.17l.16,0,4.52-1.65.16-.05a.29.29,0,0,0,.17-.13c-.13,0-.17-.16-.31-.12" fill="#fff"/>
              <path d="M33,39.06a1.75,1.75,0,0,1-.49.25l-2.17.79-2.16.79-.16,0a.28.28,0,0,0-.15.21l.24.09a.36.36,0,0,1,.18-.17l.17,0,4.93-1.81a.7.7,0,0,0-.39-.15" fill="#fff"/>
              <path d="M29.89,38a.36.36,0,0,1-.18.17l-.16,0-1.25.45-1.25.46v.38l3.13-1.14.15,0a.41.41,0,0,0,.17-.13c-.21-.05-.37-.21-.6-.2" fill="#fff"/>
              <path d="M27.07,35.14v.61c0,.28.16.33.39.24h0c.32-.13.65-.26,1-.37l1.3-.47v-.46l-1.35.49c-.34.12-.68.24-1,.38h0c-.24.09-.32,0-.28-.29a.61.61,0,0,1-.05-.12" fill="#fff"/>
              <path d="M27.07,34.52v.62a.61.61,0,0,0,.05.12l2.66-1v-.46l-2.39.87-.09,0c-.1,0-.19,0-.18-.16l-.05-.06" fill="#fff"/>
              <path d="M33.29,41.08h0l-1,.37-1.12.4a.6.6,0,0,0-.4.3,1.5,1.5,0,0,0,.5.18.93.93,0,0,1,.35-.19.85.85,0,0,1,.17-.06L32,42,32,42l.2-.08.28-.1.27-.09.39-.16.07,0c.21-.08.33,0,.36.26v-.54c0-.19-.12-.26-.32-.19" fill="#fff"/>
              <path d="M28.45,29a1.1,1.1,0,0,0-.31.33.15.15,0,0,0,.17,0l.15-.07,5-1.81a2,2,0,0,0,.19-.22.17.17,0,0,0-.18,0l-.16.08L28.78,29l-.16.06a.17.17,0,0,1-.17,0" fill="#fff"/>
              <path d="M40.56,24.6a.29.29,0,0,1-.17.13l-.16.05-4.52,1.65-.16,0a.33.33,0,0,0-.18.17l.19.07,5-1.82.15,0a.34.34,0,0,0,.17-.15.43.43,0,0,0-.31-.1" fill="#fff"/>
              <path d="M29.07,28.32c-.1.12-.21.23-.31.34a.17.17,0,0,0,.18,0l.18-.07,5-1.81a.45.45,0,0,0,.2-.21.43.43,0,0,0-.33,0l-.09,0-2.23.82-2.23.81-.16.06a.17.17,0,0,1-.17,0" fill="#fff"/>
              <path d="M39.94,24.37a.34.34,0,0,1-.17.13l-.15.05-2.24.81-2.23.81-.07,0a.76.76,0,0,0-.35.21.23.23,0,0,0,.2.08l5-1.82.17-.05a.33.33,0,0,0,.18-.14l-.31-.11" fill="#fff"/>
              <path d="M40.87,24.7a.34.34,0,0,1-.17.15l-.15,0-5,1.82a.89.89,0,0,0,.42.15,1.84,1.84,0,0,1,.48-.25l0,0L38,26.07,40.87,25c.07-.06.17-.11.16-.22s-.09-.08-.16-.08" fill="#fff"/>
              <path d="M28.14,29.34c-.07,0-.16.11-.17.19s.1.09.16.11L32.63,28l.1,0a.37.37,0,0,1,.29,0,2.69,2.69,0,0,0,.43-.46l-5,1.81-.15.07a.15.15,0,0,1-.17,0" fill="#fff"/>
              <path d="M41.83,29.3l-2.66,1v.46l2.66-1V29.3" fill="#fff"/>
              <path d="M38.22,23.77a.37.37,0,0,1-.17.14l-.15,0-3.39,1.24-3.38,1.23a.94.94,0,0,0-.15.06.15.15,0,0,1-.17,0l-.19.21a.11.11,0,0,0,.16,0,.94.94,0,0,0,.15-.06l3.58-1.3L38.09,24l.15,0a.3.3,0,0,0,.17-.15l-.19-.07" fill="#fff"/>
              <path d="M37.05,36.76a1.65,1.65,0,0,0-.4.43l5.21-1.88v-.23l-4.42,1.61-.12,0a.37.37,0,0,1-.27,0" fill="#fff"/>
              <path d="M38,23.69a.35.35,0,0,1-.15.13l-.14,0L34.51,25,31.29,26.2a.59.59,0,0,1-.14.06.16.16,0,0,1-.15,0l-.19.2a.15.15,0,0,0,.17,0,.94.94,0,0,1,.15-.06l3.38-1.23L37.9,24l.15,0a.37.37,0,0,0,.17-.14L38,23.69" fill="#fff"/>
              <path d="M31.4,38.51a.47.47,0,0,1-.24.16l-.12,0-4,1.46v.23l4.81-1.75c-.12-.12-.3-.09-.45-.14" fill="#fff"/>
              <path d="M41.89,28.29c-.08.12,0,.22,0,.32a.32.32,0,0,1-.26.4h0l-1,.37-1.37.5v.38l2.66-1c0-.08,0-.16.06-.24v-.77" fill="#fff"/>
              <path d="M29.76,37.73l-2.71,1v.38l1.25-.46,1.25-.45.16,0a.36.36,0,0,0,.18-.17.35.35,0,0,1-.13-.24" fill="#fff"/>
              <path d="M35.49,40.29c-.2.07-.17.25-.24.39v.38a.52.52,0,0,1,.34-.43h0l.84-.29.33-.12.58-.22.12-.05a.14.14,0,0,1,.17,0l.43-.48c.05-.15,0-.14-.1-.11l-1.43.53-1,.37h0" fill="#fff"/>
              <path d="M41.88,29.74l-.05,0a.39.39,0,0,1-.28.49h0l-1,.35-1.35.5v.38l2.66-1,.05-.09v-.69" fill="#fff"/>
              <path d="M27.06,36.59v.53l2.71-1v-.38l-2.36.86-.07,0c-.11,0-.21.07-.28,0" fill="#fff"/>
              <path d="M41.88,31a.44.44,0,0,1-.29.25l-.07,0-2.36.86v.38l2.71-1V31" fill="#fff"/>
              <path d="M41.87,31.8l-2.71,1v.38l2.71-1V31.8" fill="#fff"/>
              <path d="M27.05,38v.38l2.71-1v-.38l-2.71,1" fill="#fff"/>
              <path d="M41.87,33.09l-2.72,1v.38l2.73-1v-.39" fill="#fff"/>
              <path d="M38.36,38.93l-.15.07-1.45.52-1.46.54,0,.11s0,0,0,0v.46c.07-.14,0-.32.24-.39h0l1-.37L38,39.38c.08,0,.15,0,.1.11a1.85,1.85,0,0,0,.43-.45c0-.13-.08-.14-.15-.11" fill="#fff"/>
              <path d="M29.78,34.3l-2.66,1c0,.3,0,.38.28.29h0c.33-.14.67-.26,1-.38l1.35-.49V34.3" fill="#fff"/>
              <path d="M29.79,32.54l-2.66,1v.38l2.67-1v-.38" fill="#fff"/>
              <path d="M29.79,32.92l-2.67,1c0,.29.05.37.28.29h0l1-.38,1.34-.49v-.38" fill="#fff"/>
              <path d="M41.83,30.52l-2.66,1v.38l1.35-.49q.51-.19,1-.36h0a.39.39,0,0,0,.28-.49" fill="#fff"/>
              <path d="M41.83,29.76l-2.66,1v.38l1.35-.5,1-.35h0a.39.39,0,0,0,.28-.49" fill="#fff"/>
              <path d="M37.84,35.91a2,2,0,0,0-.44.48l4.46-1.62v-.23l-2.45.9-1.23.44-.08,0L38,36c-.07,0-.14,0-.19,0" fill="#fff"/>
              <path d="M33.25,41.55l-.07,0-.39.16-.27.09-.28.1L32,42,32,42l-.17.05a.85.85,0,0,0-.17.06.93.93,0,0,0-.35.19l.74.26a.59.59,0,0,1,.33-.25l.13-.05.45-.15.32-.14,0,0c.17-.06.27,0,.31.2v-.38c0-.27-.15-.34-.36-.26" fill="#fff"/>
              <path d="M37.48,23.51a.32.32,0,0,1-.16.13l-.13,0-2.67,1-2.68,1-.13.06a.14.14,0,0,1-.16,0,.65.65,0,0,0-.19.21.14.14,0,0,0,.17,0l.15-.06,2.84-1,2.83-1,.15,0a.32.32,0,0,0,.17-.16.21.21,0,0,0-.19-.06" fill="#fff"/>
              <path d="M28.88,29.9a.93.93,0,0,0,.42.15l2.62-.94a1.9,1.9,0,0,0,.43-.46L28.88,29.9" fill="#fff"/>
              <path d="M40.12,25.81l-3.47,1.28a.74.74,0,0,0,.39.15l2.64-1c.14-.17.32-.26.44-.47" fill="#fff"/>
              <path d="M35.58,40.63a.52.52,0,0,0-.34.43v.3A.47.47,0,0,1,35.5,41h0l.43-.15.21-.08.33-.12.16-.06h.05c.11,0,.23-.07.2.16a8.15,8.15,0,0,0,.75-.8.14.14,0,0,0-.17,0l-.12.05-.58.22-.33.12-.84.29h0" fill="#fff"/>
              <path d="M32.7,28.28l-4.13,1.51a.53.53,0,0,0,.31.11l3.47-1.25a1.24,1.24,0,0,0,.35-.37" fill="#fff"/>
              <path d="M40.44,25.47,36.3,27a.51.51,0,0,0,.35.12l3.47-1.28a1.48,1.48,0,0,0,.32-.34" fill="#fff"/>
              <path d="M39.14,34.46l-.24.31a.14.14,0,0,0,.18,0l.13,0,2.65-1v-.3l-2.73,1" fill="#fff"/>
              <path d="M27.12,33.82h0v.69l.05.06,2.66-1V33.3l-1.34.49-1,.38h0c-.23.08-.31,0-.28-.29v-.07" fill="#fff"/>
              <path d="M41.88,30.43l-.05.09a.39.39,0,0,1-.28.49h0q-.51.16-1,.36l-1.35.49v.31l2.36-.86.07,0a.44.44,0,0,0,.29-.25v-.61" fill="#fff"/>
              <path d="M27.07,35.75v.46c.06.16.17.16.32.11h0l1.42-.52.95-.35v-.3l-1.3.47c-.32.11-.65.24-1,.37h0c-.23.09-.36,0-.39-.24" fill="#fff"/>
              <path d="M27.06,36.21v.38c.07.11.17.08.28,0l.07,0,2.36-.86v-.31l-.95.35-1.42.52h0c-.15,0-.26,0-.32-.11" fill="#fff"/>
              <path d="M29.77,36.13l-2.71,1v.3l2.71-1v-.3" fill="#fff"/>
              <path d="M29.76,37.43l-2.71,1v.31l2.71-1v-.3" fill="#fff"/>
              <path d="M29.77,36.43l-2.71,1v.3l2.72-1v-.31" fill="#fff"/>
              <path d="M27.05,37.72V38l2.71-1v-.31l-2.72,1" fill="#fff"/>
              <path d="M41.87,32.48l-2.71,1v.31l2.72-1v-.31" fill="#fff"/>
              <path d="M41.87,32.18h0l-2.71,1v.3l2.71-1v-.3" fill="#fff"/>
              <path d="M41.87,32.79l-2.72,1v.3l2.72-1v-.3" fill="#fff"/>
              <path d="M39.49,28.62c-.13.15-.34.22-.31.5l1-.34,1.44-.52c.19-.07.3-.15.27-.41l-1.35.49-.68.25-.08,0-.07,0a.14.14,0,0,1-.17,0" fill="#fff"/>
              <path d="M41.84,28.61l-2.66,1v.31l1.37-.5,1-.37h0a.32.32,0,0,0,.26-.4" fill="#fff"/>
              <path d="M27.13,32.21l0,0v.92s0,.09.05.13L28,33l1.3-.48.12,0s.09-.06.06-.19a.44.44,0,0,0-.31-.11.29.29,0,0,1-.18.15l-.17,0-.42.15-.41.15-.62.23h0c-.11.05-.21.06-.2-.15v-.54" fill="#fff"/>
              <path d="M30.64,41.82a.34.34,0,0,0-.22.22.74.74,0,0,0,.36.12.6.6,0,0,1,.4-.3l1.12-.4,1-.37h0c.2-.07.28,0,.32.19v-.38a.05.05,0,0,1,0,0l0-.09-2.79,1-.14,0" fill="#fff"/>
              <path d="M36,41.22l-.28.13-.27.11-.06,0h0c-.16.06,0,.29-.15.42v.69l1.28-1.4a.75.75,0,0,0-.51,0" fill="#fff"/>
              <path d="M39.68,26.28l-2.64,1a1.05,1.05,0,0,0,.43.15l1.79-.65a2.08,2.08,0,0,0,.42-.46" fill="#fff"/>
              <path d="M29.3,30.05a.86.86,0,0,0,.43.15l1.8-.65a1.86,1.86,0,0,0,.39-.44l-2.62.94" fill="#fff"/>
              <path d="M39.92,28.15c-.14.16-.28.32-.43.47a.14.14,0,0,0,.17,0l.07,0,.08,0,.68-.25,1.35-.49v-.31l-1.07.4-.54.19-.14.06a.13.13,0,0,1-.17,0" fill="#fff"/>
              <path d="M28.24,31.82a1.41,1.41,0,0,1-.45.24l-.24.08-.25.08-.17.07v.46l1-.36.49-.17.09,0c.06,0,.1-.06.06-.18a1.44,1.44,0,0,0-.5-.19" fill="#fff"/>
              <path d="M39.21,38.09l-.15.06-1.27.47-2.54.92v.68l0,0,0-.11c0-.21,0-.38.24-.48h0L37.2,39l1.66-.61.06,0c.07,0,.13,0,.15.08l.31-.33a.15.15,0,0,0-.17,0" fill="#fff"/>
              <path d="M29.73,41.62a.32.32,0,0,0-.17.12l.36.12a.32.32,0,0,1,.24-.24l.09,0,1.64-.6,1.38-.51h0c.23-.09.32,0,.28.28l0,.09,0,0v-.68l-3.73,1.36-.16,0" fill="#fff"/>
              <path d="M35.5,41a.47.47,0,0,0-.26.32v.54c.1-.13,0-.36.15-.42h0l.06,0,.27-.11.28-.13a.75.75,0,0,1,.51,0l.38-.42c0-.23-.09-.19-.2-.16h-.05l-.16.06-.33.12-.21.08-.43.15h0" fill="#fff"/>
              <path d="M33.3,42l0,0-.32.14-.45.15-.13.05a.59.59,0,0,0-.33.25,1.79,1.79,0,0,0,.59.2,1.34,1.34,0,0,1,.44-.26l.2-.06.19-.07.17-.07v-.15c0-.2-.14-.26-.31-.2" fill="#fff"/>
              <path d="M29.48,32.27c0,.13,0,.17-.06.19l-.12,0L28,33l-.87.31v.23l2.66-1c0-.3-.17-.23-.31-.27" fill="#fff"/>
              <path d="M41.87,31.57l-2.71,1v.23l2.71-1v-.23" fill="#fff"/>
              <path d="M31.53,29.55l-1.8.65.78.31h.1a.35.35,0,0,0,.13-.1l.79-.86" fill="#fff"/>
              <path d="M37.47,27.39c.26.09.52.18.78.29a.17.17,0,0,0,.12,0,.19.19,0,0,0,.1-.08l.79-.87-1.79.65" fill="#fff"/>
              <path d="M29.78,33.61l-2.66,1c0,.21.08.2.18.16l.09,0,2.39-.87v-.23" fill="#fff"/>
              <path d="M33.05,42.54a1.34,1.34,0,0,0-.44.26,6.13,6.13,0,0,0,1,.37v-.83l-.17.07-.19.07-.2.06" fill="#fff"/>
              <path d="M28.74,32c0,.12,0,.16-.06.18l-.09,0-.49.17-1,.36c0,.21.09.2.2.15h0l.62-.23.41-.15.42-.15.17,0a.29.29,0,0,0,.18-.15.83.83,0,0,0-.43-.15" fill="#fff"/>
              <path d="M40.24,27.82a1.68,1.68,0,0,0-.32.33.13.13,0,0,0,.17,0l.14-.06.54-.19,1.07-.4v-.22l-.89.32-.44.16-.06,0-.06,0c-.06,0-.12,0-.16,0" fill="#fff"/>
              <path d="M41.9,26.38c-.09.15,0,.27,0,.4a.32.32,0,0,1-.21.39h0a2.42,2.42,0,0,0-.35.12l-.47.17c-.1,0-.17.06-.12-.12a2.43,2.43,0,0,0-.43.47c0,.06.1.05.16,0l.06,0,.06,0,.44-.16.89-.32,0,0v-.92" fill="#fff"/>
              <path d="M41.87,26c-.3.33-.59.66-.89,1a.6.6,0,0,0,.37,0l.18-.08.19-.08.13,0c0-.13,0-.25,0-.4a.61.61,0,0,0,0-.35" fill="#fff"/>
              <path d="M41,27c-.1.12-.21.23-.31.34s0,.16.12.12l.47-.17a2.42,2.42,0,0,1,.35-.12h0a.32.32,0,0,0,.21-.39l-.13,0-.19.08-.18.08A.6.6,0,0,1,41,27" fill="#fff"/>
              <path d="M27.81,31.67a.63.63,0,0,1-.28.18l-.15,0-.16.05-.09,0v.3l.17-.07.25-.08.24-.08a1.41,1.41,0,0,0,.45-.24l-.43-.15" fill="#fff"/>
              <path d="M27.11,31.4a.84.84,0,0,0,0,.38c.06,0,0,.13,0,.21l.09,0,.16-.05.15,0a.63.63,0,0,0,.28-.18l-.7-.27" fill="#fff"/>
              <path d="M41.89,29.06c-.07.08,0,.16-.06.24v.46l.05,0v-.68" fill="#fff"/>
              <path d="M27.08,33.15v.68h0v-.54s0-.09-.05-.13" fill="#fff"/>
              <path d="M27.09,31.78v.45l0,0V32c0-.08,0-.17,0-.21" fill="#fff"/>
              <polyline points="32.66 34.72 31.2 36.34 34.42 37.56 37.78 33.95 36.26 33.42 34.42 35.4 32.66 34.72" fill="#fff" opacity="0.33"/>
              <path d="M36.27,31.25l-1.53,1.64,1.52.53,1.52-1.63-1.51-.54M32.71,32.5,31.2,34.16l1.46.56,1.51-1.66-1.46-.56" fill="#fff" opacity="0.18"/>
              <polyline points="34.17 33.06 32.66 34.72 34.42 35.4 36.26 33.42 34.74 32.88 34.47 33.17 34.17 33.06" fill="#fff" opacity="0.45"/>
              <polyline points="34.48 28.38 31.26 31.95 32.71 32.5 34.42 30.6 36.27 31.25 37.84 29.57 34.48 28.38" fill="#fff" opacity="0.73"/>
              <polyline points="34.42 30.6 32.71 32.5 34.17 33.06 34.43 32.77 34.74 32.88 36.27 31.25 34.42 30.6" fill="#fff" opacity="0.78"/>
              <polyline points="34.43 32.77 34.17 33.06 34.47 33.17 34.74 32.88 34.43 32.77" fill="#fff" opacity="0.85"/>
              <path d="M42.14,21.33s0,.05-.07.11a3.24,3.24,0,0,0-.1,2.73,1.45,1.45,0,0,0,1.93.76l.3-.14c1.57-.82,2.43-3.36,1.59-4.7,0,0,0-.06-.08-.05l-.08.06L44,21.83s-.08.08-.12.09a.17.17,0,0,1-.12,0l-1.59-.57h-.07" fill="#fff"/>
              <path d="M43.92,20.79h-.06l-.94-.34s-.07,0,0-.11c.33-.76.67-1.52,1-2.29l0-.07s0,.05.07.07l.85,1.34c0,.08.15.17.13.25s-.15.19-.23.27c-.25.28-.5.54-.75.81a.18.18,0,0,1-.08.07m0-3.62c-.53,1.18-1,2.33-1.54,3.48,0,.09,0,.1,0,.12l1.4.5a.08.08,0,0,0,.07,0,.18.18,0,0,0,.07-.05L45.4,19.7c.07-.07.08-.11,0-.18-.19-.28-.37-.58-.56-.88-.3-.48-.61-1-.92-1.47" fill="#fff"/>
            </g>
          </g>
        </g>
      </g>
    </g>
  </g>
</svg>
