<svg id="Capa_1" data-name="Capa 1" xmlns="http://www.w3.org/2000/svg" xmlns:xlink="http://www.w3.org/1999/xlink" width="50" height="50" viewBox="0 0 50 50">
  <defs>
    <clipPath id="clip-path">
      <polygon points="24.04 49.76 1.25 39.47 1.41 9.17 24.2 19.46 24.04 49.76" fill="none"/>
    </clipPath>
    <clipPath id="clip-path-2">
      <polygon points="24.2 19.46 1.41 9.17 25.96 0.24 48.74 10.53 24.2 19.46" fill="none"/>
    </clipPath>
    <clipPath id="clip-path-3">
      <polygon points="48.74 10.53 48.59 40.82 24.04 49.76 24.2 19.46 48.74 10.53" fill="none"/>
    </clipPath>
  </defs>
  <g id="Figment_lido">
    <g style="isolation: isolate">
      <g>
        <polygon points="24.04 49.76 1.25 39.47 1.41 9.17 24.2 19.46 24.04 49.76" fill="#0a50b6"/>
        <g style="isolation: isolate">
          <g clip-path="url(#clip-path)">
            <g>
              <path d="M13.16,17.24c-.14-.07-.24.05-.27.34l0,.34v3.3c0,1.13,0,2.26,0,3.4a1.72,1.72,0,0,0,.22.83c1,1.67,2.09,3.31,3.13,5a.93.93,0,0,0,.35.38.37.37,0,0,0,.37-.06c1-.68,2-1.35,3-2,.37-.25.36-.43,0-1-1.66-2.61-3.33-5.23-5-7.85-.5-.78-1-1.57-1.49-2.34a.73.73,0,0,0-.28-.28" fill="#fff"/>
              <path d="M16.56,31.44a.33.33,0,0,0-.34,0c-1,.7-2,1.41-3.06,2.06-.27.17-.36.44-.35.89,0,1.07,0,2.14,0,3.19h0c0,1.17,0,2.35,0,3.53a1.19,1.19,0,0,0,.21.63.1.1,0,0,0,.06.05.37.37,0,0,0,.32-.05c.55-.34,1.09-.72,1.63-1.08l4.89-3.27c.29-.18.29-.42.05-.81-1-1.63-2.05-3.22-3.07-4.85a.89.89,0,0,0-.33-.34" fill="#fff"/>
              <path d="M12.44,17a.39.39,0,0,0-.35,0c-.66.41-1.3.86-1.95,1.29-1.52,1-3.05,2-4.57,3-.3.2-.29.44,0,.9l3,4.77a.87.87,0,0,0,.35.38.35.35,0,0,0,.36-.06c1-.72,2-1.41,3.09-2.09.2-.12.28-.31.29-.66,0-1.15,0-2.29,0-3.44s0-2.31,0-3.46a1.47,1.47,0,0,0-.17-.64.16.16,0,0,0-.08-.06" fill="#fff"/>
              <path d="M8.94,28a.33.33,0,0,0-.35.06c-.92.61-1.84,1.24-2.76,1.86-.67.43-.67.43,0,1.46Q8.9,36.3,12,41.15a.92.92,0,0,0,.34.34.09.09,0,0,0,.07,0c.11,0,.18-.27.19-.46,0-1.15,0-2.32,0-3.48s0-2.31,0-3.47a1.49,1.49,0,0,0-.18-.7c-1-1.68-2.11-3.33-3.16-5A.81.81,0,0,0,8.94,28" fill="#fff"/>
              <path d="M12.77,25.45a.27.27,0,0,0-.27,0c-1,.67-2,1.32-3,2-.35.25-.36.43,0,1L12.44,33a.73.73,0,0,0,.29.31.3.3,0,0,0,.32-.05l3-2c.09-.05.15-.17.24-.28a4.19,4.19,0,0,0-.2-.46l-3-4.84a.64.64,0,0,0-.26-.26" fill="#a2caed"/>
              <path d="M5.4,22.48s-.07,0-.09,0-.2.26-.2.45c0,1,0,2,0,3.07h0c0,1,0,2.07,0,3.12a1.19,1.19,0,0,0,.17.54l.39.1c.94-.6,1.86-1.23,2.79-1.86.29-.21.28-.37,0-.83-.9-1.44-1.8-2.86-2.72-4.28a.82.82,0,0,0-.3-.29" fill="#fff"/>
            </g>
          </g>
        </g>
      </g>
      <g>
        <polygon points="24.2 19.46 1.41 9.17 25.96 0.24 48.74 10.53 24.2 19.46" fill="#0b58c8"/>
        <g style="isolation: isolate">
          <g clip-path="url(#clip-path-2)">
            <g>
              <path d="M16.56,5.5c-.17.06-.16.16,0,.28l.24.12L19.34,7c.85.39,1.7.78,2.58,1.15a2,2,0,0,0,.8.16L29,8.26a1.89,1.89,0,0,0,.57-.07A.36.36,0,0,0,29.8,8c.26-.79.55-1.58.83-2.37.1-.3,0-.35-.76-.34L20,5.4l-3,0a1.74,1.74,0,0,0-.43.06" fill="#fff"/>
              <path d="M30,8.41a.32.32,0,0,0-.22.2c-.28.81-.55,1.63-.88,2.43-.08.21.05.35.4.5l2.42,1.09h0c.89.4,1.77.81,2.68,1.2a1.42,1.42,0,0,0,.64.1l.08,0c.11,0,.21-.13.22-.2.18-.43.32-.86.47-1.28l1.41-3.88c.09-.22-.1-.31-.59-.3l-6.11.09a1.51,1.51,0,0,0-.53.07" fill="#fff"/>
              <path d="M15.78,5.82a.49.49,0,0,0-.25.21c-.22.51-.38,1-.57,1.54-.43,1.21-.88,2.42-1.32,3.62-.08.23.1.31.69.3l6-.09a1.93,1.93,0,0,0,.56-.06.38.38,0,0,0,.25-.23c.25-.82.55-1.64.86-2.45.07-.16,0-.27-.27-.39L19.13,7.1,16.51,5.92a1.51,1.51,0,0,0-.63-.12l-.1,0" fill="#fff"/>
              <path d="M21.4,11.55a.38.38,0,0,0-.24.22c-.25.73-.51,1.46-.77,2.19-.2.53-.2.53,1.1.51l12.31-.19a1.89,1.89,0,0,0,.52-.08s.06,0,.07,0-.06-.19-.2-.26c-.86-.4-1.75-.79-2.63-1.19s-1.74-.79-2.64-1.18a1.74,1.74,0,0,0-.67-.13c-2.11,0-4.2.06-6.32.09a1.75,1.75,0,0,0-.53.06" fill="#fff"/>
              <path d="M22.48,8.51a.32.32,0,0,0-.19.17c-.28.79-.57,1.57-.85,2.36-.08.28,0,.34.75.33L28,11.28a1.37,1.37,0,0,0,.47-.06.28.28,0,0,0,.21-.2c.29-.79.58-1.57.85-2.37,0-.07,0-.14,0-.23a3.25,3.25,0,0,0-.51,0l-6.1.08a1.4,1.4,0,0,0-.4,0" fill="#a2caed"/>
              <path d="M14.37,11.67s-.07,0-.08.05,0,.2.18.26c.75.36,1.54.7,2.32,1.06h0l2.37,1.06a1.63,1.63,0,0,0,.55.09l.38-.19c.29-.73.55-1.47.8-2.21.07-.23-.06-.28-.63-.28l-5.41.09a1.66,1.66,0,0,0-.47.07" fill="#fff"/>
            </g>
          </g>
        </g>
      </g>
      <g>
        <polygon points="48.74 10.53 48.59 40.82 24.04 49.76 24.2 19.46 48.74 10.53" fill="#0b59cc"/>
        <g style="isolation: isolate">
          <g clip-path="url(#clip-path-3)">
            <g>
              <path d="M37.19,18.35c-.15.06-.26.26-.3.57l0,.35,0,3.28c0,1.12,0,2.25,0,3.35a.82.82,0,0,0,.23.64c1.13.78,2.29,1.52,3.42,2.28a.39.39,0,0,0,.39.08,1.06,1.06,0,0,0,.4-.36c1.08-1.51,2.17-3,3.26-4.52.41-.56.4-.72,0-1q-2.73-1.77-5.45-3.57c-.54-.36-1.08-.72-1.62-1.06a.36.36,0,0,0-.31,0" fill="#fff"/>
              <path d="M40.89,29.54a.85.85,0,0,0-.36.32c-1.11,1.55-2.23,3.1-3.36,4.62a1.73,1.73,0,0,0-.38,1.17c0,1.06,0,2.12,0,3.17h0c0,1.16,0,2.34,0,3.5,0,.18.1.4.22.44a.08.08,0,0,0,.07,0,1,1,0,0,0,.36-.32c.6-.8,1.18-1.63,1.78-2.44l5.36-7.35c.31-.42.31-.66,0-.84L41.26,29.6a.39.39,0,0,0-.37-.06" fill="#fff"/>
              <path d="M36.41,18.69A1.12,1.12,0,0,0,36,19c-.73,1-1.43,1.95-2.14,2.93-1.67,2.29-3.34,4.58-5,6.85-.32.45-.31.67,0,.89,1.09.73,2.2,1.45,3.29,2.17a.4.4,0,0,0,.38.09,1,1,0,0,0,.39-.37q1.68-2.36,3.39-4.66a1.42,1.42,0,0,0,.31-.89c0-1.14,0-2.27,0-3.41s0-2.3,0-3.44c0-.19-.08-.44-.19-.48a.11.11,0,0,0-.08,0" fill="#fff"/>
              <path d="M32.56,32.57a1,1,0,0,0-.39.36l-3,4.16c-.74,1-.74,1,0,1.46,2.25,1.49,4.5,3,6.76,4.43a.47.47,0,0,0,.37,0l.08-.05a1.07,1.07,0,0,0,.21-.62c0-1.14,0-2.29,0-3.45s0-2.3,0-3.43a.65.65,0,0,0-.2-.53c-1.14-.78-2.3-1.53-3.45-2.3a.4.4,0,0,0-.37-.07" fill="#fff"/>
              <path d="M36.76,26.8a.73.73,0,0,0-.3.27c-1.09,1.49-2.18,3-3.26,4.47-.38.53-.39.72,0,1l3.18,2.07a.34.34,0,0,0,.33.06.82.82,0,0,0,.34-.32l3.28-4.5c.09-.13.16-.3.26-.48-.09-.11-.13-.23-.22-.29L37,26.84a.32.32,0,0,0-.28,0" fill="#a2caed"/>
              <path d="M28.69,30.07a.21.21,0,0,0-.1.06,1.12,1.12,0,0,0-.21.61c0,1,0,2,0,3.05h0c0,1,0,2.05,0,3.08,0,.16.09.37.2.4l.42-.23c1-1.38,2-2.79,3.05-4.19.32-.45.31-.6,0-.82-1-.66-2-1.31-3-1.94a.38.38,0,0,0-.33,0" fill="#fff"/>
            </g>
          </g>
        </g>
      </g>
    </g>
  </g>
</svg>
