<svg id="Capa_1" data-name="Capa 1" xmlns="http://www.w3.org/2000/svg" xmlns:xlink="http://www.w3.org/1999/xlink" width="50" height="50" viewBox="0 0 50 50">
  <defs>
    <clipPath id="clip-path">
      <polygon points="24.04 49.76 1.25 39.47 1.41 9.17 24.2 19.46 24.04 49.76" fill="none"/>
    </clipPath>
    <clipPath id="clip-path-2">
      <polygon points="24.2 19.46 1.41 9.17 25.96 0.24 48.75 10.53 24.2 19.46" fill="none"/>
    </clipPath>
    <clipPath id="clip-path-3">
      <polygon points="48.75 10.53 48.59 40.82 24.04 49.76 24.2 19.46 48.75 10.53" fill="none"/>
    </clipPath>
  </defs>
  <g id="Figment_lido">
    <g style="isolation: isolate">
      <g>
        <polygon points="24.04 49.76 1.25 39.47 1.41 9.17 24.2 19.46 24.04 49.76" fill="#d6d6d6"/>
        <g style="isolation: isolate">
          <g clip-path="url(#clip-path)">
            <g>
              <path d="M8.33,25.34c-.14-.06-.16-.16-.16-.33,0-.42,0-.85,0-1.28,0-.2,0-.27.15-.21l.06,0,.15.08.2.08.25.1.18.09a1.4,1.4,0,0,1,.63,1.17c0,.49-.26.76-.63.62L9,25.61l-.19-.08-.21-.09a1.89,1.89,0,0,0-.21-.09h0m0-3.8-.65-.27L7.05,21l-.37-.17h0c-.13-.06-.14,0-.13.18q0,4.27.06,8.52c0,.22.06.29.19.35h0l.65.27.53.23H8c.16.07.21,0,.21-.21,0-.93,0-1.85,0-2.77,0-.09,0-.23.05-.26a.18.18,0,0,1,.14,0,.93.93,0,0,1,.45.5l1,3.25c0,.14.07.28.21.34l.86.36.89.39c-.47-1.42-.91-2.78-1.37-4.12-.06-.2-.05-.26.07-.3a1.32,1.32,0,0,0,.84-1.08,4.46,4.46,0,0,0-1.8-4.41,12.57,12.57,0,0,0-1.17-.57" fill="#4b4b4b"/>
              <path d="M15.34,32.1c-.07,0-.1-.11-.1-.28,0-.95,0-1.91,0-2.86s0-1.84,0-2.76c0-.19,0-.26.11-.22l.11.07a3.9,3.9,0,0,1,1.34,2.26c.32,1.46.28,2.71-.44,3.51a1,1,0,0,1-.88.3l-.1,0m-.95-.42a.38.38,0,0,1-.13-.08,4.59,4.59,0,0,1-1.5-3.26,3,3,0,0,1,.71-2.59,1.07,1.07,0,0,1,.78-.22l.08,0c.09,0,.12.12.12.3,0,.93,0,1.88,0,2.82s0,1.86,0,2.79c0,.2,0,.25-.1.22M15,24.4l-.12,0-.08,0-.09,0-.08-.05c-.14-.06-.2,0-.17.27s0,.31-.2.24h0a.57.57,0,0,0-.18,0c-1.38-.12-2.19,1.06-2.13,3.1a5.64,5.64,0,0,0,2.38,4.6.3.3,0,0,1,.17.33c0,.3.06.45.23.53l.11,0,.09,0,.09,0,.08,0c.15.06.21,0,.17-.29s0-.29.19-.25c1.46.3,2.33-.75,2.33-2.8a5.73,5.73,0,0,0-2.4-4.87.27.27,0,0,1-.16-.3c.05-.31,0-.46-.22-.53" fill="#4b4b4b"/>
              <path d="M11.26,33.51a.72.72,0,0,0-.5,0c-.35.1-.71.2-1.07.28A4.24,4.24,0,0,1,8.5,34c-.29.34-.72.27-1.1.36s-.5.07-.66.33a7,7,0,0,1,1,.55,2.41,2.41,0,0,0,.46.26,1.84,1.84,0,0,0,.71.17l1.76.1a8.16,8.16,0,0,0,2.5.12c-.1-.35-.36-.49-.5-.79s-.57-.7-.84-1.06a1.42,1.42,0,0,0-.57-.5" fill="#4b4b4b"/>
              <path d="M15.56,36.4a.48.48,0,0,0-.26,0l-.68.33a20.33,20.33,0,0,0,1.57,1.63,10.53,10.53,0,0,0,2.7,1.77,10,10,0,0,0-1.07-1.3c-.61-.7-1.25-1.29-1.82-2.07a1.53,1.53,0,0,0-.44-.32" fill="#4b4b4b"/>
              <path d="M7,33.07a.72.72,0,0,0-1,.29l0,0a1.15,1.15,0,0,1-1.24.23,1.79,1.79,0,0,0-1.16-.09l.14.06a9.13,9.13,0,0,0,1,.32,14.15,14.15,0,0,1,1.48.48,4.2,4.2,0,0,1,.52.26c.16-.26.42-.26.66-.33s.81,0,1.1-.36c-.29-.19-.58-.35-.87-.55A3.38,3.38,0,0,0,7,33.07" fill="#a2bfad"/>
              <path d="M16.48,36.71a.54.54,0,0,0-.48,0c.57.78,1.21,1.37,1.82,2.07a10,10,0,0,1,1.07,1.3c.45.2.9.51,1.35.71l.31.11a10.4,10.4,0,0,1-1.68-1.59c-.62-.71-1.22-1.44-1.84-2.15a1.72,1.72,0,0,0-.55-.46" fill="#a2bfad"/>
              <path d="M13.54,34.76l-.1,0a1.19,1.19,0,0,0-.77.33c.14.3.4.44.5.79a1,1,0,0,1,.51.07,1.83,1.83,0,0,1,.54.39c.13.13.24.3.39.36h0l.68-.33a1.56,1.56,0,0,0-.7-.9.71.71,0,0,0-.2,0,.54.54,0,0,1-.22,0,.84.84,0,0,1-.32-.29,1,1,0,0,0-.32-.33" fill="#a2bfad"/>
            </g>
          </g>
        </g>
      </g>
      <g>
        <polygon points="24.2 19.46 1.41 9.17 25.96 0.24 48.75 10.53 24.2 19.46" fill="#ebebeb"/>
        <g style="isolation: isolate">
          <g clip-path="url(#clip-path-2)">
            <g>
              <path d="M18.55,10.59a.45.45,0,0,1-.41,0l-1.05-.47c-.18-.07-.19-.12,0-.17l.07,0,.19-.06.25-.09.3-.11.23-.08a2.38,2.38,0,0,1,1.52.05c.4.19.39.45-.05.62l-.23.09-.24.08-.26.1-.25.1h0M15.48,9.14l-.8.29c-.27.1-.53.21-.8.3l-.48.17h0c-.16.05-.08.09,0,.14l7,3.17a.51.51,0,0,0,.45,0h0l.8-.29.67-.24h0c.21-.07.2-.12,0-.21-.77-.33-1.52-.68-2.28-1-.07,0-.22-.06-.17-.13s.08-.05.14-.08a1.86,1.86,0,0,1,.81-.08l3.54.61a.9.9,0,0,0,.46,0L26,11.38,27.07,11l-4.58-.71c-.22,0-.26-.06-.18-.15a.57.57,0,0,0-.14-.91c-1-.81-3.4-1.08-5.19-.56-.53.15-1,.32-1.5.5" fill="#4b4b4b"/>
              <path d="M30.29,8.83a.35.35,0,0,1-.32,0c-.77-.36-1.56-.71-2.34-1.06s-1.51-.69-2.27-1q-.24-.11-.09-.15l.17,0a7,7,0,0,1,3,0c1.48.34,2.47.84,2.48,1.58,0,.23-.21.45-.54.65l-.11.05m-1.19.43-.18.05a7.52,7.52,0,0,1-4-.31c-1-.38-1.61-.83-1.48-1.41A1.05,1.05,0,0,1,24,7l.1,0a.43.43,0,0,1,.34,0c.77.36,1.54.7,2.32,1s1.52.7,2.3,1c.16.07.18.11.08.14M23.69,6.17l-.13,0-.1,0-.12,0-.11,0c-.17.06-.15.13.08.2s.21.15,0,.22h0a1,1,0,0,0-.18.09c-1.33.8-1.08,1.74.64,2.47a9.54,9.54,0,0,0,5.86.27.5.5,0,0,1,.42,0,.65.65,0,0,0,.63.06l.13-.05.1,0,.12,0,.11,0c.18-.06.17-.13-.08-.21s-.22-.12,0-.21c1.55-.78,1.46-1.71-.21-2.47a9.51,9.51,0,0,0-6.1-.37.47.47,0,0,1-.39,0,.62.62,0,0,0-.63-.06" fill="#4b4b4b"/>
              <path d="M27.81,11.86a1.14,1.14,0,0,0-.47.29c-.23.26-.47.51-.72.76a4.63,4.63,0,0,1-.88.81c0,.3-.43.54-.69.81s-.38.33-.31.53c.44-.14.85-.3,1.33-.41a4.73,4.73,0,0,0,.63-.18,4.14,4.14,0,0,0,.76-.37c.55-.35,1.09-.7,1.65-1a13.66,13.66,0,0,0,2.32-1.49,10.1,10.1,0,0,0-1.1,0l-1.61.11a3,3,0,0,0-.91.16" fill="#4b4b4b"/>
              <path d="M34,10.31a1.21,1.21,0,0,0-.28.15l-.33.54c1-.08,1.83-.22,2.73-.35a22.26,22.26,0,0,0,3.83-1,18.61,18.61,0,0,0-2,.16c-1.11.11-2.17.28-3.31.34a3.39,3.39,0,0,0-.64.14" fill="#4b4b4b"/>
              <path d="M23.71,14.27c-.49.18-.79.41-.68.74v0c-.08.32-.3.61-.91.84a3,3,0,0,0-1.11.67l.18-.06c.43-.16.78-.33,1.16-.5.57-.24,1.09-.5,1.71-.73.21-.07.43-.15.68-.21-.07-.2.15-.36.31-.53s.71-.51.69-.81l-1.23.33a6.51,6.51,0,0,0-.8.22" fill="#a2bfad"/>
              <path d="M35.06,9.87a.77.77,0,0,0-.42.3c1.14-.06,2.2-.23,3.31-.34a18.61,18.61,0,0,1,2-.16c.57-.2,1.23-.36,1.79-.56L42.1,9a23.13,23.13,0,0,1-2.78.43l-3.39.32a3.76,3.76,0,0,0-.87.16" fill="#a2bfad"/>
              <path d="M30.86,10.94l-.1.05c-.22.19-.42.38-.43.6a10.1,10.1,0,0,1,1.1,0,1.74,1.74,0,0,1,.51-.28,3.8,3.8,0,0,1,.8-.18,3,3,0,0,0,.64-.11h0l.33-.54a3,3,0,0,0-1.34.09,1.13,1.13,0,0,0-.22.11,1.23,1.23,0,0,1-.23.11,1.68,1.68,0,0,1-.52.09,1.87,1.87,0,0,0-.55.08" fill="#a2bfad"/>
            </g>
          </g>
        </g>
      </g>
      <g>
        <polygon points="48.75 10.53 48.59 40.82 24.04 49.76 24.2 19.46 48.75 10.53" fill="#f0f0f0"/>
        <g style="isolation: isolate">
          <g clip-path="url(#clip-path-3)">
            <g>
              <path d="M32,28.8c-.16.05-.18,0-.18-.22,0-.44,0-.89,0-1.33,0-.21,0-.31.18-.36l.06,0,.18-.05.23-.09.28-.11.22-.07c.41-.11.71.18.71.69a1.35,1.35,0,0,1-.74,1.2l-.22.09-.22.07-.24.09-.24.1h0m.09-4-.75.29-.76.29-.44.15h0c-.15.05-.15.16-.15.31,0,3,0,5.93-.05,8.89,0,.23.07.26.21.2h0l.75-.28.62-.22h0c.19-.07.24-.17.24-.41,0-1,0-1.92,0-2.88,0-.1,0-.21.06-.32a.62.62,0,0,1,.17-.11.4.4,0,0,1,.51.15c.37.84.74,1.69,1.12,2.54.05.11.08.23.24.17l1-.37,1-.37c-.52-1.08-1-2.12-1.53-3.14-.08-.15-.06-.22.08-.37a3.82,3.82,0,0,0,1-1.86c.42-2-.51-3.41-2-3.07a14,14,0,0,0-1.35.42" fill="#4b4b4b"/>
              <path d="M40,29.78c-.09,0-.12,0-.11-.2,0-1,0-2,0-3s0-1.92,0-2.87c0-.2,0-.3.13-.34h.13a1.44,1.44,0,0,1,1.52,1.2,5,5,0,0,1-.55,4.06,3.38,3.38,0,0,1-1,1.09l-.12.06m-1.1.4-.15,0c-1,0-1.62-.75-1.7-2.11a5.17,5.17,0,0,1,.87-3.35,3.35,3.35,0,0,1,.9-.9l.1-.06c.1,0,.13,0,.13.22,0,1,0,2,0,2.95s0,1.94,0,2.91c0,.2,0,.28-.12.32M39.69,22l-.13.06-.1,0-.1,0-.1,0c-.15.06-.22.2-.19.43a.35.35,0,0,1-.24.43h0a1,1,0,0,0-.19.12,6,6,0,0,0-2.53,5.11c0,2,1,3,2.71,2.75.13,0,.22,0,.19.2-.06.36.06.44.26.36a.34.34,0,0,0,.12-.06l.1,0,.11,0a.38.38,0,0,0,.1,0c.17-.06.24-.19.2-.45a.37.37,0,0,1,.22-.43,5.62,5.62,0,0,0,2.75-4.95c0-2.18-1-3.32-2.72-3-.13,0-.21,0-.18-.17,0-.37-.06-.44-.26-.36" fill="#4b4b4b"/>
              <path d="M35.24,34.82a1.64,1.64,0,0,0-.58.4c-.41.42-.83.83-1.25,1.23A11.64,11.64,0,0,1,32,37.71,5.81,5.81,0,0,1,30.75,39,3.25,3.25,0,0,0,30,40a7.63,7.63,0,0,1,1.16-.3,2,2,0,0,0,.53-.13,3.4,3.4,0,0,0,.82-.43c.68-.47,1.36-1,2.05-1.43a19,19,0,0,0,2.9-2.06c-.11-.27-.41-.2-.57-.39-.32-.12-.65-.24-1-.38a.84.84,0,0,0-.66,0" fill="#4b4b4b"/>
              <path d="M40.21,34.11a.93.93,0,0,0-.31.19l-.79.93a9,9,0,0,0,1.8.35A8.19,8.19,0,0,0,44,35.09a3.8,3.8,0,0,0-1.22-.44,12.18,12.18,0,0,1-2.09-.58,1.07,1.07,0,0,0-.5,0" fill="#4b4b4b"/>
              <path d="M30.35,38a2.12,2.12,0,0,0-1.2,1.2l0,.07a3.4,3.4,0,0,1-1.45,1.33,4,4,0,0,0-1.34.9l.16-.05c.41-.15.79-.37,1.18-.55.57-.26,1.14-.58,1.71-.79A4.5,4.5,0,0,1,30,40a3.25,3.25,0,0,1,.78-.93A5.81,5.81,0,0,0,32,37.71c-.33,0-.67.14-1,.18a2.65,2.65,0,0,0-.68.14" fill="#a2bfad"/>
              <path d="M41.26,33.64a1.3,1.3,0,0,0-.55.43,12.18,12.18,0,0,0,2.09.58,3.8,3.8,0,0,1,1.22.44c.52-.18,1-.24,1.56-.44a2.75,2.75,0,0,0,.36-.15A5,5,0,0,1,44,34.29c-.71-.2-1.4-.44-2.11-.65a.94.94,0,0,0-.64,0" fill="#a2bfad"/>
              <path d="M37.88,34.15a.25.25,0,0,0-.12.07,4.2,4.2,0,0,0-.9,1c.16.19.46.12.57.39a1.88,1.88,0,0,1,.59-.36,1.51,1.51,0,0,1,.63-.07.75.75,0,0,0,.45.05h0l.79-.93a.64.64,0,0,0-.8-.34,1.1,1.1,0,0,0-.23.13,1,1,0,0,1-.25.15.5.5,0,0,1-.38,0,.42.42,0,0,0-.36-.07" fill="#a2bfad"/>
            </g>
          </g>
        </g>
      </g>
    </g>
  </g>
</svg>
