<svg id="Capa_1" data-name="Capa 1" xmlns="http://www.w3.org/2000/svg" xmlns:xlink="http://www.w3.org/1999/xlink" width="50" height="50" viewBox="0 0 50 50">
  <defs>
    <clipPath id="clip-path">
      <polygon points="24.04 49.76 1.25 39.47 1.41 9.18 24.2 19.46 24.04 49.76" fill="none"/>
    </clipPath>
    <clipPath id="clip-path-2">
      <polygon points="24.2 19.46 1.41 9.18 25.96 0.24 48.74 10.53 24.2 19.46" fill="none"/>
    </clipPath>
    <clipPath id="clip-path-3">
      <polygon points="48.74 10.53 48.58 40.83 24.04 49.76 24.2 19.46 48.74 10.53" fill="none"/>
    </clipPath>
  </defs>
  <g id="Figment_lido">
    <g style="isolation: isolate">
      <g>
        <polygon points="24.04 49.76 1.25 39.47 1.41 9.18 24.2 19.46 24.04 49.76" fill="#d6d6d6"/>
        <g style="isolation: isolate">
          <g clip-path="url(#clip-path)">
            <g>
              <path d="M7.08,26.92h0m3.8-3.58V20.82l3.78,1.69v5.06l-3.77-1.68V23.34m7.53-1.61L7.11,16.67v2.57h0l0,0L9,20.12v5L7,24.3H7l.06,0v2.59h0v0L18.38,32v0h0v0h0V29.38l-1.9-.85V26h0V23.51l1.86.83,0,0V21.73" fill="#e3a7c8"/>
              <path d="M18.38,32,7.08,27v2.54l2,.88v2.54l-.39-.17H8.58a2.75,2.75,0,0,1-.5-.18c-.34-.15-.68-.35-1-.5l-1.88-.82v2.56l5.65,2.53,0-2.52h0V31.24l3.78,1.69v2.55h0c0,.84,0,1.69,0,2.54l5.65,2.52V38l-1.88-.87c-.34-.15-.68-.25-1-.4a4.08,4.08,0,0,1-.5-.27l-.06,0-.38-.17V33.67l2,.87V32" fill="#70dd93"/>
              <path d="M10.82,36.32,5.17,33.79c0,.7,0,1.4,0,2.08,0,.38.06.52.32.64l0,0c.75.32,1.51.66,2.27,1l3,1.36c0-.85,0-1.71,0-2.56h0" fill="#e3a7c8"/>
              <path d="M20.25,40.53,14.6,38h0v2.56l2.68,1.2L19.94,43c.26.11.32.07.3-.28,0-.73,0-1.44,0-2.17" fill="#e3a7c8"/>
              <path d="M14.59,38l-3.76-1.68c0,.85,0,1.71,0,2.56l3.77,1.68V38" fill="#70dd93"/>
              <path d="M5.43,15.91c-.18-.07-.22,0-.21.24,0,.76,0,1.5,0,2.25l1.88.84V16.67l-.94-.41c-.24-.1-.47-.21-.71-.33l0,0" fill="#70dd93"/>
              <path d="M20.1,22.48l0,0-.71-.3-.94-.43v2.56l1.88.85c0-.75,0-1.5,0-2.24,0-.26,0-.35-.2-.42" fill="#70dd93"/>
              <path d="M7.1,19.24,5.22,18.4v2.54l1.84.82v-2.5l.06,0,0,0h0" fill="#e3a7c8"/>
              <path d="M18.41,24.29v0l0,0,.05,0v2.47l1.86.83v0h0V25.14l-1.88-.85" fill="#e3a7c8"/>
              <path d="M7.08,26.92h0M6.46,24,5.2,23.48v2.61h0l1.87.82h0V24.33L7,24.3,6.46,24" fill="#900d5c"/>
              <path d="M18.38,32v0h0m1.9-1.84h0v.09l-1.87-.84V32l1.84.84h0V30.13" fill="#900d5c"/>
              <path d="M7.08,26.93h0L5.2,26.1h0v2.56L7,29.5v0h0V26.93" fill="#e3a7c8"/>
              <path d="M18.38,32v2.56h0v0l1.86.82V32.84h0L18.4,32h0" fill="#e3a7c8"/>
              <path d="M5.19,28.66v2.57l1.88.82v0H7V29.5l-1.85-.84" fill="#900d5c"/>
              <path d="M20.26,35.4l-1.86-.82V37.1h0l1.88.87V35.4" fill="#900d5c"/>
              <path d="M14.58,35.47,10.85,33.8l0,2.52h0L14.59,38h0c0-.85,0-1.7,0-2.54" fill="#e3a7c8"/>
              <path d="M8.64,32.74,7.06,32v0c.34.15.68.35,1,.5a2.75,2.75,0,0,0,.5.18h.06" fill="#e3a7c8"/>
              <path d="M18.37,37.09l-1.58-.71.06,0a4.08,4.08,0,0,0,.5.27c.34.15.68.25,1,.4h0" fill="#e3a7c8"/>
              <polyline points="8.97 20.11 7.12 19.29 7.06 19.26 7.05 21.76 8.97 22.62 8.97 20.11" fill="#900d5c"/>
              <polyline points="18.42 24.37 18.37 24.34 16.51 23.51 16.5 25.99 18.41 26.84 18.42 24.37" fill="#900d5c"/>
              <polyline points="14.61 32.93 10.82 31.24 10.82 33.78 10.85 33.8 14.58 35.47 14.6 35.48 14.61 32.93" fill="#900d5c"/>
              <polyline points="9.03 30.37 7.07 29.49 7.04 29.48 7.04 29.5 7.04 32.02 7.06 32.03 8.64 32.74 9.03 32.91 9.03 30.37" fill="#e3a7c8"/>
              <polyline points="18.4 34.55 18.37 34.54 16.41 33.67 16.41 36.21 16.79 36.38 18.37 37.09 18.39 37.1 18.4 34.58 18.4 34.55" fill="#e3a7c8"/>
              <polyline points="10.88 23.34 10.87 25.89 14.64 27.57 14.65 25.05 10.88 23.37 10.88 23.34" fill="#900d5c"/>
              <polyline points="14.66 22.51 10.88 20.82 10.88 23.34 10.88 23.37 14.65 25.05 14.66 22.51" fill="#70dd93"/>
              <polyline points="20.27 27.68 18.41 26.84 16.5 25.99 16.5 25.99 16.49 28.53 18.39 29.38 20.26 30.22 20.26 30.13 20.27 27.7 20.27 27.68" fill="#70dd93"/>
              <polyline points="8.97 22.62 7.05 21.76 5.21 20.94 5.19 20.93 5.18 23.48 5.2 23.48 6.46 24.04 7.02 24.3 8.96 25.16 8.97 22.62" fill="#70dd93"/>
            </g>
          </g>
        </g>
      </g>
      <g>
        <polygon points="24.2 19.46 1.41 9.18 25.96 0.24 48.74 10.53 24.2 19.46" fill="#ebebeb"/>
        <g style="isolation: isolate">
          <g clip-path="url(#clip-path-2)">
            <g>
              <path d="M18.84,12.11h0m.3-3.27L17.29,8,21.45,6.5l1.86.84,1.85.83L21,9.69l-1.87-.85m4.63-4.66L11.31,8.71l1.88.85h.05l2-.75,1.84.83L19,10.5l-2.14.78h0l.08,0,1.9.86h0L31.31,7.59h0l-1.91-.85-2.1.76-1.86-.84h0l-1.82-.82,2.06-.75,0,0h0l-1.89-.85" fill="#e3a7c8"/>
              <path d="M31.31,7.59,18.86,12.12l1.87.84,2.16-.78,1.87.84-.42.15-.06,0a5.08,5.08,0,0,1-.52.22l-1.16.39-2.05.77,1.88.84,6.23-2.26c-.62-.28-1.23-.56-1.83-.85l0,0-1.87-.85L29.08,10l1.87.84h0l1.88.83L39,9.38l-1.88-.85-2.1.75c-.37.13-.71.29-1.08.42l-.59.19-.08,0-.42.15L31,9.22l2.16-.79-1.87-.84" fill="#70dd93"/>
              <path d="M28.66,13.16l-6.23,2.26c.52.24,1,.46,1.52.7a.78.78,0,0,0,.73,0h0l2.49-.92L30.54,14l-1.87-.85h0" fill="#e3a7c8"/>
              <path d="M39,9.38l-6.23,2.27h0l1.88.85,3-1.08,3-1.07c.28-.1.29-.14,0-.25-.56-.23-1.07-.48-1.6-.72" fill="#e3a7c8"/>
              <path d="M32.81,11.65l-4.14,1.51,1.87.85,4.15-1.51-1.88-.85" fill="#70dd93"/>
              <path d="M9.45,9.38c-.19.07-.18.11,0,.2.57.24,1.11.49,1.66.74l2.06-.76-1.88-.85-1,.38-.79.28h0" fill="#70dd93"/>
              <path d="M25.62,3.5h0l-.77.29-1,.38L25.66,5l2.07-.75-1.64-.75a.49.49,0,0,0-.47,0" fill="#70dd93"/>
              <path d="M13.19,9.56l-2.06.76,1.86.84,2-.74-1.84-.83.06,0h-.05" fill="#e3a7c8"/>
              <path d="M25.66,5h0l0,0,0,0,1.82.83,2-.75h0l-1.89-.84L25.66,5" fill="#e3a7c8"/>
              <path d="M18.84,12.11h0m-2.6-.61L14.86,12l1.92.86h0l2.05-.75h0l-1.9-.86-.08,0-.62.22" fill="#900d5c"/>
              <path d="M31.29,7.57h0m.11-1.64h0l.06,0-2.06.75,1.91.85h0l2-.73v0l-2-.89" fill="#900d5c"/>
              <path d="M18.85,12.11h0l-2.05.75h0l1.88.85L20.71,13h0l-1.87-.84h0" fill="#e3a7c8"/>
              <path d="M31.3,7.58h0l1.87.84h0l2.05-.75-1.88-.85h0l-2,.73h0" fill="#e3a7c8"/>
              <path d="M18.66,13.72l1.89.86,2.05-.77h0L20.71,13l-2.05.74" fill="#900d5c"/>
              <path d="M35.27,7.68l-2.05.75,1.86.83h0l2.1-.75-1.89-.85" fill="#900d5c"/>
              <path d="M30.93,10.82l-4.1,1.49c.6.29,1.21.57,1.83.85h0l4.14-1.51h0l-1.88-.83" fill="#e3a7c8"/>
              <path d="M24.34,13.17l-1.75.64h0l1.16-.39a5.08,5.08,0,0,0,.52-.22l.06,0" fill="#e3a7c8"/>
              <path d="M35.05,9.27l-1.74.64.08,0L34,9.7c.37-.13.71-.29,1.08-.42h0" fill="#e3a7c8"/>
              <polyline points="15.29 8.82 13.24 9.57 13.18 9.59 15.02 10.42 17.13 9.65 15.29 8.82" fill="#900d5c"/>
              <polyline points="25.72 5.04 25.66 5.06 23.61 5.81 25.43 6.63 27.54 5.87 25.72 5.04" fill="#900d5c"/>
              <polyline points="29.08 9.97 24.92 11.48 26.79 12.33 26.82 12.31 30.93 10.82 30.95 10.81 29.08 9.97" fill="#900d5c"/>
              <polyline points="22.89 12.18 20.73 12.96 20.7 12.97 20.71 12.98 22.57 13.82 22.59 13.81 24.34 13.17 24.76 13.02 22.89 12.18" fill="#e3a7c8"/>
              <polyline points="33.21 8.42 33.18 8.43 31.02 9.22 32.89 10.06 33.31 9.91 35.05 9.27 35.08 9.26 33.22 8.43 33.21 8.42" fill="#e3a7c8"/>
              <polyline points="19.14 8.85 21.01 9.69 25.16 8.18 23.31 7.34 19.16 8.85 19.14 8.85" fill="#900d5c"/>
              <polyline points="21.45 6.5 17.29 8.01 19.14 8.85 19.16 8.85 23.31 7.34 21.45 6.5" fill="#70dd93"/>
              <polyline points="29.58 5.12 27.54 5.87 25.43 6.63 25.43 6.63 27.29 7.48 29.39 6.72 31.45 5.96 31.39 5.93 29.6 5.13 29.58 5.12" fill="#70dd93"/>
              <polyline points="17.13 9.65 15.02 10.42 12.99 11.16 12.97 11.17 14.84 12.01 14.86 12.01 16.24 11.5 16.86 11.28 19 10.5 17.13 9.65" fill="#70dd93"/>
            </g>
          </g>
        </g>
      </g>
      <g>
        <polygon points="48.74 10.53 48.58 40.83 24.04 49.76 24.2 19.46 48.74 10.53" fill="#f0f0f0"/>
        <g style="isolation: isolate">
          <g clip-path="url(#clip-path-3)">
            <g>
              <path d="M30.17,32.39h0m4.2-6.78V23.09l4.16-1.51,0,2.54v2.51l-4.16,1.52,0-2.54m8.31-8L30.22,22.16v2.57l0,0,2-.75v5.05l-2.14.77h0l.07,0v2.58h0v0l12.45-4.53v0h0c0-.86,0-1.73,0-2.59l-2.1.77,0-2.55h0l0-2.47,2.05-.75,0-.06v0c0-.85,0-1.7,0-2.56" fill="#e3a7c8"/>
              <path d="M42.62,27.88,30.17,32.41V35l2.16-.78v2.54l-.43.15-.07,0a3.87,3.87,0,0,1-.55.25c-.37.14-.75.23-1.12.36l-2.07.78,0,2.56,6.23-2.27c0-.84,0-1.68,0-2.53h0V33.52L38.46,32l0,2.54h0c0,.83,0,1.67,0,2.51l6.22-2.26V32.25L42.6,33c-.37.13-.75.32-1.12.45a3.08,3.08,0,0,1-.55.16h-.07l-.42.15V31.21l2.16-.79V27.88" fill="#70dd93"/>
              <path d="M34.28,38.58l-6.23,2.27c0,.7,0,1.38,0,2.08,0,.4.06.47.35.37l0,0,2.5-.92,3.33-1.21c0-.85,0-1.71,0-2.56h0" fill="#e3a7c8"/>
              <path d="M44.66,34.81l-6.22,2.26h0v2.56l2.95-1.08,3-1.06c.28-.1.35-.19.34-.53,0-.71,0-1.44,0-2.16" fill="#e3a7c8"/>
              <path d="M38.43,37.08l-4.15,1.51c0,.85,0,1.71,0,2.56l4.16-1.51V37.08" fill="#70dd93"/>
              <path d="M28.37,22.82c-.19.07-.24.15-.23.41,0,.75,0,1.5,0,2.25l2.08-.77V22.16l-1,.38-.78.27h0" fill="#70dd93"/>
              <path d="M44.53,16.94h0q-.39.16-.78.3l-1,.37c0,.86,0,1.71,0,2.56l2.07-.75c0-.75,0-1.49,0-2.25,0-.26,0-.31-.23-.24" fill="#70dd93"/>
              <path d="M30.21,24.71l-2.08.77V28l2-.74,0-2.5.06,0,0,0v0" fill="#e3a7c8"/>
              <path d="M42.67,20.18v0l0,.06,0,0v2.48l2-.75v0h0V19.43l-2.07.75" fill="#e3a7c8"/>
              <path d="M30.17,32.39h0m-.68-2.34-1.38.5,0,2.61h0l2.06-.76h0V29.81l-.07,0-.62.22" fill="#900d5c"/>
              <path d="M42.62,27.85h0m2.1-3.43h0v.09l-2.06.75c0,.86,0,1.73,0,2.59h0l2-.73,0,0,0-2.68" fill="#900d5c"/>
              <path d="M30.17,32.39h0l-2.06.76h0v2.56L30.13,35v0h0V32.39" fill="#e3a7c8"/>
              <path d="M42.62,27.86v2.56h0v0l2-.76V27.12h0l-2,.73h0" fill="#e3a7c8"/>
              <path d="M28.08,35.73v2.56l2.07-.78h0l0-2.52-2.05.74" fill="#900d5c"/>
              <path d="M44.69,29.68l-2,.76,0,2.51h0v0l2.07-.73,0-2.57" fill="#900d5c"/>
              <path d="M38.42,34.56l-4.1,1.49c0,.85,0,1.69,0,2.53h0l4.15-1.51h0c0-.84,0-1.68,0-2.51" fill="#e3a7c8"/>
              <path d="M31.88,36.86l-1.74.64h0c.37-.13.75-.22,1.12-.36a3.87,3.87,0,0,0,.55-.25l.07,0" fill="#e3a7c8"/>
              <path d="M42.6,33l-1.74.64h.07a3.08,3.08,0,0,0,.55-.16c.37-.13.75-.32,1.12-.45v0" fill="#e3a7c8"/>
              <polyline points="32.27 24 30.23 24.75 30.17 24.77 30.15 27.27 32.26 26.5 32.27 24" fill="#900d5c"/>
              <polyline points="42.68 20.24 42.63 20.26 40.58 21.01 40.56 23.48 42.67 22.71 42.68 20.24" fill="#900d5c"/>
              <polyline points="38.46 32.01 34.29 33.52 34.28 36.06 34.32 36.05 38.42 34.55 38.44 34.55 38.46 32.01" fill="#900d5c"/>
              <polyline points="32.32 34.17 30.16 34.95 30.13 34.96 30.13 34.99 30.11 37.51 30.14 37.5 31.88 36.86 32.3 36.71 32.32 34.17" fill="#e3a7c8"/>
              <polyline points="42.63 30.41 42.61 30.42 40.45 31.21 40.44 33.75 40.86 33.59 42.59 32.96 42.62 32.95 42.63 30.44 42.63 30.41" fill="#e3a7c8"/>
              <polyline points="34.37 25.61 34.35 28.15 38.51 26.63 38.52 24.12 34.37 25.63 34.37 25.61" fill="#900d5c"/>
              <polyline points="38.54 21.57 34.38 23.09 34.37 25.61 34.37 25.63 38.52 24.12 38.54 21.57" fill="#70dd93"/>
              <polyline points="44.72 21.97 42.67 22.71 40.56 23.48 40.56 23.48 40.54 26.03 42.64 25.26 44.7 24.51 44.7 24.42 44.72 22 44.72 21.97" fill="#70dd93"/>
              <polyline points="32.26 26.5 30.15 27.27 28.12 28.01 28.1 28.02 28.09 30.56 28.11 30.55 29.49 30.05 30.11 29.82 32.25 29.05 32.26 26.5" fill="#70dd93"/>
            </g>
          </g>
        </g>
      </g>
    </g>
  </g>
</svg>
