<svg id="Capa_1" data-name="Capa 1" xmlns="http://www.w3.org/2000/svg" xmlns:xlink="http://www.w3.org/1999/xlink" width="50" height="50" viewBox="0 0 50 50">
  <defs>
    <clipPath id="clip-path">
      <polygon points="24.04 49.76 1.25 39.47 1.41 9.18 24.2 19.47 24.04 49.76" fill="none"/>
    </clipPath>
    <clipPath id="clip-path-2">
      <polygon points="24.2 19.47 1.41 9.18 25.96 0.24 48.75 10.53 24.2 19.47" fill="none"/>
    </clipPath>
    <clipPath id="clip-path-3">
      <polygon points="48.75 10.53 48.59 40.83 24.04 49.76 24.2 19.47 48.75 10.53" fill="none"/>
    </clipPath>
  </defs>
  <g id="Figment_lido">
    <g style="isolation: isolate">
      <g>
        <polygon points="24.04 49.76 1.25 39.47 1.41 9.18 24.2 19.47 24.04 49.76" fill="#d6d6d6"/>
        <g style="isolation: isolate">
          <g clip-path="url(#clip-path)">
            <g>
              <path d="M9.61,39.05a8.25,8.25,0,0,0,1.51.92,5.21,5.21,0,0,0,1.22.39,5.67,5.67,0,0,1-1.18-.4L11,39.89a8.29,8.29,0,0,1-1.39-.84m-.17-4.33.09.05-.09-.05M7,32.68a.13.13,0,0,1,.07.06A.13.13,0,0,0,7,32.68m2.62.6.05,0-.05,0M7.14,32c0-.25.11-.22.19-.22a10.55,10.55,0,0,1,2.85.41,1.42,1.42,0,0,1,.2,0c.07,0,.13.1.15.27,0,.38-.17.22-.31.17A11.3,11.3,0,0,0,7.34,32a1.21,1.21,0,0,1-.2-.07m5.63-6.56c-.07,0-.13,0-.2.16-.28.54-.58,1.08-.87,1.61-.06.11-.09.31-.24.25l0,0c-.15-.09-.13-.31-.21-.46s0-.58-.26-.68h0c-.22-.06-.17.33-.25.52a8.42,8.42,0,0,0-.15,2.28c0,.73,0,1.3,0,1.88,0,.29-.06.42-.28.35a11.48,11.48,0,0,0-2.92-.38H7.23c-.05,0-.08-.08-.1-.23-.1-.82.16-1.45.64-1.52a.79.79,0,0,1,.48.06,2,2,0,0,1,.87,1.15c.09.19.16.27.24.3a2.1,2.1,0,0,0,.24.06c.22.06.25-.1.24-.35a10.71,10.71,0,0,0-.11-2.24c0-.17,0-.37-.19-.45h0c-.12-.06-.12.13-.17.24s0,.28-.18.23h0c-.12-.05-.15-.23-.2-.38l-.48-1.44c-.1-.29-.17-.44-.24-.47s-.13.06-.25.27-.37.66-.55,1c0,.09-.08.23-.19.19h0c-.13-.05-.15-.23-.19-.37s-.06-.35-.18-.4h0c-.14-.06-.15.15-.2.28a2.4,2.4,0,0,0-.12.84c0,1,0,2,0,3,0,.27-.06.38-.25.43a4.14,4.14,0,0,0-1,.3.25.25,0,0,1-.24,0s0,0-.08-.07c.11.47.25.94.4,1.4,0-.11.08-.16.24-.19A9.55,9.55,0,0,1,10,33l.32.12c.26.12.26.25.26.84,0,.39,0,.8,0,1.18s.11.42.27.49l.09,0,.13.06c.15.07.28.09.27-.26s0-.92,0-1.4c0-.3.05-.4.24-.31l.08,0A15.35,15.35,0,0,1,14,35.51a.57.57,0,0,1,.22.53c0,.23,0,.47,0,.69a.45.45,0,0,0,.26.5h0c.2.09.3,0,.29-.25v-.72a20.39,20.39,0,0,1,1.82,2.14A6,6,0,0,0,17,37.8h0c-.08,0-.19-.24-.28-.35a16.84,16.84,0,0,0-5-4.16,1.18,1.18,0,0,0-.19-.11h0c-.13,0-.2-.15-.2-.36s.08-.23.22-.18l0,0a15.91,15.91,0,0,1,5.6,4.24.49.49,0,0,1,.13.18,9,9,0,0,0,.38-1.68c0,.07-.08.08-.15.06l-.19-.15a22.46,22.46,0,0,0-4.19-3c-.13-.06-.25-.13-.38-.18a11.08,11.08,0,0,0-1.16-.45l-.06,0c-.18-.09-.24-.2-.2-.49.09-.85.56-1.32,1.19-1.17a1.29,1.29,0,0,1,.21.07A2.68,2.68,0,0,1,14,31.81c.08.25.06.53.29.73a1,1,0,0,0,.31.22c.23.11.32-.06.32-.54,0-.79,0-1.59,0-2.37a7,7,0,0,0-.29-1.73c0-.12-.06-.25-.15-.3h0c-.1,0-.11.08-.16.16s-.07.67-.33.55h0c-.23-.12-.25-.58-.36-.88-.23-.63-.43-1.26-.64-1.9q-.09-.28-.18-.33" fill="#fff"/>
              <path d="M11.19,22A4.08,4.08,0,0,0,6.13,23c-1.56,1.8-1.93,4.51-1.29,7.93a1.19,1.19,0,0,0,.12.4s0,.06.08.07a.25.25,0,0,0,.24,0,4.14,4.14,0,0,1,1-.3c.19-.05.25-.16.25-.43,0-1,0-2,0-3a2.4,2.4,0,0,1,.12-.84c0-.13.06-.34.2-.28h0c.12.05.13.25.18.4s.06.32.19.37h0c.11,0,.14-.1.19-.19.18-.33.37-.65.55-1s.19-.3.25-.27.14.18.24.47L9,27.76c0,.15.08.33.2.38h0c.13.05.14-.13.18-.23s.05-.3.17-.24h0c.15.08.15.28.19.45a10.71,10.71,0,0,1,.11,2.24c0,.25,0,.41-.24.35a2.1,2.1,0,0,1-.24-.06c-.08,0-.15-.11-.24-.3a2,2,0,0,0-.87-1.15.79.79,0,0,0-.48-.06c-.48.07-.74.7-.64,1.52,0,.15,0,.2.1.23h.12a11.48,11.48,0,0,1,2.92.38c.22.07.28-.06.28-.35,0-.58,0-1.15,0-1.88a8.42,8.42,0,0,1,.15-2.28c.08-.19,0-.58.25-.52h0c.22.1.15.46.26.68s.06.37.21.46l0,0c.15.06.18-.14.24-.25.29-.53.59-1.07.87-1.61.07-.13.13-.19.2-.16s.12.14.18.33c.21.64.41,1.27.64,1.9.11.3.13.76.36.88h0c.26.12.21-.37.33-.55s.06-.2.16-.16h0c.09.05.12.18.15.3a7,7,0,0,1,.29,1.73c0,.78,0,1.58,0,2.37,0,.48-.09.65-.32.54a1,1,0,0,1-.31-.22c-.23-.2-.21-.48-.29-.73a2.68,2.68,0,0,0-1.26-1.72,1.29,1.29,0,0,0-.21-.07c-.63-.15-1.1.32-1.19,1.17,0,.29,0,.4.2.49l.06,0a11.08,11.08,0,0,1,1.16.45c.13.05.25.12.38.18a22.46,22.46,0,0,1,4.19,3l.19.15c.07,0,.12,0,.15-.06a.61.61,0,0,0,0-.19,14.33,14.33,0,0,0-1.21-7.13,11.44,11.44,0,0,0-5.29-6" fill="#f48624"/>
              <path d="M7,32.68a.13.13,0,0,1,.07.06.75.75,0,0,1,.09.41v.05c0,.27-.1.32-.31.23s-.27-.23-.27-.5.2-.31.37-.27l0,0m2.62.6.05,0c.18.11.19.28.19.48v.4a.2.2,0,0,0,0,.11c0,.1,0,.22,0,.33s-.05.25-.28.16h0l-.09-.05a.38.38,0,0,1-.15-.27.49.49,0,0,1,0-.12v-.8c0-.22.05-.35.28-.26h0m.68-.21L10,33a9.55,9.55,0,0,0-4.35-.43c-.16,0-.23.08-.24.19a1.17,1.17,0,0,0,.1.36,13.08,13.08,0,0,0,4.15,6,8.29,8.29,0,0,0,1.39.84l.16.07a5.67,5.67,0,0,0,1.18.4,3.94,3.94,0,0,0,4.32-1.91l0,0a20.39,20.39,0,0,0-1.82-2.14V37c0,.28-.09.34-.29.25h0a.45.45,0,0,1-.26-.5c0-.22,0-.46,0-.69a.57.57,0,0,0-.22-.53,15.35,15.35,0,0,0-2.43-1.76l-.08,0c-.19-.09-.25,0-.24.31,0,.48,0,.94,0,1.4s-.12.33-.27.26l-.13-.06-.09,0c-.16-.07-.28-.16-.27-.49s0-.79,0-1.18c0-.59,0-.72-.26-.84" fill="#f48624"/>
              <path d="M11.54,32.64l0,0c-.14,0-.22,0-.22.18s.07.31.2.36h0a1.18,1.18,0,0,1,.19.11,16.84,16.84,0,0,1,5,4.16c.09.11.2.32.28.35h0a1.73,1.73,0,0,0,.3-.57.63.63,0,0,0,0-.16.49.49,0,0,0-.13-.18,15.91,15.91,0,0,0-5.6-4.24" fill="#0f3040"/>
              <path d="M10.38,32.2a1.42,1.42,0,0,0-.2,0,10.55,10.55,0,0,0-2.85-.41c-.08,0-.19,0-.19.22a1.21,1.21,0,0,0,.2.07,11.3,11.3,0,0,1,2.88.6c.14,0,.35.21.31-.17,0-.17-.08-.24-.15-.27" fill="#0f3040"/>
              <path d="M9.59,33.28h0c-.23-.09-.28,0-.28.26v.8a.49.49,0,0,0,0,.12.38.38,0,0,0,.15.27l.09.05h0c.23.09.28,0,.28-.16s0-.23,0-.33a.2.2,0,0,1,0-.11v-.4c0-.2,0-.37-.19-.48l-.05,0" fill="#fdfcfb"/>
              <path d="M7,32.68l0,0c-.17,0-.38-.09-.37.27s.07.41.27.5.31,0,.31-.23v-.05A.75.75,0,0,0,7,32.74.13.13,0,0,0,7,32.68" fill="#fdfcfb"/>
              <path d="M17.5,23.74s-.05,0-.07,0a3.16,3.16,0,0,0-.08,2.53A3.45,3.45,0,0,0,19,28.45l.26.09c1.35.37,2.09-1.41,1.37-3.31,0-.06,0-.1-.07-.11a.06.06,0,0,0-.07,0l-1.37.47H19a.27.27,0,0,1-.1-.09l-1.37-1.72s0-.05-.06-.05" fill="#00a2fd"/>
              <path d="M19,24.48l-.81-1,0-.13c.29-.48.58-1,.86-1.45l0,0,.06.12c.24.64.48,1.27.73,1.9,0,.12.13.27.11.34s-.12.06-.2.09l-.64.22-.12,0m.07-3.39-1.32,2.2,0,.13c.4.51.81,1,1.21,1.51l.12.06c.4-.15.81-.28,1.21-.42.06,0,.07,0,0-.15l-.48-1.25c-.26-.67-.53-1.36-.8-2.08" fill="#009ff9"/>
            </g>
          </g>
        </g>
      </g>
      <g>
        <polygon points="24.2 19.47 1.41 9.18 25.96 0.24 48.75 10.53 24.2 19.47" fill="#ebebeb"/>
        <g style="isolation: isolate">
          <g clip-path="url(#clip-path-2)">
            <g>
              <path d="M29.74,14.72a13.43,13.43,0,0,0,1.85-.52,10.27,10.27,0,0,0,1.23-.54,9.84,9.84,0,0,1-1.2.51l-.18.07a15.17,15.17,0,0,1-1.7.48m-3.32-1.33.1,0-.1,0M23,14.08a.29.29,0,0,1,.1,0,.29.29,0,0,0-.1,0m2.46-1.25.05,0-.05,0m-2.85.92c-.18-.09-.08-.14,0-.18a15.37,15.37,0,0,1,2.5-1.43l.18-.1a.42.42,0,0,1,.31,0c.31.1,0,.17-.11.23a17,17,0,0,0-2.67,1.38l-.2.09m-.5-5.26c-.07,0-.09.08,0,.17.18.33.35.67.52,1,0,.07.16.15,0,.21h0a1.4,1.4,0,0,1-.5,0c-.24,0-.46-.16-.7-.08h0c-.21.1.11.21.19.31.29.38,1.14.58,1.57.83s.94.44,1.38.63c.22.09.27.16.05.26A16.7,16.7,0,0,0,22,13.28a.3.3,0,0,1-.11.06.32.32,0,0,1-.23,0c-.69-.21-1-.56-.64-.85a1.22,1.22,0,0,1,.42-.24A3.48,3.48,0,0,1,23,12.12a.81.81,0,0,0,.41,0l.22-.11c.22-.1.12-.17-.07-.24a8.9,8.9,0,0,0-1.74-.68,1,1,0,0,0-.47-.05h0c-.14.05,0,.11,0,.17s.17.12,0,.18h0a.9.9,0,0,1-.43,0l-1.44-.21a1.39,1.39,0,0,0-.53,0c-.07,0-.06.09,0,.22l.3.64s.11.11,0,.16h0a.9.9,0,0,1-.43,0,.89.89,0,0,0-.42,0h0c-.14.05,0,.13.06.2a1.46,1.46,0,0,0,.52.34c.74.32,1.46.66,2.19,1,.21.09.24.16.13.28a3.52,3.52,0,0,0-.58.67.29.29,0,0,1-.15.14.23.23,0,0,1-.12,0c.44.1.89.18,1.35.25-.08,0-.07-.1,0-.19a13.33,13.33,0,0,1,3.67-2.25l.33-.14c.29-.1.39-.06.82.13s.6.26.86.4a.66.66,0,0,0,.58,0l.1,0,.13-.05c.18-.06.3-.13,0-.24s-.67-.31-1-.46-.25-.16,0-.23l.09,0a27.78,27.78,0,0,1,3.17-.76.78.78,0,0,1,.56,0c.16.09.35.16.5.24a.67.67,0,0,0,.57,0h0c.22-.08.25-.15,0-.24L31.7,11c1-.15,2-.22,3-.29a2.4,2.4,0,0,0-.2-.39l0,0a3.23,3.23,0,0,1-.48,0,33.17,33.17,0,0,0-6.91,1.36l-.22.08h0a.46.46,0,0,1-.41,0c-.16-.07-.12-.12,0-.18l.06,0A30.82,30.82,0,0,1,34,9.88a.87.87,0,0,1,.23,0,4.81,4.81,0,0,0-1-.77s0,.07-.07.1l-.25.06a45.11,45.11,0,0,0-5.41,1.32l-.44.15-1.22.49-.06,0a.51.51,0,0,1-.52,0c-.55-.33-.54-.75.06-1l.22-.09a4.7,4.7,0,0,1,2.24-.12,1.75,1.75,0,0,0,.75.08l.41-.09c.25-.1.2-.21-.15-.36-.58-.26-1.19-.52-1.74-.79a6.8,6.8,0,0,0-1.5-.42.62.62,0,0,0-.33,0h0c-.11,0,0,.08,0,.14s.44.26.15.36h0a2.48,2.48,0,0,1-.92-.09c-.64-.08-1.26-.18-1.89-.28a1,1,0,0,0-.39,0" fill="#fff"/>
              <path d="M18.42,8.25c-2.05.74-3.32,1.84-3.21,3.09.12,1.44,1.83,2.54,4.85,3.32a1.27,1.27,0,0,0,.39.06.23.23,0,0,0,.12,0,.29.29,0,0,0,.15-.14,3.52,3.52,0,0,1,.58-.67c.11-.12.08-.19-.13-.28-.73-.32-1.45-.66-2.19-1a1.46,1.46,0,0,1-.52-.34c-.06-.07-.2-.15-.06-.2h0a.89.89,0,0,1,.42,0,.9.9,0,0,0,.43,0h0c.11-.05,0-.11,0-.16l-.3-.64c-.07-.13-.08-.2,0-.22a1.39,1.39,0,0,1,.53,0l1.44.21a.9.9,0,0,0,.43,0h0c.14-.06,0-.12,0-.18s-.18-.12,0-.17h0a1,1,0,0,1,.47.05,8.9,8.9,0,0,1,1.74.68c.19.07.29.14.07.24l-.22.11a.81.81,0,0,1-.41,0,3.48,3.48,0,0,0-1.52.11,1.22,1.22,0,0,0-.42.24c-.32.29-.05.64.64.85a.32.32,0,0,0,.23,0,.3.3,0,0,0,.11-.06,16.7,16.7,0,0,1,2.53-1.48c.22-.1.17-.17-.05-.26-.44-.19-.85-.38-1.38-.63s-1.28-.45-1.57-.83c-.08-.1-.4-.21-.19-.31h0c.24-.08.46.07.7.08a1.4,1.4,0,0,0,.5,0h0c.16-.06,0-.14,0-.21-.17-.33-.34-.67-.52-1,0-.09,0-.14,0-.17a1,1,0,0,1,.39,0c.63.1,1.25.2,1.89.28a2.48,2.48,0,0,0,.92.09h0c.29-.1-.11-.24-.15-.36s-.11-.11,0-.14h0a.62.62,0,0,1,.33,0,6.8,6.8,0,0,1,1.5.42c.55.27,1.16.53,1.74.79.35.15.4.26.15.36l-.41.09a1.75,1.75,0,0,1-.75-.08,4.7,4.7,0,0,0-2.24.12l-.22.09c-.6.3-.61.72-.06,1a.51.51,0,0,0,.52,0l.06,0,1.22-.49.44-.15a45.11,45.11,0,0,1,5.41-1.32l.25-.06c.07,0,.1-.06.07-.1A.27.27,0,0,0,33.12,9a14.85,14.85,0,0,0-6.18-1.69,20.76,20.76,0,0,0-8.52.92" fill="#f48624"/>
              <path d="M23,14.08a.29.29,0,0,1,.1,0,.92.92,0,0,1,.37.09l0,0c.2.09.16.16-.07.24a.69.69,0,0,1-.58,0c-.27-.12-.07-.21.09-.29l.05,0m2.46-1.25.05,0a.62.62,0,0,1,.5.06l.07,0,.23.1s0,0,.07.05l.25.09c.11,0,.15.11-.09.21h0l-.1,0a.69.69,0,0,1-.32,0l-.09,0-.38-.17-.13-.06-.08,0c-.16-.08-.22-.15,0-.25h0m.37-.44-.33.14a13.33,13.33,0,0,0-3.67,2.25c-.11.09-.12.15,0,.19l.34.06a22.33,22.33,0,0,0,7.6-.31,15.17,15.17,0,0,0,1.7-.48l.18-.07a9.84,9.84,0,0,0,1.2-.51c1.64-.84,2.23-1.85,1.92-3h-.05c-1,.07-2,.14-3,.29l.54.24c.21.09.18.16,0,.24h0a.67.67,0,0,1-.57,0c-.15-.08-.34-.15-.5-.24a.78.78,0,0,0-.56,0,27.78,27.78,0,0,0-3.17.76l-.09,0c-.21.07-.19.14,0,.23s.68.31,1,.46.15.18,0,.24l-.13.05-.1,0a.66.66,0,0,1-.58,0c-.26-.14-.57-.27-.86-.4s-.53-.23-.82-.13" fill="#f48624"/>
              <path d="M26.51,11.55l-.06,0c-.15.06-.19.11,0,.18a.46.46,0,0,0,.41,0h0l.22-.08A33.17,33.17,0,0,1,34,10.32a3.23,3.23,0,0,0,.48,0l0,0h0c0-.13-.12-.25-.18-.36l-.14,0a.87.87,0,0,0-.23,0,30.82,30.82,0,0,0-7.44,1.67" fill="#0f3040"/>
              <path d="M25.29,12l-.18.1a15.37,15.37,0,0,0-2.5,1.43c-.07,0-.17.09,0,.18l.2-.09a17,17,0,0,1,2.67-1.38c.14-.06.42-.13.11-.23a.42.42,0,0,0-.31,0" fill="#0f3040"/>
              <path d="M25.47,12.83h0c-.24.1-.18.17,0,.25l.08,0,.13.06.38.17.09,0a.69.69,0,0,0,.32,0l.1,0h0c.24-.1.2-.16.09-.21l-.25-.09s-.06,0-.07-.05l-.23-.1-.07,0a.62.62,0,0,0-.5-.06l-.05,0" fill="#fdfcfb"/>
              <path d="M23,14.08l-.05,0c-.16.08-.36.17-.09.29a.69.69,0,0,0,.58,0c.23-.08.27-.15.07-.24l0,0a.92.92,0,0,0-.37-.09.29.29,0,0,0-.1,0" fill="#fdfcfb"/>
              <path d="M24.53,5.34s0,0,0,0c.22.43.8.73,1.81.89a6.14,6.14,0,0,0,2.86-.21L29.44,6c1.32-.62.57-1.61-1.39-1.84a.28.28,0,0,0-.13,0,.1.1,0,0,0-.05,0l-.71.91a.17.17,0,0,1-.08.06l-.14,0-2.32.18h-.09" fill="#00a2fd"/>
              <path d="M26.22,4.78l-1.38.11-.12,0c-.12-.32-.26-.63-.39-1v0h.13l2,.23a1.14,1.14,0,0,1,.33,0s-.05.09-.09.14-.22.28-.33.42l-.12.06M23.77,3.62c.21.49.41,1,.6,1.45l.13,0,2.05-.17.13,0c.2-.27.41-.54.62-.8,0,0,0,0-.08-.07l-1.29-.14-2.16-.25" fill="#009ff9"/>
            </g>
          </g>
        </g>
      </g>
      <g>
        <polygon points="48.75 10.53 48.59 40.83 24.04 49.76 24.2 19.47 48.75 10.53" fill="#f0f0f0"/>
        <g style="isolation: isolate">
          <g clip-path="url(#clip-path-3)">
            <g>
              <path d="M33,42.33A6.31,6.31,0,0,0,34.62,42,7.83,7.83,0,0,0,36,41.32a8,8,0,0,1-1.3.6l-.17.07a7.15,7.15,0,0,1-1.54.34m-.18-4.17.09,0-.09,0M30,38.23s.06,0,.08,0,0,0-.08,0m2.89-1.63.06,0-.06,0m-2.7.78a.42.42,0,0,1,.22-.39,21.56,21.56,0,0,1,3.14-2c.06,0,.15-.1.22-.13s.14,0,.16.15c0,.34-.19.36-.34.43a20.57,20.57,0,0,0-3.18,1.84.9.9,0,0,1-.22.11m6.21-11.31c-.07,0-.14.13-.22.32-.31.78-.63,1.56-.95,2.35-.07.15-.1.38-.26.44h0c-.16,0-.15-.2-.23-.29s0-.54-.28-.46l0,0c-.24.12-.19.47-.27.72a9.06,9.06,0,0,0-.18,2.4c0,.73,0,1.31,0,1.87a.54.54,0,0,1-.3.59,23,23,0,0,0-3.22,2.1l-.14.09s-.09,0-.1-.14a2.43,2.43,0,0,1,.7-2.06,1.56,1.56,0,0,1,.53-.35.77.77,0,0,1,1,.4c.09.13.18.14.27.1s.17-.1.26-.14a.5.5,0,0,0,.26-.55,7.92,7.92,0,0,0-.12-2.14c0-.13,0-.33-.2-.28h0c-.14.05-.14.24-.19.38s-.06.32-.21.39h0c-.13.05-.16-.11-.21-.21-.18-.34-.35-.69-.54-1s-.18-.3-.25-.27-.15.18-.28.48c-.2.49-.41,1-.61,1.46-.06.13-.08.29-.2.34h0c-.14,0-.17-.1-.21-.21s-.07-.29-.19-.25h0c-.15.06-.16.28-.21.44a3.06,3.06,0,0,0-.14.94c0,1,0,2,0,3a.8.8,0,0,1-.27.64,10.81,10.81,0,0,0-1.15,1.19.68.68,0,0,1-.27.23.06.06,0,0,1-.08,0,6.73,6.73,0,0,0,.44,1.06c0-.12.08-.23.25-.39A20.29,20.29,0,0,1,33.33,36l.35-.15c.29-.11.29,0,.29.61,0,.39,0,.79,0,1.18s.12.33.29.27l.1,0,.14-.05c.17-.06.32-.15.31-.49s0-.94,0-1.4c0-.29.05-.43.26-.51l.09,0a10,10,0,0,1,2.68-.32c.19,0,.25.11.24.35s0,.46,0,.7.08.35.29.27h0a.45.45,0,0,0,.32-.49c0-.22,0-.43,0-.72a7.72,7.72,0,0,1,2,.59c.14-.3.26-.59.37-.9l0,0c-.09,0-.21-.07-.31-.11a9.4,9.4,0,0,0-5.48.07l-.21.06h0c-.14.06-.21,0-.21-.19a.34.34,0,0,1,.24-.37l.06,0a10.14,10.14,0,0,1,6.16-.53s.11,0,.14.08a12.71,12.71,0,0,0,.42-2,.22.22,0,0,1-.15.17.51.51,0,0,1-.22,0,15.51,15.51,0,0,0-4.61.6l-.43.14c-.42.16-.85.34-1.27.54l-.06,0c-.21.08-.27,0-.23-.3a2.86,2.86,0,0,1,1.32-2.18,1.58,1.58,0,0,1,.23-.11,1,1,0,0,1,1.39.64c.08.19.06.48.31.49a1.09,1.09,0,0,0,.34,0c.25-.09.36-.34.36-.82,0-.79,0-1.58,0-2.38a3.74,3.74,0,0,0-.32-1.47c0-.1-.05-.2-.15-.18h0c-.11,0-.13.18-.18.3-.13.28-.07.72-.36.83h0c-.25.08-.28-.35-.4-.56-.25-.43-.47-.89-.7-1.35-.07-.14-.14-.2-.21-.17" fill="#fff"/>
              <path d="M34.71,24.05a11.11,11.11,0,0,0-5.58,5.22,12.16,12.16,0,0,0-1.43,9c0,.16.07.27.14.3a.06.06,0,0,0,.08,0,.68.68,0,0,0,.27-.23,10.81,10.81,0,0,1,1.15-1.19.8.8,0,0,0,.27-.64c0-1,0-2,0-3a3.06,3.06,0,0,1,.14-.94c.05-.16.06-.38.21-.44h0c.12,0,.14.14.19.25s.07.26.21.21h0c.12,0,.14-.21.2-.34.2-.48.41-1,.61-1.46.13-.3.21-.45.28-.48s.14.07.25.27.36.69.54,1c.05.1.08.26.21.21h0c.15-.07.16-.25.21-.39s.05-.33.19-.38h0c.16-.05.16.15.2.28a7.92,7.92,0,0,1,.12,2.14A.5.5,0,0,1,33,34c-.09,0-.18.11-.26.14s-.18,0-.27-.1a.77.77,0,0,0-1-.4,1.56,1.56,0,0,0-.53.35,2.43,2.43,0,0,0-.7,2.06c0,.13.05.16.1.14l.14-.09A23,23,0,0,1,33.69,34a.54.54,0,0,0,.3-.59c0-.56,0-1.14,0-1.87a9.06,9.06,0,0,1,.18-2.4c.08-.25,0-.6.27-.72l0,0c.23-.08.16.34.28.46s.07.32.23.29h0c.16-.06.19-.29.26-.44.32-.79.64-1.57.95-2.35.08-.19.15-.3.22-.32s.14,0,.21.17c.23.46.45.92.7,1.35.12.21.15.64.4.56h0c.29-.11.23-.55.36-.83,0-.12.07-.26.18-.3h0c.1,0,.13.08.15.18a3.74,3.74,0,0,1,.32,1.47c0,.8,0,1.59,0,2.38,0,.48-.11.73-.36.82a1.09,1.09,0,0,1-.34,0c-.25,0-.23-.3-.31-.49a1,1,0,0,0-1.39-.64,1.58,1.58,0,0,0-.23.11,2.86,2.86,0,0,0-1.32,2.18c0,.31,0,.38.23.3l.06,0c.42-.2.85-.38,1.27-.54l.43-.14a15.51,15.51,0,0,1,4.61-.6.51.51,0,0,0,.22,0,.22.22,0,0,0,.15-.17,1,1,0,0,0,0-.23,8.49,8.49,0,0,0-1.32-6.08,4.86,4.86,0,0,0-5.83-1.5" fill="#f48624"/>
              <path d="M30,38.23s.06,0,.08,0,.09.2.1.33v.06a.46.46,0,0,1-.34.49c-.22.08-.3,0-.3-.27a.6.6,0,0,1,.41-.58l.05,0m2.89-1.63.06,0c.2,0,.21.12.21.32,0,0,0,.06,0,.09v.31a.5.5,0,0,0,0,.12c0,.1,0,.21,0,.31a.4.4,0,0,1-.31.39h0l-.09,0A.14.14,0,0,1,32.6,38a.49.49,0,0,1,0-.12c0-.18,0-.35,0-.52a1.09,1.09,0,0,0,0-.18v-.1a.48.48,0,0,1,.31-.5h0m.75-.78-.35.15a20.29,20.29,0,0,0-4.8,3.26c-.17.16-.25.27-.25.39a.53.53,0,0,0,.1.28A4.62,4.62,0,0,0,33,42.33,7.15,7.15,0,0,0,34.49,42l.17-.07a8,8,0,0,0,1.3-.6,12.26,12.26,0,0,0,4.76-5.57h0a7.72,7.72,0,0,0-2-.59c0,.29,0,.5,0,.72a.45.45,0,0,1-.32.49h0c-.21.08-.29,0-.29-.27s0-.46,0-.7,0-.34-.24-.35a10,10,0,0,0-2.68.32l-.09,0c-.21.08-.27.22-.26.51,0,.46,0,.94,0,1.4s-.14.43-.31.49l-.14.05-.1,0c-.17.06-.31.07-.29-.27s0-.79,0-1.18c0-.59,0-.72-.29-.61" fill="#f48624"/>
              <path d="M35.09,34.31l-.06,0a.34.34,0,0,0-.24.37c0,.2.07.25.21.19h0l.21-.06a9.4,9.4,0,0,1,5.48-.07c.1,0,.22.14.31.11l0,0,0,0a4.69,4.69,0,0,0,.33-.82.21.21,0,0,0,0-.13c0-.06-.09-.06-.14-.08a10.14,10.14,0,0,0-6.16.53" fill="#0f3040"/>
              <path d="M33.81,34.85c-.07,0-.16.1-.22.13a21.56,21.56,0,0,0-3.14,2,.42.42,0,0,0-.22.39.9.9,0,0,0,.22-.11,20.57,20.57,0,0,1,3.18-1.84c.15-.07.38-.09.34-.43,0-.16-.08-.18-.16-.15" fill="#0f3040"/>
              <path d="M32.93,36.6h0a.48.48,0,0,0-.31.5v.1a1.09,1.09,0,0,1,0,.18c0,.17,0,.34,0,.52a.49.49,0,0,0,0,.12.14.14,0,0,0,.17.13l.09,0h0a.4.4,0,0,0,.31-.39c0-.1,0-.21,0-.31a.5.5,0,0,1,0-.12V37s0-.06,0-.09c0-.2,0-.37-.21-.32l-.06,0" fill="#fdfcfb"/>
              <path d="M30,38.23l-.05,0a.6.6,0,0,0-.41.58c0,.27.08.35.3.27a.46.46,0,0,0,.34-.49v-.06c0-.13,0-.3-.1-.33s0,0-.08,0" fill="#fdfcfb"/>
              <path d="M41.66,20.39s0,0-.07.09a3.05,3.05,0,0,0-.09,2.6,1.37,1.37,0,0,0,1.83.72l.28-.14c1.49-.77,2.31-3.18,1.51-4.45,0,0,0-.06-.07-.05l-.08.06-1.51,1.63a.24.24,0,0,1-.12.09.09.09,0,0,1-.1,0l-1.51-.55a.08.08,0,0,0-.07,0" fill="#00a2fd"/>
              <path d="M43.29,19.87l-.89-.32,0-.1c.32-.73.64-1.45,1-2.17l0-.08.07.07.8,1.28c.05.08.14.15.13.23s-.14.17-.22.26c-.24.26-.48.51-.71.77l-.14.06m.08-3.43-1.45,3.3,0,.11,1.34.48.13,0,1.33-1.44c.07-.07.08-.1,0-.18l-.52-.83-.89-1.39" fill="#009ff9"/>
            </g>
          </g>
        </g>
      </g>
    </g>
  </g>
</svg>
