<svg id="Capa_1" data-name="Capa 1" xmlns="http://www.w3.org/2000/svg" xmlns:xlink="http://www.w3.org/1999/xlink" width="50" height="50" viewBox="0 0 50 50">
  <defs>
    <clipPath id="clip-path">
      <polygon points="24.04 49.76 1.25 39.47 1.41 9.18 24.19 19.47 24.04 49.76" fill="none"/>
    </clipPath>
    <clipPath id="clip-path-2">
      <polygon points="24.19 19.47 1.41 9.18 25.95 0.25 48.74 10.54 24.19 19.47" fill="none"/>
    </clipPath>
    <clipPath id="clip-path-3">
      <polygon points="48.74 10.54 48.58 40.83 24.04 49.76 24.19 19.47 48.74 10.54" fill="none"/>
    </clipPath>
  </defs>
  <g id="Figment_lido">
    <g style="isolation: isolate">
      <g>
        <polygon points="24.04 49.76 1.25 39.47 1.41 9.18 24.19 19.47 24.04 49.76" fill="#445aad"/>
        <g style="isolation: isolate">
          <g clip-path="url(#clip-path)">
            <g>
              <path d="M11.2,21.05a2,2,0,0,0-.34-.13c-.26,0-.33.22-.25.62.05.21.14.41.21.62q1,2.89,1.93,5.78c.74,2.3,1.54,4.57,2.28,6.87,0,.09.07.17.1.27.39,1.24.83,2.47,1.23,3.71a2.33,2.33,0,0,0,.26.63l3.16,1.35c0-.05,0-.12,0-.19-.47-1.45-1-2.9-1.44-4.34q-.85-2.54-1.69-5.07L16,29.39c-.19-.58-.38-1.16-.58-1.73-.27-.83-.56-1.65-.82-2.49l0-.08c-.24-.61-.41-1.25-.64-1.86a2.39,2.39,0,0,0-1.21-1.5l-.27-.12-.28-.12c-.13-.06-.27-.11-.4-.18l-.16-.06-.22-.1-.24-.1" fill="#fefefe" opacity="0.8"/>
              <path d="M11.29,26.55l-.08,0-.48-.2-.48-.21-.72-.3a.82.82,0,0,0-1,.33c-.25.43-.42.93-.65,1.37-.26.64-.54,1.25-.83,1.85s-.42,1-.65,1.46c-.31.71-.62,1.42-.95,2.11-.15.42-.36.77-.52,1.18,0,.08-.09.14,0,.27l3.2,1.37a.63.63,0,0,0,.12-.18c.19-.49.43-.94.63-1.43.32-.73.66-1.46,1-2.2s.66-1.47,1-2.2c.21-.45.41-.91.63-1.36.11-.27.24-.52.35-.8a.8.8,0,0,0-.37-1l-.11-.05" fill="#fefefe" opacity="0.8"/>
            </g>
          </g>
        </g>
      </g>
      <g>
        <polygon points="24.19 19.47 1.41 9.18 25.95 0.25 48.74 10.54 24.19 19.47" fill="#4b63be"/>
        <g style="isolation: isolate">
          <g clip-path="url(#clip-path-2)">
            <g>
              <path d="M17,7.76l-.38.15c-.19.16-.11.27.26.36.21.05.44.07.65.1,2,.32,4,.62,6,.93,2.37.38,4.77.72,7.13,1.1l.29,0c1.28.21,2.58.39,3.86.6a3.14,3.14,0,0,0,.7.07l3.66-1.33s-.09,0-.17-.07L34.49,9,29.21,8.2l-1.85-.28-1.8-.28c-.86-.13-1.73-.25-2.58-.4H22.9C22.24,7.15,21.61,7,21,6.94a4.59,4.59,0,0,0-2.15.16l-.32.12-.31.11-.48.18-.18.06-.26.09-.27.1" fill="#fefefe" opacity="0.8"/>
              <path d="M21.25,9.64l-.09,0-.56.2-.55.2-.83.31c-.46.19-.65.42-.59.69s.36.57.51.86a12.46,12.46,0,0,1,.72,1.12c.21.29.4.59.58.88s.56.86.82,1.29c.19.23.29.47.47.71,0,0,0,.1.16.12l3.7-1.35s0-.08,0-.13c-.21-.28-.35-.57-.56-.86-.3-.45-.56-.89-.86-1.34s-.58-.89-.86-1.34c-.18-.27-.36-.55-.52-.83s-.2-.32-.32-.48a1.06,1.06,0,0,0-1.05-.13l-.13,0" fill="#fefefe" opacity="0.8"/>
            </g>
          </g>
        </g>
      </g>
      <g>
        <polygon points="48.74 10.54 48.58 40.83 24.04 49.76 24.19 19.47 48.74 10.54" fill="#4c65c2"/>
        <g style="isolation: isolate">
          <g clip-path="url(#clip-path-3)">
            <g>
              <path d="M35.76,22.37l-.36.15a.7.7,0,0,0-.28.8,2.56,2.56,0,0,0,.21.44l2,4.08c.78,1.64,1.61,3.21,2.38,4.85,0,.06.07.11.11.18.4.89.86,1.74,1.28,2.63.07.15.13.32.27.39l3.4-1.23a.2.2,0,0,0,0-.19c-.49-1-1-2-1.51-3.06-.58-1.19-1.17-2.38-1.76-3.58-.2-.42-.41-.83-.62-1.25s-.39-.82-.6-1.22c-.28-.58-.59-1.15-.86-1.76l0-.06c-.25-.4-.43-.88-.67-1.3a1,1,0,0,0-1.29-.48l-.29.11-.29.11-.44.15-.17.07-.24.08-.25.09" fill="#fefefe" opacity="0.8"/>
              <path d="M35.78,27.66l-.08,0-.52.2-.51.18-.77.28a2.42,2.42,0,0,0-1.1,1.15c-.27.61-.47,1.25-.72,1.87-.29.83-.6,1.65-.92,2.47-.23.65-.46,1.3-.71,1.94-.35.95-.69,1.89-1.05,2.83-.17.53-.4,1-.58,1.57,0,.1-.1.21-.06.3l3.44-1.25a1.13,1.13,0,0,0,.13-.27c.21-.64.47-1.26.7-1.9l1.09-2.94c.37-1,.72-2,1.09-2.95.23-.61.45-1.22.69-1.83.13-.36.27-.71.39-1.07s0-.75-.39-.65l-.12,0" fill="#fefefe" opacity="0.8"/>
            </g>
          </g>
        </g>
      </g>
    </g>
  </g>
  <g>
    <rect x="46.2" y="41.66" width="1.52" height="1.52" fill="#fff"/>
    <rect x="46.2" y="40.15" width="1.52" height="1.51" fill="#fff"/>
    <rect x="46.2" y="8.34" width="1.52" height="1.52" fill="#fff"/>
    <rect x="46.2" y="6.82" width="1.52" height="1.51" fill="#fff"/>
    <rect x="44.69" y="43.18" width="1.51" height="1.51" fill="#fff"/>
    <rect x="44.69" y="41.66" width="1.51" height="1.52" fill="#ef5454"/>
    <rect x="44.69" y="40.15" width="1.51" height="1.51" fill="#ef5454"/>
    <rect x="44.69" y="38.63" width="1.51" height="1.52" fill="#fff"/>
    <rect x="44.69" y="9.85" width="1.51" height="1.51" fill="#fff"/>
    <rect x="44.69" y="8.34" width="1.51" height="1.52" fill="#aa0707"/>
    <rect x="44.69" y="6.82" width="1.51" height="1.51" fill="#ef5454"/>
    <rect x="44.69" y="5.31" width="1.51" height="1.52" fill="#fff"/>
    <rect x="43.18" y="44.69" width="1.52" height="1.52" fill="#fff"/>
    <rect x="43.18" y="43.18" width="1.52" height="1.51" fill="#aa0707"/>
    <rect x="43.18" y="41.66" width="1.52" height="1.52" fill="#cc1d1d"/>
    <rect x="43.18" y="40.15" width="1.52" height="1.51" fill="#cc1d1d"/>
    <rect x="43.18" y="38.63" width="1.52" height="1.52" fill="#ef5454"/>
    <rect x="43.18" y="37.12" width="1.52" height="1.51" fill="#fff"/>
    <rect x="43.18" y="11.37" width="1.52" height="1.51" fill="#fff"/>
    <rect x="43.18" y="9.85" width="1.52" height="1.51" fill="#aa0707"/>
    <rect x="43.18" y="8.34" width="1.52" height="1.52" fill="#cc1d1d"/>
    <rect x="43.18" y="6.82" width="1.52" height="1.51" fill="#cc1d1d"/>
    <rect x="43.18" y="5.31" width="1.52" height="1.52" fill="#ef5454"/>
    <rect x="43.18" y="3.8" width="1.52" height="1.51" fill="#fff"/>
    <rect x="41.66" y="46.21" width="1.51" height="1.51" fill="#fff"/>
    <rect x="41.66" y="44.69" width="1.51" height="1.52" fill="#aa0707"/>
    <rect x="41.66" y="43.18" width="1.51" height="1.51" fill="#cc1d1d"/>
    <rect x="41.66" y="41.66" width="1.51" height="1.52" fill="#cc1d1d"/>
    <rect x="41.66" y="40.15" width="1.51" height="1.51" fill="#cc1d1d"/>
    <rect x="41.66" y="38.63" width="1.51" height="1.52" fill="#cc1d1d"/>
    <rect x="41.66" y="37.12" width="1.51" height="1.51" fill="#ef5454"/>
    <rect x="41.66" y="35.6" width="1.51" height="1.52" fill="#fff"/>
    <rect x="41.66" y="12.88" width="1.51" height="1.52" fill="#fff"/>
    <rect x="41.66" y="11.37" width="1.51" height="1.51" fill="#aa0707"/>
    <rect x="41.66" y="9.85" width="1.51" height="1.51" fill="#cc1d1d"/>
    <rect x="41.66" y="8.34" width="1.51" height="1.52" fill="#cc1d1d"/>
    <rect x="41.66" y="6.82" width="1.51" height="1.51" fill="#cc1d1d"/>
    <rect x="41.66" y="5.31" width="1.51" height="1.52" fill="#cc1d1d"/>
    <rect x="41.66" y="3.8" width="1.51" height="1.51" fill="#ef5454"/>
    <rect x="41.66" y="2.28" width="1.51" height="1.52" fill="#fff"/>
    <rect x="40.15" y="46.21" width="1.52" height="1.51" fill="#fff"/>
    <rect x="40.15" y="44.69" width="1.52" height="1.52" fill="#aa0707"/>
    <rect x="40.15" y="43.18" width="1.52" height="1.51" fill="#cc1d1d"/>
    <rect x="40.15" y="41.66" width="1.52" height="1.52" fill="#cc1d1d"/>
    <rect x="40.15" y="40.15" width="1.52" height="1.51" fill="#cc1d1d"/>
    <rect x="40.15" y="38.63" width="1.52" height="1.52" fill="#cc1d1d"/>
    <rect x="40.15" y="37.12" width="1.52" height="1.51" fill="#cc1d1d"/>
    <rect x="40.15" y="35.6" width="1.52" height="1.52" fill="#ef5454"/>
    <rect x="40.15" y="34.09" width="1.52" height="1.51" fill="#fff"/>
    <rect x="40.15" y="14.4" width="1.52" height="1.51" fill="#fff"/>
    <rect x="40.15" y="12.88" width="1.52" height="1.52" fill="#aa0707"/>
    <rect x="40.15" y="11.37" width="1.52" height="1.51" fill="#cc1d1d"/>
    <rect x="40.15" y="9.85" width="1.52" height="1.51" fill="#cc1d1d"/>
    <rect x="40.15" y="8.34" width="1.52" height="1.52" fill="#cc1d1d"/>
    <rect x="40.15" y="6.82" width="1.52" height="1.51" fill="#cc1d1d"/>
    <rect x="40.15" y="5.31" width="1.52" height="1.52" fill="#cc1d1d"/>
    <rect x="40.15" y="3.8" width="1.52" height="1.51" fill="#ef5454"/>
    <rect x="40.15" y="2.28" width="1.52" height="1.52" fill="#fff"/>
    <rect x="38.63" y="44.69" width="1.51" height="1.52" fill="#fff"/>
    <rect x="38.63" y="43.18" width="1.51" height="1.51" fill="#aa0707"/>
    <rect x="38.63" y="41.66" width="1.51" height="1.52" fill="#cc1d1d"/>
    <rect x="38.63" y="40.15" width="1.51" height="1.51" fill="#cc1d1d"/>
    <rect x="38.63" y="38.63" width="1.51" height="1.52" fill="#cc1d1d"/>
    <rect x="38.63" y="37.12" width="1.51" height="1.51" fill="#cc1d1d"/>
    <rect x="38.63" y="35.6" width="1.51" height="1.52" fill="#cc1d1d"/>
    <rect x="38.63" y="34.09" width="1.51" height="1.51" fill="#ef5454"/>
    <rect x="38.63" y="32.57" width="1.51" height="1.52" fill="#fff"/>
    <rect x="38.63" y="15.91" width="1.51" height="1.52" fill="#fff"/>
    <rect x="38.63" y="14.4" width="1.51" height="1.51" fill="#aa0707"/>
    <rect x="38.63" y="12.88" width="1.51" height="1.52" fill="#cc1d1d"/>
    <rect x="38.63" y="11.37" width="1.51" height="1.51" fill="#cc1d1d"/>
    <rect x="38.63" y="9.85" width="1.51" height="1.51" fill="#cc1d1d"/>
    <rect x="38.63" y="8.34" width="1.51" height="1.52" fill="#cc1d1d"/>
    <rect x="38.63" y="6.82" width="1.51" height="1.51" fill="#cc1d1d"/>
    <rect x="38.63" y="5.31" width="1.51" height="1.52" fill="#ef5454"/>
    <rect x="38.63" y="3.8" width="1.51" height="1.51" fill="#fff"/>
    <rect x="37.12" y="43.18" width="1.52" height="1.51" fill="#fff"/>
    <rect x="37.12" y="41.66" width="1.52" height="1.52" fill="#aa0707"/>
    <rect x="37.12" y="40.15" width="1.52" height="1.51" fill="#cc1d1d"/>
    <rect x="37.12" y="38.63" width="1.52" height="1.52" fill="#cc1d1d"/>
    <rect x="37.12" y="37.12" width="1.52" height="1.51" fill="#cc1d1d"/>
    <rect x="37.12" y="35.6" width="1.52" height="1.52" fill="#cc1d1d"/>
    <rect x="37.12" y="34.09" width="1.52" height="1.51" fill="#cc1d1d"/>
    <rect x="37.12" y="32.57" width="1.52" height="1.52" fill="#ef5454"/>
    <rect x="37.12" y="31.06" width="1.52" height="1.51" fill="#fff"/>
    <rect x="37.12" y="17.43" width="1.52" height="1.51" fill="#fff"/>
    <rect x="37.12" y="15.91" width="1.52" height="1.52" fill="#aa0707"/>
    <rect x="37.12" y="14.4" width="1.52" height="1.51" fill="#cc1d1d"/>
    <rect x="37.12" y="12.88" width="1.52" height="1.52" fill="#cc1d1d"/>
    <rect x="37.12" y="11.37" width="1.52" height="1.51" fill="#cc1d1d"/>
    <rect x="37.12" y="9.85" width="1.52" height="1.51" fill="#cc1d1d"/>
    <rect x="37.12" y="8.34" width="1.52" height="1.52" fill="#cc1d1d"/>
    <rect x="37.12" y="6.82" width="1.52" height="1.51" fill="#ef5454"/>
    <rect x="37.12" y="5.31" width="1.52" height="1.52" fill="#fff"/>
    <rect x="35.6" y="41.66" width="1.51" height="1.52" fill="#fff"/>
    <rect x="35.6" y="40.15" width="1.51" height="1.51" fill="#aa0707"/>
    <rect x="35.6" y="38.63" width="1.51" height="1.52" fill="#cc1d1d"/>
    <rect x="35.6" y="37.12" width="1.51" height="1.51" fill="#cc1d1d"/>
    <rect x="35.6" y="35.6" width="1.51" height="1.52" fill="#cc1d1d"/>
    <rect x="35.6" y="34.09" width="1.51" height="1.51" fill="#cc1d1d"/>
    <rect x="35.6" y="32.57" width="1.51" height="1.52" fill="#cc1d1d"/>
    <rect x="35.6" y="31.06" width="1.51" height="1.51" fill="#ef5454"/>
    <rect x="35.6" y="29.54" width="1.51" height="1.51" fill="#fff"/>
    <rect x="35.6" y="18.94" width="1.51" height="1.52" fill="#fff"/>
    <rect x="35.6" y="17.43" width="1.51" height="1.51" fill="#aa0707"/>
    <rect x="35.6" y="15.91" width="1.51" height="1.52" fill="#cc1d1d"/>
    <rect x="35.6" y="14.4" width="1.51" height="1.51" fill="#cc1d1d"/>
    <rect x="35.6" y="12.88" width="1.51" height="1.52" fill="#cc1d1d"/>
    <rect x="35.6" y="11.37" width="1.51" height="1.51" fill="#cc1d1d"/>
    <rect x="35.6" y="9.85" width="1.51" height="1.51" fill="#cc1d1d"/>
    <rect x="35.6" y="8.34" width="1.51" height="1.52" fill="#ef5454"/>
    <rect x="35.6" y="6.82" width="1.51" height="1.51" fill="#fff"/>
    <rect x="34.09" y="40.15" width="1.52" height="1.51" fill="#fff"/>
    <rect x="34.09" y="38.63" width="1.52" height="1.52" fill="#aa0707"/>
    <rect x="34.09" y="37.12" width="1.52" height="1.51" fill="#cc1d1d"/>
    <rect x="34.09" y="35.6" width="1.52" height="1.52" fill="#cc1d1d"/>
    <rect x="34.09" y="34.09" width="1.52" height="1.51" fill="#cc1d1d"/>
    <rect x="34.09" y="32.57" width="1.52" height="1.52" fill="#cc1d1d"/>
    <rect x="34.09" y="31.06" width="1.52" height="1.51" fill="#cc1d1d"/>
    <rect x="34.09" y="29.54" width="1.52" height="1.51" fill="#ef5454"/>
    <rect x="34.09" y="28.03" width="1.52" height="1.52" fill="#fff"/>
    <rect x="34.09" y="20.46" width="1.52" height="1.51" fill="#fff"/>
    <rect x="34.09" y="18.94" width="1.52" height="1.52" fill="#aa0707"/>
    <rect x="34.09" y="17.43" width="1.52" height="1.51" fill="#cc1d1d"/>
    <rect x="34.09" y="15.91" width="1.52" height="1.52" fill="#cc1d1d"/>
    <rect x="34.09" y="14.4" width="1.52" height="1.51" fill="#cc1d1d"/>
    <rect x="34.09" y="12.88" width="1.52" height="1.52" fill="#cc1d1d"/>
    <rect x="34.09" y="11.37" width="1.52" height="1.51" fill="#cc1d1d"/>
    <rect x="34.09" y="9.85" width="1.52" height="1.51" fill="#ef5454"/>
    <rect x="34.09" y="8.34" width="1.52" height="1.52" fill="#fff"/>
    <rect x="32.57" y="38.63" width="1.51" height="1.52" fill="#fff"/>
    <rect x="32.57" y="37.12" width="1.51" height="1.51" fill="#aa0707"/>
    <rect x="32.57" y="35.6" width="1.51" height="1.52" fill="#cc1d1d"/>
    <rect x="32.57" y="34.09" width="1.51" height="1.51" fill="#cc1d1d"/>
    <rect x="32.57" y="32.57" width="1.51" height="1.52" fill="#cc1d1d"/>
    <rect x="32.57" y="31.06" width="1.51" height="1.51" fill="#cc1d1d"/>
    <rect x="32.57" y="29.54" width="1.51" height="1.51" fill="#cc1d1d"/>
    <rect x="32.57" y="28.03" width="1.51" height="1.52" fill="#ef5454"/>
    <rect x="32.57" y="26.52" width="1.51" height="1.51" fill="#fff"/>
    <rect x="32.57" y="21.97" width="1.51" height="1.52" fill="#fff"/>
    <rect x="32.57" y="20.46" width="1.51" height="1.51" fill="#aa0707"/>
    <rect x="32.57" y="18.94" width="1.51" height="1.52" fill="#cc1d1d"/>
    <rect x="32.57" y="17.43" width="1.51" height="1.51" fill="#cc1d1d"/>
    <rect x="32.57" y="15.91" width="1.51" height="1.52" fill="#cc1d1d"/>
    <rect x="32.57" y="14.4" width="1.51" height="1.51" fill="#cc1d1d"/>
    <rect x="32.57" y="12.88" width="1.51" height="1.52" fill="#cc1d1d"/>
    <rect x="32.57" y="11.37" width="1.51" height="1.51" fill="#ef5454"/>
    <rect x="32.57" y="9.85" width="1.51" height="1.51" fill="#fff"/>
    <rect x="31.06" y="37.12" width="1.51" height="1.51" fill="#fff"/>
    <rect x="31.06" y="35.6" width="1.51" height="1.52" fill="#aa0707"/>
    <rect x="31.06" y="34.09" width="1.51" height="1.51" fill="#cc1d1d"/>
    <rect x="31.06" y="32.57" width="1.51" height="1.52" fill="#cc1d1d"/>
    <rect x="31.06" y="31.06" width="1.51" height="1.51" fill="#cc1d1d"/>
    <rect x="31.06" y="29.54" width="1.51" height="1.51" fill="#cc1d1d"/>
    <rect x="31.06" y="28.03" width="1.51" height="1.52" fill="#cc1d1d"/>
    <rect x="31.06" y="26.52" width="1.51" height="1.51" fill="#ef5454"/>
    <rect x="31.06" y="25" width="1.51" height="1.52" fill="#fff"/>
    <rect x="31.06" y="23.49" width="1.51" height="1.51" fill="#fff"/>
    <rect x="31.06" y="21.97" width="1.51" height="1.52" fill="#aa0707"/>
    <rect x="31.06" y="20.46" width="1.51" height="1.51" fill="#cc1d1d"/>
    <rect x="31.06" y="18.94" width="1.51" height="1.52" fill="#cc1d1d"/>
    <rect x="31.06" y="17.43" width="1.51" height="1.51" fill="#cc1d1d"/>
    <rect x="31.06" y="15.91" width="1.51" height="1.52" fill="#cc1d1d"/>
    <rect x="31.06" y="14.4" width="1.51" height="1.51" fill="#cc1d1d"/>
    <rect x="31.06" y="12.88" width="1.51" height="1.52" fill="#ef5454"/>
    <rect x="31.06" y="11.37" width="1.51" height="1.51" fill="#fff"/>
    <rect x="29.54" y="35.6" width="1.52" height="1.52" fill="#fff"/>
    <rect x="29.54" y="34.09" width="1.52" height="1.51" fill="#aa0707"/>
    <rect x="29.54" y="32.57" width="1.52" height="1.52" fill="#cc1d1d"/>
    <rect x="29.54" y="31.06" width="1.52" height="1.51" fill="#cc1d1d"/>
    <rect x="29.54" y="29.54" width="1.52" height="1.51" fill="#cc1d1d"/>
    <rect x="29.54" y="28.03" width="1.52" height="1.52" fill="#cc1d1d"/>
    <rect x="29.54" y="26.52" width="1.52" height="1.51" fill="#cc1d1d"/>
    <rect x="29.54" y="25" width="1.52" height="1.52" fill="#aa0707"/>
    <rect x="29.54" y="23.49" width="1.52" height="1.51" fill="#aa0707"/>
    <rect x="29.54" y="21.97" width="1.52" height="1.52" fill="#cc1d1d"/>
    <rect x="29.54" y="20.46" width="1.52" height="1.51" fill="#cc1d1d"/>
    <rect x="29.54" y="18.94" width="1.52" height="1.52" fill="#cc1d1d"/>
    <rect x="29.54" y="17.43" width="1.52" height="1.51" fill="#cc1d1d"/>
    <rect x="29.54" y="15.91" width="1.52" height="1.52" fill="#cc1d1d"/>
    <rect x="29.54" y="14.4" width="1.52" height="1.51" fill="#ef5454"/>
    <rect x="29.54" y="12.88" width="1.52" height="1.52" fill="#fff"/>
    <rect x="28.03" y="34.09" width="1.51" height="1.51" fill="#fff"/>
    <rect x="28.03" y="32.57" width="1.51" height="1.52" fill="#aa0707"/>
    <rect x="28.03" y="31.06" width="1.51" height="1.51" fill="#cc1d1d"/>
    <rect x="28.03" y="29.54" width="1.51" height="1.51" fill="#cc1d1d"/>
    <rect x="28.03" y="28.03" width="1.51" height="1.52" fill="#cc1d1d"/>
    <rect x="28.03" y="26.52" width="1.51" height="1.51" fill="#cc1d1d"/>
    <rect x="28.03" y="25" width="1.51" height="1.52" fill="#cc1d1d"/>
    <rect x="28.03" y="23.49" width="1.51" height="1.51" fill="#cc1d1d"/>
    <rect x="28.03" y="21.97" width="1.51" height="1.52" fill="#cc1d1d"/>
    <rect x="28.03" y="20.46" width="1.51" height="1.51" fill="#cc1d1d"/>
    <rect x="28.03" y="18.94" width="1.51" height="1.52" fill="#cc1d1d"/>
    <rect x="28.03" y="17.43" width="1.51" height="1.51" fill="#cc1d1d"/>
    <rect x="28.03" y="15.91" width="1.51" height="1.52" fill="#ef5454"/>
    <rect x="28.03" y="14.4" width="1.51" height="1.51" fill="#fff"/>
    <rect x="26.51" y="32.57" width="1.52" height="1.52" fill="#fff"/>
    <rect x="26.51" y="31.06" width="1.52" height="1.51" fill="#aa0707"/>
    <rect x="26.51" y="29.54" width="1.52" height="1.51" fill="#cc1d1d"/>
    <rect x="26.51" y="28.03" width="1.52" height="1.52" fill="#cc1d1d"/>
    <rect x="26.51" y="26.52" width="1.52" height="1.51" fill="#cc1d1d"/>
    <rect x="26.51" y="25" width="1.52" height="1.52" fill="#cc1d1d"/>
    <rect x="26.51" y="23.49" width="1.52" height="1.51" fill="#cc1d1d"/>
    <rect x="26.51" y="21.97" width="1.52" height="1.52" fill="#cc1d1d"/>
    <rect x="26.51" y="20.46" width="1.52" height="1.51" fill="#cc1d1d"/>
    <rect x="26.51" y="18.94" width="1.52" height="1.52" fill="#cc1d1d"/>
    <rect x="26.51" y="17.43" width="1.52" height="1.51" fill="#ef5454"/>
    <rect x="26.51" y="15.91" width="1.52" height="1.52" fill="#fff"/>
    <rect x="25" y="31.06" width="1.51" height="1.51" fill="#fff"/>
    <rect x="25" y="29.54" width="1.51" height="1.51" fill="#aa0707"/>
    <rect x="25" y="28.03" width="1.51" height="1.52" fill="#cc1d1d"/>
    <rect x="25" y="26.52" width="1.51" height="1.51" fill="#cc1d1d"/>
    <rect x="25" y="25" width="1.51" height="1.52" fill="#cc1d1d"/>
    <rect x="25" y="23.49" width="1.51" height="1.51" fill="#cc1d1d"/>
    <rect x="25" y="21.97" width="1.51" height="1.52" fill="#cc1d1d"/>
    <rect x="25" y="20.46" width="1.51" height="1.51" fill="#cc1d1d"/>
    <rect x="25" y="18.94" width="1.51" height="1.52" fill="#ef5454"/>
    <rect x="25" y="17.43" width="1.51" height="1.51" fill="#fff"/>
    <rect x="23.49" y="31.06" width="1.52" height="1.51" fill="#fff"/>
    <rect x="23.49" y="29.54" width="1.52" height="1.51" fill="#aa0707"/>
    <rect x="23.49" y="28.03" width="1.52" height="1.52" fill="#cc1d1d"/>
    <rect x="23.49" y="26.52" width="1.52" height="1.51" fill="#cc1d1d"/>
    <rect x="23.49" y="25" width="1.52" height="1.52" fill="#cc1d1d"/>
    <rect x="23.49" y="23.49" width="1.52" height="1.51" fill="#cc1d1d"/>
    <rect x="23.49" y="21.97" width="1.52" height="1.52" fill="#cc1d1d"/>
    <rect x="23.49" y="20.46" width="1.52" height="1.51" fill="#cc1d1d"/>
    <rect x="23.49" y="18.94" width="1.52" height="1.52" fill="#ef5454"/>
    <rect x="23.49" y="17.43" width="1.52" height="1.51" fill="#fff"/>
    <rect x="21.97" y="32.57" width="1.51" height="1.52" fill="#fff"/>
    <rect x="21.97" y="31.06" width="1.51" height="1.51" fill="#aa0707"/>
    <rect x="21.97" y="29.54" width="1.51" height="1.51" fill="#cc1d1d"/>
    <rect x="21.97" y="28.03" width="1.51" height="1.52" fill="#cc1d1d"/>
    <rect x="21.97" y="26.52" width="1.51" height="1.51" fill="#cc1d1d"/>
    <rect x="21.97" y="25" width="1.51" height="1.52" fill="#cc1d1d"/>
    <rect x="21.97" y="23.49" width="1.51" height="1.51" fill="#cc1d1d"/>
    <rect x="21.97" y="21.97" width="1.51" height="1.52" fill="#cc1d1d"/>
    <rect x="21.97" y="20.46" width="1.51" height="1.51" fill="#cc1d1d"/>
    <rect x="21.97" y="18.94" width="1.51" height="1.52" fill="#cc1d1d"/>
    <rect x="21.97" y="17.43" width="1.51" height="1.51" fill="#ef5454"/>
    <rect x="21.97" y="15.91" width="1.51" height="1.52" fill="#fff"/>
    <rect x="20.46" y="34.09" width="1.52" height="1.51" fill="#fff"/>
    <rect x="20.46" y="32.57" width="1.52" height="1.52" fill="#aa0707"/>
    <rect x="20.46" y="31.06" width="1.52" height="1.51" fill="#cc1d1d"/>
    <rect x="20.46" y="29.54" width="1.52" height="1.51" fill="#cc1d1d"/>
    <rect x="20.46" y="28.03" width="1.52" height="1.52" fill="#cc1d1d"/>
    <rect x="20.46" y="26.52" width="1.52" height="1.51" fill="#cc1d1d"/>
    <rect x="20.46" y="25" width="1.52" height="1.52" fill="#cc1d1d"/>
    <rect x="20.46" y="23.49" width="1.52" height="1.51" fill="#cc1d1d"/>
    <rect x="20.46" y="21.97" width="1.52" height="1.52" fill="#cc1d1d"/>
    <rect x="20.46" y="20.46" width="1.52" height="1.51" fill="#cc1d1d"/>
    <rect x="20.46" y="18.94" width="1.52" height="1.52" fill="#cc1d1d"/>
    <rect x="20.46" y="17.43" width="1.52" height="1.51" fill="#cc1d1d"/>
    <rect x="20.46" y="15.91" width="1.52" height="1.52" fill="#ef5454"/>
    <rect x="20.46" y="14.4" width="1.52" height="1.51" fill="#fff"/>
    <rect x="18.94" y="35.6" width="1.51" height="1.52" fill="#fff"/>
    <rect x="18.94" y="34.09" width="1.51" height="1.51" fill="#aa0707"/>
    <rect x="18.94" y="32.57" width="1.51" height="1.52" fill="#cc1d1d"/>
    <rect x="18.94" y="31.06" width="1.51" height="1.51" fill="#cc1d1d"/>
    <rect x="18.94" y="29.54" width="1.51" height="1.51" fill="#cc1d1d"/>
    <rect x="18.94" y="28.03" width="1.51" height="1.52" fill="#cc1d1d"/>
    <rect x="18.94" y="26.52" width="1.51" height="1.51" fill="#cc1d1d"/>
    <rect x="18.94" y="25" width="1.51" height="1.52" fill="#aa0707"/>
    <rect x="18.94" y="23.49" width="1.51" height="1.51" fill="#aa0707"/>
    <rect x="18.94" y="21.97" width="1.51" height="1.52" fill="#cc1d1d"/>
    <rect x="18.94" y="20.46" width="1.51" height="1.51" fill="#cc1d1d"/>
    <rect x="18.94" y="18.94" width="1.51" height="1.52" fill="#cc1d1d"/>
    <rect x="18.94" y="17.43" width="1.51" height="1.51" fill="#cc1d1d"/>
    <rect x="18.94" y="15.91" width="1.51" height="1.52" fill="#cc1d1d"/>
    <rect x="18.94" y="14.4" width="1.51" height="1.51" fill="#ef5454"/>
    <rect x="18.94" y="12.88" width="1.51" height="1.52" fill="#fff"/>
    <rect x="17.43" y="37.12" width="1.52" height="1.51" fill="#fff"/>
    <rect x="17.43" y="35.6" width="1.52" height="1.52" fill="#aa0707"/>
    <rect x="17.43" y="34.09" width="1.52" height="1.51" fill="#cc1d1d"/>
    <rect x="17.43" y="32.57" width="1.52" height="1.52" fill="#cc1d1d"/>
    <rect x="17.43" y="31.06" width="1.52" height="1.51" fill="#cc1d1d"/>
    <rect x="17.43" y="29.54" width="1.52" height="1.51" fill="#cc1d1d"/>
    <rect x="17.43" y="28.03" width="1.52" height="1.52" fill="#cc1d1d"/>
    <rect x="17.43" y="26.52" width="1.52" height="1.51" fill="#ef5454"/>
    <rect x="17.43" y="25" width="1.52" height="1.52" fill="#fff"/>
    <rect x="17.43" y="23.49" width="1.52" height="1.51" fill="#fff"/>
    <rect x="17.43" y="21.97" width="1.52" height="1.52" fill="#aa0707"/>
    <rect x="17.43" y="20.46" width="1.52" height="1.51" fill="#cc1d1d"/>
    <rect x="17.43" y="18.94" width="1.52" height="1.52" fill="#cc1d1d"/>
    <rect x="17.43" y="17.43" width="1.52" height="1.51" fill="#cc1d1d"/>
    <rect x="17.43" y="15.91" width="1.52" height="1.52" fill="#cc1d1d"/>
    <rect x="17.43" y="14.4" width="1.52" height="1.51" fill="#cc1d1d"/>
    <rect x="17.43" y="12.88" width="1.52" height="1.52" fill="#ef5454"/>
    <rect x="17.43" y="11.37" width="1.52" height="1.51" fill="#fff"/>
    <rect x="15.91" y="38.63" width="1.51" height="1.52" fill="#fff"/>
    <rect x="15.91" y="37.12" width="1.51" height="1.51" fill="#aa0707"/>
    <rect x="15.91" y="35.6" width="1.51" height="1.52" fill="#cc1d1d"/>
    <rect x="15.91" y="34.09" width="1.51" height="1.51" fill="#cc1d1d"/>
    <rect x="15.91" y="32.57" width="1.51" height="1.52" fill="#cc1d1d"/>
    <rect x="15.91" y="31.06" width="1.51" height="1.51" fill="#cc1d1d"/>
    <rect x="15.91" y="29.54" width="1.51" height="1.51" fill="#cc1d1d"/>
    <rect x="15.91" y="28.03" width="1.51" height="1.52" fill="#ef5454"/>
    <rect x="15.91" y="26.52" width="1.51" height="1.51" fill="#fff"/>
    <rect x="15.91" y="21.97" width="1.51" height="1.52" fill="#fff"/>
    <rect x="15.91" y="20.46" width="1.51" height="1.51" fill="#aa0707"/>
    <rect x="15.91" y="18.94" width="1.51" height="1.52" fill="#cc1d1d"/>
    <rect x="15.91" y="17.43" width="1.51" height="1.51" fill="#cc1d1d"/>
    <rect x="15.91" y="15.91" width="1.51" height="1.52" fill="#cc1d1d"/>
    <rect x="15.91" y="14.4" width="1.51" height="1.51" fill="#cc1d1d"/>
    <rect x="15.91" y="12.88" width="1.51" height="1.52" fill="#cc1d1d"/>
    <rect x="15.91" y="11.37" width="1.51" height="1.51" fill="#ef5454"/>
    <rect x="15.91" y="9.85" width="1.51" height="1.51" fill="#fff"/>
    <rect x="14.4" y="40.15" width="1.52" height="1.51" fill="#fff"/>
    <rect x="14.4" y="38.63" width="1.52" height="1.52" fill="#aa0707"/>
    <rect x="14.4" y="37.12" width="1.52" height="1.51" fill="#cc1d1d"/>
    <rect x="14.4" y="35.6" width="1.52" height="1.52" fill="#cc1d1d"/>
    <rect x="14.4" y="34.09" width="1.52" height="1.51" fill="#cc1d1d"/>
    <rect x="14.4" y="32.57" width="1.52" height="1.52" fill="#cc1d1d"/>
    <rect x="14.4" y="31.06" width="1.52" height="1.51" fill="#cc1d1d"/>
    <rect x="14.4" y="29.54" width="1.52" height="1.51" fill="#ef5454"/>
    <rect x="14.4" y="28.03" width="1.52" height="1.52" fill="#fff"/>
    <rect x="14.4" y="20.46" width="1.52" height="1.51" fill="#fff"/>
    <rect x="14.4" y="18.94" width="1.52" height="1.52" fill="#aa0707"/>
    <rect x="14.4" y="17.43" width="1.52" height="1.51" fill="#cc1d1d"/>
    <rect x="14.4" y="15.91" width="1.52" height="1.52" fill="#cc1d1d"/>
    <rect x="14.4" y="14.4" width="1.52" height="1.51" fill="#cc1d1d"/>
    <rect x="14.4" y="12.88" width="1.52" height="1.52" fill="#cc1d1d"/>
    <rect x="14.4" y="11.37" width="1.52" height="1.51" fill="#cc1d1d"/>
    <rect x="14.4" y="9.85" width="1.52" height="1.51" fill="#ef5454"/>
    <rect x="14.4" y="8.34" width="1.52" height="1.52" fill="#fff"/>
    <rect x="12.88" y="41.66" width="1.51" height="1.52" fill="#fff"/>
    <rect x="12.88" y="40.15" width="1.51" height="1.51" fill="#aa0707"/>
    <rect x="12.88" y="38.63" width="1.51" height="1.52" fill="#cc1d1d"/>
    <rect x="12.88" y="37.12" width="1.51" height="1.51" fill="#cc1d1d"/>
    <rect x="12.88" y="35.6" width="1.51" height="1.52" fill="#cc1d1d"/>
    <rect x="12.88" y="34.09" width="1.51" height="1.51" fill="#cc1d1d"/>
    <rect x="12.88" y="32.57" width="1.51" height="1.52" fill="#cc1d1d"/>
    <rect x="12.88" y="31.06" width="1.51" height="1.51" fill="#ef5454"/>
    <rect x="12.88" y="29.54" width="1.51" height="1.51" fill="#fff"/>
    <rect x="12.88" y="18.94" width="1.51" height="1.52" fill="#fff"/>
    <rect x="12.88" y="17.43" width="1.51" height="1.51" fill="#aa0707"/>
    <rect x="12.88" y="15.91" width="1.51" height="1.52" fill="#cc1d1d"/>
    <rect x="12.88" y="14.4" width="1.51" height="1.51" fill="#cc1d1d"/>
    <rect x="12.88" y="12.88" width="1.51" height="1.52" fill="#cc1d1d"/>
    <rect x="12.88" y="11.37" width="1.51" height="1.51" fill="#cc1d1d"/>
    <rect x="12.88" y="9.85" width="1.51" height="1.51" fill="#cc1d1d"/>
    <rect x="12.88" y="8.34" width="1.51" height="1.52" fill="#ef5454"/>
    <rect x="12.88" y="6.82" width="1.51" height="1.51" fill="#fff"/>
    <rect x="11.37" y="43.18" width="1.51" height="1.51" fill="#fff"/>
    <rect x="11.37" y="41.66" width="1.51" height="1.52" fill="#aa0707"/>
    <rect x="11.37" y="40.15" width="1.51" height="1.51" fill="#cc1d1d"/>
    <rect x="11.37" y="38.63" width="1.51" height="1.52" fill="#cc1d1d"/>
    <rect x="11.37" y="37.12" width="1.51" height="1.51" fill="#cc1d1d"/>
    <rect x="11.37" y="35.6" width="1.51" height="1.52" fill="#cc1d1d"/>
    <rect x="11.37" y="34.09" width="1.51" height="1.51" fill="#cc1d1d"/>
    <rect x="11.37" y="32.57" width="1.51" height="1.52" fill="#ef5454"/>
    <rect x="11.37" y="31.06" width="1.51" height="1.51" fill="#fff"/>
    <rect x="11.37" y="17.43" width="1.51" height="1.51" fill="#fff"/>
    <rect x="11.37" y="15.91" width="1.51" height="1.52" fill="#aa0707"/>
    <rect x="11.37" y="14.4" width="1.51" height="1.51" fill="#cc1d1d"/>
    <rect x="11.37" y="12.88" width="1.51" height="1.52" fill="#cc1d1d"/>
    <rect x="11.37" y="11.37" width="1.51" height="1.51" fill="#cc1d1d"/>
    <rect x="11.37" y="9.85" width="1.51" height="1.51" fill="#cc1d1d"/>
    <rect x="11.37" y="8.34" width="1.51" height="1.52" fill="#cc1d1d"/>
    <rect x="11.37" y="6.82" width="1.51" height="1.51" fill="#ef5454"/>
    <rect x="11.37" y="5.31" width="1.51" height="1.52" fill="#fff"/>
    <rect x="9.85" y="44.69" width="1.52" height="1.52" fill="#fff"/>
    <rect x="9.85" y="43.18" width="1.52" height="1.51" fill="#aa0707"/>
    <rect x="9.85" y="41.66" width="1.52" height="1.52" fill="#cc1d1d"/>
    <rect x="9.85" y="40.15" width="1.52" height="1.51" fill="#cc1d1d"/>
    <rect x="9.85" y="38.63" width="1.52" height="1.52" fill="#cc1d1d"/>
    <rect x="9.85" y="37.12" width="1.52" height="1.51" fill="#cc1d1d"/>
    <rect x="9.85" y="35.6" width="1.52" height="1.52" fill="#cc1d1d"/>
    <rect x="9.85" y="34.09" width="1.52" height="1.51" fill="#ef5454"/>
    <rect x="9.85" y="32.57" width="1.52" height="1.52" fill="#fff"/>
    <rect x="9.85" y="15.91" width="1.52" height="1.52" fill="#fff"/>
    <rect x="9.85" y="14.4" width="1.52" height="1.51" fill="#aa0707"/>
    <rect x="9.85" y="12.88" width="1.52" height="1.52" fill="#cc1d1d"/>
    <rect x="9.85" y="11.37" width="1.52" height="1.51" fill="#cc1d1d"/>
    <rect x="9.85" y="9.85" width="1.52" height="1.51" fill="#cc1d1d"/>
    <rect x="9.85" y="8.34" width="1.52" height="1.52" fill="#cc1d1d"/>
    <rect x="9.85" y="6.82" width="1.52" height="1.51" fill="#cc1d1d"/>
    <rect x="9.85" y="5.31" width="1.52" height="1.52" fill="#ef5454"/>
    <rect x="9.85" y="3.8" width="1.52" height="1.51" fill="#fff"/>
    <rect x="8.34" y="46.21" width="1.51" height="1.51" fill="#fff"/>
    <rect x="8.34" y="44.69" width="1.51" height="1.52" fill="#aa0707"/>
    <rect x="8.34" y="43.18" width="1.51" height="1.51" fill="#cc1d1d"/>
    <rect x="8.34" y="41.66" width="1.51" height="1.52" fill="#cc1d1d"/>
    <rect x="8.34" y="40.15" width="1.51" height="1.51" fill="#cc1d1d"/>
    <rect x="8.34" y="38.63" width="1.51" height="1.52" fill="#cc1d1d"/>
    <rect x="8.34" y="37.12" width="1.51" height="1.51" fill="#cc1d1d"/>
    <rect x="8.34" y="35.6" width="1.51" height="1.52" fill="#ef5454"/>
    <rect x="8.34" y="34.09" width="1.51" height="1.51" fill="#fff"/>
    <rect x="8.34" y="14.4" width="1.51" height="1.51" fill="#fff"/>
    <rect x="8.34" y="12.88" width="1.51" height="1.52" fill="#aa0707"/>
    <rect x="8.34" y="11.37" width="1.51" height="1.51" fill="#cc1d1d"/>
    <rect x="8.34" y="9.85" width="1.51" height="1.51" fill="#cc1d1d"/>
    <rect x="8.34" y="8.34" width="1.51" height="1.52" fill="#cc1d1d"/>
    <rect x="8.34" y="6.82" width="1.51" height="1.51" fill="#cc1d1d"/>
    <rect x="8.34" y="5.31" width="1.51" height="1.52" fill="#cc1d1d"/>
    <rect x="8.34" y="3.8" width="1.51" height="1.51" fill="#ef5454"/>
    <rect x="8.34" y="2.28" width="1.51" height="1.52" fill="#fff"/>
    <rect x="6.82" y="46.21" width="1.52" height="1.51" fill="#fff"/>
    <rect x="6.82" y="44.69" width="1.52" height="1.52" fill="#aa0707"/>
    <rect x="6.82" y="43.18" width="1.52" height="1.51" fill="#cc1d1d"/>
    <rect x="6.82" y="41.66" width="1.52" height="1.52" fill="#cc1d1d"/>
    <rect x="6.82" y="40.15" width="1.52" height="1.51" fill="#cc1d1d"/>
    <rect x="6.82" y="38.63" width="1.52" height="1.52" fill="#cc1d1d"/>
    <rect x="6.82" y="37.12" width="1.52" height="1.51" fill="#ef5454"/>
    <rect x="6.82" y="35.6" width="1.52" height="1.52" fill="#fff"/>
    <rect x="6.82" y="12.88" width="1.52" height="1.52" fill="#fff"/>
    <rect x="6.82" y="11.37" width="1.52" height="1.51" fill="#aa0707"/>
    <rect x="6.82" y="9.85" width="1.52" height="1.51" fill="#cc1d1d"/>
    <rect x="6.82" y="8.34" width="1.52" height="1.52" fill="#cc1d1d"/>
    <rect x="6.82" y="6.82" width="1.52" height="1.51" fill="#cc1d1d"/>
    <rect x="6.82" y="5.31" width="1.52" height="1.52" fill="#cc1d1d"/>
    <rect x="6.82" y="3.8" width="1.52" height="1.51" fill="#ef5454"/>
    <rect x="6.82" y="2.28" width="1.52" height="1.52" fill="#fff"/>
    <rect x="5.31" y="44.69" width="1.51" height="1.52" fill="#fff"/>
    <rect x="5.31" y="43.18" width="1.51" height="1.51" fill="#aa0707"/>
    <rect x="5.31" y="41.66" width="1.51" height="1.52" fill="#cc1d1d"/>
    <rect x="5.31" y="40.15" width="1.51" height="1.51" fill="#cc1d1d"/>
    <rect x="5.31" y="38.63" width="1.51" height="1.52" fill="#ef5454"/>
    <rect x="5.31" y="37.12" width="1.51" height="1.51" fill="#fff"/>
    <rect x="5.31" y="11.37" width="1.51" height="1.51" fill="#fff"/>
    <rect x="5.31" y="9.85" width="1.51" height="1.51" fill="#aa0707"/>
    <rect x="5.31" y="8.34" width="1.51" height="1.52" fill="#cc1d1d"/>
    <rect x="5.31" y="6.82" width="1.51" height="1.51" fill="#cc1d1d"/>
    <rect x="5.31" y="5.31" width="1.51" height="1.52" fill="#ef5454"/>
    <rect x="5.31" y="3.8" width="1.51" height="1.51" fill="#fff"/>
    <rect x="3.79" y="43.18" width="1.52" height="1.51" fill="#fff"/>
    <rect x="3.79" y="41.66" width="1.52" height="1.52" fill="#aa0707"/>
    <rect x="3.79" y="40.15" width="1.52" height="1.51" fill="#ef5454"/>
    <rect x="3.79" y="38.63" width="1.52" height="1.52" fill="#fff"/>
    <rect x="3.79" y="9.85" width="1.52" height="1.51" fill="#fff"/>
    <rect x="3.79" y="8.34" width="1.52" height="1.52" fill="#aa0707"/>
    <rect x="3.79" y="6.82" width="1.52" height="1.51" fill="#ef5454"/>
    <rect x="3.79" y="5.31" width="1.52" height="1.52" fill="#fff"/>
    <rect x="2.28" y="41.66" width="1.51" height="1.52" fill="#fff"/>
    <rect x="2.28" y="40.15" width="1.51" height="1.51" fill="#fff"/>
    <rect x="2.28" y="8.34" width="1.51" height="1.52" fill="#fff"/>
    <rect x="2.28" y="6.82" width="1.51" height="1.51" fill="#fff"/>
  </g>
</svg>
