<svg id="Capa_1" data-name="Capa 1" xmlns="http://www.w3.org/2000/svg" xmlns:xlink="http://www.w3.org/1999/xlink" width="50" height="50" viewBox="0 0 50 50">
  <defs>
    <clipPath id="clip-path">
      <polygon points="24.04 49.75 1.26 39.46 1.42 9.17 24.2 19.46 24.04 49.75" fill="none"/>
    </clipPath>
    <clipPath id="clip-path-2">
      <polygon points="24.2 19.46 1.42 9.17 25.96 0.24 48.75 10.53 24.2 19.46" fill="none"/>
    </clipPath>
    <clipPath id="clip-path-3">
      <polygon points="48.75 10.53 48.59 40.82 24.04 49.75 24.2 19.46 48.75 10.53" fill="none"/>
    </clipPath>
  </defs>
  <g id="Figment_lido">
    <g style="isolation: isolate">
      <g>
        <polygon points="24.04 49.75 1.26 39.46 1.42 9.17 24.2 19.46 24.04 49.75" fill="#c0bfbf"/>
        <g style="isolation: isolate">
          <g clip-path="url(#clip-path)">
            <g>
              <polyline points="10.03 26.55 8.82 33.72 10.22 40.61 11.52 34 10.03 26.55" fill="#5065ba"/>
              <polyline points="7.08 25.17 3.58 23.61 6.69 39.15 10.25 40.74 10.22 40.61 8.82 33.72 7.08 25.17" fill="#6a7adb"/>
              <polyline points="13.52 28.11 10.03 26.55 11.52 34 13.13 42.09 13.43 42.22 15.03 35.5 13.52 28.11" fill="#6a7adb"/>
              <path d="M15,35.42v.08l-1.6,6.72h0l4,1.82L15,35.42m2.52-10.49h0l-2,8.52L18,41.57l2.74-14-3.14-2.67" fill="#6a7adb"/>
              <polyline points="20.5 20.49 16.5 24.07 17.56 24.93 20.93 27.7 21.9 28.5 20.5 20.49" fill="#6a7adb"/>
              <polyline points="15.5 33.41 15.03 35.36 15.04 35.42 17.47 44.05 17.97 41.61 17.96 41.57 15.51 33.44 15.5 33.41" fill="#5065ba"/>
            </g>
          </g>
        </g>
      </g>
      <g>
        <polygon points="24.2 19.46 1.42 9.17 25.96 0.24 48.75 10.53 24.2 19.46" fill="#d3d2d1"/>
        <g style="isolation: isolate">
          <g clip-path="url(#clip-path-2)">
            <g>
              <polyline points="20.85 10.37 25.2 13.4 31.37 14.9 27.5 12.01 20.85 10.37" fill="#5065ba"/>
              <polyline points="17.56 11.54 13.71 12.94 27.57 16.36 31.49 14.93 31.37 14.9 25.2 13.4 17.56 11.54" fill="#6a7adb"/>
              <polyline points="24.7 8.97 20.85 10.37 27.5 12.01 34.71 13.79 35.03 13.67 31.3 10.58 24.7 8.97" fill="#6a7adb"/>
              <path d="M31.26,10.54l0,0L35,13.67h0l4.46-1.62-8.24-1.52M25.46,5.7h0l4.73,3.92L38,11,29.86,4.86l-4.4.84" fill="#6a7adb"/>
              <polyline points="24.46 2.62 24.02 6 25.46 5.7 30.1 4.76 31.44 4.5 24.46 2.62" fill="#6a7adb"/>
              <polyline points="30.13 9.63 31.2 10.53 31.26 10.54 39.5 12.06 38.08 10.98 38.04 10.97 30.17 9.63 30.13 9.63" fill="#5065ba"/>
            </g>
          </g>
        </g>
      </g>
      <g>
        <polygon points="48.75 10.53 48.59 40.82 24.04 49.75 24.2 19.46 48.75 10.53" fill="#d8d7d6"/>
        <g style="isolation: isolate">
          <g clip-path="url(#clip-path-3)">
            <g>
              <polyline points="33.42 29.52 32.08 37.7 33.62 43.37 35.05 35.69 33.42 29.52" fill="#5065ba"/>
              <polyline points="30.17 30.66 26.32 32.06 29.72 44.91 33.65 43.48 33.62 43.37 32.08 37.7 30.17 30.66" fill="#6a7adb"/>
              <polyline points="37.27 28.12 33.42 29.52 35.05 35.69 36.83 42.37 37.15 42.26 38.92 34.2 37.27 28.12" fill="#6a7adb"/>
              <path d="M38.94,34.12l0,.09-1.77,8h0l4.46-1.62-2.66-6.53m2.78-12.59h0L39.46,31.75l2.68,6,3-16.25H41.72" fill="#6a7adb"/>
              <polyline points="44.98 14.61 40.56 21.56 41.72 21.53 45.44 21.43 46.51 21.41 44.98 14.61" fill="#6a7adb"/>
              <polyline points="39.45 31.72 38.92 34.07 38.94 34.12 41.6 40.65 42.16 37.8 42.14 37.77 39.46 31.75 39.45 31.72" fill="#5065ba"/>
            </g>
          </g>
        </g>
      </g>
    </g>
  </g>
  <g>
    <rect x="46.2" y="41.66" width="1.51" height="1.52" fill="#fff"/>
    <rect x="46.2" y="40.15" width="1.51" height="1.51" fill="#fff"/>
    <rect x="46.2" y="8.34" width="1.51" height="1.52" fill="#fff"/>
    <rect x="46.2" y="6.82" width="1.51" height="1.51" fill="#fff"/>
    <rect x="44.69" y="43.18" width="1.52" height="1.51" fill="#fff"/>
    <rect x="44.69" y="41.66" width="1.52" height="1.52" fill="#ef5454"/>
    <rect x="44.69" y="40.15" width="1.52" height="1.51" fill="#ef5454"/>
    <rect x="44.69" y="38.63" width="1.52" height="1.52" fill="#fff"/>
    <rect x="44.69" y="9.85" width="1.52" height="1.51" fill="#fff"/>
    <rect x="44.69" y="8.34" width="1.52" height="1.52" fill="#aa0707"/>
    <rect x="44.69" y="6.82" width="1.52" height="1.51" fill="#ef5454"/>
    <rect x="44.69" y="5.31" width="1.52" height="1.52" fill="#fff"/>
    <rect x="43.18" y="44.69" width="1.51" height="1.52" fill="#fff"/>
    <rect x="43.18" y="43.18" width="1.51" height="1.51" fill="#aa0707"/>
    <rect x="43.18" y="41.66" width="1.51" height="1.52" fill="#cc1d1d"/>
    <rect x="43.18" y="40.15" width="1.51" height="1.51" fill="#cc1d1d"/>
    <rect x="43.18" y="38.63" width="1.51" height="1.52" fill="#ef5454"/>
    <rect x="43.18" y="37.12" width="1.51" height="1.51" fill="#fff"/>
    <rect x="43.18" y="11.37" width="1.51" height="1.51" fill="#fff"/>
    <rect x="43.18" y="9.85" width="1.51" height="1.51" fill="#aa0707"/>
    <rect x="43.18" y="8.34" width="1.51" height="1.52" fill="#cc1d1d"/>
    <rect x="43.18" y="6.82" width="1.51" height="1.51" fill="#cc1d1d"/>
    <rect x="43.18" y="5.31" width="1.51" height="1.52" fill="#ef5454"/>
    <rect x="43.18" y="3.8" width="1.51" height="1.51" fill="#fff"/>
    <rect x="41.66" y="46.21" width="1.51" height="1.51" fill="#fff"/>
    <rect x="41.66" y="44.69" width="1.51" height="1.52" fill="#aa0707"/>
    <rect x="41.66" y="43.18" width="1.51" height="1.51" fill="#cc1d1d"/>
    <rect x="41.66" y="41.66" width="1.51" height="1.52" fill="#cc1d1d"/>
    <rect x="41.66" y="40.15" width="1.51" height="1.51" fill="#cc1d1d"/>
    <rect x="41.66" y="38.63" width="1.51" height="1.52" fill="#cc1d1d"/>
    <rect x="41.66" y="37.12" width="1.51" height="1.51" fill="#ef5454"/>
    <rect x="41.66" y="35.6" width="1.51" height="1.52" fill="#fff"/>
    <rect x="41.66" y="12.88" width="1.51" height="1.52" fill="#fff"/>
    <rect x="41.66" y="11.37" width="1.51" height="1.51" fill="#aa0707"/>
    <rect x="41.66" y="9.85" width="1.51" height="1.51" fill="#cc1d1d"/>
    <rect x="41.66" y="8.34" width="1.51" height="1.52" fill="#cc1d1d"/>
    <rect x="41.66" y="6.82" width="1.51" height="1.51" fill="#cc1d1d"/>
    <rect x="41.66" y="5.31" width="1.51" height="1.52" fill="#cc1d1d"/>
    <rect x="41.66" y="3.8" width="1.51" height="1.51" fill="#ef5454"/>
    <rect x="41.66" y="2.28" width="1.51" height="1.52" fill="#fff"/>
    <rect x="40.15" y="46.21" width="1.52" height="1.51" fill="#fff"/>
    <rect x="40.15" y="44.69" width="1.52" height="1.52" fill="#aa0707"/>
    <rect x="40.15" y="43.18" width="1.52" height="1.51" fill="#cc1d1d"/>
    <rect x="40.15" y="41.66" width="1.52" height="1.52" fill="#cc1d1d"/>
    <rect x="40.15" y="40.15" width="1.52" height="1.51" fill="#cc1d1d"/>
    <rect x="40.15" y="38.63" width="1.52" height="1.52" fill="#cc1d1d"/>
    <rect x="40.15" y="37.12" width="1.52" height="1.51" fill="#cc1d1d"/>
    <rect x="40.15" y="35.6" width="1.52" height="1.52" fill="#ef5454"/>
    <rect x="40.15" y="34.09" width="1.52" height="1.51" fill="#fff"/>
    <rect x="40.15" y="14.4" width="1.52" height="1.51" fill="#fff"/>
    <rect x="40.15" y="12.88" width="1.52" height="1.52" fill="#aa0707"/>
    <rect x="40.15" y="11.37" width="1.52" height="1.51" fill="#cc1d1d"/>
    <rect x="40.15" y="9.85" width="1.52" height="1.51" fill="#cc1d1d"/>
    <rect x="40.15" y="8.34" width="1.52" height="1.52" fill="#cc1d1d"/>
    <rect x="40.15" y="6.82" width="1.52" height="1.51" fill="#cc1d1d"/>
    <rect x="40.15" y="5.31" width="1.52" height="1.52" fill="#cc1d1d"/>
    <rect x="40.15" y="3.8" width="1.52" height="1.51" fill="#ef5454"/>
    <rect x="40.15" y="2.28" width="1.52" height="1.52" fill="#fff"/>
    <rect x="38.63" y="44.69" width="1.51" height="1.52" fill="#fff"/>
    <rect x="38.63" y="43.18" width="1.51" height="1.51" fill="#aa0707"/>
    <rect x="38.63" y="41.66" width="1.51" height="1.52" fill="#cc1d1d"/>
    <rect x="38.63" y="40.15" width="1.51" height="1.51" fill="#cc1d1d"/>
    <rect x="38.63" y="38.63" width="1.51" height="1.52" fill="#cc1d1d"/>
    <rect x="38.63" y="37.12" width="1.51" height="1.51" fill="#cc1d1d"/>
    <rect x="38.63" y="35.6" width="1.51" height="1.52" fill="#cc1d1d"/>
    <rect x="38.63" y="34.09" width="1.51" height="1.51" fill="#ef5454"/>
    <rect x="38.63" y="32.57" width="1.51" height="1.52" fill="#fff"/>
    <rect x="38.63" y="15.91" width="1.51" height="1.52" fill="#fff"/>
    <rect x="38.63" y="14.4" width="1.51" height="1.51" fill="#aa0707"/>
    <rect x="38.63" y="12.88" width="1.51" height="1.52" fill="#cc1d1d"/>
    <rect x="38.63" y="11.37" width="1.51" height="1.51" fill="#cc1d1d"/>
    <rect x="38.63" y="9.85" width="1.51" height="1.51" fill="#cc1d1d"/>
    <rect x="38.63" y="8.34" width="1.51" height="1.52" fill="#cc1d1d"/>
    <rect x="38.63" y="6.82" width="1.51" height="1.51" fill="#cc1d1d"/>
    <rect x="38.63" y="5.31" width="1.51" height="1.52" fill="#ef5454"/>
    <rect x="38.63" y="3.8" width="1.51" height="1.51" fill="#fff"/>
    <rect x="37.12" y="43.18" width="1.52" height="1.51" fill="#fff"/>
    <rect x="37.12" y="41.66" width="1.52" height="1.52" fill="#aa0707"/>
    <rect x="37.12" y="40.15" width="1.52" height="1.51" fill="#cc1d1d"/>
    <rect x="37.12" y="38.63" width="1.52" height="1.52" fill="#cc1d1d"/>
    <rect x="37.12" y="37.12" width="1.52" height="1.51" fill="#cc1d1d"/>
    <rect x="37.12" y="35.6" width="1.52" height="1.52" fill="#cc1d1d"/>
    <rect x="37.12" y="34.09" width="1.52" height="1.51" fill="#cc1d1d"/>
    <rect x="37.12" y="32.57" width="1.52" height="1.52" fill="#ef5454"/>
    <rect x="37.12" y="31.06" width="1.52" height="1.51" fill="#fff"/>
    <rect x="37.12" y="17.43" width="1.52" height="1.51" fill="#fff"/>
    <rect x="37.12" y="15.91" width="1.52" height="1.52" fill="#aa0707"/>
    <rect x="37.12" y="14.4" width="1.52" height="1.51" fill="#cc1d1d"/>
    <rect x="37.12" y="12.88" width="1.52" height="1.52" fill="#cc1d1d"/>
    <rect x="37.12" y="11.37" width="1.52" height="1.51" fill="#cc1d1d"/>
    <rect x="37.12" y="9.85" width="1.52" height="1.51" fill="#cc1d1d"/>
    <rect x="37.12" y="8.34" width="1.52" height="1.52" fill="#cc1d1d"/>
    <rect x="37.12" y="6.82" width="1.52" height="1.51" fill="#ef5454"/>
    <rect x="37.12" y="5.31" width="1.52" height="1.52" fill="#fff"/>
    <rect x="35.6" y="41.66" width="1.51" height="1.52" fill="#fff"/>
    <rect x="35.6" y="40.15" width="1.51" height="1.51" fill="#aa0707"/>
    <rect x="35.6" y="38.63" width="1.51" height="1.52" fill="#cc1d1d"/>
    <rect x="35.6" y="37.12" width="1.51" height="1.51" fill="#cc1d1d"/>
    <rect x="35.6" y="35.6" width="1.51" height="1.52" fill="#cc1d1d"/>
    <rect x="35.6" y="34.09" width="1.51" height="1.51" fill="#cc1d1d"/>
    <rect x="35.6" y="32.57" width="1.51" height="1.52" fill="#cc1d1d"/>
    <rect x="35.6" y="31.06" width="1.51" height="1.51" fill="#ef5454"/>
    <rect x="35.6" y="29.54" width="1.51" height="1.51" fill="#fff"/>
    <rect x="35.6" y="18.94" width="1.51" height="1.52" fill="#fff"/>
    <rect x="35.6" y="17.43" width="1.51" height="1.51" fill="#aa0707"/>
    <rect x="35.6" y="15.91" width="1.51" height="1.52" fill="#cc1d1d"/>
    <rect x="35.6" y="14.4" width="1.51" height="1.51" fill="#cc1d1d"/>
    <rect x="35.6" y="12.88" width="1.51" height="1.52" fill="#cc1d1d"/>
    <rect x="35.6" y="11.37" width="1.51" height="1.51" fill="#cc1d1d"/>
    <rect x="35.6" y="9.85" width="1.51" height="1.51" fill="#cc1d1d"/>
    <rect x="35.6" y="8.34" width="1.51" height="1.52" fill="#ef5454"/>
    <rect x="35.6" y="6.82" width="1.51" height="1.51" fill="#fff"/>
    <rect x="34.09" y="40.15" width="1.52" height="1.51" fill="#fff"/>
    <rect x="34.09" y="38.63" width="1.52" height="1.52" fill="#aa0707"/>
    <rect x="34.09" y="37.12" width="1.52" height="1.51" fill="#cc1d1d"/>
    <rect x="34.09" y="35.6" width="1.52" height="1.52" fill="#cc1d1d"/>
    <rect x="34.09" y="34.09" width="1.52" height="1.51" fill="#cc1d1d"/>
    <rect x="34.09" y="32.57" width="1.52" height="1.52" fill="#cc1d1d"/>
    <rect x="34.09" y="31.06" width="1.52" height="1.51" fill="#cc1d1d"/>
    <rect x="34.09" y="29.54" width="1.52" height="1.51" fill="#ef5454"/>
    <rect x="34.09" y="28.03" width="1.52" height="1.52" fill="#fff"/>
    <rect x="34.09" y="20.46" width="1.52" height="1.51" fill="#fff"/>
    <rect x="34.09" y="18.94" width="1.52" height="1.52" fill="#aa0707"/>
    <rect x="34.09" y="17.43" width="1.52" height="1.51" fill="#cc1d1d"/>
    <rect x="34.09" y="15.91" width="1.52" height="1.52" fill="#cc1d1d"/>
    <rect x="34.09" y="14.4" width="1.52" height="1.51" fill="#cc1d1d"/>
    <rect x="34.09" y="12.88" width="1.52" height="1.52" fill="#cc1d1d"/>
    <rect x="34.09" y="11.37" width="1.52" height="1.51" fill="#cc1d1d"/>
    <rect x="34.09" y="9.85" width="1.52" height="1.51" fill="#ef5454"/>
    <rect x="34.09" y="8.34" width="1.52" height="1.52" fill="#fff"/>
    <rect x="32.57" y="38.63" width="1.51" height="1.52" fill="#fff"/>
    <rect x="32.57" y="37.12" width="1.51" height="1.51" fill="#aa0707"/>
    <rect x="32.57" y="35.6" width="1.51" height="1.52" fill="#cc1d1d"/>
    <rect x="32.57" y="34.09" width="1.51" height="1.51" fill="#cc1d1d"/>
    <rect x="32.57" y="32.57" width="1.51" height="1.52" fill="#cc1d1d"/>
    <rect x="32.57" y="31.06" width="1.51" height="1.51" fill="#cc1d1d"/>
    <rect x="32.57" y="29.54" width="1.51" height="1.51" fill="#cc1d1d"/>
    <rect x="32.57" y="28.03" width="1.51" height="1.52" fill="#ef5454"/>
    <rect x="32.57" y="26.52" width="1.51" height="1.51" fill="#fff"/>
    <rect x="32.57" y="21.97" width="1.51" height="1.52" fill="#fff"/>
    <rect x="32.57" y="20.46" width="1.51" height="1.51" fill="#aa0707"/>
    <rect x="32.57" y="18.94" width="1.51" height="1.52" fill="#cc1d1d"/>
    <rect x="32.57" y="17.43" width="1.51" height="1.51" fill="#cc1d1d"/>
    <rect x="32.57" y="15.91" width="1.51" height="1.52" fill="#cc1d1d"/>
    <rect x="32.57" y="14.4" width="1.51" height="1.51" fill="#cc1d1d"/>
    <rect x="32.57" y="12.88" width="1.51" height="1.52" fill="#cc1d1d"/>
    <rect x="32.57" y="11.37" width="1.51" height="1.51" fill="#ef5454"/>
    <rect x="32.57" y="9.85" width="1.51" height="1.51" fill="#fff"/>
    <rect x="31.06" y="37.12" width="1.52" height="1.51" fill="#fff"/>
    <rect x="31.06" y="35.6" width="1.52" height="1.52" fill="#aa0707"/>
    <rect x="31.06" y="34.09" width="1.52" height="1.51" fill="#cc1d1d"/>
    <rect x="31.06" y="32.57" width="1.52" height="1.52" fill="#cc1d1d"/>
    <rect x="31.06" y="31.06" width="1.52" height="1.51" fill="#cc1d1d"/>
    <rect x="31.06" y="29.54" width="1.52" height="1.51" fill="#cc1d1d"/>
    <rect x="31.06" y="28.03" width="1.52" height="1.52" fill="#cc1d1d"/>
    <rect x="31.06" y="26.52" width="1.52" height="1.51" fill="#ef5454"/>
    <rect x="31.06" y="25" width="1.52" height="1.52" fill="#fff"/>
    <rect x="31.06" y="23.49" width="1.52" height="1.51" fill="#fff"/>
    <rect x="31.06" y="21.97" width="1.52" height="1.52" fill="#aa0707"/>
    <rect x="31.06" y="20.46" width="1.52" height="1.51" fill="#cc1d1d"/>
    <rect x="31.06" y="18.94" width="1.52" height="1.52" fill="#cc1d1d"/>
    <rect x="31.06" y="17.43" width="1.52" height="1.51" fill="#cc1d1d"/>
    <rect x="31.06" y="15.91" width="1.52" height="1.52" fill="#cc1d1d"/>
    <rect x="31.06" y="14.4" width="1.52" height="1.51" fill="#cc1d1d"/>
    <rect x="31.06" y="12.88" width="1.52" height="1.52" fill="#ef5454"/>
    <rect x="31.06" y="11.37" width="1.52" height="1.51" fill="#fff"/>
    <rect x="29.54" y="35.6" width="1.51" height="1.52" fill="#fff"/>
    <rect x="29.54" y="34.09" width="1.51" height="1.51" fill="#aa0707"/>
    <rect x="29.54" y="32.57" width="1.51" height="1.52" fill="#cc1d1d"/>
    <rect x="29.54" y="31.06" width="1.51" height="1.51" fill="#cc1d1d"/>
    <rect x="29.54" y="29.54" width="1.51" height="1.51" fill="#cc1d1d"/>
    <rect x="29.54" y="28.03" width="1.51" height="1.52" fill="#cc1d1d"/>
    <rect x="29.54" y="26.52" width="1.51" height="1.51" fill="#cc1d1d"/>
    <rect x="29.54" y="25" width="1.51" height="1.52" fill="#aa0707"/>
    <rect x="29.54" y="23.49" width="1.51" height="1.51" fill="#aa0707"/>
    <rect x="29.54" y="21.97" width="1.51" height="1.52" fill="#cc1d1d"/>
    <rect x="29.54" y="20.46" width="1.51" height="1.51" fill="#cc1d1d"/>
    <rect x="29.54" y="18.94" width="1.51" height="1.52" fill="#cc1d1d"/>
    <rect x="29.54" y="17.43" width="1.51" height="1.51" fill="#cc1d1d"/>
    <rect x="29.54" y="15.91" width="1.51" height="1.52" fill="#cc1d1d"/>
    <rect x="29.54" y="14.4" width="1.51" height="1.51" fill="#ef5454"/>
    <rect x="29.54" y="12.88" width="1.51" height="1.52" fill="#fff"/>
    <rect x="28.03" y="34.09" width="1.52" height="1.51" fill="#fff"/>
    <rect x="28.03" y="32.57" width="1.52" height="1.52" fill="#aa0707"/>
    <rect x="28.03" y="31.06" width="1.52" height="1.51" fill="#cc1d1d"/>
    <rect x="28.03" y="29.54" width="1.52" height="1.51" fill="#cc1d1d"/>
    <rect x="28.03" y="28.03" width="1.52" height="1.52" fill="#cc1d1d"/>
    <rect x="28.03" y="26.52" width="1.52" height="1.51" fill="#cc1d1d"/>
    <rect x="28.03" y="25" width="1.52" height="1.52" fill="#cc1d1d"/>
    <rect x="28.03" y="23.49" width="1.52" height="1.51" fill="#cc1d1d"/>
    <rect x="28.03" y="21.97" width="1.52" height="1.52" fill="#cc1d1d"/>
    <rect x="28.03" y="20.46" width="1.52" height="1.51" fill="#cc1d1d"/>
    <rect x="28.03" y="18.94" width="1.52" height="1.52" fill="#cc1d1d"/>
    <rect x="28.03" y="17.43" width="1.52" height="1.51" fill="#cc1d1d"/>
    <rect x="28.03" y="15.91" width="1.52" height="1.52" fill="#ef5454"/>
    <rect x="28.03" y="14.4" width="1.52" height="1.51" fill="#fff"/>
    <rect x="26.51" y="32.57" width="1.51" height="1.52" fill="#fff"/>
    <rect x="26.51" y="31.06" width="1.51" height="1.51" fill="#aa0707"/>
    <rect x="26.51" y="29.54" width="1.51" height="1.51" fill="#cc1d1d"/>
    <rect x="26.51" y="28.03" width="1.51" height="1.52" fill="#cc1d1d"/>
    <rect x="26.51" y="26.52" width="1.51" height="1.51" fill="#cc1d1d"/>
    <rect x="26.51" y="25" width="1.51" height="1.52" fill="#cc1d1d"/>
    <rect x="26.51" y="23.49" width="1.51" height="1.51" fill="#cc1d1d"/>
    <rect x="26.51" y="21.97" width="1.51" height="1.52" fill="#cc1d1d"/>
    <rect x="26.51" y="20.46" width="1.51" height="1.51" fill="#cc1d1d"/>
    <rect x="26.51" y="18.94" width="1.51" height="1.52" fill="#cc1d1d"/>
    <rect x="26.51" y="17.43" width="1.51" height="1.51" fill="#ef5454"/>
    <rect x="26.51" y="15.91" width="1.51" height="1.52" fill="#fff"/>
    <rect x="25" y="31.06" width="1.51" height="1.51" fill="#fff"/>
    <rect x="25" y="29.54" width="1.51" height="1.51" fill="#aa0707"/>
    <rect x="25" y="28.03" width="1.51" height="1.52" fill="#cc1d1d"/>
    <rect x="25" y="26.52" width="1.51" height="1.51" fill="#cc1d1d"/>
    <rect x="25" y="25" width="1.51" height="1.52" fill="#cc1d1d"/>
    <rect x="25" y="23.49" width="1.51" height="1.51" fill="#cc1d1d"/>
    <rect x="25" y="21.97" width="1.51" height="1.52" fill="#cc1d1d"/>
    <rect x="25" y="20.46" width="1.51" height="1.51" fill="#cc1d1d"/>
    <rect x="25" y="18.94" width="1.51" height="1.52" fill="#ef5454"/>
    <rect x="25" y="17.43" width="1.51" height="1.51" fill="#fff"/>
    <rect x="23.49" y="31.06" width="1.52" height="1.51" fill="#fff"/>
    <rect x="23.49" y="29.54" width="1.52" height="1.51" fill="#aa0707"/>
    <rect x="23.49" y="28.03" width="1.52" height="1.52" fill="#cc1d1d"/>
    <rect x="23.49" y="26.52" width="1.52" height="1.51" fill="#cc1d1d"/>
    <rect x="23.49" y="25" width="1.52" height="1.52" fill="#cc1d1d"/>
    <rect x="23.49" y="23.49" width="1.52" height="1.51" fill="#cc1d1d"/>
    <rect x="23.49" y="21.97" width="1.52" height="1.52" fill="#cc1d1d"/>
    <rect x="23.49" y="20.46" width="1.52" height="1.51" fill="#cc1d1d"/>
    <rect x="23.49" y="18.94" width="1.52" height="1.52" fill="#ef5454"/>
    <rect x="23.49" y="17.43" width="1.52" height="1.51" fill="#fff"/>
    <rect x="21.97" y="32.57" width="1.51" height="1.52" fill="#fff"/>
    <rect x="21.97" y="31.06" width="1.51" height="1.51" fill="#aa0707"/>
    <rect x="21.97" y="29.54" width="1.51" height="1.51" fill="#cc1d1d"/>
    <rect x="21.97" y="28.03" width="1.51" height="1.52" fill="#cc1d1d"/>
    <rect x="21.97" y="26.52" width="1.51" height="1.51" fill="#cc1d1d"/>
    <rect x="21.97" y="25" width="1.51" height="1.52" fill="#cc1d1d"/>
    <rect x="21.97" y="23.49" width="1.51" height="1.51" fill="#cc1d1d"/>
    <rect x="21.97" y="21.97" width="1.51" height="1.52" fill="#cc1d1d"/>
    <rect x="21.97" y="20.46" width="1.51" height="1.51" fill="#cc1d1d"/>
    <rect x="21.97" y="18.94" width="1.51" height="1.52" fill="#cc1d1d"/>
    <rect x="21.97" y="17.43" width="1.51" height="1.51" fill="#ef5454"/>
    <rect x="21.97" y="15.91" width="1.51" height="1.52" fill="#fff"/>
    <rect x="20.46" y="34.09" width="1.52" height="1.51" fill="#fff"/>
    <rect x="20.46" y="32.57" width="1.52" height="1.52" fill="#aa0707"/>
    <rect x="20.46" y="31.06" width="1.52" height="1.51" fill="#cc1d1d"/>
    <rect x="20.46" y="29.54" width="1.52" height="1.51" fill="#cc1d1d"/>
    <rect x="20.46" y="28.03" width="1.52" height="1.52" fill="#cc1d1d"/>
    <rect x="20.46" y="26.52" width="1.52" height="1.51" fill="#cc1d1d"/>
    <rect x="20.46" y="25" width="1.52" height="1.52" fill="#cc1d1d"/>
    <rect x="20.46" y="23.49" width="1.52" height="1.51" fill="#cc1d1d"/>
    <rect x="20.46" y="21.97" width="1.52" height="1.52" fill="#cc1d1d"/>
    <rect x="20.46" y="20.46" width="1.52" height="1.51" fill="#cc1d1d"/>
    <rect x="20.46" y="18.94" width="1.52" height="1.52" fill="#cc1d1d"/>
    <rect x="20.46" y="17.43" width="1.52" height="1.51" fill="#cc1d1d"/>
    <rect x="20.46" y="15.91" width="1.52" height="1.52" fill="#ef5454"/>
    <rect x="20.46" y="14.4" width="1.52" height="1.51" fill="#fff"/>
    <rect x="18.94" y="35.6" width="1.51" height="1.52" fill="#fff"/>
    <rect x="18.94" y="34.09" width="1.51" height="1.51" fill="#aa0707"/>
    <rect x="18.94" y="32.57" width="1.51" height="1.52" fill="#cc1d1d"/>
    <rect x="18.94" y="31.06" width="1.51" height="1.51" fill="#cc1d1d"/>
    <rect x="18.94" y="29.54" width="1.51" height="1.51" fill="#cc1d1d"/>
    <rect x="18.94" y="28.03" width="1.51" height="1.52" fill="#cc1d1d"/>
    <rect x="18.94" y="26.52" width="1.51" height="1.51" fill="#cc1d1d"/>
    <rect x="18.94" y="25" width="1.51" height="1.52" fill="#aa0707"/>
    <rect x="18.94" y="23.49" width="1.51" height="1.51" fill="#aa0707"/>
    <rect x="18.94" y="21.97" width="1.51" height="1.52" fill="#cc1d1d"/>
    <rect x="18.94" y="20.46" width="1.51" height="1.51" fill="#cc1d1d"/>
    <rect x="18.94" y="18.94" width="1.51" height="1.52" fill="#cc1d1d"/>
    <rect x="18.94" y="17.43" width="1.51" height="1.51" fill="#cc1d1d"/>
    <rect x="18.94" y="15.91" width="1.51" height="1.52" fill="#cc1d1d"/>
    <rect x="18.94" y="14.4" width="1.51" height="1.51" fill="#ef5454"/>
    <rect x="18.94" y="12.88" width="1.51" height="1.52" fill="#fff"/>
    <rect x="17.43" y="37.12" width="1.52" height="1.51" fill="#fff"/>
    <rect x="17.43" y="35.6" width="1.52" height="1.52" fill="#aa0707"/>
    <rect x="17.43" y="34.09" width="1.52" height="1.51" fill="#cc1d1d"/>
    <rect x="17.43" y="32.57" width="1.52" height="1.52" fill="#cc1d1d"/>
    <rect x="17.43" y="31.06" width="1.52" height="1.51" fill="#cc1d1d"/>
    <rect x="17.43" y="29.54" width="1.52" height="1.51" fill="#cc1d1d"/>
    <rect x="17.43" y="28.03" width="1.52" height="1.52" fill="#cc1d1d"/>
    <rect x="17.43" y="26.52" width="1.52" height="1.51" fill="#ef5454"/>
    <rect x="17.43" y="25" width="1.52" height="1.52" fill="#fff"/>
    <rect x="17.43" y="23.49" width="1.52" height="1.51" fill="#fff"/>
    <rect x="17.43" y="21.97" width="1.52" height="1.52" fill="#aa0707"/>
    <rect x="17.43" y="20.46" width="1.52" height="1.51" fill="#cc1d1d"/>
    <rect x="17.43" y="18.94" width="1.52" height="1.52" fill="#cc1d1d"/>
    <rect x="17.43" y="17.43" width="1.52" height="1.51" fill="#cc1d1d"/>
    <rect x="17.43" y="15.91" width="1.52" height="1.52" fill="#cc1d1d"/>
    <rect x="17.43" y="14.4" width="1.52" height="1.51" fill="#cc1d1d"/>
    <rect x="17.43" y="12.88" width="1.52" height="1.52" fill="#ef5454"/>
    <rect x="17.43" y="11.37" width="1.52" height="1.51" fill="#fff"/>
    <rect x="15.91" y="38.63" width="1.51" height="1.52" fill="#fff"/>
    <rect x="15.91" y="37.12" width="1.51" height="1.51" fill="#aa0707"/>
    <rect x="15.91" y="35.6" width="1.51" height="1.52" fill="#cc1d1d"/>
    <rect x="15.91" y="34.09" width="1.51" height="1.51" fill="#cc1d1d"/>
    <rect x="15.91" y="32.57" width="1.51" height="1.52" fill="#cc1d1d"/>
    <rect x="15.91" y="31.06" width="1.51" height="1.51" fill="#cc1d1d"/>
    <rect x="15.91" y="29.54" width="1.51" height="1.51" fill="#cc1d1d"/>
    <rect x="15.91" y="28.03" width="1.51" height="1.52" fill="#ef5454"/>
    <rect x="15.91" y="26.52" width="1.51" height="1.51" fill="#fff"/>
    <rect x="15.91" y="21.97" width="1.51" height="1.52" fill="#fff"/>
    <rect x="15.91" y="20.46" width="1.51" height="1.51" fill="#aa0707"/>
    <rect x="15.91" y="18.94" width="1.51" height="1.52" fill="#cc1d1d"/>
    <rect x="15.91" y="17.43" width="1.51" height="1.51" fill="#cc1d1d"/>
    <rect x="15.91" y="15.91" width="1.51" height="1.52" fill="#cc1d1d"/>
    <rect x="15.91" y="14.4" width="1.51" height="1.51" fill="#cc1d1d"/>
    <rect x="15.91" y="12.88" width="1.51" height="1.52" fill="#cc1d1d"/>
    <rect x="15.91" y="11.37" width="1.51" height="1.51" fill="#ef5454"/>
    <rect x="15.91" y="9.85" width="1.51" height="1.51" fill="#fff"/>
    <rect x="14.4" y="40.15" width="1.52" height="1.51" fill="#fff"/>
    <rect x="14.4" y="38.63" width="1.52" height="1.52" fill="#aa0707"/>
    <rect x="14.4" y="37.12" width="1.52" height="1.51" fill="#cc1d1d"/>
    <rect x="14.4" y="35.6" width="1.52" height="1.52" fill="#cc1d1d"/>
    <rect x="14.4" y="34.09" width="1.52" height="1.51" fill="#cc1d1d"/>
    <rect x="14.4" y="32.57" width="1.52" height="1.52" fill="#cc1d1d"/>
    <rect x="14.4" y="31.06" width="1.52" height="1.51" fill="#cc1d1d"/>
    <rect x="14.4" y="29.54" width="1.52" height="1.51" fill="#ef5454"/>
    <rect x="14.4" y="28.03" width="1.52" height="1.52" fill="#fff"/>
    <rect x="14.4" y="20.46" width="1.52" height="1.51" fill="#fff"/>
    <rect x="14.4" y="18.94" width="1.52" height="1.52" fill="#aa0707"/>
    <rect x="14.4" y="17.43" width="1.52" height="1.51" fill="#cc1d1d"/>
    <rect x="14.4" y="15.91" width="1.52" height="1.52" fill="#cc1d1d"/>
    <rect x="14.4" y="14.4" width="1.52" height="1.51" fill="#cc1d1d"/>
    <rect x="14.4" y="12.88" width="1.52" height="1.52" fill="#cc1d1d"/>
    <rect x="14.4" y="11.37" width="1.52" height="1.51" fill="#cc1d1d"/>
    <rect x="14.4" y="9.85" width="1.52" height="1.51" fill="#ef5454"/>
    <rect x="14.4" y="8.34" width="1.52" height="1.52" fill="#fff"/>
    <rect x="12.88" y="41.66" width="1.51" height="1.52" fill="#fff"/>
    <rect x="12.88" y="40.15" width="1.51" height="1.51" fill="#aa0707"/>
    <rect x="12.88" y="38.63" width="1.51" height="1.52" fill="#cc1d1d"/>
    <rect x="12.88" y="37.12" width="1.51" height="1.51" fill="#cc1d1d"/>
    <rect x="12.88" y="35.6" width="1.51" height="1.52" fill="#cc1d1d"/>
    <rect x="12.88" y="34.09" width="1.51" height="1.51" fill="#cc1d1d"/>
    <rect x="12.88" y="32.57" width="1.51" height="1.52" fill="#cc1d1d"/>
    <rect x="12.88" y="31.06" width="1.51" height="1.51" fill="#ef5454"/>
    <rect x="12.88" y="29.54" width="1.51" height="1.51" fill="#fff"/>
    <rect x="12.88" y="18.94" width="1.51" height="1.52" fill="#fff"/>
    <rect x="12.88" y="17.43" width="1.51" height="1.51" fill="#aa0707"/>
    <rect x="12.88" y="15.91" width="1.51" height="1.52" fill="#cc1d1d"/>
    <rect x="12.88" y="14.4" width="1.51" height="1.51" fill="#cc1d1d"/>
    <rect x="12.88" y="12.88" width="1.51" height="1.52" fill="#cc1d1d"/>
    <rect x="12.88" y="11.37" width="1.51" height="1.51" fill="#cc1d1d"/>
    <rect x="12.88" y="9.85" width="1.51" height="1.51" fill="#cc1d1d"/>
    <rect x="12.88" y="8.34" width="1.51" height="1.52" fill="#ef5454"/>
    <rect x="12.88" y="6.82" width="1.51" height="1.51" fill="#fff"/>
    <rect x="11.37" y="43.18" width="1.52" height="1.51" fill="#fff"/>
    <rect x="11.37" y="41.66" width="1.52" height="1.52" fill="#aa0707"/>
    <rect x="11.37" y="40.15" width="1.52" height="1.51" fill="#cc1d1d"/>
    <rect x="11.37" y="38.63" width="1.52" height="1.52" fill="#cc1d1d"/>
    <rect x="11.37" y="37.12" width="1.52" height="1.51" fill="#cc1d1d"/>
    <rect x="11.37" y="35.6" width="1.52" height="1.52" fill="#cc1d1d"/>
    <rect x="11.37" y="34.09" width="1.52" height="1.51" fill="#cc1d1d"/>
    <rect x="11.37" y="32.57" width="1.52" height="1.52" fill="#ef5454"/>
    <rect x="11.37" y="31.06" width="1.52" height="1.51" fill="#fff"/>
    <rect x="11.37" y="17.43" width="1.52" height="1.51" fill="#fff"/>
    <rect x="11.37" y="15.91" width="1.52" height="1.52" fill="#aa0707"/>
    <rect x="11.37" y="14.4" width="1.52" height="1.51" fill="#cc1d1d"/>
    <rect x="11.37" y="12.88" width="1.52" height="1.52" fill="#cc1d1d"/>
    <rect x="11.37" y="11.37" width="1.52" height="1.51" fill="#cc1d1d"/>
    <rect x="11.37" y="9.85" width="1.52" height="1.51" fill="#cc1d1d"/>
    <rect x="11.37" y="8.34" width="1.52" height="1.52" fill="#cc1d1d"/>
    <rect x="11.37" y="6.82" width="1.52" height="1.51" fill="#ef5454"/>
    <rect x="11.37" y="5.31" width="1.52" height="1.52" fill="#fff"/>
    <rect x="9.85" y="44.69" width="1.51" height="1.52" fill="#fff"/>
    <rect x="9.85" y="43.18" width="1.51" height="1.51" fill="#aa0707"/>
    <rect x="9.85" y="41.66" width="1.51" height="1.52" fill="#cc1d1d"/>
    <rect x="9.85" y="40.15" width="1.51" height="1.51" fill="#cc1d1d"/>
    <rect x="9.85" y="38.63" width="1.51" height="1.52" fill="#cc1d1d"/>
    <rect x="9.85" y="37.12" width="1.51" height="1.51" fill="#cc1d1d"/>
    <rect x="9.85" y="35.6" width="1.51" height="1.52" fill="#cc1d1d"/>
    <rect x="9.85" y="34.09" width="1.51" height="1.51" fill="#ef5454"/>
    <rect x="9.85" y="32.57" width="1.51" height="1.52" fill="#fff"/>
    <rect x="9.85" y="15.91" width="1.51" height="1.52" fill="#fff"/>
    <rect x="9.85" y="14.4" width="1.51" height="1.51" fill="#aa0707"/>
    <rect x="9.85" y="12.88" width="1.51" height="1.52" fill="#cc1d1d"/>
    <rect x="9.85" y="11.37" width="1.51" height="1.51" fill="#cc1d1d"/>
    <rect x="9.85" y="9.85" width="1.51" height="1.51" fill="#cc1d1d"/>
    <rect x="9.85" y="8.34" width="1.51" height="1.52" fill="#cc1d1d"/>
    <rect x="9.85" y="6.82" width="1.51" height="1.51" fill="#cc1d1d"/>
    <rect x="9.85" y="5.31" width="1.51" height="1.52" fill="#ef5454"/>
    <rect x="9.85" y="3.8" width="1.51" height="1.51" fill="#fff"/>
    <rect x="8.34" y="46.21" width="1.52" height="1.51" fill="#fff"/>
    <rect x="8.34" y="44.69" width="1.52" height="1.52" fill="#aa0707"/>
    <rect x="8.34" y="43.18" width="1.52" height="1.51" fill="#cc1d1d"/>
    <rect x="8.34" y="41.66" width="1.52" height="1.52" fill="#cc1d1d"/>
    <rect x="8.34" y="40.15" width="1.52" height="1.51" fill="#cc1d1d"/>
    <rect x="8.34" y="38.63" width="1.52" height="1.52" fill="#cc1d1d"/>
    <rect x="8.34" y="37.12" width="1.52" height="1.51" fill="#cc1d1d"/>
    <rect x="8.34" y="35.6" width="1.52" height="1.52" fill="#ef5454"/>
    <rect x="8.34" y="34.09" width="1.52" height="1.51" fill="#fff"/>
    <rect x="8.34" y="14.4" width="1.52" height="1.51" fill="#fff"/>
    <rect x="8.34" y="12.88" width="1.52" height="1.52" fill="#aa0707"/>
    <rect x="8.34" y="11.37" width="1.52" height="1.51" fill="#cc1d1d"/>
    <rect x="8.34" y="9.85" width="1.52" height="1.51" fill="#cc1d1d"/>
    <rect x="8.34" y="8.34" width="1.52" height="1.52" fill="#cc1d1d"/>
    <rect x="8.34" y="6.82" width="1.52" height="1.51" fill="#cc1d1d"/>
    <rect x="8.34" y="5.31" width="1.52" height="1.52" fill="#cc1d1d"/>
    <rect x="8.34" y="3.8" width="1.52" height="1.51" fill="#ef5454"/>
    <rect x="8.34" y="2.28" width="1.52" height="1.52" fill="#fff"/>
    <rect x="6.82" y="46.21" width="1.51" height="1.51" fill="#fff"/>
    <rect x="6.82" y="44.69" width="1.51" height="1.52" fill="#aa0707"/>
    <rect x="6.82" y="43.18" width="1.51" height="1.51" fill="#cc1d1d"/>
    <rect x="6.82" y="41.66" width="1.51" height="1.52" fill="#cc1d1d"/>
    <rect x="6.82" y="40.15" width="1.51" height="1.51" fill="#cc1d1d"/>
    <rect x="6.82" y="38.63" width="1.51" height="1.52" fill="#cc1d1d"/>
    <rect x="6.82" y="37.12" width="1.51" height="1.51" fill="#ef5454"/>
    <rect x="6.82" y="35.6" width="1.51" height="1.52" fill="#fff"/>
    <rect x="6.82" y="12.88" width="1.51" height="1.52" fill="#fff"/>
    <rect x="6.82" y="11.37" width="1.51" height="1.51" fill="#aa0707"/>
    <rect x="6.82" y="9.85" width="1.51" height="1.51" fill="#cc1d1d"/>
    <rect x="6.82" y="8.34" width="1.51" height="1.52" fill="#cc1d1d"/>
    <rect x="6.82" y="6.82" width="1.51" height="1.51" fill="#cc1d1d"/>
    <rect x="6.82" y="5.31" width="1.51" height="1.52" fill="#cc1d1d"/>
    <rect x="6.82" y="3.8" width="1.51" height="1.51" fill="#ef5454"/>
    <rect x="6.82" y="2.28" width="1.51" height="1.52" fill="#fff"/>
    <rect x="5.31" y="44.69" width="1.51" height="1.52" fill="#fff"/>
    <rect x="5.31" y="43.18" width="1.51" height="1.51" fill="#aa0707"/>
    <rect x="5.31" y="41.66" width="1.51" height="1.52" fill="#cc1d1d"/>
    <rect x="5.31" y="40.15" width="1.51" height="1.51" fill="#cc1d1d"/>
    <rect x="5.31" y="38.63" width="1.51" height="1.52" fill="#ef5454"/>
    <rect x="5.31" y="37.12" width="1.51" height="1.51" fill="#fff"/>
    <rect x="5.31" y="11.37" width="1.51" height="1.51" fill="#fff"/>
    <rect x="5.31" y="9.85" width="1.51" height="1.51" fill="#aa0707"/>
    <rect x="5.31" y="8.34" width="1.51" height="1.52" fill="#cc1d1d"/>
    <rect x="5.31" y="6.82" width="1.51" height="1.51" fill="#cc1d1d"/>
    <rect x="5.31" y="5.31" width="1.51" height="1.52" fill="#ef5454"/>
    <rect x="5.31" y="3.8" width="1.51" height="1.51" fill="#fff"/>
    <rect x="3.8" y="43.18" width="1.52" height="1.51" fill="#fff"/>
    <rect x="3.8" y="41.66" width="1.52" height="1.52" fill="#aa0707"/>
    <rect x="3.8" y="40.15" width="1.52" height="1.51" fill="#ef5454"/>
    <rect x="3.8" y="38.63" width="1.52" height="1.52" fill="#fff"/>
    <rect x="3.8" y="9.85" width="1.52" height="1.51" fill="#fff"/>
    <rect x="3.8" y="8.34" width="1.52" height="1.52" fill="#aa0707"/>
    <rect x="3.8" y="6.82" width="1.52" height="1.51" fill="#ef5454"/>
    <rect x="3.8" y="5.31" width="1.52" height="1.52" fill="#fff"/>
    <rect x="2.28" y="41.66" width="1.51" height="1.52" fill="#fff"/>
    <rect x="2.28" y="40.15" width="1.51" height="1.51" fill="#fff"/>
    <rect x="2.28" y="8.34" width="1.51" height="1.52" fill="#fff"/>
    <rect x="2.28" y="6.82" width="1.51" height="1.51" fill="#fff"/>
  </g>
</svg>
