<svg id="Capa_1" data-name="Capa 1" xmlns="http://www.w3.org/2000/svg" xmlns:xlink="http://www.w3.org/1999/xlink" width="50" height="50" viewBox="0 0 50 50">
  <defs>
    <clipPath id="clip-path">
      <polygon points="24.04 49.76 1.25 39.47 1.41 9.17 24.2 19.46 24.04 49.76" fill="none"/>
    </clipPath>
    <clipPath id="clip-path-2">
      <polygon points="24.2 19.46 1.41 9.17 25.96 0.24 48.74 10.53 24.2 19.46" fill="none"/>
    </clipPath>
    <clipPath id="clip-path-3">
      <polygon points="48.74 10.53 48.58 40.83 24.04 49.76 24.2 19.46 48.74 10.53" fill="none"/>
    </clipPath>
  </defs>
  <g id="Figment_lido">
    <g style="isolation: isolate">
      <g>
        <polygon points="24.04 49.76 1.25 39.47 1.41 9.17 24.2 19.46 24.04 49.76" fill="silver"/>
        <g style="isolation: isolate">
          <g clip-path="url(#clip-path)">
            <g>
              <path d="M7,29.48C7,28.64,7,27.8,7,27l1.85.82v2.55L7,29.48m7.67-4.25c0-.84,0-1.69,0-2.53l1.85.82c0,.85,0,1.7,0,2.55l-1.9-.84m5.68-2.63h0l-.06,10.31-1.87-.84,0-5.11h0c0,.84,0,1.68,0,2.51l-1.89-.83c0-.84,0-1.69,0-2.54h0V23.52l-1.88-.87V20L7.07,16.57v0l3.79,1.72,0,2.59-1.87-.83,0,2.57h0c0-.84,0-1.68,0-2.52l1.84.81c0,.85,0,1.7,0,2.55l-1.88-.83c0,.85,0,1.7,0,2.55l-1.89-.84c0-.84,0-1.68,0-2.53l.11.05L7,21.82v-.53l0,5.63-1.86-.84v2.61L7,29.52c0,.85,0,1.7,0,2.54l1.85.84,0,2.57L7,34.61V32.06l-1.88-.83,0,5.1L8.81,38l0-2.54,1.85.84,0-2.63,3.92,1.77,0,2.59,1.79.81,0-2.57,1.88.86v2.57l-1.83-.83,0,2.56-1.85-.84v0L10.7,38.86v0l9.51,4.32,0-5.18-2-.88c0-.84,0-1.68,0-2.52l-1.89-.88v0l-1.77-.8v2.52l-4-1.79,0-2.47-1.82-.83,0-5.09,1.85.84,0,5,3.9,1.77V30.37L10.8,28.62V26.05l3.87,1.76h0l1.86.85v2.59l1.78.83c0,.85,0,1.7,0,2.54l1.94.86.09-12.87" fill="#3654e5" opacity="0.75"/>
              <path d="M8.89,27.77,7,27c0,.85,0,1.69,0,2.53l1.89.84V27.77" fill="#2b27d4" opacity="0.94"/>
              <path d="M16.53,31.24l0,2.5-.09,0v0l1.89.88h0c0-.84,0-1.69,0-2.54l-1.78-.83" fill="#2b27d4" opacity="0.94"/>
              <polyline points="18.29 37.15 16.41 36.29 16.39 38.86 16.45 38.89 18.28 39.72 18.29 37.15" fill="#14ae89" opacity="0.94"/>
              <path d="M8.89,32.9,7,32.06v0l0,0v2.55l1.88.86,0-2.57" fill="#14ae89" opacity="0.94"/>
              <path d="M8.93,22.65h0l-1.69-.75-.11-.05c0,.85,0,1.69,0,2.53L9,25.21c0-.85,0-1.7,0-2.55h0" fill="#2b27d4" opacity="0.94"/>
              <path d="M10.81,20.94,9,20.13c0,.84,0,1.68,0,2.52h0l1.88.83c0-.85,0-1.7,0-2.55" fill="#2b27d4" opacity="0.94"/>
              <path d="M8.94,22.66h0" fill="#291fd1" opacity="0.98"/>
              <path d="M16.56,23.52l-1.85-.82c0,.84,0,1.69,0,2.53l1.9.84c0-.85,0-1.7,0-2.55" fill="#2b27d4" opacity="0.94"/>
              <path d="M16.59,26.1h0c0,.85,0,1.7,0,2.54l1.89.83c0-.83,0-1.67,0-2.51l-1.82-.85" fill="#2b27d4" opacity="0.94"/>
              <path d="M16.54,28.65l-1.86-.85h0l0,2.56v2.49h0v0l1.77.8c0-.83,0-1.66,0-2.49l.07,0V28.65" fill="#14ae89" opacity="0.94"/>
              <path d="M16.46,31.21c0,.83,0,1.66,0,2.49l.09,0,0-2.5-.07,0" fill="#139f89" opacity="0.98"/>
              <polyline points="14.65 32.86 10.75 31.09 10.75 31.18 10.71 31.16 10.69 33.63 14.64 35.42 14.65 32.9 14.65 32.9 14.65 32.86" fill="#14ae89" opacity="0.94"/>
              <polyline points="14.65 32.86 14.65 32.86 14.65 32.9 14.65 32.9 14.65 32.86" fill="#0ebf78" opacity="0.98"/>
              <polyline points="14.68 27.81 10.81 26.05 10.8 28.62 14.66 30.37 14.68 27.81" fill="#2b27d4" opacity="0.94"/>
              <polyline points="14.62 35.47 10.7 33.69 10.68 36.32 10.72 36.34 10.7 38.86 14.58 40.63 14.58 40.61 14.55 40.59 14.56 38.03 14.6 38.05 14.62 35.47" fill="#2b27d4" opacity="0.94"/>
              <polyline points="10.78 26.08 8.93 25.24 8.89 30.34 10.71 31.16 10.71 31.07 10.75 31.09 10.78 26.08" fill="#14ae89" opacity="0.94"/>
              <polyline points="10.75 31.09 10.71 31.07 10.71 31.16 10.75 31.18 10.75 31.09" fill="#0ebf78" opacity="0.98"/>
              <path d="M20.28,35.48h0V38l0,0c0-.86,0-1.71,0-2.56" fill="#281cd0" opacity="0.75"/>
              <path d="M20.26,35.47l-1.94-.86h0c0,.84,0,1.68,0,2.52l2,.88V35.47" fill="#2b27d4" opacity="0.94"/>
              <path d="M18.32,34.61h0" fill="#291fd1" opacity="0.98"/>
              <path d="M5.14,28.69h0c0,.85,0,1.69,0,2.53l0,0,0-2.54" fill="#281cd0" opacity="0.75"/>
              <path d="M7,29.52l-1.89-.83,0,2.54L7,32.06H7c0-.84,0-1.69,0-2.54" fill="#2b27d4" opacity="0.94"/>
              <path d="M7,32.06H7l0,0v0" fill="#233fbf" opacity="0.98"/>
              <polyline points="10.7 38.88 8.81 38.02 8.81 38.05 10.7 38.91 10.7 38.88" fill="#0cc572" opacity="0.75"/>
              <polyline points="10.68 36.32 8.83 35.48 8.81 38.02 10.7 38.88 10.7 38.86 10.66 38.85 10.68 36.32" fill="#14ae89" opacity="0.94"/>
              <polyline points="10.72 36.34 10.68 36.32 10.66 38.85 10.7 38.86 10.72 36.34" fill="#139f89" opacity="0.98"/>
              <polyline points="16.45 38.89 16.39 38.86 14.6 38.05 14.58 40.61 16.43 41.45 16.45 38.89" fill="#14ae89" opacity="0.94"/>
              <polyline points="14.6 38.05 14.56 38.03 14.55 40.59 14.58 40.61 14.6 38.05" fill="#139f89" opacity="0.98"/>
              <polyline points="7.07 16.57 5.22 15.73 5.15 26.08 5.15 26.08 5.22 15.73 7.07 16.57" fill="#0cc572" opacity="0.75"/>
              <polyline points="7.07 16.57 5.22 15.73 5.15 26.08 7 26.92 7.04 21.29 7.02 16.56 7.07 16.59 7.07 16.57" fill="#14ae89" opacity="0.94"/>
              <path d="M10.86,18.31,7.07,16.59l-.05,0,0,4.73v.53l.17.07,1.69.75,0-2.57,1.87.83,0-2.59" fill="#14ae89" opacity="0.94"/>
              <path d="M8.9,22.64l-1.69-.75,1.69.75h0" fill="#139f89" opacity="0.98"/>
              <polyline points="20.34 22.56 18.48 21.72 18.48 21.74 18.54 21.77 18.54 21.78 20.34 22.6 20.34 22.56" fill="#0cc572" opacity="0.75"/>
              <polyline points="20.34 22.6 18.54 21.78 18.45 26.96 18.41 32.07 20.28 32.91 20.34 22.6" fill="#14ae89" opacity="0.94"/>
              <polyline points="18.54 21.77 18.48 21.74 14.7 20.03 14.7 20.04 18.54 21.78 18.54 21.77" fill="#0cc572" opacity="0.75"/>
              <path d="M18.54,21.78,14.7,20v2.62l1.88.87V26.1l1.82.81v0h0l.09-5.18" fill="#14ae89" opacity="0.94"/>
              <path d="M18.41,26.91l-1.82-.81,1.82.85v0" fill="#139f89" opacity="0.98"/>
            </g>
          </g>
        </g>
      </g>
      <g>
        <polygon points="24.2 19.46 1.41 9.17 25.96 0.24 48.74 10.53 24.2 19.46" fill="#d3d3d3"/>
        <g style="isolation: isolate">
          <g clip-path="url(#clip-path-2)">
            <g>
              <path d="M20.71,13l-1.85-.85,2-.75,1.89.84L20.71,13m2.72-5.61-1.84-.86,2-.75,1.9.84-2.07.77m2.4-4h0l7.59,3.43-2,.74L27.6,5.88h0l1.87.83-2.06.76-1.85-.85h0l-1.91-.85-2.08.74L19.6,5.66,11.2,8.72h0l4.17-1.52,1.89.88-2,.76,1.86.86h0l-1.84-.85,2-.75,1.89.83-2.05.76,1.89.84L17,11.29l-1.84-.85.12,0-.18.06-.39-.17,4.14,1.87-2,.74,1.92.87L20.76,13l1.89.83,2-.74,1.88.85-2.07.76-1.88-.85-2.06.76,3.76,1.7,4.1-1.5L26.55,14l2-.74-1.94-.88L31,10.78l1.9.86,2-.72L33,10.07,35,9.31l1.89.85-2,.73,1.88.86-2,.74h0l-4.28,1.56h0L41,10.24,37.17,8.52,35,9.32l-1.85-.85-2.09.75h0l-2,.71,1.86.84-4.34,1.58-1.82-.83-2,.73L19,10.55l2-.75,3.69,1.67,4.29-1.56-1.83-.83L23,10.63l-1.88-.85,4.25-1.55h0l2.05-.75,1.91.86,2-.71,1.89.83,2.13-.79L25.83,3.4" fill="#3654e5" opacity="0.75"/>
              <path d="M20.88,11.4l-2,.75,1.85.85,2.06-.76-1.89-.84" fill="#2b27d4" opacity="0.94"/>
              <path d="M29.3,8.34l1.84.83-.09,0h0l2.09-.75h0l-1.89-.83-2,.71" fill="#2b27d4" opacity="0.94"/>
              <polyline points="35.03 9.31 32.95 10.07 34.84 10.92 34.91 10.89 36.92 10.16 35.03 9.31" fill="#14ae89" opacity="0.94"/>
              <path d="M24.69,13.09l-2,.74h0l1.88.85,2.07-.76-1.88-.85" fill="#14ae89" opacity="0.94"/>
              <path d="M17.12,9.7h0l-1.85.69-.12,0,1.84.85L19,10.53l-1.89-.84h0" fill="#2b27d4" opacity="0.94"/>
              <path d="M17.3,8.1l-2,.75,1.84.85h0l2.05-.76L17.3,8.1" fill="#2b27d4" opacity="0.94"/>
              <path d="M17.14,9.69h0" fill="#291fd1" opacity="0.98"/>
              <path d="M23.6,5.78l-2,.75,1.84.86,2.07-.77-1.9-.84" fill="#2b27d4" opacity="0.94"/>
              <path d="M25.54,6.62h0l1.85.85,2.06-.76-1.87-.83-2,.73" fill="#2b27d4" opacity="0.94"/>
              <path d="M27.39,7.48l-2.05.75h0l1.89.85,1.83.83h0l0,0,2-.71-1.82-.85.07,0-1.91-.86" fill="#14ae89" opacity="0.94"/>
              <path d="M29.23,8.36l1.82.85.09,0L29.3,8.34l-.07,0" fill="#139f89" opacity="0.98"/>
              <polyline points="29.06 9.91 24.77 11.47 24.83 11.5 24.79 11.52 26.61 12.34 30.95 10.76 29.09 9.92 29.09 9.92 29.06 9.91" fill="#14ae89" opacity="0.94"/>
              <polyline points="29.07 9.9 29.06 9.91 29.09 9.92 29.09 9.92 29.07 9.9" fill="#0ebf78" opacity="0.98"/>
              <polyline points="25.34 8.23 21.09 9.78 22.97 10.63 27.23 9.08 25.34 8.23" fill="#2b27d4" opacity="0.94"/>
              <polyline points="30.97 10.78 26.65 12.35 28.59 13.23 28.63 13.21 30.49 14.05 34.77 12.49 34.75 12.49 34.71 12.5 32.83 11.65 32.87 11.64 30.97 10.78" fill="#2b27d4" opacity="0.94"/>
              <polyline points="21.08 9.8 19.04 10.55 22.79 12.24 24.79 11.52 24.72 11.48 24.77 11.47 21.08 9.8" fill="#14ae89" opacity="0.94"/>
              <polyline points="24.77 11.47 24.72 11.48 24.79 11.52 24.83 11.5 24.77 11.47" fill="#0ebf78" opacity="0.98"/>
              <path d="M35.32,7.67h0l1.87.85,0,0-1.9-.83" fill="#281cd0" opacity="0.75"/>
              <path d="M35.3,7.67l-2.13.79h0L35,9.32l2.16-.8L35.3,7.67" fill="#2b27d4" opacity="0.94"/>
              <path d="M33.17,8.46h0" fill="#291fd1" opacity="0.98"/>
              <path d="M18.69,13.77h0l1.85.85h0l-1.87-.84" fill="#281cd0" opacity="0.75"/>
              <path d="M20.76,13l-2.07.77,1.87.84,2.06-.76h0l0,0L20.76,13" fill="#2b27d4" opacity="0.94"/>
              <path d="M22.65,13.83l0,0h0" fill="#233fbf" opacity="0.98"/>
              <polyline points="30.5 14.06 28.42 14.81 28.44 14.82 30.52 14.06 30.5 14.06" fill="#0cc572" opacity="0.75"/>
              <polyline points="28.59 13.23 26.55 13.97 28.42 14.81 30.5 14.06 30.49 14.05 30.45 14.07 28.59 13.23" fill="#14ae89" opacity="0.94"/>
              <polyline points="28.63 13.21 28.59 13.23 30.45 14.07 30.49 14.05 28.63 13.21" fill="#139f89" opacity="0.98"/>
              <polyline points="34.91 10.89 34.84 10.92 32.87 11.64 34.75 12.49 36.79 11.75 34.91 10.89" fill="#14ae89" opacity="0.94"/>
              <polyline points="32.87 11.64 32.83 11.65 34.71 12.5 34.75 12.49 32.87 11.64" fill="#139f89" opacity="0.98"/>
              <polyline points="11.2 8.72 9.15 9.47 16.77 12.9 16.77 12.9 9.16 9.46 11.2 8.72" fill="#0cc572" opacity="0.75"/>
              <polyline points="11.2 8.72 9.16 9.46 16.77 12.9 18.81 12.16 14.67 10.29 11.15 8.75 11.21 8.73 11.2 8.72" fill="#14ae89" opacity="0.94"/>
              <path d="M15.38,7.21,11.21,8.73l-.06,0,3.52,1.54.39.17.18-.06,1.84-.69-1.86-.86,2-.76-1.89-.88" fill="#14ae89" opacity="0.94"/>
              <path d="M17.08,9.71l-1.84.69,1.85-.69h0" fill="#139f89" opacity="0.98"/>
              <polyline points="25.79 3.39 23.74 4.13 23.76 4.14 23.83 4.12 23.83 4.12 25.82 3.4 25.79 3.39" fill="#0cc572" opacity="0.75"/>
              <polyline points="25.82 3.4 23.83 4.12 27.6 5.88 31.36 7.57 33.41 6.83 25.82 3.4" fill="#14ae89" opacity="0.94"/>
              <polyline points="23.83 4.12 23.76 4.14 19.59 5.66 19.6 5.66 23.83 4.12 23.83 4.12" fill="#0cc572" opacity="0.75"/>
              <path d="M23.83,4.12,19.6,5.66l1.95.85,2.08-.74,1.91.85,2-.74h.06L23.83,4.12" fill="#14ae89" opacity="0.94"/>
              <path d="M27.54,5.88l-2,.74,2-.73h0" fill="#139f89" opacity="0.98"/>
            </g>
          </g>
        </g>
      </g>
      <g>
        <polygon points="48.74 10.53 48.58 40.83 24.04 49.76 24.2 19.46 48.74 10.53" fill="#d8d8d8"/>
        <g style="isolation: isolate">
          <g clip-path="url(#clip-path-3)">
            <g>
              <path d="M30.09,35c0-.85,0-1.7,0-2.55l2-.76c0,.84,0,1.68,0,2.53L30.09,35m8.44-10.77c0-.85,0-1.71,0-2.55l2-.76c0,.84,0,1.68,0,2.53l-2.08.78m6.24-7.46h0l0,10.32-2.05.75,0-5.11,0,0c0,.83,0,1.66,0,2.5l-2.08.78,0-2.56h0V20.93l-2.06.73,0-2.58-8.41,3.05v0l4.17-1.52,0,2.62L32.2,24l0,2.58h0c0-.85,0-1.7,0-2.54l2-.77c0,.85,0,1.69,0,2.53l-2.07.78c0,.84,0,1.68,0,2.52l-2.09.79c0-.85,0-1.7,0-2.55l.12-.05-.18.07v-.52l0,5.63-2,.74v2.61l2.08-.78c0,.83,0,1.68,0,2.52l2-.74V39.4l-2.08.76,0-2.55L28,38.38l0,5.11L32.1,42V39.45l2-.74,0-2.64,4.32-1.57,0,2.58,2-.72,0-2.56L42.54,33l0,2.57-2,.73v2.57l-2,.74h0l-4.28,1.56v0l10.48-3.82,0-5.18-2.18.81,0-2.54-2.07.73v0l-1.95.71v2.52L34.16,36V33.55l-2,.73,0-5.1,2-.75,0,5,4.29-1.56,0-2.49-4.26,1.55V28.38l4.26-1.55h0l2.05-.75v2.59l2-.69c0,.84,0,1.68,0,2.53l2.14-.81.07-12.88" fill="#3654e5" opacity="0.75"/>
              <path d="M32.16,31.73l-2,.76c0,.85,0,1.7,0,2.55l2.08-.78c0-.85,0-1.69,0-2.53" fill="#2b27d4" opacity="0.94"/>
              <path d="M40.58,28.66l0,2.51-.09,0v0l2.07-.73h0c0-.85,0-1.69,0-2.53l-2,.69" fill="#2b27d4" opacity="0.94"/>
              <polyline points="42.54 33.04 40.46 33.8 40.45 36.36 40.51 36.34 42.52 35.61 42.54 33.04" fill="#14ae89" opacity="0.94"/>
              <path d="M32.17,36.84l-2,.74v0h0l0,2.55,2.08-.76V36.84" fill="#14ae89" opacity="0.94"/>
              <path d="M32.19,26.6h0l-1.86.69-.12.05c0,.85,0,1.7,0,2.55l2.09-.79c0-.84,0-1.68,0-2.52h0" fill="#2b27d4" opacity="0.94"/>
              <path d="M34.27,23.29l-2,.77c0,.84,0,1.69,0,2.54h0l2.07-.78c0-.84,0-1.68,0-2.53" fill="#2b27d4" opacity="0.94"/>
              <path d="M32.21,26.59h0" fill="#291fd1" opacity="0.98"/>
              <path d="M40.6,21l-2,.76c0,.84,0,1.7,0,2.55l2.08-.78c0-.85,0-1.69,0-2.53" fill="#2b27d4" opacity="0.94"/>
              <path d="M40.64,23.5h0l0,2.56,2.08-.78c0-.84,0-1.67,0-2.5l-2,.71" fill="#2b27d4" opacity="0.94"/>
              <path d="M40.59,26.07l-2.05.75h0v2.56l0,2.49h0v0l1.95-.71c0-.84,0-1.68,0-2.52l.07,0V26.07" fill="#14ae89" opacity="0.94"/>
              <path d="M40.51,28.69c0,.84,0,1.68,0,2.52l.09,0,0-2.51-.07,0" fill="#139f89" opacity="0.98"/>
              <polyline points="38.51 31.88 34.22 33.44 34.22 33.53 34.17 33.55 34.16 36.02 38.51 34.44 38.52 31.92 38.51 31.92 38.51 31.88" fill="#14ae89" opacity="0.94"/>
              <polyline points="38.52 31.88 38.51 31.88 38.51 31.92 38.52 31.92 38.52 31.88" fill="#0ebf78" opacity="0.98"/>
              <polyline points="38.54 26.83 34.28 28.38 34.27 30.94 38.53 29.39 38.54 26.83" fill="#2b27d4" opacity="0.94"/>
              <polyline points="38.48 34.5 34.17 36.07 34.15 38.71 34.19 38.7 34.18 41.22 38.46 39.66 38.46 39.65 38.42 39.66 38.43 37.1 38.47 37.08 38.48 34.5" fill="#2b27d4" opacity="0.94"/>
              <polyline points="34.25 28.43 32.2 29.18 32.17 34.27 34.17 33.55 34.17 33.46 34.22 33.44 34.25 28.43" fill="#14ae89" opacity="0.94"/>
              <polyline points="34.22 33.44 34.17 33.46 34.17 33.55 34.22 33.53 34.22 33.44" fill="#0ebf78" opacity="0.98"/>
              <path d="M44.72,29.68h0v2.55l.05,0c0-.85,0-1.69,0-2.54" fill="#281cd0" opacity="0.75"/>
              <path d="M44.7,29.69l-2.14.81h0l0,2.54,2.18-.81V29.69" fill="#2b27d4" opacity="0.94"/>
              <path d="M42.56,30.5h0" fill="#291fd1" opacity="0.98"/>
              <path d="M28,35.84h0l0,2.55h0l0-2.54" fill="#281cd0" opacity="0.75"/>
              <path d="M30.12,35.06,28,35.84l0,2.54,2.08-.77v0h0c0-.84,0-1.69,0-2.52" fill="#2b27d4" opacity="0.94"/>
              <path d="M30.13,37.58h0v0h0v0" fill="#233fbf" opacity="0.98"/>
              <polyline points="34.18 41.24 32.1 41.99 32.1 42.02 34.18 41.26 34.18 41.24" fill="#0cc572" opacity="0.75"/>
              <polyline points="34.15 38.71 32.11 39.45 32.1 41.99 34.18 41.24 34.18 41.22 34.14 41.24 34.15 38.71" fill="#14ae89" opacity="0.94"/>
              <polyline points="34.19 38.7 34.15 38.71 34.14 41.24 34.18 41.22 34.19 38.7" fill="#139f89" opacity="0.98"/>
              <polyline points="40.51 36.34 40.45 36.36 38.47 37.08 38.46 39.65 40.5 38.91 40.51 36.34" fill="#14ae89" opacity="0.94"/>
              <polyline points="38.47 37.08 38.43 37.1 38.42 39.66 38.46 39.65 38.47 37.08" fill="#139f89" opacity="0.98"/>
              <polyline points="30.14 22.13 28.1 22.88 28.04 33.23 28.05 33.23 28.1 22.88 30.14 22.13" fill="#0cc572" opacity="0.75"/>
              <polyline points="30.14 22.13 28.1 22.88 28.05 33.23 30.09 32.49 30.12 26.86 30.08 22.17 30.14 22.15 30.14 22.13" fill="#14ae89" opacity="0.94"/>
              <path d="M34.31,20.63l-4.17,1.52-.06,0,0,4.69v.52l.18-.07,1.86-.7,0-2.58,2.07-.78,0-2.62" fill="#14ae89" opacity="0.94"/>
              <path d="M32.16,26.61l-1.86.7,1.86-.69h0" fill="#139f89" opacity="0.98"/>
              <polyline points="44.77 16.78 42.71 17.53 42.71 17.55 42.78 17.53 42.78 17.54 44.76 16.81 44.77 16.78" fill="#0cc572" opacity="0.75"/>
              <polyline points="44.76 16.81 42.78 17.54 42.68 22.77 42.66 27.88 44.71 27.14 44.76 16.81" fill="#14ae89" opacity="0.94"/>
              <polyline points="42.78 17.53 42.71 17.55 38.55 19.07 38.55 19.07 42.78 17.54 42.78 17.53" fill="#0cc572" opacity="0.75"/>
              <path d="M42.78,17.53l-4.23,1.55,0,2.58,2.06-.73V23.5l2-.74a0,0,0,0,0,0,0l0,0,.1-5.24" fill="#14ae89" opacity="0.94"/>
              <path d="M42.64,22.76l-2,.74,2-.71a0,0,0,0,1,0,0" fill="#139f89" opacity="0.98"/>
            </g>
          </g>
        </g>
      </g>
    </g>
  </g>
  <g>
    <rect x="40.92" y="37.51" width="1.14" height="1.14" fill="#fff"/>
    <rect x="40.92" y="36.37" width="1.14" height="1.14" fill="#fff"/>
    <rect x="40.92" y="12.49" width="1.14" height="1.14" fill="#fff"/>
    <rect x="40.92" y="11.36" width="1.14" height="1.14" fill="#fff"/>
    <rect x="39.78" y="38.64" width="1.14" height="1.14" fill="#fff"/>
    <rect x="39.78" y="37.51" width="1.14" height="1.14" fill="#ef5454"/>
    <rect x="39.78" y="36.37" width="1.14" height="1.14" fill="#ef5454"/>
    <rect x="39.78" y="35.23" width="1.14" height="1.14" fill="#fff"/>
    <rect x="39.78" y="13.63" width="1.14" height="1.14" fill="#fff"/>
    <rect x="39.78" y="12.49" width="1.14" height="1.14" fill="#aa0707"/>
    <rect x="39.78" y="11.36" width="1.14" height="1.14" fill="#ef5454"/>
    <rect x="39.78" y="10.22" width="1.14" height="1.14" fill="#fff"/>
    <rect x="38.64" y="39.78" width="1.14" height="1.14" fill="#fff"/>
    <rect x="38.64" y="38.64" width="1.14" height="1.14" fill="#aa0707"/>
    <rect x="38.64" y="37.51" width="1.14" height="1.14" fill="#cc1d1d"/>
    <rect x="38.64" y="36.37" width="1.14" height="1.14" fill="#cc1d1d"/>
    <rect x="38.64" y="35.23" width="1.14" height="1.14" fill="#ef5454"/>
    <rect x="38.64" y="34.1" width="1.14" height="1.14" fill="#fff"/>
    <rect x="38.64" y="14.77" width="1.14" height="1.14" fill="#fff"/>
    <rect x="38.64" y="13.63" width="1.14" height="1.14" fill="#aa0707"/>
    <rect x="38.64" y="12.49" width="1.14" height="1.14" fill="#cc1d1d"/>
    <rect x="38.64" y="11.36" width="1.14" height="1.14" fill="#cc1d1d"/>
    <rect x="38.64" y="10.22" width="1.14" height="1.14" fill="#ef5454"/>
    <rect x="38.64" y="9.08" width="1.14" height="1.14" fill="#fff"/>
    <rect x="37.51" y="40.92" width="1.14" height="1.14" fill="#fff"/>
    <rect x="37.51" y="39.78" width="1.14" height="1.14" fill="#aa0707"/>
    <rect x="37.51" y="38.64" width="1.14" height="1.14" fill="#cc1d1d"/>
    <rect x="37.51" y="37.51" width="1.14" height="1.14" fill="#cc1d1d"/>
    <rect x="37.51" y="36.37" width="1.14" height="1.14" fill="#cc1d1d"/>
    <rect x="37.51" y="35.23" width="1.14" height="1.14" fill="#cc1d1d"/>
    <rect x="37.51" y="34.1" width="1.14" height="1.14" fill="#ef5454"/>
    <rect x="37.51" y="32.96" width="1.14" height="1.14" fill="#fff"/>
    <rect x="37.51" y="15.9" width="1.14" height="1.14" fill="#fff"/>
    <rect x="37.51" y="14.77" width="1.14" height="1.14" fill="#aa0707"/>
    <rect x="37.51" y="13.63" width="1.14" height="1.14" fill="#cc1d1d"/>
    <rect x="37.51" y="12.49" width="1.14" height="1.14" fill="#cc1d1d"/>
    <rect x="37.51" y="11.36" width="1.14" height="1.14" fill="#cc1d1d"/>
    <rect x="37.51" y="10.22" width="1.14" height="1.14" fill="#cc1d1d"/>
    <rect x="37.51" y="9.08" width="1.14" height="1.14" fill="#ef5454"/>
    <rect x="37.51" y="7.95" width="1.14" height="1.14" fill="#fff"/>
    <rect x="36.37" y="40.92" width="1.14" height="1.14" fill="#fff"/>
    <rect x="36.37" y="39.78" width="1.14" height="1.14" fill="#aa0707"/>
    <rect x="36.37" y="38.64" width="1.14" height="1.14" fill="#cc1d1d"/>
    <rect x="36.37" y="37.51" width="1.14" height="1.14" fill="#cc1d1d"/>
    <rect x="36.37" y="36.37" width="1.14" height="1.14" fill="#cc1d1d"/>
    <rect x="36.37" y="35.23" width="1.14" height="1.14" fill="#cc1d1d"/>
    <rect x="36.37" y="34.1" width="1.14" height="1.14" fill="#cc1d1d"/>
    <rect x="36.37" y="32.96" width="1.14" height="1.14" fill="#ef5454"/>
    <rect x="36.37" y="31.82" width="1.14" height="1.14" fill="#fff"/>
    <rect x="36.37" y="17.04" width="1.14" height="1.14" fill="#fff"/>
    <rect x="36.37" y="15.9" width="1.14" height="1.14" fill="#aa0707"/>
    <rect x="36.37" y="14.77" width="1.14" height="1.14" fill="#cc1d1d"/>
    <rect x="36.37" y="13.63" width="1.14" height="1.14" fill="#cc1d1d"/>
    <rect x="36.37" y="12.49" width="1.14" height="1.14" fill="#cc1d1d"/>
    <rect x="36.37" y="11.36" width="1.14" height="1.14" fill="#cc1d1d"/>
    <rect x="36.37" y="10.22" width="1.14" height="1.14" fill="#cc1d1d"/>
    <rect x="36.37" y="9.08" width="1.14" height="1.14" fill="#ef5454"/>
    <rect x="36.37" y="7.95" width="1.14" height="1.14" fill="#fff"/>
    <rect x="35.23" y="39.78" width="1.14" height="1.14" fill="#fff"/>
    <rect x="35.23" y="38.64" width="1.14" height="1.14" fill="#aa0707"/>
    <rect x="35.23" y="37.51" width="1.14" height="1.14" fill="#cc1d1d"/>
    <rect x="35.23" y="36.37" width="1.14" height="1.14" fill="#cc1d1d"/>
    <rect x="35.23" y="35.23" width="1.14" height="1.14" fill="#cc1d1d"/>
    <rect x="35.23" y="34.1" width="1.14" height="1.14" fill="#cc1d1d"/>
    <rect x="35.23" y="32.96" width="1.14" height="1.14" fill="#cc1d1d"/>
    <rect x="35.23" y="31.82" width="1.14" height="1.14" fill="#ef5454"/>
    <rect x="35.23" y="30.69" width="1.14" height="1.14" fill="#fff"/>
    <rect x="35.23" y="18.18" width="1.14" height="1.14" fill="#fff"/>
    <rect x="35.23" y="17.04" width="1.14" height="1.14" fill="#aa0707"/>
    <rect x="35.23" y="15.9" width="1.14" height="1.14" fill="#cc1d1d"/>
    <rect x="35.23" y="14.77" width="1.14" height="1.14" fill="#cc1d1d"/>
    <rect x="35.23" y="13.63" width="1.14" height="1.14" fill="#cc1d1d"/>
    <rect x="35.23" y="12.49" width="1.14" height="1.14" fill="#cc1d1d"/>
    <rect x="35.23" y="11.36" width="1.14" height="1.14" fill="#cc1d1d"/>
    <rect x="35.23" y="10.22" width="1.14" height="1.14" fill="#ef5454"/>
    <rect x="35.23" y="9.08" width="1.14" height="1.14" fill="#fff"/>
    <rect x="34.1" y="38.64" width="1.14" height="1.14" fill="#fff"/>
    <rect x="34.1" y="37.51" width="1.14" height="1.14" fill="#aa0707"/>
    <rect x="34.1" y="36.37" width="1.14" height="1.14" fill="#cc1d1d"/>
    <rect x="34.1" y="35.23" width="1.14" height="1.14" fill="#cc1d1d"/>
    <rect x="34.1" y="34.1" width="1.14" height="1.14" fill="#cc1d1d"/>
    <rect x="34.1" y="32.96" width="1.14" height="1.14" fill="#cc1d1d"/>
    <rect x="34.1" y="31.82" width="1.14" height="1.14" fill="#cc1d1d"/>
    <rect x="34.1" y="30.69" width="1.14" height="1.14" fill="#ef5454"/>
    <rect x="34.1" y="29.55" width="1.14" height="1.14" fill="#fff"/>
    <rect x="34.1" y="19.32" width="1.14" height="1.14" fill="#fff"/>
    <rect x="34.1" y="18.18" width="1.14" height="1.14" fill="#aa0707"/>
    <rect x="34.1" y="17.04" width="1.14" height="1.14" fill="#cc1d1d"/>
    <rect x="34.1" y="15.9" width="1.14" height="1.14" fill="#cc1d1d"/>
    <rect x="34.1" y="14.77" width="1.14" height="1.14" fill="#cc1d1d"/>
    <rect x="34.1" y="13.63" width="1.14" height="1.14" fill="#cc1d1d"/>
    <rect x="34.1" y="12.49" width="1.14" height="1.14" fill="#cc1d1d"/>
    <rect x="34.1" y="11.36" width="1.14" height="1.14" fill="#ef5454"/>
    <rect x="34.1" y="10.22" width="1.14" height="1.14" fill="#fff"/>
    <rect x="32.96" y="37.51" width="1.14" height="1.14" fill="#fff"/>
    <rect x="32.96" y="36.37" width="1.14" height="1.14" fill="#aa0707"/>
    <rect x="32.96" y="35.23" width="1.14" height="1.14" fill="#cc1d1d"/>
    <rect x="32.96" y="34.1" width="1.14" height="1.14" fill="#cc1d1d"/>
    <rect x="32.96" y="32.96" width="1.14" height="1.14" fill="#cc1d1d"/>
    <rect x="32.96" y="31.82" width="1.14" height="1.14" fill="#cc1d1d"/>
    <rect x="32.96" y="30.69" width="1.14" height="1.14" fill="#cc1d1d"/>
    <rect x="32.96" y="29.55" width="1.14" height="1.14" fill="#ef5454"/>
    <rect x="32.96" y="28.41" width="1.14" height="1.14" fill="#fff"/>
    <rect x="32.96" y="20.45" width="1.14" height="1.14" fill="#fff"/>
    <rect x="32.96" y="19.32" width="1.14" height="1.14" fill="#aa0707"/>
    <rect x="32.96" y="18.18" width="1.14" height="1.14" fill="#cc1d1d"/>
    <rect x="32.96" y="17.04" width="1.14" height="1.14" fill="#cc1d1d"/>
    <rect x="32.96" y="15.9" width="1.14" height="1.14" fill="#cc1d1d"/>
    <rect x="32.96" y="14.77" width="1.14" height="1.14" fill="#cc1d1d"/>
    <rect x="32.96" y="13.63" width="1.14" height="1.14" fill="#cc1d1d"/>
    <rect x="32.96" y="12.49" width="1.14" height="1.14" fill="#ef5454"/>
    <rect x="32.96" y="11.36" width="1.14" height="1.14" fill="#fff"/>
    <rect x="31.82" y="36.37" width="1.14" height="1.14" fill="#fff"/>
    <rect x="31.82" y="35.23" width="1.14" height="1.14" fill="#aa0707"/>
    <rect x="31.82" y="34.1" width="1.14" height="1.14" fill="#cc1d1d"/>
    <rect x="31.82" y="32.96" width="1.14" height="1.14" fill="#cc1d1d"/>
    <rect x="31.82" y="31.82" width="1.14" height="1.14" fill="#cc1d1d"/>
    <rect x="31.82" y="30.69" width="1.14" height="1.14" fill="#cc1d1d"/>
    <rect x="31.82" y="29.55" width="1.14" height="1.14" fill="#cc1d1d"/>
    <rect x="31.82" y="28.41" width="1.14" height="1.14" fill="#ef5454"/>
    <rect x="31.82" y="27.27" width="1.14" height="1.14" fill="#fff"/>
    <rect x="31.82" y="21.59" width="1.14" height="1.14" fill="#fff"/>
    <rect x="31.82" y="20.45" width="1.14" height="1.14" fill="#aa0707"/>
    <rect x="31.82" y="19.32" width="1.14" height="1.14" fill="#cc1d1d"/>
    <rect x="31.82" y="18.18" width="1.14" height="1.14" fill="#cc1d1d"/>
    <rect x="31.82" y="17.04" width="1.14" height="1.14" fill="#cc1d1d"/>
    <rect x="31.82" y="15.9" width="1.14" height="1.14" fill="#cc1d1d"/>
    <rect x="31.82" y="14.77" width="1.14" height="1.14" fill="#cc1d1d"/>
    <rect x="31.82" y="13.63" width="1.14" height="1.14" fill="#ef5454"/>
    <rect x="31.82" y="12.49" width="1.14" height="1.14" fill="#fff"/>
    <rect x="30.68" y="35.23" width="1.14" height="1.14" fill="#fff"/>
    <rect x="30.68" y="34.1" width="1.14" height="1.14" fill="#aa0707"/>
    <rect x="30.68" y="32.96" width="1.14" height="1.14" fill="#cc1d1d"/>
    <rect x="30.68" y="31.82" width="1.14" height="1.14" fill="#cc1d1d"/>
    <rect x="30.68" y="30.69" width="1.14" height="1.14" fill="#cc1d1d"/>
    <rect x="30.68" y="29.55" width="1.14" height="1.14" fill="#cc1d1d"/>
    <rect x="30.68" y="28.41" width="1.14" height="1.14" fill="#cc1d1d"/>
    <rect x="30.68" y="27.27" width="1.14" height="1.14" fill="#ef5454"/>
    <rect x="30.68" y="26.14" width="1.14" height="1.14" fill="#fff"/>
    <rect x="30.68" y="22.73" width="1.14" height="1.14" fill="#fff"/>
    <rect x="30.68" y="21.59" width="1.14" height="1.14" fill="#aa0707"/>
    <rect x="30.68" y="20.45" width="1.14" height="1.14" fill="#cc1d1d"/>
    <rect x="30.68" y="19.32" width="1.14" height="1.14" fill="#cc1d1d"/>
    <rect x="30.68" y="18.18" width="1.14" height="1.14" fill="#cc1d1d"/>
    <rect x="30.68" y="17.04" width="1.14" height="1.14" fill="#cc1d1d"/>
    <rect x="30.68" y="15.9" width="1.14" height="1.14" fill="#cc1d1d"/>
    <rect x="30.68" y="14.77" width="1.14" height="1.14" fill="#ef5454"/>
    <rect x="30.68" y="13.63" width="1.14" height="1.14" fill="#fff"/>
    <rect x="29.55" y="34.1" width="1.14" height="1.14" fill="#fff"/>
    <rect x="29.55" y="32.96" width="1.14" height="1.14" fill="#aa0707"/>
    <rect x="29.55" y="31.82" width="1.14" height="1.14" fill="#cc1d1d"/>
    <rect x="29.55" y="30.69" width="1.14" height="1.14" fill="#cc1d1d"/>
    <rect x="29.55" y="29.55" width="1.14" height="1.14" fill="#cc1d1d"/>
    <rect x="29.55" y="28.41" width="1.14" height="1.14" fill="#cc1d1d"/>
    <rect x="29.55" y="27.27" width="1.14" height="1.14" fill="#cc1d1d"/>
    <rect x="29.55" y="26.14" width="1.14" height="1.14" fill="#ef5454"/>
    <rect x="29.55" y="25" width="1.14" height="1.14" fill="#fff"/>
    <rect x="29.55" y="23.86" width="1.14" height="1.14" fill="#fff"/>
    <rect x="29.55" y="22.73" width="1.14" height="1.14" fill="#aa0707"/>
    <rect x="29.55" y="21.59" width="1.14" height="1.14" fill="#cc1d1d"/>
    <rect x="29.55" y="20.45" width="1.14" height="1.14" fill="#cc1d1d"/>
    <rect x="29.55" y="19.32" width="1.14" height="1.14" fill="#cc1d1d"/>
    <rect x="29.55" y="18.18" width="1.14" height="1.14" fill="#cc1d1d"/>
    <rect x="29.55" y="17.04" width="1.14" height="1.14" fill="#cc1d1d"/>
    <rect x="29.55" y="15.9" width="1.14" height="1.14" fill="#ef5454"/>
    <rect x="29.55" y="14.77" width="1.14" height="1.14" fill="#fff"/>
    <rect x="28.41" y="32.96" width="1.14" height="1.14" fill="#fff"/>
    <rect x="28.41" y="31.82" width="1.14" height="1.14" fill="#aa0707"/>
    <rect x="28.41" y="30.69" width="1.14" height="1.14" fill="#cc1d1d"/>
    <rect x="28.41" y="29.55" width="1.14" height="1.14" fill="#cc1d1d"/>
    <rect x="28.41" y="28.41" width="1.14" height="1.14" fill="#cc1d1d"/>
    <rect x="28.41" y="27.27" width="1.14" height="1.14" fill="#cc1d1d"/>
    <rect x="28.41" y="26.14" width="1.14" height="1.14" fill="#cc1d1d"/>
    <rect x="28.41" y="25" width="1.14" height="1.14" fill="#aa0707"/>
    <rect x="28.41" y="23.86" width="1.14" height="1.14" fill="#aa0707"/>
    <rect x="28.41" y="22.73" width="1.14" height="1.14" fill="#cc1d1d"/>
    <rect x="28.41" y="21.59" width="1.14" height="1.14" fill="#cc1d1d"/>
    <rect x="28.41" y="20.45" width="1.14" height="1.14" fill="#cc1d1d"/>
    <rect x="28.41" y="19.32" width="1.14" height="1.14" fill="#cc1d1d"/>
    <rect x="28.41" y="18.18" width="1.14" height="1.14" fill="#cc1d1d"/>
    <rect x="28.41" y="17.04" width="1.14" height="1.14" fill="#ef5454"/>
    <rect x="28.41" y="15.9" width="1.14" height="1.14" fill="#fff"/>
    <rect x="27.27" y="31.82" width="1.14" height="1.14" fill="#fff"/>
    <rect x="27.27" y="30.69" width="1.14" height="1.14" fill="#aa0707"/>
    <rect x="27.27" y="29.55" width="1.14" height="1.14" fill="#cc1d1d"/>
    <rect x="27.27" y="28.41" width="1.14" height="1.14" fill="#cc1d1d"/>
    <rect x="27.27" y="27.27" width="1.14" height="1.14" fill="#cc1d1d"/>
    <rect x="27.27" y="26.14" width="1.14" height="1.14" fill="#cc1d1d"/>
    <rect x="27.27" y="25" width="1.14" height="1.14" fill="#cc1d1d"/>
    <rect x="27.27" y="23.86" width="1.14" height="1.14" fill="#cc1d1d"/>
    <rect x="27.27" y="22.73" width="1.14" height="1.14" fill="#cc1d1d"/>
    <rect x="27.27" y="21.59" width="1.14" height="1.14" fill="#cc1d1d"/>
    <rect x="27.27" y="20.45" width="1.14" height="1.14" fill="#cc1d1d"/>
    <rect x="27.27" y="19.32" width="1.14" height="1.14" fill="#cc1d1d"/>
    <rect x="27.27" y="18.18" width="1.14" height="1.14" fill="#ef5454"/>
    <rect x="27.27" y="17.04" width="1.14" height="1.14" fill="#fff"/>
    <rect x="26.14" y="30.69" width="1.14" height="1.14" fill="#fff"/>
    <rect x="26.14" y="29.55" width="1.14" height="1.14" fill="#aa0707"/>
    <rect x="26.14" y="28.41" width="1.14" height="1.14" fill="#cc1d1d"/>
    <rect x="26.14" y="27.27" width="1.14" height="1.14" fill="#cc1d1d"/>
    <rect x="26.14" y="26.14" width="1.14" height="1.14" fill="#cc1d1d"/>
    <rect x="26.14" y="25" width="1.14" height="1.14" fill="#cc1d1d"/>
    <rect x="26.14" y="23.86" width="1.14" height="1.14" fill="#cc1d1d"/>
    <rect x="26.14" y="22.73" width="1.14" height="1.14" fill="#cc1d1d"/>
    <rect x="26.14" y="21.59" width="1.14" height="1.14" fill="#cc1d1d"/>
    <rect x="26.14" y="20.45" width="1.14" height="1.14" fill="#cc1d1d"/>
    <rect x="26.14" y="19.32" width="1.14" height="1.14" fill="#ef5454"/>
    <rect x="26.14" y="18.18" width="1.14" height="1.14" fill="#fff"/>
    <rect x="25" y="29.55" width="1.14" height="1.14" fill="#fff"/>
    <rect x="25" y="28.41" width="1.14" height="1.14" fill="#aa0707"/>
    <rect x="25" y="27.27" width="1.14" height="1.14" fill="#cc1d1d"/>
    <rect x="25" y="26.14" width="1.14" height="1.14" fill="#cc1d1d"/>
    <rect x="25" y="25" width="1.14" height="1.14" fill="#cc1d1d"/>
    <rect x="25" y="23.86" width="1.14" height="1.14" fill="#cc1d1d"/>
    <rect x="25" y="22.73" width="1.14" height="1.14" fill="#cc1d1d"/>
    <rect x="25" y="21.59" width="1.14" height="1.14" fill="#cc1d1d"/>
    <rect x="25" y="20.45" width="1.14" height="1.14" fill="#ef5454"/>
    <rect x="25" y="19.32" width="1.14" height="1.14" fill="#fff"/>
    <rect x="23.86" y="29.55" width="1.14" height="1.14" fill="#fff"/>
    <rect x="23.86" y="28.41" width="1.14" height="1.14" fill="#aa0707"/>
    <rect x="23.86" y="27.27" width="1.14" height="1.14" fill="#cc1d1d"/>
    <rect x="23.86" y="26.14" width="1.14" height="1.14" fill="#cc1d1d"/>
    <rect x="23.86" y="25" width="1.14" height="1.14" fill="#cc1d1d"/>
    <rect x="23.86" y="23.86" width="1.14" height="1.14" fill="#cc1d1d"/>
    <rect x="23.86" y="22.73" width="1.14" height="1.14" fill="#cc1d1d"/>
    <rect x="23.86" y="21.59" width="1.14" height="1.14" fill="#cc1d1d"/>
    <rect x="23.86" y="20.45" width="1.14" height="1.14" fill="#ef5454"/>
    <rect x="23.86" y="19.32" width="1.14" height="1.14" fill="#fff"/>
    <rect x="22.73" y="30.69" width="1.14" height="1.14" fill="#fff"/>
    <rect x="22.73" y="29.55" width="1.14" height="1.14" fill="#aa0707"/>
    <rect x="22.73" y="28.41" width="1.14" height="1.14" fill="#cc1d1d"/>
    <rect x="22.73" y="27.27" width="1.14" height="1.14" fill="#cc1d1d"/>
    <rect x="22.73" y="26.14" width="1.14" height="1.14" fill="#cc1d1d"/>
    <rect x="22.73" y="25" width="1.14" height="1.14" fill="#cc1d1d"/>
    <rect x="22.73" y="23.86" width="1.14" height="1.14" fill="#cc1d1d"/>
    <rect x="22.73" y="22.73" width="1.14" height="1.14" fill="#cc1d1d"/>
    <rect x="22.73" y="21.59" width="1.14" height="1.14" fill="#cc1d1d"/>
    <rect x="22.73" y="20.45" width="1.14" height="1.14" fill="#cc1d1d"/>
    <rect x="22.73" y="19.32" width="1.14" height="1.14" fill="#ef5454"/>
    <rect x="22.73" y="18.18" width="1.14" height="1.14" fill="#fff"/>
    <rect x="21.59" y="31.82" width="1.14" height="1.14" fill="#fff"/>
    <rect x="21.59" y="30.69" width="1.14" height="1.14" fill="#aa0707"/>
    <rect x="21.59" y="29.55" width="1.14" height="1.14" fill="#cc1d1d"/>
    <rect x="21.59" y="28.41" width="1.14" height="1.14" fill="#cc1d1d"/>
    <rect x="21.59" y="27.27" width="1.14" height="1.14" fill="#cc1d1d"/>
    <rect x="21.59" y="26.14" width="1.14" height="1.14" fill="#cc1d1d"/>
    <rect x="21.59" y="25" width="1.14" height="1.14" fill="#cc1d1d"/>
    <rect x="21.59" y="23.86" width="1.14" height="1.14" fill="#cc1d1d"/>
    <rect x="21.59" y="22.73" width="1.14" height="1.14" fill="#cc1d1d"/>
    <rect x="21.59" y="21.59" width="1.14" height="1.14" fill="#cc1d1d"/>
    <rect x="21.59" y="20.45" width="1.14" height="1.14" fill="#cc1d1d"/>
    <rect x="21.59" y="19.32" width="1.14" height="1.14" fill="#cc1d1d"/>
    <rect x="21.59" y="18.18" width="1.14" height="1.14" fill="#ef5454"/>
    <rect x="21.59" y="17.04" width="1.14" height="1.14" fill="#fff"/>
    <rect x="20.45" y="32.96" width="1.14" height="1.14" fill="#fff"/>
    <rect x="20.45" y="31.82" width="1.14" height="1.14" fill="#aa0707"/>
    <rect x="20.45" y="30.69" width="1.14" height="1.14" fill="#cc1d1d"/>
    <rect x="20.45" y="29.55" width="1.14" height="1.14" fill="#cc1d1d"/>
    <rect x="20.45" y="28.41" width="1.14" height="1.14" fill="#cc1d1d"/>
    <rect x="20.45" y="27.27" width="1.14" height="1.14" fill="#cc1d1d"/>
    <rect x="20.45" y="26.14" width="1.14" height="1.14" fill="#cc1d1d"/>
    <rect x="20.45" y="25" width="1.14" height="1.14" fill="#aa0707"/>
    <rect x="20.45" y="23.86" width="1.14" height="1.14" fill="#aa0707"/>
    <rect x="20.45" y="22.73" width="1.14" height="1.14" fill="#cc1d1d"/>
    <rect x="20.45" y="21.59" width="1.14" height="1.14" fill="#cc1d1d"/>
    <rect x="20.45" y="20.45" width="1.14" height="1.14" fill="#cc1d1d"/>
    <rect x="20.45" y="19.32" width="1.14" height="1.14" fill="#cc1d1d"/>
    <rect x="20.45" y="18.18" width="1.14" height="1.14" fill="#cc1d1d"/>
    <rect x="20.45" y="17.04" width="1.14" height="1.14" fill="#ef5454"/>
    <rect x="20.45" y="15.9" width="1.14" height="1.14" fill="#fff"/>
    <rect x="19.31" y="34.1" width="1.14" height="1.14" fill="#fff"/>
    <rect x="19.31" y="32.96" width="1.14" height="1.14" fill="#aa0707"/>
    <rect x="19.31" y="31.82" width="1.14" height="1.14" fill="#cc1d1d"/>
    <rect x="19.31" y="30.69" width="1.14" height="1.14" fill="#cc1d1d"/>
    <rect x="19.31" y="29.55" width="1.14" height="1.14" fill="#cc1d1d"/>
    <rect x="19.31" y="28.41" width="1.14" height="1.14" fill="#cc1d1d"/>
    <rect x="19.31" y="27.27" width="1.14" height="1.14" fill="#cc1d1d"/>
    <rect x="19.31" y="26.14" width="1.14" height="1.14" fill="#ef5454"/>
    <rect x="19.31" y="25" width="1.14" height="1.14" fill="#fff"/>
    <rect x="19.31" y="23.86" width="1.14" height="1.14" fill="#fff"/>
    <rect x="19.31" y="22.73" width="1.14" height="1.14" fill="#aa0707"/>
    <rect x="19.31" y="21.59" width="1.14" height="1.14" fill="#cc1d1d"/>
    <rect x="19.31" y="20.45" width="1.14" height="1.14" fill="#cc1d1d"/>
    <rect x="19.31" y="19.32" width="1.14" height="1.14" fill="#cc1d1d"/>
    <rect x="19.31" y="18.18" width="1.14" height="1.14" fill="#cc1d1d"/>
    <rect x="19.31" y="17.04" width="1.14" height="1.14" fill="#cc1d1d"/>
    <rect x="19.31" y="15.9" width="1.14" height="1.14" fill="#ef5454"/>
    <rect x="19.31" y="14.77" width="1.14" height="1.14" fill="#fff"/>
    <rect x="18.18" y="35.23" width="1.14" height="1.14" fill="#fff"/>
    <rect x="18.18" y="34.1" width="1.14" height="1.14" fill="#aa0707"/>
    <rect x="18.18" y="32.96" width="1.14" height="1.14" fill="#cc1d1d"/>
    <rect x="18.18" y="31.82" width="1.14" height="1.14" fill="#cc1d1d"/>
    <rect x="18.18" y="30.69" width="1.14" height="1.14" fill="#cc1d1d"/>
    <rect x="18.18" y="29.55" width="1.14" height="1.14" fill="#cc1d1d"/>
    <rect x="18.18" y="28.41" width="1.14" height="1.14" fill="#cc1d1d"/>
    <rect x="18.18" y="27.27" width="1.14" height="1.14" fill="#ef5454"/>
    <rect x="18.18" y="26.14" width="1.14" height="1.14" fill="#fff"/>
    <rect x="18.18" y="22.73" width="1.14" height="1.14" fill="#fff"/>
    <rect x="18.18" y="21.59" width="1.14" height="1.14" fill="#aa0707"/>
    <rect x="18.18" y="20.45" width="1.14" height="1.14" fill="#cc1d1d"/>
    <rect x="18.18" y="19.32" width="1.14" height="1.14" fill="#cc1d1d"/>
    <rect x="18.18" y="18.18" width="1.14" height="1.14" fill="#cc1d1d"/>
    <rect x="18.18" y="17.04" width="1.14" height="1.14" fill="#cc1d1d"/>
    <rect x="18.18" y="15.9" width="1.14" height="1.14" fill="#cc1d1d"/>
    <rect x="18.18" y="14.77" width="1.14" height="1.14" fill="#ef5454"/>
    <rect x="18.18" y="13.63" width="1.14" height="1.14" fill="#fff"/>
    <rect x="17.04" y="36.37" width="1.14" height="1.14" fill="#fff"/>
    <rect x="17.04" y="35.23" width="1.14" height="1.14" fill="#aa0707"/>
    <rect x="17.04" y="34.1" width="1.14" height="1.14" fill="#cc1d1d"/>
    <rect x="17.04" y="32.96" width="1.14" height="1.14" fill="#cc1d1d"/>
    <rect x="17.04" y="31.82" width="1.14" height="1.14" fill="#cc1d1d"/>
    <rect x="17.04" y="30.69" width="1.14" height="1.14" fill="#cc1d1d"/>
    <rect x="17.04" y="29.55" width="1.14" height="1.14" fill="#cc1d1d"/>
    <rect x="17.04" y="28.41" width="1.14" height="1.14" fill="#ef5454"/>
    <rect x="17.04" y="27.27" width="1.14" height="1.14" fill="#fff"/>
    <rect x="17.04" y="21.59" width="1.14" height="1.14" fill="#fff"/>
    <rect x="17.04" y="20.45" width="1.14" height="1.14" fill="#aa0707"/>
    <rect x="17.04" y="19.32" width="1.14" height="1.14" fill="#cc1d1d"/>
    <rect x="17.04" y="18.18" width="1.14" height="1.14" fill="#cc1d1d"/>
    <rect x="17.04" y="17.04" width="1.14" height="1.14" fill="#cc1d1d"/>
    <rect x="17.04" y="15.9" width="1.14" height="1.14" fill="#cc1d1d"/>
    <rect x="17.04" y="14.77" width="1.14" height="1.14" fill="#cc1d1d"/>
    <rect x="17.04" y="13.63" width="1.14" height="1.14" fill="#ef5454"/>
    <rect x="17.04" y="12.49" width="1.14" height="1.14" fill="#fff"/>
    <rect x="15.9" y="37.51" width="1.14" height="1.14" fill="#fff"/>
    <rect x="15.9" y="36.37" width="1.14" height="1.14" fill="#aa0707"/>
    <rect x="15.9" y="35.23" width="1.14" height="1.14" fill="#cc1d1d"/>
    <rect x="15.9" y="34.1" width="1.14" height="1.14" fill="#cc1d1d"/>
    <rect x="15.9" y="32.96" width="1.14" height="1.14" fill="#cc1d1d"/>
    <rect x="15.9" y="31.82" width="1.14" height="1.14" fill="#cc1d1d"/>
    <rect x="15.9" y="30.69" width="1.14" height="1.14" fill="#cc1d1d"/>
    <rect x="15.9" y="29.55" width="1.14" height="1.14" fill="#ef5454"/>
    <rect x="15.9" y="28.41" width="1.14" height="1.14" fill="#fff"/>
    <rect x="15.9" y="20.45" width="1.14" height="1.14" fill="#fff"/>
    <rect x="15.9" y="19.32" width="1.14" height="1.14" fill="#aa0707"/>
    <rect x="15.9" y="18.18" width="1.14" height="1.14" fill="#cc1d1d"/>
    <rect x="15.9" y="17.04" width="1.14" height="1.14" fill="#cc1d1d"/>
    <rect x="15.9" y="15.9" width="1.14" height="1.14" fill="#cc1d1d"/>
    <rect x="15.9" y="14.77" width="1.14" height="1.14" fill="#cc1d1d"/>
    <rect x="15.9" y="13.63" width="1.14" height="1.14" fill="#cc1d1d"/>
    <rect x="15.9" y="12.49" width="1.14" height="1.14" fill="#ef5454"/>
    <rect x="15.9" y="11.36" width="1.14" height="1.14" fill="#fff"/>
    <rect x="14.77" y="38.64" width="1.14" height="1.14" fill="#fff"/>
    <rect x="14.77" y="37.51" width="1.14" height="1.14" fill="#aa0707"/>
    <rect x="14.77" y="36.37" width="1.14" height="1.14" fill="#cc1d1d"/>
    <rect x="14.77" y="35.23" width="1.14" height="1.14" fill="#cc1d1d"/>
    <rect x="14.77" y="34.1" width="1.14" height="1.14" fill="#cc1d1d"/>
    <rect x="14.77" y="32.96" width="1.14" height="1.14" fill="#cc1d1d"/>
    <rect x="14.77" y="31.82" width="1.14" height="1.14" fill="#cc1d1d"/>
    <rect x="14.77" y="30.69" width="1.14" height="1.14" fill="#ef5454"/>
    <rect x="14.77" y="29.55" width="1.14" height="1.14" fill="#fff"/>
    <rect x="14.77" y="19.32" width="1.14" height="1.14" fill="#fff"/>
    <rect x="14.77" y="18.18" width="1.14" height="1.14" fill="#aa0707"/>
    <rect x="14.77" y="17.04" width="1.14" height="1.14" fill="#cc1d1d"/>
    <rect x="14.77" y="15.9" width="1.14" height="1.14" fill="#cc1d1d"/>
    <rect x="14.77" y="14.77" width="1.14" height="1.14" fill="#cc1d1d"/>
    <rect x="14.77" y="13.63" width="1.14" height="1.14" fill="#cc1d1d"/>
    <rect x="14.77" y="12.49" width="1.14" height="1.14" fill="#cc1d1d"/>
    <rect x="14.77" y="11.36" width="1.14" height="1.14" fill="#ef5454"/>
    <rect x="14.77" y="10.22" width="1.14" height="1.14" fill="#fff"/>
    <rect x="13.63" y="39.78" width="1.14" height="1.14" fill="#fff"/>
    <rect x="13.63" y="38.64" width="1.14" height="1.14" fill="#aa0707"/>
    <rect x="13.63" y="37.51" width="1.14" height="1.14" fill="#cc1d1d"/>
    <rect x="13.63" y="36.37" width="1.14" height="1.14" fill="#cc1d1d"/>
    <rect x="13.63" y="35.23" width="1.14" height="1.14" fill="#cc1d1d"/>
    <rect x="13.63" y="34.1" width="1.14" height="1.14" fill="#cc1d1d"/>
    <rect x="13.63" y="32.96" width="1.14" height="1.14" fill="#cc1d1d"/>
    <rect x="13.63" y="31.82" width="1.14" height="1.14" fill="#ef5454"/>
    <rect x="13.63" y="30.69" width="1.14" height="1.14" fill="#fff"/>
    <rect x="13.63" y="18.18" width="1.14" height="1.14" fill="#fff"/>
    <rect x="13.63" y="17.04" width="1.14" height="1.14" fill="#aa0707"/>
    <rect x="13.63" y="15.9" width="1.14" height="1.14" fill="#cc1d1d"/>
    <rect x="13.63" y="14.77" width="1.14" height="1.14" fill="#cc1d1d"/>
    <rect x="13.63" y="13.63" width="1.14" height="1.14" fill="#cc1d1d"/>
    <rect x="13.63" y="12.49" width="1.14" height="1.14" fill="#cc1d1d"/>
    <rect x="13.63" y="11.36" width="1.14" height="1.14" fill="#cc1d1d"/>
    <rect x="13.63" y="10.22" width="1.14" height="1.14" fill="#ef5454"/>
    <rect x="13.63" y="9.08" width="1.14" height="1.14" fill="#fff"/>
    <rect x="12.49" y="40.92" width="1.14" height="1.14" fill="#fff"/>
    <rect x="12.49" y="39.78" width="1.14" height="1.14" fill="#aa0707"/>
    <rect x="12.49" y="38.64" width="1.14" height="1.14" fill="#cc1d1d"/>
    <rect x="12.49" y="37.51" width="1.14" height="1.14" fill="#cc1d1d"/>
    <rect x="12.49" y="36.37" width="1.14" height="1.14" fill="#cc1d1d"/>
    <rect x="12.49" y="35.23" width="1.14" height="1.14" fill="#cc1d1d"/>
    <rect x="12.49" y="34.1" width="1.14" height="1.14" fill="#cc1d1d"/>
    <rect x="12.49" y="32.96" width="1.14" height="1.14" fill="#ef5454"/>
    <rect x="12.49" y="31.82" width="1.14" height="1.14" fill="#fff"/>
    <rect x="12.49" y="17.04" width="1.14" height="1.14" fill="#fff"/>
    <rect x="12.49" y="15.9" width="1.14" height="1.14" fill="#aa0707"/>
    <rect x="12.49" y="14.77" width="1.14" height="1.14" fill="#cc1d1d"/>
    <rect x="12.49" y="13.63" width="1.14" height="1.14" fill="#cc1d1d"/>
    <rect x="12.49" y="12.49" width="1.14" height="1.14" fill="#cc1d1d"/>
    <rect x="12.49" y="11.36" width="1.14" height="1.14" fill="#cc1d1d"/>
    <rect x="12.49" y="10.22" width="1.14" height="1.14" fill="#cc1d1d"/>
    <rect x="12.49" y="9.08" width="1.14" height="1.14" fill="#ef5454"/>
    <rect x="12.49" y="7.95" width="1.14" height="1.14" fill="#fff"/>
    <rect x="11.36" y="40.92" width="1.14" height="1.14" fill="#fff"/>
    <rect x="11.36" y="39.78" width="1.14" height="1.14" fill="#aa0707"/>
    <rect x="11.36" y="38.64" width="1.14" height="1.14" fill="#cc1d1d"/>
    <rect x="11.36" y="37.51" width="1.14" height="1.14" fill="#cc1d1d"/>
    <rect x="11.36" y="36.37" width="1.14" height="1.14" fill="#cc1d1d"/>
    <rect x="11.36" y="35.23" width="1.14" height="1.14" fill="#cc1d1d"/>
    <rect x="11.36" y="34.1" width="1.14" height="1.14" fill="#ef5454"/>
    <rect x="11.36" y="32.96" width="1.14" height="1.14" fill="#fff"/>
    <rect x="11.36" y="15.9" width="1.14" height="1.14" fill="#fff"/>
    <rect x="11.36" y="14.77" width="1.14" height="1.14" fill="#aa0707"/>
    <rect x="11.36" y="13.63" width="1.14" height="1.14" fill="#cc1d1d"/>
    <rect x="11.36" y="12.49" width="1.14" height="1.14" fill="#cc1d1d"/>
    <rect x="11.36" y="11.36" width="1.14" height="1.14" fill="#cc1d1d"/>
    <rect x="11.36" y="10.22" width="1.14" height="1.14" fill="#cc1d1d"/>
    <rect x="11.36" y="9.08" width="1.14" height="1.14" fill="#ef5454"/>
    <rect x="11.36" y="7.95" width="1.14" height="1.14" fill="#fff"/>
    <rect x="10.22" y="39.78" width="1.14" height="1.14" fill="#fff"/>
    <rect x="10.22" y="38.64" width="1.14" height="1.14" fill="#aa0707"/>
    <rect x="10.22" y="37.51" width="1.14" height="1.14" fill="#cc1d1d"/>
    <rect x="10.22" y="36.37" width="1.14" height="1.14" fill="#cc1d1d"/>
    <rect x="10.22" y="35.23" width="1.14" height="1.14" fill="#ef5454"/>
    <rect x="10.22" y="34.1" width="1.14" height="1.14" fill="#fff"/>
    <rect x="10.22" y="14.77" width="1.14" height="1.14" fill="#fff"/>
    <rect x="10.22" y="13.63" width="1.14" height="1.14" fill="#aa0707"/>
    <rect x="10.22" y="12.49" width="1.14" height="1.14" fill="#cc1d1d"/>
    <rect x="10.22" y="11.36" width="1.14" height="1.14" fill="#cc1d1d"/>
    <rect x="10.22" y="10.22" width="1.14" height="1.14" fill="#ef5454"/>
    <rect x="10.22" y="9.08" width="1.14" height="1.14" fill="#fff"/>
    <rect x="9.08" y="38.64" width="1.14" height="1.14" fill="#fff"/>
    <rect x="9.08" y="37.51" width="1.14" height="1.14" fill="#aa0707"/>
    <rect x="9.08" y="36.37" width="1.14" height="1.14" fill="#ef5454"/>
    <rect x="9.08" y="35.23" width="1.14" height="1.14" fill="#fff"/>
    <rect x="9.08" y="13.63" width="1.14" height="1.14" fill="#fff"/>
    <rect x="9.08" y="12.49" width="1.14" height="1.14" fill="#aa0707"/>
    <rect x="9.08" y="11.36" width="1.14" height="1.14" fill="#ef5454"/>
    <rect x="9.08" y="10.22" width="1.14" height="1.14" fill="#fff"/>
    <rect x="7.95" y="37.51" width="1.14" height="1.14" fill="#fff"/>
    <rect x="7.95" y="36.37" width="1.14" height="1.14" fill="#fff"/>
    <rect x="7.95" y="12.49" width="1.14" height="1.14" fill="#fff"/>
    <rect x="7.95" y="11.36" width="1.14" height="1.14" fill="#fff"/>
  </g>
</svg>
