<svg id="Capa_1" data-name="Capa 1" xmlns="http://www.w3.org/2000/svg" xmlns:xlink="http://www.w3.org/1999/xlink" width="50" height="50" viewBox="0 0 50 50">
  <defs>
    <clipPath id="clip-path">
      <polygon points="24.04 49.76 1.25 39.47 1.41 9.18 24.2 19.46 24.04 49.76" fill="none"/>
    </clipPath>
    <clipPath id="clip-path-2">
      <polygon points="24.2 19.46 1.41 9.18 25.96 0.24 48.75 10.53 24.2 19.46" fill="none"/>
    </clipPath>
    <clipPath id="clip-path-3">
      <polygon points="48.75 10.53 48.59 40.82 24.04 49.76 24.2 19.46 48.75 10.53" fill="none"/>
    </clipPath>
  </defs>
  <g id="Figment_lido">
    <g style="isolation: isolate">
      <g>
        <polygon points="24.04 49.76 1.25 39.47 1.41 9.18 24.2 19.46 24.04 49.76" fill="#c94343"/>
        <g style="isolation: isolate">
          <g clip-path="url(#clip-path)">
            <g>
              <polyline points="7.63 27.26 2.6 25.04 2.6 31.87 7.64 34.09 7.63 27.26" fill="#faffff"/>
              <polyline points="22.84 27.04 17.81 24.82 17.81 31.66 22.84 33.88 22.84 27.04" fill="#faffff"/>
              <path d="M8.48,20.55a4.33,4.33,0,0,0-.87-.29v6.93a1.33,1.33,0,0,1,.39.12c.72.32,2.33,1.46,4,5.52a9.87,9.87,0,0,0,5,5.57,5.3,5.3,0,0,0,.74.27v-7l-.09,0c-.43-.19-2.28-1.2-4-5.11s-4-5.45-5.19-6" fill="#faffff"/>
            </g>
          </g>
        </g>
      </g>
      <g>
        <polygon points="24.2 19.46 1.41 9.18 25.96 0.24 48.75 10.53 24.2 19.46" fill="#dc4a4a"/>
        <g style="isolation: isolate">
          <g clip-path="url(#clip-path-2)">
            <g>
              <polyline points="19.5 11.91 13.95 13.92 18.97 16.19 24.51 14.17 19.5 11.91" fill="#faffff"/>
              <polyline points="31.18 3.51 25.63 5.53 30.65 7.79 36.19 5.78 31.18 3.51" fill="#faffff"/>
              <path d="M15.24,9.22a6.21,6.21,0,0,0-.89.38l5.08,2.29a2.66,2.66,0,0,1,.4-.17c.8-.29,2.88-.79,7.12-.34a18.3,18.3,0,0,0,8-.91c.5-.19.77-.32.77-.32L30.62,7.84l-.1,0a16.79,16.79,0,0,1-6.85.49,19.78,19.78,0,0,0-8.43.85" fill="#faffff"/>
            </g>
          </g>
        </g>
      </g>
      <g>
        <polygon points="48.75 10.53 48.59 40.82 24.04 49.76 24.2 19.46 48.75 10.53" fill="#e14b4b"/>
        <g style="isolation: isolate">
          <g clip-path="url(#clip-path-3)">
            <g>
              <polyline points="30.78 32.22 25.24 34.24 25.2 41.06 30.75 39.04 30.78 32.22" fill="#faffff"/>
              <polyline points="47.58 19.21 42.04 21.23 42 28.05 47.55 26.03 47.58 19.21" fill="#faffff"/>
              <path d="M31.76,24.82a5.45,5.45,0,0,0-1,.44l0,6.91A2.08,2.08,0,0,1,31.2,32c.79-.29,2.56-.5,4.34,2.18,1.57,2.36,4.21,1.79,5.54,1.31a6.26,6.26,0,0,0,.81-.35l0-7-.1,0c-.47.17-2.51.73-4.38-1.74a4.68,4.68,0,0,0-5.69-1.61" fill="#faffff"/>
            </g>
          </g>
        </g>
      </g>
    </g>
  </g>
</svg>
