<svg id="Capa_1" data-name="Capa 1" xmlns="http://www.w3.org/2000/svg" xmlns:xlink="http://www.w3.org/1999/xlink" width="50" height="50" viewBox="0 0 50 50">
  <defs>
    <clipPath id="clip-path">
      <polygon points="24.04 49.76 1.25 39.47 1.41 9.18 24.2 19.47 24.04 49.76" fill="none"/>
    </clipPath>
    <clipPath id="clip-path-2">
      <polygon points="24.2 19.47 1.41 9.18 25.96 0.24 48.75 10.53 24.2 19.47" fill="none"/>
    </clipPath>
    <clipPath id="clip-path-3">
      <polygon points="48.75 10.53 48.59 40.83 24.04 49.76 24.2 19.47 48.75 10.53" fill="none"/>
    </clipPath>
  </defs>
  <g id="Figment_lido">
    <g style="isolation: isolate">
      <g>
        <polygon points="24.04 49.76 1.25 39.47 1.41 9.18 24.2 19.47 24.04 49.76" fill="#6ea69f"/>
        <g style="isolation: isolate">
          <g clip-path="url(#clip-path)">
            <g>
              <path d="M14.44,35.7c.09-.33.29-.46.57-.37s.36,0,.41-.35c.1-.81.46-1.24,1.07-1.23a1.26,1.26,0,0,1,.5.12,2.53,2.53,0,0,1,1.1,1.19.81.81,0,0,0,.33.4.31.31,0,0,0,.13,0,.49.49,0,0,1,.44,0,1,1,0,0,1,.34.3,1.46,1.46,0,0,1,.29,1.11.72.72,0,0,0,.35.71,1.43,1.43,0,0,1,.58,1,.8.8,0,0,1-.28.84.46.46,0,0,1-.38,0L16.67,38l-1.61-.73a1.41,1.41,0,0,1-.62-1.52M4.9,31.47c0-.53.34-.84.72-.77.17,0,.26-.08.29-.3.13-1,.68-1.43,1.48-1.07l.05,0a2.2,2.2,0,0,1,.84.87c.1.16.2.34.29.52a.77.77,0,0,0,.32.39.37.37,0,0,0,.15,0,.38.38,0,0,1,.41,0,.71.71,0,0,1,.32.27,1.47,1.47,0,0,1,.34,1.06.71.71,0,0,0,.36.8A1.53,1.53,0,0,1,11,34.5c0,.5-.31.75-.69.58l-1.19-.54L6.77,33.46l-.85-.38-.42-.2a1.4,1.4,0,0,1-.6-1.41m4.18-1.33a.93.93,0,0,1-.38-.42c-.23-.42-.24-.4-.15-.8.52-2.07,2-3.08,3.67-2.55a4.09,4.09,0,0,1,.49.18c1.89.86,3.5,3.18,4.09,6l.06.28c0,.1,0,.08-.06.07a1.49,1.49,0,0,0-.74-.08H16c-.05,0-.05-.12-.07-.18a9,9,0,0,0-.85-2.12,5.48,5.48,0,0,0-2.33-2.41,2.07,2.07,0,0,0-2.66.65A3.86,3.86,0,0,0,9.45,30c0,.13-.09.13-.19.14a.37.37,0,0,1-.18,0M7.23,28.36A7.64,7.64,0,0,1,8,26.26a3.53,3.53,0,0,1,3.19-2.08,4.64,4.64,0,0,1,1.67.4,8.71,8.71,0,0,1,3.64,3.8,15.52,15.52,0,0,1,1.88,5.84v.08a4,4,0,0,0-1-1.12c-.09-.06-.08-.15-.1-.24a11.21,11.21,0,0,0-2-4.72A6.87,6.87,0,0,0,12.72,26c-1.84-.83-3.67-.21-4.46,2.26-.06.18-.09.36-.14.54s0,.11-.06.09l0,0a2.08,2.08,0,0,0-.62-.44l-.17-.07m-1.45.26a11.43,11.43,0,0,1,.52-2.47,5.82,5.82,0,0,1,3-3.76,4.21,4.21,0,0,1,3.46.18,9.86,9.86,0,0,1,4,3.77,19.18,19.18,0,0,1,2.85,8.16c0,.22,0,.44.07.69a2.18,2.18,0,0,0-.74-.63l-.11-.05h0c-.09,0-.07-.13-.08-.21a16.84,16.84,0,0,0-1.15-4.43,12,12,0,0,0-3.56-5.06A6.84,6.84,0,0,0,12.71,24a3.51,3.51,0,0,0-3.89.45,6.22,6.22,0,0,0-2,3.67c0,.13-.07.17-.17.17a1.17,1.17,0,0,0-.88.36m7.13-6.94a5.88,5.88,0,0,0-2.43-.53c-2,0-3.37,1.27-4.36,3.3A12.61,12.61,0,0,0,5,29.55c0,.13,0,.21-.1.26a1.21,1.21,0,0,0-.56.71c-.06.16-.11.33-.16.5v.68l0,.08a2.62,2.62,0,0,0,1.4,2.06L10.27,36a1.32,1.32,0,0,0,.31.12c.59.12,1-.32,1.11-1.08a3,3,0,0,0-.8-2.3.36.36,0,0,1-.13-.26,3,3,0,0,0-.6-1.6.25.25,0,0,1-.06-.27,3,3,0,0,1,.5-1A1.65,1.65,0,0,1,12.7,29a3.73,3.73,0,0,1,.63.39A6.3,6.3,0,0,1,15.39,33a.19.19,0,0,1,0,.19,1.91,1.91,0,0,0-.53,1c0,.1-.07.13-.15.13-.66,0-1,.69-.92,1.67a2.72,2.72,0,0,0,1.33,2.12l2.39,1.08,2.38,1.08c.64.29,1.17,0,1.33-.76a3,3,0,0,0-.64-2.38.47.47,0,0,1-.1-.3,16.71,16.71,0,0,0-.11-2.1,20.34,20.34,0,0,0-2.75-8.37,11.32,11.32,0,0,0-4.67-4.71" fill="#3c122c"/>
              <path d="M5.92,17.44h0c-.07,0-.1.06-.12.14-.08.24-.16.48-.23.74,0,.11-.09.16-.17.18l-.58.1c-.06,0-.1,0-.1.14a.36.36,0,0,0,.11.23c.18.19.35.39.54.58a.73.73,0,0,1,.19.37c.07.32.15.65.22,1a.3.3,0,0,0,.12.21c.06,0,.1,0,.12-.08s.07-.21.1-.32c.09-.44.24-.77.64-.7l.16,0h0c.08,0,.18,0,.17-.16s-.09-.22-.16-.3L6.46,19a.65.65,0,0,1-.21-.38c-.06-.32-.13-.62-.2-.93,0-.1,0-.22-.13-.26" fill="#f5df6e"/>
              <path d="M5.89,21.1a.3.3,0,0,1-.12-.21c-.07-.32-.15-.65-.22-1a.73.73,0,0,0-.19-.37c-.19-.19-.36-.39-.54-.58a.36.36,0,0,1-.11-.23c0-.11,0-.13.1-.14l.58-.1c.08,0,.13-.07.17-.18.07-.26.15-.5.23-.74,0-.08,0-.17.12-.14h0c.08,0,.1.16.13.26.07.31.14.61.2.93a.65.65,0,0,0,.21.38l.48.51c.07.08.17.16.16.3S7,20,6.93,20h0l-.16,0c-.4-.07-.55.26-.64.7,0,.11-.07.21-.1.32s-.06.1-.12.08m0-4h0c-.24-.09-.32.18-.35.26a2.81,2.81,0,0,1-.1.31c0,.15-.09.29-.13.44l0,0-.37.06-.21,0a.35.35,0,0,0-.25.38.82.82,0,0,0,.25.6l.16.19c.13.14.26.29.39.42l0,.09.15.68.07.3a.81.81,0,0,0,.34.54l0,0h0a.27.27,0,0,0,.32-.22l0-.09a2.58,2.58,0,0,0,.08-.26c.09-.43.21-.58.45-.54a.53.53,0,0,0,.22,0l.05,0c.08,0,.29,0,.29-.4a1,1,0,0,0-.29-.65l-.52-.54,0-.09c-.06-.29-.13-.58-.19-.86l0-.09a.81.81,0,0,0-.37-.59" fill="#3c122c"/>
              <path d="M18.79,19.32h0c-.09,0-.11.06-.13.13-.08.25-.17.51-.24.76,0,.1-.07.15-.16.16a5,5,0,0,0-.56.1c-.06,0-.12,0-.12.13a.33.33,0,0,0,.11.25c.17.18.33.38.5.53a.8.8,0,0,1,.25.49c.07.3.13.59.2.88,0,.09,0,.19.13.23h0c.07,0,.1-.05.12-.12.07-.24.14-.46.2-.7s.13-.25.26-.26a3.54,3.54,0,0,0,.47-.07c.08,0,.14,0,.14-.16a.34.34,0,0,0-.12-.23c-.19-.21-.37-.42-.56-.61a.55.55,0,0,1-.16-.31c-.07-.31-.14-.62-.21-.95,0-.1,0-.21-.13-.25" fill="#f5df6e"/>
              <path d="M18.77,23c-.09,0-.11-.14-.13-.23-.07-.29-.13-.58-.2-.88a.8.8,0,0,0-.25-.49c-.17-.15-.33-.35-.5-.53a.33.33,0,0,1-.11-.25c0-.12.06-.12.12-.13a5,5,0,0,1,.56-.1c.09,0,.13-.06.16-.16.07-.25.16-.51.24-.76,0-.07,0-.16.13-.13h0c.09,0,.11.15.13.25.07.33.14.64.21.95a.55.55,0,0,0,.16.31c.19.19.37.4.56.61a.34.34,0,0,1,.12.23c0,.12-.06.16-.14.16a3.54,3.54,0,0,1-.47.07c-.13,0-.22.08-.26.26s-.13.46-.2.7c0,.07,0,.15-.12.12h0m0-4h0c-.17-.06-.28,0-.35.23l0,.12c-.08.22-.15.45-.21.67l-.45.09-.14,0c-.08,0-.27,0-.27.38a.88.88,0,0,0,.26.63l.13.15a4.93,4.93,0,0,0,.39.4s.06.07.09.2c.06.29.13.59.2.89a.78.78,0,0,0,.37.56c.26.1.34-.15.36-.23l.05-.18a5,5,0,0,0,.16-.55c0-.06,0-.09.11-.1l.32,0,.16,0c.24,0,.29-.24.3-.41a.84.84,0,0,0-.26-.6l-.13-.14c-.15-.17-.3-.34-.46-.5-.07-.31-.14-.6-.2-.88l0-.1c-.07-.32-.18-.51-.36-.59" fill="#3c122c"/>
              <path d="M8.82,16.35h0c-.25-.11-.48.09-.48.43a1,1,0,0,0,.46.86c.27.12.47-.08.47-.43a1,1,0,0,0-.44-.85" fill="#f5df6e"/>
              <path d="M8.79,17.63a1,1,0,0,1-.46-.86c0-.34.23-.54.48-.43h0a1,1,0,0,1,.44.85c0,.35-.2.55-.47.43m0-1.63h0c-.39-.18-.73.12-.73.65a1.69,1.69,0,0,0,.21.81,1.2,1.2,0,0,0,.5.52c.4.18.72-.12.73-.67A1.56,1.56,0,0,0,8.82,16" fill="#3c122c"/>
              <path d="M17.15,22.54h0c-.15-.06-.25,0-.24.24a.52.52,0,0,0,.24.46h0c.13.06.24,0,.24-.22a.56.56,0,0,0-.24-.48" fill="#f5df6e"/>
              <path d="M17.14,23.24a.52.52,0,0,1-.24-.46c0-.21.09-.3.24-.24h0a.56.56,0,0,1,.24.48c0,.17-.11.28-.24.22h0m0-1h0c-.28-.11-.49.08-.49.47a1.06,1.06,0,0,0,.5.92c.28.11.5-.08.51-.44a1.15,1.15,0,0,0-.15-.56.82.82,0,0,0-.35-.38" fill="#3c122c"/>
              <path d="M12.8,22.57a4.21,4.21,0,0,0-3.46-.18,5.82,5.82,0,0,0-3,3.76,11.43,11.43,0,0,0-.52,2.47,1.17,1.17,0,0,1,.88-.36c.1,0,.14,0,.17-.17a6.22,6.22,0,0,1,2-3.67A3.51,3.51,0,0,1,12.71,24a6.84,6.84,0,0,1,1.37.84,12,12,0,0,1,3.56,5.06,16.84,16.84,0,0,1,1.15,4.43c0,.08,0,.17.08.21h0l.11.05a2.18,2.18,0,0,1,.74.63c0-.25-.05-.47-.07-.69a19.18,19.18,0,0,0-2.85-8.16,9.86,9.86,0,0,0-4-3.77" fill="#a0e7c2"/>
              <path d="M12.87,24.58a4.64,4.64,0,0,0-1.67-.4A3.53,3.53,0,0,0,8,26.26a7.64,7.64,0,0,0-.78,2.1l.17.07a2.08,2.08,0,0,1,.62.44l0,0s0,0,.06-.09.08-.36.14-.54c.79-2.47,2.62-3.09,4.46-2.26a6.87,6.87,0,0,1,2.57,2.21,11.21,11.21,0,0,1,2,4.72c0,.09,0,.18.1.24a4,4,0,0,1,1,1.12v-.08a15.52,15.52,0,0,0-1.88-5.84,8.71,8.71,0,0,0-3.64-3.8" fill="#f5df6e"/>
              <path d="M12.71,26.55a4.09,4.09,0,0,0-.49-.18c-1.71-.53-3.15.48-3.67,2.55-.09.4-.08.38.15.8a.93.93,0,0,0,.38.42.37.37,0,0,0,.18,0c.1,0,.16,0,.19-.14a3.86,3.86,0,0,1,.64-1.3,2.07,2.07,0,0,1,2.66-.65,5.48,5.48,0,0,1,2.33,2.41,9,9,0,0,1,.85,2.12c0,.06,0,.16.07.18h.06a1.49,1.49,0,0,1,.74.08s.08,0,.06-.07l-.06-.28c-.59-2.81-2.2-5.13-4.09-6" fill="#d688b8"/>
              <path d="M7.39,29.33c-.8-.36-1.35,0-1.48,1.07,0,.22-.12.33-.29.3-.38-.07-.67.24-.72.77a2.24,2.24,0,0,0,.66.44l3,1.37c.45.2.76,0,.88-.45a1.79,1.79,0,0,0-.3-1.42A1.38,1.38,0,0,1,9,31.17a.37.37,0,0,1-.15,0,.77.77,0,0,1-.32-.39c-.09-.18-.19-.36-.29-.52a2.2,2.2,0,0,0-.84-.87l-.05,0" fill="#fefefe"/>
              <path d="M17,33.87a1.26,1.26,0,0,0-.5-.12c-.61,0-1,.42-1.07,1.23-.05.36-.14.43-.41.35s-.48,0-.57.37a.64.64,0,0,0,.39.4l.05,0,2,.91,1.41.63c.71.3.93-.55.79-1.26a1.88,1.88,0,0,0-.49-.91.31.31,0,0,1-.13,0,.81.81,0,0,1-.33-.4A2.53,2.53,0,0,0,17,33.87" fill="#fefefe"/>
              <path d="M9.45,31.14a.38.38,0,0,0-.41,0,1.38,1.38,0,0,0,.14.24,1.79,1.79,0,0,1,.3,1.42c-.12.49-.43.65-.88.45l-3-1.37a2.24,2.24,0,0,1-.66-.44,1.4,1.4,0,0,0,.6,1.41l.42.2.85.38,2.39,1.08,1.19.54c.38.17.67-.08.69-.58a1.53,1.53,0,0,0-.57-1.23.71.71,0,0,1-.36-.8,1.47,1.47,0,0,0-.34-1.06.71.71,0,0,0-.32-.27" fill="#e0bcfb"/>
              <path d="M19,35.46a.49.49,0,0,0-.44,0,1.88,1.88,0,0,1,.49.91c.14.71-.08,1.56-.79,1.26L16.84,37l-2-.91-.05,0a.64.64,0,0,1-.39-.4,1.41,1.41,0,0,0,.62,1.52l1.61.73,3.22,1.46a.46.46,0,0,0,.38,0,.8.8,0,0,0,.28-.84,1.43,1.43,0,0,0-.58-1,.72.72,0,0,1-.35-.71,1.46,1.46,0,0,0-.29-1.11,1,1,0,0,0-.34-.3" fill="#e0bcfb"/>
              <polyline points="6.58 35.41 5.99 35.14 5.44 38.27 4.94 34.67 4.35 34.4 5.03 38.75 5.85 39.12 6.58 35.41" fill="#3c122c"/>
              <path d="M8.28,37.19l-1.16-.52v.61l.57.26v1.81L7,39v.6l2,.93v-.61l-.73-.33,0-2.42m0-1.47-.58-.27v.93l.58.26v-.92" fill="#3c122c"/>
              <path d="M10.52,37.34l-.59-.26v.86l-.57-.26v.61l.57.26v1.39a1.74,1.74,0,0,0,.18.89,1.44,1.44,0,0,0,.67.52l.49.22V41l-.44-.2a.55.55,0,0,1-.24-.2.61.61,0,0,1-.07-.32V38.81l.76.35v-.61l-.76-.34v-.87" fill="#3c122c"/>
              <path d="M12.71,41.77a.59.59,0,0,1-.24-.23.75.75,0,0,1-.09-.37c0-.18,0-.3.13-.33a.63.63,0,0,1,.46.09l.24.11v.05a1.14,1.14,0,0,1-.14.61c-.08.12-.2.14-.36.07m.1-2.6a2,2,0,0,0-.42-.13A1,1,0,0,0,12,39v.68a1.21,1.21,0,0,1,.41-.05,1.12,1.12,0,0,1,.41.12.71.71,0,0,1,.3.23.54.54,0,0,1,.1.33v.14l-.4-.19a1,1,0,0,0-.79-.1c-.17.09-.25.32-.26.67a1.71,1.71,0,0,0,.21.86,1.23,1.23,0,0,0,.59.54.63.63,0,0,0,.37.06.45.45,0,0,0,.27-.19v.34l.58.26V41a2.46,2.46,0,0,0-.22-1.17,1.56,1.56,0,0,0-.76-.65" fill="#3c122c"/>
              <path d="M15.4,39.24l-1.17-.53v.61l.59.27,0,2.33A2.53,2.53,0,0,0,15,43a1.16,1.16,0,0,0,.59.56l.63.28v-.6L15.74,43a.57.57,0,0,1-.28-.27,1.5,1.5,0,0,1-.08-.54l0-2.95" fill="#3c122c"/>
              <path d="M18.09,41.65l-1.16-.53v.61l.57.26V43.8l-.73-.33v.6l2,.93v-.61l-.72-.33V41.65m0-1.48-.58-.26v.92l.59.27v-.93" fill="#3c122c"/>
              <polyline points="19.88 41.27 19.3 41.01 19.28 45.22 19.86 45.48 19.86 44.32 20.07 44.16 20.66 45.85 21.31 46.14 20.43 43.84 21.29 43.1 20.58 42.77 19.87 43.49 19.88 41.27" fill="#3c122c"/>
            </g>
          </g>
        </g>
      </g>
      <g>
        <polygon points="24.2 19.47 1.41 9.18 25.96 0.24 48.75 10.53 24.2 19.47" fill="#79b6ae"/>
        <g style="isolation: isolate">
          <g clip-path="url(#clip-path-2)">
            <g>
              <path d="M31.38,11.1c-.18-.17-.12-.32.17-.45s.29-.2.05-.35c-.53-.33-.58-.68-.09-1A2,2,0,0,1,32,9a4.67,4.67,0,0,1,1.77-.21,1.88,1.88,0,0,0,.57-.06l.13-.06a.51.51,0,0,1,.32-.26,1.59,1.59,0,0,1,.49-.09,1.75,1.75,0,0,1,1.08.21,1.06,1.06,0,0,0,.82,0,2.36,2.36,0,0,1,1.21,0c.34.1.51.28.42.45a.61.61,0,0,1-.3.21L34.85,10.6,33,11.26a1.93,1.93,0,0,1-1.64-.16m-10.75,4c-.37-.21-.37-.47,0-.67.16-.09.15-.17,0-.27-.68-.42-.55-.86.36-1.19l.05,0a4.2,4.2,0,0,1,1.33-.18,4.42,4.42,0,0,1,.63,0,1.51,1.51,0,0,0,.55-.05l.14-.07a.46.46,0,0,1,.3-.25,1.39,1.39,0,0,1,.46-.09,1.87,1.87,0,0,1,1.07.17,1,1,0,0,0,.9.06,2.27,2.27,0,0,1,1.38.1c.37.18.34.43-.09.58l-1.36.5-2.71,1-.95.35-.48.18a2,2,0,0,1-1.56-.14m2.29-2.81a2.12,2.12,0,0,1-.62.07c-.51,0-.5,0-.73-.19-1.17-1-.8-2.16.94-3L23,9a14.64,14.64,0,0,1,7.79-.29l.26.06c.09,0,0,0,0,.06a2.71,2.71,0,0,0-.64.39s0,0,0,0a.44.44,0,0,1-.2,0A14,14,0,0,0,27.92,9a10.47,10.47,0,0,0-3.67.51c-1.12.4-1.75,1-1.61,1.73a1.62,1.62,0,0,0,.49.8c.07.06,0,.09,0,.15a1,1,0,0,1-.17.1m-2.82.44a3.52,3.52,0,0,1-1-1.15c-.4-.89-.2-1.74.94-2.52a7.33,7.33,0,0,1,1.61-.8,16.47,16.47,0,0,1,5.77-.78,20.74,20.74,0,0,1,5.94.91l.05,0a7.62,7.62,0,0,0-1.66.2.43.43,0,0,1-.26,0,16.82,16.82,0,0,0-5.15-.48,13.51,13.51,0,0,0-3.71.71c-2.09.76-3.06,2-1.79,3.29a2.61,2.61,0,0,0,.3.27s.06,0,0,.06h-.05a4.48,4.48,0,0,0-.82.2l-.19.08m-1,.91a6.81,6.81,0,0,1-1.47-1.13,2.26,2.26,0,0,1-.47-3,5.71,5.71,0,0,1,2.87-1.9,19,19,0,0,1,6-1,26.52,26.52,0,0,1,8.47,1.14l.58.2a4.22,4.22,0,0,0-1.07.21l-.11,0h0a.34.34,0,0,1-.23,0,21.62,21.62,0,0,0-4.28-.85,21.6,21.6,0,0,0-6.66.3,13.3,13.3,0,0,0-1.72.5c-1.64.59-2.53,1.39-2.73,2.36s.28,1.62,1.23,2.36c.07.06.07.1,0,.15a.88.88,0,0,0-.42.63m.34-6.39a9,9,0,0,0-2.32,1.2c-1.55,1.12-1.7,2.34-.93,3.58a7,7,0,0,0,3,2.35c.09.05.14.09.11.15a.47.47,0,0,0,.1.56l.26.25.51.23h.09A4.5,4.5,0,0,0,23,15.46l5.27-1.91.33-.14c.56-.3.57-.7.05-1a4,4,0,0,0-2.38-.33.51.51,0,0,1-.3,0,4.19,4.19,0,0,0-1.7-.2c-.14,0-.19,0-.25,0a1.16,1.16,0,0,1-.37-.63c-.08-.56.26-1,1.21-1.38a5.81,5.81,0,0,1,.79-.23,10.48,10.48,0,0,1,4.39.06c.1,0,.11,0,.12.09a.74.74,0,0,0,.37.65c.06,0,.05.09,0,.13-.51.38-.28.82.55,1.09a4.58,4.58,0,0,0,2.67,0l2.7-1,2.71-1c.73-.27.9-.67.46-1a3.68,3.68,0,0,0-2.32-.44.56.56,0,0,1-.3,0c-.52-.23-1.08-.45-1.69-.65a27.36,27.36,0,0,0-8.55-1.27,21.58,21.58,0,0,0-7.27,1" fill="#3c122c"/>
              <path d="M10.74,9.74h0c-.08,0,0,.07,0,.12l.38.38a.09.09,0,0,1,0,.15c-.12.12-.24.25-.37.36s-.06.07,0,.11a.58.58,0,0,0,.26,0l.87-.11a.88.88,0,0,1,.43,0l.92.2a.43.43,0,0,0,.25,0c.06,0,.07-.06,0-.1l-.17-.16c-.27-.2-.4-.4,0-.6a.58.58,0,0,0,.12-.1h0s.13-.1,0-.15a.69.69,0,0,0-.35,0l-.77.1a1,1,0,0,1-.46,0c-.28-.08-.57-.14-.87-.2a.57.57,0,0,0-.29,0" fill="#f5df6e"/>
              <path d="M13.5,11a.43.43,0,0,1-.25,0l-.92-.2a.88.88,0,0,0-.43,0l-.87.11a.58.58,0,0,1-.26,0c-.08,0-.06-.07,0-.11s.25-.24.37-.36a.09.09,0,0,0,0-.15l-.38-.38s-.09-.09,0-.12h0a.57.57,0,0,1,.29,0c.3.06.59.12.87.2a1,1,0,0,0,.46,0l.77-.1a.69.69,0,0,1,.35,0c.12,0,0,.1,0,.15h0a.58.58,0,0,1-.12.1c-.37.2-.24.4,0,.6l.17.16s0,.07,0,.1m-3-1.37h0c-.26.1-.12.24-.07.28s.11.11.16.16l.23.23v0l-.24.23-.14.13c-.12.13,0,.22.1.27a1.13,1.13,0,0,0,.65.06l.27,0,.63-.09h.11l.64.14.28.06a1.2,1.2,0,0,0,.68,0h.06c.14-.08.18-.17.08-.26l0,0-.14-.13c-.26-.2-.28-.32-.06-.44a.56.56,0,0,0,.16-.13l0,0c.05-.05.2-.18-.08-.3a1.33,1.33,0,0,0-.72,0l-.82.1H12.1l-.8-.18-.08,0a1.39,1.39,0,0,0-.74,0" fill="#3c122c"/>
              <path d="M22.32,3.09h0c-.09,0,0,.08,0,.12l.39.39c.06,0,.06.09,0,.15s-.25.23-.37.35-.08.07,0,.11a.53.53,0,0,0,.28,0l.79-.1a1.39,1.39,0,0,1,.58,0l.82.18a.47.47,0,0,0,.29,0h0c.08,0,0-.08,0-.12s-.23-.23-.37-.35-.09-.15,0-.23l.32-.29c.05-.05.08-.09,0-.13a.41.41,0,0,0-.29,0l-.89.11a.86.86,0,0,1-.36,0l-.9-.2a.48.48,0,0,0-.29,0" fill="#f5df6e"/>
              <path d="M25.1,4.34a.47.47,0,0,1-.29,0L24,4.15a1.39,1.39,0,0,0-.58,0l-.79.1a.53.53,0,0,1-.28,0c-.09,0,0-.08,0-.11s.24-.24.37-.35.06-.1,0-.15l-.39-.39s-.09-.08,0-.12h0a.48.48,0,0,1,.29,0l.9.2a.86.86,0,0,0,.36,0l.89-.11a.41.41,0,0,1,.29,0c.09,0,.06.08,0,.13l-.32.29c-.1.08-.12.15,0,.23s.24.24.37.35.08.08,0,.12h0M22.06,3h0c-.18.07-.21.16-.1.28l.06.05c.12.12.23.24.35.35l-.28.28L22,4c-.05,0-.18.17.08.28a1.29,1.29,0,0,0,.68.07l.22,0a6,6,0,0,0,.61-.08.62.62,0,0,1,.23,0l.84.19a1.2,1.2,0,0,0,.71,0c.29-.11.16-.24.11-.28l-.09-.09c-.09-.09-.19-.19-.3-.28s0,0,0-.09l.23-.19.11-.1c.16-.15,0-.25-.09-.31a1.32,1.32,0,0,0-.65-.06l-.22,0c-.25,0-.49.06-.73.09L22.89,3,22.8,3a1.32,1.32,0,0,0-.74,0" fill="#3c122c"/>
              <path d="M12.19,7.73h0c-.29.11-.31.3,0,.42a1.55,1.55,0,0,0,1,0c.3-.11.31-.29,0-.41a1.56,1.56,0,0,0-1,0" fill="#f5df6e"/>
              <path d="M13.15,8.18a1.55,1.55,0,0,1-1,0c-.26-.12-.24-.31,0-.42h0a1.56,1.56,0,0,1,1,0c.27.12.26.3,0,.41m-1.22-.56h0c-.44.16-.48.45-.08.63a2.15,2.15,0,0,0,.78.16,2.1,2.1,0,0,0,.79-.11c.45-.17.48-.45.06-.64a2.39,2.39,0,0,0-1.54,0" fill="#3c122c"/>
              <path d="M23.48,5.11h0c-.16.07-.17.15,0,.22a.8.8,0,0,0,.55,0h0c.14-.06.15-.16,0-.22a.89.89,0,0,0-.56,0" fill="#f5df6e"/>
              <path d="M24,5.35a.8.8,0,0,1-.55,0c-.16-.07-.15-.15,0-.22h0a.89.89,0,0,1,.56,0c.13.06.12.16,0,.22h0M23.22,5h0c-.31.12-.33.3,0,.44a1.73,1.73,0,0,0,1.1,0c.31-.13.33-.32.07-.44a1.67,1.67,0,0,0-.55-.11,1.62,1.62,0,0,0-.57.07" fill="#3c122c"/>
              <path d="M20.08,7.58a5.71,5.71,0,0,0-2.87,1.9,2.26,2.26,0,0,0,.47,3,6.81,6.81,0,0,0,1.47,1.13.88.88,0,0,1,.42-.63c.08-.05.08-.09,0-.15-.95-.74-1.41-1.53-1.23-2.36s1.09-1.77,2.73-2.36a13.3,13.3,0,0,1,1.72-.5,21.6,21.6,0,0,1,6.66-.3,21.62,21.62,0,0,1,4.28.85.34.34,0,0,0,.23,0h0l.11,0a4.22,4.22,0,0,1,1.07-.21l-.58-.2a26.52,26.52,0,0,0-8.47-1.14,19,19,0,0,0-6,1" fill="#a0e7c2"/>
              <path d="M21.66,8.23a7.33,7.33,0,0,0-1.61.8c-1.14.78-1.34,1.63-.94,2.52a3.52,3.52,0,0,0,1,1.15l.19-.08a4.48,4.48,0,0,1,.82-.2h.05c.05,0,0,0,0-.06a2.61,2.61,0,0,1-.3-.27c-1.27-1.28-.3-2.53,1.79-3.29a13.51,13.51,0,0,1,3.71-.71,16.82,16.82,0,0,1,5.15.48.43.43,0,0,0,.26,0,7.62,7.62,0,0,1,1.66-.2l-.05,0a20.74,20.74,0,0,0-5.94-.91,16.47,16.47,0,0,0-5.77.78" fill="#f5df6e"/>
              <path d="M23,9l-.53.21c-1.74.79-2.11,2-.94,3,.23.19.22.18.73.19a2.12,2.12,0,0,0,.62-.07,1,1,0,0,0,.17-.1c.07-.06.11-.09,0-.15a1.62,1.62,0,0,1-.49-.8c-.14-.71.49-1.33,1.61-1.73A10.47,10.47,0,0,1,27.92,9a14,14,0,0,1,2.29.24.44.44,0,0,0,.2,0s0,0,0,0a2.71,2.71,0,0,1,.64-.39s.09,0,0-.06l-.26-.06A14.64,14.64,0,0,0,23,9" fill="#d688b8"/>
              <path d="M21,12.94c-.91.33-1,.77-.36,1.19.15.1.16.18,0,.27-.35.2-.35.46,0,.67a4,4,0,0,0,.86-.23l3.44-1.25c.51-.19.62-.42.35-.65A2,2,0,0,0,24,12.62a2.71,2.71,0,0,1-.29,0l-.14.07a1.51,1.51,0,0,1-.55.05,4.42,4.42,0,0,0-.63,0,4.2,4.2,0,0,0-1.33.18l-.05,0" fill="#fefefe"/>
              <path d="M32,9a2,2,0,0,0-.49.25c-.49.34-.44.69.09,1,.24.15.23.22-.05.35s-.35.28-.17.45A1.21,1.21,0,0,0,32,11l.06,0,2.23-.8,1.6-.59c.79-.3.31-.72-.33-.87a3,3,0,0,0-1.08,0l-.13.06a1.88,1.88,0,0,1-.57.06A4.67,4.67,0,0,0,32,9" fill="#fefefe"/>
              <path d="M24,12.38a.46.46,0,0,0-.3.25,2.71,2.71,0,0,0,.29,0,2,2,0,0,1,1.32.32c.27.23.16.46-.35.65l-3.44,1.25a4,4,0,0,1-.86.23,2,2,0,0,0,1.56.14l.48-.18.95-.35,2.71-1,1.36-.5c.43-.15.46-.4.09-.58a2.27,2.27,0,0,0-1.38-.1,1,1,0,0,1-.9-.06,1.87,1.87,0,0,0-1.07-.17,1.39,1.39,0,0,0-.46.09" fill="#e0bcfb"/>
              <path d="M34.79,8.44a.51.51,0,0,0-.32.26,3,3,0,0,1,1.08,0c.64.15,1.12.57.33.87l-1.6.59-2.23.8L32,11a1.21,1.21,0,0,1-.61.09,1.93,1.93,0,0,0,1.64.16l1.83-.66,3.66-1.33a.61.61,0,0,0,.3-.21c.09-.17-.08-.35-.42-.45a2.36,2.36,0,0,0-1.21,0,1.06,1.06,0,0,1-.82,0,1.75,1.75,0,0,0-1.08-.21,1.59,1.59,0,0,0-.49.09" fill="#e0bcfb"/>
              <polyline points="24.96 15.45 24.29 15.7 26.25 17.07 23.1 16.13 22.43 16.37 26.29 17.46 27.22 17.12 24.96 15.45" fill="#3c122c"/>
              <path d="M27.66,15.09l-1.31.48.46.21.65-.24,1.37.62-.82.3.46.21,2.31-.84-.46-.21-.83.3-1.83-.83m-1.12-.5-.66.24.71.32.65-.24-.7-.32" fill="#3c122c"/>
              <path d="M29.54,13.88l-.66.24.65.29-.64.24.46.2.64-.23,1.06.48a2.08,2.08,0,0,0,.81.2,2.74,2.74,0,0,0,.93-.21l.56-.2-.46-.2-.51.18a.93.93,0,0,1-.33.07.7.7,0,0,1-.31-.07l-1.08-.49.86-.31-.46-.21-.86.31-.66-.29" fill="#3c122c"/>
              <path d="M34.65,14.13a1.15,1.15,0,0,1-.37.06.82.82,0,0,1-.35-.08q-.21-.09-.15-.18a1.17,1.17,0,0,1,.43-.23l.27-.1,0,0c.22.1.33.19.36.28s-.05.17-.23.23m-1.9-.94a3.75,3.75,0,0,0-.44.2,1.51,1.51,0,0,0-.32.22l.51.23a1.16,1.16,0,0,1,.29-.25,1.74,1.74,0,0,1,.41-.19,1.09,1.09,0,0,1,.41-.09.74.74,0,0,1,.34,0l.1.05-.46.16a1.38,1.38,0,0,0-.7.42c-.06.12,0,.24.31.37a2.17,2.17,0,0,0,.81.17,2.45,2.45,0,0,0,.89-.15,1.1,1.1,0,0,0,.33-.19A.22.22,0,0,0,35.3,14l.26.12.65-.24-1.3-.59A2.84,2.84,0,0,0,33.84,13a3.2,3.2,0,0,0-1.09.21" fill="#3c122c"/>
              <path d="M34.84,11.75l-1.33.48.46.21.67-.24,1.77.8a2.89,2.89,0,0,0,1,.26,2.45,2.45,0,0,0,.89-.15l.71-.26-.46-.21-.52.19a1,1,0,0,1-.43.07,1.49,1.49,0,0,1-.48-.14l-2.23-1" fill="#3c122c"/>
              <path d="M38.8,11l-1.32.48.46.21.65-.24,1.37.62-.82.3.46.21,2.31-.84-.46-.21-.82.3L38.8,11m-1.12-.5-.67.24.71.31.66-.24-.7-.31" fill="#3c122c"/>
              <polyline points="39.92 9.9 39.27 10.14 42.45 11.58 43.11 11.34 42.23 10.94 42.27 10.77 44.03 11.01 44.76 10.74 42.31 10.46 42.42 9.72 41.62 10.02 41.6 10.66 39.92 9.9" fill="#3c122c"/>
            </g>
          </g>
        </g>
      </g>
      <g>
        <polygon points="48.75 10.53 48.59 40.83 24.04 49.76 24.2 19.47 48.75 10.53" fill="#7bbab2"/>
        <g style="isolation: isolate">
          <g clip-path="url(#clip-path-3)">
            <g>
              <path d="M38.14,35.06a1.22,1.22,0,0,1,.63-.86.7.7,0,0,0,.44-.69,3.13,3.13,0,0,1,1.18-2.14,2.33,2.33,0,0,1,.56-.32,1.09,1.09,0,0,1,1.21.26.37.37,0,0,0,.38.11.7.7,0,0,0,.14-.08,1.27,1.27,0,0,1,.48-.41.52.52,0,0,1,.37,0c.28.12.39.42.33.86s.1.47.39.41.56.11.64.5a1.4,1.4,0,0,1-.32,1.08.92.92,0,0,1-.41.31L40.6,35.4l-1.78.65c-.52.19-.84-.3-.68-1M27.6,39a1.88,1.88,0,0,1,.79-1.39.7.7,0,0,0,.32-.55,2.7,2.7,0,0,1,1.63-2.32l.06,0a1,1,0,0,1,.92.15,1.7,1.7,0,0,1,.33.27.34.34,0,0,0,.51,0,1.14,1.14,0,0,1,.46-.39.56.56,0,0,1,.36,0c.29.09.39.37.37.77s.06.55.4.49.65.27.63.74a1.31,1.31,0,0,1-.76,1.17l-1.31.48-2.64,1-.94.35-.46.16c-.47.16-.8-.29-.67-.89m4.61-4.9a.4.4,0,0,1-.42-.1c-.26-.22-.27-.19-.16-.67a8.48,8.48,0,0,1,4-5.68c.18-.09.37-.17.54-.24,2.09-.75,3.87.19,4.53,2.48l.06.23c0,.08,0,.1-.07.12a3.42,3.42,0,0,0-.81.55s-.05,0-.06,0-.06-.07-.08-.12a3.56,3.56,0,0,0-.94-1.39,2.51,2.51,0,0,0-2.58-.41,5.83,5.83,0,0,0-2.94,2.92,9.63,9.63,0,0,0-.7,1.85.48.48,0,0,1-.21.3.62.62,0,0,1-.2.12m-2.05-.2A15,15,0,0,1,31,31.14a11.46,11.46,0,0,1,3.52-4.8,7.27,7.27,0,0,1,1.84-1,3.91,3.91,0,0,1,4,.67,6.56,6.56,0,0,1,2.09,4.22v.09a1.61,1.61,0,0,0-1.13-.25c-.11,0-.09-.08-.11-.16a4.12,4.12,0,0,0-2.19-3,3.77,3.77,0,0,0-2.84,0,8.72,8.72,0,0,0-4.91,6.06c-.07.23-.11.44-.16.67,0,0,0,.11-.06.13H31a1.64,1.64,0,0,0-.68.09l-.2.08m-1.6,1.5a17.43,17.43,0,0,1,.58-2.91,16.73,16.73,0,0,1,3.34-6.34,9.54,9.54,0,0,1,3.83-2.79,4.88,4.88,0,0,1,4.42.34c1.77,1.13,2.77,3.1,3.17,5.7,0,.2.05.4.07.64a1.11,1.11,0,0,0-.82,0l-.12.05h0c-.09,0-.08-.07-.09-.14a8,8,0,0,0-1.27-3.44,4.2,4.2,0,0,0-3.94-2,5.59,5.59,0,0,0-1.51.33,9.2,9.2,0,0,0-4.3,3.78A15,15,0,0,0,29.72,34a.43.43,0,0,1-.18.31,4.21,4.21,0,0,0-1,1.12m7.87-13a10.17,10.17,0,0,0-2.69,1.55,15.71,15.71,0,0,0-4.8,7,18.6,18.6,0,0,0-1.21,6,.48.48,0,0,1-.11.34,3.52,3.52,0,0,0-.62,1.2c-.06.2-.12.41-.17.62v.68l0,.06c.23.87.74,1.16,1.55.87l5.12-1.87a1.58,1.58,0,0,0,.35-.16,2.73,2.73,0,0,0,1.22-2c.08-.88-.25-1.49-.88-1.61-.08,0-.13,0-.14-.15a1.18,1.18,0,0,0-.68-1.08c-.08,0-.1-.08-.06-.21a7,7,0,0,1,.55-1.44,4.65,4.65,0,0,1,2.32-2.37,2.65,2.65,0,0,1,.69-.15c1.17-.09,1.87.66,2.28,1.85a.28.28,0,0,1,0,.24,4.4,4.4,0,0,0-.58,1.48.39.39,0,0,1-.16.26,2.75,2.75,0,0,0-1,2.45,1,1,0,0,0,1.47,1L41.48,36l2.64-1a2.54,2.54,0,0,0,1.47-1.9c.18-.88-.1-1.61-.71-1.82-.09,0-.12-.09-.12-.21a13,13,0,0,0-.12-2c-.37-2.67-1.33-4.74-3-6a5.27,5.27,0,0,0-5.16-.71" fill="#3c122c"/>
              <path d="M28.7,24.13h0c-.08,0-.11.15-.14.25-.08.31-.17.62-.25.93a.58.58,0,0,1-.19.33l-.63.59a.27.27,0,0,0-.11.23c0,.1.05.12.12.13a5.13,5.13,0,0,0,.59.12c.12,0,.17.09.21.21s.17.52.25.78c0,.07.05.13.13.11a.34.34,0,0,0,.14-.19c0-.13.07-.26.1-.4A1.72,1.72,0,0,1,29.62,26l.18-.15h0l0,0c.09-.08.2-.15.19-.3s-.1-.14-.18-.16-.35-.07-.54-.09a.24.24,0,0,1-.22-.21c-.07-.26-.15-.51-.23-.76,0-.07-.05-.17-.14-.14" fill="#f5df6e"/>
              <path d="M28.67,27.81c-.08,0-.11,0-.13-.11-.08-.26-.17-.52-.25-.78s-.09-.19-.21-.21a5.13,5.13,0,0,1-.59-.12c-.07,0-.12,0-.12-.13a.27.27,0,0,1,.11-.23l.63-.59a.58.58,0,0,0,.19-.33c.08-.31.17-.62.25-.93,0-.1.06-.21.14-.25h0c.09,0,.11.07.14.14.08.25.16.5.23.76a.24.24,0,0,0,.22.21c.19,0,.36.06.54.09s.18,0,.18.16-.1.22-.19.3l0,0h0l-.18.15a1.72,1.72,0,0,0-.71,1.25c0,.14-.07.27-.1.4a.34.34,0,0,1-.14.19m0-4h0a.81.81,0,0,0-.39.55c0,.14-.07.27-.11.4L28,25.3l0,.07-.4.37-.24.22a.83.83,0,0,0-.27.6.35.35,0,0,0,.27.39l.19,0,.43.08.05.06c.06.18.11.36.17.54l.08.24c.07.22.2.3.37.25h0l0,0a.82.82,0,0,0,.35-.49l0-.11c0-.11.06-.22.08-.32.1-.52.23-.77.49-.92a1.84,1.84,0,0,0,.25-.21L30,26a.83.83,0,0,0,.32-.65A.36.36,0,0,0,30,25c-.2,0-.39-.08-.57-.1l-.06-.05c-.06-.24-.14-.47-.21-.69l0-.07c-.08-.26-.21-.35-.4-.28" fill="#3c122c"/>
              <path d="M42.91,15h0c-.09,0-.11.14-.14.24-.08.31-.18.64-.26.95a.56.56,0,0,1-.17.31c-.21.18-.42.38-.62.57a.29.29,0,0,0-.13.24c0,.12.05.14.12.15a3.53,3.53,0,0,0,.55.1c.16,0,.23.11.28.28s.14.47.22.7c0,.07,0,.16.15.12h0c.09,0,.11-.14.13-.23.08-.29.16-.58.23-.87a.78.78,0,0,1,.28-.48l.53-.47a.37.37,0,0,0,.15-.28c0-.12-.08-.12-.14-.13a6.18,6.18,0,0,0-.62-.12.21.21,0,0,1-.17-.18l-.24-.76c0-.09,0-.18-.14-.15" fill="#f5df6e"/>
              <path d="M42.9,18.67c-.11,0-.13-.05-.15-.12-.08-.23-.15-.46-.22-.7s-.12-.27-.28-.28a3.53,3.53,0,0,1-.55-.1c-.07,0-.12,0-.12-.15a.29.29,0,0,1,.13-.24c.2-.19.41-.39.62-.57a.56.56,0,0,0,.17-.31c.08-.31.18-.64.26-.95,0-.1.05-.2.14-.24h0c.1,0,.12.06.14.15l.24.76a.21.21,0,0,0,.17.18,6.18,6.18,0,0,1,.62.12c.06,0,.14,0,.14.13a.37.37,0,0,1-.15.28l-.53.47a.78.78,0,0,0-.28.48c-.07.29-.15.58-.23.87,0,.09,0,.19-.13.23h0m0-4h0a.7.7,0,0,0-.38.53l0,.14c-.08.28-.16.57-.23.85l-.49.47-.15.15a.79.79,0,0,0-.3.61.35.35,0,0,0,.28.4l.16,0a1.84,1.84,0,0,0,.42.07c.05,0,.07,0,.11.12s.14.48.22.71.21.32.4.25a.76.76,0,0,0,.4-.53l.06-.23c.06-.23.13-.46.17-.69a.37.37,0,0,1,.12-.19l.36-.31.18-.16a.88.88,0,0,0,.32-.66c0-.33-.21-.37-.28-.38l-.15,0a2.77,2.77,0,0,0-.5-.1c-.09-.25-.16-.48-.23-.71l0-.08c-.08-.26-.21-.35-.4-.28" fill="#3c122c"/>
              <path d="M31.9,20.56h0a1,1,0,0,0-.53.84c0,.35.23.57.51.47a.93.93,0,0,0,.52-.84c0-.36-.23-.57-.49-.47" fill="#f5df6e"/>
              <path d="M31.87,21.87c-.28.1-.51-.12-.51-.47a1,1,0,0,1,.53-.84h0c.26-.1.49.11.49.47a.93.93,0,0,1-.52.84m0-1.65h0a1.49,1.49,0,0,0-.81,1.28.82.82,0,0,0,.24.62.52.52,0,0,0,.55.09,1.43,1.43,0,0,0,.8-1.29c0-.53-.35-.85-.77-.7" fill="#3c122c"/>
              <path d="M41.1,19.62h0a.42.42,0,0,0-.26.44c0,.2.11.31.27.25h0a.54.54,0,0,0,.27-.43c0-.2-.13-.32-.28-.27" fill="#f5df6e"/>
              <path d="M41.1,20.32c-.16.06-.27-.05-.27-.25a.42.42,0,0,1,.26-.44h0c.15-.05.28.07.28.27a.54.54,0,0,1-.27.43h0m0-1h0a1,1,0,0,0-.55.88c0,.39.25.6.55.49a1,1,0,0,0,.57-.87.55.55,0,0,0-.17-.43.36.36,0,0,0-.39-.08" fill="#3c122c"/>
              <path d="M36.31,23.36a9.54,9.54,0,0,0-3.83,2.79,16.73,16.73,0,0,0-3.34,6.34,17.43,17.43,0,0,0-.58,2.91,4.21,4.21,0,0,1,1-1.12.43.43,0,0,0,.18-.31,15,15,0,0,1,2.19-5.35,9.2,9.2,0,0,1,4.3-3.78,5.59,5.59,0,0,1,1.51-.33,4.2,4.2,0,0,1,3.94,2A8,8,0,0,1,42.93,30c0,.07,0,.17.09.14h0l.12-.05A1.11,1.11,0,0,1,44,30c0-.24,0-.44-.07-.64-.4-2.6-1.4-4.57-3.17-5.7a4.88,4.88,0,0,0-4.42-.34" fill="#a0e7c2"/>
              <path d="M36.38,25.32a7.27,7.27,0,0,0-1.84,1A11.46,11.46,0,0,0,31,31.14a15,15,0,0,0-.86,2.76l.2-.08a1.64,1.64,0,0,1,.68-.09h.05s.05-.08.06-.13c.05-.23.09-.44.16-.67a8.72,8.72,0,0,1,4.91-6.06,3.77,3.77,0,0,1,2.84,0,4.12,4.12,0,0,1,2.19,3c0,.08,0,.18.11.16a1.61,1.61,0,0,1,1.13.25v-.09A6.56,6.56,0,0,0,40.41,26a3.91,3.91,0,0,0-4-.67" fill="#f5df6e"/>
              <path d="M36.21,27.41c-.17.07-.36.15-.54.24a8.48,8.48,0,0,0-4,5.68c-.11.48-.1.45.16.67a.4.4,0,0,0,.42.1.62.62,0,0,0,.2-.12.48.48,0,0,0,.21-.3,9.63,9.63,0,0,1,.7-1.85,5.83,5.83,0,0,1,2.94-2.92,2.51,2.51,0,0,1,2.58.41,3.56,3.56,0,0,1,.94,1.39c0,.05,0,.15.08.12s0,0,.06,0a3.42,3.42,0,0,1,.81-.55c.05,0,.09,0,.07-.12l-.06-.23c-.66-2.29-2.44-3.23-4.53-2.48" fill="#d688b8"/>
              <path d="M30.34,34.74a2.7,2.7,0,0,0-1.63,2.32.7.7,0,0,1-.32.55A1.88,1.88,0,0,0,27.6,39a1.62,1.62,0,0,0,.73-.13l3.36-1.23a1.56,1.56,0,0,0,1-1.2,1,1,0,0,0-.32-1.17s-.13,0-.17-.11a.34.34,0,0,1-.51,0,1.7,1.7,0,0,0-.33-.27,1,1,0,0,0-.92-.15l-.06,0" fill="#fefefe"/>
              <path d="M41,31.05a2.33,2.33,0,0,0-.56.32,3.13,3.13,0,0,0-1.18,2.14.7.7,0,0,1-.44.69,1.22,1.22,0,0,0-.63.86c.1.18.27.13.43.07l0,0,2.16-.77,1.56-.58a1.72,1.72,0,0,0,.88-1.93.66.66,0,0,0-.54-.49.7.7,0,0,1-.14.08.37.37,0,0,1-.38-.11A1.09,1.09,0,0,0,41,31.05" fill="#fefefe"/>
              <path d="M32.62,34.77a1.14,1.14,0,0,0-.46.39c0,.08.12.08.17.11a1,1,0,0,1,.32,1.17,1.56,1.56,0,0,1-1,1.2l-3.36,1.23a1.62,1.62,0,0,1-.73.13c-.13.6.2,1,.67.89l.46-.16.94-.35,2.64-1,1.31-.48a1.31,1.31,0,0,0,.76-1.17c0-.47-.25-.8-.63-.74s-.43,0-.4-.49-.08-.68-.37-.77a.56.56,0,0,0-.36,0" fill="#e0bcfb"/>
              <path d="M43.16,30.93a1.27,1.27,0,0,0-.48.41.66.66,0,0,1,.54.49,1.72,1.72,0,0,1-.88,1.93l-1.56.58-2.16.77,0,0c-.16.06-.33.11-.43-.07-.16.69.16,1.18.68,1l1.78-.65,3.56-1.3a.92.92,0,0,0,.41-.31,1.4,1.4,0,0,0,.32-1.08c-.08-.39-.31-.56-.64-.5s-.43-.09-.39-.41,0-.74-.33-.86a.52.52,0,0,0-.37,0" fill="#e0bcfb"/>
              <polyline points="29.46 41.49 28.81 41.73 28.21 45.32 27.65 42.15 27 42.39 27.76 46.15 28.66 45.82 29.46 41.49" fill="#3c122c"/>
              <path d="M31.34,41.82l-1.28.46v.61l.64-.23v1.82l-.81.29v.61l2.25-.82V44l-.8.29V41.82m0-1.48-.64.23v.93l.64-.23v-.93" fill="#3c122c"/>
              <path d="M33.81,40.05l-.64.24v.87l-.63.22V42l.63-.23v1.4c0,.4.06.64.19.74s.38.08.75-.06l.54-.19V43l-.49.18c-.13,0-.22.05-.27,0s-.07-.13-.07-.26V41.53l.84-.31v-.6l-.83.3v-.87" fill="#3c122c"/>
              <path d="M36.24,42.59a.23.23,0,0,1-.26,0,.34.34,0,0,1-.1-.29.63.63,0,0,1,.14-.43,1.21,1.21,0,0,1,.51-.31l.26-.09v.06a1.66,1.66,0,0,1-.15.71.7.7,0,0,1-.4.38m.11-2.67a3.38,3.38,0,0,0-.47.22,3,3,0,0,0-.43.32v.68a4,4,0,0,1,.46-.4,1.91,1.91,0,0,1,.45-.23.43.43,0,0,1,.33,0,.24.24,0,0,1,.11.24v.14l-.45.16a1.88,1.88,0,0,0-.86.57,1.44,1.44,0,0,0-.29.89.83.83,0,0,0,.23.67.63.63,0,0,0,.66,0,1.22,1.22,0,0,0,.4-.25,1.6,1.6,0,0,0,.3-.42v.33l.64-.23V40.9a1.4,1.4,0,0,0-.24-1c-.16-.13-.44-.14-.84,0" fill="#3c122c"/>
              <path d="M39.21,37.77l-1.3.47v.62l.65-.24V41a1.31,1.31,0,0,0,.2.9c.13.14.35.16.65,0l.7-.25v-.61l-.51.19c-.15,0-.25,0-.31,0a.85.85,0,0,1-.09-.48l0-2.95" fill="#3c122c"/>
              <path d="M42.18,37.87l-1.28.47V39l.63-.23v1.81l-.8.29v.61L43,40.61V40l-.8.29V37.87m0-1.48-.65.24v.93l.64-.24v-.93" fill="#3c122c"/>
              <polyline points="44.16 35.97 43.52 36.2 43.49 40.42 44.13 40.19 44.14 39.03 44.36 38.69 45.03 39.86 45.74 39.6 44.77 38.06 45.71 36.59 44.93 36.87 44.15 38.19 44.16 35.97" fill="#3c122c"/>
            </g>
          </g>
        </g>
      </g>
    </g>
  </g>
  <g>
    <rect x="46.2" y="41.66" width="1.52" height="1.51" fill="#fff"/>
    <rect x="46.2" y="40.15" width="1.52" height="1.52" fill="#fff"/>
    <rect x="46.2" y="8.34" width="1.52" height="1.51" fill="#fff"/>
    <rect x="46.2" y="6.82" width="1.52" height="1.52" fill="#fff"/>
    <rect x="44.69" y="43.18" width="1.51" height="1.52" fill="#fff"/>
    <rect x="44.69" y="41.66" width="1.51" height="1.51" fill="#ef5454"/>
    <rect x="44.69" y="40.15" width="1.51" height="1.52" fill="#ef5454"/>
    <rect x="44.69" y="38.63" width="1.51" height="1.51" fill="#fff"/>
    <rect x="44.69" y="9.85" width="1.51" height="1.52" fill="#fff"/>
    <rect x="44.69" y="8.34" width="1.51" height="1.51" fill="#aa0707"/>
    <rect x="44.69" y="6.82" width="1.51" height="1.52" fill="#ef5454"/>
    <rect x="44.69" y="5.31" width="1.51" height="1.51" fill="#fff"/>
    <rect x="43.18" y="44.69" width="1.52" height="1.51" fill="#fff"/>
    <rect x="43.18" y="43.18" width="1.52" height="1.52" fill="#aa0707"/>
    <rect x="43.18" y="41.66" width="1.52" height="1.51" fill="#cc1d1d"/>
    <rect x="43.18" y="40.15" width="1.52" height="1.52" fill="#cc1d1d"/>
    <rect x="43.18" y="38.63" width="1.52" height="1.51" fill="#ef5454"/>
    <rect x="43.18" y="37.12" width="1.52" height="1.52" fill="#fff"/>
    <rect x="43.18" y="11.37" width="1.52" height="1.51" fill="#fff"/>
    <rect x="43.18" y="9.85" width="1.52" height="1.52" fill="#aa0707"/>
    <rect x="43.18" y="8.34" width="1.52" height="1.51" fill="#cc1d1d"/>
    <rect x="43.18" y="6.82" width="1.52" height="1.52" fill="#cc1d1d"/>
    <rect x="43.18" y="5.31" width="1.52" height="1.51" fill="#ef5454"/>
    <rect x="43.18" y="3.79" width="1.52" height="1.52" fill="#fff"/>
    <rect x="41.66" y="46.2" width="1.51" height="1.52" fill="#fff"/>
    <rect x="41.66" y="44.69" width="1.51" height="1.51" fill="#aa0707"/>
    <rect x="41.66" y="43.18" width="1.51" height="1.52" fill="#cc1d1d"/>
    <rect x="41.66" y="41.66" width="1.51" height="1.51" fill="#cc1d1d"/>
    <rect x="41.66" y="40.15" width="1.51" height="1.52" fill="#cc1d1d"/>
    <rect x="41.66" y="38.63" width="1.51" height="1.51" fill="#cc1d1d"/>
    <rect x="41.66" y="37.12" width="1.51" height="1.52" fill="#ef5454"/>
    <rect x="41.66" y="35.6" width="1.51" height="1.51" fill="#fff"/>
    <rect x="41.66" y="12.88" width="1.51" height="1.52" fill="#fff"/>
    <rect x="41.66" y="11.37" width="1.51" height="1.51" fill="#aa0707"/>
    <rect x="41.66" y="9.85" width="1.51" height="1.52" fill="#cc1d1d"/>
    <rect x="41.66" y="8.34" width="1.51" height="1.51" fill="#cc1d1d"/>
    <rect x="41.66" y="6.82" width="1.51" height="1.52" fill="#cc1d1d"/>
    <rect x="41.66" y="5.31" width="1.51" height="1.51" fill="#cc1d1d"/>
    <rect x="41.66" y="3.79" width="1.51" height="1.52" fill="#ef5454"/>
    <rect x="41.66" y="2.28" width="1.51" height="1.51" fill="#fff"/>
    <rect x="40.15" y="46.2" width="1.52" height="1.52" fill="#fff"/>
    <rect x="40.15" y="44.69" width="1.52" height="1.51" fill="#aa0707"/>
    <rect x="40.15" y="43.18" width="1.52" height="1.52" fill="#cc1d1d"/>
    <rect x="40.15" y="41.66" width="1.52" height="1.51" fill="#cc1d1d"/>
    <rect x="40.15" y="40.15" width="1.52" height="1.52" fill="#cc1d1d"/>
    <rect x="40.15" y="38.63" width="1.52" height="1.51" fill="#cc1d1d"/>
    <rect x="40.15" y="37.12" width="1.52" height="1.52" fill="#cc1d1d"/>
    <rect x="40.15" y="35.6" width="1.52" height="1.51" fill="#ef5454"/>
    <rect x="40.15" y="34.09" width="1.52" height="1.51" fill="#fff"/>
    <rect x="40.15" y="14.4" width="1.52" height="1.51" fill="#fff"/>
    <rect x="40.15" y="12.88" width="1.52" height="1.52" fill="#aa0707"/>
    <rect x="40.15" y="11.37" width="1.52" height="1.51" fill="#cc1d1d"/>
    <rect x="40.15" y="9.85" width="1.52" height="1.52" fill="#cc1d1d"/>
    <rect x="40.15" y="8.34" width="1.52" height="1.51" fill="#cc1d1d"/>
    <rect x="40.15" y="6.82" width="1.52" height="1.52" fill="#cc1d1d"/>
    <rect x="40.15" y="5.31" width="1.52" height="1.51" fill="#cc1d1d"/>
    <rect x="40.15" y="3.79" width="1.52" height="1.52" fill="#ef5454"/>
    <rect x="40.15" y="2.28" width="1.52" height="1.51" fill="#fff"/>
    <rect x="38.63" y="44.69" width="1.51" height="1.51" fill="#fff"/>
    <rect x="38.63" y="43.18" width="1.51" height="1.52" fill="#aa0707"/>
    <rect x="38.63" y="41.66" width="1.51" height="1.51" fill="#cc1d1d"/>
    <rect x="38.63" y="40.15" width="1.51" height="1.52" fill="#cc1d1d"/>
    <rect x="38.63" y="38.63" width="1.51" height="1.51" fill="#cc1d1d"/>
    <rect x="38.63" y="37.12" width="1.51" height="1.52" fill="#cc1d1d"/>
    <rect x="38.63" y="35.6" width="1.51" height="1.51" fill="#cc1d1d"/>
    <rect x="38.63" y="34.09" width="1.51" height="1.51" fill="#ef5454"/>
    <rect x="38.63" y="32.57" width="1.51" height="1.52" fill="#fff"/>
    <rect x="38.63" y="15.91" width="1.51" height="1.52" fill="#fff"/>
    <rect x="38.63" y="14.4" width="1.51" height="1.51" fill="#aa0707"/>
    <rect x="38.63" y="12.88" width="1.51" height="1.52" fill="#cc1d1d"/>
    <rect x="38.63" y="11.37" width="1.51" height="1.51" fill="#cc1d1d"/>
    <rect x="38.63" y="9.85" width="1.51" height="1.52" fill="#cc1d1d"/>
    <rect x="38.63" y="8.34" width="1.51" height="1.51" fill="#cc1d1d"/>
    <rect x="38.63" y="6.82" width="1.51" height="1.52" fill="#cc1d1d"/>
    <rect x="38.63" y="5.31" width="1.51" height="1.51" fill="#ef5454"/>
    <rect x="38.63" y="3.79" width="1.51" height="1.52" fill="#fff"/>
    <rect x="37.12" y="43.18" width="1.52" height="1.52" fill="#fff"/>
    <rect x="37.12" y="41.66" width="1.52" height="1.51" fill="#aa0707"/>
    <rect x="37.12" y="40.15" width="1.52" height="1.52" fill="#cc1d1d"/>
    <rect x="37.12" y="38.63" width="1.52" height="1.51" fill="#cc1d1d"/>
    <rect x="37.12" y="37.12" width="1.52" height="1.52" fill="#cc1d1d"/>
    <rect x="37.12" y="35.6" width="1.52" height="1.51" fill="#cc1d1d"/>
    <rect x="37.12" y="34.09" width="1.52" height="1.51" fill="#cc1d1d"/>
    <rect x="37.12" y="32.57" width="1.52" height="1.52" fill="#ef5454"/>
    <rect x="37.12" y="31.06" width="1.52" height="1.51" fill="#fff"/>
    <rect x="37.12" y="17.43" width="1.52" height="1.51" fill="#fff"/>
    <rect x="37.12" y="15.91" width="1.52" height="1.52" fill="#aa0707"/>
    <rect x="37.12" y="14.4" width="1.52" height="1.51" fill="#cc1d1d"/>
    <rect x="37.12" y="12.88" width="1.52" height="1.52" fill="#cc1d1d"/>
    <rect x="37.12" y="11.37" width="1.52" height="1.51" fill="#cc1d1d"/>
    <rect x="37.12" y="9.85" width="1.52" height="1.52" fill="#cc1d1d"/>
    <rect x="37.12" y="8.34" width="1.52" height="1.51" fill="#cc1d1d"/>
    <rect x="37.12" y="6.82" width="1.52" height="1.52" fill="#ef5454"/>
    <rect x="37.12" y="5.31" width="1.52" height="1.51" fill="#fff"/>
    <rect x="35.6" y="41.66" width="1.51" height="1.51" fill="#fff"/>
    <rect x="35.6" y="40.15" width="1.51" height="1.52" fill="#aa0707"/>
    <rect x="35.6" y="38.63" width="1.51" height="1.51" fill="#cc1d1d"/>
    <rect x="35.6" y="37.12" width="1.51" height="1.52" fill="#cc1d1d"/>
    <rect x="35.6" y="35.6" width="1.51" height="1.51" fill="#cc1d1d"/>
    <rect x="35.6" y="34.09" width="1.51" height="1.51" fill="#cc1d1d"/>
    <rect x="35.6" y="32.57" width="1.51" height="1.52" fill="#cc1d1d"/>
    <rect x="35.6" y="31.06" width="1.51" height="1.51" fill="#ef5454"/>
    <rect x="35.6" y="29.54" width="1.51" height="1.52" fill="#fff"/>
    <rect x="35.6" y="18.94" width="1.51" height="1.51" fill="#fff"/>
    <rect x="35.6" y="17.43" width="1.51" height="1.51" fill="#aa0707"/>
    <rect x="35.6" y="15.91" width="1.51" height="1.52" fill="#cc1d1d"/>
    <rect x="35.6" y="14.4" width="1.51" height="1.51" fill="#cc1d1d"/>
    <rect x="35.6" y="12.88" width="1.51" height="1.52" fill="#cc1d1d"/>
    <rect x="35.6" y="11.37" width="1.51" height="1.51" fill="#cc1d1d"/>
    <rect x="35.6" y="9.85" width="1.51" height="1.52" fill="#cc1d1d"/>
    <rect x="35.6" y="8.34" width="1.51" height="1.51" fill="#ef5454"/>
    <rect x="35.6" y="6.82" width="1.51" height="1.52" fill="#fff"/>
    <rect x="34.09" y="40.15" width="1.51" height="1.52" fill="#fff"/>
    <rect x="34.09" y="38.63" width="1.51" height="1.51" fill="#aa0707"/>
    <rect x="34.09" y="37.12" width="1.51" height="1.52" fill="#cc1d1d"/>
    <rect x="34.09" y="35.6" width="1.51" height="1.51" fill="#cc1d1d"/>
    <rect x="34.09" y="34.09" width="1.51" height="1.51" fill="#cc1d1d"/>
    <rect x="34.09" y="32.57" width="1.51" height="1.52" fill="#cc1d1d"/>
    <rect x="34.09" y="31.06" width="1.51" height="1.51" fill="#cc1d1d"/>
    <rect x="34.09" y="29.54" width="1.51" height="1.52" fill="#ef5454"/>
    <rect x="34.09" y="28.03" width="1.51" height="1.51" fill="#fff"/>
    <rect x="34.09" y="20.46" width="1.51" height="1.52" fill="#fff"/>
    <rect x="34.09" y="18.94" width="1.51" height="1.51" fill="#aa0707"/>
    <rect x="34.09" y="17.43" width="1.51" height="1.51" fill="#cc1d1d"/>
    <rect x="34.09" y="15.91" width="1.51" height="1.52" fill="#cc1d1d"/>
    <rect x="34.09" y="14.4" width="1.51" height="1.51" fill="#cc1d1d"/>
    <rect x="34.09" y="12.88" width="1.51" height="1.52" fill="#cc1d1d"/>
    <rect x="34.09" y="11.37" width="1.51" height="1.51" fill="#cc1d1d"/>
    <rect x="34.09" y="9.85" width="1.51" height="1.52" fill="#ef5454"/>
    <rect x="34.09" y="8.34" width="1.51" height="1.51" fill="#fff"/>
    <rect x="32.57" y="38.63" width="1.52" height="1.51" fill="#fff"/>
    <rect x="32.57" y="37.12" width="1.52" height="1.52" fill="#aa0707"/>
    <rect x="32.57" y="35.6" width="1.52" height="1.51" fill="#cc1d1d"/>
    <rect x="32.57" y="34.09" width="1.52" height="1.51" fill="#cc1d1d"/>
    <rect x="32.57" y="32.57" width="1.52" height="1.52" fill="#cc1d1d"/>
    <rect x="32.57" y="31.06" width="1.52" height="1.51" fill="#cc1d1d"/>
    <rect x="32.57" y="29.54" width="1.52" height="1.52" fill="#cc1d1d"/>
    <rect x="32.57" y="28.03" width="1.52" height="1.51" fill="#ef5454"/>
    <rect x="32.57" y="26.51" width="1.52" height="1.52" fill="#fff"/>
    <rect x="32.57" y="21.97" width="1.52" height="1.51" fill="#fff"/>
    <rect x="32.57" y="20.46" width="1.52" height="1.52" fill="#aa0707"/>
    <rect x="32.57" y="18.94" width="1.52" height="1.51" fill="#cc1d1d"/>
    <rect x="32.57" y="17.43" width="1.52" height="1.51" fill="#cc1d1d"/>
    <rect x="32.57" y="15.91" width="1.52" height="1.52" fill="#cc1d1d"/>
    <rect x="32.57" y="14.4" width="1.52" height="1.51" fill="#cc1d1d"/>
    <rect x="32.57" y="12.88" width="1.52" height="1.52" fill="#cc1d1d"/>
    <rect x="32.57" y="11.37" width="1.52" height="1.51" fill="#ef5454"/>
    <rect x="32.57" y="9.85" width="1.52" height="1.52" fill="#fff"/>
    <rect x="31.06" y="37.12" width="1.51" height="1.52" fill="#fff"/>
    <rect x="31.06" y="35.6" width="1.51" height="1.51" fill="#aa0707"/>
    <rect x="31.06" y="34.09" width="1.51" height="1.51" fill="#cc1d1d"/>
    <rect x="31.06" y="32.57" width="1.51" height="1.52" fill="#cc1d1d"/>
    <rect x="31.06" y="31.06" width="1.51" height="1.51" fill="#cc1d1d"/>
    <rect x="31.06" y="29.54" width="1.51" height="1.52" fill="#cc1d1d"/>
    <rect x="31.06" y="28.03" width="1.51" height="1.51" fill="#cc1d1d"/>
    <rect x="31.06" y="26.51" width="1.51" height="1.52" fill="#ef5454"/>
    <rect x="31.06" y="25" width="1.51" height="1.51" fill="#fff"/>
    <rect x="31.06" y="23.48" width="1.51" height="1.52" fill="#fff"/>
    <rect x="31.06" y="21.97" width="1.51" height="1.51" fill="#aa0707"/>
    <rect x="31.06" y="20.46" width="1.51" height="1.52" fill="#cc1d1d"/>
    <rect x="31.06" y="18.94" width="1.51" height="1.51" fill="#cc1d1d"/>
    <rect x="31.06" y="17.43" width="1.51" height="1.51" fill="#cc1d1d"/>
    <rect x="31.06" y="15.91" width="1.51" height="1.52" fill="#cc1d1d"/>
    <rect x="31.06" y="14.4" width="1.51" height="1.51" fill="#cc1d1d"/>
    <rect x="31.06" y="12.88" width="1.51" height="1.52" fill="#ef5454"/>
    <rect x="31.06" y="11.37" width="1.51" height="1.51" fill="#fff"/>
    <rect x="29.54" y="35.6" width="1.52" height="1.51" fill="#fff"/>
    <rect x="29.54" y="34.09" width="1.52" height="1.51" fill="#aa0707"/>
    <rect x="29.54" y="32.57" width="1.52" height="1.52" fill="#cc1d1d"/>
    <rect x="29.54" y="31.06" width="1.52" height="1.51" fill="#cc1d1d"/>
    <rect x="29.54" y="29.54" width="1.52" height="1.52" fill="#cc1d1d"/>
    <rect x="29.54" y="28.03" width="1.52" height="1.51" fill="#cc1d1d"/>
    <rect x="29.54" y="26.51" width="1.52" height="1.52" fill="#cc1d1d"/>
    <rect x="29.54" y="25" width="1.52" height="1.51" fill="#aa0707"/>
    <rect x="29.54" y="23.48" width="1.52" height="1.52" fill="#aa0707"/>
    <rect x="29.54" y="21.97" width="1.52" height="1.51" fill="#cc1d1d"/>
    <rect x="29.54" y="20.46" width="1.52" height="1.52" fill="#cc1d1d"/>
    <rect x="29.54" y="18.94" width="1.52" height="1.51" fill="#cc1d1d"/>
    <rect x="29.54" y="17.43" width="1.52" height="1.51" fill="#cc1d1d"/>
    <rect x="29.54" y="15.91" width="1.52" height="1.52" fill="#cc1d1d"/>
    <rect x="29.54" y="14.4" width="1.52" height="1.51" fill="#ef5454"/>
    <rect x="29.54" y="12.88" width="1.52" height="1.52" fill="#fff"/>
    <rect x="28.03" y="34.09" width="1.51" height="1.51" fill="#fff"/>
    <rect x="28.03" y="32.57" width="1.51" height="1.52" fill="#aa0707"/>
    <rect x="28.03" y="31.06" width="1.51" height="1.51" fill="#cc1d1d"/>
    <rect x="28.03" y="29.54" width="1.51" height="1.52" fill="#cc1d1d"/>
    <rect x="28.03" y="28.03" width="1.51" height="1.51" fill="#cc1d1d"/>
    <rect x="28.03" y="26.51" width="1.51" height="1.52" fill="#cc1d1d"/>
    <rect x="28.03" y="25" width="1.51" height="1.51" fill="#cc1d1d"/>
    <rect x="28.03" y="23.48" width="1.51" height="1.52" fill="#cc1d1d"/>
    <rect x="28.03" y="21.97" width="1.51" height="1.51" fill="#cc1d1d"/>
    <rect x="28.03" y="20.46" width="1.51" height="1.52" fill="#cc1d1d"/>
    <rect x="28.03" y="18.94" width="1.51" height="1.51" fill="#cc1d1d"/>
    <rect x="28.03" y="17.43" width="1.51" height="1.51" fill="#cc1d1d"/>
    <rect x="28.03" y="15.91" width="1.51" height="1.52" fill="#ef5454"/>
    <rect x="28.03" y="14.4" width="1.51" height="1.51" fill="#fff"/>
    <rect x="26.51" y="32.57" width="1.52" height="1.52" fill="#fff"/>
    <rect x="26.51" y="31.06" width="1.52" height="1.51" fill="#aa0707"/>
    <rect x="26.51" y="29.54" width="1.52" height="1.52" fill="#cc1d1d"/>
    <rect x="26.51" y="28.03" width="1.52" height="1.51" fill="#cc1d1d"/>
    <rect x="26.51" y="26.51" width="1.52" height="1.52" fill="#cc1d1d"/>
    <rect x="26.51" y="25" width="1.52" height="1.51" fill="#cc1d1d"/>
    <rect x="26.51" y="23.48" width="1.52" height="1.52" fill="#cc1d1d"/>
    <rect x="26.51" y="21.97" width="1.52" height="1.51" fill="#cc1d1d"/>
    <rect x="26.51" y="20.46" width="1.52" height="1.52" fill="#cc1d1d"/>
    <rect x="26.51" y="18.94" width="1.52" height="1.51" fill="#cc1d1d"/>
    <rect x="26.51" y="17.43" width="1.52" height="1.51" fill="#ef5454"/>
    <rect x="26.51" y="15.91" width="1.52" height="1.52" fill="#fff"/>
    <rect x="25" y="31.06" width="1.51" height="1.51" fill="#fff"/>
    <rect x="25" y="29.54" width="1.51" height="1.52" fill="#aa0707"/>
    <rect x="25" y="28.03" width="1.51" height="1.51" fill="#cc1d1d"/>
    <rect x="25" y="26.51" width="1.51" height="1.52" fill="#cc1d1d"/>
    <rect x="25" y="25" width="1.51" height="1.51" fill="#cc1d1d"/>
    <rect x="25" y="23.48" width="1.51" height="1.52" fill="#cc1d1d"/>
    <rect x="25" y="21.97" width="1.51" height="1.51" fill="#cc1d1d"/>
    <rect x="25" y="20.46" width="1.51" height="1.52" fill="#cc1d1d"/>
    <rect x="25" y="18.94" width="1.51" height="1.51" fill="#ef5454"/>
    <rect x="25" y="17.43" width="1.51" height="1.51" fill="#fff"/>
    <rect x="23.49" y="31.06" width="1.52" height="1.51" fill="#fff"/>
    <rect x="23.49" y="29.54" width="1.52" height="1.52" fill="#aa0707"/>
    <rect x="23.49" y="28.03" width="1.52" height="1.51" fill="#cc1d1d"/>
    <rect x="23.49" y="26.51" width="1.52" height="1.52" fill="#cc1d1d"/>
    <rect x="23.49" y="25" width="1.52" height="1.51" fill="#cc1d1d"/>
    <rect x="23.49" y="23.48" width="1.52" height="1.52" fill="#cc1d1d"/>
    <rect x="23.49" y="21.97" width="1.52" height="1.51" fill="#cc1d1d"/>
    <rect x="23.49" y="20.46" width="1.52" height="1.52" fill="#cc1d1d"/>
    <rect x="23.49" y="18.94" width="1.52" height="1.51" fill="#ef5454"/>
    <rect x="23.49" y="17.43" width="1.52" height="1.51" fill="#fff"/>
    <rect x="21.97" y="32.57" width="1.51" height="1.52" fill="#fff"/>
    <rect x="21.97" y="31.06" width="1.51" height="1.51" fill="#aa0707"/>
    <rect x="21.97" y="29.54" width="1.51" height="1.52" fill="#cc1d1d"/>
    <rect x="21.97" y="28.03" width="1.51" height="1.51" fill="#cc1d1d"/>
    <rect x="21.97" y="26.51" width="1.51" height="1.52" fill="#cc1d1d"/>
    <rect x="21.97" y="25" width="1.51" height="1.51" fill="#cc1d1d"/>
    <rect x="21.97" y="23.48" width="1.51" height="1.52" fill="#cc1d1d"/>
    <rect x="21.97" y="21.97" width="1.51" height="1.51" fill="#cc1d1d"/>
    <rect x="21.97" y="20.46" width="1.51" height="1.52" fill="#cc1d1d"/>
    <rect x="21.97" y="18.94" width="1.51" height="1.51" fill="#cc1d1d"/>
    <rect x="21.97" y="17.43" width="1.51" height="1.51" fill="#ef5454"/>
    <rect x="21.97" y="15.91" width="1.51" height="1.52" fill="#fff"/>
    <rect x="20.46" y="34.09" width="1.52" height="1.51" fill="#fff"/>
    <rect x="20.46" y="32.57" width="1.52" height="1.52" fill="#aa0707"/>
    <rect x="20.46" y="31.06" width="1.52" height="1.51" fill="#cc1d1d"/>
    <rect x="20.46" y="29.54" width="1.52" height="1.52" fill="#cc1d1d"/>
    <rect x="20.46" y="28.03" width="1.52" height="1.51" fill="#cc1d1d"/>
    <rect x="20.46" y="26.51" width="1.52" height="1.52" fill="#cc1d1d"/>
    <rect x="20.46" y="25" width="1.52" height="1.51" fill="#cc1d1d"/>
    <rect x="20.46" y="23.48" width="1.52" height="1.52" fill="#cc1d1d"/>
    <rect x="20.46" y="21.97" width="1.52" height="1.51" fill="#cc1d1d"/>
    <rect x="20.46" y="20.46" width="1.52" height="1.52" fill="#cc1d1d"/>
    <rect x="20.46" y="18.94" width="1.52" height="1.51" fill="#cc1d1d"/>
    <rect x="20.46" y="17.43" width="1.52" height="1.51" fill="#cc1d1d"/>
    <rect x="20.46" y="15.91" width="1.52" height="1.52" fill="#ef5454"/>
    <rect x="20.46" y="14.4" width="1.52" height="1.51" fill="#fff"/>
    <rect x="18.94" y="35.6" width="1.51" height="1.51" fill="#fff"/>
    <rect x="18.94" y="34.09" width="1.51" height="1.51" fill="#aa0707"/>
    <rect x="18.94" y="32.57" width="1.51" height="1.52" fill="#cc1d1d"/>
    <rect x="18.94" y="31.06" width="1.51" height="1.51" fill="#cc1d1d"/>
    <rect x="18.94" y="29.54" width="1.51" height="1.52" fill="#cc1d1d"/>
    <rect x="18.94" y="28.03" width="1.51" height="1.51" fill="#cc1d1d"/>
    <rect x="18.94" y="26.51" width="1.51" height="1.52" fill="#cc1d1d"/>
    <rect x="18.94" y="25" width="1.51" height="1.51" fill="#aa0707"/>
    <rect x="18.94" y="23.48" width="1.51" height="1.52" fill="#aa0707"/>
    <rect x="18.94" y="21.97" width="1.51" height="1.51" fill="#cc1d1d"/>
    <rect x="18.94" y="20.46" width="1.51" height="1.52" fill="#cc1d1d"/>
    <rect x="18.94" y="18.94" width="1.51" height="1.51" fill="#cc1d1d"/>
    <rect x="18.94" y="17.43" width="1.51" height="1.51" fill="#cc1d1d"/>
    <rect x="18.94" y="15.91" width="1.51" height="1.52" fill="#cc1d1d"/>
    <rect x="18.94" y="14.4" width="1.51" height="1.51" fill="#ef5454"/>
    <rect x="18.94" y="12.88" width="1.51" height="1.52" fill="#fff"/>
    <rect x="17.43" y="37.12" width="1.52" height="1.52" fill="#fff"/>
    <rect x="17.43" y="35.6" width="1.52" height="1.51" fill="#aa0707"/>
    <rect x="17.43" y="34.09" width="1.52" height="1.51" fill="#cc1d1d"/>
    <rect x="17.43" y="32.57" width="1.52" height="1.52" fill="#cc1d1d"/>
    <rect x="17.43" y="31.06" width="1.52" height="1.51" fill="#cc1d1d"/>
    <rect x="17.43" y="29.54" width="1.52" height="1.52" fill="#cc1d1d"/>
    <rect x="17.43" y="28.03" width="1.52" height="1.51" fill="#cc1d1d"/>
    <rect x="17.43" y="26.51" width="1.52" height="1.52" fill="#ef5454"/>
    <rect x="17.43" y="25" width="1.52" height="1.51" fill="#fff"/>
    <rect x="17.43" y="23.48" width="1.52" height="1.52" fill="#fff"/>
    <rect x="17.43" y="21.97" width="1.52" height="1.51" fill="#aa0707"/>
    <rect x="17.43" y="20.46" width="1.52" height="1.52" fill="#cc1d1d"/>
    <rect x="17.43" y="18.94" width="1.52" height="1.51" fill="#cc1d1d"/>
    <rect x="17.43" y="17.43" width="1.52" height="1.51" fill="#cc1d1d"/>
    <rect x="17.43" y="15.91" width="1.52" height="1.52" fill="#cc1d1d"/>
    <rect x="17.43" y="14.4" width="1.52" height="1.51" fill="#cc1d1d"/>
    <rect x="17.43" y="12.88" width="1.52" height="1.52" fill="#ef5454"/>
    <rect x="17.43" y="11.37" width="1.52" height="1.51" fill="#fff"/>
    <rect x="15.91" y="38.63" width="1.51" height="1.51" fill="#fff"/>
    <rect x="15.91" y="37.12" width="1.51" height="1.52" fill="#aa0707"/>
    <rect x="15.91" y="35.6" width="1.51" height="1.51" fill="#cc1d1d"/>
    <rect x="15.91" y="34.09" width="1.51" height="1.51" fill="#cc1d1d"/>
    <rect x="15.91" y="32.57" width="1.51" height="1.52" fill="#cc1d1d"/>
    <rect x="15.91" y="31.06" width="1.51" height="1.51" fill="#cc1d1d"/>
    <rect x="15.91" y="29.54" width="1.51" height="1.52" fill="#cc1d1d"/>
    <rect x="15.91" y="28.03" width="1.51" height="1.51" fill="#ef5454"/>
    <rect x="15.91" y="26.51" width="1.51" height="1.52" fill="#fff"/>
    <rect x="15.91" y="21.97" width="1.51" height="1.51" fill="#fff"/>
    <rect x="15.91" y="20.46" width="1.51" height="1.52" fill="#aa0707"/>
    <rect x="15.91" y="18.94" width="1.51" height="1.51" fill="#cc1d1d"/>
    <rect x="15.91" y="17.43" width="1.51" height="1.51" fill="#cc1d1d"/>
    <rect x="15.91" y="15.91" width="1.51" height="1.52" fill="#cc1d1d"/>
    <rect x="15.91" y="14.4" width="1.51" height="1.51" fill="#cc1d1d"/>
    <rect x="15.91" y="12.88" width="1.51" height="1.52" fill="#cc1d1d"/>
    <rect x="15.91" y="11.37" width="1.51" height="1.51" fill="#ef5454"/>
    <rect x="15.91" y="9.85" width="1.51" height="1.52" fill="#fff"/>
    <rect x="14.4" y="40.15" width="1.51" height="1.52" fill="#fff"/>
    <rect x="14.4" y="38.63" width="1.51" height="1.51" fill="#aa0707"/>
    <rect x="14.4" y="37.12" width="1.51" height="1.52" fill="#cc1d1d"/>
    <rect x="14.4" y="35.6" width="1.51" height="1.51" fill="#cc1d1d"/>
    <rect x="14.4" y="34.09" width="1.51" height="1.51" fill="#cc1d1d"/>
    <rect x="14.4" y="32.57" width="1.51" height="1.52" fill="#cc1d1d"/>
    <rect x="14.4" y="31.06" width="1.51" height="1.51" fill="#cc1d1d"/>
    <rect x="14.4" y="29.54" width="1.51" height="1.52" fill="#ef5454"/>
    <rect x="14.4" y="28.03" width="1.51" height="1.51" fill="#fff"/>
    <rect x="14.4" y="20.46" width="1.51" height="1.52" fill="#fff"/>
    <rect x="14.4" y="18.94" width="1.51" height="1.51" fill="#aa0707"/>
    <rect x="14.4" y="17.43" width="1.51" height="1.51" fill="#cc1d1d"/>
    <rect x="14.4" y="15.91" width="1.51" height="1.52" fill="#cc1d1d"/>
    <rect x="14.4" y="14.4" width="1.51" height="1.51" fill="#cc1d1d"/>
    <rect x="14.4" y="12.88" width="1.51" height="1.52" fill="#cc1d1d"/>
    <rect x="14.4" y="11.37" width="1.51" height="1.51" fill="#cc1d1d"/>
    <rect x="14.4" y="9.85" width="1.51" height="1.52" fill="#ef5454"/>
    <rect x="14.4" y="8.34" width="1.51" height="1.51" fill="#fff"/>
    <rect x="12.88" y="41.66" width="1.52" height="1.51" fill="#fff"/>
    <rect x="12.88" y="40.15" width="1.52" height="1.52" fill="#aa0707"/>
    <rect x="12.88" y="38.63" width="1.52" height="1.51" fill="#cc1d1d"/>
    <rect x="12.88" y="37.12" width="1.52" height="1.52" fill="#cc1d1d"/>
    <rect x="12.88" y="35.6" width="1.52" height="1.51" fill="#cc1d1d"/>
    <rect x="12.88" y="34.09" width="1.52" height="1.51" fill="#cc1d1d"/>
    <rect x="12.88" y="32.57" width="1.52" height="1.52" fill="#cc1d1d"/>
    <rect x="12.88" y="31.06" width="1.52" height="1.51" fill="#ef5454"/>
    <rect x="12.88" y="29.54" width="1.52" height="1.52" fill="#fff"/>
    <rect x="12.88" y="18.94" width="1.52" height="1.51" fill="#fff"/>
    <rect x="12.88" y="17.43" width="1.52" height="1.51" fill="#aa0707"/>
    <rect x="12.88" y="15.91" width="1.52" height="1.52" fill="#cc1d1d"/>
    <rect x="12.88" y="14.4" width="1.52" height="1.51" fill="#cc1d1d"/>
    <rect x="12.88" y="12.88" width="1.52" height="1.52" fill="#cc1d1d"/>
    <rect x="12.88" y="11.37" width="1.52" height="1.51" fill="#cc1d1d"/>
    <rect x="12.88" y="9.85" width="1.52" height="1.52" fill="#cc1d1d"/>
    <rect x="12.88" y="8.34" width="1.52" height="1.51" fill="#ef5454"/>
    <rect x="12.88" y="6.82" width="1.52" height="1.52" fill="#fff"/>
    <rect x="11.37" y="43.18" width="1.51" height="1.52" fill="#fff"/>
    <rect x="11.37" y="41.66" width="1.51" height="1.51" fill="#aa0707"/>
    <rect x="11.37" y="40.15" width="1.51" height="1.52" fill="#cc1d1d"/>
    <rect x="11.37" y="38.63" width="1.51" height="1.51" fill="#cc1d1d"/>
    <rect x="11.37" y="37.12" width="1.51" height="1.52" fill="#cc1d1d"/>
    <rect x="11.37" y="35.6" width="1.51" height="1.51" fill="#cc1d1d"/>
    <rect x="11.37" y="34.09" width="1.51" height="1.51" fill="#cc1d1d"/>
    <rect x="11.37" y="32.57" width="1.51" height="1.52" fill="#ef5454"/>
    <rect x="11.37" y="31.06" width="1.51" height="1.51" fill="#fff"/>
    <rect x="11.37" y="17.43" width="1.51" height="1.51" fill="#fff"/>
    <rect x="11.37" y="15.91" width="1.51" height="1.52" fill="#aa0707"/>
    <rect x="11.37" y="14.4" width="1.51" height="1.51" fill="#cc1d1d"/>
    <rect x="11.37" y="12.88" width="1.51" height="1.52" fill="#cc1d1d"/>
    <rect x="11.37" y="11.37" width="1.51" height="1.51" fill="#cc1d1d"/>
    <rect x="11.37" y="9.85" width="1.51" height="1.52" fill="#cc1d1d"/>
    <rect x="11.37" y="8.34" width="1.51" height="1.51" fill="#cc1d1d"/>
    <rect x="11.37" y="6.82" width="1.51" height="1.52" fill="#ef5454"/>
    <rect x="11.37" y="5.31" width="1.51" height="1.51" fill="#fff"/>
    <rect x="9.85" y="44.69" width="1.52" height="1.51" fill="#fff"/>
    <rect x="9.85" y="43.18" width="1.52" height="1.52" fill="#aa0707"/>
    <rect x="9.85" y="41.66" width="1.52" height="1.51" fill="#cc1d1d"/>
    <rect x="9.85" y="40.15" width="1.52" height="1.52" fill="#cc1d1d"/>
    <rect x="9.85" y="38.63" width="1.52" height="1.51" fill="#cc1d1d"/>
    <rect x="9.85" y="37.12" width="1.52" height="1.52" fill="#cc1d1d"/>
    <rect x="9.85" y="35.6" width="1.52" height="1.51" fill="#cc1d1d"/>
    <rect x="9.85" y="34.09" width="1.52" height="1.51" fill="#ef5454"/>
    <rect x="9.85" y="32.57" width="1.52" height="1.52" fill="#fff"/>
    <rect x="9.85" y="15.91" width="1.52" height="1.52" fill="#fff"/>
    <rect x="9.85" y="14.4" width="1.52" height="1.51" fill="#aa0707"/>
    <rect x="9.85" y="12.88" width="1.52" height="1.52" fill="#cc1d1d"/>
    <rect x="9.85" y="11.37" width="1.52" height="1.51" fill="#cc1d1d"/>
    <rect x="9.85" y="9.85" width="1.52" height="1.52" fill="#cc1d1d"/>
    <rect x="9.85" y="8.34" width="1.52" height="1.51" fill="#cc1d1d"/>
    <rect x="9.85" y="6.82" width="1.52" height="1.52" fill="#cc1d1d"/>
    <rect x="9.85" y="5.31" width="1.52" height="1.51" fill="#ef5454"/>
    <rect x="9.85" y="3.79" width="1.52" height="1.52" fill="#fff"/>
    <rect x="8.34" y="46.2" width="1.51" height="1.52" fill="#fff"/>
    <rect x="8.34" y="44.69" width="1.51" height="1.51" fill="#aa0707"/>
    <rect x="8.34" y="43.18" width="1.51" height="1.52" fill="#cc1d1d"/>
    <rect x="8.34" y="41.66" width="1.51" height="1.51" fill="#cc1d1d"/>
    <rect x="8.34" y="40.15" width="1.51" height="1.52" fill="#cc1d1d"/>
    <rect x="8.34" y="38.63" width="1.51" height="1.51" fill="#cc1d1d"/>
    <rect x="8.34" y="37.12" width="1.51" height="1.52" fill="#cc1d1d"/>
    <rect x="8.34" y="35.6" width="1.51" height="1.51" fill="#ef5454"/>
    <rect x="8.34" y="34.09" width="1.51" height="1.51" fill="#fff"/>
    <rect x="8.34" y="14.4" width="1.51" height="1.51" fill="#fff"/>
    <rect x="8.34" y="12.88" width="1.51" height="1.52" fill="#aa0707"/>
    <rect x="8.34" y="11.37" width="1.51" height="1.51" fill="#cc1d1d"/>
    <rect x="8.34" y="9.85" width="1.51" height="1.52" fill="#cc1d1d"/>
    <rect x="8.34" y="8.34" width="1.51" height="1.51" fill="#cc1d1d"/>
    <rect x="8.34" y="6.82" width="1.51" height="1.52" fill="#cc1d1d"/>
    <rect x="8.34" y="5.31" width="1.51" height="1.51" fill="#cc1d1d"/>
    <rect x="8.34" y="3.79" width="1.51" height="1.52" fill="#ef5454"/>
    <rect x="8.34" y="2.28" width="1.51" height="1.51" fill="#fff"/>
    <rect x="6.82" y="46.2" width="1.52" height="1.52" fill="#fff"/>
    <rect x="6.82" y="44.69" width="1.52" height="1.51" fill="#aa0707"/>
    <rect x="6.82" y="43.18" width="1.52" height="1.52" fill="#cc1d1d"/>
    <rect x="6.82" y="41.66" width="1.52" height="1.51" fill="#cc1d1d"/>
    <rect x="6.82" y="40.15" width="1.52" height="1.52" fill="#cc1d1d"/>
    <rect x="6.82" y="38.63" width="1.52" height="1.51" fill="#cc1d1d"/>
    <rect x="6.82" y="37.12" width="1.52" height="1.52" fill="#ef5454"/>
    <rect x="6.82" y="35.6" width="1.52" height="1.51" fill="#fff"/>
    <rect x="6.82" y="12.88" width="1.52" height="1.52" fill="#fff"/>
    <rect x="6.82" y="11.37" width="1.52" height="1.51" fill="#aa0707"/>
    <rect x="6.82" y="9.85" width="1.52" height="1.52" fill="#cc1d1d"/>
    <rect x="6.82" y="8.34" width="1.52" height="1.51" fill="#cc1d1d"/>
    <rect x="6.82" y="6.82" width="1.52" height="1.52" fill="#cc1d1d"/>
    <rect x="6.82" y="5.31" width="1.52" height="1.51" fill="#cc1d1d"/>
    <rect x="6.82" y="3.79" width="1.52" height="1.52" fill="#ef5454"/>
    <rect x="6.82" y="2.28" width="1.52" height="1.51" fill="#fff"/>
    <rect x="5.31" y="44.69" width="1.51" height="1.51" fill="#fff"/>
    <rect x="5.31" y="43.18" width="1.51" height="1.52" fill="#aa0707"/>
    <rect x="5.31" y="41.66" width="1.51" height="1.51" fill="#cc1d1d"/>
    <rect x="5.31" y="40.15" width="1.51" height="1.52" fill="#cc1d1d"/>
    <rect x="5.31" y="38.63" width="1.51" height="1.51" fill="#ef5454"/>
    <rect x="5.31" y="37.12" width="1.51" height="1.52" fill="#fff"/>
    <rect x="5.31" y="11.37" width="1.51" height="1.51" fill="#fff"/>
    <rect x="5.31" y="9.85" width="1.51" height="1.52" fill="#aa0707"/>
    <rect x="5.31" y="8.34" width="1.51" height="1.51" fill="#cc1d1d"/>
    <rect x="5.31" y="6.82" width="1.51" height="1.52" fill="#cc1d1d"/>
    <rect x="5.31" y="5.31" width="1.51" height="1.51" fill="#ef5454"/>
    <rect x="5.31" y="3.79" width="1.51" height="1.52" fill="#fff"/>
    <rect x="3.79" y="43.18" width="1.52" height="1.52" fill="#fff"/>
    <rect x="3.79" y="41.66" width="1.52" height="1.51" fill="#aa0707"/>
    <rect x="3.79" y="40.15" width="1.52" height="1.52" fill="#ef5454"/>
    <rect x="3.79" y="38.63" width="1.52" height="1.51" fill="#fff"/>
    <rect x="3.79" y="9.85" width="1.52" height="1.52" fill="#fff"/>
    <rect x="3.79" y="8.34" width="1.52" height="1.51" fill="#aa0707"/>
    <rect x="3.79" y="6.82" width="1.52" height="1.52" fill="#ef5454"/>
    <rect x="3.79" y="5.31" width="1.52" height="1.51" fill="#fff"/>
    <rect x="2.28" y="41.66" width="1.51" height="1.51" fill="#fff"/>
    <rect x="2.28" y="40.15" width="1.51" height="1.52" fill="#fff"/>
    <rect x="2.28" y="8.34" width="1.51" height="1.51" fill="#fff"/>
    <rect x="2.28" y="6.82" width="1.51" height="1.52" fill="#fff"/>
  </g>
</svg>
