<svg id="Capa_1" data-name="Capa 1" xmlns="http://www.w3.org/2000/svg" xmlns:xlink="http://www.w3.org/1999/xlink" width="50" height="50" viewBox="0 0 50 50">
  <defs>
    <clipPath id="clip-path">
      <polygon points="24.04 49.77 1.25 39.48 1.41 9.17 24.2 19.46 24.04 49.77" fill="none"/>
    </clipPath>
    <clipPath id="clip-path-2">
      <polygon points="24.2 19.46 1.41 9.17 25.95 0.24 48.74 10.53 24.2 19.46" fill="none"/>
    </clipPath>
    <clipPath id="clip-path-3">
      <polygon points="48.74 10.53 48.58 40.83 24.04 49.77 24.2 19.46 48.74 10.53" fill="none"/>
    </clipPath>
  </defs>
  <g id="Figment_lido">
    <g style="isolation: isolate">
      <g>
        <polygon points="24.04 49.77 1.25 39.48 1.41 9.17 24.2 19.46 24.04 49.77" fill="#5b5b5b"/>
        <g style="isolation: isolate">
          <g clip-path="url(#clip-path)">
            <g>
              <path d="M11.23,22.82a.54.54,0,0,0-.38-.06.84.84,0,0,0-.36.19L6.61,26.33h0V21.65a1.44,1.44,0,0,0-.17-.75,1,1,0,0,0-.48-.44.45.45,0,0,0-.49,0,.8.8,0,0,0-.17.59V31.61a1.47,1.47,0,0,0,.17.74,1,1,0,0,0,.48.46c.22.1.38.09.49,0a.84.84,0,0,0,.17-.6V27.33h0l4,7a4.93,4.93,0,0,0,.35.55.91.91,0,0,0,.4.32c.19.08.33.08.43,0a.51.51,0,0,0,.14-.44,1.61,1.61,0,0,0-.24-.71L7.87,27.29l3.68-3.13a.7.7,0,0,0,.21-.44.89.89,0,0,0-.11-.52.75.75,0,0,0-.42-.38" fill="#c6c6c6"/>
              <path d="M17.09,25.39A3.68,3.68,0,0,0,15.25,25a2.09,2.09,0,0,0-1.38.63A3.72,3.72,0,0,0,13,27.21a8.68,8.68,0,0,0-.3,2.45,11.74,11.74,0,0,0,.51,3.54A8.24,8.24,0,0,0,14.72,36a6.76,6.76,0,0,0,3.87,2.28,4.52,4.52,0,0,0,1.27.1.32.32,0,0,0,.27-.2,1.1,1.1,0,0,0,.09-.49V33.37a1.28,1.28,0,0,0-.13-.61.85.85,0,0,0-.41-.36l-2.18-1a.39.39,0,0,0-.39,0,.49.49,0,0,0-.15.43,1.15,1.15,0,0,0,.14.57.93.93,0,0,0,.4.36l1.63.72v3.24a3.6,3.6,0,0,1-.79-.06,5.06,5.06,0,0,1-1.11-.35,4.8,4.8,0,0,1-2.36-2.24,8.22,8.22,0,0,1-.79-3.82,6.64,6.64,0,0,1,.35-2.36,1.79,1.79,0,0,1,1-1.14,2.25,2.25,0,0,1,1.66.19,4.66,4.66,0,0,1,1.2.75,6.33,6.33,0,0,1,1,1.13,1,1,0,0,0,.31.29l.06,0a.3.3,0,0,0,.29-.08.65.65,0,0,0,.17-.33,1,1,0,0,0,0-.46,1.45,1.45,0,0,0-.22-.5,7.56,7.56,0,0,0-1.34-1.46,6.61,6.61,0,0,0-1.49-.92" fill="#c6c6c6"/>
            </g>
          </g>
        </g>
      </g>
      <g>
        <polygon points="24.2 19.46 1.41 9.17 25.95 0.24 48.74 10.53 24.2 19.46" fill="#636363"/>
        <g style="isolation: isolate">
          <g clip-path="url(#clip-path-2)">
            <g>
              <path d="M19.3,8.71A1,1,0,0,0,19,8.9a.5.5,0,0,0-.13.26l-.52,3.21h0l-3.39-1.53a1.56,1.56,0,0,0-.67-.15,1.85,1.85,0,0,0-.69.11c-.23.09-.35.18-.37.27s.09.19.3.29l7.66,3.45a1.69,1.69,0,0,0,.67.16,1.88,1.88,0,0,0,.7-.12c.24-.08.36-.18.36-.27s-.09-.19-.3-.29L19,12.71h0l8.19.12h.68a1.89,1.89,0,0,0,.54-.12c.2-.07.3-.15.32-.23s-.06-.16-.22-.22a2,2,0,0,0-.69-.11L20,12l.55-3a.27.27,0,0,0-.16-.26,1.11,1.11,0,0,0-.46-.11,1.64,1.64,0,0,0-.6.1" fill="#c6c6c6"/>
              <path d="M25.66,6.38a5.9,5.9,0,0,0-1.7.87,1.35,1.35,0,0,0-.59.95,1.31,1.31,0,0,0,.49,1,5.4,5.4,0,0,0,1.55,1,11.8,11.8,0,0,0,3,.89,13.12,13.12,0,0,0,3.2.1,12.46,12.46,0,0,0,3.2-.73,11.47,11.47,0,0,0,1.42-.62,5.68,5.68,0,0,0,1.05-.66c.08-.07.11-.14.06-.21A.65.65,0,0,0,37,8.71L33.87,7.3a1.34,1.34,0,0,0-.55-.13,1.73,1.73,0,0,0-.58.1l-2.37.86c-.19.07-.29.14-.32.21s0,.15.2.22a1.29,1.29,0,0,0,.53.11,1.54,1.54,0,0,0,.56-.1l1.77-.64L35.46,9a4.86,4.86,0,0,1-.65.41,8.35,8.35,0,0,1-1.11.49,8.82,8.82,0,0,1-3.42.54,9.11,9.11,0,0,1-3.39-.82,3.91,3.91,0,0,1-1.45-1,.68.68,0,0,1-.05-.92,3,3,0,0,1,1.41-.84,9,9,0,0,1,1.46-.4,11.08,11.08,0,0,1,1.62-.19,1.51,1.51,0,0,0,.44-.08l.06,0c.11-.06.16-.12.17-.19a.24.24,0,0,0-.12-.19.84.84,0,0,0-.33-.15,1.8,1.8,0,0,0-.54,0,12.46,12.46,0,0,0-2.08.25,12.29,12.29,0,0,0-1.82.5" fill="#c6c6c6"/>
            </g>
          </g>
        </g>
      </g>
      <g>
        <polygon points="48.74 10.53 48.58 40.83 24.04 49.77 24.2 19.46 48.74 10.53" fill="#666"/>
        <g style="isolation: isolate">
          <g clip-path="url(#clip-path-3)">
            <g>
              <path d="M34.92,25.87a1,1,0,0,0-.4.25,2.82,2.82,0,0,0-.37.46l-4,6.17h0l0-4.33a.65.65,0,0,0-.17-.56.46.46,0,0,0-.49,0,1,1,0,0,0-.5.39,1.22,1.22,0,0,0-.18.69l-.05,9.78a.74.74,0,0,0,.17.55.46.46,0,0,0,.5,0,.93.93,0,0,0,.5-.41,1.34,1.34,0,0,0,.17-.68l0-4.51h0l4.11,3.36a1.93,1.93,0,0,0,.36.23.54.54,0,0,0,.41,0,.94.94,0,0,0,.44-.34.9.9,0,0,0,.14-.53.56.56,0,0,0-.24-.46l-3.93-3.27,3.79-5.79a1.4,1.4,0,0,0,.22-.58.51.51,0,0,0-.11-.4c-.09-.08-.23-.09-.43,0" fill="#c6c6c6"/>
              <path d="M40.92,23.65A6.11,6.11,0,0,0,39,24.74a6.55,6.55,0,0,0-1.42,1.67,8.09,8.09,0,0,0-.88,2.13,10.09,10.09,0,0,0-.32,2.51,6.58,6.58,0,0,0,.51,2.88,2.5,2.5,0,0,0,1.53,1.43,3.94,3.94,0,0,0,2.5-.22,10.14,10.14,0,0,0,1.46-.7,10,10,0,0,0,1.31-.91,1,1,0,0,0,.27-.4,1.36,1.36,0,0,0,.09-.51l0-4a.58.58,0,0,0-.14-.46.39.39,0,0,0-.41,0l-2.23.81a.83.83,0,0,0-.41.3.85.85,0,0,0-.15.51.48.48,0,0,0,.15.41.37.37,0,0,0,.4,0l1.67-.6,0,3a6.17,6.17,0,0,1-.81.56,6,6,0,0,1-1.14.55,2.15,2.15,0,0,1-2.41-.22,4,4,0,0,1-.79-2.92,7.85,7.85,0,0,1,.36-2.46,4.92,4.92,0,0,1,1-1.85,4.24,4.24,0,0,1,1.7-1.13,3.7,3.7,0,0,1,1.23-.24,2.25,2.25,0,0,1,1,.24.45.45,0,0,0,.32,0l.06,0a.78.78,0,0,0,.3-.3,1.39,1.39,0,0,0,.17-.44,1,1,0,0,0,0-.42.46.46,0,0,0-.23-.28,2.76,2.76,0,0,0-1.37-.31,5.28,5.28,0,0,0-1.52.31" fill="#c6c6c6"/>
            </g>
          </g>
        </g>
      </g>
    </g>
  </g>
</svg>
