<svg id="Capa_1" data-name="Capa 1" xmlns="http://www.w3.org/2000/svg" xmlns:xlink="http://www.w3.org/1999/xlink" width="50" height="50" viewBox="0 0 50 50">
  <defs>
    <clipPath id="clip-path">
      <polygon points="24.04 49.76 1.26 39.47 1.42 9.17 24.2 19.46 24.04 49.76" fill="none"/>
    </clipPath>
    <clipPath id="clip-path-2">
      <polygon points="24.2 19.46 1.42 9.17 25.96 0.24 48.75 10.53 24.2 19.46" fill="none"/>
    </clipPath>
    <clipPath id="clip-path-3">
      <polygon points="48.75 10.53 48.59 40.82 24.04 49.76 24.2 19.46 48.75 10.53" fill="none"/>
    </clipPath>
  </defs>
  <g id="Figment_lido">
    <g style="isolation: isolate">
      <g>
        <polygon points="24.04 49.76 1.26 39.47 1.42 9.17 24.2 19.46 24.04 49.76" fill="#07a680"/>
        <g style="isolation: isolate">
          <g clip-path="url(#clip-path)">
            <g>
              <path d="M14.63,22.13c.74.34,1.5.6,2.24.94a2.29,2.29,0,0,1,1.29,2.46L18,37.89c0,1.39-.41,1.77-1.43,1.29L12,37.08,7.47,35c-1-.48-1.4-1.15-1.39-2.6l.08-6.18L6.24,20c0-1.33.37-1.68,1.33-1.24l.08,0c.43.22.86.42,1.3.62l1.3.61,1.47.67c.81.38,1.62.77,2.43,1.2l.48.24m-2.38-3L7.43,16.94C6,16.3,5,17.18,5,19.08q-.12,6.53-.17,13.09A4.72,4.72,0,0,0,7.18,36.5c1.86.89,3.72,1.76,5.59,2.63L16.72,41c1.57.72,2.48-.12,2.53-2.26s.05-4.19.08-6.28.08-4.39.08-6.6a4.78,4.78,0,0,0-2.34-4.38l-4.82-2.27" fill="#fafdfd"/>
              <path d="M10.58,29.14c.1-.5.39-.63.57-.88l.23-.12a2,2,0,0,0,.9.81c.14.07.28.12.41.17a4.13,4.13,0,0,1,.45.17,2.61,2.61,0,0,1,.61.41,4.77,4.77,0,0,1-.43.56c-.14.14-.24.38-.42.3a1.08,1.08,0,0,1-.35-.45.67.67,0,0,0-.34-.27,2.24,2.24,0,0,0-.36-.14,1.82,1.82,0,0,1-.3-.11l-.1-.05-.87-.4m3.49-7-6.3,7.39,2.18,1c1.26.59,1.25.59,1,2.14a22.87,22.87,0,0,0-.56,3.2c.13,0,.2.06.23,0,1.94-2,3.75-4.31,5.76-6.23l.1-.42a.26.26,0,0,0-.16-.21L16.1,29l-1.57-.74-.78-.35-.12-.05c-.37-.17-.5-.39-.36-1,.35-1.47.63-3,.94-4.49l-.14-.24" fill="#fafdfd"/>
            </g>
          </g>
        </g>
      </g>
      <g>
        <polygon points="24.2 19.46 1.42 9.17 25.96 0.24 48.75 10.53 24.2 19.46" fill="#07b68c"/>
        <g style="isolation: isolate">
          <g clip-path="url(#clip-path-2)">
            <g>
              <path d="M21.72,5.93c.85-.31,1.66-.66,2.51-1a3.63,3.63,0,0,1,3,.1l9.59,4.33c1.07.48,1,.84-.13,1.27-1.75.64-3.5,1.29-5.26,1.92l-5.28,1.92A3.63,3.63,0,0,1,23,14.4l-4.8-2.16-4.79-2.17c-1-.47-1-.79.08-1.19l.1,0c.51-.17,1-.35,1.52-.54l1.5-.55,1.7-.62c.93-.34,1.89-.68,2.87-1l.57-.2M17.5,6.3l-5.57,2c-1.63.6-1.73,1.49-.27,2.16q5,2.31,10.15,4.58a7.57,7.57,0,0,0,5.29.11l6.49-2.35,4.57-1.67C40,10.51,40,9.69,38.4,8.93l-4.88-2.2C31.81,6,30.14,5.18,28.4,4.41a7.71,7.71,0,0,0-5.3-.14l-5.6,2" fill="#fafdfd"/>
              <path d="M24,10.69c-.31-.23-.19-.44-.24-.64l.09-.17a4.1,4.1,0,0,0,1.36-.24l.45-.19.49-.19A3.84,3.84,0,0,1,27,9a1.66,1.66,0,0,1,.11.44c0,.13.1.27-.1.35a2.18,2.18,0,0,1-.63.05,1.48,1.48,0,0,0-.49.1l-.39.16-.32.14-.12,0-1,.37M21.28,6.26c.25,2,.53,4.06.8,6.19l2.53-.92c1.46-.53,1.45-.53,2.43.18a14.32,14.32,0,0,0,2.07,1.43c.13-.07.21-.1.21-.12-.06-1.83-.41-3.66-.33-5.49l-.25-.2a.47.47,0,0,0-.29,0l-.18.08-1.83.65-.9.34-.13.05a.9.9,0,0,1-1.05-.13c-.88-.7-1.85-1.38-2.79-2.08h-.29" fill="#fafdfd"/>
            </g>
          </g>
        </g>
      </g>
      <g>
        <polygon points="48.75 10.53 48.59 40.82 24.04 49.76 24.2 19.46 48.75 10.53" fill="#08ba8f"/>
        <g style="isolation: isolate">
          <g clip-path="url(#clip-path-3)">
            <g>
              <path d="M39.53,20.51c.85-.31,1.72-.72,2.57-1.05,1.08-.39,1.51.05,1.5,1.4L43.53,33.8c0,1.45-.45,2.19-1.63,2.62l-5.23,1.92-5.23,1.89c-1.19.43-1.61.06-1.61-1.44l0-6.48,0-6.47c0-1.4.4-2.07,1.51-2.47l.09,0L33,22.81l1.5-.55,1.69-.62c.93-.34,1.86-.67,2.8-.95l.55-.18m-2.76-.93c-1.85.67-3.69,1.35-5.54,2A4.75,4.75,0,0,0,28.43,26c0,4.58-.07,9.14-.07,13.71,0,2,1.13,3,2.76,2.35l6.43-2.31,4.54-1.67A4.64,4.64,0,0,0,45,33.5c0-2.2,0-4.39,0-6.58s0-4.61,0-6.91c0-2-1.1-3-2.72-2.43-1.85.66-3.7,1.32-5.55,2" fill="#fafdfd"/>
              <path d="M35,31.41A5,5,0,0,1,35.6,30l.26-.32a1.12,1.12,0,0,0,1,0l.47-.2c.17-.08.34-.16.51-.22a1.78,1.78,0,0,1,.71-.13c-.18.37-.32.68-.49,1s-.27.61-.47.68-.24,0-.41-.15-.23,0-.39,0a3,3,0,0,0-.42.18,3.4,3.4,0,0,1-.34.16L36,31l-1,.37M38.89,21,31.73,34.34l2.52-.92c1.45-.53,1.43-.52,1.1,1.35a32.83,32.83,0,0,0-.61,3.83c.15-.08.22-.11.26-.17,2.21-3.86,4.26-7.84,6.54-11.63l.12-.53c0-.11-.11-.1-.19-.07l-.2.08-1.8.65c-.3.1-.6.22-.9.34l-.13.05c-.43.16-.58.05-.42-.69.38-1.83.68-3.66,1-5.49L38.89,21" fill="#fafdfd"/>
            </g>
          </g>
        </g>
      </g>
    </g>
  </g>
</svg>
