<svg id="Capa_1" data-name="Capa 1" xmlns="http://www.w3.org/2000/svg" xmlns:xlink="http://www.w3.org/1999/xlink" width="50" height="50" viewBox="0 0 50 50">
  <defs>
    <clipPath id="clip-path">
      <polygon points="24.04 49.76 1.25 39.47 1.41 9.17 24.2 19.46 24.04 49.76" fill="none"/>
    </clipPath>
    <clipPath id="clip-path-2">
      <polygon points="24.2 19.46 1.41 9.17 25.96 0.24 48.74 10.53 24.2 19.46" fill="none"/>
    </clipPath>
    <clipPath id="clip-path-3">
      <polygon points="48.74 10.53 48.58 40.83 24.04 49.76 24.2 19.46 48.74 10.53" fill="none"/>
    </clipPath>
  </defs>
  <g id="Figment_lido">
    <g style="isolation: isolate">
      <g>
        <polygon points="24.04 49.76 1.25 39.47 1.41 9.17 24.2 19.46 24.04 49.76" fill="silver"/>
        <g style="isolation: isolate">
          <g clip-path="url(#clip-path)">
            <g>
              <path d="M12.85,24.13h0v.08q0,5.41-.11,10.83h0a1.28,1.28,0,0,0,.27.4c1.43,1.76,2.86,3.53,4.27,5.32a.67.67,0,0,0,.23.24.16.16,0,0,0,.1,0c.66.8,1.31,1.6,2,2.41a.66.66,0,0,0,.16.17c.06,0,.09,0,.09-.24,0-3.5.06-7,.1-10.51-.92-1.13-1.85-2.26-2.77-3.4l-4-5a.88.88,0,0,1-.2-.29s0,0,0,0h0" fill="#1a8e5c"/>
              <path d="M5.69,26.36h0c0,.95,0,1.91,0,2.86l0,2.4,0,3.17,0,2.37c.93-.26,1.81-.52,2.68-.78l.06,0a.27.27,0,0,0,.25,0l3.9-1.17a.25.25,0,0,0,.23-.19h0a6.1,6.1,0,0,0-.83-1.1q-2.58-3.21-5.18-6.41l-.93-1.16" fill="#fefefe"/>
              <path d="M19.91,22l-1,.31a.54.54,0,0,0-.28,0c-1.07.32-2.15.62-3.21,1-.72.21-1.43.41-2.13.63-.15,0-.33,0-.42.21,0,0,0,0,0,0a.88.88,0,0,0,.2.29l4,5c.92,1.14,1.85,2.27,2.77,3.4,0-3.51.09-7,.12-10.55L19.91,22" fill="#fefefe"/>
              <path d="M5.76,15.5v1l0,2.48,0,2.48,0,1.58,0,2.33c0,.33,0,.65,0,1h0a11.09,11.09,0,0,1,1.66-.54l5.38-1.61h.07v-.08a1,1,0,0,0-.22-.34c-.73-.92-1.48-1.82-2.21-2.74S8.7,19,7.86,18a3.51,3.51,0,0,0-.66-.72c-.46-.57-.93-1.12-1.44-1.74" fill="#1a8e5c"/>
              <path d="M12.8,24.21h-.07L7.35,25.82a11.09,11.09,0,0,0-1.66.54l.93,1.16q2.6,3.19,5.18,6.41a6.1,6.1,0,0,1,.83,1.1h.06q.06-5.41.11-10.83" fill="#bfdabc"/>
            </g>
          </g>
        </g>
      </g>
      <g>
        <polygon points="24.2 19.46 1.41 9.17 25.96 0.24 48.74 10.53 24.2 19.46" fill="#d3d3d3"/>
        <g style="isolation: isolate">
          <g clip-path="url(#clip-path-2)">
            <g>
              <path d="M21.83,7.85h0v0h0l0,0,8,3.62,0,0a3,3,0,0,0,.52,0q3.6-.33,7.23-.62a1.73,1.73,0,0,0,.35-.05.26.26,0,0,0,.09,0l3.29-.3a.79.79,0,0,0,.26,0c.06,0,0-.06-.11-.13C38.86,9.18,36.27,8,33.68,6.83L29,7.26q-3.4.29-6.79.6a1.51,1.51,0,0,1-.37,0s0,0,0,0h0" fill="#1a8e5c"/>
              <path d="M18.06,12.55h0l2.11,1,1.77.81,2.35,1.05,1.76.8c.51-.6,1-1.18,1.46-1.75l.07,0a.31.31,0,0,0,.17-.14l2.09-2.55c.06-.06.12-.12,0-.19h0a11.78,11.78,0,0,0-1.45.1l-8.74.77-1.57.13" fill="#fefefe"/>
              <path d="M25.64,3.25l-.54.66a.94.94,0,0,0-.22.15c-.57.7-1.17,1.4-1.73,2.1L22,7.54c-.07.1-.22.2-.16.31s0,0,0,0a1.51,1.51,0,0,0,.37,0q3.39-.32,6.79-.6l4.66-.43L25.87,3.3l-.23,0" fill="#fefefe"/>
              <path d="M10,8.94l.74.34,1.84.83,1.84.83,1.17.53,1.72.78.74.32h0a8.34,8.34,0,0,1,.85-1.1Q20.35,9.7,21.8,8l.05,0,0,0h0a1.54,1.54,0,0,0-.43,0c-1.25.1-2.49.22-3.74.33l-4.22.37a7,7,0,0,0-1,.13L10,8.94" fill="#1a8e5c"/>
              <path d="M21.85,7.9,21.8,8q-1.46,1.74-2.89,3.5a8.34,8.34,0,0,0-.85,1.1l1.57-.13,8.74-.77a11.78,11.78,0,0,1,1.45-.1h0l0,0-8-3.62" fill="#bfdabc"/>
            </g>
          </g>
        </g>
      </g>
      <g>
        <polygon points="48.74 10.53 48.58 40.83 24.04 49.76 24.2 19.46 48.74 10.53" fill="#d8d8d8"/>
        <g style="isolation: isolate">
          <g clip-path="url(#clip-path-3)">
            <g>
              <path d="M37.15,24.66l0,0,0,0v.08c0,3.56,0,7.13,0,10.71l-.05,0c.07.1.2.12.31.16,1.56.51,3.12,1,4.66,1.6.08,0,.16.07.25,0a.23.23,0,0,0,.11-.07l2.14.7a.25.25,0,0,0,.18,0c.06,0,.09-.1.09-.3,0-3.47,0-6.93,0-10.4-1-.32-2-.64-3-1-1.46-.49-2.93-1-4.4-1.45-.08,0-.17,0-.21-.13a.17.17,0,0,1,0-.05h0" fill="#1a8e5c"/>
              <path d="M29.41,32.93h0l0,2.85,0,2.37v5.49l2.91-3,.06,0a.64.64,0,0,0,.27-.23c1.4-1.48,2.81-3,4.22-4.44a.83.83,0,0,0,.25-.39h0a2.36,2.36,0,0,0-.91-.37q-2.82-1-5.66-1.89l-1-.34" fill="#fefefe"/>
              <path d="M44.8,16.62c-.36.39-.73.77-1.09,1.15a2.34,2.34,0,0,0-.31.24c-1.16,1.22-2.33,2.44-3.48,3.67-.77.81-1.54,1.61-2.3,2.42a1.79,1.79,0,0,0-.45.56.17.17,0,0,0,0,.05c0,.1.13.1.21.13,1.47.47,2.94,1,4.4,1.45,1,.34,2,.66,3,1,0-3.48,0-7,.06-10.45l-.06-.2" fill="#fefefe"/>
              <path d="M29.41,22.21V32c0,.32,0,.63,0,.95h0C30,32.22,30.6,31.62,31.2,31L37,24.85l.08-.06v-.08c-.05-.11-.15-.12-.24-.15-.8-.28-1.62-.53-2.42-.81s-1.82-.62-2.74-.9A1.34,1.34,0,0,0,31,22.7l-1.57-.49" fill="#1a8e5c"/>
              <path d="M37.1,24.79l-.08.06L31.2,31c-.6.64-1.22,1.24-1.79,1.95l1,.34q2.84.93,5.66,1.89a2.36,2.36,0,0,1,.91.37h0l.05,0c0-3.58,0-7.15,0-10.71" fill="#bfdabc"/>
            </g>
          </g>
        </g>
      </g>
    </g>
  </g>
</svg>
