<svg id="Capa_1" data-name="Capa 1" xmlns="http://www.w3.org/2000/svg" xmlns:xlink="http://www.w3.org/1999/xlink" width="50" height="50" viewBox="0 0 50 50">
  <defs>
    <clipPath id="clip-path">
      <polygon points="24.05 49.76 1.26 39.47 1.42 9.17 24.2 19.46 24.05 49.76" fill="none"/>
    </clipPath>
    <clipPath id="clip-path-2">
      <polygon points="24.2 19.46 1.42 9.17 25.96 0.24 48.75 10.53 24.2 19.46" fill="none"/>
    </clipPath>
    <clipPath id="clip-path-3">
      <polygon points="48.75 10.53 48.59 40.83 24.05 49.76 24.2 19.46 48.75 10.53" fill="none"/>
    </clipPath>
  </defs>
  <g id="Figment_lido">
    <g style="isolation: isolate">
      <g>
        <polygon points="24.05 49.76 1.26 39.47 1.42 9.17 24.2 19.46 24.05 49.76" fill="#1c38a0"/>
        <g style="isolation: isolate">
          <g clip-path="url(#clip-path)">
            <g>
              <path d="M7.62,22.75h0m2.74,14.32c-.12,0-.1-.21-.13-.33s0-.23.08-.19h0c.14.06.16.25.22.4s-.08.13-.14.12h0m3,1a1.59,1.59,0,0,0-.23-.45c.18.12.37.19.27.35l0,.1M10.62,22.45a1,1,0,0,0-.23-.08,2.29,2.29,0,0,1-.69-.14,1,1,0,0,1-.17-.1A.55.55,0,0,0,9.39,22,.63.63,0,0,0,9,22,.45.45,0,0,1,8.41,22h0s-.12.07-.14.15-.07.15-.16.11l-.07,0a.56.56,0,0,0-.13-.07c-.34-.15-.37.16-.27.64a1.83,1.83,0,0,0,.3.27c.06,0,.12,0,.15,0,.2-.31.55-.22.79-.11L9,23l.13.07a3.27,3.27,0,0,0,.47.16,4.91,4.91,0,0,1,.5.17,2,2,0,0,1,.69.54,2.2,2.2,0,0,0-.36-.28.21.21,0,0,0-.19,0c-.34.14-.75-.09-1.11-.13s-.64.16-1,.07a1.18,1.18,0,0,0-.76.28,11.8,11.8,0,0,0-1,.84c-.2.19-.28.64-.57.75v.22c.12.32.09.4-.16.32s-.25.12-.2.38a.48.48,0,0,0,.25.38l.07,0c.19.05.26-.12.21-.35s-.05-.39.17-.29c.07,0,.21,0,.21-.09,0-.58.56-.32.53-.88L7,25.05c.42.1.66-.3,1-.36.05,0,.08-.07.12-.05a.14.14,0,0,1,.06.07c.07.12,0,.25,0,.25-.35,0-.51.33-.75.54a13.34,13.34,0,0,0-.77,1.1c-.19.31-.25.81-.45,1s0,1.17-.35,1.35l0,.18c.14.27.08.37,0,.49s-.1.34,0,.57a.58.58,0,0,0,.22.24.26.26,0,0,0,.15,0c.16-.05.19-.22.16-.46s-.16-.27-.07-.41a3.3,3.3,0,0,0,.44-1.45c0-.13,0-.18.13-.15l0,0c.09.07.12.25.08.28-.27.19-.13.64-.18,1a4.64,4.64,0,0,0,.06,2.12l-.06.2a.74.74,0,0,0,.12.66c.12.16.15.27.07.42a.54.54,0,0,0,.07.54c.32.41,0,1.15.61,1.4v.1c-.17.48.11.67.4.88h0c0-.26.25-.49,0-.82a.48.48,0,0,1-.15-.52.59.59,0,0,0-.18-.53c-.23-.2-.11-.31-.06-.44s0-.18.06-.16l.07.06c.09.11.24.2.21.43a.85.85,0,0,0,.32.79.4.4,0,0,1,.13.34.8.8,0,0,0,.33.66c.08.07.18.1.19.28.06.67.71.78.82,1.43l.08.06.13,0a.35.35,0,0,1,.11,0s.06,0,.08.13c.06.3.15.43.26.47s.3,0,.45,0c0,.3,0,.64.24.73a.26.26,0,0,0,.15,0,.56.56,0,0,1,.2,0c.09,0,.14.14.21.34a.36.36,0,0,0,.17.22.19.19,0,0,0,.19,0c.12-.07.15-.24,0-.47a.53.53,0,0,0-.2-.25.18.18,0,0,0-.16,0,1.64,1.64,0,0,0-.23.16c0-.34-.07-.67-.3-.78l-.13,0c-.06,0-.12,0-.17,0s-.08-.08-.08-.22-.18-.33,0-.38a.41.41,0,0,1,.22,0,.41.41,0,0,1,.16.18.78.78,0,0,0,.4.42l.22.07L12,38a.86.86,0,0,1,.33.26l0,0,.11,0,.14,0a.54.54,0,0,1,.26.29.1.1,0,0,0,.06.05.11.11,0,0,0,.14,0,.62.62,0,0,0,.25-.35c0,.11.13.22.17.34l.17.11a.24.24,0,0,0,.29,0c.22-.24.78.45.83-.27l.13.14a.44.44,0,0,0,.18.14c.1.05.19,0,.24-.12a.66.66,0,0,0-.14-.58.58.58,0,0,0-.15-.13.2.2,0,0,0-.27.15c0,.13-.08.17-.12.15s-.13-.16-.2-.22a.24.24,0,0,0-.36.14c0,.07-.06.09-.09.07s-.11-.15-.16-.2a.26.26,0,0,1-.11-.27c0-.08.07-.1.13-.08l.09.07a.38.38,0,0,0,.11.08c.15.07.26,0,.38-.07l0-.15a.47.47,0,0,0,.09.06c.43.19.54-.54,1-.39,0,0,.12-.13.14-.23s0-.26.21-.22.31-.18.32-.48l0-.11.11,0a.43.43,0,0,0,.37-.21c0-.35-.11-.61-.35-.71l-.11,0-.08,0a.2.2,0,0,1-.1-.15.22.22,0,0,1,.08-.22c.3-.33.27-1,.43-1.42,0-.13-.16-.32-.06-.4.38-.31-.09-1.14.16-1.51-.32-.44-.09-.7-.06-1s-.4-.4-.3-.64c.21-.54-.1-.76-.43-1a.48.48,0,0,1,.1-.15c.15-.11.18-.29,0-.55A.42.42,0,0,0,15.8,28a.16.16,0,0,0-.2.05.46.46,0,0,0,.05.6c.19.21.12.32.16.53A13.55,13.55,0,0,1,16,30.68l.1.17V31c-.32.28,0,.94-.12,1.39s-.14.91-.25,1.23a2.88,2.88,0,0,1-.93,1.47,1.84,1.84,0,0,1-1.51.53c-.31-.07-.64-.27-.93-.21a.71.71,0,0,1-.4-.07,2.11,2.11,0,0,1-.49-.33A6.32,6.32,0,0,1,10,33.43a7.28,7.28,0,0,1-.86-2.16,5.31,5.31,0,0,1,0-2.14,1.91,1.91,0,0,1,1.38-1.7,2,2,0,0,1,1.29.15,3.84,3.84,0,0,1,1.47,1.3,5.46,5.46,0,0,1,1.1,2.81c0,.2-.11.43.09.59l0,0c.14.06.22-.15.29-.27a4.62,4.62,0,0,0,.25-3.65,9.85,9.85,0,0,0-1.64-3.49c-.32-.45-.76-.65-1-1.25-.25-.18-.55-.16-.73-.61a.71.71,0,0,1-.25-.06,2,2,0,0,1-.41-.26,2.46,2.46,0,0,0-.43-.26" fill="#f3f5fb"/>
              <path d="M7.62,22.75h0m-.4-.45c-.12-.05-.18.09-.24.45,0,.13-.06.16-.09.14s-.11-.11-.16-.14l-.05,0c-.15-.07-.25,0-.26.23a.48.48,0,0,0,.21.43l0,0c.13.06.2,0,.24-.19s0-.27.07-.33a.83.83,0,0,0,.26.25c.19.08.29-.11.37-.39a1.57,1.57,0,0,0-.4-.45" fill="#f3f5fb"/>
              <path d="M6.13,31.66c-.17-.07-.28,0-.27.25a.47.47,0,0,0,.25.46l0,0c.16.06.24,0,.24-.26a.5.5,0,0,0-.25-.46h0" fill="#f3f5fb"/>
              <path d="M6.07,30.6h0c-.2-.08-.3.05-.29.32a.53.53,0,0,0,.27.47l0,0c.18.06.27-.06.27-.33s-.1-.4-.27-.47" fill="#f3f5fb"/>
              <path d="M8.62,36.6h0m.09-.09v0h0l0,0m-.44-.87-.18,0h0a.89.89,0,0,0,.53,1v-.14s0,0,0,0,0,.05.05.07a1,1,0,0,0-.44-.87" fill="#f3f5fb"/>
              <path d="M12.65,39l0,0c-.16,0-.26.06-.22.29s.06.4.21.47h0c.16,0,.22-.14.27-.33a.53.53,0,0,0-.25-.42" fill="#f3f5fb"/>
              <path d="M15.44,27c-.15,0-.25,0-.25.24a.52.52,0,0,0,.26.5h0c.18.07.26-.06.25-.3a.51.51,0,0,0-.28-.45" fill="#f3f5fb"/>
              <path d="M8.63,36.61h0m.11,0c0,.07,0,.09-.06.07l0,0v.22a.51.51,0,0,0,.24.52h0c.14.07.23,0,.24-.2a.49.49,0,0,0-.28-.5l0,0a.13.13,0,0,1-.08-.07m0,0h0l0,0a.09.09,0,0,1,0,0" fill="#f3f5fb"/>
              <path d="M13.29,39.3h0c-.06.07-.12.15-.19.22v.08l.05.15.07.14.11.07a.23.23,0,0,0,.31-.09.63.63,0,0,0-.34-.56" fill="#f3f5fb"/>
              <path d="M5.41,26.81c-.17-.07-.25,0-.26.22a.47.47,0,0,0,.22.43.05.05,0,0,0,0,0c.13.06.22,0,.24-.2a.49.49,0,0,0-.24-.47" fill="#f3f5fb"/>
              <path d="M6.3,32.73c-.17,0-.24.06-.23.29a.41.41,0,0,0,.22.36l0,0c.13.05.22,0,.22-.22a.47.47,0,0,0-.24-.45" fill="#f3f5fb"/>
              <path d="M15,26c-.15-.05-.24,0-.23.25a.43.43,0,0,0,.24.4c.14.07.23,0,.25-.17A.5.5,0,0,0,15,26" fill="#f3f5fb"/>
              <path d="M9.45,37.59c-.14-.06-.22,0-.23.2a.44.44,0,0,0,.23.43h0c.14.05.2,0,.22-.23a.5.5,0,0,0-.25-.41" fill="#f3f5fb"/>
              <path d="M5.19,27.71h0c-.15-.06-.2.06-.22.23s.1.33.23.38h0c.15,0,.2-.08.18-.28a.37.37,0,0,0-.2-.33" fill="#f3f5fb"/>
              <path d="M6.12,23.19c-.12-.05-.2,0-.21.18a.41.41,0,0,0,.22.42c.12.06.18,0,.21-.19a.45.45,0,0,0-.22-.41" fill="#f3f5fb"/>
              <path d="M14.51,25.09c-.13-.06-.21,0-.22.19a.45.45,0,0,0,.21.42c.13.05.23,0,.24-.17a.46.46,0,0,0-.21-.43h0" fill="#f3f5fb"/>
              <path d="M10.07,38.42c-.09,0-.17,0-.18.15a.4.4,0,0,0,.19.43h0c.11,0,.18,0,.2-.17a.43.43,0,0,0-.18-.39l0,0" fill="#f3f5fb"/>
              <path d="M14.06,39.58c-.12-.06-.19.05-.17.37a.68.68,0,0,0,.24.23c.13.06.17-.1.16-.4a.91.91,0,0,0-.23-.2" fill="#f3f5fb"/>
              <path d="M13.94,24.26c-.12-.05-.2,0-.2.19a.4.4,0,0,0,.2.36c.12.05.19,0,.21-.15a.4.4,0,0,0-.18-.38l0,0" fill="#f3f5fb"/>
              <path d="M5.08,28.67h0c-.1,0-.16,0-.17.17a.36.36,0,0,0,.21.37c.09,0,.18,0,.17-.19a.39.39,0,0,0-.18-.34" fill="#f3f5fb"/>
              <path d="M6.58,33.83c-.11,0-.19,0-.22.15a.45.45,0,0,0,.19.43l0,0c.1,0,.18,0,.2-.15a.46.46,0,0,0-.2-.45" fill="#f3f5fb"/>
              <path d="M10.76,39.16h0c-.1,0-.16,0-.16.16a.36.36,0,0,0,.18.34h0c.12.05.18,0,.18-.19s-.08-.27-.18-.31" fill="#f3f5fb"/>
              <path d="M14.79,39.69c-.11,0-.16.08-.2.22a.63.63,0,0,0,.27.32l.05,0a.33.33,0,0,0,0-.46l-.12-.1" fill="#f3f5fb"/>
              <path d="M6.94,34.92l0,0c-.1,0-.17,0-.17.17a.36.36,0,0,0,.18.34h0c.12,0,.19,0,.19-.22a.33.33,0,0,0-.17-.28" fill="#f3f5fb"/>
              <path d="M13.33,23.48h0c-.11,0-.16,0-.16.18a.36.36,0,0,0,.16.33h0c.12.05.18,0,.21-.17a.4.4,0,0,0-.19-.34" fill="#f3f5fb"/>
              <path d="M17.1,29.09c-.05,0-.1,0-.15.07s0,.34.14.48.19-.09.22-.25a.74.74,0,0,0-.21-.3" fill="#f3f5fb"/>
              <path d="M5.64,23.79c-.09,0-.16,0-.17.11a.34.34,0,0,0,.16.36h0c.09,0,.15,0,.17-.14a.39.39,0,0,0-.16-.33h0" fill="#f3f5fb"/>
              <path d="M17,33.85a1.19,1.19,0,0,0-.33,0c0,.35,0,.68.35.87.18,0,.34-.15.21-.53a.47.47,0,0,0-.23-.3" fill="#f3f5fb"/>
              <path d="M17.22,33h0c-.15-.06-.25,0-.25.24a.53.53,0,0,0,.27.51c.17,0,.26,0,.26-.24a.49.49,0,0,0-.26-.5" fill="#f3f5fb"/>
              <path d="M16.69,34.58c-.08,0-.16,0-.23.09a.61.61,0,0,0,.23.78c.28.09.36-.11.33-.46a.85.85,0,0,0-.33-.41" fill="#f3f5fb"/>
              <path d="M16,38h0m-.3-.21c-.12-.05-.21,0-.24.2a.48.48,0,0,0,.24.53h0c.18.08.29,0,.28-.3V38l-.16-.11-.14-.1" fill="#f3f5fb"/>
              <path d="M17.32,32.09c-.14-.06-.23,0-.24.22a.58.58,0,0,0,.25.48c.16,0,.25,0,.24-.27a.47.47,0,0,0-.22-.42h0" fill="#f3f5fb"/>
              <path d="M17.36,31.12c-.14-.06-.24,0-.24.21a.44.44,0,0,0,.23.42c.14,0,.22,0,.22-.21a.46.46,0,0,0-.21-.42" fill="#f3f5fb"/>
              <path d="M16.11,37.9s-.05,0-.08.05h0c.06,0,.09,0,.09-.05h0m.23-.44c-.13-.05-.21,0-.25.19s.05.19,0,.26.1.17.16.19h0c.13.07.24.06.28-.13a.49.49,0,0,0-.2-.49l-.05,0" fill="#f3f5fb"/>
              <path d="M16.87,37.05c-.13-.06-.22,0-.23.18a.49.49,0,0,0,.22.43h0c.13.06.19-.05.23-.19a.46.46,0,0,0-.22-.42h0" fill="#f3f5fb"/>
              <path d="M17.33,36.49c-.13,0-.2,0-.2.18a.37.37,0,0,0,.2.37h0c.13,0,.18,0,.17-.22a.36.36,0,0,0-.2-.34" fill="#f3f5fb"/>
              <path d="M17.29,30.15a.65.65,0,0,0-.19,0h0c0,.21-.09.43.17.58h0c.11.05.19,0,.18-.19s-.09-.32-.18-.36" fill="#f3f5fb"/>
              <path d="M17.71,35.83c-.09,0-.18,0-.19.15a.4.4,0,0,0,.19.36c.1,0,.17,0,.18-.14a.35.35,0,0,0-.18-.37" fill="#f3f5fb"/>
              <path d="M17.23,23.69s0,0-.06,0a3.07,3.07,0,0,0-.08,2.49,3.39,3.39,0,0,0,1.63,2.1l.25.09c1.33.36,2.06-1.4,1.34-3.25,0-.06,0-.1-.06-.11a.08.08,0,0,0-.07,0l-1.34.47a.21.21,0,0,1-.11,0,.32.32,0,0,1-.09-.08L17.3,23.75l-.07-.06" fill="#fff"/>
              <path d="M18.69,24.42c-.27-.34-.53-.67-.8-1l0-.13.86-1.42,0,0,.06.12.72,1.87c0,.11.12.26.1.32s-.12.07-.19.1-.42.14-.63.21l-.12,0m.07-3.33-1.3,2.16,0,.13,1.19,1.48.12.05c.39-.13.79-.27,1.19-.39l0-.16c-.16-.4-.31-.8-.47-1.22-.26-.67-.51-1.34-.78-2.05" fill="#fff"/>
            </g>
          </g>
        </g>
      </g>
      <g>
        <polygon points="24.2 19.46 1.42 9.17 25.96 0.24 48.75 10.53 24.2 19.46" fill="#1e3eb0"/>
        <g style="isolation: isolate">
          <g clip-path="url(#clip-path-2)">
            <g>
              <path d="M16.19,10.44h0m12.68,3.22a.49.49,0,0,1-.34,0c-.1,0-.19-.06-.08-.1h0a1.07,1.07,0,0,1,.47,0c.13,0,0,.08,0,.11l0,0m3-1.3a2.33,2.33,0,0,0-.5,0c.22-.06.42-.14.47,0a.09.09,0,0,0,0,0M18.27,8.7,18,8.8a3.32,3.32,0,0,1-.63.33l-.21.06L17,9.24a.81.81,0,0,0-.33.24.61.61,0,0,1-.3.23l-.19,0h0s0,.09,0,.13.06.08,0,.12l-.07,0-.16.05c-.37.14-.17.26.27.36a2.54,2.54,0,0,0,.43-.08c.06,0,.1,0,.08-.09-.08-.21.26-.37.53-.47l.19-.06.14-.05c.17-.06.33-.14.49-.21a4.9,4.9,0,0,1,.51-.21,3.14,3.14,0,0,1,.93-.2,3,3,0,0,0-.49.1.49.49,0,0,0-.16.1c-.15.23-.63.38-.94.57s-.38.4-.74.58a.89.89,0,0,0-.38.51,5,5,0,0,0-.17.84c0,.18.26.37.12.56l.15.08c.33,0,.37.09.12.19s-.11.18.12.24a.78.78,0,0,0,.48,0l.06,0c.19-.09.12-.19-.1-.24s-.32-.1-.08-.18c.08,0,.14-.13.1-.15-.46-.17.19-.41-.24-.58l0-.1c.39-.2.29-.46.53-.68,0,0,0-.06.05-.08h.09c.15,0,.21.07.16.1-.27.19-.14.39-.17.59a3.8,3.8,0,0,0,.22.78c.08.21.41.41.4.58s.9.36.72.64l.16,0c.3,0,.34.08.33.19s.17.17.43.18a1.13,1.13,0,0,0,.34,0,.32.32,0,0,0,.13-.08c.08-.11,0-.18-.21-.24s-.33,0-.36-.1a1.61,1.61,0,0,0-.74-.72c-.08,0-.09-.08,0-.11l.07,0c.13,0,.28,0,.27,0-.07.21.38.28.58.41A3.72,3.72,0,0,0,22,13.7l.1.1a.75.75,0,0,0,.58.15c.21,0,.32,0,.36.1a.56.56,0,0,0,.46.14c.55,0,.88.35,1.5.12l.07,0c.23.25.59.16,1,.07h0c-.17-.1-.16-.3-.62-.25-.3,0-.38,0-.51-.09a.7.7,0,0,0-.52-.08c-.33.06-.32,0-.38-.11s-.13-.06-.06-.09H24c.15,0,.34-.07.48,0a1.18,1.18,0,0,0,.83.09.46.46,0,0,1,.34,0,1.27,1.27,0,0,0,.75,0,.62.62,0,0,1,.36,0c.54.19,1.12-.13,1.68,0,0,0,.06,0,.1,0l.14-.06.1-.05a.28.28,0,0,1,.16,0,.92.92,0,0,0,.55,0c.15,0,.23-.16.37-.23a1,1,0,0,0,.73.1l.13-.07a.5.5,0,0,1,.17-.1.76.76,0,0,1,.41,0,.54.54,0,0,0,.29,0,.27.27,0,0,0,.14-.11c0-.09-.07-.16-.31-.18a.86.86,0,0,0-.34,0,.23.23,0,0,0-.12.08,1.45,1.45,0,0,0-.06.19,1.19,1.19,0,0,0-.8-.1L30,13.5a1.21,1.21,0,0,1-.14.1.27.27,0,0,1-.22,0c-.1,0-.39,0-.31-.1a.43.43,0,0,1,.16-.13.84.84,0,0,1,.26,0,1.37,1.37,0,0,0,.61-.08l.22-.09.22-.09a1.42,1.42,0,0,1,.45-.1h0l.11,0,.14-.07a1,1,0,0,1,.41,0l.09,0a.12.12,0,0,0,.09-.09.22.22,0,0,0-.07-.25c.12,0,.26,0,.38,0a.65.65,0,0,0,.21-.06c.12,0,.19-.09.19-.17s.94-.27.45-.54l.2,0a1.37,1.37,0,0,0,.25-.05c.11,0,.16-.1.09-.17a.75.75,0,0,0-.54-.11.94.94,0,0,0-.2,0c-.14.05-.17.14-.11.2s.07.1,0,.12-.21,0-.31,0-.25.15-.18.25,0,.06,0,.07a2.28,2.28,0,0,1-.27,0A.39.39,0,0,1,32,12s0-.08,0-.1l.12,0,.15,0c.16-.06.18-.15.24-.24l-.08-.07.12,0c.47-.17,0-.48.45-.66.06,0,0-.11-.06-.15s-.16-.12,0-.19.1-.23-.11-.34h-.1l.1-.06A.23.23,0,0,0,33,9.83a1.14,1.14,0,0,0-.79,0l-.12.05-.07,0a.3.3,0,0,1-.19,0c-.11,0-.1-.07-.11-.11,0-.27-.49-.47-.71-.71-.12,0-.35,0-.34-.1.07-.31-.91-.32-1-.58-.57,0-.59-.18-.81-.31s-.61.09-.71-.05-.64-.2-1.08-.09c0,0,0-.08,0-.11s-.07-.2-.41-.18a.75.75,0,0,0-.24,0c-.08,0-.13.07-.12.13s.22.2.48.17a.91.91,0,0,1,.51.08,12.46,12.46,0,0,1,1.26.4h.2l.15.06c0,.26.68.32.93.53a7.11,7.11,0,0,1,.72.54,1,1,0,0,1,.36,1,1.34,1.34,0,0,1-.76,1,4,4,0,0,0-.88.44,1,1,0,0,1-.35.19,2.91,2.91,0,0,1-.63.16,11.43,11.43,0,0,1-2.32.28,9.55,9.55,0,0,1-2.26-.24,4.15,4.15,0,0,1-1.57-.71c-.61-.45-.58-.92-.19-1.32A2.87,2.87,0,0,1,23,9.73a7.38,7.38,0,0,1,2.09-.38A7.47,7.47,0,0,1,28,9.68c.16.05.23.2.5.14h0c.15-.06.06-.17,0-.25-.23-.63-1.12-1.05-2.51-1.34A15.11,15.11,0,0,0,22.22,8a8.27,8.27,0,0,1-1.66.13,2.64,2.64,0,0,1-1,.2,1.08,1.08,0,0,1-.24.11,3.29,3.29,0,0,1-.5.14c-.18,0-.37.09-.53.15" fill="#f3f5fb"/>
              <path d="M16.19,10.44h0m-.64.08c-.13.05-.07.13.14.28s.08.08,0,.1l-.23,0h-.05c-.17.07-.18.14,0,.22a.67.67,0,0,0,.49,0l.06,0c.13,0,.14-.12,0-.19s-.23-.07-.2-.15a1.37,1.37,0,0,0,.39-.06c.21-.08.15-.2,0-.34a2.68,2.68,0,0,0-.64.08" fill="#f3f5fb"/>
              <path d="M21.62,14.2c-.18.07-.19.16,0,.23a.69.69,0,0,0,.53,0l.05,0c.16-.07.14-.15,0-.22a.8.8,0,0,0-.53,0h0" fill="#f3f5fb"/>
              <path d="M20.79,13.88h0c-.21.09-.2.19,0,.27a.86.86,0,0,0,.55,0h0c.18-.08.17-.17,0-.26a1.06,1.06,0,0,0-.56,0" fill="#f3f5fb"/>
              <path d="M27.19,14.46h0m0-.08h0m-1,0-.18.08h0a1.34,1.34,0,0,0,1.16,0l-.1-.05s0,0,0,0h.1a1.45,1.45,0,0,0-1,0" fill="#f3f5fb"/>
              <path d="M32.05,13l0,0c-.15.08-.16.17.05.22a.94.94,0,0,0,.5,0l0,0c.15-.07.06-.16,0-.25a.89.89,0,0,0-.51,0" fill="#f3f5fb"/>
              <path d="M25.33,7.55c-.14.06-.17.14,0,.21a.75.75,0,0,0,.57,0h0c.2-.08.17-.17,0-.24a.77.77,0,0,0-.54,0" fill="#f3f5fb"/>
              <path d="M27.2,14.46h0m.06-.07c.06,0,0,0,0,0l-.06,0,.16.07a.69.69,0,0,0,.57,0h0c.16-.06.17-.13,0-.2a.77.77,0,0,0-.58,0l-.06,0-.11,0m-.05,0h0" fill="#f3f5fb"/>
              <path d="M32.78,12.78h0a1.09,1.09,0,0,1,0,.18l.07,0L33,13h.16l.14,0c.13-.05.18-.11.17-.19a.91.91,0,0,0-.67,0" fill="#f3f5fb"/>
              <path d="M17.49,13c-.19.07-.19.14,0,.22a.72.72,0,0,0,.48,0l.05,0c.14-.05.16-.12,0-.2a.74.74,0,0,0-.53,0" fill="#f3f5fb"/>
              <path d="M22.54,14.46c-.15.08-.14.15,0,.22a.66.66,0,0,0,.44,0h0c.14-.05.16-.13,0-.19a.71.71,0,0,0-.52,0" fill="#f3f5fb"/>
              <path d="M24.29,7.47c-.15.06-.16.13,0,.2a.66.66,0,0,0,.48,0c.16-.06.19-.13.06-.2a.74.74,0,0,0-.55,0" fill="#f3f5fb"/>
              <path d="M28.56,14.33c-.16.06-.16.13,0,.19a.64.64,0,0,0,.49,0h0c.14-.06.12-.13,0-.2a.75.75,0,0,0-.49,0" fill="#f3f5fb"/>
              <path d="M18,13.42h0c-.16.07-.11.13,0,.2a.8.8,0,0,0,.46,0h0c.14-.07.09-.14-.07-.2a.61.61,0,0,0-.4,0" fill="#f3f5fb"/>
              <path d="M15.37,11.41c-.14.05-.14.12,0,.18a.65.65,0,0,0,.48,0c.14,0,.13-.11,0-.18a.69.69,0,0,0-.47,0" fill="#f3f5fb"/>
              <path d="M23.22,7.44c-.14,0-.14.12,0,.18a.68.68,0,0,0,.47,0c.14-.06.2-.12.06-.19a.63.63,0,0,0-.47,0h0" fill="#f3f5fb"/>
              <path d="M29.65,14.26c-.11,0-.13.1,0,.16a.55.55,0,0,0,.46,0h0c.13,0,.12-.11,0-.17a.6.6,0,0,0-.42,0h0" fill="#f3f5fb"/>
              <path d="M33.57,12.45c-.14.05-.1.12.15.22a1.19,1.19,0,0,0,.36-.06c.14,0,.05-.12-.18-.22l-.33.06" fill="#f3f5fb"/>
              <path d="M22.17,7.47c-.13,0-.16.11,0,.18a.61.61,0,0,0,.42,0c.14-.05.15-.11.06-.16a.61.61,0,0,0-.42,0h0" fill="#f3f5fb"/>
              <path d="M18.61,13.8h0c-.1,0-.1.09,0,.15A.53.53,0,0,0,19,14c.1,0,.13-.1,0-.15a.53.53,0,0,0-.39,0" fill="#f3f5fb"/>
              <path d="M23.57,14.67c-.11,0-.15.1-.06.17a.64.64,0,0,0,.46,0l0,0c.12,0,.12-.1,0-.15a.66.66,0,0,0-.49,0" fill="#f3f5fb"/>
              <path d="M30.72,14.13l0,0c-.09,0-.1.09,0,.14a.53.53,0,0,0,.39,0h0c.13-.05.12-.11,0-.17a.58.58,0,0,0-.37,0" fill="#f3f5fb"/>
              <path d="M34.22,12.09c-.12.05-.07.12,0,.18a1.2,1.2,0,0,0,.44,0l0,0c0-.09-.06-.18-.34-.15l-.16,0" fill="#f3f5fb"/>
              <path d="M24.65,14.83l0,0c-.1,0-.1.1,0,.14a.55.55,0,0,0,.4,0h0c.13,0,.11-.11,0-.17a.56.56,0,0,0-.34,0" fill="#f3f5fb"/>
              <path d="M21.12,7.55h0c-.12.05-.1.11,0,.15a.49.49,0,0,0,.36,0h0c.13-.05.11-.11,0-.17a.72.72,0,0,0-.41,0" fill="#f3f5fb"/>
              <path d="M28.17,7.33c-.05,0-.08,0-.06.1s.25.11.46.09.08-.14,0-.21a1.11,1.11,0,0,0-.38,0" fill="#f3f5fb"/>
              <path d="M15.43,11.88c-.1,0-.14.08,0,.13a.46.46,0,0,0,.4,0h0c.11,0,.1-.09,0-.14a.5.5,0,0,0-.36,0h0" fill="#f3f5fb"/>
              <path d="M31.64,8.93a1.1,1.1,0,0,0-.28.17,1.14,1.14,0,0,0,.91.09c.1-.12.15-.23-.23-.29a.92.92,0,0,0-.4,0" fill="#f3f5fb"/>
              <path d="M31.15,8.56h0c-.16.06-.17.15,0,.22a.85.85,0,0,0,.59,0c.17-.08.17-.16,0-.23a.8.8,0,0,0-.57,0" fill="#f3f5fb"/>
              <path d="M31.91,9.36c-.09,0-.14.08-.11.16s.39.2.75.13.2-.24-.09-.34a1.71,1.71,0,0,0-.55,0" fill="#f3f5fb"/>
              <path d="M33.88,10.84h0m-.38.09c-.13.05-.15.12,0,.2a.65.65,0,0,0,.57,0h0c.21-.08.21-.17,0-.26l-.16-.07-.2.05-.19,0" fill="#f3f5fb"/>
              <path d="M30.55,8.19c-.15.06-.16.14,0,.21a.82.82,0,0,0,.54,0c.15-.07.16-.15,0-.22a.72.72,0,0,0-.48,0h0" fill="#f3f5fb"/>
              <path d="M29.87,7.86c-.16,0-.17.13,0,.2a.74.74,0,0,0,.49,0c.13-.06.15-.13,0-.19a.64.64,0,0,0-.47,0" fill="#f3f5fb"/>
              <path d="M33.91,10.78s0,0,0,.06h0c.05,0,.05-.05,0-.07h0m-.15-.27c-.14.05-.14.11,0,.19s.18,0,.22.07a2.11,2.11,0,0,0,.26,0h0c.15-.06.23-.12.12-.2a.68.68,0,0,0-.52,0l-.06,0" fill="#f3f5fb"/>
              <path d="M33.87,10.08c-.15.05-.18.12,0,.18a.74.74,0,0,0,.49,0h0c.13,0,.11-.12,0-.19a.72.72,0,0,0-.48,0h0" fill="#f3f5fb"/>
              <path d="M33.81,9.64c-.13.06-.14.12,0,.17a.56.56,0,0,0,.42,0h0c.13-.06.09-.11,0-.17a.64.64,0,0,0-.41,0" fill="#f3f5fb"/>
              <path d="M29.1,7.57l-.18.1h0a.5.5,0,0,0,.55.1h0c.12,0,.12-.11,0-.16a.62.62,0,0,0-.4,0" fill="#f3f5fb"/>
              <path d="M33.61,9.21c-.09,0-.15.1,0,.16a.57.57,0,0,0,.41,0c.11,0,.13-.09,0-.14a.52.52,0,0,0-.42,0" fill="#f3f5fb"/>
              <path d="M24.28,5.48s0,0,0,0c.21.41.78.71,1.77.86a6.05,6.05,0,0,0,2.81-.2l.25-.12c1.3-.61.56-1.58-1.36-1.8H27.6l0,0-.69.9-.08,0a.49.49,0,0,1-.14,0l-2.27.18-.1,0" fill="#fff"/>
              <path d="M25.94,4.92,24.59,5l-.11,0-.39-.93V4h.13l1.94.22a1.53,1.53,0,0,1,.32,0c.05,0,0,.09-.08.14s-.22.27-.32.42l-.13,0m-2.4-1.14c.2.49.39,1,.59,1.42l.12,0,2-.16L26.39,5,27,4.23l-.1-.06L25.65,4l-2.11-.25" fill="#fff"/>
            </g>
          </g>
        </g>
      </g>
      <g>
        <polygon points="48.75 10.53 48.59 40.83 24.05 49.76 24.2 19.46 48.75 10.53" fill="#1f3fb4"/>
        <g style="isolation: isolate">
          <g clip-path="url(#clip-path-3)">
            <g>
              <path d="M30.77,27.79h0m3,11.94c-.13.05-.11-.13-.15-.22a.2.2,0,0,1,.09-.25h0c.16,0,.18.12.24.22s-.08.19-.14.24l0,0m3.27-1.52A.45.45,0,0,0,36.8,38c.2,0,.4-.13.3.11l-.05.13M34.07,25a1.42,1.42,0,0,0-.25.12,4.42,4.42,0,0,1-.76.44.77.77,0,0,1-.19,0,.4.4,0,0,0-.15,0,1.38,1.38,0,0,0-.48.37,1.35,1.35,0,0,1-.45.36.26.26,0,0,1-.15,0h0a.71.71,0,0,0-.16.28c0,.13-.08.2-.18.24l-.07,0-.15,0c-.37.13-.4.47-.29.87a.74.74,0,0,0,.33,0,.27.27,0,0,0,.17-.16,1.43,1.43,0,0,1,.86-.78l.19-.05.14-.05c.17-.06.34-.15.51-.23a5.25,5.25,0,0,1,.55-.25,1.06,1.06,0,0,1,.76-.05,1,1,0,0,0-.39,0,.72.72,0,0,0-.22.15,4.75,4.75,0,0,1-1.21.81c-.39.26-.72.71-1.13.94a4.11,4.11,0,0,0-.84.93c-.39.55-.77,1.13-1.13,1.7A7.15,7.15,0,0,1,28.74,32l0,.24c.14.21.1.32-.16.44a.49.49,0,0,0-.23.55c0,.17.14.22.28.17l.07,0a.47.47,0,0,0,.23-.54c-.06-.23-.05-.34.19-.43a.56.56,0,0,0,.24-.27c-.05-.54.61-.79.58-1.32l.15-.19c.46-.26.73-.85,1.13-1.22.05,0,.08-.14.13-.16a.07.07,0,0,1,.06,0c.08.06,0,.24,0,.28a4,4,0,0,0-.82,1.17c-.15.23-.74,1.5-.85,1.75-.22.47-.28,1-.5,1.39-.34.6.06,1.12-.39,1.64l0,.15c.15.15.08.31-.06.53a.43.43,0,0,0,0,.55.22.22,0,0,0,.24.06.44.44,0,0,0,.17-.12.65.65,0,0,0,.18-.59c0-.13-.18-.14-.08-.35a5.78,5.78,0,0,0,.48-1.82.27.27,0,0,1,.14-.25H30c.1,0,.14.15.09.21-.3.41-.14.74-.19,1.12A3.74,3.74,0,0,0,30,37l-.07.24c-.07.27-.05.48.13.56s.17.15.08.36-.06.44.08.48c.35.14,0,1.1.67.87v.1c-.19.63.12.58.44.54h0c0-.29.28-.71,0-.79s-.21-.16-.17-.39,0-.39-.19-.39-.13-.2-.08-.38,0-.19.08-.21H31c.1,0,.27,0,.23.24s.09.53.35.53.14.09.14.22c0,.3.15.39.37.38s.2-.06.21.11c.07.63.78.19.91.73,0,0,0,0,.08,0a.69.69,0,0,0,.15-.07s.08,0,.11-.06.07,0,.09.07c.07.25.17.29.29.25a4.52,4.52,0,0,0,.49-.35c0,.3,0,.6.28.52a.57.57,0,0,0,.16-.11.85.85,0,0,1,.22-.14c.09,0,.15,0,.23.15a.14.14,0,0,0,.19.08.56.56,0,0,0,.21-.18.41.41,0,0,0,0-.51.19.19,0,0,0-.23-.07.45.45,0,0,0-.17.13c-.08.1-.14.2-.25.36,0-.31-.07-.61-.33-.52a.7.7,0,0,0-.14.08,1.86,1.86,0,0,1-.2.14s-.08,0-.08-.15-.2-.18,0-.34a.76.76,0,0,1,.24-.2.15.15,0,0,1,.17,0,.37.37,0,0,0,.44.07l.24-.11.24-.1a.45.45,0,0,1,.36,0H36l.12-.06.15-.08a.25.25,0,0,1,.29.06s0,0,.06,0A.28.28,0,0,0,36.8,39a1.4,1.4,0,0,0,.27-.55c0,.07.15.1.19.19a.65.65,0,0,0,.19,0,.63.63,0,0,0,.32-.28c.24-.43.85-.21.92-1l.13,0a.38.38,0,0,0,.21,0,.46.46,0,0,0,.26-.32.35.35,0,0,0-.16-.46.22.22,0,0,0-.16,0,.59.59,0,0,0-.3.37c0,.17-.09.24-.13.26s-.14,0-.22-.06a.7.7,0,0,0-.4.45c0,.1-.06.14-.09.15s-.12-.06-.18-.06-.16,0-.13-.18a.25.25,0,0,1,.14-.18.18.18,0,0,1,.1,0l.13,0a1.22,1.22,0,0,0,.42-.4l0-.18.1,0c.47-.17.6-1,1.06-1.21.06,0,.13-.22.15-.34s.06-.31.24-.39a.81.81,0,0,0,.35-.77l0-.07.12-.07a1.44,1.44,0,0,0,.41-.52c0-.34-.13-.51-.39-.42l-.12.06-.09.05s-.09,0-.1-.07,0-.18.08-.28a7.14,7.14,0,0,0,.47-1.77c0-.12-.17-.19-.06-.36.42-.63-.1-1.05.18-1.64-.35-.17-.1-.62-.07-1s-.44-.06-.33-.39c.24-.72-.11-.67-.48-.64a1.47,1.47,0,0,1,.11-.22c.18-.25.21-.46,0-.56a.22.22,0,0,0-.18,0,.42.42,0,0,0-.22.22c-.15.26-.13.52,0,.55s.14.22.18.39A8.27,8.27,0,0,1,40,28.58l.1.08v.19c-.35.54,0,.95-.13,1.49s-.16,1-.28,1.43a7.38,7.38,0,0,1-1,2.26A5.92,5.92,0,0,1,37,35.84a4.17,4.17,0,0,0-1,.58,1.64,1.64,0,0,1-.44.27,1.61,1.61,0,0,1-.54.08,2.48,2.48,0,0,1-1.62-.36,2.58,2.58,0,0,1-1-1.42,4.82,4.82,0,0,1,0-2.14A5.28,5.28,0,0,1,34,30,4,4,0,0,1,35.39,29,2.06,2.06,0,0,1,38.22,31c0,.19-.12.53.1.51h0c.16-.05.24-.33.33-.51A5,5,0,0,0,39,27.1,3.4,3.4,0,0,0,37.14,25c-.34-.18-.83,0-1.07-.42-.27,0-.6.3-.8,0a1.28,1.28,0,0,1-.28.15,2.39,2.39,0,0,1-.45.09,2.08,2.08,0,0,0-.47.1" fill="#f3f5fb"/>
              <path d="M30.77,27.79h0m-.44-.1c-.13,0-.2.24-.27.64,0,.16-.06.21-.1.23s-.12,0-.18,0l-.05,0a.45.45,0,0,0-.28.44c0,.19.07.29.23.25h.05a.47.47,0,0,0,.27-.39c0-.13-.05-.23.07-.39a.37.37,0,0,0,.29,0c.21-.07.32-.35.41-.7-.21-.1-.34-.14-.44-.1" fill="#f3f5fb"/>
              <path d="M29.12,37.94a.48.48,0,0,0-.3.48c0,.21.1.31.28.24l0,0a.49.49,0,0,0,.27-.46c0-.2-.11-.3-.28-.25h0" fill="#f3f5fb"/>
              <path d="M29.06,36.93h0a.53.53,0,0,0-.31.56c0,.21.13.3.29.24l0,0a.56.56,0,0,0,.31-.56c-.05-.15-.12-.3-.3-.23" fill="#f3f5fb"/>
              <path d="M31.87,40.74h0v0h0m.09-.17v0h0m-.48-.49a1.36,1.36,0,0,0-.2.11h0c-.06.57.17.71.59.56V40.6a.1.1,0,0,1,0-.06l.06,0c0-.39-.18-.59-.48-.49" fill="#f3f5fb"/>
              <path d="M36.31,39.69l-.06,0a.43.43,0,0,0-.23.47c0,.13.07.35.23.29l0,0a.71.71,0,0,0,.29-.55c0-.17-.12-.27-.26-.22" fill="#f3f5fb"/>
              <path d="M39.38,25.37a.49.49,0,0,0-.27.45c0,.23.1.34.29.27h0a.48.48,0,0,0,.28-.51c0-.2-.13-.27-.31-.21" fill="#f3f5fb"/>
              <path d="M31.88,40.73v0h0v0m.11-.11c0,.07,0,.1-.06.11l-.05,0V41c0,.24.07.37.27.31h0a.45.45,0,0,0,.27-.41c0-.24-.11-.33-.31-.26l-.05,0s-.07,0-.09,0m0,0v0l0,0a.43.43,0,0,1,0,0" fill="#f3f5fb"/>
              <path d="M37,39.46h0c-.06.13-.13.26-.2.38v.08l.05.11.08.08a.27.27,0,0,0,.12,0,.61.61,0,0,0,.34-.35c0-.26-.15-.35-.37-.27" fill="#f3f5fb"/>
              <path d="M28.33,33.72a.44.44,0,0,0-.29.44c0,.19.09.29.24.24h0a.44.44,0,0,0,.27-.4c0-.23-.09-.31-.26-.27" fill="#f3f5fb"/>
              <path d="M29.31,38.85a.46.46,0,0,0-.25.48c0,.18.1.24.23.19l0,0a.4.4,0,0,0,.25-.4c0-.22-.1-.29-.26-.25" fill="#f3f5fb"/>
              <path d="M38.91,24.78a.42.42,0,0,0-.25.44c0,.2.1.26.26.2a.4.4,0,0,0,.27-.38c0-.23-.08-.32-.28-.26" fill="#f3f5fb"/>
              <path d="M32.78,41a.41.41,0,0,0-.25.39c0,.2.08.3.25.24h0a.5.5,0,0,0,.24-.42c0-.17-.11-.26-.27-.2" fill="#f3f5fb"/>
              <path d="M28.08,34.8h0a.45.45,0,0,0-.25.41c.05.14.12.24.25.19l0,0a.41.41,0,0,0,.2-.43c0-.15-.1-.21-.23-.16" fill="#f3f5fb"/>
              <path d="M29.12,29.51a.4.4,0,0,0-.24.35c0,.2.07.29.24.24a.41.41,0,0,0,.24-.37c0-.18-.08-.27-.24-.22" fill="#f3f5fb"/>
              <path d="M38.36,24.28a.39.39,0,0,0-.24.38c0,.18.07.26.23.23a.4.4,0,0,0,.26-.37c0-.2-.08-.29-.23-.25h0" fill="#f3f5fb"/>
              <path d="M33.46,41.32a.35.35,0,0,0-.2.31c0,.19,0,.31.21.26h0a.36.36,0,0,0,.22-.34c0-.17-.06-.26-.19-.23h0" fill="#f3f5fb"/>
              <path d="M37.86,39.09c-.14,0-.21.21-.19.5a.4.4,0,0,0,.27,0c.14-.05.19-.25.17-.54a.36.36,0,0,0-.25,0" fill="#f3f5fb"/>
              <path d="M37.73,23.93a.36.36,0,0,0-.22.37c0,.16.09.22.22.18a.39.39,0,0,0,.24-.33c0-.18-.08-.26-.2-.23h0" fill="#f3f5fb"/>
              <path d="M28,35.85l0,0a.35.35,0,0,0-.18.31c0,.18.06.24.22.19a.36.36,0,0,0,.2-.33c0-.15-.09-.23-.21-.19" fill="#f3f5fb"/>
              <path d="M29.62,39.71a.4.4,0,0,0-.24.34c0,.19.05.29.2.27h0a.4.4,0,0,0,.21-.32c0-.21,0-.28-.21-.28" fill="#f3f5fb"/>
              <path d="M34.21,41.47l0,0a.34.34,0,0,0-.18.3c0,.16.07.23.2.19h0a.35.35,0,0,0,.21-.34c0-.15-.09-.2-.21-.16" fill="#f3f5fb"/>
              <path d="M38.66,38.58c-.12.05-.18.21-.22.39a.25.25,0,0,0,.3.08l0,0c.1-.19.18-.39,0-.45h-.13" fill="#f3f5fb"/>
              <path d="M30,40.49l-.06,0a.36.36,0,0,0-.18.31c0,.15.08.23.2.19h0a.37.37,0,0,0,.2-.37c0-.11-.08-.18-.18-.14" fill="#f3f5fb"/>
              <path d="M37.06,23.68h0a.33.33,0,0,0-.18.32c0,.13.06.22.18.19h0a.38.38,0,0,0,.23-.33c0-.15-.09-.23-.21-.18" fill="#f3f5fb"/>
              <path d="M41.21,26.07c-.05,0-.11.07-.16.19s0,.32.15.36a.66.66,0,0,0,.25-.44c-.08-.07-.16-.14-.24-.11" fill="#f3f5fb"/>
              <path d="M28.58,30.51a.29.29,0,0,0-.19.26c0,.17.05.27.19.21h0a.33.33,0,0,0,.19-.28c0-.15-.06-.22-.17-.19h0" fill="#f3f5fb"/>
              <path d="M41.15,30.85a1.94,1.94,0,0,0-.37.24c0,.36,0,.66.39.58.2-.22.37-.44.23-.71s-.16-.14-.25-.11" fill="#f3f5fb"/>
              <path d="M41.34,29.86h0a.48.48,0,0,0-.28.45c0,.24.11.33.3.28a.51.51,0,0,0,.29-.47c0-.23-.1-.34-.29-.27" fill="#f3f5fb"/>
              <path d="M40.76,31.87a.5.5,0,0,0-.26.29c-.18.39,0,.58.26.58a.65.65,0,0,0,.36-.74.36.36,0,0,0-.36-.13" fill="#f3f5fb"/>
              <path d="M40,35.79h0m-.33.05a.48.48,0,0,0-.27.4c0,.27.07.39.27.33h0A.5.5,0,0,0,40,36V35.8l-.18,0a.39.39,0,0,0-.15,0" fill="#f3f5fb"/>
              <path d="M41.46,28.86a.43.43,0,0,0-.27.42c0,.22.11.29.27.27a.49.49,0,0,0,.27-.47c0-.19-.1-.28-.24-.23h0" fill="#f3f5fb"/>
              <path d="M41.49,27.87a.43.43,0,0,0-.26.41c0,.19.09.25.26.21a.4.4,0,0,0,.24-.39c0-.19-.08-.29-.24-.23" fill="#f3f5fb"/>
              <path d="M40.11,35.68a.21.21,0,0,0-.08.11h0c.07,0,.1-.09.1-.13h0m.26-.63a.47.47,0,0,0-.27.39c0,.08,0,.15,0,.23s.11.08.17.06h0a.43.43,0,0,0,.31-.37c0-.23,0-.34-.22-.32l-.05,0" fill="#f3f5fb"/>
              <path d="M41,34.18a.37.37,0,0,0-.24.37c0,.2.09.29.23.25h0a.51.51,0,0,0,.25-.39c0-.18-.09-.28-.25-.23h0" fill="#f3f5fb"/>
              <path d="M41.46,33.24a.35.35,0,0,0-.22.34c0,.19.08.26.22.21l0,0a.35.35,0,0,0,.19-.36c0-.17-.09-.21-.22-.17" fill="#f3f5fb"/>
              <path d="M41.42,27l-.21.13h0c0,.25-.11.51.18.44h0a.32.32,0,0,0,.19-.34c0-.21-.1-.24-.2-.21" fill="#f3f5fb"/>
              <path d="M41.88,32.25a.35.35,0,0,0-.21.31c0,.17.08.24.21.2a.31.31,0,0,0,.2-.29c0-.16,0-.26-.2-.22" fill="#f3f5fb"/>
              <path d="M41.36,20.57s0,0-.07.1a3,3,0,0,0-.09,2.54,1.35,1.35,0,0,0,1.8.71l.28-.13c1.46-.77,2.26-3.13,1.48-4.37,0-.05,0-.07-.08-.06l-.07.06c-.49.54-1,1.07-1.48,1.6a.24.24,0,0,1-.12.09.09.09,0,0,1-.1,0l-1.48-.53s0,0-.07,0" fill="#fff"/>
              <path d="M43,20.06l-.87-.31,0-.11c.32-.7.63-1.42,1-2.13l0-.07.07.07.79,1.25c0,.08.14.15.12.23s-.14.17-.22.26L43.1,20l-.14.06M43,16.69c-.48,1.1-1,2.17-1.43,3.24l0,.11,1.3.47.14-.05,1.31-1.41,0-.17-.53-.82L43,16.69" fill="#fff"/>
            </g>
          </g>
        </g>
      </g>
    </g>
  </g>
</svg>
