<svg id="Capa_1" data-name="Capa 1" xmlns="http://www.w3.org/2000/svg" xmlns:xlink="http://www.w3.org/1999/xlink" width="50" height="50" viewBox="0 0 50 50">
  <defs>
    <clipPath id="clip-path">
      <polygon points="24.04 49.76 1.25 39.47 1.41 9.17 24.2 19.46 24.04 49.76" fill="none"/>
    </clipPath>
    <clipPath id="clip-path-2">
      <polygon points="24.2 19.46 1.41 9.17 25.96 0.24 48.74 10.53 24.2 19.46" fill="none"/>
    </clipPath>
    <clipPath id="clip-path-3">
      <polygon points="48.74 10.53 48.59 40.82 24.04 49.76 24.2 19.46 48.74 10.53" fill="none"/>
    </clipPath>
  </defs>
  <g id="Figment_lido">
    <g style="isolation: isolate">
      <g>
        <polygon points="24.04 49.76 1.25 39.47 1.41 9.17 24.2 19.46 24.04 49.76" fill="#d6d6d6"/>
        <g style="isolation: isolate">
          <g clip-path="url(#clip-path)">
            <g>
              <path d="M15.68,31.2h0m-.25-9.09L6.27,17.9c-.36-.16-.36-.16-.37.31q-.08,8-.16,16c0,.37.07.51.35.63l6.43,2.95L18,40.27c.19.09.29.1.29-.22l.06-7.32c0-.21,0-.34-.22-.42l-2.42-1.1,0,.39c0,1.23,0,2.44,0,3.66,0,.38-.07.46-.35.33-2.21-1-4.42-2-6.62-3.05-.36-.17-.36-.17-.36-.67L8.46,23c0-.55,0-.55.42-.36l4.36,2,2.18,1c.25.11.33.06.33-.29,0-.85,0-1.7,0-2.55,0-.49,0-.49-.34-.65" fill="#0d52ff"/>
              <path d="M17,26.44,15.93,26a.36.36,0,0,0-.33.09c-1,1-1.95,2-2.93,2.92l-.51.55L15.38,31a3.21,3.21,0,0,1,.3.21h0l.18-.24c.89-.9,1.78-1.77,2.66-2.67l.76-.77-.12-.09-2.15-1" fill="#0d52ff"/>
            </g>
          </g>
        </g>
      </g>
      <g>
        <polygon points="24.2 19.46 1.41 9.17 25.96 0.24 48.74 10.53 24.2 19.46" fill="#ebebeb"/>
        <g style="isolation: isolate">
          <g clip-path="url(#clip-path-2)">
            <g>
              <path d="M29.59,8.39h0M22.36,5.45,11.88,9.26c-.41.15-.41.15-.05.31L24.05,15.1a.85.85,0,0,0,.76,0l7.36-2.69,6.24-2.26c.21-.08.3-.14.06-.25L32.86,7.4a.55.55,0,0,0-.5,0l-2.76,1,.34.11c.94.42,1.86.85,2.8,1.26.3.13.3.2,0,.31l-7.59,2.76c-.42.15-.42.15-.8,0L17.52,9.72c-.42-.19-.42-.19.05-.36l5-1.82,2.5-.9c.28-.11.31-.17,0-.29-.67-.28-1.3-.59-1.95-.88a.69.69,0,0,0-.78,0" fill="#0d52ff"/>
              <path d="M27,6l-1.23.45a.3.3,0,0,0-.19.22c0,.89,0,1.78-.05,2.67,0,.15,0,.31,0,.49l3.69-1.35c.12,0,.28-.07.4-.1h0l0-.18c0-.81,0-1.62,0-2.43v-.7l-.16,0L27,6" fill="#0d52ff"/>
            </g>
          </g>
        </g>
      </g>
      <g>
        <polygon points="48.74 10.53 48.59 40.82 24.04 49.76 24.2 19.46 48.74 10.53" fill="#f0f0f0"/>
        <g style="isolation: isolate">
          <g clip-path="url(#clip-path-3)">
            <g>
              <path d="M40.67,29.44h0m-.34-9.24L29.75,24.05c-.41.15-.41.15-.41.65q0,8.39-.1,16.77c0,.39.08.47.4.35l7.43-2.71c2.09-.77,4.19-1.53,6.28-2.28.22-.08.34-.16.34-.5l0-7.67c0-.23,0-.32-.26-.24-.92.35-1.86.68-2.79,1l0,.37c0,1.27,0,2.56,0,3.83,0,.39-.08.54-.39.66-2.56.91-5.11,1.84-7.65,2.77-.42.15-.42.15-.41-.38l.05-9.36c0-.57,0-.57.48-.75l5-1.84,2.51-.91c.28-.1.38-.23.37-.59,0-.88,0-1.79,0-2.68,0-.51,0-.51-.4-.37" fill="#0d52ff"/>
              <path d="M42.17,23.29l-1.24.46a1.1,1.1,0,0,0-.38.39c-1.13,1.89-2.24,3.79-3.36,5.67-.18.33-.37.65-.59,1l3.72-1.36a2.27,2.27,0,0,1,.35,0h0l.21-.41c1-1.73,2-3.45,3-5.17.29-.48.57-1,.87-1.49h-.13l-2.49.9" fill="#0d52ff"/>
            </g>
          </g>
        </g>
      </g>
    </g>
  </g>
</svg>
