<svg id="Capa_1" data-name="Capa 1" xmlns="http://www.w3.org/2000/svg" xmlns:xlink="http://www.w3.org/1999/xlink" width="50" height="50" viewBox="0 0 50 50">
  <defs>
    <clipPath id="clip-path">
      <polygon points="24.04 49.76 1.26 39.47 1.42 9.17 24.2 19.46 24.04 49.76" fill="none"/>
    </clipPath>
    <clipPath id="clip-path-2">
      <polygon points="24.2 19.46 1.42 9.17 25.96 0.24 48.75 10.53 24.2 19.46" fill="none"/>
    </clipPath>
    <clipPath id="clip-path-3">
      <polygon points="48.75 10.53 48.59 40.82 24.04 49.76 24.2 19.46 48.75 10.53" fill="none"/>
    </clipPath>
  </defs>
  <g id="Figment_lido">
    <g style="isolation: isolate">
      <g>
        <polygon points="24.04 49.76 1.26 39.47 1.42 9.17 24.2 19.46 24.04 49.76" fill="#78a29f"/>
        <g style="isolation: isolate">
          <g clip-path="url(#clip-path)">
            <g>
              <path d="M15.85,33.1h0l.08,0-.08,0M9,30l-.11,0h0L9,30m.15,0L9,30l.08,0m6.57,3s.06,0,.09.06L15.67,33M8.5,28.17h0a.44.44,0,0,1,.11.09.44.44,0,0,0-.11-.09m3.88,5.72a10.1,10.1,0,0,1-2-1.2.44.44,0,0,1-.19-.42c0-.46,0-.93,0-1.4h0c0-.53,0-1.09,0-1.59.15-1.48,1-2.13,2.13-1.63l.12.05a4.58,4.58,0,0,1,2,3.74c0,.92,0,1.83,0,2.75,0,.21-.07.25-.21.23a6.47,6.47,0,0,1-1.9-.54M7.26,24.33a1.85,1.85,0,0,1-.51-1.9.52.52,0,0,1,.76-.31,1.93,1.93,0,0,1,.66.55,3.24,3.24,0,0,0-.91,1.66m10.31,4.49s-.07-.07-.1-.2a9,9,0,0,0-.88-2.25.92.92,0,0,1,.73,0,1.63,1.63,0,0,1,.79,1.16c.14.62,0,1.18-.43,1.28a.22.22,0,0,1-.11,0m-9.19-5.6a2.92,2.92,0,0,1,2.68-.72,5.79,5.79,0,0,1,1.43.45,8.46,8.46,0,0,1,3.27,2.8,7.48,7.48,0,0,1,1,1.71,5.81,5.81,0,0,1,.51,1.95,1.81,1.81,0,0,0,.24.82A4.62,4.62,0,0,1,18,31.48c.12.51.09.56-.25.45a7.72,7.72,0,0,0-1.19-.26.27.27,0,0,1-.12,0,1.34,1.34,0,0,0,.18.07c.42.15.84.31,1.26.43l.07,0c.15.07.13.16.09.35-.08.38-.26.44-.54.32l-.07,0-.24-.12a7.73,7.73,0,0,0-1-.34c0,.09,0,.12.06.14l.07,0,.06,0,.07,0,.15.1.66.33h0l.08,0,.23.16a1.82,1.82,0,0,0,.23.15h0c-.19.49-.32.65-.61.51a2.61,2.61,0,0,1-.55-.38l-.28-.15a.59.59,0,0,0-.11-.08l-.1,0-.09,0h0a.58.58,0,0,1,.12.14l.34.26a1.63,1.63,0,0,1,.2.17c.12.13.34.15.36.37s-.18.16-.28.21a3.91,3.91,0,0,1-1.64.28.33.33,0,0,1-.15,0c-.09,0-.13-.14-.12-.35s0-.32,0-.48c0-.9.06-1.73,0-2.65a5,5,0,0,0-2.45-4l-.21-.09c-1.26-.43-2.26.59-2.29,2.34,0,.7,0,1.42,0,2.12s0,.79-.13.73a2.48,2.48,0,0,1-.48-.42,9.86,9.86,0,0,1-1.58-1.91,1.23,1.23,0,0,1,.63,0l.29,0a.2.2,0,0,1,.13,0l-.09-.06-.11-.06a.15.15,0,0,0-.11,0l-.29-.11a2.36,2.36,0,0,1-.52-.09h0c-.35-.16-.41-.63-.62-1.05a5.52,5.52,0,0,1,.54.12l.08.05.65.26a.31.31,0,0,1,.13,0l.07,0,.08,0a.16.16,0,0,0,.15,0v0l0,0a10.54,10.54,0,0,0-1.32-.7l-.17-.08-.05,0c-.33-.15-.37-.26-.37-.9,0-.11,0-.12.09-.1a.71.71,0,0,1,.14.1L8.17,28l.21.12a.42.42,0,0,1-.15-.17A9.7,9.7,0,0,0,7,27.08a.33.33,0,0,1-.18-.44,1.88,1.88,0,0,1,.48-.92,1.17,1.17,0,0,0,.32-.79,2.81,2.81,0,0,1,.8-1.71m4.31-1.17a1.87,1.87,0,0,0-.31-.12l-.19-.1a5.48,5.48,0,0,0-3.09-.34c-.16.06-.6.3-.69.26h0a3.54,3.54,0,0,0-1-.67c-.53-.24-1.14-.27-1.4.58a3.93,3.93,0,0,0,.58,3.16,4.71,4.71,0,0,1-.26.43,2.09,2.09,0,0,0-.31.92c0,.27-.17.29-.36.21l-.24-.14-.27-.14a12.71,12.71,0,0,0-1.24-.46c-.09,0-1-.25-1-.08s.11.14.26.2.54.2.74.29,1.74.7,1.9.74h0c.13.06.09.35.15.68s0,.31-.23.27S4.24,27.48,4,27.48s-.59-.12-.57.06,0,.08.11.11a4.69,4.69,0,0,0,.69.14c.22.05,1.46.33,1.7.41H6c.23.1.39.7.5,1s-.14.25-.45.24a5.12,5.12,0,0,0-1.16.25c-.19.07-.52.18-.47.33a.14.14,0,0,0,.06.08s.09,0,.16,0l1.72-.23a.66.66,0,0,1,.32.05.76.76,0,0,1,.29.25A13.91,13.91,0,0,0,9.75,33a12.54,12.54,0,0,0,2.46,1.4,14.7,14.7,0,0,0,2.44.9,8.91,8.91,0,0,0,3-.19.53.53,0,0,1,.46,0,.87.87,0,0,1,.26.18,20.71,20.71,0,0,0,1.94,1.92s.05,0,.05,0c0-.25-.77-1.09-.95-1.32s-1.16-1.12-1.2-1.21a1.48,1.48,0,0,1,.42-.7s.12,0,.24,0a13,13,0,0,1,1.64,1.08,9,9,0,0,0,.91.7s.06,0,.07,0-.19-.21-.44-.48-2.17-1.71-2.26-1.77.09-.53.21-.7.2,0,.37,0,.52.29.68.36.84.47,1.31.68c.27.12.48.19.49.11s-.95-.75-1.47-1a4.12,4.12,0,0,0-.47-.24l-.31-.14-.3-.13a1.91,1.91,0,0,1-.53-.3,7.72,7.72,0,0,0-.62-2.28,2.28,2.28,0,0,0,.58-.69,3.28,3.28,0,0,0-.24-2.69,2,2,0,0,0-1-1,2.71,2.71,0,0,0-.75-.2,3.71,3.71,0,0,1-.48-.07l0,0a8.75,8.75,0,0,0-3.52-3.1" fill="#300e02" opacity="0.8"/>
              <path d="M15.93,33.15l-.08,0h0l.08,0M8.84,30h0L9,30l-.11,0M9,30l.08,0L9,30m6.74,3s-.07,0-.09-.06l.09.06M8.5,28.17h0a.44.44,0,0,1,.11.09.44.44,0,0,0-.11-.09m6.39.86a.75.75,0,0,1-.34-.39,2.19,2.19,0,0,1,0-1.85.29.29,0,0,1,.35-.1.84.84,0,0,1,.34.42,2.17,2.17,0,0,1,.19.93,1.37,1.37,0,0,1-.22.9.25.25,0,0,1-.33.09M9.63,26.66a.69.69,0,0,1-.32-.35,2.44,2.44,0,0,1-.22-1.1,1.29,1.29,0,0,1,.19-.79.28.28,0,0,1,.35-.11.85.85,0,0,1,.34.41,2.15,2.15,0,0,1,0,1.85.25.25,0,0,1-.33.09m2.73-3.2a6.15,6.15,0,0,0-2-.51,3.36,3.36,0,0,0-1.67.25c-.07,0-.13.14-.22.1a.22.22,0,0,1-.09-.08,2.81,2.81,0,0,0-.8,1.71,1.17,1.17,0,0,1-.32.79,1.88,1.88,0,0,0-.48.92.33.33,0,0,0,.18.44,9.7,9.7,0,0,1,1.27.85.42.42,0,0,0,.15.17L8.17,28,7,27.32a.71.71,0,0,0-.14-.1s-.08,0-.09.1a5.5,5.5,0,0,0,.42.92l.17.08a10.54,10.54,0,0,1,1.32.7l0,0v0a.16.16,0,0,1-.15,0l-.08,0-.07,0a.31.31,0,0,0-.13,0l-.65-.26c0,.07-.24-.05-.08.19a2.5,2.5,0,0,0,.62.79l.29.11a.15.15,0,0,1,.11,0l.11.06.09.06a.2.2,0,0,0-.13,0l-.29,0a5.86,5.86,0,0,0,1.1,1.21,3.32,3.32,0,0,0,.46.38c0-.7,0-1.42,0-2.12,0-1.75,1-2.77,2.29-2.34l.21.09a5,5,0,0,1,2.45,4c.1.92,0,1.75,0,2.65a2.77,2.77,0,0,0,1.62-.17l-.34-.26a.58.58,0,0,0-.12-.14h0l.09,0,.1,0a.59.59,0,0,1,.11.08l.28.15c.28.09.48-.09.68-.24s-.07-.14-.07-.22h0l-.66-.33-.15-.1-.07,0-.06,0-.07,0s-.11,0-.06-.14a7.73,7.73,0,0,1,1,.34l.24.12.07,0c.28.12.46.06.54-.32,0-.19.06-.28-.09-.35l-.07,0c-.42-.12-.84-.28-1.26-.43a1.34,1.34,0,0,1-.18-.07.27.27,0,0,0,.12,0,7.72,7.72,0,0,1,1.19.26c.34.11.37.06.25-.45a4.62,4.62,0,0,0-.48-1.25,1.81,1.81,0,0,1-.24-.82,5.81,5.81,0,0,0-.51-1.95c-.37-.38-.64-.92-1-1.34a10.92,10.92,0,0,0-2.66-2.28,6.13,6.13,0,0,0-.71-.38" fill="#906943" opacity="0.96"/>
              <path d="M12.15,30.92a.6.6,0,0,0-.11-.65,2.91,2.91,0,0,1-.17-.3,1.06,1.06,0,0,1-.16-.89c.09-.26.28-.29.51-.19l0,0,.08,0,.07,0,.11,0,.1.05a.92.92,0,0,1,.45.61.72.72,0,0,1-.1.68c-.08.09-.15.2-.25.24s-.16.22-.13.43a1.42,1.42,0,0,0,.48.48.56.56,0,0,0,.48-.05c.05-.1.1-.18.19-.14a.18.18,0,0,1,.09.07.48.48,0,0,1,.08.44c0,.44-.25.66-.56.67-.13,0-.2,0-.24.19-.11.41-.39.54-.73.39h0a1.36,1.36,0,0,1-.7-1,.74.74,0,0,0-.27-.44,1.91,1.91,0,0,1-.56-1.18c0-.16,0-.32.1-.35H11a.42.42,0,0,1,.16.23,1.05,1.05,0,0,0,.49.54.84.84,0,0,0,.47.05m.24-3.26c-1.09-.5-2,.15-2.13,1.63,0,.5,0,1.06,0,1.59h0c0,.47,0,.94,0,1.4a.44.44,0,0,0,.19.42,10.1,10.1,0,0,0,2,1.2,6.47,6.47,0,0,0,1.9.54c.14,0,.21,0,.21-.23,0-.92,0-1.83,0-2.75a4.58,4.58,0,0,0-2-3.74l-.12-.05" fill="#d0b396" opacity="0.96"/>
              <path d="M12.49,23a5.79,5.79,0,0,0-1.43-.45,2.92,2.92,0,0,0-2.68.72.22.22,0,0,0,.09.08c.09,0,.15-.07.22-.1A3.36,3.36,0,0,1,10.36,23a6,6,0,0,1,2.71.89,10.92,10.92,0,0,1,2.66,2.28c.35.42.62,1,1,1.34a7.48,7.48,0,0,0-1-1.71A8.46,8.46,0,0,0,12.49,23" fill="#ab8255" opacity="0.96"/>
              <path d="M17.32,26.37a.92.92,0,0,0-.73,0,9,9,0,0,1,.88,2.25c0,.13.06.18.1.2a.22.22,0,0,0,.11,0c.39-.1.57-.66.43-1.28a1.63,1.63,0,0,0-.79-1.16" fill="#d0b396" opacity="0.96"/>
              <path d="M7.51,22.12a.52.52,0,0,0-.76.31,1.85,1.85,0,0,0,.51,1.9,3.24,3.24,0,0,1,.91-1.66,1.93,1.93,0,0,0-.66-.55" fill="#d0b296" opacity="0.96"/>
              <path d="M16.48,33.62a2.77,2.77,0,0,1-1.62.17c0,.16,0,.32,0,.48s0,.31.12.35a.33.33,0,0,0,.15,0,3.91,3.91,0,0,0,1.64-.28c.1,0,.3,0,.28-.21s-.24-.24-.36-.37a1.63,1.63,0,0,0-.2-.17" fill="#673d18" opacity="0.96"/>
              <path d="M8.29,29.93a1.23,1.23,0,0,0-.63,0,9.86,9.86,0,0,0,1.58,1.91,2.48,2.48,0,0,0,.48.42c.14.06.14-.15.13-.73a3.32,3.32,0,0,1-.46-.38,5.86,5.86,0,0,1-1.1-1.21" fill="#673d18" opacity="0.96"/>
              <path d="M17.3,33.08l-.08,0h0c0,.08.21.11.07.22s-.4.33-.68.24a2.61,2.61,0,0,0,.55.38c.29.14.42,0,.61-.51h0a1.82,1.82,0,0,1-.23-.15l-.23-.16" fill="#673d17" opacity="0.96"/>
              <path d="M7.49,28.66A5.52,5.52,0,0,0,7,28.54c.21.42.27.89.62,1.05h0a2.36,2.36,0,0,0,.52.09,2.5,2.5,0,0,1-.62-.79c-.16-.24.06-.12.08-.19l-.08-.05" fill="#673d18" opacity="0.96"/>
              <path d="M6.73,27.32c0,.64,0,.75.37.9l.05,0a5.5,5.5,0,0,1-.42-.92" fill="#643c17" opacity="0.96"/>
              <path d="M14.91,26.69a.29.29,0,0,0-.35.1,2.19,2.19,0,0,0,0,1.85.75.75,0,0,0,.34.39.25.25,0,0,0,.33-.09,1.37,1.37,0,0,0,.22-.9,2.17,2.17,0,0,0-.19-.93.84.84,0,0,0-.34-.42" fill="#300e02" opacity="0.96"/>
              <path d="M9.63,24.31a.28.28,0,0,0-.35.11,1.29,1.29,0,0,0-.19.79,2.44,2.44,0,0,0,.22,1.1.69.69,0,0,0,.32.35.25.25,0,0,0,.33-.09,2.15,2.15,0,0,0,0-1.85.85.85,0,0,0-.34-.41" fill="#300f02" opacity="0.96"/>
              <path d="M12.39,32.59A.71.71,0,0,1,12,32c0-.22.24-.16.36-.26.11.22.37.36.37.62s-.18.29-.35.24m-.17-3.7c-.23-.1-.42-.07-.51.19a1.06,1.06,0,0,0,.16.89,2.91,2.91,0,0,0,.17.3.6.6,0,0,1,.11.65c0,.37-.18.52-.44.41h0c-.28-.13-.45-.46-.5-1A.42.42,0,0,0,11,30.1h-.09c-.12,0-.12.19-.1.35a1.91,1.91,0,0,0,.56,1.18.74.74,0,0,1,.27.44,1.36,1.36,0,0,0,.7,1h0c.34.15.62,0,.73-.39,0-.16.11-.19.24-.19.31,0,.52-.23.56-.67a.48.48,0,0,0-.08-.44.18.18,0,0,0-.09-.07c-.09,0-.14,0-.19.14,0,.42-.21.6-.48.48h0a1,1,0,0,1-.46-.9c0-.21,0-.37.13-.43s.17-.15.25-.24a.72.72,0,0,0,.1-.68.92.92,0,0,0-.45-.61l-.1-.05-.11,0-.07,0-.08,0,0,0" fill="#300f02" opacity="0.96"/>
              <path d="M11.19,30.33c.05.53.22.86.5,1h0c.26.11.42,0,.44-.41a.84.84,0,0,1-.47-.05,1.05,1.05,0,0,1-.49-.54" fill="#b57c51" opacity="0.96"/>
              <path d="M13.54,31.46a.56.56,0,0,1-.48.05,1.42,1.42,0,0,1-.48-.48,1,1,0,0,0,.46.9h0c.27.12.45-.06.48-.48" fill="#b67d52" opacity="0.96"/>
              <path d="M12.37,31.73c-.12.1-.36,0-.36.26a.71.71,0,0,0,.38.6c.17,0,.36,0,.35-.24s-.26-.4-.37-.62" fill="#cdaf93" opacity="0.96"/>
            </g>
          </g>
        </g>
      </g>
      <g>
        <polygon points="24.2 19.46 1.42 9.17 25.96 0.24 48.75 10.53 24.2 19.46" fill="#84b2ae"/>
        <g style="isolation: isolate">
          <g clip-path="url(#clip-path-2)">
            <g>
              <path d="M31.35,9.44h0l.11,0-.11,0m-8,2.92-.1.06h0l.1-.06m.15-.07-.08,0,.08,0m7.65-2.78.12,0-.12,0M21.53,12h0l.16,0-.16,0m7.61-.26a19.1,19.1,0,0,1-2.53.72.68.68,0,0,1-.49,0c-.35-.17-.72-.33-1.08-.49h0a12.89,12.89,0,0,1-1.23-.56c-1-.6-.82-1.35.45-1.81l.15-.05A7.34,7.34,0,0,1,29,9.65c.74.31,1.42.65,2.14,1,.17.08.14.13,0,.2a11,11,0,0,1-2,.92m-11.62-.35A2.25,2.25,0,0,1,15.63,11c-.16-.21,0-.41.37-.55a3.94,3.94,0,0,1,1-.19,1.27,1.27,0,0,0,.55,1.11M29.4,7a.36.36,0,0,1-.23,0,12.62,12.62,0,0,0-2.47-.27,1.21,1.21,0,0,1,.59-.43,2.86,2.86,0,0,1,1.55,0c.6.13.88.43.65.69,0,0,0,.06-.09.07M17.57,10.34c0-.68.64-1.27,1.62-1.81a11.52,11.52,0,0,1,1.5-.68,17.65,17.65,0,0,1,4.85-.92,12.49,12.49,0,0,1,2.12,0,7,7,0,0,1,1.93.38,2.42,2.42,0,0,0,.84.15,6.5,6.5,0,0,1,1.36.16c.5.1.52.14.15.3a12.76,12.76,0,0,0-1.17.6.15.15,0,0,1-.08.08l.21-.08c.46-.19.92-.38,1.36-.58l.08,0c.18-.06.23,0,.35.08s.12.3-.19.42l-.1,0-.28.09c-.38.15-.73.3-1.07.46,0,.06.1,0,.16,0l.08,0,.08,0,.08,0,.2,0,.78-.27h0l.09,0,.3-.08.31-.08h0c.23.27.25.4-.09.53a6.07,6.07,0,0,1-.75.19L32,9.26a.57.57,0,0,0-.15,0l-.1.05-.1,0h0l.21,0,.48-.11.3-.05c.2,0,.38-.15.57-.08s0,.15-.06.23A3.89,3.89,0,0,1,32,10.4a.5.5,0,0,1-.14.08.43.43,0,0,1-.37-.05l-.38-.18c-.72-.29-1.3-.63-2.09-.89a8.51,8.51,0,0,0-5.12,0l-.23.09c-1.36.58-1.38,1.52,0,2.14.54.26,1.1.51,1.65.76s.63.26.45.33a6.3,6.3,0,0,1-.71.12,18.62,18.62,0,0,1-2.78.26,1.71,1.71,0,0,1,.52-.36l.27-.16s0-.06.08-.09l-.12,0-.13,0a.29.29,0,0,0-.11.06l-.32.13a4.49,4.49,0,0,1-.49.27h0a3.4,3.4,0,0,1-1.31,0,4.3,4.3,0,0,1,.52-.27l.1,0,.74-.29.13-.06.09,0,.08,0c.07,0,.12-.05.14-.09h-.06c-.57.16-1.11.33-1.62.52l-.2.07-.06,0c-.38.14-.5.12-1-.1-.08,0-.06-.07,0-.08l.19-.05,1.5-.47.27-.08a.69.69,0,0,1-.25,0c-.6.13-1.16.28-1.7.45-.23.06-.36.06-.49-.06s-.36-.38-.33-.59-.13-.32-.36-.46a1.19,1.19,0,0,1-.68-1.06m2.59-2.91-.35.13-.23.08A8.16,8.16,0,0,0,16.8,9.32c-.08.11-.25.45-.36.49h0a8.53,8.53,0,0,0-1.32.33c-.62.23-1.13.57-.68,1,.89.87,2.94.76,2.94.76a1.24,1.24,0,0,1,.12.3,1,1,0,0,0,.47.5c.2.11.09.2-.13.28l-.3.09-.33.11c-.51.19-1.28.52-1.36.56s-1,.49-.87.55a.82.82,0,0,0,.36-.08c.26-.09.6-.25.83-.33s2-.77,2.12-.85h0c.16-.06.35.07.66.15s.22.12,0,.22-1.47.81-1.64.94-.58.3-.41.35a.29.29,0,0,0,.17,0,6,6,0,0,0,.67-.35c.21-.11,1.45-.73,1.7-.84h0a3.11,3.11,0,0,1,1.2.07c.34.05.09.16-.17.34a4.8,4.8,0,0,0-.75.76c-.1.13-.28.37-.12.39h.11s0-.06.1-.11l1.22-1.07a1,1,0,0,1,.29-.18,1.5,1.5,0,0,1,.44-.07,28.46,28.46,0,0,0,4.48-.65,23.94,23.94,0,0,0,3.1-.94c1.14-.42,2.19-.85,2.68-1.1a11.1,11.1,0,0,0,2.26-1.79.65.65,0,0,1,.37-.26,2,2,0,0,1,.35-.09c.31,0,2.73-.33,3.08-.45,0,0,.05,0,0,0a9.5,9.5,0,0,0-1.8.09c-.32,0-1.82.29-1.92.27s-.24-.33-.22-.48.1-.08.24-.13c.54-.19,1.85-.5,2.18-.57s1.06-.21,1.27-.29c0,0,.08,0,.06,0s-.32,0-.74.09-3.1.66-3.22.69-.34-.24-.37-.37.14-.12.34-.2l.83-.26c.21-.08,1.05-.33,1.59-.53.32-.12.54-.21.49-.24a8.53,8.53,0,0,0-2,.48L34.32,7,34,7.1l-.34.13a4.77,4.77,0,0,1-.67.21A10.24,10.24,0,0,0,30.66,7a.84.84,0,0,0-.06-.58c-.14-.24-.69-.64-2.3-.79a3.63,3.63,0,0,0-1.62.21,4.15,4.15,0,0,0-.76.37l-.45.25h0a17.58,17.58,0,0,0-5.28,1" fill="#300e02" opacity="0.8"/>
              <path d="M31.46,9.41l-.11,0h0l.11,0m-8.25,3h0l.1-.06-.1.06m.17-.09.08,0-.08,0m7.85-2.86-.12,0,.12,0M21.53,12h0l.16,0-.16,0M27.4,8.58a1.64,1.64,0,0,1-.59.06c-.67-.05-1.39-.37-1.43-.65,0-.1.06-.18.2-.23a1.4,1.4,0,0,1,.61-.06,2.6,2.6,0,0,1,.88.22c.32.14.51.28.52.44s-.06.17-.19.22m-6.13,2.23a1.3,1.3,0,0,1-.53.06,2.68,2.68,0,0,1-1-.25c-.24-.1-.42-.23-.46-.39s.05-.18.2-.24A1.47,1.47,0,0,1,20,9.94c.68,0,1.4.37,1.44.64,0,.1-.06.18-.2.23M21,8.11a11,11,0,0,0-2,1,3.56,3.56,0,0,0-1.16,1.06s0,.12-.11.16a.35.35,0,0,1-.13,0,1.19,1.19,0,0,0,.68,1.06c.23.14.39.28.36.46s.11.4.33.59.26.12.49.06c.54-.17,1.1-.32,1.7-.45a.69.69,0,0,0,.25,0l-.27.08-1.5.47-.19.05c-.05,0-.07,0,0,.08a7.34,7.34,0,0,0,1.06.08l.2-.07c.51-.19,1-.36,1.62-.52h.06s-.07.06-.14.09l-.08,0-.09,0-.13.06-.74.29s-.23.12.08.11a5.14,5.14,0,0,0,1.13-.08l.32-.13a.29.29,0,0,1,.11-.06l.13,0,.12,0s-.07,0-.08.09l-.27.16a11.88,11.88,0,0,0,1.84-.22c.23,0,.45-.09.68-.13-.55-.25-1.11-.5-1.65-.76-1.34-.62-1.32-1.56,0-2.14l.23-.09a8.51,8.51,0,0,1,5.12,0c.79.26,1.37.6,2.09.89a3.12,3.12,0,0,0,1.19-1l-.48.11-.21,0h0l.1,0,.1-.05a.57.57,0,0,1,.15,0l.35-.11a.56.56,0,0,0,.36-.48c0-.12-.17,0-.23,0h0l-.78.27-.2,0-.08,0-.08,0-.08,0c-.06,0-.13,0-.16,0,.34-.16.69-.31,1.07-.46l.28-.09.1,0c.31-.12.41-.24.19-.42s-.17-.14-.35-.08l-.08,0c-.44.2-.9.39-1.36.58l-.21.08a.15.15,0,0,0,.08-.08A12.76,12.76,0,0,1,31.94,8c.37-.16.35-.2-.15-.3a6.5,6.5,0,0,0-1.36-.16,2.42,2.42,0,0,1-.84-.15A7,7,0,0,0,27.66,7c-.6.08-1.24,0-1.86.11a21.53,21.53,0,0,0-3.94.75c-.3.09-.59.18-.86.28" fill="#906943" opacity="0.96"/>
              <path d="M26.64,10.82c-.09-.11-.26-.18-.59-.15-.12,0-.25,0-.38,0a1.12,1.12,0,0,1-.82-.22c-.13-.14,0-.26.26-.35l0,0,.09,0,.09,0,.12,0,.12,0a1.68,1.68,0,0,1,.84-.05c.29.06.45.16.46.29s0,.16,0,.23,0,.17.23.23a2.86,2.86,0,0,0,.76-.11.67.67,0,0,0,.36-.3c0-.06-.06-.12,0-.16l.13,0a.58.58,0,0,1,.41.11c.3.18.31.37.06.56s-.13.12,0,.2.1.42-.29.56h0a2.47,2.47,0,0,1-1.36.06,1.14,1.14,0,0,0-.55,0,3,3,0,0,1-1.38-.09c-.15,0-.27-.1-.19-.18s0,0,.07,0a.79.79,0,0,1,.32,0,2.07,2.07,0,0,0,.81-.09,1.17,1.17,0,0,0,.42-.27M24.29,9.55c-1.27.46-1.49,1.21-.45,1.81a12.89,12.89,0,0,0,1.23.56h0c.36.16.73.32,1.08.49a.68.68,0,0,0,.49,0,19.1,19.1,0,0,0,2.53-.72,11,11,0,0,0,2-.92c.12-.07.15-.12,0-.2-.72-.31-1.4-.65-2.14-1a7.34,7.34,0,0,0-4.52-.15l-.15.05" fill="#d0b396" opacity="0.96"/>
              <path d="M20.69,7.85a11.52,11.52,0,0,0-1.5.68c-1,.54-1.59,1.13-1.62,1.81a.35.35,0,0,0,.13,0c.11,0,.07-.11.11-.16A3.56,3.56,0,0,1,19,9.09a11,11,0,0,1,2-1c.27-.1.56-.19.86-.28a21.53,21.53,0,0,1,3.94-.75c.62-.06,1.26,0,1.86-.11a12.49,12.49,0,0,0-2.12,0,17.65,17.65,0,0,0-4.85.92" fill="#ab8255" opacity="0.96"/>
              <path d="M27.29,6.24a1.21,1.21,0,0,0-.59.43,12.62,12.62,0,0,1,2.47.27.36.36,0,0,0,.23,0s.06,0,.09-.07c.23-.26,0-.56-.65-.69a2.86,2.86,0,0,0-1.55,0" fill="#d0b396" opacity="0.96"/>
              <path d="M16,10.46c-.39.14-.53.34-.37.55a2.25,2.25,0,0,0,1.89.37A1.27,1.27,0,0,1,17,10.27a3.94,3.94,0,0,0-1,.19" fill="#d0b296" opacity="0.96"/>
              <path d="M32.27,9.25a3.12,3.12,0,0,1-1.19,1l.38.18a.43.43,0,0,0,.37.05A.5.5,0,0,0,32,10.4a3.89,3.89,0,0,0,1.11-1.05c.05-.08.22-.18.06-.23s-.37.05-.57.08l-.3.05" fill="#673d18" opacity="0.96"/>
              <path d="M22.73,12.73a1.71,1.71,0,0,0-.52.36A18.62,18.62,0,0,0,25,12.83a6.3,6.3,0,0,0,.71-.12c.18-.07,0-.14-.45-.33-.23,0-.45.1-.68.13a11.88,11.88,0,0,1-1.84.22" fill="#673d18" opacity="0.96"/>
              <path d="M32.52,8.59l-.09,0h0c.06,0,.27-.08.23,0a.56.56,0,0,1-.36.48A6.07,6.07,0,0,0,33.05,9c.34-.13.32-.26.09-.53h0l-.31.08-.3.08" fill="#673d17" opacity="0.96"/>
              <path d="M21.09,12.75a4.3,4.3,0,0,0-.52.27,3.4,3.4,0,0,0,1.31,0h0a4.49,4.49,0,0,0,.49-.27,5.14,5.14,0,0,1-1.13.08c-.31,0,0-.07-.08-.11l-.1,0" fill="#673d18" opacity="0.96"/>
              <path d="M19.43,12.72c.5.22.62.24,1,.1l.06,0a7.34,7.34,0,0,1-1.06-.08" fill="#643c17" opacity="0.96"/>
              <path d="M25.58,7.76c-.14,0-.21.13-.2.23,0,.28.76.6,1.43.65a1.64,1.64,0,0,0,.59-.06c.13-.05.2-.12.19-.22s-.2-.3-.52-.44a2.6,2.6,0,0,0-.88-.22,1.4,1.4,0,0,0-.61.06" fill="#300e02" opacity="0.96"/>
              <path d="M19.44,10c-.15.06-.22.14-.2.24s.22.29.46.39a2.68,2.68,0,0,0,1,.25,1.3,1.3,0,0,0,.53-.06c.14-.05.21-.13.2-.23,0-.27-.76-.6-1.44-.64a1.47,1.47,0,0,0-.59.05" fill="#300f02" opacity="0.96"/>
              <path d="M28.14,11.27a1.16,1.16,0,0,1-.78,0c-.16-.07.07-.19.09-.3.27,0,.59-.09.8,0s.07.21-.11.29m-3-1.18c-.26.09-.39.21-.26.35a1.12,1.12,0,0,0,.82.22c.13,0,.26,0,.38,0,.33,0,.5,0,.59.15.27.15.26.29,0,.41h0a1.71,1.71,0,0,1-1.17-.06.79.79,0,0,0-.32,0s-.06,0-.07,0,0,.14.19.18a3,3,0,0,0,1.38.09,1.14,1.14,0,0,1,.55,0,2.47,2.47,0,0,0,1.36-.06h0c.39-.14.52-.35.29-.56s-.06-.13,0-.2.24-.38-.06-.56a.58.58,0,0,0-.41-.11l-.13,0c-.1,0-.08.1,0,.16.3.16.29.33,0,.45h0a1.67,1.67,0,0,1-1.08,0c-.19-.06-.31-.12-.23-.23s0-.15,0-.23-.17-.23-.46-.29a1.68,1.68,0,0,0-.84.05l-.12,0-.12,0-.09,0-.09,0,0,0" fill="#300f02" opacity="0.96"/>
              <path d="M25.41,11.18a1.71,1.71,0,0,0,1.17.06h0c.29-.12.3-.26,0-.41a1.17,1.17,0,0,1-.42.27,2.07,2.07,0,0,1-.81.09" fill="#b57c51" opacity="0.96"/>
              <path d="M28.2,10.21a.67.67,0,0,1-.36.3,2.86,2.86,0,0,1-.76.11,1.67,1.67,0,0,0,1.08,0h0c.31-.12.32-.29,0-.45" fill="#b67d52" opacity="0.96"/>
              <path d="M27.45,11c0,.11-.25.23-.09.3a1.16,1.16,0,0,0,.78,0c.18-.08.31-.2.11-.29s-.53,0-.8,0" fill="#cdaf93" opacity="0.96"/>
            </g>
          </g>
        </g>
      </g>
      <g>
        <polygon points="48.75 10.53 48.59 40.82 24.04 49.76 24.2 19.46 48.75 10.53" fill="#87b6b2"/>
        <g style="isolation: isolate">
          <g clip-path="url(#clip-path-3)">
            <g>
              <path d="M40.77,31.45h0m-8.25,3a.57.57,0,0,0-.13.08h0l.14-.08m.17-.1-.09.06s.07,0,.09-.06m7.86-2.86s.07,0,.11,0l-.11,0M32,32.9h0m4.64,2.6a8.71,8.71,0,0,1-2.36.52c-.17,0-.23-.05-.23-.27,0-.51,0-1,0-1.52h0a16.85,16.85,0,0,1,0-1.74,4.44,4.44,0,0,1,2.56-3.73l.14-.05c1.28-.39,2.32.57,2.36,2.21,0,1,0,2,0,3a.47.47,0,0,1-.24.44,10.67,10.67,0,0,1-2.28,1.16m-6.13-5.6c-.63-.08-.89-.76-.61-1.58a1.66,1.66,0,0,1,.92-1.05,1.22,1.22,0,0,1,.78,0,8.58,8.58,0,0,0-1.09,2.63m12.33-4.66s-.08,0-.11-.12a3.48,3.48,0,0,0-1.06-1.62,2.37,2.37,0,0,1,.88-.68.68.68,0,0,1,.94.53A1.92,1.92,0,0,1,43,25.12a.36.36,0,0,1-.14.12m-11,2.43A9.49,9.49,0,0,1,35,24.42a9.7,9.7,0,0,1,1.71-.85,5,5,0,0,1,3.91,0,2.58,2.58,0,0,1,1.15,1,2.9,2.9,0,0,1,.61,1.63.93.93,0,0,0,.29.67,1.89,1.89,0,0,1,.57.9c.15.45.11.52-.3.73a14.79,14.79,0,0,0-1.43.81.47.47,0,0,1-.14.14,2,2,0,0,0,.22-.09c.5-.23,1-.44,1.51-.69a.18.18,0,0,1,.09,0c.18-.07.15.06.1.3a1,1,0,0,1-.64.83l-.1,0-.27.09a11.56,11.56,0,0,0-1.19.55c-.06.14,0,.11.07.1l.08,0,.08,0,.08,0a.38.38,0,0,1,.18,0l.78-.25h0l.1,0a1.26,1.26,0,0,1,.28-.05,1.51,1.51,0,0,0,.28-.05h0c-.23.7-.38,1-.73,1.12a2.24,2.24,0,0,1-.66.1l-.34.09-.13,0-.11.05-.11.05h0a.18.18,0,0,1,.14,0,3,3,0,0,1,.42,0,.65.65,0,0,1,.24,0c.14,0,.39-.15.42.07s-.21.33-.33.48a11.9,11.9,0,0,1-2,1.82.62.62,0,0,1-.18.11c-.11,0-.16,0-.14-.27s0-.36,0-.53c-.05-.93.06-1.92-.05-2.82-.22-1.77-1.45-2.6-2.94-2.06l-.25.1A5.47,5.47,0,0,0,33.62,33c0,.77,0,1.54,0,2.32,0,.6,0,.83-.16.9a1.4,1.4,0,0,1-.57,0,4,4,0,0,1-1.89-.6,3.43,3.43,0,0,1,.76-.57l.35-.24a.52.52,0,0,1,.16-.14l-.12,0-.13,0a.31.31,0,0,0-.13.08l-.35.15a4.49,4.49,0,0,1-.62.38h0c-.42.15-.49-.3-.74-.57a6.44,6.44,0,0,1,.64-.36l.1,0,.78-.31a.4.4,0,0,1,.15-.09l.09,0,.09,0a.38.38,0,0,0,.18-.12v0l0,0a10.63,10.63,0,0,0-1.57.45l-.2.07-.06,0c-.4.14-.44,0-.45-.63,0-.13.06-.18.11-.2s.12,0,.17,0L31.58,33l.25-.07a.18.18,0,0,1-.17,0,8.17,8.17,0,0,0-1.52.25c-.22.06-.28,0-.21-.31a4.66,4.66,0,0,1,.57-1.43,2.57,2.57,0,0,0,.38-1.15,6.53,6.53,0,0,1,1-2.58M37,22.42l-.38.15-.23.08a12.79,12.79,0,0,0-3.69,2.48,9.29,9.29,0,0,1-.83.92h0a2.47,2.47,0,0,0-1.16.16A2.63,2.63,0,0,0,29,28.14c-.61,2.26.69,2.87.69,2.87s-.18.44-.31.71A4.05,4.05,0,0,0,29,33a.61.61,0,0,1-.43.56l-.29.07a1.62,1.62,0,0,0-.32.09c-.53.19-1.39.6-1.48.65s-1.2.65-1.19.83.13,0,.31,0,.65-.29.89-.38c.4-.15,2.07-.84,2.27-.95h0c.16-.06.11.3.18.6s0,.36-.27.49-1.85,1.15-2.11,1.35-.7.41-.67.59.05,0,.13,0,.63-.39.82-.49,1.74-1,2-1.12l0,0c.27-.09.47.41.59.65s-.16.4-.53.68a16.4,16.4,0,0,0-1.39,1.33c-.23.26-.63.69-.56.8s0,0,.06,0,.12-.11.2-.19l2.06-1.83a1.28,1.28,0,0,1,.38-.25.42.42,0,0,1,.35,0,6.71,6.71,0,0,0,3.35.47,11.8,11.8,0,0,0,2.94-.76,22.15,22.15,0,0,0,2.92-1.28A25.84,25.84,0,0,0,42.88,32a1.27,1.27,0,0,1,.54-.4.58.58,0,0,1,.31,0,10.53,10.53,0,0,0,2.32.28s.06,0,.06-.06c0-.29-.91-.48-1.13-.56s-1.39-.14-1.43-.21A4.08,4.08,0,0,1,44,29.85a.63.63,0,0,1,.29-.17,10.16,10.16,0,0,1,2-.35,7.2,7.2,0,0,0,1.08-.08s.08,0,.08-.07-.22-.06-.52-.12-2.6.16-2.7.17.11-.66.25-.95a.84.84,0,0,1,.44-.3c.28-.1.62-.16.81-.23s1-.28,1.58-.48c.32-.12.56-.24.58-.33,0-.26-1.14.07-1.76.21-.16,0-.36.11-.56.18l-.37.14-.36.14a2.06,2.06,0,0,1-.64.16,3.67,3.67,0,0,0-.74-1.9,7.38,7.38,0,0,0,.7-1.28,2.79,2.79,0,0,0-.3-2.68,1,1,0,0,0-1.18-.22,5,5,0,0,0-.89.48c-.27.17-.47.32-.57.36h0a5.27,5.27,0,0,0-4.2-.11" fill="#300e02" opacity="0.8"/>
              <path d="M40.86,31.44h0m-8.48,3.09h0a.57.57,0,0,1,.13-.08l-.14.08m.22-.12.09-.06s-.06,0-.09.06m8.06-2.94s-.08,0-.11,0l.11,0M32,32.9h0M39.62,28a.35.35,0,0,1-.4-.13,2.13,2.13,0,0,1,0-2,.87.87,0,0,1,.41-.42.33.33,0,0,1,.41.13,1.32,1.32,0,0,1,.23.84A2.49,2.49,0,0,1,40,27.54a.83.83,0,0,1-.4.41m-6.29,2.28a.35.35,0,0,1-.38-.09,1.34,1.34,0,0,1-.27-1,2.21,2.21,0,0,1,.24-1,.89.89,0,0,1,.41-.44.36.36,0,0,1,.41.13,2.16,2.16,0,0,1,0,2,.83.83,0,0,1-.4.41m3.27-6a11.17,11.17,0,0,0-2.39,1.29,10.65,10.65,0,0,0-2,1.82c-.08.1-.15.27-.26.31h-.1a6.53,6.53,0,0,0-1,2.58,2.57,2.57,0,0,1-.38,1.15,4.66,4.66,0,0,0-.57,1.43c-.07.3,0,.37.21.31a8.17,8.17,0,0,1,1.52-.25.18.18,0,0,0,.17,0l-.25.07-1.44.39c-.05,0-.12,0-.17,0s-.09.07-.11.2c.17.21.28.49.51.6l.2-.07a10.63,10.63,0,0,1,1.57-.45l0,0v0a.38.38,0,0,1-.18.12l-.09,0-.09,0a.4.4,0,0,0-.15.09l-.78.31c0,.1-.29.17-.1.28s.43.35.74.29l.35-.15a.31.31,0,0,1,.13-.08l.13,0,.12,0a.52.52,0,0,0-.16.14l-.35.24c.36.3.86.22,1.31.29a3.37,3.37,0,0,0,.55,0c0-.78,0-1.55,0-2.32a5.47,5.47,0,0,1,2.73-4.64l.25-.1c1.49-.54,2.72.29,2.94,2.06.11.9,0,1.89.05,2.82a8.58,8.58,0,0,0,1.94-1.67,3,3,0,0,0-.42,0,.18.18,0,0,0-.14,0h0l.11-.05.11-.05.13,0,.34-.09a2.51,2.51,0,0,0,.81-.89c.17-.25-.09-.09-.09-.17h0l-.78.25a.38.38,0,0,0-.18,0l-.08,0-.08,0-.08,0c-.05,0-.13,0-.07-.1a11.56,11.56,0,0,1,1.19-.55l.27-.09.1,0a1,1,0,0,0,.64-.83c.05-.24.08-.37-.1-.3a.18.18,0,0,0-.09,0c-.5.25-1,.46-1.51.69a2,2,0,0,1-.22.09.47.47,0,0,0,.14-.14A14.79,14.79,0,0,1,43,28.49c.41-.21.45-.28.3-.73a1.89,1.89,0,0,0-.57-.9.93.93,0,0,1-.29-.67,2.9,2.9,0,0,0-.61-1.63c-.44-.08-.77-.41-1.19-.53a6.18,6.18,0,0,0-3.17,0,6.32,6.32,0,0,0-.85.24" fill="#906943" opacity="0.96"/>
              <path d="M36.35,32.5c.09-.29.09-.51-.14-.58s-.13-.13-.2-.19a.67.67,0,0,1-.19-.8,1,1,0,0,1,.6-.67l0,0,.1,0,.09,0,.12-.05.12,0a.39.39,0,0,1,.54.24,1,1,0,0,1-.11.83,3.3,3.3,0,0,1-.31.48.62.62,0,0,0-.15.59.71.71,0,0,0,.57.08,1.58,1.58,0,0,0,.58-.5c.05-.15.12-.29.23-.33h.1c.15,0,.12.24.1.4a1.81,1.81,0,0,1-.67,1.25.67.67,0,0,0-.29.43,1.47,1.47,0,0,1-.87,1.08h0a.6.6,0,0,1-.84-.45c-.06-.19-.16-.22-.32-.23-.38,0-.6-.3-.67-.76a.49.49,0,0,1,.12-.47.26.26,0,0,1,.1-.07.17.17,0,0,1,.2.09.49.49,0,0,0,.58.14,1.71,1.71,0,0,0,.57-.39m.29-3.74a4.44,4.44,0,0,0-2.56,3.73,16.85,16.85,0,0,0,0,1.74h0c0,.51,0,1,0,1.52,0,.22.06.29.23.27a8.71,8.71,0,0,0,2.36-.52,10.67,10.67,0,0,0,2.28-1.16.47.47,0,0,0,.24-.44c0-1,0-2,0-3,0-1.64-1.08-2.6-2.36-2.21l-.14.05" fill="#d0b396" opacity="0.96"/>
              <path d="M36.75,23.57a9.7,9.7,0,0,0-1.71.85,9.49,9.49,0,0,0-3.2,3.25h.1c.11,0,.18-.21.26-.31a10.65,10.65,0,0,1,2-1.82,11.17,11.17,0,0,1,2.39-1.29,6.32,6.32,0,0,1,.85-.24,6.18,6.18,0,0,1,3.17,0c.42.12.75.45,1.19.53a2.58,2.58,0,0,0-1.15-1,5,5,0,0,0-3.91,0" fill="#ab8255" opacity="0.96"/>
              <path d="M42.53,22.82a2.37,2.37,0,0,0-.88.68,3.48,3.48,0,0,1,1.06,1.62c0,.11.07.14.11.12a.36.36,0,0,0,.14-.12,1.92,1.92,0,0,0,.51-1.77.68.68,0,0,0-.94-.53" fill="#d0b396" opacity="0.96"/>
              <path d="M30.8,27.27a1.66,1.66,0,0,0-.92,1.05c-.28.82,0,1.5.61,1.58a8.58,8.58,0,0,1,1.09-2.63,1.22,1.22,0,0,0-.78,0" fill="#d0b296" opacity="0.96"/>
              <path d="M41.53,31.44a8.58,8.58,0,0,1-1.94,1.67c0,.17,0,.35,0,.53s0,.31.14.27a.62.62,0,0,0,.18-.11,11.9,11.9,0,0,0,2-1.82c.12-.15.35-.3.33-.48s-.28,0-.42-.07a.65.65,0,0,0-.24,0" fill="#673d18" opacity="0.96"/>
              <path d="M31.73,35a3.43,3.43,0,0,0-.76.57,4,4,0,0,0,1.89.6,1.4,1.4,0,0,0,.57,0c.18-.07.18-.3.16-.9a3.37,3.37,0,0,1-.55,0c-.45-.07-.95,0-1.31-.29" fill="#673d18" opacity="0.96"/>
              <path d="M42.5,30.1l-.1,0h0c0,.08.26-.08.09.17a2.51,2.51,0,0,1-.81.89,2.24,2.24,0,0,0,.66-.1c.35-.12.5-.42.73-1.12h0a1.51,1.51,0,0,1-.28.05,1.26,1.26,0,0,0-.28.05" fill="#673d17" opacity="0.96"/>
              <path d="M30.77,34.37a6.44,6.44,0,0,0-.64.36c.25.27.32.72.74.57h0a4.49,4.49,0,0,0,.62-.38c-.31.06-.51-.15-.74-.29s.07-.18.1-.28l-.1,0" fill="#673d18" opacity="0.96"/>
              <path d="M29.86,33.62c0,.68.05.77.45.63l.06,0c-.23-.11-.34-.39-.51-.6" fill="#643c17" opacity="0.96"/>
              <path d="M39.64,25.4a.87.87,0,0,0-.41.42,2.13,2.13,0,0,0,0,2,.35.35,0,0,0,.4.13.83.83,0,0,0,.4-.41,2.49,2.49,0,0,0,.26-1.17,1.32,1.32,0,0,0-.23-.84.33.33,0,0,0-.41-.13" fill="#300e02" opacity="0.96"/>
              <path d="M33.33,27.69a.89.89,0,0,0-.41.44,2.21,2.21,0,0,0-.24,1,1.34,1.34,0,0,0,.27,1,.35.35,0,0,0,.38.09.83.83,0,0,0,.4-.41,2.16,2.16,0,0,0,0-2,.36.36,0,0,0-.41-.13" fill="#300f02" opacity="0.96"/>
              <path d="M36.63,34.1c-.25.06-.47,0-.46-.31s.3-.4.44-.61c.14.14.44,0,.45.33a.74.74,0,0,1-.43.59m-.21-3.84a1,1,0,0,0-.6.67.67.67,0,0,0,.19.8c.07.06.12.16.2.19s.23.29.14.58a.93.93,0,0,1-.53.86h0c-.34.12-.54-.09-.59-.62a.17.17,0,0,0-.2-.09.26.26,0,0,0-.1.07.49.49,0,0,0-.12.47c.07.46.29.73.67.76.16,0,.26,0,.32.23a.6.6,0,0,0,.84.45h0a1.47,1.47,0,0,0,.87-1.08.67.67,0,0,1,.29-.43,1.81,1.81,0,0,0,.67-1.25c0-.16.05-.36-.1-.4h-.1c-.11,0-.18.18-.23.33a1.07,1.07,0,0,1-.58,1h0c-.32.11-.53-.11-.55-.55a.62.62,0,0,1,.15-.59,3.3,3.3,0,0,0,.31-.48,1,1,0,0,0,.11-.83.39.39,0,0,0-.54-.24l-.12,0-.12.05-.09,0-.1,0,0,0" fill="#300f02" opacity="0.96"/>
              <path d="M35.2,32.75c0,.53.25.74.59.62h0a.93.93,0,0,0,.53-.86,1.71,1.71,0,0,1-.57.39.49.49,0,0,1-.58-.14" fill="#b57c51" opacity="0.96"/>
              <path d="M38,31.81a1.58,1.58,0,0,1-.58.5.71.71,0,0,1-.57-.08c0,.44.23.66.55.55h0a1.07,1.07,0,0,0,.58-1" fill="#b67d52" opacity="0.96"/>
              <path d="M36.61,33.18c-.14.21-.43.38-.44.61s.21.37.46.31a.74.74,0,0,0,.43-.59c0-.28-.31-.19-.45-.33" fill="#cdaf93" opacity="0.96"/>
            </g>
          </g>
        </g>
      </g>
    </g>
  </g>
  <g>
    <rect x="46.2" y="41.66" width="1.52" height="1.51" fill="#fff"/>
    <rect x="46.2" y="40.15" width="1.52" height="1.52" fill="#fff"/>
    <rect x="46.2" y="8.34" width="1.52" height="1.51" fill="#fff"/>
    <rect x="46.2" y="6.82" width="1.52" height="1.52" fill="#fff"/>
    <rect x="44.69" y="43.18" width="1.51" height="1.52" fill="#fff"/>
    <rect x="44.69" y="41.66" width="1.51" height="1.51" fill="#ef5454"/>
    <rect x="44.69" y="40.15" width="1.51" height="1.52" fill="#ef5454"/>
    <rect x="44.69" y="38.63" width="1.51" height="1.51" fill="#fff"/>
    <rect x="44.69" y="9.85" width="1.51" height="1.52" fill="#fff"/>
    <rect x="44.69" y="8.34" width="1.51" height="1.51" fill="#aa0707"/>
    <rect x="44.69" y="6.82" width="1.51" height="1.52" fill="#ef5454"/>
    <rect x="44.69" y="5.31" width="1.51" height="1.51" fill="#fff"/>
    <rect x="43.18" y="44.69" width="1.51" height="1.51" fill="#fff"/>
    <rect x="43.18" y="43.18" width="1.51" height="1.52" fill="#aa0707"/>
    <rect x="43.18" y="41.66" width="1.51" height="1.51" fill="#cc1d1d"/>
    <rect x="43.18" y="40.15" width="1.51" height="1.52" fill="#cc1d1d"/>
    <rect x="43.18" y="38.63" width="1.51" height="1.51" fill="#ef5454"/>
    <rect x="43.18" y="37.12" width="1.51" height="1.52" fill="#fff"/>
    <rect x="43.18" y="11.37" width="1.51" height="1.51" fill="#fff"/>
    <rect x="43.18" y="9.85" width="1.51" height="1.52" fill="#aa0707"/>
    <rect x="43.18" y="8.34" width="1.51" height="1.51" fill="#cc1d1d"/>
    <rect x="43.18" y="6.82" width="1.51" height="1.52" fill="#cc1d1d"/>
    <rect x="43.18" y="5.31" width="1.51" height="1.51" fill="#ef5454"/>
    <rect x="43.18" y="3.79" width="1.51" height="1.52" fill="#fff"/>
    <rect x="41.66" y="46.2" width="1.52" height="1.52" fill="#fff"/>
    <rect x="41.66" y="44.69" width="1.52" height="1.51" fill="#aa0707"/>
    <rect x="41.66" y="43.18" width="1.52" height="1.52" fill="#cc1d1d"/>
    <rect x="41.66" y="41.66" width="1.52" height="1.51" fill="#cc1d1d"/>
    <rect x="41.66" y="40.15" width="1.52" height="1.52" fill="#cc1d1d"/>
    <rect x="41.66" y="38.63" width="1.52" height="1.51" fill="#cc1d1d"/>
    <rect x="41.66" y="37.12" width="1.52" height="1.52" fill="#ef5454"/>
    <rect x="41.66" y="35.6" width="1.52" height="1.51" fill="#fff"/>
    <rect x="41.66" y="12.88" width="1.52" height="1.51" fill="#fff"/>
    <rect x="41.66" y="11.37" width="1.52" height="1.51" fill="#aa0707"/>
    <rect x="41.66" y="9.85" width="1.52" height="1.52" fill="#cc1d1d"/>
    <rect x="41.66" y="8.34" width="1.52" height="1.51" fill="#cc1d1d"/>
    <rect x="41.66" y="6.82" width="1.52" height="1.52" fill="#cc1d1d"/>
    <rect x="41.66" y="5.31" width="1.52" height="1.51" fill="#cc1d1d"/>
    <rect x="41.66" y="3.79" width="1.52" height="1.52" fill="#ef5454"/>
    <rect x="41.66" y="2.28" width="1.52" height="1.51" fill="#fff"/>
    <rect x="40.15" y="46.2" width="1.51" height="1.52" fill="#fff"/>
    <rect x="40.15" y="44.69" width="1.51" height="1.51" fill="#aa0707"/>
    <rect x="40.15" y="43.18" width="1.51" height="1.52" fill="#cc1d1d"/>
    <rect x="40.15" y="41.66" width="1.51" height="1.51" fill="#cc1d1d"/>
    <rect x="40.15" y="40.15" width="1.51" height="1.52" fill="#cc1d1d"/>
    <rect x="40.15" y="38.63" width="1.51" height="1.51" fill="#cc1d1d"/>
    <rect x="40.15" y="37.12" width="1.51" height="1.52" fill="#cc1d1d"/>
    <rect x="40.15" y="35.6" width="1.51" height="1.51" fill="#ef5454"/>
    <rect x="40.15" y="34.09" width="1.51" height="1.52" fill="#fff"/>
    <rect x="40.15" y="14.4" width="1.51" height="1.52" fill="#fff"/>
    <rect x="40.15" y="12.88" width="1.51" height="1.51" fill="#aa0707"/>
    <rect x="40.15" y="11.37" width="1.51" height="1.51" fill="#cc1d1d"/>
    <rect x="40.15" y="9.85" width="1.51" height="1.52" fill="#cc1d1d"/>
    <rect x="40.15" y="8.34" width="1.51" height="1.51" fill="#cc1d1d"/>
    <rect x="40.15" y="6.82" width="1.51" height="1.52" fill="#cc1d1d"/>
    <rect x="40.15" y="5.31" width="1.51" height="1.51" fill="#cc1d1d"/>
    <rect x="40.15" y="3.79" width="1.51" height="1.52" fill="#ef5454"/>
    <rect x="40.15" y="2.28" width="1.51" height="1.51" fill="#fff"/>
    <rect x="38.63" y="44.69" width="1.52" height="1.51" fill="#fff"/>
    <rect x="38.63" y="43.18" width="1.52" height="1.52" fill="#aa0707"/>
    <rect x="38.63" y="41.66" width="1.52" height="1.51" fill="#cc1d1d"/>
    <rect x="38.63" y="40.15" width="1.52" height="1.52" fill="#cc1d1d"/>
    <rect x="38.63" y="38.63" width="1.52" height="1.51" fill="#cc1d1d"/>
    <rect x="38.63" y="37.12" width="1.52" height="1.52" fill="#cc1d1d"/>
    <rect x="38.63" y="35.6" width="1.52" height="1.51" fill="#cc1d1d"/>
    <rect x="38.63" y="34.09" width="1.52" height="1.52" fill="#ef5454"/>
    <rect x="38.63" y="32.57" width="1.52" height="1.51" fill="#fff"/>
    <rect x="38.63" y="15.91" width="1.52" height="1.51" fill="#fff"/>
    <rect x="38.63" y="14.4" width="1.52" height="1.52" fill="#aa0707"/>
    <rect x="38.63" y="12.88" width="1.52" height="1.51" fill="#cc1d1d"/>
    <rect x="38.63" y="11.37" width="1.52" height="1.51" fill="#cc1d1d"/>
    <rect x="38.63" y="9.85" width="1.52" height="1.52" fill="#cc1d1d"/>
    <rect x="38.63" y="8.34" width="1.52" height="1.51" fill="#cc1d1d"/>
    <rect x="38.63" y="6.82" width="1.52" height="1.52" fill="#cc1d1d"/>
    <rect x="38.63" y="5.31" width="1.52" height="1.51" fill="#ef5454"/>
    <rect x="38.63" y="3.79" width="1.52" height="1.52" fill="#fff"/>
    <rect x="37.12" y="43.18" width="1.51" height="1.52" fill="#fff"/>
    <rect x="37.12" y="41.66" width="1.51" height="1.51" fill="#aa0707"/>
    <rect x="37.12" y="40.15" width="1.51" height="1.52" fill="#cc1d1d"/>
    <rect x="37.12" y="38.63" width="1.51" height="1.51" fill="#cc1d1d"/>
    <rect x="37.12" y="37.12" width="1.51" height="1.52" fill="#cc1d1d"/>
    <rect x="37.12" y="35.6" width="1.51" height="1.51" fill="#cc1d1d"/>
    <rect x="37.12" y="34.09" width="1.51" height="1.52" fill="#cc1d1d"/>
    <rect x="37.12" y="32.57" width="1.51" height="1.51" fill="#ef5454"/>
    <rect x="37.12" y="31.06" width="1.51" height="1.51" fill="#fff"/>
    <rect x="37.12" y="17.43" width="1.51" height="1.52" fill="#fff"/>
    <rect x="37.12" y="15.91" width="1.51" height="1.51" fill="#aa0707"/>
    <rect x="37.12" y="14.4" width="1.51" height="1.52" fill="#cc1d1d"/>
    <rect x="37.12" y="12.88" width="1.51" height="1.51" fill="#cc1d1d"/>
    <rect x="37.12" y="11.37" width="1.51" height="1.51" fill="#cc1d1d"/>
    <rect x="37.12" y="9.85" width="1.51" height="1.52" fill="#cc1d1d"/>
    <rect x="37.12" y="8.34" width="1.51" height="1.51" fill="#cc1d1d"/>
    <rect x="37.12" y="6.82" width="1.51" height="1.52" fill="#ef5454"/>
    <rect x="37.12" y="5.31" width="1.51" height="1.51" fill="#fff"/>
    <rect x="35.6" y="41.66" width="1.52" height="1.51" fill="#fff"/>
    <rect x="35.6" y="40.15" width="1.52" height="1.52" fill="#aa0707"/>
    <rect x="35.6" y="38.63" width="1.52" height="1.51" fill="#cc1d1d"/>
    <rect x="35.6" y="37.12" width="1.52" height="1.52" fill="#cc1d1d"/>
    <rect x="35.6" y="35.6" width="1.52" height="1.51" fill="#cc1d1d"/>
    <rect x="35.6" y="34.09" width="1.52" height="1.52" fill="#cc1d1d"/>
    <rect x="35.6" y="32.57" width="1.52" height="1.51" fill="#cc1d1d"/>
    <rect x="35.6" y="31.06" width="1.52" height="1.51" fill="#ef5454"/>
    <rect x="35.6" y="29.54" width="1.52" height="1.52" fill="#fff"/>
    <rect x="35.6" y="18.94" width="1.52" height="1.51" fill="#fff"/>
    <rect x="35.6" y="17.43" width="1.52" height="1.52" fill="#aa0707"/>
    <rect x="35.6" y="15.91" width="1.52" height="1.51" fill="#cc1d1d"/>
    <rect x="35.6" y="14.4" width="1.52" height="1.52" fill="#cc1d1d"/>
    <rect x="35.6" y="12.88" width="1.52" height="1.51" fill="#cc1d1d"/>
    <rect x="35.6" y="11.37" width="1.52" height="1.51" fill="#cc1d1d"/>
    <rect x="35.6" y="9.85" width="1.52" height="1.52" fill="#cc1d1d"/>
    <rect x="35.6" y="8.34" width="1.52" height="1.51" fill="#ef5454"/>
    <rect x="35.6" y="6.82" width="1.52" height="1.52" fill="#fff"/>
    <rect x="34.09" y="40.15" width="1.51" height="1.52" fill="#fff"/>
    <rect x="34.09" y="38.63" width="1.51" height="1.51" fill="#aa0707"/>
    <rect x="34.09" y="37.12" width="1.51" height="1.52" fill="#cc1d1d"/>
    <rect x="34.09" y="35.6" width="1.51" height="1.51" fill="#cc1d1d"/>
    <rect x="34.09" y="34.09" width="1.51" height="1.52" fill="#cc1d1d"/>
    <rect x="34.09" y="32.57" width="1.51" height="1.51" fill="#cc1d1d"/>
    <rect x="34.09" y="31.06" width="1.51" height="1.51" fill="#cc1d1d"/>
    <rect x="34.09" y="29.54" width="1.51" height="1.52" fill="#ef5454"/>
    <rect x="34.09" y="28.03" width="1.51" height="1.51" fill="#fff"/>
    <rect x="34.09" y="20.46" width="1.51" height="1.52" fill="#fff"/>
    <rect x="34.09" y="18.94" width="1.51" height="1.51" fill="#aa0707"/>
    <rect x="34.09" y="17.43" width="1.51" height="1.52" fill="#cc1d1d"/>
    <rect x="34.09" y="15.91" width="1.51" height="1.51" fill="#cc1d1d"/>
    <rect x="34.09" y="14.4" width="1.51" height="1.52" fill="#cc1d1d"/>
    <rect x="34.09" y="12.88" width="1.51" height="1.51" fill="#cc1d1d"/>
    <rect x="34.09" y="11.37" width="1.51" height="1.51" fill="#cc1d1d"/>
    <rect x="34.09" y="9.85" width="1.51" height="1.52" fill="#ef5454"/>
    <rect x="34.09" y="8.34" width="1.51" height="1.51" fill="#fff"/>
    <rect x="32.57" y="38.63" width="1.52" height="1.51" fill="#fff"/>
    <rect x="32.57" y="37.12" width="1.52" height="1.52" fill="#aa0707"/>
    <rect x="32.57" y="35.6" width="1.52" height="1.51" fill="#cc1d1d"/>
    <rect x="32.57" y="34.09" width="1.52" height="1.52" fill="#cc1d1d"/>
    <rect x="32.57" y="32.57" width="1.52" height="1.51" fill="#cc1d1d"/>
    <rect x="32.57" y="31.06" width="1.52" height="1.51" fill="#cc1d1d"/>
    <rect x="32.57" y="29.54" width="1.52" height="1.52" fill="#cc1d1d"/>
    <rect x="32.57" y="28.03" width="1.52" height="1.51" fill="#ef5454"/>
    <rect x="32.57" y="26.51" width="1.52" height="1.52" fill="#fff"/>
    <rect x="32.57" y="21.97" width="1.52" height="1.51" fill="#fff"/>
    <rect x="32.57" y="20.46" width="1.52" height="1.52" fill="#aa0707"/>
    <rect x="32.57" y="18.94" width="1.52" height="1.51" fill="#cc1d1d"/>
    <rect x="32.57" y="17.43" width="1.52" height="1.52" fill="#cc1d1d"/>
    <rect x="32.57" y="15.91" width="1.52" height="1.51" fill="#cc1d1d"/>
    <rect x="32.57" y="14.4" width="1.52" height="1.52" fill="#cc1d1d"/>
    <rect x="32.57" y="12.88" width="1.52" height="1.51" fill="#cc1d1d"/>
    <rect x="32.57" y="11.37" width="1.52" height="1.51" fill="#ef5454"/>
    <rect x="32.57" y="9.85" width="1.52" height="1.52" fill="#fff"/>
    <rect x="31.06" y="37.12" width="1.51" height="1.52" fill="#fff"/>
    <rect x="31.06" y="35.6" width="1.51" height="1.51" fill="#aa0707"/>
    <rect x="31.06" y="34.09" width="1.51" height="1.52" fill="#cc1d1d"/>
    <rect x="31.06" y="32.57" width="1.51" height="1.51" fill="#cc1d1d"/>
    <rect x="31.06" y="31.06" width="1.51" height="1.51" fill="#cc1d1d"/>
    <rect x="31.06" y="29.54" width="1.51" height="1.52" fill="#cc1d1d"/>
    <rect x="31.06" y="28.03" width="1.51" height="1.51" fill="#cc1d1d"/>
    <rect x="31.06" y="26.51" width="1.51" height="1.52" fill="#ef5454"/>
    <rect x="31.06" y="25" width="1.51" height="1.51" fill="#fff"/>
    <rect x="31.06" y="23.49" width="1.51" height="1.52" fill="#fff"/>
    <rect x="31.06" y="21.97" width="1.51" height="1.51" fill="#aa0707"/>
    <rect x="31.06" y="20.46" width="1.51" height="1.52" fill="#cc1d1d"/>
    <rect x="31.06" y="18.94" width="1.51" height="1.51" fill="#cc1d1d"/>
    <rect x="31.06" y="17.43" width="1.51" height="1.52" fill="#cc1d1d"/>
    <rect x="31.06" y="15.91" width="1.51" height="1.51" fill="#cc1d1d"/>
    <rect x="31.06" y="14.4" width="1.51" height="1.52" fill="#cc1d1d"/>
    <rect x="31.06" y="12.88" width="1.51" height="1.51" fill="#ef5454"/>
    <rect x="31.06" y="11.37" width="1.51" height="1.51" fill="#fff"/>
    <rect x="29.54" y="35.6" width="1.52" height="1.51" fill="#fff"/>
    <rect x="29.54" y="34.09" width="1.52" height="1.52" fill="#aa0707"/>
    <rect x="29.54" y="32.57" width="1.52" height="1.51" fill="#cc1d1d"/>
    <rect x="29.54" y="31.06" width="1.52" height="1.51" fill="#cc1d1d"/>
    <rect x="29.54" y="29.54" width="1.52" height="1.52" fill="#cc1d1d"/>
    <rect x="29.54" y="28.03" width="1.52" height="1.51" fill="#cc1d1d"/>
    <rect x="29.54" y="26.51" width="1.52" height="1.52" fill="#cc1d1d"/>
    <rect x="29.54" y="25" width="1.52" height="1.51" fill="#aa0707"/>
    <rect x="29.54" y="23.49" width="1.52" height="1.52" fill="#aa0707"/>
    <rect x="29.54" y="21.97" width="1.52" height="1.51" fill="#cc1d1d"/>
    <rect x="29.54" y="20.46" width="1.52" height="1.52" fill="#cc1d1d"/>
    <rect x="29.54" y="18.94" width="1.52" height="1.51" fill="#cc1d1d"/>
    <rect x="29.54" y="17.43" width="1.52" height="1.52" fill="#cc1d1d"/>
    <rect x="29.54" y="15.91" width="1.52" height="1.51" fill="#cc1d1d"/>
    <rect x="29.54" y="14.4" width="1.52" height="1.52" fill="#ef5454"/>
    <rect x="29.54" y="12.88" width="1.52" height="1.51" fill="#fff"/>
    <rect x="28.03" y="34.09" width="1.51" height="1.52" fill="#fff"/>
    <rect x="28.03" y="32.57" width="1.51" height="1.51" fill="#aa0707"/>
    <rect x="28.03" y="31.06" width="1.51" height="1.51" fill="#cc1d1d"/>
    <rect x="28.03" y="29.54" width="1.51" height="1.52" fill="#cc1d1d"/>
    <rect x="28.03" y="28.03" width="1.51" height="1.51" fill="#cc1d1d"/>
    <rect x="28.03" y="26.51" width="1.51" height="1.52" fill="#cc1d1d"/>
    <rect x="28.03" y="25" width="1.51" height="1.51" fill="#cc1d1d"/>
    <rect x="28.03" y="23.49" width="1.51" height="1.52" fill="#cc1d1d"/>
    <rect x="28.03" y="21.97" width="1.51" height="1.51" fill="#cc1d1d"/>
    <rect x="28.03" y="20.46" width="1.51" height="1.52" fill="#cc1d1d"/>
    <rect x="28.03" y="18.94" width="1.51" height="1.51" fill="#cc1d1d"/>
    <rect x="28.03" y="17.43" width="1.51" height="1.52" fill="#cc1d1d"/>
    <rect x="28.03" y="15.91" width="1.51" height="1.51" fill="#ef5454"/>
    <rect x="28.03" y="14.4" width="1.51" height="1.52" fill="#fff"/>
    <rect x="26.52" y="32.57" width="1.51" height="1.51" fill="#fff"/>
    <rect x="26.52" y="31.06" width="1.51" height="1.51" fill="#aa0707"/>
    <rect x="26.52" y="29.54" width="1.51" height="1.52" fill="#cc1d1d"/>
    <rect x="26.52" y="28.03" width="1.51" height="1.51" fill="#cc1d1d"/>
    <rect x="26.52" y="26.51" width="1.51" height="1.52" fill="#cc1d1d"/>
    <rect x="26.52" y="25" width="1.51" height="1.51" fill="#cc1d1d"/>
    <rect x="26.52" y="23.49" width="1.51" height="1.52" fill="#cc1d1d"/>
    <rect x="26.52" y="21.97" width="1.51" height="1.51" fill="#cc1d1d"/>
    <rect x="26.52" y="20.46" width="1.51" height="1.52" fill="#cc1d1d"/>
    <rect x="26.52" y="18.94" width="1.51" height="1.51" fill="#cc1d1d"/>
    <rect x="26.52" y="17.43" width="1.51" height="1.52" fill="#ef5454"/>
    <rect x="26.52" y="15.91" width="1.51" height="1.51" fill="#fff"/>
    <rect x="25" y="31.06" width="1.52" height="1.51" fill="#fff"/>
    <rect x="25" y="29.54" width="1.52" height="1.52" fill="#aa0707"/>
    <rect x="25" y="28.03" width="1.52" height="1.51" fill="#cc1d1d"/>
    <rect x="25" y="26.51" width="1.52" height="1.52" fill="#cc1d1d"/>
    <rect x="25" y="25" width="1.52" height="1.51" fill="#cc1d1d"/>
    <rect x="25" y="23.49" width="1.52" height="1.52" fill="#cc1d1d"/>
    <rect x="25" y="21.97" width="1.52" height="1.51" fill="#cc1d1d"/>
    <rect x="25" y="20.46" width="1.52" height="1.52" fill="#cc1d1d"/>
    <rect x="25" y="18.94" width="1.52" height="1.51" fill="#ef5454"/>
    <rect x="25" y="17.43" width="1.52" height="1.52" fill="#fff"/>
    <rect x="23.49" y="31.06" width="1.51" height="1.51" fill="#fff"/>
    <rect x="23.49" y="29.54" width="1.51" height="1.52" fill="#aa0707"/>
    <rect x="23.49" y="28.03" width="1.51" height="1.51" fill="#cc1d1d"/>
    <rect x="23.49" y="26.51" width="1.51" height="1.52" fill="#cc1d1d"/>
    <rect x="23.49" y="25" width="1.51" height="1.51" fill="#cc1d1d"/>
    <rect x="23.49" y="23.49" width="1.51" height="1.52" fill="#cc1d1d"/>
    <rect x="23.49" y="21.97" width="1.51" height="1.51" fill="#cc1d1d"/>
    <rect x="23.49" y="20.46" width="1.51" height="1.52" fill="#cc1d1d"/>
    <rect x="23.49" y="18.94" width="1.51" height="1.51" fill="#ef5454"/>
    <rect x="23.49" y="17.43" width="1.51" height="1.52" fill="#fff"/>
    <rect x="21.97" y="32.57" width="1.52" height="1.51" fill="#fff"/>
    <rect x="21.97" y="31.06" width="1.52" height="1.51" fill="#aa0707"/>
    <rect x="21.97" y="29.54" width="1.52" height="1.52" fill="#cc1d1d"/>
    <rect x="21.97" y="28.03" width="1.52" height="1.51" fill="#cc1d1d"/>
    <rect x="21.97" y="26.51" width="1.52" height="1.52" fill="#cc1d1d"/>
    <rect x="21.97" y="25" width="1.52" height="1.51" fill="#cc1d1d"/>
    <rect x="21.97" y="23.49" width="1.52" height="1.52" fill="#cc1d1d"/>
    <rect x="21.97" y="21.97" width="1.52" height="1.51" fill="#cc1d1d"/>
    <rect x="21.97" y="20.46" width="1.52" height="1.52" fill="#cc1d1d"/>
    <rect x="21.97" y="18.94" width="1.52" height="1.51" fill="#cc1d1d"/>
    <rect x="21.97" y="17.43" width="1.52" height="1.52" fill="#ef5454"/>
    <rect x="21.97" y="15.91" width="1.52" height="1.51" fill="#fff"/>
    <rect x="20.46" y="34.09" width="1.51" height="1.52" fill="#fff"/>
    <rect x="20.46" y="32.57" width="1.51" height="1.51" fill="#aa0707"/>
    <rect x="20.46" y="31.06" width="1.51" height="1.51" fill="#cc1d1d"/>
    <rect x="20.46" y="29.54" width="1.51" height="1.52" fill="#cc1d1d"/>
    <rect x="20.46" y="28.03" width="1.51" height="1.51" fill="#cc1d1d"/>
    <rect x="20.46" y="26.51" width="1.51" height="1.52" fill="#cc1d1d"/>
    <rect x="20.46" y="25" width="1.51" height="1.51" fill="#cc1d1d"/>
    <rect x="20.46" y="23.49" width="1.51" height="1.52" fill="#cc1d1d"/>
    <rect x="20.46" y="21.97" width="1.51" height="1.51" fill="#cc1d1d"/>
    <rect x="20.46" y="20.46" width="1.51" height="1.52" fill="#cc1d1d"/>
    <rect x="20.46" y="18.94" width="1.51" height="1.51" fill="#cc1d1d"/>
    <rect x="20.46" y="17.43" width="1.51" height="1.52" fill="#cc1d1d"/>
    <rect x="20.46" y="15.91" width="1.51" height="1.51" fill="#ef5454"/>
    <rect x="20.46" y="14.4" width="1.51" height="1.52" fill="#fff"/>
    <rect x="18.94" y="35.6" width="1.52" height="1.51" fill="#fff"/>
    <rect x="18.94" y="34.09" width="1.52" height="1.52" fill="#aa0707"/>
    <rect x="18.94" y="32.57" width="1.52" height="1.51" fill="#cc1d1d"/>
    <rect x="18.94" y="31.06" width="1.52" height="1.51" fill="#cc1d1d"/>
    <rect x="18.94" y="29.54" width="1.52" height="1.52" fill="#cc1d1d"/>
    <rect x="18.94" y="28.03" width="1.52" height="1.51" fill="#cc1d1d"/>
    <rect x="18.94" y="26.51" width="1.52" height="1.52" fill="#cc1d1d"/>
    <rect x="18.94" y="25" width="1.52" height="1.51" fill="#aa0707"/>
    <rect x="18.94" y="23.49" width="1.52" height="1.52" fill="#aa0707"/>
    <rect x="18.94" y="21.97" width="1.52" height="1.51" fill="#cc1d1d"/>
    <rect x="18.94" y="20.46" width="1.52" height="1.52" fill="#cc1d1d"/>
    <rect x="18.94" y="18.94" width="1.52" height="1.51" fill="#cc1d1d"/>
    <rect x="18.94" y="17.43" width="1.52" height="1.52" fill="#cc1d1d"/>
    <rect x="18.94" y="15.91" width="1.52" height="1.51" fill="#cc1d1d"/>
    <rect x="18.94" y="14.4" width="1.52" height="1.52" fill="#ef5454"/>
    <rect x="18.94" y="12.88" width="1.52" height="1.51" fill="#fff"/>
    <rect x="17.43" y="37.12" width="1.51" height="1.52" fill="#fff"/>
    <rect x="17.43" y="35.6" width="1.51" height="1.51" fill="#aa0707"/>
    <rect x="17.43" y="34.09" width="1.51" height="1.52" fill="#cc1d1d"/>
    <rect x="17.43" y="32.57" width="1.51" height="1.51" fill="#cc1d1d"/>
    <rect x="17.43" y="31.06" width="1.51" height="1.51" fill="#cc1d1d"/>
    <rect x="17.43" y="29.54" width="1.51" height="1.52" fill="#cc1d1d"/>
    <rect x="17.43" y="28.03" width="1.51" height="1.51" fill="#cc1d1d"/>
    <rect x="17.43" y="26.51" width="1.51" height="1.52" fill="#ef5454"/>
    <rect x="17.43" y="25" width="1.51" height="1.51" fill="#fff"/>
    <rect x="17.43" y="23.49" width="1.51" height="1.52" fill="#fff"/>
    <rect x="17.43" y="21.97" width="1.51" height="1.51" fill="#aa0707"/>
    <rect x="17.43" y="20.46" width="1.51" height="1.52" fill="#cc1d1d"/>
    <rect x="17.43" y="18.94" width="1.51" height="1.51" fill="#cc1d1d"/>
    <rect x="17.43" y="17.43" width="1.51" height="1.52" fill="#cc1d1d"/>
    <rect x="17.43" y="15.91" width="1.51" height="1.51" fill="#cc1d1d"/>
    <rect x="17.43" y="14.4" width="1.51" height="1.52" fill="#cc1d1d"/>
    <rect x="17.43" y="12.88" width="1.51" height="1.51" fill="#ef5454"/>
    <rect x="17.43" y="11.37" width="1.51" height="1.51" fill="#fff"/>
    <rect x="15.91" y="38.63" width="1.52" height="1.51" fill="#fff"/>
    <rect x="15.91" y="37.12" width="1.52" height="1.52" fill="#aa0707"/>
    <rect x="15.91" y="35.6" width="1.52" height="1.51" fill="#cc1d1d"/>
    <rect x="15.91" y="34.09" width="1.52" height="1.52" fill="#cc1d1d"/>
    <rect x="15.91" y="32.57" width="1.52" height="1.51" fill="#cc1d1d"/>
    <rect x="15.91" y="31.06" width="1.52" height="1.51" fill="#cc1d1d"/>
    <rect x="15.91" y="29.54" width="1.52" height="1.52" fill="#cc1d1d"/>
    <rect x="15.91" y="28.03" width="1.52" height="1.51" fill="#ef5454"/>
    <rect x="15.91" y="26.51" width="1.52" height="1.52" fill="#fff"/>
    <rect x="15.91" y="21.97" width="1.52" height="1.51" fill="#fff"/>
    <rect x="15.91" y="20.46" width="1.52" height="1.52" fill="#aa0707"/>
    <rect x="15.91" y="18.94" width="1.52" height="1.51" fill="#cc1d1d"/>
    <rect x="15.91" y="17.43" width="1.52" height="1.52" fill="#cc1d1d"/>
    <rect x="15.91" y="15.91" width="1.52" height="1.51" fill="#cc1d1d"/>
    <rect x="15.91" y="14.4" width="1.52" height="1.52" fill="#cc1d1d"/>
    <rect x="15.91" y="12.88" width="1.52" height="1.51" fill="#cc1d1d"/>
    <rect x="15.91" y="11.37" width="1.52" height="1.51" fill="#ef5454"/>
    <rect x="15.91" y="9.85" width="1.52" height="1.52" fill="#fff"/>
    <rect x="14.4" y="40.15" width="1.51" height="1.52" fill="#fff"/>
    <rect x="14.4" y="38.63" width="1.51" height="1.51" fill="#aa0707"/>
    <rect x="14.4" y="37.12" width="1.51" height="1.52" fill="#cc1d1d"/>
    <rect x="14.4" y="35.6" width="1.51" height="1.51" fill="#cc1d1d"/>
    <rect x="14.4" y="34.09" width="1.51" height="1.52" fill="#cc1d1d"/>
    <rect x="14.4" y="32.57" width="1.51" height="1.51" fill="#cc1d1d"/>
    <rect x="14.4" y="31.06" width="1.51" height="1.51" fill="#cc1d1d"/>
    <rect x="14.4" y="29.54" width="1.51" height="1.52" fill="#ef5454"/>
    <rect x="14.4" y="28.03" width="1.51" height="1.51" fill="#fff"/>
    <rect x="14.4" y="20.46" width="1.51" height="1.52" fill="#fff"/>
    <rect x="14.4" y="18.94" width="1.51" height="1.51" fill="#aa0707"/>
    <rect x="14.4" y="17.43" width="1.51" height="1.52" fill="#cc1d1d"/>
    <rect x="14.4" y="15.91" width="1.51" height="1.51" fill="#cc1d1d"/>
    <rect x="14.4" y="14.4" width="1.51" height="1.52" fill="#cc1d1d"/>
    <rect x="14.4" y="12.88" width="1.51" height="1.51" fill="#cc1d1d"/>
    <rect x="14.4" y="11.37" width="1.51" height="1.51" fill="#cc1d1d"/>
    <rect x="14.4" y="9.85" width="1.51" height="1.52" fill="#ef5454"/>
    <rect x="14.4" y="8.34" width="1.51" height="1.51" fill="#fff"/>
    <rect x="12.88" y="41.66" width="1.52" height="1.51" fill="#fff"/>
    <rect x="12.88" y="40.15" width="1.52" height="1.52" fill="#aa0707"/>
    <rect x="12.88" y="38.63" width="1.52" height="1.51" fill="#cc1d1d"/>
    <rect x="12.88" y="37.12" width="1.52" height="1.52" fill="#cc1d1d"/>
    <rect x="12.88" y="35.6" width="1.52" height="1.51" fill="#cc1d1d"/>
    <rect x="12.88" y="34.09" width="1.52" height="1.52" fill="#cc1d1d"/>
    <rect x="12.88" y="32.57" width="1.52" height="1.51" fill="#cc1d1d"/>
    <rect x="12.88" y="31.06" width="1.52" height="1.51" fill="#ef5454"/>
    <rect x="12.88" y="29.54" width="1.52" height="1.52" fill="#fff"/>
    <rect x="12.88" y="18.94" width="1.52" height="1.51" fill="#fff"/>
    <rect x="12.88" y="17.43" width="1.52" height="1.52" fill="#aa0707"/>
    <rect x="12.88" y="15.91" width="1.52" height="1.51" fill="#cc1d1d"/>
    <rect x="12.88" y="14.4" width="1.52" height="1.52" fill="#cc1d1d"/>
    <rect x="12.88" y="12.88" width="1.52" height="1.51" fill="#cc1d1d"/>
    <rect x="12.88" y="11.37" width="1.52" height="1.51" fill="#cc1d1d"/>
    <rect x="12.88" y="9.85" width="1.52" height="1.52" fill="#cc1d1d"/>
    <rect x="12.88" y="8.34" width="1.52" height="1.51" fill="#ef5454"/>
    <rect x="12.88" y="6.82" width="1.52" height="1.52" fill="#fff"/>
    <rect x="11.37" y="43.18" width="1.51" height="1.52" fill="#fff"/>
    <rect x="11.37" y="41.66" width="1.51" height="1.51" fill="#aa0707"/>
    <rect x="11.37" y="40.15" width="1.51" height="1.52" fill="#cc1d1d"/>
    <rect x="11.37" y="38.63" width="1.51" height="1.51" fill="#cc1d1d"/>
    <rect x="11.37" y="37.12" width="1.51" height="1.52" fill="#cc1d1d"/>
    <rect x="11.37" y="35.6" width="1.51" height="1.51" fill="#cc1d1d"/>
    <rect x="11.37" y="34.09" width="1.51" height="1.52" fill="#cc1d1d"/>
    <rect x="11.37" y="32.57" width="1.51" height="1.51" fill="#ef5454"/>
    <rect x="11.37" y="31.06" width="1.51" height="1.51" fill="#fff"/>
    <rect x="11.37" y="17.43" width="1.51" height="1.52" fill="#fff"/>
    <rect x="11.37" y="15.91" width="1.51" height="1.51" fill="#aa0707"/>
    <rect x="11.37" y="14.4" width="1.51" height="1.52" fill="#cc1d1d"/>
    <rect x="11.37" y="12.88" width="1.51" height="1.51" fill="#cc1d1d"/>
    <rect x="11.37" y="11.37" width="1.51" height="1.51" fill="#cc1d1d"/>
    <rect x="11.37" y="9.85" width="1.51" height="1.52" fill="#cc1d1d"/>
    <rect x="11.37" y="8.34" width="1.51" height="1.51" fill="#cc1d1d"/>
    <rect x="11.37" y="6.82" width="1.51" height="1.52" fill="#ef5454"/>
    <rect x="11.37" y="5.31" width="1.51" height="1.51" fill="#fff"/>
    <rect x="9.85" y="44.69" width="1.51" height="1.51" fill="#fff"/>
    <rect x="9.85" y="43.18" width="1.51" height="1.52" fill="#aa0707"/>
    <rect x="9.85" y="41.66" width="1.51" height="1.51" fill="#cc1d1d"/>
    <rect x="9.85" y="40.15" width="1.51" height="1.52" fill="#cc1d1d"/>
    <rect x="9.85" y="38.63" width="1.51" height="1.51" fill="#cc1d1d"/>
    <rect x="9.85" y="37.12" width="1.51" height="1.52" fill="#cc1d1d"/>
    <rect x="9.85" y="35.6" width="1.51" height="1.51" fill="#cc1d1d"/>
    <rect x="9.85" y="34.09" width="1.51" height="1.52" fill="#ef5454"/>
    <rect x="9.85" y="32.57" width="1.51" height="1.51" fill="#fff"/>
    <rect x="9.85" y="15.91" width="1.51" height="1.51" fill="#fff"/>
    <rect x="9.85" y="14.4" width="1.51" height="1.52" fill="#aa0707"/>
    <rect x="9.85" y="12.88" width="1.51" height="1.51" fill="#cc1d1d"/>
    <rect x="9.85" y="11.37" width="1.51" height="1.51" fill="#cc1d1d"/>
    <rect x="9.85" y="9.85" width="1.51" height="1.52" fill="#cc1d1d"/>
    <rect x="9.85" y="8.34" width="1.51" height="1.51" fill="#cc1d1d"/>
    <rect x="9.85" y="6.82" width="1.51" height="1.52" fill="#cc1d1d"/>
    <rect x="9.85" y="5.31" width="1.51" height="1.51" fill="#ef5454"/>
    <rect x="9.85" y="3.79" width="1.51" height="1.52" fill="#fff"/>
    <rect x="8.34" y="46.2" width="1.52" height="1.52" fill="#fff"/>
    <rect x="8.34" y="44.69" width="1.52" height="1.51" fill="#aa0707"/>
    <rect x="8.34" y="43.18" width="1.52" height="1.52" fill="#cc1d1d"/>
    <rect x="8.34" y="41.66" width="1.52" height="1.51" fill="#cc1d1d"/>
    <rect x="8.34" y="40.15" width="1.52" height="1.52" fill="#cc1d1d"/>
    <rect x="8.34" y="38.63" width="1.52" height="1.51" fill="#cc1d1d"/>
    <rect x="8.34" y="37.12" width="1.52" height="1.52" fill="#cc1d1d"/>
    <rect x="8.34" y="35.6" width="1.52" height="1.51" fill="#ef5454"/>
    <rect x="8.34" y="34.09" width="1.52" height="1.52" fill="#fff"/>
    <rect x="8.34" y="14.4" width="1.52" height="1.52" fill="#fff"/>
    <rect x="8.34" y="12.88" width="1.52" height="1.51" fill="#aa0707"/>
    <rect x="8.34" y="11.37" width="1.52" height="1.51" fill="#cc1d1d"/>
    <rect x="8.34" y="9.85" width="1.52" height="1.52" fill="#cc1d1d"/>
    <rect x="8.34" y="8.34" width="1.52" height="1.51" fill="#cc1d1d"/>
    <rect x="8.34" y="6.82" width="1.52" height="1.52" fill="#cc1d1d"/>
    <rect x="8.34" y="5.31" width="1.52" height="1.51" fill="#cc1d1d"/>
    <rect x="8.34" y="3.79" width="1.52" height="1.52" fill="#ef5454"/>
    <rect x="8.34" y="2.28" width="1.52" height="1.51" fill="#fff"/>
    <rect x="6.82" y="46.2" width="1.51" height="1.52" fill="#fff"/>
    <rect x="6.82" y="44.69" width="1.51" height="1.51" fill="#aa0707"/>
    <rect x="6.82" y="43.18" width="1.51" height="1.52" fill="#cc1d1d"/>
    <rect x="6.82" y="41.66" width="1.51" height="1.51" fill="#cc1d1d"/>
    <rect x="6.82" y="40.15" width="1.51" height="1.52" fill="#cc1d1d"/>
    <rect x="6.82" y="38.63" width="1.51" height="1.51" fill="#cc1d1d"/>
    <rect x="6.82" y="37.12" width="1.51" height="1.52" fill="#ef5454"/>
    <rect x="6.82" y="35.6" width="1.51" height="1.51" fill="#fff"/>
    <rect x="6.82" y="12.88" width="1.51" height="1.51" fill="#fff"/>
    <rect x="6.82" y="11.37" width="1.51" height="1.51" fill="#aa0707"/>
    <rect x="6.82" y="9.85" width="1.51" height="1.52" fill="#cc1d1d"/>
    <rect x="6.82" y="8.34" width="1.51" height="1.51" fill="#cc1d1d"/>
    <rect x="6.82" y="6.82" width="1.51" height="1.52" fill="#cc1d1d"/>
    <rect x="6.82" y="5.31" width="1.51" height="1.51" fill="#cc1d1d"/>
    <rect x="6.82" y="3.79" width="1.51" height="1.52" fill="#ef5454"/>
    <rect x="6.82" y="2.28" width="1.51" height="1.51" fill="#fff"/>
    <rect x="5.31" y="44.69" width="1.52" height="1.51" fill="#fff"/>
    <rect x="5.31" y="43.18" width="1.52" height="1.52" fill="#aa0707"/>
    <rect x="5.31" y="41.66" width="1.52" height="1.51" fill="#cc1d1d"/>
    <rect x="5.31" y="40.15" width="1.52" height="1.52" fill="#cc1d1d"/>
    <rect x="5.31" y="38.63" width="1.52" height="1.51" fill="#ef5454"/>
    <rect x="5.31" y="37.12" width="1.52" height="1.52" fill="#fff"/>
    <rect x="5.31" y="11.37" width="1.52" height="1.51" fill="#fff"/>
    <rect x="5.31" y="9.85" width="1.52" height="1.52" fill="#aa0707"/>
    <rect x="5.31" y="8.34" width="1.52" height="1.51" fill="#cc1d1d"/>
    <rect x="5.31" y="6.82" width="1.52" height="1.52" fill="#cc1d1d"/>
    <rect x="5.31" y="5.31" width="1.52" height="1.51" fill="#ef5454"/>
    <rect x="5.31" y="3.79" width="1.52" height="1.52" fill="#fff"/>
    <rect x="3.8" y="43.18" width="1.51" height="1.52" fill="#fff"/>
    <rect x="3.8" y="41.66" width="1.51" height="1.51" fill="#aa0707"/>
    <rect x="3.8" y="40.15" width="1.51" height="1.52" fill="#ef5454"/>
    <rect x="3.8" y="38.63" width="1.51" height="1.51" fill="#fff"/>
    <rect x="3.8" y="9.85" width="1.51" height="1.52" fill="#fff"/>
    <rect x="3.8" y="8.34" width="1.51" height="1.51" fill="#aa0707"/>
    <rect x="3.8" y="6.82" width="1.51" height="1.52" fill="#ef5454"/>
    <rect x="3.8" y="5.31" width="1.51" height="1.51" fill="#fff"/>
    <rect x="2.28" y="41.66" width="1.52" height="1.51" fill="#fff"/>
    <rect x="2.28" y="40.15" width="1.52" height="1.52" fill="#fff"/>
    <rect x="2.28" y="8.34" width="1.52" height="1.51" fill="#fff"/>
    <rect x="2.28" y="6.82" width="1.52" height="1.52" fill="#fff"/>
  </g>
</svg>
