<svg id="Capa_1" data-name="Capa 1" xmlns="http://www.w3.org/2000/svg" xmlns:xlink="http://www.w3.org/1999/xlink" width="50" height="50" viewBox="0 0 50 50">
  <defs>
    <clipPath id="clip-path">
      <polygon points="24.04 49.77 1.25 39.48 1.41 9.17 24.2 19.46 24.04 49.77" fill="none"/>
    </clipPath>
    <clipPath id="clip-path-2">
      <polygon points="24.2 19.46 1.41 9.17 25.95 0.24 48.74 10.53 24.2 19.46" fill="none"/>
    </clipPath>
    <clipPath id="clip-path-3">
      <polygon points="48.74 10.53 48.58 40.83 24.04 49.77 24.2 19.46 48.74 10.53" fill="none"/>
    </clipPath>
  </defs>
  <g id="Figment_lido">
    <g style="isolation: isolate">
      <g>
        <polygon points="24.04 49.77 1.25 39.48 1.41 9.17 24.2 19.46 24.04 49.77" fill="#d6d6d6"/>
        <g style="isolation: isolate">
          <g clip-path="url(#clip-path)">
            <g>
              <path d="M8.25,21.83a2.73,2.73,0,0,0-2.67.07l1.59,3.15a1.27,1.27,0,0,1,1.09,0,2.63,2.63,0,0,1,.79.61l1.21-2.25a6,6,0,0,0-2-1.62" fill="#0779b8"/>
              <path d="M5.58,21.9a4.34,4.34,0,0,0-1.66,3.78,9.75,9.75,0,0,0,.14,1.51l2.33.26a3.57,3.57,0,0,1-.06-.65,1.85,1.85,0,0,1,.84-1.75L5.58,21.9" fill="#005fa1"/>
              <path d="M6.39,27.45l-2.33-.26c.46,2.72,2.1,5.33,4.09,6.25a2.74,2.74,0,0,0,2.62,0L9.44,30.21a1.19,1.19,0,0,1-1.23.06,3.79,3.79,0,0,1-1.82-2.82" fill="#e98b2b"/>
              <path d="M10.26,23.45,9.05,25.7a4.34,4.34,0,0,1,.87,1.53l1.93-1a9.51,9.51,0,0,0-1.59-2.81" fill="#0f8bcb"/>
              <path d="M17.65,34a1.2,1.2,0,0,1-1.07.05l0,0a2.42,2.42,0,0,1-.74-.55L14.68,35.9a5.43,5.43,0,0,0,1.8,1.39l.23.1a2.59,2.59,0,0,0,2.62-.28L17.65,34" fill="#03adde"/>
              <path d="M20.63,31.64l-2.29-.09a4.76,4.76,0,0,1,.08.66A2,2,0,0,1,17.65,34l1.68,3.07a4.55,4.55,0,0,0,1.48-3.94,8.87,8.87,0,0,0-.18-1.53" fill="#46c1e0"/>
              <path d="M16.6,25.7l-.21-.09a2.62,2.62,0,0,0-2.57.23L15.23,29a1.17,1.17,0,0,1,1.21-.15l.08,0a3.79,3.79,0,0,1,1.82,2.69l2.29.09c-.53-2.62-2.13-5.07-4-5.94" fill="#e98b2b"/>
              <path d="M14.87,32,13,33.16a9.42,9.42,0,0,0,1.68,2.74l1.11-2.38A4,4,0,0,1,14.87,32" fill="#10a6db"/>
            </g>
          </g>
        </g>
      </g>
      <g>
        <polygon points="24.2 19.46 1.41 9.17 25.95 0.24 48.74 10.53 24.2 19.46" fill="#ebebeb"/>
        <g style="isolation: isolate">
          <g clip-path="url(#clip-path-2)">
            <g>
              <path d="M16.72,9.44a3.25,3.25,0,0,0-2,1.54l3.65.16a1.61,1.61,0,0,1,.88-.61,4.89,4.89,0,0,1,1.08-.24l-.77-1.44a11.65,11.65,0,0,0-2.8.59" fill="#0779b8"/>
              <path d="M14.68,11c-.29.77.2,1.58,1.59,2.2a7.27,7.27,0,0,0,1.27.43l2-1.22A3.4,3.4,0,0,1,19,12.2c-.67-.3-.89-.7-.68-1.06L14.68,11" fill="#005fa1"/>
              <path d="M19.55,12.39l-2,1.22a14.48,14.48,0,0,0,8-.21,3.28,3.28,0,0,0,2-1.49L24,11.59c-.08.26-.38.52-.91.71a6.49,6.49,0,0,1-3.58.09" fill="#e98b2b"/>
              <path d="M19.52,8.85l.77,1.44a7.15,7.15,0,0,1,1.85,0l.77-1.42a16,16,0,0,0-3.39,0" fill="#0f8bcb"/>
              <path d="M33.38,8.23a1.43,1.43,0,0,1-.8.63l-.06,0a4.89,4.89,0,0,1-1,.23l.95,1.43A10.54,10.54,0,0,0,34.94,10l.26-.1c1.09-.44,1.68-1,1.83-1.57l-3.65-.09" fill="#03adde"/>
              <path d="M33.87,5.74,32,7c.2.06.38.11.56.18.7.29,1,.68.8,1.05L37,8.32c.21-.78-.38-1.58-1.84-2.17a9.3,9.3,0,0,0-1.32-.41" fill="#46c1e0"/>
              <path d="M26.19,6,26,6.11a2.86,2.86,0,0,0-1.83,1.53l3.49.26c.06-.27.32-.53.83-.74l.09,0A6.6,6.6,0,0,1,32,7l1.85-1.26A14.53,14.53,0,0,0,26.19,6" fill="#e98b2b"/>
              <path d="M29.67,9.13l-.6,1.44a16.1,16.1,0,0,0,3.4,0l-.95-1.43a6.74,6.74,0,0,1-1.85,0" fill="#10a6db"/>
            </g>
          </g>
        </g>
      </g>
      <g>
        <polygon points="48.74 10.53 48.58 40.83 24.04 49.77 24.2 19.46 48.74 10.53" fill="#f0f0f0"/>
        <g style="isolation: isolate">
          <g clip-path="url(#clip-path-3)">
            <g>
              <path d="M31.9,26.11a6.89,6.89,0,0,0-3,2.39l1.79,1.79a2.87,2.87,0,0,1,1.2-.9,1.51,1.51,0,0,1,.88-.07L34.14,26a3.55,3.55,0,0,0-2.24.1" fill="#0779b8"/>
              <path d="M28.93,28.5a9.12,9.12,0,0,0-1.82,5.23,5.74,5.74,0,0,0,.16,1.41l2.59-1.75a2.43,2.43,0,0,1-.07-.61,4,4,0,0,1,.93-2.49L28.93,28.5" fill="#005fa1"/>
              <path d="M29.86,33.39l-2.59,1.75c.52,2.34,2.35,3.54,4.57,2.73a6.78,6.78,0,0,0,2.92-2.3l-1.49-2.06a3,3,0,0,1-1.37,1.13,1.48,1.48,0,0,1-2-1.25" fill="#e98b2b"/>
              <path d="M34.14,26,32.8,29.32a1.42,1.42,0,0,1,1,.77l2.14-2.64A3.19,3.19,0,0,0,34.14,26" fill="#0f8bcb"/>
              <path d="M42.42,30.24a3.14,3.14,0,0,1-1.2,1l-.06,0a1.69,1.69,0,0,1-.82.08l-1.22,3.35a3.41,3.41,0,0,0,2-.15l.26-.11a7,7,0,0,0,2.91-2.54l-1.87-1.65" fill="#03adde"/>
              <path d="M45.71,25.27l-2.54,1.89a3.36,3.36,0,0,1,.09.58,4,4,0,0,1-.84,2.5l1.87,1.65a9,9,0,0,0,1.64-5.25,5.69,5.69,0,0,0-.22-1.37" fill="#46c1e0"/>
              <path d="M41.21,22.78a1.17,1.17,0,0,0-.24.09,7,7,0,0,0-2.86,2.46l1.58,1.93A3.2,3.2,0,0,1,41,26.06l.1,0a1.48,1.48,0,0,1,2,1.14l2.54-1.89a3.27,3.27,0,0,0-4.5-2.49" fill="#e98b2b"/>
              <path d="M39.31,30.64l-2.07,2.75a3,3,0,0,0,1.88,1.3l1.22-3.35a1.36,1.36,0,0,1-1-.7" fill="#10a6db"/>
            </g>
          </g>
        </g>
      </g>
    </g>
  </g>
</svg>
