<svg id="Capa_1" data-name="Capa 1" xmlns="http://www.w3.org/2000/svg" xmlns:xlink="http://www.w3.org/1999/xlink" width="50" height="50" viewBox="0 0 50 50">
  <defs>
    <clipPath id="clip-path">
      <polygon points="24.04 49.76 1.25 39.47 1.41 9.17 24.2 19.46 24.04 49.76" fill="none"/>
    </clipPath>
    <clipPath id="clip-path-2">
      <polygon points="24.2 19.46 1.41 9.17 25.96 0.24 48.74 10.53 24.2 19.46" fill="none"/>
    </clipPath>
    <clipPath id="clip-path-3">
      <polygon points="48.74 10.53 48.59 40.82 24.04 49.76 24.2 19.46 48.74 10.53" fill="none"/>
    </clipPath>
  </defs>
  <g id="Figment_lido">
    <g style="isolation: isolate">
      <g>
        <polygon points="24.04 49.76 1.25 39.47 1.41 9.17 24.2 19.46 24.04 49.76" fill="#226bd5"/>
        <g style="isolation: isolate">
          <g clip-path="url(#clip-path)">
            <g>
              <path d="M18.27,35.15h0v.07l0,0v-.05m.68.17,0-.06,0,.06m0-.63v0l0,0v0l0,0m.11-.84.08-.16.1.27-.09.36-.09,0v-.42m-2-1.91.07,0,0,.08,0,0-.06-.09m.07-1.56,0-.1,0,.1m2.09-1,0,0,.07.1-.06,0-.05-.08m-2.2-3.27h0l0,.06h0l0-.06m-.68-.92a.19.19,0,0,1-.19.07l-.13-.05-.06,0a.68.68,0,0,0-.16-.09,8.19,8.19,0,0,1-1-.17h-.17c-.27.23-.51.52-.9.45,0,.05,0,.11,0,.15,0,.21-.06.35-.25.34s-.22.08-.21.25v0a.57.57,0,0,1,0,.12c0,.13,0,.19-.08.21a.23.23,0,0,1-.19,0l-.09,0a4.22,4.22,0,0,0-.47,2.11q0,3.64,0,7.31a.92.92,0,0,0,.55,1c.63.3,1.26.58,1.89.86.12.05.25.09.34,0a.68.68,0,0,1,0-.21c0-.12.08-.15.2-.11,0-.73,0-1.48,0-2.21l-.08-.46V32.38c0-.75,0-1.5,0-2.25v-.22c0-.3,0-.61.22-.76h.26l0-.15c.07-.06.2,0,.34,0l0,0a1.19,1.19,0,0,1,.53.51l.11.05.1,0h0a.24.24,0,0,1,.14.14.29.29,0,0,1,0,.09.9.9,0,0,1-.05.19v.23l0,.1v.12a.75.75,0,0,1,.1.3.15.15,0,0,1-.09.14l0,.14a.75.75,0,0,1,0,.15c0,.31-.21.45-.29.7h-.17a.53.53,0,0,0-.17-.12c-.12-.06-.21,0-.25.15a.9.9,0,0,0,0,.18c0,.45,0,.89,0,1.33s0,.88,0,1.32,0,.7.37.88l.22.07.15,0,.16,0c.08-.31.28-.23.48-.14a1,1,0,0,0,.23.08c.21,0,.35-.12.53-.19a.57.57,0,0,1,.46-.11l.06,0,0-.06.06,0v-.06a.77.77,0,0,1,.28-.59.35.35,0,0,0,.13-.26.66.66,0,0,0,0-.13l.14-.19h0c.14.07.16,0,.18-.2l.09-.38a3.82,3.82,0,0,0,.18-1.3c0-.37,0-.74,0-1.11L20,30.71a1,1,0,0,1-.1-.44.56.56,0,0,1,0-.23c-.14-.13-.11-.27-.12-.41l0-.09-.05,0c-.13-.05-.19-.14-.24-.42a2.85,2.85,0,0,0-.75-1.46l-.09.05v0l.1,0a.8.8,0,0,0-.31-.55.61.61,0,0,1-.26-.5h0l-.07-.09-.35-.19-.17,0-.11,0a.45.45,0,0,1-.24-.31L17,25.66l-.24-.31-.32-.16" fill="#fcfdfd"/>
              <path d="M9.36,22.05l-3.6-1.58c-.34-.16-.51,0-.51.48q0,1.15,0,2.31a.94.94,0,0,0,.56,1l.76.35.56.23,0,0c.22.09.28.23.28.55,0,2.7,0,5.41,0,8.11,0,.62.15.9.61,1.1l1.64.73c.48.21.62.06.62-.61v-4c0-1.35,0-2.7,0-4,0-.29,0-.43.22-.34l.07,0,.25.12.34.14c.71.27,1.3-.34,1.3-1.32a2.89,2.89,0,0,0-1.33-2.46l-1.8-.8" fill="#fbfdfd"/>
              <path d="M17.2,31.08c-.21.47-.45.62-.81.47a1.35,1.35,0,0,1-.29-.18L16,31.29c-.16-.07-.18.06-.17.3,0,.91,0,1.81,0,2.71s0,1.05.45,1.23a2.93,2.93,0,0,0,.37.14h0c-.34-.18-.37-.49-.37-.88s0-.88,0-1.32,0-.88,0-1.33a.9.9,0,0,1,0-.18c0-.15.13-.21.25-.15a.53.53,0,0,1,.17.12h.17c.08-.25.28-.39.29-.7a.75.75,0,0,0,0-.15" fill="#fbfdfd"/>
              <path d="M19.91,30a.56.56,0,0,0,0,.23,1,1,0,0,0,.1.44L20,31c0,.37,0,.74,0,1.11a3.82,3.82,0,0,1-.18,1.3l-.09.38c0,.16,0,.27-.18.2h0l-.14.19a.66.66,0,0,1,0,.13.35.35,0,0,1-.13.26.77.77,0,0,0-.28.59v.06c1-.7,1.45-3.22.86-5.17" fill="#fbfdfd"/>
              <path d="M15.89,29.15h-.26c-.21.15-.22.46-.22.76v.22c0,.75,0,1.5,0,2.25v2.27l.08.46,0-.17c0-1.51,0-3,0-4.56,0-.57,0-1,.38-1.23" fill="#fbfdfd"/>
              <path d="M18.16,26.59a.61.61,0,0,0,.26.5.8.8,0,0,1,.31.55,2.85,2.85,0,0,1,.75,1.46c.05.28.11.37.24.42l.05,0a7.67,7.67,0,0,0-1.61-2.95" fill="#fbfdfd"/>
              <path d="M18.89,35.36a.57.57,0,0,0-.46.11c-.18.07-.32.2-.53.19a1,1,0,0,1-.23-.08c-.2-.09-.4-.17-.48.14l-.16,0-.15,0a2.06,2.06,0,0,0,2-.38" fill="#fbfdfd"/>
              <path d="M16.73,25.35l.24.31.26.26a.45.45,0,0,0,.24.31l.11,0,.17,0,.35.19a4.55,4.55,0,0,0-1.37-1.15" fill="#fbfdfd"/>
              <path d="M13.81,25.39a2.07,2.07,0,0,0-.8,1l.09,0a.23.23,0,0,0,.19,0c.05,0,.08-.08.08-.21a.57.57,0,0,0,0-.12v0c0-.17.1-.26.21-.25s.25-.13.25-.34c0,0,0-.1,0-.15" fill="#fbfdfd"/>
              <path d="M16.21,25.09a2.1,2.1,0,0,0-1.33-.16,8.19,8.19,0,0,0,1,.17.89.89,0,0,1,.16.09l.06,0,.13.05a.19.19,0,0,0,.19-.07l-.2-.1" fill="#fbfdfd"/>
              <path d="M14.71,24.94a1.55,1.55,0,0,0-.9.45c.39.07.63-.22.9-.45" fill="#fbfdfd"/>
              <path d="M16.26,29c-.14-.06-.27-.08-.34,0l0,.15a.73.73,0,0,1,.48.05,1.52,1.52,0,0,1,.46.35A1.19,1.19,0,0,0,16.3,29l0,0" fill="#fbfdfd"/>
              <path d="M17,29.63l-.1,0-.11-.05.32.63v-.13a.9.9,0,0,0,.05-.19.29.29,0,0,0,0-.09.24.24,0,0,0-.14-.14h0" fill="#fbfdfd"/>
              <path d="M15.47,37.32c-.12,0-.2,0-.2.11a.68.68,0,0,0,0,.21c.11,0,.17-.14.16-.32" fill="#fbfdfd"/>
              <path d="M17.21,30.5v.44a.15.15,0,0,0,.09-.14.75.75,0,0,0-.1-.3" fill="#fbfdfd"/>
              <path d="M19.79,29.63c0,.14,0,.28.12.41l-.12-.41" fill="#fbfdfd"/>
              <polyline points="18.1 26.5 18.17 26.59 18.1 26.5" fill="#fbfdfd"/>
              <polyline points="17.16 30.28 17.2 30.38 17.16 30.28" fill="#fbfdfd"/>
              <polyline points="19 35.26 18.95 35.32 19 35.26" fill="#fbfdfd"/>
              <polyline points="19.17 33.69 19.09 33.85 19.09 34.27 19.18 34.32 19.27 33.96 19.17 33.69" fill="#fbfdfd"/>
              <polyline points="19.33 29.34 19.29 29.38 19.34 29.46 19.4 29.44 19.33 29.34" fill="#fbfdfd"/>
              <polyline points="17.2 31.91 17.13 31.94 17.19 32.03 17.23 31.98 17.2 31.91" fill="#fbfdfd"/>
              <polyline points="17.13 26.1 17.09 26.11 17.12 26.17 17.15 26.16 17.13 26.1" fill="#fbfdfd"/>
              <polyline points="18.73 27.64 18.63 27.66 18.64 27.69 18.73 27.64" fill="#fbfdfd"/>
              <polyline points="18.31 35.15 18.27 35.15 18.28 35.2 18.32 35.22 18.31 35.15" fill="#fbfdfd"/>
              <polyline points="19 34.67 18.98 34.69 19.01 34.72 19.02 34.69 19 34.67" fill="#fbfdfd"/>
            </g>
          </g>
        </g>
      </g>
      <g>
        <polygon points="24.2 19.46 1.41 9.17 25.96 0.24 48.74 10.53 24.2 19.46" fill="#2576ea"/>
        <g style="isolation: isolate">
          <g clip-path="url(#clip-path-2)">
            <g>
              <path d="M34.54,8l0,0,.05,0-.05,0,0,0m.68-.33v0m-.45-.23v0h0m-.55-.36L34.16,7l.28,0,.21.18-.12,0-.31-.15m-3,.46,0,0h.08v0h-.1M30,7l-.1,0L30,7M31,5.44v0h.13l0,0H31m-4.28.14,0,0h.06l0,0h-.07m-1.25.06c0,.06,0,.1-.11.14l-.14,0-.07,0-.2.06c-.34.16-.55.36-.93.51l-.12.1c-.05.23,0,.47-.39.67l.12,0c.16.06.23.15.06.25s-.12.16,0,.21h0l.1,0c.1,0,.12.08.1.12A.41.41,0,0,1,23.7,8l-.1,0a2.3,2.3,0,0,0,1.24,1l5.58,2.53a1.51,1.51,0,0,0,1.18,0l2.19-.79c.14,0,.28-.11.26-.2a.64.64,0,0,1-.2-.05c-.09,0-.05-.09.08-.15-.53-.27-1.11-.53-1.68-.77l-.42-.11L30.1,8.71l-1.72-.79-.16-.07c-.24-.11-.46-.22-.41-.39L28,7.31l-.09-.07c0-.06.13-.13.29-.19h0a2.25,2.25,0,0,1,.83-.13l.12,0,.11,0h0a.47.47,0,0,1,.23,0l.07,0,.12.09.1,0,.08,0L30,7l.11,0a1,1,0,0,1,.3.05c.05,0,.07,0,0,.1l.09.06a.43.43,0,0,1,.12,0c.23.11.17.28.3.41l-.14.09-.23.06c-.14,0-.17.12-.09.19a.49.49,0,0,0,.13.08l1,.45,1,.47a1.22,1.22,0,0,0,1,.09l.23-.1.09-.1.14-.08c-.17-.16.06-.24.28-.32s.19-.07.26-.11.19-.24.28-.37a.55.55,0,0,1,.29-.3V7.6l0,0A.31.31,0,0,1,35,7.21c0-.07,0-.12-.1-.16l-.1,0,0-.15h0c.16-.06.09-.11,0-.17l-.22-.18a2.56,2.56,0,0,0-.85-.56l-.87-.36-.29-.06a1.44,1.44,0,0,1-.42-.1.39.39,0,0,1-.14-.1.62.62,0,0,1-.41-.07l-.08,0-.06,0a.77.77,0,0,1-.52,0,4.82,4.82,0,0,0-1.71-.08l-.05.08h0l.08-.07a1.42,1.42,0,0,0-.68,0,1,1,0,0,1-.6,0h-.11l-.44.14-.17.07-.12.06a.78.78,0,0,1-.42,0l-.41.06-.44,0-.37.12" fill="#fcfdfd"/>
              <path d="M17.3,8.58l-4.13,1.51c-.4.15-.41.3,0,.46.57.27,1.16.54,1.76.8a1.46,1.46,0,0,0,1.21,0l.88-.31.63-.24.05,0a.77.77,0,0,1,.66,0l6.19,2.81a1.53,1.53,0,0,0,1.34,0L27.73,13c.55-.2.55-.33,0-.56L24.69,11c-1-.46-2.06-.94-3.09-1.39-.23-.09-.3-.17-.09-.25l.1,0,.3-.1.37-.15c.78-.31.8-.86,0-1.2a4.68,4.68,0,0,0-3-.09l-2.07.75" fill="#fbfdfd"/>
              <path d="M30.56,7.23c.19.28.12.47-.3.62-.1,0-.23.07-.37.11l-.16,0c-.19.07-.11.12.09.2.71.31,1.39.63,2.07.94s.83.34,1.3.17l.41-.17,0,0a1.22,1.22,0,0,1-1-.09l-1-.47-1-.45A.49.49,0,0,1,30.52,8c-.08-.07-.05-.14.09-.19l.23-.06L31,7.69c-.13-.13-.07-.3-.3-.41a.43.43,0,0,0-.12,0" fill="#fbfdfd"/>
              <path d="M32,5.32a.39.39,0,0,0,.14.1,1.44,1.44,0,0,0,.42.1l.29.06.87.36a2.56,2.56,0,0,1,.85.56l.22.18c.1.06.17.11,0,.17h0l0,.15.1,0c.09,0,.11.09.1.16a.31.31,0,0,0,.22.37l0,0c.31-.83-1.29-1.94-3.26-2.28" fill="#fbfdfd"/>
              <path d="M28,7.31l-.21.15c0,.17.17.28.41.39l.16.07,1.72.79,1.73.78.42.11-.1-.08C31,9,29.84,8.47,28.65,8c-.44-.19-.74-.38-.63-.64" fill="#fbfdfd"/>
              <path d="M27.9,5.13a1,1,0,0,0,.6,0,1.42,1.42,0,0,1,.68,0,4.82,4.82,0,0,1,1.71.08.77.77,0,0,0,.52,0l.06,0a12.52,12.52,0,0,0-3.57-.1" fill="#fbfdfd"/>
              <path d="M35.21,7.74a.55.55,0,0,0-.29.3c-.09.13-.1.25-.28.37s-.17.07-.26.11-.45.16-.28.32L34,8.92l-.09.1c.8-.37,1.24-.79,1.34-1.28" fill="#fbfdfd"/>
              <path d="M25.79,5.52l.44,0,.41-.06a.78.78,0,0,0,.42,0l.12-.06.17-.07.44-.14a9.58,9.58,0,0,0-2,.39" fill="#fbfdfd"/>
              <path d="M23.46,7.2A.75.75,0,0,0,23.6,8l.1,0a.41.41,0,0,0,.18-.09s0-.08-.1-.12l-.1,0h0c-.14,0-.12-.14,0-.21s.1-.19-.06-.25l-.12,0" fill="#fbfdfd"/>
              <path d="M25.18,5.72A3.12,3.12,0,0,0,24,6.43c.38-.15.59-.35.93-.51l.2-.06.07,0,.14,0c.07,0,.11-.08.11-.14l-.24.08" fill="#fbfdfd"/>
              <path d="M23.85,6.53a.94.94,0,0,0-.39.67c.37-.2.34-.44.39-.67" fill="#fbfdfd"/>
              <path d="M28.22,7.05c-.16.06-.27.13-.29.19l.09.07a1.17,1.17,0,0,1,.43-.26,3.07,3.07,0,0,1,.64-.14,2.25,2.25,0,0,0-.83.13h0" fill="#fbfdfd"/>
              <path d="M29.32,6.82l-.11,0-.12,0,.75,0-.1,0-.12-.09-.07,0a.47.47,0,0,0-.23,0h0" fill="#fbfdfd"/>
              <path d="M33.93,10.37c-.13.06-.17.11-.08.15a.64.64,0,0,0,.2.05c.06-.07,0-.15-.12-.2" fill="#fbfdfd"/>
              <path d="M30.13,7l.34.15s0-.08,0-.1a1,1,0,0,0-.3-.05" fill="#fbfdfd"/>
              <path d="M31.55,5.25a.62.62,0,0,0,.41.07l-.41-.07" fill="#fbfdfd"/>
              <polyline points="27.79 5.13 27.91 5.12 27.79 5.13" fill="#fbfdfd"/>
              <polyline points="29.92 6.97 30.02 6.99 29.92 6.97" fill="#fbfdfd"/>
              <polyline points="35.22 7.65 35.23 7.69 35.22 7.65" fill="#fbfdfd"/>
              <polyline points="34.16 7 34.22 7.1 34.53 7.25 34.65 7.21 34.44 7.04 34.16 7" fill="#fbfdfd"/>
              <polyline points="30.96 5.41 30.95 5.45 31.06 5.44 31.09 5.4 30.96 5.41" fill="#fbfdfd"/>
              <polyline points="31.2 7.52 31.17 7.56 31.27 7.56 31.28 7.52 31.2 7.52" fill="#fbfdfd"/>
              <polyline points="26.7 5.55 26.67 5.58 26.74 5.58 26.76 5.55 26.7 5.55" fill="#fbfdfd"/>
              <polyline points="29.18 5.16 29.1 5.23 29.13 5.24 29.18 5.16" fill="#fbfdfd"/>
              <polyline points="34.58 8 34.54 8.02 34.58 8.04 34.63 8.02 34.58 8" fill="#fbfdfd"/>
              <polyline points="34.76 7.44 34.77 7.46 34.81 7.45 34.8 7.44 34.76 7.44" fill="#fbfdfd"/>
            </g>
          </g>
        </g>
      </g>
      <g>
        <polygon points="48.74 10.53 48.59 40.82 24.04 49.76 24.2 19.46 48.74 10.53" fill="#2678ef"/>
        <g style="isolation: isolate">
          <g clip-path="url(#clip-path-3)">
            <g>
              <path d="M42.9,31.09l.05,0v.05l-.05,0v0m.77-.42,0-.09,0,.09m0-.66,0,0h0v0h0m.13-1,.09-.23L44,29l-.1.45-.1,0v-.43m-2.2-.25.07-.09,0,0,0,.08-.06,0m.08-1.65,0-.08,0,.08m2.37-2.83,0-.08.07.05-.06.07-.06,0m-2.47-1.44.05,0,0,0,0,.05,0,0m-.76-.35a.54.54,0,0,1-.22.23l-.15.07-.06,0a.74.74,0,0,0-.19,0c-.38.2-.73.53-1.11.68l-.19.16a3.78,3.78,0,0,1-1,1.23c0,.05,0,.1,0,.15a.65.65,0,0,1-.29.56.61.61,0,0,0-.24.43s0,0,0,0v.12a.43.43,0,0,1-.08.28.46.46,0,0,1-.22.14l-.1,0a6.54,6.54,0,0,0-.54,2.56q0,3.74,0,7.46c0,.52.19.67.61.52.71-.24,1.43-.5,2.14-.76a.65.65,0,0,0,.38-.31.49.49,0,0,1,0-.18.35.35,0,0,1,.24-.29c0-.78,0-1.53,0-2.27l-.1-.39c0-.77,0-1.54,0-2.31s0-1.54,0-2.31v-.22a1.57,1.57,0,0,1,.25-1l.3-.22,0-.18a.75.75,0,0,1,.37-.28h.05a.56.56,0,0,1,.59.07l.13-.05.12-.05h0c.07,0,.13,0,.15,0a.15.15,0,0,1,0,.08,1,1,0,0,1,0,.23v.22l0,.08v.11a.28.28,0,0,1,.11.21.38.38,0,0,1-.1.23l0,.16a.71.71,0,0,1,0,.14,4.53,4.53,0,0,1-.33,1l-.2.14a.36.36,0,0,0-.18,0,.49.49,0,0,0-.29.37,1.23,1.23,0,0,0,0,.2c0,.46,0,.91,0,1.36s0,.9,0,1.36,0,.68.42.58l.24-.12.18-.17.17-.11a.7.7,0,0,1,.54-.56,1.11,1.11,0,0,0,.27-.13,4,4,0,0,0,.59-.64,1.8,1.8,0,0,1,.52-.51l.07-.1,0-.09.07-.1a.13.13,0,0,1,0-.06,1.81,1.81,0,0,1,.33-.85.69.69,0,0,0,.14-.37v-.13l.16-.31h0c.15-.06.18-.19.2-.37l.1-.46A5,5,0,0,0,45,26.43c0-.37,0-.74,0-1.1l-.09-.23a.66.66,0,0,1-.1-.37.65.65,0,0,1,0-.27c-.16,0-.13-.19-.14-.32l0-.07-.06,0c-.14,0-.21,0-.27-.22a1,1,0,0,0-.83-.85l-.11.13v0l.12-.1c0-.21-.17-.33-.36-.3s-.26-.08-.29-.28h0l-.07,0c-.13,0-.27.06-.4.11a.82.82,0,0,0-.19.09l-.13.07a.19.19,0,0,1-.26-.11l-.3,0-.26-.12-.36.12" fill="#fcfdfd"/>
              <path d="M32.91,25.4l-4,1.48a.87.87,0,0,0-.58.94c0,.79,0,1.58,0,2.35,0,.53.18.69.63.53l.86-.3.62-.24.05,0c.25-.09.32,0,.32.32,0,2.76,0,5.52-.06,8.28,0,.64.17.79.69.6l1.84-.67c.54-.19.7-.46.7-1.15l0-4.11c0-1.38,0-2.76,0-4.12,0-.28,0-.46.25-.54l.08,0a1.31,1.31,0,0,0,.28-.09c.13,0,.26-.1.39-.15A2.9,2.9,0,0,0,36.43,26c0-1-.67-1.66-1.49-1.36l-2,.73" fill="#fbfdfd"/>
              <path d="M41.71,27.86c-.23.65-.5,1-.91,1.17a1.6,1.6,0,0,1-.33.07l-.14,0c-.18.06-.2.21-.19.45,0,.92,0,1.85,0,2.76s0,1,.5.88L41,33l.05,0c-.38.1-.42-.19-.42-.58s0-.91,0-1.36,0-.9,0-1.36a1.23,1.23,0,0,1,0-.2.49.49,0,0,1,.29-.37.36.36,0,0,1,.18,0l.2-.14a4.53,4.53,0,0,0,.33-1,.71.71,0,0,0,0-.14" fill="#fbfdfd"/>
              <path d="M44.79,24.46a.65.65,0,0,0,0,.27.66.66,0,0,0,.1.37l.09.23c0,.36,0,.73,0,1.1a5,5,0,0,1-.21,1.49l-.1.46c0,.18,0,.31-.2.37h0l-.16.31v.13a.69.69,0,0,1-.14.37,1.81,1.81,0,0,0-.33.85.13.13,0,0,0,0,.06c1.17-1.61,1.65-4.54,1-6" fill="#fbfdfd"/>
              <path d="M40.25,27l-.3.22a1.57,1.57,0,0,0-.25,1v.22c0,.77,0,1.54,0,2.31s0,1.54,0,2.31l.1.39,0-.19c0-1.55,0-3.11,0-4.65A2.29,2.29,0,0,1,40.25,27" fill="#fbfdfd"/>
              <path d="M42.82,22.45c0,.2.1.31.29.28s.31.09.36.3a1,1,0,0,1,.83.85c.06.23.13.27.27.22l.06,0a2.65,2.65,0,0,0-1.81-1.62" fill="#fbfdfd"/>
              <path d="M43.6,30.77a1.8,1.8,0,0,0-.52.51,4,4,0,0,1-.59.64,1.11,1.11,0,0,1-.27.13.7.7,0,0,0-.54.56l-.17.11-.18.17a5.85,5.85,0,0,0,2.27-2.12" fill="#fbfdfd"/>
              <path d="M41.22,22.41l.26.12.3,0a.19.19,0,0,0,.26.11l.13-.07a.82.82,0,0,1,.19-.09c.13-.05.27-.07.4-.11a2.61,2.61,0,0,0-1.54,0" fill="#fbfdfd"/>
              <path d="M37.92,25A5.9,5.9,0,0,0,37,26.71l.1,0a.46.46,0,0,0,.22-.14.43.43,0,0,0,.08-.28v-.12s0,0,0,0a.61.61,0,0,1,.24-.43.65.65,0,0,0,.29-.56c0-.05,0-.1,0-.15" fill="#fbfdfd"/>
              <path d="M40.63,22.6a4.18,4.18,0,0,0-1.5,1c.38-.15.73-.48,1.11-.68l.19,0,.06,0,.15-.07a.54.54,0,0,0,.22-.23l-.23.07" fill="#fbfdfd"/>
              <path d="M38.94,23.74a5.15,5.15,0,0,0-1,1.23,3.78,3.78,0,0,0,1-1.23" fill="#fbfdfd"/>
              <path d="M40.66,26.56a.75.75,0,0,0-.37.28l0,.18a1.58,1.58,0,0,1,.54-.37.89.89,0,0,1,.51,0,.56.56,0,0,0-.59-.07h-.05" fill="#fbfdfd"/>
              <path d="M41.55,26.52l-.12.05-.13.05.37.36v-.13a1,1,0,0,0,0-.23.15.15,0,0,0,0-.08c0-.05-.08-.05-.15,0h0" fill="#fbfdfd"/>
              <path d="M39.74,35.71a.35.35,0,0,0-.24.29.49.49,0,0,0,0,.18.66.66,0,0,0,.19-.47" fill="#fbfdfd"/>
              <path d="M41.73,27.26v.44a.38.38,0,0,0,.1-.23.28.28,0,0,0-.11-.21" fill="#fbfdfd"/>
              <path d="M44.65,24.14c0,.13,0,.31.14.32l-.14-.32" fill="#fbfdfd"/>
              <polyline points="42.76 22.41 42.83 22.44 42.76 22.41" fill="#fbfdfd"/>
              <polyline points="41.68 27.07 41.72 27.15 41.68 27.07" fill="#fbfdfd"/>
              <polyline points="43.72 30.58 43.67 30.67 43.72 30.58" fill="#fbfdfd"/>
              <polyline points="43.93 28.82 43.84 29.05 43.84 29.48 43.94 29.46 44.04 29.01 43.93 28.82" fill="#fbfdfd"/>
              <polyline points="44.14 24.24 44.09 24.32 44.15 24.36 44.21 24.29 44.14 24.24" fill="#fbfdfd"/>
              <polyline points="41.71 28.71 41.64 28.8 41.7 28.83 41.75 28.75 41.71 28.71" fill="#fbfdfd"/>
              <polyline points="41.67 22.84 41.62 22.89 41.65 22.92 41.69 22.87 41.67 22.84" fill="#fbfdfd"/>
              <polyline points="43.47 23.03 43.35 23.13 43.36 23.16 43.47 23.03" fill="#fbfdfd"/>
              <polyline points="42.95 31.06 42.9 31.09 42.91 31.13 42.96 31.11 42.95 31.06" fill="#fbfdfd"/>
              <polyline points="43.73 29.97 43.71 30.01 43.74 30.01 43.75 29.98 43.73 29.97" fill="#fbfdfd"/>
            </g>
          </g>
        </g>
      </g>
    </g>
  </g>
</svg>
