<svg id="Capa_1" data-name="Capa 1" xmlns="http://www.w3.org/2000/svg" xmlns:xlink="http://www.w3.org/1999/xlink" width="50" height="50" viewBox="0 0 50 50">
  <defs>
    <clipPath id="clip-path">
      <polygon points="24.04 49.77 1.25 39.48 1.41 9.17 24.2 19.46 24.04 49.77" fill="none"/>
    </clipPath>
    <clipPath id="clip-path-2">
      <polygon points="24.2 19.46 1.41 9.17 25.95 0.24 48.74 10.53 24.2 19.46" fill="none"/>
    </clipPath>
    <clipPath id="clip-path-3">
      <polygon points="48.74 10.53 48.58 40.83 24.04 49.77 24.2 19.46 48.74 10.53" fill="none"/>
    </clipPath>
  </defs>
  <g id="Figment_lido">
    <g style="isolation: isolate">
      <g>
        <polygon points="24.04 49.77 1.25 39.48 1.41 9.17 24.2 19.46 24.04 49.77" fill="#5b5b5b"/>
        <g style="isolation: isolate">
          <g clip-path="url(#clip-path)">
            <g>
              <path d="M11.23,22.82a.54.54,0,0,0-.38-.06.79.79,0,0,0-.36.19L6.61,26.33h0V21.65a1.44,1.44,0,0,0-.17-.75,1,1,0,0,0-.48-.43.43.43,0,0,0-.49,0,.81.81,0,0,0-.17.6V31.61a1.47,1.47,0,0,0,.17.74,1,1,0,0,0,.48.46c.22.1.38.09.49,0a.84.84,0,0,0,.17-.6V27.33h0l4,7a6.46,6.46,0,0,0,.35.56,1,1,0,0,0,.4.31c.19.08.33.08.43,0a.51.51,0,0,0,.14-.44,1.61,1.61,0,0,0-.24-.71L7.87,27.29l3.68-3.13a.7.7,0,0,0,.21-.44.89.89,0,0,0-.11-.52.75.75,0,0,0-.42-.38" fill="#c6c6c6"/>
              <path d="M17.09,25.39A3.71,3.71,0,0,0,15.25,25a2.07,2.07,0,0,0-1.38.63A3.72,3.72,0,0,0,13,27.21a8.68,8.68,0,0,0-.3,2.45,11.74,11.74,0,0,0,.51,3.54A8.24,8.24,0,0,0,14.72,36a6.71,6.71,0,0,0,2.44,1.83,6.24,6.24,0,0,0,1.43.45,4.52,4.52,0,0,0,1.27.1.3.3,0,0,0,.27-.2,1.1,1.1,0,0,0,.09-.49V33.38a1.32,1.32,0,0,0-.13-.62.9.9,0,0,0-.41-.36l-2.18-1a.41.41,0,0,0-.4,0,.52.52,0,0,0-.14.43,1.15,1.15,0,0,0,.14.57.93.93,0,0,0,.4.36l1.62.72v3.24a3.6,3.6,0,0,1-.79-.06,5.06,5.06,0,0,1-1.11-.35,4.74,4.74,0,0,1-2.36-2.23,8.29,8.29,0,0,1-.79-3.83,6.64,6.64,0,0,1,.35-2.36,1.79,1.79,0,0,1,1-1.14,2.25,2.25,0,0,1,1.66.19,4.66,4.66,0,0,1,1.2.75,6.33,6.33,0,0,1,1,1.13,1,1,0,0,0,.31.29l.06,0a.28.28,0,0,0,.29-.08.65.65,0,0,0,.17-.33,1,1,0,0,0,0-.46,1.21,1.21,0,0,0-.23-.49,7,7,0,0,0-1.33-1.47,6.61,6.61,0,0,0-1.49-.92" fill="#c6c6c6"/>
            </g>
          </g>
        </g>
      </g>
      <g>
        <polygon points="24.2 19.46 1.41 9.17 25.95 0.24 48.74 10.53 24.2 19.46" fill="#636363"/>
        <g style="isolation: isolate">
          <g clip-path="url(#clip-path-2)">
            <g>
              <path d="M19.3,8.72A.82.82,0,0,0,19,8.9a.6.6,0,0,0-.14.26l-.51,3.21h0l-3.39-1.53a1.56,1.56,0,0,0-.67-.15,1.68,1.68,0,0,0-.69.12c-.23.08-.35.17-.37.26s.09.19.3.29l7.66,3.46a1.8,1.8,0,0,0,1.37,0q.36-.12.36-.27c0-.1-.1-.19-.3-.29L19,12.71h0l8.19.12h.68a1.89,1.89,0,0,0,.54-.12c.2-.07.3-.15.32-.23s-.06-.16-.22-.22a1.82,1.82,0,0,0-.7-.1L20,12l.55-3a.27.27,0,0,0-.16-.26,1.11,1.11,0,0,0-.46-.11,1.47,1.47,0,0,0-.6.11" fill="#c6c6c6"/>
              <path d="M25.66,6.38a5.9,5.9,0,0,0-1.7.87,1.34,1.34,0,0,0-.59,1,1.32,1.32,0,0,0,.48,1,5.4,5.4,0,0,0,1.56,1,11.8,11.8,0,0,0,3,.89,12.57,12.57,0,0,0,3.19.1,12.44,12.44,0,0,0,3.21-.73,11.47,11.47,0,0,0,1.42-.62,6,6,0,0,0,1.05-.66c.08-.07.11-.14.06-.21a.58.58,0,0,0-.29-.2L33.87,7.3a1.52,1.52,0,0,0-.55-.13,1.69,1.69,0,0,0-.58.1l-2.37.86c-.19.07-.29.14-.32.21s0,.15.2.22a1.27,1.27,0,0,0,.52.11,1.56,1.56,0,0,0,.57-.1l1.77-.64L35.46,9a4.86,4.86,0,0,1-.65.41,8.35,8.35,0,0,1-1.11.49,8.84,8.84,0,0,1-3.43.54,8.92,8.92,0,0,1-3.38-.82,3.91,3.91,0,0,1-1.45-1,.67.67,0,0,1-.05-.92,3,3,0,0,1,1.41-.84,9,9,0,0,1,1.46-.4,10.94,10.94,0,0,1,1.61-.19,1.52,1.52,0,0,0,.45-.08l.06,0c.11-.06.16-.12.17-.19a.26.26,0,0,0-.12-.19,1,1,0,0,0-.34-.15,2.08,2.08,0,0,0-.53,0,12.71,12.71,0,0,0-2.09.25,12.5,12.5,0,0,0-1.81.5" fill="#c6c6c6"/>
            </g>
          </g>
        </g>
      </g>
      <g>
        <polygon points="48.74 10.53 48.58 40.83 24.04 49.77 24.2 19.46 48.74 10.53" fill="#666"/>
        <g style="isolation: isolate">
          <g clip-path="url(#clip-path-3)">
            <g>
              <path d="M34.92,25.87a1.12,1.12,0,0,0-.4.25,2.82,2.82,0,0,0-.37.46l-4,6.17h0l0-4.33a.7.7,0,0,0-.17-.56.48.48,0,0,0-.49,0,1,1,0,0,0-.5.39,1.22,1.22,0,0,0-.18.69l-.05,9.78a.74.74,0,0,0,.17.56.48.48,0,0,0,.5,0,.93.93,0,0,0,.5-.41,1.34,1.34,0,0,0,.17-.68l0-4.51h0l4.11,3.36a1.52,1.52,0,0,0,.36.23.54.54,0,0,0,.41,0,.88.88,0,0,0,.44-.34.9.9,0,0,0,.14-.53.62.62,0,0,0-.24-.46l-3.93-3.27,3.78-5.79a1.43,1.43,0,0,0,.23-.58.48.48,0,0,0-.11-.39c-.09-.09-.23-.1-.43,0" fill="#c6c6c6"/>
              <path d="M40.92,23.65A6.11,6.11,0,0,0,39,24.74a6.55,6.55,0,0,0-1.42,1.67,8.09,8.09,0,0,0-.88,2.13,9.64,9.64,0,0,0-.32,2.51,6.65,6.65,0,0,0,.51,2.89,2.51,2.51,0,0,0,1.53,1.42,3.94,3.94,0,0,0,2.5-.22,9.18,9.18,0,0,0,1.46-.7,10,10,0,0,0,1.31-.91.92.92,0,0,0,.27-.4,1.36,1.36,0,0,0,.09-.51l0-4a.59.59,0,0,0-.14-.46.39.39,0,0,0-.41,0l-2.23.81a.79.79,0,0,0-.41.3.85.85,0,0,0-.15.51.48.48,0,0,0,.15.41.37.37,0,0,0,.4,0l1.67-.6,0,3a9,9,0,0,1-.81.56,6.63,6.63,0,0,1-1.14.55,2.19,2.19,0,0,1-2.41-.22,4.11,4.11,0,0,1-.8-2.93,8.15,8.15,0,0,1,.37-2.46,5,5,0,0,1,1-1.85,4.24,4.24,0,0,1,1.7-1.13,3.7,3.7,0,0,1,1.23-.24,2.38,2.38,0,0,1,1,.24.45.45,0,0,0,.32,0l.06,0a.72.72,0,0,0,.3-.3,1.39,1.39,0,0,0,.17-.44,1,1,0,0,0,0-.42.47.47,0,0,0-.24-.28,2.59,2.59,0,0,0-1.36-.3,4.94,4.94,0,0,0-1.52.3" fill="#c6c6c6"/>
            </g>
          </g>
        </g>
      </g>
    </g>
  </g>
  <g>
    <rect x="46.2" y="41.66" width="1.52" height="1.51" fill="#fff"/>
    <rect x="46.2" y="40.15" width="1.52" height="1.52" fill="#fff"/>
    <rect x="46.2" y="8.34" width="1.52" height="1.51" fill="#fff"/>
    <rect x="46.2" y="6.82" width="1.52" height="1.52" fill="#fff"/>
    <rect x="44.69" y="43.18" width="1.51" height="1.52" fill="#fff"/>
    <rect x="44.69" y="41.66" width="1.51" height="1.51" fill="#ef5454"/>
    <rect x="44.69" y="40.15" width="1.51" height="1.52" fill="#ef5454"/>
    <rect x="44.69" y="38.63" width="1.51" height="1.51" fill="#fff"/>
    <rect x="44.69" y="9.85" width="1.51" height="1.51" fill="#fff"/>
    <rect x="44.69" y="8.34" width="1.51" height="1.51" fill="#aa0707"/>
    <rect x="44.69" y="6.82" width="1.51" height="1.52" fill="#ef5454"/>
    <rect x="44.69" y="5.31" width="1.51" height="1.51" fill="#fff"/>
    <rect x="43.18" y="44.69" width="1.51" height="1.51" fill="#fff"/>
    <rect x="43.18" y="43.18" width="1.51" height="1.52" fill="#aa0707"/>
    <rect x="43.18" y="41.66" width="1.51" height="1.51" fill="#cc1d1d"/>
    <rect x="43.18" y="40.15" width="1.51" height="1.52" fill="#cc1d1d"/>
    <rect x="43.18" y="38.63" width="1.51" height="1.51" fill="#ef5454"/>
    <rect x="43.18" y="37.12" width="1.51" height="1.52" fill="#fff"/>
    <rect x="43.18" y="11.37" width="1.51" height="1.52" fill="#fff"/>
    <rect x="43.18" y="9.85" width="1.51" height="1.51" fill="#aa0707"/>
    <rect x="43.18" y="8.34" width="1.51" height="1.51" fill="#cc1d1d"/>
    <rect x="43.18" y="6.82" width="1.51" height="1.52" fill="#cc1d1d"/>
    <rect x="43.18" y="5.31" width="1.51" height="1.51" fill="#ef5454"/>
    <rect x="43.18" y="3.8" width="1.51" height="1.52" fill="#fff"/>
    <rect x="41.66" y="46.2" width="1.52" height="1.51" fill="#fff"/>
    <rect x="41.66" y="44.69" width="1.52" height="1.51" fill="#aa0707"/>
    <rect x="41.66" y="43.18" width="1.52" height="1.52" fill="#cc1d1d"/>
    <rect x="41.66" y="41.66" width="1.52" height="1.51" fill="#cc1d1d"/>
    <rect x="41.66" y="40.15" width="1.52" height="1.52" fill="#cc1d1d"/>
    <rect x="41.66" y="38.63" width="1.52" height="1.51" fill="#cc1d1d"/>
    <rect x="41.66" y="37.12" width="1.52" height="1.52" fill="#ef5454"/>
    <rect x="41.66" y="35.6" width="1.52" height="1.51" fill="#fff"/>
    <rect x="41.66" y="12.88" width="1.52" height="1.51" fill="#fff"/>
    <rect x="41.66" y="11.37" width="1.52" height="1.52" fill="#aa0707"/>
    <rect x="41.66" y="9.85" width="1.52" height="1.51" fill="#cc1d1d"/>
    <rect x="41.66" y="8.34" width="1.52" height="1.51" fill="#cc1d1d"/>
    <rect x="41.66" y="6.82" width="1.52" height="1.52" fill="#cc1d1d"/>
    <rect x="41.66" y="5.31" width="1.52" height="1.51" fill="#cc1d1d"/>
    <rect x="41.66" y="3.8" width="1.52" height="1.52" fill="#ef5454"/>
    <rect x="41.66" y="2.28" width="1.52" height="1.51" fill="#fff"/>
    <rect x="40.15" y="46.2" width="1.51" height="1.51" fill="#fff"/>
    <rect x="40.15" y="44.69" width="1.51" height="1.51" fill="#aa0707"/>
    <rect x="40.15" y="43.18" width="1.51" height="1.52" fill="#cc1d1d"/>
    <rect x="40.15" y="41.66" width="1.51" height="1.51" fill="#cc1d1d"/>
    <rect x="40.15" y="40.15" width="1.51" height="1.52" fill="#cc1d1d"/>
    <rect x="40.15" y="38.63" width="1.51" height="1.51" fill="#cc1d1d"/>
    <rect x="40.15" y="37.12" width="1.51" height="1.52" fill="#cc1d1d"/>
    <rect x="40.15" y="35.6" width="1.51" height="1.51" fill="#ef5454"/>
    <rect x="40.15" y="34.09" width="1.51" height="1.52" fill="#fff"/>
    <rect x="40.15" y="14.4" width="1.51" height="1.52" fill="#fff"/>
    <rect x="40.15" y="12.88" width="1.51" height="1.51" fill="#aa0707"/>
    <rect x="40.15" y="11.37" width="1.51" height="1.52" fill="#cc1d1d"/>
    <rect x="40.15" y="9.85" width="1.51" height="1.51" fill="#cc1d1d"/>
    <rect x="40.15" y="8.34" width="1.51" height="1.51" fill="#cc1d1d"/>
    <rect x="40.15" y="6.82" width="1.51" height="1.52" fill="#cc1d1d"/>
    <rect x="40.15" y="5.31" width="1.51" height="1.51" fill="#cc1d1d"/>
    <rect x="40.15" y="3.8" width="1.51" height="1.52" fill="#ef5454"/>
    <rect x="40.15" y="2.28" width="1.51" height="1.51" fill="#fff"/>
    <rect x="38.63" y="44.69" width="1.52" height="1.51" fill="#fff"/>
    <rect x="38.63" y="43.18" width="1.52" height="1.52" fill="#aa0707"/>
    <rect x="38.63" y="41.66" width="1.52" height="1.51" fill="#cc1d1d"/>
    <rect x="38.63" y="40.15" width="1.52" height="1.52" fill="#cc1d1d"/>
    <rect x="38.63" y="38.63" width="1.52" height="1.51" fill="#cc1d1d"/>
    <rect x="38.63" y="37.12" width="1.52" height="1.52" fill="#cc1d1d"/>
    <rect x="38.63" y="35.6" width="1.52" height="1.51" fill="#cc1d1d"/>
    <rect x="38.63" y="34.09" width="1.52" height="1.52" fill="#ef5454"/>
    <rect x="38.63" y="32.57" width="1.52" height="1.51" fill="#fff"/>
    <rect x="38.63" y="15.91" width="1.52" height="1.51" fill="#fff"/>
    <rect x="38.63" y="14.4" width="1.52" height="1.52" fill="#aa0707"/>
    <rect x="38.63" y="12.88" width="1.52" height="1.51" fill="#cc1d1d"/>
    <rect x="38.63" y="11.37" width="1.52" height="1.52" fill="#cc1d1d"/>
    <rect x="38.63" y="9.85" width="1.52" height="1.51" fill="#cc1d1d"/>
    <rect x="38.63" y="8.34" width="1.52" height="1.51" fill="#cc1d1d"/>
    <rect x="38.63" y="6.82" width="1.52" height="1.52" fill="#cc1d1d"/>
    <rect x="38.63" y="5.31" width="1.52" height="1.51" fill="#ef5454"/>
    <rect x="38.63" y="3.8" width="1.52" height="1.52" fill="#fff"/>
    <rect x="37.12" y="43.18" width="1.51" height="1.52" fill="#fff"/>
    <rect x="37.12" y="41.66" width="1.51" height="1.51" fill="#aa0707"/>
    <rect x="37.12" y="40.15" width="1.51" height="1.52" fill="#cc1d1d"/>
    <rect x="37.12" y="38.63" width="1.51" height="1.51" fill="#cc1d1d"/>
    <rect x="37.12" y="37.12" width="1.51" height="1.52" fill="#cc1d1d"/>
    <rect x="37.12" y="35.6" width="1.51" height="1.51" fill="#cc1d1d"/>
    <rect x="37.12" y="34.09" width="1.51" height="1.52" fill="#cc1d1d"/>
    <rect x="37.12" y="32.57" width="1.51" height="1.51" fill="#ef5454"/>
    <rect x="37.12" y="31.06" width="1.51" height="1.52" fill="#fff"/>
    <rect x="37.12" y="17.43" width="1.51" height="1.52" fill="#fff"/>
    <rect x="37.12" y="15.91" width="1.51" height="1.51" fill="#aa0707"/>
    <rect x="37.12" y="14.4" width="1.51" height="1.52" fill="#cc1d1d"/>
    <rect x="37.12" y="12.88" width="1.51" height="1.51" fill="#cc1d1d"/>
    <rect x="37.12" y="11.37" width="1.51" height="1.52" fill="#cc1d1d"/>
    <rect x="37.12" y="9.85" width="1.51" height="1.51" fill="#cc1d1d"/>
    <rect x="37.12" y="8.34" width="1.51" height="1.51" fill="#cc1d1d"/>
    <rect x="37.12" y="6.82" width="1.51" height="1.52" fill="#ef5454"/>
    <rect x="37.12" y="5.31" width="1.51" height="1.51" fill="#fff"/>
    <rect x="35.6" y="41.66" width="1.52" height="1.51" fill="#fff"/>
    <rect x="35.6" y="40.15" width="1.52" height="1.52" fill="#aa0707"/>
    <rect x="35.6" y="38.63" width="1.52" height="1.51" fill="#cc1d1d"/>
    <rect x="35.6" y="37.12" width="1.52" height="1.52" fill="#cc1d1d"/>
    <rect x="35.6" y="35.6" width="1.52" height="1.51" fill="#cc1d1d"/>
    <rect x="35.6" y="34.09" width="1.52" height="1.52" fill="#cc1d1d"/>
    <rect x="35.6" y="32.57" width="1.52" height="1.51" fill="#cc1d1d"/>
    <rect x="35.6" y="31.06" width="1.52" height="1.52" fill="#ef5454"/>
    <rect x="35.6" y="29.54" width="1.52" height="1.51" fill="#fff"/>
    <rect x="35.6" y="18.94" width="1.52" height="1.51" fill="#fff"/>
    <rect x="35.6" y="17.43" width="1.52" height="1.52" fill="#aa0707"/>
    <rect x="35.6" y="15.91" width="1.52" height="1.51" fill="#cc1d1d"/>
    <rect x="35.6" y="14.4" width="1.52" height="1.52" fill="#cc1d1d"/>
    <rect x="35.6" y="12.88" width="1.52" height="1.51" fill="#cc1d1d"/>
    <rect x="35.6" y="11.37" width="1.52" height="1.52" fill="#cc1d1d"/>
    <rect x="35.6" y="9.85" width="1.52" height="1.51" fill="#cc1d1d"/>
    <rect x="35.6" y="8.34" width="1.52" height="1.51" fill="#ef5454"/>
    <rect x="35.6" y="6.82" width="1.52" height="1.52" fill="#fff"/>
    <rect x="34.09" y="40.15" width="1.51" height="1.52" fill="#fff"/>
    <rect x="34.09" y="38.63" width="1.51" height="1.51" fill="#aa0707"/>
    <rect x="34.09" y="37.12" width="1.51" height="1.52" fill="#cc1d1d"/>
    <rect x="34.09" y="35.6" width="1.51" height="1.51" fill="#cc1d1d"/>
    <rect x="34.09" y="34.09" width="1.51" height="1.52" fill="#cc1d1d"/>
    <rect x="34.09" y="32.57" width="1.51" height="1.51" fill="#cc1d1d"/>
    <rect x="34.09" y="31.06" width="1.51" height="1.52" fill="#cc1d1d"/>
    <rect x="34.09" y="29.54" width="1.51" height="1.51" fill="#ef5454"/>
    <rect x="34.09" y="28.03" width="1.51" height="1.52" fill="#fff"/>
    <rect x="34.09" y="20.46" width="1.51" height="1.52" fill="#fff"/>
    <rect x="34.09" y="18.94" width="1.51" height="1.51" fill="#aa0707"/>
    <rect x="34.09" y="17.43" width="1.51" height="1.52" fill="#cc1d1d"/>
    <rect x="34.09" y="15.91" width="1.51" height="1.51" fill="#cc1d1d"/>
    <rect x="34.09" y="14.4" width="1.51" height="1.52" fill="#cc1d1d"/>
    <rect x="34.09" y="12.88" width="1.51" height="1.51" fill="#cc1d1d"/>
    <rect x="34.09" y="11.37" width="1.51" height="1.52" fill="#cc1d1d"/>
    <rect x="34.09" y="9.85" width="1.51" height="1.51" fill="#ef5454"/>
    <rect x="34.09" y="8.34" width="1.51" height="1.51" fill="#fff"/>
    <rect x="32.57" y="38.63" width="1.52" height="1.51" fill="#fff"/>
    <rect x="32.57" y="37.12" width="1.52" height="1.52" fill="#aa0707"/>
    <rect x="32.57" y="35.6" width="1.52" height="1.51" fill="#cc1d1d"/>
    <rect x="32.57" y="34.09" width="1.52" height="1.52" fill="#cc1d1d"/>
    <rect x="32.57" y="32.57" width="1.52" height="1.51" fill="#cc1d1d"/>
    <rect x="32.57" y="31.06" width="1.52" height="1.52" fill="#cc1d1d"/>
    <rect x="32.57" y="29.54" width="1.52" height="1.51" fill="#cc1d1d"/>
    <rect x="32.57" y="28.03" width="1.52" height="1.52" fill="#ef5454"/>
    <rect x="32.57" y="26.51" width="1.52" height="1.51" fill="#fff"/>
    <rect x="32.57" y="21.97" width="1.52" height="1.51" fill="#fff"/>
    <rect x="32.57" y="20.46" width="1.52" height="1.52" fill="#aa0707"/>
    <rect x="32.57" y="18.94" width="1.52" height="1.51" fill="#cc1d1d"/>
    <rect x="32.57" y="17.43" width="1.52" height="1.52" fill="#cc1d1d"/>
    <rect x="32.57" y="15.91" width="1.52" height="1.51" fill="#cc1d1d"/>
    <rect x="32.57" y="14.4" width="1.52" height="1.52" fill="#cc1d1d"/>
    <rect x="32.57" y="12.88" width="1.52" height="1.51" fill="#cc1d1d"/>
    <rect x="32.57" y="11.37" width="1.52" height="1.52" fill="#ef5454"/>
    <rect x="32.57" y="9.85" width="1.52" height="1.51" fill="#fff"/>
    <rect x="31.06" y="37.12" width="1.51" height="1.52" fill="#fff"/>
    <rect x="31.06" y="35.6" width="1.51" height="1.51" fill="#aa0707"/>
    <rect x="31.06" y="34.09" width="1.51" height="1.52" fill="#cc1d1d"/>
    <rect x="31.06" y="32.57" width="1.51" height="1.51" fill="#cc1d1d"/>
    <rect x="31.06" y="31.06" width="1.51" height="1.52" fill="#cc1d1d"/>
    <rect x="31.06" y="29.54" width="1.51" height="1.51" fill="#cc1d1d"/>
    <rect x="31.06" y="28.03" width="1.51" height="1.52" fill="#cc1d1d"/>
    <rect x="31.06" y="26.51" width="1.51" height="1.51" fill="#ef5454"/>
    <rect x="31.06" y="25" width="1.51" height="1.51" fill="#fff"/>
    <rect x="31.06" y="23.49" width="1.51" height="1.52" fill="#fff"/>
    <rect x="31.06" y="21.97" width="1.51" height="1.51" fill="#aa0707"/>
    <rect x="31.06" y="20.46" width="1.51" height="1.52" fill="#cc1d1d"/>
    <rect x="31.06" y="18.94" width="1.51" height="1.51" fill="#cc1d1d"/>
    <rect x="31.06" y="17.43" width="1.51" height="1.52" fill="#cc1d1d"/>
    <rect x="31.06" y="15.91" width="1.51" height="1.51" fill="#cc1d1d"/>
    <rect x="31.06" y="14.4" width="1.51" height="1.52" fill="#cc1d1d"/>
    <rect x="31.06" y="12.88" width="1.51" height="1.51" fill="#ef5454"/>
    <rect x="31.06" y="11.37" width="1.51" height="1.52" fill="#fff"/>
    <rect x="29.54" y="35.6" width="1.52" height="1.51" fill="#fff"/>
    <rect x="29.54" y="34.09" width="1.52" height="1.52" fill="#aa0707"/>
    <rect x="29.54" y="32.57" width="1.52" height="1.51" fill="#cc1d1d"/>
    <rect x="29.54" y="31.06" width="1.52" height="1.52" fill="#cc1d1d"/>
    <rect x="29.54" y="29.54" width="1.52" height="1.51" fill="#cc1d1d"/>
    <rect x="29.54" y="28.03" width="1.52" height="1.52" fill="#cc1d1d"/>
    <rect x="29.54" y="26.51" width="1.52" height="1.51" fill="#cc1d1d"/>
    <rect x="29.54" y="25" width="1.52" height="1.51" fill="#aa0707"/>
    <rect x="29.54" y="23.49" width="1.52" height="1.52" fill="#aa0707"/>
    <rect x="29.54" y="21.97" width="1.52" height="1.51" fill="#cc1d1d"/>
    <rect x="29.54" y="20.46" width="1.52" height="1.52" fill="#cc1d1d"/>
    <rect x="29.54" y="18.94" width="1.52" height="1.51" fill="#cc1d1d"/>
    <rect x="29.54" y="17.43" width="1.52" height="1.52" fill="#cc1d1d"/>
    <rect x="29.54" y="15.91" width="1.52" height="1.51" fill="#cc1d1d"/>
    <rect x="29.54" y="14.4" width="1.52" height="1.52" fill="#ef5454"/>
    <rect x="29.54" y="12.88" width="1.52" height="1.51" fill="#fff"/>
    <rect x="28.03" y="34.09" width="1.51" height="1.52" fill="#fff"/>
    <rect x="28.03" y="32.57" width="1.51" height="1.51" fill="#aa0707"/>
    <rect x="28.03" y="31.06" width="1.51" height="1.52" fill="#cc1d1d"/>
    <rect x="28.03" y="29.54" width="1.51" height="1.51" fill="#cc1d1d"/>
    <rect x="28.03" y="28.03" width="1.51" height="1.52" fill="#cc1d1d"/>
    <rect x="28.03" y="26.51" width="1.51" height="1.51" fill="#cc1d1d"/>
    <rect x="28.03" y="25" width="1.51" height="1.51" fill="#cc1d1d"/>
    <rect x="28.03" y="23.49" width="1.51" height="1.52" fill="#cc1d1d"/>
    <rect x="28.03" y="21.97" width="1.51" height="1.51" fill="#cc1d1d"/>
    <rect x="28.03" y="20.46" width="1.51" height="1.52" fill="#cc1d1d"/>
    <rect x="28.03" y="18.94" width="1.51" height="1.51" fill="#cc1d1d"/>
    <rect x="28.03" y="17.43" width="1.51" height="1.52" fill="#cc1d1d"/>
    <rect x="28.03" y="15.91" width="1.51" height="1.51" fill="#ef5454"/>
    <rect x="28.03" y="14.4" width="1.51" height="1.52" fill="#fff"/>
    <rect x="26.52" y="32.57" width="1.51" height="1.51" fill="#fff"/>
    <rect x="26.52" y="31.06" width="1.51" height="1.52" fill="#aa0707"/>
    <rect x="26.52" y="29.54" width="1.51" height="1.51" fill="#cc1d1d"/>
    <rect x="26.52" y="28.03" width="1.51" height="1.52" fill="#cc1d1d"/>
    <rect x="26.52" y="26.51" width="1.51" height="1.51" fill="#cc1d1d"/>
    <rect x="26.52" y="25" width="1.51" height="1.51" fill="#cc1d1d"/>
    <rect x="26.52" y="23.49" width="1.51" height="1.52" fill="#cc1d1d"/>
    <rect x="26.52" y="21.97" width="1.51" height="1.51" fill="#cc1d1d"/>
    <rect x="26.52" y="20.46" width="1.51" height="1.52" fill="#cc1d1d"/>
    <rect x="26.52" y="18.94" width="1.51" height="1.51" fill="#cc1d1d"/>
    <rect x="26.52" y="17.43" width="1.51" height="1.52" fill="#ef5454"/>
    <rect x="26.52" y="15.91" width="1.51" height="1.51" fill="#fff"/>
    <rect x="25" y="31.06" width="1.52" height="1.52" fill="#fff"/>
    <rect x="25" y="29.54" width="1.52" height="1.51" fill="#aa0707"/>
    <rect x="25" y="28.03" width="1.52" height="1.52" fill="#cc1d1d"/>
    <rect x="25" y="26.51" width="1.52" height="1.51" fill="#cc1d1d"/>
    <rect x="25" y="25" width="1.52" height="1.51" fill="#cc1d1d"/>
    <rect x="25" y="23.49" width="1.52" height="1.52" fill="#cc1d1d"/>
    <rect x="25" y="21.97" width="1.52" height="1.51" fill="#cc1d1d"/>
    <rect x="25" y="20.46" width="1.52" height="1.52" fill="#cc1d1d"/>
    <rect x="25" y="18.94" width="1.52" height="1.51" fill="#ef5454"/>
    <rect x="25" y="17.43" width="1.52" height="1.52" fill="#fff"/>
    <rect x="23.49" y="31.06" width="1.51" height="1.52" fill="#fff"/>
    <rect x="23.49" y="29.54" width="1.51" height="1.51" fill="#aa0707"/>
    <rect x="23.49" y="28.03" width="1.51" height="1.52" fill="#cc1d1d"/>
    <rect x="23.49" y="26.51" width="1.51" height="1.51" fill="#cc1d1d"/>
    <rect x="23.49" y="25" width="1.51" height="1.51" fill="#cc1d1d"/>
    <rect x="23.49" y="23.49" width="1.51" height="1.52" fill="#cc1d1d"/>
    <rect x="23.49" y="21.97" width="1.51" height="1.51" fill="#cc1d1d"/>
    <rect x="23.49" y="20.46" width="1.51" height="1.52" fill="#cc1d1d"/>
    <rect x="23.49" y="18.94" width="1.51" height="1.51" fill="#ef5454"/>
    <rect x="23.49" y="17.43" width="1.51" height="1.52" fill="#fff"/>
    <rect x="21.97" y="32.57" width="1.52" height="1.51" fill="#fff"/>
    <rect x="21.97" y="31.06" width="1.52" height="1.52" fill="#aa0707"/>
    <rect x="21.97" y="29.54" width="1.52" height="1.51" fill="#cc1d1d"/>
    <rect x="21.97" y="28.03" width="1.52" height="1.52" fill="#cc1d1d"/>
    <rect x="21.97" y="26.51" width="1.52" height="1.51" fill="#cc1d1d"/>
    <rect x="21.97" y="25" width="1.52" height="1.51" fill="#cc1d1d"/>
    <rect x="21.97" y="23.49" width="1.52" height="1.52" fill="#cc1d1d"/>
    <rect x="21.97" y="21.97" width="1.52" height="1.51" fill="#cc1d1d"/>
    <rect x="21.97" y="20.46" width="1.52" height="1.52" fill="#cc1d1d"/>
    <rect x="21.97" y="18.94" width="1.52" height="1.51" fill="#cc1d1d"/>
    <rect x="21.97" y="17.43" width="1.52" height="1.52" fill="#ef5454"/>
    <rect x="21.97" y="15.91" width="1.52" height="1.51" fill="#fff"/>
    <rect x="20.46" y="34.09" width="1.51" height="1.52" fill="#fff"/>
    <rect x="20.46" y="32.57" width="1.51" height="1.51" fill="#aa0707"/>
    <rect x="20.46" y="31.06" width="1.51" height="1.52" fill="#cc1d1d"/>
    <rect x="20.46" y="29.54" width="1.51" height="1.51" fill="#cc1d1d"/>
    <rect x="20.46" y="28.03" width="1.51" height="1.52" fill="#cc1d1d"/>
    <rect x="20.46" y="26.51" width="1.51" height="1.51" fill="#cc1d1d"/>
    <rect x="20.46" y="25" width="1.51" height="1.51" fill="#cc1d1d"/>
    <rect x="20.46" y="23.49" width="1.51" height="1.52" fill="#cc1d1d"/>
    <rect x="20.46" y="21.97" width="1.51" height="1.51" fill="#cc1d1d"/>
    <rect x="20.46" y="20.46" width="1.51" height="1.52" fill="#cc1d1d"/>
    <rect x="20.46" y="18.94" width="1.51" height="1.51" fill="#cc1d1d"/>
    <rect x="20.46" y="17.43" width="1.51" height="1.52" fill="#cc1d1d"/>
    <rect x="20.46" y="15.91" width="1.51" height="1.51" fill="#ef5454"/>
    <rect x="20.46" y="14.4" width="1.51" height="1.52" fill="#fff"/>
    <rect x="18.94" y="35.6" width="1.52" height="1.51" fill="#fff"/>
    <rect x="18.94" y="34.09" width="1.52" height="1.52" fill="#aa0707"/>
    <rect x="18.94" y="32.57" width="1.52" height="1.51" fill="#cc1d1d"/>
    <rect x="18.94" y="31.06" width="1.52" height="1.52" fill="#cc1d1d"/>
    <rect x="18.94" y="29.54" width="1.52" height="1.51" fill="#cc1d1d"/>
    <rect x="18.94" y="28.03" width="1.52" height="1.52" fill="#cc1d1d"/>
    <rect x="18.94" y="26.51" width="1.52" height="1.51" fill="#cc1d1d"/>
    <rect x="18.94" y="25" width="1.52" height="1.51" fill="#aa0707"/>
    <rect x="18.94" y="23.49" width="1.52" height="1.52" fill="#aa0707"/>
    <rect x="18.94" y="21.97" width="1.52" height="1.51" fill="#cc1d1d"/>
    <rect x="18.94" y="20.46" width="1.52" height="1.52" fill="#cc1d1d"/>
    <rect x="18.94" y="18.94" width="1.52" height="1.51" fill="#cc1d1d"/>
    <rect x="18.94" y="17.43" width="1.52" height="1.52" fill="#cc1d1d"/>
    <rect x="18.94" y="15.91" width="1.52" height="1.51" fill="#cc1d1d"/>
    <rect x="18.94" y="14.4" width="1.52" height="1.52" fill="#ef5454"/>
    <rect x="18.94" y="12.88" width="1.52" height="1.51" fill="#fff"/>
    <rect x="17.43" y="37.12" width="1.51" height="1.52" fill="#fff"/>
    <rect x="17.43" y="35.6" width="1.51" height="1.51" fill="#aa0707"/>
    <rect x="17.43" y="34.09" width="1.51" height="1.52" fill="#cc1d1d"/>
    <rect x="17.43" y="32.57" width="1.51" height="1.51" fill="#cc1d1d"/>
    <rect x="17.43" y="31.06" width="1.51" height="1.52" fill="#cc1d1d"/>
    <rect x="17.43" y="29.54" width="1.51" height="1.51" fill="#cc1d1d"/>
    <rect x="17.43" y="28.03" width="1.51" height="1.52" fill="#cc1d1d"/>
    <rect x="17.43" y="26.51" width="1.51" height="1.51" fill="#ef5454"/>
    <rect x="17.43" y="25" width="1.51" height="1.51" fill="#fff"/>
    <rect x="17.43" y="23.49" width="1.51" height="1.52" fill="#fff"/>
    <rect x="17.43" y="21.97" width="1.51" height="1.51" fill="#aa0707"/>
    <rect x="17.43" y="20.46" width="1.51" height="1.52" fill="#cc1d1d"/>
    <rect x="17.43" y="18.94" width="1.51" height="1.51" fill="#cc1d1d"/>
    <rect x="17.43" y="17.43" width="1.51" height="1.52" fill="#cc1d1d"/>
    <rect x="17.43" y="15.91" width="1.51" height="1.51" fill="#cc1d1d"/>
    <rect x="17.43" y="14.4" width="1.51" height="1.52" fill="#cc1d1d"/>
    <rect x="17.43" y="12.88" width="1.51" height="1.51" fill="#ef5454"/>
    <rect x="17.43" y="11.37" width="1.51" height="1.52" fill="#fff"/>
    <rect x="15.91" y="38.63" width="1.52" height="1.51" fill="#fff"/>
    <rect x="15.91" y="37.12" width="1.52" height="1.52" fill="#aa0707"/>
    <rect x="15.91" y="35.6" width="1.52" height="1.51" fill="#cc1d1d"/>
    <rect x="15.91" y="34.09" width="1.52" height="1.52" fill="#cc1d1d"/>
    <rect x="15.91" y="32.57" width="1.52" height="1.51" fill="#cc1d1d"/>
    <rect x="15.91" y="31.06" width="1.52" height="1.52" fill="#cc1d1d"/>
    <rect x="15.91" y="29.54" width="1.52" height="1.51" fill="#cc1d1d"/>
    <rect x="15.91" y="28.03" width="1.52" height="1.52" fill="#ef5454"/>
    <rect x="15.91" y="26.51" width="1.52" height="1.51" fill="#fff"/>
    <rect x="15.91" y="21.97" width="1.52" height="1.51" fill="#fff"/>
    <rect x="15.91" y="20.46" width="1.52" height="1.52" fill="#aa0707"/>
    <rect x="15.91" y="18.94" width="1.52" height="1.51" fill="#cc1d1d"/>
    <rect x="15.91" y="17.43" width="1.52" height="1.52" fill="#cc1d1d"/>
    <rect x="15.91" y="15.91" width="1.52" height="1.51" fill="#cc1d1d"/>
    <rect x="15.91" y="14.4" width="1.52" height="1.52" fill="#cc1d1d"/>
    <rect x="15.91" y="12.88" width="1.52" height="1.51" fill="#cc1d1d"/>
    <rect x="15.91" y="11.37" width="1.52" height="1.52" fill="#ef5454"/>
    <rect x="15.91" y="9.85" width="1.52" height="1.51" fill="#fff"/>
    <rect x="14.4" y="40.15" width="1.51" height="1.52" fill="#fff"/>
    <rect x="14.4" y="38.63" width="1.51" height="1.51" fill="#aa0707"/>
    <rect x="14.4" y="37.12" width="1.51" height="1.52" fill="#cc1d1d"/>
    <rect x="14.4" y="35.6" width="1.51" height="1.51" fill="#cc1d1d"/>
    <rect x="14.4" y="34.09" width="1.51" height="1.52" fill="#cc1d1d"/>
    <rect x="14.4" y="32.57" width="1.51" height="1.51" fill="#cc1d1d"/>
    <rect x="14.4" y="31.06" width="1.51" height="1.52" fill="#cc1d1d"/>
    <rect x="14.4" y="29.54" width="1.51" height="1.51" fill="#ef5454"/>
    <rect x="14.4" y="28.03" width="1.51" height="1.52" fill="#fff"/>
    <rect x="14.4" y="20.46" width="1.51" height="1.52" fill="#fff"/>
    <rect x="14.4" y="18.94" width="1.51" height="1.51" fill="#aa0707"/>
    <rect x="14.4" y="17.43" width="1.51" height="1.52" fill="#cc1d1d"/>
    <rect x="14.4" y="15.91" width="1.51" height="1.51" fill="#cc1d1d"/>
    <rect x="14.4" y="14.4" width="1.51" height="1.52" fill="#cc1d1d"/>
    <rect x="14.4" y="12.88" width="1.51" height="1.51" fill="#cc1d1d"/>
    <rect x="14.4" y="11.37" width="1.51" height="1.52" fill="#cc1d1d"/>
    <rect x="14.4" y="9.85" width="1.51" height="1.51" fill="#ef5454"/>
    <rect x="14.4" y="8.34" width="1.51" height="1.51" fill="#fff"/>
    <rect x="12.88" y="41.66" width="1.52" height="1.51" fill="#fff"/>
    <rect x="12.88" y="40.15" width="1.52" height="1.52" fill="#aa0707"/>
    <rect x="12.88" y="38.63" width="1.52" height="1.51" fill="#cc1d1d"/>
    <rect x="12.88" y="37.12" width="1.52" height="1.52" fill="#cc1d1d"/>
    <rect x="12.88" y="35.6" width="1.52" height="1.51" fill="#cc1d1d"/>
    <rect x="12.88" y="34.09" width="1.52" height="1.52" fill="#cc1d1d"/>
    <rect x="12.88" y="32.57" width="1.52" height="1.51" fill="#cc1d1d"/>
    <rect x="12.88" y="31.06" width="1.52" height="1.52" fill="#ef5454"/>
    <rect x="12.88" y="29.54" width="1.52" height="1.51" fill="#fff"/>
    <rect x="12.88" y="18.94" width="1.52" height="1.51" fill="#fff"/>
    <rect x="12.88" y="17.43" width="1.52" height="1.52" fill="#aa0707"/>
    <rect x="12.88" y="15.91" width="1.52" height="1.51" fill="#cc1d1d"/>
    <rect x="12.88" y="14.4" width="1.52" height="1.52" fill="#cc1d1d"/>
    <rect x="12.88" y="12.88" width="1.52" height="1.51" fill="#cc1d1d"/>
    <rect x="12.88" y="11.37" width="1.52" height="1.52" fill="#cc1d1d"/>
    <rect x="12.88" y="9.85" width="1.52" height="1.51" fill="#cc1d1d"/>
    <rect x="12.88" y="8.34" width="1.52" height="1.51" fill="#ef5454"/>
    <rect x="12.88" y="6.82" width="1.52" height="1.52" fill="#fff"/>
    <rect x="11.37" y="43.18" width="1.51" height="1.52" fill="#fff"/>
    <rect x="11.37" y="41.66" width="1.51" height="1.51" fill="#aa0707"/>
    <rect x="11.37" y="40.15" width="1.51" height="1.52" fill="#cc1d1d"/>
    <rect x="11.37" y="38.63" width="1.51" height="1.51" fill="#cc1d1d"/>
    <rect x="11.37" y="37.12" width="1.51" height="1.52" fill="#cc1d1d"/>
    <rect x="11.37" y="35.6" width="1.51" height="1.51" fill="#cc1d1d"/>
    <rect x="11.37" y="34.09" width="1.51" height="1.52" fill="#cc1d1d"/>
    <rect x="11.37" y="32.57" width="1.51" height="1.51" fill="#ef5454"/>
    <rect x="11.37" y="31.06" width="1.51" height="1.52" fill="#fff"/>
    <rect x="11.37" y="17.43" width="1.51" height="1.52" fill="#fff"/>
    <rect x="11.37" y="15.91" width="1.51" height="1.51" fill="#aa0707"/>
    <rect x="11.37" y="14.4" width="1.51" height="1.52" fill="#cc1d1d"/>
    <rect x="11.37" y="12.88" width="1.51" height="1.51" fill="#cc1d1d"/>
    <rect x="11.37" y="11.37" width="1.51" height="1.52" fill="#cc1d1d"/>
    <rect x="11.37" y="9.85" width="1.51" height="1.51" fill="#cc1d1d"/>
    <rect x="11.37" y="8.34" width="1.51" height="1.51" fill="#cc1d1d"/>
    <rect x="11.37" y="6.82" width="1.51" height="1.52" fill="#ef5454"/>
    <rect x="11.37" y="5.31" width="1.51" height="1.51" fill="#fff"/>
    <rect x="9.85" y="44.69" width="1.52" height="1.51" fill="#fff"/>
    <rect x="9.85" y="43.18" width="1.52" height="1.52" fill="#aa0707"/>
    <rect x="9.85" y="41.66" width="1.52" height="1.51" fill="#cc1d1d"/>
    <rect x="9.85" y="40.15" width="1.52" height="1.52" fill="#cc1d1d"/>
    <rect x="9.85" y="38.63" width="1.52" height="1.51" fill="#cc1d1d"/>
    <rect x="9.85" y="37.12" width="1.52" height="1.52" fill="#cc1d1d"/>
    <rect x="9.85" y="35.6" width="1.52" height="1.51" fill="#cc1d1d"/>
    <rect x="9.85" y="34.09" width="1.52" height="1.52" fill="#ef5454"/>
    <rect x="9.85" y="32.57" width="1.52" height="1.51" fill="#fff"/>
    <rect x="9.85" y="15.91" width="1.52" height="1.51" fill="#fff"/>
    <rect x="9.85" y="14.4" width="1.52" height="1.52" fill="#aa0707"/>
    <rect x="9.85" y="12.88" width="1.52" height="1.51" fill="#cc1d1d"/>
    <rect x="9.85" y="11.37" width="1.52" height="1.52" fill="#cc1d1d"/>
    <rect x="9.85" y="9.85" width="1.52" height="1.51" fill="#cc1d1d"/>
    <rect x="9.85" y="8.34" width="1.52" height="1.51" fill="#cc1d1d"/>
    <rect x="9.85" y="6.82" width="1.52" height="1.52" fill="#cc1d1d"/>
    <rect x="9.85" y="5.31" width="1.52" height="1.51" fill="#ef5454"/>
    <rect x="9.85" y="3.8" width="1.52" height="1.52" fill="#fff"/>
    <rect x="8.34" y="46.2" width="1.51" height="1.51" fill="#fff"/>
    <rect x="8.34" y="44.69" width="1.51" height="1.51" fill="#aa0707"/>
    <rect x="8.34" y="43.18" width="1.51" height="1.52" fill="#cc1d1d"/>
    <rect x="8.34" y="41.66" width="1.51" height="1.51" fill="#cc1d1d"/>
    <rect x="8.34" y="40.15" width="1.51" height="1.52" fill="#cc1d1d"/>
    <rect x="8.34" y="38.63" width="1.51" height="1.51" fill="#cc1d1d"/>
    <rect x="8.34" y="37.12" width="1.51" height="1.52" fill="#cc1d1d"/>
    <rect x="8.34" y="35.6" width="1.51" height="1.51" fill="#ef5454"/>
    <rect x="8.34" y="34.09" width="1.51" height="1.52" fill="#fff"/>
    <rect x="8.34" y="14.4" width="1.51" height="1.52" fill="#fff"/>
    <rect x="8.34" y="12.88" width="1.51" height="1.51" fill="#aa0707"/>
    <rect x="8.34" y="11.37" width="1.51" height="1.52" fill="#cc1d1d"/>
    <rect x="8.34" y="9.85" width="1.51" height="1.51" fill="#cc1d1d"/>
    <rect x="8.34" y="8.34" width="1.51" height="1.51" fill="#cc1d1d"/>
    <rect x="8.34" y="6.82" width="1.51" height="1.52" fill="#cc1d1d"/>
    <rect x="8.34" y="5.31" width="1.51" height="1.51" fill="#cc1d1d"/>
    <rect x="8.34" y="3.8" width="1.51" height="1.52" fill="#ef5454"/>
    <rect x="8.34" y="2.28" width="1.51" height="1.51" fill="#fff"/>
    <rect x="6.82" y="46.2" width="1.51" height="1.51" fill="#fff"/>
    <rect x="6.82" y="44.69" width="1.51" height="1.51" fill="#aa0707"/>
    <rect x="6.82" y="43.18" width="1.51" height="1.52" fill="#cc1d1d"/>
    <rect x="6.82" y="41.66" width="1.51" height="1.51" fill="#cc1d1d"/>
    <rect x="6.82" y="40.15" width="1.51" height="1.52" fill="#cc1d1d"/>
    <rect x="6.82" y="38.63" width="1.51" height="1.51" fill="#cc1d1d"/>
    <rect x="6.82" y="37.12" width="1.51" height="1.52" fill="#ef5454"/>
    <rect x="6.82" y="35.6" width="1.51" height="1.51" fill="#fff"/>
    <rect x="6.82" y="12.88" width="1.51" height="1.51" fill="#fff"/>
    <rect x="6.82" y="11.37" width="1.51" height="1.52" fill="#aa0707"/>
    <rect x="6.82" y="9.85" width="1.51" height="1.51" fill="#cc1d1d"/>
    <rect x="6.82" y="8.34" width="1.51" height="1.51" fill="#cc1d1d"/>
    <rect x="6.82" y="6.82" width="1.51" height="1.52" fill="#cc1d1d"/>
    <rect x="6.82" y="5.31" width="1.51" height="1.51" fill="#cc1d1d"/>
    <rect x="6.82" y="3.8" width="1.51" height="1.52" fill="#ef5454"/>
    <rect x="6.82" y="2.28" width="1.51" height="1.51" fill="#fff"/>
    <rect x="5.31" y="44.69" width="1.52" height="1.51" fill="#fff"/>
    <rect x="5.31" y="43.18" width="1.52" height="1.52" fill="#aa0707"/>
    <rect x="5.31" y="41.66" width="1.52" height="1.51" fill="#cc1d1d"/>
    <rect x="5.31" y="40.15" width="1.52" height="1.52" fill="#cc1d1d"/>
    <rect x="5.31" y="38.63" width="1.52" height="1.51" fill="#ef5454"/>
    <rect x="5.31" y="37.12" width="1.52" height="1.52" fill="#fff"/>
    <rect x="5.31" y="11.37" width="1.52" height="1.52" fill="#fff"/>
    <rect x="5.31" y="9.85" width="1.52" height="1.51" fill="#aa0707"/>
    <rect x="5.31" y="8.34" width="1.52" height="1.51" fill="#cc1d1d"/>
    <rect x="5.31" y="6.82" width="1.52" height="1.52" fill="#cc1d1d"/>
    <rect x="5.31" y="5.31" width="1.52" height="1.51" fill="#ef5454"/>
    <rect x="5.31" y="3.8" width="1.52" height="1.52" fill="#fff"/>
    <rect x="3.8" y="43.18" width="1.51" height="1.52" fill="#fff"/>
    <rect x="3.8" y="41.66" width="1.51" height="1.51" fill="#aa0707"/>
    <rect x="3.8" y="40.15" width="1.51" height="1.52" fill="#ef5454"/>
    <rect x="3.8" y="38.63" width="1.51" height="1.51" fill="#fff"/>
    <rect x="3.8" y="9.85" width="1.51" height="1.51" fill="#fff"/>
    <rect x="3.8" y="8.34" width="1.51" height="1.51" fill="#aa0707"/>
    <rect x="3.8" y="6.82" width="1.51" height="1.52" fill="#ef5454"/>
    <rect x="3.8" y="5.31" width="1.51" height="1.51" fill="#fff"/>
    <rect x="2.28" y="41.66" width="1.52" height="1.51" fill="#fff"/>
    <rect x="2.28" y="40.15" width="1.52" height="1.52" fill="#fff"/>
    <rect x="2.28" y="8.34" width="1.52" height="1.51" fill="#fff"/>
    <rect x="2.28" y="6.82" width="1.52" height="1.52" fill="#fff"/>
  </g>
</svg>
