<svg id="Capa_1" data-name="Capa 1" xmlns="http://www.w3.org/2000/svg" xmlns:xlink="http://www.w3.org/1999/xlink" width="50" height="50" viewBox="0 0 50 50">
  <defs>
    <clipPath id="clip-path">
      <polygon points="24.05 49.76 1.26 39.47 1.42 9.17 24.2 19.46 24.05 49.76" fill="none"/>
    </clipPath>
    <clipPath id="clip-path-2">
      <polygon points="24.2 19.46 1.42 9.17 25.96 0.24 48.75 10.53 24.2 19.46" fill="none"/>
    </clipPath>
    <clipPath id="clip-path-3">
      <polygon points="48.75 10.53 48.59 40.82 24.05 49.76 24.2 19.46 48.75 10.53" fill="none"/>
    </clipPath>
  </defs>
  <g id="Figment_lido">
    <g style="isolation: isolate">
      <g>
        <polygon points="24.05 49.76 1.26 39.47 1.42 9.17 24.2 19.46 24.05 49.76" fill="#d6d6d6"/>
        <g style="isolation: isolate">
          <g clip-path="url(#clip-path)">
            <g>
              <path d="M12.8,24.66l.08.06.06.07c1,1.22,2,2.42,3,3.64l.05.17,0,4.73-3.09-3.71,0,4.56a.14.14,0,0,1-.11,0,.67.67,0,0,1-.2-.21c-.88-1.05-1.74-2.12-2.62-3.16a1.14,1.14,0,0,1-.33-.88c0-1.3,0-2.6,0-3.91a1.33,1.33,0,0,1,0-.2c0-.15,0-.27.18-.24l2.81-.89a.33.33,0,0,1,.22,0m0-4.42-.27-.11c-4.15-1.67-7.32,2.27-6.45,8.2.71,4.89,3.52,9,6.57,10.35a4.75,4.75,0,0,0,3.76.21.32.32,0,0,1,.27,0,.92.92,0,0,1,.24.22c.54.69,1.08,1.37,1.63,2a1.39,1.39,0,0,0,.45.4c.28.13.45-.11.46-.68l0-4.57h0c0-1.18,0-2.36,0-3.55a15.23,15.23,0,0,0-.05-1.65C19,26.4,16.13,21.75,12.8,20.24" fill="#1c2d69"/>
              <path d="M9.77,25.57c-.16,0-.18.09-.18.24a1.33,1.33,0,0,0,0,.2c0,1.31,0,2.61,0,3.91a1.14,1.14,0,0,0,.33.88c.88,1,1.74,2.11,2.62,3.16a.67.67,0,0,0,.2.21.14.14,0,0,0,.11,0l0-4.56,3.09,3.71,0-4.73a17,17,0,0,0-2.63.79.66.66,0,0,1-.48,0,1.29,1.29,0,0,1-.47-.43c-.74-.94-1.51-1.82-2.26-2.74-.14-.18-.35-.31-.35-.63" fill="#c9caca"/>
              <path d="M12.8,24.66a.33.33,0,0,0-.22,0l-2.81.89c0,.32.21.45.35.63.75.92,1.52,1.8,2.26,2.74a1.29,1.29,0,0,0,.47.43.66.66,0,0,0,.48,0A17,17,0,0,1,16,28.6l-.05-.17c-1-1.22-2-2.42-3-3.64l-.06-.07-.08-.06" fill="#fefefe"/>
            </g>
          </g>
        </g>
      </g>
      <g>
        <polygon points="24.2 19.46 1.42 9.17 25.96 0.24 48.75 10.53 24.2 19.46" fill="#ebebeb"/>
        <g style="isolation: isolate">
          <g clip-path="url(#clip-path-2)">
            <g>
              <path d="M21.58,8.24l.11,0h.09l5-.44.16,0,3.48,1.57-5.11.48,3.36,1.52-.1.06a1.45,1.45,0,0,1-.3,0l-4.35.4a1.57,1.57,0,0,1-.91-.11l-2.86-1.31L20,10.38c-.11-.05-.18-.1,0-.18l1.49-1.84a.3.3,0,0,1,.16-.12M18.3,6.78,18,6.89c-4.41,1.74-3.91,4.78,1.15,6.25a22.3,22.3,0,0,0,12.69-.22,6.21,6.21,0,0,0,3-2,.53.53,0,0,1,.2-.15,1.39,1.39,0,0,1,.35-.06c.92-.07,1.84-.14,2.76-.23a2.59,2.59,0,0,0,.64-.11c.31-.12.26-.28-.16-.48L35.31,8.37h0L32.7,7.19a12,12,0,0,0-1.25-.51,22.48,22.48,0,0,0-13.15.1" fill="#1c2d69"/>
              <path d="M19.93,10.2c-.14.08-.07.13,0,.18l.15.06L23,11.75a1.57,1.57,0,0,0,.91.11l4.35-.4a1.45,1.45,0,0,0,.3,0l.1-.06L25.28,9.84l5.11-.48L26.91,7.79a13.61,13.61,0,0,0-1.42,1.7.86.86,0,0,1-.38.26,2.25,2.25,0,0,1-.68.12c-1.26.1-2.51.23-3.77.34a1.39,1.39,0,0,1-.73,0" fill="#c9caca"/>
              <path d="M21.58,8.24a.3.3,0,0,0-.16.12L19.93,10.2a1.39,1.39,0,0,0,.73,0c1.26-.11,2.51-.24,3.77-.34a2.25,2.25,0,0,0,.68-.12.86.86,0,0,0,.38-.26,13.61,13.61,0,0,1,1.42-1.7l-.16,0-5,.44h-.09l-.11,0" fill="#fefefe"/>
            </g>
          </g>
        </g>
      </g>
      <g>
        <polygon points="48.75 10.53 48.59 40.82 24.05 49.76 24.2 19.46 48.75 10.53" fill="#f0f0f0"/>
        <g style="isolation: isolate">
          <g clip-path="url(#clip-path-3)">
            <g>
              <path d="M36.46,25.31a.14.14,0,0,1,.09,0h.07c1.08.38,2.18.73,3.27,1.09l.06.13,0,4.73L36.52,30.2l0,4.56a.24.24,0,0,1-.12.09c-.09,0-.16,0-.22,0-1-.3-1.92-.63-2.89-.91-.26-.07-.38-.22-.37-.6,0-1.32,0-2.61,0-3.92v-.2a.4.4,0,0,1,.2-.4c1-1.09,2.06-2.19,3.09-3.27a.66.66,0,0,1,.24-.21m0-4.4-.29.11c-4.58,1.89-8,8.51-7.09,13.67.8,4.25,3.89,5.91,7.25,4.69a10.31,10.31,0,0,0,4.14-3,.8.8,0,0,1,.3-.23.36.36,0,0,1,.27,0c.59.23,1.2.43,1.8.63a.73.73,0,0,0,.5,0c.31-.12.49-.49.5-1.07,0-1.52,0-3.05,0-4.57h0c0-1.19,0-2.38,0-3.56,0-.54,0-1.08-.06-1.59-.52-4.28-3.7-6.45-7.37-5.11" fill="#1c2d69"/>
              <path d="M33.13,28.79a.4.4,0,0,0-.2.4v.2c0,1.31,0,2.6,0,3.92,0,.38.11.53.37.6,1,.28,1.93.61,2.89.91.06,0,.13.07.22,0a.24.24,0,0,0,.12-.09l0-4.56,3.41,1.06,0-4.73c-1,.92-1.93,2-2.89,3a1.53,1.53,0,0,1-.53.4.72.72,0,0,1-.52,0c-.81-.32-1.66-.54-2.49-.81-.16-.06-.39,0-.39-.33" fill="#c9caca"/>
              <path d="M36.46,25.31a.66.66,0,0,0-.24.21c-1,1.08-2.06,2.18-3.09,3.27,0,.33.23.27.39.33.83.27,1.68.49,2.49.81a.72.72,0,0,0,.52,0,1.53,1.53,0,0,0,.53-.4c1-1,1.88-2.1,2.89-3l-.06-.13c-1.09-.36-2.19-.71-3.27-1.09h-.07a.14.14,0,0,0-.09,0" fill="#fefefe"/>
            </g>
          </g>
        </g>
      </g>
    </g>
  </g>
</svg>
