<svg id="Capa_1" data-name="Capa 1" xmlns="http://www.w3.org/2000/svg" xmlns:xlink="http://www.w3.org/1999/xlink" width="50" height="50" viewBox="0 0 50 50">
  <defs>
    <clipPath id="clip-path">
      <polygon points="24.04 49.76 1.25 39.47 1.41 9.17 24.2 19.46 24.04 49.76" fill="none"/>
    </clipPath>
    <clipPath id="clip-path-2">
      <polygon points="24.2 19.46 1.41 9.17 25.96 0.24 48.74 10.53 24.2 19.46" fill="none"/>
    </clipPath>
    <clipPath id="clip-path-3">
      <polygon points="48.74 10.53 48.58 40.82 24.04 49.76 24.2 19.46 48.74 10.53" fill="none"/>
    </clipPath>
  </defs>
  <g id="Figment_lido">
    <g style="isolation: isolate">
      <g>
        <polygon points="24.04 49.76 1.25 39.47 1.41 9.17 24.2 19.46 24.04 49.76" fill="#103cd6"/>
        <g style="isolation: isolate">
          <g clip-path="url(#clip-path)">
            <g>
              <path d="M17.81,31.41V30.27l4.66,2.07v1.14l-4.66-2.07m5.13-.09-1.4-.6-1.39-.62-1.91-.85-1-.43,0,0c-.27-.12-.35,0-.35.38,0,.89,0,1.76,0,2.63,0,.33.05.51.32.63L23,35c.27.11.39,0,.38-.34,0-.85,0-1.7,0-2.52,0-.46-.1-.68-.45-.83" fill="#fff"/>
              <path d="M3.09,24.88V23.76l4.66,2.07V27L3.09,24.88m5.17-.07c-.46-.19-.93-.4-1.4-.61l-1.42-.63L4,23,2.61,22.3c-.33-.15-.44,0-.43.42,0,.86,0,1.72,0,2.56,0,.37.09.53.36.65L8.35,28.5c.24.11.32,0,.31-.32,0-.87,0-1.75,0-2.62,0-.42-.08-.61-.41-.75" fill="#fff"/>
              <path d="M15.56,28c-.88-.37-1.77-.76-2.65-1.15l-2.65-1.18c-.77-.34-.77-.34-.68.75l.05.15L15.08,29a3.29,3.29,0,0,1,0,.38c0,.85,0,.85-.59.57l-3.07-1.35-1.54-.69h0c-.35-.16-.36.13-.35.47s0,.62.35.79l2.87,1.26,2.87,1.28c.31.14.4,0,.39-.37,0-.82,0-1.65,0-2.47,0-.48-.11-.69-.46-.85" fill="#fff"/>
              <path d="M16,33.11,9.57,30.28l0,.28c0,.84,0,.85.58,1.12L15.3,34c.77.34.78.33.68-.76l0-.1" fill="#fff"/>
              <path d="M17.26,33.63c-.3-.14-.37,0-.37.44s.08.66.44.82.52.1.45-.46-.15-.61-.45-.77l-.07,0" fill="#fff"/>
              <path d="M2.62,27.13c-.34-.15-.47-.09-.44.41s0,.65.38.79l0,0c.31.12.56.19.45-.42.11-.47-.09-.64-.42-.8" fill="#fff"/>
            </g>
          </g>
        </g>
      </g>
      <g>
        <polygon points="24.2 19.46 1.41 9.17 25.96 0.24 48.74 10.53 24.2 19.46" fill="#1241eb"/>
        <g style="isolation: isolate">
          <g clip-path="url(#clip-path-2)">
            <g>
              <path d="M30.13,7.68l-.81-.36,5-1.81.8.37-4.95,1.8M33.9,4.94c-.48.19-1,.37-1.47.55L31,6l-2,.75-1,.36,0,0c-.28.1-.27.18,0,.31.64.27,1.26.55,1.87.83a.79.79,0,0,0,.69,0l6.14-2.24c.28-.1.32-.18,0-.3C36,5.51,35.39,5.25,34.83,5a1.08,1.08,0,0,0-.93,0" fill="#fff"/>
              <path d="M14.49,13.37l-.8-.36,5-1.8.79.36-5,1.8m3.82-2.75-1.48.55-1.51.54-1.5.55-1.51.54c-.36.13-.36.23,0,.36.63.27,1.24.54,1.82.82a.83.83,0,0,0,.72,0L21,11.75c.25-.09.25-.17,0-.27-.63-.27-1.26-.55-1.86-.83a.87.87,0,0,0-.83,0" fill="#fff"/>
              <path d="M26.05,7.8l-2.79,1-2.82,1c-.82.3-.82.3,0,.6l.15,0,5.78-2.1.3.1c.62.25.62.25,0,.49l-3.26,1.19-1.63.59h0c-.36.14-.17.23.08.34a.89.89,0,0,0,.82.06l3-1.11,3-1.1c.34-.13.31-.21,0-.33-.59-.26-1.19-.52-1.75-.79a1.05,1.05,0,0,0-.95,0" fill="#fff"/>
              <path d="M30,9.2l-6.79,2.47.19.1c.56.29.57.29,1.22.05l5.49-2c.82-.29.82-.3,0-.6L30,9.2" fill="#fff"/>
              <path d="M31.29,8.68c-.32.11-.27.2,0,.34a1,1,0,0,0,.91,0c.37-.13.46-.24,0-.38-.29-.21-.55-.11-.88,0l-.07,0" fill="#fff"/>
              <path d="M15.73,14.34c-.36.13-.41.22,0,.37a1,1,0,0,0,.85,0l0,0c.32-.12.56-.23,0-.37-.25-.21-.52-.15-.88,0" fill="#fff"/>
            </g>
          </g>
        </g>
      </g>
      <g>
        <polygon points="48.74 10.53 48.58 40.82 24.04 49.76 24.2 19.46 48.74 10.53" fill="#1243f0"/>
        <g style="isolation: isolate">
          <g clip-path="url(#clip-path-3)">
            <g>
              <path d="M41.92,28.22v-1l4.67-1.7v1l-4.67,1.7m5.15-4-1.4.52-1.4.51-1.91.7-1,.35h0c-.27.1-.35.25-.35.61,0,.79,0,1.58,0,2.38,0,.31,0,.42.32.32l5.8-2.11a.51.51,0,0,0,.37-.59c0-.76,0-1.53,0-2.29,0-.43-.1-.54-.45-.41" fill="#fff"/>
              <path d="M27.15,33.59v-1l4.67-1.7v1l-4.68,1.7m5.2-4c-.47.19-.94.36-1.41.53l-1.42.52-1.42.52-1.41.5c-.34.12-.45.31-.44.71,0,.77,0,1.55,0,2.32,0,.34.09.41.35.32l5.83-2.13c.24-.08.33-.24.32-.53,0-.79,0-1.58,0-2.38,0-.39-.07-.5-.4-.38" fill="#fff"/>
              <path d="M39.66,26.89c-.88.34-1.76.66-2.65,1l-2.65,1c-.78.28-.78.28-.69,1.2l0,.1,5.46-2a2.23,2.23,0,0,1,0,.32c0,.74,0,.74-.59,1l-3.09,1.13L34,31.13h0c-.34.12-.36.39-.35.69s0,.59.35.45l2.88-1.06,2.87-1a.55.55,0,0,0,.4-.64c0-.74,0-1.49,0-2.25,0-.45-.11-.54-.47-.41" fill="#fff"/>
              <path d="M40.05,31.18l-6.4,2.33,0,.28c0,.79,0,.79.58.57l5.18-1.89c.78-.28.79-.3.7-1.22l0-.07" fill="#fff"/>
              <path d="M41.36,30.65c-.3.11-.38.31-.38.69s.08.53.44.4a.58.58,0,0,0,.45-.75c.09-.53-.15-.44-.44-.36l-.07,0" fill="#fff"/>
              <path d="M26.67,36c-.33.12-.47.27-.45.71s.05.55.38.43l0,0c.31-.12.56-.26.46-.73.11-.51-.1-.5-.43-.39" fill="#fff"/>
            </g>
          </g>
        </g>
      </g>
    </g>
  </g>
</svg>
