<svg id="Capa_1" data-name="Capa 1" xmlns="http://www.w3.org/2000/svg" xmlns:xlink="http://www.w3.org/1999/xlink" width="50" height="50" viewBox="0 0 50 50">
  <defs>
    <clipPath id="clip-path">
      <polygon points="24.04 49.76 1.26 39.47 1.42 9.17 24.2 19.46 24.04 49.76" fill="none"/>
    </clipPath>
    <clipPath id="clip-path-2">
      <polygon points="24.2 19.46 1.42 9.17 25.96 0.24 48.75 10.53 24.2 19.46" fill="none"/>
    </clipPath>
    <clipPath id="clip-path-3">
      <polygon points="48.75 10.53 48.59 40.82 24.04 49.76 24.2 19.46 48.75 10.53" fill="none"/>
    </clipPath>
  </defs>
  <g id="Figment_lido">
    <g style="isolation: isolate">
      <g>
        <polygon points="24.04 49.76 1.26 39.47 1.42 9.17 24.2 19.46 24.04 49.76" fill="#06162d"/>
        <g style="isolation: isolate">
          <g clip-path="url(#clip-path)">
            <g>
              <path d="M4.39,24.17l.88.4.85.39h0a.34.34,0,0,1,.19.36c0,.78,0,1.56,0,2.35,0,.2-.06.26-.21.19l-.86-.41-.87-.39c-.14-.06-.2-.17-.2-.37l0-2.36c0-.19,0-.24.18-.18h0M8.27,23,2.32,20.29c-.23-.1-.24-.09-.25.22l-.08,8c0,.33,0,.36.25.47l3,1.35,3,1.37c.21.1.25.07.25-.21l.08-8.07c0-.26,0-.33-.22-.42" fill="#fff"/>
              <path d="M11.48,24.51l-1.65-.76c-.25-.11-.27-.09-.27.24l-.08,8c0,.29,0,.34.24.45l1.65.76c.21.1.24.06.24-.22,0-.77,0-1.54,0-2.32v-.25l.19.09,1.72.79c.18.08.22.05.22-.18l0-2.32c0-.27,0-.31-.23-.4L12,27.69l-.36-.17v-.26c0-.78,0-1.56,0-2.34,0-.26,0-.32-.22-.41" fill="#fff"/>
              <path d="M15.7,32.29,14,31.5c-.17-.08-.21,0-.21.19l0,2.35a.34.34,0,0,0,.19.36h0l.29.13c.19.09.38.19.58.27l.84.39c.18.09.22.05.23-.17l0-2.33c0-.25,0-.32-.22-.4" fill="#fff"/>
              <path d="M15.8,26.5,14,25.68c-.13-.05-.18,0-.18.17l0,2.39a.35.35,0,0,0,.2.36l.29.13.58.27.57.26.29.14c.14.06.21,0,.21-.17l0-2.4a.34.34,0,0,0-.18-.33" fill="#fff"/>
              <path d="M23.26,29.94l-1.73-.79c-.14-.07-.2,0-.2.17l0,2.33c0,.26,0,.32.23.41l1.69.78c.19.09.21.06.22-.21V31.47l0-1.13c0-.25,0-.32-.21-.4" fill="#fff"/>
              <path d="M19,28l-1.78-.82c-.12-.05-.18,0-.18.15l0,2.44a.31.31,0,0,0,.17.31l1.8.83c.11.05.17,0,.18-.16,0-.41,0-.81,0-1.2h0c0-.4,0-.81,0-1.2A.33.33,0,0,0,19,28" fill="#fff"/>
              <path d="M19.33,31.05c-.12-.06-.17,0-.17.18l0,2.39a.3.3,0,0,0,.16.33h0l1.77.81h0c.12,0,.17,0,.17-.18V33.43l0-1.2a.34.34,0,0,0-.19-.36l-1.77-.81h0" fill="#fff"/>
              <path d="M18.92,33.77l-1.15-.52L17.2,33c-.14-.07-.21,0-.21.17l0,2.38a.31.31,0,0,0,.17.34h0l.87.4.85.39c.19.09.22,0,.23-.18l0-2.33c0-.24,0-.3-.21-.39" fill="#fff"/>
              <path d="M23.19,35.74,21.49,35c-.18-.08-.22,0-.22.18,0,.79,0,1.57,0,2.36a.35.35,0,0,0,.19.36l1.77.81c.13.06.18,0,.18-.17,0-.4,0-.79,0-1.18l0-1.17c0-.25,0-.31-.22-.4" fill="#fff"/>
            </g>
          </g>
        </g>
      </g>
      <g>
        <polygon points="24.2 19.46 1.42 9.17 25.96 0.24 48.75 10.53 24.2 19.46" fill="#061832"/>
        <g style="isolation: isolate">
          <g clip-path="url(#clip-path-2)">
            <g>
              <path d="M14.81,12.72l1-.35.94-.35h0a.47.47,0,0,1,.4,0c.58.27,1.15.53,1.74.78.14.07.14.12,0,.18l-1,.34-.95.35a.5.5,0,0,1-.43,0l-1.74-.78c-.13-.06-.13-.11,0-.17h0m2.1-2.51-6.56,2.38c-.25.1-.25.11,0,.21l5.92,2.67a.5.5,0,0,0,.53,0L20,14.31l3.28-1.2c.23-.08.23-.11,0-.2l-5.94-2.69a.48.48,0,0,0-.48,0" fill="#fff"/>
              <path d="M20.44,8.92l-1.81.66c-.27.1-.28.12,0,.23l5.9,2.66a.53.53,0,0,0,.52,0l1.83-.67c.22-.08.22-.11,0-.2l-1.7-.77L25,10.76l.21-.08,1.9-.69c.2-.07.21-.1,0-.18L25.41,9a.48.48,0,0,0-.48,0l-1.69.62-.4.15-.2-.09-1.73-.78a.52.52,0,0,0-.47,0" fill="#fff"/>
              <path d="M29.44,9.14l-1.88.68c-.19.07-.19.1,0,.18l1.73.78a.53.53,0,0,0,.41,0h0l.32-.12.64-.23.93-.34c.2-.07.2-.11,0-.18L29.9,9.14a.47.47,0,0,0-.46,0" fill="#fff"/>
              <path d="M25.21,7.19l-2,.71c-.14,0-.14.1,0,.16L25,8.85a.48.48,0,0,0,.42,0l.31-.12.64-.23L27,8.28l.32-.11c.16-.06.19-.11,0-.18L25.59,7.2a.46.46,0,0,0-.38,0" fill="#fff"/>
              <path d="M33.42,4.2l-1.9.69c-.15.05-.17.1,0,.17l1.71.78a.54.54,0,0,0,.48,0l1.86-.68c.21-.08.21-.1,0-.2l-.86-.38-.83-.38a.5.5,0,0,0-.46,0" fill="#fff"/>
              <path d="M28.74,5.9l-2,.71q-.2.08,0,.15l1.8.81a.41.41,0,0,0,.36,0l2-.72c.13,0,.14-.09,0-.15L30,6.32h0c-.29-.13-.6-.26-.88-.4a.5.5,0,0,0-.4,0" fill="#fff"/>
              <path d="M31.27,6.73c-.14,0-.12.09,0,.15l1.77.8a.47.47,0,0,0,.37,0h0L35.37,7h0c.13,0,.12-.1,0-.15l-.87-.39L33.64,6a.48.48,0,0,0-.41,0l-1.94.71h0" fill="#fff"/>
              <path d="M33,7.85l-1.26.45-.63.23c-.15.06-.17.11,0,.18l1.75.79a.48.48,0,0,0,.39,0h0l1-.34.94-.35c.2-.07.2-.1,0-.18l-1.72-.78a.51.51,0,0,0-.45,0" fill="#fff"/>
              <path d="M37.69,6.13l-1.88.68c-.19.07-.19.11,0,.18l1.74.79a.49.49,0,0,0,.41,0l1.94-.71c.14,0,.14-.1,0-.15L39,6.53l-.87-.39a.5.5,0,0,0-.46,0" fill="#fff"/>
            </g>
          </g>
        </g>
      </g>
      <g>
        <polygon points="48.75 10.53 48.59 40.82 24.04 49.76 24.2 19.46 48.75 10.53" fill="#071833"/>
        <g style="isolation: isolate">
          <g clip-path="url(#clip-path-3)">
            <g>
              <path d="M27.2,32l1-.35.94-.35h0c.14-.06.2,0,.2.19,0,.8,0,1.58,0,2.36a.34.34,0,0,1-.23.37l-.95.34-.95.35C27,35,27,35,27,34.75V32.39a.31.31,0,0,1,.21-.34h0m4.26-4.46L24.9,30c-.26.09-.27.11-.27.43l0,8.05c0,.33,0,.34.27.24l3.25-1.18,3.28-1.19c.23-.09.27-.14.27-.43l0-8.08c0-.27,0-.3-.24-.23" fill="#fff"/>
              <path d="M35,26.3,33.17,27c-.27.1-.29.13-.29.47l0,8c0,.29,0,.32.26.25L34.93,35c.22-.08.26-.14.26-.43,0-.78,0-1.55,0-2.32V32l.21-.08,1.9-.68c.2-.08.24-.14.24-.38l0-2.32c0-.27,0-.29-.26-.21L35.63,29l-.41.15v-.27c0-.77,0-1.56,0-2.34,0-.25,0-.29-.24-.21" fill="#fff"/>
              <path d="M39.68,30.4l-1.88.68c-.19.07-.24.14-.24.37v2.36c0,.18.06.24.2.19h0l.32-.12.64-.22.94-.34c.19-.07.24-.15.24-.37V30.6c0-.24,0-.28-.24-.2" fill="#fff"/>
              <path d="M39.75,24.56l-2,.72a.29.29,0,0,0-.2.32V28c0,.19.06.24.22.18l.31-.12.64-.23.64-.23.31-.11a.32.32,0,0,0,.24-.35v-2.4c0-.17-.07-.22-.2-.18" fill="#fff"/>
              <path d="M48,21.57l-1.9.69a.34.34,0,0,0-.23.36c0,.78,0,1.56,0,2.33,0,.26,0,.29.25.22l1.86-.68c.21-.08.24-.13.25-.4v-2.3c0-.25,0-.29-.23-.22" fill="#fff"/>
              <path d="M43.28,23.28l-2,.71a.3.3,0,0,0-.2.3v2.45c0,.15.06.21.18.17l2-.72a.3.3,0,0,0,.2-.32c0-.4,0-.81,0-1.2h0c0-.41,0-.81,0-1.2,0-.18-.06-.25-.21-.19" fill="#fff"/>
              <path d="M43.66,26.05c-.14.05-.18.15-.19.32v2.4c0,.17,0,.23.19.18h0l1.94-.7h0c.13-.05.18-.15.18-.32V25.53c0-.18-.06-.25-.21-.2L43.68,26h0" fill="#fff"/>
              <path d="M43.22,29.11,42,29.57l-.63.22a.33.33,0,0,0-.23.36v2.38c0,.18.06.24.2.19h0l.95-.35L43.2,32c.2-.07.24-.14.25-.38V29.31c0-.24-.05-.27-.24-.2" fill="#fff"/>
              <path d="M47.93,27.39l-1.88.69c-.19.07-.24.14-.24.36,0,.79,0,1.57,0,2.36,0,.18.06.25.21.2l2-.71a.31.31,0,0,0,.2-.33c0-.39,0-.79,0-1.18V27.6c0-.25,0-.27-.24-.21" fill="#fff"/>
            </g>
          </g>
        </g>
      </g>
    </g>
  </g>
</svg>
