<svg id="Capa_1" data-name="Capa 1" xmlns="http://www.w3.org/2000/svg" xmlns:xlink="http://www.w3.org/1999/xlink" width="50" height="50" viewBox="0 0 50 50">
  <defs>
    <clipPath id="clip-path">
      <polygon points="24.04 49.76 1.25 39.47 1.41 9.17 24.2 19.46 24.04 49.76" fill="none"/>
    </clipPath>
    <clipPath id="clip-path-2">
      <polygon points="24.2 19.46 1.41 9.17 25.96 0.24 48.74 10.53 24.2 19.46" fill="none"/>
    </clipPath>
    <clipPath id="clip-path-3">
      <polygon points="48.74 10.53 48.58 40.82 24.04 49.76 24.2 19.46 48.74 10.53" fill="none"/>
    </clipPath>
  </defs>
  <g id="Figment_lido">
    <g style="isolation: isolate">
      <g>
        <polygon points="24.04 49.76 1.25 39.47 1.41 9.17 24.2 19.46 24.04 49.76" fill="#d6d6d6"/>
        <g style="isolation: isolate">
          <g clip-path="url(#clip-path)">
            <g>
              <path d="M7,16.11,6.77,16c-.89-.3-1.55,0-1.85,1.07a4.26,4.26,0,0,0,.54,3.32c1.33,2.4,2.66,4.81,4,7.21.2.37.23.54,0,.73-.88.79-1.75,1.61-2.62,2.43a2.43,2.43,0,0,0-.63,2.12,4.49,4.49,0,0,0,1.42,3,3.21,3.21,0,0,0,.73.49,1.3,1.3,0,0,0,1.5-.25c1-.88,1.91-1.74,2.86-2.61-.48-.88-1-1.75-1.46-2.63a5.22,5.22,0,0,1-.69-2.44,2.42,2.42,0,0,1,.69-1.82c.41-.38.82-.74,1.23-1.14a.28.28,0,0,1,.17-.1V25.2a1.2,1.2,0,0,1-.23-.31c-1.33-2.43-2.68-4.85-4-7.27A3.29,3.29,0,0,0,7,16.11" fill="#4be1b4"/>
              <path d="M17.08,22.45a1.3,1.3,0,0,0-1.49.23c-.88.8-1.76,1.6-2.62,2.44q-.15.15-.27.09h0v.23h.05l.11.11.08.13c.45.84.93,1.65,1.37,2.48a4.92,4.92,0,0,1,.57,2.22,2.49,2.49,0,0,1-.58,1.73c-.49.51-1,.89-1.51,1.46,1.47,2.66,2.94,5.34,4.43,8a2.77,2.77,0,0,0,1.26,1.24,2,2,0,0,0,.39.13c.86.18,1.46-.21,1.72-1.24A4.35,4.35,0,0,0,20,38.47c-1.32-2.39-2.64-4.79-4-7.16-.27-.47-.23-.62,0-.84.85-.76,1.69-1.55,2.54-2.33a2.54,2.54,0,0,0,.64-2.27,4.54,4.54,0,0,0-1.43-2.95,3,3,0,0,0-.71-.47" fill="#388dfd"/>
              <path d="M12.72,25.44h-.05a.28.28,0,0,0-.17.1c-.41.4-.82.76-1.23,1.14a2.42,2.42,0,0,0-.69,1.82,5.22,5.22,0,0,0,.69,2.44c.48.88,1,1.75,1.46,2.63h0c.46-.57,1-1,1.51-1.46a2.49,2.49,0,0,0,.58-1.73,4.92,4.92,0,0,0-.57-2.22c-.44-.83-.92-1.64-1.37-2.48l-.08-.13-.11-.11" fill="#241b5e"/>
            </g>
          </g>
        </g>
      </g>
      <g>
        <polygon points="24.2 19.46 1.41 9.17 25.96 0.24 48.74 10.53 24.2 19.46" fill="#ebebeb"/>
        <g style="isolation: isolate">
          <g clip-path="url(#clip-path-2)">
            <g>
              <path d="M10.79,8.58l-.19.07c-.91.4-1.18.86-.66,1.37a4.31,4.31,0,0,0,2.86.81l8.4.2c.43,0,.58.05.54.24-.11.74-.19,1.49-.27,2.24,0,.42.3.77,1.07,1a6.52,6.52,0,0,0,3.31.22,5.74,5.74,0,0,0,.93-.23c.6-.22.93-.52,1-.9.1-.81.21-1.63.32-2.43L25,11.13a6.32,6.32,0,0,1-2.33-.43c-.54-.25-.83-.59-.79-1S22,9,22,8.67a.16.16,0,0,1,.07-.13l-.18-.08a1.88,1.88,0,0,1-.41,0L13,8.28a6.14,6.14,0,0,0-2.25.3" fill="#4be1b4"/>
              <path d="M23.33,5.14c-.6.22-.93.52-1,.89-.1.75-.19,1.5-.26,2.24a.17.17,0,0,1-.14.18h0l.18.08,0,0,.17,0h.15c1,0,1.93,0,2.89.08A5.82,5.82,0,0,1,27.41,9c.51.24.82.55.81.89a8.27,8.27,0,0,0-.11,1.31c3.1.08,6.21.17,9.3.23a5.36,5.36,0,0,0,1.9-.28l.4-.17c.8-.41,1-.87.43-1.35a4.49,4.49,0,0,0-2.8-.76c-2.77-.07-5.56-.15-8.34-.2-.56,0-.64-.08-.61-.29.12-.72.19-1.44.28-2.16,0-.45-.31-.82-1.16-1.11a6.89,6.89,0,0,0-3.28-.19,5.33,5.33,0,0,0-.9.23" fill="#388dfd"/>
              <path d="M22.13,8.52l0,0a.16.16,0,0,0-.07.13c0,.35-.08.7-.12,1.05s.25.73.79,1a6.32,6.32,0,0,0,2.33.43l3.06.08,0,0a8.27,8.27,0,0,1,.11-1.31c0-.34-.3-.65-.81-.89a5.82,5.82,0,0,0-2.07-.42c-1,0-1.92,0-2.89-.08H22.3l-.17,0" fill="#241b5e"/>
            </g>
          </g>
        </g>
      </g>
      <g>
        <polygon points="48.74 10.53 48.58 40.82 24.04 49.76 24.2 19.46 48.74 10.53" fill="#f0f0f0"/>
        <g style="isolation: isolate">
          <g clip-path="url(#clip-path-3)">
            <g>
              <path d="M30.1,21.66l-.2.09a3.8,3.8,0,0,0-2.06,2.62,2.67,2.67,0,0,0,.58,2.86c1.46,1.28,2.91,2.56,4.38,3.83.23.19.25.35,0,.73-1,1.53-2,3.08-2.92,4.62a4.05,4.05,0,0,0-.7,2.65c.12,1.12.63,1.78,1.55,1.8a2,2,0,0,0,.8-.12,3.48,3.48,0,0,0,1.65-1.51l3.18-5c-.53-.47-1.07-.92-1.59-1.39A2.39,2.39,0,0,1,34,31a4.72,4.72,0,0,1,.77-2.4c.46-.72.92-1.43,1.37-2.16a.94.94,0,0,1,.19-.25v-.23a.39.39,0,0,1-.26-.11c-1.45-1.31-2.93-2.59-4.4-3.88a1.52,1.52,0,0,0-1.6-.28" fill="#4be1b4"/>
              <path d="M41.24,19.48A3.49,3.49,0,0,0,39.6,21c-1,1.54-2,3.08-2.91,4.64-.12.18-.21.29-.3.32h0v.23l0,0a.13.13,0,0,1,.12,0,.24.24,0,0,1,.09.06c.49.46,1,.86,1.5,1.33a2.35,2.35,0,0,1,.61,1.73,4.36,4.36,0,0,1-.65,2.21c-.54.92-1.16,1.77-1.68,2.73,1.61,1.42,3.22,2.86,4.84,4.25a1.34,1.34,0,0,0,1.4.18,2.67,2.67,0,0,0,.42-.2A3.93,3.93,0,0,0,45,35.77,2.62,2.62,0,0,0,44.37,33c-1.45-1.26-2.88-2.55-4.35-3.79-.3-.25-.25-.44,0-.85,1-1.48,1.89-3,2.82-4.47a4.21,4.21,0,0,0,.73-2.8c-.15-1.09-.68-1.7-1.57-1.74a2.09,2.09,0,0,0-.78.12" fill="#388dfd"/>
              <path d="M36.41,26.14l0,0a.94.94,0,0,0-.19.25c-.45.73-.91,1.44-1.37,2.16A4.72,4.72,0,0,0,34,31a2.39,2.39,0,0,0,.75,1.86c.52.47,1.06.92,1.59,1.39h0c.52-1,1.14-1.81,1.68-2.73a4.36,4.36,0,0,0,.65-2.21,2.35,2.35,0,0,0-.61-1.73c-.49-.47-1-.87-1.5-1.33a.24.24,0,0,0-.09-.06.13.13,0,0,0-.12,0" fill="#241b5e"/>
            </g>
          </g>
        </g>
      </g>
    </g>
  </g>
</svg>
