<svg id="Capa_1" data-name="Capa 1" xmlns="http://www.w3.org/2000/svg" xmlns:xlink="http://www.w3.org/1999/xlink" width="50" height="50" viewBox="0 0 50 50">
  <defs>
    <clipPath id="clip-path">
      <polygon points="24.04 49.76 1.26 39.47 1.42 9.17 24.2 19.46 24.04 49.76" fill="none"/>
    </clipPath>
    <clipPath id="clip-path-2">
      <polygon points="24.2 19.46 1.42 9.17 25.96 0.24 48.75 10.53 24.2 19.46" fill="none"/>
    </clipPath>
    <clipPath id="clip-path-3">
      <polygon points="48.75 10.53 48.59 40.82 24.04 49.76 24.2 19.46 48.75 10.53" fill="none"/>
    </clipPath>
  </defs>
  <g id="Figment_lido">
    <g style="isolation: isolate">
      <g>
        <polygon points="24.04 49.76 1.26 39.47 1.42 9.17 24.2 19.46 24.04 49.76" fill="#d6d6d6"/>
        <g style="isolation: isolate">
          <g clip-path="url(#clip-path)">
            <g>
              <path d="M12.41,17.15l-.05,0v.1c0,.16,0,.31,0,.47s0,.5,0,.75-.06.74-.1,1.11a12.47,12.47,0,0,1-.58,2.51,7.82,7.82,0,0,1-.72,1.48,8.63,8.63,0,0,1-1,1.28c-.25.26-.5.5-.75.74s-.43.44-.64.68a5.67,5.67,0,0,0-.83,1.3A7.7,7.7,0,0,0,7,29.83a9.51,9.51,0,0,0-.06,1v.45A9.36,9.36,0,0,0,7,32.52a14.85,14.85,0,0,0,.63,2.72,15.77,15.77,0,0,0,1.42,3.09,10.65,10.65,0,0,0,1.37,1.83,6.9,6.9,0,0,0,1,.86l.06.06.18.08h0c.08,0,.09-.09.08-.19s-.06-.23-.09-.35c-.13-.4-.27-.8-.41-1.19a20,20,0,0,1-.59-2.24,11.31,11.31,0,0,1-.21-1.79,6.19,6.19,0,0,1,.06-1.23,7.11,7.11,0,0,1,.44-1.56,10.75,10.75,0,0,1,.83-1.5c.31-.46.65-.89,1-1.33s.61-.81.89-1.26a6.75,6.75,0,0,0,.64-1.26,4.62,4.62,0,0,0,.3-1.88c0-.29,0-.57,0-.86s0-.67-.09-1c-.09-.69-.22-1.38-.38-2.07a17.89,17.89,0,0,0-.9-2.83,8.62,8.62,0,0,0-.75-1.45" fill="#282e5b"/>
              <path d="M16.21,28.65h-.08v.13a3.78,3.78,0,0,1-.18.7A10,10,0,0,1,15.25,31a14.47,14.47,0,0,1-.84,1.38,10.91,10.91,0,0,0-1,2,8.2,8.2,0,0,0-.53,2.49A8,8,0,0,0,13,38.48a10,10,0,0,0,.52,1.91c.2.52.43,1,.67,1.51l.25.5.08,0,.1-.15a1,1,0,0,1,.26-.3,1.42,1.42,0,0,1,.58-.28,2.29,2.29,0,0,0,.28-.08,3.82,3.82,0,0,0,1.75-1.44A6,6,0,0,0,18.33,38a10,10,0,0,0,.16-1.48,12,12,0,0,0-.11-2,13.7,13.7,0,0,0-.73-2.9,15.32,15.32,0,0,0-1.4-2.91l0-.05" fill="#1bc2ef"/>
            </g>
          </g>
        </g>
      </g>
      <g>
        <polygon points="24.2 19.46 1.42 9.17 25.96 0.24 48.75 10.53 24.2 19.46" fill="#ebebeb"/>
        <g style="isolation: isolate">
          <g clip-path="url(#clip-path-2)">
            <g>
              <path d="M15.75,6,15.7,6l.06,0a3.36,3.36,0,0,1,.33.16,4.39,4.39,0,0,1,.53.27c.26.13.5.28.74.42A5.94,5.94,0,0,1,18.76,8a2.62,2.62,0,0,1,.7,1.86c0,.22,0,.44,0,.65a3.77,3.77,0,0,0,0,.58,2.14,2.14,0,0,0,.32.89,3.68,3.68,0,0,0,1.17,1.1,5.11,5.11,0,0,0,.66.35l.34.15a6.5,6.5,0,0,0,1,.38,15.89,15.89,0,0,0,2.5.55,21.74,21.74,0,0,0,3.37.24,19.14,19.14,0,0,0,2.41-.14,11.12,11.12,0,0,0,1.37-.25l.09,0,.2-.07h0c.05,0,0-.07-.09-.1a1.52,1.52,0,0,0-.32-.06c-.39-.07-.8-.12-1.19-.18a19.22,19.22,0,0,1-2.11-.41,11.19,11.19,0,0,1-1.48-.47,4.6,4.6,0,0,1-.86-.44,3.14,3.14,0,0,1-.81-.76,3.65,3.65,0,0,1-.47-.95c-.1-.32-.15-.65-.23-1a7.49,7.49,0,0,0-.24-.9,2.62,2.62,0,0,0-.44-.77,2.9,2.9,0,0,0-1.16-.79l-.65-.26L22,6.94c-.58-.17-1.19-.33-1.82-.47A21.42,21.42,0,0,0,17.39,6,14.78,14.78,0,0,0,15.75,6" fill="#282e5b"/>
              <path d="M27.16,7.67l-.05,0,.09,0a2,2,0,0,1,.38.33,4.36,4.36,0,0,1,.61.88,6.32,6.32,0,0,1,.37.92,3.8,3.8,0,0,0,.67,1.2,4.36,4.36,0,0,0,1.43,1.11,6.27,6.27,0,0,0,1.25.48,12.1,12.1,0,0,0,1.81.35c.54.06,1.08.1,1.63.13l.56,0,.09,0,0-.1a.33.33,0,0,1,0-.24.92.92,0,0,1,.24-.41l.16-.18a1.63,1.63,0,0,0,.28-1.44,2.48,2.48,0,0,0-1-1.22,7.3,7.3,0,0,0-1-.57,10.85,10.85,0,0,0-1.53-.59,16.9,16.9,0,0,0-2.7-.56,22.89,22.89,0,0,0-3.23-.18h-.07" fill="#1bc2ef"/>
            </g>
          </g>
        </g>
      </g>
      <g>
        <polygon points="48.75 10.53 48.59 40.82 24.04 49.76 24.2 19.46 48.75 10.53" fill="#f0f0f0"/>
        <g style="isolation: isolate">
          <g clip-path="url(#clip-path-3)">
            <g>
              <path d="M36.06,18.14l-.05,0,0,.12c0,.16,0,.32,0,.48s0,.51,0,.78-.07.79-.12,1.2a19,19,0,0,1-.64,3,18.1,18.1,0,0,1-.79,2.08c-.34.73-.72,1.44-1.12,2.14-.27.46-.55.91-.83,1.36s-.48.81-.7,1.22a16.62,16.62,0,0,0-.93,2,13,13,0,0,0-.72,2.82,8.57,8.57,0,0,0-.07,1v.45A6.82,6.82,0,0,0,30.1,38a7.05,7.05,0,0,0,.69,2.18,5.32,5.32,0,0,0,1.56,1.87,3.73,3.73,0,0,0,1.51.66,2.89,2.89,0,0,0,1.06,0H35l.19-.07v0a.23.23,0,0,0,.08-.25.86.86,0,0,0-.09-.27c-.14-.29-.3-.56-.44-.85a7.66,7.66,0,0,1-.65-1.72,8.11,8.11,0,0,1-.24-1.6,6.22,6.22,0,0,1,.07-1.28,11.15,11.15,0,0,1,.49-1.93,23.27,23.27,0,0,1,.92-2.2c.34-.72.71-1.43,1.07-2.14s.67-1.33,1-2a14.57,14.57,0,0,0,.7-1.8,6.2,6.2,0,0,0,.34-2.13c0-.28,0-.56,0-.83s-.06-.63-.1-.93A13.17,13.17,0,0,0,37.88,21a7.67,7.67,0,0,0-1-2.05,2.87,2.87,0,0,0-.82-.81" fill="#282e5b"/>
              <path d="M40.23,26.38l-.08.08,0,.13a6.14,6.14,0,0,1-.19.85,20.86,20.86,0,0,1-.77,2.13c-.28.71-.6,1.4-.93,2.09a23.91,23.91,0,0,0-1.1,2.8,11.82,11.82,0,0,0-.59,2.93,6.37,6.37,0,0,0,.09,1.53,4.38,4.38,0,0,0,.57,1.47,5.71,5.71,0,0,0,.74.93,3.7,3.7,0,0,0,.28.28l.08,0,.11-.23a2.61,2.61,0,0,1,.28-.52,5.5,5.5,0,0,1,.65-.77l.3-.31a12.1,12.1,0,0,0,1.93-2.93,11.56,11.56,0,0,0,1-3,10.13,10.13,0,0,0,.17-1.61,9.36,9.36,0,0,0-.11-1.86,6.92,6.92,0,0,0-.8-2.28,5,5,0,0,0-1.55-1.7l0,0" fill="#1bc2ef"/>
            </g>
          </g>
        </g>
      </g>
    </g>
  </g>
</svg>
