<svg id="Capa_1" data-name="Capa 1" xmlns="http://www.w3.org/2000/svg" xmlns:xlink="http://www.w3.org/1999/xlink" width="50" height="50" viewBox="0 0 50 50">
  <defs>
    <clipPath id="clip-path">
      <polygon points="24.05 49.76 1.26 39.47 1.42 9.17 24.21 19.46 24.05 49.76" fill="none"/>
    </clipPath>
    <clipPath id="clip-path-2">
      <polygon points="24.21 19.46 1.42 9.17 25.96 0.24 48.75 10.53 24.21 19.46" fill="none"/>
    </clipPath>
    <clipPath id="clip-path-3">
      <polygon points="48.75 10.53 48.59 40.82 24.05 49.76 24.21 19.46 48.75 10.53" fill="none"/>
    </clipPath>
  </defs>
  <g id="Figment_lido">
    <g style="isolation: isolate">
      <g>
        <polygon points="24.05 49.76 1.26 39.47 1.42 9.17 24.21 19.46 24.05 49.76" fill="#5d8bb5"/>
        <g style="isolation: isolate">
          <g clip-path="url(#clip-path)">
            <g>
              <path d="M10.64,19.62l-1,.35a.26.26,0,0,0,.14.12l.1,0,2.14,1,2.15.95.1.05c.05,0,.09,0,.13,0a10.71,10.71,0,0,0-1-1.2c-.05.11-.13.08-.22,0l0,0-2.23-1,0,0a.35.35,0,0,1-.24-.27" fill="#fff"/>
              <path d="M16.41,24.55a.14.14,0,0,1-.15,0l-.14-.07L12,22.67,7.94,20.85,7.8,20.8a.32.32,0,0,1-.15-.14.41.41,0,0,0-.28.09.39.39,0,0,0,.15.16l.14,0L12,22.9l4.37,1.94.14.07a.12.12,0,0,0,.15,0,1.38,1.38,0,0,0-.28-.34" fill="#fff"/>
              <path d="M12,19.16a.13.13,0,0,0-.12,0l-1.27.46a.35.35,0,0,0,.24.27l0,0,2.23,1,0,0c.09,0,.17.07.22,0-.39-.56-.82-1.06-1.23-1.58a.48.48,0,0,0-.16-.14" fill="#fff"/>
              <path d="M16.13,24.2a.14.14,0,0,1-.15,0l-.14-.07L12,22.44,8.22,20.75l-.14-.05a.39.39,0,0,1-.15-.14.42.42,0,0,0-.28.1.32.32,0,0,0,.15.14l.14.05L12,22.67l4.09,1.82.14.07a.14.14,0,0,0,.15,0,1.39,1.39,0,0,0-.28-.35" fill="#fff"/>
              <path d="M15.85,23.86a.14.14,0,0,1-.14,0,.67.67,0,0,0-.12-.06L12,22.22,8.47,20.63l-.12,0a.29.29,0,0,1-.14-.13l-.28.1a.39.39,0,0,0,.15.14l.14.05L12,22.44l3.81,1.7.14.07a.14.14,0,0,0,.15,0c-.09-.11-.18-.23-.28-.34" fill="#fff"/>
              <path d="M17.59,37.75l-.15,0c-.73-.34-1.47-.66-2.21-1l-2.22-1c-.14,0-.32,0-.26.34a.29.29,0,0,1,.22,0l0,0,4,1.79.1,0a.29.29,0,0,1,.14.13c.17,0,.3-.07.45-.11a.27.27,0,0,0-.14-.21" fill="#fff"/>
              <path d="M11,35.51,7.48,34l-.09,0c-.08,0-.15-.06-.2,0l.45.56a.2.2,0,0,1,.15,0l.14.07,3.35,1.49v-.31a.46.46,0,0,0-.29-.28" fill="#fff"/>
              <path d="M15.53,23.46a.1.1,0,0,1-.15,0c-.05,0-.09-.05-.14-.06L12,22,8.82,20.56l-.13,0a.27.27,0,0,1-.16-.16l-.32.11a.29.29,0,0,0,.14.13l.12,0L12,22.22l3.56,1.58a.67.67,0,0,1,.12.06.14.14,0,0,0,.14,0l-.32-.4" fill="#fff"/>
              <path d="M10.86,35.08l-3.8-1.69c-.13,0-.24-.09-.32,0a3.67,3.67,0,0,0,.45.56c0-.11.12-.09.2,0l.09,0L11,35.51a.46.46,0,0,1,.29.28v-.3a.76.76,0,0,0-.42-.41" fill="#fff"/>
              <path d="M13,36.41c-.14-.06-.23,0-.27.11v.15l3.41,1.52.13.05a.32.32,0,0,1,.16.15c.15,0,.24-.13.39-.13a.36.36,0,0,0-.23-.25l0,0-1.77-.78L13,36.41" fill="#fff"/>
              <path d="M16.69,24.89a.12.12,0,0,1-.15,0l-.14-.07L12,22.9,7.66,21l-.14,0a.39.39,0,0,1-.15-.16l-.22.07A.32.32,0,0,0,7.3,21l.14.05,2,.89,2,.89.08,0a.67.67,0,0,1,.29.23.26.26,0,0,1,.21,0,.52.52,0,0,1,.2.17.42.42,0,0,1,.32.05l.06,0,2,.9,2,.88.14.08a.15.15,0,0,0,.16,0,2.75,2.75,0,0,1-.22-.26" fill="#fff"/>
              <path d="M5.8,32.07a.14.14,0,0,0-.16,0l.5.6c0-.12.07-.12.13-.09l.14.07,1.95.86,1.94.87a1.21,1.21,0,0,0,.43.12,1.17,1.17,0,0,0-.31-.38L6,32.15l-.16-.08" fill="#fff"/>
              <path d="M10,33.65,5.37,31.58c0,.26.16.35.27.49a.14.14,0,0,1,.16,0l.16.08,4.46,2a2,2,0,0,0-.38-.47" fill="#fff"/>
              <path d="M14,35.4a.5.5,0,0,0-.31.1,1.58,1.58,0,0,0,.44.27l2,.87,2,.88.13,0a.3.3,0,0,1,.16.14c.13,0,.31.06.32-.22L14,35.4" fill="#fff"/>
              <path d="M14.86,22.64a.12.12,0,0,1-.15,0l-.13-.07L12,21.46,9.49,20.33l-.13,0a.28.28,0,0,1-.16-.15.67.67,0,0,0-.33.1.35.35,0,0,0,.15.13l.12.05L14.92,23,15,23a.12.12,0,0,0,.15,0,1.79,1.79,0,0,0-.33-.39" fill="#fff"/>
              <path d="M17.14,37.94l-.1,0-4-1.79,0,0a.29.29,0,0,0-.22,0v.45c0-.15.13-.17.27-.11l1.78.8,1.77.78,0,0a.36.36,0,0,1,.23.25.83.83,0,0,0,.44-.19.29.29,0,0,0-.14-.13" fill="#fff"/>
              <path d="M9.68,33.2,5.37,31.28v.3L10,33.65a1.83,1.83,0,0,0-.36-.45" fill="#fff"/>
              <path d="M15.46,34.88l-.4.15a.28.28,0,0,0,.17.18l.13,0,3.3,1.47v-.38l-2.9-1.29L15.61,35a.32.32,0,0,1-.15-.12" fill="#fff"/>
              <path d="M8.46,31.69a.16.16,0,0,1-.15,0l-.14-.08-2.8-1.24v.38L9,32.34a4.12,4.12,0,0,0-.52-.65" fill="#fff"/>
              <path d="M14.66,35.17a.43.43,0,0,0-.31.1.54.54,0,0,0,.23.18l.12,0,1.32.59,2.64,1.17V37l-4-1.79" fill="#fff"/>
              <path d="M13,36.93c-.23-.1-.22.08-.21.29l1.31.58,1.3.59.14,0c.06,0,.11.08.13.22.2,0,.32-.16.5-.16a.22.22,0,0,0-.14-.21l-.05,0-1.62-.72L13,36.93h0" fill="#fff"/>
              <path d="M10.44,23.25l-.09,0-4-1.79a2.23,2.23,0,0,0,.38.47l3.72,1.65a.42.42,0,0,0,.28-.1.64.64,0,0,0-.26-.19" fill="#fff"/>
              <path d="M13.82,24.75a1.39,1.39,0,0,0-.46-.13,1.44,1.44,0,0,0,.28.35l3.71,1.65a.68.68,0,0,0,.39-.13l-2-.87-2-.87" fill="#fff"/>
              <path d="M11,36.11h0l-1.23-.54L8.25,34.9l-.08,0c-.08,0-.16-.06-.21.05l.45.57c.05-.1.12-.09.2-.05l.06,0,0,0h0l2.51,1.11a.41.41,0,0,0-.27-.5" fill="#fff"/>
              <path d="M14.41,22.08s-.08,0-.13,0l-.1-.05L12,21.09l-2.14-1-.1,0A.26.26,0,0,1,9.65,20l-.28.09a.28.28,0,0,0,.15.14l.11.05L12,21.31l2.4,1.06.12.07a.12.12,0,0,0,.14,0c-.09-.12-.18-.24-.28-.35" fill="#fff"/>
              <path d="M11.09,35,6.66,33l-.15-.08c-.06,0-.11,0-.16,0a2.63,2.63,0,0,0,.39.47c.08-.11.19-.07.32,0l3.8,1.69a.76.76,0,0,1,.42.41.48.48,0,0,0-.19-.54" fill="#fff"/>
              <path d="M9,32.34,5.37,30.75v.3L9,32.65l.07,0,.05,0c.07,0,.14.06.2,0a1,1,0,0,0-.3-.38" fill="#fff"/>
              <path d="M16,34.71a1.78,1.78,0,0,0-.54.17.32.32,0,0,0,.15.12l.15.06,2.9,1.29V36l-1.58-.71-.79-.35-.07,0-.06,0a.35.35,0,0,1-.16-.16" fill="#fff"/>
              <path d="M18.67,29.55l0,0v.53c0,.27-.08.28-.23.21h0l-1.07-.48-1.08-.48c0,.15,0,.3,0,.46l2.38,1.06c0-.1,0-.23.05-.28v-1" fill="#fff"/>
              <path d="M18,37.7l-.1,0-4.58-2a.56.56,0,0,0-.28.1l2.22,1c.74.33,1.48.65,2.21,1l.15,0a.27.27,0,0,1,.14.21l.38-.13A.34.34,0,0,0,18,37.7" fill="#fff"/>
              <path d="M13.68,35.5a1,1,0,0,0-.39.13l4.58,2,.1,0a.34.34,0,0,1,.14.13c.1,0,.15-.09.23-.12a.3.3,0,0,0-.16-.14l-.13,0-2-.88-2-.87a1.58,1.58,0,0,1-.44-.27" fill="#fff"/>
              <path d="M6.88,20.92A.44.44,0,0,0,6.6,21a.39.39,0,0,0,.15.14l.14,0L11,23a.59.59,0,0,0,.14.06.31.31,0,0,1,.17.17.71.71,0,0,0,.39-.14l-4.46-2-.08,0-.08,0a.36.36,0,0,1-.15-.15" fill="#fff"/>
              <path d="M17.19,25.5a.15.15,0,0,1-.17,0l-.07,0-.08,0-4.46-2a2.1,2.1,0,0,0,.39.48c0-.06.1-.05.16,0l.15.08,4.06,1.8.14.07a.14.14,0,0,0,.15,0c-.11-.07-.15-.29-.27-.35" fill="#fff"/>
              <path d="M10.73,34.5a1.21,1.21,0,0,1-.43-.12l-1.94-.87-1.95-.86-.14-.07c-.06,0-.11,0-.13.09l.21.27c.05-.06.1,0,.16,0l.15.08,4.43,2a1.83,1.83,0,0,0-.36-.45" fill="#fff"/>
              <path d="M7.92,31c0,.07-.1.06-.16,0L7.62,31l-1.13-.5L5.37,30v.38l2.8,1.24.14.08a.16.16,0,0,0,.15,0A7,7,0,0,0,7.92,31" fill="#fff"/>
              <path d="M5.38,26.07v.6a.57.57,0,0,0,.35.55h0l.88.38,1.17.52v-.45L6.6,27.13l-.91-.39h0a.4.4,0,0,1-.25-.49c0-.06,0-.11,0-.17" fill="#fff"/>
              <path d="M5.38,25.47v.6c0,.06,0,.11,0,.17L7.81,27.3v-.45l-2.15-1-.07,0a.26.26,0,0,1-.17-.3l0-.09" fill="#fff"/>
              <path d="M11,36.72h0l-.87-.38-1-.45c-.13-.06-.26-.12-.35,0a3.67,3.67,0,0,0,.45.56.67.67,0,0,1,.3.06l.17.08.15.08.06,0,.18.08.25.12.24.11.35.14.06,0a.57.57,0,0,1,.33.53v-.53a.48.48,0,0,0-.29-.43" fill="#fff"/>
              <path d="M6.6,21a.35.35,0,0,0-.28.09.31.31,0,0,0,.15.15l.13.05,4.49,2,.17-.06a.31.31,0,0,0-.17-.17A.59.59,0,0,1,11,23l-4.06-1.8-.14,0A.39.39,0,0,1,6.6,21" fill="#fff"/>
              <path d="M17.46,25.85a.14.14,0,0,1-.15,0l-.14-.07L13.11,24,13,23.91c-.06,0-.11,0-.16,0l.17.22,4.48,2a.91.91,0,0,1,.14.07.12.12,0,0,0,.15,0,1.19,1.19,0,0,0-.28-.34" fill="#fff"/>
              <path d="M7.15,20.82l-.27.1a.36.36,0,0,0,.15.15l.08,0,.08,0,4.46,2a.16.16,0,0,0,.17-.06.67.67,0,0,0-.29-.23l-.08,0-2-.89-2-.89L7.3,21a.32.32,0,0,1-.15-.14" fill="#fff"/>
              <path d="M16.91,25.15a.15.15,0,0,1-.16,0l-.14-.08-2-.88-2-.9-.06,0a.42.42,0,0,0-.32-.05.67.67,0,0,0,.18.22l4.46,2,.08,0,.07,0a.15.15,0,0,0,.17,0l-.28-.35" fill="#fff"/>
              <path d="M17.74,26.19a.12.12,0,0,1-.15,0,.91.91,0,0,0-.14-.07l-4.48-2a2.63,2.63,0,0,0,.39.47,1.39,1.39,0,0,1,.46.13l2,.87,2,.87c.06,0,.16,0,.15-.1a.37.37,0,0,0-.15-.2" fill="#fff"/>
              <path d="M6.32,21.12c-.06,0-.14,0-.15.07s.09.16.15.23l4,1.79.09,0a.64.64,0,0,1,.26.19.82.82,0,0,0,.39-.13l-4.49-2-.13-.05a.31.31,0,0,1-.15-.15" fill="#fff"/>
              <path d="M18.62,31.5l-2.39-1.06v.45L18.62,32V31.5" fill="#fff"/>
              <path d="M15.36,23.25a.15.15,0,0,1-.16,0l-.06,0-.07,0L9,20.49l-.07,0-.06,0a.27.27,0,0,1-.15-.15l-.18.06a.27.27,0,0,0,.16.16l.13,0L12,22l3.21,1.43s.09,0,.14.06a.1.1,0,0,0,.15,0l-.17-.21" fill="#fff"/>
              <path d="M14.35,35.27a.59.59,0,0,0-.36.13l4.67,2.09v-.23L16,36.09,14.7,35.5l-.12,0a.54.54,0,0,1-.23-.18" fill="#fff"/>
              <path d="M15.19,23A.12.12,0,0,1,15,23L14.92,23,9.14,20.41,9,20.36a.35.35,0,0,1-.15-.13l-.16.06a.27.27,0,0,0,.15.15l.06,0,.07,0,6.08,2.7.07,0,.06,0a.15.15,0,0,0,.16,0L15.19,23" fill="#fff"/>
              <path d="M9.28,32.72c-.06,0-.13,0-.2,0l-.05,0-.07,0-3.59-1.6v.23L9.68,33.2a2.75,2.75,0,0,0-.4-.48" fill="#fff"/>
              <path d="M18.67,30.54c-.07.05,0,.18-.05.28,0,.26-.06.27-.22.2h0l-.92-.42-1.23-.54v.38l2.39,1.06c0-.08,0-.17.05-.21v-.75" fill="#fff"/>
              <path d="M7.81,30.7,5.37,29.62V30l1.12.5,1.13.5.14.07c.06,0,.12,0,.16,0a.65.65,0,0,1-.11-.33" fill="#fff"/>
              <path d="M13,37.59c-.18-.08-.15.13-.22.21v.38c0-.21.14-.25.31-.17h0l.75.34.3.14.52.23.11,0a.27.27,0,0,1,.15.15l.39-.15a.12.12,0,0,0-.08-.17h0L14,38.06l-1-.46h0" fill="#fff"/>
              <path d="M18.67,32l-.05,0c0,.29,0,.37-.25.27h0l-.91-.41-1.21-.53v.38l2.39,1.06.05-.06V32" fill="#fff"/>
              <path d="M5.38,27.51c0,.17,0,.35,0,.52l2.44,1.08v-.37l-1.06-.48L5.69,27.8l-.06,0a.43.43,0,0,1-.25-.26" fill="#fff"/>
              <path d="M18.67,33.26c-.07.11-.16.08-.26,0l-.06,0L17.64,33l-1.41-.62v.37l2.44,1.08c0-.17,0-.34,0-.52" fill="#fff"/>
              <path d="M18.67,34l-2.44-1.08v.38l2.44,1.08V34" fill="#fff"/>
              <path d="M7.81,30,5.37,28.94v.37L7.81,30.4V30" fill="#fff"/>
              <path d="M18.66,35.3l-2.43-1.08c0,.12,0,.24,0,.36l2.44,1.09V35.3" fill="#fff"/>
              <path d="M15.54,38.43l-.14,0-1.3-.59-1.31-.58,0,.09a.05.05,0,0,1,0,0v.45c.07-.08,0-.29.22-.21h0l1,.46,1.21.53h0a.12.12,0,0,1,.08.17.53.53,0,0,0,.38-.12c0-.14-.07-.19-.13-.22" fill="#fff"/>
              <path d="M7.81,27.3,5.42,26.24a.4.4,0,0,0,.25.49h0l.91.39,1.21.55V27.3" fill="#fff"/>
              <path d="M7.81,25.56,5.43,24.5c0,.1,0,.2,0,.3v.08l2.39,1.06v-.38" fill="#fff"/>
              <path d="M7.81,25.94,5.42,24.88a.4.4,0,0,0,.25.49h0l.91.4,1.21.54v-.38" fill="#fff"/>
              <path d="M18.62,32.71l-2.39-1.06V32l1.21.54.91.41h0c.21.09.28,0,.25-.27" fill="#fff"/>
              <path d="M18.62,32l-2.39-1.06v.38l1.21.53.91.41h0c.21.1.28,0,.25-.27" fill="#fff"/>
              <path d="M15.06,35a.72.72,0,0,0-.4.14l4,1.79v-.23l-3.3-1.47-.13,0a.28.28,0,0,1-.17-.18" fill="#fff"/>
              <path d="M11,37.15l-.06,0L10.54,37l-.24-.11-.25-.12-.18-.08-.06,0-.15-.08-.17-.08a.67.67,0,0,0-.3-.06l.66.82c.09-.08.2,0,.31,0l.1.05.42.19.27.11.05,0c.16.06.24.2.28.43v-.38a.57.57,0,0,0-.33-.53" fill="#fff"/>
              <path d="M14.69,22.43a.12.12,0,0,1-.14,0l-.12-.07L12,21.31l-2.4-1.06-.11-.05a.28.28,0,0,1-.15-.14.2.2,0,0,0-.17.07.28.28,0,0,0,.16.15l.13,0L12,21.46l2.55,1.13.13.07a.12.12,0,0,0,.15,0,.45.45,0,0,0-.17-.21" fill="#fff"/>
              <path d="M7,22.24a2.34,2.34,0,0,0,.39.48l2.34,1.05a.54.54,0,0,0,.39-.13L7,22.24" fill="#fff"/>
              <path d="M17.07,26.72,14,25.35a2,2,0,0,0,.36.45l2.36,1.05c.13-.06.3,0,.4-.13" fill="#fff"/>
              <path d="M13.05,38c-.17-.08-.27,0-.31.17v.3c0-.11.1-.18.23-.13h0a5.69,5.69,0,0,0,.56.26l.23.1.22.1.08,0a.24.24,0,0,1,.15.29,2.31,2.31,0,0,0,.67-.23.27.27,0,0,0-.15-.15l-.11,0-.52-.23-.3-.14L13.07,38h0" fill="#fff"/>
              <path d="M10.42,23.54,6.7,21.89a1.44,1.44,0,0,0,.28.35l3.12,1.4a.46.46,0,0,0,.32-.1" fill="#fff"/>
              <path d="M17.35,26.62,13.64,25a1.51,1.51,0,0,0,.31.38l3.12,1.37a.4.4,0,0,0,.28-.1" fill="#fff"/>
              <path d="M16.22,34.58l-.22.13a.35.35,0,0,0,.16.16l.06,0,.07,0,.79.35,1.58.71v-.31l-2.44-1.09" fill="#fff"/>
              <path d="M5.42,24.8l0,0v.69l0,.09,2.39,1.06v-.3L6.6,25.78l-.91-.4h0a.4.4,0,0,1-.25-.49V24.8" fill="#fff"/>
              <path d="M18.67,32.65l-.05.06c0,.29,0,.36-.25.27h0l-.91-.41L16.23,32v.31l1.41.62.71.32.06,0c.1,0,.19.07.26,0v-.61" fill="#fff"/>
              <path d="M5.38,26.67v.46a.44.44,0,0,0,.28.35h0l.91.4,1.22.54v-.3l-1.17-.52-.88-.38h0a.57.57,0,0,1-.35-.55" fill="#fff"/>
              <path d="M5.38,27.13v.38a.43.43,0,0,0,.25.26l.06,0,1.06.46,1.06.48v-.31l-1.22-.54-.91-.4h0a.44.44,0,0,1-.28-.35" fill="#fff"/>
              <path d="M7.81,29.11,5.37,28v.3l2.44,1.08v-.3" fill="#fff"/>
              <path d="M5.37,29.31v.31L7.81,30.7v-.3L5.37,29.31" fill="#fff"/>
              <path d="M7.81,29.41,5.37,28.33v.31l2.44,1.08v-.31" fill="#fff"/>
              <path d="M7.81,29.72,5.37,28.64v.3L7.81,30v-.3" fill="#fff"/>
              <path d="M18.67,34.69l-2.44-1.08v.3L18.67,35v-.3" fill="#fff"/>
              <path d="M18.67,34.39l-2.44-1.08v.3l2.44,1.08v-.3" fill="#fff"/>
              <path d="M18.67,35l-2.44-1.08v.31l2.43,1.08V35" fill="#fff"/>
              <path d="M16.51,29c-.12,0-.3,0-.28.26l1.08.48,1.07.48h0c.15.07.25.06.23-.21l-1.22-.54-.61-.27-.07,0-.06,0a.27.27,0,0,1-.16-.16" fill="#fff"/>
              <path d="M18.62,30.82l-2.38-1.06v.3l1.23.54.92.42h0c.16.07.25.06.22-.2" fill="#fff"/>
              <path d="M5.42,23.22l0,0v.9c0,.06,0,.12,0,.17l1,.44,1,.42a.41.41,0,0,0,.11.07s.08,0,0-.15a1.19,1.19,0,0,0-.28-.34c0,.05-.1,0-.16,0l-.07,0-.08-.05-.37-.16-.37-.16-.56-.25a.27.27,0,0,1-.21-.32v-.53" fill="#fff"/>
              <path d="M8.61,35.44c-.08,0-.15,0-.2.05a1.79,1.79,0,0,0,.33.39c.09-.12.22-.06.35,0l1,.45.87.38h0a.48.48,0,0,1,.29.43v-.37a.13.13,0,0,1,0-.06l0-.11L8.73,35.5h0l0,0-.06,0" fill="#fff"/>
              <path d="M13.43,38.93l-.25-.1a1.84,1.84,0,0,1-.25-.09l0,0h0c-.14-.06,0,.25-.13.3v.68l1.15-.41a1,1,0,0,0-.46-.35" fill="#fff"/>
              <path d="M16.67,26.85,14.31,25.8a2.52,2.52,0,0,0,.38.47L16.3,27a.55.55,0,0,0,.37-.14" fill="#fff"/>
              <path d="M7.37,22.72a2.23,2.23,0,0,0,.38.47l1.61.72c.13,0,.26,0,.35-.14L7.37,22.72" fill="#fff"/>
              <path d="M16.9,28.9l-.39.14a.27.27,0,0,0,.16.16l.06,0,.07,0,.61.27,1.22.54v-.3l-1.45-.65-.12,0a.3.3,0,0,1-.16-.17" fill="#fff"/>
              <path d="M6.42,23.67a.94.94,0,0,1-.39-.1l-.23-.11-.21-.1-.16-.07v.46l1.3.57.09.05s.08,0,0-.14a4.24,4.24,0,0,0-.45-.56" fill="#fff"/>
              <path d="M16.29,38.24l-.13-.05-3.41-1.52v.68l0,0,0-.09c0-.21,0-.39.21-.29h0l1.36.61,1.62.72.05,0a.22.22,0,0,1,.14.21l.28-.1a.32.32,0,0,0-.16-.15" fill="#fff"/>
              <path d="M7.79,34.54a.2.2,0,0,0-.15,0l.32.39c0-.11.13-.09.21-.05l.08,0,1.48.66L11,36.1h0a.41.41,0,0,1,.27.5l0,.11V36.1L7.93,34.61l-.14-.07" fill="#fff"/>
              <path d="M13,38.35c-.13-.05-.18,0-.23.13V39c.09,0,0-.36.13-.3h0l0,0a1.84,1.84,0,0,0,.25.09l.25.1a1,1,0,0,1,.46.35l.34-.13a.24.24,0,0,0-.15-.29l-.08,0-.22-.1-.23-.1a5.69,5.69,0,0,1-.56-.26h0" fill="#fff"/>
              <path d="M11,37.63l-.05,0-.27-.11-.42-.19-.1-.05c-.11,0-.22-.08-.31,0a4.87,4.87,0,0,0,.53.64.74.74,0,0,1,.4.08l.18.09.19.1.13,0v-.15c0-.23-.12-.37-.28-.43" fill="#fff"/>
              <path d="M7.53,25.05c0,.16,0,.17,0,.15a.41.41,0,0,1-.11-.07l-1-.42-1-.44c0,.08,0,.15,0,.23l2.38,1.06c0-.28-.16-.36-.28-.51" fill="#fff"/>
              <path d="M18.67,33.78,16.23,32.7v.23L18.67,34v-.23" fill="#fff"/>
              <path d="M9.36,23.91l-1.61-.72.71.9.08.08h.12c.23-.1.47-.18.7-.26" fill="#fff"/>
              <path d="M14.69,26.27l.71.89a.33.33,0,0,0,.11.1h.09l.7-.27-1.61-.72" fill="#fff"/>
              <path d="M7.81,26.62,5.42,25.56a.26.26,0,0,0,.17.3l.07,0,2.15,1v-.23" fill="#fff"/>
              <path d="M10.78,38a.74.74,0,0,0-.4-.08c.28.4.58.74.9,1.13v-.82l-.13,0-.19-.1L10.78,38" fill="#fff"/>
              <path d="M6.87,24.23c0,.15,0,.16,0,.14l-.09-.05-1.3-.57a.27.27,0,0,0,.21.32l.56.25.37.16.37.16.08.05.07,0c.06,0,.12,0,.16,0a2.3,2.3,0,0,0-.38-.48" fill="#fff"/>
              <path d="M17.18,28.81a.45.45,0,0,0-.28.09.3.3,0,0,0,.16.17l.12,0,1.45.65v-.23L17.44,29l-.11,0a.24.24,0,0,1-.15-.15" fill="#fff"/>
              <path d="M18.67,28.65c-.08.07,0,.23,0,.35s0,.3-.19.23h0a2.2,2.2,0,0,0-.31-.15c-.14-.07-.28-.12-.42-.18h0c-.08,0-.13-.08-.09-.2a.79.79,0,0,0-.39.13.24.24,0,0,0,.15.15l.11,0,1.19.53,0,0v-.9" fill="#fff"/>
              <path d="M18.65,28.28l-.8.29a.87.87,0,0,0,.32.24l.17.07.17.06.12.06c0-.12,0-.28,0-.35a.8.8,0,0,0,0-.37" fill="#fff"/>
              <path d="M17.85,28.57l-.28.11c0,.12,0,.16.09.2h0c.14.06.28.11.42.18a2.2,2.2,0,0,1,.31.15h0c.15.07.2,0,.19-.23l-.12-.06-.17-.06-.17-.07a.87.87,0,0,1-.32-.24" fill="#fff"/>
              <path d="M6,23.2a.34.34,0,0,1-.24,0l-.14-.07L5.52,23l-.1,0v.3l.16.07.21.1.23.11a.94.94,0,0,0,.39.1L6,23.2" fill="#fff"/>
              <path d="M5.4,22.4a.82.82,0,0,0,0,.35.34.34,0,0,1,0,.24l.1,0,.13.07.14.07a.34.34,0,0,0,.24,0c-.2-.27-.41-.54-.63-.8" fill="#fff"/>
              <path d="M18.67,31.29c-.06,0,0,.13-.05.21V32l.05,0v-.68" fill="#fff"/>
              <path d="M5.38,24.1v.68l0,0c0-.1,0-.2,0-.3s0-.15,0-.23,0-.11,0-.17" fill="#fff"/>
              <path d="M5.38,22.75v.45l0,0V23a.34.34,0,0,0,0-.24" fill="#fff"/>
              <polyline points="10.4 29.91 9.1 30.41 11.99 34.07 14.99 33.04 13.63 31.35 11.98 31.92 10.4 29.91" fill="#fff" opacity="0.33"/>
              <path d="M13.63,29.2l-1.36.47,1.36,1.68L15,30.88,13.63,29.2m-3.19-1.46-1.35.51,1.31,1.66,1.35-.51-1.31-1.66" fill="#fff" opacity="0.18"/>
              <polyline points="11.75 29.4 10.4 29.91 11.98 31.92 13.63 31.35 12.27 29.67 12.02 29.75 11.75 29.4" fill="#fff" opacity="0.45"/>
              <polyline points="12.01 24.99 9.13 26.09 10.44 27.74 11.97 27.16 13.63 29.2 15.03 28.72 12.01 24.99" fill="#fff" opacity="0.73"/>
              <polyline points="11.97 27.16 10.44 27.74 11.75 29.4 11.98 29.31 12.27 29.67 13.63 29.2 11.97 27.16" fill="#fff" opacity="0.78"/>
              <polyline points="11.98 29.31 11.75 29.4 12.02 29.75 12.27 29.67 11.98 29.31" fill="#fff" opacity="0.85"/>
            </g>
          </g>
        </g>
      </g>
      <g>
        <polygon points="24.21 19.46 1.42 9.17 25.96 0.24 48.75 10.53 24.21 19.46" fill="#6699c6"/>
        <g style="isolation: isolate">
          <g clip-path="url(#clip-path-2)">
            <g>
              <path d="M16.68,7.65l-.51.65a.6.6,0,0,0,.2,0l.1,0,2.37-.86,2.36-.86.12,0c.05,0,.09,0,.1-.08-.56.05-1.13.07-1.66.15,0,.06,0,.1-.14.14h0l-2.47.9,0,0a.68.68,0,0,1-.39,0" fill="#fff"/>
              <path d="M24.78,6.11s-.05.07-.11.09l-.16,0L20,7.89,15.5,9.53l-.15.06a.67.67,0,0,1-.22,0,.34.34,0,0,0-.15.18.51.51,0,0,0,.23,0l.14-.06L20.17,8,25,6.22l.16,0c.06,0,.11,0,.11-.09a2.37,2.37,0,0,0-.47,0" fill="#fff"/>
              <path d="M17.42,6.73a.22.22,0,0,0-.09.07l-.65.85a.68.68,0,0,0,.39,0l0,0,2.47-.9h0c.1,0,.18-.08.14-.14-.71,0-1.41.1-2.11.15l-.23,0" fill="#fff"/>
              <path d="M24.31,6.15s-.06.07-.12.09l-.16,0L19.84,7.82l-4.2,1.53-.15.06a.65.65,0,0,1-.22,0,.35.35,0,0,0-.14.19.67.67,0,0,0,.22,0l.15-.06L20,7.89l4.51-1.64.16,0c.06,0,.1,0,.11-.09a3.43,3.43,0,0,0-.47,0" fill="#fff"/>
              <path d="M23.84,6.19s-.05.06-.11.08l-.14.05L19.67,7.74,15.75,9.17l-.13.05a.59.59,0,0,1-.2,0l-.15.18a.65.65,0,0,0,.22,0l.15-.06,4.2-1.53L24,6.29l.16,0c.06,0,.11,0,.12-.09l-.47,0" fill="#fff"/>
              <path d="M35.39,9.84l-.14.06-2.45.89-2.44.89c-.09.08-.26.17,0,.25a.38.38,0,0,1,.2-.11l0,0,4.44-1.62.11,0a.53.53,0,0,1,.2,0c.16-.08.18-.19.26-.28a.37.37,0,0,0-.26,0" fill="#fff"/>
              <path d="M28.64,12.71l-3.87,1.41-.1,0c-.09,0-.16.07-.12.13l.77-.06s.06-.06.12-.08l.16-.05,3.69-1.34-.23-.11a.88.88,0,0,0-.42.07" fill="#fff"/>
              <path d="M23.29,6.24s0,.07-.1.09l-.15,0L19.5,7.67,16,9l-.13,0a.58.58,0,0,1-.24,0l-.17.22a.59.59,0,0,0,.2,0l.13-.05,3.92-1.43,3.92-1.42.14-.05c.06,0,.1,0,.11-.08l-.55,0" fill="#fff"/>
              <path d="M28.22,12.64,24,14.16c-.14.05-.26.11-.23.19a6,6,0,0,0,.75-.07c0-.06,0-.09.12-.13l.1,0,3.87-1.41a.88.88,0,0,1,.42-.07l-.22-.1a1.33,1.33,0,0,0-.62.1" fill="#fff"/>
              <path d="M30.87,11.9c-.16,0-.21.11-.14.18l.12.05,3.76-1.37.14,0a.68.68,0,0,1,.23,0c.14-.07.1-.18.2-.25a.58.58,0,0,0-.36,0h0l-2,.72-2,.71" fill="#fff"/>
              <path d="M25.25,6.08s-.05.06-.11.09l-.16,0L20.17,8,15.35,9.72l-.14.06a.51.51,0,0,1-.23,0l-.12.14a.65.65,0,0,0,.22,0l.15-.06,2.21-.81,2.2-.8.09,0a1.32,1.32,0,0,1,.39-.09A.5.5,0,0,1,20.28,8l.29,0c0-.07.16-.11.28-.16l.07,0,2.2-.8,2.21-.81.16,0c.06,0,.11,0,.12-.09l-.36,0" fill="#fff"/>
              <path d="M22.08,14.41c-.06,0-.11.05-.12.09l.82-.07c-.07,0,0-.08,0-.11l.16-.05,2.14-.78,2.15-.78a2,2,0,0,0,.42-.19,2.15,2.15,0,0,0-.52,0l-4.9,1.79-.19.06" fill="#fff"/>
              <path d="M26.52,12.62l-5.13,1.87a1,1,0,0,0,.57,0s.06-.06.12-.09l.19-.06,4.9-1.79a3.42,3.42,0,0,0-.65.06" fill="#fff"/>
              <path d="M30.88,11a.35.35,0,0,0-.17.2,2.84,2.84,0,0,0,.54-.15l2.16-.78,2.17-.79.14-.06a.67.67,0,0,1,.22,0c.1-.08.29-.15.09-.25L30.88,11" fill="#fff"/>
              <path d="M22.17,6.33s0,.07-.1.09l-.15,0-2.8,1-2.81,1-.14.06a.51.51,0,0,1-.23,0,.52.52,0,0,0-.18.22.6.6,0,0,0,.21,0l.13,0,6.37-2.32.14,0c.05,0,.1,0,.11-.08a4.68,4.68,0,0,0-.55,0" fill="#fff"/>
              <path d="M35.19,10.14l-.11,0L30.64,11.8l0,0a.38.38,0,0,0-.2.11l.33.15c-.07-.07,0-.13.14-.18l2-.71,2-.72h0a.58.58,0,0,1,.36,0,.54.54,0,0,0,.21-.31.53.53,0,0,0-.2,0" fill="#fff"/>
              <path d="M25.92,12.66l-4.75,1.73.22.1,5.13-1.87a3.86,3.86,0,0,0-.6,0" fill="#fff"/>
              <path d="M31.63,10.05l-.2.27a.54.54,0,0,0,.27,0l.14-.06,3.64-1.32-.28-.12L32,10l-.15.06a.56.56,0,0,1-.21,0" fill="#fff"/>
              <path d="M23.86,12.83s-.06.06-.11.08l-.17.06L20.5,14.09l.28.13,4-1.46c-.3,0-.6,0-.89.07" fill="#fff"/>
              <path d="M31.23,10.59a.35.35,0,0,0-.17.2,1.19,1.19,0,0,0,.31-.07l.13-.05L33,10.14l2.91-1.05L35.64,9l-4.41,1.6" fill="#fff"/>
              <path d="M31.23,12.08c-.25.09-.11.14.05.21l1.44-.52,1.45-.53.13-.05a.4.4,0,0,1,.27,0c.17-.09.12-.22.27-.32a.35.35,0,0,0-.27,0l0,0-1.79.65-1.49.54h0" fill="#fff"/>
              <path d="M19.2,9l-.1,0-4.45,1.62a4.4,4.4,0,0,0,.65,0l4.09-1.49c.07-.06.14-.12.15-.19A1,1,0,0,0,19.2,9" fill="#fff"/>
              <path d="M22.92,7.6a1.89,1.89,0,0,0-.45.21,2.37,2.37,0,0,0,.47,0L27,6.29c.09-.09.19-.17.21-.26l-2.16.79-2.16.78" fill="#fff"/>
              <path d="M29.06,12.92h0l-1.35.5L26.06,14,26,14c-.09,0-.16.07-.11.13l.75-.06s0-.09.12-.12l.07,0,.05,0h0l2.76-1a.57.57,0,0,0-.57,0" fill="#fff"/>
              <path d="M21.42,6.39s-.05.06-.1.08l-.12,0-2.36.86-2.37.86-.1,0a.6.6,0,0,1-.2,0L16,8.49a.6.6,0,0,0,.21,0l.12,0,2.65-1,2.63-1,.14,0c.06,0,.1-.05.11-.09l-.47,0" fill="#fff"/>
              <path d="M28.29,12.47l-4.87,1.78-.17.05c-.06,0-.11.06-.1.1.22,0,.44,0,.65-.05,0-.08.09-.14.23-.19l4.19-1.52a1.33,1.33,0,0,1,.62-.1.61.61,0,0,0-.55-.07" fill="#fff"/>
              <path d="M24.75,12.76l-4,1.46.22.1,4-1.44.07,0,.06,0a.36.36,0,0,0,.17-.11,2.71,2.71,0,0,0-.51,0" fill="#fff"/>
              <path d="M31.93,9.7a1.37,1.37,0,0,0-.3.35.56.56,0,0,0,.21,0L32,10,35.2,8.79l-.28-.13-1.74.64-.88.31-.07,0-.06,0a.58.58,0,0,1-.24,0" fill="#fff"/>
              <path d="M30.21,6.53l-.05,0,.17.08.22.1c.21.07.14.12,0,.19h0l-1.18.43-1.19.43.34.15L31.1,7c-.07,0-.18-.07-.17-.12l-.72-.33" fill="#fff"/>
              <path d="M35.66,9.61l-.11,0-5,1.84c-.07.06-.14.12-.15.19l2.44-.89,2.45-.89.14-.06a.37.37,0,0,1,.26,0l.2-.25a.5.5,0,0,0-.19,0" fill="#fff"/>
              <path d="M30.71,11.23a.65.65,0,0,0-.2.26l5-1.84.11,0a.5.5,0,0,1,.19,0c.09-.05,0-.11.09-.17a.67.67,0,0,0-.22,0l-.14.06-2.17.79-2.16.78a2.84,2.84,0,0,1-.54.15" fill="#fff"/>
              <path d="M14.72,10.14a.29.29,0,0,0-.13.19.67.67,0,0,0,.22,0l.14-.06L19.42,8.6l.16-.06a.59.59,0,0,1,.25,0,.52.52,0,0,0,.2-.26L15.12,10l-.09,0-.08,0a.68.68,0,0,1-.23,0" fill="#fff"/>
              <path d="M26.08,6S26,6.07,26,6.1l-.08,0-.1,0-4.9,1.78a3.53,3.53,0,0,0,.66-.05s0-.07.11-.1l.17,0,4.46-1.63.16-.05c.06,0,.11,0,.12-.09-.14,0-.33,0-.47,0" fill="#fff"/>
              <path d="M27.69,12.52a2,2,0,0,1-.42.19l-2.15.78L23,14.27l-.16.05c-.07,0-.11.06,0,.11l.37,0s0-.07.1-.1l.17-.05,4.87-1.78a2.92,2.92,0,0,0-.6,0" fill="#fff"/>
              <path d="M23,12.91c0,.05,0,.08-.1.1l-.17.05-1.23.45L20.22,14l.28.13L23.58,13l.17-.06c.05,0,.1,0,.11-.08-.29,0-.61,0-.9.08" fill="#fff"/>
              <path d="M17.35,12.66l.44.2a.91.91,0,0,0,.67,0h0c.31-.13.63-.24.95-.36L20.74,12l-.33-.15-1.34.49-1,.36h0a.55.55,0,0,1-.56,0l-.15,0" fill="#fff"/>
              <path d="M16.9,12.46l.45.2.15,0,2.63-.95-.33-.15-2.37.86-.08,0a.41.41,0,0,1-.34,0H16.9" fill="#fff"/>
              <path d="M29.52,13.11h0l-1,.35-1.11.4c-.14.06-.28.11-.27.2q.39,0,.75-.06a.87.87,0,0,1,.29-.15l.19-.06.17-.06.06,0,.2-.07.28-.1.27-.1.37-.14.07,0a.94.94,0,0,1,.64,0l-.39-.18a.83.83,0,0,0-.54,0" fill="#fff"/>
              <path d="M14.59,10.33a.25.25,0,0,0-.16.18.71.71,0,0,0,.23,0l.14-.06,4.94-1.8.09-.11a.59.59,0,0,0-.25,0l-.16.06L15,10.23l-.14.06a.67.67,0,0,1-.22,0" fill="#fff"/>
              <path d="M26.55,6s-.06.07-.12.09l-.16.05L21.81,7.74l-.17,0c-.07,0-.12,0-.11.1l.29,0,4.93-1.8L26.91,6C27,6,27,6,27,5.93a2.29,2.29,0,0,0-.47,0" fill="#fff"/>
              <path d="M14.86,10l-.14.19a.68.68,0,0,0,.23,0l.08,0,.09,0L20,8.25c.07,0,.09-.08.09-.12a1.32,1.32,0,0,0-.39.09l-.09,0-2.2.8-2.21.81-.15.06a.65.65,0,0,1-.22,0" fill="#fff"/>
              <path d="M25.61,6s-.06.07-.12.09l-.16,0L23.12,7l-2.2.8-.07,0c-.12.05-.24.09-.28.16a1,1,0,0,0,.3,0l4.9-1.78.1,0,.08,0c.06,0,.12,0,.13-.09l-.47,0" fill="#fff"/>
              <path d="M27,5.93S27,6,26.91,6l-.16.05-4.93,1.8a4.48,4.48,0,0,0,.65-.06,1.89,1.89,0,0,1,.45-.21l2.16-.78L27.24,6s.14-.08,0-.11a.46.46,0,0,0-.26,0" fill="#fff"/>
              <path d="M14.43,10.51s-.11.07-.06.1.19,0,.28,0L19.1,9l.1,0a1,1,0,0,1,.34-.08.68.68,0,0,0,.2-.26l-4.94,1.8-.14.06a.71.71,0,0,1-.23,0" fill="#fff"/>
              <path d="M31.6,7.2,29,8.16l.33.15,2.63-1L31.6,7.2" fill="#fff"/>
              <path d="M23,6.26s-.06.07-.12.09l-.07,0-.08,0L16.05,8.84l-.08,0-.06,0a.5.5,0,0,1-.23,0L15.59,9a.58.58,0,0,0,.24,0L16,9,19.5,7.67,23,6.38l.15,0c.07,0,.11,0,.1-.09l-.28,0" fill="#fff"/>
              <path d="M31.06,10.79c-.09.08-.17.15-.18.24L36,9.16l-.17-.07L33,10.14l-1.45.53-.13.05a1.19,1.19,0,0,1-.31.07" fill="#fff"/>
              <path d="M22.72,6.28s-.06.06-.11.08l-.14,0L16.1,8.73l-.13,0a.6.6,0,0,1-.21,0,1,1,0,0,0-.08.11.5.5,0,0,0,.23,0l.06,0,.08,0L22.74,6.4l.08,0,.07,0c.06,0,.11,0,.12-.09l-.29,0" fill="#fff"/>
              <path d="M25.26,12.72a.36.36,0,0,1-.17.11l-.06,0-.07,0-4,1.44.17.07,4.75-1.73a4.62,4.62,0,0,0-.66.06" fill="#fff"/>
              <path d="M30.93,6.86s.1.08.17.12.15.12,0,.19h0l-1,.37L28.69,8l.28.13,2.63-1c-.05,0-.13,0-.12-.09l-.55-.25" fill="#fff"/>
              <path d="M22.63,12.86l-2.69,1,.28.12,1.24-.45,1.23-.45.17-.05c.06,0,.11,0,.1-.1a.85.85,0,0,1-.33-.05" fill="#fff"/>
              <path d="M31.69,12.32c-.2.07,0,.13,0,.19l0,0,0,0,.28.12c-.12-.09-.07-.15.12-.22h0l.83-.3.33-.12.58-.21.11,0a.49.49,0,0,1,.22,0c.07-.09.13-.18.2-.26s-.11,0-.18,0h0l-1.33.49-1.13.4h0" fill="#fff"/>
              <path d="M32,7.33l-.05,0c.24.08.24.15,0,.23h0l-1,.36-1.33.48.28.13,2.63-1v0L32,7.33" fill="#fff"/>
              <path d="M18.4,13.14l.38.17,2.68-1-.27-.13L20,12.64l-1.16.42-.08,0a.72.72,0,0,1-.38.05" fill="#fff"/>
              <path d="M32.93,7.76c0,.07-.06.11-.17.15l-.07,0-.78.28-1.55.57.27.12,2.68-1-.38-.17" fill="#fff"/>
              <path d="M33.48,8,30.8,9l.28.12,2.68-1L33.48,8" fill="#fff"/>
              <path d="M22.13,12.64l-2.68,1,.27.13,2.69-1-.28-.12" fill="#fff"/>
              <path d="M34.42,8.44l-2.68,1,.27.13,2.69-1-.28-.12" fill="#fff"/>
              <path d="M34.3,11.19l-.13.05-1.45.53-1.44.52,0,.05,0,0,.29.13,0,0c0-.06-.18-.12,0-.19h0l1.13-.4,1.33-.49h0c.07,0,.13,0,.18,0a.5.5,0,0,0,.21-.26.4.4,0,0,0-.27,0" fill="#fff"/>
              <path d="M20.13,11.74l-2.63.95a.55.55,0,0,0,.56,0h0l1-.36,1.34-.49-.28-.12" fill="#fff"/>
              <path d="M18.86,11.16l-2.63,1,.22.1.05,0,2.63-1-.27-.13" fill="#fff"/>
              <path d="M19.13,11.29l-2.63,1a.58.58,0,0,0,.56,0h0l1-.36,1.33-.49-.28-.12" fill="#fff"/>
              <path d="M32.49,7.6l-2.63,1,.27.13,1.33-.49,1-.36h0c.23-.08.23-.15,0-.23" fill="#fff"/>
              <path d="M31.93,7.35l-2.63,1,.28.12L30.91,8l1-.36h0c.23-.08.23-.15,0-.23" fill="#fff"/>
              <path d="M31.43,10.32c-.09.09-.19.17-.2.27L35.64,9l-.16-.08-3.64,1.32-.14.06a.54.54,0,0,1-.27,0" fill="#fff"/>
              <path d="M29.81,13.27l-.07,0-.37.14-.27.1-.28.1-.2.07-.06,0-.17.06-.19.06a.87.87,0,0,0-.29.15l1.13-.1c0-.07.11-.12.23-.17l.12,0,.47-.16.28-.11.05,0a.9.9,0,0,1,.54,0l-.28-.12a.94.94,0,0,0-.64,0" fill="#fff"/>
              <path d="M21.89,6.35s-.05.07-.11.09l-.14,0L19,7.44l-2.65,1-.12,0a.6.6,0,0,1-.21,0c-.06,0-.1.07-.09.11a.51.51,0,0,0,.23,0l.14-.06,2.81-1,2.8-1,.15,0c.06,0,.11,0,.1-.09a1.27,1.27,0,0,0-.28,0" fill="#fff"/>
              <path d="M15.78,10.52a4.48,4.48,0,0,0,.64-.06L19,9.53a.47.47,0,0,0,.2-.26l-3.44,1.25" fill="#fff"/>
              <path d="M26.89,6.47,23.46,7.73a2.86,2.86,0,0,0,.6-.05l2.61-.95c.06-.09.23-.16.22-.26" fill="#fff"/>
              <path d="M32.07,12.41c-.19.07-.24.13-.12.22l.22.1c0-.06-.05-.11.08-.16h0l.62-.22.25-.09.25-.09.09,0a.36.36,0,0,1,.33,0,1.49,1.49,0,0,0,.34-.44.49.49,0,0,0-.22,0l-.11,0-.58.21-.33.12-.83.3h0" fill="#fff"/>
              <path d="M19.39,9.07,15.3,10.56a3.73,3.73,0,0,0,.48,0l3.44-1.25a.35.35,0,0,0,.17-.2" fill="#fff"/>
              <path d="M27,6.29,22.94,7.78a2.78,2.78,0,0,0,.52,0l3.43-1.26c.07-.06.14-.12.14-.18" fill="#fff"/>
              <path d="M32,9.54a.8.8,0,0,0-.08.16.58.58,0,0,0,.24,0l.06,0,.07,0,.88-.31,1.74-.64-.22-.1L32,9.54" fill="#fff"/>
              <path d="M16.45,12.22l-.05,0,.5.22H17l2.62-1-.22-.1-1.33.49-1,.36h0a.58.58,0,0,1-.56,0l-.05,0" fill="#fff"/>
              <path d="M32.48,7.56v0c.23.08.23.15,0,.23h0l-1,.36-1.33.49.23.1,1.55-.57.78-.28.07,0c.11,0,.2-.08.17-.15l-.45-.2" fill="#fff"/>
              <path d="M17.79,12.86l.33.15a.77.77,0,0,0,.48,0h0l1-.37L21,12.11l-.22-.1-1.29.47c-.32.12-.64.23-.95.36h0a.91.91,0,0,1-.67,0" fill="#fff"/>
              <path d="M18.12,13l.28.13a.72.72,0,0,0,.38-.05l.08,0L20,12.64l1.17-.43-.23-.1-1.34.49-1,.37h0a.77.77,0,0,1-.48,0" fill="#fff"/>
              <path d="M21.46,12.34l-2.68,1,.22.1,2.68-1-.22-.1" fill="#fff"/>
              <path d="M19.72,13.74l.22.1,2.69-1-.22-.1-2.69,1" fill="#fff"/>
              <path d="M21.68,12.44l-2.68,1,.22.1,2.69-1-.23-.1" fill="#fff"/>
              <path d="M21.91,12.54l-2.69,1,.23.1,2.68-1-.22-.1" fill="#fff"/>
              <path d="M34,8.23l-2.68,1,.22.1,2.68-1L34,8.23" fill="#fff"/>
              <path d="M33.76,8.13l-2.68,1,.22.1,2.68-1-.22-.1" fill="#fff"/>
              <path d="M34.2,8.33l-2.68,1,.22.1,2.68-1-.22-.11" fill="#fff"/>
              <path d="M28.16,7.55c-.06.07-.27.15,0,.23l1.19-.43,1.18-.43h0c.17-.07.24-.12,0-.19l-1.34.48-.67.25-.08,0-.06,0a.52.52,0,0,1-.24,0" fill="#fff"/>
              <path d="M31.1,7l-2.63.95.22.1L30,7.54l1-.37h0c.18-.07.25-.12,0-.19" fill="#fff"/>
              <path d="M15.28,11.69l0,0,.67.3.16,0,1.07-.39,1.07-.39.14,0c.05,0,.06,0-.07-.07a2.37,2.37,0,0,0-.47,0c0,.05-.05.07-.12.1l-.08,0-.09,0-.41.16-.41.14-.61.23a.49.49,0,0,1-.41,0l-.33-.15-.06,0" fill="#fff"/>
              <path d="M26.73,14c-.08,0-.15.07-.12.12a3.24,3.24,0,0,0,.55,0c0-.09.13-.14.27-.2l1.11-.4,1-.35h0a.83.83,0,0,1,.54,0L29.79,13h-.06l-.1,0-2.76,1h0l-.05,0-.07,0" fill="#fff"/>
              <path d="M33,12.5l-.28.11-.25.1-.06,0h0c-.16.06.15.1.11.17l.5.22.59-.76a2.32,2.32,0,0,0-.61.13" fill="#fff"/>
              <path d="M26.67,6.73l-2.61.95a4.51,4.51,0,0,0,.65,0L26.49,7a.41.41,0,0,0,.18-.25" fill="#fff"/>
              <path d="M16.42,10.46a3.43,3.43,0,0,0,.65-.05l1.77-.65c.08-.07.18-.15.18-.23l-2.6.93" fill="#fff"/>
              <path d="M28.36,7.29c-.07.08-.13.17-.2.26a.52.52,0,0,0,.24,0l.06,0,.08,0,.67-.25,1.34-.48-.22-.1-1.6.58-.13,0a.56.56,0,0,1-.24,0" fill="#fff"/>
              <path d="M16.39,11.3a1.68,1.68,0,0,1-.38.18l-.26.09-.24.08-.17.07.33.15,1.44-.53.1,0c.05,0,.08,0-.06-.07a6.32,6.32,0,0,0-.76.06" fill="#fff"/>
              <path d="M34.75,10.71l-.14,0-3.76,1.37.49.23,0,0,0-.05c-.16-.07-.3-.12-.05-.21h0l1.49-.54,1.79-.65,0,0a.35.35,0,0,1,.27,0,1.33,1.33,0,0,1,.14-.19.68.68,0,0,0-.23,0" fill="#fff"/>
              <path d="M25.44,14.14c-.06,0-.11,0-.12.08l.54-.05c-.05-.06,0-.1.11-.13l.09,0,1.63-.59,1.35-.5h0a.57.57,0,0,1,.57,0l.1,0h.06l-.5-.22L25.6,14.09l-.16.05" fill="#fff"/>
              <path d="M32.25,12.57c-.13,0-.12.1-.08.16l.39.18c0-.07-.27-.11-.11-.17h0l.06,0,.25-.1L33,12.5a2.32,2.32,0,0,1,.61-.13l.17-.23a.36.36,0,0,0-.33,0l-.09,0-.25.09-.25.09-.62.22h0" fill="#fff"/>
              <path d="M30.19,13.4l-.05,0-.28.11-.47.16-.12,0c-.12,0-.23.1-.23.17a6.26,6.26,0,0,0,.88-.08,1.71,1.71,0,0,1,.36-.19l.21-.07.22-.07.13-.05-.11-.06a.9.9,0,0,0-.54,0" fill="#fff"/>
              <path d="M18.27,11.15c.13,0,.12,0,.07.07l-.14,0-1.07.39L16.06,12l.17.08,2.63-1c-.18-.11-.39,0-.59,0" fill="#fff"/>
              <path d="M33.31,7.93l-2.68,1L30.8,9l2.68-1-.17-.08" fill="#fff"/>
              <path d="M18.84,9.76l-1.77.65,1.2-.09.13,0,.09-.06.35-.48" fill="#fff"/>
              <path d="M24.71,7.63l1.2-.1.16,0a.13.13,0,0,0,.07,0L26.49,7l-1.78.65" fill="#fff"/>
              <path d="M19.63,11.51l-2.62,1a.41.41,0,0,0,.34,0l.08,0,2.37-.86-.17-.08" fill="#fff"/>
              <path d="M30.28,13.64a1.71,1.71,0,0,0-.36.19c.51,0,1-.07,1.52-.11l-.6-.27-.13.05-.22.07-.21.07" fill="#fff"/>
              <path d="M17.15,11.24c.14,0,.11,0,.06.07l-.1,0-1.44.53a.49.49,0,0,0,.41,0l.61-.23.41-.14.41-.16.09,0,.08,0c.07,0,.12,0,.12-.1a4.62,4.62,0,0,0-.65.06" fill="#fff"/>
              <path d="M28.51,7.1a.33.33,0,0,0-.15.19.56.56,0,0,0,.24,0l.13,0,1.6-.58-.17-.08L28.85,7l-.12.05a.47.47,0,0,1-.22,0" fill="#fff"/>
              <path d="M29.54,6.23c0,.07.15.1.23.14s.19.12,0,.18h0l-.35.12L29,6.86h0c-.08,0-.15,0-.21,0a.57.57,0,0,0-.2.25.47.47,0,0,0,.22,0L28.85,7l1.31-.47.05,0-.67-.3" fill="#fff"/>
              <path d="M29.25,6.12l-.4.54a1.52,1.52,0,0,0,.42-.1l.18-.07.19-.07.13,0c-.08,0-.23-.07-.23-.14a.76.76,0,0,0-.29-.11" fill="#fff"/>
              <path d="M28.85,6.66l-.14.19c.06.06.13,0,.21,0h0l.46-.18.35-.12h0c.17-.06.15-.11,0-.18l-.13,0-.19.07-.18.07a1.52,1.52,0,0,1-.42.1" fill="#fff"/>
              <path d="M15.74,11.35a.75.75,0,0,1-.22.13l-.16,0-.14.05-.1,0,.16.07.06,0,.17-.07.24-.08.26-.09a1.68,1.68,0,0,0,.38-.18l-.65,0" fill="#fff"/>
              <path d="M14.67,11.43c0,.07.14.1.23.13a.41.41,0,0,1,.22.06l.1,0,.14-.05.16,0a.75.75,0,0,0,.22-.13l-1.07.08" fill="#fff"/>
              <path d="M31.48,7.11s.07.06.12.09l.33.15.05,0-.5-.22" fill="#fff"/>
              <path d="M15.9,12l.5.23.05,0-.22-.1L16.06,12l-.16,0" fill="#fff"/>
              <path d="M14.9,11.56l.33.15,0,0-.16-.07a.41.41,0,0,0-.22-.06" fill="#fff"/>
              <polyline points="24.06 11.18 23.41 12.06 28.35 11.69 29.92 9.7 27.62 9.89 26.76 10.98 24.06 11.18" fill="#fff" opacity="0.33"/>
              <path d="M26,9.18l-.71.9,2.29-.19.71-.9L26,9.18m-3.55,1.26-.67.91,2.24-.17.67-.9-2.24.16" fill="#fff" opacity="0.18"/>
              <polyline points="24.73 10.28 24.06 11.18 26.76 10.98 27.62 9.89 25.33 10.08 25.2 10.24 24.73 10.28" fill="#fff" opacity="0.45"/>
              <polyline points="21.7 8.67 20.27 10.61 22.49 10.44 23.25 9.41 26.04 9.18 26.77 8.25 21.7 8.67" fill="#fff" opacity="0.73"/>
              <polyline points="23.25 9.41 22.49 10.44 24.73 10.28 24.84 10.12 25.33 10.08 26.04 9.18 23.25 9.41" fill="#fff" opacity="0.78"/>
              <polyline points="24.84 10.12 24.73 10.28 25.2 10.24 25.33 10.08 24.84 10.12" fill="#fff" opacity="0.85"/>
            </g>
          </g>
        </g>
      </g>
      <g>
        <polygon points="48.75 10.53 48.59 40.82 24.05 49.76 24.21 19.46 48.75 10.53" fill="#689cca"/>
        <g style="isolation: isolate">
          <g clip-path="url(#clip-path-3)">
            <g>
              <path d="M35.1,22.61,34,23.78s.09,0,.15,0l.11,0,2.34-.85L39,22l.11,0a.26.26,0,0,0,.14-.12,4.4,4.4,0,0,0-1.08-.35.31.31,0,0,1-.24.22l0,0-2.43.89h0c-.11,0-.21.07-.26-.07" fill="#fff"/>
              <path d="M41.39,22.66a.37.37,0,0,1-.17.14l-.15,0-4.46,1.63-4.46,1.62a.94.94,0,0,1-.15.06.15.15,0,0,1-.17,0,1.7,1.7,0,0,0-.31.34.15.15,0,0,0,.17,0l.15-.07,4.77-1.73L41.38,23l.14,0a.31.31,0,0,0,.17-.14.46.46,0,0,0-.3-.11" fill="#fff"/>
              <path d="M36.62,21a.31.31,0,0,0-.13.09c-.46.52-.92,1-1.39,1.52,0,.14.15.11.26.07h0l2.43-.89,0,0a.31.31,0,0,0,.24-.22A12,12,0,0,0,36.79,21a.25.25,0,0,0-.17,0" fill="#fff"/>
              <path d="M41.08,22.55a.27.27,0,0,1-.16.13l-.15.05-4.16,1.51-4.16,1.51-.15.07a.15.15,0,0,1-.16,0,1.35,1.35,0,0,0-.31.32.15.15,0,0,0,.17,0,.94.94,0,0,0,.15-.06l4.46-1.62,4.46-1.63.15,0a.37.37,0,0,0,.17-.14.49.49,0,0,0-.31-.11" fill="#fff"/>
              <path d="M40.78,22.44a.28.28,0,0,1-.15.12l-.14,0L36.61,24l-3.88,1.41a.84.84,0,0,0-.14.06.16.16,0,0,1-.15,0l-.3.33a.15.15,0,0,0,.16,0l.15-.07,4.16-1.51,4.16-1.51.15-.05a.27.27,0,0,0,.16-.13l-.3-.11" fill="#fff"/>
              <path d="M42.62,34.71l-.15.08-2.42.87-2.42.88c-.15.15-.35.27-.29.55a.63.63,0,0,1,.25-.16h0l4.4-1.6.11,0a.12.12,0,0,1,.15,0,2.79,2.79,0,0,0,.48-.49c0-.11-.08-.11-.15-.09" fill="#fff"/>
              <path d="M35.42,38l-3.83,1.39-.09,0a.3.3,0,0,0-.22.22l.48.18a.36.36,0,0,1,.17-.12l.16,0,3.65-1.33v-.3c-.08-.12-.19-.08-.32,0" fill="#fff"/>
              <path d="M40.43,22.32a.3.3,0,0,1-.17.15l-.14,0-3.51,1.28-3.5,1.28a.59.59,0,0,0-.14.06c-.07,0-.13,0-.17,0l-.36.38a.16.16,0,0,0,.15,0,.84.84,0,0,1,.14-.06L36.61,24l3.88-1.42.14,0a.28.28,0,0,0,.15-.12l-.35-.12" fill="#fff"/>
              <path d="M35.29,37.7l-4.15,1.51a.52.52,0,0,0-.35.29,1.58,1.58,0,0,0,.49.17.3.3,0,0,1,.22-.22l.09,0L35.42,38c.13-.05.24-.09.32,0v-.3c-.11-.14-.28-.12-.45,0" fill="#fff"/>
              <path d="M37.64,37.21a.42.42,0,0,0-.3.33v.15l3.72-1.35.15-.06a.17.17,0,0,1,.17,0c.16-.1.27-.33.42-.45,0-.12-.15-.09-.25-.06l0,0-1.94.71-1.94.7" fill="#fff"/>
              <path d="M41.69,22.77a.31.31,0,0,1-.17.14l-.14,0-4.77,1.74-4.77,1.73-.15.07a.15.15,0,0,1-.17,0l-.23.25a.18.18,0,0,0,.16,0l.15-.07,2.19-.79,2.19-.8.08,0a.4.4,0,0,1,.32,0,.71.71,0,0,1,.22-.16.31.31,0,0,1,.23,0,.8.8,0,0,1,.34-.22l.07,0,2.18-.79,2.19-.8.15-.05a.29.29,0,0,0,.17-.13l-.24-.07" fill="#fff"/>
              <path d="M29.77,39a.41.41,0,0,0-.18.13c.18.06.36.13.54.18,0-.13.08-.18.15-.2l.15,0,2.12-.78,2.12-.77a2,2,0,0,0,.48-.24.44.44,0,0,0-.34-.11L29.94,38.9l-.17.05" fill="#fff"/>
              <path d="M34.39,37l-5.1,1.86c0,.27.18.21.3.25a.41.41,0,0,1,.18-.13l.17-.05,4.87-1.78a.66.66,0,0,0-.42-.15" fill="#fff"/>
              <path d="M38.71,35.4a1.34,1.34,0,0,0-.35.36,1.37,1.37,0,0,0,.48-.1L41,34.88l2.15-.78.15-.07a.16.16,0,0,1,.16,0c.15-.13.35-.21.36-.5L38.71,35.4" fill="#fff"/>
              <path d="M39.7,22.07a.27.27,0,0,1-.17.15l-.14,0-2.78,1-2.77,1-.15.06a.12.12,0,0,1-.16,0,1.81,1.81,0,0,0-.36.37.15.15,0,0,0,.16,0l.13-.06,6.31-2.29.13,0a.36.36,0,0,0,.16-.12.65.65,0,0,0-.36-.12" fill="#fff"/>
              <path d="M42.14,35.27l-.11,0-4.4,1.6h0a.63.63,0,0,0-.25.16v.45a.42.42,0,0,1,.3-.33l1.94-.7,1.94-.71,0,0c.1,0,.2-.06.25.06a2.91,2.91,0,0,0,.49-.55.12.12,0,0,0-.15,0" fill="#fff"/>
              <path d="M34,36.82l-4.7,1.71v.3L34.39,37a.78.78,0,0,0-.39-.15" fill="#fff"/>
              <path d="M40.31,33.65l-.44.49c.05.07.11.06.18,0l.15-.07,3.6-1.3v-.38l-3.18,1.15-.16.07a.18.18,0,0,1-.16,0" fill="#fff"/>
              <path d="M32.68,36.35a.39.39,0,0,1-.17.13l-.15,0L29.3,37.64V38l3.94-1.45a1.58,1.58,0,0,0-.56-.21" fill="#fff"/>
              <path d="M39.44,34.61a1.34,1.34,0,0,0-.35.36.39.39,0,0,0,.26,0l.13-.05,1.44-.52,2.88-1.05V33l-4.36,1.58" fill="#fff"/>
              <path d="M37.61,37.74c-.24.09-.23.26-.23.46l1.43-.52,1.43-.52s.09,0,.14-.06.13,0,.15.1c.21-.14.34-.42.54-.58,0-.12-.08-.11-.15-.08l-.06,0-1.77.65-1.47.52h0" fill="#fff"/>
              <path d="M34.87,26.37l-.1,0L30.37,28a.79.79,0,0,0,.42.15l4.05-1.48a1.41,1.41,0,0,0,.31-.33.35.35,0,0,0-.28,0" fill="#fff"/>
              <path d="M38.56,25a1.89,1.89,0,0,0-.51.26.59.59,0,0,0,.31.12l4-1.48a2.57,2.57,0,0,0,.42-.45l-2.13.78L38.56,25" fill="#fff"/>
              <path d="M35.4,38.61h0l-1.34.5-1.62.58-.08,0a.33.33,0,0,0-.23.23l.48.18a.37.37,0,0,1,.22-.21l.06,0,0,0h0l2.73-1c0-.29,0-.36-.29-.28" fill="#fff"/>
              <path d="M39.21,21.89a.26.26,0,0,1-.14.12L39,22l-2.34.86-2.34.85-.11,0c-.06,0-.11,0-.15,0l-.3.33a.14.14,0,0,0,.15,0l.13-.06,2.62-.95,2.61-.95.13,0a.27.27,0,0,0,.16-.13l-.31-.11" fill="#fff"/>
              <path d="M35.53,37.37,30.7,39.14l-.16,0a.3.3,0,0,0-.18.16,1.05,1.05,0,0,0,.43.15.52.52,0,0,1,.35-.29l4.15-1.51c.17-.07.34-.09.45,0,0-.24,0-.42-.21-.38" fill="#fff"/>
              <path d="M33.24,36.56,29.3,38v.3l3.92-1.43.07,0,.06,0a.58.58,0,0,0,.22-.15.41.41,0,0,0-.33-.13" fill="#fff"/>
              <path d="M40.91,33a5.06,5.06,0,0,0-.6.62.18.18,0,0,0,.16,0l.16-.07,3.18-1.15v-.37l-1.73.63-.87.31-.07,0-.07,0c-.06,0-.12,0-.16,0" fill="#fff"/>
              <path d="M43.84,25.71l-.05,0v.52a.32.32,0,0,1-.25.39h0l-1.17.42-1.17.43V28l2.6-.95a.58.58,0,0,1,0-.31v-1" fill="#fff"/>
              <path d="M43.05,34.34l-.12,0-5,1.82a1.64,1.64,0,0,0-.31.33l2.42-.88,2.42-.87.15-.08c.07,0,.12,0,.15.09l.42-.45a.14.14,0,0,0-.14,0" fill="#fff"/>
              <path d="M38.36,35.76a2.28,2.28,0,0,0-.42.45l5-1.82.12,0a.14.14,0,0,1,.14,0c.11-.06.16-.21.25-.3a.16.16,0,0,0-.16,0l-.15.07L41,34.88l-2.14.78a1.37,1.37,0,0,1-.48.1" fill="#fff"/>
              <path d="M31,27.05a1.36,1.36,0,0,0-.3.33.17.17,0,0,0,.17,0l.15-.06,4.42-1.61.16-.07c.07,0,.13,0,.18,0a2.11,2.11,0,0,0,.43-.46L31.33,27l-.09,0-.09,0a.17.17,0,0,1-.17,0" fill="#fff"/>
              <path d="M42.23,23a.37.37,0,0,1-.18.14l-.08,0-.09,0L37,24.92a.92.92,0,0,0,.43.15.29.29,0,0,1,.17-.16l.16-.05,4.43-1.61.15-.05a.29.29,0,0,0,.17-.13c-.13,0-.17-.16-.3-.12" fill="#fff"/>
              <path d="M35.15,37.23a2,2,0,0,1-.48.24l-2.12.77L30.43,39l-.15,0c-.07,0-.12.07-.15.2l.23.09a.3.3,0,0,1,.18-.16l.16,0,4.83-1.77a.63.63,0,0,0-.38-.14" fill="#fff"/>
              <path d="M32.09,36.15a.29.29,0,0,1-.18.17l-.16,0-1.22.45-1.23.44v.38l3.06-1.12.15,0a.39.39,0,0,0,.17-.13c-.21,0-.37-.2-.59-.2" fill="#fff"/>
              <path d="M29.33,33.38V34c0,.28.16.32.39.24h0l1-.37L32,33.38v-.44l-1.32.47-1,.37h0c-.23.08-.31,0-.28-.28,0,0,0-.08,0-.13" fill="#fff"/>
              <path d="M29.33,32.79v.59s0,.09,0,.13L32,32.56v-.44L29.64,33l-.08,0c-.1,0-.19,0-.18-.16l-.05-.05" fill="#fff"/>
              <path d="M35.42,39.2h0q-.48.2-1,.36l-1.09.4a.58.58,0,0,0-.39.29,1.37,1.37,0,0,0,.49.18,1.17,1.17,0,0,1,.33-.2l.18-.05.17-.06.06,0,.2-.08.27-.09.27-.09.38-.16.06,0c.21-.07.33,0,.36.25v-.52c0-.19-.12-.26-.31-.19" fill="#fff"/>
              <path d="M30.68,27.38a1.1,1.1,0,0,0-.31.33.17.17,0,0,0,.17,0l.14-.07,4.89-1.77.19-.21c0-.06-.11-.05-.18,0l-.16.07L31,27.33l-.15.06a.17.17,0,0,1-.17,0" fill="#fff"/>
              <path d="M42.53,23.07a.29.29,0,0,1-.17.13l-.15.05-4.43,1.61-.16.05a.29.29,0,0,0-.17.16l.18.07,4.89-1.79.15,0a.31.31,0,0,0,.17-.14.43.43,0,0,0-.31-.1" fill="#fff"/>
              <path d="M31.29,26.72l-.31.33a.17.17,0,0,0,.17,0l.09,0,.09,0,4.86-1.76a.49.49,0,0,0,.19-.21.4.4,0,0,0-.32,0l-.08,0-2.19.8-2.19.79-.15.07a.18.18,0,0,1-.16,0" fill="#fff"/>
              <path d="M41.93,22.84a.29.29,0,0,1-.17.13l-.15.05-2.19.8-2.18.79-.07,0a.8.8,0,0,0-.34.22.22.22,0,0,0,.19.07l4.86-1.78.09,0,.08,0a.37.37,0,0,0,.18-.14l-.3-.11" fill="#fff"/>
              <path d="M42.84,23.17a.31.31,0,0,1-.17.14l-.15,0-4.89,1.79a1.1,1.1,0,0,0,.42.14,1.89,1.89,0,0,1,.51-.26l2.14-.77,2.13-.78c.07-.06.18-.11.16-.23s-.09-.07-.15-.07" fill="#fff"/>
              <path d="M30.37,27.71c-.06,0-.15.1-.16.19s.09.09.16.1l4.4-1.6.1,0a.35.35,0,0,1,.28,0,2.57,2.57,0,0,0,.42-.45l-4.89,1.77-.14.07a.17.17,0,0,1-.17,0" fill="#fff"/>
              <path d="M43.78,27.67l-2.61.95v.45l2.61-.95v-.45" fill="#fff"/>
              <path d="M40.24,22.25a.34.34,0,0,1-.17.15l-.06,0-.08,0L33.3,24.85l-.08,0-.06,0c-.07,0-.12,0-.17,0a1.8,1.8,0,0,0-.19.2c0,.06.1,0,.17,0a.59.59,0,0,1,.14-.06l3.5-1.28,3.51-1.28.14,0a.3.3,0,0,0,.17-.15l-.19-.07" fill="#fff"/>
              <path d="M39.09,35a1.59,1.59,0,0,0-.38.43l5.09-1.85v-.22l-2.88,1.05-1.44.52-.13.05a.39.39,0,0,1-.26,0" fill="#fff"/>
              <path d="M40.06,22.19a.36.36,0,0,1-.16.12l-.13,0-6.31,2.29-.13.06a.15.15,0,0,1-.16,0L33,24.9s.1,0,.17,0l.06,0,.08,0,6.63-2.41.08,0,.06,0a.34.34,0,0,0,.17-.15l-.18-.06" fill="#fff"/>
              <path d="M33.57,36.69a.58.58,0,0,1-.22.15l-.06,0-.07,0L29.3,38.31v.22L34,36.82c-.11-.11-.29-.09-.43-.13" fill="#fff"/>
              <path d="M43.83,26.69a.58.58,0,0,0,0,.31.31.31,0,0,1-.25.39h0l-1,.36-1.33.49v.37l2.61-.95a.35.35,0,0,1,0-.24v-.74" fill="#fff"/>
              <path d="M32,35.92l-2.66,1v.37l1.23-.44,1.22-.45.16,0a.29.29,0,0,0,.18-.17.26.26,0,0,1-.13-.23" fill="#fff"/>
              <path d="M37.56,38.43c-.19.06-.16.25-.23.38v.37a.48.48,0,0,1,.34-.42h0l.81-.28.33-.12.57-.21.12,0a.12.12,0,0,1,.16,0l.42-.47c0-.13,0-.13-.07-.11h0L38.68,38l-1.11.39h0" fill="#fff"/>
              <path d="M43.83,28.1l0,0a.39.39,0,0,1-.28.48h0l-1,.35-1.32.48v.38l2.6-.95,0-.09V28.1" fill="#fff"/>
              <path d="M29.32,34.8c0,.17,0,.35,0,.52l2.66-1V34l-1.15.42-1.16.42-.07,0c-.1,0-.2.06-.27-.05" fill="#fff"/>
              <path d="M43.82,29.38a.41.41,0,0,1-.28.24l-.07,0-.77.28-1.54.56v.37l2.66-1v-.51" fill="#fff"/>
              <path d="M43.82,30.12l-2.66,1v.38l2.66-1v-.37" fill="#fff"/>
              <path d="M32,35.25l-2.66,1v.37l2.65-1v-.38" fill="#fff"/>
              <path d="M43.81,31.39l-2.66,1c0,.12,0,.24,0,.37l2.67-1v-.37" fill="#fff"/>
              <path d="M40.38,37.1c-.05,0-.1,0-.14.06l-1.43.52-1.43.52,0,.11a.08.08,0,0,1,0,0v.45c.07-.13,0-.32.23-.38h0L38.68,38,40,37.54h0c.07,0,.11,0,.07.11a1.64,1.64,0,0,0,.43-.44c0-.12-.08-.13-.15-.1" fill="#fff"/>
              <path d="M32,32.56l-2.61.95c0,.29.05.36.28.28h0l1-.37L32,32.94v-.38" fill="#fff"/>
              <path d="M32,30.84l-2.61.95v.38l2.61-1v-.38" fill="#fff"/>
              <path d="M32,31.22l-2.61,1c0,.28,0,.36.27.28h0l1-.37L32,31.59v-.37" fill="#fff"/>
              <path d="M43.77,28.87l-2.6.95v.37l1.33-.49,1-.35h0a.38.38,0,0,0,.27-.48" fill="#fff"/>
              <path d="M43.78,28.12l-2.61.95v.37L42.49,29l1-.35h0a.39.39,0,0,0,.28-.48" fill="#fff"/>
              <path d="M39.87,34.14a1.94,1.94,0,0,0-.43.47L43.8,33v-.22l-3.6,1.3-.15.07c-.07,0-.13,0-.18,0" fill="#fff"/>
              <path d="M35.37,39.66l-.06,0-.38.16-.27.09-.27.09-.2.08-.06,0-.17.06-.18.05a1.17,1.17,0,0,0-.33.2l.72.25a.61.61,0,0,1,.34-.25l.11,0,.46-.15.29-.12.06,0c.17-.06.26,0,.3.2v-.38c0-.26-.15-.32-.36-.25" fill="#fff"/>
              <path d="M39.52,22a.27.27,0,0,1-.16.13l-.13,0-2.61.95L34,24.07l-.13.06a.14.14,0,0,1-.15,0,.49.49,0,0,0-.19.21.12.12,0,0,0,.16,0l.15-.06,2.77-1,2.78-1,.14,0a.27.27,0,0,0,.17-.15.18.18,0,0,0-.18-.07" fill="#fff"/>
              <path d="M31.09,28.26a1.06,1.06,0,0,0,.42.15l2.56-.92A1.9,1.9,0,0,0,34.5,27l-3.41,1.23" fill="#fff"/>
              <path d="M42.1,24.25,38.7,25.5a.67.67,0,0,0,.38.15l2.59-.94c.14-.16.32-.25.43-.46" fill="#fff"/>
              <path d="M37.67,38.76a.48.48,0,0,0-.34.42v.3a.43.43,0,0,1,.24-.31h0c.21-.06.41-.14.62-.21l.25-.1.24-.08.09,0c.09,0,.18,0,.16.17a6.9,6.9,0,0,0,.73-.79.12.12,0,0,0-.16,0l-.12,0-.57.21-.33.12-.81.28h0" fill="#fff"/>
              <path d="M34.84,26.67l-4.05,1.48a.55.55,0,0,0,.3.11L34.5,27a1.18,1.18,0,0,0,.34-.36" fill="#fff"/>
              <path d="M42.41,23.92l-4,1.48a.49.49,0,0,0,.34.1l3.4-1.25a1.23,1.23,0,0,0,.31-.33" fill="#fff"/>
              <path d="M41.14,32.73l-.23.3c0,.06.1,0,.16,0l.07,0,.07,0,.87-.31,1.73-.63v-.3l-2.67,1" fill="#fff"/>
              <path d="M29.38,32.09l-.05,0v.68l.05.05,2.6-1v-.3l-1.32.48-1,.37h0c-.23.08-.3,0-.27-.28v-.08" fill="#fff"/>
              <path d="M43.82,28.78l0,.09a.38.38,0,0,1-.27.48h0l-1,.35-1.33.49v.3l1.54-.56.77-.28.07,0a.41.41,0,0,0,.28-.24v-.6" fill="#fff"/>
              <path d="M29.32,34v.45c.05.16.16.16.31.11h0l1-.36L32,33.68v-.3l-1.27.46-1,.37h0c-.23.08-.35,0-.39-.24" fill="#fff"/>
              <path d="M29.32,34.43v.37c.07.11.17.09.27.05l.07,0,1.16-.42L32,34v-.3l-1.33.49-1,.36h0c-.15.05-.26.05-.31-.11" fill="#fff"/>
              <path d="M32,34.35l-2.66,1v.3l2.66-1v-.3" fill="#fff"/>
              <path d="M29.31,36.59v.3l2.66-1v-.29l-2.65,1" fill="#fff"/>
              <path d="M32,34.65l-2.66,1v.3L32,35v-.3" fill="#fff"/>
              <path d="M32,35l-2.66,1v.3l2.66-1V35" fill="#fff"/>
              <path d="M43.81,30.79l-2.65,1v.3l2.65-1v-.3" fill="#fff"/>
              <path d="M43.82,30.49l-2.66,1v.3l2.65-1v-.3" fill="#fff"/>
              <path d="M43.81,31.09l-2.65,1v.3l2.66-1v-.3" fill="#fff"/>
              <path d="M41.48,27c-.13.14-.33.21-.3.49l1.17-.43,1.17-.42h0a.32.32,0,0,0,.25-.39l-1.33.49L41.8,27a.19.19,0,0,0-.08,0l-.07,0a.14.14,0,0,1-.17,0" fill="#fff"/>
              <path d="M43.78,27l-2.6.95v.3l1.33-.49,1-.36h0a.31.31,0,0,0,.25-.39" fill="#fff"/>
              <path d="M29.39,30.52l-.05,0v.9l0,.13,1.07-.39,1.06-.39.12,0c.05,0,.09-.07.05-.19a.44.44,0,0,0-.3-.11.3.3,0,0,1-.17.15l-.08,0-.09,0-.41.15-.4.15-.61.22c-.13,0-.25.08-.23-.14v-.53" fill="#fff"/>
              <path d="M32.82,39.93a.37.37,0,0,0-.22.21.81.81,0,0,0,.36.12.58.58,0,0,1,.39-.29l1.09-.4q.48-.16,1-.36h0c.19-.07.27,0,.31.19V39a.08.08,0,0,1,0,0l0-.09-2.73,1h0l0,0-.06,0" fill="#fff"/>
              <path d="M38.08,39.34l-.28.12-.27.12-.05,0h0c-.16.06,0,.28-.15.4v.68l1.26-1.37a.72.72,0,0,0-.5,0" fill="#fff"/>
              <path d="M41.67,24.71l-2.59.94a1.06,1.06,0,0,0,.42.15l1.76-.64a1.79,1.79,0,0,0,.41-.45" fill="#fff"/>
              <path d="M31.51,28.41a.81.81,0,0,0,.42.14l1.76-.64a1.93,1.93,0,0,0,.38-.42l-2.56.92" fill="#fff"/>
              <path d="M41.91,26.55c-.14.15-.28.31-.43.46a.14.14,0,0,0,.17,0l.07,0a.19.19,0,0,1,.08,0l.66-.24,1.33-.49V26l-1.58.58-.13,0c-.07,0-.13,0-.17,0" fill="#fff"/>
              <path d="M30.47,30.14a1.39,1.39,0,0,1-.43.23l-.24.08-.24.08-.17.07v.45l1.42-.52.1,0c.05,0,.09-.06.05-.18a1.37,1.37,0,0,0-.49-.18" fill="#fff"/>
              <path d="M41.21,36.28l-.15.06-3.72,1.35v.67l0,0,0-.11c0-.2,0-.37.23-.46h0l1.47-.52,1.77-.65.06,0c.07,0,.14,0,.15.08l.31-.33a.17.17,0,0,0-.17,0" fill="#fff"/>
              <path d="M31.93,39.73a.36.36,0,0,0-.17.12l.36.11a.33.33,0,0,1,.23-.23l.08,0,1.62-.58,1.34-.5h0c.24-.08.32,0,.29.28l0,.09,0,0v-.67l-3.65,1.33-.16,0" fill="#fff"/>
              <path d="M37.57,39.17a.43.43,0,0,0-.24.31V40c.11-.12,0-.34.15-.4h0l.05,0,.27-.12.28-.12a.72.72,0,0,1,.5,0L39,38.9c0-.21-.07-.2-.16-.17l-.09,0-.24.08-.25.1c-.21.07-.41.15-.62.21h0" fill="#fff"/>
              <path d="M35.43,40.09l-.06,0-.29.12-.46.15-.11,0a.61.61,0,0,0-.34.25,1.52,1.52,0,0,0,.58.19,1.6,1.6,0,0,1,.43-.25l.2-.06.21-.07.14-.06v-.15c0-.2-.13-.26-.3-.2" fill="#fff"/>
              <path d="M31.68,30.58c0,.12,0,.17-.05.19l-.12,0-1.06.39-1.07.39v.22L32,30.84c0-.29-.17-.22-.31-.26" fill="#fff"/>
              <path d="M43.82,29.89l-2.66,1v.22l2.66-1v-.23" fill="#fff"/>
              <path d="M33.69,27.91l-1.76.64.77.3a.1.1,0,0,0,.09,0,.5.5,0,0,0,.13-.1c.25-.29.51-.57.77-.85" fill="#fff"/>
              <path d="M39.5,25.8l.77.28a.13.13,0,0,0,.12,0,.26.26,0,0,0,.1-.07c.25-.29.51-.57.77-.86l-1.76.64" fill="#fff"/>
              <path d="M32,31.89l-2.6,1c0,.21.08.19.18.16l.08,0L32,32.12v-.23" fill="#fff"/>
              <path d="M35.18,40.63a1.6,1.6,0,0,0-.43.25,5.9,5.9,0,0,0,1,.37v-.81l-.14.06-.21.07-.2.06" fill="#fff"/>
              <path d="M31,30.32c0,.12,0,.16-.05.18l-.1,0-1.42.52c0,.22.1.18.23.14l.61-.22.4-.15.41-.15.09,0,.08,0a.3.3,0,0,0,.17-.15.85.85,0,0,0-.42-.15" fill="#fff"/>
              <path d="M42.21,26.23a1.32,1.32,0,0,0-.3.32c0,.06.1.06.17,0l.13,0L43.79,26v-.22l-1.29.47-.13.05a.14.14,0,0,1-.16,0" fill="#fff"/>
              <path d="M43.84,24.82c-.08.14,0,.26-.05.39a.31.31,0,0,1-.2.37h0l-.34.12-.46.17h0c-.08,0-.13,0-.09-.12a2.11,2.11,0,0,0-.43.46.14.14,0,0,0,.16,0l.13-.05,1.29-.47.05,0v-.89" fill="#fff"/>
              <path d="M43.82,24.47l-.88,1a.54.54,0,0,0,.35,0l.19-.08.19-.08.12,0c0-.13,0-.25.05-.39a.7.7,0,0,0,0-.35" fill="#fff"/>
              <path d="M42.94,25.43l-.3.34c0,.15,0,.15.09.12h0l.46-.17.34-.12h0a.31.31,0,0,0,.2-.37l-.12,0-.19.08-.19.08a.54.54,0,0,1-.35,0" fill="#fff"/>
              <path d="M30.05,30a.63.63,0,0,1-.27.16l-.15.05-.14,0-.1.05v.3l.17-.07.24-.08.24-.08a1.39,1.39,0,0,0,.43-.23c-.14-.05-.27-.1-.42-.14" fill="#fff"/>
              <path d="M29.37,29.73a.82.82,0,0,0,0,.37c.06,0,.05.12.05.2l.1-.05.14,0,.15-.05a.63.63,0,0,0,.27-.16l-.68-.27" fill="#fff"/>
              <path d="M43.83,27.43a.35.35,0,0,0,0,.24v.45l0,0v-.67" fill="#fff"/>
              <path d="M29.34,31.44v.67l.05,0v-.52l0-.13" fill="#fff"/>
              <path d="M29.34,30.1v.44l.05,0V30.3c0-.08,0-.17-.05-.2" fill="#fff"/>
              <polyline points="34.8 32.98 33.37 34.56 36.52 35.76 39.81 32.23 38.32 31.7 36.52 33.64 34.8 32.98" fill="#fff" opacity="0.33"/>
              <path d="M38.33,29.58l-1.49,1.6,1.48.52,1.49-1.6-1.48-.52M34.85,30.8l-1.48,1.63L34.8,33l1.47-1.63-1.42-.55" fill="#fff" opacity="0.18"/>
              <polyline points="36.27 31.35 34.8 32.98 36.52 33.64 38.32 31.7 36.84 31.18 36.58 31.46 36.27 31.35" fill="#fff" opacity="0.45"/>
              <polyline points="36.58 26.77 33.43 30.26 34.85 30.8 36.53 28.95 38.33 29.58 39.86 27.93 36.58 26.77" fill="#fff" opacity="0.73"/>
              <polyline points="36.53 28.95 34.85 30.8 36.27 31.35 36.52 31.07 36.84 31.18 38.33 29.58 36.53 28.95" fill="#fff" opacity="0.78"/>
              <polyline points="36.52 31.07 36.27 31.35 36.58 31.46 36.84 31.18 36.52 31.07" fill="#fff" opacity="0.85"/>
            </g>
          </g>
        </g>
      </g>
    </g>
  </g>
</svg>
