<svg id="Capa_1" data-name="Capa 1" xmlns="http://www.w3.org/2000/svg" xmlns:xlink="http://www.w3.org/1999/xlink" width="50" height="50" viewBox="0 0 50 50">
  <defs>
    <clipPath id="clip-path">
      <polygon points="24.04 49.77 1.26 39.48 1.42 9.18 24.2 19.47 24.04 49.77" fill="none"/>
    </clipPath>
    <clipPath id="clip-path-2">
      <polygon points="24.2 19.47 1.42 9.18 25.96 0.25 48.75 10.54 24.2 19.47" fill="none"/>
    </clipPath>
    <clipPath id="clip-path-3">
      <polygon points="48.75 10.54 48.59 40.83 24.04 49.77 24.2 19.47 48.75 10.54" fill="none"/>
    </clipPath>
  </defs>
  <g id="Figment_lido">
    <g style="isolation: isolate">
      <g>
        <polygon points="24.04 49.77 1.26 39.48 1.42 9.18 24.2 19.47 24.04 49.77" fill="#2548ba"/>
        <g style="isolation: isolate">
          <g clip-path="url(#clip-path)">
            <g>
              <path d="M17.45,37.77l-2.26-.29v.69l-.67-.3V37.4l-1.27-.16a2,2,0,0,1,.11.64,1.35,1.35,0,0,1,0,.29l4.27.54a2.09,2.09,0,0,1-.16-.78.81.81,0,0,1,0-.16M7.56,33.22a.48.48,0,0,1,0,.12,1,1,0,0,1-.19.66l4.26,3.4a1.84,1.84,0,0,1,0-.33,1.19,1.19,0,0,1,.12-.53l-1.15-.92V36l-.66-.3v-.6L7.56,33.22M6.47,21.57l-.1,10.11a.63.63,0,0,1,.32.06A1.15,1.15,0,0,1,7,32l0-4.9-.43-.33L6.8,26l.29.22,0-4.25a.79.79,0,0,1-.29-.06,1.43,1.43,0,0,1-.37-.29m12.31,5.6a.63.63,0,0,1-.37-.06,1,1,0,0,1-.29-.19l0,4.37.36.06.14.94-.51-.07,0,4.85a.7.7,0,0,1,.3.06,1.31,1.31,0,0,1,.36.27l.09-10.23m-7-6.79-4.32-.32a2.08,2.08,0,0,1,.24.7l.34.28,3.88.28a2,2,0,0,1-.16-.76,1.1,1.1,0,0,1,0-.18m1.74.8a1.21,1.21,0,0,1,0,.19,1,1,0,0,1-.17.61l3.84,3.26.34,0a.84.84,0,0,1,.24-.48l-4.26-3.61" fill="#fff"/>
              <path d="M7.71,20.76a1.53,1.53,0,0,1,0,.3,1.24,1.24,0,0,1-.13.55L11.69,25a2,2,0,0,1,0-.34,1.11,1.11,0,0,1,.11-.52L8.05,21l-.34-.28m9.84,4.51-.34,0-3.88-.4a2,2,0,0,1,.1.6,1.63,1.63,0,0,1,0,.33l4.29.45a2,2,0,0,1-.14-.71c0-.08,0-.16,0-.24" fill="#fff"/>
              <path d="M12.55,23.84a.55.55,0,0,0-.78.27,1.11,1.11,0,0,0-.11.52,2,2,0,0,0,0,.34,1.76,1.76,0,0,0,.84,1.26.58.58,0,0,0,.85-.46,1.63,1.63,0,0,0,0-.33,2,2,0,0,0-.1-.6,1.62,1.62,0,0,0-.78-1" fill="#fff"/>
              <path d="M18.43,24.72a.55.55,0,0,0-.64.07.84.84,0,0,0-.24.48c0,.08,0,.16,0,.24a2,2,0,0,0,.14.71,1.88,1.88,0,0,0,.45.7,1,1,0,0,0,.29.19.63.63,0,0,0,.37.06c.3-.06.51-.37.52-.85a1.86,1.86,0,0,0-.87-1.6" fill="#fff"/>
              <path d="M12.67,19.77c-.44-.2-.81.07-.88.61a1.1,1.1,0,0,0,0,.18,2,2,0,0,0,.16.76,1.55,1.55,0,0,0,.71.84.54.54,0,0,0,.73-.18,1,1,0,0,0,.17-.61,1.21,1.21,0,0,0,0-.19,1.78,1.78,0,0,0-.86-1.41" fill="#fff"/>
              <path d="M6.86,19.46c-.48-.22-.88.13-.89.79a2.05,2.05,0,0,0,.5,1.32,1.43,1.43,0,0,0,.37.29.79.79,0,0,0,.29.06.54.54,0,0,0,.48-.31,1.24,1.24,0,0,0,.13-.55,1.53,1.53,0,0,0,0-.3,2.08,2.08,0,0,0-.24-.7,1.46,1.46,0,0,0-.61-.6" fill="#fff"/>
              <path d="M6.69,31.74a.63.63,0,0,0-.32-.06c-.33,0-.57.35-.57.85a1.84,1.84,0,0,0,.87,1.61.56.56,0,0,0,.7-.14,1,1,0,0,0,.19-.66.48.48,0,0,0,0-.12A2,2,0,0,0,7,32a1.15,1.15,0,0,0-.34-.25" fill="#fff"/>
              <path d="M9.32,28.83A2,2,0,0,0,10,30.25v-.92l-.65-.5m.9-.82a.54.54,0,0,0-.65.08l1.06.83v1.53c.27-.08.46-.39.47-.84a1.86,1.86,0,0,0-.87-1.6" fill="#fff"/>
              <path d="M12.5,36.27a.56.56,0,0,0-.78.27,1.19,1.19,0,0,0-.12.53,1.84,1.84,0,0,0,0,.33,1.78,1.78,0,0,0,.84,1.27c.41.19.76,0,.86-.5a1.35,1.35,0,0,0,0-.29,2,2,0,0,0-.11-.64,1.63,1.63,0,0,0-.76-1" fill="#fff"/>
              <path d="M18.33,37.13a.7.7,0,0,0-.3-.06c-.31,0-.53.27-.58.7a.81.81,0,0,0,0,.16,2.09,2.09,0,0,0,.16.78,1.58,1.58,0,0,0,.71.82c.49.22.89-.13.89-.79a2,2,0,0,0-.51-1.34,1.31,1.31,0,0,0-.36-.27" fill="#fff"/>
              <polyline points="6.8 25.95 6.65 26.76 7.08 27.09 9.32 28.83 9.97 29.33 9.96 30.25 9.91 35.1 9.91 35.7 10.57 36 10.57 35.63 10.62 30.45 10.63 28.92 9.57 28.09 7.09 26.17 6.8 25.95" fill="#fff"/>
              <path d="M15.89,31.9l-.65-.1v.93c.36,0,.64-.3.65-.83M15,30.27c-.49-.23-.89.13-.89.79a2,2,0,0,0,.45,1.26V30.78l1.07.16a1.44,1.44,0,0,0-.64-.67" fill="#fff"/>
              <polyline points="18.44 31.35 18.08 31.29 15.66 30.94 14.59 30.78 14.57 32.32 14.53 37.4 14.52 37.87 15.19 38.17 15.19 37.48 15.24 32.73 15.24 31.8 15.89 31.9 18.07 32.22 18.58 32.29 18.44 31.35" fill="#fff"/>
            </g>
          </g>
        </g>
      </g>
      <g>
        <polygon points="24.2 19.47 1.42 9.18 25.96 0.25 48.75 10.54 24.2 19.47" fill="#294fcd"/>
        <g style="isolation: isolate">
          <g clip-path="url(#clip-path-2)">
            <g>
              <path d="M35.58,9.93l-2,1.19.52.23-.75.28L33,11.47l-1.12.66a1.9,1.9,0,0,1,.57.16.56.56,0,0,1,.2.12l3.76-2.25a2.24,2.24,0,0,1-.73-.17l-.11-.06M24.34,14l.1,0c.21.1.33.22.35.34l5.95-1.28a1.84,1.84,0,0,1-.28-.09.73.73,0,0,1-.32-.25l-1.59.35.28.12-.75.28-.46-.21-3.28.7M14.55,10.7l7.68,3.47a.84.84,0,0,1,.3-.16A2.07,2.07,0,0,1,23,13.9l-3.72-1.68-.6.13L18.18,12l.39-.09-3.23-1.45a1.67,1.67,0,0,1-.27.14,2.65,2.65,0,0,1-.52.11m14-5.11a.9.9,0,0,1-.34.2,2,2,0,0,1-.37.09l3.32,1.5.33-.18.83.24-.46.26L35.5,9.36a1.41,1.41,0,0,1,.28-.15,2.5,2.5,0,0,1,.49-.11L28.5,5.59M17.81,7.28,14.18,9.63a2.81,2.81,0,0,1,.73.09l.48-.1,3.25-2.1a2.66,2.66,0,0,1-.7-.17l-.13-.07m2-.72a.39.39,0,0,1,.15.06.52.52,0,0,1,.34.3l5.51-1.08.29-.19a.33.33,0,0,1-.18-.3L19.79,6.56" fill="#fff"/>
              <path d="M14.91,9.72l.25.09a.68.68,0,0,1,.32.26l5.78-1.19a1.24,1.24,0,0,1-.29-.1.62.62,0,0,1-.31-.24L15.39,9.62l-.48.1M26.08,5.65l-.29.19L22.44,7.91a2.4,2.4,0,0,1,.53.14,1.16,1.16,0,0,1,.23.14l3.69-2.28a2.3,2.3,0,0,1-.64-.17l-.17-.09" fill="#fff"/>
              <path d="M21.06,8c-.38.14-.52.34-.4.53a.62.62,0,0,0,.31.24,1.24,1.24,0,0,0,.29.1,3,3,0,0,0,1.62-.05c.45-.16.56-.43.32-.64A1.16,1.16,0,0,0,23,8.05a2.4,2.4,0,0,0-.53-.14,3,3,0,0,0-1.38.1" fill="#fff"/>
              <path d="M26.34,5c-.28.1-.43.24-.44.38a.33.33,0,0,0,.18.3l.17.09a2.3,2.3,0,0,0,.64.17,3.38,3.38,0,0,0,.9,0,2,2,0,0,0,.37-.09.9.9,0,0,0,.34-.2c.19-.19.11-.41-.25-.58a3,3,0,0,0-1.91,0" fill="#fff"/>
              <path d="M18,6.57c-.5.18-.58.48-.22.71l.13.07a2.66,2.66,0,0,0,.7.17,2.81,2.81,0,0,0,1.21-.13c.34-.12.49-.3.43-.47a.52.52,0,0,0-.34-.3.39.39,0,0,0-.15-.06,3,3,0,0,0-1.76,0" fill="#fff"/>
              <path d="M13.25,9.76c-.56.21-.6.55-.1.78a2.9,2.9,0,0,0,1.4.16,2.65,2.65,0,0,0,.52-.11,1.67,1.67,0,0,0,.27-.14c.16-.12.21-.25.14-.38a.68.68,0,0,0-.32-.26l-.25-.09a2.81,2.81,0,0,0-.73-.09,2.72,2.72,0,0,0-.93.13" fill="#fff"/>
              <path d="M22.53,14a.84.84,0,0,0-.3.16c-.24.19-.18.44.21.61a2.9,2.9,0,0,0,1.91.05c.32-.12.46-.28.44-.44s-.14-.24-.35-.34l-.1,0A3.16,3.16,0,0,0,23,13.9a2.07,2.07,0,0,0-.46.11" fill="#fff"/>
              <path d="M22.36,11.53a3,3,0,0,0,1.59.12l-.71-.32-.88.2m.07-.78c-.29.1-.44.25-.44.39l1.46-.32,1.17.52c.15-.18.06-.39-.28-.55a2.9,2.9,0,0,0-1.91,0" fill="#fff"/>
              <path d="M30.55,12.24c-.38.14-.52.34-.41.53a.73.73,0,0,0,.32.25,1.84,1.84,0,0,0,.28.09,3,3,0,0,0,1.63,0c.46-.17.57-.44.29-.65a.56.56,0,0,0-.2-.12,1.9,1.9,0,0,0-.57-.16,3,3,0,0,0-1.34.11" fill="#fff"/>
              <path d="M35.78,9.21a1.41,1.41,0,0,0-.28.15c-.23.18-.21.4.08.57l.11.06a2.24,2.24,0,0,0,.73.17A2.83,2.83,0,0,0,37.6,10c.56-.21.6-.55.1-.78a2.89,2.89,0,0,0-1.43-.16,2.5,2.5,0,0,0-.49.11" fill="#fff"/>
              <polyline points="18.18 11.99 18.67 12.35 19.27 12.22 22.36 11.53 23.24 11.33 23.95 11.65 27.63 13.31 28.08 13.52 28.83 13.24 28.55 13.12 24.62 11.34 23.45 10.81 21.98 11.14 18.57 11.9 18.18 11.99" fill="#fff"/>
              <path d="M29.86,8.83l-.58.34.7.32c.31-.2.28-.47-.12-.66m-1.93-.05c-.56.2-.6.55-.1.77a2.68,2.68,0,0,0,1.32.17L28,9.2l1-.56a2.69,2.69,0,0,0-1,.14" fill="#fff"/>
              <polyline points="31.43 7.2 31.11 7.38 28.94 8.64 27.98 9.2 29.15 9.72 33.01 11.47 33.36 11.63 34.11 11.35 33.59 11.12 29.98 9.49 29.28 9.17 29.86 8.83 31.81 7.7 32.27 7.44 31.43 7.2" fill="#fff"/>
            </g>
          </g>
        </g>
      </g>
      <g>
        <polygon points="48.75 10.54 48.59 40.83 24.04 49.77 24.2 19.47 48.75 10.54" fill="#2951d1"/>
        <g style="isolation: isolate">
          <g clip-path="url(#clip-path-3)">
            <g>
              <path d="M42.36,35.11l-2.55,1.7v.71l-.75.27V37.3l-1.43,1a1.15,1.15,0,0,1,.12.55,1.32,1.32,0,0,1,0,.34l4.83-3.21a1.1,1.1,0,0,1-.19-.66,1,1,0,0,1,0-.17M31.17,39.17a.53.53,0,0,1,0,.13,2.1,2.1,0,0,1-.22.84l4.83-.28a1.65,1.65,0,0,1,0-.32,2,2,0,0,1,.13-.64l-1.3.08v.38l-.75.28V39l-2.67.15m-1.3-10.93-.05,10.4a1.21,1.21,0,0,1,.36-.21.78.78,0,0,1,.39,0l0-5-.49,0,.17-1,.32,0,0-4.38a1.5,1.5,0,0,1-.32.19.8.8,0,0,1-.43,0m13.94-5.12a1.37,1.37,0,0,1-.42.27.76.76,0,0,1-.32.05l0,4.5.41-.26.16.84-.57.37,0,5a1.28,1.28,0,0,1,.34-.19.76.76,0,0,1,.41,0l.05-10.52m-7.93-.78L31,25.83a.91.91,0,0,1,.28.49h.38L36,23.18a1.08,1.08,0,0,1-.18-.64c0-.06,0-.13,0-.2m2-.71a1.15,1.15,0,0,1,0,.19,1.89,1.89,0,0,1-.18.77L42,22.53l.39-.27a2.05,2.05,0,0,1,.26-.7l-4.83.07" fill="#fff"/>
              <path d="M31.28,26.32a1.36,1.36,0,0,1,0,.29,1.91,1.91,0,0,1-.14.67l4.62-.16a1.66,1.66,0,0,1,0-.32,1.73,1.73,0,0,1,.12-.64l-4.22.15h-.38m11.14-4.06-.39.27-4.39,3a1,1,0,0,1,.11.53,1.55,1.55,0,0,1,0,.37l4.84-3.31a1.13,1.13,0,0,1-.16-.61,2.6,2.6,0,0,1,0-.26" fill="#fff"/>
              <path d="M36.76,25.2a1.65,1.65,0,0,0-.88,1,1.73,1.73,0,0,0-.12.64,1.66,1.66,0,0,0,0,.32.69.69,0,0,0,1,.54,1.72,1.72,0,0,0,1-1.22,1.55,1.55,0,0,0,0-.37,1,1,0,0,0-.11-.53.67.67,0,0,0-.88-.34" fill="#fff"/>
              <path d="M43.4,20.93a1.5,1.5,0,0,0-.72.63,2.05,2.05,0,0,0-.26.7,2.6,2.6,0,0,0,0,.26,1.13,1.13,0,0,0,.16.61.63.63,0,0,0,.52.31.76.76,0,0,0,.32-.05,1.37,1.37,0,0,0,.42-.27,1.9,1.9,0,0,0,.58-1.32c0-.68-.44-1.07-1-.87" fill="#fff"/>
              <path d="M36.87,21a1.75,1.75,0,0,0-1,1.39c0,.07,0,.14,0,.2a1.08,1.08,0,0,0,.18.64.66.66,0,0,0,.82.23,1.56,1.56,0,0,0,.82-.82,1.89,1.89,0,0,0,.18-.77,1.15,1.15,0,0,0,0-.19.72.72,0,0,0-1-.68" fill="#fff"/>
              <path d="M30.31,25.74a1.78,1.78,0,0,0-1,1.6.83.83,0,0,0,.56.9.8.8,0,0,0,.43,0,1.5,1.5,0,0,0,.32-.19,1.8,1.8,0,0,0,.55-.74,1.91,1.91,0,0,0,.14-.67,1.36,1.36,0,0,0,0-.29.91.91,0,0,0-.28-.49.67.67,0,0,0-.69-.09" fill="#fff"/>
              <path d="M30.18,38.43a1.21,1.21,0,0,0-.36.21A1.92,1.92,0,0,0,29.18,40c0,.68.44,1.07,1,.87a1.55,1.55,0,0,0,.79-.75,2.1,2.1,0,0,0,.22-.84.53.53,0,0,0,0-.13.71.71,0,0,0-1-.74" fill="#fff"/>
              <path d="M33.14,33.14c0,.55.31.9.72.89v-1l-.73.06m1-1.62a1.56,1.56,0,0,0-.73.65l1.21-.09v1.58a1.93,1.93,0,0,0,.52-1.27c0-.68-.44-1.07-1-.87" fill="#fff"/>
              <path d="M36.76,37.94a1.65,1.65,0,0,0-.88,1,2,2,0,0,0-.13.64,1.65,1.65,0,0,0,0,.32.7.7,0,0,0,1,.55,1.72,1.72,0,0,0,1-1.26,1.32,1.32,0,0,0,0-.34,1.15,1.15,0,0,0-.12-.55.67.67,0,0,0-.87-.32" fill="#fff"/>
              <path d="M43.35,33.69a1.28,1.28,0,0,0-.34.19,1.91,1.91,0,0,0-.65,1.23,1,1,0,0,0,0,.17,1.1,1.1,0,0,0,.19.66.66.66,0,0,0,.8.21,1.79,1.79,0,0,0,1-1.6.83.83,0,0,0-.59-.91.76.76,0,0,0-.41,0" fill="#fff"/>
              <polyline points="30.28 32.42 30.11 33.38 30.6 33.34 33.14 33.14 33.87 33.08 33.86 34.03 33.84 39.02 33.83 39.64 34.58 39.37 34.58 38.98 34.61 33.66 34.62 32.08 33.41 32.17 30.6 32.4 30.28 32.42" fill="#fff"/>
              <path d="M40.57,30.49l-.73.47v.95a1.86,1.86,0,0,0,.73-1.42m-1-.9a1.78,1.78,0,0,0-1,1.6.85.85,0,0,0,.51.89V30.5l1.21-.78a.67.67,0,0,0-.73-.13" fill="#fff"/>
              <polyline points="43.45 27.68 43.04 27.95 40.31 29.71 39.1 30.5 39.09 32.08 39.06 37.3 39.06 37.79 39.81 37.52 39.81 36.81 39.84 31.91 39.84 30.96 40.57 30.49 43.04 28.89 43.61 28.52 43.45 27.68" fill="#fff"/>
            </g>
          </g>
        </g>
      </g>
    </g>
  </g>
</svg>
