<svg id="Capa_1" data-name="Capa 1" xmlns="http://www.w3.org/2000/svg" xmlns:xlink="http://www.w3.org/1999/xlink" width="50" height="50" viewBox="0 0 50 50">
  <defs>
    <clipPath id="clip-path">
      <polygon points="24.04 49.76 1.25 39.47 1.41 9.17 24.2 19.46 24.04 49.76" fill="none"/>
    </clipPath>
    <clipPath id="clip-path-2">
      <polygon points="24.2 19.46 1.41 9.17 25.96 0.24 48.74 10.53 24.2 19.46" fill="none"/>
    </clipPath>
    <clipPath id="clip-path-3">
      <polygon points="48.74 10.53 48.59 40.83 24.04 49.76 24.2 19.46 48.74 10.53" fill="none"/>
    </clipPath>
  </defs>
  <g id="Figment_lido">
    <g style="isolation: isolate">
      <g>
        <polygon points="24.04 49.76 1.25 39.47 1.41 9.17 24.2 19.46 24.04 49.76" fill="#a869c9"/>
        <g style="isolation: isolate">
          <g clip-path="url(#clip-path)">
            <g>
              <path d="M12.57,21.11a6.07,6.07,0,0,0-1.11-.38,3.61,3.61,0,0,0-4.15,1.83C6,24.78,5.84,27.71,7,31.15s3,5.61,5.3,6.68a5.48,5.48,0,0,0,.56.23,3.63,3.63,0,0,0,4-.81c.18-.18.17-.44,0-.75l-.55-.75a1.4,1.4,0,0,0-.38-.41c-.12-.05-.22,0-.39.15a2.8,2.8,0,0,1-3.11.28,3.87,3.87,0,0,1-.65-.36c-2.31-1.46-4-4.86-3.95-8.15,0-.14,0-.39,0-.66l0-.17c.31-2.05,1.21-3.23,2.69-3.5a3,3,0,0,1,1.86.28,4,4,0,0,1,.63.35,7.43,7.43,0,0,1,2,2,.69.69,0,0,0,.26.23.2.2,0,0,0,.22,0c.23-.17.47-.32.68-.5s.19-.43,0-.74a5.6,5.6,0,0,0-.48-.66,8.7,8.7,0,0,0-3.21-2.78" fill="#fff"/>
              <path d="M17.54,29.78A1,1,0,0,1,17.1,29c0-.34.2-.51.45-.39a.83.83,0,0,1,.44.78c0,.35-.2.54-.45.42m0-2.67c-.84-.39-1.54.2-1.55,1.35a3.24,3.24,0,0,0,1.49,2.79h0c.82.38,1.54-.25,1.54-1.37a3.2,3.2,0,0,0-1.5-2.78" fill="#fff"/>
            </g>
          </g>
        </g>
      </g>
      <g>
        <polygon points="24.2 19.46 1.41 9.17 25.96 0.24 48.74 10.53 24.2 19.46" fill="#b873dc"/>
        <g style="isolation: isolate">
          <g clip-path="url(#clip-path-2)">
            <g>
              <path d="M19.26,6.94a10.49,10.49,0,0,0-1.12.49c-1.62.84-2.25,1.82-1.78,2.88.62,1.47,2.71,2.49,6.18,3a19,19,0,0,0,9-.74l.59-.23c1.62-.69,2.37-1.53,2.43-2.48,0-.15-.2-.23-.59-.22l-1,.06a2.47,2.47,0,0,0-.59.08c-.13,0-.17.12-.19.26-.16.73-.86,1.34-2.14,1.81l-.76.24a14.82,14.82,0,0,1-9.07-.49l-.47-.23-.11-.07c-1.28-.84-1.49-1.72-.56-2.62a4.41,4.41,0,0,1,1.62-.94c.23-.08.47-.16.73-.23a14.36,14.36,0,0,1,3-.47,1,1,0,0,0,.37-.06A.24.24,0,0,0,25,6.81a3.79,3.79,0,0,0,.14-.53c0-.16-.17-.25-.54-.25a7.77,7.77,0,0,0-.85,0,16.43,16.43,0,0,0-4.51.86" fill="#fff"/>
              <path d="M29.48,7a1.44,1.44,0,0,1-.94,0c-.25-.11-.23-.28.05-.38a1.32,1.32,0,0,1,.92,0c.26.11.24.28,0,.38m-1.95-.89c-.93.34-1,.91-.18,1.29a4.83,4.83,0,0,0,3.21.09h0c.9-.33,1-.93.15-1.3a4.86,4.86,0,0,0-3.2-.08" fill="#fff"/>
            </g>
          </g>
        </g>
      </g>
      <g>
        <polygon points="48.74 10.53 48.59 40.83 24.04 49.76 24.2 19.46 48.74 10.53" fill="#bc76e1"/>
        <g style="isolation: isolate">
          <g clip-path="url(#clip-path-3)">
            <g>
              <path d="M36.5,22.81a7.56,7.56,0,0,0-1.16.55A10.65,10.65,0,0,0,31,28.48c-1.39,3.19-1.5,6.07-.23,8.34s3.15,2.87,5.58,2l.59-.24a9.81,9.81,0,0,0,4.18-4c.19-.31.17-.54-.05-.67l-.58-.26a.52.52,0,0,0-.4-.07c-.12,0-.23.19-.41.46a6.86,6.86,0,0,1-3.24,2.8,4,4,0,0,1-.68.19c-2.43.51-4.2-1.34-4.19-4.47,0-.14,0-.39,0-.65l0-.18a9.26,9.26,0,0,1,2.79-5.51,5.85,5.85,0,0,1,1.95-1.25,4,4,0,0,1,.66-.18,3.3,3.3,0,0,1,2.14.23.32.32,0,0,0,.27,0,.5.5,0,0,0,.23-.19c.25-.35.49-.68.71-1s.2-.56,0-.7a1.78,1.78,0,0,0-.5-.24,4.59,4.59,0,0,0-3.38,0" fill="#fff"/>
              <path d="M41.75,27c-.25.09-.45-.1-.46-.42a.81.81,0,0,1,.47-.73c.28-.1.47,0,.46.38a.85.85,0,0,1-.47.77m0-2.56a2.81,2.81,0,0,0-1.62,2.54c0,1.09.71,1.74,1.57,1.42h0a2.89,2.89,0,0,0,1.6-2.55c0-1.1-.69-1.72-1.57-1.41" fill="#fff"/>
            </g>
          </g>
        </g>
      </g>
    </g>
  </g>
</svg>
