<svg id="Capa_1" data-name="Capa 1" xmlns="http://www.w3.org/2000/svg" xmlns:xlink="http://www.w3.org/1999/xlink" width="50" height="50" viewBox="0 0 50 50">
  <defs>
    <clipPath id="clip-path">
      <polygon points="24.04 49.76 1.26 39.47 1.42 9.17 24.2 19.46 24.04 49.76" fill="none"/>
    </clipPath>
    <clipPath id="clip-path-2">
      <path d="M25.57,35.15C25.62,44.64,20,49.9,13.09,46.9S.47,33.78.42,24.29,6,9.54,12.91,12.54,25.52,25.67,25.57,35.15" fill="none"/>
    </clipPath>
    <clipPath id="clip-path-3">
      <polygon points="24.2 19.46 1.42 9.17 25.96 0.24 48.75 10.53 24.2 19.46" fill="none"/>
    </clipPath>
    <clipPath id="clip-path-4">
      <path d="M40.06,4.69c7.17,3.24,6.58,8.2-1.32,11.07s-20.12,2.58-27.29-.65S4.88,6.91,12.78,4s20.11-2.59,27.28.65" fill="none"/>
    </clipPath>
    <clipPath id="clip-path-5">
      <polygon points="48.75 10.53 48.59 40.82 24.04 49.76 24.2 19.46 48.75 10.53" fill="none"/>
    </clipPath>
    <clipPath id="clip-path-6">
      <path d="M50.52,25.93C50.47,35.25,44.31,45,36.75,47.79s-13.63-2.58-13.58-11.9S29.38,16.78,36.93,14s13.64,2.58,13.59,11.9" fill="none"/>
    </clipPath>
  </defs>
  <g id="Figment_lido">
    <g style="isolation: isolate">
      <g>
        <polygon points="24.04 49.76 1.26 39.47 1.42 9.17 24.2 19.46 24.04 49.76" fill="#d6d6d6"/>
        <g style="isolation: isolate">
          <g clip-path="url(#clip-path)">
            <g clip-path="url(#clip-path-2)">
              <path d="M16.47,21.75a3.51,3.51,0,0,0-1-.27c-1.1-.09-1.79.69-2.27,1.84a.3.3,0,0,1,0,.1l4.45,8,.08.05c1.25-.15,1.94-1.17,2.2-2.84.2-2.8-1.32-5.92-3.47-6.84" fill="#fdb800"/>
              <path d="M8.36,28h0c-1.13.18-1.89.94-2.14,2.53a.62.62,0,0,1-.07.19A8,8,0,0,0,6.57,34a6,6,0,0,0,2.95,3.64,3,3,0,0,0,.57.2c1.31.32,2.26-.26,2.71-1.81-.49-1-1.08-2-1.61-3-.92-1.7-1.91-3.33-2.8-5.06l0,0" fill="#00b0f2"/>
              <path d="M9.51,18.75A2.16,2.16,0,0,0,7.13,19c-.93.85-1.17,2.27-1.06,4a17.52,17.52,0,0,0,.72,2.19,4.8,4.8,0,0,0,.39.7,2.66,2.66,0,0,1,.63-.8q1.76-1.7,3.5-3.43a5,5,0,0,0,.48-.69.87.87,0,0,0-.1-.24,5,5,0,0,0-2.18-2" fill="#672bcc"/>
              <path d="M19,33.71a.44.44,0,0,1-.16.36c-.76.75-1.51,1.49-2.26,2.25l-2,2a.37.37,0,0,0-.15.31,5,5,0,0,0,2.18,2,2.13,2.13,0,0,0,2.71-.61,4.89,4.89,0,0,0,.66-3.67,7.3,7.3,0,0,0-1-2.69" fill="#d20fee"/>
              <path d="M11.79,21a5,5,0,0,1-.48.69q-1.74,1.74-3.5,3.43a2.66,2.66,0,0,0-.63.8L8.32,28h0l0,0c.23-.11.5,0,.74,0,.08-.62.48-.79.77-1.09.89-.93,1.81-1.8,2.72-2.7.1-.1.19-.24.37-.17.07-.22.15-.44.22-.65a.3.3,0,0,0,0-.1c-.5-.76-.87-1.64-1.4-2.37" fill="#7f26d4"/>
              <path d="M17.66,31.38l-.19,0a1.89,1.89,0,0,1-.86-.17l0,0-.08,0L16.19,31a4.11,4.11,0,0,1-.39-.24l-.36-.24-.09-.06c0,.08,0,.18,0,.22A30.54,30.54,0,0,1,12.92,33a8.58,8.58,0,0,1,.13,1.4,6.1,6.1,0,0,1-.2,1.62l.61,1c.35-.1.58-.43.84-.69,1.21-1.21,2.41-2.44,3.62-3.65.11-.11.2-.25.37-.18-.12-.42-.4-.72-.55-1.12l-.08-.05" fill="#b817e5"/>
              <path d="M9.44,28.15l0,0L9.13,28c-.24,0-.51-.13-.74,0,.89,1.73,1.88,3.36,2.8,5.06.53,1,1.12,1.92,1.61,3h0a6.1,6.1,0,0,0,.2-1.62,8.58,8.58,0,0,0-.13-1.4,10.28,10.28,0,0,0-1.43-3.26l-.14-.15A5.71,5.71,0,0,0,9.5,28.18l-.06,0" fill="#07d2e6"/>
              <path d="M18.29,32.55c-.17-.07-.26.07-.37.18-1.21,1.21-2.41,2.44-3.62,3.65-.26.26-.49.59-.84.69a9.51,9.51,0,0,0,.91,1.59.37.37,0,0,1,.15-.31l2-2c.75-.76,1.5-1.5,2.26-2.25a.44.44,0,0,0,.16-.36c-.15-.45-.51-.7-.67-1.16" fill="#c114e9"/>
              <path d="M19.94,28.59c-.26,1.67-1,2.69-2.2,2.84.15.4.43.7.55,1.12s.52.71.67,1.16a7.3,7.3,0,0,1,1,2.69c.08,0,.07-.14.07-.24,0-2.52,0-5,0-7.57" fill="#fb9c23"/>
              <path d="M6.07,23l0,7.71a.62.62,0,0,0,.07-.19c.25-1.59,1-2.35,2.14-2.53l-1.14-2.1a4.8,4.8,0,0,1-.39-.7A17.52,17.52,0,0,1,6.07,23" fill="#017cfb"/>
              <path d="M13.21,23.42c-.07.21-.15.43-.22.65s0,.29,0,.44a9.92,9.92,0,0,0,.51,3.15,9,9,0,0,0,1.86,2.82l.09.06.36.24a4.11,4.11,0,0,0,.39.24l.31.16.08,0,0,0a1.89,1.89,0,0,0,.86.17l.19,0-4.45-8" fill="#fd397f"/>
              <path d="M13,24.07c-.18-.07-.27.07-.37.17-.91.9-1.83,1.77-2.72,2.7-.29.3-.69.47-.77,1.09l.27.1,0,0,.06,0a5.71,5.71,0,0,1,1.85,1.43l.14.15a8,8,0,0,0,2-2.1A9.92,9.92,0,0,1,13,24.51c0-.15,0-.3,0-.44" fill="#8822d7"/>
              <path d="M13.49,27.66a8,8,0,0,1-2,2.1A10.28,10.28,0,0,1,12.92,33,30.54,30.54,0,0,0,15.3,30.7s0-.14,0-.22a9,9,0,0,1-1.86-2.82" fill="#9c1edd"/>
            </g>
          </g>
        </g>
      </g>
      <g>
        <polygon points="24.2 19.46 1.42 9.17 25.96 0.24 48.75 10.53 24.2 19.46" fill="#ebebeb"/>
        <g style="isolation: isolate">
          <g clip-path="url(#clip-path-3)">
            <g clip-path="url(#clip-path-4)">
              <path d="M22.59,5.2a5.32,5.32,0,0,0-1,.48c-1,.58-.94,1.24-.47,1.91l.1,0,9.59.24.11,0c.9-.76.7-1.5-.35-2.21a10.93,10.93,0,0,0-8-.41" fill="#fdb800"/>
              <path d="M20.68,11.91l0,0c-.79.69-.83,1.39.16,2.07.05,0,.06.07.09.11a8,8,0,0,0,2.85.87,11,11,0,0,0,5.13-.4,5.76,5.76,0,0,0,.62-.26c1.3-.62,1.64-1.35.84-2.14-1.17-.08-2.35-.07-3.53-.11-2-.07-4.06-.07-6.07-.17h-.05" fill="#00b0f2"/>
              <path d="M14.68,8.08c-1,.37-1.7.88-1.78,1.42-.11.81.76,1.44,2.16,2,.76.1,1.41.3,2.23.34a7.77,7.77,0,0,0,.84,0,1.07,1.07,0,0,1-.09-.63c.1-1.05.2-2.1.28-3.15a1.91,1.91,0,0,0-.13-.51l-.27,0a10.17,10.17,0,0,0-3.24.55" fill="#672bcc"/>
              <path d="M33.61,7.92a.18.18,0,0,1,.13.21c-.05.68-.1,1.36-.14,2s-.08,1.23-.13,1.84a.17.17,0,0,0,.12.19,9.73,9.73,0,0,0,3.29-.53c1.16-.42,1.88-1.06,1.75-1.73s-.89-1.22-2.22-1.63a9.76,9.76,0,0,0-2.8-.39" fill="#d20fee"/>
              <path d="M18.19,7.56a1.91,1.91,0,0,1,.13.51c-.08,1-.18,2.1-.28,3.15a1.07,1.07,0,0,0,.09.63l2.51.08,0,0h.05c.1-.16.41-.27.62-.41-.4-.25-.21-.54-.2-.81,0-.82.11-1.63.18-2.45,0-.1,0-.2.17-.27l-.3-.35-.1,0c-1,0-1.94-.08-2.91,0" fill="#7f26d4"/>
              <path d="M30.79,7.85,30.65,8a3.15,3.15,0,0,1-.82.42l0,0-.09,0-.37.12-.5.14-.46.12-.13,0s.13.07.12.1a11.06,11.06,0,0,1-.19,2.14,7.1,7.1,0,0,1,1.16.41,4,4,0,0,1,1.06.67h1.26c.21-.23.15-.48.17-.71.08-1.1.13-2.2.2-3.3,0-.09,0-.19.17-.27-.42-.07-.87,0-1.29-.07l-.11,0" fill="#b817e5"/>
              <path d="M21.68,11.36l0,0-.29.11c-.21.14-.52.25-.62.41,2,.1,4.05.1,6.07.17,1.18,0,2.36,0,3.53.11h.06a4,4,0,0,0-1.06-.67,7.1,7.1,0,0,0-1.16-.41,15.08,15.08,0,0,0-3.61-.32l-.23,0a11.52,11.52,0,0,0-2.57.54l-.08,0" fill="#07d2e6"/>
              <path d="M32.19,7.89C32,8,32,8.07,32,8.16c-.07,1.1-.12,2.2-.2,3.3,0,.23,0,.48-.17.71a15.67,15.67,0,0,0,1.94,0,.17.17,0,0,1-.12-.19c.05-.61.08-1.22.13-1.84s.09-1.36.14-2a.18.18,0,0,0-.13-.21c-.47-.07-1,0-1.42,0" fill="#c114e9"/>
              <path d="M30.55,5.61c1.05.71,1.25,1.45.35,2.21.42,0,.87,0,1.29.07s1,0,1.42,0a9.76,9.76,0,0,1,2.8.39c0-.06,0-.09-.13-.13L30.55,5.61" fill="#fb9c23"/>
              <path d="M15.06,11.48l5.83,2.63s0-.08-.09-.11c-1-.68-.95-1.38-.16-2.07l-2.51-.08a7.77,7.77,0,0,1-.84,0c-.82,0-1.47-.24-2.23-.34" fill="#017cfb"/>
              <path d="M21.2,7.61l.3.35.33.15a10,10,0,0,0,2.78.8,16.28,16.28,0,0,0,3.63-.07l.13,0,.46-.12.5-.14.37-.12.09,0,0,0A3.15,3.15,0,0,0,30.65,8l.14-.11L21.2,7.61" fill="#fd397f"/>
              <path d="M21.5,8c-.19.07-.16.17-.17.27-.07.82-.15,1.63-.18,2.45,0,.27-.2.56.2.81l.29-.11,0,0,.08,0a11.52,11.52,0,0,1,2.57-.54l.23,0a3,3,0,0,0,.05-1.85,10,10,0,0,1-2.78-.8L21.5,8" fill="#8822d7"/>
              <path d="M24.61,8.91a3,3,0,0,1-.05,1.85,15.08,15.08,0,0,1,3.61.32,11.06,11.06,0,0,0,.19-2.14s-.08-.07-.12-.1a16.28,16.28,0,0,1-3.63.07" fill="#9c1edd"/>
            </g>
          </g>
        </g>
      </g>
      <g>
        <polygon points="48.75 10.53 48.59 40.82 24.04 49.76 24.2 19.46 48.75 10.53" fill="#f0f0f0"/>
        <g style="isolation: isolate">
          <g clip-path="url(#clip-path-5)">
            <g clip-path="url(#clip-path-6)">
              <path d="M40.73,20.18a5.58,5.58,0,0,0-1.11.57,7.11,7.11,0,0,0-2.5,3.68.24.24,0,0,1,0,.08l4.77,4.21.09,0a7.4,7.4,0,0,0,2.43-4.61c.26-2.94-1.37-4.76-3.7-3.91" fill="#fdb800"/>
              <path d="M31.79,33h0a7.08,7.08,0,0,0-2.36,4.26,1.44,1.44,0,0,1-.08.25,4.92,4.92,0,0,0,.47,2.87A2.41,2.41,0,0,0,33,41.58a4.88,4.88,0,0,0,.63-.28,6.15,6.15,0,0,0,3-4,18.4,18.4,0,0,0-1.73-1.59c-1-.91-2-1.71-3-2.69h0" fill="#00b0f2"/>
              <path d="M33.15,23a5.48,5.48,0,0,0-2.6,2.16A7.72,7.72,0,0,0,29.35,30a6.48,6.48,0,0,0,.77,1.56c.13.14.23.31.41.38a8.09,8.09,0,0,1,.69-1.3c1.29-2.09,2.59-4.17,3.87-6.27.2-.34.36-.72.53-1.08a.56.56,0,0,0-.1-.15A2.57,2.57,0,0,0,33.15,23" fill="#672bcc"/>
              <path d="M43.32,29.94a1.09,1.09,0,0,1-.19.49L40.64,34.5c-.75,1.22-1.49,2.45-2.23,3.67a.89.89,0,0,0-.17.43,2.48,2.48,0,0,0,2.36.2,5.78,5.78,0,0,0,3-2.82,6.7,6.7,0,0,0,.76-4.16,3,3,0,0,0-1-1.88" fill="#d20fee"/>
              <path d="M35.62,23.24c-.17.36-.33.74-.53,1.08-1.28,2.1-2.58,4.18-3.87,6.27a8.09,8.09,0,0,0-.69,1.3L31.75,33h.08a3.41,3.41,0,0,1,.81-.59,4.58,4.58,0,0,1,.85-1.71c1-1.64,2-3.27,3-4.9.12-.18.22-.4.41-.47.09-.28.17-.55.25-.83a.24.24,0,0,0,0-.08c-.54-.33-.93-.9-1.5-1.19" fill="#7f26d4"/>
              <path d="M41.91,28.72l-.21.18a3.35,3.35,0,0,1-.93.52l0,0-.09,0c-.11,0-.22.07-.33.09a3.29,3.29,0,0,1-.43.09l-.39.06h-.1a.92.92,0,0,1,0,.26c-.92,1.38-1.65,2.92-2.63,4.24a6,6,0,0,1,.13,1.28,8.07,8.07,0,0,1-.24,1.77l.65.51a6.88,6.88,0,0,0,.93-1.37c1.34-2.19,2.67-4.39,4-6.58.11-.19.21-.41.4-.49-.12-.31-.43-.37-.59-.64l-.09,0" fill="#b817e5"/>
              <path d="M33,32.28l0,0-.29.12a3.41,3.41,0,0,0-.81.59c1,1,2,1.78,3,2.69a18.4,18.4,0,0,1,1.73,1.59h0a8.07,8.07,0,0,0,.24-1.77,6,6,0,0,0-.13-1.28,3.52,3.52,0,0,0-1.53-2L35,32.15a3.46,3.46,0,0,0-2,.11l-.07,0" fill="#07d2e6"/>
              <path d="M42.59,29.34c-.19.08-.29.3-.4.49-1.33,2.19-2.66,4.39-4,6.58a6.88,6.88,0,0,1-.93,1.37,3.18,3.18,0,0,0,1,.82.89.89,0,0,1,.17-.43c.74-1.22,1.48-2.45,2.23-3.67l2.49-4.07a1.09,1.09,0,0,0,.19-.49c-.17-.32-.56-.27-.73-.6" fill="#c114e9"/>
              <path d="M44.43,24.09A7.4,7.4,0,0,1,42,28.7c.16.27.47.33.59.64s.56.28.73.6a3,3,0,0,1,1,1.88.38.38,0,0,0,.08-.3c0-2.48,0-4.95,0-7.43" fill="#fb9c23"/>
              <path d="M29.35,30l0,7.58a1.44,1.44,0,0,0,.08-.25A7.08,7.08,0,0,1,31.75,33l-1.22-1.13c-.18-.07-.28-.24-.41-.38A6.48,6.48,0,0,1,29.35,30" fill="#017cfb"/>
              <path d="M37.14,24.51c-.08.28-.16.55-.25.83s0,.29,0,.43a6,6,0,0,0,.52,2.7,3,3,0,0,0,2,1.25h.1l.39-.06a3.29,3.29,0,0,0,.43-.09c.11,0,.22-.06.33-.09l.09,0,0,0a3.35,3.35,0,0,0,.93-.52l.21-.18-4.77-4.21" fill="#fd397f"/>
              <path d="M36.89,25.34c-.19.07-.29.29-.41.47-1,1.63-2,3.26-3,4.9a4.58,4.58,0,0,0-.85,1.71l.29-.12,0,0,.07,0a3.46,3.46,0,0,1,2-.11l.15.05a25.26,25.26,0,0,0,2.21-3.73,6,6,0,0,1-.52-2.7c0-.14,0-.29,0-.43" fill="#8822d7"/>
              <path d="M37.4,28.47a25.26,25.26,0,0,1-2.21,3.73,3.52,3.52,0,0,1,1.53,2c1-1.32,1.71-2.86,2.63-4.24a.92.92,0,0,0,0-.26,3,3,0,0,1-2-1.25" fill="#9c1edd"/>
            </g>
          </g>
        </g>
      </g>
    </g>
  </g>
</svg>
