<svg id="Capa_1" data-name="Capa 1" xmlns="http://www.w3.org/2000/svg" xmlns:xlink="http://www.w3.org/1999/xlink" width="50" height="50" viewBox="0 0 50 50">
  <defs>
    <clipPath id="clip-path">
      <polygon points="24.04 49.76 1.26 39.47 1.42 9.17 24.2 19.46 24.04 49.76" fill="none"/>
    </clipPath>
    <clipPath id="clip-path-2">
      <polygon points="24.2 19.46 1.42 9.17 25.96 0.24 48.75 10.53 24.2 19.46" fill="none"/>
    </clipPath>
    <clipPath id="clip-path-3">
      <polygon points="48.75 10.53 48.59 40.82 24.04 49.76 24.2 19.46 48.75 10.53" fill="none"/>
    </clipPath>
  </defs>
  <g id="Figment_lido">
    <g style="isolation: isolate">
      <g>
        <polygon points="24.04 49.76 1.26 39.47 1.42 9.17 24.2 19.46 24.04 49.76" fill="#0c1d33"/>
        <g style="isolation: isolate">
          <g clip-path="url(#clip-path)">
            <g>
              <path d="M9.88,28.4V26.93l1.36,1.79,0,.19L9.88,28.4m.87-10.12c0,.82-.06,1.42,0,2,.24,2.3-.24,3.83-1.6,4.49-.44.21-.58.7-.57,1.43a1.32,1.32,0,0,1-.33.92A28.22,28.22,0,0,1,6,29c-.29.21-.3.5-.15,1a6.42,6.42,0,0,0,2.83,3.9,1.7,1.7,0,0,0,.84.16,1.55,1.55,0,0,1,.76.12A4.21,4.21,0,0,1,11.78,36c.79,1.25,1.59,2.48,2.38,3.72.28.44.57.87,1,1.47.14-1.75.28-3.34.42-5.16l.63,1.73a6.79,6.79,0,0,0,.87-.65,1.13,1.13,0,0,0,.28-.59c.11-.73.18-1.49.29-2.48.31.87.5,1.43.77,2.21.16-.77.26-1.39.43-2a1.22,1.22,0,0,0-.27-1.16c-.89-1.29-1.76-2.63-2.67-3.9a2.83,2.83,0,0,1-.66-2.05,3.77,3.77,0,0,0-.68-2.38c-1.09-1.8-2.13-3.66-3.19-5.5-.15-.26-.31-.51-.6-1" fill="#00e0f8"/>
              <path d="M8.8,17.56c0,1.08,0,2.09,0,3.1s.06,2.07.09,3.16c2-.57,1.9-3.57-.08-6.26" fill="#00e0f8"/>
            </g>
          </g>
        </g>
      </g>
      <g>
        <polygon points="24.2 19.46 1.42 9.17 25.96 0.24 48.75 10.53 24.2 19.46" fill="#0d1f38"/>
        <g style="isolation: isolate">
          <g clip-path="url(#clip-path-2)">
            <g>
              <path d="M22.07,10.87,21,10.37l2.46-.17.13.08-1.47.59M15,6.9c.63.28,1,.52,1.58.7,2,.65,2.74,1.46,2.15,2.46-.19.32.08.57.64.82.28.12.46.33.44.5a12.88,12.88,0,0,1-.37,1.93c-.07.24.14.34.64.43a11.62,11.62,0,0,0,5.27-.27,3.23,3.23,0,0,0,.81-.43,2.29,2.29,0,0,1,.7-.39,8,8,0,0,1,2.53-.27c1.59,0,3.18-.05,4.76-.08l1.91-.05-3.61-2,1.82.24a3.52,3.52,0,0,0,.21-.72.46.46,0,0,0-.24-.37c-.47-.31-1-.61-1.66-1l2.31.32c-.45-.35-.85-.62-1.15-.91s-.55-.27-1.1-.25c-1.71.07-3.44.11-5.15.19a3.8,3.8,0,0,1-2.1-.33A4.79,4.79,0,0,0,23,7c-2.27,0-4.53,0-6.8-.07H15" fill="#00e0f8"/>
              <path d="M12.87,7.77c.83.37,1.59.73,2.38,1.07s1.64.67,2.5,1c1.16-1.33-1.22-2.31-4.88-2.1" fill="#00e0f8"/>
            </g>
          </g>
        </g>
      </g>
      <g>
        <polygon points="48.75 10.53 48.59 40.82 24.04 49.76 24.2 19.46 48.75 10.53" fill="#0d2039"/>
        <g style="isolation: isolate">
          <g clip-path="url(#clip-path-3)">
            <g>
              <path d="M33.73,32.07V30.68l1.43.59,0,.2-1.4.6m.93-10.3a15.56,15.56,0,0,0,0,1.94A7,7,0,0,1,33,29.27a2.53,2.53,0,0,0-.59,1.81A2.46,2.46,0,0,1,32,32.22c-.76,1.22-1.55,2.41-2.36,3.59a1,1,0,0,0-.16,1.07,2.31,2.31,0,0,0,3,1.42,2.87,2.87,0,0,0,.89-.53,2.66,2.66,0,0,1,.79-.49c.64-.24,1.07.09,1.58.43.82.55,1.65,1.07,2.49,1.6.29.19.6.37,1,.62.16-1.78.3-3.39.46-5.24.3.53.5.89.65,1.14.34-.49.65-.88.91-1.32a2.33,2.33,0,0,0,.3-.78c.12-.79.19-1.57.31-2.6.32.59.53,1,.8,1.48.18-.86.28-1.53.46-2.19s0-.73-.28-.89C41.88,29,41,28.46,40,28a1.2,1.2,0,0,1-.69-1.41,1.7,1.7,0,0,0-.7-1.72c-1.15-.83-2.24-1.76-3.35-2.64-.16-.13-.33-.24-.62-.45" fill="#00e0f8"/>
              <path d="M32.6,22.66c0,1,0,2,0,2.95s.06,1.91.1,2.92c2.08-2.14,2-4.92-.09-5.87" fill="#00e0f8"/>
            </g>
          </g>
        </g>
      </g>
    </g>
  </g>
</svg>
