<svg id="Capa_1" data-name="Capa 1" xmlns="http://www.w3.org/2000/svg" xmlns:xlink="http://www.w3.org/1999/xlink" width="50" height="50" viewBox="0 0 50 50">
  <defs>
    <clipPath id="clip-path">
      <polygon points="24.04 49.76 1.25 39.47 1.41 9.17 24.2 19.46 24.04 49.76" fill="none"/>
    </clipPath>
    <clipPath id="clip-path-2">
      <polygon points="24.2 19.46 1.41 9.17 25.96 0.24 48.75 10.53 24.2 19.46" fill="none"/>
    </clipPath>
    <clipPath id="clip-path-3">
      <polygon points="48.75 10.53 48.59 40.82 24.04 49.76 24.2 19.46 48.75 10.53" fill="none"/>
    </clipPath>
  </defs>
  <g id="Figment_lido">
    <g style="isolation: isolate">
      <g>
        <polygon points="24.04 49.76 1.25 39.47 1.41 9.17 24.2 19.46 24.04 49.76" fill="#502fbb"/>
        <g style="isolation: isolate">
          <g clip-path="url(#clip-path)">
            <path d="M12.86,22.09a5.72,5.72,0,0,0-2-.55l-.1,0-.65,0-.74.15H9.22l-.05,0h0l-.14,0H9L8.67,22a2.16,2.16,0,0,1-.36.2l-.06,0v0h0a1.31,1.31,0,0,1-.27.21l-.11.08a.94.94,0,0,1-.25.24l0,0h0c-.09.12-.18.22-.27.33L7,23.52v0H7l-.09.14,0,.08h0l0,.07h0l0,0,0,0a2.87,2.87,0,0,1-.2.39l0,.11v0l0,.06v0l0,0h0l0,0,0,.08v0c-.09.23-.16.46-.24.69l0,0v0l0,.07A10.42,10.42,0,0,0,5.75,28c0,1.5-.08,3-.07,4.49v0h0c.05.17.09.33.13.49h0l0,.08,0,.11,0,0h0l0,0h0l0,0,0,.07.17.25a3.71,3.71,0,0,1,.29.27l.17.09a.88.88,0,0,0,.46.1l.07,0,.23-.14.09-.11,0,0h0A1.57,1.57,0,0,0,7.66,33c0-1.26,0-2.51.07-3.76a1.22,1.22,0,0,1,.13-.63l0-.07h0l0,0h0l0,0,0,0H8l0,0a.2.2,0,0,1,.17-.11l0,0h0l.1,0h0a.77.77,0,0,1,.39.07,1,1,0,0,1,.35.28h0l.08.08,0,0a1,1,0,0,1,.23.34l0,.12v0l0,.09a1,1,0,0,1,.1.33,1.46,1.46,0,0,1,.06.46c0,1.28,0,2.56-.07,3.83a2.93,2.93,0,0,0,.11,1v0l.06.14a3.59,3.59,0,0,0,.27.47l0,0,0,0a1.56,1.56,0,0,0,.46.34.83.83,0,0,0,.22.08c.37.08.72-.25.77-.74s0-1,0-1.5c0-.88,0-1.75,0-2.63a1.43,1.43,0,0,1,.09-.56.65.65,0,0,1,.25-.36.48.48,0,0,1,.3-.11.62.62,0,0,1,.37.07.75.75,0,0,1,.17.1l0,.06.11.09a.85.85,0,0,1,.26.3,2.18,2.18,0,0,1,.38,1.24l-.06,3.89a3.06,3.06,0,0,0,.07.79v0l0,.1,0,.08,0,.05,0,0,0,0v0l0,0,0,0,0,0v0h0v0l0,0,0,0,.1.15,0,0,0,0,0,0h0a1.65,1.65,0,0,0,.43.31.86.86,0,0,0,.3.09h0l.2-.06h0l0,0,.11-.09v0l.13-.17,0,0v-.05a4.65,4.65,0,0,0,.11-1.32c0-1.05,0-2.11.05-3.16a1.08,1.08,0,0,1,.09-.46v0l.06-.12v-.06a.38.38,0,0,1,.14-.14.27.27,0,0,1,.18-.1h.21a.48.48,0,0,1,.28.06.84.84,0,0,1,.24.16,1,1,0,0,1,.3.32l0,0,.13.21a2,2,0,0,1,.27.86v.22a1.83,1.83,0,0,1,0,.47,3.68,3.68,0,0,1,0,.47c0,.16,0,.32,0,.47a3.65,3.65,0,0,1,0,.47c0,.32,0,.62,0,.93s0,.33,0,.47a2.55,2.55,0,0,1,0,.48c0,.16,0,.31,0,.47v.11l.05.22v0l0,.06,0,0c0,.12.09.24.14.36s.14.23.21.33l0,.05a1.76,1.76,0,0,0,.39.34h0l.18.07a1.26,1.26,0,0,0,.33,0H19l.2-.1,0,0h0v0l.08-.08,0,0v0l0,0a2,2,0,0,0,.15-.8c0-1.24,0-2.48.06-3.71q0-.66,0-1.32c0-.41-.08-.83-.14-1.25,0-.21-.06-.42-.1-.62v0c0-.14-.07-.28-.1-.42v0a2.83,2.83,0,0,1-.09-.37v0l-.36-1.19V29.6l-.05-.14,0-.09,0-.05-.1-.26h0V29h0l0,0v0h0v-.09l0,0h0l0-.08,0-.08v0l0-.08c-.09-.19-.18-.38-.26-.57v0l0,0v0l0,0,0,0c-.08-.15-.16-.31-.23-.47l-.1-.19c-.09-.15-.18-.3-.26-.45l0,0v0l0,0,0,0,0,0c-.11-.16-.22-.33-.32-.5l-.12-.18,0-.08h0l0,0,0,0h0l0,0,0,0h0l0,0,0,0v0l0,0a2.48,2.48,0,0,1-.19-.26l-.05-.07-.05-.07,0,0v0l0,0c-.23-.27-.45-.54-.69-.8L15.48,24h0l-.07-.08h0a4.13,4.13,0,0,1-.37-.36h0c-.17-.14-.32-.27-.48-.42h0l-.45-.34h0l0,0c-.28-.18-.57-.37-.86-.52l-.3-.16" fill="#fff"/>
          </g>
        </g>
      </g>
      <g>
        <polygon points="24.2 19.46 1.41 9.17 25.96 0.24 48.75 10.53 24.2 19.46" fill="#5834cd"/>
        <g style="isolation: isolate">
          <g clip-path="url(#clip-path-2)">
            <path d="M19.62,7.39a8.62,8.62,0,0,0-1.9.93l-.1,0-.46.37-.44.46h0v0l0,0h0l0,0h0l-.06.1h0v0l-.12.22a1.19,1.19,0,0,1-.11.26V10h0v0a.39.39,0,0,1,0,.21l0,.09a.37.37,0,0,1,0,.21v0h0c0,.09,0,.17,0,.26a2.86,2.86,0,0,1,.07.28v0h0l0,.1,0,0v0l0,0h0v0a1,1,0,0,1,.14.24l0,.06h0l0,0h0l0,0h0l0,0,0,.05h0l.35.35v0h0l0,0a6.4,6.4,0,0,0,1.59,1c1.11.5,2.19,1,3.34,1.5h0l.47.09H23l.32,0,.41-.07.2-.06a1.65,1.65,0,0,0,.42-.23l0,0a1.34,1.34,0,0,1,.07-.18l0-.08v0h0a1,1,0,0,0-.5-.36l-2.77-1.25c-.18-.08-.34-.17-.38-.28l0,0h0v0h0v0h0v0a.11.11,0,0,1,.05-.13v0l0,0,.06-.06h0a1.21,1.21,0,0,1,.34-.19,1.94,1.94,0,0,1,.47-.1h0l.11,0h.06a2,2,0,0,1,.42,0h.26a1.65,1.65,0,0,1,.32,0,1.49,1.49,0,0,1,.39.13L26.1,13a2.86,2.86,0,0,0,.81.25h0l.15,0h.66a3,3,0,0,0,.6-.14l.22-.1c.34-.18.35-.48,0-.67s-.73-.34-1.11-.51L25.54,11a.8.8,0,0,1-.35-.24.22.22,0,0,1-.09-.25.34.34,0,0,1,.15-.2.76.76,0,0,1,.32-.19l.2-.06h.08L26,10a2,2,0,0,1,.43-.05,2.9,2.9,0,0,1,1.21.19l2.89,1.3a2.61,2.61,0,0,0,.65.21h1a2.59,2.59,0,0,0,.55-.14,1.12,1.12,0,0,0,.29-.14h0l0,0a.64.64,0,0,1,.1-.13h0v-.12h0l0-.13v0h0a3.09,3.09,0,0,0-.91-.48L29.88,9.34a.67.67,0,0,1-.29-.2h0l0-.07V9h0V9a.13.13,0,0,1,0-.12.15.15,0,0,1,.06-.13h0v0l0,0h0l0,0h0l0,0,0,0h0A1,1,0,0,1,30,8.49l.3-.07a2.11,2.11,0,0,1,.46-.07H31a2.44,2.44,0,0,1,.84.12h.08l0,0,.08,0a2.16,2.16,0,0,1,.34.15l.35.16a2.84,2.84,0,0,1,.35.16l.34.15c.25.1.47.21.7.31a3.68,3.68,0,0,1,.34.16l.35.16.36.15h0l.07,0,.21,0h.13c.13,0,.25,0,.38,0h.46A3,3,0,0,0,37,10h0l.18-.08a2.32,2.32,0,0,0,.28-.16h0v0s.05-.09.08-.14h0v0h0v-.1h0v0A1.3,1.3,0,0,0,37.07,9L34.31,7.78a10,10,0,0,0-1-.41c-.33-.12-.69-.23-1.06-.33l-.54-.14h0l-.39-.08h0l-.35-.07h0l-1.16-.18h-.06l-.15,0H29.4l-.27,0h-.61l-.63,0h-.18l-.52,0h-.94l-.62,0H25l-.33,0h-.3l-1.11.12-.22,0h0l-.11,0h0a4.51,4.51,0,0,1-.55.09h0l-.66.13h0L21.07,7H21c-.35.1-.7.2-1,.31l-.35.12" fill="#fff"/>
          </g>
        </g>
      </g>
      <g>
        <polygon points="48.75 10.53 48.59 40.82 24.04 49.76 24.2 19.46 48.75 10.53" fill="#5935d2"/>
        <g style="isolation: isolate">
          <g clip-path="url(#clip-path-3)">
            <path d="M36.43,22.73a9,9,0,0,0-2.2,1.2l-.12.06-.7.59-.81.8,0,0,0,0,0,0,0,0v0l0,0h0l0,.07h0l-.16.17,0,0,0,0-.34.42c-.13.18-.25.35-.39.51l-.06.09,0,0,0,0a4.78,4.78,0,0,1-.29.44l-.12.18a3.35,3.35,0,0,1-.27.45l0,0v0c-.1.19-.19.38-.29.56s-.21.42-.31.63l0,0,0,0h0l-.1.22,0,.11,0,0,0,.1h0l0,0,0,.05c-.06.19-.13.37-.21.56l-.06.16v0l0,.09v0l0,0v0l0,.05,0,.11v0c-.09.3-.17.59-.25.9l0,0V32a12.09,12.09,0,0,0-.36,2.76c0,1.51,0,3,0,4.51v0h0c.05.13.09.25.15.37h0l0,0,0,.07,0,0h0l0,0h0l.05,0,.19.1h.32l.19,0a1.59,1.59,0,0,0,.5-.31l.08-.07c.08-.11.16-.24.25-.35l.1-.18,0-.05h0a2.29,2.29,0,0,0,.16-1c0-1.25,0-2.51,0-3.77a1.76,1.76,0,0,1,.13-.74l0-.09v0l0-.08h0l0,0,0-.06,0,0,0-.07a.61.61,0,0,1,.18-.26l0-.06,0,0,.12-.11h0a1.41,1.41,0,0,1,.43-.26.63.63,0,0,1,.38,0h.1l0,0a.39.39,0,0,1,.25.14l0,.07,0,0,0,.06a.42.42,0,0,1,.12.24.86.86,0,0,1,.07.41c0,1.28,0,2.56,0,3.85a2.06,2.06,0,0,0,.13.85l0,0,.06.09a1.78,1.78,0,0,0,.31.23h.07a.88.88,0,0,0,.5-.06,1.28,1.28,0,0,0,.24-.11,2.07,2.07,0,0,0,.84-1.41c0-.52,0-1,0-1.52,0-.88,0-1.76,0-2.64a2.3,2.3,0,0,1,.37-1.22,1.27,1.27,0,0,1,.33-.36,1.06,1.06,0,0,1,.4-.26l.18,0,.06,0h.12a.36.36,0,0,1,.29.07,1,1,0,0,1,.44.9c0,1.31,0,2.6,0,3.91a2,2,0,0,0,.09.71v0l0,.06,0,.06,0,0,0,0h0v0l0,0,0,0,0,0,0,0h0l0,0h0l.11.05h0l0,0h0a1.12,1.12,0,0,0,.47-.07,1.35,1.35,0,0,0,.33-.18h0l0,0,.21-.23,0,0h0l0-.06.13-.18v0l.14-.29,0-.06v0h0a4.82,4.82,0,0,0,.1-1.4c0-1.06,0-2.12,0-3.18a1.75,1.75,0,0,1,.09-.54v0l.06-.16,0,0v0l0,0A1.17,1.17,0,0,1,40,29.9a.82.82,0,0,1,.2-.25h0l0,0,0,0h0l0,0h0l0,0,0,0v0a1.35,1.35,0,0,1,.32-.19.75.75,0,0,1,.26,0,.53.53,0,0,1,.33.05h0l.15.1a.76.76,0,0,1,.3.6v.22a1.85,1.85,0,0,1,0,.47,3.68,3.68,0,0,1,0,.47,3.68,3.68,0,0,1,0,.47,2.46,2.46,0,0,1,0,.47c0,.31,0,.63,0,.94s0,.31,0,.48a2.6,2.6,0,0,1,0,.48c0,.15,0,.31,0,.46v0l0,.07.06.19v0l0,0,0,0c.06.08.11.16.17.23a1.88,1.88,0,0,0,.23.16l0,0a.89.89,0,0,0,.43,0h0l.19-.09a1.56,1.56,0,0,0,.36-.23h0l0,0h0l0,0,.21-.27,0,0v0h0v0l.08-.15,0-.07v0l0-.06a2.65,2.65,0,0,0,.14-.91c0-1.24,0-2.49,0-3.73,0-.44,0-.87,0-1.28s-.1-.75-.17-1.12c0-.18-.08-.35-.13-.52v0a3.38,3.38,0,0,1-.11-.34v0a2,2,0,0,1-.1-.29v0L43.05,25v0l-.06-.1,0-.06,0,0-.12-.17h0l0,0v0h0l0,0v0h0v0h0l0,0v0h0l0-.05,0-.05v0l0-.05a2.37,2.37,0,0,1-.29-.34l0,0v0l0,0h0l0,0a1.28,1.28,0,0,1-.26-.26l-.12-.1a3.15,3.15,0,0,1-.29-.22l0,0h0l0,0v0a2.16,2.16,0,0,1-.36-.22l-.14-.08,0,0h0l0,0h0l0,0h0l0,0h0a.5.5,0,0,1-.21-.09l-.06,0-.06,0h0l0,0h0c-.25-.06-.49-.14-.76-.19l-.16,0h-.11a1.42,1.42,0,0,1-.41,0h0a4.73,4.73,0,0,1-.53,0h0l-.5.06h-.06c-.31.07-.62.13-.94.23l-.34.12" fill="#fff"/>
          </g>
        </g>
      </g>
    </g>
  </g>
</svg>
