<svg id="Capa_1" data-name="Capa 1" xmlns="http://www.w3.org/2000/svg" xmlns:xlink="http://www.w3.org/1999/xlink" width="50" height="50" viewBox="0 0 50 50">
  <defs>
    <clipPath id="clip-path">
      <polygon points="24.04 49.76 1.25 39.47 1.41 9.18 24.2 19.47 24.04 49.76" fill="none"/>
    </clipPath>
    <clipPath id="clip-path-2">
      <polygon points="24.2 19.47 1.41 9.18 25.96 0.25 48.74 10.54 24.2 19.47" fill="none"/>
    </clipPath>
    <clipPath id="clip-path-3">
      <polygon points="48.74 10.54 48.58 40.83 24.04 49.76 24.2 19.47 48.74 10.54" fill="none"/>
    </clipPath>
  </defs>
  <g id="Figment_lido">
    <g style="isolation: isolate">
      <g>
        <polygon points="24.04 49.76 1.25 39.47 1.41 9.18 24.2 19.47 24.04 49.76" fill="#c7c5c1"/>
        <g style="isolation: isolate">
          <g clip-path="url(#clip-path)">
            <g>
              <path d="M6.39,24.73a2.32,2.32,0,0,0-2.28.06l1.36,2.7a1.05,1.05,0,0,1,.93,0,2.21,2.21,0,0,1,.67.53l1-1.93a4.93,4.93,0,0,0-1.72-1.38" fill="#0779b8"/>
              <path d="M4.11,24.79A3.72,3.72,0,0,0,2.7,28a7.15,7.15,0,0,0,.12,1.3l2,.22a3.43,3.43,0,0,1,0-.56,1.58,1.58,0,0,1,.72-1.48l-1.36-2.7" fill="#005fa1"/>
              <path d="M4.8,29.53l-2-.22c.38,2.32,1.78,4.55,3.49,5.33a2.33,2.33,0,0,0,2.23,0L7.42,31.89a1.09,1.09,0,0,1-1.06.05A3.28,3.28,0,0,1,4.8,29.53" fill="#e98b2b"/>
              <path d="M8.11,26.11,7.07,28a3.59,3.59,0,0,1,.75,1.29l1.65-.81a8.2,8.2,0,0,0-1.36-2.41" fill="#0f8bcb"/>
              <path d="M14.43,35.15a1,1,0,0,1-.92.05l-.09,0a2.24,2.24,0,0,1-.6-.45l-.94,2a4.78,4.78,0,0,0,1.55,1.2l.18.08a2.22,2.22,0,0,0,2.24-.24l-1.42-2.63" fill="#03adde"/>
              <path d="M17,33.1,15,33a3.43,3.43,0,0,1,.07.56,1.68,1.68,0,0,1-.64,1.56l1.42,2.63a3.91,3.91,0,0,0,1.27-3.37A7.33,7.33,0,0,0,17,33.1" fill="#46c1e0"/>
              <path d="M13.54,28,13.35,28a2.22,2.22,0,0,0-2.2.19l1.21,2.68a1,1,0,0,1,1-.12l.08,0A3.23,3.23,0,0,1,15,33l2,.07c-.44-2.23-1.81-4.32-3.42-5.06" fill="#e98b2b"/>
              <path d="M12,33.45l-1.59.95a7.94,7.94,0,0,0,1.43,2.34l.94-2A3.73,3.73,0,0,1,12,33.45" fill="#10a6db"/>
              <path d="M21.62,30h-.08l-1.68.57a.19.19,0,0,1-.13,0,.38.38,0,0,1-.12-.11l-1.67-2.11h-.16a3.79,3.79,0,0,0-.11,3.08,4.27,4.27,0,0,0,2,2.64l.31.1c1.65.47,2.57-1.7,1.69-4,0-.08-.05-.12-.08-.14" fill="#00a2fd"/>
              <path d="M19.67,29.19l-1-1.24,0-.16c.35-.57.7-1.16,1.07-1.74l0-.05.07.14c.29.78.58,1.55.88,2.33.05.14.16.33.14.41s-.16.08-.24.11l-.79.26-.16-.06m.11-4.12c-.55.91-1.08,1.78-1.63,2.66l0,.17,1.47,1.85.15.07,1.48-.49,0-.18c-.2-.51-.39-1-.58-1.53-.32-.84-.64-1.67-1-2.55" fill="#009ff9"/>
            </g>
          </g>
        </g>
      </g>
      <g>
        <polygon points="24.2 19.47 1.41 9.18 25.96 0.25 48.74 10.54 24.2 19.47" fill="#dad8d4"/>
        <g style="isolation: isolate">
          <g clip-path="url(#clip-path-2)">
            <g>
              <path d="M17.48,11.47a2.78,2.78,0,0,0-1.74,1.32l3.12.13a1.4,1.4,0,0,1,.74-.52,3.93,3.93,0,0,1,.93-.19L19.87,11a9.9,9.9,0,0,0-2.39.5" fill="#0779b8"/>
              <path d="M15.74,12.79c-.25.65.18,1.35,1.35,1.88a7.73,7.73,0,0,0,1.09.37l1.71-1c-.16-.05-.32-.1-.46-.16-.56-.25-.75-.6-.57-.91l-3.12-.13" fill="#005fa1"/>
              <path d="M19.89,14l-1.71,1A12.41,12.41,0,0,0,25,14.86a2.79,2.79,0,0,0,1.72-1.28l-3-.28a1.19,1.19,0,0,1-.79.61,5.48,5.48,0,0,1-3.06.08" fill="#e98b2b"/>
              <path d="M19.87,11l.66,1.24a5.5,5.5,0,0,1,1.57,0L22.77,11a13.38,13.38,0,0,0-2.9,0" fill="#0f8bcb"/>
              <path d="M31.71,10.44A1.21,1.21,0,0,1,31,11l-.09,0a4.1,4.1,0,0,1-.82.18l.82,1.22a10.11,10.11,0,0,0,2.13-.47l.2-.08c.93-.37,1.43-.85,1.56-1.35l-3.11-.07" fill="#03adde"/>
              <path d="M32.13,8.31,30.54,9.4a3.37,3.37,0,0,1,.48.15c.6.24.82.58.69.89l3.11.07c.18-.66-.33-1.34-1.57-1.85a9.17,9.17,0,0,0-1.12-.35" fill="#46c1e0"/>
              <path d="M25.58,8.55l-.21.08c-.92.36-1.43.83-1.57,1.31l3,.21c0-.22.27-.45.71-.62l.09,0a5.54,5.54,0,0,1,2.95-.09l1.59-1.09a12.38,12.38,0,0,0-6.55.24" fill="#e98b2b"/>
              <path d="M28.54,11.21,28,12.43a13.39,13.39,0,0,0,2.9,0l-.82-1.22a6.33,6.33,0,0,1-1.57,0" fill="#10a6db"/>
              <path d="M33.39,4.63a.12.12,0,0,0,0,0l-.89,1.14-.1.07a.4.4,0,0,1-.17,0l-2.92.24-.14.08c.27.53,1,.91,2.27,1.1A7.47,7.47,0,0,0,35,7.08l.32-.14c1.65-.78.72-2-1.74-2.31h-.17" fill="#00a2fd"/>
              <path d="M31.26,5.46l-1.72.14-.14,0c-.17-.4-.34-.79-.5-1.2v0h.16l2.47.29a1.39,1.39,0,0,1,.42.06s-.07.11-.11.17l-.41.54-.17.06M28.2,4c.26.62.51,1.22.75,1.82l.17,0,2.55-.2.18-.07.78-1-.11-.08L30.9,4.32c-.89-.1-1.78-.19-2.7-.31" fill="#009ff9"/>
            </g>
          </g>
        </g>
      </g>
      <g>
        <polygon points="48.74 10.54 48.58 40.83 24.04 49.76 24.2 19.47 48.74 10.54" fill="#dfddd8"/>
        <g style="isolation: isolate">
          <g clip-path="url(#clip-path-3)">
            <g>
              <path d="M29.85,30.64a5.74,5.74,0,0,0-2.54,2l1.53,1.52a2.46,2.46,0,0,1,1-.78,1.3,1.3,0,0,1,.75,0l1.14-2.85a3.09,3.09,0,0,0-1.91.1" fill="#0779b8"/>
              <path d="M27.31,32.69a7.76,7.76,0,0,0-1.55,4.45,5,5,0,0,0,.14,1.2l2.2-1.5a2.55,2.55,0,0,1-.06-.51,3.56,3.56,0,0,1,.8-2.12l-1.53-1.52" fill="#005fa1"/>
              <path d="M28.1,36.84l-2.2,1.5c.43,2,2,3,3.9,2.34a5.73,5.73,0,0,0,2.49-2L31,37a2.61,2.61,0,0,1-1.17,1,1.26,1.26,0,0,1-1.75-1.07" fill="#e98b2b"/>
              <path d="M31.76,30.54l-1.14,2.85a1.2,1.2,0,0,1,.84.64l1.83-2.25a2.73,2.73,0,0,0-1.53-1.24" fill="#0f8bcb"/>
              <path d="M38.83,34.17a2.57,2.57,0,0,1-1,.83l-.09,0a1.22,1.22,0,0,1-.67.06L36,38a3.07,3.07,0,0,0,1.73-.13l.2-.08a6.07,6.07,0,0,0,2.49-2.18l-1.6-1.4" fill="#03adde"/>
              <path d="M41.65,29.91l-2.19,1.62a1.94,1.94,0,0,1,.08.5,3.46,3.46,0,0,1-.71,2.14l1.6,1.4a7.65,7.65,0,0,0,1.4-4.49,5.86,5.86,0,0,0-.18-1.17" fill="#46c1e0"/>
              <path d="M37.81,27.78a1.89,1.89,0,0,0-.21.09A5.88,5.88,0,0,0,35.15,30l1.36,1.65a2.71,2.71,0,0,1,1.14-1l.1,0a1.24,1.24,0,0,1,1.71,1l2.19-1.62a2.8,2.8,0,0,0-3.84-2.13" fill="#e98b2b"/>
              <path d="M36.17,34.51l-1.76,2.34A2.56,2.56,0,0,0,36,38l1-2.86a1.21,1.21,0,0,1-.88-.59" fill="#10a6db"/>
              <path d="M46.81,22.75s-.05,0-.09.08c-.62.67-1.25,1.34-1.87,2a.37.37,0,0,1-.14.1.15.15,0,0,1-.13,0l-1.87-.67-.17.11a3.86,3.86,0,0,0-.12,3.21,1.72,1.72,0,0,0,2.27.89l.35-.17c1.84-1,2.85-3.93,1.86-5.5,0-.06-.06-.08-.09-.07" fill="#00a2fd"/>
              <path d="M44.64,23.63l-1.1-.4,0-.13,1.19-2.68,0-.08.08.08c.33.52.66,1,1,1.58.06.09.18.19.16.28s-.18.23-.27.32l-.88.95-.17.08m.1-4.24c-.6,1.39-1.19,2.73-1.79,4.08l0,.14,1.64.59.17-.06,1.64-1.78,0-.21c-.22-.34-.44-.68-.65-1-.36-.57-.72-1.12-1.09-1.72" fill="#009ff9"/>
            </g>
          </g>
        </g>
      </g>
    </g>
  </g>
  <g>
    <rect x="46.21" y="41.66" width="1.51" height="1.51" fill="#fff"/>
    <rect x="46.21" y="40.15" width="1.51" height="1.52" fill="#fff"/>
    <rect x="46.21" y="8.34" width="1.51" height="1.51" fill="#fff"/>
    <rect x="46.21" y="6.82" width="1.51" height="1.52" fill="#fff"/>
    <rect x="44.69" y="43.18" width="1.52" height="1.52" fill="#fff"/>
    <rect x="44.69" y="41.66" width="1.52" height="1.51" fill="#ef5454"/>
    <rect x="44.69" y="40.15" width="1.52" height="1.52" fill="#ef5454"/>
    <rect x="44.69" y="38.63" width="1.52" height="1.51" fill="#fff"/>
    <rect x="44.69" y="9.85" width="1.52" height="1.52" fill="#fff"/>
    <rect x="44.69" y="8.34" width="1.52" height="1.51" fill="#aa0707"/>
    <rect x="44.69" y="6.82" width="1.52" height="1.52" fill="#ef5454"/>
    <rect x="44.69" y="5.31" width="1.52" height="1.51" fill="#fff"/>
    <rect x="43.18" y="44.69" width="1.51" height="1.51" fill="#fff"/>
    <rect x="43.18" y="43.18" width="1.51" height="1.52" fill="#aa0707"/>
    <rect x="43.18" y="41.66" width="1.51" height="1.51" fill="#cc1d1d"/>
    <rect x="43.18" y="40.15" width="1.51" height="1.52" fill="#cc1d1d"/>
    <rect x="43.18" y="38.63" width="1.51" height="1.51" fill="#ef5454"/>
    <rect x="43.18" y="37.12" width="1.51" height="1.52" fill="#fff"/>
    <rect x="43.18" y="11.37" width="1.51" height="1.51" fill="#fff"/>
    <rect x="43.18" y="9.85" width="1.51" height="1.52" fill="#aa0707"/>
    <rect x="43.18" y="8.34" width="1.51" height="1.51" fill="#cc1d1d"/>
    <rect x="43.18" y="6.82" width="1.51" height="1.52" fill="#cc1d1d"/>
    <rect x="43.18" y="5.31" width="1.51" height="1.51" fill="#ef5454"/>
    <rect x="43.18" y="3.79" width="1.51" height="1.52" fill="#fff"/>
    <rect x="41.66" y="46.2" width="1.52" height="1.52" fill="#fff"/>
    <rect x="41.66" y="44.69" width="1.52" height="1.51" fill="#aa0707"/>
    <rect x="41.66" y="43.18" width="1.52" height="1.52" fill="#cc1d1d"/>
    <rect x="41.66" y="41.66" width="1.52" height="1.51" fill="#cc1d1d"/>
    <rect x="41.66" y="40.15" width="1.52" height="1.52" fill="#cc1d1d"/>
    <rect x="41.66" y="38.63" width="1.52" height="1.51" fill="#cc1d1d"/>
    <rect x="41.66" y="37.12" width="1.52" height="1.52" fill="#ef5454"/>
    <rect x="41.66" y="35.6" width="1.52" height="1.51" fill="#fff"/>
    <rect x="41.66" y="12.88" width="1.52" height="1.52" fill="#fff"/>
    <rect x="41.66" y="11.37" width="1.52" height="1.51" fill="#aa0707"/>
    <rect x="41.66" y="9.85" width="1.52" height="1.52" fill="#cc1d1d"/>
    <rect x="41.66" y="8.34" width="1.52" height="1.51" fill="#cc1d1d"/>
    <rect x="41.66" y="6.82" width="1.52" height="1.52" fill="#cc1d1d"/>
    <rect x="41.66" y="5.31" width="1.52" height="1.51" fill="#cc1d1d"/>
    <rect x="41.66" y="3.79" width="1.52" height="1.52" fill="#ef5454"/>
    <rect x="41.66" y="2.28" width="1.52" height="1.51" fill="#fff"/>
    <rect x="40.15" y="46.2" width="1.51" height="1.52" fill="#fff"/>
    <rect x="40.15" y="44.69" width="1.51" height="1.51" fill="#aa0707"/>
    <rect x="40.15" y="43.18" width="1.51" height="1.52" fill="#cc1d1d"/>
    <rect x="40.15" y="41.66" width="1.51" height="1.51" fill="#cc1d1d"/>
    <rect x="40.15" y="40.15" width="1.51" height="1.52" fill="#cc1d1d"/>
    <rect x="40.15" y="38.63" width="1.51" height="1.51" fill="#cc1d1d"/>
    <rect x="40.15" y="37.12" width="1.51" height="1.52" fill="#cc1d1d"/>
    <rect x="40.15" y="35.6" width="1.51" height="1.51" fill="#ef5454"/>
    <rect x="40.15" y="34.09" width="1.51" height="1.51" fill="#fff"/>
    <rect x="40.15" y="14.4" width="1.51" height="1.51" fill="#fff"/>
    <rect x="40.15" y="12.88" width="1.51" height="1.52" fill="#aa0707"/>
    <rect x="40.15" y="11.37" width="1.51" height="1.51" fill="#cc1d1d"/>
    <rect x="40.15" y="9.85" width="1.51" height="1.52" fill="#cc1d1d"/>
    <rect x="40.15" y="8.34" width="1.51" height="1.51" fill="#cc1d1d"/>
    <rect x="40.15" y="6.82" width="1.51" height="1.52" fill="#cc1d1d"/>
    <rect x="40.15" y="5.31" width="1.51" height="1.51" fill="#cc1d1d"/>
    <rect x="40.15" y="3.79" width="1.51" height="1.52" fill="#ef5454"/>
    <rect x="40.15" y="2.28" width="1.51" height="1.51" fill="#fff"/>
    <rect x="38.63" y="44.69" width="1.52" height="1.51" fill="#fff"/>
    <rect x="38.63" y="43.18" width="1.52" height="1.52" fill="#aa0707"/>
    <rect x="38.63" y="41.66" width="1.52" height="1.51" fill="#cc1d1d"/>
    <rect x="38.63" y="40.15" width="1.52" height="1.52" fill="#cc1d1d"/>
    <rect x="38.63" y="38.63" width="1.52" height="1.51" fill="#cc1d1d"/>
    <rect x="38.63" y="37.12" width="1.52" height="1.52" fill="#cc1d1d"/>
    <rect x="38.63" y="35.6" width="1.52" height="1.51" fill="#cc1d1d"/>
    <rect x="38.63" y="34.09" width="1.52" height="1.51" fill="#ef5454"/>
    <rect x="38.63" y="32.57" width="1.52" height="1.52" fill="#fff"/>
    <rect x="38.63" y="15.91" width="1.52" height="1.52" fill="#fff"/>
    <rect x="38.63" y="14.4" width="1.52" height="1.51" fill="#aa0707"/>
    <rect x="38.63" y="12.88" width="1.52" height="1.52" fill="#cc1d1d"/>
    <rect x="38.63" y="11.37" width="1.52" height="1.51" fill="#cc1d1d"/>
    <rect x="38.63" y="9.85" width="1.52" height="1.52" fill="#cc1d1d"/>
    <rect x="38.63" y="8.34" width="1.52" height="1.51" fill="#cc1d1d"/>
    <rect x="38.63" y="6.82" width="1.52" height="1.52" fill="#cc1d1d"/>
    <rect x="38.63" y="5.31" width="1.52" height="1.51" fill="#ef5454"/>
    <rect x="38.63" y="3.79" width="1.52" height="1.52" fill="#fff"/>
    <rect x="37.12" y="43.18" width="1.51" height="1.52" fill="#fff"/>
    <rect x="37.12" y="41.66" width="1.51" height="1.51" fill="#aa0707"/>
    <rect x="37.12" y="40.15" width="1.51" height="1.52" fill="#cc1d1d"/>
    <rect x="37.12" y="38.63" width="1.51" height="1.51" fill="#cc1d1d"/>
    <rect x="37.12" y="37.12" width="1.51" height="1.52" fill="#cc1d1d"/>
    <rect x="37.12" y="35.6" width="1.51" height="1.51" fill="#cc1d1d"/>
    <rect x="37.12" y="34.09" width="1.51" height="1.51" fill="#cc1d1d"/>
    <rect x="37.12" y="32.57" width="1.51" height="1.52" fill="#ef5454"/>
    <rect x="37.12" y="31.06" width="1.51" height="1.51" fill="#fff"/>
    <rect x="37.12" y="17.43" width="1.51" height="1.51" fill="#fff"/>
    <rect x="37.12" y="15.91" width="1.51" height="1.52" fill="#aa0707"/>
    <rect x="37.12" y="14.4" width="1.51" height="1.51" fill="#cc1d1d"/>
    <rect x="37.12" y="12.88" width="1.51" height="1.52" fill="#cc1d1d"/>
    <rect x="37.12" y="11.37" width="1.51" height="1.51" fill="#cc1d1d"/>
    <rect x="37.12" y="9.85" width="1.51" height="1.52" fill="#cc1d1d"/>
    <rect x="37.12" y="8.34" width="1.51" height="1.51" fill="#cc1d1d"/>
    <rect x="37.12" y="6.82" width="1.51" height="1.52" fill="#ef5454"/>
    <rect x="37.12" y="5.31" width="1.51" height="1.51" fill="#fff"/>
    <rect x="35.6" y="41.66" width="1.52" height="1.51" fill="#fff"/>
    <rect x="35.6" y="40.15" width="1.52" height="1.52" fill="#aa0707"/>
    <rect x="35.6" y="38.63" width="1.52" height="1.51" fill="#cc1d1d"/>
    <rect x="35.6" y="37.12" width="1.52" height="1.52" fill="#cc1d1d"/>
    <rect x="35.6" y="35.6" width="1.52" height="1.51" fill="#cc1d1d"/>
    <rect x="35.6" y="34.09" width="1.52" height="1.51" fill="#cc1d1d"/>
    <rect x="35.6" y="32.57" width="1.52" height="1.52" fill="#cc1d1d"/>
    <rect x="35.6" y="31.06" width="1.52" height="1.51" fill="#ef5454"/>
    <rect x="35.6" y="29.54" width="1.52" height="1.52" fill="#fff"/>
    <rect x="35.6" y="18.94" width="1.52" height="1.51" fill="#fff"/>
    <rect x="35.6" y="17.43" width="1.52" height="1.51" fill="#aa0707"/>
    <rect x="35.6" y="15.91" width="1.52" height="1.52" fill="#cc1d1d"/>
    <rect x="35.6" y="14.4" width="1.52" height="1.51" fill="#cc1d1d"/>
    <rect x="35.6" y="12.88" width="1.52" height="1.52" fill="#cc1d1d"/>
    <rect x="35.6" y="11.37" width="1.52" height="1.51" fill="#cc1d1d"/>
    <rect x="35.6" y="9.85" width="1.52" height="1.52" fill="#cc1d1d"/>
    <rect x="35.6" y="8.34" width="1.52" height="1.51" fill="#ef5454"/>
    <rect x="35.6" y="6.82" width="1.52" height="1.52" fill="#fff"/>
    <rect x="34.09" y="40.15" width="1.51" height="1.52" fill="#fff"/>
    <rect x="34.09" y="38.63" width="1.51" height="1.51" fill="#aa0707"/>
    <rect x="34.09" y="37.12" width="1.51" height="1.52" fill="#cc1d1d"/>
    <rect x="34.09" y="35.6" width="1.51" height="1.51" fill="#cc1d1d"/>
    <rect x="34.09" y="34.09" width="1.51" height="1.51" fill="#cc1d1d"/>
    <rect x="34.09" y="32.57" width="1.51" height="1.52" fill="#cc1d1d"/>
    <rect x="34.09" y="31.06" width="1.51" height="1.51" fill="#cc1d1d"/>
    <rect x="34.09" y="29.54" width="1.51" height="1.52" fill="#ef5454"/>
    <rect x="34.09" y="28.03" width="1.51" height="1.51" fill="#fff"/>
    <rect x="34.09" y="20.46" width="1.51" height="1.52" fill="#fff"/>
    <rect x="34.09" y="18.94" width="1.51" height="1.51" fill="#aa0707"/>
    <rect x="34.09" y="17.43" width="1.51" height="1.51" fill="#cc1d1d"/>
    <rect x="34.09" y="15.91" width="1.51" height="1.52" fill="#cc1d1d"/>
    <rect x="34.09" y="14.4" width="1.51" height="1.51" fill="#cc1d1d"/>
    <rect x="34.09" y="12.88" width="1.51" height="1.52" fill="#cc1d1d"/>
    <rect x="34.09" y="11.37" width="1.51" height="1.51" fill="#cc1d1d"/>
    <rect x="34.09" y="9.85" width="1.51" height="1.52" fill="#ef5454"/>
    <rect x="34.09" y="8.34" width="1.51" height="1.51" fill="#fff"/>
    <rect x="32.57" y="38.63" width="1.51" height="1.51" fill="#fff"/>
    <rect x="32.57" y="37.12" width="1.51" height="1.52" fill="#aa0707"/>
    <rect x="32.57" y="35.6" width="1.51" height="1.51" fill="#cc1d1d"/>
    <rect x="32.57" y="34.09" width="1.51" height="1.51" fill="#cc1d1d"/>
    <rect x="32.57" y="32.57" width="1.51" height="1.52" fill="#cc1d1d"/>
    <rect x="32.57" y="31.06" width="1.51" height="1.51" fill="#cc1d1d"/>
    <rect x="32.57" y="29.54" width="1.51" height="1.52" fill="#cc1d1d"/>
    <rect x="32.57" y="28.03" width="1.51" height="1.51" fill="#ef5454"/>
    <rect x="32.57" y="26.51" width="1.51" height="1.52" fill="#fff"/>
    <rect x="32.57" y="21.97" width="1.51" height="1.51" fill="#fff"/>
    <rect x="32.57" y="20.46" width="1.51" height="1.52" fill="#aa0707"/>
    <rect x="32.57" y="18.94" width="1.51" height="1.51" fill="#cc1d1d"/>
    <rect x="32.57" y="17.43" width="1.51" height="1.51" fill="#cc1d1d"/>
    <rect x="32.57" y="15.91" width="1.51" height="1.52" fill="#cc1d1d"/>
    <rect x="32.57" y="14.4" width="1.51" height="1.51" fill="#cc1d1d"/>
    <rect x="32.57" y="12.88" width="1.51" height="1.52" fill="#cc1d1d"/>
    <rect x="32.57" y="11.37" width="1.51" height="1.51" fill="#ef5454"/>
    <rect x="32.57" y="9.85" width="1.51" height="1.52" fill="#fff"/>
    <rect x="31.06" y="37.12" width="1.52" height="1.52" fill="#fff"/>
    <rect x="31.06" y="35.6" width="1.52" height="1.51" fill="#aa0707"/>
    <rect x="31.06" y="34.09" width="1.52" height="1.51" fill="#cc1d1d"/>
    <rect x="31.06" y="32.57" width="1.52" height="1.52" fill="#cc1d1d"/>
    <rect x="31.06" y="31.06" width="1.52" height="1.51" fill="#cc1d1d"/>
    <rect x="31.06" y="29.54" width="1.52" height="1.52" fill="#cc1d1d"/>
    <rect x="31.06" y="28.03" width="1.52" height="1.51" fill="#cc1d1d"/>
    <rect x="31.06" y="26.51" width="1.52" height="1.52" fill="#ef5454"/>
    <rect x="31.06" y="25" width="1.52" height="1.51" fill="#fff"/>
    <rect x="31.06" y="23.48" width="1.52" height="1.52" fill="#fff"/>
    <rect x="31.06" y="21.97" width="1.52" height="1.51" fill="#aa0707"/>
    <rect x="31.06" y="20.46" width="1.52" height="1.52" fill="#cc1d1d"/>
    <rect x="31.06" y="18.94" width="1.52" height="1.51" fill="#cc1d1d"/>
    <rect x="31.06" y="17.43" width="1.52" height="1.51" fill="#cc1d1d"/>
    <rect x="31.06" y="15.91" width="1.52" height="1.52" fill="#cc1d1d"/>
    <rect x="31.06" y="14.4" width="1.52" height="1.51" fill="#cc1d1d"/>
    <rect x="31.06" y="12.88" width="1.52" height="1.52" fill="#ef5454"/>
    <rect x="31.06" y="11.37" width="1.52" height="1.51" fill="#fff"/>
    <rect x="29.54" y="35.6" width="1.51" height="1.51" fill="#fff"/>
    <rect x="29.54" y="34.09" width="1.51" height="1.51" fill="#aa0707"/>
    <rect x="29.54" y="32.57" width="1.51" height="1.52" fill="#cc1d1d"/>
    <rect x="29.54" y="31.06" width="1.51" height="1.51" fill="#cc1d1d"/>
    <rect x="29.54" y="29.54" width="1.51" height="1.52" fill="#cc1d1d"/>
    <rect x="29.54" y="28.03" width="1.51" height="1.51" fill="#cc1d1d"/>
    <rect x="29.54" y="26.51" width="1.51" height="1.52" fill="#cc1d1d"/>
    <rect x="29.54" y="25" width="1.51" height="1.51" fill="#aa0707"/>
    <rect x="29.54" y="23.48" width="1.51" height="1.52" fill="#aa0707"/>
    <rect x="29.54" y="21.97" width="1.51" height="1.51" fill="#cc1d1d"/>
    <rect x="29.54" y="20.46" width="1.51" height="1.52" fill="#cc1d1d"/>
    <rect x="29.54" y="18.94" width="1.51" height="1.51" fill="#cc1d1d"/>
    <rect x="29.54" y="17.43" width="1.51" height="1.51" fill="#cc1d1d"/>
    <rect x="29.54" y="15.91" width="1.51" height="1.52" fill="#cc1d1d"/>
    <rect x="29.54" y="14.4" width="1.51" height="1.51" fill="#ef5454"/>
    <rect x="29.54" y="12.88" width="1.51" height="1.52" fill="#fff"/>
    <rect x="28.03" y="34.09" width="1.52" height="1.51" fill="#fff"/>
    <rect x="28.03" y="32.57" width="1.52" height="1.52" fill="#aa0707"/>
    <rect x="28.03" y="31.06" width="1.52" height="1.51" fill="#cc1d1d"/>
    <rect x="28.03" y="29.54" width="1.52" height="1.52" fill="#cc1d1d"/>
    <rect x="28.03" y="28.03" width="1.52" height="1.51" fill="#cc1d1d"/>
    <rect x="28.03" y="26.51" width="1.52" height="1.52" fill="#cc1d1d"/>
    <rect x="28.03" y="25" width="1.52" height="1.51" fill="#cc1d1d"/>
    <rect x="28.03" y="23.48" width="1.52" height="1.52" fill="#cc1d1d"/>
    <rect x="28.03" y="21.97" width="1.52" height="1.51" fill="#cc1d1d"/>
    <rect x="28.03" y="20.46" width="1.52" height="1.52" fill="#cc1d1d"/>
    <rect x="28.03" y="18.94" width="1.52" height="1.51" fill="#cc1d1d"/>
    <rect x="28.03" y="17.43" width="1.52" height="1.51" fill="#cc1d1d"/>
    <rect x="28.03" y="15.91" width="1.52" height="1.52" fill="#ef5454"/>
    <rect x="28.03" y="14.4" width="1.52" height="1.51" fill="#fff"/>
    <rect x="26.51" y="32.57" width="1.51" height="1.52" fill="#fff"/>
    <rect x="26.51" y="31.06" width="1.51" height="1.51" fill="#aa0707"/>
    <rect x="26.51" y="29.54" width="1.51" height="1.52" fill="#cc1d1d"/>
    <rect x="26.51" y="28.03" width="1.51" height="1.51" fill="#cc1d1d"/>
    <rect x="26.51" y="26.51" width="1.51" height="1.52" fill="#cc1d1d"/>
    <rect x="26.51" y="25" width="1.51" height="1.51" fill="#cc1d1d"/>
    <rect x="26.51" y="23.48" width="1.51" height="1.52" fill="#cc1d1d"/>
    <rect x="26.51" y="21.97" width="1.51" height="1.51" fill="#cc1d1d"/>
    <rect x="26.51" y="20.46" width="1.51" height="1.52" fill="#cc1d1d"/>
    <rect x="26.51" y="18.94" width="1.51" height="1.51" fill="#cc1d1d"/>
    <rect x="26.51" y="17.43" width="1.51" height="1.51" fill="#ef5454"/>
    <rect x="26.51" y="15.91" width="1.51" height="1.52" fill="#fff"/>
    <rect x="25" y="31.06" width="1.52" height="1.51" fill="#fff"/>
    <rect x="25" y="29.54" width="1.52" height="1.52" fill="#aa0707"/>
    <rect x="25" y="28.03" width="1.52" height="1.51" fill="#cc1d1d"/>
    <rect x="25" y="26.51" width="1.52" height="1.52" fill="#cc1d1d"/>
    <rect x="25" y="25" width="1.52" height="1.51" fill="#cc1d1d"/>
    <rect x="25" y="23.48" width="1.52" height="1.52" fill="#cc1d1d"/>
    <rect x="25" y="21.97" width="1.52" height="1.51" fill="#cc1d1d"/>
    <rect x="25" y="20.46" width="1.52" height="1.52" fill="#cc1d1d"/>
    <rect x="25" y="18.94" width="1.52" height="1.51" fill="#ef5454"/>
    <rect x="25" y="17.43" width="1.52" height="1.51" fill="#fff"/>
    <rect x="23.49" y="31.06" width="1.51" height="1.51" fill="#fff"/>
    <rect x="23.49" y="29.54" width="1.51" height="1.52" fill="#aa0707"/>
    <rect x="23.49" y="28.03" width="1.51" height="1.51" fill="#cc1d1d"/>
    <rect x="23.49" y="26.51" width="1.51" height="1.52" fill="#cc1d1d"/>
    <rect x="23.49" y="25" width="1.51" height="1.51" fill="#cc1d1d"/>
    <rect x="23.49" y="23.48" width="1.51" height="1.52" fill="#cc1d1d"/>
    <rect x="23.49" y="21.97" width="1.51" height="1.51" fill="#cc1d1d"/>
    <rect x="23.49" y="20.46" width="1.51" height="1.52" fill="#cc1d1d"/>
    <rect x="23.49" y="18.94" width="1.51" height="1.51" fill="#ef5454"/>
    <rect x="23.49" y="17.43" width="1.51" height="1.51" fill="#fff"/>
    <rect x="21.97" y="32.57" width="1.52" height="1.52" fill="#fff"/>
    <rect x="21.97" y="31.06" width="1.52" height="1.51" fill="#aa0707"/>
    <rect x="21.97" y="29.54" width="1.52" height="1.52" fill="#cc1d1d"/>
    <rect x="21.97" y="28.03" width="1.52" height="1.51" fill="#cc1d1d"/>
    <rect x="21.97" y="26.51" width="1.52" height="1.52" fill="#cc1d1d"/>
    <rect x="21.97" y="25" width="1.52" height="1.51" fill="#cc1d1d"/>
    <rect x="21.97" y="23.48" width="1.52" height="1.52" fill="#cc1d1d"/>
    <rect x="21.97" y="21.97" width="1.52" height="1.51" fill="#cc1d1d"/>
    <rect x="21.97" y="20.46" width="1.52" height="1.52" fill="#cc1d1d"/>
    <rect x="21.97" y="18.94" width="1.52" height="1.51" fill="#cc1d1d"/>
    <rect x="21.97" y="17.43" width="1.52" height="1.51" fill="#ef5454"/>
    <rect x="21.97" y="15.91" width="1.52" height="1.52" fill="#fff"/>
    <rect x="20.46" y="34.09" width="1.51" height="1.51" fill="#fff"/>
    <rect x="20.46" y="32.57" width="1.51" height="1.52" fill="#aa0707"/>
    <rect x="20.46" y="31.06" width="1.51" height="1.51" fill="#cc1d1d"/>
    <rect x="20.46" y="29.54" width="1.51" height="1.52" fill="#cc1d1d"/>
    <rect x="20.46" y="28.03" width="1.51" height="1.51" fill="#cc1d1d"/>
    <rect x="20.46" y="26.51" width="1.51" height="1.52" fill="#cc1d1d"/>
    <rect x="20.46" y="25" width="1.51" height="1.51" fill="#cc1d1d"/>
    <rect x="20.46" y="23.48" width="1.51" height="1.52" fill="#cc1d1d"/>
    <rect x="20.46" y="21.97" width="1.51" height="1.51" fill="#cc1d1d"/>
    <rect x="20.46" y="20.46" width="1.51" height="1.52" fill="#cc1d1d"/>
    <rect x="20.46" y="18.94" width="1.51" height="1.51" fill="#cc1d1d"/>
    <rect x="20.46" y="17.43" width="1.51" height="1.51" fill="#cc1d1d"/>
    <rect x="20.46" y="15.91" width="1.51" height="1.52" fill="#ef5454"/>
    <rect x="20.46" y="14.4" width="1.51" height="1.51" fill="#fff"/>
    <rect x="18.94" y="35.6" width="1.52" height="1.51" fill="#fff"/>
    <rect x="18.94" y="34.09" width="1.52" height="1.51" fill="#aa0707"/>
    <rect x="18.94" y="32.57" width="1.52" height="1.52" fill="#cc1d1d"/>
    <rect x="18.94" y="31.06" width="1.52" height="1.51" fill="#cc1d1d"/>
    <rect x="18.94" y="29.54" width="1.52" height="1.52" fill="#cc1d1d"/>
    <rect x="18.94" y="28.03" width="1.52" height="1.51" fill="#cc1d1d"/>
    <rect x="18.94" y="26.51" width="1.52" height="1.52" fill="#cc1d1d"/>
    <rect x="18.94" y="25" width="1.52" height="1.51" fill="#aa0707"/>
    <rect x="18.94" y="23.48" width="1.52" height="1.52" fill="#aa0707"/>
    <rect x="18.94" y="21.97" width="1.52" height="1.51" fill="#cc1d1d"/>
    <rect x="18.94" y="20.46" width="1.52" height="1.52" fill="#cc1d1d"/>
    <rect x="18.94" y="18.94" width="1.52" height="1.51" fill="#cc1d1d"/>
    <rect x="18.94" y="17.43" width="1.52" height="1.51" fill="#cc1d1d"/>
    <rect x="18.94" y="15.91" width="1.52" height="1.52" fill="#cc1d1d"/>
    <rect x="18.94" y="14.4" width="1.52" height="1.51" fill="#ef5454"/>
    <rect x="18.94" y="12.88" width="1.52" height="1.52" fill="#fff"/>
    <rect x="17.43" y="37.12" width="1.51" height="1.52" fill="#fff"/>
    <rect x="17.43" y="35.6" width="1.51" height="1.51" fill="#aa0707"/>
    <rect x="17.43" y="34.09" width="1.51" height="1.51" fill="#cc1d1d"/>
    <rect x="17.43" y="32.57" width="1.51" height="1.52" fill="#cc1d1d"/>
    <rect x="17.43" y="31.06" width="1.51" height="1.51" fill="#cc1d1d"/>
    <rect x="17.43" y="29.54" width="1.51" height="1.52" fill="#cc1d1d"/>
    <rect x="17.43" y="28.03" width="1.51" height="1.51" fill="#cc1d1d"/>
    <rect x="17.43" y="26.51" width="1.51" height="1.52" fill="#ef5454"/>
    <rect x="17.43" y="25" width="1.51" height="1.51" fill="#fff"/>
    <rect x="17.43" y="23.48" width="1.51" height="1.52" fill="#fff"/>
    <rect x="17.43" y="21.97" width="1.51" height="1.51" fill="#aa0707"/>
    <rect x="17.43" y="20.46" width="1.51" height="1.52" fill="#cc1d1d"/>
    <rect x="17.43" y="18.94" width="1.51" height="1.51" fill="#cc1d1d"/>
    <rect x="17.43" y="17.43" width="1.51" height="1.51" fill="#cc1d1d"/>
    <rect x="17.43" y="15.91" width="1.51" height="1.52" fill="#cc1d1d"/>
    <rect x="17.43" y="14.4" width="1.51" height="1.51" fill="#cc1d1d"/>
    <rect x="17.43" y="12.88" width="1.51" height="1.52" fill="#ef5454"/>
    <rect x="17.43" y="11.37" width="1.51" height="1.51" fill="#fff"/>
    <rect x="15.91" y="38.63" width="1.52" height="1.51" fill="#fff"/>
    <rect x="15.91" y="37.12" width="1.52" height="1.52" fill="#aa0707"/>
    <rect x="15.91" y="35.6" width="1.52" height="1.51" fill="#cc1d1d"/>
    <rect x="15.91" y="34.09" width="1.52" height="1.51" fill="#cc1d1d"/>
    <rect x="15.91" y="32.57" width="1.52" height="1.52" fill="#cc1d1d"/>
    <rect x="15.91" y="31.06" width="1.52" height="1.51" fill="#cc1d1d"/>
    <rect x="15.91" y="29.54" width="1.52" height="1.52" fill="#cc1d1d"/>
    <rect x="15.91" y="28.03" width="1.52" height="1.51" fill="#ef5454"/>
    <rect x="15.91" y="26.51" width="1.52" height="1.52" fill="#fff"/>
    <rect x="15.91" y="21.97" width="1.52" height="1.51" fill="#fff"/>
    <rect x="15.91" y="20.46" width="1.52" height="1.52" fill="#aa0707"/>
    <rect x="15.91" y="18.94" width="1.52" height="1.51" fill="#cc1d1d"/>
    <rect x="15.91" y="17.43" width="1.52" height="1.51" fill="#cc1d1d"/>
    <rect x="15.91" y="15.91" width="1.52" height="1.52" fill="#cc1d1d"/>
    <rect x="15.91" y="14.4" width="1.52" height="1.51" fill="#cc1d1d"/>
    <rect x="15.91" y="12.88" width="1.52" height="1.52" fill="#cc1d1d"/>
    <rect x="15.91" y="11.37" width="1.52" height="1.51" fill="#ef5454"/>
    <rect x="15.91" y="9.85" width="1.52" height="1.52" fill="#fff"/>
    <rect x="14.4" y="40.15" width="1.51" height="1.52" fill="#fff"/>
    <rect x="14.4" y="38.63" width="1.51" height="1.51" fill="#aa0707"/>
    <rect x="14.4" y="37.12" width="1.51" height="1.52" fill="#cc1d1d"/>
    <rect x="14.4" y="35.6" width="1.51" height="1.51" fill="#cc1d1d"/>
    <rect x="14.4" y="34.09" width="1.51" height="1.51" fill="#cc1d1d"/>
    <rect x="14.4" y="32.57" width="1.51" height="1.52" fill="#cc1d1d"/>
    <rect x="14.4" y="31.06" width="1.51" height="1.51" fill="#cc1d1d"/>
    <rect x="14.4" y="29.54" width="1.51" height="1.52" fill="#ef5454"/>
    <rect x="14.4" y="28.03" width="1.51" height="1.51" fill="#fff"/>
    <rect x="14.4" y="20.46" width="1.51" height="1.52" fill="#fff"/>
    <rect x="14.4" y="18.94" width="1.51" height="1.51" fill="#aa0707"/>
    <rect x="14.4" y="17.43" width="1.51" height="1.51" fill="#cc1d1d"/>
    <rect x="14.4" y="15.91" width="1.51" height="1.52" fill="#cc1d1d"/>
    <rect x="14.4" y="14.4" width="1.51" height="1.51" fill="#cc1d1d"/>
    <rect x="14.4" y="12.88" width="1.51" height="1.52" fill="#cc1d1d"/>
    <rect x="14.4" y="11.37" width="1.51" height="1.51" fill="#cc1d1d"/>
    <rect x="14.4" y="9.85" width="1.51" height="1.52" fill="#ef5454"/>
    <rect x="14.4" y="8.34" width="1.51" height="1.51" fill="#fff"/>
    <rect x="12.88" y="41.66" width="1.51" height="1.51" fill="#fff"/>
    <rect x="12.88" y="40.15" width="1.51" height="1.52" fill="#aa0707"/>
    <rect x="12.88" y="38.63" width="1.51" height="1.51" fill="#cc1d1d"/>
    <rect x="12.88" y="37.12" width="1.51" height="1.52" fill="#cc1d1d"/>
    <rect x="12.88" y="35.6" width="1.51" height="1.51" fill="#cc1d1d"/>
    <rect x="12.88" y="34.09" width="1.51" height="1.51" fill="#cc1d1d"/>
    <rect x="12.88" y="32.57" width="1.51" height="1.52" fill="#cc1d1d"/>
    <rect x="12.88" y="31.06" width="1.51" height="1.51" fill="#ef5454"/>
    <rect x="12.88" y="29.54" width="1.51" height="1.52" fill="#fff"/>
    <rect x="12.88" y="18.94" width="1.51" height="1.51" fill="#fff"/>
    <rect x="12.88" y="17.43" width="1.51" height="1.51" fill="#aa0707"/>
    <rect x="12.88" y="15.91" width="1.51" height="1.52" fill="#cc1d1d"/>
    <rect x="12.88" y="14.4" width="1.51" height="1.51" fill="#cc1d1d"/>
    <rect x="12.88" y="12.88" width="1.51" height="1.52" fill="#cc1d1d"/>
    <rect x="12.88" y="11.37" width="1.51" height="1.51" fill="#cc1d1d"/>
    <rect x="12.88" y="9.85" width="1.51" height="1.52" fill="#cc1d1d"/>
    <rect x="12.88" y="8.34" width="1.51" height="1.51" fill="#ef5454"/>
    <rect x="12.88" y="6.82" width="1.51" height="1.52" fill="#fff"/>
    <rect x="11.37" y="43.18" width="1.52" height="1.52" fill="#fff"/>
    <rect x="11.37" y="41.66" width="1.52" height="1.51" fill="#aa0707"/>
    <rect x="11.37" y="40.15" width="1.52" height="1.52" fill="#cc1d1d"/>
    <rect x="11.37" y="38.63" width="1.52" height="1.51" fill="#cc1d1d"/>
    <rect x="11.37" y="37.12" width="1.52" height="1.52" fill="#cc1d1d"/>
    <rect x="11.37" y="35.6" width="1.52" height="1.51" fill="#cc1d1d"/>
    <rect x="11.37" y="34.09" width="1.52" height="1.51" fill="#cc1d1d"/>
    <rect x="11.37" y="32.57" width="1.52" height="1.52" fill="#ef5454"/>
    <rect x="11.37" y="31.06" width="1.52" height="1.51" fill="#fff"/>
    <rect x="11.37" y="17.43" width="1.52" height="1.51" fill="#fff"/>
    <rect x="11.37" y="15.91" width="1.52" height="1.52" fill="#aa0707"/>
    <rect x="11.37" y="14.4" width="1.52" height="1.51" fill="#cc1d1d"/>
    <rect x="11.37" y="12.88" width="1.52" height="1.52" fill="#cc1d1d"/>
    <rect x="11.37" y="11.37" width="1.52" height="1.51" fill="#cc1d1d"/>
    <rect x="11.37" y="9.85" width="1.52" height="1.52" fill="#cc1d1d"/>
    <rect x="11.37" y="8.34" width="1.52" height="1.51" fill="#cc1d1d"/>
    <rect x="11.37" y="6.82" width="1.52" height="1.52" fill="#ef5454"/>
    <rect x="11.37" y="5.31" width="1.52" height="1.51" fill="#fff"/>
    <rect x="9.85" y="44.69" width="1.51" height="1.51" fill="#fff"/>
    <rect x="9.85" y="43.18" width="1.51" height="1.52" fill="#aa0707"/>
    <rect x="9.85" y="41.66" width="1.51" height="1.51" fill="#cc1d1d"/>
    <rect x="9.85" y="40.15" width="1.51" height="1.52" fill="#cc1d1d"/>
    <rect x="9.85" y="38.63" width="1.51" height="1.51" fill="#cc1d1d"/>
    <rect x="9.85" y="37.12" width="1.51" height="1.52" fill="#cc1d1d"/>
    <rect x="9.85" y="35.6" width="1.51" height="1.51" fill="#cc1d1d"/>
    <rect x="9.85" y="34.09" width="1.51" height="1.51" fill="#ef5454"/>
    <rect x="9.85" y="32.57" width="1.51" height="1.52" fill="#fff"/>
    <rect x="9.85" y="15.91" width="1.51" height="1.52" fill="#fff"/>
    <rect x="9.85" y="14.4" width="1.51" height="1.51" fill="#aa0707"/>
    <rect x="9.85" y="12.88" width="1.51" height="1.52" fill="#cc1d1d"/>
    <rect x="9.85" y="11.37" width="1.51" height="1.51" fill="#cc1d1d"/>
    <rect x="9.85" y="9.85" width="1.51" height="1.52" fill="#cc1d1d"/>
    <rect x="9.85" y="8.34" width="1.51" height="1.51" fill="#cc1d1d"/>
    <rect x="9.85" y="6.82" width="1.51" height="1.52" fill="#cc1d1d"/>
    <rect x="9.85" y="5.31" width="1.51" height="1.51" fill="#ef5454"/>
    <rect x="9.85" y="3.79" width="1.51" height="1.52" fill="#fff"/>
    <rect x="8.34" y="46.2" width="1.52" height="1.52" fill="#fff"/>
    <rect x="8.34" y="44.69" width="1.52" height="1.51" fill="#aa0707"/>
    <rect x="8.34" y="43.18" width="1.52" height="1.52" fill="#cc1d1d"/>
    <rect x="8.34" y="41.66" width="1.52" height="1.51" fill="#cc1d1d"/>
    <rect x="8.34" y="40.15" width="1.52" height="1.52" fill="#cc1d1d"/>
    <rect x="8.34" y="38.63" width="1.52" height="1.51" fill="#cc1d1d"/>
    <rect x="8.34" y="37.12" width="1.52" height="1.52" fill="#cc1d1d"/>
    <rect x="8.34" y="35.6" width="1.52" height="1.51" fill="#ef5454"/>
    <rect x="8.34" y="34.09" width="1.52" height="1.51" fill="#fff"/>
    <rect x="8.34" y="14.4" width="1.52" height="1.51" fill="#fff"/>
    <rect x="8.34" y="12.88" width="1.52" height="1.52" fill="#aa0707"/>
    <rect x="8.34" y="11.37" width="1.52" height="1.51" fill="#cc1d1d"/>
    <rect x="8.34" y="9.85" width="1.52" height="1.52" fill="#cc1d1d"/>
    <rect x="8.34" y="8.34" width="1.52" height="1.51" fill="#cc1d1d"/>
    <rect x="8.34" y="6.82" width="1.52" height="1.52" fill="#cc1d1d"/>
    <rect x="8.34" y="5.31" width="1.52" height="1.51" fill="#cc1d1d"/>
    <rect x="8.34" y="3.79" width="1.52" height="1.52" fill="#ef5454"/>
    <rect x="8.34" y="2.28" width="1.52" height="1.51" fill="#fff"/>
    <rect x="6.82" y="46.2" width="1.51" height="1.52" fill="#fff"/>
    <rect x="6.82" y="44.69" width="1.51" height="1.51" fill="#aa0707"/>
    <rect x="6.82" y="43.18" width="1.51" height="1.52" fill="#cc1d1d"/>
    <rect x="6.82" y="41.66" width="1.51" height="1.51" fill="#cc1d1d"/>
    <rect x="6.82" y="40.15" width="1.51" height="1.52" fill="#cc1d1d"/>
    <rect x="6.82" y="38.63" width="1.51" height="1.51" fill="#cc1d1d"/>
    <rect x="6.82" y="37.12" width="1.51" height="1.52" fill="#ef5454"/>
    <rect x="6.82" y="35.6" width="1.51" height="1.51" fill="#fff"/>
    <rect x="6.82" y="12.88" width="1.51" height="1.52" fill="#fff"/>
    <rect x="6.82" y="11.37" width="1.51" height="1.51" fill="#aa0707"/>
    <rect x="6.82" y="9.85" width="1.51" height="1.52" fill="#cc1d1d"/>
    <rect x="6.82" y="8.34" width="1.51" height="1.51" fill="#cc1d1d"/>
    <rect x="6.82" y="6.82" width="1.51" height="1.52" fill="#cc1d1d"/>
    <rect x="6.82" y="5.31" width="1.51" height="1.51" fill="#cc1d1d"/>
    <rect x="6.82" y="3.79" width="1.51" height="1.52" fill="#ef5454"/>
    <rect x="6.82" y="2.28" width="1.51" height="1.51" fill="#fff"/>
    <rect x="5.31" y="44.69" width="1.52" height="1.51" fill="#fff"/>
    <rect x="5.31" y="43.18" width="1.52" height="1.52" fill="#aa0707"/>
    <rect x="5.31" y="41.66" width="1.52" height="1.51" fill="#cc1d1d"/>
    <rect x="5.31" y="40.15" width="1.52" height="1.52" fill="#cc1d1d"/>
    <rect x="5.31" y="38.63" width="1.52" height="1.51" fill="#ef5454"/>
    <rect x="5.31" y="37.12" width="1.52" height="1.52" fill="#fff"/>
    <rect x="5.31" y="11.37" width="1.52" height="1.51" fill="#fff"/>
    <rect x="5.31" y="9.85" width="1.52" height="1.52" fill="#aa0707"/>
    <rect x="5.31" y="8.34" width="1.52" height="1.51" fill="#cc1d1d"/>
    <rect x="5.31" y="6.82" width="1.52" height="1.52" fill="#cc1d1d"/>
    <rect x="5.31" y="5.31" width="1.52" height="1.51" fill="#ef5454"/>
    <rect x="5.31" y="3.79" width="1.52" height="1.52" fill="#fff"/>
    <rect x="3.8" y="43.18" width="1.51" height="1.52" fill="#fff"/>
    <rect x="3.8" y="41.66" width="1.51" height="1.51" fill="#aa0707"/>
    <rect x="3.8" y="40.15" width="1.51" height="1.52" fill="#ef5454"/>
    <rect x="3.8" y="38.63" width="1.51" height="1.51" fill="#fff"/>
    <rect x="3.8" y="9.85" width="1.51" height="1.52" fill="#fff"/>
    <rect x="3.8" y="8.34" width="1.51" height="1.51" fill="#aa0707"/>
    <rect x="3.8" y="6.82" width="1.51" height="1.52" fill="#ef5454"/>
    <rect x="3.8" y="5.31" width="1.51" height="1.51" fill="#fff"/>
    <rect x="2.28" y="41.66" width="1.52" height="1.51" fill="#fff"/>
    <rect x="2.28" y="40.15" width="1.52" height="1.52" fill="#fff"/>
    <rect x="2.28" y="8.34" width="1.52" height="1.51" fill="#fff"/>
    <rect x="2.28" y="6.82" width="1.52" height="1.52" fill="#fff"/>
  </g>
</svg>
