<svg id="Capa_1" data-name="Capa 1" xmlns="http://www.w3.org/2000/svg" xmlns:xlink="http://www.w3.org/1999/xlink" width="50" height="50" viewBox="0 0 50 50">
  <defs>
    <clipPath id="clip-path">
      <polygon points="24.04 49.76 1.26 39.47 1.42 9.18 24.2 19.47 24.04 49.76" fill="none"/>
    </clipPath>
    <clipPath id="clip-path-2">
      <polygon points="24.2 19.47 1.42 9.18 25.96 0.24 48.75 10.53 24.2 19.47" fill="none"/>
    </clipPath>
    <clipPath id="clip-path-3">
      <polygon points="48.75 10.53 48.59 40.83 24.04 49.76 24.2 19.47 48.75 10.53" fill="none"/>
    </clipPath>
  </defs>
  <g id="Figment_lido">
    <g style="isolation: isolate">
      <g>
        <polygon points="24.04 49.76 1.26 39.47 1.42 9.18 24.2 19.47 24.04 49.76" fill="#243648"/>
        <g style="isolation: isolate">
          <g clip-path="url(#clip-path)">
            <g>
              <path d="M15.21,28.39a.65.65,0,0,0-.75.11c-.61.55-1.2,1.14-1.78,1.74-.25.26-.16.73.19,1.08l.65.65a7.18,7.18,0,0,1,1.41,1.91c.65,1.35.39,2.67-.55,2.77a1.81,1.81,0,0,1-.65,0,6.07,6.07,0,0,1-1.11-.38,11,11,0,0,1-2.28-1.45c-.68-.55-1.34-1.16-2-1.77,0,.07-.06.17-.09.27-.29,1-.57,2-.88,2.95a.57.57,0,0,0,.19.67,16.84,16.84,0,0,0,5.13,3.76,11,11,0,0,0,3.07.9,2.57,2.57,0,0,0,2.87-1.42,7.53,7.53,0,0,0,.56-4,10.63,10.63,0,0,0-.63-3.12,12.47,12.47,0,0,0-2.9-4.36,1.37,1.37,0,0,0-.42-.3" fill="#fff" opacity="0.8"/>
              <path d="M13.56,18a5.65,5.65,0,0,0-3.29-.57,2.93,2.93,0,0,0-2.4,2.37,10.3,10.3,0,0,0,2.31,8.88,2.15,2.15,0,0,0,.75.61,1,1,0,0,0,1.1-.15c.49-.45,1-.94,1.41-1.42s.24-.7-.19-1.17a12.5,12.5,0,0,1-1.18-1.39,3,3,0,0,1-.56-2.31,1,1,0,0,1,1.22-.89,4.37,4.37,0,0,1,1,.31,8.7,8.7,0,0,1,2,1.33c.57.48,1.12,1.06,1.72,1.63l1.1-3.53-.34-.36a18.33,18.33,0,0,0-3.25-2.61A12.2,12.2,0,0,0,13.56,18" fill="#f89367" opacity="0.8"/>
            </g>
          </g>
        </g>
      </g>
      <g>
        <polygon points="24.2 19.47 1.42 9.18 25.96 0.24 48.75 10.53 24.2 19.47" fill="#283b4f"/>
        <g style="isolation: isolate">
          <g clip-path="url(#clip-path-2)">
            <g>
              <path d="M26,8.35c-.32.11-.5.27-.52.46-.06.54-.07,1.07-.08,1.61,0,.23.43.33,1,.26.34,0,.67-.11,1-.15A13.61,13.61,0,0,1,30,10.37c1.54.09,2.35.7,1.68,1.26a2.89,2.89,0,0,1-.55.35,10.73,10.73,0,0,1-1.18.5,22.25,22.25,0,0,1-2.92.81c-.95.19-1.95.36-3,.55l.14.14c.52.5,1.05,1,1.55,1.5.15.15.3.17.66.12a33.87,33.87,0,0,0,7-1.63,19.18,19.18,0,0,0,3.12-1.44c1.08-.63,1.63-1.33,1.2-2.11a4.78,4.78,0,0,0-2.59-1.66,11.56,11.56,0,0,0-2.88-.71,21.52,21.52,0,0,0-5.63.17,2.44,2.44,0,0,0-.56.13" fill="#fff" opacity="0.8"/>
              <path d="M16.77,5.74a8.94,8.94,0,0,0-3,1.68c-.75.71-.91,1.44-.1,2.17,1.52,1.38,5,2.07,8.62,1.71a4.2,4.2,0,0,0,1.06-.22c.46-.17.73-.4.76-.68,0-.43,0-.85,0-1.28s-.34-.38-1-.29-1.32.17-2,.2a3.62,3.62,0,0,1-2.22-.47c-.49-.36-.27-.69.29-1a6.52,6.52,0,0,1,1-.45,16.84,16.84,0,0,1,2.57-.67c.83-.16,1.71-.28,2.62-.43L23.54,4.19,23,4.26a34.7,34.7,0,0,0-4.57,1c-.58.16-1.13.34-1.65.52" fill="#f89367" opacity="0.8"/>
            </g>
          </g>
        </g>
      </g>
      <g>
        <polygon points="48.75 10.53 48.59 40.83 24.04 49.76 24.2 19.47 48.75 10.53" fill="#283c51"/>
        <g style="isolation: isolate">
          <g clip-path="url(#clip-path-3)">
            <g>
              <path d="M38.89,27.93a1.55,1.55,0,0,0-.74.67c-.6.95-1.19,1.93-1.76,2.91-.25.43-.16.77.19.82s.43.05.64.09a2.28,2.28,0,0,1,1.4.62,2.16,2.16,0,0,1-.55,2.89,3.74,3.74,0,0,1-.63.46,8.17,8.17,0,0,1-1.1.5,7.75,7.75,0,0,1-2.26.45c-.67,0-1.32,0-2,0,0,.08-.06.2-.09.31-.28,1.1-.56,2.2-.86,3.3-.09.32-.05.42.18.46a10.15,10.15,0,0,0,5.07-.56,14.32,14.32,0,0,0,3-1.55,7.15,7.15,0,0,0,2.84-3.45,8.38,8.38,0,0,0,.54-3.95,5,5,0,0,0-.62-2.32,3.76,3.76,0,0,0-2.87-1.67.82.82,0,0,0-.41.05" fill="#fff" opacity="0.8"/>
              <path d="M37.25,19.89a9.52,9.52,0,0,0-3.24,2,7.84,7.84,0,0,0-2.38,3.95c-.75,3.06.18,5.57,2.28,6.17a1.2,1.2,0,0,0,.75,0,2.28,2.28,0,0,0,1.09-1c.48-.77.93-1.56,1.39-2.34.32-.55.24-.81-.19-.89a4.46,4.46,0,0,1-1.16-.35c-.5-.26-.7-.83-.56-1.64a2.42,2.42,0,0,1,1.21-1.72,4.92,4.92,0,0,1,1-.48,5.61,5.61,0,0,1,1.95-.32,16.92,16.92,0,0,1,1.7.14c.36-1.31.71-2.62,1.09-4l-.34-.06a9.22,9.22,0,0,0-3.21.15,11.05,11.05,0,0,0-1.36.39" fill="#f89367" opacity="0.8"/>
            </g>
          </g>
        </g>
      </g>
    </g>
  </g>
  <g>
    <rect x="46.2" y="41.66" width="1.52" height="1.51" fill="#fff"/>
    <rect x="46.2" y="40.15" width="1.52" height="1.52" fill="#fff"/>
    <rect x="46.2" y="8.34" width="1.52" height="1.51" fill="#fff"/>
    <rect x="46.2" y="6.82" width="1.52" height="1.52" fill="#fff"/>
    <rect x="44.69" y="43.18" width="1.51" height="1.52" fill="#fff"/>
    <rect x="44.69" y="41.66" width="1.51" height="1.51" fill="#ef5454"/>
    <rect x="44.69" y="40.15" width="1.51" height="1.52" fill="#ef5454"/>
    <rect x="44.69" y="38.63" width="1.51" height="1.51" fill="#fff"/>
    <rect x="44.69" y="9.85" width="1.51" height="1.52" fill="#fff"/>
    <rect x="44.69" y="8.34" width="1.51" height="1.51" fill="#aa0707"/>
    <rect x="44.69" y="6.82" width="1.51" height="1.52" fill="#ef5454"/>
    <rect x="44.69" y="5.31" width="1.51" height="1.51" fill="#fff"/>
    <rect x="43.18" y="44.69" width="1.51" height="1.51" fill="#fff"/>
    <rect x="43.18" y="43.18" width="1.51" height="1.52" fill="#aa0707"/>
    <rect x="43.18" y="41.66" width="1.51" height="1.51" fill="#cc1d1d"/>
    <rect x="43.18" y="40.15" width="1.51" height="1.52" fill="#cc1d1d"/>
    <rect x="43.18" y="38.63" width="1.51" height="1.51" fill="#ef5454"/>
    <rect x="43.18" y="37.12" width="1.51" height="1.52" fill="#fff"/>
    <rect x="43.18" y="11.37" width="1.51" height="1.51" fill="#fff"/>
    <rect x="43.18" y="9.85" width="1.51" height="1.52" fill="#aa0707"/>
    <rect x="43.18" y="8.34" width="1.51" height="1.51" fill="#cc1d1d"/>
    <rect x="43.18" y="6.82" width="1.51" height="1.52" fill="#cc1d1d"/>
    <rect x="43.18" y="5.31" width="1.51" height="1.51" fill="#ef5454"/>
    <rect x="43.18" y="3.79" width="1.51" height="1.52" fill="#fff"/>
    <rect x="41.66" y="46.2" width="1.52" height="1.52" fill="#fff"/>
    <rect x="41.66" y="44.69" width="1.52" height="1.51" fill="#aa0707"/>
    <rect x="41.66" y="43.18" width="1.52" height="1.52" fill="#cc1d1d"/>
    <rect x="41.66" y="41.66" width="1.52" height="1.51" fill="#cc1d1d"/>
    <rect x="41.66" y="40.15" width="1.52" height="1.52" fill="#cc1d1d"/>
    <rect x="41.66" y="38.63" width="1.52" height="1.51" fill="#cc1d1d"/>
    <rect x="41.66" y="37.12" width="1.52" height="1.52" fill="#ef5454"/>
    <rect x="41.66" y="35.6" width="1.52" height="1.51" fill="#fff"/>
    <rect x="41.66" y="12.88" width="1.52" height="1.51" fill="#fff"/>
    <rect x="41.66" y="11.37" width="1.52" height="1.51" fill="#aa0707"/>
    <rect x="41.66" y="9.85" width="1.52" height="1.52" fill="#cc1d1d"/>
    <rect x="41.66" y="8.34" width="1.52" height="1.51" fill="#cc1d1d"/>
    <rect x="41.66" y="6.82" width="1.52" height="1.52" fill="#cc1d1d"/>
    <rect x="41.66" y="5.31" width="1.52" height="1.51" fill="#cc1d1d"/>
    <rect x="41.66" y="3.79" width="1.52" height="1.52" fill="#ef5454"/>
    <rect x="41.66" y="2.28" width="1.52" height="1.51" fill="#fff"/>
    <rect x="40.15" y="46.2" width="1.51" height="1.52" fill="#fff"/>
    <rect x="40.15" y="44.69" width="1.51" height="1.51" fill="#aa0707"/>
    <rect x="40.15" y="43.18" width="1.51" height="1.52" fill="#cc1d1d"/>
    <rect x="40.15" y="41.66" width="1.51" height="1.51" fill="#cc1d1d"/>
    <rect x="40.15" y="40.15" width="1.51" height="1.52" fill="#cc1d1d"/>
    <rect x="40.15" y="38.63" width="1.51" height="1.51" fill="#cc1d1d"/>
    <rect x="40.15" y="37.12" width="1.51" height="1.52" fill="#cc1d1d"/>
    <rect x="40.15" y="35.6" width="1.51" height="1.51" fill="#ef5454"/>
    <rect x="40.15" y="34.09" width="1.51" height="1.52" fill="#fff"/>
    <rect x="40.15" y="14.4" width="1.51" height="1.52" fill="#fff"/>
    <rect x="40.15" y="12.88" width="1.51" height="1.51" fill="#aa0707"/>
    <rect x="40.15" y="11.37" width="1.51" height="1.51" fill="#cc1d1d"/>
    <rect x="40.15" y="9.85" width="1.51" height="1.52" fill="#cc1d1d"/>
    <rect x="40.15" y="8.34" width="1.51" height="1.51" fill="#cc1d1d"/>
    <rect x="40.15" y="6.82" width="1.51" height="1.52" fill="#cc1d1d"/>
    <rect x="40.15" y="5.31" width="1.51" height="1.51" fill="#cc1d1d"/>
    <rect x="40.15" y="3.79" width="1.51" height="1.52" fill="#ef5454"/>
    <rect x="40.15" y="2.28" width="1.51" height="1.51" fill="#fff"/>
    <rect x="38.63" y="44.69" width="1.52" height="1.51" fill="#fff"/>
    <rect x="38.63" y="43.18" width="1.52" height="1.52" fill="#aa0707"/>
    <rect x="38.63" y="41.66" width="1.52" height="1.51" fill="#cc1d1d"/>
    <rect x="38.63" y="40.15" width="1.52" height="1.52" fill="#cc1d1d"/>
    <rect x="38.63" y="38.63" width="1.52" height="1.51" fill="#cc1d1d"/>
    <rect x="38.63" y="37.12" width="1.52" height="1.52" fill="#cc1d1d"/>
    <rect x="38.63" y="35.6" width="1.52" height="1.51" fill="#cc1d1d"/>
    <rect x="38.63" y="34.09" width="1.52" height="1.52" fill="#ef5454"/>
    <rect x="38.63" y="32.57" width="1.52" height="1.51" fill="#fff"/>
    <rect x="38.63" y="15.91" width="1.52" height="1.51" fill="#fff"/>
    <rect x="38.63" y="14.4" width="1.52" height="1.52" fill="#aa0707"/>
    <rect x="38.63" y="12.88" width="1.52" height="1.51" fill="#cc1d1d"/>
    <rect x="38.63" y="11.37" width="1.52" height="1.51" fill="#cc1d1d"/>
    <rect x="38.63" y="9.85" width="1.52" height="1.52" fill="#cc1d1d"/>
    <rect x="38.63" y="8.34" width="1.52" height="1.51" fill="#cc1d1d"/>
    <rect x="38.63" y="6.82" width="1.52" height="1.52" fill="#cc1d1d"/>
    <rect x="38.63" y="5.31" width="1.52" height="1.51" fill="#ef5454"/>
    <rect x="38.63" y="3.79" width="1.52" height="1.52" fill="#fff"/>
    <rect x="37.12" y="43.18" width="1.51" height="1.52" fill="#fff"/>
    <rect x="37.12" y="41.66" width="1.51" height="1.51" fill="#aa0707"/>
    <rect x="37.12" y="40.15" width="1.51" height="1.52" fill="#cc1d1d"/>
    <rect x="37.12" y="38.63" width="1.51" height="1.51" fill="#cc1d1d"/>
    <rect x="37.12" y="37.12" width="1.51" height="1.52" fill="#cc1d1d"/>
    <rect x="37.12" y="35.6" width="1.51" height="1.51" fill="#cc1d1d"/>
    <rect x="37.12" y="34.09" width="1.51" height="1.52" fill="#cc1d1d"/>
    <rect x="37.12" y="32.57" width="1.51" height="1.51" fill="#ef5454"/>
    <rect x="37.12" y="31.06" width="1.51" height="1.51" fill="#fff"/>
    <rect x="37.12" y="17.43" width="1.51" height="1.52" fill="#fff"/>
    <rect x="37.12" y="15.91" width="1.51" height="1.51" fill="#aa0707"/>
    <rect x="37.12" y="14.4" width="1.51" height="1.52" fill="#cc1d1d"/>
    <rect x="37.12" y="12.88" width="1.51" height="1.51" fill="#cc1d1d"/>
    <rect x="37.12" y="11.37" width="1.51" height="1.51" fill="#cc1d1d"/>
    <rect x="37.12" y="9.85" width="1.51" height="1.52" fill="#cc1d1d"/>
    <rect x="37.12" y="8.34" width="1.51" height="1.51" fill="#cc1d1d"/>
    <rect x="37.12" y="6.82" width="1.51" height="1.52" fill="#ef5454"/>
    <rect x="37.12" y="5.31" width="1.51" height="1.51" fill="#fff"/>
    <rect x="35.6" y="41.66" width="1.52" height="1.51" fill="#fff"/>
    <rect x="35.6" y="40.15" width="1.52" height="1.52" fill="#aa0707"/>
    <rect x="35.6" y="38.63" width="1.52" height="1.51" fill="#cc1d1d"/>
    <rect x="35.6" y="37.12" width="1.52" height="1.52" fill="#cc1d1d"/>
    <rect x="35.6" y="35.6" width="1.52" height="1.51" fill="#cc1d1d"/>
    <rect x="35.6" y="34.09" width="1.52" height="1.52" fill="#cc1d1d"/>
    <rect x="35.6" y="32.57" width="1.52" height="1.51" fill="#cc1d1d"/>
    <rect x="35.6" y="31.06" width="1.52" height="1.51" fill="#ef5454"/>
    <rect x="35.6" y="29.54" width="1.52" height="1.52" fill="#fff"/>
    <rect x="35.6" y="18.94" width="1.52" height="1.51" fill="#fff"/>
    <rect x="35.6" y="17.43" width="1.52" height="1.52" fill="#aa0707"/>
    <rect x="35.6" y="15.91" width="1.52" height="1.51" fill="#cc1d1d"/>
    <rect x="35.6" y="14.4" width="1.52" height="1.52" fill="#cc1d1d"/>
    <rect x="35.6" y="12.88" width="1.52" height="1.51" fill="#cc1d1d"/>
    <rect x="35.6" y="11.37" width="1.52" height="1.51" fill="#cc1d1d"/>
    <rect x="35.6" y="9.85" width="1.52" height="1.52" fill="#cc1d1d"/>
    <rect x="35.6" y="8.34" width="1.52" height="1.51" fill="#ef5454"/>
    <rect x="35.6" y="6.82" width="1.52" height="1.52" fill="#fff"/>
    <rect x="34.09" y="40.15" width="1.51" height="1.52" fill="#fff"/>
    <rect x="34.09" y="38.63" width="1.51" height="1.51" fill="#aa0707"/>
    <rect x="34.09" y="37.12" width="1.51" height="1.52" fill="#cc1d1d"/>
    <rect x="34.09" y="35.6" width="1.51" height="1.51" fill="#cc1d1d"/>
    <rect x="34.09" y="34.09" width="1.51" height="1.52" fill="#cc1d1d"/>
    <rect x="34.09" y="32.57" width="1.51" height="1.51" fill="#cc1d1d"/>
    <rect x="34.09" y="31.06" width="1.51" height="1.51" fill="#cc1d1d"/>
    <rect x="34.09" y="29.54" width="1.51" height="1.52" fill="#ef5454"/>
    <rect x="34.09" y="28.03" width="1.51" height="1.51" fill="#fff"/>
    <rect x="34.09" y="20.46" width="1.51" height="1.52" fill="#fff"/>
    <rect x="34.09" y="18.94" width="1.51" height="1.51" fill="#aa0707"/>
    <rect x="34.09" y="17.43" width="1.51" height="1.52" fill="#cc1d1d"/>
    <rect x="34.09" y="15.91" width="1.51" height="1.51" fill="#cc1d1d"/>
    <rect x="34.09" y="14.4" width="1.51" height="1.52" fill="#cc1d1d"/>
    <rect x="34.09" y="12.88" width="1.51" height="1.51" fill="#cc1d1d"/>
    <rect x="34.09" y="11.37" width="1.51" height="1.51" fill="#cc1d1d"/>
    <rect x="34.09" y="9.85" width="1.51" height="1.52" fill="#ef5454"/>
    <rect x="34.09" y="8.34" width="1.51" height="1.51" fill="#fff"/>
    <rect x="32.57" y="38.63" width="1.52" height="1.51" fill="#fff"/>
    <rect x="32.57" y="37.12" width="1.52" height="1.52" fill="#aa0707"/>
    <rect x="32.57" y="35.6" width="1.52" height="1.51" fill="#cc1d1d"/>
    <rect x="32.57" y="34.09" width="1.52" height="1.52" fill="#cc1d1d"/>
    <rect x="32.57" y="32.57" width="1.52" height="1.51" fill="#cc1d1d"/>
    <rect x="32.57" y="31.06" width="1.52" height="1.51" fill="#cc1d1d"/>
    <rect x="32.57" y="29.54" width="1.52" height="1.52" fill="#cc1d1d"/>
    <rect x="32.57" y="28.03" width="1.52" height="1.51" fill="#ef5454"/>
    <rect x="32.57" y="26.51" width="1.52" height="1.52" fill="#fff"/>
    <rect x="32.57" y="21.97" width="1.52" height="1.51" fill="#fff"/>
    <rect x="32.57" y="20.46" width="1.52" height="1.52" fill="#aa0707"/>
    <rect x="32.57" y="18.94" width="1.52" height="1.51" fill="#cc1d1d"/>
    <rect x="32.57" y="17.43" width="1.52" height="1.52" fill="#cc1d1d"/>
    <rect x="32.57" y="15.91" width="1.52" height="1.51" fill="#cc1d1d"/>
    <rect x="32.57" y="14.4" width="1.52" height="1.52" fill="#cc1d1d"/>
    <rect x="32.57" y="12.88" width="1.52" height="1.51" fill="#cc1d1d"/>
    <rect x="32.57" y="11.37" width="1.52" height="1.51" fill="#ef5454"/>
    <rect x="32.57" y="9.85" width="1.52" height="1.52" fill="#fff"/>
    <rect x="31.06" y="37.12" width="1.51" height="1.52" fill="#fff"/>
    <rect x="31.06" y="35.6" width="1.51" height="1.51" fill="#aa0707"/>
    <rect x="31.06" y="34.09" width="1.51" height="1.52" fill="#cc1d1d"/>
    <rect x="31.06" y="32.57" width="1.51" height="1.51" fill="#cc1d1d"/>
    <rect x="31.06" y="31.06" width="1.51" height="1.51" fill="#cc1d1d"/>
    <rect x="31.06" y="29.54" width="1.51" height="1.52" fill="#cc1d1d"/>
    <rect x="31.06" y="28.03" width="1.51" height="1.51" fill="#cc1d1d"/>
    <rect x="31.06" y="26.51" width="1.51" height="1.52" fill="#ef5454"/>
    <rect x="31.06" y="25" width="1.51" height="1.51" fill="#fff"/>
    <rect x="31.06" y="23.49" width="1.51" height="1.52" fill="#fff"/>
    <rect x="31.06" y="21.97" width="1.51" height="1.51" fill="#aa0707"/>
    <rect x="31.06" y="20.46" width="1.51" height="1.52" fill="#cc1d1d"/>
    <rect x="31.06" y="18.94" width="1.51" height="1.51" fill="#cc1d1d"/>
    <rect x="31.06" y="17.43" width="1.51" height="1.52" fill="#cc1d1d"/>
    <rect x="31.06" y="15.91" width="1.51" height="1.51" fill="#cc1d1d"/>
    <rect x="31.06" y="14.4" width="1.51" height="1.52" fill="#cc1d1d"/>
    <rect x="31.06" y="12.88" width="1.51" height="1.51" fill="#ef5454"/>
    <rect x="31.06" y="11.37" width="1.51" height="1.51" fill="#fff"/>
    <rect x="29.54" y="35.6" width="1.52" height="1.51" fill="#fff"/>
    <rect x="29.54" y="34.09" width="1.52" height="1.52" fill="#aa0707"/>
    <rect x="29.54" y="32.57" width="1.52" height="1.51" fill="#cc1d1d"/>
    <rect x="29.54" y="31.06" width="1.52" height="1.51" fill="#cc1d1d"/>
    <rect x="29.54" y="29.54" width="1.52" height="1.52" fill="#cc1d1d"/>
    <rect x="29.54" y="28.03" width="1.52" height="1.51" fill="#cc1d1d"/>
    <rect x="29.54" y="26.51" width="1.52" height="1.52" fill="#cc1d1d"/>
    <rect x="29.54" y="25" width="1.52" height="1.51" fill="#aa0707"/>
    <rect x="29.54" y="23.49" width="1.52" height="1.52" fill="#aa0707"/>
    <rect x="29.54" y="21.97" width="1.52" height="1.51" fill="#cc1d1d"/>
    <rect x="29.54" y="20.46" width="1.52" height="1.52" fill="#cc1d1d"/>
    <rect x="29.54" y="18.94" width="1.52" height="1.51" fill="#cc1d1d"/>
    <rect x="29.54" y="17.43" width="1.52" height="1.52" fill="#cc1d1d"/>
    <rect x="29.54" y="15.91" width="1.52" height="1.51" fill="#cc1d1d"/>
    <rect x="29.54" y="14.4" width="1.52" height="1.52" fill="#ef5454"/>
    <rect x="29.54" y="12.88" width="1.52" height="1.51" fill="#fff"/>
    <rect x="28.03" y="34.09" width="1.51" height="1.52" fill="#fff"/>
    <rect x="28.03" y="32.57" width="1.51" height="1.51" fill="#aa0707"/>
    <rect x="28.03" y="31.06" width="1.51" height="1.51" fill="#cc1d1d"/>
    <rect x="28.03" y="29.54" width="1.51" height="1.52" fill="#cc1d1d"/>
    <rect x="28.03" y="28.03" width="1.51" height="1.51" fill="#cc1d1d"/>
    <rect x="28.03" y="26.51" width="1.51" height="1.52" fill="#cc1d1d"/>
    <rect x="28.03" y="25" width="1.51" height="1.51" fill="#cc1d1d"/>
    <rect x="28.03" y="23.49" width="1.51" height="1.52" fill="#cc1d1d"/>
    <rect x="28.03" y="21.97" width="1.51" height="1.51" fill="#cc1d1d"/>
    <rect x="28.03" y="20.46" width="1.51" height="1.52" fill="#cc1d1d"/>
    <rect x="28.03" y="18.94" width="1.51" height="1.51" fill="#cc1d1d"/>
    <rect x="28.03" y="17.43" width="1.51" height="1.52" fill="#cc1d1d"/>
    <rect x="28.03" y="15.91" width="1.51" height="1.51" fill="#ef5454"/>
    <rect x="28.03" y="14.4" width="1.51" height="1.52" fill="#fff"/>
    <rect x="26.52" y="32.57" width="1.51" height="1.51" fill="#fff"/>
    <rect x="26.52" y="31.06" width="1.51" height="1.51" fill="#aa0707"/>
    <rect x="26.52" y="29.54" width="1.51" height="1.52" fill="#cc1d1d"/>
    <rect x="26.52" y="28.03" width="1.51" height="1.51" fill="#cc1d1d"/>
    <rect x="26.52" y="26.51" width="1.51" height="1.52" fill="#cc1d1d"/>
    <rect x="26.52" y="25" width="1.51" height="1.51" fill="#cc1d1d"/>
    <rect x="26.52" y="23.49" width="1.51" height="1.52" fill="#cc1d1d"/>
    <rect x="26.52" y="21.97" width="1.51" height="1.51" fill="#cc1d1d"/>
    <rect x="26.52" y="20.46" width="1.51" height="1.52" fill="#cc1d1d"/>
    <rect x="26.52" y="18.94" width="1.51" height="1.51" fill="#cc1d1d"/>
    <rect x="26.52" y="17.43" width="1.51" height="1.52" fill="#ef5454"/>
    <rect x="26.52" y="15.91" width="1.51" height="1.51" fill="#fff"/>
    <rect x="25" y="31.06" width="1.52" height="1.51" fill="#fff"/>
    <rect x="25" y="29.54" width="1.52" height="1.52" fill="#aa0707"/>
    <rect x="25" y="28.03" width="1.52" height="1.51" fill="#cc1d1d"/>
    <rect x="25" y="26.51" width="1.52" height="1.52" fill="#cc1d1d"/>
    <rect x="25" y="25" width="1.52" height="1.51" fill="#cc1d1d"/>
    <rect x="25" y="23.49" width="1.52" height="1.52" fill="#cc1d1d"/>
    <rect x="25" y="21.97" width="1.52" height="1.51" fill="#cc1d1d"/>
    <rect x="25" y="20.46" width="1.52" height="1.52" fill="#cc1d1d"/>
    <rect x="25" y="18.94" width="1.52" height="1.51" fill="#ef5454"/>
    <rect x="25" y="17.43" width="1.52" height="1.52" fill="#fff"/>
    <rect x="23.49" y="31.06" width="1.51" height="1.51" fill="#fff"/>
    <rect x="23.49" y="29.54" width="1.51" height="1.52" fill="#aa0707"/>
    <rect x="23.49" y="28.03" width="1.51" height="1.51" fill="#cc1d1d"/>
    <rect x="23.49" y="26.51" width="1.51" height="1.52" fill="#cc1d1d"/>
    <rect x="23.49" y="25" width="1.51" height="1.51" fill="#cc1d1d"/>
    <rect x="23.49" y="23.49" width="1.51" height="1.52" fill="#cc1d1d"/>
    <rect x="23.49" y="21.97" width="1.51" height="1.51" fill="#cc1d1d"/>
    <rect x="23.49" y="20.46" width="1.51" height="1.52" fill="#cc1d1d"/>
    <rect x="23.49" y="18.94" width="1.51" height="1.51" fill="#ef5454"/>
    <rect x="23.49" y="17.43" width="1.51" height="1.52" fill="#fff"/>
    <rect x="21.97" y="32.57" width="1.52" height="1.51" fill="#fff"/>
    <rect x="21.97" y="31.06" width="1.52" height="1.51" fill="#aa0707"/>
    <rect x="21.97" y="29.54" width="1.52" height="1.52" fill="#cc1d1d"/>
    <rect x="21.97" y="28.03" width="1.52" height="1.51" fill="#cc1d1d"/>
    <rect x="21.97" y="26.51" width="1.52" height="1.52" fill="#cc1d1d"/>
    <rect x="21.97" y="25" width="1.52" height="1.51" fill="#cc1d1d"/>
    <rect x="21.97" y="23.49" width="1.52" height="1.52" fill="#cc1d1d"/>
    <rect x="21.97" y="21.97" width="1.52" height="1.51" fill="#cc1d1d"/>
    <rect x="21.97" y="20.46" width="1.52" height="1.52" fill="#cc1d1d"/>
    <rect x="21.97" y="18.94" width="1.52" height="1.51" fill="#cc1d1d"/>
    <rect x="21.97" y="17.43" width="1.52" height="1.52" fill="#ef5454"/>
    <rect x="21.97" y="15.91" width="1.52" height="1.51" fill="#fff"/>
    <rect x="20.46" y="34.09" width="1.51" height="1.52" fill="#fff"/>
    <rect x="20.46" y="32.57" width="1.51" height="1.51" fill="#aa0707"/>
    <rect x="20.46" y="31.06" width="1.51" height="1.51" fill="#cc1d1d"/>
    <rect x="20.46" y="29.54" width="1.51" height="1.52" fill="#cc1d1d"/>
    <rect x="20.46" y="28.03" width="1.51" height="1.51" fill="#cc1d1d"/>
    <rect x="20.46" y="26.51" width="1.51" height="1.52" fill="#cc1d1d"/>
    <rect x="20.46" y="25" width="1.51" height="1.51" fill="#cc1d1d"/>
    <rect x="20.46" y="23.49" width="1.51" height="1.52" fill="#cc1d1d"/>
    <rect x="20.46" y="21.97" width="1.51" height="1.51" fill="#cc1d1d"/>
    <rect x="20.46" y="20.46" width="1.51" height="1.52" fill="#cc1d1d"/>
    <rect x="20.46" y="18.94" width="1.51" height="1.51" fill="#cc1d1d"/>
    <rect x="20.46" y="17.43" width="1.51" height="1.52" fill="#cc1d1d"/>
    <rect x="20.46" y="15.91" width="1.51" height="1.51" fill="#ef5454"/>
    <rect x="20.46" y="14.4" width="1.51" height="1.52" fill="#fff"/>
    <rect x="18.94" y="35.6" width="1.52" height="1.51" fill="#fff"/>
    <rect x="18.94" y="34.09" width="1.52" height="1.52" fill="#aa0707"/>
    <rect x="18.94" y="32.57" width="1.52" height="1.51" fill="#cc1d1d"/>
    <rect x="18.94" y="31.06" width="1.52" height="1.51" fill="#cc1d1d"/>
    <rect x="18.94" y="29.54" width="1.52" height="1.52" fill="#cc1d1d"/>
    <rect x="18.94" y="28.03" width="1.52" height="1.51" fill="#cc1d1d"/>
    <rect x="18.94" y="26.51" width="1.52" height="1.52" fill="#cc1d1d"/>
    <rect x="18.94" y="25" width="1.52" height="1.51" fill="#aa0707"/>
    <rect x="18.94" y="23.49" width="1.52" height="1.52" fill="#aa0707"/>
    <rect x="18.94" y="21.97" width="1.52" height="1.51" fill="#cc1d1d"/>
    <rect x="18.94" y="20.46" width="1.52" height="1.52" fill="#cc1d1d"/>
    <rect x="18.94" y="18.94" width="1.52" height="1.51" fill="#cc1d1d"/>
    <rect x="18.94" y="17.43" width="1.52" height="1.52" fill="#cc1d1d"/>
    <rect x="18.94" y="15.91" width="1.52" height="1.51" fill="#cc1d1d"/>
    <rect x="18.94" y="14.4" width="1.52" height="1.52" fill="#ef5454"/>
    <rect x="18.94" y="12.88" width="1.52" height="1.51" fill="#fff"/>
    <rect x="17.43" y="37.12" width="1.51" height="1.52" fill="#fff"/>
    <rect x="17.43" y="35.6" width="1.51" height="1.51" fill="#aa0707"/>
    <rect x="17.43" y="34.09" width="1.51" height="1.52" fill="#cc1d1d"/>
    <rect x="17.43" y="32.57" width="1.51" height="1.51" fill="#cc1d1d"/>
    <rect x="17.43" y="31.06" width="1.51" height="1.51" fill="#cc1d1d"/>
    <rect x="17.43" y="29.54" width="1.51" height="1.52" fill="#cc1d1d"/>
    <rect x="17.43" y="28.03" width="1.51" height="1.51" fill="#cc1d1d"/>
    <rect x="17.43" y="26.51" width="1.51" height="1.52" fill="#ef5454"/>
    <rect x="17.43" y="25" width="1.51" height="1.51" fill="#fff"/>
    <rect x="17.43" y="23.49" width="1.51" height="1.52" fill="#fff"/>
    <rect x="17.43" y="21.97" width="1.51" height="1.51" fill="#aa0707"/>
    <rect x="17.43" y="20.46" width="1.51" height="1.52" fill="#cc1d1d"/>
    <rect x="17.43" y="18.94" width="1.51" height="1.51" fill="#cc1d1d"/>
    <rect x="17.43" y="17.43" width="1.51" height="1.52" fill="#cc1d1d"/>
    <rect x="17.43" y="15.91" width="1.51" height="1.51" fill="#cc1d1d"/>
    <rect x="17.43" y="14.4" width="1.51" height="1.52" fill="#cc1d1d"/>
    <rect x="17.43" y="12.88" width="1.51" height="1.51" fill="#ef5454"/>
    <rect x="17.43" y="11.37" width="1.51" height="1.51" fill="#fff"/>
    <rect x="15.91" y="38.63" width="1.52" height="1.51" fill="#fff"/>
    <rect x="15.91" y="37.12" width="1.52" height="1.52" fill="#aa0707"/>
    <rect x="15.91" y="35.6" width="1.52" height="1.51" fill="#cc1d1d"/>
    <rect x="15.91" y="34.09" width="1.52" height="1.52" fill="#cc1d1d"/>
    <rect x="15.91" y="32.57" width="1.52" height="1.51" fill="#cc1d1d"/>
    <rect x="15.91" y="31.06" width="1.52" height="1.51" fill="#cc1d1d"/>
    <rect x="15.91" y="29.54" width="1.52" height="1.52" fill="#cc1d1d"/>
    <rect x="15.91" y="28.03" width="1.52" height="1.51" fill="#ef5454"/>
    <rect x="15.91" y="26.51" width="1.52" height="1.52" fill="#fff"/>
    <rect x="15.91" y="21.97" width="1.52" height="1.51" fill="#fff"/>
    <rect x="15.91" y="20.46" width="1.52" height="1.52" fill="#aa0707"/>
    <rect x="15.91" y="18.94" width="1.52" height="1.51" fill="#cc1d1d"/>
    <rect x="15.91" y="17.43" width="1.52" height="1.52" fill="#cc1d1d"/>
    <rect x="15.91" y="15.91" width="1.52" height="1.51" fill="#cc1d1d"/>
    <rect x="15.91" y="14.4" width="1.52" height="1.52" fill="#cc1d1d"/>
    <rect x="15.91" y="12.88" width="1.52" height="1.51" fill="#cc1d1d"/>
    <rect x="15.91" y="11.37" width="1.52" height="1.51" fill="#ef5454"/>
    <rect x="15.91" y="9.85" width="1.52" height="1.52" fill="#fff"/>
    <rect x="14.4" y="40.15" width="1.51" height="1.52" fill="#fff"/>
    <rect x="14.4" y="38.63" width="1.51" height="1.51" fill="#aa0707"/>
    <rect x="14.4" y="37.12" width="1.51" height="1.52" fill="#cc1d1d"/>
    <rect x="14.4" y="35.6" width="1.51" height="1.51" fill="#cc1d1d"/>
    <rect x="14.4" y="34.09" width="1.51" height="1.52" fill="#cc1d1d"/>
    <rect x="14.4" y="32.57" width="1.51" height="1.51" fill="#cc1d1d"/>
    <rect x="14.4" y="31.06" width="1.51" height="1.51" fill="#cc1d1d"/>
    <rect x="14.4" y="29.54" width="1.51" height="1.52" fill="#ef5454"/>
    <rect x="14.4" y="28.03" width="1.51" height="1.51" fill="#fff"/>
    <rect x="14.4" y="20.46" width="1.51" height="1.52" fill="#fff"/>
    <rect x="14.4" y="18.94" width="1.51" height="1.51" fill="#aa0707"/>
    <rect x="14.4" y="17.43" width="1.51" height="1.52" fill="#cc1d1d"/>
    <rect x="14.4" y="15.91" width="1.51" height="1.51" fill="#cc1d1d"/>
    <rect x="14.4" y="14.4" width="1.51" height="1.52" fill="#cc1d1d"/>
    <rect x="14.4" y="12.88" width="1.51" height="1.51" fill="#cc1d1d"/>
    <rect x="14.4" y="11.37" width="1.51" height="1.51" fill="#cc1d1d"/>
    <rect x="14.4" y="9.85" width="1.51" height="1.52" fill="#ef5454"/>
    <rect x="14.4" y="8.34" width="1.51" height="1.51" fill="#fff"/>
    <rect x="12.88" y="41.66" width="1.52" height="1.51" fill="#fff"/>
    <rect x="12.88" y="40.15" width="1.52" height="1.52" fill="#aa0707"/>
    <rect x="12.88" y="38.63" width="1.52" height="1.51" fill="#cc1d1d"/>
    <rect x="12.88" y="37.12" width="1.52" height="1.52" fill="#cc1d1d"/>
    <rect x="12.88" y="35.6" width="1.52" height="1.51" fill="#cc1d1d"/>
    <rect x="12.88" y="34.09" width="1.52" height="1.52" fill="#cc1d1d"/>
    <rect x="12.88" y="32.57" width="1.52" height="1.51" fill="#cc1d1d"/>
    <rect x="12.88" y="31.06" width="1.52" height="1.51" fill="#ef5454"/>
    <rect x="12.88" y="29.54" width="1.52" height="1.52" fill="#fff"/>
    <rect x="12.88" y="18.94" width="1.52" height="1.51" fill="#fff"/>
    <rect x="12.88" y="17.43" width="1.52" height="1.52" fill="#aa0707"/>
    <rect x="12.88" y="15.91" width="1.52" height="1.51" fill="#cc1d1d"/>
    <rect x="12.88" y="14.4" width="1.52" height="1.52" fill="#cc1d1d"/>
    <rect x="12.88" y="12.88" width="1.52" height="1.51" fill="#cc1d1d"/>
    <rect x="12.88" y="11.37" width="1.52" height="1.51" fill="#cc1d1d"/>
    <rect x="12.88" y="9.85" width="1.52" height="1.52" fill="#cc1d1d"/>
    <rect x="12.88" y="8.34" width="1.52" height="1.51" fill="#ef5454"/>
    <rect x="12.88" y="6.82" width="1.52" height="1.52" fill="#fff"/>
    <rect x="11.37" y="43.18" width="1.51" height="1.52" fill="#fff"/>
    <rect x="11.37" y="41.66" width="1.51" height="1.51" fill="#aa0707"/>
    <rect x="11.37" y="40.15" width="1.51" height="1.52" fill="#cc1d1d"/>
    <rect x="11.37" y="38.63" width="1.51" height="1.51" fill="#cc1d1d"/>
    <rect x="11.37" y="37.12" width="1.51" height="1.52" fill="#cc1d1d"/>
    <rect x="11.37" y="35.6" width="1.51" height="1.51" fill="#cc1d1d"/>
    <rect x="11.37" y="34.09" width="1.51" height="1.52" fill="#cc1d1d"/>
    <rect x="11.37" y="32.57" width="1.51" height="1.51" fill="#ef5454"/>
    <rect x="11.37" y="31.06" width="1.51" height="1.51" fill="#fff"/>
    <rect x="11.37" y="17.43" width="1.51" height="1.52" fill="#fff"/>
    <rect x="11.37" y="15.91" width="1.51" height="1.51" fill="#aa0707"/>
    <rect x="11.37" y="14.4" width="1.51" height="1.52" fill="#cc1d1d"/>
    <rect x="11.37" y="12.88" width="1.51" height="1.51" fill="#cc1d1d"/>
    <rect x="11.37" y="11.37" width="1.51" height="1.51" fill="#cc1d1d"/>
    <rect x="11.37" y="9.85" width="1.51" height="1.52" fill="#cc1d1d"/>
    <rect x="11.37" y="8.34" width="1.51" height="1.51" fill="#cc1d1d"/>
    <rect x="11.37" y="6.82" width="1.51" height="1.52" fill="#ef5454"/>
    <rect x="11.37" y="5.31" width="1.51" height="1.51" fill="#fff"/>
    <rect x="9.85" y="44.69" width="1.51" height="1.51" fill="#fff"/>
    <rect x="9.85" y="43.18" width="1.51" height="1.52" fill="#aa0707"/>
    <rect x="9.85" y="41.66" width="1.51" height="1.51" fill="#cc1d1d"/>
    <rect x="9.85" y="40.15" width="1.51" height="1.52" fill="#cc1d1d"/>
    <rect x="9.85" y="38.63" width="1.51" height="1.51" fill="#cc1d1d"/>
    <rect x="9.85" y="37.12" width="1.51" height="1.52" fill="#cc1d1d"/>
    <rect x="9.85" y="35.6" width="1.51" height="1.51" fill="#cc1d1d"/>
    <rect x="9.85" y="34.09" width="1.51" height="1.52" fill="#ef5454"/>
    <rect x="9.85" y="32.57" width="1.51" height="1.51" fill="#fff"/>
    <rect x="9.85" y="15.91" width="1.51" height="1.51" fill="#fff"/>
    <rect x="9.85" y="14.4" width="1.51" height="1.52" fill="#aa0707"/>
    <rect x="9.85" y="12.88" width="1.51" height="1.51" fill="#cc1d1d"/>
    <rect x="9.85" y="11.37" width="1.51" height="1.51" fill="#cc1d1d"/>
    <rect x="9.85" y="9.85" width="1.51" height="1.52" fill="#cc1d1d"/>
    <rect x="9.85" y="8.34" width="1.51" height="1.51" fill="#cc1d1d"/>
    <rect x="9.85" y="6.82" width="1.51" height="1.52" fill="#cc1d1d"/>
    <rect x="9.85" y="5.31" width="1.51" height="1.51" fill="#ef5454"/>
    <rect x="9.85" y="3.79" width="1.51" height="1.52" fill="#fff"/>
    <rect x="8.34" y="46.2" width="1.52" height="1.52" fill="#fff"/>
    <rect x="8.34" y="44.69" width="1.52" height="1.51" fill="#aa0707"/>
    <rect x="8.34" y="43.18" width="1.52" height="1.52" fill="#cc1d1d"/>
    <rect x="8.34" y="41.66" width="1.52" height="1.51" fill="#cc1d1d"/>
    <rect x="8.34" y="40.15" width="1.52" height="1.52" fill="#cc1d1d"/>
    <rect x="8.34" y="38.63" width="1.52" height="1.51" fill="#cc1d1d"/>
    <rect x="8.34" y="37.12" width="1.52" height="1.52" fill="#cc1d1d"/>
    <rect x="8.34" y="35.6" width="1.52" height="1.51" fill="#ef5454"/>
    <rect x="8.34" y="34.09" width="1.52" height="1.52" fill="#fff"/>
    <rect x="8.34" y="14.4" width="1.52" height="1.52" fill="#fff"/>
    <rect x="8.34" y="12.88" width="1.52" height="1.51" fill="#aa0707"/>
    <rect x="8.34" y="11.37" width="1.52" height="1.51" fill="#cc1d1d"/>
    <rect x="8.34" y="9.85" width="1.52" height="1.52" fill="#cc1d1d"/>
    <rect x="8.34" y="8.34" width="1.52" height="1.51" fill="#cc1d1d"/>
    <rect x="8.34" y="6.82" width="1.52" height="1.52" fill="#cc1d1d"/>
    <rect x="8.34" y="5.31" width="1.52" height="1.51" fill="#cc1d1d"/>
    <rect x="8.34" y="3.79" width="1.52" height="1.52" fill="#ef5454"/>
    <rect x="8.34" y="2.28" width="1.52" height="1.51" fill="#fff"/>
    <rect x="6.82" y="46.2" width="1.51" height="1.52" fill="#fff"/>
    <rect x="6.82" y="44.69" width="1.51" height="1.51" fill="#aa0707"/>
    <rect x="6.82" y="43.18" width="1.51" height="1.52" fill="#cc1d1d"/>
    <rect x="6.82" y="41.66" width="1.51" height="1.51" fill="#cc1d1d"/>
    <rect x="6.82" y="40.15" width="1.51" height="1.52" fill="#cc1d1d"/>
    <rect x="6.82" y="38.63" width="1.51" height="1.51" fill="#cc1d1d"/>
    <rect x="6.82" y="37.12" width="1.51" height="1.52" fill="#ef5454"/>
    <rect x="6.82" y="35.6" width="1.51" height="1.51" fill="#fff"/>
    <rect x="6.82" y="12.88" width="1.51" height="1.51" fill="#fff"/>
    <rect x="6.82" y="11.37" width="1.51" height="1.51" fill="#aa0707"/>
    <rect x="6.82" y="9.85" width="1.51" height="1.52" fill="#cc1d1d"/>
    <rect x="6.82" y="8.34" width="1.51" height="1.51" fill="#cc1d1d"/>
    <rect x="6.82" y="6.82" width="1.51" height="1.52" fill="#cc1d1d"/>
    <rect x="6.82" y="5.31" width="1.51" height="1.51" fill="#cc1d1d"/>
    <rect x="6.82" y="3.79" width="1.51" height="1.52" fill="#ef5454"/>
    <rect x="6.82" y="2.28" width="1.51" height="1.51" fill="#fff"/>
    <rect x="5.31" y="44.69" width="1.52" height="1.51" fill="#fff"/>
    <rect x="5.31" y="43.18" width="1.52" height="1.52" fill="#aa0707"/>
    <rect x="5.31" y="41.66" width="1.52" height="1.51" fill="#cc1d1d"/>
    <rect x="5.31" y="40.15" width="1.52" height="1.52" fill="#cc1d1d"/>
    <rect x="5.31" y="38.63" width="1.52" height="1.51" fill="#ef5454"/>
    <rect x="5.31" y="37.12" width="1.52" height="1.52" fill="#fff"/>
    <rect x="5.31" y="11.37" width="1.52" height="1.51" fill="#fff"/>
    <rect x="5.31" y="9.85" width="1.52" height="1.52" fill="#aa0707"/>
    <rect x="5.31" y="8.34" width="1.52" height="1.51" fill="#cc1d1d"/>
    <rect x="5.31" y="6.82" width="1.52" height="1.52" fill="#cc1d1d"/>
    <rect x="5.31" y="5.31" width="1.52" height="1.51" fill="#ef5454"/>
    <rect x="5.31" y="3.79" width="1.52" height="1.52" fill="#fff"/>
    <rect x="3.8" y="43.18" width="1.51" height="1.52" fill="#fff"/>
    <rect x="3.8" y="41.66" width="1.51" height="1.51" fill="#aa0707"/>
    <rect x="3.8" y="40.15" width="1.51" height="1.52" fill="#ef5454"/>
    <rect x="3.8" y="38.63" width="1.51" height="1.51" fill="#fff"/>
    <rect x="3.8" y="9.85" width="1.51" height="1.52" fill="#fff"/>
    <rect x="3.8" y="8.34" width="1.51" height="1.51" fill="#aa0707"/>
    <rect x="3.8" y="6.82" width="1.51" height="1.52" fill="#ef5454"/>
    <rect x="3.8" y="5.31" width="1.51" height="1.51" fill="#fff"/>
    <rect x="2.28" y="41.66" width="1.52" height="1.51" fill="#fff"/>
    <rect x="2.28" y="40.15" width="1.52" height="1.52" fill="#fff"/>
    <rect x="2.28" y="8.34" width="1.52" height="1.51" fill="#fff"/>
    <rect x="2.28" y="6.82" width="1.52" height="1.52" fill="#fff"/>
  </g>
</svg>
