<svg id="Capa_1" data-name="Capa 1" xmlns="http://www.w3.org/2000/svg" xmlns:xlink="http://www.w3.org/1999/xlink" width="50" height="50" viewBox="0 0 50 50">
  <defs>
    <clipPath id="clip-path">
      <polygon points="24.04 49.76 1.25 39.47 1.41 9.17 24.2 19.46 24.04 49.76" fill="none"/>
    </clipPath>
    <clipPath id="clip-path-2">
      <polygon points="24.2 19.46 1.41 9.17 25.96 0.24 48.74 10.53 24.2 19.46" fill="none"/>
    </clipPath>
    <clipPath id="clip-path-3">
      <polygon points="48.74 10.53 48.59 40.82 24.04 49.76 24.2 19.46 48.74 10.53" fill="none"/>
    </clipPath>
  </defs>
  <g id="Figment_lido">
    <g style="isolation: isolate">
      <g>
        <polygon points="24.04 49.76 1.25 39.47 1.41 9.17 24.2 19.46 24.04 49.76" fill="#2c5dca"/>
        <g style="isolation: isolate">
          <g clip-path="url(#clip-path)">
            <g>
              <path d="M12.26,19.53a1.78,1.78,0,0,0-1.24-.1c-1.47.35-2.91.82-4.42,1.1-1,.18-1.66.78-1.78,2.26v1.53l.07.24a5,5,0,0,0,.91.52,3.63,3.63,0,0,0,.87.27c0-.61.08-1.18.12-1.79l.12,0,.19-.18c1.55-.42,3.14-.82,4.69-1.18l.92.41C14,24,15.19,25.35,16.34,26.81c.39.44.93.68,1.16,1.47l.12.16c.15.64,0,1.21.11,1.84a4.73,4.73,0,0,0,.89.51,3.51,3.51,0,0,0,.89.28l.12-.16V29.38a5.72,5.72,0,0,0-1.2-3.16c-1.73-2-3.47-4-5.25-6a2.75,2.75,0,0,0-.92-.71" fill="#fefefe"/>
              <path d="M11.92,32.06a3.47,3.47,0,0,1-1.31-3c.12-1,.82-1.59,1.56-1.26l.07,0a3.51,3.51,0,0,1,1.54,2.63c.12,1.11-.43,1.87-1.28,1.8l-.58-.26m.83-6.58-1.05-.42c-1.58-.18-2.59.69-3,2.68v1.47A7.91,7.91,0,0,0,11,34l.08.25c.11.73,0,1.44.07,2.19l-.31.23C9.63,35.37,8.4,34,7.2,32.6l-.31-.51-.12-.16c-.15-.64.05-1.19-.11-1.84a4.92,4.92,0,0,0-1-.55,5,5,0,0,0-.82-.29l-.07.17V31a7.45,7.45,0,0,0,.39,1.75,11.49,11.49,0,0,0,2.7,3.68c.89,1,1.81,2,2.7,3.1a4.63,4.63,0,0,0,1.54,1.3,2,2,0,0,0,1.21.14,32.83,32.83,0,0,1,4.14-1c1.59-.19,2.21-1.39,2-3.74v-.37a6.16,6.16,0,0,0-1-.59A3.44,3.44,0,0,0,17.6,35c-.19.55,0,1.34-.11,2-1.4.38-2.79.76-4.3,1.19V35.42l.2-.33c1.51-.06,2.21-1.28,2.4-3.3v-.21l-.15-1.23a7.64,7.64,0,0,0-2.89-4.87" fill="#fefefe"/>
              <polyline points="17.64 34.93 17.61 34.91 17.61 34.97 17.64 34.93" fill="#fefefe"/>
            </g>
          </g>
        </g>
      </g>
      <g>
        <polygon points="24.2 19.46 1.41 9.17 25.96 0.24 48.74 10.53 24.2 19.46" fill="#3066de"/>
        <g style="isolation: isolate">
          <g clip-path="url(#clip-path-2)">
            <g>
              <path d="M17,6.27a2.59,2.59,0,0,0-1,.64c-.87.91-1.62,1.84-2.57,2.75-.64.6-.71,1.15.27,1.7l1.11.5.24,0c.39-.1.74-.2,1.07-.32a6.91,6.91,0,0,0,.86-.39l-1.21-.65.05-.08,0-.16c.88-1,1.8-2,2.72-2.92l1-.36c2-.2,3.91-.43,5.86-.58a6.09,6.09,0,0,1,1.95-.15h.2c.58.13.87.4,1.42.54.37-.09.73-.2,1.05-.31A6.62,6.62,0,0,0,31,6.12l0-.12-1.11-.5a7.76,7.76,0,0,0-3.21-.39L18.26,6A5.3,5.3,0,0,0,17,6.27" fill="#fefefe"/>
              <path d="M25.88,10.54a4.81,4.81,0,0,1-3.14-.25c-.66-.4-.54-1,.28-1.26l.07,0a5.58,5.58,0,0,1,3.09,0c.89.3,1,.84.33,1.28l-.63.23M21.73,8l-1.1.43c-1.34.8-1.48,1.63-.33,2.48l1.06.49a11.87,11.87,0,0,0,5.23.34l.23,0a15.38,15.38,0,0,1,1.65.68l-.06.24c-1.88.22-3.84.43-5.75.63h-.8c-.59-.13-.84-.41-1.43-.54a11,11,0,0,0-1.14.34c-.28.11-.56.22-.83.35l.07.1,1.11.5a8.56,8.56,0,0,0,1.56.36,20.07,20.07,0,0,0,4.74-.26c1.42-.14,2.81-.34,4.31-.45a8.85,8.85,0,0,0,2.12-.41,2.83,2.83,0,0,0,1-.61,28.94,28.94,0,0,1,2.43-2.56c1.08-.92.68-1.65-1.17-2.31l-.27-.12c-.41.1-.83.22-1.2.35a5.65,5.65,0,0,0-.85.39c.24.29,1,.42,1.32.71-.79.87-1.58,1.75-2.41,2.71L29.29,11l-.09-.21c1.1-.84.75-1.62-.56-2.38l-.16-.07-1-.32a12.24,12.24,0,0,0-5.74,0" fill="#fefefe"/>
              <polyline points="32.33 8.38 32.29 8.4 32.33 8.41 32.33 8.38" fill="#fefefe"/>
            </g>
          </g>
        </g>
      </g>
      <g>
        <polygon points="48.74 10.53 48.59 40.82 24.04 49.76 24.2 19.46 48.74 10.53" fill="#3168e3"/>
        <g style="isolation: isolate">
          <g clip-path="url(#clip-path-3)">
            <g>
              <path d="M36.84,20.76a3.94,3.94,0,0,0-1.29.9c-1.53,1.5-3,3.08-4.58,4.54a5.28,5.28,0,0,0-1.87,3.54v1.44l.08.17a4.86,4.86,0,0,0,.93-.23,4.52,4.52,0,0,0,.91-.45c0-.6.09-1.16.13-1.77l.12-.15.2-.32c1.61-1.62,3.27-3.26,4.87-4.83l1-.35c1.28.37,2.56.65,3.75,1.1.4.1,1-.1,1.2.46l.12.05c.16.48,0,1.14.12,1.64a4.55,4.55,0,0,0,.92-.22,6,6,0,0,0,.92-.45l.12-.24V24.15c-.16-.93-.39-1.79-1.23-2-1.8-.49-3.6-1-5.44-1.43a1.59,1.59,0,0,0-1,.06" fill="#fefefe"/>
              <path d="M36.46,32.8c-.92,0-1.48-.65-1.36-1.73a3.11,3.11,0,0,1,1.63-2.43l.07,0a1.26,1.26,0,0,1,1.59,1.25,3.12,3.12,0,0,1-1.33,2.71l-.6.22M37.33,26l-1.08.44a7.16,7.16,0,0,0-3.11,4.89v1.38c.32,1.52.95,2.62,2.35,2.71l.08.16a16.3,16.3,0,0,1,.07,2l-.32.46c-1.24-.29-2.52-.61-3.76-.95l-.32-.23-.12-.06c-.16-.49.05-1.15-.11-1.64a4.19,4.19,0,0,0-1,.25,6.85,6.85,0,0,0-.85.37l-.08.23v1.44a3.51,3.51,0,0,0,.4,1.33c.63,1.06,1.79,1,2.79,1.31s1.88.4,2.8.76a2.44,2.44,0,0,0,1.6,0A3.53,3.53,0,0,0,37.9,40c1.45-1.41,2.82-2.95,4.31-4.23a5.63,5.63,0,0,0,2.1-5.12v-.35a5,5,0,0,0-1,.26,4.16,4.16,0,0,0-.92.46c-.2.66,0,1.22-.13,1.92-1.45,1.47-2.9,2.94-4.47,4.55l0-2.53.2-.47a7,7,0,0,0,2.51-5v-.2l-.16-1a2.6,2.6,0,0,0-3-2.27" fill="#fefefe"/>
              <polyline points="42.39 30.93 42.35 30.95 42.35 31 42.39 30.93" fill="#fefefe"/>
            </g>
          </g>
        </g>
      </g>
    </g>
  </g>
</svg>
