<svg id="Capa_1" data-name="Capa 1" xmlns="http://www.w3.org/2000/svg" xmlns:xlink="http://www.w3.org/1999/xlink" width="50" height="50" viewBox="0 0 50 50">
  <defs>
    <clipPath id="clip-path">
      <polygon points="24.05 49.76 1.26 39.47 1.42 9.18 24.2 19.47 24.05 49.76" fill="none"/>
    </clipPath>
    <clipPath id="clip-path-2">
      <polygon points="24.2 19.47 1.42 9.18 25.96 0.24 48.75 10.53 24.2 19.47" fill="none"/>
    </clipPath>
    <clipPath id="clip-path-3">
      <polygon points="48.75 10.53 48.59 40.83 24.05 49.76 24.2 19.47 48.75 10.53" fill="none"/>
    </clipPath>
  </defs>
  <g id="Figment_lido">
    <g style="isolation: isolate">
      <g>
        <polygon points="24.05 49.76 1.26 39.47 1.42 9.18 24.2 19.47 24.05 49.76" fill="#d6d6d6"/>
        <g style="isolation: isolate">
          <g clip-path="url(#clip-path)">
            <g>
              <path d="M4.78,27.44a14,14,0,0,1,.41-1.72c.15-.63.33-1.23.48-1.86,0-.17.12-.18.22-.14l.09.05.06,0,0,0,.08,0c.09,0,.16.11.2.31l.84,4.15c0,.05,0,.11,0,.18L7,28.4l-.14,0c-.21-.09-.34-.29-.36-.66a.6.6,0,0,0-.36-.55L6,27.09c-.3-.13-.49-.09-.58.38,0,.2-.12.21-.22.16l-.14-.08-.15-.08a.21.21,0,0,0-.15,0m6.1.31a4.09,4.09,0,0,0,.32-.95c.16-.47.2-.6.45-.48.09,0,.22.12.39.22-.16.43-.29.88-.47,1.27A4.56,4.56,0,0,0,11.21,30c0,.24-.06.26-.16.22a.3.3,0,0,1-.1-.07l0,0-.11,0-.11,0c-.08,0-.14-.12-.12-.32A11.23,11.23,0,0,0,9.89,26c0-.11-.06-.21-.08-.32v-.13l.35.13c.28.13.32.29.46.94.08.37.16.73.26,1.16M7.61,24.52l.14,0,.16.05a.54.54,0,0,1,.28.39c.21.78.43,1.55.65,2.32a.68.68,0,0,0,.15.31c0-.71,0-1.42,0-2.15,0-.4.16-.27.34-.2l.06,0c.16.08.24.18.23.48,0,1.12,0,2.25,0,3.38,0,.13.1.45-.1.36h0a.43.43,0,0,0-.16-.05l-.15,0a.49.49,0,0,1-.27-.37l-.69-2.4a.47.47,0,0,0-.13-.28c0,.73,0,1.44,0,2.16,0,.34-.1.33-.27.26l-.06,0,0,0c-.17-.08-.3-.15-.29-.5,0-1.12,0-2.25,0-3.38,0-.14-.08-.45.11-.36h0M4.44,20.73c-.24-.11-.3,0-.3.29,0,2.66,0,5.3,0,7.94,0,.38.07.51.35.64,1.63.72,3.26,1.46,4.88,2.19l3.26,1.47.07,0,0-8.67-.07-.12L8.54,22.59,4.46,20.74h0" fill="#2da9e0"/>
              <path d="M12.63,24.43l.07.12,9.14,4.11V28.6l-9.21-4.17" fill="#414a57"/>
              <path d="M12.65,33.22l-.07,0L19,36.16l2.84,1.27v-.07l-9.14-4.14" fill="#414a57"/>
              <path d="M21.84,28.6v.07l-.05,8.69v.07c.11-.08.07-.27.07-.43q0-4,0-7.92a.75.75,0,0,0-.06-.48" fill="#3b3d40"/>
              <path d="M16.73,32.8l-.12-.07A1.57,1.57,0,0,1,16,31.66a5,5,0,0,1,0-.91A2.2,2.2,0,0,1,16,30c.13-.33.35-.46.67-.34l.05,0a1.28,1.28,0,0,1,.67.87,3.27,3.27,0,0,1,0,1.94.44.44,0,0,1-.66.29m1.88.85-.05,0a1.43,1.43,0,0,1-.7-1.11c0-.27,0-.53,0-.8a5.39,5.39,0,0,1,.05-.71c.08-.45.36-.61.74-.45h0a1.32,1.32,0,0,1,.67,1c0,.14.09.36,0,.37H19.2c-.09,0-.09-.23-.11-.33a.82.82,0,0,0-.47-.71h0c-.27-.12-.44,0-.5.31a4,4,0,0,0,0,1.46.87.87,0,0,0,.49.71c.23.1.42.1.49-.22,0-.09,0-.24.11-.2l.05,0c.14.14.07.28,0,.39a.46.46,0,0,1-.68.31m-5.19-2.42h0c-.15-.07-.09-.23-.08-.34,0-1.2,0-2.4,0-3.59,0-.1-.06-.33.09-.26h0c.14.07.08.23.08.33,0,.42,0,.84,0,1.3.13,0,.18-.19.3-.2a.58.58,0,0,1,.29.05,1.31,1.31,0,0,1,.63,1,5.07,5.07,0,0,1,0,1.6c0,.35-.17.61-.48.57a.66.66,0,0,1-.2-.06,1.12,1.12,0,0,1-.54-.63c-.07.09,0,.34-.12.27m6.38,2.89c-.13-.06-.1-.18-.1-.28,0-1.25,0-2.49,0-3.73,0-.1,0-.26.1-.2h0c.14.07.1.2.1.31,0,.76,0,1.52,0,2.35.42-.26.6-.9,1.07-.94l.07.11a6.4,6.4,0,0,1-.57.68c-.17.15-.14.33,0,.61.23.54.44,1.08.65,1.63a.32.32,0,0,1-.14,0,.48.48,0,0,1-.19-.28c-.15-.38-.29-.76-.45-1.14-.05-.12-.09-.32-.17-.36s0,0,0,0-.23.1-.22.33,0,.47,0,.7,0,.26-.1.21h0m-4.47-2c-.14-.07-.1-.21-.1-.32,0-.61,0-1.21,0-1.82s0-1.24,0-1.86c0-.1-.05-.27.09-.23h0c.11.06.12.18.12.31l0,3.73c0,.12,0,.23-.12.18h0m6.51-3.44h0L12.7,24.55l0,8.67,9.14,4.14h0l.05-8.69" fill="#142844"/>
              <path d="M7.91,24.61l-.16-.05-.14,0h0c-.19-.09-.11.22-.11.36,0,1.13,0,2.26,0,3.38,0,.35.12.42.29.5l0,0,.06,0c.17.07.28.08.27-.26,0-.72,0-1.43,0-2.16a.47.47,0,0,1,.13.28l.69,2.4a.49.49,0,0,0,.27.37l.15,0a.43.43,0,0,1,.16.05h0c.2.09.1-.23.1-.36,0-1.13,0-2.26,0-3.38,0-.3-.07-.4-.23-.48l-.06,0c-.18-.07-.35-.2-.34.2,0,.73,0,1.44,0,2.15a.68.68,0,0,1-.15-.31c-.22-.77-.44-1.54-.65-2.32a.54.54,0,0,0-.28-.39" fill="#fefefe"/>
              <path d="M5.74,26.25c.09-.41.17-.82.25-1.22H6l.25,1.46-.55-.25m.15-2.53c-.1,0-.18,0-.22.14-.15.63-.33,1.23-.48,1.86a14,14,0,0,0-.41,1.72.21.21,0,0,1,.15,0l.15.08.14.08c.1.05.19,0,.22-.16.09-.47.28-.51.58-.38l.12.06a.6.6,0,0,1,.36.55c0,.37.15.57.36.66l.14,0,.23.09c0-.07,0-.13,0-.18l-.84-4.15c0-.2-.11-.27-.2-.31l-.08,0,0,0-.06,0-.09-.05" fill="#fefefe"/>
              <path d="M11.65,26.32c-.25-.12-.29,0-.45.48a4.09,4.09,0,0,1-.32.95c-.1-.43-.18-.79-.26-1.16-.14-.65-.18-.81-.46-.94l-.35-.13v.13c0,.11,0,.21.08.32a11.23,11.23,0,0,1,.68,3.81c0,.2,0,.28.12.32l.11,0,.11,0,0,0a.3.3,0,0,0,.1.07c.1,0,.18,0,.16-.22a4.56,4.56,0,0,1,.36-2.22c.18-.39.31-.84.47-1.27-.17-.1-.3-.18-.39-.22" fill="#fefefe"/>
              <path d="M14.07,31.29l-.1-.05a1,1,0,0,1-.46-.87c0-.19,0-.37,0-.56a5.14,5.14,0,0,1,0-.56c0-.34.16-.56.45-.47l.11,0a.88.88,0,0,1,.46.73,3.89,3.89,0,0,1,0,1.45c-.07.31-.23.39-.45.29M13.44,27h0c-.15-.07-.08.16-.09.26,0,1.19,0,2.39,0,3.59,0,.11-.07.27.08.34h0c.15.07.05-.18.12-.27a1.12,1.12,0,0,0,.54.63.66.66,0,0,0,.2.06c.31,0,.43-.22.48-.57a5.07,5.07,0,0,0,0-1.6,1.31,1.31,0,0,0-.63-1,.58.58,0,0,0-.29-.05c-.12,0-.17.16-.3.2,0-.46,0-.88,0-1.3,0-.1.06-.26-.08-.33" fill="#fdfdfd"/>
              <path d="M16.7,32.48a1,1,0,0,1-.51-.82,4,4,0,0,1,0-1.29c.06-.33.22-.49.51-.38h0a1,1,0,0,1,.52.79,4.23,4.23,0,0,1,0,.7,3.66,3.66,0,0,1,0,.67c-.08.34-.26.45-.54.32m0-2.78-.05,0c-.32-.12-.54,0-.67.34a2.2,2.2,0,0,0-.09.73,5,5,0,0,0,0,.91,1.57,1.57,0,0,0,.65,1.07l.12.07a.44.44,0,0,0,.66-.29,3.27,3.27,0,0,0,0-1.94,1.28,1.28,0,0,0-.67-.87" fill="#fbfbfc"/>
              <path d="M19.82,29.91c-.13-.06-.1.1-.1.2,0,1.24,0,2.48,0,3.73,0,.1,0,.22.1.28h0c.14.05.1-.11.1-.21s0-.46,0-.7.11-.32.22-.33,0,0,0,0,.12.24.17.36c.16.38.3.76.45,1.14a.48.48,0,0,0,.19.28.32.32,0,0,0,.14,0c-.21-.55-.42-1.09-.65-1.63-.12-.28-.15-.46,0-.61a6.4,6.4,0,0,0,.57-.68L21,31.64c-.47,0-.65.68-1.07.94,0-.83,0-1.59,0-2.35,0-.11,0-.24-.1-.31h0" fill="#fdfdfd"/>
              <path d="M18.63,30.56h0c-.38-.16-.66,0-.74.45a5.39,5.39,0,0,0-.05.71c0,.27,0,.53,0,.8a1.43,1.43,0,0,0,.7,1.11l.05,0a.46.46,0,0,0,.68-.31c0-.11.1-.25,0-.39l-.05,0c-.09,0-.1.11-.11.2-.07.32-.26.32-.49.22a.87.87,0,0,1-.49-.71,4,4,0,0,1,0-1.46c.06-.34.23-.43.5-.31h0a.82.82,0,0,1,.47.71c0,.1,0,.28.11.33h.07c.12,0,.06-.23,0-.37a1.32,1.32,0,0,0-.67-1" fill="#fbfbfb"/>
              <path d="M15.37,27.89h0c-.14,0-.09.13-.09.23,0,.62,0,1.24,0,1.86s0,1.21,0,1.82c0,.11,0,.25.1.32h0c.12,0,.12-.06.12-.18l0-3.73c0-.13,0-.25-.12-.31" fill="#f3f4f5"/>
              <path d="M6,25H6c-.08.4-.16.81-.25,1.22l.55.25L6,25" fill="#31abe1"/>
              <path d="M14.08,28.82l-.11,0c-.29-.09-.41.13-.45.47a5.14,5.14,0,0,0,0,.56c0,.19,0,.37,0,.56a1,1,0,0,0,.46.87l.1.05c.22.1.38,0,.45-.29a3.89,3.89,0,0,0,0-1.45.88.88,0,0,0-.46-.73" fill="#142844"/>
              <path d="M16.72,30h0c-.29-.11-.45.05-.51.38a4,4,0,0,0,0,1.29,1,1,0,0,0,.51.82c.28.13.46,0,.54-.32a3.66,3.66,0,0,0,0-.67,4.23,4.23,0,0,0,0-.7,1,1,0,0,0-.52-.79" fill="#152844"/>
            </g>
          </g>
        </g>
      </g>
      <g>
        <polygon points="24.2 19.47 1.42 9.18 25.96 0.24 48.75 10.53 24.2 19.47" fill="#ebebeb"/>
        <g style="isolation: isolate">
          <g clip-path="url(#clip-path-2)">
            <g>
              <path d="M18.57,13.91a8.84,8.84,0,0,1-.94-.78c-.34-.28-.64-.58-1-.86-.09-.08,0-.13.07-.17l.11,0,.06,0,.06,0L17,12a.63.63,0,0,1,.37,0l3.66.89.15.05L21,13l-.14.06a1,1,0,0,1-.75,0,.94.94,0,0,0-.68,0l-.13.05c-.33.12-.44.23-.16.43.12.08.06.13-.05.17l-.17,0-.17.05a.58.58,0,0,0-.14.08m4.85-3.2c-.06-.2-.32-.33-.46-.49s-.28-.3,0-.4l.45-.13a6.7,6.7,0,0,1,.57.66,2.6,2.6,0,0,0,1.35.92c.18.06.14.11,0,.15l-.13,0h0l-.1,0-.11.05a.35.35,0,0,1-.32,0,11.74,11.74,0,0,0-3.29-.87,2.47,2.47,0,0,1-.29-.06l-.1,0,.36-.15c.31-.11.45-.08,1,.06l1,.24m-4.83.72.14-.06a.52.52,0,0,1,.15-.07.87.87,0,0,1,.5,0l2.18.4a1.14,1.14,0,0,0,.34,0c-.52-.23-1-.47-1.56-.7-.3-.12-.08-.17.11-.25l.06,0a.59.59,0,0,1,.53,0c.8.38,1.63.74,2.43,1.11.1.05.4.1.19.18h0l-.15.07-.16.07a.86.86,0,0,1-.47,0l-2.27-.4a.67.67,0,0,0-.3,0c.53.24,1,.48,1.57.7.26.11.17.16,0,.23l-.07,0-.05,0a.66.66,0,0,1-.58,0c-.79-.38-1.62-.74-2.43-1.11-.1,0-.39-.1-.18-.18h0m-5.16.49c-.26.09-.25.15,0,.26l5.75,2.59a.76.76,0,0,0,.72,0l5.29-1.93,3.54-1.29,0-.05L22.46,8.68h-.14L17.89,10.3l-4.44,1.61h0" fill="#2da9e0"/>
              <path d="M22.32,8.68h.14l9.91-3.61h0l-10,3.63" fill="#414a57"/>
              <path d="M28.74,11.52l0,.05,6.93-2.51,3.07-1.13h-.06l-9.92,3.61" fill="#414a57"/>
              <path d="M32.32,5.05h0l6.3,2.84h0c0-.08-.15-.12-.26-.17L32.72,5.17a.68.68,0,0,0-.4-.12" fill="#3b3d40"/>
              <path d="M31.51,9.17l-.13.05a2.6,2.6,0,0,1-1.27,0A4.07,4.07,0,0,1,29.42,9,1.28,1.28,0,0,1,29,8.66c-.14-.18-.08-.33.26-.47l.05,0a2.17,2.17,0,0,1,1.14-.08,2.58,2.58,0,0,1,1.41.63c.16.17,0,.34-.3.45m2.05-.74-.07,0a2.23,2.23,0,0,1-1.33,0c-.22-.07-.4-.16-.61-.24s-.34-.17-.47-.26-.18-.4.23-.55h0a2.23,2.23,0,0,1,1.23,0c.12,0,.33.07.24.14a.09.09,0,0,1-.06,0,.51.51,0,0,1-.32,0,1.42,1.42,0,0,0-.87,0h0c-.28.1-.35.23-.15.37a3.18,3.18,0,0,0,1.06.47,1.45,1.45,0,0,0,.9,0c.25-.09.38-.2.2-.34s-.16-.09-.06-.12l.07,0a.26.26,0,0,1,.3.1c.17.16,0,.35-.28.47m-5.69,2h0c-.18.07-.24,0-.32-.06l-2.6-1.17c-.08,0-.29-.07-.13-.14h0c.15-.06.22,0,.3.06l.94.42c.08-.08,0-.16.09-.23a1,1,0,0,1,.25-.14,2.16,2.16,0,0,1,1.19,0,4,4,0,0,1,1.17.51c.22.13.32.29.06.44l-.2.09a2.21,2.21,0,0,1-.87.09c0,.06.27.09.11.15M34.8,7.94a.31.31,0,0,1-.28,0l-2.7-1.22c-.07,0-.2-.07-.07-.12h0a.32.32,0,0,1,.3.05l1.7.77c.14-.32-.2-.62.13-.89H34a1.92,1.92,0,0,1,.06.53c0,.14.14.18.44.21l1.67.17a.26.26,0,0,1-.11.07.66.66,0,0,1-.35,0l-1.17-.13a1.06,1.06,0,0,0-.39,0h0c-.08.07-.09.16.08.23l.5.23c.07,0,.22.07.08.13h0M30,9.71a.37.37,0,0,1-.31-.05l-1.32-.59L27,8.45c-.07,0-.23-.06-.09-.12h0a.43.43,0,0,1,.32,0l2.7,1.22c.09,0,.17.08,0,.13h0m2.41-4.64h0L22.46,8.68l6.28,2.84,9.92-3.61h0l-6.3-2.84" fill="#142844"/>
              <path d="M18.88,11.3a.52.52,0,0,0-.15.07l-.14.06h0c-.21.08.08.13.18.18.81.37,1.64.73,2.43,1.11a.66.66,0,0,0,.58,0l.05,0,.07,0c.18-.07.27-.12,0-.23-.54-.22-1-.46-1.57-.7a.67.67,0,0,1,.3,0l2.27.4a.86.86,0,0,0,.47,0l.16-.07.15-.07h0c.21-.08-.09-.13-.19-.18-.8-.37-1.63-.73-2.43-1.11a.59.59,0,0,0-.53,0l-.06,0c-.19.08-.41.13-.11.25.54.23,1,.47,1.56.7a1.14,1.14,0,0,1-.34,0l-2.18-.4a.87.87,0,0,0-.5,0" fill="#fefefe"/>
              <path d="M18.44,13l-.71-.53.05,0,1.26.34-.6.21m-1.73-.9c-.11,0-.16.09-.07.17.35.28.65.58,1,.86a8.84,8.84,0,0,0,.94.78.58.58,0,0,1,.14-.08l.17-.05.17,0c.11,0,.17-.09.05-.17-.28-.2-.17-.31.16-.43l.13-.05a.94.94,0,0,1,.68,0,1,1,0,0,0,.75,0L21,13l.24-.1-.15-.05L17.39,12A.63.63,0,0,0,17,12l-.08,0-.06,0-.06,0-.11,0" fill="#fefefe"/>
              <path d="M23,9.82c-.28.1-.21.17,0,.4s.4.29.46.49l-1-.24c-.59-.14-.73-.17-1-.06l-.36.15.1,0a2.47,2.47,0,0,0,.29.06,11.74,11.74,0,0,1,3.29.87.35.35,0,0,0,.32,0l.11-.05.1,0h0l.13,0c.1,0,.14-.09,0-.15A2.6,2.6,0,0,1,24,10.35a6.7,6.7,0,0,0-.57-.66L23,9.82" fill="#fefefe"/>
              <path d="M28.41,10.13l-.12,0a1.46,1.46,0,0,1-1,0L26.9,10a3.71,3.71,0,0,1-.4-.19c-.21-.13-.28-.27,0-.4l.11,0a1.38,1.38,0,0,1,.88,0,2.85,2.85,0,0,1,1.05.48c.17.13.11.25-.13.34m-3.58-1h0c-.16.07.05.1.13.14l2.6,1.17c.08,0,.14.13.32.06h0c.16-.06-.09-.09-.11-.15a2.21,2.21,0,0,0,.87-.09l.2-.09c.26-.15.16-.31-.06-.44a4,4,0,0,0-1.17-.51,2.16,2.16,0,0,0-1.19,0,1,1,0,0,0-.25.14c-.09.07,0,.15-.09.23l-.94-.42c-.08,0-.15-.12-.3-.06" fill="#fdfdfd"/>
              <path d="M31.26,9.09a1.63,1.63,0,0,1-1,0,3,3,0,0,1-.94-.42c-.2-.14-.19-.28.11-.4h0a1.73,1.73,0,0,1,1,0,2.9,2.9,0,0,1,.55.2,3.28,3.28,0,0,1,.46.24c.18.16.13.29-.18.4m-2-.92-.05,0c-.34.14-.4.29-.26.47a1.28,1.28,0,0,0,.47.29,4.07,4.07,0,0,0,.69.27,2.6,2.6,0,0,0,1.27,0l.13-.05c.32-.11.46-.28.3-.45a2.58,2.58,0,0,0-1.41-.63,2.17,2.17,0,0,0-1.14.08" fill="#fbfbfc"/>
              <path d="M31.75,6.56c-.13.05,0,.09.07.12l2.7,1.22a.31.31,0,0,0,.28,0h0c.14-.06,0-.09-.08-.13l-.5-.23c-.17-.07-.16-.16-.08-.23h0a1.06,1.06,0,0,1,.39,0l1.17.13a.66.66,0,0,0,.35,0,.26.26,0,0,0,.11-.07l-1.67-.17c-.3,0-.46-.07-.44-.21A1.92,1.92,0,0,0,34,6.49H33.9c-.33.27,0,.57-.13.89l-1.7-.77a.32.32,0,0,0-.3-.05h0" fill="#fdfdfd"/>
              <path d="M31.32,7.42h0c-.41.15-.5.36-.23.55s.31.17.47.26.39.17.61.24a2.23,2.23,0,0,0,1.33,0l.07,0c.33-.12.45-.31.28-.47a.26.26,0,0,0-.3-.1l-.07,0c-.1,0,0,.08.06.12s0,.25-.2.34a1.45,1.45,0,0,1-.9,0,3.18,3.18,0,0,1-1.06-.47c-.2-.14-.13-.27.15-.37h0a1.42,1.42,0,0,1,.87,0,.51.51,0,0,0,.32,0,.09.09,0,0,0,.06,0c.09-.07-.12-.11-.24-.14a2.23,2.23,0,0,0-1.23,0" fill="#fbfbfb"/>
              <path d="M26.91,8.32h0c-.14.06,0,.09.09.12l1.35.62,1.32.59a.37.37,0,0,0,.31.05h0c.13,0,.05-.09,0-.13l-2.7-1.22a.43.43,0,0,0-.32,0" fill="#f3f4f5"/>
              <path d="M17.78,12.45l-.05,0,.71.53.6-.21-1.26-.34" fill="#31abe1"/>
              <path d="M26.61,9.32l-.11,0c-.28.13-.21.27,0,.4a3.71,3.71,0,0,0,.4.19l.42.18a1.46,1.46,0,0,0,1,0l.12,0c.24-.09.3-.21.13-.34a2.85,2.85,0,0,0-1.05-.48,1.38,1.38,0,0,0-.88,0" fill="#142844"/>
              <path d="M29.47,8.27h0c-.3.12-.31.26-.11.4a3,3,0,0,0,.94.42,1.63,1.63,0,0,0,1,0c.31-.11.36-.24.18-.4A3.28,3.28,0,0,0,31,8.45a2.9,2.9,0,0,0-.55-.2,1.73,1.73,0,0,0-1,0" fill="#152844"/>
            </g>
          </g>
        </g>
      </g>
      <g>
        <polygon points="48.75 10.53 48.59 40.83 24.05 49.76 24.2 19.47 48.75 10.53" fill="#f0f0f0"/>
        <g style="isolation: isolate">
          <g clip-path="url(#clip-path-3)">
            <g>
              <path d="M28.2,35.8c.09-.68.29-1.31.43-1.93s.34-1.41.49-2.12c.05-.2.13-.27.23-.31l.1,0h.06l0,0,.09,0c.08,0,.16,0,.2.12l.87,3.21s0,.1,0,.16l-.24.11-.14.06c-.22.08-.35,0-.37-.33s-.16-.28-.38-.22l-.13,0a.9.9,0,0,0-.59.82c0,.21-.12.28-.23.32l-.15,0-.15,0a.65.65,0,0,0-.16.09m6.32-4.58a6.33,6.33,0,0,0,.33-1.15c.16-.56.2-.71.47-.81l.39-.1c-.15.53-.29,1.05-.48,1.56a5.57,5.57,0,0,0-.37,2.37c0,.21-.06.29-.16.33l-.11,0h0l-.11.06-.11.05c-.09,0-.15,0-.13-.19a6,6,0,0,0-.71-3,2.25,2.25,0,0,1-.08-.24V30a3.17,3.17,0,0,1,.37-.16c.28-.11.32,0,.47.52.08.28.16.55.27.87m-3.39-.41a.51.51,0,0,0,.15-.07l.16-.08a.2.2,0,0,1,.29.14l.67,1.65a.25.25,0,0,0,.16.16c0-.66,0-1.34,0-2,0-.37.16-.39.35-.47l.06,0c.17-.07.25,0,.25.25,0,1.07,0,2.12,0,3.19,0,.13.09.34-.11.42h0a.65.65,0,0,0-.16.09l-.16.08c-.11,0-.21,0-.28-.14-.23-.57-.48-1.13-.71-1.7,0-.06,0-.14-.14-.15,0,.68,0,1.36,0,2,0,.31-.1.39-.27.45l-.07,0,0,0c-.18.06-.31.1-.3-.24,0-1.06,0-2.12,0-3.18,0-.13-.09-.35.11-.42h0m-3.29-1c-.24.09-.3.21-.3.52,0,2.48,0,5,0,7.46,0,.35.06.42.35.32l5.06-1.86L36.28,35l.08-.1,0-8.15-.08-.05-4.23,1.54-4.23,1.53h0" fill="#2da9e0"/>
              <path d="M36.32,26.72l.08.05,9.46-3.45v-.07l-9.54,3.47" fill="#414a57"/>
              <path d="M36.36,34.92l-.08.1,6.6-2.39,2.94-1.08v0a.06.06,0,0,0,0,0l-9.45,3.44" fill="#414a57"/>
              <path d="M45.86,23.25v.06l0,8.17v.07a.66.66,0,0,0,.07-.45c0-2.49,0-5,0-7.45,0-.14,0-.32-.07-.4" fill="#3b3d40"/>
              <path d="M40.57,31.26l-.12,0c-.36.07-.56-.12-.67-.48a3.36,3.36,0,0,1,0-.82,2.06,2.06,0,0,1,.09-.76,1.29,1.29,0,0,1,.69-.85l0,0a.5.5,0,0,1,.7.28,2.74,2.74,0,0,1,0,1.81,1.15,1.15,0,0,1-.69.8m2-.71-.06,0a.52.52,0,0,1-.72-.48,5.69,5.69,0,0,1,0-.72,5.62,5.62,0,0,1,0-.7,1.27,1.27,0,0,1,.77-1h0a.5.5,0,0,1,.7.38c0,.11.09.27,0,.37l-.07.05c-.1,0-.09-.14-.11-.23-.06-.31-.24-.37-.49-.28h0a.8.8,0,0,0-.52.69A3.45,3.45,0,0,0,42,30c.06.31.25.37.51.28a.74.74,0,0,0,.5-.6c0-.1,0-.24.12-.28h0c.15,0,.07.2,0,.33a1.18,1.18,0,0,1-.69.82m-5.38,1.9h0c-.16.06-.09-.15-.09-.25,0-1.12,0-2.25,0-3.37,0-.1-.07-.26.09-.32h0c.15-.06.09.14.09.24,0,.38,0,.78,0,1.21.14-.14.19-.32.31-.43a1.08,1.08,0,0,1,.3-.18c.3-.11.56,0,.65.41a4.07,4.07,0,0,1,0,1.48,1.21,1.21,0,0,1-.49.91l-.21.11a.47.47,0,0,1-.56-.16c-.07.14,0,.29-.12.35m6.6-2.4c-.13.05-.1-.1-.1-.19,0-1.17,0-2.33,0-3.5,0-.1,0-.22.1-.27h0c.13,0,.1.11.1.21,0,.71,0,1.43,0,2.22.44-.59.62-1.33,1.11-1.75l.06.06c-.19.36-.36.74-.58,1.08s-.15.42,0,.59.45.66.67,1a.28.28,0,0,1-.14.1c-.09,0-.15,0-.2-.1s-.31-.48-.47-.71c-.05-.07-.09-.23-.17-.2s0,0,0,0a.67.67,0,0,0-.23.49c0,.21,0,.43,0,.65s0,.22-.1.28h0m-4.62,1.68c-.15.06-.11-.11-.11-.21,0-.57,0-1.14,0-1.71s0-1.16,0-1.75c0-.09,0-.22.1-.28h0c.12-.05.13.06.13.19l0,3.5c0,.11,0,.22-.13.27h0m6.73-8.42h0L36.4,26.77l0,8.15,9.45-3.44h0l0-8.17" fill="#142844"/>
              <path d="M31.44,30.66l-.16.08a.51.51,0,0,1-.15.07h0c-.2.07-.11.29-.11.42,0,1.06,0,2.12,0,3.18,0,.34.12.3.3.24l0,0,.07,0c.17-.06.28-.14.27-.45,0-.66,0-1.34,0-2,.1,0,.11.09.14.15.23.57.48,1.13.71,1.7.07.17.17.18.28.14l.16-.08a.65.65,0,0,1,.16-.09h0c.2-.08.11-.29.11-.42,0-1.07,0-2.12,0-3.19,0-.28-.08-.32-.25-.25l-.06,0c-.19.08-.36.1-.35.47,0,.66,0,1.34,0,2a.25.25,0,0,1-.16-.16l-.67-1.65a.2.2,0,0,0-.29-.14" fill="#fefefe"/>
              <path d="M29.2,33.93c.09-.46.17-.91.25-1.35l.06,0c.08.37.17.74.26,1.16l-.57.21m.15-2.49c-.1,0-.18.11-.23.31-.15.71-.34,1.41-.49,2.12s-.34,1.25-.43,1.93a.65.65,0,0,1,.16-.09l.15,0,.15,0c.11,0,.19-.11.23-.32a.9.9,0,0,1,.59-.82l.13,0c.22-.06.36-.06.38.22s.15.41.37.33l.14-.06.24-.11c0-.06,0-.12,0-.16l-.87-3.21c0-.15-.12-.16-.2-.12l-.09,0,0,0h-.06l-.1,0" fill="#fefefe"/>
              <path d="M35.32,29.26c-.27.1-.31.25-.47.81a6.33,6.33,0,0,1-.33,1.15c-.11-.32-.19-.59-.27-.87-.15-.51-.19-.63-.47-.52a3.17,3.17,0,0,0-.37.16v.12a2.25,2.25,0,0,0,.08.24,6,6,0,0,1,.71,3c0,.2,0,.22.13.19l.11-.05.11-.06h0l.11,0c.1,0,.18-.12.16-.33a5.57,5.57,0,0,1,.37-2.37c.19-.51.33-1,.48-1.56l-.39.1" fill="#fefefe"/>
              <path d="M37.82,32a.2.2,0,0,1-.11,0c-.28.06-.45-.09-.47-.44,0-.17,0-.35,0-.53a4.69,4.69,0,0,1,0-.53,1,1,0,0,1,.47-.8l.11-.05c.24-.09.41,0,.48.32a3.52,3.52,0,0,1,0,1.37.77.77,0,0,1-.47.63m-.66-3.47h0c-.16.06-.09.22-.09.32,0,1.12,0,2.25,0,3.37,0,.1-.07.31.09.25h0c.15-.06.05-.21.12-.35a.47.47,0,0,0,.56.16l.21-.11a1.21,1.21,0,0,0,.49-.91,4.07,4.07,0,0,0,0-1.48c-.09-.38-.35-.52-.65-.41a1.08,1.08,0,0,0-.3.18c-.12.11-.17.29-.31.43,0-.43,0-.83,0-1.21,0-.1.06-.3-.09-.24" fill="#fdfdfd"/>
              <path d="M40.54,31c-.29.1-.46,0-.52-.35a3.08,3.08,0,0,1,0-1.21.91.91,0,0,1,.52-.76h0c.28-.1.45,0,.54.32a2.16,2.16,0,0,1,0,.63,3.83,3.83,0,0,1,0,.66.88.88,0,0,1-.56.72m0-2.62,0,0a1.29,1.29,0,0,0-.69.85,2.06,2.06,0,0,0-.09.76,3.36,3.36,0,0,0,0,.82c.11.36.31.55.67.48l.12,0a1.15,1.15,0,0,0,.69-.8,2.74,2.74,0,0,0,0-1.81.5.5,0,0,0-.7-.28" fill="#fbfbfc"/>
              <path d="M43.77,26.09c-.13.05-.1.17-.1.27,0,1.17,0,2.33,0,3.5,0,.09,0,.24.1.19h0c.14-.06.1-.18.1-.28s0-.44,0-.65a.67.67,0,0,1,.23-.49s0,0,0,0,.12.13.17.2c.16.23.32.47.47.71s.11.13.2.1a.28.28,0,0,0,.14-.1c-.22-.34-.44-.68-.67-1s-.16-.3,0-.59.39-.72.58-1.08L45,26.77c-.49.42-.67,1.16-1.11,1.75,0-.79,0-1.51,0-2.22,0-.1,0-.25-.1-.21h0" fill="#fdfdfd"/>
              <path d="M42.54,27.65h0a1.27,1.27,0,0,0-.77,1,5.62,5.62,0,0,0,0,.7,5.69,5.69,0,0,0,0,.72.52.52,0,0,0,.72.48l.06,0a1.18,1.18,0,0,0,.69-.82c0-.13.11-.33,0-.33h0c-.09,0-.1.18-.12.28a.74.74,0,0,1-.5.6c-.26.09-.45,0-.51-.28a3.45,3.45,0,0,1,0-1.36.8.8,0,0,1,.52-.69h0c.25-.09.43,0,.49.28,0,.09,0,.26.11.23l.07-.05c.13-.1.07-.26,0-.37a.5.5,0,0,0-.7-.38" fill="#fbfbfb"/>
              <path d="M39.16,27.77h0c-.15.06-.1.19-.1.28,0,.59,0,1.17,0,1.75s0,1.14,0,1.71c0,.1,0,.27.11.21h0c.13-.05.13-.16.13-.27l0-3.5c0-.13,0-.24-.13-.19" fill="#f3f4f5"/>
              <path d="M29.51,32.56l-.06,0c-.08.44-.16.89-.25,1.35l.57-.21c-.09-.42-.18-.79-.26-1.16" fill="#31abe1"/>
              <path d="M37.83,29.66l-.11.05a1,1,0,0,0-.47.8,4.69,4.69,0,0,0,0,.53c0,.18,0,.36,0,.53,0,.35.19.5.47.44a.2.2,0,0,0,.11,0,.77.77,0,0,0,.47-.63,3.52,3.52,0,0,0,0-1.37c-.07-.32-.24-.41-.48-.32" fill="#142844"/>
              <path d="M40.56,28.66h0a.91.91,0,0,0-.52.76,3.08,3.08,0,0,0,0,1.21c.06.32.23.45.52.35a.88.88,0,0,0,.56-.72,3.83,3.83,0,0,0,0-.66,2.16,2.16,0,0,0,0-.63c-.09-.3-.26-.42-.54-.32" fill="#152844"/>
            </g>
          </g>
        </g>
      </g>
    </g>
  </g>
</svg>
