<svg id="Capa_1" data-name="Capa 1" xmlns="http://www.w3.org/2000/svg" xmlns:xlink="http://www.w3.org/1999/xlink" width="50" height="50" viewBox="0 0 50 50">
  <defs>
    <clipPath id="clip-path">
      <polygon points="24.04 49.76 1.25 39.47 1.41 9.18 24.2 19.47 24.04 49.76" fill="none"/>
    </clipPath>
    <clipPath id="clip-path-2">
      <polygon points="24.2 19.47 1.41 9.18 25.96 0.24 48.75 10.53 24.2 19.47" fill="none"/>
    </clipPath>
    <clipPath id="clip-path-3">
      <polygon points="48.75 10.53 48.59 40.82 24.04 49.76 24.2 19.47 48.75 10.53" fill="none"/>
    </clipPath>
  </defs>
  <g id="Figment_lido">
    <g style="isolation: isolate">
      <g>
        <polygon points="24.04 49.76 1.25 39.47 1.41 9.18 24.2 19.47 24.04 49.76" fill="#402d9e"/>
        <g style="isolation: isolate">
          <g clip-path="url(#clip-path)">
            <path d="M12.86,22.09a5.49,5.49,0,0,0-2-.54l-.1,0c-.21,0-.43,0-.65,0l-.74.15H9.22l-.05,0h0l-.14,0,0,0H9L8.67,22a1.62,1.62,0,0,1-.36.2l-.06,0v0l0,0a1.71,1.71,0,0,1-.27.2l-.11.09a1.09,1.09,0,0,1-.25.23l0,0v0l-.27.32c-.1.13-.19.26-.29.38v0l0,0H7l-.09.15,0,.07h0l0,.07v0h0l0,0a2.75,2.75,0,0,1-.2.38l0,.11v0l0,.06h0l0,0h0l0,0,0,.08v0q-.13.35-.24.69l0,0v0l0,.07A10.5,10.5,0,0,0,5.75,28c0,1.5-.08,3-.07,4.5v0h0c.05.17.09.33.13.5h0l0,.09,0,.1,0,0h0l0,0h0l0,0,0,.07.17.25.29.27.17.09a.88.88,0,0,0,.46.1l.07,0,.23-.14.09-.11,0,0h0A1.57,1.57,0,0,0,7.66,33c0-1.25,0-2.5.07-3.75a1.24,1.24,0,0,1,.13-.64l0-.06v0l0,0h0l0,0,0,0H8l0,0a.22.22,0,0,1,.17-.11l0,0h0l.1,0h0a.77.77,0,0,1,.39.07,1.11,1.11,0,0,1,.35.28v0l.07.07,0,0a1.18,1.18,0,0,1,.23.35l0,.11v0l0,.09a1,1,0,0,1,.1.33,1.52,1.52,0,0,1,.06.47c0,1.27,0,2.55-.07,3.82a2.9,2.9,0,0,0,.11,1v0l.06.14a3.59,3.59,0,0,0,.27.47l0,0,0,0a1.61,1.61,0,0,0,.46.35.81.81,0,0,0,.22.07c.37.08.72-.25.77-.74s0-1,0-1.5c0-.87,0-1.75,0-2.63a1.35,1.35,0,0,1,.09-.55.68.68,0,0,1,.25-.37.42.42,0,0,1,.3-.1.61.61,0,0,1,.37.06l.17.1,0,.06.11.09a.88.88,0,0,1,.26.31,2.15,2.15,0,0,1,.38,1.23l-.06,3.9a3,3,0,0,0,.07.78v0l0,.1,0,.08,0,.05,0,0,0,0v0l0,0,0,0,0,0v0h0v0l0,0,0,0,.1.14,0,0,0,0,0,0h0a1.65,1.65,0,0,0,.43.31.86.86,0,0,0,.3.09h0l.2,0h0l0,0,.11-.09h0l.13-.18,0,0v0h0a4.71,4.71,0,0,0,.11-1.32c0-1.06,0-2.11.05-3.17a1.08,1.08,0,0,1,.09-.46v0l.06-.11v0h0v0a.34.34,0,0,1,.14-.15.27.27,0,0,1,.18-.1h.21a.48.48,0,0,1,.28.06,1.11,1.11,0,0,1,.24.16,1.32,1.32,0,0,1,.3.32l0,0,.13.21a2,2,0,0,1,.27.86v.23a1.76,1.76,0,0,1,0,.46,2.44,2.44,0,0,1,0,.47,3.68,3.68,0,0,1,0,.47,3.65,3.65,0,0,1,0,.47c0,.32,0,.62,0,.93s0,.33,0,.48a2.44,2.44,0,0,1,0,.47c0,.16,0,.31,0,.47v.11l.05.23v0l0,.06,0,0c0,.12.09.24.14.36l.21.34,0,0a1.36,1.36,0,0,0,.39.34h0l.18.07a1.28,1.28,0,0,0,.33.06H19l.2-.1h0v0h0v0l.08-.08,0,0h0l0,0a1.94,1.94,0,0,0,.15-.8c0-1.23,0-2.48.06-3.71q0-.64,0-1.32c0-.41-.08-.83-.14-1.25,0-.21-.06-.41-.1-.62v0a3.2,3.2,0,0,1-.1-.42v0a2.83,2.83,0,0,1-.09-.37v0l-.36-1.19V29.6l-.05-.14,0-.09,0-.05-.1-.26h0V29h0l0,0v0h0V28.8l0,0h0l0-.09,0-.08v0l0-.07c-.09-.2-.18-.39-.26-.58v0l0,0v0l0,0,0,0c-.08-.15-.16-.31-.23-.47l-.11-.19-.25-.45,0,0v0l0,0,0,0,0,0c-.11-.17-.22-.34-.32-.51l-.12-.18,0-.07h0l0,0,0,0h0l0,0,0,0h0l0,0,0,0v0l0,0a1.74,1.74,0,0,1-.19-.26l-.05-.06-.05-.08h0v0l0,0c-.23-.26-.45-.54-.69-.8L15.48,24h0L15.4,24h0a4.13,4.13,0,0,1-.37-.36h0c-.17-.13-.32-.27-.48-.41h0l-.45-.34h0l0,0c-.28-.18-.57-.37-.86-.52l-.3-.16" fill="#fff" opacity="0.8"/>
          </g>
        </g>
      </g>
      <g>
        <polygon points="24.2 19.47 1.41 9.18 25.96 0.24 48.75 10.53 24.2 19.47" fill="#4631ad"/>
        <g style="isolation: isolate">
          <g clip-path="url(#clip-path-2)">
            <path d="M19.62,7.39a8.62,8.62,0,0,0-1.9.94l-.1,0-.46.37-.44.46v0l0,0h0l0,0h0l-.07.09v0h0l-.12.22a1.19,1.19,0,0,1-.11.26V10h0v0a.39.39,0,0,1,0,.21l0,.09a.33.33,0,0,1,0,.22h0v0c0,.08,0,.17,0,.25s.05.19.07.29h0v0h0l0,.1,0,0h0l0,0h0v0a1,1,0,0,1,.14.24l0,.07h0l0,0h0l0,0h0l0,0,0,0h0l.35.36v0h0l0,0a6.13,6.13,0,0,0,1.59,1c1.11.5,2.19,1,3.34,1.49h0l.47.08h.74l.41-.08.2-.06a1.65,1.65,0,0,0,.42-.22l0-.05a1.22,1.22,0,0,1,.07-.17l0-.09v0h0a1,1,0,0,0-.5-.35l-2.77-1.26c-.18-.08-.34-.17-.38-.27l0,0h0v0h0v0h0v0a.11.11,0,0,1,.05-.13v0l0,0,.06-.07h0a1.22,1.22,0,0,1,.34-.2,2.56,2.56,0,0,1,.47-.1h0l.11,0h.06a2,2,0,0,1,.42,0h.26a1.13,1.13,0,0,1,.32.05,1.49,1.49,0,0,1,.39.12L26.1,13a3.69,3.69,0,0,0,.81.25h.84a3,3,0,0,0,.6-.14l.22-.1c.34-.18.35-.48,0-.66s-.73-.34-1.11-.51L25.54,11a.89.89,0,0,1-.35-.23.24.24,0,0,1-.09-.26.34.34,0,0,1,.15-.2.87.87,0,0,1,.32-.19l.2-.06h.08L26,10a2,2,0,0,1,.43,0,2.75,2.75,0,0,1,1.21.19l2.89,1.29a3.08,3.08,0,0,0,.65.22h1a3.43,3.43,0,0,0,.55-.13,1.57,1.57,0,0,0,.29-.14h0l0,0a1.13,1.13,0,0,1,.1-.13h0v-.12h0l0-.13v0h0a3.65,3.65,0,0,0-.91-.48L29.88,9.34a.6.6,0,0,1-.29-.2h0l0-.07h0s0-.09,0-.13a.15.15,0,0,1,.06-.13h0v0l0,0h0l0,0h0l0,0,0,0h0A.74.74,0,0,1,30,8.5l.3-.08a3,3,0,0,1,.46-.07H31a2.43,2.43,0,0,1,.84.13h0l.05,0h0l.08,0a2.16,2.16,0,0,1,.34.16,2.83,2.83,0,0,1,.35.15,2.84,2.84,0,0,1,.35.16,2.16,2.16,0,0,1,.34.16,7.41,7.41,0,0,1,.7.31,2.16,2.16,0,0,1,.34.16,1.61,1.61,0,0,1,.35.16l.36.15h0l.07,0,.21,0h.13l.38,0h.46A4.16,4.16,0,0,0,37,10h0l.18-.08a1.47,1.47,0,0,0,.28-.16h0v0s.05-.1.08-.14v0h0V9.39h0v0A1.2,1.2,0,0,0,37.07,9L34.31,7.78c-.32-.14-.65-.28-1-.41s-.69-.22-1.06-.33l-.54-.14h0l-.39-.08h0a2,2,0,0,1-.35-.07h0l-1.16-.19h-.06l-.15,0H29.4l-.27,0h-.61l-.63,0h-.18l-.52,0H25l-.33,0h-.3l-1.11.13-.22,0h-.15a4.85,4.85,0,0,1-.55.09h0l-.66.13h0L21.07,7H21c-.35.1-.7.2-1,.31l-.35.12" fill="#fff" opacity="0.8"/>
          </g>
        </g>
      </g>
      <g>
        <polygon points="48.75 10.53 48.59 40.82 24.04 49.76 24.2 19.47 48.75 10.53" fill="#4832b1"/>
        <g style="isolation: isolate">
          <g clip-path="url(#clip-path-3)">
            <path d="M36.43,22.73a9,9,0,0,0-2.2,1.2l-.12.06-.7.6-.81.79,0,0,0,0,0,0,0,0v0l0,0h0l0,.07v0l-.16.17,0,0,0,0c-.1.14-.22.28-.33.42a5.25,5.25,0,0,1-.39.51l-.06.09,0,0,0,0a4.78,4.78,0,0,1-.29.44l-.12.18a3.35,3.35,0,0,1-.27.45l0,0v0c-.1.2-.19.38-.29.56s-.21.42-.31.63l0,0,0,0h0l-.1.23,0,.1,0,0,0,.1v0l0,0,0,.05c-.06.18-.13.36-.21.55l-.06.16v0l0,.08v0l0,.05h0l0,.05,0,.12h0c-.09.3-.17.6-.25.9l0,0V32a12.1,12.1,0,0,0-.36,2.77c0,1.5,0,3,0,4.51h0c.05.13.09.25.15.38h0l0,0,0,.07,0,0h0l0,0h0l0,0,.05,0,.19.09h.32l.19,0a1.55,1.55,0,0,0,.5-.3l.08-.08.25-.35.1-.18,0-.05h0A2.25,2.25,0,0,0,30.9,38c0-1.26,0-2.52,0-3.78a1.78,1.78,0,0,1,.13-.74l0-.09v0l0-.08h0l0,0,0-.06,0,0,0-.07a.61.61,0,0,1,.18-.26l0,0,0,0,.12-.12h0a1.28,1.28,0,0,1,.43-.27.63.63,0,0,1,.38,0h0l.08,0h0a.37.37,0,0,1,.25.15l0,.07h0l0,.06a.46.46,0,0,1,.12.24.86.86,0,0,1,.07.41c0,1.28,0,2.56,0,3.85a1.9,1.9,0,0,0,.13.85l0,0,.06.1a2.44,2.44,0,0,0,.31.22h.07a1,1,0,0,0,.5,0,1.34,1.34,0,0,0,.24-.12,2.07,2.07,0,0,0,.84-1.4c0-.53,0-1,0-1.53,0-.88,0-1.76,0-2.64a1.73,1.73,0,0,1,.1-.63,1.86,1.86,0,0,1,.27-.59,1.27,1.27,0,0,1,.33-.36,1.19,1.19,0,0,1,.4-.26l.18,0,.06,0,.12,0a.4.4,0,0,1,.29.08,1,1,0,0,1,.44.89c0,1.31,0,2.6,0,3.91a2.26,2.26,0,0,0,.1.71v0l0,.07,0,0,0,0,0,0,0,0v0l0,0,0,0h0l0,0h0l0,0h0l.11.06h.12a1.12,1.12,0,0,0,.47-.07,1.73,1.73,0,0,0,.33-.17l0,0,0,0,.21-.22,0,0h0l0-.06.13-.18v0l.14-.29,0-.06v0a4.78,4.78,0,0,0,.1-1.4c0-1.06,0-2.12,0-3.18a1.69,1.69,0,0,1,.09-.53v-.06l.06-.16,0,0v0l0,0A1.43,1.43,0,0,1,40,29.9a.82.82,0,0,1,.2-.25h0l0,0,0,0h0l0,0h0l0,0,0,0h0a1.08,1.08,0,0,1,.32-.19.75.75,0,0,1,.26-.05.53.53,0,0,1,.33.05h0l.15.1a.77.77,0,0,1,.3.61v.21a1.85,1.85,0,0,1,0,.47,3.68,3.68,0,0,1,0,.47,3.84,3.84,0,0,1,0,.48,2.49,2.49,0,0,1,0,.47c0,.3,0,.62,0,.93s0,.32,0,.48a2.58,2.58,0,0,1,0,.48c0,.15,0,.31,0,.46v0l0,.06.06.19v0l0,0,0,0a2.11,2.11,0,0,0,.17.22,1.88,1.88,0,0,0,.23.16l0,0a.89.89,0,0,0,.43,0h0l.19-.08a2.74,2.74,0,0,0,.36-.23h0l0,0h0l0,0,.21-.27,0,0v0h0v0l.08-.14,0-.07v0l0-.06a2.67,2.67,0,0,0,.14-.92c0-1.24,0-2.49,0-3.73,0-.44,0-.87,0-1.28s-.1-.75-.17-1.12c0-.17-.08-.35-.13-.52v0a2.55,2.55,0,0,1-.11-.33v0a2,2,0,0,1-.1-.29v0L43.05,25h0v0L43,24.9l0-.07,0,0-.12-.17h0l0,0v0h0l0,0v0h0v0h0l0-.05,0-.05v0l0,0a1.93,1.93,0,0,1-.29-.35l0,0v0h0l0,0,0,0a1.28,1.28,0,0,1-.26-.26l-.12-.09a2.09,2.09,0,0,1-.29-.23h0l0,0h0l0,0v0a2.16,2.16,0,0,1-.36-.22l-.14-.07,0,0h0l0,0h0l0,0h0l0,0h0a.49.49,0,0,1-.21-.08l-.06,0-.06,0h-.08a6,6,0,0,0-.76-.19l-.16,0h-.11a1.14,1.14,0,0,1-.41,0h-.54l-.5.06h-.06a8.48,8.48,0,0,0-.94.22l-.34.12" fill="#fff" opacity="0.8"/>
          </g>
        </g>
      </g>
    </g>
  </g>
  <g>
    <rect x="46.2" y="41.66" width="1.52" height="1.51" fill="#fff"/>
    <rect x="46.2" y="40.15" width="1.52" height="1.52" fill="#fff"/>
    <rect x="46.2" y="8.34" width="1.52" height="1.51" fill="#fff"/>
    <rect x="46.2" y="6.82" width="1.52" height="1.52" fill="#fff"/>
    <rect x="44.69" y="43.18" width="1.51" height="1.52" fill="#fff"/>
    <rect x="44.69" y="41.66" width="1.51" height="1.51" fill="#ef5454"/>
    <rect x="44.69" y="40.15" width="1.51" height="1.52" fill="#ef5454"/>
    <rect x="44.69" y="38.63" width="1.51" height="1.51" fill="#fff"/>
    <rect x="44.69" y="9.85" width="1.51" height="1.52" fill="#fff"/>
    <rect x="44.69" y="8.34" width="1.51" height="1.51" fill="#aa0707"/>
    <rect x="44.69" y="6.82" width="1.51" height="1.52" fill="#ef5454"/>
    <rect x="44.69" y="5.31" width="1.51" height="1.51" fill="#fff"/>
    <rect x="43.18" y="44.69" width="1.52" height="1.51" fill="#fff"/>
    <rect x="43.18" y="43.18" width="1.52" height="1.52" fill="#aa0707"/>
    <rect x="43.18" y="41.66" width="1.52" height="1.51" fill="#cc1d1d"/>
    <rect x="43.18" y="40.15" width="1.52" height="1.52" fill="#cc1d1d"/>
    <rect x="43.18" y="38.63" width="1.52" height="1.51" fill="#ef5454"/>
    <rect x="43.18" y="37.12" width="1.52" height="1.52" fill="#fff"/>
    <rect x="43.18" y="11.37" width="1.52" height="1.51" fill="#fff"/>
    <rect x="43.18" y="9.85" width="1.52" height="1.52" fill="#aa0707"/>
    <rect x="43.18" y="8.34" width="1.52" height="1.51" fill="#cc1d1d"/>
    <rect x="43.18" y="6.82" width="1.52" height="1.52" fill="#cc1d1d"/>
    <rect x="43.18" y="5.31" width="1.52" height="1.51" fill="#ef5454"/>
    <rect x="43.18" y="3.79" width="1.52" height="1.52" fill="#fff"/>
    <rect x="41.66" y="46.2" width="1.51" height="1.51" fill="#fff"/>
    <rect x="41.66" y="44.69" width="1.51" height="1.51" fill="#aa0707"/>
    <rect x="41.66" y="43.18" width="1.51" height="1.52" fill="#cc1d1d"/>
    <rect x="41.66" y="41.66" width="1.51" height="1.51" fill="#cc1d1d"/>
    <rect x="41.66" y="40.15" width="1.51" height="1.52" fill="#cc1d1d"/>
    <rect x="41.66" y="38.63" width="1.51" height="1.51" fill="#cc1d1d"/>
    <rect x="41.66" y="37.12" width="1.51" height="1.52" fill="#ef5454"/>
    <rect x="41.66" y="35.6" width="1.51" height="1.51" fill="#fff"/>
    <rect x="41.66" y="12.88" width="1.51" height="1.51" fill="#fff"/>
    <rect x="41.66" y="11.37" width="1.51" height="1.51" fill="#aa0707"/>
    <rect x="41.66" y="9.85" width="1.51" height="1.52" fill="#cc1d1d"/>
    <rect x="41.66" y="8.34" width="1.51" height="1.51" fill="#cc1d1d"/>
    <rect x="41.66" y="6.82" width="1.51" height="1.52" fill="#cc1d1d"/>
    <rect x="41.66" y="5.31" width="1.51" height="1.51" fill="#cc1d1d"/>
    <rect x="41.66" y="3.79" width="1.51" height="1.52" fill="#ef5454"/>
    <rect x="41.66" y="2.28" width="1.51" height="1.51" fill="#fff"/>
    <rect x="40.15" y="46.2" width="1.52" height="1.51" fill="#fff"/>
    <rect x="40.15" y="44.69" width="1.52" height="1.51" fill="#aa0707"/>
    <rect x="40.15" y="43.18" width="1.52" height="1.52" fill="#cc1d1d"/>
    <rect x="40.15" y="41.66" width="1.52" height="1.51" fill="#cc1d1d"/>
    <rect x="40.15" y="40.15" width="1.52" height="1.52" fill="#cc1d1d"/>
    <rect x="40.15" y="38.63" width="1.52" height="1.51" fill="#cc1d1d"/>
    <rect x="40.15" y="37.12" width="1.52" height="1.52" fill="#cc1d1d"/>
    <rect x="40.15" y="35.6" width="1.52" height="1.51" fill="#ef5454"/>
    <rect x="40.15" y="34.09" width="1.52" height="1.52" fill="#fff"/>
    <rect x="40.15" y="14.4" width="1.52" height="1.52" fill="#fff"/>
    <rect x="40.15" y="12.88" width="1.52" height="1.51" fill="#aa0707"/>
    <rect x="40.15" y="11.37" width="1.52" height="1.51" fill="#cc1d1d"/>
    <rect x="40.15" y="9.85" width="1.52" height="1.52" fill="#cc1d1d"/>
    <rect x="40.15" y="8.34" width="1.52" height="1.51" fill="#cc1d1d"/>
    <rect x="40.15" y="6.82" width="1.52" height="1.52" fill="#cc1d1d"/>
    <rect x="40.15" y="5.31" width="1.52" height="1.51" fill="#cc1d1d"/>
    <rect x="40.15" y="3.79" width="1.52" height="1.52" fill="#ef5454"/>
    <rect x="40.15" y="2.28" width="1.52" height="1.51" fill="#fff"/>
    <rect x="38.63" y="44.69" width="1.51" height="1.51" fill="#fff"/>
    <rect x="38.63" y="43.18" width="1.51" height="1.52" fill="#aa0707"/>
    <rect x="38.63" y="41.66" width="1.51" height="1.51" fill="#cc1d1d"/>
    <rect x="38.63" y="40.15" width="1.51" height="1.52" fill="#cc1d1d"/>
    <rect x="38.63" y="38.63" width="1.51" height="1.51" fill="#cc1d1d"/>
    <rect x="38.63" y="37.12" width="1.51" height="1.52" fill="#cc1d1d"/>
    <rect x="38.63" y="35.6" width="1.51" height="1.51" fill="#cc1d1d"/>
    <rect x="38.63" y="34.09" width="1.51" height="1.52" fill="#ef5454"/>
    <rect x="38.63" y="32.57" width="1.51" height="1.51" fill="#fff"/>
    <rect x="38.63" y="15.91" width="1.51" height="1.51" fill="#fff"/>
    <rect x="38.63" y="14.4" width="1.51" height="1.52" fill="#aa0707"/>
    <rect x="38.63" y="12.88" width="1.51" height="1.51" fill="#cc1d1d"/>
    <rect x="38.63" y="11.37" width="1.51" height="1.51" fill="#cc1d1d"/>
    <rect x="38.63" y="9.85" width="1.51" height="1.52" fill="#cc1d1d"/>
    <rect x="38.63" y="8.34" width="1.51" height="1.51" fill="#cc1d1d"/>
    <rect x="38.63" y="6.82" width="1.51" height="1.52" fill="#cc1d1d"/>
    <rect x="38.63" y="5.31" width="1.51" height="1.51" fill="#ef5454"/>
    <rect x="38.63" y="3.79" width="1.51" height="1.52" fill="#fff"/>
    <rect x="37.12" y="43.18" width="1.51" height="1.52" fill="#fff"/>
    <rect x="37.12" y="41.66" width="1.51" height="1.51" fill="#aa0707"/>
    <rect x="37.12" y="40.15" width="1.51" height="1.52" fill="#cc1d1d"/>
    <rect x="37.12" y="38.63" width="1.51" height="1.51" fill="#cc1d1d"/>
    <rect x="37.12" y="37.12" width="1.51" height="1.52" fill="#cc1d1d"/>
    <rect x="37.12" y="35.6" width="1.51" height="1.51" fill="#cc1d1d"/>
    <rect x="37.12" y="34.09" width="1.51" height="1.52" fill="#cc1d1d"/>
    <rect x="37.12" y="32.57" width="1.51" height="1.51" fill="#ef5454"/>
    <rect x="37.12" y="31.06" width="1.51" height="1.52" fill="#fff"/>
    <rect x="37.12" y="17.43" width="1.51" height="1.52" fill="#fff"/>
    <rect x="37.12" y="15.91" width="1.51" height="1.51" fill="#aa0707"/>
    <rect x="37.12" y="14.4" width="1.51" height="1.52" fill="#cc1d1d"/>
    <rect x="37.12" y="12.88" width="1.51" height="1.51" fill="#cc1d1d"/>
    <rect x="37.12" y="11.37" width="1.51" height="1.51" fill="#cc1d1d"/>
    <rect x="37.12" y="9.85" width="1.51" height="1.52" fill="#cc1d1d"/>
    <rect x="37.12" y="8.34" width="1.51" height="1.51" fill="#cc1d1d"/>
    <rect x="37.12" y="6.82" width="1.51" height="1.52" fill="#ef5454"/>
    <rect x="37.12" y="5.31" width="1.51" height="1.51" fill="#fff"/>
    <rect x="35.6" y="41.66" width="1.52" height="1.51" fill="#fff"/>
    <rect x="35.6" y="40.15" width="1.52" height="1.52" fill="#aa0707"/>
    <rect x="35.6" y="38.63" width="1.52" height="1.51" fill="#cc1d1d"/>
    <rect x="35.6" y="37.12" width="1.52" height="1.52" fill="#cc1d1d"/>
    <rect x="35.6" y="35.6" width="1.52" height="1.51" fill="#cc1d1d"/>
    <rect x="35.6" y="34.09" width="1.52" height="1.52" fill="#cc1d1d"/>
    <rect x="35.6" y="32.57" width="1.52" height="1.51" fill="#cc1d1d"/>
    <rect x="35.6" y="31.06" width="1.52" height="1.52" fill="#ef5454"/>
    <rect x="35.6" y="29.54" width="1.52" height="1.51" fill="#fff"/>
    <rect x="35.6" y="18.94" width="1.52" height="1.51" fill="#fff"/>
    <rect x="35.6" y="17.43" width="1.52" height="1.52" fill="#aa0707"/>
    <rect x="35.6" y="15.91" width="1.52" height="1.51" fill="#cc1d1d"/>
    <rect x="35.6" y="14.4" width="1.52" height="1.52" fill="#cc1d1d"/>
    <rect x="35.6" y="12.88" width="1.52" height="1.51" fill="#cc1d1d"/>
    <rect x="35.6" y="11.37" width="1.52" height="1.51" fill="#cc1d1d"/>
    <rect x="35.6" y="9.85" width="1.52" height="1.52" fill="#cc1d1d"/>
    <rect x="35.6" y="8.34" width="1.52" height="1.51" fill="#ef5454"/>
    <rect x="35.6" y="6.82" width="1.52" height="1.52" fill="#fff"/>
    <rect x="34.09" y="40.15" width="1.51" height="1.52" fill="#fff"/>
    <rect x="34.09" y="38.63" width="1.51" height="1.51" fill="#aa0707"/>
    <rect x="34.09" y="37.12" width="1.51" height="1.52" fill="#cc1d1d"/>
    <rect x="34.09" y="35.6" width="1.51" height="1.51" fill="#cc1d1d"/>
    <rect x="34.09" y="34.09" width="1.51" height="1.52" fill="#cc1d1d"/>
    <rect x="34.09" y="32.57" width="1.51" height="1.51" fill="#cc1d1d"/>
    <rect x="34.09" y="31.06" width="1.51" height="1.52" fill="#cc1d1d"/>
    <rect x="34.09" y="29.54" width="1.51" height="1.51" fill="#ef5454"/>
    <rect x="34.09" y="28.03" width="1.51" height="1.51" fill="#fff"/>
    <rect x="34.09" y="20.46" width="1.51" height="1.52" fill="#fff"/>
    <rect x="34.09" y="18.94" width="1.51" height="1.51" fill="#aa0707"/>
    <rect x="34.09" y="17.43" width="1.51" height="1.52" fill="#cc1d1d"/>
    <rect x="34.09" y="15.91" width="1.51" height="1.51" fill="#cc1d1d"/>
    <rect x="34.09" y="14.4" width="1.51" height="1.52" fill="#cc1d1d"/>
    <rect x="34.09" y="12.88" width="1.51" height="1.51" fill="#cc1d1d"/>
    <rect x="34.09" y="11.37" width="1.51" height="1.51" fill="#cc1d1d"/>
    <rect x="34.09" y="9.85" width="1.51" height="1.52" fill="#ef5454"/>
    <rect x="34.09" y="8.34" width="1.51" height="1.51" fill="#fff"/>
    <rect x="32.57" y="38.63" width="1.52" height="1.51" fill="#fff"/>
    <rect x="32.57" y="37.12" width="1.52" height="1.52" fill="#aa0707"/>
    <rect x="32.57" y="35.6" width="1.52" height="1.51" fill="#cc1d1d"/>
    <rect x="32.57" y="34.09" width="1.52" height="1.52" fill="#cc1d1d"/>
    <rect x="32.57" y="32.57" width="1.52" height="1.51" fill="#cc1d1d"/>
    <rect x="32.57" y="31.06" width="1.52" height="1.52" fill="#cc1d1d"/>
    <rect x="32.57" y="29.54" width="1.52" height="1.51" fill="#cc1d1d"/>
    <rect x="32.57" y="28.03" width="1.52" height="1.51" fill="#ef5454"/>
    <rect x="32.57" y="26.51" width="1.52" height="1.52" fill="#fff"/>
    <rect x="32.57" y="21.97" width="1.52" height="1.51" fill="#fff"/>
    <rect x="32.57" y="20.46" width="1.52" height="1.52" fill="#aa0707"/>
    <rect x="32.57" y="18.94" width="1.52" height="1.51" fill="#cc1d1d"/>
    <rect x="32.57" y="17.43" width="1.52" height="1.52" fill="#cc1d1d"/>
    <rect x="32.57" y="15.91" width="1.52" height="1.51" fill="#cc1d1d"/>
    <rect x="32.57" y="14.4" width="1.52" height="1.52" fill="#cc1d1d"/>
    <rect x="32.57" y="12.88" width="1.52" height="1.51" fill="#cc1d1d"/>
    <rect x="32.57" y="11.37" width="1.52" height="1.51" fill="#ef5454"/>
    <rect x="32.57" y="9.85" width="1.52" height="1.52" fill="#fff"/>
    <rect x="31.06" y="37.12" width="1.51" height="1.52" fill="#fff"/>
    <rect x="31.06" y="35.6" width="1.51" height="1.51" fill="#aa0707"/>
    <rect x="31.06" y="34.09" width="1.51" height="1.52" fill="#cc1d1d"/>
    <rect x="31.06" y="32.57" width="1.51" height="1.51" fill="#cc1d1d"/>
    <rect x="31.06" y="31.06" width="1.51" height="1.52" fill="#cc1d1d"/>
    <rect x="31.06" y="29.54" width="1.51" height="1.51" fill="#cc1d1d"/>
    <rect x="31.06" y="28.03" width="1.51" height="1.51" fill="#cc1d1d"/>
    <rect x="31.06" y="26.51" width="1.51" height="1.52" fill="#ef5454"/>
    <rect x="31.06" y="25" width="1.51" height="1.51" fill="#fff"/>
    <rect x="31.06" y="23.49" width="1.51" height="1.52" fill="#fff"/>
    <rect x="31.06" y="21.97" width="1.51" height="1.51" fill="#aa0707"/>
    <rect x="31.06" y="20.46" width="1.51" height="1.52" fill="#cc1d1d"/>
    <rect x="31.06" y="18.94" width="1.51" height="1.51" fill="#cc1d1d"/>
    <rect x="31.06" y="17.43" width="1.51" height="1.52" fill="#cc1d1d"/>
    <rect x="31.06" y="15.91" width="1.51" height="1.51" fill="#cc1d1d"/>
    <rect x="31.06" y="14.4" width="1.51" height="1.52" fill="#cc1d1d"/>
    <rect x="31.06" y="12.88" width="1.51" height="1.51" fill="#ef5454"/>
    <rect x="31.06" y="11.37" width="1.51" height="1.51" fill="#fff"/>
    <rect x="29.54" y="35.6" width="1.52" height="1.51" fill="#fff"/>
    <rect x="29.54" y="34.09" width="1.52" height="1.52" fill="#aa0707"/>
    <rect x="29.54" y="32.57" width="1.52" height="1.51" fill="#cc1d1d"/>
    <rect x="29.54" y="31.06" width="1.52" height="1.52" fill="#cc1d1d"/>
    <rect x="29.54" y="29.54" width="1.52" height="1.51" fill="#cc1d1d"/>
    <rect x="29.54" y="28.03" width="1.52" height="1.51" fill="#cc1d1d"/>
    <rect x="29.54" y="26.51" width="1.52" height="1.52" fill="#cc1d1d"/>
    <rect x="29.54" y="25" width="1.52" height="1.51" fill="#aa0707"/>
    <rect x="29.54" y="23.49" width="1.52" height="1.52" fill="#aa0707"/>
    <rect x="29.54" y="21.97" width="1.52" height="1.51" fill="#cc1d1d"/>
    <rect x="29.54" y="20.46" width="1.52" height="1.52" fill="#cc1d1d"/>
    <rect x="29.54" y="18.94" width="1.52" height="1.51" fill="#cc1d1d"/>
    <rect x="29.54" y="17.43" width="1.52" height="1.52" fill="#cc1d1d"/>
    <rect x="29.54" y="15.91" width="1.52" height="1.51" fill="#cc1d1d"/>
    <rect x="29.54" y="14.4" width="1.52" height="1.52" fill="#ef5454"/>
    <rect x="29.54" y="12.88" width="1.52" height="1.51" fill="#fff"/>
    <rect x="28.03" y="34.09" width="1.51" height="1.52" fill="#fff"/>
    <rect x="28.03" y="32.57" width="1.51" height="1.51" fill="#aa0707"/>
    <rect x="28.03" y="31.06" width="1.51" height="1.52" fill="#cc1d1d"/>
    <rect x="28.03" y="29.54" width="1.51" height="1.51" fill="#cc1d1d"/>
    <rect x="28.03" y="28.03" width="1.51" height="1.51" fill="#cc1d1d"/>
    <rect x="28.03" y="26.51" width="1.51" height="1.52" fill="#cc1d1d"/>
    <rect x="28.03" y="25" width="1.51" height="1.51" fill="#cc1d1d"/>
    <rect x="28.03" y="23.49" width="1.51" height="1.52" fill="#cc1d1d"/>
    <rect x="28.03" y="21.97" width="1.51" height="1.51" fill="#cc1d1d"/>
    <rect x="28.03" y="20.46" width="1.51" height="1.52" fill="#cc1d1d"/>
    <rect x="28.03" y="18.94" width="1.51" height="1.51" fill="#cc1d1d"/>
    <rect x="28.03" y="17.43" width="1.51" height="1.52" fill="#cc1d1d"/>
    <rect x="28.03" y="15.91" width="1.51" height="1.51" fill="#ef5454"/>
    <rect x="28.03" y="14.4" width="1.51" height="1.52" fill="#fff"/>
    <rect x="26.51" y="32.57" width="1.52" height="1.51" fill="#fff"/>
    <rect x="26.51" y="31.06" width="1.52" height="1.52" fill="#aa0707"/>
    <rect x="26.51" y="29.54" width="1.52" height="1.51" fill="#cc1d1d"/>
    <rect x="26.51" y="28.03" width="1.52" height="1.51" fill="#cc1d1d"/>
    <rect x="26.51" y="26.51" width="1.52" height="1.52" fill="#cc1d1d"/>
    <rect x="26.51" y="25" width="1.52" height="1.51" fill="#cc1d1d"/>
    <rect x="26.51" y="23.49" width="1.52" height="1.52" fill="#cc1d1d"/>
    <rect x="26.51" y="21.97" width="1.52" height="1.51" fill="#cc1d1d"/>
    <rect x="26.51" y="20.46" width="1.52" height="1.52" fill="#cc1d1d"/>
    <rect x="26.51" y="18.94" width="1.52" height="1.51" fill="#cc1d1d"/>
    <rect x="26.51" y="17.43" width="1.52" height="1.52" fill="#ef5454"/>
    <rect x="26.51" y="15.91" width="1.52" height="1.51" fill="#fff"/>
    <rect x="25" y="31.06" width="1.51" height="1.52" fill="#fff"/>
    <rect x="25" y="29.54" width="1.51" height="1.51" fill="#aa0707"/>
    <rect x="25" y="28.03" width="1.51" height="1.51" fill="#cc1d1d"/>
    <rect x="25" y="26.51" width="1.51" height="1.52" fill="#cc1d1d"/>
    <rect x="25" y="25" width="1.51" height="1.51" fill="#cc1d1d"/>
    <rect x="25" y="23.49" width="1.51" height="1.52" fill="#cc1d1d"/>
    <rect x="25" y="21.97" width="1.51" height="1.51" fill="#cc1d1d"/>
    <rect x="25" y="20.46" width="1.51" height="1.52" fill="#cc1d1d"/>
    <rect x="25" y="18.94" width="1.51" height="1.51" fill="#ef5454"/>
    <rect x="25" y="17.43" width="1.51" height="1.52" fill="#fff"/>
    <rect x="23.48" y="31.06" width="1.52" height="1.52" fill="#fff"/>
    <rect x="23.48" y="29.54" width="1.52" height="1.51" fill="#aa0707"/>
    <rect x="23.48" y="28.03" width="1.52" height="1.51" fill="#cc1d1d"/>
    <rect x="23.48" y="26.51" width="1.52" height="1.52" fill="#cc1d1d"/>
    <rect x="23.48" y="25" width="1.52" height="1.51" fill="#cc1d1d"/>
    <rect x="23.48" y="23.49" width="1.52" height="1.52" fill="#cc1d1d"/>
    <rect x="23.48" y="21.97" width="1.52" height="1.51" fill="#cc1d1d"/>
    <rect x="23.48" y="20.46" width="1.52" height="1.52" fill="#cc1d1d"/>
    <rect x="23.48" y="18.94" width="1.52" height="1.51" fill="#ef5454"/>
    <rect x="23.48" y="17.43" width="1.52" height="1.52" fill="#fff"/>
    <rect x="21.97" y="32.57" width="1.51" height="1.51" fill="#fff"/>
    <rect x="21.97" y="31.06" width="1.51" height="1.52" fill="#aa0707"/>
    <rect x="21.97" y="29.54" width="1.51" height="1.51" fill="#cc1d1d"/>
    <rect x="21.97" y="28.03" width="1.51" height="1.51" fill="#cc1d1d"/>
    <rect x="21.97" y="26.51" width="1.51" height="1.52" fill="#cc1d1d"/>
    <rect x="21.97" y="25" width="1.51" height="1.51" fill="#cc1d1d"/>
    <rect x="21.97" y="23.49" width="1.51" height="1.52" fill="#cc1d1d"/>
    <rect x="21.97" y="21.97" width="1.51" height="1.51" fill="#cc1d1d"/>
    <rect x="21.97" y="20.46" width="1.51" height="1.52" fill="#cc1d1d"/>
    <rect x="21.97" y="18.94" width="1.51" height="1.51" fill="#cc1d1d"/>
    <rect x="21.97" y="17.43" width="1.51" height="1.52" fill="#ef5454"/>
    <rect x="21.97" y="15.91" width="1.51" height="1.51" fill="#fff"/>
    <rect x="20.46" y="34.09" width="1.52" height="1.52" fill="#fff"/>
    <rect x="20.46" y="32.57" width="1.52" height="1.51" fill="#aa0707"/>
    <rect x="20.46" y="31.06" width="1.52" height="1.52" fill="#cc1d1d"/>
    <rect x="20.46" y="29.54" width="1.52" height="1.51" fill="#cc1d1d"/>
    <rect x="20.46" y="28.03" width="1.52" height="1.51" fill="#cc1d1d"/>
    <rect x="20.46" y="26.51" width="1.52" height="1.52" fill="#cc1d1d"/>
    <rect x="20.46" y="25" width="1.52" height="1.51" fill="#cc1d1d"/>
    <rect x="20.46" y="23.49" width="1.52" height="1.52" fill="#cc1d1d"/>
    <rect x="20.46" y="21.97" width="1.52" height="1.51" fill="#cc1d1d"/>
    <rect x="20.46" y="20.46" width="1.52" height="1.52" fill="#cc1d1d"/>
    <rect x="20.46" y="18.94" width="1.52" height="1.51" fill="#cc1d1d"/>
    <rect x="20.46" y="17.43" width="1.52" height="1.52" fill="#cc1d1d"/>
    <rect x="20.46" y="15.91" width="1.52" height="1.51" fill="#ef5454"/>
    <rect x="20.46" y="14.4" width="1.52" height="1.52" fill="#fff"/>
    <rect x="18.94" y="35.6" width="1.51" height="1.51" fill="#fff"/>
    <rect x="18.94" y="34.09" width="1.51" height="1.52" fill="#aa0707"/>
    <rect x="18.94" y="32.57" width="1.51" height="1.51" fill="#cc1d1d"/>
    <rect x="18.94" y="31.06" width="1.51" height="1.52" fill="#cc1d1d"/>
    <rect x="18.94" y="29.54" width="1.51" height="1.51" fill="#cc1d1d"/>
    <rect x="18.94" y="28.03" width="1.51" height="1.51" fill="#cc1d1d"/>
    <rect x="18.94" y="26.51" width="1.51" height="1.52" fill="#cc1d1d"/>
    <rect x="18.94" y="25" width="1.51" height="1.51" fill="#aa0707"/>
    <rect x="18.94" y="23.49" width="1.51" height="1.52" fill="#aa0707"/>
    <rect x="18.94" y="21.97" width="1.51" height="1.51" fill="#cc1d1d"/>
    <rect x="18.94" y="20.46" width="1.51" height="1.52" fill="#cc1d1d"/>
    <rect x="18.94" y="18.94" width="1.51" height="1.51" fill="#cc1d1d"/>
    <rect x="18.94" y="17.43" width="1.51" height="1.52" fill="#cc1d1d"/>
    <rect x="18.94" y="15.91" width="1.51" height="1.51" fill="#cc1d1d"/>
    <rect x="18.94" y="14.4" width="1.51" height="1.52" fill="#ef5454"/>
    <rect x="18.94" y="12.88" width="1.51" height="1.51" fill="#fff"/>
    <rect x="17.43" y="37.12" width="1.51" height="1.52" fill="#fff"/>
    <rect x="17.43" y="35.6" width="1.51" height="1.51" fill="#aa0707"/>
    <rect x="17.43" y="34.09" width="1.51" height="1.52" fill="#cc1d1d"/>
    <rect x="17.43" y="32.57" width="1.51" height="1.51" fill="#cc1d1d"/>
    <rect x="17.43" y="31.06" width="1.51" height="1.52" fill="#cc1d1d"/>
    <rect x="17.43" y="29.54" width="1.51" height="1.51" fill="#cc1d1d"/>
    <rect x="17.43" y="28.03" width="1.51" height="1.51" fill="#cc1d1d"/>
    <rect x="17.43" y="26.51" width="1.51" height="1.52" fill="#ef5454"/>
    <rect x="17.43" y="25" width="1.51" height="1.51" fill="#fff"/>
    <rect x="17.43" y="23.49" width="1.51" height="1.52" fill="#fff"/>
    <rect x="17.43" y="21.97" width="1.51" height="1.51" fill="#aa0707"/>
    <rect x="17.43" y="20.46" width="1.51" height="1.52" fill="#cc1d1d"/>
    <rect x="17.43" y="18.94" width="1.51" height="1.51" fill="#cc1d1d"/>
    <rect x="17.43" y="17.43" width="1.51" height="1.52" fill="#cc1d1d"/>
    <rect x="17.43" y="15.91" width="1.51" height="1.51" fill="#cc1d1d"/>
    <rect x="17.43" y="14.4" width="1.51" height="1.52" fill="#cc1d1d"/>
    <rect x="17.43" y="12.88" width="1.51" height="1.51" fill="#ef5454"/>
    <rect x="17.43" y="11.37" width="1.51" height="1.51" fill="#fff"/>
    <rect x="15.91" y="38.63" width="1.52" height="1.51" fill="#fff"/>
    <rect x="15.91" y="37.12" width="1.52" height="1.52" fill="#aa0707"/>
    <rect x="15.91" y="35.6" width="1.52" height="1.51" fill="#cc1d1d"/>
    <rect x="15.91" y="34.09" width="1.52" height="1.52" fill="#cc1d1d"/>
    <rect x="15.91" y="32.57" width="1.52" height="1.51" fill="#cc1d1d"/>
    <rect x="15.91" y="31.06" width="1.52" height="1.52" fill="#cc1d1d"/>
    <rect x="15.91" y="29.54" width="1.52" height="1.51" fill="#cc1d1d"/>
    <rect x="15.91" y="28.03" width="1.52" height="1.51" fill="#ef5454"/>
    <rect x="15.91" y="26.51" width="1.52" height="1.52" fill="#fff"/>
    <rect x="15.91" y="21.97" width="1.52" height="1.51" fill="#fff"/>
    <rect x="15.91" y="20.46" width="1.52" height="1.52" fill="#aa0707"/>
    <rect x="15.91" y="18.94" width="1.52" height="1.51" fill="#cc1d1d"/>
    <rect x="15.91" y="17.43" width="1.52" height="1.52" fill="#cc1d1d"/>
    <rect x="15.91" y="15.91" width="1.52" height="1.51" fill="#cc1d1d"/>
    <rect x="15.91" y="14.4" width="1.52" height="1.52" fill="#cc1d1d"/>
    <rect x="15.91" y="12.88" width="1.52" height="1.51" fill="#cc1d1d"/>
    <rect x="15.91" y="11.37" width="1.52" height="1.51" fill="#ef5454"/>
    <rect x="15.91" y="9.85" width="1.52" height="1.52" fill="#fff"/>
    <rect x="14.4" y="40.15" width="1.51" height="1.52" fill="#fff"/>
    <rect x="14.4" y="38.63" width="1.51" height="1.51" fill="#aa0707"/>
    <rect x="14.4" y="37.12" width="1.51" height="1.52" fill="#cc1d1d"/>
    <rect x="14.4" y="35.6" width="1.51" height="1.51" fill="#cc1d1d"/>
    <rect x="14.4" y="34.09" width="1.51" height="1.52" fill="#cc1d1d"/>
    <rect x="14.4" y="32.57" width="1.51" height="1.51" fill="#cc1d1d"/>
    <rect x="14.4" y="31.06" width="1.51" height="1.52" fill="#cc1d1d"/>
    <rect x="14.4" y="29.54" width="1.51" height="1.51" fill="#ef5454"/>
    <rect x="14.4" y="28.03" width="1.51" height="1.51" fill="#fff"/>
    <rect x="14.4" y="20.46" width="1.51" height="1.52" fill="#fff"/>
    <rect x="14.4" y="18.94" width="1.51" height="1.51" fill="#aa0707"/>
    <rect x="14.4" y="17.43" width="1.51" height="1.52" fill="#cc1d1d"/>
    <rect x="14.4" y="15.91" width="1.51" height="1.51" fill="#cc1d1d"/>
    <rect x="14.4" y="14.4" width="1.51" height="1.52" fill="#cc1d1d"/>
    <rect x="14.4" y="12.88" width="1.51" height="1.51" fill="#cc1d1d"/>
    <rect x="14.4" y="11.37" width="1.51" height="1.51" fill="#cc1d1d"/>
    <rect x="14.4" y="9.85" width="1.51" height="1.52" fill="#ef5454"/>
    <rect x="14.4" y="8.34" width="1.51" height="1.51" fill="#fff"/>
    <rect x="12.88" y="41.66" width="1.52" height="1.51" fill="#fff"/>
    <rect x="12.88" y="40.15" width="1.52" height="1.52" fill="#aa0707"/>
    <rect x="12.88" y="38.63" width="1.52" height="1.51" fill="#cc1d1d"/>
    <rect x="12.88" y="37.12" width="1.52" height="1.52" fill="#cc1d1d"/>
    <rect x="12.88" y="35.6" width="1.52" height="1.51" fill="#cc1d1d"/>
    <rect x="12.88" y="34.09" width="1.52" height="1.52" fill="#cc1d1d"/>
    <rect x="12.88" y="32.57" width="1.52" height="1.51" fill="#cc1d1d"/>
    <rect x="12.88" y="31.06" width="1.52" height="1.52" fill="#ef5454"/>
    <rect x="12.88" y="29.54" width="1.52" height="1.51" fill="#fff"/>
    <rect x="12.88" y="18.94" width="1.52" height="1.51" fill="#fff"/>
    <rect x="12.88" y="17.43" width="1.52" height="1.52" fill="#aa0707"/>
    <rect x="12.88" y="15.91" width="1.52" height="1.51" fill="#cc1d1d"/>
    <rect x="12.88" y="14.4" width="1.52" height="1.52" fill="#cc1d1d"/>
    <rect x="12.88" y="12.88" width="1.52" height="1.51" fill="#cc1d1d"/>
    <rect x="12.88" y="11.37" width="1.52" height="1.51" fill="#cc1d1d"/>
    <rect x="12.88" y="9.85" width="1.52" height="1.52" fill="#cc1d1d"/>
    <rect x="12.88" y="8.34" width="1.52" height="1.51" fill="#ef5454"/>
    <rect x="12.88" y="6.82" width="1.52" height="1.52" fill="#fff"/>
    <rect x="11.37" y="43.18" width="1.51" height="1.52" fill="#fff"/>
    <rect x="11.37" y="41.66" width="1.51" height="1.51" fill="#aa0707"/>
    <rect x="11.37" y="40.15" width="1.51" height="1.52" fill="#cc1d1d"/>
    <rect x="11.37" y="38.63" width="1.51" height="1.51" fill="#cc1d1d"/>
    <rect x="11.37" y="37.12" width="1.51" height="1.52" fill="#cc1d1d"/>
    <rect x="11.37" y="35.6" width="1.51" height="1.51" fill="#cc1d1d"/>
    <rect x="11.37" y="34.09" width="1.51" height="1.52" fill="#cc1d1d"/>
    <rect x="11.37" y="32.57" width="1.51" height="1.51" fill="#ef5454"/>
    <rect x="11.37" y="31.06" width="1.51" height="1.52" fill="#fff"/>
    <rect x="11.37" y="17.43" width="1.51" height="1.52" fill="#fff"/>
    <rect x="11.37" y="15.91" width="1.51" height="1.51" fill="#aa0707"/>
    <rect x="11.37" y="14.4" width="1.51" height="1.52" fill="#cc1d1d"/>
    <rect x="11.37" y="12.88" width="1.51" height="1.51" fill="#cc1d1d"/>
    <rect x="11.37" y="11.37" width="1.51" height="1.51" fill="#cc1d1d"/>
    <rect x="11.37" y="9.85" width="1.51" height="1.52" fill="#cc1d1d"/>
    <rect x="11.37" y="8.34" width="1.51" height="1.51" fill="#cc1d1d"/>
    <rect x="11.37" y="6.82" width="1.51" height="1.52" fill="#ef5454"/>
    <rect x="11.37" y="5.31" width="1.51" height="1.51" fill="#fff"/>
    <rect x="9.85" y="44.69" width="1.52" height="1.51" fill="#fff"/>
    <rect x="9.85" y="43.18" width="1.52" height="1.52" fill="#aa0707"/>
    <rect x="9.85" y="41.66" width="1.52" height="1.51" fill="#cc1d1d"/>
    <rect x="9.85" y="40.15" width="1.52" height="1.52" fill="#cc1d1d"/>
    <rect x="9.85" y="38.63" width="1.52" height="1.51" fill="#cc1d1d"/>
    <rect x="9.85" y="37.12" width="1.52" height="1.52" fill="#cc1d1d"/>
    <rect x="9.85" y="35.6" width="1.52" height="1.51" fill="#cc1d1d"/>
    <rect x="9.85" y="34.09" width="1.52" height="1.52" fill="#ef5454"/>
    <rect x="9.85" y="32.57" width="1.52" height="1.51" fill="#fff"/>
    <rect x="9.85" y="15.91" width="1.52" height="1.51" fill="#fff"/>
    <rect x="9.85" y="14.4" width="1.52" height="1.52" fill="#aa0707"/>
    <rect x="9.85" y="12.88" width="1.52" height="1.51" fill="#cc1d1d"/>
    <rect x="9.85" y="11.37" width="1.52" height="1.51" fill="#cc1d1d"/>
    <rect x="9.85" y="9.85" width="1.52" height="1.52" fill="#cc1d1d"/>
    <rect x="9.85" y="8.34" width="1.52" height="1.51" fill="#cc1d1d"/>
    <rect x="9.85" y="6.82" width="1.52" height="1.52" fill="#cc1d1d"/>
    <rect x="9.85" y="5.31" width="1.52" height="1.51" fill="#ef5454"/>
    <rect x="9.85" y="3.79" width="1.52" height="1.52" fill="#fff"/>
    <rect x="8.34" y="46.2" width="1.51" height="1.51" fill="#fff"/>
    <rect x="8.34" y="44.69" width="1.51" height="1.51" fill="#aa0707"/>
    <rect x="8.34" y="43.18" width="1.51" height="1.52" fill="#cc1d1d"/>
    <rect x="8.34" y="41.66" width="1.51" height="1.51" fill="#cc1d1d"/>
    <rect x="8.34" y="40.15" width="1.51" height="1.52" fill="#cc1d1d"/>
    <rect x="8.34" y="38.63" width="1.51" height="1.51" fill="#cc1d1d"/>
    <rect x="8.34" y="37.12" width="1.51" height="1.52" fill="#cc1d1d"/>
    <rect x="8.34" y="35.6" width="1.51" height="1.51" fill="#ef5454"/>
    <rect x="8.34" y="34.09" width="1.51" height="1.52" fill="#fff"/>
    <rect x="8.34" y="14.4" width="1.51" height="1.52" fill="#fff"/>
    <rect x="8.34" y="12.88" width="1.51" height="1.51" fill="#aa0707"/>
    <rect x="8.34" y="11.37" width="1.51" height="1.51" fill="#cc1d1d"/>
    <rect x="8.34" y="9.85" width="1.51" height="1.52" fill="#cc1d1d"/>
    <rect x="8.34" y="8.34" width="1.51" height="1.51" fill="#cc1d1d"/>
    <rect x="8.34" y="6.82" width="1.51" height="1.52" fill="#cc1d1d"/>
    <rect x="8.34" y="5.31" width="1.51" height="1.51" fill="#cc1d1d"/>
    <rect x="8.34" y="3.79" width="1.51" height="1.52" fill="#ef5454"/>
    <rect x="8.34" y="2.28" width="1.51" height="1.51" fill="#fff"/>
    <rect x="6.82" y="46.2" width="1.52" height="1.51" fill="#fff"/>
    <rect x="6.82" y="44.69" width="1.52" height="1.51" fill="#aa0707"/>
    <rect x="6.82" y="43.18" width="1.52" height="1.52" fill="#cc1d1d"/>
    <rect x="6.82" y="41.66" width="1.52" height="1.51" fill="#cc1d1d"/>
    <rect x="6.82" y="40.15" width="1.52" height="1.52" fill="#cc1d1d"/>
    <rect x="6.82" y="38.63" width="1.52" height="1.51" fill="#cc1d1d"/>
    <rect x="6.82" y="37.12" width="1.52" height="1.52" fill="#ef5454"/>
    <rect x="6.82" y="35.6" width="1.52" height="1.51" fill="#fff"/>
    <rect x="6.82" y="12.88" width="1.52" height="1.51" fill="#fff"/>
    <rect x="6.82" y="11.37" width="1.52" height="1.51" fill="#aa0707"/>
    <rect x="6.82" y="9.85" width="1.52" height="1.52" fill="#cc1d1d"/>
    <rect x="6.82" y="8.34" width="1.52" height="1.51" fill="#cc1d1d"/>
    <rect x="6.82" y="6.82" width="1.52" height="1.52" fill="#cc1d1d"/>
    <rect x="6.82" y="5.31" width="1.52" height="1.51" fill="#cc1d1d"/>
    <rect x="6.82" y="3.79" width="1.52" height="1.52" fill="#ef5454"/>
    <rect x="6.82" y="2.28" width="1.52" height="1.51" fill="#fff"/>
    <rect x="5.31" y="44.69" width="1.51" height="1.51" fill="#fff"/>
    <rect x="5.31" y="43.18" width="1.51" height="1.52" fill="#aa0707"/>
    <rect x="5.31" y="41.66" width="1.51" height="1.51" fill="#cc1d1d"/>
    <rect x="5.31" y="40.15" width="1.51" height="1.52" fill="#cc1d1d"/>
    <rect x="5.31" y="38.63" width="1.51" height="1.51" fill="#ef5454"/>
    <rect x="5.31" y="37.12" width="1.51" height="1.52" fill="#fff"/>
    <rect x="5.31" y="11.37" width="1.51" height="1.51" fill="#fff"/>
    <rect x="5.31" y="9.85" width="1.51" height="1.52" fill="#aa0707"/>
    <rect x="5.31" y="8.34" width="1.51" height="1.51" fill="#cc1d1d"/>
    <rect x="5.31" y="6.82" width="1.51" height="1.52" fill="#cc1d1d"/>
    <rect x="5.31" y="5.31" width="1.51" height="1.51" fill="#ef5454"/>
    <rect x="5.31" y="3.79" width="1.51" height="1.52" fill="#fff"/>
    <rect x="3.79" y="43.18" width="1.52" height="1.52" fill="#fff"/>
    <rect x="3.79" y="41.66" width="1.52" height="1.51" fill="#aa0707"/>
    <rect x="3.79" y="40.15" width="1.52" height="1.52" fill="#ef5454"/>
    <rect x="3.79" y="38.63" width="1.52" height="1.51" fill="#fff"/>
    <rect x="3.79" y="9.85" width="1.52" height="1.52" fill="#fff"/>
    <rect x="3.79" y="8.34" width="1.52" height="1.51" fill="#aa0707"/>
    <rect x="3.79" y="6.82" width="1.52" height="1.52" fill="#ef5454"/>
    <rect x="3.79" y="5.31" width="1.52" height="1.51" fill="#fff"/>
    <rect x="2.28" y="41.66" width="1.51" height="1.51" fill="#fff"/>
    <rect x="2.28" y="40.15" width="1.51" height="1.52" fill="#fff"/>
    <rect x="2.28" y="8.34" width="1.51" height="1.51" fill="#fff"/>
    <rect x="2.28" y="6.82" width="1.51" height="1.52" fill="#fff"/>
  </g>
</svg>
