<svg id="Capa_1" data-name="Capa 1" xmlns="http://www.w3.org/2000/svg" xmlns:xlink="http://www.w3.org/1999/xlink" width="50" height="50" viewBox="0 0 50 50">
  <defs>
    <clipPath id="clip-path">
      <polygon points="24.04 49.76 1.25 39.47 1.41 9.17 24.19 19.46 24.04 49.76" fill="none"/>
    </clipPath>
    <clipPath id="clip-path-2">
      <polygon points="24.19 19.46 1.41 9.17 25.96 0.24 48.74 10.53 24.19 19.46" fill="none"/>
    </clipPath>
    <clipPath id="clip-path-3">
      <polygon points="48.74 10.53 48.59 40.82 24.04 49.76 24.19 19.46 48.74 10.53" fill="none"/>
    </clipPath>
  </defs>
  <g id="Figment_lido">
    <g style="isolation: isolate">
      <g>
        <polygon points="24.04 49.76 1.25 39.47 1.41 9.17 24.19 19.46 24.04 49.76" fill="#2f2f2f"/>
        <g style="isolation: isolate">
          <g clip-path="url(#clip-path)">
            <g>
              <path d="M6.13,31a1.35,1.35,0,0,0-.42.16c.22.43.43.87.65,1.31l.33.72c0,.06.07.13,0,.16.34.45.68.9,1,1.32.11,0,0-.1,0-.15-.22-.48-.45-1-.68-1.44a1.25,1.25,0,0,1-.18-.5h0a2.07,2.07,0,0,0-.31-.43c-.07-.09-.14-.16-.11-.27h0a3,3,0,0,0-.27-.66A.48.48,0,0,1,6.13,31" fill="#e215e1"/>
              <path d="M5.69,25.29h0V26c.12.07.15.25.21.38.28.58.55,1.16.82,1.74,0,.07.09.15,0,.13L7.8,29.58a6.42,6.42,0,0,0-.49-1.14c-.12-.28-.26-.55-.39-.82a.33.33,0,0,1,0-.19h0a.81.81,0,0,0-.16-.27c-.12-.17-.26-.3-.37-.49v0l0,.05c-.06-.11,0-.2,0-.3A3.74,3.74,0,0,1,6,25.78a2.12,2.12,0,0,0-.27-.49" fill="#c828e5"/>
              <path d="M16.79,29.77c-.05,0,0,.06,0,.11.25.51.49,1,.74,1.54a.89.89,0,0,1,.12.38h0l0,0h0l.81,1.68a.56.56,0,0,0,.12.2,6.2,6.2,0,0,0,0-.75,3.18,3.18,0,0,1-.37-.71c-.23-.47-.45-.94-.67-1.42l-.06-.17c-.22-.33-.48-.58-.71-.89" fill="#587cf6"/>
              <path d="M6.93,32.59h0a1.25,1.25,0,0,0,.18.5c.23.48.46,1,.68,1.44,0,0,.11.16,0,.15.34.46.69.91,1,1.34.1-.06,0-.18,0-.24-.14-.32-.29-.62-.43-.92s-.25-.51-.37-.76a.33.33,0,0,1,0-.19h0a.53.53,0,0,0-.08-.15c-.28-.37-.57-.72-.85-1.08a.15.15,0,0,0-.08-.08" fill="#de18e2"/>
              <path d="M10.34,36.89l-.09,0v0a2,2,0,0,0,.27.7c.18.4.38.79.57,1.18a.79.79,0,0,1,.08.29c.22.29.45.58.67.88A.47.47,0,0,0,12,40s.08,0,.12,0c-.13-.35-.32-.66-.46-1a3.56,3.56,0,0,1-.36-.85h0c-.28-.45-.62-.81-.93-1.22" fill="#d022e4"/>
              <path d="M16.34,24c-.05.12.05.24.09.34.23.51.48,1,.72,1.51a.51.51,0,0,1,.07.26h0a1.7,1.7,0,0,0,.31.42c.11.12.11.2.05.29h0c.1.21.19.41.29.61a.54.54,0,0,1,.09.25,1.4,1.4,0,0,0,.36-.13.3.3,0,0,1-.13-.16c-.38-.81-.76-1.62-1.13-2.43l0-.07L16.34,24" fill="#3f8efa"/>
              <path d="M7,27.46l-.06,0h0a.33.33,0,0,0,0,.19c.13.27.27.54.39.82a6.42,6.42,0,0,1,.49,1.14c.14.16.27.34.4.5s.07.14,0,.17a4.71,4.71,0,0,1,.42.84v0A.17.17,0,0,0,8.85,31v0h0c-.35-.73-.69-1.47-1-2.19a.86.86,0,0,1-.13-.41l0,0,0-.05A8.63,8.63,0,0,0,7,27.46" fill="#c32ce6"/>
              <path d="M13.86,20.93c-.09.06,0,.18.05.25.19.41.39.82.58,1.24a1.39,1.39,0,0,1,.22.55h0a10.46,10.46,0,0,0,.84,1.09l.08,0a1.18,1.18,0,0,0-.2-.54c-.19-.43-.4-.84-.6-1.26,0-.08-.12-.18-.05-.25-.28-.4-.59-.75-.89-1.12" fill="#4987f8"/>
              <path d="M8,33.94l-.06,0h0a.33.33,0,0,0,0,.19c.12.25.24.51.37.76s.29.6.43.92c0,.06.14.18,0,.24.28.38.57.75.87,1.1.08-.08,0-.19-.05-.25-.19-.42-.4-.82-.58-1.24A1.74,1.74,0,0,1,8.78,35h0l-.05-.11L8,33.94" fill="#da1be2"/>
              <path d="M5.71,31.16l-.6.19.38.49L6.7,33.35c.06,0,0-.1,0-.16l-.33-.72c-.22-.44-.43-.88-.65-1.31" fill="#e612e0"/>
              <path d="M14.75,22.05c-.07.07,0,.17.05.25.2.42.41.83.6,1.26a1.18,1.18,0,0,1,.2.54.27.27,0,0,0,.08.18c.2.25.4.52.61.77a.47.47,0,0,0,.14.14h0a5.26,5.26,0,0,0-.42-1c-.14-.32-.3-.61-.44-.91,0-.07-.09-.16,0-.23a.55.55,0,0,0-.14-.19c-.22-.29-.45-.56-.68-.84" fill="#458af9"/>
              <path d="M13,19.89c-.1.06,0,.18,0,.24.19.42.39.83.58,1.24a1.68,1.68,0,0,1,.22.56,0,0,0,0,1,0,0h0a10,10,0,0,0,.78,1l0,0h0a1.39,1.39,0,0,0-.22-.55c-.19-.42-.39-.83-.58-1.24,0-.07-.14-.19-.05-.25-.26-.37-.54-.7-.82-1" fill="#4d84f7"/>
              <path d="M9.53,35.89l-.06,0a.46.46,0,0,0,.07.27c.27.57.53,1.13.8,1.69,0,.06.07.12,0,.16.27.36.54.71.83,1a.79.79,0,0,0-.08-.29c-.19-.39-.39-.78-.57-1.18a2,2,0,0,1-.27-.7v0a4.72,4.72,0,0,0-.72-1" fill="#d41fe3"/>
              <path d="M15.57,23.08c-.05.07,0,.16,0,.23.14.3.3.59.44.91a5.26,5.26,0,0,1,.42,1h0l0,.11c.21.28.43.55.65.81l.05,0h0a.51.51,0,0,0-.07-.26c-.24-.5-.49-1-.72-1.51,0-.1-.14-.22-.09-.34-.24-.35-.52-.63-.77-1" fill="#428cf9"/>
              <path d="M17,24.93,17,25c.37.81.75,1.62,1.13,2.43a.3.3,0,0,0,.13.16.42.42,0,0,0,.24-.09l-.62-1.29a.68.68,0,0,1-.07-.27,10.38,10.38,0,0,0-.83-1" fill="#3d90fa"/>
              <path d="M5.75,20.77c-.09,0,0,.19,0,.3l0,5.58a.66.66,0,0,0,0,.24c0-.32,0-.63,0-.94v-.66h0v-3.6h0v-.06a6.88,6.88,0,0,1,.44.85.53.53,0,0,0,.16.26c0-.21,0-.41,0-.63s-.16-.38-.24-.58-.25-.5-.34-.76" fill="#af3be9"/>
              <path d="M8.83,35H8.78a1.74,1.74,0,0,0,.25.63c.18.42.39.82.58,1.24,0,.06.13.17.05.25a9.9,9.9,0,0,0,.69.88c.06,0,0-.1,0-.16-.27-.56-.53-1.12-.8-1.69a.46.46,0,0,1-.07-.27h0a.22.22,0,0,0-.05-.14c-.17-.23-.35-.45-.53-.67A.17.17,0,0,0,8.83,35" fill="#d71de3"/>
              <path d="M17.66,31.83h0c-.1,0-.21,0-.26.15h0a2.44,2.44,0,0,0,.41.84l0,0h0c.06,0,.1,0,.15,0h0s0-.06,0-.09h0s0,.06,0,.1v.37h0a6.15,6.15,0,0,1,.41.81c0,.1.08.21.17.26a3.21,3.21,0,0,0,0-.62.56.56,0,0,1-.12-.2l-.81-1.68" fill="#5c79f5"/>
              <path d="M12.34,19c-.07.07,0,.16,0,.24l.72,1.53a.58.58,0,0,1,.09.28h0a5.42,5.42,0,0,0,.59.79.34.34,0,0,0,.09.08h0a0,0,0,0,0,0,0,1.68,1.68,0,0,0-.22-.56c-.19-.41-.39-.82-.58-1.24,0-.06-.14-.18,0-.24-.22-.33-.48-.57-.7-.88" fill="#5081f7"/>
              <path d="M12.11,18.74s-.11,0-.22.07a2.67,2.67,0,0,0,.32.78c0,.15.11.29.15.44h0v0a10.88,10.88,0,0,0,.77,1l.05,0h0a.58.58,0,0,0-.09-.28l-.72-1.53c0-.08-.11-.17,0-.24-.11-.16-.17-.24-.23-.27" fill="#5380f7"/>
              <path d="M15.47,27.59c-.07,0-.13,0-.16.08h0a8,8,0,0,0,.47,1c.24.52.49,1,.73,1.53a.53.53,0,0,1,.06.27l0,0v0a1.55,1.55,0,0,0,.5.59,1.52,1.52,0,0,0-.24-.62c-.17-.4-.36-.78-.55-1.17a.39.39,0,0,1-.05-.23c-.12-.16-.25-.31-.36-.47s-.09-.05-.08-.11.05,0,.09,0c-.12-.28-.25-.56-.38-.84h0" fill="#5d78f5"/>
              <path d="M5.69,26c0,.31,0,.62,0,.94.33.47.69.88,1,1.31.1,0,0-.06,0-.13-.27-.58-.54-1.16-.82-1.74-.06-.13-.09-.31-.21-.38" fill="#cc25e4"/>
              <path d="M17.5,30.66l.06.17c.22.48.44,1,.67,1.42a3.18,3.18,0,0,0,.37.71c0-.27,0-.54,0-.81a.29.29,0,0,0-.07-.2L17.5,30.66" fill="#537ff7"/>
              <path d="M16.23,29.08a.39.39,0,0,0,.05.23c.19.39.38.77.55,1.17a1.52,1.52,0,0,1,.24.62h0a2.66,2.66,0,0,0,.52.69h0a.89.89,0,0,0-.12-.38c-.25-.51-.49-1-.74-1.54,0-.05,0-.1,0-.11-.17-.26-.38-.45-.56-.69" fill="#5a7af5"/>
              <path d="M6,20.68a.58.58,0,0,0-.28.09c.09.26.24.5.34.76s.24.35.24.58,0,.42,0,.63v3.67c0,.1,0,.19,0,.3l0-.05a.9.9,0,0,0,0-.29l0-4.35a1.85,1.85,0,0,1,0-.41.22.22,0,0,0,0-.08h0A5.94,5.94,0,0,0,6,20.68" fill="#aa3ee9"/>
              <path d="M18,34.57h0a.8.8,0,0,0,0,.32c0,.72,0,1.44,0,2.16a.28.28,0,0,0,0,.09h0c.14.27.25.57.41.83.16,0,.31,0,.25-.36a8.74,8.74,0,0,1-.56-1.1c-.1-.17,0-.41,0-.62V34.72l0-.15" fill="#7268f2"/>
              <path d="M18,32.79h0s0,.06,0,.09c0,.48,0,1,0,1.48a.28.28,0,0,0,.07.21h0l0,.15a1.78,1.78,0,0,1,.32.61c.09.15.16.31.26.45a4.69,4.69,0,0,0,0-.75c-.17-.13-.2-.41-.33-.59l0-.07A1.51,1.51,0,0,1,18,33.26v-.37s0-.09,0-.1" fill="#6373f4"/>
              <path d="M11.3,38.13h0a3.56,3.56,0,0,0,.36.85c.14.35.33.66.46,1a.71.71,0,0,0,.28-.09A4.26,4.26,0,0,0,12,39l0,0v0c-.2-.27-.4-.5-.61-.76a.22.22,0,0,0-.06-.07" fill="#cb25e4"/>
              <path d="M17.85,25.94a.68.68,0,0,0,.07.27l.62,1.29a1.3,1.3,0,0,0,.44-.16l-1.13-1.4" fill="#3992fa"/>
              <path d="M11.89,18.81a1.48,1.48,0,0,0-.42.14,5.12,5.12,0,0,0,.41.85v0h0a.43.43,0,0,1,.43.19h0c0-.15-.1-.29-.15-.44a2.67,2.67,0,0,1-.32-.78" fill="#587cf6"/>
              <path d="M18,33.26h0a1.51,1.51,0,0,0,.22,1.11l0,.07c.13.18.16.46.33.59a5.43,5.43,0,0,0,0-.7c-.09,0-.12-.16-.17-.26a6.15,6.15,0,0,0-.41-.81" fill="#5f77f5"/>
              <path d="M7,30.67l-.32.12c.1.29.26.56.38.84h0v0a.34.34,0,0,0,.39-.15h0A2.12,2.12,0,0,0,7,30.67" fill="#d61de3"/>
              <path d="M17.56,26.86h0a.29.29,0,0,0-.36.12h0a2.45,2.45,0,0,0,.39.85.92.92,0,0,0,.34-.12.54.54,0,0,0-.09-.25c-.1-.2-.19-.4-.29-.61" fill="#438bf8"/>
              <path d="M18,35.9c0,.21-.08.45,0,.62a8.74,8.74,0,0,0,.56,1.1q0-.32,0-.66c-.19-.26-.3-.59-.47-.88A.54.54,0,0,0,18,35.9" fill="#6e6cf3"/>
              <path d="M12.7,38.8c-.16,0-.32,0-.42.15h0a2.71,2.71,0,0,1,.42.81.7.7,0,0,0,.38-.11,9,9,0,0,1-.38-.84h0" fill="#c22ce5"/>
              <path d="M18,34.72v.61a2.36,2.36,0,0,1,.37.68c.07.12.11.27.22.34a5.42,5.42,0,0,0,0-.57c-.1-.14-.17-.3-.26-.45a1.78,1.78,0,0,0-.32-.61" fill="#6771f4"/>
              <path d="M18,35.33v.57a.54.54,0,0,1,.11.18c.17.29.28.62.47.88a4.09,4.09,0,0,0,0-.61c-.11-.07-.15-.22-.22-.34a2.36,2.36,0,0,0-.37-.68" fill="#6b6ef3"/>
              <path d="M17.21,27h0a.31.31,0,0,0-.35.12h0a2.86,2.86,0,0,0,.39.85.87.87,0,0,0,.34-.12,2.45,2.45,0,0,1-.39-.85" fill="#4887f8"/>
              <path d="M15.92,27.43a.39.39,0,0,0-.35.14h0a8.86,8.86,0,0,0,.4.82.64.64,0,0,0,.35-.12,4.93,4.93,0,0,1-.41-.83v0h0" fill="#587cf6"/>
              <path d="M12.24,38.93c-.11,0-.18,0-.26.06l0,0a4.26,4.26,0,0,1,.41.89.75.75,0,0,0,.35-.13,2.71,2.71,0,0,0-.42-.81h0l0,0" fill="#c828e5"/>
              <path d="M6.72,30.79a1.11,1.11,0,0,0-.36.13,2.54,2.54,0,0,1,.39.85h0c.16.06.25,0,.34-.15h0c-.12-.28-.28-.55-.38-.84" fill="#db1ae2"/>
              <path d="M7.39,30.55a1.12,1.12,0,0,0-.35.12,2.12,2.12,0,0,1,.45.84h0a.23.23,0,0,0,.32-.1h0a3.42,3.42,0,0,0-.4-.84" fill="#d121e3"/>
              <path d="M10.32,19.32l-.28.07a2.84,2.84,0,0,0,.38.87v0h0c.13,0,.26,0,.33-.11h0c-.14-.29-.28-.57-.41-.85" fill="#6c6cf2"/>
              <path d="M16.24,27.33a.25.25,0,0,0-.31.11v0a4.93,4.93,0,0,0,.41.83.63.63,0,0,0,.29-.1c-.13-.28-.26-.56-.38-.84h0" fill="#537ff6"/>
              <path d="M8,30.33a.94.94,0,0,0-.28.1l.39.85h0v0a.26.26,0,0,0,.32-.11h0A5.17,5.17,0,0,0,8,30.33" fill="#ca26e4"/>
              <path d="M16.84,27.1c-.12-.05-.2,0-.28.09v0h0l0,0c-.06.07,0,.16,0,.25a3.66,3.66,0,0,1,.27.61,1,1,0,0,0,.36-.13,2.86,2.86,0,0,1-.39-.85h0" fill="#4c85f7"/>
              <path d="M17.34,37.31a.21.21,0,0,0-.29.1h0a2.31,2.31,0,0,0,.39.84.48.48,0,0,0,.26-.09,9.1,9.1,0,0,0-.39-.84v0h0" fill="#7f5ef0"/>
              <path d="M7.56,20.19a.53.53,0,0,0-.24.08,3,3,0,0,0,.22.52,1.14,1.14,0,0,1,.13.35h0a.25.25,0,0,0,.32-.1H8a3.74,3.74,0,0,0-.42-.85" fill="#944fec"/>
              <path d="M8.75,19.81l-.32.1a3.87,3.87,0,0,0,.27.62.5.5,0,0,1,.08.26h0a.27.27,0,0,0,.33-.09h0a3.25,3.25,0,0,0-.24-.57.71.71,0,0,1-.1-.31" fill="#835bef"/>
              <path d="M15.94,37.75h0c-.09,0-.2,0-.25.1v0h0l.38.84a.56.56,0,0,0,.3-.12l-.3-.66a.31.31,0,0,0-.12-.13h0l0,0" fill="#934fed"/>
              <path d="M17.88,37.13a.21.21,0,0,0-.27.09h0a9,9,0,0,0,.38.84.87.87,0,0,0,.31-.1c-.16-.26-.27-.56-.41-.83h0" fill="#7764f0"/>
              <path d="M13.26,38.63a.23.23,0,0,0-.32.1h0l.38.84a.52.52,0,0,0,.25-.07c0-.23-.14-.38-.2-.57s-.09-.2-.12-.3h0" fill="#bb32e6"/>
              <path d="M10.91,19.12l-.28.09a6.1,6.1,0,0,0,.39.86v0a.22.22,0,0,0,.32-.1v0a3.74,3.74,0,0,1-.42-.85" fill="#6473f3"/>
              <path d="M10.63,19.21a.82.82,0,0,0-.31.11c.13.28.27.56.41.85h0c.12.05.22,0,.27-.09v0a6.1,6.1,0,0,1-.39-.86" fill="#6870f3"/>
              <path d="M16.56,27.21h0c-.14-.06-.23,0-.31.13h0c.12.28.25.56.38.84.08-.07.2,0,.28-.1a3.66,3.66,0,0,0-.27-.61c0-.09-.1-.18,0-.25l0,0" fill="#5082f6"/>
              <path d="M14.06,38.36h0c-.09,0-.2,0-.25.1v0h0a8.84,8.84,0,0,1,.38.83c.12,0,.21,0,.31-.1l-.31-.66a.25.25,0,0,0-.13-.15l0,0" fill="#af3be8"/>
              <path d="M13.51,38.53c-.1,0-.2,0-.24.1h0c0,.1.09.2.12.3s.24.34.2.57a.7.7,0,0,0,.35-.14c-.11-.22-.22-.46-.32-.69a.29.29,0,0,0-.11-.11.08.08,0,0,0,0,0h0" fill="#b635e7"/>
              <path d="M9,19.74a.45.45,0,0,0-.23.07.71.71,0,0,0,.1.31,3.25,3.25,0,0,1,.24.57h0c.13.06.2,0,.28-.1h0A6.71,6.71,0,0,0,9,19.74" fill="#7f5ff0"/>
              <path d="M7.07,20.34a1.06,1.06,0,0,0-.3.1,3.81,3.81,0,0,1,.44.85h0v0a.24.24,0,0,0,.29-.12v0a8.22,8.22,0,0,0-.42-.84" fill="#9b4aeb"/>
              <path d="M8.43,19.91a.87.87,0,0,0-.31.1,3.76,3.76,0,0,1,.38.87h0v0c.11,0,.23,0,.27-.12h0a.5.5,0,0,0-.08-.26,3.87,3.87,0,0,1-.27-.62" fill="#8758ee"/>
              <path d="M6.36,30.92a.49.49,0,0,0-.23.08.48.48,0,0,0,.07.21,3,3,0,0,1,.27.66h0c.11.05.19,0,.24-.11h0a2.54,2.54,0,0,0-.39-.85" fill="#dd18e1"/>
              <path d="M11.47,19a.66.66,0,0,0-.29.09l.39.86h0c.13,0,.24,0,.3-.1v0a5.12,5.12,0,0,1-.41-.85" fill="#5c78f4"/>
              <path d="M11.18,19a.61.61,0,0,0-.27.08,3.74,3.74,0,0,0,.42.85h0l.06,0c.08,0,.14,0,.17-.1h0L11.18,19" fill="#6076f4"/>
              <path d="M14.9,38.09a.19.19,0,0,0-.26.09h0a2.49,2.49,0,0,0,.21.51c.05.11.14.23.1.36a.64.64,0,0,0,.31-.11,3.91,3.91,0,0,0-.38-.83v0h0" fill="#a344ea"/>
              <path d="M7.69,30.43a.79.79,0,0,0-.3.12,3.42,3.42,0,0,1,.4.84h0c.12.05.2,0,.25-.12h0l-.39-.85" fill="#ce23e4"/>
              <path d="M14.62,38.17c-.12-.06-.21,0-.28.11v0a4.8,4.8,0,0,1,.38.83.4.4,0,0,0,.24-.07c0-.13-.05-.25-.1-.36a2.49,2.49,0,0,1-.21-.51h0" fill="#a741ea"/>
              <path d="M16.79,37.5a.22.22,0,0,0-.32.1h0a2.78,2.78,0,0,1,.38.84.46.46,0,0,0,.25-.08c.06-.2-.11-.34-.17-.51a3.65,3.65,0,0,1-.14-.35h0" fill="#8758ee"/>
              <path d="M8.12,20a.49.49,0,0,0-.24.08c.09.31.27.57.37.87h0v0c.1,0,.19,0,.23-.1h0A3.76,3.76,0,0,0,8.12,20" fill="#8c55ed"/>
              <path d="M17.63,37.24h0c-.12,0-.21,0-.27.08v0a9.1,9.1,0,0,1,.39.84.75.75,0,0,0,.29-.09,9,9,0,0,1-.38-.84" fill="#7b61f0"/>
              <path d="M16.22,37.65c-.11,0-.23,0-.28.1l0,0h0a.31.31,0,0,1,.12.13l.3.66c.11,0,.19,0,.28-.06a8.16,8.16,0,0,0-.41-.84v0l0,0" fill="#8f52ed"/>
              <path d="M7.88,20.09a.71.71,0,0,0-.32.1A3.74,3.74,0,0,1,8,21H8l0,0a.17.17,0,0,0,.23-.1h0c-.1-.3-.28-.56-.37-.87" fill="#8f52ed"/>
              <path d="M9.22,19.66a.41.41,0,0,0-.24.08,6.71,6.71,0,0,1,.42.85h0l0,0c.1.05.16,0,.22-.1h0a2.53,2.53,0,0,0-.43-.85" fill="#7b61f0"/>
              <path d="M15.43,37.91c-.12,0-.23,0-.29.12h0a2.94,2.94,0,0,1,.39.84.49.49,0,0,0,.28-.11c-.1-.29-.26-.55-.37-.83h0v0" fill="#9b4aeb"/>
              <path d="M14.32,38.28a.18.18,0,0,0-.26.08l0,0a.25.25,0,0,1,.13.15l.31.66a.32.32,0,0,0,.25-.07,4.8,4.8,0,0,0-.38-.83h0" fill="#aa3ee9"/>
              <path d="M17,37.4a.17.17,0,0,0-.25.1h0a3.65,3.65,0,0,0,.14.35c.06.17.23.31.17.51a.94.94,0,0,0,.36-.11,2.31,2.31,0,0,1-.39-.84h0" fill="#835bee"/>
              <path d="M6.52,20.52a.41.41,0,0,0-.24.08,4.67,4.67,0,0,1,.41.84h0l0,0h0c.11.05.18,0,.23-.11h0a2.44,2.44,0,0,0-.41-.84" fill="#a344ea"/>
              <path d="M9.71,19.51a.27.27,0,0,0-.19.06,4.77,4.77,0,0,0,.41.85v0a.17.17,0,0,0,.22-.09h0a2.28,2.28,0,0,0-.43-.85" fill="#7467f1"/>
              <path d="M6.28,20.6a.46.46,0,0,0-.25.08,5.94,5.94,0,0,1,.41.84h0l.06,0c.08,0,.13,0,.16-.12h0a4.67,4.67,0,0,0-.41-.84" fill="#a641e9"/>
              <path d="M13.78,38.46c-.12-.05-.21,0-.27.07a.08.08,0,0,1,0,0,.29.29,0,0,1,.11.11c.1.23.21.47.32.69.1.05.16,0,.24-.07a8.84,8.84,0,0,0-.38-.83h0" fill="#b338e8"/>
              <path d="M6.77,20.44a.46.46,0,0,0-.25.08,2.44,2.44,0,0,1,.41.84h0l.06,0c.09,0,.14,0,.2-.11h0a3.81,3.81,0,0,0-.44-.85" fill="#9f47ea"/>
              <path d="M12.89,38.7c-.09,0-.14,0-.18.11h0a9,9,0,0,0,.38.84.35.35,0,0,0,.24-.08L13,38.74h0l-.06,0" fill="#be2fe5"/>
              <path d="M8.21,30.25a.41.41,0,0,0-.24.08,5.17,5.17,0,0,1,.42.85h0l0,0c.09,0,.15,0,.19-.1v0a4.71,4.71,0,0,0-.42-.84" fill="#c62ae5"/>
              <path d="M10,19.39a1,1,0,0,0-.33.12,2.28,2.28,0,0,1,.43.85h0c.1.05.18,0,.23-.1v0a2.84,2.84,0,0,1-.38-.87" fill="#7069f1"/>
              <path d="M15.09,38c-.08,0-.14,0-.18.08v0a3.91,3.91,0,0,1,.38.83.43.43,0,0,0,.25-.07,2.94,2.94,0,0,0-.39-.84h0s0,0-.05,0" fill="#9f47ea"/>
              <path d="M16.42,37.58c-.09,0-.14,0-.18.09v0a8.16,8.16,0,0,1,.41.84l.21-.08a2.78,2.78,0,0,0-.38-.84h0l0,0" fill="#8b55ed"/>
              <path d="M9.52,19.57a.75.75,0,0,0-.3.09,2.53,2.53,0,0,1,.43.85h0l0,0a.17.17,0,0,0,.23-.1v0a4.77,4.77,0,0,1-.41-.85" fill="#7764f0"/>
              <path d="M15.63,37.84c-.09,0-.16,0-.19.09h0c.11.28.27.54.37.83a.32.32,0,0,0,.25-.06l-.38-.84h0l0,0" fill="#974ceb"/>
              <path d="M7.32,20.27a.55.55,0,0,0-.25.07,8.22,8.22,0,0,1,.42.84v0l.06,0c.05,0,.08,0,.1-.09h0a1.14,1.14,0,0,0-.13-.35,3,3,0,0,1-.22-.52" fill="#974ceb"/>
              <path d="M15.54,27.55s0,0,0,.06h0c.13.28.26.56.38.84,0,0,.08,0,.1-.05a8.86,8.86,0,0,1-.4-.82h0s0,0,0,0" fill="#5b78f4"/>
              <path d="M5.69,24.86v.43h0a2.12,2.12,0,0,1,.27.49,3.74,3.74,0,0,0,.33.63V26a6.38,6.38,0,0,1-.37-.74,1.11,1.11,0,0,0-.24-.39" fill="#c62ae6"/>
              <path d="M7.68,28.41a.86.86,0,0,0,.13.41c.34.72.68,1.46,1,2.19h.07c.07,0,.13.14.2.18s0-.18,0-.24c-.18-.42-.39-.83-.58-1.24a1.53,1.53,0,0,1-.22-.56,7.72,7.72,0,0,0-.55-.7l0,0" fill="#c02ee6"/>
              <path d="M5.71,22.33v.79a2.73,2.73,0,0,1,.3.56,2.29,2.29,0,0,0,.3.56v-.79A2.39,2.39,0,0,1,6,22.78a4,4,0,0,0-.25-.45" fill="#b834e8"/>
              <path d="M5.72,21.63v.06h0v.64a4,4,0,0,1,.25.45,2.39,2.39,0,0,0,.36.67v-.71a.53.53,0,0,1-.16-.26,6.88,6.88,0,0,0-.44-.85" fill="#b437e8"/>
              <path d="M5.71,23.12v.71a2.68,2.68,0,0,1,.37.69,1.21,1.21,0,0,0,.24.39v-.67a2.29,2.29,0,0,1-.3-.56,2.73,2.73,0,0,0-.3-.56" fill="#bd31e7"/>
              <path d="M5.7,24.3v.56a1.11,1.11,0,0,1,.24.39A6.38,6.38,0,0,0,6.3,26v-.57a2.83,2.83,0,0,1-.39-.73c-.07-.13-.13-.27-.21-.39" fill="#c32ce6"/>
              <path d="M5.7,23.83v.47c.08.12.14.26.21.39a2.83,2.83,0,0,0,.39.73v-.51a1.21,1.21,0,0,1-.24-.39,2.68,2.68,0,0,0-.37-.69" fill="#c02fe6"/>
              <path d="M17.39,32h0l-.3.11a2.19,2.19,0,0,0,.43.83.66.66,0,0,0,.27-.09l0,0a2.44,2.44,0,0,1-.41-.84" fill="#6075f4"/>
              <path d="M15.33,27.68h0c-.06,0-.11.05-.17,0a.29.29,0,0,1-.08-.08c-.07.11,0,.22.08.32l.69,1.45a.84.84,0,0,1,.08.27c.21.28.42.56.65.81l0,0a.53.53,0,0,0-.06-.27c-.24-.51-.49-1-.73-1.53a8,8,0,0,1-.47-1" fill="#5f77f5"/>
              <path d="M9.68,30.92a1,1,0,0,0,.17.49l.66,1.41s.08.12,0,.15c.31.41.62.8.94,1.18.06-.1,0-.2-.06-.28-.24-.51-.49-1-.73-1.52a.45.45,0,0,1-.06-.26c-.31-.4-.61-.8-.93-1.17" fill="#b635e8"/>
              <path d="M10.61,32.09a.45.45,0,0,0,.06.26c.24.5.49,1,.73,1.52,0,.08.12.18.06.28.16.2.32.4.47.61s.08.1.12.11a.11.11,0,0,0,.14,0c-.11-.32-.28-.6-.41-.9a2.71,2.71,0,0,1-.31-.79c-.28-.37-.57-.72-.86-1.07" fill="#b139e8"/>
              <path d="M8.85,29.89c.26.67.6,1.29.89,1.95,0,.06.11.16,0,.16.25.33.51.66.78,1,.07,0,0-.1,0-.15l-.66-1.41a1,1,0,0,1-.17-.49c-.27-.36-.54-.7-.83-1" fill="#ba32e7"/>
              <path d="M8.26,29.15a1.53,1.53,0,0,0,.22.56c.19.41.4.82.58,1.24,0,.06.14.18,0,.24.2.29.41.55.63.81.11,0,0-.1,0-.16-.29-.66-.63-1.28-.89-1.95a7.36,7.36,0,0,0-.59-.74" fill="#be30e7"/>
              <path d="M13,33.58a2.1,2.1,0,0,0-.42.15,2.44,2.44,0,0,1,.39.85,1.62,1.62,0,0,0,.42-.15L13,33.58" fill="#a145eb"/>
              <path d="M16.1,32.45l-.38.15c.09.3.27.54.38.84a1.77,1.77,0,0,0,.42-.15,3.67,3.67,0,0,1-.42-.84" fill="#7268f1"/>
              <path d="M11.47,33.16a2.71,2.71,0,0,0,.31.79c.13.3.3.58.41.9a.42.42,0,0,0,.21-.08,1.41,1.41,0,0,0-.22-.55,3.24,3.24,0,0,1-.13-.33c-.19-.24-.39-.48-.58-.73" fill="#ad3ce9"/>
              <path d="M16.41,32.34l-.31.11a3.67,3.67,0,0,0,.42.84.68.68,0,0,0,.27-.1,3.4,3.4,0,0,0-.38-.85" fill="#6d6cf2"/>
              <path d="M13.3,33.45l-.35.13.39.85a.59.59,0,0,0,.28-.1c0-.13-.06-.25-.11-.36a2,2,0,0,1-.21-.52" fill="#9c49eb"/>
              <path d="M17.07,32.11l-.31.1a3.65,3.65,0,0,0,.39.85.91.91,0,0,0,.35-.12,2.19,2.19,0,0,1-.43-.83" fill="#6472f3"/>
              <path d="M13.82,33.27l-.35.13c.15.13.19.35.29.53l.14.3a.73.73,0,0,0,.28-.1,2.84,2.84,0,0,0-.27-.68l-.09-.18" fill="#944fed"/>
              <path d="M16.76,32.21l-.35.13a3.4,3.4,0,0,1,.38.85.92.92,0,0,0,.36-.13,3.65,3.65,0,0,1-.39-.85" fill="#696ff3"/>
              <path d="M15.15,32.8a.64.64,0,0,0-.3.11,4.55,4.55,0,0,1,.4.83.56.56,0,0,0,.28-.1,2.47,2.47,0,0,0-.38-.84" fill="#7f5eef"/>
              <path d="M15.72,32.6a.81.81,0,0,0-.35.12,2.74,2.74,0,0,1,.41.84l.32-.12c-.11-.3-.29-.54-.38-.84" fill="#7864f0"/>
              <path d="M12.53,33.73a.73.73,0,0,0-.28.1,6.53,6.53,0,0,1,.39.85.56.56,0,0,0,.28-.1,2.44,2.44,0,0,0-.39-.85" fill="#a741e9"/>
              <path d="M14.11,33.17a.77.77,0,0,0-.29.1l.09.18a2.84,2.84,0,0,1,.27.68.74.74,0,0,0,.31-.12,9,9,0,0,1-.38-.84" fill="#8f53ed"/>
              <path d="M14.85,32.91a.59.59,0,0,0-.29.1,3,3,0,0,1,.41.84l.28-.11a4.55,4.55,0,0,0-.4-.83" fill="#845bee"/>
              <path d="M14.56,33l-.21.07a3.29,3.29,0,0,0,.26.61.63.63,0,0,1,.09.25l.27-.09a3,3,0,0,0-.41-.84" fill="#8858ee"/>
              <path d="M14.35,33.08l-.24.09a9,9,0,0,0,.38.84.33.33,0,0,0,.21-.07.63.63,0,0,0-.09-.25,3.29,3.29,0,0,1-.26-.61" fill="#8c55ed"/>
              <path d="M15.37,32.72a.42.42,0,0,0-.22.08,2.47,2.47,0,0,1,.38.84.57.57,0,0,0,.25-.08,2.74,2.74,0,0,0-.41-.84" fill="#7b61f0"/>
              <path d="M13.47,33.4l-.17.05a2,2,0,0,0,.21.52c.05.11.14.23.11.36a.73.73,0,0,0,.28-.1l-.14-.3c-.1-.18-.14-.4-.29-.53" fill="#984ceb"/>
              <path d="M12.25,33.83a1.17,1.17,0,0,1-.2.06,3.24,3.24,0,0,0,.13.33,1.41,1.41,0,0,1,.22.55.54.54,0,0,0,.24-.09,6.53,6.53,0,0,0-.39-.85" fill="#aa3ee9"/>
              <path d="M9.5,24.89a.38.38,0,0,0-.23.08,11.14,11.14,0,0,0,.51,1.11c.23.51.49,1,.72,1.53,0,.07.16.2,0,.26.29.39.57.77.88,1.12.05-.13-.05-.26-.1-.36-.23-.51-.48-1-.72-1.51a.43.43,0,0,1-.06-.24h0c-.25-.41-.55-.71-.79-1,0,0,.1,0,.13-.09h0a2.75,2.75,0,0,0-.39-.85" fill="#974cec"/>
              <path d="M9.27,25a.64.64,0,0,0-.31.11c.22.46.44.91.65,1.37.06.13.17.25.12.4q.39.54.81,1c.12-.06,0-.19,0-.26-.23-.51-.49-1-.72-1.53A11.14,11.14,0,0,1,9.27,25" fill="#9c49ec"/>
              <path d="M14.16,26.5a2.9,2.9,0,0,0,.31.75c.23.51.48,1,.72,1.51q.35.46.72.9a.84.84,0,0,0-.08-.27l-.69-1.45c0-.1-.15-.21-.08-.32-.29-.39-.59-.76-.9-1.12" fill="#6473f4"/>
              <path d="M10.61,26.9h-.07a.43.43,0,0,0,.06.24c.24.5.49,1,.72,1.51,0,.1.15.23.1.36l.61.78a.13.13,0,0,0,.07.06s.06,0,.09,0c-.12-.41-.35-.76-.5-1.14a2.18,2.18,0,0,1-.28-.69s0,0,0,0h0a9.13,9.13,0,0,0-.82-1.07" fill="#9350ed"/>
              <path d="M13.54,25.73a.39.39,0,0,0,.05.23c.24.51.48,1,.73,1.52a1.83,1.83,0,0,1,.11.33l0,0h0a.66.66,0,0,1,.06.2h0l.38.86a3.58,3.58,0,0,1,.35-.09c-.24-.5-.49-1-.72-1.51a2.9,2.9,0,0,1-.31-.75c-.18-.3-.43-.48-.62-.77" fill="#6870f4"/>
              <path d="M12.13,24A.13.13,0,0,0,12,24c.19.41.38.8.56,1.2a.86.86,0,0,1,.13.4h0a2.92,2.92,0,0,0,.68.82h0a2.62,2.62,0,0,0-.32-.79c-.17-.39-.36-.76-.54-1.14,0-.06,0-.1,0-.11s-.13-.17-.19-.27a.53.53,0,0,0-.15-.15" fill="#6f6af2"/>
              <path d="M9,25.08l-.53.16,1.3,1.61c0-.15-.06-.27-.12-.4C9.4,26,9.18,25.54,9,25.08" fill="#a046eb"/>
              <path d="M12.47,24.41s0,.05,0,.11c.18.38.37.75.54,1.14a2.62,2.62,0,0,1,.32.79h0a2,2,0,0,0,.54.71h0v0c0-.16-.08-.29-.14-.42-.2-.45-.42-.9-.63-1.35a.79.79,0,0,1-.08-.26c-.18-.23-.36-.46-.55-.68" fill="#6d6cf3"/>
              <path d="M11.46,28h0s0,0,0,0a2.18,2.18,0,0,0,.28.69c.15.38.38.73.5,1.14a1.48,1.48,0,0,0,.35-.13,3,3,0,0,0-.39-.85v0a5.42,5.42,0,0,1-.57-.67c0-.06-.08-.13-.13-.15" fill="#8e53ee"/>
              <path d="M13,25.09a.79.79,0,0,0,.08.26c.21.45.43.9.63,1.35.06.13.18.26.14.42v0a1.63,1.63,0,0,0,.5.63l0,0a1.83,1.83,0,0,0-.11-.33c-.25-.5-.49-1-.73-1.52a.39.39,0,0,1-.05-.23,6.59,6.59,0,0,0-.52-.64" fill="#6a6ff3"/>
              <path d="M12,24a.89.89,0,0,0-.31.11,6.55,6.55,0,0,0,.41.84s0,0,0,0h0a3.28,3.28,0,0,1,.42.48s.07.1.12.12h.05a.86.86,0,0,0-.13-.4c-.18-.4-.37-.79-.56-1.2" fill="#7367f2"/>
              <path d="M14.46,28h0c-.16-.07-.28,0-.39.12h0a4,4,0,0,0,.24.57.63.63,0,0,1,.1.3,2.1,2.1,0,0,0,.42-.15L14.46,28" fill="#6c6cf3"/>
              <path d="M14.08,28.13h0a.35.35,0,0,0-.39.14h0a6,6,0,0,0,.39.85,1.25,1.25,0,0,0,.34-.12.63.63,0,0,0-.1-.3,4,4,0,0,1-.24-.57" fill="#7368f2"/>
              <path d="M12.48,28.67c-.12,0-.25,0-.32.13v0a3,3,0,0,1,.39.85.83.83,0,0,0,.34-.13,1.88,1.88,0,0,0-.4-.84s0,0,0,0h0" fill="#8957ee"/>
              <path d="M13.13,28.46a.25.25,0,0,0-.32.1v0h0c.11.3.28.56.37.86l.36-.13c-.16-.11-.18-.35-.29-.51a2,2,0,0,1-.14-.33h0" fill="#7f5eef"/>
              <path d="M12.83,28.58h0a.23.23,0,0,0-.33.1s0,0,0,0a1.88,1.88,0,0,1,.4.84l.32-.11c-.09-.3-.26-.56-.37-.86" fill="#845bee"/>
              <path d="M11.46,24.21a.82.82,0,0,0-.31.11l.3.62a.49.49,0,0,1,.08.23h0a.23.23,0,0,0,.31-.11h0c-.13-.28-.26-.56-.38-.85" fill="#7b62f0"/>
              <path d="M11.15,24.32a.59.59,0,0,0-.29.1,6,6,0,0,1,.39.85h0c.12,0,.23,0,.28-.12a.49.49,0,0,0-.08-.23l-.3-.62" fill="#7f5eef"/>
              <path d="M10.63,24.5a.58.58,0,0,0-.31.11,6.55,6.55,0,0,1,.37.86h0v0a.24.24,0,0,0,.29-.12h0a4.48,4.48,0,0,0-.29-.68.59.59,0,0,1,0-.19" fill="#8758ee"/>
              <path d="M13.67,28.26a.19.19,0,0,0-.27.1h0a5.8,5.8,0,0,0,.27.62.46.46,0,0,1,.08.25,1,1,0,0,0,.32-.12,6,6,0,0,1-.39-.85h0" fill="#7764f0"/>
              <path d="M9.79,24.79a.72.72,0,0,0-.29.1,2.75,2.75,0,0,1,.39.85h0c.12.06.2,0,.26-.12h0v0a3.91,3.91,0,0,0-.38-.83" fill="#934fec"/>
              <path d="M10.86,24.42a.45.45,0,0,0-.23.08.59.59,0,0,0,0,.19,4.48,4.48,0,0,1,.29.68h0a.16.16,0,0,0,.25-.1h0a6,6,0,0,0-.39-.85" fill="#835bef"/>
              <path d="M13.39,28.36a.17.17,0,0,0-.25.11h0a2,2,0,0,0,.14.33c.11.16.13.4.29.51a.35.35,0,0,0,.2-.07.46.46,0,0,0-.08-.25,5.8,5.8,0,0,1-.27-.62h0" fill="#7b61f0"/>
              <path d="M10,24.71a.41.41,0,0,0-.24.08,3.91,3.91,0,0,1,.38.83v0l.06,0c.09,0,.15,0,.22-.1h0l0,0a2.74,2.74,0,0,0-.41-.84" fill="#8f52ed"/>
              <path d="M10.32,24.61a.59.59,0,0,0-.29.1,2.74,2.74,0,0,1,.41.84l0,0h0c.1.05.15,0,.19-.1h0a6.55,6.55,0,0,0-.37-.86" fill="#8b55ed"/>
              <path d="M11.67,24.14a.4.4,0,0,0-.21.07c.12.29.25.57.38.85h0l.05,0c.08,0,.14,0,.17-.07s0,0,0,0a6.55,6.55,0,0,1-.41-.84" fill="#7764f0"/>
            </g>
          </g>
        </g>
      </g>
      <g>
        <polygon points="24.19 19.46 1.41 9.17 25.96 0.24 48.74 10.53 24.19 19.46" fill="#343434"/>
        <g style="isolation: isolate">
          <g clip-path="url(#clip-path-2)">
            <g>
              <path d="M22.49,13.39a.91.91,0,0,0-.19.26l1.4.08.74,0c.06,0,.15,0,.13,0,.56,0,1.13-.07,1.68-.13.09-.06-.05,0-.1,0l-1.51-.1a1.44,1.44,0,0,1-.48-.06h0a3.2,3.2,0,0,0-.54,0c-.1,0-.2,0-.26,0h0a4.46,4.46,0,0,0-.65-.07.71.71,0,0,1-.21,0" fill="#e215e1"/>
              <path d="M18.14,11.83h0l.47.21a1.19,1.19,0,0,1,.42,0l1.83.11c.07,0,.17,0,.08.05l1.77-.15a11.11,11.11,0,0,0-1.16-.1l-.87-.05a.34.34,0,0,1-.16,0h-.28c-.21,0-.4.05-.61.05h0a.08.08,0,0,1,0,0,.75.75,0,0,1-.24-.08,4,4,0,0,1-.69,0,3.21,3.21,0,0,0-.54,0" fill="#c828e5"/>
              <path d="M29.37,7.42s0,0,.07,0l1.63.09a.91.91,0,0,1,.35.06h0v0l1.78.1h.23L33,7.46a4.89,4.89,0,0,1-.77,0l-1.5-.1-.15,0c-.4,0-.77.07-1.16.1" fill="#587cf6"/>
              <path d="M24.19,13.46h0a1.44,1.44,0,0,0,.48.06l1.51.1c.05,0,.19,0,.1,0,.58,0,1.15-.08,1.72-.14,0-.07-.14-.05-.21-.05l-1-.06-.8,0a.25.25,0,0,1-.16,0h-.15l-1.38.1-.12,0" fill="#de18e2"/>
              <path d="M29.71,13l-.09,0h0a2.51,2.51,0,0,0,.69.08l1.25.07a.92.92,0,0,1,.26.05L33,13.17l.15,0a.12.12,0,0,0,.07-.07c-.35-.05-.71,0-1.05-.08a4.76,4.76,0,0,1-.86-.07v0h0c-.52,0-1,.07-1.54.11" fill="#d022e4"/>
              <path d="M25,5.86c.06.06.21,0,.31.06L26.9,6a.57.57,0,0,1,.24,0h0a2.21,2.21,0,0,0,.52,0c.17,0,.23,0,.24.07h0l.63,0a.66.66,0,0,1,.25,0c.05-.08.15-.15.17-.23a.75.75,0,0,1-.21,0L26.19,5.8l-.06,0L25,5.86" fill="#3f8efa"/>
              <path d="M20.61,11.84l-.06,0h0a.34.34,0,0,0,.16,0l.87.05a11.11,11.11,0,0,1,1.16.1l.64-.05c.12,0,.15,0,.12.05a6.78,6.78,0,0,1,.91,0h0c.09,0,.11-.09.08-.15h0l-2.3-.15a1.46,1.46,0,0,1-.38-.05h0c-.41,0-.8.06-1.19.09" fill="#c32ce6"/>
              <path d="M21,6.18c0,.07.14.05.2.06l1.3.08a1.89,1.89,0,0,1,.55.06h0c.47,0,.92-.06,1.37-.1l.09,0A1.74,1.74,0,0,0,24,6.2l-1.33-.08c-.08,0-.2,0-.21,0-.48,0-1,.08-1.43.11" fill="#4987f8"/>
              <path d="M25.94,13.32l-.07,0h0a.25.25,0,0,0,.16,0l.8,0,1,.06c.07,0,.23,0,.21.05.47,0,.94-.06,1.4-.11,0-.06-.14,0-.21,0l-1.3-.08a2.45,2.45,0,0,1-.62-.07h-.1l-1.2.1" fill="#da1be2"/>
              <path d="M22.3,13.65,22,14l.62,0,1.95-.16s-.07,0-.13,0l-.74,0-1.4-.08" fill="#e612e0"/>
              <path d="M22.44,6.07c0,.06.13,0,.21,0L24,6.2a1.74,1.74,0,0,1,.53.07.36.36,0,0,0,.18,0l1-.08a1.2,1.2,0,0,0,.2,0l0,0h0a6.4,6.4,0,0,0-1-.08L24,6c-.08,0-.18,0-.19,0a1,1,0,0,0-.24,0l-1.09.1" fill="#458af9"/>
              <path d="M19.67,6.29c0,.07.14,0,.21.06l1.29.08a2.53,2.53,0,0,1,.56.06l0,0h0c.43,0,.84-.06,1.27-.09l.05,0h0a1.89,1.89,0,0,0-.55-.06l-1.3-.08c-.06,0-.22,0-.2-.06l-1.34.11" fill="#4d84f7"/>
              <path d="M28.42,13.13l-.06,0a.45.45,0,0,0,.24,0l1.77.12c.06,0,.15,0,.13,0,.45,0,.9,0,1.34-.1a.92.92,0,0,0-.26-.05l-1.25-.07a2.51,2.51,0,0,1-.69-.08h0a9.3,9.3,0,0,0-1.2.08" fill="#d41fe3"/>
              <path d="M23.77,6s.11,0,.19,0l1,.06a6.4,6.4,0,0,1,1,.08h0l.09,0,1.05-.08.06,0h0a.57.57,0,0,0-.24,0l-1.59-.09c-.1,0-.25,0-.31-.06-.42,0-.82.08-1.23.11" fill="#428cf9"/>
              <path d="M26.13,5.78l.06,0L28.73,6a.75.75,0,0,0,.21,0,.29.29,0,0,0,.11-.15l-1.37-.08a.71.71,0,0,1-.23,0c-.45,0-.89.06-1.32.12" fill="#3d90fa"/>
              <path d="M15,10.39c0,.06.09.08.17.12l3.91,1.76a.38.38,0,0,0,.17.07l-.64-.3-.47-.21h0l-.29-.13-.4-.18-.33-.15-.49-.23-.56-.25-.45-.2h0l0,0a9,9,0,0,1,.92,0,1,1,0,0,0,.3,0l-.43-.2a2.74,2.74,0,0,0-.59-.06c-.26,0-.53,0-.78,0" fill="#af3be9"/>
              <path d="M27.27,13.22h0a2.45,2.45,0,0,0,.62.07l1.3.08c.07,0,.22,0,.21,0,.38,0,.76,0,1.13-.09,0,0-.07,0-.13,0L28.6,13.2a.45.45,0,0,1-.24,0h0a.32.32,0,0,0-.14,0l-.85.06-.1,0" fill="#d71de3"/>
              <path d="M31.46,7.6v0c-.06.06-.13.12-.09.19h0v0a3.28,3.28,0,0,0,.89,0v0h0c.06,0,.07-.05.12-.07h0l-.06,0h0a.18.18,0,0,1,.1,0l.26.12h0a6.26,6.26,0,0,1,.87,0,.75.75,0,0,0,.3,0,3.46,3.46,0,0,0-.43-.19h-.23l-1.78-.1" fill="#5c79f5"/>
              <path d="M18.55,6.38c0,.06.11,0,.19.06l1.61.09a.92.92,0,0,1,.26,0h0a7.93,7.93,0,0,0,1-.06l.12,0h0l0,0a2.53,2.53,0,0,0-.56-.06l-1.29-.08c-.07,0-.23,0-.21-.06-.38,0-.74.07-1.12.09" fill="#5081f7"/>
              <path d="M18.19,6.42c-.06,0-.08.06-.12.14a4.07,4.07,0,0,0,.79.08,2.68,2.68,0,0,1,.42.05h0c.43,0,.84,0,1.26-.09l.06,0h0a.92.92,0,0,0-.26,0l-1.61-.09c-.08,0-.2,0-.19-.06a1.59,1.59,0,0,0-.36,0" fill="#5380f7"/>
              <path d="M26.88,7.42c-.08,0-.1.07-.06.11h0a9.28,9.28,0,0,0,1.07.08l1.61.1a.49.49,0,0,1,.23,0h0a2.43,2.43,0,0,0,.78-.08,2.37,2.37,0,0,0-.61-.07l-1.23-.07a.48.48,0,0,1-.2,0l-.6,0s-.09,0-.12,0,0,0,0-.06l-.88-.06h0" fill="#5d78f5"/>
              <path d="M18.61,12l.64.3c.58,0,1.13-.08,1.69-.13.09-.05,0-.05-.08-.05L19,12.05a1.19,1.19,0,0,0-.42,0" fill="#cc25e4"/>
              <path d="M30.53,7.32l.15,0,1.5.1a4.89,4.89,0,0,0,.77,0l-.57-.26a.36.36,0,0,0-.19,0l-1.66.15" fill="#537ff7"/>
              <path d="M28.48,7.49a.48.48,0,0,0,.2,0l1.23.07a2.37,2.37,0,0,1,.61.07h0a4.06,4.06,0,0,0,.86,0h0a.91.91,0,0,0-.35-.06l-1.63-.09c-.05,0-.09,0-.07,0-.3,0-.59,0-.89.07" fill="#5a7af5"/>
              <path d="M15.14,10.21a.34.34,0,0,0-.14.18c.25,0,.52,0,.78,0a2.74,2.74,0,0,1,.59.06l.43.2.5.23.56.25.46.21.36.16.4.18.29.13a.75.75,0,0,0,.24.08.08.08,0,0,0,0,0,.56.56,0,0,0-.19-.1l-3-1.38a1,1,0,0,1-.27-.14l-.05,0h0c-.3,0-.59,0-.89,0" fill="#aa3ee9"/>
              <path d="M33.63,8.29l0,0s.12.08.2.12c.5.23,1,.45,1.51.69l.07,0h0c.3,0,.59,0,.89,0,.11-.09.21-.17-.07-.24s-.79,0-1.18,0a1.18,1.18,0,0,1-.46-.19l-.39-.18-.43-.19-.12,0" fill="#7268f2"/>
              <path d="M32.37,7.74h0l.06,0c.32.17.69.32,1,.47a.31.31,0,0,0,.18,0h0l.12,0a3,3,0,0,1,.67,0h.5a3.56,3.56,0,0,0-.52-.24,3.74,3.74,0,0,1-.67,0h-.06a1.64,1.64,0,0,1-.94-.23l-.26-.12a.18.18,0,0,0-.1,0" fill="#6373f4"/>
              <path d="M31.28,12.9h0v0a4.76,4.76,0,0,0,.86.07c.34,0,.7,0,1.05.08a.51.51,0,0,0,.13-.18,5.54,5.54,0,0,0-.92-.06v0h0c-.33,0-.65,0-1,.07h-.1" fill="#cb25e4"/>
              <path d="M27.45,5.66a.71.71,0,0,0,.23,0l1.37.08a.86.86,0,0,0,.2-.28l-1.8.15" fill="#3992fa"/>
              <path d="M18.07,6.56a1.21,1.21,0,0,0-.2.26,6.6,6.6,0,0,0,.9,0h0A.52.52,0,0,1,19,6.76a1.33,1.33,0,0,1,.26,0h0a2.68,2.68,0,0,0-.42-.05,4.07,4.07,0,0,1-.79-.08" fill="#587cf6"/>
              <path d="M32.73,7.87h0a1.64,1.64,0,0,0,.94.23h.06a3.74,3.74,0,0,0,.67,0,4.67,4.67,0,0,0-.5-.23.75.75,0,0,1-.3,0,6.26,6.26,0,0,0-.87,0" fill="#5f77f5"/>
              <path d="M22.92,12.81l-.15.2c.28,0,.59,0,.87.06h0c.13-.07.22-.15.18-.25h0a3.14,3.14,0,0,0-.92,0" fill="#d61de3"/>
              <path d="M27.89,6.1h0c-.15.06-.19.14-.17.22h0a2.9,2.9,0,0,0,.89.06,1,1,0,0,0,.16-.21.66.66,0,0,0-.25,0l-.63,0" fill="#438bf8"/>
              <path d="M34.57,8.7a1.18,1.18,0,0,0,.46.19c.39,0,.78.07,1.18,0a2.78,2.78,0,0,0-.46-.21c-.33,0-.64,0-1,0h-.21" fill="#6e6cf3"/>
              <path d="M32.78,12.38c-.13.08-.26.16-.2.26h0a3.59,3.59,0,0,1,.87,0,.44.44,0,0,0,.2-.24c-.28,0-.58,0-.86-.06h0" fill="#c22ce5"/>
              <path d="M33.75,8.33l.43.19a4.7,4.7,0,0,1,.75,0,1.28,1.28,0,0,0,.39,0,3,3,0,0,0-.4-.17h-.5a3,3,0,0,0-.67,0" fill="#6771f4"/>
              <path d="M34.18,8.52l.39.18h.21c.33,0,.64.05,1,0a3.45,3.45,0,0,0-.43-.2,1.28,1.28,0,0,1-.39,0,4.7,4.7,0,0,0-.75,0" fill="#6b6ef3"/>
              <path d="M27.72,6.32h0c-.14.06-.18.14-.17.22h0a3.62,3.62,0,0,0,.88.06.69.69,0,0,0,.17-.22,2.9,2.9,0,0,1-.89-.06" fill="#4887f8"/>
              <path d="M27.09,7.14c-.11.07-.17.14-.16.23h0c.3,0,.58,0,.88,0A.4.4,0,0,0,28,7.19a6.49,6.49,0,0,1-.88-.05h0" fill="#587cf6"/>
              <path d="M32.53,12.66a.2.2,0,0,0-.14.16v0a5.54,5.54,0,0,1,.92.06.4.4,0,0,0,.16-.22,3.59,3.59,0,0,0-.87,0h-.06" fill="#c828e5"/>
              <path d="M22.77,13a.91.91,0,0,0-.17.23,3.7,3.7,0,0,1,.89.06h0c.16-.06.17-.14.15-.22h0c-.28,0-.59,0-.87-.06" fill="#db1ae2"/>
              <path d="M23.09,12.58a1.13,1.13,0,0,0-.17.23,3.14,3.14,0,0,1,.92,0h0c.15-.06.18-.13.16-.2h0a6.46,6.46,0,0,0-.89-.05" fill="#d121e3"/>
              <path d="M17.29,7.54l-.15.17a4.34,4.34,0,0,0,.89.07h0c.1-.06.2-.12.16-.2h0l-.9,0" fill="#6c6cf2"/>
              <path d="M27.26,6.94c-.12.06-.19.12-.15.2h0a6.49,6.49,0,0,0,.88.05c.06-.06.14-.11.15-.18L27.27,7h0" fill="#537ff6"/>
              <path d="M23.36,12.21a.68.68,0,0,0-.13.18l.87.06h0c.15-.06.19-.13.16-.2h0a8.72,8.72,0,0,0-.9,0" fill="#ca26e4"/>
              <path d="M27.53,6.55a.18.18,0,0,0-.14.18h0c0,.06.12,0,.22.06s.43,0,.62,0a.53.53,0,0,0,.17-.23,3.62,3.62,0,0,1-.88-.06h0" fill="#4c85f7"/>
              <path d="M35.09,9.48c-.11,0-.16.11-.13.18h0a3.54,3.54,0,0,0,.87.06A.53.53,0,0,0,36,9.55c-.29,0-.58,0-.88-.06h0" fill="#7f5ef0"/>
              <path d="M15.91,9.25a.38.38,0,0,0-.13.16,4.51,4.51,0,0,0,.54.05,1.19,1.19,0,0,1,.33,0h0c.15-.06.18-.13.16-.2h0a6.7,6.7,0,0,0-.9-.05" fill="#944fec"/>
              <path d="M16.5,8.52l-.16.19a4.48,4.48,0,0,0,.64,0,.56.56,0,0,1,.23.05h0c.14-.05.19-.12.17-.2h0a3.68,3.68,0,0,0-.58,0,1.27,1.27,0,0,1-.29,0" fill="#835bef"/>
              <path d="M34.39,10.35h0c-.07.06-.16.1-.11.17h0l.88.06a.43.43,0,0,0,.14-.2l-.7,0a.35.35,0,0,0-.18,0h0l0,0" fill="#934fed"/>
              <path d="M35.37,9.14c-.13,0-.15.11-.14.17h0c.28,0,.58,0,.87.06a.53.53,0,0,0,.15-.19c-.3,0-.59,0-.89,0h0" fill="#7764f0"/>
              <path d="M33.07,12c-.15.05-.2.12-.17.2h0l.87.06a.4.4,0,0,0,.12-.15c-.12-.09-.36-.05-.54-.07l-.3,0h0" fill="#bb32e6"/>
              <path d="M17.59,7.17l-.15.17a8.64,8.64,0,0,0,.9.07h0c.14-.06.2-.12.16-.2h0a6.63,6.63,0,0,1-.9,0" fill="#6473f3"/>
              <path d="M17.44,7.34a.87.87,0,0,0-.15.2l.9,0h0c.12,0,.18-.09.13-.16h0a8.64,8.64,0,0,1-.9-.07" fill="#6870f3"/>
              <path d="M27.41,6.73h0c-.14,0-.16.12-.12.2h0l.87.06c0-.06.14-.11.13-.18-.19,0-.42,0-.62,0s-.2,0-.22-.06h0" fill="#5082f6"/>
              <path d="M33.45,11.53h0c-.06.05-.16.1-.12.16h0c.28,0,.58,0,.86.06.11,0,.12-.12.16-.19l-.7-.05a.56.56,0,0,0-.2,0v0" fill="#af3be8"/>
              <path d="M33.18,11.87c-.09.05-.18.09-.11.16h0l.3,0c.18,0,.42,0,.54.07a.4.4,0,0,0,.16-.22l-.72-.05a.24.24,0,0,0-.15,0l0,0h0" fill="#b635e7"/>
              <path d="M16.62,8.37a.32.32,0,0,0-.12.15,1.27,1.27,0,0,0,.29,0,3.68,3.68,0,0,1,.58,0h.05a.19.19,0,0,0,.13-.18h0c-.31,0-.6-.06-.91-.05" fill="#7f5ff0"/>
              <path d="M15.66,9.56a.7.7,0,0,0-.16.19,5.75,5.75,0,0,1,.93,0h0c.12,0,.15-.11.12-.19h0a8.53,8.53,0,0,0-.89,0" fill="#9b4aeb"/>
              <path d="M16.34,8.71a.74.74,0,0,0-.16.2,5.1,5.1,0,0,1,.89.07h0c.08-.06.18-.11.11-.18h0A.56.56,0,0,0,17,8.76a4.48,4.48,0,0,1-.64,0" fill="#8758ee"/>
              <path d="M22.6,13.24a.39.39,0,0,0-.11.15.71.71,0,0,0,.21,0,4.46,4.46,0,0,1,.65.07h0c.11,0,.15-.09.09-.16h0a3.7,3.7,0,0,0-.89-.06" fill="#dd18e1"/>
              <path d="M17.87,6.82a.6.6,0,0,0-.15.18l.89.07h0c.12-.05.19-.12.14-.19h0a6.6,6.6,0,0,1-.9,0" fill="#5c78f4"/>
              <path d="M17.72,7a.34.34,0,0,0-.13.17,6.63,6.63,0,0,0,.9,0h0l.07,0c.09,0,.1-.07.05-.12h0L17.72,7" fill="#6076f4"/>
              <path d="M33.88,11c-.12.05-.15.1-.13.17h0a2.84,2.84,0,0,0,.51.05c.12,0,.27,0,.33.06a.46.46,0,0,0,.15-.2,8.1,8.1,0,0,0-.87-.06h0" fill="#a344ea"/>
              <path d="M23.23,12.39a.46.46,0,0,0-.14.19,6.46,6.46,0,0,1,.89.05h0c.12,0,.15-.1.1-.16h0l-.87-.06" fill="#ce23e4"/>
              <path d="M33.73,11.17c-.13.05-.14.12-.13.18h0a6.15,6.15,0,0,1,.87.06.4.4,0,0,0,.12-.15c-.06-.06-.21,0-.33-.06a2.84,2.84,0,0,1-.51-.05h0" fill="#a741ea"/>
              <path d="M34.83,9.83c-.15.05-.18.12-.16.2h0a4.1,4.1,0,0,1,.87.06.4.4,0,0,0,.12-.15c-.09-.1-.32,0-.48-.07s-.24,0-.35,0h0" fill="#8758ee"/>
              <path d="M16.18,8.91a.4.4,0,0,0-.12.15c.29,0,.6,0,.89.07h0c.08,0,.15-.09.1-.15h0a5.1,5.1,0,0,0-.89-.07" fill="#8c55ed"/>
              <path d="M35.26,9.31h0c-.12,0-.19.09-.14.16h0c.3,0,.59,0,.88.06a.59.59,0,0,0,.14-.18c-.29,0-.59,0-.87-.06" fill="#7b61f0"/>
              <path d="M34.52,10.17c-.07.06-.18.11-.13.18l0,0h0a.35.35,0,0,1,.18,0l.7,0c.09,0,.11-.11.15-.16-.3,0-.59-.05-.89-.05h0" fill="#8f52ed"/>
              <path d="M16.06,9.06a.62.62,0,0,0-.15.19,6.7,6.7,0,0,1,.9.05h.05c.11,0,.13-.09.1-.15h0c-.29,0-.6,0-.89-.07" fill="#8f52ed"/>
              <path d="M16.74,8.22a.4.4,0,0,0-.12.15c.31,0,.6,0,.91.05h.06c.1,0,.09-.09.08-.14h0a3.44,3.44,0,0,0-.91,0" fill="#7b61f0"/>
              <path d="M34.13,10.67c-.1.06-.17.12-.12.19h0a4.15,4.15,0,0,1,.87.06.36.36,0,0,0,.13-.18c-.28,0-.58,0-.86-.06h0" fill="#9b4aeb"/>
              <path d="M33.59,11.37c-.12,0-.17.09-.14.16v0a.56.56,0,0,1,.2,0l.7.05a.26.26,0,0,0,.13-.15,6.15,6.15,0,0,0-.87-.06h0" fill="#aa3ee9"/>
              <path d="M34.94,9.67c-.12,0-.15.09-.1.16h0c.11,0,.24,0,.35,0s.39,0,.48.07a.7.7,0,0,0,.18-.22A3.54,3.54,0,0,1,35,9.66h0" fill="#835bee"/>
              <path d="M15.38,9.9a.36.36,0,0,0-.12.16,6.55,6.55,0,0,1,.89,0h.05c.11,0,.12-.09.09-.15h0a4.35,4.35,0,0,0-.89,0" fill="#a344ea"/>
              <path d="M17,7.92a.18.18,0,0,0-.09.12,8.72,8.72,0,0,0,.9.05h0c.09,0,.12-.09.1-.15h0a3.13,3.13,0,0,0-.92,0" fill="#7467f1"/>
              <path d="M15.26,10.06a.25.25,0,0,0-.12.15c.3,0,.59,0,.89,0h0l.07,0c.09,0,.07-.07,0-.12h0a6.55,6.55,0,0,0-.89,0" fill="#a641e9"/>
              <path d="M33.32,11.71c-.12,0-.18.09-.14.16l0,0a.24.24,0,0,1,.15,0l.72.05c.11,0,.1-.1.13-.16-.28,0-.58,0-.86-.06h0" fill="#b338e8"/>
              <path d="M15.5,9.75a.4.4,0,0,0-.12.15,4.35,4.35,0,0,1,.89,0h0l.07,0c.09,0,.08-.09.07-.14h0a5.75,5.75,0,0,0-.93,0" fill="#9f47ea"/>
              <path d="M32.85,12.25c-.09,0-.1.08-.05.13h0c.28,0,.58,0,.86.06a.23.23,0,0,0,.13-.15l-.87-.06h0l-.06,0" fill="#be2fe5"/>
              <path d="M23.47,12.06a.36.36,0,0,0-.11.15,8.72,8.72,0,0,1,.9,0h.06c.09,0,.1-.08.07-.13h0a6.78,6.78,0,0,0-.91,0" fill="#c62ae5"/>
              <path d="M17.14,7.71a.78.78,0,0,0-.16.21,3.13,3.13,0,0,1,.92,0h0c.11,0,.13-.09.1-.15h0a4.34,4.34,0,0,1-.89-.07" fill="#7069f1"/>
              <path d="M34,10.88c-.09,0-.11.07-.07.12h0a8.1,8.1,0,0,1,.87.06.26.26,0,0,0,.13-.15,4.15,4.15,0,0,0-.87-.06h0l0,0" fill="#9f47ea"/>
              <path d="M34.62,10.05c-.09,0-.11.07-.07.12h0c.3,0,.59,0,.89.05l.1-.14a4.1,4.1,0,0,0-.87-.06h0l-.06,0" fill="#8b55ed"/>
              <path d="M16.89,8a.6.6,0,0,0-.15.18,3.44,3.44,0,0,1,.91,0h.05c.11,0,.13-.09.09-.15h0a8.72,8.72,0,0,1-.9-.05" fill="#7764f0"/>
              <path d="M34.23,10.54c-.09,0-.14.08-.08.13h0c.28,0,.58,0,.86.06a.28.28,0,0,0,.14-.15l-.88-.06h-.05" fill="#974ceb"/>
              <path d="M15.78,9.41a.33.33,0,0,0-.12.15,8.53,8.53,0,0,1,.89,0h.09c.06,0,.05-.05,0-.09h0a1.19,1.19,0,0,0-.33,0,4.51,4.51,0,0,1-.54-.05" fill="#974ceb"/>
              <path d="M26.9,7.37s0,0,0,0h0l.88.06s.05,0,0-.07c-.3,0-.58,0-.88,0H26.9" fill="#5b78f4"/>
              <path d="M17.85,11.7l.29.13h0a3.21,3.21,0,0,1,.54,0,4,4,0,0,0,.69,0l-.29-.13a6.85,6.85,0,0,1-.79,0,1.61,1.61,0,0,0-.44,0" fill="#c62ae6"/>
              <path d="M21.79,11.77a1.46,1.46,0,0,0,.38.05l2.3.15h0l.05,0c.08,0,.19,0,.27,0s-.13,0-.2-.05l-1.3-.08a1.93,1.93,0,0,1-.55-.06c-.3,0-.6,0-.9.07h-.05" fill="#c02ee6"/>
              <path d="M16.07,10.89l.56.25a4.1,4.1,0,0,1,.61,0,4.28,4.28,0,0,0,.62,0l-.56-.25a4.42,4.42,0,0,1-.73,0l-.5,0" fill="#b834e8"/>
              <path d="M15.58,10.67l0,0h0l.45.2.5,0a4.42,4.42,0,0,0,.73,0l-.5-.23a1,1,0,0,1-.3,0,9,9,0,0,0-.92,0" fill="#b437e8"/>
              <path d="M16.63,11.14l.49.23a3.86,3.86,0,0,1,.76,0,2.16,2.16,0,0,0,.44,0l-.46-.21a4.28,4.28,0,0,1-.62,0,4.1,4.1,0,0,0-.61,0" fill="#bd31e7"/>
              <path d="M17.45,11.52l.4.18a1.61,1.61,0,0,1,.44,0,6.85,6.85,0,0,0,.79,0l-.4-.18a4.28,4.28,0,0,1-.8,0c-.14,0-.28,0-.43,0" fill="#c32ce6"/>
              <path d="M17.12,11.37l.33.15c.15,0,.29,0,.43,0a4.28,4.28,0,0,0,.8,0l-.36-.16a2.16,2.16,0,0,1-.44,0,3.86,3.86,0,0,0-.76,0" fill="#c02fe6"/>
              <path d="M31.38,7.79v0L31.23,8a3,3,0,0,0,.9,0,.52.52,0,0,0,.13-.17v0a3.28,3.28,0,0,1-.89,0" fill="#6075f4"/>
              <path d="M26.84,7.52h0s0,.08-.1.1l-.12,0c0,.07.19,0,.28,0l1.53.1a.93.93,0,0,1,.25,0c.35,0,.7,0,1-.09h.05a.49.49,0,0,0-.23,0l-1.61-.1a9.28,9.28,0,0,1-1.07-.08" fill="#5f77f5"/>
              <path d="M25,11.5a1.41,1.41,0,0,0,.47.06l1.47.1c.06,0,.15,0,.12,0,.51,0,1-.07,1.51-.12,0-.07-.16-.05-.24-.06l-1.6-.1a.47.47,0,0,1-.23,0c-.5,0-1,.07-1.5.12" fill="#b635e8"/>
              <path d="M26.52,11.38a.47.47,0,0,0,.23,0l1.6.1c.08,0,.22,0,.24.06l.78-.06a.65.65,0,0,0,.17,0s.07,0,.07-.08c-.3,0-.62,0-.92-.07a3.36,3.36,0,0,1-.79-.08c-.47,0-.92.07-1.38.12" fill="#b139e8"/>
              <path d="M23.69,11.61c.66.08,1.35.09,2,.14.07,0,.2,0,.11.05.43,0,.85-.06,1.26-.1,0,0-.06,0-.12,0l-1.47-.1A1.41,1.41,0,0,1,25,11.5c-.45,0-.89.06-1.33.11" fill="#ba32e7"/>
              <path d="M22.74,11.69a1.93,1.93,0,0,0,.55.06l1.3.08c.07,0,.23,0,.2.05.35,0,.69,0,1-.08.09-.06,0,0-.11-.05-.67-.05-1.36-.06-2-.14-.32,0-.64,0-1,.08" fill="#be30e7"/>
              <path d="M29.28,10.62a1,1,0,0,0-.2.26A3.61,3.61,0,0,1,30,11a.89.89,0,0,0,.19-.27l-.87-.06" fill="#a145eb"/>
              <path d="M30.77,8.61l-.18.25c.28,0,.59,0,.87.06a.79.79,0,0,0,.2-.26,5.26,5.26,0,0,1-.89-.05" fill="#7268f1"/>
              <path d="M27.9,11.26a3.36,3.36,0,0,0,.79.08c.3,0,.62,0,.92.07a.24.24,0,0,0,.1-.13,1.57,1.57,0,0,0-.54-.06,1.75,1.75,0,0,1-.33,0l-.94.08" fill="#ad3ce9"/>
              <path d="M30.92,8.42l-.15.19a5.26,5.26,0,0,0,.89.05c.05-.06.13-.11.14-.18a4.25,4.25,0,0,0-.88-.06" fill="#6d6cf2"/>
              <path d="M29.44,10.39l-.16.23.87.06a.39.39,0,0,0,.14-.18c-.07-.06-.21-.05-.33-.06a2.87,2.87,0,0,1-.52,0" fill="#9c49eb"/>
              <path d="M31.23,8l-.15.19a6.27,6.27,0,0,0,.88.07A.85.85,0,0,0,32.13,8a3,3,0,0,1-.9,0" fill="#6472f3"/>
              <path d="M29.69,10.06l-.17.23a2.9,2.9,0,0,1,.59,0l.31,0a.47.47,0,0,0,.14-.18,4.91,4.91,0,0,0-.68-.06l-.19,0" fill="#944fed"/>
              <path d="M31.08,8.19l-.16.23a4.25,4.25,0,0,1,.88.06A.77.77,0,0,0,32,8.26a6.27,6.27,0,0,1-.88-.07" fill="#696ff3"/>
              <path d="M30.32,9.22a.46.46,0,0,0-.14.19,6.4,6.4,0,0,1,.88.05.44.44,0,0,0,.14-.18,4.25,4.25,0,0,0-.88-.06" fill="#7f5eef"/>
              <path d="M30.59,8.86a.65.65,0,0,0-.16.22,3.77,3.77,0,0,1,.89.05c0-.07.09-.14.14-.21-.28,0-.59,0-.87-.06" fill="#7864f0"/>
              <path d="M29.08,10.88a.55.55,0,0,0-.14.18c.3,0,.6,0,.88.06A.31.31,0,0,0,30,11a3.61,3.61,0,0,0-.88-.07" fill="#a741e9"/>
              <path d="M29.83,9.88a.73.73,0,0,0-.14.18l.19,0a4.91,4.91,0,0,1,.68.06.54.54,0,0,0,.13-.19c-.29,0-.58,0-.86-.07" fill="#8f53ed"/>
              <path d="M30.18,9.41a.44.44,0,0,0-.14.18,5.2,5.2,0,0,1,.89.05l.13-.18a6.4,6.4,0,0,0-.88-.05" fill="#845bee"/>
              <path d="M30,9.59a.64.64,0,0,1-.1.13,4.07,4.07,0,0,0,.62.06.83.83,0,0,1,.24,0l.13-.17A5.2,5.2,0,0,0,30,9.59" fill="#8858ee"/>
              <path d="M29.94,9.72a.91.91,0,0,1-.11.16c.28,0,.57,0,.86.07a.24.24,0,0,0,.11-.14.83.83,0,0,0-.24,0,4.07,4.07,0,0,1-.62-.06" fill="#8c55ed"/>
              <path d="M30.43,9.08a.24.24,0,0,0-.11.14,4.25,4.25,0,0,1,.88.06.53.53,0,0,0,.12-.15,3.77,3.77,0,0,0-.89-.05" fill="#7b61f0"/>
              <path d="M29.52,10.29l-.08.1a2.87,2.87,0,0,0,.52,0c.12,0,.26,0,.33.06a.51.51,0,0,0,.13-.18l-.31,0a2.9,2.9,0,0,0-.59,0" fill="#984ceb"/>
              <path d="M28.94,11.06l-.1.12a1.75,1.75,0,0,0,.33,0,1.57,1.57,0,0,1,.54.06.28.28,0,0,0,.11-.16c-.28,0-.58,0-.88-.06" fill="#aa3ee9"/>
              <path d="M20.64,9.71a.22.22,0,0,0-.12.15c.37.05.77.05,1.15.07l1.61.1c.07,0,.26,0,.21.07.48,0,1-.07,1.43-.12-.05-.06-.22-.05-.32-.06L23,9.83a.56.56,0,0,1-.21,0l0,0h0c-.46,0-.89.06-1.31.09.05,0,.07,0,0-.1h0a4.25,4.25,0,0,0-.88-.06" fill="#974cec"/>
              <path d="M20.52,9.86a.44.44,0,0,0-.15.19c.48,0,1,0,1.44.09.13,0,.3,0,.38.06.43,0,.87-.06,1.3-.1.05-.09-.14-.06-.21-.07l-1.61-.1c-.38,0-.78,0-1.15-.07" fill="#9c49ec"/>
              <path d="M25.15,7.77a3.7,3.7,0,0,0,.76.07l1.59.1,1.16-.1a.93.93,0,0,0-.25,0l-1.53-.1c-.09,0-.25,0-.28,0-.49,0-1,.07-1.45.12" fill="#6473f4"/>
              <path d="M22.86,9.76h0l0,0a.56.56,0,0,0,.21,0l1.59.09c.1,0,.27,0,.32.06l1-.07.1,0s0,0,0-.05c-.37-.07-.78-.06-1.16-.1a2.52,2.52,0,0,1-.69-.07h0c-.46,0-.91.05-1.35.1" fill="#9350ed"/>
              <path d="M24.16,7.85a.41.41,0,0,0,.21.05L26,8l.32,0h-.05a.84.84,0,0,1,.18,0h0l.89.07.19-.21-1.59-.1a3.7,3.7,0,0,1-.76-.07c-.34,0-.64.07-1,.08" fill="#6870f4"/>
              <path d="M21.91,8.05c-.05,0-.08,0-.08.09l1.26.08a1.06,1.06,0,0,1,.37.06h0a6.07,6.07,0,0,0,1.07-.1h0a3.91,3.91,0,0,0-.79-.08L22.53,8c-.06,0-.09,0-.08,0l-.32,0a.61.61,0,0,0-.22,0" fill="#6f6af2"/>
              <path d="M20.37,10.05l-.27.33,2.09-.18c-.08-.07-.25,0-.38-.06-.48,0-1-.06-1.44-.09" fill="#a046eb"/>
              <path d="M22.45,8s0,0,.08,0l1.19.07a3.91,3.91,0,0,1,.79.08h0a3.67,3.67,0,0,0,.89-.06h0c-.09-.08-.27,0-.4-.06C24.52,8,24,8,23.57,8a.93.93,0,0,1-.24,0L22.45,8" fill="#6d6cf3"/>
              <path d="M24.24,9.65h0a2.52,2.52,0,0,0,.69.07c.38,0,.79,0,1.16.1a.72.72,0,0,0,.17-.23,5.07,5.07,0,0,0-.88-.06h0c-.28.05-.6.05-.89.08a1.06,1.06,0,0,0-.2,0" fill="#8e53ee"/>
              <path d="M23.33,7.92a.93.93,0,0,0,.24,0c.47,0,.95,0,1.42.09.13,0,.31,0,.4.06h0a2.57,2.57,0,0,0,.8-.07h.06L26,8,24.37,7.9a.41.41,0,0,1-.21-.05l-.83.07" fill="#6a6ff3"/>
              <path d="M21.83,8.14a.55.55,0,0,0-.15.2,8.77,8.77,0,0,0,.9,0v0h0c.2-.05.43,0,.64-.07l.17,0,0,0h0a1.06,1.06,0,0,0-.37-.06l-1.26-.08" fill="#7367f2"/>
              <path d="M26.42,8.08h0a.27.27,0,0,0-.19.24h0a3.58,3.58,0,0,0,.58,0,1.26,1.26,0,0,1,.28,0,1.51,1.51,0,0,0,.2-.26l-.89-.07" fill="#6c6cf3"/>
              <path d="M26.25,8.32h0c-.16.07-.2.15-.19.25h0a8.29,8.29,0,0,0,.88.06.65.65,0,0,0,.16-.22,1.26,1.26,0,0,0-.28,0,3.58,3.58,0,0,1-.58,0" fill="#7368f2"/>
              <path d="M25.46,9.33c-.08.06-.17.13-.13.21h0a5.07,5.07,0,0,1,.88.06.65.65,0,0,0,.16-.22,2.89,2.89,0,0,0-.89-.05v0h0" fill="#8957ee"/>
              <path d="M25.79,8.92c-.14.06-.17.12-.16.2h0c.29,0,.6,0,.87.07.06-.08.12-.15.17-.23a2.18,2.18,0,0,1-.57,0,1.83,1.83,0,0,1-.33,0h0" fill="#7f5eef"/>
              <path d="M25.66,9.12h0c-.15.06-.21.12-.17.2v0a2.89,2.89,0,0,1,.89.05,1,1,0,0,0,.15-.2c-.27,0-.58,0-.87-.07" fill="#845bee"/>
              <path d="M21.58,8.47a.55.55,0,0,0-.15.2l.65,0a1.43,1.43,0,0,1,.23,0h0c.14-.05.18-.12.15-.2h0l-.87-.07" fill="#7b62f0"/>
              <path d="M21.43,8.67a.44.44,0,0,0-.14.18,8.48,8.48,0,0,1,.88.06h0c.13-.05.19-.11.13-.19a1.43,1.43,0,0,0-.23,0l-.65,0" fill="#7f5eef"/>
              <path d="M21.18,9a.36.36,0,0,0-.15.19,8,8,0,0,1,.87.08h0c.11,0,.14-.11.13-.18h0A3.85,3.85,0,0,0,21.35,9a.86.86,0,0,1-.17,0" fill="#8758ee"/>
              <path d="M26,8.58c-.13,0-.15.1-.13.17h0c.21,0,.42,0,.63.05a.45.45,0,0,1,.24,0A.69.69,0,0,0,27,8.63a8.29,8.29,0,0,1-.88-.06h0" fill="#7764f0"/>
              <path d="M20.77,9.53c-.05.06-.13.11-.13.18a4.25,4.25,0,0,1,.88.06h0c.13,0,.13-.11.1-.18h0a4,4,0,0,0-.86-.06" fill="#934fec"/>
              <path d="M21.29,8.85a.29.29,0,0,0-.11.15.86.86,0,0,0,.17,0,3.85,3.85,0,0,1,.69.06h0c.13,0,.16-.1.11-.16h0a8.48,8.48,0,0,0-.88-.06" fill="#835bef"/>
              <path d="M25.91,8.75c-.12.05-.16.1-.11.17h0a1.83,1.83,0,0,0,.33,0,2.18,2.18,0,0,0,.57,0,.27.27,0,0,0,.1-.12.45.45,0,0,0-.24,0c-.21,0-.42,0-.63-.05h0" fill="#7b61f0"/>
              <path d="M20.89,9.38a.29.29,0,0,0-.12.15,4,4,0,0,1,.86.06h.09c.1,0,.08-.1.09-.15h0a3.86,3.86,0,0,0-.9,0" fill="#8f52ed"/>
              <path d="M21,9.19a.41.41,0,0,0-.14.19,3.86,3.86,0,0,1,.9,0h0l0,0c.1,0,.1-.08.07-.13h0A8,8,0,0,0,21,9.19" fill="#8b55ed"/>
              <path d="M21.68,8.34a.31.31,0,0,0-.1.13l.87.07h.06c.09,0,.13-.07.08-.12v0a8.77,8.77,0,0,1-.9,0" fill="#7764f0"/>
            </g>
          </g>
        </g>
      </g>
      <g>
        <polygon points="48.74 10.53 48.59 40.82 24.04 49.76 24.19 19.46 48.74 10.53" fill="#353535"/>
        <g style="isolation: isolate">
          <g clip-path="url(#clip-path-3)">
            <g>
              <path d="M30.28,36.65a5,5,0,0,0-.43.48c.23.24.45.47.67.72l.35.4s.08.06,0,.14a8.22,8.22,0,0,0,1.08.4c.12-.07,0-.11,0-.14-.24-.27-.48-.53-.71-.81-.08-.09-.19-.14-.19-.32l0,0c-.09-.11-.22-.11-.33-.16s-.14,0-.11-.16h0c0-.2-.2-.25-.28-.39s-.08-.07-.08-.14" fill="#e215e1"/>
              <path d="M29.81,31.63h0v.63c.13,0,.16.11.22.18.3.32.58.65.86,1,0,0,.1.08,0,.14L32,34a2.33,2.33,0,0,0-.51-.67c-.13-.17-.28-.31-.41-.46a.19.19,0,0,1,0-.15h0c0-.08-.11-.09-.17-.12a2.27,2.27,0,0,1-.39-.16h0a.59.59,0,0,0,0,.08c-.06-.07,0-.18,0-.26s-.23-.22-.35-.32-.15-.22-.28-.25" fill="#c828e5"/>
              <path d="M41.35,26.89a.09.09,0,0,0,0,.12l.77.85a.33.33,0,0,1,.13.26l0,0,0,0,0,0c.28.32.56.62.84.93a.18.18,0,0,0,.14.09c0-.24,0-.48,0-.71-.18-.05-.27-.23-.39-.36s-.47-.53-.7-.8l-.06-.11a6.06,6.06,0,0,0-.75-.27" fill="#587cf6"/>
              <path d="M31.12,37.49h0l0,0c0,.18.11.23.19.32.23.28.47.54.71.81,0,0,.11.07,0,.14a8.68,8.68,0,0,0,1.11.41c.1-.14,0-.16,0-.19s-.3-.35-.45-.51l-.38-.42a.19.19,0,0,1,0-.15h0v0a.28.28,0,0,0-.09-.07c-.29-.12-.59-.22-.89-.33a.11.11,0,0,0-.08,0" fill="#de18e2"/>
              <path d="M34.67,38.79l-.09,0h0c0,.25.18.31.29.44s.39.44.59.66a.27.27,0,0,1,.08.21c.24.09.48.17.71.27,0,0,.07,0,.1,0s.09,0,.13-.12a6.57,6.57,0,0,0-.48-.57c-.13-.17-.33-.25-.38-.51l0,0h0a5.53,5.53,0,0,0-1-.38" fill="#d022e4"/>
              <path d="M40.88,21.87c-.05.15,0,.19.09.25l.75.84a.2.2,0,0,1,.08.19h0a.5.5,0,0,0,.32.15c.11,0,.12.1,0,.23h0c.1.11.19.22.3.33s.09.07.09.16a3,3,0,0,0,.37-.41.11.11,0,0,1-.13,0L41.6,22.22v-.06l-.71-.29" fill="#3f8efa"/>
              <path d="M31.15,32.64l-.06,0h0a.19.19,0,0,0,0,.15c.13.15.28.29.41.46A2.33,2.33,0,0,1,32,34c.14,0,.27.11.41.15s.07.07,0,.15a1.39,1.39,0,0,1,.44.46v0h0a.53.53,0,0,0,.22-.28v0L32,33.24a.34.34,0,0,1-.13-.27h0l0,0a2.56,2.56,0,0,0-.75-.3" fill="#c32ce6"/>
              <path d="M38.3,21c-.1.13,0,.16,0,.19.2.24.41.46.61.7s.23.15.22.35h0a3.3,3.3,0,0,0,.87.35l.09,0c0-.2-.13-.25-.21-.35s-.42-.46-.63-.7c0,0-.12-.07-.05-.2A7.77,7.77,0,0,0,38.3,21" fill="#4987f8"/>
              <path d="M32.25,37.89l-.07,0h0a.19.19,0,0,0,0,.15l.38.42c.15.16.31.33.45.51s.15.05,0,.19a5.7,5.7,0,0,0,.9.33c.09-.13,0-.15,0-.19-.2-.24-.42-.45-.61-.69s-.25-.17-.26-.39c0,0,0,0,0,0l0-.06c-.26-.09-.51-.2-.77-.28" fill="#da1be2"/>
              <path d="M29.85,37.13l-.62.66.39.16,1.26.44c.07-.08,0-.1,0-.14l-.35-.4c-.22-.25-.44-.48-.67-.72" fill="#e612e0"/>
              <path d="M39.22,21.28c-.07.13,0,.16.05.2.21.24.43.45.63.7s.21.15.21.35,0,.09.08.1c.21.07.42.17.64.23a.17.17,0,0,0,.14,0l0,0h0c-.08-.28-.29-.39-.44-.57s-.31-.34-.46-.51-.09-.07,0-.17-.09-.06-.14-.08l-.71-.24" fill="#458af9"/>
              <path d="M37.43,20.64c-.1.14,0,.16,0,.2l.61.68c.09.11.21.18.23.36l0,0h0a3.26,3.26,0,0,0,.8.32l.06,0h0c0-.2-.13-.25-.22-.35s-.41-.46-.61-.7c0,0-.14-.06,0-.19a5.64,5.64,0,0,0-.87-.31" fill="#4d84f7"/>
              <path d="M33.83,38.49l-.06,0a.25.25,0,0,0,.07.21l.83.94s.09,0,0,.13a6.92,6.92,0,0,0,.86.33.27.27,0,0,0-.08-.21c-.2-.22-.41-.42-.59-.66s-.28-.19-.29-.44h0a1.5,1.5,0,0,0-.75-.33" fill="#d41fe3"/>
              <path d="M40.07,21.6c0,.1,0,.13,0,.17s.32.32.46.51.36.29.44.57h0l0,.08a5.35,5.35,0,0,0,.67.24l.06,0h0a.2.2,0,0,0-.08-.19L41,22.12c0-.06-.14-.1-.09-.25a5.92,5.92,0,0,0-.81-.27" fill="#428cf9"/>
              <path d="M41.59,22.16v.06l1.19,1.36a.11.11,0,0,0,.13,0,1.09,1.09,0,0,0,.25-.27c-.22-.23-.43-.48-.65-.71a.25.25,0,0,1-.06-.2,3.84,3.84,0,0,0-.87-.28" fill="#3d90fa"/>
              <path d="M29.86,27.34c-.09.11-.05.22-.05.32l0,5.28a.49.49,0,0,0,0,.21c0-.3,0-.6,0-.89v-.63h0V28.24h0v-.06a1.79,1.79,0,0,1,.46.45c.05.06.08.13.17.11,0-.2,0-.4,0-.6s-.17-.23-.25-.35a5.28,5.28,0,0,1-.36-.44" fill="#af3be9"/>
              <path d="M33.1,38.22h0s0,0,0,0c0,.22.16.27.26.39s.41.45.61.69c0,0,.14.06,0,.19a3,3,0,0,0,.72.27c.07-.08,0-.1,0-.13l-.83-.94a.25.25,0,0,1-.07-.21h0a.08.08,0,0,0-.06-.09l-.54-.2s-.05,0-.07,0" fill="#d71de3"/>
              <path d="M42.27,28.12l0,0a1,1,0,0,0-.28.35h0l0,0a.78.78,0,0,0,.42.45l0,0h0c.06,0,.1-.09.15-.11h0a.28.28,0,0,0,0-.09l0,0s0,0,0,.07,0,.23,0,.35h0a1.47,1.47,0,0,1,.43.43c0,.05.09.13.18.1a3.77,3.77,0,0,0,0-.58.18.18,0,0,1-.14-.09c-.28-.31-.56-.61-.84-.93" fill="#5c79f5"/>
              <path d="M36.7,20.38c-.06.11,0,.14,0,.19.26.28.51.57.77.84a.33.33,0,0,1,.08.21h0a1.78,1.78,0,0,0,.62.26.14.14,0,0,0,.09,0h0l0,0c0-.18-.14-.25-.23-.36l-.61-.68s-.14-.06,0-.2a5.73,5.73,0,0,0-.73-.26" fill="#5081f7"/>
              <path d="M36.47,20.31c-.06,0-.12.09-.24.24,0,.26.23.32.34.48a1.28,1.28,0,0,1,.16.28l0,0h0a3.71,3.71,0,0,0,.8.32l.05,0h0a.33.33,0,0,0-.08-.21c-.26-.27-.51-.56-.77-.84,0-.05-.1-.08,0-.19-.11-.07-.17-.1-.23-.07" fill="#5380f7"/>
              <path d="M40,25.91a.25.25,0,0,0-.17.2h0l0,0a2.61,2.61,0,0,0,.49.59c.24.3.51.57.76.86a.24.24,0,0,1,.07.19h0v0a.57.57,0,0,0,.53.15c0-.22-.16-.27-.25-.39a7.12,7.12,0,0,0-.58-.64.29.29,0,0,1-.06-.19c-.12-.05-.25-.09-.37-.15s-.09,0-.08,0,0-.09.09-.12l-.4-.48h0" fill="#5d78f5"/>
              <path d="M29.81,32.26c0,.29,0,.59,0,.89a7.12,7.12,0,0,0,1.09.4c.11-.06.05-.1,0-.14-.28-.32-.56-.65-.86-1-.06-.07-.09-.21-.22-.18" fill="#cc25e4"/>
              <path d="M42.1,27.16l.06.11c.23.27.46.54.7.8s.21.31.39.36c0-.26,0-.52,0-.78a.1.1,0,0,0-.07-.13l-1.09-.36" fill="#537ff7"/>
              <path d="M40.77,26.69a.29.29,0,0,0,.06.19,7.12,7.12,0,0,1,.58.64c.09.12.25.17.25.39h0c.13.18.35.18.54.23h0l0,0a.33.33,0,0,0-.13-.26L41.34,27a.09.09,0,0,1,0-.12,4.38,4.38,0,0,0-.58-.2" fill="#5a7af5"/>
              <path d="M30.16,27a1.83,1.83,0,0,0-.3.32,5.28,5.28,0,0,0,.36.44c.08.12.25.14.25.35s0,.4,0,.6V32.2c0,.08,0,.19,0,.26a.59.59,0,0,1,0-.08.77.77,0,0,0,0-.3l0-4.11a1.82,1.82,0,0,1,0-.4.28.28,0,0,0,0-.09h0a2.3,2.3,0,0,0-.42-.46" fill="#aa3ee9"/>
              <path d="M42.61,30.44l0,0a.8.8,0,0,0,0,.34c0,.68,0,1.35,0,2,0,0,0,0,0,.07h0a4.57,4.57,0,0,0,.43.45c.16-.14.32-.28.26-.53-.25-.13-.39-.41-.59-.59s0-.37,0-.57V30.56l0-.12" fill="#7268f2"/>
              <path d="M42.6,28.77l0,0a.28.28,0,0,1,0,.09c0,.48,0,.94,0,1.41,0,.06,0,.13.07.14h0l0,.12c.17,0,.23.21.34.31a1.18,1.18,0,0,0,.27.23c0-.25,0-.48,0-.72-.18,0-.22-.21-.35-.28l0-.05c-.28-.13-.25-.5-.23-.86,0-.12,0-.23,0-.35s0-.08,0-.07" fill="#6373f4"/>
              <path d="M35.67,39.17h0l0,0c0,.26.25.34.38.51a6.57,6.57,0,0,1,.48.57,2.16,2.16,0,0,0,.29-.31,1.35,1.35,0,0,0-.43-.51s0,0,0,0h0c-.2-.1-.42-.16-.63-.24a.08.08,0,0,0-.07,0" fill="#cb25e4"/>
              <path d="M42.46,22.44a.25.25,0,0,0,.06.2c.22.23.43.48.65.71a3.91,3.91,0,0,0,.46-.51l-1.17-.4" fill="#3992fa"/>
              <path d="M36.23,20.55c-.15.15-.29.3-.43.47a1.36,1.36,0,0,0,.43.46v0h0a1.11,1.11,0,0,1,.25-.17.34.34,0,0,1,.2,0h0l0,0a1.28,1.28,0,0,0-.16-.28c-.11-.16-.31-.22-.34-.48" fill="#587cf6"/>
              <path d="M42.63,29.19h0c0,.36-.05.73.23.86l0,.05c.13.07.17.3.35.28a3.64,3.64,0,0,0,0-.66c-.09,0-.13,0-.18-.1a1.47,1.47,0,0,0-.43-.43" fill="#5f77f5"/>
              <path d="M31.23,35.6c-.11.13-.23.25-.34.37a3.88,3.88,0,0,0,.4.49v0h0A1,1,0,0,0,31.7,36h0c-.14-.18-.22-.44-.47-.43" fill="#d61de3"/>
              <path d="M42.16,23.54h0a.83.83,0,0,0-.37.41h0a.8.8,0,0,0,.41.48,2.21,2.21,0,0,0,.35-.39c0-.09,0-.11-.09-.16s-.2-.22-.3-.33" fill="#438bf8"/>
              <path d="M42.62,31.68c0,.2-.08.48,0,.57s.34.46.59.59q0-.33,0-.63c-.2-.09-.32-.31-.49-.45a.23.23,0,0,0-.12-.08" fill="#6e6cf3"/>
              <path d="M37.14,38.67a1,1,0,0,0-.44.48h0c.2,0,.31.25.43.42a2,2,0,0,0,.4-.42c-.12-.18-.3-.27-.4-.48h0" fill="#c22ce5"/>
              <path d="M42.63,30.56v.58c.2,0,.26.24.39.35s.11.17.22.14a3.15,3.15,0,0,0,0-.53,1.18,1.18,0,0,1-.27-.23c-.11-.1-.17-.3-.34-.31" fill="#6771f4"/>
              <path d="M42.62,31.14v.54a.23.23,0,0,1,.12.08c.17.14.29.36.49.45a2.81,2.81,0,0,0,0-.58c-.11,0-.15-.09-.22-.14s-.19-.33-.39-.35" fill="#6b6ef3"/>
              <path d="M41.79,23.94h0a.81.81,0,0,0-.36.39h0a1,1,0,0,0,.41.49,2.77,2.77,0,0,0,.36-.4.8.8,0,0,1-.41-.48" fill="#4887f8"/>
              <path d="M40.45,25.39a1.17,1.17,0,0,0-.37.42h0a4.55,4.55,0,0,0,.42.45,1.74,1.74,0,0,0,.36-.4,1.65,1.65,0,0,1-.42-.45v0h0" fill="#587cf6"/>
              <path d="M36.65,39.17c-.11,0-.18.15-.26.26s0,0,0,0a1.35,1.35,0,0,1,.43.51,2.29,2.29,0,0,0,.36-.4c-.12-.17-.23-.38-.43-.42h-.06" fill="#c828e5"/>
              <path d="M30.89,36a4.89,4.89,0,0,0-.37.41.91.91,0,0,1,.41.49h0a.74.74,0,0,0,.35-.4v0a3.88,3.88,0,0,1-.4-.49" fill="#db1ae2"/>
              <path d="M31.59,35.21a2.69,2.69,0,0,0-.36.39c.25,0,.33.25.47.43h0a.65.65,0,0,0,.33-.36h0a1,1,0,0,0-.42-.46" fill="#d121e3"/>
              <path d="M34.6,22.29l-.29.3c.06.27.26.35.4.51v0h0a.82.82,0,0,0,.34-.37h0l-.43-.47" fill="#6c6cf2"/>
              <path d="M40.78,25.05a.65.65,0,0,0-.32.35v0a1.65,1.65,0,0,0,.42.45,1.88,1.88,0,0,0,.31-.32c-.13-.16-.27-.32-.4-.49h0" fill="#537ff6"/>
              <path d="M32.19,34.53a2.92,2.92,0,0,0-.28.32l.4.49v0h0a.69.69,0,0,0,.33-.36h0a1.75,1.75,0,0,0-.44-.46" fill="#ca26e4"/>
              <path d="M41.41,24.34a.72.72,0,0,0-.3.32v0h0c0,.12,0,.16,0,.21s.23.18.28.36a3.7,3.7,0,0,0,.37-.41,1,1,0,0,1-.41-.49h0" fill="#4c85f7"/>
              <path d="M42,33.53a.63.63,0,0,0-.3.32h0a.7.7,0,0,0,.41.47,1.5,1.5,0,0,0,.27-.29,2.31,2.31,0,0,0-.41-.47v0h0" fill="#7f5ef0"/>
              <path d="M31.74,25.33a2.16,2.16,0,0,0-.25.27.85.85,0,0,0,.23.32.35.35,0,0,1,.13.23h0a.65.65,0,0,0,.34-.35h0a1.25,1.25,0,0,0-.44-.47" fill="#944fec"/>
              <path d="M33,24l-.32.35c0,.19.2.23.28.37s.09.08.08.18h0a.71.71,0,0,0,.34-.36h0a1.07,1.07,0,0,0-.25-.34A.33.33,0,0,1,33,24" fill="#835bef"/>
              <path d="M40.49,35.07h0c-.1.09-.21.15-.26.3v0h0c.14.16.27.32.4.49a1.87,1.87,0,0,0,.32-.36c-.11-.12-.22-.24-.32-.37a.11.11,0,0,0-.13,0h0a.43.43,0,0,0,0,0" fill="#934fed"/>
              <path d="M42.51,32.93a.55.55,0,0,0-.28.3h0a4.66,4.66,0,0,0,.39.49,2.2,2.2,0,0,0,.33-.35,4.57,4.57,0,0,1-.43-.45h0" fill="#7764f0"/>
              <path d="M37.72,38.05a.65.65,0,0,0-.33.36h0c.14.16.27.33.4.49a2.23,2.23,0,0,0,.26-.27c0-.25-.14-.24-.21-.37s-.09-.12-.12-.2h0" fill="#bb32e6"/>
              <path d="M35.22,21.63l-.3.31a2.07,2.07,0,0,0,.42.5v0a.62.62,0,0,0,.33-.36h0a1.27,1.27,0,0,1-.43-.46" fill="#6473f3"/>
              <path d="M34.92,21.94a3.59,3.59,0,0,0-.32.35l.43.47h0a.47.47,0,0,0,.28-.3v0a2.07,2.07,0,0,1-.42-.5" fill="#6870f3"/>
              <path d="M41.12,24.67h0a.65.65,0,0,0-.31.37h0c.13.17.27.33.4.49.08-.13.21-.18.29-.32s-.19-.24-.28-.36-.1-.09,0-.21h0" fill="#5082f6"/>
              <path d="M38.54,37.16h0a.72.72,0,0,0-.27.3h0a3,3,0,0,1,.39.47,1.19,1.19,0,0,0,.33-.34l-.33-.37c0-.06-.08-.05-.14,0l0-.05" fill="#af3be8"/>
              <path d="M38,37.76a.46.46,0,0,0-.26.3h0c0,.08.09.13.12.2s.25.12.21.37a2.07,2.07,0,0,0,.36-.41l-.34-.39a.09.09,0,0,0-.1,0v0h0" fill="#b635e7"/>
              <path d="M33.22,23.77A1.18,1.18,0,0,0,33,24a.33.33,0,0,0,.11.21,1.07,1.07,0,0,1,.25.34h.05a.8.8,0,0,0,.29-.33h0c-.15-.15-.26-.36-.44-.46" fill="#7f5ff0"/>
              <path d="M31.24,25.87a2.58,2.58,0,0,0-.32.34c.22.05.31.29.46.44v0h0a.66.66,0,0,0,.3-.35h0a2.69,2.69,0,0,0-.43-.46" fill="#9b4aeb"/>
              <path d="M32.65,24.37a2.2,2.2,0,0,0-.33.35c.14.16.34.25.4.51h0v0a.57.57,0,0,0,.28-.34h0c0-.1,0-.13-.08-.18s-.24-.18-.28-.37" fill="#8758ee"/>
              <path d="M30.52,36.38a2.1,2.1,0,0,0-.24.27c0,.07,0,.1.08.14s.25.19.28.39h0a.41.41,0,0,0,.25-.29h0a.91.91,0,0,0-.41-.49" fill="#dd18e1"/>
              <path d="M35.8,21a1.83,1.83,0,0,0-.3.32c.13.17.27.32.4.49h0a.61.61,0,0,0,.31-.34v0A1.36,1.36,0,0,1,35.8,21" fill="#5c78f4"/>
              <path d="M35.5,21.34a1.54,1.54,0,0,0-.28.29,1.27,1.27,0,0,0,.43.46h.07c.09,0,.14-.12.18-.24h0c-.13-.17-.27-.32-.4-.49" fill="#6076f4"/>
              <path d="M39.42,36.23a.49.49,0,0,0-.27.29h0a.77.77,0,0,0,.21.31c.06.06.15.1.12.25a2.72,2.72,0,0,0,.32-.35,1.58,1.58,0,0,0-.4-.48v0h0" fill="#a344ea"/>
              <path d="M31.91,34.85a1.87,1.87,0,0,0-.32.36,1,1,0,0,1,.42.46h0a.42.42,0,0,0,.26-.3v0l-.4-.49" fill="#ce23e4"/>
              <path d="M39.13,36.53a.6.6,0,0,0-.29.33h0a1.56,1.56,0,0,1,.4.48,1.34,1.34,0,0,0,.26-.27c0-.15-.06-.19-.12-.25a.77.77,0,0,1-.21-.31h0" fill="#a741ea"/>
              <path d="M41.38,34.15a.65.65,0,0,0-.34.35h0a1,1,0,0,1,.4.48,1.24,1.24,0,0,0,.25-.26c.07-.25-.11-.24-.17-.36s-.12-.11-.15-.21h0" fill="#8758ee"/>
              <path d="M32.32,24.72a1.29,1.29,0,0,0-.25.27c.09.22.28.31.39.51v0h0a.5.5,0,0,0,.24-.29h0c-.06-.26-.26-.35-.4-.51" fill="#8c55ed"/>
              <path d="M42.25,33.23h0a.47.47,0,0,0-.28.29v0a2.31,2.31,0,0,1,.41.47,1.72,1.72,0,0,0,.29-.31,4.66,4.66,0,0,1-.39-.49" fill="#7b61f0"/>
              <path d="M40.79,34.75a.78.78,0,0,0-.3.32.43.43,0,0,1,0,0h0a.11.11,0,0,1,.13,0c.1.13.21.25.32.37a1.28,1.28,0,0,0,.29-.28,3.77,3.77,0,0,0-.43-.46v0h0" fill="#8f52ed"/>
              <path d="M32.07,25a2.65,2.65,0,0,0-.33.34,1.25,1.25,0,0,1,.44.47h0a.49.49,0,0,0,.23-.27v0c-.11-.2-.3-.29-.39-.51" fill="#8f52ed"/>
              <path d="M33.47,23.5a.93.93,0,0,0-.25.27c.18.1.29.31.44.46h.05a.51.51,0,0,0,.22-.27h0c-.11-.21-.22-.41-.44-.46" fill="#7b61f0"/>
              <path d="M40,35.64a.6.6,0,0,0-.3.34h0a.92.92,0,0,1,.4.48,1.81,1.81,0,0,0,.29-.33,3,3,0,0,0-.39-.48v0h0" fill="#9b4aeb"/>
              <path d="M38.81,36.88a.47.47,0,0,0-.27.28l0,.05c.06,0,.1,0,.14,0l.33.37a.89.89,0,0,0,.25-.26,1.56,1.56,0,0,0-.4-.48h0" fill="#aa3ee9"/>
              <path d="M41.64,33.86a.45.45,0,0,0-.26.29h0c0,.1.11.14.15.21s.24.11.17.36a3,3,0,0,0,.38-.41.7.7,0,0,1-.41-.47h0" fill="#835bee"/>
              <path d="M30.66,26.48a1.72,1.72,0,0,0-.25.28,1.43,1.43,0,0,1,.43.45v0h0A.43.43,0,0,0,31.1,27h0a.83.83,0,0,0-.43-.47" fill="#a344ea"/>
              <path d="M34,23a1.34,1.34,0,0,0-.2.21,1.5,1.5,0,0,0,.43.47v0h0a.52.52,0,0,0,.23-.27h0C34.31,23.2,34.2,23,34,23" fill="#7467f1"/>
              <path d="M30.41,26.76a1.24,1.24,0,0,0-.25.26,2.3,2.3,0,0,1,.42.46h.08c.09,0,.13-.12.17-.24v0a1.43,1.43,0,0,0-.43-.45" fill="#a641e9"/>
              <path d="M38.25,37.49a.42.42,0,0,0-.27.28v0a.09.09,0,0,1,.1,0l.34.39c.11,0,.17-.16.25-.27a3,3,0,0,0-.39-.47h0" fill="#b338e8"/>
              <path d="M30.92,26.21a1.66,1.66,0,0,0-.26.27.83.83,0,0,1,.43.47h.07c.1,0,.15-.16.21-.27v0c-.15-.15-.24-.39-.46-.44" fill="#9f47ea"/>
              <path d="M37.33,38.43a.31.31,0,0,0-.18.24h0c.1.21.28.3.4.48a1,1,0,0,0,.25-.26c-.13-.16-.26-.33-.4-.49h0l-.06,0" fill="#be2fe5"/>
              <path d="M32.44,34.26a2.16,2.16,0,0,0-.25.27,1.75,1.75,0,0,1,.44.46h0a.38.38,0,0,0,.2-.24v0a1.39,1.39,0,0,0-.44-.46" fill="#c62ae5"/>
              <path d="M34.31,22.59c-.11.12-.23.23-.34.37.23.05.34.24.45.46h0a.39.39,0,0,0,.24-.27v0c-.14-.16-.34-.24-.4-.51" fill="#7069f1"/>
              <path d="M39.62,36a.35.35,0,0,0-.19.23v0a1.58,1.58,0,0,1,.4.48,1.23,1.23,0,0,0,.25-.26.92.92,0,0,0-.4-.48h-.05" fill="#9f47ea"/>
              <path d="M41,34.52a.39.39,0,0,0-.18.24v0a3.77,3.77,0,0,1,.43.46c.07-.09.15-.17.22-.25a1,1,0,0,0-.4-.48H41" fill="#8b55ed"/>
              <path d="M33.77,23.17a2.35,2.35,0,0,0-.3.33c.22.05.33.25.44.46H34a.42.42,0,0,0,.23-.27v0a1.5,1.5,0,0,1-.43-.47" fill="#7764f0"/>
              <path d="M40.18,35.41a.28.28,0,0,0-.2.23v0a3,3,0,0,1,.39.48.81.81,0,0,0,.26-.26c-.13-.17-.26-.33-.4-.49h0" fill="#974ceb"/>
              <path d="M31.49,25.6a1.63,1.63,0,0,0-.25.27,2.69,2.69,0,0,1,.43.46h0s0,0,.06,0a.25.25,0,0,0,.11-.18h0a.35.35,0,0,0-.13-.23.85.85,0,0,1-.23-.32" fill="#974ceb"/>
              <path d="M40.05,25.81s0,.05,0,.09h0l.4.48a.24.24,0,0,0,.1-.12,4.55,4.55,0,0,1-.42-.45h0" fill="#5b78f4"/>
              <path d="M29.81,31.23v.4h0c.13,0,.19.17.28.25s.19.29.35.32v-.4a2.35,2.35,0,0,1-.38-.39c-.07-.08-.13-.18-.25-.18" fill="#c62ae6"/>
              <path d="M31.89,33a.34.34,0,0,0,.13.27l1.08,1.23v0l.06,0c.08,0,.14,0,.21,0s0-.15-.05-.19c-.19-.24-.41-.46-.61-.69s-.22-.15-.23-.35a2.3,2.3,0,0,0-.57-.21h0" fill="#c02ee6"/>
              <path d="M29.83,28.83v.76c.16,0,.21.19.32.28s.16.27.31.28V29.4c-.19,0-.25-.22-.38-.33a1.41,1.41,0,0,0-.25-.24" fill="#b834e8"/>
              <path d="M29.83,28.17v.06h0v.59a1.41,1.41,0,0,1,.25.24c.13.11.19.31.38.33v-.67c-.09,0-.12-.05-.17-.11a1.79,1.79,0,0,0-.46-.45" fill="#b437e8"/>
              <path d="M29.82,29.59v.66c.19,0,.25.24.39.35s.12.18.24.18v-.63c-.15,0-.2-.19-.31-.28s-.16-.26-.32-.28" fill="#bd31e7"/>
              <path d="M29.82,30.7v.53c.12,0,.18.1.25.18a2.35,2.35,0,0,0,.38.39v-.53c-.2,0-.28-.25-.42-.37a1.31,1.31,0,0,0-.21-.2" fill="#c32ce6"/>
              <path d="M29.82,30.25v.45a1.31,1.31,0,0,1,.21.2c.14.12.22.34.42.37v-.49c-.12,0-.17-.11-.24-.18s-.2-.33-.39-.35" fill="#c02fe6"/>
              <path d="M42,28.5l0,0c-.11.11-.21.23-.31.34.11.2.22.4.44.44a1.67,1.67,0,0,0,.28-.31l0,0A.78.78,0,0,1,42,28.5" fill="#6075f4"/>
              <path d="M39.84,26.1l0,0c-.06.05-.12.14-.18.16a.07.07,0,0,1-.08,0c-.08.17,0,.18.08.24l.72.81a.27.27,0,0,1,.08.18,3.68,3.68,0,0,0,.68.24h0a.24.24,0,0,0-.07-.19c-.25-.29-.52-.56-.76-.86a2.61,2.61,0,0,1-.49-.59" fill="#5f77f5"/>
              <path d="M34,33.71c0,.18.11.23.18.32l.69.79s.08,0,0,.13a7.16,7.16,0,0,0,1,.35c.07-.14,0-.16-.07-.2-.24-.3-.5-.58-.75-.85a.23.23,0,0,1-.07-.2,8.59,8.59,0,0,0-1-.34" fill="#b635e8"/>
              <path d="M34.94,34.05a.23.23,0,0,0,.07.2c.25.27.51.55.75.85,0,0,.14.06.07.2a3.58,3.58,0,0,1,.49.2.2.2,0,0,0,.13,0,.31.31,0,0,0,.14-.14,4.22,4.22,0,0,0-.42-.51c-.11-.16-.31-.23-.33-.49a6.86,6.86,0,0,0-.9-.32" fill="#b139e8"/>
              <path d="M33.11,33.41A14.37,14.37,0,0,0,34,34.52s.12.06,0,.15a5.53,5.53,0,0,0,.81.28c.07-.08,0-.1,0-.13L34.15,34c-.07-.09-.19-.14-.18-.32a5.15,5.15,0,0,0-.86-.3" fill="#ba32e7"/>
              <path d="M32.49,33.19c0,.2.15.24.23.35s.42.45.61.69c0,0,.15.06.05.19a3.09,3.09,0,0,0,.66.25c.12-.09,0-.12,0-.15a14.37,14.37,0,0,1-.93-1.11,2.29,2.29,0,0,0-.62-.22" fill="#be30e7"/>
              <path d="M37.38,33.57a3.34,3.34,0,0,0-.43.48.81.81,0,0,1,.4.48,4.06,4.06,0,0,0,.43-.48l-.4-.48" fill="#a145eb"/>
              <path d="M40.65,30l-.4.44c.1.21.29.3.4.49a4,4,0,0,0,.43-.48,1.1,1.1,0,0,1-.43-.45" fill="#7268f1"/>
              <path d="M35.84,34.37c0,.26.22.33.33.49a4.22,4.22,0,0,1,.42.51,1.28,1.28,0,0,0,.22-.24c0-.2-.15-.24-.23-.35s-.11-.1-.13-.2l-.61-.21" fill="#ad3ce9"/>
              <path d="M41,29.61l-.32.36a1.1,1.1,0,0,0,.43.45,2.13,2.13,0,0,0,.29-.31,1.12,1.12,0,0,0-.4-.5" fill="#6d6cf2"/>
              <path d="M37.74,33.17l-.36.4.4.48a1.5,1.5,0,0,0,.29-.32c0-.15,0-.19-.11-.25a.73.73,0,0,1-.22-.31" fill="#9c49eb"/>
              <path d="M41.66,28.86l-.33.35a1.31,1.31,0,0,0,.41.49,3.42,3.42,0,0,0,.36-.4c-.22,0-.33-.24-.44-.44" fill="#6472f3"/>
              <path d="M38.29,32.57l-.37.41c.15,0,.2.17.3.26a1.22,1.22,0,0,1,.15.17,1.78,1.78,0,0,0,.29-.32c0-.22-.2-.26-.29-.41a.44.44,0,0,0-.08-.11" fill="#944fed"/>
              <path d="M41.33,29.21c-.12.13-.23.27-.36.4a1.12,1.12,0,0,1,.4.5,3.6,3.6,0,0,0,.37-.41,1.31,1.31,0,0,1-.41-.49" fill="#696ff3"/>
              <path d="M39.66,31.06a2.5,2.5,0,0,0-.31.34,1.69,1.69,0,0,1,.42.46,1.47,1.47,0,0,0,.29-.32.84.84,0,0,0-.4-.48" fill="#7f5eef"/>
              <path d="M40.25,30.41a2.77,2.77,0,0,0-.36.4.82.82,0,0,1,.43.46l.33-.37c-.11-.19-.3-.28-.4-.49" fill="#7864f0"/>
              <path d="M37,34.05a1.54,1.54,0,0,0-.3.32,2.12,2.12,0,0,1,.41.48,1.78,1.78,0,0,0,.29-.32.81.81,0,0,0-.4-.48" fill="#a741e9"/>
              <path d="M38.58,32.25a1.78,1.78,0,0,0-.29.32.44.44,0,0,1,.08.11c.09.15.26.19.29.41a2.27,2.27,0,0,0,.32-.36,4.63,4.63,0,0,1-.4-.48" fill="#8f53ed"/>
              <path d="M39.35,31.4a2.35,2.35,0,0,0-.3.33c.2.07.31.27.43.45.1-.1.2-.21.29-.32a1.69,1.69,0,0,0-.42-.46" fill="#845bee"/>
              <path d="M39.05,31.73l-.21.23c0,.18.17.26.27.37s.09.08.09.17l.28-.32c-.12-.18-.23-.38-.43-.45" fill="#8858ee"/>
              <path d="M38.84,32c-.09.1-.17.2-.26.29a4.63,4.63,0,0,0,.4.48,1,1,0,0,0,.22-.23c0-.09-.06-.12-.09-.17s-.23-.19-.27-.37" fill="#8c55ed"/>
              <path d="M39.89,30.81a1.39,1.39,0,0,0-.23.25.84.84,0,0,1,.4.48,2.23,2.23,0,0,0,.26-.27.82.82,0,0,0-.43-.46" fill="#7b61f0"/>
              <path d="M37.92,33l-.18.19a.73.73,0,0,0,.22.31c.06.06.15.1.11.25a1.83,1.83,0,0,0,.3-.32,1.22,1.22,0,0,0-.15-.17c-.1-.09-.15-.26-.3-.26" fill="#984ceb"/>
              <path d="M36.65,34.37l-.2.21c0,.1.09.14.13.2s.22.15.23.35a1.72,1.72,0,0,0,.25-.28,2.12,2.12,0,0,0-.41-.48" fill="#aa3ee9"/>
              <path d="M33.77,28.19a1.2,1.2,0,0,0-.24.26,3.28,3.28,0,0,0,.53.63l.76.86s.16.06,0,.21a6,6,0,0,0,.92.34c0-.16-.06-.2-.11-.26-.24-.29-.5-.56-.75-.84a.19.19,0,0,1-.06-.17h0v0a3.8,3.8,0,0,0-.82-.33.3.3,0,0,0,.14-.19h0a.9.9,0,0,0-.41-.48" fill="#974cec"/>
              <path d="M33.53,28.45a2.15,2.15,0,0,0-.32.35c.23.25.46.5.68.76.06.07.17.11.13.28a5,5,0,0,0,.84.31c.12-.15,0-.18,0-.21l-.76-.86a3.28,3.28,0,0,1-.53-.63" fill="#9c49ec"/>
              <path d="M38.62,25.94c0,.23.2.32.32.46s.5.56.75.83a3.91,3.91,0,0,0,.75.26.27.27,0,0,0-.08-.18l-.72-.81c0-.06-.16-.07-.08-.24a8,8,0,0,0-.94-.32" fill="#6473f4"/>
              <path d="M34.92,29.19l0,0h0a.19.19,0,0,0,.06.17c.25.28.51.55.75.84,0,.06.16.1.11.26l.63.25a.09.09,0,0,0,.07,0,.15.15,0,0,0,.09-.1c-.11-.29-.35-.43-.52-.67s-.27-.19-.29-.42l0,0h0a2.38,2.38,0,0,0-.86-.34" fill="#9350ed"/>
              <path d="M38,25.71a.18.18,0,0,0,.06.18q.38.43.75.84a.71.71,0,0,1,.12.23h0s.06.07.06.14h0l.4.5.36-.37c-.25-.27-.51-.55-.75-.83s-.28-.23-.32-.46c-.2-.13-.45-.11-.65-.23" fill="#6870f4"/>
              <path d="M36.5,25.22a.33.33,0,0,0-.15.16l.58.68a.34.34,0,0,1,.13.27,0,0,0,0,1,0,0h0a1.17,1.17,0,0,0,.71.22h0c0-.25-.21-.34-.33-.49s-.38-.42-.57-.63c0,0,0-.07,0-.12a.72.72,0,0,1-.2-.09.23.23,0,0,0-.16,0" fill="#6f6af2"/>
              <path d="M33.21,28.8l-.55.57,1.36.47c0-.17-.07-.21-.13-.28-.22-.26-.45-.51-.68-.76" fill="#a046eb"/>
              <path d="M36.86,25.33c0,.05,0,.09,0,.12.19.21.39.41.57.63s.29.24.33.49h0a.68.68,0,0,0,.57.22h0v0c0-.19-.08-.21-.15-.29-.21-.26-.44-.51-.66-.76a.3.3,0,0,1-.08-.18l-.57-.2" fill="#6d6cf3"/>
              <path d="M35.81,29.51l0,0,0,0c0,.23.19.28.29.42s.41.38.52.67a4.73,4.73,0,0,0,.37-.4.86.86,0,0,0-.41-.48l0,0a2.32,2.32,0,0,1-.6-.18s-.09-.05-.14,0" fill="#8e53ee"/>
              <path d="M37.43,25.53a.3.3,0,0,0,.08.18c.22.25.45.5.66.76.07.08.19.1.15.29v0a.6.6,0,0,0,.52.19h0a.71.71,0,0,0-.12-.23q-.37-.4-.75-.84a.18.18,0,0,1-.06-.18,3.11,3.11,0,0,0-.54-.18" fill="#6a6ff3"/>
              <path d="M36.35,25.38a2.15,2.15,0,0,0-.32.35,1.55,1.55,0,0,0,.42.46s0,0,0,0h0c.17,0,.29.08.44.11s.08,0,.12,0l0,0a0,0,0,0,0,0,0,.34.34,0,0,0-.13-.27l-.58-.68" fill="#7367f2"/>
              <path d="M38.93,27.1h0a1,1,0,0,0-.4.42v0h0a1.15,1.15,0,0,0,.25.33.27.27,0,0,1,.11.21c.14-.16.3-.3.43-.48l-.4-.5" fill="#6c6cf3"/>
              <path d="M38.54,27.54h0a1,1,0,0,0-.41.44h0a1.59,1.59,0,0,0,.41.48,4.26,4.26,0,0,0,.35-.38.27.27,0,0,0-.11-.21,1.15,1.15,0,0,1-.25-.33" fill="#7368f2"/>
              <path d="M36.88,29.33a1,1,0,0,0-.33.39l0,0a.86.86,0,0,1,.41.48,3.42,3.42,0,0,0,.36-.4.65.65,0,0,0-.42-.47s0,0,0,0h0" fill="#8957ee"/>
              <path d="M37.55,28.61a.73.73,0,0,0-.33.36h0c.12.19.3.29.38.51l.38-.42c-.16,0-.19-.17-.3-.24s-.1-.13-.15-.19v0h0" fill="#7f5eef"/>
              <path d="M37.24,29h0a.59.59,0,0,0-.34.35s0,0,0,0a.65.65,0,0,1,.42.47l.32-.36c-.08-.22-.26-.32-.38-.51" fill="#845bee"/>
              <path d="M35.8,26a3.59,3.59,0,0,0-.32.35l.31.34a.22.22,0,0,1,.09.16h0a.63.63,0,0,0,.33-.35h0L35.8,26" fill="#7b62f0"/>
              <path d="M35.48,26.32a1.9,1.9,0,0,0-.3.33,2,2,0,0,1,.41.49h0a.51.51,0,0,0,.29-.33.22.22,0,0,0-.09-.16l-.31-.34" fill="#7f5eef"/>
              <path d="M34.94,26.92a1.55,1.55,0,0,0-.32.35c.12.17.31.27.39.5v0h0a.8.8,0,0,0,.3-.35h0c0-.21-.21-.26-.3-.41s-.06-.07-.06-.13" fill="#8758ee"/>
              <path d="M38.11,28a.48.48,0,0,0-.28.32h0a1.12,1.12,0,0,0,.28.36c0,.05.09.09.07.18a2.55,2.55,0,0,0,.35-.38,1.59,1.59,0,0,1-.41-.48h0" fill="#7764f0"/>
              <path d="M34.07,27.86a2.41,2.41,0,0,0-.3.33.9.9,0,0,1,.41.48h0a.51.51,0,0,0,.26-.32h0a1.27,1.27,0,0,0-.4-.48" fill="#934fec"/>
              <path d="M35.18,26.65a1.25,1.25,0,0,0-.24.27c0,.06,0,.08.06.13s.25.2.3.41h0a.46.46,0,0,0,.26-.3h0a2,2,0,0,0-.41-.49" fill="#835bef"/>
              <path d="M37.82,28.31a.42.42,0,0,0-.26.3v0c.05.06.09.15.15.19s.14.26.3.24a.85.85,0,0,0,.2-.22c0-.09,0-.13-.07-.18a1.12,1.12,0,0,1-.28-.36h0" fill="#7b61f0"/>
              <path d="M34.32,27.59a1.29,1.29,0,0,0-.25.27,1.27,1.27,0,0,1,.4.48h.07c.1,0,.16-.17.23-.28h0c-.11-.2-.22-.4-.43-.46" fill="#8f52ed"/>
              <path d="M34.62,27.27a1.83,1.83,0,0,0-.3.32c.21.06.32.26.43.46h.06a.39.39,0,0,0,.19-.25v0c-.08-.23-.27-.33-.39-.5" fill="#8b55ed"/>
              <path d="M36,25.73a1.31,1.31,0,0,0-.23.24l.4.49h.06a.28.28,0,0,0,.18-.21s0,0,0,0a1.55,1.55,0,0,1-.42-.46" fill="#7764f0"/>
            </g>
          </g>
        </g>
      </g>
    </g>
  </g>
</svg>
