<svg id="Capa_1" data-name="Capa 1" xmlns="http://www.w3.org/2000/svg" xmlns:xlink="http://www.w3.org/1999/xlink" width="50" height="50" viewBox="0 0 50 50">
  <defs>
    <clipPath id="clip-path">
      <polygon points="24.04 49.76 1.26 39.47 1.42 9.17 24.2 19.46 24.04 49.76" fill="none"/>
    </clipPath>
    <clipPath id="clip-path-2">
      <polygon points="24.2 19.46 1.42 9.17 25.96 0.24 48.75 10.53 24.2 19.46" fill="none"/>
    </clipPath>
    <clipPath id="clip-path-3">
      <polygon points="48.75 10.53 48.59 40.82 24.04 49.76 24.2 19.46 48.75 10.53" fill="none"/>
    </clipPath>
  </defs>
  <g id="Figment_lido">
    <g style="isolation: isolate">
      <g>
        <polygon points="24.04 49.76 1.26 39.47 1.42 9.17 24.2 19.46 24.04 49.76" fill="#689fcb"/>
        <g style="isolation: isolate">
          <g clip-path="url(#clip-path)">
            <g>
              <path d="M13.52,36.57h0V35.7h0v.86M7.26,32.71v-.89h0v.88h0m7.91,2.56h0l.63.29h0l-.63-.29m2.24-1.09.78.35v0l-.78-.34-.72-.33v0l.72.32m-.79-.34V32.79h0v1.05h0m0-1.16v-.87h0v.87h0m1.58-.3h0s0,0,0,0a.34.34,0,0,1,0,.1c0,.62,0,1.24,0,1.85,0,0,0,.11,0,.13s0,0,0,0h0l-.73-.34-.73-.32s-.06,0-.06-.1c0-.32,0-.65,0-1v-1c0-.07,0-.07.05-.06l0,0,1.37.61.1,0M13.54,26c0,.35,0,.71,0,1.06s0,.63,0,.95c0,.09,0,.12-.09.08l-1-.48L12,27.45h0v1c0,.09,0,.1-.08.07l-.34-.15-.34-.16v3s0,.09,0,.12,0,0-.05,0h0L10.38,31v0l.74.34v0l-.74-.33h0v.05a5,5,0,0,1,0,.86.37.37,0,0,1,0,.11h0l-.3-.13-.15-.06-.14-.07-.14-.06h0c-.05,0,0-.07,0-.12v-.94h0c0,.31,0,.61,0,.92,0,.08,0,.1-.08.07l-.89-.4L8,31l-.42-.18-.36-.18h0L8,31H8l0,0s0,0,.05,0h0l1.49.67,0,0,.73.32v0l-.72-.32h0a.15.15,0,0,1,0,.09c0,.28,0,.55,0,.83,0,0,0,.06,0,.07s0,0-.05,0H9.48l0,0a0,0,0,0,1-.05,0h0l-1.25-.56,0,0s0,0,0,0v0l0,0a1.66,1.66,0,0,1-.29-.1l-.35-.17-.09,0a.1.1,0,0,1,0-.06l-.71-.32h0s0-.1,0-.14v-.94h0c0,.31,0,.63,0,.94,0,.1,0,.11-.09.09h0l-.18-.08L5.69,31h0l.33.16.43.19.29.13.43.19h0c.06,0,.07.05.07.13,0,.32,0,.64,0,1l.22.09,3.71,1.67v0L7.29,32.8v0h0l3.82,1.72v-.89s0-.09,0-.12v0s0,0,0,0l0,0,1.09.49,1.1.49,0,0s0,0,0,0,0,0,0,0v1h0v0c0,.32,0,.64,0,1,0,.07,0,.1.07.12h0l.22.09.49.23c0-.32,0-.64,0-1,0,0,0-.09,0-.12s0,0,.05,0a.05.05,0,0,0,0,0l.63.28s0-.08,0-.13c0-.23,0-.47,0-.7,0,0,0-.09,0-.12h0s0,0,0,0h0l.36.16.27.12h0c.06,0,.07.06.07.13,0,.32,0,.63,0,.95,0-.4,0-.78,0-1.19,0,0,0-.08,0-.13v-.69c0-.12,0-.15.1-.11h0l1.52.69,1.53.69c0-1.72,0-3.44,0-5.16,0-.1,0-.14-.09-.17h0l-.19-.08-.11,0-.28-.13h0c-.07,0-.1-.07-.09-.17,0-.26,0-.53,0-.79s0-.16-.11-.2l-2.23-1-2.23-1-.06,0a.12.12,0,0,1,0-.05v-.9h0V26h0" fill="#2195f2"/>
              <path d="M11.16,34.56,7.45,32.89l-.22-.09h0c0,.3,0,.61,0,.9,0,.12,0,.17.11.21l3.16,1.42,2.1.94c.11,0,.11,0,.11.21v.81c0,.07,0,.1.06.13l.72.32.72.32h0s.06,0,.06-.05V37h0l-.49-.23-.22-.09h0c-.06,0-.07-.05-.07-.12,0-.33,0-.65,0-1l-2.33-1"/>
              <path d="M15.11,35.27s0,0,0,0v.95c0,.06,0,.08-.06.06L14.29,36s0,.08,0,.12c0,.31,0,.63,0,1h0l1.52.67c.05,0,.05.06.05.11v.88c0,.07,0,.11.07.14l.71.31.71.33c.07,0,.08,0,.08-.08,0-.28,0-.56,0-.84,0-.09,0-.12.08-.08l1.4.63c.07,0,.09,0,.08-.08,0-.31,0-.63,0-.94L18.84,38,16,36.71l0,0a.1.1,0,0,1-.05,0c0-.32,0-.63,0-.95,0-.07,0-.11-.07-.13h0l-.27-.12-.36-.16h0"/>
              <path d="M20.52,30.23h0L20,30l-.24-.1,0,6.24a.71.71,0,0,1,0,.14v1.08l.66.28c.13.06.13.06.13-.11l0-5.68c0-.5,0-1,0-1.51,0-.07,0-.1-.06-.12"/>
              <path d="M10.48,26.78c-.07,0-.08,0-.08.09,0,1.33,0,2.67,0,4V31h0l.73.33h0s0,0,.05,0V29.7c0-.51,0-1,0-1.54h0V27.1h0L11,27l-.15-.07-.31-.14h0"/>
              <path d="M16.69,24.23h0m1.57-.36h0m-.09-1.1-.7-.31-.7-.32h0c-.06,0-.08,0-.08.08,0,.64,0,1.29,0,1.94,0,0,0,.05,0,.07l.7.32h0c.05,0,.07,0,.07-.08v-.86c0-.08,0-.09.08-.07l.17.08.53.24c0-.31,0-.63,0-.94,0-.09,0-.13-.09-.16" fill="#fff"/>
              <path d="M5,25.38c-.06,0-.07,0-.07.07,0,.4,0,.8,0,1.2,0,.6,0,1.2,0,1.8,0,0,0,.09,0,.11H5l.73.33,0-3.19-.36-.16L5,25.38H5"/>
              <path d="M8.75,27.07h0l-.29-.13L8,26.75v2.16c0,.32,0,.64,0,1v.06H8l.71.33h0c.05,0,.07,0,.07-.07,0-1,0-2,0-3,0-.1,0-.12-.08-.15"/>
              <path d="M14.33,22.11h0m.81,1.33h0v-.88h0v.89m.73-1.71h0l-.72-.33-.72-.32c-.06,0-.07,0-.07.06,0,.32,0,.65,0,1l.51.23.18.08h0c.07,0,.09.07.09.17,0,.27,0,.56,0,.83,0,.08,0,.12.05.13h.08l0,0,.6.27V23.8a.15.15,0,0,1,0-.11V21.87s0-.08,0-.1l0,0" fill="#fff"/>
              <path d="M12,25.34s-.06,0-.06.06v1h0l1.2.53.32.16h0c0-.35,0-.71,0-1.06h0L12,25.34"/>
              <path d="M6.45,29.23l-.75-.34h0v2a.65.65,0,0,0,0,.14h0l.5.22.18.08h0c.07,0,.09,0,.09-.09,0-.31,0-.63,0-.94h0v-.94s0-.08,0-.13"/>
              <path d="M13.68,26h0l5.23,2.35h0L13.68,26m.06,0c-.08,0-.11-.07-.1-.18s0-.36,0-.53,0-.1,0-.08l0,0,0,0,.05,0,2.51,1.13,2.51,1.12h0c.08,0,.11.08.11.2s0,.31,0,.47,0,.13-.1.09l-1.27-.57-1.27-.57L15,26.58,13.74,26h0m-.06-.91h0l5.2,2.34h0l-5.2-2.34M19,27.4h-.09a.05.05,0,0,0,0,0l-5.09-2.29,0,0a.05.05,0,0,1,0,0,.2.2,0,0,0-.08,0c-.06,0-.06,0-.06.14,0,.3,0,.6,0,.9h0l.11,0,2.62,1.18,2.62,1.18a.31.31,0,0,1,.1,0h0v-1c0-.07,0-.11,0-.13"/>
              <path d="M8,29.93H8s0,0,0,0l-.71-.31v1h0l.36.18L8,31V29.94H8"/>
              <path d="M19,37s0,0,0,.06v1l.61.27.1,0h0s.07,0,.07-.07v-1l-.27-.14-.18-.07-.12-.06L19,37h0"/>
              <path d="M6.42,25l-.33-.14-.32-.15s-.07,0-.07.06v1l.78.35v-1c0-.08,0-.1-.06-.13"/>
              <path d="M7.17,31.7h0l-.43-.19-.29-.13c0,.32,0,.64,0,.95,0,.09,0,.12.08.15h0l.19.08.51.24h0c0-.33,0-.65,0-1,0-.08,0-.11-.07-.13"/>
              <path d="M19.75,28.82,19,28.49v1.06l.77.36v-1s0-.09-.05-.11"/>
              <path d="M11.23,26.05s0,0-.05.05c0,.33,0,.67,0,1h0l.78.35c0-.36,0-.71,0-1.06h0l-.74-.34"/>
              <path d="M6.48,26.05v1.06l.72.33h0s0,0,0-.07v-1l-.78-.35"/>
              <path d="M14.33,22.11l-.49-.22-.22-.1s-.07,0-.07.06c0,.3,0,.6,0,.89,0,.06,0,.09.06.11l.33.15.33.15h0s.05,0,.05-.05v-1m0,0h0" fill="#fff"/>
              <path d="M18.26,23.87c0,.33,0,.66,0,1,0,.07,0,.09.06.11l.36.16.29.13c.06,0,.07,0,.07-.06,0-.29,0-.58,0-.86,0-.1,0-.13-.08-.15h0l-.22-.09-.47-.22m0,0h0" fill="#fff"/>
              <path d="M10.38,31h0l-.7-.3,0,0s0,0,0,0h0v.94c0,.05,0,.1,0,.12h0l.14.06.14.07.15.06.3.13c0-.33,0-.66,0-1v0h0V31h0"/>
              <path d="M16.69,24.23l-.8-.36c0,.25,0,.49,0,.74a1.82,1.82,0,0,0,0,.33c0-.3,0-.59,0-.89,0,0,0-.09,0-.11h0l.13.06.35.16.11.05-.1-.05.12.07-.63-.28h0v1l.67.31h0c.07,0,.08,0,.08-.09,0-.32,0-.63,0-.95m-.8-.36h0m.8.36h0" fill="#fff"/>
              <path d="M8,25.66H8a.15.15,0,0,1-.11,0l0,0-.08,0-.14-.06-.13-.06h0c-.06,0-.09,0-.09.08v.73c0,.06,0,.11.07.13h0l.19.08.24.11h0c.06,0,.09,0,.09-.08a5.23,5.23,0,0,1,0-.8v0"/>
              <path d="M7.42,26.44h0l.51.23h0l-.51-.23m.6-.77H8v0a5.23,5.23,0,0,0,0,.8c0,.09,0,.1-.09.08h0l-.24-.11-.19-.08h0c-.06,0-.07-.07-.07-.13v-.73c0-.08,0-.11.09-.08h0l.13.06.14.06.08,0,0,0a.15.15,0,0,0,.11,0l-.62-.28h0c-.06,0-.07,0-.07.08,0,.32,0,.63,0,.95l.78.35v-.89a.19.19,0,0,1,0-.15.05.05,0,0,0,0,0"/>
              <path d="M15.9,21.77s0,.07,0,.1v1.82a.15.15,0,0,0,0,.11c0-.58,0-1.17,0-1.76a2.43,2.43,0,0,0,0-.27" fill="#fff"/>
              <path d="M15.93,23.94h0s0,.07,0,.11c0,.3,0,.59,0,.89h0v-1h0" fill="#fff"/>
              <path d="M15.89,23.87h0m-.65-.31h0l.34.16a2.63,2.63,0,0,0,.35.15v0l-.6-.27,0,0" fill="#fff"/>
              <path d="M8,25.71a.19.19,0,0,0,0,.15v-.15"/>
              <path d="M13.55,26.17h0M19,28.49h0a0,0,0,0,1-.05,0l-.06,0-5.07-2.28-.12,0,0,0h0c-.06,0-.06,0-.06.11V27s0,.09,0,.12a.12.12,0,0,0,0,.05l.06,0,2.23,1,2.23,1c.09,0,.12.08.11.2s0,.53,0,.79c0,.1,0,.14.09.17h0l.28.13.11,0,.19.08h0c.07,0,.09.07.09.17,0,1.72,0,3.44,0,5.16v0h0l.77.36a.71.71,0,0,0,0-.14l0-6.24L19,29.55h0s0,0,0,0c0-.25,0-.5,0-.74v0c0-.06,0-.12,0-.18v.85s0,.08,0,.12h0V28.49" fill="#03a8f4"/>
              <path d="M19,35.93l-.14-.06-1.16-.52L16,34.57c-.08,0-.11,0-.11.09,0,.27,0,.54,0,.8s0,.79,0,1.19a.1.1,0,0,0,.05,0l0,0L18.84,38l.14.07h0v-1S19,37,19,37h0l.17.08.12.06.18.07.27.14h0V36.29L19,35.93h0" fill="#fefefe"/>
              <path d="M6.48,26.05h0L5.7,25.7h0l0,3.19h0a0,0,0,0,1,0,0h0l.63.28h0a.08.08,0,0,1,0,.05c0,.05,0,.09,0,.13v.94h0v-.91h0v.91h0l.74.33h0v-1s0,0,0,0l.62.28,0,0s0,0,0,0H8v-.06H8a.24.24,0,0,1,0-.14c0-.94,0-1.88,0-2.82,0-.1,0-.15-.09-.18h0l-.24-.1-.13-.05a1.24,1.24,0,0,0-.2-.1h0s-.05,0,0,.06v.95s0,0,0,0,0,0,0,0h0l-.7-.3a.06.06,0,0,1,0,0V26.05h0" fill="#03a8f4"/>
              <path d="M18.2,32.38l-.1,0-1.37-.61,0,0s-.05,0-.05.06v1l.41.19.3.13c.06,0,.07.06.07.13v1l.73.34h0s0,0,0,0c0-.65,0-1.31,0-2a.25.25,0,0,0,0-.14" fill="#fefefe"/>
              <path d="M13.42,34.51,12.33,34l-1.1-.5c-.06,0-.08,0-.08.08v1l2.33,1v-1c0-.09,0-.12-.08-.14" fill="#fefefe"/>
              <path d="M8.07,31S8,31,8,31a.38.38,0,0,1,0,.15v.87l0,0,1.32.59.11.05h.06s0,0,.05,0c0-.33,0-.66,0-1h0v0l0,0L8.08,31h0"/>
              <path d="M13.53,27.09h0a0,0,0,0,1,0,0l0,0-1.36-.61,0,0s0,0,0,0h0c0,.35,0,.7,0,1.06h0l.43.19,1,.48c.08,0,.09,0,.09-.08,0-.32,0-.64,0-.95" fill="#03a8f4"/>
              <path d="M17.36,33.07l-.3-.13-.41-.19c0,.34,0,.67,0,1,0,.06,0,.09.06.1l.73.32v-1c0-.07,0-.1-.07-.13" fill="#000001"/>
              <path d="M12,27.45h0l-.78-.35h0v0a.28.28,0,0,1,0,.13v.91l.34.16.34.15c.06,0,.08,0,.08-.07v-1h0" fill="#03a8f4"/>
              <path d="M8,31h0l0,0-.66-.29v1a.1.1,0,0,0,0,.06l.09,0,.35.17a1.66,1.66,0,0,0,.29.1v0A.13.13,0,0,1,8,32v-.7s0-.06,0-.07A.38.38,0,0,0,8,31l0,0" fill="#03a8f4"/>
              <path d="M6.5,30.32c0,.27,0,.54,0,.82,0,0,0,.09,0,.11s0,.11,0,.14h0a0,0,0,0,1,0,0l0,0,.63.28v-1h0l-.74-.33h0" fill="#2195f2"/>
              <path d="M13.48,34.52c-.78-.36-1.56-.7-2.34-1.05v.93s0,.08,0,.1L7.3,32.78h0v0l3.86,1.73V33.6c0-.08,0-.11.08-.08l1.1.5,1.09.49c.06,0,.08.05.08.14v.94h0v-1s0,0,0,0" fill="#239dfd"/>
              <path d="M16.28,27.26l-2.62-1.18-.11,0h0v.13h0v.9s0-.08,0-.12v-.75c0-.08,0-.14.06-.11h0l0,0,.12,0,5.07,2.28.06,0a0,0,0,0,0,.05,0,.31.31,0,0,0-.1,0l-2.62-1.18" fill="#06b0fc"/>
              <path d="M15.93,34.53c-.08,0-.11,0-.1.11v.69c0,.05,0,.09,0,.13,0-.26,0-.53,0-.8,0-.11,0-.13.11-.09l1.73.78,1.16.52.14.06h0v0l-1.53-.69-1.52-.69h0" fill="#138ded"/>
              <path d="M13.44,34.48l0,0L12.31,34l-1.09-.49,0,0s0,0,0,0c.78.35,1.56.69,2.34,1.05,0,0,0,0,0,0" fill="#138eee"/>
              <path d="M11.2,28.17h0c0,.52,0,1,0,1.54v1.63s0-.08,0-.12v-3" fill="#249bfa"/>
              <path d="M15.06,35.28h0v.86s0,.1,0,.09L14.38,36a.05.05,0,0,1,0,0s0,0-.05,0l.71.33c.05,0,.06,0,.06-.06v-.95" fill="#239efd"/>
              <path d="M18.22,32.38h0a.25.25,0,0,1,0,.14c0,.66,0,1.32,0,2,0,0,0-.08,0-.13,0-.61,0-1.23,0-1.85a.34.34,0,0,0,0-.1s0,0,0,0" fill="#1a91f0"/>
              <path d="M9.37,32.69,8.05,32.1v0l1.41.63,0,0-.11-.05" fill="#229dfe"/>
              <path d="M9.46,32.76l-1.41-.63s0,0,0,0l0,0,1.25.56h0a0,0,0,0,0,.05,0" fill="#2391ea"/>
              <path d="M16.63,32.79h0v1.05h0V32.79" fill="#249efe"/>
              <path d="M18.19,34.53l-.78-.35v0l.78.34v0" fill="#1290f3"/>
              <path d="M13.52,34.56v1h0v-1" fill="#1691f3"/>
              <path d="M11.13,31.36,10.39,31v0h0l.74.33v0" fill="#239ffe"/>
              <path d="M11.14,33.49s0,.08,0,.12v.89s0-.07,0-.1v-.91" fill="#168df0"/>
              <path d="M7.24,30.68v0L7.9,31l0,0H8l-.74-.33h0" fill="#02b4fe"/>
              <path d="M17.41,34.18l-.72-.32v0l.72.33v0" fill="#239efe"/>
              <path d="M10.33,32.06l-.73-.32v0h0l.72.32v0" fill="#229ffd"/>
              <path d="M10.39,31.07c0,.33,0,.66,0,1h0a.37.37,0,0,0,0-.11s0,.07,0,.11v-1" fill="#239ffe"/>
              <path d="M9.6,31.78c0,.33,0,.66,0,1,0,0,0,0,0-.07,0-.28,0-.55,0-.83a.15.15,0,0,0,0-.09" fill="#229ffd"/>
              <path d="M15,35.29s0,.08,0,.12c0,.23,0,.47,0,.7,0,0,0,.1,0,.13s0-.05,0-.09v-.86" fill="#2091e9"/>
              <path d="M6.57,31.39a0,0,0,0,0,0,0l.71.32v0l-.63-.28,0,0" fill="#249ffe"/>
              <path d="M10.4,31.1v1s0-.08,0-.11a5,5,0,0,0,0-.86" fill="#2091e9"/>
              <path d="M16.63,31.82h0v.87h0v-.87" fill="#128def"/>
              <path d="M7.27,31.83h0v.89h0v-.88" fill="#1f9cfe"/>
              <path d="M6.48,30.31h0v.94s0-.07,0-.11c0-.28,0-.55,0-.82h0" fill="#1c99fd"/>
              <path d="M15.8,35.55l-.63-.29h0l.63.29h0" fill="#259ffe"/>
              <path d="M13.52,35.71h0v.86h0v-.86" fill="#219afd"/>
              <path d="M11.19,27.13v1h0v-.91a.28.28,0,0,0,0-.13" fill="#05aefc"/>
              <path d="M8,26.75l-.78-.35h0v1c0,.05,0,.09,0,.07h0l-.72-.33v0l.77.35s0,0,0,0l0-.05c0-.29,0-.58,0-.87v0c0-.07,0-.07,0-.06h0a1.24,1.24,0,0,1,.2.1l.13.05.24.1h0c.07,0,.09.08.09.18,0,.94,0,1.88,0,2.82a.24.24,0,0,0,0,.14c0-1,0-2,0-3,0,0,0-.1,0-.12v0" fill="#02a6ea"/>
              <path d="M8,26.78s0,.08,0,.12c0,1,0,2,0,3H8c0-.32,0-.64,0-1V26.78" fill="#05b1fd"/>
              <path d="M15.14,22.55h0v.88h0v-.89" fill="#fff"/>
              <path d="M13.19,26.93,12,26.4s0,0,0,0l0,0,1.36.61,0,0a0,0,0,0,0,0,0l-.32-.16" fill="#04adfb"/>
              <path d="M6.4,29.18h0l-.63-.28h0a0,0,0,0,0,0,0l.75.34a.08.08,0,0,0,0-.05" fill="#06b1fd"/>
              <path d="M13.68,25.21s0,0,0,.08,0,.36,0,.53,0,.15.1.18h0l1.28.57,1.27.57,1.27.57,1.27.57c.08,0,.11,0,.1-.09s0-.32,0-.47,0-.16-.11-.2h0l-2.51-1.12-2.51-1.13-.05,0,0,0,0,0"/>
              <path d="M18.91,28.36,13.68,26h0l5.23,2.35h0"/>
              <path d="M18.88,27.42l-5.2-2.34h0l5.2,2.34h0"/>
              <path d="M7.3,29.59s0,0,0,0l.71.31,0,0-.62-.28" fill="#06b1fd"/>
              <path d="M16.08,24,16,23.93h0l.63.28-.12-.07h0L16.08,24" fill="#fff"/>
              <path d="M7.93,26.66l-.51-.23h0l.51.23h0"/>
              <path d="M19,29.55h0m0-1c0,.06,0,.12,0,.18v0c0,.24,0,.49,0,.74,0,0,0,0,0,0h0s0-.08,0-.12v-.85" fill="#03acfe"/>
              <path d="M7.25,27.49l-.77-.35a.06.06,0,0,0,0,0l.7.3h0s0,0,0,0" fill="#00affe"/>
              <path d="M6.5,29.4h0v.91h0V29.4" fill="#03acfe"/>
              <path d="M7.29,26.51v0c0,.29,0,.58,0,.87l0,.05v-.95" fill="#02adfe"/>
              <path d="M8,31.19s0,0,0,.07V32A.13.13,0,0,0,8,32v-.85" fill="#05b1fd"/>
            </g>
          </g>
        </g>
      </g>
      <g>
        <polygon points="24.2 19.46 1.42 9.17 25.96 0.24 48.75 10.53 24.2 19.46" fill="#72aedf"/>
        <g style="isolation: isolate">
          <g clip-path="url(#clip-path-2)">
            <g>
              <path d="M32.2,12.15h0l-.66-.3h0l.66.3m-8,2.27-.68-.31h0l.68.31h0m8.37-3.67h0l.73-.27h0l-.73.27m1-1.67.89-.32h0l-.9.33-.83.3h0l.84-.31m-.91.34-.8-.37h0l.81.37h0M31.7,9,31,8.72h0l.67.31h0m1-1V8h0l.09,0,1.42.65s.09,0,.09.05,0,0,0,0h0l-.85.31-.83.31a.2.2,0,0,1-.13,0L31.78,9,31,8.69c-.05,0,0,0,0,0h0l1.58-.58.12,0m-8.68.49.81.37.74.33c.07,0,.08,0,0,.07l-1.22.45-.49.17h0l.75.34c.06,0,.05,0,0,.07l-.4.14-.39.14,2.34,1.06s.08,0,.08,0,0,0,0,0h0l-.84.3h0l.86-.31h0l-.85.31h.05a6.86,6.86,0,0,1,.66.29s.07,0,.08.05h0l-.34.13-.17.06-.16.06-.17.06h0a.17.17,0,0,1-.13,0l-.63-.29-.1,0h0l.7.32c.07,0,.07.05,0,.08l-1,.37-.68.25-.48.17a3.12,3.12,0,0,1-.43.15h0l.86-.31h0s0,0,0,0h0l1.72-.63h0l.84-.3h0l-.83.3h0a.2.2,0,0,1,.09,0l.63.29s.06,0,0,0a.1.1,0,0,1-.05,0H26v0s0,0,0,0h0l-1.44.52,0,0h-.14l-.32.13-.41.14-.09,0a.13.13,0,0,1-.09,0l-.82.3h0c-.07,0-.09,0-.14,0L21.68,14h0c.25.12.48.23.73.33.08,0,.07.06,0,.08h0l-.21.07-.58.21h0l.4-.14.49-.18.33-.12.5-.18h0a.22.22,0,0,1,.16,0l.74.34.25-.09,4.28-1.56h0l-4.45,1.62h0l4.4-1.61L28,12.5s-.09,0-.08-.05h0a0,0,0,0,1,0,0l.05,0,1.26-.46,1.26-.45,0,0h.17l.76.34h0l.74.34a.22.22,0,0,0,.16,0h0l.25-.09.57-.21-.73-.33a.16.16,0,0,1-.08,0s0,0,0,0l.05,0,.73-.26a.15.15,0,0,0-.09,0l-.54-.25s-.08,0-.08-.05v0l0,0h0l.42-.15.31-.12h0a.2.2,0,0,1,.17,0c.24.11.47.22.73.32-.3-.13-.59-.28-.92-.4a.16.16,0,0,1-.11,0l-.54-.24c-.09,0-.09-.06,0-.1h0l1.76-.64,1.76-.64L32.13,7a.2.2,0,0,0-.2,0h0l-.23.09-.13,0-.32.12h0a.22.22,0,0,1-.21,0c-.19-.1-.41-.18-.6-.28a.25.25,0,0,0-.24,0l-2.58.94L25,8.81l-.06,0h-.08l-.69-.31h0l-.1,0h0" fill="#2195f2"/>
              <path d="M28.74,12.81l-4.28,1.56-.25.09h0l.7.32a.27.27,0,0,0,.25,0l3.64-1.33,2.43-.89a.25.25,0,0,1,.25,0l.62.29a.16.16,0,0,0,.15,0l.83-.3.83-.3h0s0,0,0,0l-.76-.34h0l-.57.21-.25.09h0a.22.22,0,0,1-.16,0l-.74-.34-2.7,1"/>
              <path d="M32.47,10.78l0,0,.75.33s0,0,0,.06l-.83.29a.16.16,0,0,0,.08,0l.73.33h0l1.75-.64a.14.14,0,0,1,.13,0l.67.31a.18.18,0,0,0,.16,0l.82-.3.83-.3c.07,0,.06,0,0-.06l-.65-.29c-.08,0-.08,0,0-.08l1.61-.59c.09,0,.08,0,0-.08l-.73-.32-.16.05L34.27,10.8l-.06,0h-.07c-.26-.1-.49-.21-.73-.32a.2.2,0,0,0-.17,0h0l-.31.12-.42.15h0"/>
              <path d="M32.94,5.93h0l-.55.2-.28.1,4.81,2.18.1.05.83.37.76-.28c.14-.05.14-.05,0-.11l-4.38-2-1.16-.52a.14.14,0,0,0-.14,0"/>
              <path d="M22.17,10.52c-.07,0-.07,0,0,.07L25.26,12l.09,0h0l.84-.3h0s0,0,0,0L25,11.13l-1.18-.54h0l-.8-.36h0l-.27.1-.17.06-.36.13h0"/>
              <path d="M25.21,6.06h0m1-1h0m-.92-.33-.81.3-.81.29h0c-.07,0-.07,0,0,.08l1.5.67.06,0L26,5.77h0c.07,0,.07,0,0-.07l-.67-.3c-.06,0-.06,0,0-.07l.2-.07L26.2,5l-.73-.33a.21.21,0,0,0-.19,0" fill="#fff"/>
              <path d="M16.65,13.19c-.07,0,0,0,0,.07l.93.42L19,14.3a.11.11,0,0,0,.12,0h0l.85-.32-2.46-1.11-.41.15-.41.15h0"/>
              <path d="M21,11.61h0l-.34.13-.47.17h0l1.65.74.73.33.05,0h0l.82-.3h0c.06,0,.06,0,0-.07l-2.3-1a.19.19,0,0,0-.18,0"/>
              <path d="M21.67,6.68h0m1.68,0h0l-.68-.31h0l.68.31m-.73-1h0l-.84.3-.83.31c-.06,0-.06,0,0,.06l.74.33.59-.21.21-.08h0a.2.2,0,0,1,.2,0l.64.29a.18.18,0,0,0,.14,0l0,0s0,0,0,0l0,0,.7-.25,0,0a.18.18,0,0,1-.11,0l-1.39-.63s-.07,0-.07,0h-.05" fill="#fff"/>
              <path d="M22.31,9.13s0,0,0,0l.77.34h0L24.48,9l.38-.13h0l-.81-.37h0l-1.75.63"/>
              <path d="M20.82,13.68,20,14h0l1.53.7.12,0h0l.58-.21.21-.07h0c.07,0,.08,0,0-.08-.25-.1-.48-.21-.73-.33h0l-.73-.32a.16.16,0,0,0-.11,0"/>
              <path d="M24.17,8.41h0l6-2.2h0l-6,2.2m0,0a.2.2,0,0,1-.22,0l-.41-.18s-.07,0,0,0h.05l.05,0,.06,0,2.9-1L29.49,6h0a.23.23,0,0,1,.23,0l.36.16c.1,0,.08.06,0,.09l-1.47.54-1.46.53-1.47.54-1.47.53h0m-.75-.28h0l6-2.19h0l-6,2.18m6.06-2.25,0,0,0,0-.05,0L23.51,8l-.05,0H23.4l-.09,0c-.07,0,0,0,.05.08l.7.32h0l.12,0,3-1.11,3-1.1.11,0h0l-.74-.33c-.06,0-.1,0-.14,0"/>
              <path d="M22.63,13l0,0h0l-.81.3.81.37h0a3.12,3.12,0,0,0,.43-.15l.48-.17L22.65,13h0"/>
              <path d="M37,9.14c-.05,0,0,0,0,0l.77.35.7-.26.12,0h0s.06,0,0-.06l-.74-.33-.33.11-.2.08-.14.05-.2.07h0"/>
              <path d="M17.48,12.22l-.37.14-.37.14c-.06,0-.07,0,0,.06l.75.33.9-.32-.75-.34a.16.16,0,0,0-.15,0"/>
              <path d="M23.31,14.12h0l-.5.18-.33.12.74.33a.2.2,0,0,0,.17,0h0l.21-.08.6-.22h0l-.74-.34a.22.22,0,0,0-.16,0"/>
              <path d="M31.23,5.88l-.84.31.82.37.9-.33-.75-.33a.13.13,0,0,0-.13,0"/>
              <path d="M22.22,9.83s0,0,0,0l.77.35h0l.9-.33-.82-.37h0l-.86.31"/>
              <path d="M18.38,12.57l.82.36.84-.3h0c.05,0,0,0,0-.05l-.76-.34-.9.33"/>
              <path d="M21.67,6.68l-.56.21L20.85,7c-.06,0-.07,0,0,.06l.69.32a.15.15,0,0,0,.13,0L22,7.22l.39-.14h0s0,0,0,0l-.77-.35m0,0h0" fill="#fff"/>
              <path d="M26.2,5l.75.35a.16.16,0,0,0,.15,0l.4-.15.35-.12c.06,0,.06,0,0-.06l-.66-.3a.19.19,0,0,0-.18,0h0l-.25.09L26.2,5m0,0h0" fill="#fff"/>
              <path d="M25.35,12h0l-.8.3H24.5s0,0,0,0h0l.1,0,.63.29a.17.17,0,0,0,.13,0h0l.17-.06.16-.06.17-.06.34-.13-.76-.35h-.07"/>
              <path d="M25.21,6.06l-.92.34.58.25a1.27,1.27,0,0,0,.26.11l-.69-.31s-.07,0-.07,0h0l0,0,.14-.06L25,6.18l.12,0-.12,0,.16,0-.74.27h0l.78.35.79-.28h0c.07,0,.06,0,0-.08l-.73-.33m-.92.34h0m.92-.34h0" fill="#fff"/>
              <path d="M19.29,11.57h0l-.1.05-.07,0-.09,0-.16.07-.15.05h0c-.07,0-.06,0,0,.08l.57.25a.18.18,0,0,0,.16,0h0l.21-.08.27-.1h0c.06,0,.08,0,0-.08a4.05,4.05,0,0,1-.59-.29h0"/>
              <path d="M19.44,12.16h0l.6-.22h0l-.59.21m-.11-.61h0a4.05,4.05,0,0,0,.59.29c.07,0,0,.06,0,.08h0l-.27.1-.21.08h0a.18.18,0,0,1-.16,0l-.57-.25c-.05,0-.06-.05,0-.08h0l.15-.05.16-.07.09,0,.07,0,.1-.05-.72.25h0c-.07,0-.05,0,0,.07l.73.33.9-.33-.69-.31c-.06,0-.1,0-.11,0s0,0-.05,0"/>
              <path d="M22.67,5.67s0,0,.07,0l1.39.63a.18.18,0,0,0,.11,0l-1.35-.61-.22-.09" fill="#fff"/>
              <path d="M24.37,6.4h0s0,0,.07,0l.69.31h0l-.78-.35h0" fill="#fff"/>
              <path d="M24.29,6.4h0m-.76.26s0,0,0,0l.41-.14.39-.15h0l-.7.25,0,0" fill="#fff"/>
              <path d="M19.38,11.55s.05,0,.11,0l-.11,0"/>
              <path d="M24.18,8.54h0m6.21-2.35h0s0,0,0,0l-.07,0L24.41,8.39l-.13,0-.06,0h0c-.06,0,0,0,0,.07l.58.26s.09,0,.08,0H25l.06,0,2.58-.93,2.58-.94a.25.25,0,0,1,.24,0c.19.1.41.18.6.28a.22.22,0,0,0,.21,0h0l.32-.12.13,0L31.92,7h0a.2.2,0,0,1,.2,0l4,1.79h0l.9-.32-.1-.05L32.11,6.23l-.9.33h0s0,0,0,0h-.05l-.56-.26-.11,0,.1,0-.14-.07.66.3a.24.24,0,0,0,.11,0h0l-.82-.37" fill="#03a8f4"/>
              <path d="M36.12,8.78,36,8.84l-1.33.49-2,.73c-.09,0-.11,0,0,.09l.61.28c.33.12.62.27.92.4h.07l.06,0,3.34-1.22.16-.05h0L37,9.18s-.06,0,0,0h0l.2-.07L37.33,9l.2-.08.33-.11h0L37,8.46l-.9.32h0" fill="#fefefe"/>
              <path d="M18.38,12.57h0l-.9.32h0L19.94,14h0s0,0,0,0h0l.74-.26h.08a.16.16,0,0,1,.11,0l.73.32h0l-.7-.32h0l.7.32h0l.86-.31h0l-.81-.37s0,0,0,0l.72-.26h.09l0,0-.05,0h0a.21.21,0,0,1-.12,0l-2.17-1a.26.26,0,0,0-.21,0h0l-.28.11-.14.05-.23.08h0s-.05,0,0,0l.72.32s0,0,0,0,0,0,0,0h0l-.79.3H19.2l-.82-.36h0" fill="#03a8f4"/>
              <path d="M32.74,8l-.12,0L31,8.63h0s-.05,0,0,0l.77.34.46-.17.35-.13a.22.22,0,0,1,.16,0l.74.34.85-.31h0s0,0,0,0l-1.52-.68a.19.19,0,0,0-.12,0" fill="#fefefe"/>
              <path d="M30.53,11.49,29.27,12,28,12.41c-.08,0-.07.05,0,.07l.71.33h0l2.7-1h0l-.73-.33a.2.2,0,0,0-.17,0" fill="#fefefe"/>
              <path d="M23.53,13.37s-.05,0,0,0l.11,0,.66.3h.07l1.52-.56.12,0H26a.1.1,0,0,0,.05,0l-.76-.34h-.07l-1.72.63h0"/>
              <path d="M24.87,8.87h0l0,0,0,0-1.57.57,0,0h-.1l.82.37h0l.49-.17,1.22-.45c.09,0,.08,0,0-.07l-.74-.33" fill="#03a8f4"/>
              <path d="M32.59,8.73l-.35.13L31.78,9l.75.34a.2.2,0,0,0,.13,0l.83-.31-.74-.34a.22.22,0,0,0-.16,0" fill="#000001"/>
              <path d="M23.89,9.89h0l-.9.33h0a.21.21,0,0,1,.12,0l.7.31.39-.14.4-.14c.07,0,.08,0,0-.07l-.75-.34h0" fill="#03a8f4"/>
              <path d="M23.44,13.41s0,0,0,0l0,0-.76.27.76.35h0a.13.13,0,0,0,.09,0l.09,0,.41-.14.32-.13h0l-.08,0-.54-.24s0,0,0,0l-.11,0h0" fill="#03a8f4"/>
              <path d="M21.7,14l.63.29s.08,0,.07,0,.07,0,.14,0h0s0,0,0,0l0,0,.72-.26-.76-.35h0L21.7,14h0" fill="#2195f2"/>
              <path d="M30.58,11.46l-2.7,1h0l.7.32s.07,0,.06,0l-4.4,1.61h0l4.45-1.62L28,12.48c-.07,0-.08,0,0-.07L29.27,12l1.26-.46a.2.2,0,0,1,.17,0l.73.33h0l-.8-.37h-.06" fill="#239dfd"/>
              <path d="M27.23,7.34l-3,1.11-.12,0h0l.1,0h0l.69.31s0,0-.08,0l-.58-.26c-.06,0-.1,0,0-.07h0l.06,0,.13,0,5.85-2.14.07,0s0,0,0,0l-.11,0-3,1.1" fill="#06b0fc"/>
              <path d="M32.57,10.05c-.09,0-.09.06,0,.1l.54.24a.16.16,0,0,0,.11,0l-.61-.28c-.1,0-.08-.06,0-.09l2-.73L36,8.84l.16-.06h0l-1.76.64-1.76.64h0" fill="#138ded"/>
              <path d="M30.52,11.47l0,0-1.26.45L28,12.4l-.05,0a0,0,0,0,0,0,0l2.7-1h-.06" fill="#138eee"/>
              <path d="M23.83,10.58h0l1.18.54,1.26.56s-.05,0-.08,0l-2.34-1.06" fill="#249bfa"/>
              <path d="M32.44,10.81v0l.66.3s.1,0,0,0l-.73.26-.05,0s0,0,0,0l.83-.29s0,0,0-.06l-.75-.33" fill="#239efd"/>
              <path d="M32.75,8V8a.19.19,0,0,1,.12,0l1.52.68s-.05,0-.09-.05L32.87,8l-.09,0h0" fill="#1a91f0"/>
              <path d="M25.85,13.19l-1.52.56h0L26,13.17v0l-.12,0" fill="#229dfe"/>
              <path d="M26,13.17l-1.62.59h.07l0,0,1.44-.52h0s0,0,0,0" fill="#2391ea"/>
              <path d="M31.79,9.05h0l.8.37h0l-.81-.37" fill="#249efe"/>
              <path d="M34.39,8.76l-.89.32h0l.9-.33h0" fill="#1290f3"/>
              <path d="M30.64,11.45l.8.37h0l-.76-.34h-.05" fill="#1691f3"/>
              <path d="M26.24,11.72l-.86.31h0l.85-.31h0" fill="#239ffe"/>
              <path d="M27.9,12.45s0,0,.08.05l.68.31s0,0-.06,0l-.7-.32" fill="#168df0"/>
              <path d="M22.58,13.72h0l.76-.27,0,0s0,0,0,0h0l-.86.31h0" fill="#02b4fe"/>
              <path d="M33.5,9.08l-.84.31h0l.83-.3h0" fill="#239efe"/>
              <path d="M26.14,12.43l-.84.3h0l.83-.3h0" fill="#229ffd"/>
              <path d="M25.42,12.05l.76.35h0s-.05,0-.08-.05l.08.05-.74-.34h0" fill="#239ffe"/>
              <path d="M25.33,12.75l.76.34s0,0,0,0l-.63-.29a.2.2,0,0,0-.09,0" fill="#229ffd"/>
              <path d="M32.44,10.83s.05,0,.08.05l.54.25a.15.15,0,0,1,.09,0c.05,0,0,0,0,0l-.66-.3" fill="#2091e9"/>
              <path d="M22.59,14.36s0,0,0,0l.82-.3h0l-.72.26,0,0" fill="#249ffe"/>
              <path d="M25.46,12.05l.74.34-.08-.05a6.86,6.86,0,0,0-.66-.29" fill="#2091e9"/>
              <path d="M31,8.71h0l.67.3h0L31,8.71" fill="#128def"/>
              <path d="M23.49,14.11h0l.68.31h0l-.68-.31" fill="#1f9cfe"/>
              <path d="M21.67,14h0l.72.33s0,0-.07,0L21.7,14h0" fill="#1c99fd"/>
              <path d="M33.25,10.48l-.73.27h0l.73-.27h0" fill="#259ffe"/>
              <path d="M31.54,11.85h0l.66.3h0l-.66-.3" fill="#219afd"/>
              <path d="M23,10.23l.8.36h0l-.7-.31a.21.21,0,0,0-.12,0" fill="#05aefc"/>
              <path d="M20.18,11.91l-.9.33h0l.76.34s.06,0,0,.05h0l-.84.3h0l.9-.32s0,0,0,0h0l-.67-.3v0c-.08,0-.06,0,0,0h0l.23-.08.14-.05.28-.11h0a.26.26,0,0,1,.21,0l2.17,1a.21.21,0,0,0,.12,0l-2.27-1s-.09,0-.09-.05h0" fill="#02a6ea"/>
              <path d="M20.2,11.92s.05,0,.09.05l2.27,1h0l-.73-.33-1.65-.74" fill="#05b1fd"/>
              <path d="M22.67,6.37h0l.68.31h0l-.68-.31" fill="#fff"/>
              <path d="M24.48,9l-1.38.51h.07l0,0,1.57-.57,0,0,0,0L24.48,9" fill="#04adfb"/>
              <path d="M20.74,13.69h0L20,14h0s0,0,0,0l.86-.32h-.08" fill="#06b1fd"/>
              <path d="M23.54,8.13s0,0,0,0l.41.18a.2.2,0,0,0,.22,0h0l1.47-.53,1.47-.54,1.46-.53,1.47-.54c.09,0,.11-.05,0-.09L29.73,6a.23.23,0,0,0-.23,0h0L26.6,7l-2.9,1-.06,0-.05,0h-.05"/>
              <path d="M30.2,6.21l-6,2.2h0l6-2.2h0"/>
              <path d="M29.44,5.9l-6,2.19h0l6-2.18h0"/>
              <path d="M21.78,13.32s-.05,0,0,0l.81-.3H22.5l-.72.26" fill="#06b1fd"/>
              <path d="M24.53,6.32l-.14.06,0,0h0l.74-.27-.16,0h0l-.42.14" fill="#fff"/>
              <path d="M20,11.94l-.6.22h0L20,12h0"/>
              <path d="M31.21,6.56h0m-.77-.33.14.07h0l.56.26h.05s0,0,0,0a.24.24,0,0,1-.11,0l-.66-.3" fill="#03acfe"/>
              <path d="M20.12,12.62l-.9.32h.05l.79-.3h0s0,0,0,0" fill="#00affe"/>
              <path d="M21,13.71h0l.7.32h0l-.7-.32" fill="#03acfe"/>
              <path d="M19.4,12.26v0l.67.3h0l-.72-.32" fill="#02adfe"/>
              <path d="M23.6,13.45s0,0,0,0l.54.24.08,0-.66-.3" fill="#05b1fd"/>
            </g>
          </g>
        </g>
      </g>
      <g>
        <polygon points="48.75 10.53 48.59 40.82 24.04 49.76 24.2 19.46 48.75 10.53" fill="#75b2e4"/>
        <g style="isolation: isolate">
          <g clip-path="url(#clip-path-3)">
            <g>
              <path d="M37.64,37.78h0v-.87h0v.87m-7,1.5v-.9h0v.9h0m8.83-4.22h0l.71-.26h0l-.7.26M42,32l.87-.31v0l-.87.31-.81.3v0L42,32m-.88.33V31.3h0v1.06h0m0-1.16v-.89h0v.89h0m1.77-1.66,0,0s0,0,0,0a.41.41,0,0,1,0,.11c0,.62,0,1.25,0,1.87,0,0,0,.09,0,.15a.05.05,0,0,1,0,0h0L42,32l-.81.3s-.07,0-.07,0c0-.34,0-.67,0-1s0-.66,0-1c0-.07,0-.09,0-.1h0l1.53-.56.12,0m-5.21-2.4c0,.36,0,.71,0,1.07v1c0,.09,0,.13-.09.16l-1.18.42-.47.17h0c0,.33,0,.65,0,1,0,.08,0,.11-.09.13l-.38.14-.38.14,0,3.08s0,.08,0,.13a.08.08,0,0,1,0,0h0l-.81.29v0l.83-.3v0l-.82.3h0v0l0,0a4.8,4.8,0,0,1,0,.85.62.62,0,0,1,0,.13h0l-.34.14-.15.06-.16,0-.16.06h0c-.06,0-.05,0-.05-.07v-.84s0-.07,0-.11h0c0,.31,0,.62,0,.93,0,.08,0,.12-.09.14l-1,.36-.66.24-.46.18-.41.14h0l.82-.3h0a.13.13,0,0,1,.06,0h0l1.66-.6h0l.81-.29v0l-.81.3h0s0,0,0,.08v.83a.18.18,0,0,1,0,.1l-.07,0h0l0,0v0a.07.07,0,0,1-.06,0l0,0-1.38.5,0,0s0,0-.05,0v0h0a1.82,1.82,0,0,1-.32.15l-.4.13-.09,0a0,0,0,0,1-.06,0l-.79.29h0c-.07,0,0-.08,0-.11v-.95h0c0,.32,0,.64,0,1,0,.1,0,.13-.1.16h0l-.2.07-.56.21h0l.37-.13.48-.18.32-.12.48-.17h0c.06,0,.07,0,.07.08,0,.33,0,.65,0,1l.24-.09L35,37.78h0l-4.3,1.56v0h0L35,37.76v-.91a.21.21,0,0,1,0-.13v0l.05-.05h0l1.22-.44,1.22-.44,0,0s0,0,0,0,0,0,0,0v1h0v1c0,.08,0,.1.07.08h0l.24-.09.55-.19v-1a.23.23,0,0,1,0-.14s0,0,0,0l0,0,.71-.25a.38.38,0,0,0,0-.15c0-.24,0-.47,0-.71a.23.23,0,0,1,0-.14l0,0a.08.08,0,0,1,0,0h0l.4-.14.3-.12h0c.06,0,.07,0,.07.08,0,.32,0,.64,0,1,0-.4,0-.8,0-1.19,0,0,0-.07,0-.11,0-.24,0-.48,0-.71a.18.18,0,0,1,.12-.2h0L42,33l1.7-.62,0-5.21c0-.1,0-.13-.1-.1h0l-.22.08-.12.05-.32.11h0c-.08,0-.11,0-.11-.1,0-.27,0-.53,0-.8s0-.14-.12-.1l-2.49.91-2.49.9-.06,0s-.05,0-.06,0v-1h0" fill="#2195f2"/>
              <path d="M35,37.78l-4.14,1.51-.24.09h0v.92c0,.12,0,.15.12.11l3.52-1.28,2.35-.86c.12,0,.12,0,.12.12v.82c0,.07,0,.1.07.07l.8-.29.8-.29h0c.05,0,.07,0,.07-.1,0-.33,0-.66,0-1h0l-.55.19-.24.09h0c-.06,0-.08,0-.07-.08v-1L35,37.78"/>
              <path d="M39.41,35.1a.08.08,0,0,0,0,0v1a.09.09,0,0,1-.07.1l-.79.28a.23.23,0,0,0,0,.14v1h0L40.17,37c.06,0,.06,0,.06.06,0,.3,0,.59,0,.89,0,.08,0,.1.08.08l.79-.3.8-.28c.07,0,.08-.06.08-.14,0-.28,0-.57,0-.85,0-.09,0-.13.1-.16l1.56-.56c.08,0,.09-.06.09-.15,0-.32,0-.64,0-1l-.15,0-3.23,1.18-.06,0h-.06c0-.31,0-.63,0-1,0-.08,0-.1-.07-.08h0l-.3.12-.4.14h0"/>
              <path d="M45.45,25.37h0l-.54.2-.27.1,0,6.32v.14c0,.36,0,.73,0,1.09l.74-.28c.14,0,.14,0,.14-.21l0-5.76c0-.51,0-1,0-1.53,0-.06,0-.09-.07-.07"/>
              <path d="M34.25,30.52c-.07,0-.09.06-.09.16,0,1.35,0,2.7,0,4a.57.57,0,0,1,0,.13h0l.81-.29h0a.08.08,0,0,0,0,0c0-.55,0-1.1,0-1.64s0-1,0-1.56h0V30.24h0l-.26.1-.17.06-.35.12h0"/>
              <path d="M41.18,22.61h0m1.75-1.71h0m-.09-1-.78.29-.78.28h0c-.07,0-.09,0-.09.14v2l.78-.27h0a.13.13,0,0,0,.08-.14c0-.29,0-.58,0-.87a.12.12,0,0,1,.09-.14l.19-.06.6-.23V20c0-.09,0-.12-.09-.09" fill="#fff"/>
              <path d="M28.12,33.83c-.07,0-.08.06-.08.14,0,.4,0,.81,0,1.21V37s0,.1,0,.08h0l.83-.3V33.54l-.39.15-.4.14h0"/>
              <path d="M32.32,32.3h0l-.33.13-.45.16v0c0,.72,0,1.44,0,2.16,0,.32,0,.65,0,1v.07h0l.8-.28h0c.07,0,.08-.05.08-.13,0-1,0-2,0-3,0-.09,0-.1-.09-.08"/>
              <path d="M38.55,22.5h0m.9.65h0v-.89h0v.9m.82-2.35h0l-.8.29-.8.29c-.07,0-.08.06-.08.13,0,.32,0,.65,0,1l.57-.21.21-.07h0c.08,0,.11,0,.1.09,0,.28,0,.56,0,.84q0,.12.06.09l0,0a.05.05,0,0,1,0,0l0,0,.67-.25v0s0-.07,0-.1V20.93a.17.17,0,0,1,0-.12s0,0,0,0" fill="#fff"/>
              <path d="M36,27.74s-.06.05-.06.11c0,.33,0,.66,0,1h0l1.34-.49.37-.13h0c0-.36,0-.71,0-1.07h0l-1.68.6"/>
              <path d="M29.75,36.46l-.83.3h0v2a.65.65,0,0,0,0,.14h0l.56-.21.2-.07h0c.08,0,.1-.06.1-.16,0-.32,0-.64,0-1h0v-1s0-.09,0-.11"/>
              <path d="M37.82,27v0l5.84-2.12h0L37.82,27m.07-.07c-.09,0-.12,0-.11-.1s0-.36,0-.54,0-.1,0-.12h.08l.06,0,2.8-1,2.79-1h0c.09,0,.12,0,.12.11s0,.32,0,.48a.15.15,0,0,1-.11.18l-1.42.52-1.42.51-1.42.52-1.42.52h0m-.07-.87h0L43.62,24h0l-5.8,2.11m5.91-2.23,0,0s0,0,0,0l0,0L37.91,26l0,0h0a.15.15,0,0,0-.08,0c-.07,0-.07.06-.07.19,0,.31,0,.61,0,.92h0l.12,0L40.72,26,43.65,25l.11,0h0v-1c0-.08,0-.11-.05-.1"/>
              <path d="M31.51,35.81l-.05,0h0l-.79.29v1.07h0l.41-.14.46-.18V35.82h0"/>
              <path d="M43.78,33.51c-.05,0-.05.05-.05.09v1l.68-.25.11,0h0s.07,0,.07-.12v-1l-.31.1-.19.08-.13.05-.19.06h0"/>
              <path d="M29.72,32.17l-.36.14-.37.13s-.07,0-.07.11v1l.86-.32c0-.32,0-.65,0-1,0-.08,0-.09-.07-.07"/>
              <path d="M30.56,38.32h0l-.48.17-.32.12c0,.32,0,.64,0,1,0,.09,0,.11.08.09h0l.21-.07.57-.21h0c0-.33,0-.65,0-1,0-.08,0-.1-.07-.08"/>
              <path d="M44.6,24.61l-.82.3c0,.36,0,.72,0,1.07l.87-.31v-1s0-.1,0-.07"/>
              <path d="M35.09,29.14s-.05,0-.05.09v1h0l.86-.32c0-.36,0-.71,0-1.07h0l-.82.29"/>
              <path d="M29.79,33.23V34.3l.81-.29h0s0-.06,0-.11c0-.33,0-.66,0-1l-.87.32"/>
              <path d="M38.55,22.5l-.54.2-.25.09a.11.11,0,0,0-.08.12c0,.3,0,.6,0,.9,0,.06,0,.08.06.06l.38-.13.37-.14h0a.08.08,0,0,0,0-.09v-1m0,0h0" fill="#fff"/>
              <path d="M42.93,20.9c0,.34,0,.67,0,1,0,.07,0,.07.08.05l.39-.15.33-.11c.06,0,.08-.05.08-.13q0-.42,0-.87c0-.09,0-.1-.09-.08h0l-.24.08-.53.19m0,0h0" fill="#fff"/>
              <path d="M34.13,34.86h0l-.77.29h0a.08.08,0,0,0-.05.06h0s0,.08,0,.11v.84s0,.1.05.07h0l.16-.06.16,0,.15-.06.34-.14c0-.33,0-.66,0-1v0h0v0h0"/>
              <path d="M41.18,22.62l-.89.32c0,.25,0,.49,0,.74a1.13,1.13,0,0,0,0,.32v-.9a.21.21,0,0,1,0-.13h0l0,0,.15-.05.39-.14.12,0-.12,0,.14,0-.71.26h0v1l.76-.26h0c.07,0,.08-.06.08-.15,0-.32,0-.64,0-1m-.89.32h0m.89-.33h0" fill="#fff"/>
              <path d="M31.46,31.55h0a.25.25,0,0,1-.12.07l-.07,0-.08,0-.16.06-.14.05h0a.15.15,0,0,0-.1.16c0,.25,0,.49,0,.74,0,.06,0,.1.08.07h0l.21-.09.26-.09h0a.15.15,0,0,0,.1-.15,6.19,6.19,0,0,1,0-.85v0"/>
              <path d="M30.83,32.81h0l.58-.21v0l-.57.2m.67-1.29h0v0a6.19,6.19,0,0,0,0,.85.15.15,0,0,1-.1.15h0l-.26.09-.21.09h0c-.07,0-.08,0-.08-.07,0-.25,0-.49,0-.74a.15.15,0,0,1,.1-.16h0l.14-.05.16-.06.08,0,.07,0a.25.25,0,0,0,.12-.07l-.69.25h0c-.07,0-.08.06-.08.14v1l.87-.32v-.91s0-.08,0-.14,0,0,0,0"/>
              <path d="M40.3,20.81a.17.17,0,0,0,0,.12v1.84s0,.08,0,.1c0-.6,0-1.19,0-1.79a2.44,2.44,0,0,0,0-.27" fill="#fff"/>
              <path d="M40.33,23h0a.21.21,0,0,0,0,.13V24h0V23h0" fill="#fff"/>
              <path d="M40.29,22.94h0m-.72.24a.05.05,0,0,0,0,0l.38-.13.39-.15v0l-.67.25,0,0" fill="#fff"/>
              <path d="M31.53,31.54c0,.06,0,.11,0,.14v-.14"/>
              <path d="M37.68,27.26v0m6.1-2.35h0a.13.13,0,0,1-.06,0l-.06,0L38,27.05l-.13.06h-.09c-.06,0-.06.08-.06.16,0,.25,0,.51,0,.76,0,0,0,.09,0,.13s0,0,.06,0l.06,0,2.49-.9,2.49-.91c.09,0,.13,0,.12.1s0,.53,0,.8c0,.11,0,.12.11.1h0l.32-.11.12-.05.22-.08h0c.08,0,.1,0,.1.1l0,5.21v0h0l.87-.31V32l0-6.32-.87.31h0s0,0,0,0,0,0,0,0c0-.26,0-.51,0-.76v0a1.15,1.15,0,0,1,0-.19c0,.28,0,.57,0,.85,0,0,0,.1,0,.11h0c0-.35,0-.71,0-1.07" fill="#03a8f4"/>
              <path d="M43.74,32.44l-.16.06L42.29,33l-1.93.7c-.09,0-.12.07-.12.19,0,.27,0,.54,0,.81s0,.79,0,1.19h.06l.06,0,3.23-1.18.15,0h0v-1s0-.07.05-.09h0l.19-.06.13-.05.19-.08.31-.1h0c0-.36,0-.73,0-1.09l-.87.31h0" fill="#fefefe"/>
              <path d="M29.79,33.22h0l-.86.32h0v3.23h0a.05.05,0,0,1,0,0h0l.71-.25h0s0,0,.05,0,0,.07,0,.11v1h0v-.93h0v.92h0l.83-.3h0V36.14s0,0,.06,0l.69-.25s0,0,0,0h0l.05,0v-.07h0s0-.08,0-.13c0-.95,0-1.9,0-2.85,0-.1,0-.14-.1-.11h0l-.27.1-.14,0-.22.08h0s0,0,0,.08v.95a.16.16,0,0,1,0,.07.1.1,0,0,1,0,0h0l-.78.29s0,0,0,0V33.23h0" fill="#03a8f4"/>
              <path d="M42.87,29.54l-.12,0-1.53.56h0s0,0,0,.1c0,.33,0,.66,0,1l.46-.16.33-.13c.07,0,.09,0,.08.07v1l.82-.29h0a.05.05,0,0,0,0,0c0-.67,0-1.33,0-2,0-.05,0-.1,0-.13" fill="#fefefe"/>
              <path d="M37.53,35.79l-1.22.44-1.22.45c-.08,0-.09.06-.09.15,0,.31,0,.62,0,.94h0l2.61-.94v0c0-.32,0-.63,0-1,0-.09,0-.1-.09-.07" fill="#fefefe"/>
              <path d="M31.56,36.89a.13.13,0,0,0-.06,0,.22.22,0,0,1,0,.14V38h0L33,37.43l.11,0,0,0h0l.07,0v-1h0v0h0l-1.66.6h0"/>
              <path d="M37.65,28.21h0l0,.05h-.05L36,28.83l0,0s0,0,0,0h0c0,.36,0,.71,0,1.07h0l.47-.17,1.18-.42c.08,0,.09-.07.09-.16v-1" fill="#03a8f4"/>
              <path d="M41.92,31l-.33.13-.46.16c0,.34,0,.67,0,1,0,.06,0,.07.07,0L42,32V31c0-.07,0-.09-.08-.07" fill="#000001"/>
              <path d="M35.91,29.92h0l-.86.32h0v0s0,.08,0,.12v.93l.38-.14.38-.14c.07,0,.09-.05.09-.13,0-.33,0-.65,0-1h0" fill="#03a8f4"/>
              <path d="M31.46,36.94a.1.1,0,0,1-.05,0h0l-.73.27c0,.33,0,.67,0,1v0a0,0,0,0,0,.06,0l.09,0,.4-.13A1.82,1.82,0,0,0,31.5,38v0s0,0,0-.07v-.71a.13.13,0,0,1,0-.08.22.22,0,0,0,0-.14h0" fill="#03a8f4"/>
              <path d="M29.8,37.51v.83s0,.09,0,.13,0,.13,0,.11h0a.05.05,0,0,1,.05,0h0l.7-.26c0-.33,0-.67,0-1v0h0l-.83.3h0" fill="#2195f2"/>
              <path d="M37.59,35.75,35,36.7v.94a.18.18,0,0,1,0,.12L30.7,39.31h0v0L35,37.77c0-.32,0-.63,0-.94,0-.09,0-.13.09-.15l1.22-.45,1.22-.44c.07,0,.09,0,.09.07,0,.32,0,.63,0,1h0V35.76s0,0,0,0" fill="#239dfd"/>
              <path d="M40.72,26,37.8,27.09l-.12,0h0v1s0-.09,0-.13c0-.25,0-.51,0-.76,0-.08,0-.14.06-.16h.09l.13-.06L43.64,25l.06,0a.13.13,0,0,0,.06,0l-.11,0L40.72,26" fill="#06b0fc"/>
              <path d="M40.33,33.65a.18.18,0,0,0-.12.2c0,.23,0,.47,0,.71,0,0,0,.09,0,.11,0-.27,0-.54,0-.81,0-.12,0-.15.12-.19l1.93-.7,1.29-.47.16-.06h0v0L42,33l-1.7.62h0" fill="#138ded"/>
              <path d="M37.55,35.74l0,0-1.22.44-1.22.44h0L35,36.7l2.61-1s0,0,0,0" fill="#138eee"/>
              <path d="M35.05,31.31h0c0,.52,0,1,0,1.56s0,1.09,0,1.64c0-.05,0-.09,0-.13l0-3.08" fill="#249bfa"/>
              <path d="M39.36,35.15l0,0c0,.29,0,.58,0,.87,0,0,0,.09,0,.13l-.71.25,0,0s0,0,0,0l.79-.28a.09.09,0,0,0,.07-.1v-1" fill="#239efd"/>
              <path d="M42.89,29.52l0,0s0,.08,0,.13c0,.66,0,1.32,0,2,0-.06,0-.1,0-.15,0-.62,0-1.25,0-1.87a.41.41,0,0,0,0-.11s0,0,0,0" fill="#1a91f0"/>
              <path d="M33,37.43,31.54,38v0l1.57-.57v0l-.11,0" fill="#229dfe"/>
              <path d="M33.11,37.43,31.54,38s0,0,.05,0l0,0,1.38-.5,0,0a.07.07,0,0,0,.06,0" fill="#2391ea"/>
              <path d="M41.11,31.3h0v1.06h0V31.3" fill="#249efe"/>
              <path d="M42.85,31.72,42,32v0l.87-.31v0" fill="#1290f3"/>
              <path d="M37.64,35.76v1.05h0v-1" fill="#1691f3"/>
              <path d="M35,34.58l-.83.3v0h0l.82-.3v0" fill="#239ffe"/>
              <path d="M35,36.72a.21.21,0,0,0,0,.13v.91a.18.18,0,0,0,0-.12v-.92" fill="#168df0"/>
              <path d="M30.64,37.23v0l.73-.27h0a.1.1,0,0,0,.05,0h0l-.82.3h0" fill="#02b4fe"/>
              <path d="M42,32l-.81.3v0l.81-.3v0" fill="#239efe"/>
              <path d="M34.08,36l-.81.29v0h0l.81-.3v0" fill="#229ffd"/>
              <path d="M34.14,34.93c0,.34,0,.67,0,1h0a.62.62,0,0,0,0-.13.57.57,0,0,0,0,.13V35l0,0" fill="#239ffe"/>
              <path d="M33.26,36.32v1a.18.18,0,0,0,0-.1V36.4s0-.06,0-.08" fill="#229ffd"/>
              <path d="M39.34,35.18a.23.23,0,0,0,0,.14c0,.24,0,.47,0,.71a.38.38,0,0,1,0,.15c.05,0,0-.09,0-.13,0-.29,0-.58,0-.87" fill="#2091e9"/>
              <path d="M29.89,38.53a.05.05,0,0,0-.05,0l.79-.29v0l-.7.26h0" fill="#249ffe"/>
              <path d="M34.16,35v1a.57.57,0,0,1,0-.13,4.8,4.8,0,0,0,0-.85" fill="#2091e9"/>
              <path d="M41.12,30.31h0v.89h0v-.89" fill="#128def"/>
              <path d="M30.66,38.37h0v.9h0v-.9" fill="#1f9cfe"/>
              <path d="M29.78,37.52h0v.95s0-.08,0-.13v-.83h0" fill="#1c99fd"/>
              <path d="M40.19,34.79l-.71.26h0l.7-.26h0" fill="#259ffe"/>
              <path d="M37.64,36.91h0v.87h0v-.87" fill="#219afd"/>
              <path d="M35,30.26v1.06h0v-.93s0-.09,0-.12" fill="#05aefc"/>
              <path d="M31.53,32.59l-.87.32h0c0,.33,0,.66,0,1,0,.05,0,.09,0,.11h0l-.81.29v0l.87-.31a.16.16,0,0,0,0-.07l0,0c0-.29,0-.58,0-.87v0c0-.05,0-.07,0-.08h0l.22-.08.14,0,.27-.1h0c.08,0,.1,0,.1.11,0,.95,0,1.9,0,2.85,0,.05,0,.1,0,.13,0-1,0-2,0-3,0,0,0-.09,0-.15v0" fill="#02a6ea"/>
              <path d="M31.53,32.61c0,.06,0,.1,0,.15,0,1,0,2,0,3h0c0-.32,0-.65,0-1,0-.72,0-1.44,0-2.16" fill="#05b1fd"/>
              <path d="M39.46,22.25h0v.89h0v-.9" fill="#fff"/>
              <path d="M37.27,28.35l-1.34.49s0,0,0,0l0,0,1.52-.55h.05l0-.05-.37.13" fill="#04adfb"/>
              <path d="M29.7,36.45h0l-.71.25h0a.05.05,0,0,0,0,0l.83-.3s0,0-.05,0" fill="#06b1fd"/>
              <path d="M37.83,26.18s0,.06,0,.12,0,.35,0,.54,0,.13.11.1h0l1.42-.52,1.42-.52,1.42-.51,1.42-.52a.15.15,0,0,0,.11-.18c0-.16,0-.32,0-.48s0-.14-.12-.11h0l-2.79,1-2.8,1-.06,0h-.08"/>
              <path d="M43.66,24.87,37.82,27v0l5.84-2.13h0"/>
              <path d="M43.62,24l-5.79,2.11h0L43.62,24h0"/>
              <path d="M30.7,36.09s-.05,0-.06,0l.79-.29s0,0,0,0l-.69.25" fill="#06b1fd"/>
              <path d="M40.51,22.89l-.15.05,0,0h0l.71-.26-.14,0h0l-.39.14" fill="#fff"/>
              <path d="M31.41,32.59l-.58.21h0l.57-.2v0"/>
              <path d="M43.77,26h0m0-1a1.15,1.15,0,0,0,0,.19h0c0,.25,0,.5,0,.76,0,0,0,0,0,0s0,0,0,0,0-.07,0-.11c0-.28,0-.57,0-.85" fill="#03acfe"/>
              <path d="M30.65,34l-.87.31s0,0,0,0l.78-.29h0a.1.1,0,0,0,0,0" fill="#00affe"/>
              <path d="M29.81,36.59h0v.93h0v-.92" fill="#03acfe"/>
              <path d="M30.69,33v0c0,.29,0,.58,0,.87l0,0V33" fill="#02adfe"/>
              <path d="M31.5,37.08a.13.13,0,0,0,0,.08v.71s0,.06,0,.07v-.86" fill="#05b1fd"/>
            </g>
          </g>
        </g>
      </g>
    </g>
  </g>
</svg>
