<svg id="Capa_1" data-name="Capa 1" xmlns="http://www.w3.org/2000/svg" xmlns:xlink="http://www.w3.org/1999/xlink" width="50" height="50" viewBox="0 0 50 50">
  <defs>
    <clipPath id="clip-path">
      <polygon points="24.05 49.76 1.26 39.47 1.42 9.17 24.2 19.46 24.05 49.76" fill="none"/>
    </clipPath>
    <clipPath id="clip-path-2">
      <polygon points="24.2 19.46 1.42 9.17 25.96 0.24 48.75 10.53 24.2 19.46" fill="none"/>
    </clipPath>
    <clipPath id="clip-path-3">
      <polygon points="48.75 10.53 48.59 40.83 24.05 49.76 24.2 19.46 48.75 10.53" fill="none"/>
    </clipPath>
  </defs>
  <g id="Figment_lido">
    <g style="isolation: isolate">
      <g>
        <polygon points="24.05 49.76 1.26 39.47 1.42 9.17 24.2 19.46 24.05 49.76" fill="#173385"/>
        <g style="isolation: isolate">
          <g clip-path="url(#clip-path)">
            <g>
              <path d="M8.68,34.74v0h0M8.1,19v0h0m3.36,17.58c-.14-.07-.12-.26-.16-.4s0-.28.1-.24h0c.17.08.2.31.27.49s-.09.16-.17.15h0m3.65,1.23a1.94,1.94,0,0,0-.29-.54c.22.14.45.23.34.42a.31.31,0,0,0-.05.12M11.79,18.64a1.4,1.4,0,0,0-.29-.09,3,3,0,0,1-.84-.18l-.22-.13a.7.7,0,0,0-.16-.1.74.74,0,0,0-.53,0,.69.69,0,0,1-.51,0A.53.53,0,0,1,9.07,18h0s-.14.1-.17.19-.09.18-.2.13l-.08,0-.17-.1C8,18,8,18.41,8.11,19a1.6,1.6,0,0,0,.38.33.13.13,0,0,0,.18,0c.24-.38.67-.26,1-.12l.19.09.16.08a4.3,4.3,0,0,0,.57.2,4.39,4.39,0,0,1,.61.21,2.43,2.43,0,0,1,.86.67,1.87,1.87,0,0,0-.44-.34.29.29,0,0,0-.24,0c-.41.17-.91-.11-1.35-.16s-.8.19-1.26.08a1.47,1.47,0,0,0-.94.35c-.43.31-.85.66-1.26,1-.25.24-.34.78-.7.92v.28c.14.39.11.5-.19.39s-.31.14-.25.47a.61.61,0,0,0,.32.47l.07,0c.24.06.33-.14.26-.44S6,23,6.23,23.1h0c.09,0,.26-.06.26-.13,0-.71.68-.38.64-1.07,0-.05.11-.09.18-.08.51.11.81-.37,1.26-.43.05,0,.09-.1.15-.07a.14.14,0,0,1,.06.07c.09.16,0,.32,0,.32-.43,0-.63.41-.92.66a13.52,13.52,0,0,0-.95,1.35c-.24.37-.31,1-.55,1.25s.06,1.42-.43,1.64l0,.22c.16.32.09.46-.06.6s-.13.42,0,.69a.67.67,0,0,0,.27.3.31.31,0,0,0,.19,0c.2-.05.24-.27.2-.55s-.2-.33-.08-.5A4.33,4.33,0,0,0,7,25.6c0-.15.07-.21.16-.17l.06,0c.12.09.15.3.1.35C7,26,7.18,26.59,7.13,27A5.45,5.45,0,0,0,7.2,29.6c0,.08-.06.16-.08.25a.88.88,0,0,0,.14.8c.15.21.19.33.1.52a.66.66,0,0,0,.08.67c.39.49.06,1.39.75,1.7v.14c-.22.58.14.82.49,1.06,0-.31.31-.59,0-1a.63.63,0,0,1-.18-.65.73.73,0,0,0-.22-.65c-.29-.23-.14-.38-.08-.54s0-.23.08-.19,0,0,.07.06.31.25.27.53a1,1,0,0,0,.39,1,.51.51,0,0,1,.16.42,1,1,0,0,0,.41.81c.1.09.21.12.23.35.08.81.88,1,1,1.75a.17.17,0,0,0,.09.06l.18.07a.61.61,0,0,1,.13,0s.07.06.09.16c.08.37.19.52.32.58s.37,0,.55,0c0,.38,0,.79.3.9a.31.31,0,0,0,.19,0,.45.45,0,0,1,.24,0c.11.05.17.17.26.41a.44.44,0,0,0,.21.27.23.23,0,0,0,.23,0c.15-.1.19-.32.06-.59a.55.55,0,0,0-.25-.3.19.19,0,0,0-.19,0,1.52,1.52,0,0,0-.29.2c0-.43-.08-.84-.37-1l-.15,0c-.07,0-.15,0-.21,0s-.1-.09-.1-.26-.22-.41,0-.45a.36.36,0,0,1,.27,0,.4.4,0,0,1,.19.21.94.94,0,0,0,.49.51l.26.1.27.09a1,1,0,0,1,.4.32A.1.1,0,0,0,14,38l.13,0,.18,0a.65.65,0,0,1,.31.34.14.14,0,0,0,.07.08.18.18,0,0,0,.18,0,.73.73,0,0,0,.3-.43c0,.15.16.28.21.43a1.2,1.2,0,0,0,.21.13.28.28,0,0,0,.35-.06c.28-.29,1,.56,1-.32l.15.17a.9.9,0,0,0,.23.18c.12,0,.22,0,.29-.15a.85.85,0,0,0-.18-.72.57.57,0,0,0-.17-.15.24.24,0,0,0-.34.18c-.05.17-.1.2-.15.18s-.16-.2-.24-.27a.31.31,0,0,0-.45.17c0,.09-.07.11-.1.09s-.14-.19-.2-.24a.34.34,0,0,1-.14-.34c0-.1.08-.13.15-.1a.47.47,0,0,1,.12.09.53.53,0,0,0,.14.1c.18.08.31,0,.46-.1l.05-.17.12.07c.53.23.67-.65,1.18-.47.06,0,.15-.16.17-.29s.07-.32.26-.27.39-.22.4-.59l0-.14.13,0a.47.47,0,0,0,.45-.26c0-.42-.13-.73-.41-.86l-.15,0-.09,0a.24.24,0,0,1-.13-.2.26.26,0,0,1,.1-.27c.36-.39.33-1.17.53-1.73,0-.17-.2-.39-.07-.5.46-.38-.12-1.39.19-1.85-.39-.54-.12-.86-.08-1.27s-.49-.49-.36-.79c.26-.65-.13-.93-.53-1.24a.82.82,0,0,1,.11-.17c.2-.14.24-.37,0-.68a.52.52,0,0,0-.21-.19.19.19,0,0,0-.24,0,.57.57,0,0,0,.06.75c.23.25.15.38.19.64a14.88,14.88,0,0,1,.24,1.85l.12.21c.06.1.08.17,0,.23-.39.34,0,1.16-.15,1.71s-.16,1.11-.3,1.5a3.56,3.56,0,0,1-1.14,1.81,2.26,2.26,0,0,1-1.85.65,3.53,3.53,0,0,0-1.14-.26.89.89,0,0,1-.5-.09,3,3,0,0,1-.6-.4,7.76,7.76,0,0,1-1.8-2A8.92,8.92,0,0,1,10,29.45a6.6,6.6,0,0,1,0-2.62,2.32,2.32,0,0,1,1.68-2.08,2.44,2.44,0,0,1,1.58.17,4.81,4.81,0,0,1,1.81,1.61A6.57,6.57,0,0,1,16.4,30c0,.23-.13.52.12.71l0,0c.16.07.26-.18.35-.32.72-1.15.75-2.64.3-4.49a12.36,12.36,0,0,0-2-4.27c-.39-.55-.93-.79-1.19-1.53-.3-.23-.67-.2-.89-.75a.68.68,0,0,1-.31-.08,2.42,2.42,0,0,1-.5-.31,3.17,3.17,0,0,0-.52-.32" fill="#f3f5fb" opacity="0.8"/>
              <path d="M8.1,19h0v0m-.49-.54c-.14-.06-.21.12-.29.55,0,.17-.07.2-.12.18S7.07,19,7,19l0,0c-.19-.09-.32,0-.33.28a.62.62,0,0,0,.25.53l.06,0c.17.08.26,0,.31-.23s-.06-.33.07-.41a1,1,0,0,0,.33.31c.23.1.36-.13.45-.48a1.86,1.86,0,0,0-.49-.55" fill="#f3f5fb" opacity="0.8"/>
              <path d="M6.27,29.93c-.2-.09-.34,0-.33.32a.57.57,0,0,0,.32.56l0,0c.2.06.29-.06.3-.32a.66.66,0,0,0-.32-.57h0" fill="#f3f5fb" opacity="0.8"/>
              <path d="M6.19,28.62h0c-.24-.08-.37.07-.34.41a.64.64,0,0,0,.33.58l0,0c.21.07.32-.08.33-.41a.79.79,0,0,0-.35-.59" fill="#f3f5fb" opacity="0.8"/>
              <path d="M8.68,34.75h0m.22.07a.79.79,0,0,0-.22-.06A1.08,1.08,0,0,0,9.32,36h0v-.17s0,0,0,0,.05.07.07.1a1.18,1.18,0,0,0-.54-1.07" fill="#f3f5fb" opacity="0.8"/>
              <path d="M9.34,36h0v0m.1-.1h0" fill="#f3f5fb" opacity="0.8"/>
              <path d="M14.28,38.92l-.06,0c-.19,0-.32.06-.26.35s.07.51.25.58l0,0c.2,0,.27-.18.32-.4a.71.71,0,0,0-.29-.53" fill="#f3f5fb" opacity="0.8"/>
              <path d="M17.7,24.19c-.19-.05-.31,0-.31.3a.61.61,0,0,0,.32.61h0c.23.08.34-.06.32-.36a.67.67,0,0,0-.34-.56" fill="#f3f5fb" opacity="0.8"/>
              <path d="M9.46,35.9h0a.33.33,0,0,0,0,.06.35.35,0,0,1,0-.06" fill="#f3f5fb" opacity="0.8"/>
              <path d="M9.34,36v0h0v0m.13,0c0,.1,0,.11-.07.09l-.06,0a2.26,2.26,0,0,1,0,.26.62.62,0,0,0,.29.64l0,0c.17.08.29,0,.3-.25a.61.61,0,0,0-.34-.61l-.07,0A.16.16,0,0,1,9.47,36" fill="#f3f5fb" opacity="0.8"/>
              <path d="M15.06,39.3h0c-.08.09-.15.19-.23.27v.11l0,.17L15,40l.13.08a.29.29,0,0,0,.38-.12.74.74,0,0,0-.41-.68" fill="#f3f5fb" opacity="0.8"/>
              <path d="M5.38,24c-.2-.09-.3,0-.31.28a.6.6,0,0,0,.27.53l0,0c.17.07.29,0,.31-.25A.58.58,0,0,0,5.39,24h0" fill="#f3f5fb" opacity="0.8"/>
              <path d="M6.48,31.24c-.2,0-.29.08-.28.35a.52.52,0,0,0,.29.47h0c.17.06.28,0,.28-.27a.62.62,0,0,0-.3-.56" fill="#f3f5fb" opacity="0.8"/>
              <path d="M17.16,23c-.17-.05-.28,0-.28.31a.53.53,0,0,0,.3.5c.17.08.29,0,.29-.22a.56.56,0,0,0-.31-.59" fill="#f3f5fb" opacity="0.8"/>
              <path d="M10.34,37.21c-.17-.08-.26,0-.27.24a.57.57,0,0,0,.27.53h0c.17,0,.25-.07.27-.28a.59.59,0,0,0-.3-.5h0" fill="#f3f5fb" opacity="0.8"/>
              <path d="M5.12,25.09h0c-.18-.07-.24.07-.27.27a.6.6,0,0,0,.27.47l.05,0c.17,0,.24-.1.22-.34a.46.46,0,0,0-.25-.41" fill="#f3f5fb" opacity="0.8"/>
              <path d="M6.26,19.55c-.15-.07-.24,0-.25.22a.48.48,0,0,0,.26.5h0c.15.06.23,0,.25-.23a.54.54,0,0,0-.26-.5h0" fill="#f3f5fb" opacity="0.8"/>
              <path d="M16.54,21.87c-.15-.06-.24,0-.26.24a.55.55,0,0,0,.26.51c.16.07.28,0,.29-.21a.57.57,0,0,0-.25-.52l0,0" fill="#f3f5fb" opacity="0.8"/>
              <path d="M11.12,38.22c-.13,0-.22,0-.24.19a.5.5,0,0,0,.24.52h0c.14.06.22,0,.25-.21a.56.56,0,0,0-.22-.49l0,0" fill="#f3f5fb" opacity="0.8"/>
              <path d="M16,39.64c-.15-.07-.23.07-.2.46a1,1,0,0,0,.29.29c.16.07.21-.13.2-.5a1,1,0,0,0-.29-.25" fill="#f3f5fb" opacity="0.8"/>
              <path d="M15.85,20.85c-.15-.06-.24,0-.24.23a.46.46,0,0,0,.24.44h0c.13.06.22,0,.24-.19a.5.5,0,0,0-.22-.47l0,0" fill="#f3f5fb" opacity="0.8"/>
              <path d="M5,26.27H5c-.12,0-.2,0-.2.2a.45.45,0,0,0,.24.46c.12,0,.23,0,.22-.23A.45.45,0,0,0,5,26.27" fill="#f3f5fb" opacity="0.8"/>
              <path d="M6.83,32.59c-.13,0-.24,0-.27.18a.51.51,0,0,0,.23.53l0,0c.13.05.21,0,.24-.18a.6.6,0,0,0-.24-.56" fill="#f3f5fb" opacity="0.8"/>
              <path d="M12,39.13h-.05c-.13,0-.21,0-.2.2a.45.45,0,0,0,.23.42h0c.14,0,.22,0,.22-.24a.43.43,0,0,0-.21-.38" fill="#f3f5fb" opacity="0.8"/>
              <path d="M16.89,39.79c-.13-.06-.2.09-.24.27a.78.78,0,0,0,.32.38l.07,0a.36.36,0,0,0,0-.55.29.29,0,0,0-.14-.12" fill="#f3f5fb" opacity="0.8"/>
              <path d="M7.26,33.92h0c-.12,0-.21,0-.2.2a.47.47,0,0,0,.23.44c.15.06.23,0,.23-.27a.48.48,0,0,0-.22-.36" fill="#f3f5fb" opacity="0.8"/>
              <path d="M15.1,19.91l0,0c-.13,0-.2.05-.2.22a.45.45,0,0,0,.2.4h0c.14.07.22,0,.25-.19a.49.49,0,0,0-.24-.42" fill="#f3f5fb" opacity="0.8"/>
              <path d="M19.72,26.79s-.11,0-.18.08,0,.41.17.59c.16,0,.24-.12.28-.31s-.17-.32-.27-.36" fill="#f3f5fb" opacity="0.8"/>
              <path d="M5.65,20.27c-.1,0-.18,0-.19.15a.4.4,0,0,0,.21.44h0c.11.06.19,0,.21-.17a.44.44,0,0,0-.2-.4l0,0" fill="#f3f5fb" opacity="0.8"/>
              <path d="M19.66,32.62a1.15,1.15,0,0,0-.41,0,1.09,1.09,0,0,0,.43,1.07c.22-.07.42-.2.26-.66a.61.61,0,0,0-.28-.37" fill="#f3f5fb" opacity="0.8"/>
              <path d="M19.87,31.58h0c-.2-.08-.32,0-.33.29a.7.7,0,0,0,.35.63c.2,0,.31,0,.32-.31a.63.63,0,0,0-.33-.61" fill="#f3f5fb" opacity="0.8"/>
              <path d="M19.24,33.51c-.1,0-.2,0-.29.12-.21.31,0,.67.28.95.34.11.44-.13.4-.57a1.19,1.19,0,0,0-.39-.5" fill="#f3f5fb" opacity="0.8"/>
              <path d="M18.41,37.64h0m-.36-.24c-.15-.07-.26,0-.3.23a.59.59,0,0,0,.3.65h0c.23.11.37,0,.35-.37v-.27l-.19-.13a.53.53,0,0,0-.17-.12" fill="#f3f5fb" opacity="0.8"/>
              <path d="M20,30.46c-.18-.08-.29,0-.3.27a.64.64,0,0,0,.3.58c.19.05.31,0,.3-.32a.59.59,0,0,0-.27-.52h0" fill="#f3f5fb" opacity="0.8"/>
              <path d="M20,29.28c-.17-.08-.28,0-.29.25A.56.56,0,0,0,20,30c.16.06.27,0,.27-.25a.54.54,0,0,0-.27-.51" fill="#f3f5fb" opacity="0.8"/>
              <path d="M18.51,37.58s-.06,0-.1.06h0c.08,0,.11,0,.11,0l0,0m.27-.53c-.15-.07-.23,0-.29.22s.06.24,0,.33.12.2.19.24h0c.17.08.31.07.35-.17a.59.59,0,0,0-.24-.59l-.08,0" fill="#f3f5fb" opacity="0.8"/>
              <path d="M19.45,36.54c-.16-.07-.27,0-.28.22a.59.59,0,0,0,.26.53h0c.16.07.24,0,.28-.24a.56.56,0,0,0-.27-.51h0" fill="#f3f5fb" opacity="0.8"/>
              <path d="M20,35.86c-.15,0-.24,0-.25.22a.46.46,0,0,0,.25.46h0c.15.05.22-.06.21-.26a.47.47,0,0,0-.25-.43" fill="#f3f5fb" opacity="0.8"/>
              <path d="M20,28.08a.86.86,0,0,0-.23,0h0c-.05.25-.11.52.21.71h0c.14.06.23,0,.22-.24s-.11-.39-.22-.44" fill="#f3f5fb" opacity="0.8"/>
              <path d="M20.47,35c-.11,0-.22,0-.22.19a.44.44,0,0,0,.23.44h0c.12.06.2,0,.21-.16a.44.44,0,0,0-.23-.47" fill="#f3f5fb" opacity="0.8"/>
            </g>
          </g>
        </g>
      </g>
      <g>
        <polygon points="24.2 19.46 1.42 9.17 25.96 0.24 48.75 10.53 24.2 19.46" fill="#193892"/>
        <g style="isolation: isolate">
          <g clip-path="url(#clip-path-2)">
            <g>
              <path d="M25.86,13.82h0M13.79,8.94h0m15.56,4c-.16.06-.29,0-.42-.05s-.23-.07-.1-.12h0a1.26,1.26,0,0,1,.58,0c.17,0,0,.1,0,.14l0,0m3.71-1.6a3.49,3.49,0,0,0-.61,0c.27-.07.51-.17.56,0s0,.06.05.07M16.36,6.8a1.82,1.82,0,0,0-.28.13,4.84,4.84,0,0,1-.79.4,1.12,1.12,0,0,1-.26.08l-.19.06a1,1,0,0,0-.42.29.86.86,0,0,1-.37.28l-.23.06h0s0,.11,0,.16.07.11-.05.15l-.1,0-.2.06c-.45.16-.2.31.33.44a2.5,2.5,0,0,0,.53-.1c.08,0,.13-.06.11-.11-.1-.26.32-.46.65-.58l.22-.07L15.49,8l.59-.25c.2-.09.4-.18.62-.26a3.92,3.92,0,0,1,1.16-.25,3.07,3.07,0,0,0-.59.12.37.37,0,0,0-.2.13c-.2.28-.78.47-1.16.69s-.47.5-.9.71a1.05,1.05,0,0,0-.47.63,5.41,5.41,0,0,0-.22,1c0,.22.31.45.14.69l.2.1c.39.05.45.1.14.23s-.13.22.15.29a.94.94,0,0,0,.6,0l.07,0c.22-.11.15-.22-.12-.29s-.4-.11-.12-.21h0c.1,0,.16-.17.1-.19-.55-.21.25-.5-.29-.71,0,0,0-.09.08-.12.47-.24.35-.56.64-.83,0,0,0-.08.07-.11h.11c.18,0,.25.09.2.13-.35.23-.18.48-.22.72a5,5,0,0,0,.27,1c.09.25.49.49.5.71s1.1.43.87.78l.2.05c.36,0,.41.1.4.23s.21.2.52.22a1.24,1.24,0,0,0,.42-.05.4.4,0,0,0,.16-.1c.11-.13,0-.22-.26-.29s-.39,0-.43-.12a1.94,1.94,0,0,0-.91-.88q-.15-.09,0-.15l.07,0c.16,0,.35,0,.34.06-.09.25.45.34.71.51a4.82,4.82,0,0,0,2,.82c.06,0,.07.08.12.12a.87.87,0,0,0,.7.19c.27,0,.39,0,.46.12a.64.64,0,0,0,.55.17c.67,0,1.08.43,1.84.15l.1,0c.26.32.71.2,1.16.09-.2-.13-.2-.37-.76-.31-.36,0-.46,0-.61-.11a.94.94,0,0,0-.65-.09c-.4.08-.4-.05-.46-.14s-.16-.08-.09-.11h.11a1,1,0,0,1,.6,0,1.4,1.4,0,0,0,1,.11.63.63,0,0,1,.42.05,1.51,1.51,0,0,0,.92,0,.69.69,0,0,1,.43,0c.66.23,1.38-.17,2.07,0,0,0,.06,0,.11,0l.19-.08.12-.06a.39.39,0,0,1,.19,0,1.17,1.17,0,0,0,.67,0,3.46,3.46,0,0,0,.45-.29,1.31,1.31,0,0,0,.9.13.39.39,0,0,0,.16-.1l.2-.12a1.23,1.23,0,0,1,.52,0,.82.82,0,0,0,.36,0,.27.27,0,0,0,.16-.13c0-.12-.09-.21-.38-.23a1,1,0,0,0-.42,0,.2.2,0,0,0-.14.11.71.71,0,0,0-.07.22,1.48,1.48,0,0,0-1-.11.51.51,0,0,0-.15.07c-.06,0-.09.09-.16.11s-.14,0-.27,0-.47,0-.36-.13a.38.38,0,0,1,.19-.15.64.64,0,0,1,.3,0,1.7,1.7,0,0,0,.76-.11l.27-.11.27-.12a2,2,0,0,1,.55-.11l.07,0a.38.38,0,0,0,.13-.06l.18-.08a1.3,1.3,0,0,1,.49-.06.16.16,0,0,0,.1,0,.17.17,0,0,0,.12-.11.28.28,0,0,0-.09-.31c.15,0,.33,0,.48,0l.26-.08c.13-.05.23-.11.22-.21s1.15-.33.56-.67l.23,0a1.73,1.73,0,0,0,.32-.07c.13,0,.19-.12.11-.21A1,1,0,0,0,34.8,10a.79.79,0,0,0-.25.05c-.17.06-.21.16-.13.24s.08.12,0,.14-.27,0-.38,0-.31.19-.22.31,0,.07,0,.09a3.25,3.25,0,0,1-.33,0,.45.45,0,0,1-.35,0c-.06,0,0-.09,0-.12l.16,0,.18-.05c.19-.07.21-.18.28-.28l-.09-.09.14,0c.58-.21,0-.58.57-.8.06,0,0-.14-.09-.19s-.19-.14,0-.23.14-.29-.13-.42l-.13,0,.13-.06c.17-.1.2-.22.16-.33a1.34,1.34,0,0,0-1-.06l-.14.07-.09,0a.42.42,0,0,1-.25,0c-.13,0-.12-.08-.12-.14,0-.33-.61-.57-.87-.86-.16,0-.44,0-.42-.13.07-.37-1.13-.39-1.22-.71-.7,0-.73-.22-1-.38s-.74.11-.86-.06c-.29-.36-.79-.24-1.33-.12,0,0-.05-.09,0-.12s-.09-.24-.49-.22a.87.87,0,0,0-.31,0c-.09,0-.15.09-.14.15s.27.25.6.21a1.1,1.1,0,0,1,.62.11,14,14,0,0,1,1.54.48h.25c.13,0,.19,0,.18.07,0,.33.84.39,1.15.65s.69.46.87.66a1.31,1.31,0,0,1,.46,1.23,1.68,1.68,0,0,1-.95,1.22,5.91,5.91,0,0,0-1.07.55,1.64,1.64,0,0,1-.44.24,4.13,4.13,0,0,1-.77.19,13.39,13.39,0,0,1-2.84.34,12.24,12.24,0,0,1-2.78-.29A5.13,5.13,0,0,1,21,10.49c-.76-.55-.72-1.12-.25-1.61a3.56,3.56,0,0,1,1.34-.81,9.39,9.39,0,0,1,2.59-.47,9.43,9.43,0,0,1,3.58.4c.18.07.28.25.61.18l.05,0c.18-.06.06-.2,0-.3-.29-.77-1.37-1.28-3.08-1.64a18.68,18.68,0,0,0-4.71-.31,9.81,9.81,0,0,1-2,.15,2.93,2.93,0,0,1-1.24.25,1.4,1.4,0,0,1-.3.14,4.45,4.45,0,0,1-.61.17c-.22.06-.44.11-.64.18" fill="#f3f5fb" opacity="0.8"/>
              <path d="M13.79,8.94h0M13,9c-.16.06-.08.16.18.35.1.07.09.1,0,.12s-.2,0-.28.05h-.06c-.21.08-.24.18-.05.27a.83.83,0,0,0,.59,0l.07,0c.18-.06.19-.15.07-.24s-.29-.08-.26-.18a1.58,1.58,0,0,0,.49-.08c.25-.09.17-.24,0-.4A3.84,3.84,0,0,0,13,9" fill="#f3f5fb" opacity="0.8"/>
              <path d="M20.46,13.56c-.23.08-.24.19,0,.28a.91.91,0,0,0,.67,0l0,0c.2-.08.18-.17,0-.27a1.1,1.1,0,0,0-.67,0h0" fill="#f3f5fb" opacity="0.8"/>
              <path d="M19.42,13.17h0c-.25.11-.24.23,0,.33a1.09,1.09,0,0,0,.69,0l0,0c.22-.1.19-.21,0-.32a1.23,1.23,0,0,0-.71,0" fill="#f3f5fb" opacity="0.8"/>
              <path d="M25.86,13.82h0m.23-.1-.22.1a1.59,1.59,0,0,0,1.4,0h0l-.13-.06s0,0,0,0h.13a1.82,1.82,0,0,0-1.21-.06" fill="#f3f5fb" opacity="0.8"/>
              <path d="M27.29,13.86h0v0m0-.08h0" fill="#f3f5fb" opacity="0.8"/>
              <path d="M33.25,12.12l0,0c-.19.09-.21.2,0,.26a1.12,1.12,0,0,0,.63.06l0,0c.19-.09.09-.21,0-.31a1.19,1.19,0,0,0-.62,0" fill="#f3f5fb" opacity="0.8"/>
              <path d="M25,5.39c-.18.08-.21.18,0,.26a.87.87,0,0,0,.69,0h0c.23-.1.21-.21,0-.3a1,1,0,0,0-.67,0" fill="#f3f5fb" opacity="0.8"/>
              <path d="M27.32,13.77h.05l-.05,0" fill="#f3f5fb" opacity="0.8"/>
              <path d="M27.29,13.86v0h0m.08-.07c.08,0,.07,0,0,.06l-.07,0,.19.09a.9.9,0,0,0,.71,0h0c.19-.07.19-.17,0-.25a.94.94,0,0,0-.72,0l-.06,0a.29.29,0,0,1-.14,0" fill="#f3f5fb" opacity="0.8"/>
              <path d="M34.13,11.81h0a1.66,1.66,0,0,1,0,.22l.08,0,.16,0h.21l.16,0c.17-.06.23-.14.21-.25a1.24,1.24,0,0,0-.83,0" fill="#f3f5fb" opacity="0.8"/>
              <path d="M15.38,12.08c-.23.09-.22.18,0,.26a.87.87,0,0,0,.6,0h0c.19-.07.23-.16.06-.25a.83.83,0,0,0-.64,0h0" fill="#f3f5fb" opacity="0.8"/>
              <path d="M21.58,13.87c-.18.1-.17.19.05.27a.83.83,0,0,0,.56,0h0c.17-.07.19-.16,0-.24a1,1,0,0,0-.65,0" fill="#f3f5fb" opacity="0.8"/>
              <path d="M23.73,5.29c-.18.08-.2.17,0,.26a.8.8,0,0,0,.59,0c.2-.07.24-.15.07-.24a.9.9,0,0,0-.67,0" fill="#f3f5fb" opacity="0.8"/>
              <path d="M29,13.72c-.19.07-.19.15,0,.23a.83.83,0,0,0,.6,0l0,0c.17-.07.14-.16,0-.24a1,1,0,0,0-.6,0h0" fill="#f3f5fb" opacity="0.8"/>
              <path d="M16,12.59h0c-.2.07-.13.16,0,.24a1,1,0,0,0,.54,0l.06,0c.17-.08.11-.16-.08-.23a.72.72,0,0,0-.5,0" fill="#f3f5fb" opacity="0.8"/>
              <path d="M12.78,10.14c-.16.06-.16.14,0,.21a.72.72,0,0,0,.58,0h0c.15-.06.15-.13,0-.22a.85.85,0,0,0-.57,0h0" fill="#f3f5fb" opacity="0.8"/>
              <path d="M22.41,5.26c-.16.06-.16.14,0,.22a.87.87,0,0,0,.58,0c.17-.07.24-.15.07-.23a.82.82,0,0,0-.58,0l0,0" fill="#f3f5fb" opacity="0.8"/>
              <path d="M30.31,13.62c-.14.05-.17.12,0,.19a.69.69,0,0,0,.57,0h0c.15,0,.14-.13,0-.2a.77.77,0,0,0-.52,0h-.05" fill="#f3f5fb" opacity="0.8"/>
              <path d="M35.11,11.41c-.17.06-.12.15.18.26a1.62,1.62,0,0,0,.44-.06c.18-.07.07-.16-.21-.28a2,2,0,0,0-.41.08" fill="#f3f5fb" opacity="0.8"/>
              <path d="M21.12,5.3c-.16.06-.18.14,0,.21a.69.69,0,0,0,.51,0h0c.15,0,.16-.12.05-.19a.72.72,0,0,0-.52,0l-.05,0" fill="#f3f5fb" opacity="0.8"/>
              <path d="M16.76,13.06h0c-.13,0-.12.12,0,.18a.64.64,0,0,0,.53,0c.11,0,.16-.12,0-.19a.66.66,0,0,0-.48,0" fill="#f3f5fb" opacity="0.8"/>
              <path d="M22.85,14.12c-.14.06-.19.13-.08.21a.73.73,0,0,0,.57.05l.06,0c.13,0,.13-.12,0-.18a.8.8,0,0,0-.59-.06" fill="#f3f5fb" opacity="0.8"/>
              <path d="M31.63,13.46l-.05,0c-.13.06-.14.13,0,.18a.64.64,0,0,0,.49,0h0c.15-.06.14-.13,0-.2a.67.67,0,0,0-.44,0" fill="#f3f5fb" opacity="0.8"/>
              <path d="M35.91,11c-.15,0-.09.14,0,.22a1.45,1.45,0,0,0,.53,0l.07,0c0-.11-.08-.22-.42-.18a.61.61,0,0,0-.19,0" fill="#f3f5fb" opacity="0.8"/>
              <path d="M24.17,14.32l-.05,0c-.12.06-.13.13,0,.18a.71.71,0,0,0,.5,0c.15-.06.14-.14,0-.22a.85.85,0,0,0-.42,0" fill="#f3f5fb" opacity="0.8"/>
              <path d="M19.85,5.4h0c-.14.06-.12.13,0,.18a.68.68,0,0,0,.45,0h0c.15-.06.14-.13,0-.2a.82.82,0,0,0-.49,0" fill="#f3f5fb" opacity="0.8"/>
              <path d="M28.49,5.13c-.07,0-.1.06-.08.12s.31.13.56.11.1-.17,0-.26a1.63,1.63,0,0,0-.47,0" fill="#f3f5fb" opacity="0.8"/>
              <path d="M12.85,10.71c-.11,0-.16.09,0,.15a.57.57,0,0,0,.48,0h0c.13,0,.13-.11,0-.17a.69.69,0,0,0-.45,0l0,0" fill="#f3f5fb" opacity="0.8"/>
              <path d="M32.74,7.09a1.63,1.63,0,0,0-.34.21,1.52,1.52,0,0,0,1.12.12c.12-.15.17-.3-.29-.36a1,1,0,0,0-.49,0" fill="#f3f5fb" opacity="0.8"/>
              <path d="M32.14,6.63h0c-.21.08-.22.19,0,.28a1,1,0,0,0,.74,0c.18-.09.2-.18,0-.27a1,1,0,0,0-.71,0" fill="#f3f5fb" opacity="0.8"/>
              <path d="M33.08,7.61c-.11,0-.17.11-.14.2s.46.24.92.16.24-.29-.11-.41a2.17,2.17,0,0,0-.67.05" fill="#f3f5fb" opacity="0.8"/>
              <path d="M35.49,9.43h0M35,9.55c-.16.06-.18.14-.05.24a.84.84,0,0,0,.7.05h0c.26-.09.27-.2,0-.31l-.2-.09-.25.06a1,1,0,0,0-.22.06" fill="#f3f5fb" opacity="0.8"/>
              <path d="M31.42,6.18c-.2.07-.21.17,0,.26a1,1,0,0,0,.66,0c.18-.09.2-.18,0-.27a.94.94,0,0,0-.6,0h0" fill="#f3f5fb" opacity="0.8"/>
              <path d="M30.57,5.78c-.19.07-.2.16,0,.24a.9.9,0,0,0,.61,0c.16-.07.19-.15,0-.23a.77.77,0,0,0-.58,0" fill="#f3f5fb" opacity="0.8"/>
              <path d="M35.52,9.35s0,0,0,.08h0c.07,0,.08-.07,0-.08h0M35.34,9c-.17.06-.16.14-.06.23s.22.05.27.09a3.16,3.16,0,0,0,.32,0h0c.19-.07.28-.15.14-.25A.79.79,0,0,0,35.43,9l-.09,0" fill="#f3f5fb" opacity="0.8"/>
              <path d="M35.48,8.49c-.18.07-.21.15,0,.23a.85.85,0,0,0,.59,0h0c.18-.06.16-.15.05-.23a.91.91,0,0,0-.59,0h0" fill="#f3f5fb" opacity="0.8"/>
              <path d="M35.4,8c-.15.07-.17.14,0,.21a.65.65,0,0,0,.53,0h0c.15-.07.12-.14,0-.21a.81.81,0,0,0-.51,0" fill="#f3f5fb" opacity="0.8"/>
              <path d="M29.62,5.42l-.21.12h0a.62.62,0,0,0,.68.13h0c.16-.06.16-.14,0-.2a.71.71,0,0,0-.49,0" fill="#f3f5fb" opacity="0.8"/>
              <path d="M35.15,7.44c-.1,0-.17.11,0,.18a.6.6,0,0,0,.49,0h0c.13,0,.14-.12,0-.17a.62.62,0,0,0-.53,0" fill="#f3f5fb" opacity="0.8"/>
            </g>
          </g>
        </g>
      </g>
      <g>
        <polygon points="48.75 10.53 48.59 40.83 24.05 49.76 24.2 19.46 48.75 10.53" fill="#193995"/>
        <g style="isolation: isolate">
          <g clip-path="url(#clip-path-3)">
            <g>
              <path d="M31.93,38.84v0h0M31.3,23.65h0M35,38.29c-.15.06-.13-.15-.17-.26s0-.25.1-.31h0c.2-.08.23.14.3.26s-.1.23-.18.28a.09.09,0,0,1-.06,0m4-1.86a.64.64,0,0,0-.31-.3c.24,0,.49-.15.37.13a.7.7,0,0,0-.06.17M35.36,20.16a1.84,1.84,0,0,0-.31.16,5.06,5.06,0,0,1-.93.53l-.24.06a.39.39,0,0,0-.18,0,1.79,1.79,0,0,0-.59.45,1.69,1.69,0,0,1-.55.44.64.64,0,0,1-.2,0h0a.87.87,0,0,0-.2.34c0,.16-.09.25-.21.3l-.09,0-.19,0c-.44.16-.49.58-.36,1.07a.81.81,0,0,0,.41,0,.35.35,0,0,0,.2-.2A1.83,1.83,0,0,1,33,22.5l.21-.07.17-.05a5.89,5.89,0,0,0,.63-.29c.23-.11.45-.22.67-.3a1.36,1.36,0,0,1,1-.06,1,1,0,0,0-.48,0,.64.64,0,0,0-.27.19,6,6,0,0,1-1.49,1c-.49.32-.88.86-1.38,1.15a4.5,4.5,0,0,0-1,1.14c-.48.67-.94,1.38-1.39,2.09a8.89,8.89,0,0,1-.77,1.5l0,.29c.16.27.13.4-.2.56a.58.58,0,0,0-.28.67.24.24,0,0,0,.35.2l.08,0a.58.58,0,0,0,.29-.67c-.08-.27-.07-.41.2-.51h0a.59.59,0,0,0,.28-.35c0-.66.76-.95.71-1.61,0-.05.12-.18.2-.23.56-.31.89-1.05,1.38-1.49.06-.06.11-.18.17-.2a.07.07,0,0,1,.07,0c.1.08,0,.29,0,.34a5,5,0,0,0-1,1.44c-.19.29-.9,1.84-1.05,2.15-.26.57-.34,1.24-.6,1.71-.42.73.07,1.37-.48,2l0,.19c.18.18.11.37-.06.65a.51.51,0,0,0,0,.67.25.25,0,0,0,.29.07.46.46,0,0,0,.21-.15.77.77,0,0,0,.22-.72c0-.15-.22-.16-.09-.43a7.21,7.21,0,0,0,.58-2.23c0-.16.08-.27.18-.3l.07,0c.13,0,.16.18.11.26-.36.51-.18.91-.24,1.37A4.75,4.75,0,0,0,30.3,35c0,.06-.06.2-.09.31-.09.32-.05.58.16.68s.2.17.1.44-.08.53.09.59c.43.16.07,1.34.83,1.06v.13c-.24.77.15.71.54.65.05-.35.34-.86,0-1s-.26-.19-.21-.49,0-.46-.23-.46-.16-.26-.09-.47,0-.23.09-.26h.07c.13,0,.34,0,.3.3s.11.64.43.64c.15,0,.17.12.17.28,0,.36.19.48.45.46s.24-.07.26.14c.08.75,1,.22,1.11.9l.09,0,.2-.08.14-.08s.08,0,.11.08c.08.31.2.36.35.31a6,6,0,0,0,.61-.44c0,.38,0,.75.33.65l.2-.13a.94.94,0,0,1,.26-.18c.12,0,.2,0,.29.19a.19.19,0,0,0,.24.09.67.67,0,0,0,.25-.21.51.51,0,0,0,.06-.63.22.22,0,0,0-.27-.09.45.45,0,0,0-.21.17,3.66,3.66,0,0,0-.32.44c0-.39-.09-.76-.41-.64a.44.44,0,0,0-.16.09,3,3,0,0,1-.24.18c-.06,0-.1,0-.11-.18s-.24-.23,0-.42a1,1,0,0,1,.3-.25.15.15,0,0,1,.2.06.47.47,0,0,0,.55.09l.28-.13.3-.14a.61.61,0,0,1,.44,0h.06l.15-.08.2-.1a.27.27,0,0,1,.34.08s0,0,.07,0a.4.4,0,0,0,.2-.19,1.84,1.84,0,0,0,.33-.68c.06.1.18.14.23.25a1.05,1.05,0,0,0,.24-.06.66.66,0,0,0,.38-.35c.31-.52,1-.25,1.14-1.19l.16,0a.42.42,0,0,0,.25,0,.55.55,0,0,0,.32-.39.45.45,0,0,0-.18-.57.34.34,0,0,0-.2,0,.7.7,0,0,0-.37.46c-.06.21-.11.29-.17.31s-.17-.06-.26-.06a.86.86,0,0,0-.5.55c0,.12-.07.17-.11.18s-.15-.08-.22-.08-.19,0-.15-.21a.29.29,0,0,1,.17-.23.17.17,0,0,1,.12,0l.16,0a1.51,1.51,0,0,0,.51-.5l.06-.21.13,0c.58-.21.73-1.21,1.3-1.46a.87.87,0,0,0,.18-.43c0-.23.07-.38.29-.49a1,1,0,0,0,.44-.93l0-.1.14-.08a1.41,1.41,0,0,0,.5-.64c0-.4-.15-.61-.46-.5l-.16.08-.1.05c-.06,0-.12,0-.14-.09s0-.22.1-.35a8.85,8.85,0,0,0,.59-2.17c-.05-.13-.21-.23-.07-.44.5-.77-.14-1.28.21-2-.43-.2-.13-.76-.09-1.19s-.54-.08-.4-.48c.29-.88-.14-.83-.58-.79a2.77,2.77,0,0,1,.12-.27c.22-.31.26-.56,0-.68a.3.3,0,0,0-.23,0,.58.58,0,0,0-.27.27c-.18.32-.16.64.07.68s.16.27.21.48a9.68,9.68,0,0,1,.26,1.64l.13.11c.08.05.09.11,0,.23-.43.67,0,1.16-.17,1.83-.11.52-.18,1.24-.33,1.75A9.46,9.46,0,0,1,41,31.31a7.37,7.37,0,0,1-2,2.21,5.87,5.87,0,0,0-1.26.71,1.57,1.57,0,0,1-.54.33,1.88,1.88,0,0,1-.67.11,3,3,0,0,1-2-.45,3.18,3.18,0,0,1-1.17-1.74,6.14,6.14,0,0,1,0-2.63,6.59,6.59,0,0,1,1.86-3.51A5.19,5.19,0,0,1,37,25.18a2.53,2.53,0,0,1,2,.06,2.56,2.56,0,0,1,1.47,2.29c0,.23-.15.64.13.62l0,0c.18-.06.29-.39.39-.62a6.07,6.07,0,0,0,.33-4.72,4.2,4.2,0,0,0-2.21-2.55c-.43-.21-1,0-1.31-.51-.33,0-.73.37-1,0a1.46,1.46,0,0,1-.35.18,2.57,2.57,0,0,1-.55.12,2.48,2.48,0,0,0-.57.11" fill="#f3f5fb" opacity="0.8"/>
              <path d="M31.3,23.65h0m-.54-.13c-.16.06-.24.3-.32.8,0,.19-.08.25-.13.27s-.14,0-.21,0H30a.58.58,0,0,0-.36.56c0,.22.09.35.28.31H30a.62.62,0,0,0,.34-.49c0-.16-.07-.28.08-.47a.51.51,0,0,0,.36,0c.25-.09.4-.43.5-.86a.81.81,0,0,0-.54-.13" fill="#f3f5fb" opacity="0.8"/>
              <path d="M29.28,36.1a.58.58,0,0,0-.37.59c0,.26.14.37.35.29l0,0a.59.59,0,0,0,.33-.57c0-.24-.14-.37-.35-.3h0" fill="#f3f5fb" opacity="0.8"/>
              <path d="M29.18,34.86h0a.66.66,0,0,0-.38.7c0,.27.15.37.37.3l.05,0a.74.74,0,0,0,.36-.7c-.05-.19-.15-.37-.39-.28" fill="#f3f5fb" opacity="0.8"/>
              <path d="M31.93,38.84v0h0v0m.24-.11a1,1,0,0,0-.24.13c-.06.69.21.85.7.67h0v-.16s0-.06,0-.06.05,0,.08,0c-.05-.48-.23-.74-.6-.6" fill="#f3f5fb" opacity="0.8"/>
              <path d="M32.66,39.52h0v0m.11-.19h0s0,0,0,0" fill="#f3f5fb" opacity="0.8"/>
              <path d="M38.09,38.25l-.06,0a.52.52,0,0,0-.29.57c0,.17.09.43.28.36h0a1,1,0,0,0,.36-.68c-.06-.21-.15-.34-.33-.27" fill="#f3f5fb" opacity="0.8"/>
              <path d="M41.87,20.68a.61.61,0,0,0-.34.55c0,.29.12.43.35.34h0a.6.6,0,0,0,.35-.63c0-.26-.16-.33-.38-.26" fill="#f3f5fb" opacity="0.8"/>
              <path d="M32.79,39.33h0l0,0a.43.43,0,0,1,0-.05" fill="#f3f5fb" opacity="0.8"/>
              <path d="M32.66,39.52v0h0v0m.14-.14c0,.09,0,.13-.08.15l-.06,0v.26c0,.3.07.45.32.39h0a.56.56,0,0,0,.33-.51c0-.3-.14-.4-.38-.31l-.07,0a.08.08,0,0,1-.1,0" fill="#f3f5fb" opacity="0.8"/>
              <path d="M39,38h0c-.09.15-.17.31-.26.47v.09l.05.13.11.1a.32.32,0,0,0,.14,0,.82.82,0,0,0,.42-.44q0-.48-.45-.33" fill="#f3f5fb" opacity="0.8"/>
              <path d="M28.3,30.93a.52.52,0,0,0-.34.53c0,.23.1.35.29.31h0a.55.55,0,0,0,.34-.51c0-.28-.1-.38-.31-.33h0" fill="#f3f5fb" opacity="0.8"/>
              <path d="M29.5,37.22a.58.58,0,0,0-.3.59c0,.22.14.28.31.22h0a.51.51,0,0,0,.3-.49c0-.27-.12-.36-.33-.31" fill="#f3f5fb" opacity="0.8"/>
              <path d="M41.28,20a.58.58,0,0,0-.31.55c0,.24.13.32.33.25a.52.52,0,0,0,.33-.48c0-.28-.1-.39-.35-.32" fill="#f3f5fb" opacity="0.8"/>
              <path d="M33.76,39.88a.5.5,0,0,0-.3.47c0,.25.11.37.3.3l0,0a.58.58,0,0,0,.3-.51c0-.21-.13-.31-.33-.24h0" fill="#f3f5fb" opacity="0.8"/>
              <path d="M28,32.25h0a.55.55,0,0,0-.3.5c0,.17.13.29.29.23L28,33a.51.51,0,0,0,.25-.53c0-.19-.12-.25-.28-.19" fill="#f3f5fb" opacity="0.8"/>
              <path d="M29.26,25.76a.49.49,0,0,0-.27.43c0,.24.08.36.29.28h0a.49.49,0,0,0,.27-.44c0-.21-.1-.33-.29-.27h0" fill="#f3f5fb" opacity="0.8"/>
              <path d="M40.6,19.35a.52.52,0,0,0-.29.46c0,.22.1.32.29.29a.5.5,0,0,0,.32-.46c0-.25-.1-.35-.28-.31l0,0" fill="#f3f5fb" opacity="0.8"/>
              <path d="M34.62,40.23a.44.44,0,0,0-.27.39c0,.24.06.38.26.32h0a.5.5,0,0,0,.27-.42c0-.22-.08-.33-.24-.3h0" fill="#f3f5fb" opacity="0.8"/>
              <path d="M40,37.5c-.17.06-.26.26-.23.63a.43.43,0,0,0,.32,0c.17-.06.23-.31.22-.66a.48.48,0,0,0-.31,0" fill="#f3f5fb" opacity="0.8"/>
              <path d="M39.84,18.92a.44.44,0,0,0-.27.43c0,.21.11.28.27.23h0a.47.47,0,0,0,.27-.4c0-.22-.09-.32-.25-.28l0,0" fill="#f3f5fb" opacity="0.8"/>
              <path d="M27.86,33.54h0a.45.45,0,0,0-.23.38c0,.22.08.29.27.25a.44.44,0,0,0,.24-.42c0-.18-.1-.27-.25-.22" fill="#f3f5fb" opacity="0.8"/>
              <path d="M29.89,38.27a.48.48,0,0,0-.29.4c-.05.26.06.37.25.34h0a.5.5,0,0,0,.26-.38c0-.26-.08-.35-.27-.35" fill="#f3f5fb" opacity="0.8"/>
              <path d="M35.54,40.43l0,0a.39.39,0,0,0-.22.37c0,.2.09.29.25.23h0a.46.46,0,0,0,.25-.43c0-.18-.11-.24-.24-.19" fill="#f3f5fb" opacity="0.8"/>
              <path d="M41,36.89c-.15,0-.22.26-.27.48a.32.32,0,0,0,.36.1l.07,0c.13-.23.23-.48,0-.54a.19.19,0,0,0-.15,0" fill="#f3f5fb" opacity="0.8"/>
              <path d="M30.37,39.22l-.05,0a.39.39,0,0,0-.22.37c0,.2.1.29.25.24a.46.46,0,0,0,.25-.46c0-.14-.1-.23-.23-.18" fill="#f3f5fb" opacity="0.8"/>
              <path d="M39,18.61h0a.41.41,0,0,0-.22.39c0,.16.08.27.22.23h0a.46.46,0,0,0,.26-.4c0-.18-.11-.27-.26-.22" fill="#f3f5fb" opacity="0.8"/>
              <path d="M44.1,21.54a.38.38,0,0,0-.19.23c-.15.31,0,.4.18.45a.76.76,0,0,0,.3-.54c-.08-.09-.18-.18-.29-.14" fill="#f3f5fb" opacity="0.8"/>
              <path d="M28.6,27a.32.32,0,0,0-.21.31c0,.21.05.32.23.26h0a.38.38,0,0,0,.23-.34c0-.18-.07-.27-.21-.24l0,0" fill="#f3f5fb" opacity="0.8"/>
              <path d="M44,27.41a2.85,2.85,0,0,0-.45.29c0,.43,0,.8.47.71.25-.26.46-.55.28-.87-.08-.16-.19-.18-.3-.13" fill="#f3f5fb" opacity="0.8"/>
              <path d="M44.26,26.19h0a.6.6,0,0,0-.36.56c0,.3.15.39.39.33a.63.63,0,0,0,.35-.57c0-.28-.13-.41-.37-.33" fill="#f3f5fb" opacity="0.8"/>
              <path d="M43.56,28.65a.64.64,0,0,0-.32.36c-.23.49,0,.71.32.71a.82.82,0,0,0,.44-.91.43.43,0,0,0-.44-.16" fill="#f3f5fb" opacity="0.8"/>
              <path d="M42.65,33.46h0m-.4.07a.57.57,0,0,0-.32.48c-.06.33.08.48.32.4h0a.62.62,0,0,0,.38-.67v-.27l-.21,0a.4.4,0,0,0-.19,0" fill="#f3f5fb" opacity="0.8"/>
              <path d="M44.42,25a.53.53,0,0,0-.33.53c0,.27.12.35.33.32a.6.6,0,0,0,.33-.57c0-.22-.12-.34-.3-.29h0" fill="#f3f5fb" opacity="0.8"/>
              <path d="M44.45,23.75a.52.52,0,0,0-.32.49c0,.24.12.31.32.28a.54.54,0,0,0,.3-.49c0-.23-.11-.35-.3-.28" fill="#f3f5fb" opacity="0.8"/>
              <path d="M42.76,33.32s-.07,0-.11.14h0a.27.27,0,0,0,.13-.15h0m.3-.76a.6.6,0,0,0-.32.47c0,.1.06.19,0,.29s.13.1.2.07h0a.55.55,0,0,0,.38-.46c.05-.27,0-.42-.27-.38l-.08,0" fill="#f3f5fb" opacity="0.8"/>
              <path d="M43.8,31.48a.49.49,0,0,0-.31.46c0,.24.11.36.29.31h0a.58.58,0,0,0,.31-.48c0-.22-.09-.34-.29-.28h0" fill="#f3f5fb" opacity="0.8"/>
              <path d="M44.41,30.33a.47.47,0,0,0-.27.43c0,.24.11.31.28.25l0,0a.46.46,0,0,0,.23-.45c0-.21-.12-.26-.28-.21" fill="#f3f5fb" opacity="0.8"/>
              <path d="M44.36,22.63a1.17,1.17,0,0,0-.25.15h0c0,.3-.12.62.23.54h0a.42.42,0,0,0,.25-.43c0-.25-.12-.29-.25-.24" fill="#f3f5fb" opacity="0.8"/>
              <path d="M44.93,29.12a.4.4,0,0,0-.25.39c0,.2.09.28.25.23h0a.39.39,0,0,0,.24-.34c0-.21,0-.32-.25-.28" fill="#f3f5fb" opacity="0.8"/>
            </g>
          </g>
        </g>
      </g>
    </g>
  </g>
  <g>
    <rect x="46.2" y="41.66" width="1.52" height="1.51" fill="#fff"/>
    <rect x="46.2" y="40.15" width="1.52" height="1.52" fill="#fff"/>
    <rect x="46.2" y="8.34" width="1.52" height="1.51" fill="#fff"/>
    <rect x="46.2" y="6.82" width="1.52" height="1.52" fill="#fff"/>
    <rect x="44.69" y="43.18" width="1.51" height="1.52" fill="#fff"/>
    <rect x="44.69" y="41.66" width="1.51" height="1.51" fill="#ef5454"/>
    <rect x="44.69" y="40.15" width="1.51" height="1.52" fill="#ef5454"/>
    <rect x="44.69" y="38.63" width="1.51" height="1.51" fill="#fff"/>
    <rect x="44.69" y="9.85" width="1.51" height="1.52" fill="#fff"/>
    <rect x="44.69" y="8.34" width="1.51" height="1.51" fill="#aa0707"/>
    <rect x="44.69" y="6.82" width="1.51" height="1.52" fill="#ef5454"/>
    <rect x="44.69" y="5.31" width="1.51" height="1.51" fill="#fff"/>
    <rect x="43.18" y="44.69" width="1.52" height="1.51" fill="#fff"/>
    <rect x="43.18" y="43.18" width="1.52" height="1.52" fill="#aa0707"/>
    <rect x="43.18" y="41.66" width="1.52" height="1.51" fill="#cc1d1d"/>
    <rect x="43.18" y="40.15" width="1.52" height="1.52" fill="#cc1d1d"/>
    <rect x="43.18" y="38.63" width="1.52" height="1.51" fill="#ef5454"/>
    <rect x="43.18" y="37.12" width="1.52" height="1.52" fill="#fff"/>
    <rect x="43.18" y="11.37" width="1.52" height="1.51" fill="#fff"/>
    <rect x="43.18" y="9.85" width="1.52" height="1.52" fill="#aa0707"/>
    <rect x="43.18" y="8.34" width="1.52" height="1.51" fill="#cc1d1d"/>
    <rect x="43.18" y="6.82" width="1.52" height="1.52" fill="#cc1d1d"/>
    <rect x="43.18" y="5.31" width="1.52" height="1.51" fill="#ef5454"/>
    <rect x="43.18" y="3.79" width="1.52" height="1.52" fill="#fff"/>
    <rect x="41.66" y="46.2" width="1.51" height="1.51" fill="#fff"/>
    <rect x="41.66" y="44.69" width="1.51" height="1.51" fill="#aa0707"/>
    <rect x="41.66" y="43.18" width="1.51" height="1.52" fill="#cc1d1d"/>
    <rect x="41.66" y="41.66" width="1.51" height="1.51" fill="#cc1d1d"/>
    <rect x="41.66" y="40.15" width="1.51" height="1.52" fill="#cc1d1d"/>
    <rect x="41.66" y="38.63" width="1.51" height="1.51" fill="#cc1d1d"/>
    <rect x="41.66" y="37.12" width="1.51" height="1.52" fill="#ef5454"/>
    <rect x="41.66" y="35.6" width="1.51" height="1.51" fill="#fff"/>
    <rect x="41.66" y="12.88" width="1.51" height="1.51" fill="#fff"/>
    <rect x="41.66" y="11.37" width="1.51" height="1.51" fill="#aa0707"/>
    <rect x="41.66" y="9.85" width="1.51" height="1.52" fill="#cc1d1d"/>
    <rect x="41.66" y="8.34" width="1.51" height="1.51" fill="#cc1d1d"/>
    <rect x="41.66" y="6.82" width="1.51" height="1.52" fill="#cc1d1d"/>
    <rect x="41.66" y="5.31" width="1.51" height="1.51" fill="#cc1d1d"/>
    <rect x="41.66" y="3.79" width="1.51" height="1.52" fill="#ef5454"/>
    <rect x="41.66" y="2.28" width="1.51" height="1.51" fill="#fff"/>
    <rect x="40.15" y="46.2" width="1.52" height="1.51" fill="#fff"/>
    <rect x="40.15" y="44.69" width="1.52" height="1.51" fill="#aa0707"/>
    <rect x="40.15" y="43.18" width="1.52" height="1.52" fill="#cc1d1d"/>
    <rect x="40.15" y="41.66" width="1.52" height="1.51" fill="#cc1d1d"/>
    <rect x="40.15" y="40.15" width="1.52" height="1.52" fill="#cc1d1d"/>
    <rect x="40.15" y="38.63" width="1.52" height="1.51" fill="#cc1d1d"/>
    <rect x="40.15" y="37.12" width="1.52" height="1.52" fill="#cc1d1d"/>
    <rect x="40.15" y="35.6" width="1.52" height="1.51" fill="#ef5454"/>
    <rect x="40.15" y="34.09" width="1.52" height="1.52" fill="#fff"/>
    <rect x="40.15" y="14.4" width="1.52" height="1.52" fill="#fff"/>
    <rect x="40.15" y="12.88" width="1.52" height="1.51" fill="#aa0707"/>
    <rect x="40.15" y="11.37" width="1.52" height="1.51" fill="#cc1d1d"/>
    <rect x="40.15" y="9.85" width="1.52" height="1.52" fill="#cc1d1d"/>
    <rect x="40.15" y="8.34" width="1.52" height="1.51" fill="#cc1d1d"/>
    <rect x="40.15" y="6.82" width="1.52" height="1.52" fill="#cc1d1d"/>
    <rect x="40.15" y="5.31" width="1.52" height="1.51" fill="#cc1d1d"/>
    <rect x="40.15" y="3.79" width="1.52" height="1.52" fill="#ef5454"/>
    <rect x="40.15" y="2.28" width="1.52" height="1.51" fill="#fff"/>
    <rect x="38.63" y="44.69" width="1.51" height="1.51" fill="#fff"/>
    <rect x="38.63" y="43.18" width="1.51" height="1.52" fill="#aa0707"/>
    <rect x="38.63" y="41.66" width="1.51" height="1.51" fill="#cc1d1d"/>
    <rect x="38.63" y="40.15" width="1.51" height="1.52" fill="#cc1d1d"/>
    <rect x="38.63" y="38.63" width="1.51" height="1.51" fill="#cc1d1d"/>
    <rect x="38.63" y="37.12" width="1.51" height="1.52" fill="#cc1d1d"/>
    <rect x="38.63" y="35.6" width="1.51" height="1.51" fill="#cc1d1d"/>
    <rect x="38.63" y="34.09" width="1.51" height="1.52" fill="#ef5454"/>
    <rect x="38.63" y="32.57" width="1.51" height="1.51" fill="#fff"/>
    <rect x="38.63" y="15.91" width="1.51" height="1.51" fill="#fff"/>
    <rect x="38.63" y="14.4" width="1.51" height="1.52" fill="#aa0707"/>
    <rect x="38.63" y="12.88" width="1.51" height="1.51" fill="#cc1d1d"/>
    <rect x="38.63" y="11.37" width="1.51" height="1.51" fill="#cc1d1d"/>
    <rect x="38.63" y="9.85" width="1.51" height="1.52" fill="#cc1d1d"/>
    <rect x="38.63" y="8.34" width="1.51" height="1.51" fill="#cc1d1d"/>
    <rect x="38.63" y="6.82" width="1.51" height="1.52" fill="#cc1d1d"/>
    <rect x="38.63" y="5.31" width="1.51" height="1.51" fill="#ef5454"/>
    <rect x="38.63" y="3.79" width="1.51" height="1.52" fill="#fff"/>
    <rect x="37.12" y="43.18" width="1.51" height="1.52" fill="#fff"/>
    <rect x="37.12" y="41.66" width="1.51" height="1.51" fill="#aa0707"/>
    <rect x="37.12" y="40.15" width="1.51" height="1.52" fill="#cc1d1d"/>
    <rect x="37.12" y="38.63" width="1.51" height="1.51" fill="#cc1d1d"/>
    <rect x="37.12" y="37.12" width="1.51" height="1.52" fill="#cc1d1d"/>
    <rect x="37.12" y="35.6" width="1.51" height="1.51" fill="#cc1d1d"/>
    <rect x="37.12" y="34.09" width="1.51" height="1.52" fill="#cc1d1d"/>
    <rect x="37.12" y="32.57" width="1.51" height="1.51" fill="#ef5454"/>
    <rect x="37.12" y="31.06" width="1.51" height="1.52" fill="#fff"/>
    <rect x="37.12" y="17.43" width="1.51" height="1.52" fill="#fff"/>
    <rect x="37.12" y="15.91" width="1.51" height="1.51" fill="#aa0707"/>
    <rect x="37.12" y="14.4" width="1.51" height="1.52" fill="#cc1d1d"/>
    <rect x="37.12" y="12.88" width="1.51" height="1.51" fill="#cc1d1d"/>
    <rect x="37.12" y="11.37" width="1.51" height="1.51" fill="#cc1d1d"/>
    <rect x="37.12" y="9.85" width="1.51" height="1.52" fill="#cc1d1d"/>
    <rect x="37.12" y="8.34" width="1.51" height="1.51" fill="#cc1d1d"/>
    <rect x="37.12" y="6.82" width="1.51" height="1.52" fill="#ef5454"/>
    <rect x="37.12" y="5.31" width="1.51" height="1.51" fill="#fff"/>
    <rect x="35.6" y="41.66" width="1.52" height="1.51" fill="#fff"/>
    <rect x="35.6" y="40.15" width="1.52" height="1.52" fill="#aa0707"/>
    <rect x="35.6" y="38.63" width="1.52" height="1.51" fill="#cc1d1d"/>
    <rect x="35.6" y="37.12" width="1.52" height="1.52" fill="#cc1d1d"/>
    <rect x="35.6" y="35.6" width="1.52" height="1.51" fill="#cc1d1d"/>
    <rect x="35.6" y="34.09" width="1.52" height="1.52" fill="#cc1d1d"/>
    <rect x="35.6" y="32.57" width="1.52" height="1.51" fill="#cc1d1d"/>
    <rect x="35.6" y="31.06" width="1.52" height="1.52" fill="#ef5454"/>
    <rect x="35.6" y="29.54" width="1.52" height="1.51" fill="#fff"/>
    <rect x="35.6" y="18.94" width="1.52" height="1.51" fill="#fff"/>
    <rect x="35.6" y="17.43" width="1.52" height="1.52" fill="#aa0707"/>
    <rect x="35.6" y="15.91" width="1.52" height="1.51" fill="#cc1d1d"/>
    <rect x="35.6" y="14.4" width="1.52" height="1.52" fill="#cc1d1d"/>
    <rect x="35.6" y="12.88" width="1.52" height="1.51" fill="#cc1d1d"/>
    <rect x="35.6" y="11.37" width="1.52" height="1.51" fill="#cc1d1d"/>
    <rect x="35.6" y="9.85" width="1.52" height="1.52" fill="#cc1d1d"/>
    <rect x="35.6" y="8.34" width="1.52" height="1.51" fill="#ef5454"/>
    <rect x="35.6" y="6.82" width="1.52" height="1.52" fill="#fff"/>
    <rect x="34.09" y="40.15" width="1.51" height="1.52" fill="#fff"/>
    <rect x="34.09" y="38.63" width="1.51" height="1.51" fill="#aa0707"/>
    <rect x="34.09" y="37.12" width="1.51" height="1.52" fill="#cc1d1d"/>
    <rect x="34.09" y="35.6" width="1.51" height="1.51" fill="#cc1d1d"/>
    <rect x="34.09" y="34.09" width="1.51" height="1.52" fill="#cc1d1d"/>
    <rect x="34.09" y="32.57" width="1.51" height="1.51" fill="#cc1d1d"/>
    <rect x="34.09" y="31.06" width="1.51" height="1.52" fill="#cc1d1d"/>
    <rect x="34.09" y="29.54" width="1.51" height="1.51" fill="#ef5454"/>
    <rect x="34.09" y="28.03" width="1.51" height="1.51" fill="#fff"/>
    <rect x="34.09" y="20.46" width="1.51" height="1.52" fill="#fff"/>
    <rect x="34.09" y="18.94" width="1.51" height="1.51" fill="#aa0707"/>
    <rect x="34.09" y="17.43" width="1.51" height="1.52" fill="#cc1d1d"/>
    <rect x="34.09" y="15.91" width="1.51" height="1.51" fill="#cc1d1d"/>
    <rect x="34.09" y="14.4" width="1.51" height="1.52" fill="#cc1d1d"/>
    <rect x="34.09" y="12.88" width="1.51" height="1.51" fill="#cc1d1d"/>
    <rect x="34.09" y="11.37" width="1.51" height="1.51" fill="#cc1d1d"/>
    <rect x="34.09" y="9.85" width="1.51" height="1.52" fill="#ef5454"/>
    <rect x="34.09" y="8.34" width="1.51" height="1.51" fill="#fff"/>
    <rect x="32.57" y="38.63" width="1.52" height="1.51" fill="#fff"/>
    <rect x="32.57" y="37.12" width="1.52" height="1.52" fill="#aa0707"/>
    <rect x="32.57" y="35.6" width="1.52" height="1.51" fill="#cc1d1d"/>
    <rect x="32.57" y="34.09" width="1.52" height="1.52" fill="#cc1d1d"/>
    <rect x="32.57" y="32.57" width="1.52" height="1.51" fill="#cc1d1d"/>
    <rect x="32.57" y="31.06" width="1.52" height="1.52" fill="#cc1d1d"/>
    <rect x="32.57" y="29.54" width="1.52" height="1.51" fill="#cc1d1d"/>
    <rect x="32.57" y="28.03" width="1.52" height="1.51" fill="#ef5454"/>
    <rect x="32.57" y="26.51" width="1.52" height="1.52" fill="#fff"/>
    <rect x="32.57" y="21.97" width="1.52" height="1.51" fill="#fff"/>
    <rect x="32.57" y="20.46" width="1.52" height="1.52" fill="#aa0707"/>
    <rect x="32.57" y="18.94" width="1.52" height="1.51" fill="#cc1d1d"/>
    <rect x="32.57" y="17.43" width="1.52" height="1.52" fill="#cc1d1d"/>
    <rect x="32.57" y="15.91" width="1.52" height="1.51" fill="#cc1d1d"/>
    <rect x="32.57" y="14.4" width="1.52" height="1.52" fill="#cc1d1d"/>
    <rect x="32.57" y="12.88" width="1.52" height="1.51" fill="#cc1d1d"/>
    <rect x="32.57" y="11.37" width="1.52" height="1.51" fill="#ef5454"/>
    <rect x="32.57" y="9.85" width="1.52" height="1.52" fill="#fff"/>
    <rect x="31.06" y="37.12" width="1.51" height="1.52" fill="#fff"/>
    <rect x="31.06" y="35.6" width="1.51" height="1.51" fill="#aa0707"/>
    <rect x="31.06" y="34.09" width="1.51" height="1.52" fill="#cc1d1d"/>
    <rect x="31.06" y="32.57" width="1.51" height="1.51" fill="#cc1d1d"/>
    <rect x="31.06" y="31.06" width="1.51" height="1.52" fill="#cc1d1d"/>
    <rect x="31.06" y="29.54" width="1.51" height="1.51" fill="#cc1d1d"/>
    <rect x="31.06" y="28.03" width="1.51" height="1.51" fill="#cc1d1d"/>
    <rect x="31.06" y="26.51" width="1.51" height="1.52" fill="#ef5454"/>
    <rect x="31.06" y="25" width="1.51" height="1.51" fill="#fff"/>
    <rect x="31.06" y="23.49" width="1.51" height="1.52" fill="#fff"/>
    <rect x="31.06" y="21.97" width="1.51" height="1.51" fill="#aa0707"/>
    <rect x="31.06" y="20.46" width="1.51" height="1.52" fill="#cc1d1d"/>
    <rect x="31.06" y="18.94" width="1.51" height="1.51" fill="#cc1d1d"/>
    <rect x="31.06" y="17.43" width="1.51" height="1.52" fill="#cc1d1d"/>
    <rect x="31.06" y="15.91" width="1.51" height="1.51" fill="#cc1d1d"/>
    <rect x="31.06" y="14.4" width="1.51" height="1.52" fill="#cc1d1d"/>
    <rect x="31.06" y="12.88" width="1.51" height="1.51" fill="#ef5454"/>
    <rect x="31.06" y="11.37" width="1.51" height="1.51" fill="#fff"/>
    <rect x="29.54" y="35.6" width="1.52" height="1.51" fill="#fff"/>
    <rect x="29.54" y="34.09" width="1.52" height="1.52" fill="#aa0707"/>
    <rect x="29.54" y="32.57" width="1.52" height="1.51" fill="#cc1d1d"/>
    <rect x="29.54" y="31.06" width="1.52" height="1.52" fill="#cc1d1d"/>
    <rect x="29.54" y="29.54" width="1.52" height="1.51" fill="#cc1d1d"/>
    <rect x="29.54" y="28.03" width="1.52" height="1.51" fill="#cc1d1d"/>
    <rect x="29.54" y="26.51" width="1.52" height="1.52" fill="#cc1d1d"/>
    <rect x="29.54" y="25" width="1.52" height="1.51" fill="#aa0707"/>
    <rect x="29.54" y="23.49" width="1.52" height="1.52" fill="#aa0707"/>
    <rect x="29.54" y="21.97" width="1.52" height="1.51" fill="#cc1d1d"/>
    <rect x="29.54" y="20.46" width="1.52" height="1.52" fill="#cc1d1d"/>
    <rect x="29.54" y="18.94" width="1.52" height="1.51" fill="#cc1d1d"/>
    <rect x="29.54" y="17.43" width="1.52" height="1.52" fill="#cc1d1d"/>
    <rect x="29.54" y="15.91" width="1.52" height="1.51" fill="#cc1d1d"/>
    <rect x="29.54" y="14.4" width="1.52" height="1.52" fill="#ef5454"/>
    <rect x="29.54" y="12.88" width="1.52" height="1.51" fill="#fff"/>
    <rect x="28.03" y="34.09" width="1.51" height="1.52" fill="#fff"/>
    <rect x="28.03" y="32.57" width="1.51" height="1.51" fill="#aa0707"/>
    <rect x="28.03" y="31.06" width="1.51" height="1.52" fill="#cc1d1d"/>
    <rect x="28.03" y="29.54" width="1.51" height="1.51" fill="#cc1d1d"/>
    <rect x="28.03" y="28.03" width="1.51" height="1.51" fill="#cc1d1d"/>
    <rect x="28.03" y="26.51" width="1.51" height="1.52" fill="#cc1d1d"/>
    <rect x="28.03" y="25" width="1.51" height="1.51" fill="#cc1d1d"/>
    <rect x="28.03" y="23.49" width="1.51" height="1.52" fill="#cc1d1d"/>
    <rect x="28.03" y="21.97" width="1.51" height="1.51" fill="#cc1d1d"/>
    <rect x="28.03" y="20.46" width="1.51" height="1.52" fill="#cc1d1d"/>
    <rect x="28.03" y="18.94" width="1.51" height="1.51" fill="#cc1d1d"/>
    <rect x="28.03" y="17.43" width="1.51" height="1.52" fill="#cc1d1d"/>
    <rect x="28.03" y="15.91" width="1.51" height="1.51" fill="#ef5454"/>
    <rect x="28.03" y="14.4" width="1.51" height="1.52" fill="#fff"/>
    <rect x="26.51" y="32.57" width="1.52" height="1.51" fill="#fff"/>
    <rect x="26.51" y="31.06" width="1.52" height="1.52" fill="#aa0707"/>
    <rect x="26.51" y="29.54" width="1.52" height="1.51" fill="#cc1d1d"/>
    <rect x="26.51" y="28.03" width="1.52" height="1.51" fill="#cc1d1d"/>
    <rect x="26.51" y="26.51" width="1.52" height="1.52" fill="#cc1d1d"/>
    <rect x="26.51" y="25" width="1.52" height="1.51" fill="#cc1d1d"/>
    <rect x="26.51" y="23.49" width="1.52" height="1.52" fill="#cc1d1d"/>
    <rect x="26.51" y="21.97" width="1.52" height="1.51" fill="#cc1d1d"/>
    <rect x="26.51" y="20.46" width="1.52" height="1.52" fill="#cc1d1d"/>
    <rect x="26.51" y="18.94" width="1.52" height="1.51" fill="#cc1d1d"/>
    <rect x="26.51" y="17.43" width="1.52" height="1.52" fill="#ef5454"/>
    <rect x="26.51" y="15.91" width="1.52" height="1.51" fill="#fff"/>
    <rect x="25" y="31.06" width="1.51" height="1.52" fill="#fff"/>
    <rect x="25" y="29.54" width="1.51" height="1.51" fill="#aa0707"/>
    <rect x="25" y="28.03" width="1.51" height="1.51" fill="#cc1d1d"/>
    <rect x="25" y="26.51" width="1.51" height="1.52" fill="#cc1d1d"/>
    <rect x="25" y="25" width="1.51" height="1.51" fill="#cc1d1d"/>
    <rect x="25" y="23.49" width="1.51" height="1.52" fill="#cc1d1d"/>
    <rect x="25" y="21.97" width="1.51" height="1.51" fill="#cc1d1d"/>
    <rect x="25" y="20.46" width="1.51" height="1.52" fill="#cc1d1d"/>
    <rect x="25" y="18.94" width="1.51" height="1.51" fill="#ef5454"/>
    <rect x="25" y="17.43" width="1.51" height="1.52" fill="#fff"/>
    <rect x="23.48" y="31.06" width="1.52" height="1.52" fill="#fff"/>
    <rect x="23.48" y="29.54" width="1.52" height="1.51" fill="#aa0707"/>
    <rect x="23.48" y="28.03" width="1.52" height="1.51" fill="#cc1d1d"/>
    <rect x="23.48" y="26.51" width="1.52" height="1.52" fill="#cc1d1d"/>
    <rect x="23.48" y="25" width="1.52" height="1.51" fill="#cc1d1d"/>
    <rect x="23.48" y="23.49" width="1.52" height="1.52" fill="#cc1d1d"/>
    <rect x="23.48" y="21.97" width="1.52" height="1.51" fill="#cc1d1d"/>
    <rect x="23.48" y="20.46" width="1.52" height="1.52" fill="#cc1d1d"/>
    <rect x="23.48" y="18.94" width="1.52" height="1.51" fill="#ef5454"/>
    <rect x="23.48" y="17.43" width="1.52" height="1.52" fill="#fff"/>
    <rect x="21.97" y="32.57" width="1.51" height="1.51" fill="#fff"/>
    <rect x="21.97" y="31.06" width="1.51" height="1.52" fill="#aa0707"/>
    <rect x="21.97" y="29.54" width="1.51" height="1.51" fill="#cc1d1d"/>
    <rect x="21.97" y="28.03" width="1.51" height="1.51" fill="#cc1d1d"/>
    <rect x="21.97" y="26.51" width="1.51" height="1.52" fill="#cc1d1d"/>
    <rect x="21.97" y="25" width="1.51" height="1.51" fill="#cc1d1d"/>
    <rect x="21.97" y="23.49" width="1.51" height="1.52" fill="#cc1d1d"/>
    <rect x="21.97" y="21.97" width="1.51" height="1.51" fill="#cc1d1d"/>
    <rect x="21.97" y="20.46" width="1.51" height="1.52" fill="#cc1d1d"/>
    <rect x="21.97" y="18.94" width="1.51" height="1.51" fill="#cc1d1d"/>
    <rect x="21.97" y="17.43" width="1.51" height="1.52" fill="#ef5454"/>
    <rect x="21.97" y="15.91" width="1.51" height="1.51" fill="#fff"/>
    <rect x="20.46" y="34.09" width="1.52" height="1.52" fill="#fff"/>
    <rect x="20.46" y="32.57" width="1.52" height="1.51" fill="#aa0707"/>
    <rect x="20.46" y="31.06" width="1.52" height="1.52" fill="#cc1d1d"/>
    <rect x="20.46" y="29.54" width="1.52" height="1.51" fill="#cc1d1d"/>
    <rect x="20.46" y="28.03" width="1.52" height="1.51" fill="#cc1d1d"/>
    <rect x="20.46" y="26.51" width="1.52" height="1.52" fill="#cc1d1d"/>
    <rect x="20.46" y="25" width="1.52" height="1.51" fill="#cc1d1d"/>
    <rect x="20.46" y="23.49" width="1.52" height="1.52" fill="#cc1d1d"/>
    <rect x="20.46" y="21.97" width="1.52" height="1.51" fill="#cc1d1d"/>
    <rect x="20.46" y="20.46" width="1.52" height="1.52" fill="#cc1d1d"/>
    <rect x="20.46" y="18.94" width="1.52" height="1.51" fill="#cc1d1d"/>
    <rect x="20.46" y="17.43" width="1.52" height="1.52" fill="#cc1d1d"/>
    <rect x="20.46" y="15.91" width="1.52" height="1.51" fill="#ef5454"/>
    <rect x="20.46" y="14.4" width="1.52" height="1.52" fill="#fff"/>
    <rect x="18.94" y="35.6" width="1.51" height="1.51" fill="#fff"/>
    <rect x="18.94" y="34.09" width="1.51" height="1.52" fill="#aa0707"/>
    <rect x="18.94" y="32.57" width="1.51" height="1.51" fill="#cc1d1d"/>
    <rect x="18.94" y="31.06" width="1.51" height="1.52" fill="#cc1d1d"/>
    <rect x="18.94" y="29.54" width="1.51" height="1.51" fill="#cc1d1d"/>
    <rect x="18.94" y="28.03" width="1.51" height="1.51" fill="#cc1d1d"/>
    <rect x="18.94" y="26.51" width="1.51" height="1.52" fill="#cc1d1d"/>
    <rect x="18.94" y="25" width="1.51" height="1.51" fill="#aa0707"/>
    <rect x="18.94" y="23.49" width="1.51" height="1.52" fill="#aa0707"/>
    <rect x="18.94" y="21.97" width="1.51" height="1.51" fill="#cc1d1d"/>
    <rect x="18.94" y="20.46" width="1.51" height="1.52" fill="#cc1d1d"/>
    <rect x="18.94" y="18.94" width="1.51" height="1.51" fill="#cc1d1d"/>
    <rect x="18.94" y="17.43" width="1.51" height="1.52" fill="#cc1d1d"/>
    <rect x="18.94" y="15.91" width="1.51" height="1.51" fill="#cc1d1d"/>
    <rect x="18.94" y="14.4" width="1.51" height="1.52" fill="#ef5454"/>
    <rect x="18.94" y="12.88" width="1.51" height="1.51" fill="#fff"/>
    <rect x="17.43" y="37.12" width="1.51" height="1.52" fill="#fff"/>
    <rect x="17.43" y="35.6" width="1.51" height="1.51" fill="#aa0707"/>
    <rect x="17.43" y="34.09" width="1.51" height="1.52" fill="#cc1d1d"/>
    <rect x="17.43" y="32.57" width="1.51" height="1.51" fill="#cc1d1d"/>
    <rect x="17.43" y="31.06" width="1.51" height="1.52" fill="#cc1d1d"/>
    <rect x="17.43" y="29.54" width="1.51" height="1.51" fill="#cc1d1d"/>
    <rect x="17.43" y="28.03" width="1.51" height="1.51" fill="#cc1d1d"/>
    <rect x="17.43" y="26.51" width="1.51" height="1.52" fill="#ef5454"/>
    <rect x="17.43" y="25" width="1.51" height="1.51" fill="#fff"/>
    <rect x="17.43" y="23.49" width="1.51" height="1.52" fill="#fff"/>
    <rect x="17.43" y="21.97" width="1.51" height="1.51" fill="#aa0707"/>
    <rect x="17.43" y="20.46" width="1.51" height="1.52" fill="#cc1d1d"/>
    <rect x="17.43" y="18.94" width="1.51" height="1.51" fill="#cc1d1d"/>
    <rect x="17.43" y="17.43" width="1.51" height="1.52" fill="#cc1d1d"/>
    <rect x="17.43" y="15.91" width="1.51" height="1.51" fill="#cc1d1d"/>
    <rect x="17.43" y="14.4" width="1.51" height="1.52" fill="#cc1d1d"/>
    <rect x="17.43" y="12.88" width="1.51" height="1.51" fill="#ef5454"/>
    <rect x="17.43" y="11.37" width="1.51" height="1.51" fill="#fff"/>
    <rect x="15.91" y="38.63" width="1.52" height="1.51" fill="#fff"/>
    <rect x="15.91" y="37.12" width="1.52" height="1.52" fill="#aa0707"/>
    <rect x="15.91" y="35.6" width="1.52" height="1.51" fill="#cc1d1d"/>
    <rect x="15.91" y="34.09" width="1.52" height="1.52" fill="#cc1d1d"/>
    <rect x="15.91" y="32.57" width="1.52" height="1.51" fill="#cc1d1d"/>
    <rect x="15.91" y="31.06" width="1.52" height="1.52" fill="#cc1d1d"/>
    <rect x="15.91" y="29.54" width="1.52" height="1.51" fill="#cc1d1d"/>
    <rect x="15.91" y="28.03" width="1.52" height="1.51" fill="#ef5454"/>
    <rect x="15.91" y="26.51" width="1.52" height="1.52" fill="#fff"/>
    <rect x="15.91" y="21.97" width="1.52" height="1.51" fill="#fff"/>
    <rect x="15.91" y="20.46" width="1.52" height="1.52" fill="#aa0707"/>
    <rect x="15.91" y="18.94" width="1.52" height="1.51" fill="#cc1d1d"/>
    <rect x="15.91" y="17.43" width="1.52" height="1.52" fill="#cc1d1d"/>
    <rect x="15.91" y="15.91" width="1.52" height="1.51" fill="#cc1d1d"/>
    <rect x="15.91" y="14.4" width="1.52" height="1.52" fill="#cc1d1d"/>
    <rect x="15.91" y="12.88" width="1.52" height="1.51" fill="#cc1d1d"/>
    <rect x="15.91" y="11.37" width="1.52" height="1.51" fill="#ef5454"/>
    <rect x="15.91" y="9.85" width="1.52" height="1.52" fill="#fff"/>
    <rect x="14.4" y="40.15" width="1.51" height="1.52" fill="#fff"/>
    <rect x="14.4" y="38.63" width="1.51" height="1.51" fill="#aa0707"/>
    <rect x="14.4" y="37.12" width="1.51" height="1.52" fill="#cc1d1d"/>
    <rect x="14.4" y="35.6" width="1.51" height="1.51" fill="#cc1d1d"/>
    <rect x="14.4" y="34.09" width="1.51" height="1.52" fill="#cc1d1d"/>
    <rect x="14.4" y="32.57" width="1.51" height="1.51" fill="#cc1d1d"/>
    <rect x="14.4" y="31.06" width="1.51" height="1.52" fill="#cc1d1d"/>
    <rect x="14.4" y="29.54" width="1.51" height="1.51" fill="#ef5454"/>
    <rect x="14.4" y="28.03" width="1.51" height="1.51" fill="#fff"/>
    <rect x="14.4" y="20.46" width="1.51" height="1.52" fill="#fff"/>
    <rect x="14.4" y="18.94" width="1.51" height="1.51" fill="#aa0707"/>
    <rect x="14.4" y="17.43" width="1.51" height="1.52" fill="#cc1d1d"/>
    <rect x="14.4" y="15.91" width="1.51" height="1.51" fill="#cc1d1d"/>
    <rect x="14.4" y="14.4" width="1.51" height="1.52" fill="#cc1d1d"/>
    <rect x="14.4" y="12.88" width="1.51" height="1.51" fill="#cc1d1d"/>
    <rect x="14.4" y="11.37" width="1.51" height="1.51" fill="#cc1d1d"/>
    <rect x="14.4" y="9.85" width="1.51" height="1.52" fill="#ef5454"/>
    <rect x="14.4" y="8.34" width="1.51" height="1.51" fill="#fff"/>
    <rect x="12.88" y="41.66" width="1.52" height="1.51" fill="#fff"/>
    <rect x="12.88" y="40.15" width="1.52" height="1.52" fill="#aa0707"/>
    <rect x="12.88" y="38.63" width="1.52" height="1.51" fill="#cc1d1d"/>
    <rect x="12.88" y="37.12" width="1.52" height="1.52" fill="#cc1d1d"/>
    <rect x="12.88" y="35.6" width="1.52" height="1.51" fill="#cc1d1d"/>
    <rect x="12.88" y="34.09" width="1.52" height="1.52" fill="#cc1d1d"/>
    <rect x="12.88" y="32.57" width="1.52" height="1.51" fill="#cc1d1d"/>
    <rect x="12.88" y="31.06" width="1.52" height="1.52" fill="#ef5454"/>
    <rect x="12.88" y="29.54" width="1.52" height="1.51" fill="#fff"/>
    <rect x="12.88" y="18.94" width="1.52" height="1.51" fill="#fff"/>
    <rect x="12.88" y="17.43" width="1.52" height="1.52" fill="#aa0707"/>
    <rect x="12.88" y="15.91" width="1.52" height="1.51" fill="#cc1d1d"/>
    <rect x="12.88" y="14.4" width="1.52" height="1.52" fill="#cc1d1d"/>
    <rect x="12.88" y="12.88" width="1.52" height="1.51" fill="#cc1d1d"/>
    <rect x="12.88" y="11.37" width="1.52" height="1.51" fill="#cc1d1d"/>
    <rect x="12.88" y="9.85" width="1.52" height="1.52" fill="#cc1d1d"/>
    <rect x="12.88" y="8.34" width="1.52" height="1.51" fill="#ef5454"/>
    <rect x="12.88" y="6.82" width="1.52" height="1.52" fill="#fff"/>
    <rect x="11.37" y="43.18" width="1.51" height="1.52" fill="#fff"/>
    <rect x="11.37" y="41.66" width="1.51" height="1.51" fill="#aa0707"/>
    <rect x="11.37" y="40.15" width="1.51" height="1.52" fill="#cc1d1d"/>
    <rect x="11.37" y="38.63" width="1.51" height="1.51" fill="#cc1d1d"/>
    <rect x="11.37" y="37.12" width="1.51" height="1.52" fill="#cc1d1d"/>
    <rect x="11.37" y="35.6" width="1.51" height="1.51" fill="#cc1d1d"/>
    <rect x="11.37" y="34.09" width="1.51" height="1.52" fill="#cc1d1d"/>
    <rect x="11.37" y="32.57" width="1.51" height="1.51" fill="#ef5454"/>
    <rect x="11.37" y="31.06" width="1.51" height="1.52" fill="#fff"/>
    <rect x="11.37" y="17.43" width="1.51" height="1.52" fill="#fff"/>
    <rect x="11.37" y="15.91" width="1.51" height="1.51" fill="#aa0707"/>
    <rect x="11.37" y="14.4" width="1.51" height="1.52" fill="#cc1d1d"/>
    <rect x="11.37" y="12.88" width="1.51" height="1.51" fill="#cc1d1d"/>
    <rect x="11.37" y="11.37" width="1.51" height="1.51" fill="#cc1d1d"/>
    <rect x="11.37" y="9.85" width="1.51" height="1.52" fill="#cc1d1d"/>
    <rect x="11.37" y="8.34" width="1.51" height="1.51" fill="#cc1d1d"/>
    <rect x="11.37" y="6.82" width="1.51" height="1.52" fill="#ef5454"/>
    <rect x="11.37" y="5.31" width="1.51" height="1.51" fill="#fff"/>
    <rect x="9.85" y="44.69" width="1.52" height="1.51" fill="#fff"/>
    <rect x="9.85" y="43.18" width="1.52" height="1.52" fill="#aa0707"/>
    <rect x="9.85" y="41.66" width="1.52" height="1.51" fill="#cc1d1d"/>
    <rect x="9.85" y="40.15" width="1.52" height="1.52" fill="#cc1d1d"/>
    <rect x="9.85" y="38.63" width="1.52" height="1.51" fill="#cc1d1d"/>
    <rect x="9.85" y="37.12" width="1.52" height="1.52" fill="#cc1d1d"/>
    <rect x="9.85" y="35.6" width="1.52" height="1.51" fill="#cc1d1d"/>
    <rect x="9.85" y="34.09" width="1.52" height="1.52" fill="#ef5454"/>
    <rect x="9.85" y="32.57" width="1.52" height="1.51" fill="#fff"/>
    <rect x="9.85" y="15.91" width="1.52" height="1.51" fill="#fff"/>
    <rect x="9.85" y="14.4" width="1.52" height="1.52" fill="#aa0707"/>
    <rect x="9.85" y="12.88" width="1.52" height="1.51" fill="#cc1d1d"/>
    <rect x="9.85" y="11.37" width="1.52" height="1.51" fill="#cc1d1d"/>
    <rect x="9.85" y="9.85" width="1.52" height="1.52" fill="#cc1d1d"/>
    <rect x="9.85" y="8.34" width="1.52" height="1.51" fill="#cc1d1d"/>
    <rect x="9.85" y="6.82" width="1.52" height="1.52" fill="#cc1d1d"/>
    <rect x="9.85" y="5.31" width="1.52" height="1.51" fill="#ef5454"/>
    <rect x="9.85" y="3.79" width="1.52" height="1.52" fill="#fff"/>
    <rect x="8.34" y="46.2" width="1.51" height="1.51" fill="#fff"/>
    <rect x="8.34" y="44.69" width="1.51" height="1.51" fill="#aa0707"/>
    <rect x="8.34" y="43.18" width="1.51" height="1.52" fill="#cc1d1d"/>
    <rect x="8.34" y="41.66" width="1.51" height="1.51" fill="#cc1d1d"/>
    <rect x="8.34" y="40.15" width="1.51" height="1.52" fill="#cc1d1d"/>
    <rect x="8.34" y="38.63" width="1.51" height="1.51" fill="#cc1d1d"/>
    <rect x="8.34" y="37.12" width="1.51" height="1.52" fill="#cc1d1d"/>
    <rect x="8.34" y="35.6" width="1.51" height="1.51" fill="#ef5454"/>
    <rect x="8.34" y="34.09" width="1.51" height="1.52" fill="#fff"/>
    <rect x="8.34" y="14.4" width="1.51" height="1.52" fill="#fff"/>
    <rect x="8.34" y="12.88" width="1.51" height="1.51" fill="#aa0707"/>
    <rect x="8.34" y="11.37" width="1.51" height="1.51" fill="#cc1d1d"/>
    <rect x="8.34" y="9.85" width="1.51" height="1.52" fill="#cc1d1d"/>
    <rect x="8.34" y="8.34" width="1.51" height="1.51" fill="#cc1d1d"/>
    <rect x="8.34" y="6.82" width="1.51" height="1.52" fill="#cc1d1d"/>
    <rect x="8.34" y="5.31" width="1.51" height="1.51" fill="#cc1d1d"/>
    <rect x="8.34" y="3.79" width="1.51" height="1.52" fill="#ef5454"/>
    <rect x="8.34" y="2.28" width="1.51" height="1.51" fill="#fff"/>
    <rect x="6.82" y="46.2" width="1.52" height="1.51" fill="#fff"/>
    <rect x="6.82" y="44.69" width="1.52" height="1.51" fill="#aa0707"/>
    <rect x="6.82" y="43.18" width="1.52" height="1.52" fill="#cc1d1d"/>
    <rect x="6.82" y="41.66" width="1.52" height="1.51" fill="#cc1d1d"/>
    <rect x="6.82" y="40.15" width="1.52" height="1.52" fill="#cc1d1d"/>
    <rect x="6.82" y="38.63" width="1.52" height="1.51" fill="#cc1d1d"/>
    <rect x="6.82" y="37.12" width="1.52" height="1.52" fill="#ef5454"/>
    <rect x="6.82" y="35.6" width="1.52" height="1.51" fill="#fff"/>
    <rect x="6.82" y="12.88" width="1.52" height="1.51" fill="#fff"/>
    <rect x="6.82" y="11.37" width="1.52" height="1.51" fill="#aa0707"/>
    <rect x="6.82" y="9.85" width="1.52" height="1.52" fill="#cc1d1d"/>
    <rect x="6.82" y="8.34" width="1.52" height="1.51" fill="#cc1d1d"/>
    <rect x="6.82" y="6.82" width="1.52" height="1.52" fill="#cc1d1d"/>
    <rect x="6.82" y="5.31" width="1.52" height="1.51" fill="#cc1d1d"/>
    <rect x="6.82" y="3.79" width="1.52" height="1.52" fill="#ef5454"/>
    <rect x="6.82" y="2.28" width="1.52" height="1.51" fill="#fff"/>
    <rect x="5.31" y="44.69" width="1.51" height="1.51" fill="#fff"/>
    <rect x="5.31" y="43.18" width="1.51" height="1.52" fill="#aa0707"/>
    <rect x="5.31" y="41.66" width="1.51" height="1.51" fill="#cc1d1d"/>
    <rect x="5.31" y="40.15" width="1.51" height="1.52" fill="#cc1d1d"/>
    <rect x="5.31" y="38.63" width="1.51" height="1.51" fill="#ef5454"/>
    <rect x="5.31" y="37.12" width="1.51" height="1.52" fill="#fff"/>
    <rect x="5.31" y="11.37" width="1.51" height="1.51" fill="#fff"/>
    <rect x="5.31" y="9.85" width="1.51" height="1.52" fill="#aa0707"/>
    <rect x="5.31" y="8.34" width="1.51" height="1.51" fill="#cc1d1d"/>
    <rect x="5.31" y="6.82" width="1.51" height="1.52" fill="#cc1d1d"/>
    <rect x="5.31" y="5.31" width="1.51" height="1.51" fill="#ef5454"/>
    <rect x="5.31" y="3.79" width="1.51" height="1.52" fill="#fff"/>
    <rect x="3.79" y="43.18" width="1.52" height="1.52" fill="#fff"/>
    <rect x="3.79" y="41.66" width="1.52" height="1.51" fill="#aa0707"/>
    <rect x="3.79" y="40.15" width="1.52" height="1.52" fill="#ef5454"/>
    <rect x="3.79" y="38.63" width="1.52" height="1.51" fill="#fff"/>
    <rect x="3.79" y="9.85" width="1.52" height="1.52" fill="#fff"/>
    <rect x="3.79" y="8.34" width="1.52" height="1.51" fill="#aa0707"/>
    <rect x="3.79" y="6.82" width="1.52" height="1.52" fill="#ef5454"/>
    <rect x="3.79" y="5.31" width="1.52" height="1.51" fill="#fff"/>
    <rect x="2.28" y="41.66" width="1.51" height="1.51" fill="#fff"/>
    <rect x="2.28" y="40.15" width="1.51" height="1.52" fill="#fff"/>
    <rect x="2.28" y="8.34" width="1.51" height="1.51" fill="#fff"/>
    <rect x="2.28" y="6.82" width="1.51" height="1.52" fill="#fff"/>
  </g>
</svg>
