<svg id="Capa_1" data-name="Capa 1" xmlns="http://www.w3.org/2000/svg" xmlns:xlink="http://www.w3.org/1999/xlink" width="50" height="50" viewBox="0 0 50 50">
  <defs>
    <clipPath id="clip-path">
      <polygon points="24.04 49.76 1.25 39.47 1.41 9.17 24.2 19.46 24.04 49.76" fill="none"/>
    </clipPath>
    <clipPath id="clip-path-2">
      <polygon points="24.2 19.46 1.41 9.17 25.96 0.24 48.74 10.53 24.2 19.46" fill="none"/>
    </clipPath>
    <clipPath id="clip-path-3">
      <polygon points="48.74 10.53 48.59 40.82 24.04 49.76 24.2 19.46 48.74 10.53" fill="none"/>
    </clipPath>
  </defs>
  <g id="Figment_lido">
    <g style="isolation: isolate">
      <g>
        <polygon points="24.04 49.76 1.25 39.47 1.41 9.17 24.2 19.46 24.04 49.76" fill="#d6d6d6"/>
        <g style="isolation: isolate">
          <g clip-path="url(#clip-path)">
            <g>
              <path d="M11.18,21.26l0,0c-3.73-1.67-6.78,1.08-6.8,6.16s3,10.55,6.73,12.23l0-3.5a.85.85,0,0,0,0,.33c0,.22,0,.44,0,.66h0c-.11,0-.19-.19-.28-.3L7.94,33.31c-.36-.45-.36-1.41,0-1.58a.43.43,0,0,1,.38,0,1.07,1.07,0,0,1,.37.35c.7.91,1.43,1.78,2.14,2.66.07.08.13.22.21.25s.05,0,.07,0h0V33.21a.64.64,0,0,0,0,.32c0,.24,0,.47,0,.7C10,32.91,9,31.59,7.88,30.29a.57.57,0,0,1-.15-.47v-.51c0-.46.27-.66.56-.53a1,1,0,0,1,.3.25l2.22,2.75c.08.1.15.23.25.28h0V30.28a.69.69,0,0,0,0,.33c0,.24,0,.47,0,.7L7.88,27.36A.57.57,0,0,1,7.74,27c0-.24,0-.5,0-.75s0-.23.13-.26c1.09-.33,2.14-.78,3.25-1.06l0,0,0-3.66" fill="#fda301"/>
              <path d="M11.18,21.26l0,3.66L14.45,29l-1.38.48c-.56.2-1.12.4-1.69.56a.38.38,0,0,0-.26.22v1.79c.77-.18,1.49-.49,2.23-.73.26-.08.39-.12.52-.07s.28.26.56.67l-2.09.72a8.1,8.1,0,0,1-.95.31.33.33,0,0,0-.27.24V35a20.85,20.85,0,0,0,2.23-.75.6.6,0,0,1,.49,0,1.58,1.58,0,0,1,.58.65l-2,.68c-.34.12-.68.25-1,.34a.36.36,0,0,0-.28.25l0,3.5c3.73,1.67,6.77-1.08,6.79-6.16s-3-10.51-6.68-12.21" fill="#fd4201"/>
              <path d="M11.12,24.88c-1.11.28-2.16.73-3.25,1.06-.1,0-.14.11-.13.26s0,.51,0,.75a.57.57,0,0,0,.14.41l3.21,3.95c0-.23,0-.46,0-.7a.69.69,0,0,1,0-.33.38.38,0,0,1,.26-.22c.57-.16,1.13-.36,1.69-.56L14.45,29l-3.29-4.1,0,0" fill="#fefdfc"/>
              <path d="M8.3,31.71a.43.43,0,0,0-.38,0c-.34.17-.34,1.13,0,1.58l2.84,3.51c.09.11.17.25.28.3h0c0-.22,0-.44,0-.66a.85.85,0,0,1,0-.33.36.36,0,0,1,.28-.25c.36-.09.7-.22,1-.34l2-.68a1.58,1.58,0,0,0-.58-.65.6.6,0,0,0-.49,0A20.85,20.85,0,0,1,11.1,35h0s0,0-.07,0-.14-.17-.21-.25c-.71-.88-1.44-1.75-2.14-2.66a1.07,1.07,0,0,0-.37-.35" fill="#fefbf8"/>
              <path d="M13.86,31.27c-.13-.05-.26,0-.52.07-.74.24-1.46.55-2.23.73h0c-.1-.05-.17-.18-.25-.28L8.59,29a1,1,0,0,0-.3-.25c-.29-.13-.56.07-.56.53v.51a.57.57,0,0,0,.15.47c1.07,1.3,2.13,2.62,3.2,3.94,0-.23,0-.46,0-.7a.64.64,0,0,1,0-.32.33.33,0,0,1,.27-.24,8.1,8.1,0,0,0,.95-.31l2.09-.72c-.28-.41-.42-.6-.56-.67" fill="#fefbf8"/>
              <path d="M20.77,25.56H20.7L19.31,26a.14.14,0,0,1-.11,0,.25.25,0,0,1-.09-.09l-1.39-1.74-.07-.06s0,0-.07,0a3.21,3.21,0,0,0-.08,2.57A3.54,3.54,0,0,0,19.19,29l.26.07c1.37.39,2.12-1.43,1.39-3.35,0-.06-.05-.1-.07-.11" fill="#00a2fd"/>
              <path d="M19.16,24.91l-.83-1,0-.13.88-1.46,0,0,.06.11c.26.65.5,1.29.75,1.94,0,.11.13.26.11.34s-.13.06-.2.09l-.65.23-.12-.05m.06-3.43L17.89,23.7l0,.14,1.23,1.53.12.05L20.49,25c.06,0,.08-.05,0-.15L20,23.59c-.27-.7-.53-1.39-.82-2.11" fill="#009ff9"/>
            </g>
          </g>
        </g>
      </g>
      <g>
        <polygon points="24.2 19.46 1.41 9.17 25.96 0.24 48.74 10.53 24.2 19.46" fill="#ebebeb"/>
        <g style="isolation: isolate">
          <g clip-path="url(#clip-path-2)">
            <g>
              <path d="M17.83,8h0c-4.11,1.5-4.43,4.08-.7,5.76s10.1,1.84,14.21.34L28.74,13a.61.61,0,0,0,.22.12,5.44,5.44,0,0,1,.5.22h0a1.87,1.87,0,0,1-.44.06l-4.77.4c-.61.05-1.32-.27-1.18-.51a.47.47,0,0,1,.27-.22,2.84,2.84,0,0,1,.55-.09c1.21-.08,2.41-.19,3.62-.29a1.86,1.86,0,0,0,.34,0l.06,0h0L26.59,12a.63.63,0,0,0,.22.11c.2.07.35.16.52.23L22,12.79a.87.87,0,0,1-.46-.07l-.38-.18c-.34-.15-.28-.36.05-.48a1.42,1.42,0,0,1,.41-.08l3.74-.31a2.3,2.3,0,0,0,.4-.05l0,0h0l-1.3-.6a.39.39,0,0,0,.22.13,3.42,3.42,0,0,1,.51.23l-5.39.46a.74.74,0,0,1-.41-.06c-.17-.08-.36-.17-.55-.24s-.15-.1-.1-.16c.6-.71,1.08-1.44,1.72-2.14h.06L17.83,8" fill="#fda301"/>
              <path d="M17.83,8l2.68,1.22,5.57-.46-.71.92c-.29.37-.56.74-.89,1.1-.07.09-.09.16,0,.22l1.3.6c.47-.48.79-1,1.19-1.47.13-.16.2-.25.34-.3a3.64,3.64,0,0,1,.94-.09l-1.09,1.38a7.26,7.26,0,0,1-.5.63c-.08.08-.11.16,0,.23l1.3.59a16.81,16.81,0,0,0,1.17-1.48.72.72,0,0,1,.36-.27,2.81,2.81,0,0,1,.92-.11l-1,1.32a8.61,8.61,0,0,1-.55.68c-.08.09-.11.17,0,.24l2.56,1.16c4.11-1.49,4.42-4.07.69-5.76S21.94,6.52,17.83,8" fill="#fd4201"/>
              <path d="M20.45,9.22c-.64.7-1.12,1.43-1.72,2.14-.05.06,0,.11.1.16s.38.16.55.24a.74.74,0,0,0,.41.06l5.39-.46a3.42,3.42,0,0,0-.51-.23.39.39,0,0,1-.22-.13c-.06-.06,0-.13,0-.22.33-.36.6-.73.89-1.1l.71-.92-5.57.46h-.06" fill="#fefdfc"/>
              <path d="M23.32,13a.47.47,0,0,0-.27.22c-.14.24.57.56,1.18.51l4.77-.4a1.87,1.87,0,0,0,.44-.06h0a5.44,5.44,0,0,0-.5-.22.61.61,0,0,1-.22-.12c-.08-.07,0-.15,0-.24a8.61,8.61,0,0,0,.55-.68l1-1.32a2.81,2.81,0,0,0-.92.11.72.72,0,0,0-.36.27,16.81,16.81,0,0,1-1.17,1.48h0l-.06,0a1.86,1.86,0,0,1-.34,0c-1.21.1-2.41.21-3.62.29a2.84,2.84,0,0,0-.55.09" fill="#fefbf8"/>
              <path d="M27.28,9.83c-.14.05-.21.14-.34.3-.4.49-.72,1-1.19,1.47h0l0,0a2.3,2.3,0,0,1-.4.05L21.57,12a1.42,1.42,0,0,0-.41.08c-.33.12-.39.33-.05.48l.38.18a.87.87,0,0,0,.46.07l5.38-.47c-.17-.07-.32-.16-.52-.23a.63.63,0,0,1-.22-.11c-.07-.07,0-.15,0-.23a7.26,7.26,0,0,0,.5-.63l1.09-1.38a3.64,3.64,0,0,0-.94.09" fill="#fefbf8"/>
              <path d="M28.39,4.15a.1.1,0,0,0-.05,0c-.24.3-.49.61-.72.92a.12.12,0,0,1-.08.06l-.13,0-2.36.19-.1,0s0,0,0,0c.22.43.83.74,1.84.89a6.22,6.22,0,0,0,2.91-.21L29.93,6c1.34-.62.58-1.63-1.4-1.86a.32.32,0,0,0-.14,0" fill="#00a2fd"/>
              <path d="M26.67,4.82l-1.4.11-.12,0-.39-1v0h.13l2,.22a1.92,1.92,0,0,1,.34.05s0,.1-.09.14l-.33.44-.13.05M24.19,3.65c.2.5.41,1,.61,1.47l.13,0L27,5l.14-.06.63-.8s0-.06-.09-.07l-1.3-.15-2.19-.25" fill="#009ff9"/>
            </g>
          </g>
        </g>
      </g>
      <g>
        <polygon points="48.74 10.53 48.59 40.82 24.04 49.76 24.2 19.46 48.74 10.53" fill="#f0f0f0"/>
        <g style="isolation: isolate">
          <g clip-path="url(#clip-path-3)">
            <g>
              <path d="M34.69,23.28l0,0c-4.11,1.49-7.47,6.82-7.5,11.9s3.29,8,7.41,6.47l0-3.5a.81.81,0,0,0,0,.35c0,.21,0,.44,0,.66h0c-.13,0-.21,0-.31-.06L31.12,38c-.4-.14-.4-1.1,0-1.56a1,1,0,0,1,.41-.33.54.54,0,0,1,.41,0c.77.32,1.57.57,2.36.84.07,0,.14.11.23.07a.15.15,0,0,0,.08,0h0V35.24a1,1,0,0,0,0,.34,5.45,5.45,0,0,1,0,.7c-1.19-.4-2.35-.81-3.54-1.2-.13,0-.17-.15-.16-.34s0-.34,0-.51a1.11,1.11,0,0,1,.63-1,.44.44,0,0,1,.32,0l2.45.85c.09,0,.17.1.28.06l0,0h0V32.32a.81.81,0,0,0,0,.35c0,.22,0,.47,0,.7l-3.54-1.21c-.11,0-.16-.12-.16-.29s0-.5,0-.74a.47.47,0,0,1,.14-.38c1.2-1.26,2.36-2.59,3.59-3.81h0l0-3.67" fill="#fda301"/>
              <path d="M34.69,23.28l0,3.67,3.64,1.29-1.53,1.65c-.62.67-1.23,1.34-1.86,2a1.19,1.19,0,0,0-.29.45V34.1c.85-.82,1.64-1.74,2.46-2.61a1.88,1.88,0,0,1,.57-.5c.15-.06.3,0,.62.18Q37.11,32.43,36,33.66c-.34.38-.69.77-1.05,1.12a1.08,1.08,0,0,0-.3.46V37c.83-.87,1.68-1.72,2.46-2.64a1.46,1.46,0,0,1,.54-.43.64.64,0,0,1,.64.15L36,36.46c-.38.41-.76.84-1.14,1.22a1.12,1.12,0,0,0-.32.49l0,3.5c4.11-1.49,7.46-6.82,7.49-11.89s-3.27-8-7.36-6.5" fill="#fd4201"/>
              <path d="M34.63,26.94c-1.23,1.22-2.39,2.55-3.59,3.81a.47.47,0,0,0-.14.38c0,.24,0,.49,0,.74s.05.25.16.29l3.54,1.21c0-.23,0-.48,0-.7a.81.81,0,0,1,0-.35,1.19,1.19,0,0,1,.29-.45c.63-.64,1.24-1.31,1.86-2l1.53-1.65L34.66,27h0" fill="#fefdfc"/>
              <path d="M31.51,36.14a1,1,0,0,0-.41.33c-.38.46-.38,1.42,0,1.56l3.12,1.09c.1,0,.18.11.31.06h0c0-.22,0-.45,0-.66a.81.81,0,0,1,0-.35,1.12,1.12,0,0,1,.32-.49c.38-.38.76-.81,1.14-1.22l2.19-2.36a.64.64,0,0,0-.64-.15,1.46,1.46,0,0,0-.54.43c-.78.92-1.63,1.77-2.46,2.64h0a.15.15,0,0,1-.08,0c-.09,0-.16,0-.23-.07-.79-.27-1.59-.52-2.36-.84a.54.54,0,0,0-.41,0" fill="#fefbf8"/>
              <path d="M37.64,31a1.88,1.88,0,0,0-.57.5c-.82.87-1.61,1.79-2.46,2.61h0l0,0c-.11,0-.19,0-.28-.06l-2.45-.85a.44.44,0,0,0-.32,0,1.11,1.11,0,0,0-.63,1c0,.17,0,.34,0,.51s0,.29.16.34c1.19.39,2.35.8,3.54,1.2a5.45,5.45,0,0,0,0-.7,1,1,0,0,1,0-.34,1.08,1.08,0,0,1,.3-.46c.36-.35.71-.74,1.05-1.12q1.15-1.23,2.31-2.49c-.32-.16-.47-.24-.62-.18" fill="#fefbf8"/>
              <path d="M45.26,19.43l-.08.06-1.53,1.66a.24.24,0,0,1-.12.09s-.06,0-.1,0l-1.53-.55s-.06,0-.08,0,0,0-.07.1a3.12,3.12,0,0,0-.09,2.63,1.39,1.39,0,0,0,1.86.73l.29-.14c1.5-.78,2.34-3.23,1.52-4.52,0,0,0-.06-.07-.05" fill="#00a2fd"/>
              <path d="M43.48,20.15l-.91-.33,0-.1c.33-.73.65-1.47,1-2.2l0-.07.06.07c.28.43.55.86.82,1.29,0,.07.15.15.13.24s-.14.18-.22.26l-.72.78-.14.06m.08-3.48L42.09,20l0,.12,1.35.47.14-.05L45,19.11C45,19,45,19,45,18.94l-.53-.85-.9-1.42" fill="#009ff9"/>
            </g>
          </g>
        </g>
      </g>
    </g>
  </g>
</svg>
