<svg id="Capa_1" data-name="Capa 1" xmlns="http://www.w3.org/2000/svg" xmlns:xlink="http://www.w3.org/1999/xlink" width="50" height="50" viewBox="0 0 50 50">
  <defs>
    <clipPath id="clip-path">
      <polygon points="24.05 49.76 1.26 39.47 1.42 9.17 24.2 19.46 24.05 49.76" fill="none"/>
    </clipPath>
    <clipPath id="clip-path-2">
      <polygon points="24.2 19.46 1.42 9.17 25.96 0.24 48.75 10.53 24.2 19.46" fill="none"/>
    </clipPath>
    <clipPath id="clip-path-3">
      <polygon points="48.75 10.53 48.59 40.82 24.05 49.76 24.2 19.46 48.75 10.53" fill="none"/>
    </clipPath>
  </defs>
  <g id="Figment_lido">
    <g style="isolation: isolate">
      <g>
        <polygon points="24.05 49.76 1.26 39.47 1.42 9.17 24.2 19.46 24.05 49.76" fill="#50748f"/>
        <g style="isolation: isolate">
          <g clip-path="url(#clip-path)">
            <g>
              <path d="M10.64,19.62l-1,.34a.27.27,0,0,0,.13.13l.1,0,2.15.95,2.14,1,.11.06c.05,0,.09,0,.13,0a13.46,13.46,0,0,0-1-1.2c-.05.11-.14.08-.22,0l0,0-2.23-1,0,0a.34.34,0,0,1-.24-.27" fill="#fff"/>
              <path d="M16.41,24.54a.12.12,0,0,1-.15,0l-.14-.07L12,22.67,7.94,20.85,7.8,20.8a.27.27,0,0,1-.15-.15.45.45,0,0,0-.28.1.27.27,0,0,0,.15.15l.14.05L12,22.9l4.37,1.94.13.07a.14.14,0,0,0,.16,0,1.66,1.66,0,0,0-.28-.35" fill="#fff"/>
              <path d="M12,19.16a.17.17,0,0,0-.12,0c-.42.17-.85.32-1.27.47a.34.34,0,0,0,.24.27l0,0,2.23,1,0,0c.08,0,.17.07.22,0-.4-.56-.82-1.06-1.24-1.58a.39.39,0,0,0-.15-.14" fill="#fff"/>
              <path d="M16.13,24.2a.12.12,0,0,1-.15,0l-.14-.07L12,22.44,8.22,20.75l-.14-.05a.33.33,0,0,1-.15-.14.41.41,0,0,0-.28.09.27.27,0,0,0,.15.15l.14.05L12,22.67l4.09,1.82.14.07a.12.12,0,0,0,.15,0,1.88,1.88,0,0,0-.28-.34" fill="#fff"/>
              <path d="M15.85,23.85a.12.12,0,0,1-.14,0l-.12-.07L12,22.22,8.47,20.63l-.12,0a.34.34,0,0,1-.14-.13l-.28.1a.33.33,0,0,0,.15.14l.14.05L12,22.44l3.81,1.69.14.07a.12.12,0,0,0,.15,0l-.28-.35" fill="#fff"/>
              <path d="M17.58,37.75l-.14,0-2.21-1-2.22-1c-.14,0-.33,0-.27.33a.32.32,0,0,1,.23,0l0,0,4,1.79.1,0a.29.29,0,0,1,.14.13c.17,0,.3-.07.44-.12a.22.22,0,0,0-.14-.2" fill="#fff"/>
              <path d="M11,35.51,7.48,34l-.09-.05c-.08,0-.16,0-.2.06l.45.56s.1,0,.15,0l.14.07,3.35,1.49v-.31a.46.46,0,0,0-.29-.28" fill="#fff"/>
              <path d="M15.53,23.46a.12.12,0,0,1-.16,0l-.13-.07L12,22,8.81,20.56l-.12,0a.27.27,0,0,1-.16-.16l-.32.11a.34.34,0,0,0,.14.13l.12,0L12,22.22l3.56,1.57.12.07a.12.12,0,0,0,.14,0l-.32-.39" fill="#fff"/>
              <path d="M10.86,35.08l-3.8-1.69c-.13-.06-.24-.09-.32,0a3.67,3.67,0,0,0,.45.56c0-.11.12-.09.2-.06l.09.05L11,35.51a.46.46,0,0,1,.29.28v-.3a.76.76,0,0,0-.42-.41" fill="#fff"/>
              <path d="M13,36.41c-.14-.06-.23,0-.28.11v.15l3.42,1.52.13.05a.28.28,0,0,1,.16.15c.15,0,.24-.13.38-.14a.33.33,0,0,0-.22-.24l0,0-1.78-.78L13,36.41" fill="#fff"/>
              <path d="M16.69,24.89a.14.14,0,0,1-.16,0l-.13-.07L12,22.9,7.66,21l-.14-.05a.27.27,0,0,1-.15-.15l-.22.07A.39.39,0,0,0,7.3,21l.14.05,2,.89,2,.89.07,0a.64.64,0,0,1,.3.23.26.26,0,0,1,.21,0,.58.58,0,0,1,.2.17.39.39,0,0,1,.31.05l.06,0,2,.9,2,.88.14.08a.14.14,0,0,0,.15,0l-.21-.26" fill="#fff"/>
              <path d="M5.8,32.07a.15.15,0,0,0-.16,0c.16.21.33.41.49.61,0-.12.08-.12.14-.1l.14.08,1.94.86,2,.87a1.47,1.47,0,0,0,.43.12,1.32,1.32,0,0,0-.31-.38L6,32.15l-.16-.08" fill="#fff"/>
              <path d="M10,33.64,5.37,31.58c0,.26.15.34.27.48a.15.15,0,0,1,.16,0l.16.08,4.46,2a1.71,1.71,0,0,0-.39-.48" fill="#fff"/>
              <path d="M14,35.4a.48.48,0,0,0-.31.1,1.81,1.81,0,0,0,.43.27l2,.87,2,.88.14,0a.28.28,0,0,1,.15.14c.14,0,.32.06.33-.23L14,35.4" fill="#fff"/>
              <path d="M14.86,22.64a.12.12,0,0,1-.15,0l-.14-.07L12,21.46,9.48,20.33l-.13,0a.26.26,0,0,1-.15-.16.72.72,0,0,0-.33.11.44.44,0,0,0,.15.13l.12,0L14.92,23,15,23a.12.12,0,0,0,.15,0,2.6,2.6,0,0,0-.33-.39" fill="#fff"/>
              <path d="M17.14,37.94l-.1,0-4-1.79,0,0a.32.32,0,0,0-.23,0v.46c0-.15.14-.17.28-.11l1.77.8,1.78.78,0,0a.33.33,0,0,1,.22.24.75.75,0,0,0,.45-.18.29.29,0,0,0-.14-.13" fill="#fff"/>
              <path d="M9.68,33.2,5.37,31.28v.3L10,33.64a1.7,1.7,0,0,0-.35-.44" fill="#fff"/>
              <path d="M15.46,34.88l-.41.15a.33.33,0,0,0,.17.18l.14,0,3.3,1.47v-.38l-2.91-1.29L15.61,35a.32.32,0,0,1-.15-.12" fill="#fff"/>
              <path d="M8.46,31.69a.16.16,0,0,1-.15,0l-.14-.08-2.8-1.24v.38L9,32.34a4.23,4.23,0,0,0-.52-.65" fill="#fff"/>
              <path d="M14.66,35.17a.43.43,0,0,0-.31.1.54.54,0,0,0,.23.18l.12,0,1.32.59,2.64,1.17V37l-4-1.79" fill="#fff"/>
              <path d="M13,36.93c-.23-.1-.22.08-.21.29l1.3.58,1.31.58.13,0c.07,0,.12.08.14.22.2,0,.31-.16.5-.16a.23.23,0,0,0-.15-.21l0,0-1.63-.72L13,36.93h0" fill="#fff"/>
              <path d="M10.44,23.25l-.09,0-4-1.79a2.63,2.63,0,0,0,.39.47l3.71,1.65a.43.43,0,0,0,.29-.1.64.64,0,0,0-.26-.19" fill="#fff"/>
              <path d="M13.82,24.75a1.19,1.19,0,0,0-.46-.13,1.23,1.23,0,0,0,.28.35l3.71,1.65a.76.76,0,0,0,.39-.13l-2-.87-2-.87" fill="#fff"/>
              <path d="M11,36.1h0l-1.23-.54L8.25,34.9l-.08,0c-.08,0-.16,0-.21.06l.45.56c.05-.09.12-.08.19,0l.06,0,.05,0h0l2.5,1.12A.41.41,0,0,0,11,36.1" fill="#fff"/>
              <path d="M14.41,22.08s-.08,0-.13,0L14.17,22l-2.14-1-2.15-.95-.1,0A.27.27,0,0,1,9.65,20l-.28.1a.27.27,0,0,0,.14.14l.12,0L12,21.31l2.4,1.06a.39.39,0,0,0,.11.06c.06,0,.11,0,.15,0l-.28-.34" fill="#fff"/>
              <path d="M11.09,34.94,6.66,33l-.15-.08c-.06,0-.11,0-.16,0a2.27,2.27,0,0,0,.39.47c.08-.11.19-.08.32,0l3.8,1.69a.76.76,0,0,1,.42.41.51.51,0,0,0-.19-.55" fill="#fff"/>
              <path d="M9,32.34,5.37,30.75v.3L9,32.65l.06,0,.06,0a.24.24,0,0,0,.2,0,1.15,1.15,0,0,0-.3-.38" fill="#fff"/>
              <path d="M16,34.7a1.81,1.81,0,0,0-.54.18.32.32,0,0,0,.15.12l.14.06,2.91,1.29V36l-1.58-.7-.8-.35-.06,0-.06,0A.3.3,0,0,1,16,34.7" fill="#fff"/>
              <path d="M18.67,29.55l-.05,0v.53c0,.27-.07.27-.22.2h0l-1.07-.48-1.08-.48v.45l2.39,1.07c0-.1,0-.23.05-.28v-1" fill="#fff"/>
              <path d="M18,37.7l-.1,0-4.58-2a.56.56,0,0,0-.28.1l2.22,1,2.21,1,.14,0a.22.22,0,0,1,.14.2l.39-.12A.29.29,0,0,0,18,37.7" fill="#fff"/>
              <path d="M13.68,35.5a.76.76,0,0,0-.39.13l4.58,2,.1,0a.29.29,0,0,1,.14.13c.1,0,.14-.09.22-.12a.28.28,0,0,0-.15-.14l-.14,0-2-.88-2-.87a1.81,1.81,0,0,1-.43-.27" fill="#fff"/>
              <path d="M6.87,20.92A.39.39,0,0,0,6.6,21a.33.33,0,0,0,.15.14l.14,0L10.94,23l.15.06a.27.27,0,0,1,.16.17.8.8,0,0,0,.4-.14l-4.46-2-.08,0-.08,0a.38.38,0,0,1-.16-.15" fill="#fff"/>
              <path d="M17.18,25.5a.14.14,0,0,1-.16,0l-.08,0-.08,0-4.45-2a2.34,2.34,0,0,0,.39.48c0-.06.1-.05.16,0l.15.07c1.35.6,2.7,1.21,4.06,1.8l.13.07a.13.13,0,0,0,.16,0c-.12-.07-.16-.29-.28-.35" fill="#fff"/>
              <path d="M10.73,34.5a1.47,1.47,0,0,1-.43-.12l-2-.87-1.94-.86-.14-.08c-.06,0-.11,0-.14.1l.22.27c.05-.06.1,0,.16,0l.15.08,4.43,1.95a2,2,0,0,0-.36-.44" fill="#fff"/>
              <path d="M7.92,31c0,.07-.1.06-.17,0L7.61,31l-1.12-.5L5.37,30v.38l2.8,1.24.14.08a.16.16,0,0,0,.15,0A7,7,0,0,0,7.92,31" fill="#fff"/>
              <path d="M5.37,26.07v.6a.6.6,0,0,0,.36.55h0l.88.37,1.17.53v-.45L6.6,27.13l-.91-.39h0a.4.4,0,0,1-.25-.49c0-.06,0-.12,0-.17" fill="#fff"/>
              <path d="M5.38,25.47v.6c0,.05,0,.11,0,.17L7.81,27.3v-.45l-2.15-1-.07,0c-.1,0-.18-.1-.17-.3l0-.09" fill="#fff"/>
              <path d="M11,36.71h0l-.88-.38-1-.45c-.13-.06-.26-.12-.35,0a4,4,0,0,0,.44.56.51.51,0,0,1,.31.06l.17.08.15.08,0,0,.19.08.25.11.24.12a2.48,2.48,0,0,0,.35.13l.06,0a.56.56,0,0,1,.33.53v-.53a.53.53,0,0,0-.29-.44" fill="#fff"/>
              <path d="M6.6,21a.41.41,0,0,0-.29.08.35.35,0,0,0,.16.16l.13,0,4.48,2,.17-.06a.27.27,0,0,0-.16-.17L10.94,23l-4-1.8-.14,0A.33.33,0,0,1,6.6,21" fill="#fff"/>
              <path d="M17.46,25.85a.13.13,0,0,1-.16,0l-.13-.07c-1.36-.59-2.71-1.2-4.06-1.8L13,23.91c-.06,0-.11,0-.16,0l.17.22,4.48,2,.14.07a.11.11,0,0,0,.15,0,1.38,1.38,0,0,0-.28-.34" fill="#fff"/>
              <path d="M7.15,20.82l-.28.1a.38.38,0,0,0,.16.15l.08,0,.08,0,4.46,2a.16.16,0,0,0,.17-.06.64.64,0,0,0-.3-.23l-.07,0-2-.89-2-.89L7.3,21a.39.39,0,0,1-.15-.14" fill="#fff"/>
              <path d="M16.9,25.15a.14.14,0,0,1-.15,0l-.14-.08-2-.88-2-.9-.06,0a.39.39,0,0,0-.31-.05.56.56,0,0,0,.18.22l4.45,2,.08,0,.08,0a.14.14,0,0,0,.16,0l-.28-.35" fill="#fff"/>
              <path d="M17.74,26.19a.11.11,0,0,1-.15,0l-.14-.07-4.48-2a2.27,2.27,0,0,0,.39.47,1.19,1.19,0,0,1,.46.13l2,.87,2,.87c.06,0,.16,0,.14-.1s-.08-.15-.14-.2" fill="#fff"/>
              <path d="M6.31,21.11c-.06,0-.13,0-.14.08s.08.16.14.23l4,1.79.09,0a.64.64,0,0,1,.26.19.86.86,0,0,0,.38-.13l-4.48-2-.13,0a.35.35,0,0,1-.16-.16" fill="#fff"/>
              <path d="M18.62,31.5l-2.39-1.06v.45L18.62,32V31.5" fill="#fff"/>
              <path d="M15.36,23.25a.15.15,0,0,1-.16,0l-.06,0-.07,0L9,20.49l-.07,0-.06,0a.28.28,0,0,1-.16-.15l-.17.06a.27.27,0,0,0,.16.16l.12,0L12,22l3.21,1.42.13.07a.12.12,0,0,0,.16,0l-.17-.21" fill="#fff"/>
              <path d="M14.35,35.27a.59.59,0,0,0-.36.13l4.67,2.08v-.22L16,36.09,14.7,35.5l-.12,0a.54.54,0,0,1-.23-.18" fill="#fff"/>
              <path d="M15.19,23A.12.12,0,0,1,15,23L14.92,23,9.14,20.4l-.12,0a.44.44,0,0,1-.15-.13l-.17.06a.28.28,0,0,0,.16.15l.06,0,.07,0,6.08,2.7.07,0,.06,0a.15.15,0,0,0,.16,0L15.19,23" fill="#fff"/>
              <path d="M9.28,32.72a.24.24,0,0,1-.2,0l-.06,0-.06,0-3.59-1.6v.23L9.68,33.2a2.75,2.75,0,0,0-.4-.48" fill="#fff"/>
              <path d="M18.67,30.54c-.07.05,0,.18-.05.28,0,.26-.07.27-.23.2h0l-.92-.41-1.23-.54v.38l2.39,1.06c0-.08,0-.17.05-.21v-.75" fill="#fff"/>
              <path d="M7.8,30.7,5.37,29.61V30l1.12.5,1.12.5.14.07c.07,0,.12,0,.17,0a.77.77,0,0,1-.12-.33" fill="#fff"/>
              <path d="M13,37.59c-.17-.08-.14.13-.21.21v.38c0-.21.14-.25.31-.17h0l.75.34.3.14.52.22.11.05a.26.26,0,0,1,.14.15l.39-.15c0-.1,0-.14-.07-.17h0L14,38.05l-1-.46h0" fill="#fff"/>
              <path d="M18.66,32l0,0c0,.29,0,.36-.25.27h0l-.91-.41-1.21-.53v.37l2.39,1.06,0-.05V32" fill="#fff"/>
              <path d="M5.37,27.51V28l2.44,1.08v-.38l-1.06-.47-1.06-.47-.07,0a.46.46,0,0,1-.25-.26" fill="#fff"/>
              <path d="M18.66,33.26c-.06.11-.15.08-.25,0l-.06,0L17.64,33l-1.41-.63v.38l2.43,1.08v-.52" fill="#fff"/>
              <path d="M18.66,34l-2.43-1.08v.38l2.43,1.08V34" fill="#fff"/>
              <path d="M7.8,30,5.37,28.94v.37L7.8,30.4V30" fill="#fff"/>
              <path d="M18.66,35.3l-2.43-1.09c0,.13,0,.25,0,.37l2.44,1.09V35.3" fill="#fff"/>
              <path d="M15.53,38.43l-.13,0-1.31-.58-1.3-.58,0,.09s0,0,0,0v.45c.07-.08,0-.29.21-.21h0l1,.46,1.21.54h0c.07,0,.11.07.07.17a.6.6,0,0,0,.39-.12c0-.14-.07-.19-.14-.22" fill="#fff"/>
              <path d="M7.81,27.3,5.42,26.24a.4.4,0,0,0,.25.49h0l.91.39,1.21.55V27.3" fill="#fff"/>
              <path d="M7.81,25.56,5.42,24.5v.38l2.39,1.06v-.38" fill="#fff"/>
              <path d="M7.81,25.94,5.42,24.88a.4.4,0,0,0,.25.49h0l.91.39,1.21.55v-.38" fill="#fff"/>
              <path d="M18.62,32.7l-2.39-1.06V32l1.21.54.91.41h0c.21.09.28,0,.25-.28" fill="#fff"/>
              <path d="M18.62,32l-2.39-1.06v.38l1.21.53.91.41h0c.21.09.28,0,.25-.27" fill="#fff"/>
              <path d="M15.05,35a.69.69,0,0,0-.39.14l4,1.79v-.23l-3.3-1.47-.14,0a.33.33,0,0,1-.17-.18" fill="#fff"/>
              <path d="M11,37.15l-.06,0a2.48,2.48,0,0,1-.35-.13l-.24-.12-.25-.11-.19-.08,0,0-.15-.08-.17-.08a.51.51,0,0,0-.31-.06c.23.27.45.55.67.82.09-.08.2,0,.31,0l.1.05.42.19a1.48,1.48,0,0,0,.27.1l.05,0a.54.54,0,0,1,.28.44v-.38a.56.56,0,0,0-.33-.53" fill="#fff"/>
              <path d="M14.69,22.42s-.09,0-.15,0a.39.39,0,0,1-.11-.06L12,21.31l-2.4-1.07-.12,0a.27.27,0,0,1-.14-.14.18.18,0,0,0-.17.06.26.26,0,0,0,.15.16l.13,0L12,21.46l2.54,1.13.14.07a.12.12,0,0,0,.15,0,.54.54,0,0,0-.17-.22" fill="#fff"/>
              <path d="M7,22.24a2.64,2.64,0,0,0,.39.48l2.34,1.05a.56.56,0,0,0,.39-.13L7,22.24" fill="#fff"/>
              <path d="M17.07,26.72,14,25.35a2.34,2.34,0,0,0,.35.45l2.37,1.05c.13-.06.29,0,.4-.13" fill="#fff"/>
              <path d="M13.05,38c-.17-.08-.27,0-.31.17v.3c0-.11.1-.18.23-.13h0l.57.26.22.1.23.1.08,0c.09,0,.17.09.15.29a2.16,2.16,0,0,0,.66-.23.26.26,0,0,0-.14-.15l-.11-.05-.52-.22-.3-.14L13.07,38h0" fill="#fff"/>
              <path d="M10.41,23.54,6.7,21.89a1.44,1.44,0,0,0,.28.35l3.12,1.4a.42.42,0,0,0,.31-.1" fill="#fff"/>
              <path d="M17.35,26.62,13.64,25a1.32,1.32,0,0,0,.31.38l3.12,1.37a.42.42,0,0,0,.28-.1" fill="#fff"/>
              <path d="M16.22,34.58,16,34.7a.3.3,0,0,0,.16.17l.06,0,.06,0,.8.35,1.58.7v-.3l-2.44-1.09" fill="#fff"/>
              <path d="M5.42,24.8l0,0v.69l0,.09,2.39,1.06v-.3L6.6,25.77l-.91-.39h0a.4.4,0,0,1-.25-.49V24.8" fill="#fff"/>
              <path d="M18.66,32.65l0,.05c0,.3,0,.37-.25.28h0l-.91-.41L16.23,32v.3l1.41.63.71.31.06,0c.1.05.19.08.25,0v-.61" fill="#fff"/>
              <path d="M5.37,26.67v.46a.45.45,0,0,0,.29.35h0l.92.4,1.22.54v-.3L6.64,27.6l-.88-.37h0a.6.6,0,0,1-.36-.55" fill="#fff"/>
              <path d="M5.37,27.13v.38a.46.46,0,0,0,.25.26l.07,0,1.06.47,1.06.47v-.3l-1.22-.54-.92-.4h0a.45.45,0,0,1-.29-.35" fill="#fff"/>
              <path d="M7.81,29.11,5.37,28v.3L7.8,29.41v-.3" fill="#fff"/>
              <path d="M5.37,29.31v.3L7.8,30.7v-.3L5.37,29.31" fill="#fff"/>
              <path d="M7.8,29.41,5.37,28.33v.3L7.8,29.72v-.31" fill="#fff"/>
              <path d="M7.8,29.72,5.37,28.63v.31L7.8,30v-.3" fill="#fff"/>
              <path d="M18.66,34.69l-2.43-1.08v.3L18.66,35v-.3" fill="#fff"/>
              <path d="M18.66,34.39l-2.43-1.08v.3l2.43,1.08v-.3" fill="#fff"/>
              <path d="M18.66,35l-2.43-1.08v.3l2.43,1.09V35" fill="#fff"/>
              <path d="M16.51,29c-.12,0-.3,0-.28.26l1.08.48,1.07.48h0c.15.07.25.07.22-.2l-1.21-.54-.61-.27-.07,0-.06,0a.31.31,0,0,1-.16-.16" fill="#fff"/>
              <path d="M18.62,30.82l-2.39-1.07v.31l1.23.54.92.41h0c.16.07.26.06.23-.2" fill="#fff"/>
              <path d="M5.42,23.21l0,0v.91c0,.06,0,.12,0,.17l1,.43,1,.43.11.07s.08,0,0-.15a1.19,1.19,0,0,0-.28-.34c0,.05-.1,0-.16,0l-.07,0-.08,0-.37-.16-.38-.17-.55-.24c-.12-.06-.23-.11-.22-.32v-.54" fill="#fff"/>
              <path d="M8.6,35.44c-.07,0-.14,0-.19,0a1.64,1.64,0,0,0,.33.4c.09-.12.22-.06.35,0l1,.45.88.38h0a.53.53,0,0,1,.29.44v-.38s0,0,0-.05l0-.11-2.5-1.12h0l-.05,0-.06,0" fill="#fff"/>
              <path d="M13.43,38.92l-.26-.09-.24-.09,0,0h0c-.14-.06,0,.25-.13.3v.68l1.15-.41a1.14,1.14,0,0,0-.46-.36" fill="#fff"/>
              <path d="M16.67,26.85,14.3,25.8a3,3,0,0,0,.39.47L16.3,27a.55.55,0,0,0,.37-.14" fill="#fff"/>
              <path d="M7.37,22.72a2.23,2.23,0,0,0,.38.47l1.61.71a.51.51,0,0,0,.35-.13L7.37,22.72" fill="#fff"/>
              <path d="M16.9,28.9l-.39.14a.31.31,0,0,0,.16.16l.06,0,.07,0,.61.27,1.21.54v-.3l-1.45-.65-.12,0a.32.32,0,0,1-.15-.17" fill="#fff"/>
              <path d="M6.42,23.67a1.24,1.24,0,0,1-.4-.1l-.22-.11-.22-.11-.16-.06v.46l1.31.57.08.05c.05,0,.09,0,.06-.14a4.24,4.24,0,0,0-.45-.56" fill="#fff"/>
              <path d="M16.29,38.24l-.13-.05-3.42-1.52v.68l0,0,0-.09c0-.21,0-.39.21-.29h0l1.35.61,1.63.72,0,0a.23.23,0,0,1,.15.21l.28-.1a.28.28,0,0,0-.16-.15" fill="#fff"/>
              <path d="M7.79,34.54s-.11,0-.15,0l.32.39c0-.11.13-.09.21-.06l.08,0,1.48.66L11,36.1h0a.41.41,0,0,1,.26.51l0,.11,0,.05V36.1L7.93,34.61l-.14-.07" fill="#fff"/>
              <path d="M13,38.35c-.13-.05-.18,0-.23.13V39c.09,0,0-.36.13-.3h0l0,0,.24.09.26.09a1.14,1.14,0,0,1,.46.36l.34-.13c0-.2-.06-.26-.15-.29l-.08,0-.23-.1-.22-.1L13,38.36h0" fill="#fff"/>
              <path d="M11,37.62l-.05,0a1.48,1.48,0,0,1-.27-.1l-.42-.19-.1-.05c-.11,0-.22-.08-.31,0a4.87,4.87,0,0,0,.53.64.69.69,0,0,1,.39.08l.19.09a1.11,1.11,0,0,0,.19.09l.13.05v-.15a.54.54,0,0,0-.28-.44" fill="#fff"/>
              <path d="M7.53,25.05c0,.16,0,.17,0,.15l-.11-.07-1-.43-1-.43v.23l2.39,1.06c0-.28-.16-.36-.28-.51" fill="#fff"/>
              <path d="M18.66,33.78,16.23,32.7v.23L18.66,34v-.23" fill="#fff"/>
              <path d="M9.36,23.9l-1.61-.71.7.9a.32.32,0,0,0,.09.08.14.14,0,0,0,.11,0l.71-.26" fill="#fff"/>
              <path d="M14.69,26.27l.7.89a.47.47,0,0,0,.11.1h.09L16.3,27l-1.61-.72" fill="#fff"/>
              <path d="M7.81,26.62,5.42,25.56c0,.2.07.26.17.3l.07,0,2.15,1v-.23" fill="#fff"/>
              <path d="M10.77,38a.69.69,0,0,0-.39-.08c.28.4.58.74.89,1.13v-.82l-.13-.05a1.11,1.11,0,0,1-.19-.09L10.77,38" fill="#fff"/>
              <path d="M6.87,24.23c0,.15,0,.16-.06.14l-.08-.05-1.31-.57c0,.21.1.26.22.32l.55.24.38.17.37.16.08,0,.07,0c.06,0,.11,0,.16,0a2.06,2.06,0,0,0-.38-.48" fill="#fff"/>
              <path d="M17.18,28.81a.45.45,0,0,0-.28.09.32.32,0,0,0,.15.17l.12,0,1.45.65v-.23L17.44,29l-.11,0a.24.24,0,0,1-.15-.15" fill="#fff"/>
              <path d="M18.67,28.65c-.08.07,0,.23-.05.35s0,.29-.18.23l0,0-.31-.14-.43-.19h0c-.07,0-.12-.07-.08-.19a.76.76,0,0,0-.39.13.24.24,0,0,0,.15.15l.11,0,1.18.53.05,0v-.9" fill="#fff"/>
              <path d="M18.65,28.28c-.28.09-.54.19-.81.29a1,1,0,0,0,.32.24l.18.06.17.07.11.06c0-.12,0-.28.05-.35a.8.8,0,0,0,0-.37" fill="#fff"/>
              <path d="M17.84,28.57l-.27.11c0,.12,0,.16.08.19h0l.43.19.31.14,0,0c.15.06.2,0,.18-.23l-.11-.06-.17-.07-.18-.06a1,1,0,0,1-.32-.24" fill="#fff"/>
              <path d="M6,23.19a.37.37,0,0,1-.25,0l-.13-.07L5.52,23l-.1,0v.3l.16.06.22.11.22.11a1.24,1.24,0,0,0,.4.1L6,23.19" fill="#fff"/>
              <path d="M5.4,22.39a.7.7,0,0,0,0,.35.45.45,0,0,1,0,.25l.1,0,.13.07.13.07a.37.37,0,0,0,.25,0l-.63-.8" fill="#fff"/>
              <path d="M18.67,31.29c-.06,0-.05.13-.05.21V32l0,0v-.68" fill="#fff"/>
              <path d="M5.38,24.1v.68l0,0v-.53c0-.05,0-.11,0-.17" fill="#fff"/>
              <path d="M5.38,22.74v.45l0,0V23a.45.45,0,0,0,0-.25" fill="#fff"/>
              <polyline points="10.4 29.91 9.09 30.41 11.99 34.07 14.99 33.04 13.62 31.35 11.98 31.92 10.4 29.91" fill="#fff" opacity="0.33"/>
              <path d="M13.62,29.2l-1.36.47,1.36,1.68L15,30.88,13.62,29.2m-3.19-1.46-1.35.51,1.32,1.66,1.34-.51-1.31-1.66" fill="#fff" opacity="0.18"/>
              <polyline points="11.74 29.4 10.4 29.91 11.98 31.92 13.62 31.35 12.26 29.67 12.02 29.75 11.74 29.4" fill="#fff" opacity="0.45"/>
              <polyline points="12.01 24.99 9.13 26.09 10.43 27.74 11.97 27.16 13.63 29.2 15.03 28.72 12.01 24.99" fill="#fff" opacity="0.73"/>
              <polyline points="11.97 27.16 10.43 27.74 11.74 29.4 11.97 29.31 12.26 29.67 13.63 29.2 11.97 27.16" fill="#fff" opacity="0.78"/>
              <polyline points="11.97 29.31 11.74 29.4 12.02 29.75 12.26 29.67 11.97 29.31" fill="#fff" opacity="0.85"/>
            </g>
          </g>
        </g>
      </g>
      <g>
        <polygon points="24.2 19.46 1.42 9.17 25.96 0.24 48.75 10.53 24.2 19.46" fill="#587f9d"/>
        <g style="isolation: isolate">
          <g clip-path="url(#clip-path-2)">
            <g>
              <path d="M16.68,7.64l-.51.66a.6.6,0,0,0,.2,0l.1,0,2.37-.86,2.36-.86.12,0c.05,0,.09,0,.09-.08-.55,0-1.12.07-1.65.15,0,.06,0,.1-.14.13l-.05,0-2.46.9h0a.61.61,0,0,1-.39,0" fill="#fff"/>
              <path d="M24.77,6.11s-.05.07-.11.09l-.15,0L20,7.89,15.49,9.53l-.14.06a.49.49,0,0,1-.22,0,.33.33,0,0,0-.15.19.51.51,0,0,0,.23,0l.14-.06L20.17,8,25,6.21l.16,0c.06,0,.1,0,.1-.08a2.48,2.48,0,0,0-.47,0" fill="#fff"/>
              <path d="M17.42,6.73l-.1.07c-.2.28-.42.56-.64.84a.61.61,0,0,0,.39,0h0l2.46-.9.05,0c.1,0,.18-.07.14-.13-.71,0-1.41.1-2.11.15l-.23,0" fill="#fff"/>
              <path d="M24.3,6.15s-.05.07-.11.09l-.16,0-4.2,1.53-4.2,1.53-.14.05a.48.48,0,0,1-.22,0,.32.32,0,0,0-.14.18.49.49,0,0,0,.22,0l.14-.06L20,7.89l4.51-1.64.15,0c.06,0,.11,0,.11-.09a3.73,3.73,0,0,0-.47,0" fill="#fff"/>
              <path d="M23.84,6.19s-.06.06-.11.08l-.14,0L19.67,7.74,15.75,9.17l-.13.05a.6.6,0,0,1-.21,0l-.14.18a.48.48,0,0,0,.22,0l.14-.05,4.2-1.53L24,6.29l.16,0c.06,0,.11,0,.11-.09l-.46,0" fill="#fff"/>
              <path d="M35.39,9.84l-.15.06-2.44.89-2.44.88c-.09.09-.26.18,0,.26a.38.38,0,0,1,.19-.11l.05,0,4.44-1.62.1,0a.62.62,0,0,1,.21,0c.16-.08.18-.19.26-.28a.36.36,0,0,0-.26,0" fill="#fff"/>
              <path d="M28.63,12.71l-3.86,1.41-.1,0c-.09,0-.16.07-.12.13l.76-.06a.26.26,0,0,1,.13-.08l.16-.05,3.68-1.35-.22-.1a.83.83,0,0,0-.43.07" fill="#fff"/>
              <path d="M23.29,6.24s0,.07-.1.09l-.15,0L19.5,7.67,16,9l-.14,0a.51.51,0,0,1-.23,0l-.18.22a.6.6,0,0,0,.21,0l.13-.05,3.92-1.43,3.92-1.43.14,0c.05,0,.1,0,.11-.08l-.55,0" fill="#fff"/>
              <path d="M28.22,12.64,24,14.16c-.14.05-.26.1-.24.18a4.68,4.68,0,0,0,.76-.06c0-.06,0-.1.12-.13l.1,0,3.86-1.41a.83.83,0,0,1,.43-.07l-.22-.1a1.28,1.28,0,0,0-.62.1" fill="#fff"/>
              <path d="M30.86,11.9c-.15,0-.2.1-.13.18l.11.05,3.77-1.37.14,0a.5.5,0,0,1,.23,0c.13-.08.09-.18.2-.26a.66.66,0,0,0-.36.05h0l-2,.71-2,.72" fill="#fff"/>
              <path d="M25.24,6.08s0,.06-.1.08l-.16,0L20.17,8,15.35,9.72l-.14.06a.51.51,0,0,1-.23,0l-.12.14a.69.69,0,0,0,.22,0l.15-.06,2.21-.81,2.2-.8.08,0a1.47,1.47,0,0,1,.4-.09A.33.33,0,0,1,20.28,8a1.08,1.08,0,0,1,.29,0,.53.53,0,0,1,.28-.16l.06,0L23.12,7l2.21-.8.16,0c.06,0,.1,0,.11-.09l-.36,0" fill="#fff"/>
              <path d="M22.08,14.41a.22.22,0,0,0-.13.09l.83-.07c-.07,0,0-.08,0-.11l.16-.05,2.14-.78,2.14-.78a1.91,1.91,0,0,0,.43-.2,2.78,2.78,0,0,0-.52.05l-4.91,1.79-.18.06" fill="#fff"/>
              <path d="M26.52,12.61l-5.14,1.88a1,1,0,0,0,.57,0,.22.22,0,0,1,.13-.09l.18-.06,4.91-1.79a3.43,3.43,0,0,0-.65,0" fill="#fff"/>
              <path d="M30.88,11a.31.31,0,0,0-.17.2,3.35,3.35,0,0,0,.53-.15l2.17-.79,2.16-.78.15-.06a.62.62,0,0,1,.22,0c.1-.08.29-.15.09-.25L30.88,11" fill="#fff"/>
              <path d="M22.17,6.33s0,.07-.1.09l-.15,0-2.81,1-2.8,1-.14.06a.51.51,0,0,1-.23,0,.48.48,0,0,0-.18.21.62.62,0,0,0,.21,0l.13,0,6.37-2.32.13,0c.06,0,.11,0,.11-.08a4.71,4.71,0,0,0-.54,0" fill="#fff"/>
              <path d="M35.18,10.14l-.1,0L30.64,11.8l-.05,0a.38.38,0,0,0-.19.11l.33.15c-.07-.08,0-.13.13-.18l2-.72,2-.71h0a.66.66,0,0,1,.36-.05.49.49,0,0,0,.21-.3.62.62,0,0,0-.21,0" fill="#fff"/>
              <path d="M25.91,12.66l-4.75,1.73.22.1,5.14-1.88a4.07,4.07,0,0,0-.61.05" fill="#fff"/>
              <path d="M31.63,10.05l-.2.27a.66.66,0,0,0,.26,0l.15-.06,3.63-1.32-.27-.13L32,10l-.15.06a.6.6,0,0,1-.21,0" fill="#fff"/>
              <path d="M23.86,12.83s-.06.06-.12.08l-.16.05L20.5,14.09l.27.12,4-1.45a6.42,6.42,0,0,0-.89.07" fill="#fff"/>
              <path d="M31.23,10.59c-.1.06-.16.12-.17.2a1.19,1.19,0,0,0,.31-.07l.13-.05L33,10.14l2.91-1.06L35.64,9l-4.41,1.61" fill="#fff"/>
              <path d="M31.23,12.08c-.25.09-.11.14.05.21l1.44-.53,1.44-.52a.84.84,0,0,0,.14-.06.49.49,0,0,1,.27,0c.17-.1.12-.22.26-.33a.37.37,0,0,0-.26,0h0l-1.79.66-1.49.54h0" fill="#fff"/>
              <path d="M19.19,9l-.1,0-4.44,1.62a3.49,3.49,0,0,0,.65-.06l4.09-1.49c.07-.06.14-.11.14-.18a1.57,1.57,0,0,0-.34.07" fill="#fff"/>
              <path d="M22.92,7.6a2,2,0,0,0-.46.21,2.45,2.45,0,0,0,.48,0L27,6.28c.09-.08.19-.16.21-.25l-2.16.78-2.16.79" fill="#fff"/>
              <path d="M29.05,12.91h0l-1.35.5L26.06,14,26,14c-.09,0-.16.07-.12.13l.76-.06s0-.09.12-.12l.06,0,.05,0h0l2.76-1a.62.62,0,0,0-.58,0" fill="#fff"/>
              <path d="M21.41,6.39s0,.06-.09.08l-.12,0-2.36.86-2.37.86-.1,0a.6.6,0,0,1-.2,0L16,8.49a.62.62,0,0,0,.22,0l.12,0,2.64-1,2.64-1,.14,0c.06,0,.1-.05.1-.09l-.47,0" fill="#fff"/>
              <path d="M28.29,12.47l-4.87,1.78-.17.05c-.06,0-.11,0-.11.1a4.48,4.48,0,0,0,.65-.06c0-.08.1-.13.24-.18l4.19-1.52a1.28,1.28,0,0,1,.62-.1.61.61,0,0,0-.55-.07" fill="#fff"/>
              <path d="M24.75,12.76l-4,1.45.23.1L25,12.87l.08,0,0,0a.35.35,0,0,0,.18-.11,1.68,1.68,0,0,0-.51,0" fill="#fff"/>
              <path d="M31.92,9.7a1.54,1.54,0,0,0-.29.35.6.6,0,0,0,.21,0L32,10,35.2,8.78l-.28-.12-1.75.63-.87.32-.07,0-.07,0a.74.74,0,0,1-.24,0" fill="#fff"/>
              <path d="M30.2,6.53l0,0,.16.07.22.1c.22.08.15.13,0,.2h0l-1.19.43-1.18.43.34.15L31.1,7c-.07,0-.18-.06-.17-.11l-.73-.33" fill="#fff"/>
              <path d="M35.65,9.61l-.11,0-5,1.84c-.07.06-.15.12-.15.18l2.44-.88,2.44-.89.15-.06a.36.36,0,0,1,.26,0l.2-.26a.59.59,0,0,0-.2,0" fill="#fff"/>
              <path d="M30.71,11.23a.59.59,0,0,0-.2.26l5-1.84.11,0a.59.59,0,0,1,.2,0c.09,0,0-.1.09-.16a.62.62,0,0,0-.22,0l-.15.06-2.16.78-2.17.79a3.35,3.35,0,0,1-.53.15" fill="#fff"/>
              <path d="M14.72,10.14a.29.29,0,0,0-.13.19.6.6,0,0,0,.21,0l.15-.06L19.42,8.6l.15-.06a.61.61,0,0,1,.25,0A.5.5,0,0,0,20,8.25L15.12,10l-.09,0-.08,0a.68.68,0,0,1-.23,0" fill="#fff"/>
              <path d="M26.08,6s-.07.07-.13.1l-.08,0-.1,0-4.9,1.79a4.65,4.65,0,0,0,.66-.05s0-.08.1-.1l.17,0,4.47-1.63.16-.05c.06,0,.11,0,.12-.09-.15,0-.34,0-.47,0" fill="#fff"/>
              <path d="M27.69,12.51a1.91,1.91,0,0,1-.43.2l-2.14.78L23,14.27l-.16.05c-.07,0-.11.06,0,.11l.36,0c0-.05.05-.07.11-.1l.17-.05,4.87-1.78a3.86,3.86,0,0,0-.6,0" fill="#fff"/>
              <path d="M23,12.91s0,.07-.11.1l-.16.05-1.23.45L20.22,14l.28.13L23.58,13l.16-.05c.06,0,.11,0,.12-.08-.29,0-.62,0-.9.08" fill="#fff"/>
              <path d="M17.34,12.66l.44.2a.94.94,0,0,0,.68,0l0,0,.95-.35L20.74,12l-.33-.15-1.34.48-1,.37h0a.58.58,0,0,1-.56,0l-.16,0" fill="#fff"/>
              <path d="M16.9,12.46l.44.2.16,0,2.63-1-.33-.14-2.37.85-.08,0a.43.43,0,0,1-.35,0h-.1" fill="#fff"/>
              <path d="M29.51,13.11h0l-1,.36-1.11.4c-.14.05-.29.1-.27.19a4.65,4.65,0,0,0,.75-.06,1.22,1.22,0,0,1,.28-.14l.2-.07.17-.06.06,0,.2-.07.28-.1.27-.1.37-.14.06,0a.91.91,0,0,1,.65,0l-.39-.18a.86.86,0,0,0-.55,0" fill="#fff"/>
              <path d="M14.59,10.33a.25.25,0,0,0-.16.18.5.5,0,0,0,.23,0l.14-.05,4.94-1.8a.76.76,0,0,0,.08-.11.61.61,0,0,0-.25,0l-.15.06L15,10.23l-.15.06a.6.6,0,0,1-.21,0" fill="#fff"/>
              <path d="M26.55,6s-.06.06-.12.09l-.16.05L21.8,7.74l-.17,0c-.06,0-.11,0-.1.1l.29,0,4.93-1.8L26.91,6C27,6,27,6,27,5.93a2.25,2.25,0,0,0-.46,0" fill="#fff"/>
              <path d="M14.86,10l-.14.19a.68.68,0,0,0,.23,0l.08,0,.09,0L20,8.25c.07,0,.09-.08.09-.12a1.47,1.47,0,0,0-.4.09l-.08,0-2.2.8-2.21.81-.15.06a.69.69,0,0,1-.22,0" fill="#fff"/>
              <path d="M25.6,6s-.05.07-.11.09l-.16,0L23.12,7l-2.21.81-.06,0a.53.53,0,0,0-.28.16,1,1,0,0,0,.3,0l4.9-1.79.1,0,.08,0c.06,0,.11,0,.13-.1L25.6,6" fill="#fff"/>
              <path d="M27,5.93s0,.06-.1.09l-.16.05-4.93,1.8a4.34,4.34,0,0,0,.64-.06,2,2,0,0,1,.46-.21l2.16-.79L27.24,6s.13-.08,0-.12a.6.6,0,0,0-.26,0" fill="#fff"/>
              <path d="M14.43,10.51s-.11.07-.06.1.18,0,.28,0L19.09,9l.1,0a1.57,1.57,0,0,1,.34-.07.8.8,0,0,0,.21-.26l-4.94,1.8-.14.05a.5.5,0,0,1-.23,0" fill="#fff"/>
              <path d="M31.6,7.2,29,8.16l.33.15,2.63-1L31.6,7.2" fill="#fff"/>
              <path d="M23,6.26s-.06.07-.12.09l-.07,0-.08,0L16,8.84l-.07,0-.06,0a.68.68,0,0,1-.23,0L15.59,9a.51.51,0,0,0,.23,0L16,9,19.5,7.67,23,6.38l.15,0c.06,0,.11,0,.1-.09l-.28,0" fill="#fff"/>
              <path d="M31.06,10.79c-.09.08-.18.15-.18.24L36,9.16l-.17-.08L33,10.14l-1.45.53-.13.05a1.19,1.19,0,0,1-.31.07" fill="#fff"/>
              <path d="M22.71,6.28s-.05.06-.11.08l-.13,0L16.1,8.73l-.13,0a.62.62,0,0,1-.21,0l-.08.12a.68.68,0,0,0,.23,0l.06,0,.07,0,6.7-2.44.08,0,.07,0c.06,0,.11,0,.12-.09l-.3,0" fill="#fff"/>
              <path d="M25.26,12.72a.35.35,0,0,1-.18.11l0,0-.08,0L21,14.31l.16.08,4.75-1.73a4.62,4.62,0,0,0-.65.06" fill="#fff"/>
              <path d="M30.93,6.86s.1.08.17.11.15.13,0,.2h0l-1,.37L28.69,8l.28.13,2.63-1c-.06,0-.13,0-.12-.09l-.55-.25" fill="#fff"/>
              <path d="M22.62,12.86l-2.68,1,.28.12,1.24-.45,1.23-.45.16-.05c.07,0,.12-.06.11-.1a.93.93,0,0,1-.34-.05" fill="#fff"/>
              <path d="M31.68,12.32c-.19.07,0,.12,0,.19l0,0,0,0,.28.12c-.12-.09-.08-.16.12-.23h0l.83-.3.33-.12.57-.21.12,0a.37.37,0,0,1,.22,0l.2-.27s-.11,0-.19,0h0l-1.34.48-1.12.41h0" fill="#fff"/>
              <path d="M32,7.33l-.05,0c.24.08.24.14,0,.23h0c-.34.11-.67.23-1,.36l-1.33.48.27.13,2.63-1v0L32,7.33" fill="#fff"/>
              <path d="M18.4,13.14l.38.17,2.68-1-.28-.13L20,12.63l-1.17.43-.07,0a.75.75,0,0,1-.38.05" fill="#fff"/>
              <path d="M32.92,7.76c0,.07-.06.11-.16.15l-.08,0-.77.28-1.56.56.28.13,2.68-1-.39-.17" fill="#fff"/>
              <path d="M33.48,8,30.79,9l.28.13,2.69-1L33.48,8" fill="#fff"/>
              <path d="M22.13,12.64l-2.69,1,.28.13,2.68-1-.27-.12" fill="#fff"/>
              <path d="M34.42,8.43l-2.68,1,.26.13,2.7-1-.28-.13" fill="#fff"/>
              <path d="M34.3,11.18a.84.84,0,0,1-.14.06l-1.44.52-1.44.53a.1.1,0,0,1,0,.05l0,0,.29.12,0,0c0-.07-.18-.12,0-.19h0l1.12-.41,1.34-.48h0c.08,0,.14,0,.19,0a.45.45,0,0,0,.21-.25.49.49,0,0,0-.27,0" fill="#fff"/>
              <path d="M20.13,11.73l-2.63,1a.58.58,0,0,0,.56,0h0l1-.37,1.34-.48-.28-.13" fill="#fff"/>
              <path d="M18.86,11.16l-2.63,1,.21.1.06,0,2.63-1-.27-.12" fill="#fff"/>
              <path d="M19.13,11.28l-2.63,1a.58.58,0,0,0,.56,0h0l1-.37,1.34-.48-.28-.13" fill="#fff"/>
              <path d="M32.48,7.6l-2.63,1,.28.12,1.33-.48,1-.36h0c.23-.09.23-.15,0-.23" fill="#fff"/>
              <path d="M31.93,7.35l-2.63,1,.28.12L30.91,8c.33-.13.66-.25,1-.36h0c.24-.09.24-.15,0-.23" fill="#fff"/>
              <path d="M31.43,10.32c-.1.09-.2.17-.2.27L35.64,9l-.17-.07-3.63,1.32-.15.06a.66.66,0,0,1-.26,0" fill="#fff"/>
              <path d="M29.8,13.27l-.06,0-.37.14-.27.1-.28.1-.2.07-.06,0-.17.06-.2.07a1.22,1.22,0,0,0-.28.14L29,13.91c0-.07.12-.12.24-.17l.12,0,.46-.16.29-.12.05,0a.9.9,0,0,1,.54,0l-.28-.12a.91.91,0,0,0-.65,0" fill="#fff"/>
              <path d="M21.88,6.35s0,.07-.1.09l-.14,0L19,7.44l-2.64,1-.12,0a.62.62,0,0,1-.22,0s-.09.07-.08.11a.51.51,0,0,0,.23,0l.14-.06,2.8-1,2.81-1,.15,0c.06,0,.11,0,.1-.09a.93.93,0,0,0-.29,0" fill="#fff"/>
              <path d="M15.77,10.52a4.48,4.48,0,0,0,.65-.06L19,9.53a.45.45,0,0,0,.21-.26l-3.45,1.25" fill="#fff"/>
              <path d="M26.89,6.47,23.46,7.73a5.6,5.6,0,0,0,.6-.05l2.61-.95c.06-.09.22-.16.22-.26" fill="#fff"/>
              <path d="M32.07,12.4c-.2.07-.24.14-.12.23l.22.1c0-.06-.06-.11.08-.16h0l.63-.22.25-.1.25-.09.09,0a.34.34,0,0,1,.32,0,1.54,1.54,0,0,0,.35-.44.37.37,0,0,0-.22,0l-.12,0-.57.21-.33.12-.83.3h0" fill="#fff"/>
              <path d="M19.39,9.06,15.3,10.55a2.37,2.37,0,0,0,.47,0l3.45-1.25a.34.34,0,0,0,.17-.21" fill="#fff"/>
              <path d="M27,6.28,22.94,7.77a2.2,2.2,0,0,0,.52,0l3.43-1.26c.07-.06.14-.12.14-.19" fill="#fff"/>
              <path d="M32,9.54c0,.05-.05.1-.08.16a.74.74,0,0,0,.24,0l.07,0,.07,0,.87-.32,1.75-.63-.22-.1-2.7,1" fill="#fff"/>
              <path d="M16.44,12.22h0l.5.23H17l2.63-1-.22-.1-1.34.48-1,.37h0a.58.58,0,0,1-.56,0l-.06,0" fill="#fff"/>
              <path d="M32.48,7.56v0c.24.08.24.14,0,.23h0l-1,.36-1.33.48.22.1,1.56-.56.77-.28.08,0c.1,0,.2-.08.16-.15l-.44-.2" fill="#fff"/>
              <path d="M17.78,12.86l.34.15a.77.77,0,0,0,.48,0h0l1-.37L21,12.11l-.22-.1-1.29.47-.95.35,0,0a.94.94,0,0,1-.68,0" fill="#fff"/>
              <path d="M18.12,13l.28.13a.75.75,0,0,0,.38-.05l.07,0L20,12.63l1.16-.42-.22-.1-1.34.49-1,.37h0a.77.77,0,0,1-.48,0" fill="#fff"/>
              <path d="M21.46,12.34l-2.68,1,.22.1,2.68-1-.22-.1" fill="#fff"/>
              <path d="M19.72,13.74l.22.1,2.68-1-.22-.1-2.68,1" fill="#fff"/>
              <path d="M21.68,12.44l-2.68,1,.22.1,2.68-1-.22-.1" fill="#fff"/>
              <path d="M21.9,12.54l-2.68,1,.22.1,2.69-1-.23-.1" fill="#fff"/>
              <path d="M34,8.23l-2.69,1,.23.1,2.68-1L34,8.23" fill="#fff"/>
              <path d="M33.76,8.13l-2.69,1,.22.1,2.69-1-.22-.1" fill="#fff"/>
              <path d="M34.2,8.33l-2.68,1,.22.1,2.68-1-.22-.1" fill="#fff"/>
              <path d="M28.16,7.54c-.07.08-.27.16,0,.24l1.18-.43,1.19-.43h0c.17-.07.24-.12,0-.2l-1.34.49-.67.24-.07,0-.07,0a.51.51,0,0,1-.23,0" fill="#fff"/>
              <path d="M31.1,7l-2.63,1,.22.1L30,7.54l1-.37h0c.18-.07.24-.12,0-.2" fill="#fff"/>
              <path d="M15.28,11.69l0,0,.67.3.16,0,1.07-.39,1.07-.39.13,0c.06,0,.07,0-.07-.08a3.42,3.42,0,0,0-.46,0c0,.05-.06.07-.12.1l-.08,0-.1,0-.4.15-.41.15-.62.23a.47.47,0,0,1-.4,0l-.33-.15-.06,0" fill="#fff"/>
              <path d="M26.73,14c-.09,0-.15.07-.12.12a2.5,2.5,0,0,0,.55,0c0-.09.13-.14.27-.19l1.11-.4,1-.36h0a.86.86,0,0,1,.55,0L29.79,13h-.06l-.1,0-2.76,1h0l-.05,0-.06,0" fill="#fff"/>
              <path d="M33,12.5l-.27.11-.25.1-.06,0h0c-.16,0,.16.1.12.17l.5.22.59-.76a2.4,2.4,0,0,0-.62.13" fill="#fff"/>
              <path d="M26.67,6.73l-2.61.95c.23,0,.44,0,.65,0L26.48,7a.39.39,0,0,0,.19-.25" fill="#fff"/>
              <path d="M16.42,10.46a4.62,4.62,0,0,0,.65-.05l1.77-.65c.08-.07.18-.15.17-.23l-2.59.93" fill="#fff"/>
              <path d="M28.35,7.29c-.06.08-.12.17-.19.25a.51.51,0,0,0,.23,0l.07,0,.07,0,.67-.24,1.34-.49-.22-.1-1.6.58-.12.06a.61.61,0,0,1-.25,0" fill="#fff"/>
              <path d="M16.39,11.3a1.57,1.57,0,0,1-.39.18l-.25.09-.24.08-.17.07.33.15,1.44-.53.1,0c.05,0,.07,0-.06-.07a4.68,4.68,0,0,0-.76.06" fill="#fff"/>
              <path d="M34.75,10.71l-.14,0-3.77,1.37.5.23,0,0a.1.1,0,0,0,0-.05c-.16-.07-.3-.12-.05-.21h0l1.49-.54,1.79-.66h0a.37.37,0,0,1,.26,0l.15-.18a.5.5,0,0,0-.23,0" fill="#fff"/>
              <path d="M25.44,14.14a.26.26,0,0,0-.13.08l.54-.05c0-.06,0-.1.12-.13l.09,0,1.63-.59,1.35-.5h0a.62.62,0,0,1,.58,0l.1,0h.06l-.51-.23L25.6,14.09l-.16.05" fill="#fff"/>
              <path d="M32.25,12.57c-.14,0-.12.1-.08.16l.39.18c0-.07-.28-.12-.12-.17h0l.06,0,.25-.1L33,12.5a2.4,2.4,0,0,1,.62-.13l.16-.23a.34.34,0,0,0-.32,0l-.09,0-.25.09-.25.1-.63.22h0" fill="#fff"/>
              <path d="M30.19,13.4l-.05,0-.29.12-.46.16-.12,0c-.12,0-.23.1-.24.17a6.4,6.4,0,0,0,.89-.08,1.32,1.32,0,0,1,.36-.19l.21-.07.21-.07.14-.06-.11,0a.9.9,0,0,0-.54,0" fill="#fff"/>
              <path d="M18.26,11.14c.14,0,.13.06.07.08l-.13,0-1.07.39L16.06,12l.17.08,2.63-1a.94.94,0,0,0-.6,0" fill="#fff"/>
              <path d="M33.31,7.93l-2.68,1,.16.07,2.69-1-.17-.08" fill="#fff"/>
              <path d="M18.84,9.76l-1.77.65,1.2-.09.13,0a.19.19,0,0,0,.08-.07l.36-.47" fill="#fff"/>
              <path d="M24.71,7.63l1.2-.1.16,0,.07,0L26.48,7l-1.77.65" fill="#fff"/>
              <path d="M19.63,11.51l-2.63,1a.43.43,0,0,0,.35,0l.08,0,2.37-.85-.17-.08" fill="#fff"/>
              <path d="M30.28,13.64a1.32,1.32,0,0,0-.36.19c.51,0,1-.07,1.52-.12l-.6-.27-.14.06-.21.07-.21.07" fill="#fff"/>
              <path d="M17.15,11.24c.13,0,.11,0,.06.07l-.1,0-1.44.53a.47.47,0,0,0,.4,0l.62-.23.41-.15.4-.15.1,0,.08,0c.06,0,.11,0,.12-.1a4.35,4.35,0,0,0-.65.06" fill="#fff"/>
              <path d="M28.51,7.1a.4.4,0,0,0-.16.19.61.61,0,0,0,.25,0l.12-.06,1.6-.58-.16-.07L28.85,7l-.12.05a.49.49,0,0,1-.22,0" fill="#fff"/>
              <path d="M29.54,6.23c0,.07.15.1.23.14s.19.12,0,.18h0l-.35.12-.47.17h0c-.08,0-.15,0-.21,0a.52.52,0,0,0-.2.26.49.49,0,0,0,.22,0L28.85,7l1.31-.47,0,0-.66-.3" fill="#fff"/>
              <path d="M29.25,6.12l-.4.54a1.52,1.52,0,0,0,.42-.1l.18-.07.18-.07.14,0c-.08,0-.23-.07-.23-.14a.76.76,0,0,0-.29-.11" fill="#fff"/>
              <path d="M28.85,6.66l-.14.18c.06.07.13,0,.21,0h0l.47-.17.35-.12h0c.17-.06.15-.12,0-.18l-.14,0-.18.07-.18.07a1.52,1.52,0,0,1-.42.1" fill="#fff"/>
              <path d="M15.74,11.35a.57.57,0,0,1-.22.12l-.16.06-.15.05-.1,0,.17.07.06,0,.17-.07.24-.08.25-.09a1.57,1.57,0,0,0,.39-.18l-.65,0" fill="#fff"/>
              <path d="M14.66,11.43a.47.47,0,0,0,.24.13.35.35,0,0,1,.21.06l.1,0,.15-.05.16-.06a.57.57,0,0,0,.22-.12l-1.08.08" fill="#fff"/>
              <path d="M31.48,7.11s.06.06.12.09l.33.15.05,0-.5-.22" fill="#fff"/>
              <path d="M15.9,12l.5.22h0l-.21-.1L16.06,12l-.16,0" fill="#fff"/>
              <path d="M14.9,11.56l.33.15,0,0-.17-.07a.35.35,0,0,0-.21-.06" fill="#fff"/>
              <polyline points="24.06 11.18 23.41 12.06 28.35 11.69 29.92 9.7 27.62 9.89 26.76 10.98 24.06 11.18" fill="#fff" opacity="0.33"/>
              <path d="M26,9.18l-.71.9,2.29-.19.71-.9L26,9.18m-3.55,1.26-.67.91,2.24-.17.67-.91-2.24.17" fill="#fff" opacity="0.18"/>
              <polyline points="24.73 10.27 24.06 11.18 26.76 10.98 27.62 9.89 25.33 10.08 25.2 10.24 24.73 10.27" fill="#fff" opacity="0.45"/>
              <polyline points="21.69 8.67 20.26 10.61 22.49 10.44 23.25 9.41 26.04 9.18 26.77 8.25 21.69 8.67" fill="#fff" opacity="0.73"/>
              <polyline points="23.25 9.41 22.49 10.44 24.73 10.27 24.84 10.12 25.33 10.08 26.04 9.18 23.25 9.41" fill="#fff" opacity="0.78"/>
              <polyline points="24.84 10.12 24.73 10.27 25.2 10.24 25.33 10.08 24.84 10.12" fill="#fff" opacity="0.85"/>
            </g>
          </g>
        </g>
      </g>
      <g>
        <polygon points="48.75 10.53 48.59 40.82 24.05 49.76 24.2 19.46 48.75 10.53" fill="#5982a0"/>
        <g style="isolation: isolate">
          <g clip-path="url(#clip-path-3)">
            <g>
              <path d="M35.1,22.61,34,23.78a.12.12,0,0,0,.14,0l.11,0,2.34-.85L39,22l.12,0a.26.26,0,0,0,.14-.12,4.42,4.42,0,0,0-1.08-.36.31.31,0,0,1-.24.23l0,0-2.44.89h0c-.11,0-.21.07-.26-.07" fill="#fff"/>
              <path d="M41.39,22.65a.28.28,0,0,1-.17.14l-.15.05-4.46,1.62-4.47,1.63-.15.06a.14.14,0,0,1-.16,0,1.7,1.7,0,0,0-.31.34.17.17,0,0,0,.17,0l.15-.07,4.76-1.73L41.37,23l.15,0a.31.31,0,0,0,.17-.14.56.56,0,0,0-.3-.12" fill="#fff"/>
              <path d="M36.62,21a.31.31,0,0,0-.13.09L35.1,22.61c0,.14.15.11.26.07h0l2.44-.89,0,0a.31.31,0,0,0,.24-.23A12.8,12.8,0,0,0,36.79,21a.25.25,0,0,0-.17,0" fill="#fff"/>
              <path d="M41.08,22.55a.37.37,0,0,1-.16.13l-.15,0-4.16,1.52-4.16,1.51-.15.07a.17.17,0,0,1-.17,0,1.6,1.6,0,0,0-.3.33.14.14,0,0,0,.16,0l.15-.06,4.47-1.63,4.46-1.62.15-.05a.28.28,0,0,0,.17-.14.55.55,0,0,0-.31-.1" fill="#fff"/>
              <path d="M40.78,22.44a.32.32,0,0,1-.15.12l-.14,0L36.61,24l-3.88,1.41-.14.05a.16.16,0,0,1-.15,0l-.31.32a.17.17,0,0,0,.17,0l.15-.07,4.16-1.51,4.16-1.52.15,0a.37.37,0,0,0,.16-.13l-.3-.11" fill="#fff"/>
              <path d="M42.62,34.71a1.11,1.11,0,0,1-.16.07l-2.41.88-2.42.88c-.16.15-.36.26-.29.55a.51.51,0,0,1,.24-.16h.05L42,35.31l.1,0a.14.14,0,0,1,.16,0,3.19,3.19,0,0,0,.48-.49c0-.11-.09-.11-.15-.09" fill="#fff"/>
              <path d="M35.42,38l-3.83,1.4-.1,0a.36.36,0,0,0-.22.23l.49.18a.32.32,0,0,1,.17-.12l.15,0,3.66-1.33v-.3c-.08-.12-.19-.08-.32,0" fill="#fff"/>
              <path d="M40.43,22.32a.3.3,0,0,1-.17.15l-.14,0-3.51,1.28L33.1,25.07l-.14.06a.14.14,0,0,1-.16,0l-.36.38a.16.16,0,0,0,.15,0l.14-.05L36.61,24l3.88-1.42.14,0a.32.32,0,0,0,.15-.12l-.35-.12" fill="#fff"/>
              <path d="M35.29,37.69,31.13,39.2a.6.6,0,0,0-.35.29,1.45,1.45,0,0,0,.49.18.36.36,0,0,1,.22-.23l.1,0L35.42,38c.13,0,.24-.08.32,0v-.3c-.12-.15-.28-.12-.45-.06" fill="#fff"/>
              <path d="M37.63,37.21a.41.41,0,0,0-.29.33v.15l3.73-1.35a.94.94,0,0,1,.15-.06.15.15,0,0,1,.17,0c.16-.1.26-.33.42-.45,0-.12-.15-.09-.25-.06l0,0-1.94.71-1.94.7" fill="#fff"/>
              <path d="M41.69,22.77a.31.31,0,0,1-.17.14l-.15,0L36.6,24.69l-4.76,1.73-.15.07a.17.17,0,0,1-.17,0l-.24.24a.17.17,0,0,0,.17,0l.15-.06,2.19-.8L36,25.07l.09,0a.37.37,0,0,1,.32,0,.51.51,0,0,1,.22-.16.31.31,0,0,1,.23,0,.65.65,0,0,1,.34-.22l.06,0,2.19-.8L41.61,23l.15-.05a.27.27,0,0,0,.16-.13l-.23-.07" fill="#fff"/>
              <path d="M29.77,39a.34.34,0,0,0-.18.13l.54.18a.21.21,0,0,1,.15-.2l.15,0,2.12-.78,2.12-.77a1.9,1.9,0,0,0,.47-.24.45.45,0,0,0-.33-.12L29.94,38.9l-.17.05" fill="#fff"/>
              <path d="M34.39,37l-5.1,1.86c0,.26.18.21.3.25a.34.34,0,0,1,.18-.13l.17-.05,4.87-1.79a.65.65,0,0,0-.42-.14" fill="#fff"/>
              <path d="M38.7,35.39a1.35,1.35,0,0,0-.34.37,1.32,1.32,0,0,0,.47-.1L41,34.88c.71-.27,1.43-.52,2.14-.78l.15-.07a.17.17,0,0,1,.17,0c.15-.12.35-.2.36-.49l-5.1,1.84" fill="#fff"/>
              <path d="M39.7,22.07a.34.34,0,0,1-.17.15l-.14,0-2.78,1-2.77,1-.15.06c-.06,0-.12,0-.16,0a1.86,1.86,0,0,0-.36.38.14.14,0,0,0,.15,0l.14-.06,6.31-2.3.13,0a.34.34,0,0,0,.16-.12.76.76,0,0,0-.36-.11" fill="#fff"/>
              <path d="M42.13,35.27l-.1,0-4.4,1.61h-.05a.51.51,0,0,0-.24.16v.45a.41.41,0,0,1,.29-.33l1.94-.7,1.94-.71,0,0c.1,0,.2-.06.25.06a2.91,2.91,0,0,0,.49-.55.14.14,0,0,0-.16,0" fill="#fff"/>
              <path d="M34,36.82l-4.71,1.71v.3L34.39,37a.7.7,0,0,0-.39-.15" fill="#fff"/>
              <path d="M40.31,33.65l-.44.49c.05.07.11.06.18,0l.15-.07,3.6-1.3v-.38l-3.17,1.15-.16.07a.18.18,0,0,1-.16,0" fill="#fff"/>
              <path d="M32.67,36.35a.3.3,0,0,1-.16.12l-.16.05L29.3,37.64V38l3.94-1.45a1.63,1.63,0,0,0-.57-.21" fill="#fff"/>
              <path d="M39.43,34.61a1.47,1.47,0,0,0-.34.36.39.39,0,0,0,.26,0l.12-.05,1.45-.52,2.88-1.05V33l-4.37,1.58" fill="#fff"/>
              <path d="M37.61,37.73c-.25.09-.24.27-.23.47l1.43-.52,1.42-.52.15-.06c.06,0,.12,0,.15.1.21-.14.34-.42.54-.58,0-.12-.08-.11-.16-.08l0,0-1.77.64-1.47.53h0" fill="#fff"/>
              <path d="M34.87,26.36l-.1,0L30.37,28a.85.85,0,0,0,.42.15l4.05-1.48a1.64,1.64,0,0,0,.31-.33.39.39,0,0,0-.28,0" fill="#fff"/>
              <path d="M38.56,25a1.76,1.76,0,0,0-.51.26.58.58,0,0,0,.3.11l4.06-1.47a2.57,2.57,0,0,0,.42-.45l-2.14.78L38.56,25" fill="#fff"/>
              <path d="M35.4,38.61h0l-1.34.5-1.62.58-.09,0a.32.32,0,0,0-.22.23l.48.18a.34.34,0,0,1,.22-.21l.06,0,0,0h0l2.73-1c0-.3,0-.36-.28-.28" fill="#fff"/>
              <path d="M39.21,21.89a.26.26,0,0,1-.14.12L39,22l-2.34.86-2.34.85-.11,0a.12.12,0,0,1-.14,0l-.31.33a.15.15,0,0,0,.16,0l.13-.06,2.61-.95,2.62-.95.13,0a.37.37,0,0,0,.16-.13l-.31-.11" fill="#fff"/>
              <path d="M35.53,37.37,30.7,39.14l-.16,0a.27.27,0,0,0-.18.16.91.91,0,0,0,.42.14.6.6,0,0,1,.35-.29l4.16-1.51c.17-.06.33-.09.45.06,0-.24,0-.42-.21-.38" fill="#fff"/>
              <path d="M33.24,36.56,29.3,38v.3l3.92-1.43.08,0,.05,0a.54.54,0,0,0,.23-.15c-.08-.12-.21-.12-.33-.13" fill="#fff"/>
              <path d="M40.9,33a5,5,0,0,0-.59.62.18.18,0,0,0,.16,0l.16-.07,3.17-1.15v-.37l-1.72.63-.87.31-.07,0-.07,0a.14.14,0,0,1-.17,0" fill="#fff"/>
              <path d="M43.84,25.71l-.05,0v.52a.31.31,0,0,1-.24.39h0l-1.17.42-1.18.43c0,.15,0,.3,0,.45L43.78,27c0-.11,0-.21,0-.32v-1" fill="#fff"/>
              <path d="M43,34.34l-.11,0-5,1.82a1.23,1.23,0,0,0-.31.33l2.42-.88,2.41-.88a1.11,1.11,0,0,0,.16-.07c.06,0,.12,0,.15.09l.42-.45s-.09,0-.15,0" fill="#fff"/>
              <path d="M38.36,35.76a2,2,0,0,0-.42.45l5-1.82.11,0c.06,0,.11,0,.15,0s.16-.21.25-.31a.17.17,0,0,0-.17,0l-.15.07c-.71.26-1.43.51-2.14.78l-2.15.78a1.32,1.32,0,0,1-.47.1" fill="#fff"/>
              <path d="M31,27.05a1.36,1.36,0,0,0-.3.33.15.15,0,0,0,.16,0l.15-.06,4.43-1.61.16-.07a.14.14,0,0,1,.18,0,2.11,2.11,0,0,0,.43-.46L31.33,27l-.1,0-.08,0a.17.17,0,0,1-.17,0" fill="#fff"/>
              <path d="M42.23,23a.37.37,0,0,1-.18.14l-.08,0-.09,0L37,24.92a.89.89,0,0,0,.42.15.33.33,0,0,1,.18-.16l.16-.05,4.43-1.62.15,0a.34.34,0,0,0,.17-.13c-.13,0-.17-.16-.3-.12" fill="#fff"/>
              <path d="M35.14,37.23a1.9,1.9,0,0,1-.47.24l-2.12.77L30.43,39l-.15,0a.21.21,0,0,0-.15.2l.23.09a.27.27,0,0,1,.18-.16l.16,0,4.83-1.77a.69.69,0,0,0-.39-.14" fill="#fff"/>
              <path d="M32.09,36.15a.28.28,0,0,1-.19.17l-.15,0-1.22.45-1.23.44v.38l3.05-1.12.16-.05a.3.3,0,0,0,.16-.12c-.2,0-.36-.21-.58-.2" fill="#fff"/>
              <path d="M29.32,33.38V34c0,.28.16.32.39.24l0,0,1-.36L32,33.38v-.45l-1.32.48-1,.37h0c-.23.08-.3,0-.27-.28a.69.69,0,0,0-.05-.13" fill="#fff"/>
              <path d="M29.33,32.78v.6a.69.69,0,0,1,.05.13L32,32.56v-.45L29.64,33l-.08,0c-.11,0-.2,0-.18-.15l-.05-.06" fill="#fff"/>
              <path d="M35.42,39.2h0l-1,.36-1.1.39a.6.6,0,0,0-.38.3,1.37,1.37,0,0,0,.49.18.89.89,0,0,1,.33-.2l.18-.05.17-.06.06,0,.2-.08.27-.09.27-.09.37-.16.07,0c.21-.07.33,0,.36.25v-.52c0-.19-.12-.26-.31-.19" fill="#fff"/>
              <path d="M30.68,27.38a1.18,1.18,0,0,0-.31.32.14.14,0,0,0,.16,0l.15-.07,4.89-1.78.19-.2a.14.14,0,0,0-.18,0l-.16.07L31,27.33l-.15.06a.15.15,0,0,1-.16,0" fill="#fff"/>
              <path d="M42.53,23.07a.34.34,0,0,1-.17.13l-.15,0-4.43,1.62-.16.05a.33.33,0,0,0-.18.16l.19.07,4.89-1.79.15,0a.3.3,0,0,0,.16-.14.41.41,0,0,0-.3-.1" fill="#fff"/>
              <path d="M31.28,26.71l-.3.34a.17.17,0,0,0,.17,0l.08,0,.1,0,4.86-1.76a.55.55,0,0,0,.19-.21.37.37,0,0,0-.32,0l-.09,0-2.18.79-2.19.8-.15.06a.17.17,0,0,1-.17,0" fill="#fff"/>
              <path d="M41.92,22.84a.27.27,0,0,1-.16.13l-.15.05-2.19.79-2.19.8-.06,0a.65.65,0,0,0-.34.22.22.22,0,0,0,.19.07l4.86-1.78.09,0,.08,0a.37.37,0,0,0,.18-.14l-.31-.11" fill="#fff"/>
              <path d="M42.83,23.17a.3.3,0,0,1-.16.14l-.15,0-4.89,1.79a1,1,0,0,0,.42.14,1.76,1.76,0,0,1,.51-.26l2.13-.77,2.14-.78c.07-.07.17-.11.16-.23s-.09-.07-.16-.07" fill="#fff"/>
              <path d="M30.37,27.7a.32.32,0,0,0-.16.2c0,.12.09.09.16.1l4.4-1.6.1,0a.39.39,0,0,1,.28,0,2.67,2.67,0,0,0,.42-.46l-4.89,1.78-.15.07a.14.14,0,0,1-.16,0" fill="#fff"/>
              <path d="M43.78,27.67l-2.61.95v.45l2.61-.95v-.45" fill="#fff"/>
              <path d="M40.24,22.25a.28.28,0,0,1-.17.14l-.07,0-.07,0L33.3,24.85l-.08,0-.07,0a.15.15,0,0,1-.17,0l-.18.21a.14.14,0,0,0,.16,0l.14-.06,3.51-1.28,3.51-1.28.14,0a.3.3,0,0,0,.17-.15l-.19-.07" fill="#fff"/>
              <path d="M39.09,35a2,2,0,0,0-.39.42l5.1-1.84v-.22l-2.88,1.05-1.45.52-.12.05a.39.39,0,0,1-.26,0" fill="#fff"/>
              <path d="M40.06,22.18a.34.34,0,0,1-.16.12l-.13,0-6.31,2.3-.14.06a.14.14,0,0,1-.15,0l-.19.2a.15.15,0,0,0,.17,0l.07,0,.08,0,6.63-2.41.07,0,.07,0a.28.28,0,0,0,.17-.14l-.18-.07" fill="#fff"/>
              <path d="M33.57,36.69a.54.54,0,0,1-.23.15l-.05,0-.08,0-3.92,1.43v.22L34,36.82c-.12-.12-.29-.09-.43-.13" fill="#fff"/>
              <path d="M43.83,26.68c-.07.11,0,.21,0,.32a.31.31,0,0,1-.25.39h0l-1,.36-1.34.49v.37l2.61-.95a.35.35,0,0,1,0-.24v-.75" fill="#fff"/>
              <path d="M32,35.92l-2.66,1v.37l1.23-.44,1.22-.45.15,0a.28.28,0,0,0,.19-.17.26.26,0,0,1-.13-.23" fill="#fff"/>
              <path d="M37.56,38.42c-.19.07-.16.26-.23.39v.37a.47.47,0,0,1,.34-.42h0l.81-.29.33-.11.57-.22.12-.05a.14.14,0,0,1,.16,0l.42-.47c0-.13,0-.13-.08-.11h0L38.68,38l-1.11.39h0" fill="#fff"/>
              <path d="M43.82,28.1l0,0a.39.39,0,0,1-.28.48h0l-1,.35-1.32.49v.37l2.61-.95,0-.08V28.1" fill="#fff"/>
              <path d="M29.32,34.8c0,.17,0,.35,0,.52l2.66-1V34l-1.15.42-1.16.42-.07,0c-.11,0-.21.06-.27-.05" fill="#fff"/>
              <path d="M43.82,29.37a.42.42,0,0,1-.28.25l-.07,0-.77.27-1.54.57v.37l2.66-1v-.52" fill="#fff"/>
              <path d="M43.81,30.11l-2.65,1v.38l2.65-1v-.38" fill="#fff"/>
              <path d="M32,35.25l-2.65,1v.37l2.66-1v-.37" fill="#fff"/>
              <path d="M43.81,31.39l-2.66,1c0,.13,0,.25,0,.37l2.67-1v-.37" fill="#fff"/>
              <path d="M40.38,37.1l-.15.06-1.42.52-1.43.52,0,.11,0,0v.45c.07-.13,0-.32.23-.39h0L38.68,38,40,37.54h0c.08,0,.12,0,.08.11a1.64,1.64,0,0,0,.43-.44c0-.12-.09-.13-.15-.1" fill="#fff"/>
              <path d="M32,32.56l-2.61.95c0,.29,0,.36.27.28h0l1-.37L32,32.93v-.37" fill="#fff"/>
              <path d="M32,30.84l-2.61.95v.38l2.6-1c0-.13,0-.25,0-.38" fill="#fff"/>
              <path d="M32,31.22l-2.6,1c0,.28,0,.36.27.28h0l1-.37L32,31.59v-.37" fill="#fff"/>
              <path d="M43.77,28.86l-2.61.95v.38l1.32-.49,1-.35h0a.4.4,0,0,0,.28-.49" fill="#fff"/>
              <path d="M43.78,28.12l-2.61.95v.37L42.49,29l1-.35h0a.39.39,0,0,0,.28-.48" fill="#fff"/>
              <path d="M39.87,34.14a1.81,1.81,0,0,0-.44.47L43.8,33v-.22l-3.6,1.3-.15.07c-.07,0-.13,0-.18,0" fill="#fff"/>
              <path d="M35.37,39.66l-.07,0-.37.16-.27.09-.27.09-.2.08-.06,0-.17.06-.18.05a.89.89,0,0,0-.33.2l.72.25a.63.63,0,0,1,.34-.26l.11,0,.46-.15.29-.13.05,0c.17-.06.27,0,.31.2v-.38c0-.27-.15-.32-.36-.25" fill="#fff"/>
              <path d="M39.52,22a.37.37,0,0,1-.16.13l-.13,0-2.62.95L34,24.07l-.13.06a.15.15,0,0,1-.16,0,.5.5,0,0,0-.18.2c0,.06.1.05.16,0l.15-.06,2.77-1,2.78-1,.14,0a.34.34,0,0,0,.17-.15.19.19,0,0,0-.18-.07" fill="#fff"/>
              <path d="M31.09,28.26a1.06,1.06,0,0,0,.42.15l2.56-.92A1.9,1.9,0,0,0,34.5,27l-3.41,1.23" fill="#fff"/>
              <path d="M42.1,24.25,38.7,25.5a.67.67,0,0,0,.38.15l2.59-.94c.13-.16.31-.25.43-.46" fill="#fff"/>
              <path d="M37.67,38.76a.47.47,0,0,0-.34.42v.3c.05-.15.1-.26.24-.31h0l.62-.21.24-.1.25-.08.09,0c.09,0,.18,0,.16.17a7.94,7.94,0,0,0,.73-.79.14.14,0,0,0-.16,0l-.12.05-.57.22-.33.11-.81.29h0" fill="#fff"/>
              <path d="M34.84,26.67l-4.05,1.48a.52.52,0,0,0,.3.11L34.5,27a1.47,1.47,0,0,0,.34-.36" fill="#fff"/>
              <path d="M42.41,23.92l-4.06,1.47a.54.54,0,0,0,.35.11l3.4-1.25a1.41,1.41,0,0,0,.31-.33" fill="#fff"/>
              <path d="M41.14,32.72,40.9,33a.14.14,0,0,0,.17,0l.07,0,.07,0,.87-.31,1.72-.63v-.3l-2.67,1" fill="#fff"/>
              <path d="M29.38,32.09l-.05,0v.67l.05.06,2.6-1v-.3l-1.32.48-1,.37h0c-.23.08-.31,0-.27-.28v-.08" fill="#fff"/>
              <path d="M43.82,28.78l0,.08a.4.4,0,0,1-.28.49h0l-1,.35-1.32.49v.3l1.54-.57.77-.27.07,0a.42.42,0,0,0,.28-.25v-.59" fill="#fff"/>
              <path d="M29.32,34v.45c.05.16.16.16.31.11h0l1-.37L32,33.68v-.3l-1.27.46-1,.36,0,0c-.23.08-.36,0-.39-.24" fill="#fff"/>
              <path d="M29.32,34.43v.37c.06.11.16.09.27.05l.07,0,1.16-.42L32,34v-.3l-1.33.48-1,.37h0c-.15.05-.26.05-.31-.11" fill="#fff"/>
              <path d="M32,34.35l-2.66,1v.3l2.66-1v-.3" fill="#fff"/>
              <path d="M29.3,36.59v.3l2.66-1v-.3l-2.66,1" fill="#fff"/>
              <path d="M32,34.65l-2.66,1v.3L32,35v-.3" fill="#fff"/>
              <path d="M32,35l-2.65,1v.3l2.65-1V35" fill="#fff"/>
              <path d="M43.81,30.79l-2.66,1v.29l2.66-1v-.3" fill="#fff"/>
              <path d="M43.81,30.49l-2.65,1v.3l2.66-1v-.3" fill="#fff"/>
              <path d="M43.81,31.09l-2.66,1v.3l2.66-1v-.3" fill="#fff"/>
              <path d="M41.48,27c-.13.14-.33.21-.31.49l1.18-.43,1.17-.42h0a.31.31,0,0,0,.24-.39l-1.32.48-.67.24-.07,0-.07,0a.14.14,0,0,1-.17,0" fill="#fff"/>
              <path d="M43.78,27,41.17,28v.3l1.34-.49,1-.36h0a.31.31,0,0,0,.25-.39" fill="#fff"/>
              <path d="M29.39,30.52l-.05,0v.9a.69.69,0,0,1,.05.13l1.06-.39,1.06-.39.13,0c.05,0,.08-.07.05-.2a.45.45,0,0,0-.3-.1.32.32,0,0,1-.18.15l-.08,0-.08,0-.41.15-.4.14-.61.23c-.13,0-.25.08-.23-.14v-.53" fill="#fff"/>
              <path d="M32.82,39.93a.34.34,0,0,0-.22.21.74.74,0,0,0,.36.12.6.6,0,0,1,.38-.3l1.1-.39,1-.36h0c.19-.07.27,0,.31.19V39a.07.07,0,0,1,0-.05.59.59,0,0,0,0-.08l-2.73,1h0l0,0-.06,0" fill="#fff"/>
              <path d="M38.08,39.34l-.28.12-.27.12-.06,0h0c-.16.06,0,.28-.15.4v.68l1.26-1.37a.72.72,0,0,0-.5,0" fill="#fff"/>
              <path d="M41.67,24.71l-2.59.94a1.06,1.06,0,0,0,.42.15l1.75-.64a1.81,1.81,0,0,0,.42-.45" fill="#fff"/>
              <path d="M31.51,28.41a.78.78,0,0,0,.42.14l1.76-.64a1.93,1.93,0,0,0,.38-.42l-2.56.92" fill="#fff"/>
              <path d="M41.9,26.55l-.42.46a.14.14,0,0,0,.17,0l.07,0,.07,0,.67-.24,1.32-.48V26l-1.58.58-.14,0a.14.14,0,0,1-.17,0" fill="#fff"/>
              <path d="M30.47,30.14a1.63,1.63,0,0,1-.43.23l-.24.08-.24.08-.17.07v.45l1.42-.53.09,0c.06,0,.1-.06.06-.18a1.37,1.37,0,0,0-.49-.18" fill="#fff"/>
              <path d="M41.21,36.28a.94.94,0,0,0-.15.06l-3.73,1.35v.67l0,0,0-.11c0-.2,0-.38.23-.47h0l1.47-.53,1.77-.64,0,0c.08,0,.15,0,.16.08l.31-.33a.15.15,0,0,0-.17,0" fill="#fff"/>
              <path d="M31.93,39.73a.32.32,0,0,0-.17.12l.36.11a.32.32,0,0,1,.22-.23l.09,0,1.62-.58,1.34-.5h0c.24-.08.32,0,.28.28a.59.59,0,0,1,0,.08V39c0-.23,0-.45,0-.67l-3.66,1.33-.15,0" fill="#fff"/>
              <path d="M37.57,39.17c-.14,0-.19.16-.24.31V40c.1-.12,0-.34.15-.4h0l.06,0,.27-.12.28-.12a.72.72,0,0,1,.5,0L39,38.9c0-.21-.07-.2-.16-.17l-.09,0-.25.08-.24.1-.62.21h0" fill="#fff"/>
              <path d="M35.42,40.09l-.05,0-.29.13-.46.15-.11,0a.63.63,0,0,0-.34.26,1.47,1.47,0,0,0,.58.19,1.12,1.12,0,0,1,.43-.25l.2-.06.21-.07.13-.06a.76.76,0,0,1,0-.15c0-.2-.14-.26-.31-.2" fill="#fff"/>
              <path d="M31.68,30.57c0,.13,0,.18-.05.2l-.13,0-1.06.39-1.06.39v.22L32,30.84c0-.3-.17-.23-.31-.27" fill="#fff"/>
              <path d="M43.82,29.89l-2.66,1v.22l2.65-1v-.22" fill="#fff"/>
              <path d="M33.69,27.91l-1.76.64.76.3a.09.09,0,0,0,.1,0,.24.24,0,0,0,.12-.09l.78-.85" fill="#fff"/>
              <path d="M39.5,25.8l.77.28a.17.17,0,0,0,.12,0,.46.46,0,0,0,.1-.07l.76-.86-1.75.64" fill="#fff"/>
              <path d="M32,31.89l-2.6,1c0,.2.07.19.18.15l.08,0L32,32.11v-.22" fill="#fff"/>
              <path d="M35.18,40.63a1.12,1.12,0,0,0-.43.25,5.1,5.1,0,0,0,1,.36v-.8l-.13.06-.21.07-.2.06" fill="#fff"/>
              <path d="M31,30.32c0,.12,0,.16-.06.18l-.09,0-1.42.53c0,.22.1.18.23.14l.61-.23.4-.14.41-.15.08,0,.08,0a.32.32,0,0,0,.18-.15.79.79,0,0,0-.42-.15" fill="#fff"/>
              <path d="M42.21,26.22a2,2,0,0,0-.31.33.14.14,0,0,0,.17,0l.14,0L43.79,26v-.22l-1.3.47-.12.05c-.06,0-.11,0-.16,0" fill="#fff"/>
              <path d="M43.84,24.82a.74.74,0,0,0-.05.38.31.31,0,0,1-.2.38h0l-.35.12-.46.17h0c-.08,0-.14,0-.09-.12a2.31,2.31,0,0,0-.43.45c0,.06.1.05.16,0l.12-.05,1.3-.47.05,0v-.89" fill="#fff"/>
              <path d="M43.82,24.47l-.88,1a.54.54,0,0,0,.35,0l.19-.08.18-.08.13,0a.74.74,0,0,1,.05-.38.7.7,0,0,0,0-.35" fill="#fff"/>
              <path d="M42.94,25.43l-.3.34c0,.15,0,.15.09.12h0l.46-.17.35-.12h0a.31.31,0,0,0,.2-.38l-.13,0-.18.08-.19.08a.54.54,0,0,1-.35,0" fill="#fff"/>
              <path d="M30.05,30a.67.67,0,0,1-.27.17l-.15.05-.14,0-.1.05v.3l.17-.07.24-.08.24-.08a1.63,1.63,0,0,0,.43-.23L30.05,30" fill="#fff"/>
              <path d="M29.37,29.73a.67.67,0,0,0,0,.36c.06,0,.05.13.05.21l.1-.05.14,0,.15-.05a.67.67,0,0,0,.27-.17l-.68-.26" fill="#fff"/>
              <path d="M43.83,27.43a.35.35,0,0,0,0,.24v.45l0,0v-.67" fill="#fff"/>
              <path d="M29.33,31.44v.67l.05,0v-.52a.69.69,0,0,0-.05-.13" fill="#fff"/>
              <path d="M29.34,30.09v.45l.05,0V30.3c0-.08,0-.17-.05-.21" fill="#fff"/>
              <polyline points="34.8 32.98 33.37 34.55 36.52 35.76 39.81 32.23 38.32 31.7 36.52 33.64 34.8 32.98" fill="#fff" opacity="0.33"/>
              <path d="M38.33,29.58l-1.49,1.6,1.48.52,1.49-1.6-1.48-.52M34.84,30.8l-1.47,1.63L34.8,33l1.47-1.63-1.43-.55" fill="#fff" opacity="0.18"/>
              <polyline points="36.27 31.35 34.8 32.98 36.52 33.64 38.32 31.7 36.84 31.18 36.57 31.46 36.27 31.35" fill="#fff" opacity="0.45"/>
              <polyline points="36.58 26.77 33.43 30.26 34.84 30.8 36.52 28.95 38.33 29.58 39.86 27.93 36.58 26.77" fill="#fff" opacity="0.73"/>
              <polyline points="36.52 28.95 34.84 30.8 36.27 31.35 36.52 31.07 36.84 31.18 38.33 29.58 36.52 28.95" fill="#fff" opacity="0.78"/>
              <polyline points="36.52 31.07 36.27 31.35 36.57 31.46 36.84 31.18 36.52 31.07" fill="#fff" opacity="0.85"/>
            </g>
          </g>
        </g>
      </g>
    </g>
  </g>
  <g>
    <rect x="46.2" y="41.66" width="1.51" height="1.52" fill="#fff"/>
    <rect x="46.2" y="40.15" width="1.51" height="1.51" fill="#fff"/>
    <rect x="46.2" y="8.34" width="1.51" height="1.52" fill="#fff"/>
    <rect x="46.2" y="6.82" width="1.51" height="1.51" fill="#fff"/>
    <rect x="44.69" y="43.18" width="1.52" height="1.51" fill="#fff"/>
    <rect x="44.69" y="41.66" width="1.52" height="1.52" fill="#ef5454"/>
    <rect x="44.69" y="40.15" width="1.52" height="1.51" fill="#ef5454"/>
    <rect x="44.69" y="38.63" width="1.52" height="1.52" fill="#fff"/>
    <rect x="44.69" y="9.85" width="1.52" height="1.51" fill="#fff"/>
    <rect x="44.69" y="8.34" width="1.52" height="1.52" fill="#aa0707"/>
    <rect x="44.69" y="6.82" width="1.52" height="1.51" fill="#ef5454"/>
    <rect x="44.69" y="5.31" width="1.52" height="1.52" fill="#fff"/>
    <rect x="43.18" y="44.69" width="1.51" height="1.52" fill="#fff"/>
    <rect x="43.18" y="43.18" width="1.51" height="1.51" fill="#aa0707"/>
    <rect x="43.18" y="41.66" width="1.51" height="1.52" fill="#cc1d1d"/>
    <rect x="43.18" y="40.15" width="1.51" height="1.51" fill="#cc1d1d"/>
    <rect x="43.18" y="38.63" width="1.51" height="1.52" fill="#ef5454"/>
    <rect x="43.18" y="37.12" width="1.51" height="1.51" fill="#fff"/>
    <rect x="43.18" y="11.37" width="1.51" height="1.51" fill="#fff"/>
    <rect x="43.18" y="9.85" width="1.51" height="1.51" fill="#aa0707"/>
    <rect x="43.18" y="8.34" width="1.51" height="1.52" fill="#cc1d1d"/>
    <rect x="43.18" y="6.82" width="1.51" height="1.51" fill="#cc1d1d"/>
    <rect x="43.18" y="5.31" width="1.51" height="1.52" fill="#ef5454"/>
    <rect x="43.18" y="3.8" width="1.51" height="1.51" fill="#fff"/>
    <rect x="41.66" y="46.21" width="1.51" height="1.51" fill="#fff"/>
    <rect x="41.66" y="44.69" width="1.51" height="1.52" fill="#aa0707"/>
    <rect x="41.66" y="43.18" width="1.51" height="1.51" fill="#cc1d1d"/>
    <rect x="41.66" y="41.66" width="1.51" height="1.52" fill="#cc1d1d"/>
    <rect x="41.66" y="40.15" width="1.51" height="1.51" fill="#cc1d1d"/>
    <rect x="41.66" y="38.63" width="1.51" height="1.52" fill="#cc1d1d"/>
    <rect x="41.66" y="37.12" width="1.51" height="1.51" fill="#ef5454"/>
    <rect x="41.66" y="35.6" width="1.51" height="1.52" fill="#fff"/>
    <rect x="41.66" y="12.88" width="1.51" height="1.52" fill="#fff"/>
    <rect x="41.66" y="11.37" width="1.51" height="1.51" fill="#aa0707"/>
    <rect x="41.66" y="9.85" width="1.51" height="1.51" fill="#cc1d1d"/>
    <rect x="41.66" y="8.34" width="1.51" height="1.52" fill="#cc1d1d"/>
    <rect x="41.66" y="6.82" width="1.51" height="1.51" fill="#cc1d1d"/>
    <rect x="41.66" y="5.31" width="1.51" height="1.52" fill="#cc1d1d"/>
    <rect x="41.66" y="3.8" width="1.51" height="1.51" fill="#ef5454"/>
    <rect x="41.66" y="2.28" width="1.51" height="1.52" fill="#fff"/>
    <rect x="40.15" y="46.21" width="1.52" height="1.51" fill="#fff"/>
    <rect x="40.15" y="44.69" width="1.52" height="1.52" fill="#aa0707"/>
    <rect x="40.15" y="43.18" width="1.52" height="1.51" fill="#cc1d1d"/>
    <rect x="40.15" y="41.66" width="1.52" height="1.52" fill="#cc1d1d"/>
    <rect x="40.15" y="40.15" width="1.52" height="1.51" fill="#cc1d1d"/>
    <rect x="40.15" y="38.63" width="1.52" height="1.52" fill="#cc1d1d"/>
    <rect x="40.15" y="37.12" width="1.52" height="1.51" fill="#cc1d1d"/>
    <rect x="40.15" y="35.6" width="1.52" height="1.52" fill="#ef5454"/>
    <rect x="40.15" y="34.09" width="1.52" height="1.51" fill="#fff"/>
    <rect x="40.15" y="14.4" width="1.52" height="1.51" fill="#fff"/>
    <rect x="40.15" y="12.88" width="1.52" height="1.52" fill="#aa0707"/>
    <rect x="40.15" y="11.37" width="1.52" height="1.51" fill="#cc1d1d"/>
    <rect x="40.15" y="9.85" width="1.52" height="1.51" fill="#cc1d1d"/>
    <rect x="40.15" y="8.34" width="1.52" height="1.52" fill="#cc1d1d"/>
    <rect x="40.15" y="6.82" width="1.52" height="1.51" fill="#cc1d1d"/>
    <rect x="40.15" y="5.31" width="1.52" height="1.52" fill="#cc1d1d"/>
    <rect x="40.15" y="3.8" width="1.52" height="1.51" fill="#ef5454"/>
    <rect x="40.15" y="2.28" width="1.52" height="1.52" fill="#fff"/>
    <rect x="38.63" y="44.69" width="1.51" height="1.52" fill="#fff"/>
    <rect x="38.63" y="43.18" width="1.51" height="1.51" fill="#aa0707"/>
    <rect x="38.63" y="41.66" width="1.51" height="1.52" fill="#cc1d1d"/>
    <rect x="38.63" y="40.15" width="1.51" height="1.51" fill="#cc1d1d"/>
    <rect x="38.63" y="38.63" width="1.51" height="1.52" fill="#cc1d1d"/>
    <rect x="38.63" y="37.12" width="1.51" height="1.51" fill="#cc1d1d"/>
    <rect x="38.63" y="35.6" width="1.51" height="1.52" fill="#cc1d1d"/>
    <rect x="38.63" y="34.09" width="1.51" height="1.51" fill="#ef5454"/>
    <rect x="38.63" y="32.57" width="1.51" height="1.52" fill="#fff"/>
    <rect x="38.63" y="15.91" width="1.51" height="1.52" fill="#fff"/>
    <rect x="38.63" y="14.4" width="1.51" height="1.51" fill="#aa0707"/>
    <rect x="38.63" y="12.88" width="1.51" height="1.52" fill="#cc1d1d"/>
    <rect x="38.63" y="11.37" width="1.51" height="1.51" fill="#cc1d1d"/>
    <rect x="38.63" y="9.85" width="1.51" height="1.51" fill="#cc1d1d"/>
    <rect x="38.63" y="8.34" width="1.51" height="1.52" fill="#cc1d1d"/>
    <rect x="38.63" y="6.82" width="1.51" height="1.51" fill="#cc1d1d"/>
    <rect x="38.63" y="5.31" width="1.51" height="1.52" fill="#ef5454"/>
    <rect x="38.63" y="3.8" width="1.51" height="1.51" fill="#fff"/>
    <rect x="37.12" y="43.18" width="1.52" height="1.51" fill="#fff"/>
    <rect x="37.12" y="41.66" width="1.52" height="1.52" fill="#aa0707"/>
    <rect x="37.12" y="40.15" width="1.52" height="1.51" fill="#cc1d1d"/>
    <rect x="37.12" y="38.63" width="1.52" height="1.52" fill="#cc1d1d"/>
    <rect x="37.12" y="37.12" width="1.52" height="1.51" fill="#cc1d1d"/>
    <rect x="37.12" y="35.6" width="1.52" height="1.52" fill="#cc1d1d"/>
    <rect x="37.12" y="34.09" width="1.52" height="1.51" fill="#cc1d1d"/>
    <rect x="37.12" y="32.57" width="1.52" height="1.52" fill="#ef5454"/>
    <rect x="37.12" y="31.06" width="1.52" height="1.51" fill="#fff"/>
    <rect x="37.12" y="17.43" width="1.52" height="1.51" fill="#fff"/>
    <rect x="37.12" y="15.91" width="1.52" height="1.52" fill="#aa0707"/>
    <rect x="37.12" y="14.4" width="1.52" height="1.51" fill="#cc1d1d"/>
    <rect x="37.12" y="12.88" width="1.52" height="1.52" fill="#cc1d1d"/>
    <rect x="37.12" y="11.37" width="1.52" height="1.51" fill="#cc1d1d"/>
    <rect x="37.12" y="9.85" width="1.52" height="1.51" fill="#cc1d1d"/>
    <rect x="37.12" y="8.34" width="1.52" height="1.52" fill="#cc1d1d"/>
    <rect x="37.12" y="6.82" width="1.52" height="1.51" fill="#ef5454"/>
    <rect x="37.12" y="5.31" width="1.52" height="1.52" fill="#fff"/>
    <rect x="35.6" y="41.66" width="1.51" height="1.52" fill="#fff"/>
    <rect x="35.6" y="40.15" width="1.51" height="1.51" fill="#aa0707"/>
    <rect x="35.6" y="38.63" width="1.51" height="1.52" fill="#cc1d1d"/>
    <rect x="35.6" y="37.12" width="1.51" height="1.51" fill="#cc1d1d"/>
    <rect x="35.6" y="35.6" width="1.51" height="1.52" fill="#cc1d1d"/>
    <rect x="35.6" y="34.09" width="1.51" height="1.51" fill="#cc1d1d"/>
    <rect x="35.6" y="32.57" width="1.51" height="1.52" fill="#cc1d1d"/>
    <rect x="35.6" y="31.06" width="1.51" height="1.51" fill="#ef5454"/>
    <rect x="35.6" y="29.54" width="1.51" height="1.51" fill="#fff"/>
    <rect x="35.6" y="18.94" width="1.51" height="1.52" fill="#fff"/>
    <rect x="35.6" y="17.43" width="1.51" height="1.51" fill="#aa0707"/>
    <rect x="35.6" y="15.91" width="1.51" height="1.52" fill="#cc1d1d"/>
    <rect x="35.6" y="14.4" width="1.51" height="1.51" fill="#cc1d1d"/>
    <rect x="35.6" y="12.88" width="1.51" height="1.52" fill="#cc1d1d"/>
    <rect x="35.6" y="11.37" width="1.51" height="1.51" fill="#cc1d1d"/>
    <rect x="35.6" y="9.85" width="1.51" height="1.51" fill="#cc1d1d"/>
    <rect x="35.6" y="8.34" width="1.51" height="1.52" fill="#ef5454"/>
    <rect x="35.6" y="6.82" width="1.51" height="1.51" fill="#fff"/>
    <rect x="34.09" y="40.15" width="1.52" height="1.51" fill="#fff"/>
    <rect x="34.09" y="38.63" width="1.52" height="1.52" fill="#aa0707"/>
    <rect x="34.09" y="37.12" width="1.52" height="1.51" fill="#cc1d1d"/>
    <rect x="34.09" y="35.6" width="1.52" height="1.52" fill="#cc1d1d"/>
    <rect x="34.09" y="34.09" width="1.52" height="1.51" fill="#cc1d1d"/>
    <rect x="34.09" y="32.57" width="1.52" height="1.52" fill="#cc1d1d"/>
    <rect x="34.09" y="31.06" width="1.52" height="1.51" fill="#cc1d1d"/>
    <rect x="34.09" y="29.54" width="1.52" height="1.51" fill="#ef5454"/>
    <rect x="34.09" y="28.03" width="1.52" height="1.52" fill="#fff"/>
    <rect x="34.09" y="20.46" width="1.52" height="1.51" fill="#fff"/>
    <rect x="34.09" y="18.94" width="1.52" height="1.52" fill="#aa0707"/>
    <rect x="34.09" y="17.43" width="1.52" height="1.51" fill="#cc1d1d"/>
    <rect x="34.09" y="15.91" width="1.52" height="1.52" fill="#cc1d1d"/>
    <rect x="34.09" y="14.4" width="1.52" height="1.51" fill="#cc1d1d"/>
    <rect x="34.09" y="12.88" width="1.52" height="1.52" fill="#cc1d1d"/>
    <rect x="34.09" y="11.37" width="1.52" height="1.51" fill="#cc1d1d"/>
    <rect x="34.09" y="9.85" width="1.52" height="1.51" fill="#ef5454"/>
    <rect x="34.09" y="8.34" width="1.52" height="1.52" fill="#fff"/>
    <rect x="32.57" y="38.63" width="1.51" height="1.52" fill="#fff"/>
    <rect x="32.57" y="37.12" width="1.51" height="1.51" fill="#aa0707"/>
    <rect x="32.57" y="35.6" width="1.51" height="1.52" fill="#cc1d1d"/>
    <rect x="32.57" y="34.09" width="1.51" height="1.51" fill="#cc1d1d"/>
    <rect x="32.57" y="32.57" width="1.51" height="1.52" fill="#cc1d1d"/>
    <rect x="32.57" y="31.06" width="1.51" height="1.51" fill="#cc1d1d"/>
    <rect x="32.57" y="29.54" width="1.51" height="1.51" fill="#cc1d1d"/>
    <rect x="32.57" y="28.03" width="1.51" height="1.52" fill="#ef5454"/>
    <rect x="32.57" y="26.52" width="1.51" height="1.51" fill="#fff"/>
    <rect x="32.57" y="21.97" width="1.51" height="1.52" fill="#fff"/>
    <rect x="32.57" y="20.46" width="1.51" height="1.51" fill="#aa0707"/>
    <rect x="32.57" y="18.94" width="1.51" height="1.52" fill="#cc1d1d"/>
    <rect x="32.57" y="17.43" width="1.51" height="1.51" fill="#cc1d1d"/>
    <rect x="32.57" y="15.91" width="1.51" height="1.52" fill="#cc1d1d"/>
    <rect x="32.57" y="14.4" width="1.51" height="1.51" fill="#cc1d1d"/>
    <rect x="32.57" y="12.88" width="1.51" height="1.52" fill="#cc1d1d"/>
    <rect x="32.57" y="11.37" width="1.51" height="1.51" fill="#ef5454"/>
    <rect x="32.57" y="9.85" width="1.51" height="1.51" fill="#fff"/>
    <rect x="31.06" y="37.12" width="1.52" height="1.51" fill="#fff"/>
    <rect x="31.06" y="35.6" width="1.52" height="1.52" fill="#aa0707"/>
    <rect x="31.06" y="34.09" width="1.52" height="1.51" fill="#cc1d1d"/>
    <rect x="31.06" y="32.57" width="1.52" height="1.52" fill="#cc1d1d"/>
    <rect x="31.06" y="31.06" width="1.52" height="1.51" fill="#cc1d1d"/>
    <rect x="31.06" y="29.54" width="1.52" height="1.51" fill="#cc1d1d"/>
    <rect x="31.06" y="28.03" width="1.52" height="1.52" fill="#cc1d1d"/>
    <rect x="31.06" y="26.52" width="1.52" height="1.51" fill="#ef5454"/>
    <rect x="31.06" y="25" width="1.52" height="1.52" fill="#fff"/>
    <rect x="31.06" y="23.49" width="1.52" height="1.51" fill="#fff"/>
    <rect x="31.06" y="21.97" width="1.52" height="1.52" fill="#aa0707"/>
    <rect x="31.06" y="20.46" width="1.52" height="1.51" fill="#cc1d1d"/>
    <rect x="31.06" y="18.94" width="1.52" height="1.52" fill="#cc1d1d"/>
    <rect x="31.06" y="17.43" width="1.52" height="1.51" fill="#cc1d1d"/>
    <rect x="31.06" y="15.91" width="1.52" height="1.52" fill="#cc1d1d"/>
    <rect x="31.06" y="14.4" width="1.52" height="1.51" fill="#cc1d1d"/>
    <rect x="31.06" y="12.88" width="1.52" height="1.52" fill="#ef5454"/>
    <rect x="31.06" y="11.37" width="1.52" height="1.51" fill="#fff"/>
    <rect x="29.54" y="35.6" width="1.51" height="1.52" fill="#fff"/>
    <rect x="29.54" y="34.09" width="1.51" height="1.51" fill="#aa0707"/>
    <rect x="29.54" y="32.57" width="1.51" height="1.52" fill="#cc1d1d"/>
    <rect x="29.54" y="31.06" width="1.51" height="1.51" fill="#cc1d1d"/>
    <rect x="29.54" y="29.54" width="1.51" height="1.51" fill="#cc1d1d"/>
    <rect x="29.54" y="28.03" width="1.51" height="1.52" fill="#cc1d1d"/>
    <rect x="29.54" y="26.52" width="1.51" height="1.51" fill="#cc1d1d"/>
    <rect x="29.54" y="25" width="1.51" height="1.52" fill="#aa0707"/>
    <rect x="29.54" y="23.49" width="1.51" height="1.51" fill="#aa0707"/>
    <rect x="29.54" y="21.97" width="1.51" height="1.52" fill="#cc1d1d"/>
    <rect x="29.54" y="20.46" width="1.51" height="1.51" fill="#cc1d1d"/>
    <rect x="29.54" y="18.94" width="1.51" height="1.52" fill="#cc1d1d"/>
    <rect x="29.54" y="17.43" width="1.51" height="1.51" fill="#cc1d1d"/>
    <rect x="29.54" y="15.91" width="1.51" height="1.52" fill="#cc1d1d"/>
    <rect x="29.54" y="14.4" width="1.51" height="1.51" fill="#ef5454"/>
    <rect x="29.54" y="12.88" width="1.51" height="1.52" fill="#fff"/>
    <rect x="28.03" y="34.09" width="1.52" height="1.51" fill="#fff"/>
    <rect x="28.03" y="32.57" width="1.52" height="1.52" fill="#aa0707"/>
    <rect x="28.03" y="31.06" width="1.52" height="1.51" fill="#cc1d1d"/>
    <rect x="28.03" y="29.54" width="1.52" height="1.51" fill="#cc1d1d"/>
    <rect x="28.03" y="28.03" width="1.52" height="1.52" fill="#cc1d1d"/>
    <rect x="28.03" y="26.52" width="1.52" height="1.51" fill="#cc1d1d"/>
    <rect x="28.03" y="25" width="1.52" height="1.52" fill="#cc1d1d"/>
    <rect x="28.03" y="23.49" width="1.52" height="1.51" fill="#cc1d1d"/>
    <rect x="28.03" y="21.97" width="1.52" height="1.52" fill="#cc1d1d"/>
    <rect x="28.03" y="20.46" width="1.52" height="1.51" fill="#cc1d1d"/>
    <rect x="28.03" y="18.94" width="1.52" height="1.52" fill="#cc1d1d"/>
    <rect x="28.03" y="17.43" width="1.52" height="1.51" fill="#cc1d1d"/>
    <rect x="28.03" y="15.91" width="1.52" height="1.52" fill="#ef5454"/>
    <rect x="28.03" y="14.4" width="1.52" height="1.51" fill="#fff"/>
    <rect x="26.51" y="32.57" width="1.51" height="1.52" fill="#fff"/>
    <rect x="26.51" y="31.06" width="1.51" height="1.51" fill="#aa0707"/>
    <rect x="26.51" y="29.54" width="1.51" height="1.51" fill="#cc1d1d"/>
    <rect x="26.51" y="28.03" width="1.51" height="1.52" fill="#cc1d1d"/>
    <rect x="26.51" y="26.52" width="1.51" height="1.51" fill="#cc1d1d"/>
    <rect x="26.51" y="25" width="1.51" height="1.52" fill="#cc1d1d"/>
    <rect x="26.51" y="23.49" width="1.51" height="1.51" fill="#cc1d1d"/>
    <rect x="26.51" y="21.97" width="1.51" height="1.52" fill="#cc1d1d"/>
    <rect x="26.51" y="20.46" width="1.51" height="1.51" fill="#cc1d1d"/>
    <rect x="26.51" y="18.94" width="1.51" height="1.52" fill="#cc1d1d"/>
    <rect x="26.51" y="17.43" width="1.51" height="1.51" fill="#ef5454"/>
    <rect x="26.51" y="15.91" width="1.51" height="1.52" fill="#fff"/>
    <rect x="25" y="31.06" width="1.51" height="1.51" fill="#fff"/>
    <rect x="25" y="29.54" width="1.51" height="1.51" fill="#aa0707"/>
    <rect x="25" y="28.03" width="1.51" height="1.52" fill="#cc1d1d"/>
    <rect x="25" y="26.52" width="1.51" height="1.51" fill="#cc1d1d"/>
    <rect x="25" y="25" width="1.51" height="1.52" fill="#cc1d1d"/>
    <rect x="25" y="23.49" width="1.51" height="1.51" fill="#cc1d1d"/>
    <rect x="25" y="21.97" width="1.51" height="1.52" fill="#cc1d1d"/>
    <rect x="25" y="20.46" width="1.51" height="1.51" fill="#cc1d1d"/>
    <rect x="25" y="18.94" width="1.51" height="1.52" fill="#ef5454"/>
    <rect x="25" y="17.43" width="1.51" height="1.51" fill="#fff"/>
    <rect x="23.49" y="31.06" width="1.52" height="1.51" fill="#fff"/>
    <rect x="23.49" y="29.54" width="1.52" height="1.51" fill="#aa0707"/>
    <rect x="23.49" y="28.03" width="1.52" height="1.52" fill="#cc1d1d"/>
    <rect x="23.49" y="26.52" width="1.52" height="1.51" fill="#cc1d1d"/>
    <rect x="23.49" y="25" width="1.52" height="1.52" fill="#cc1d1d"/>
    <rect x="23.49" y="23.49" width="1.52" height="1.51" fill="#cc1d1d"/>
    <rect x="23.49" y="21.97" width="1.52" height="1.52" fill="#cc1d1d"/>
    <rect x="23.49" y="20.46" width="1.52" height="1.51" fill="#cc1d1d"/>
    <rect x="23.49" y="18.94" width="1.52" height="1.52" fill="#ef5454"/>
    <rect x="23.49" y="17.43" width="1.52" height="1.51" fill="#fff"/>
    <rect x="21.97" y="32.57" width="1.51" height="1.52" fill="#fff"/>
    <rect x="21.97" y="31.06" width="1.51" height="1.51" fill="#aa0707"/>
    <rect x="21.97" y="29.54" width="1.51" height="1.51" fill="#cc1d1d"/>
    <rect x="21.97" y="28.03" width="1.51" height="1.52" fill="#cc1d1d"/>
    <rect x="21.97" y="26.52" width="1.51" height="1.51" fill="#cc1d1d"/>
    <rect x="21.97" y="25" width="1.51" height="1.52" fill="#cc1d1d"/>
    <rect x="21.97" y="23.49" width="1.51" height="1.51" fill="#cc1d1d"/>
    <rect x="21.97" y="21.97" width="1.51" height="1.52" fill="#cc1d1d"/>
    <rect x="21.97" y="20.46" width="1.51" height="1.51" fill="#cc1d1d"/>
    <rect x="21.97" y="18.94" width="1.51" height="1.52" fill="#cc1d1d"/>
    <rect x="21.97" y="17.43" width="1.51" height="1.51" fill="#ef5454"/>
    <rect x="21.97" y="15.91" width="1.51" height="1.52" fill="#fff"/>
    <rect x="20.46" y="34.09" width="1.52" height="1.51" fill="#fff"/>
    <rect x="20.46" y="32.57" width="1.52" height="1.52" fill="#aa0707"/>
    <rect x="20.46" y="31.06" width="1.52" height="1.51" fill="#cc1d1d"/>
    <rect x="20.46" y="29.54" width="1.52" height="1.51" fill="#cc1d1d"/>
    <rect x="20.46" y="28.03" width="1.52" height="1.52" fill="#cc1d1d"/>
    <rect x="20.46" y="26.52" width="1.52" height="1.51" fill="#cc1d1d"/>
    <rect x="20.46" y="25" width="1.52" height="1.52" fill="#cc1d1d"/>
    <rect x="20.46" y="23.49" width="1.52" height="1.51" fill="#cc1d1d"/>
    <rect x="20.46" y="21.97" width="1.52" height="1.52" fill="#cc1d1d"/>
    <rect x="20.46" y="20.46" width="1.52" height="1.51" fill="#cc1d1d"/>
    <rect x="20.46" y="18.94" width="1.52" height="1.52" fill="#cc1d1d"/>
    <rect x="20.46" y="17.43" width="1.52" height="1.51" fill="#cc1d1d"/>
    <rect x="20.46" y="15.91" width="1.52" height="1.52" fill="#ef5454"/>
    <rect x="20.46" y="14.4" width="1.52" height="1.51" fill="#fff"/>
    <rect x="18.94" y="35.6" width="1.51" height="1.52" fill="#fff"/>
    <rect x="18.94" y="34.09" width="1.51" height="1.51" fill="#aa0707"/>
    <rect x="18.94" y="32.57" width="1.51" height="1.52" fill="#cc1d1d"/>
    <rect x="18.94" y="31.06" width="1.51" height="1.51" fill="#cc1d1d"/>
    <rect x="18.94" y="29.54" width="1.51" height="1.51" fill="#cc1d1d"/>
    <rect x="18.94" y="28.03" width="1.51" height="1.52" fill="#cc1d1d"/>
    <rect x="18.94" y="26.52" width="1.51" height="1.51" fill="#cc1d1d"/>
    <rect x="18.94" y="25" width="1.51" height="1.52" fill="#aa0707"/>
    <rect x="18.94" y="23.49" width="1.51" height="1.51" fill="#aa0707"/>
    <rect x="18.94" y="21.97" width="1.51" height="1.52" fill="#cc1d1d"/>
    <rect x="18.94" y="20.46" width="1.51" height="1.51" fill="#cc1d1d"/>
    <rect x="18.94" y="18.94" width="1.51" height="1.52" fill="#cc1d1d"/>
    <rect x="18.94" y="17.43" width="1.51" height="1.51" fill="#cc1d1d"/>
    <rect x="18.94" y="15.91" width="1.51" height="1.52" fill="#cc1d1d"/>
    <rect x="18.94" y="14.4" width="1.51" height="1.51" fill="#ef5454"/>
    <rect x="18.94" y="12.88" width="1.51" height="1.52" fill="#fff"/>
    <rect x="17.43" y="37.12" width="1.52" height="1.51" fill="#fff"/>
    <rect x="17.43" y="35.6" width="1.52" height="1.52" fill="#aa0707"/>
    <rect x="17.43" y="34.09" width="1.52" height="1.51" fill="#cc1d1d"/>
    <rect x="17.43" y="32.57" width="1.52" height="1.52" fill="#cc1d1d"/>
    <rect x="17.43" y="31.06" width="1.52" height="1.51" fill="#cc1d1d"/>
    <rect x="17.43" y="29.54" width="1.52" height="1.51" fill="#cc1d1d"/>
    <rect x="17.43" y="28.03" width="1.52" height="1.52" fill="#cc1d1d"/>
    <rect x="17.43" y="26.52" width="1.52" height="1.51" fill="#ef5454"/>
    <rect x="17.43" y="25" width="1.52" height="1.52" fill="#fff"/>
    <rect x="17.43" y="23.49" width="1.52" height="1.51" fill="#fff"/>
    <rect x="17.43" y="21.97" width="1.52" height="1.52" fill="#aa0707"/>
    <rect x="17.43" y="20.46" width="1.52" height="1.51" fill="#cc1d1d"/>
    <rect x="17.43" y="18.94" width="1.52" height="1.52" fill="#cc1d1d"/>
    <rect x="17.43" y="17.43" width="1.52" height="1.51" fill="#cc1d1d"/>
    <rect x="17.43" y="15.91" width="1.52" height="1.52" fill="#cc1d1d"/>
    <rect x="17.43" y="14.4" width="1.52" height="1.51" fill="#cc1d1d"/>
    <rect x="17.43" y="12.88" width="1.52" height="1.52" fill="#ef5454"/>
    <rect x="17.43" y="11.37" width="1.52" height="1.51" fill="#fff"/>
    <rect x="15.91" y="38.63" width="1.51" height="1.52" fill="#fff"/>
    <rect x="15.91" y="37.12" width="1.51" height="1.51" fill="#aa0707"/>
    <rect x="15.91" y="35.6" width="1.51" height="1.52" fill="#cc1d1d"/>
    <rect x="15.91" y="34.09" width="1.51" height="1.51" fill="#cc1d1d"/>
    <rect x="15.91" y="32.57" width="1.51" height="1.52" fill="#cc1d1d"/>
    <rect x="15.91" y="31.06" width="1.51" height="1.51" fill="#cc1d1d"/>
    <rect x="15.91" y="29.54" width="1.51" height="1.51" fill="#cc1d1d"/>
    <rect x="15.91" y="28.03" width="1.51" height="1.52" fill="#ef5454"/>
    <rect x="15.91" y="26.52" width="1.51" height="1.51" fill="#fff"/>
    <rect x="15.91" y="21.97" width="1.51" height="1.52" fill="#fff"/>
    <rect x="15.91" y="20.46" width="1.51" height="1.51" fill="#aa0707"/>
    <rect x="15.91" y="18.94" width="1.51" height="1.52" fill="#cc1d1d"/>
    <rect x="15.91" y="17.43" width="1.51" height="1.51" fill="#cc1d1d"/>
    <rect x="15.91" y="15.91" width="1.51" height="1.52" fill="#cc1d1d"/>
    <rect x="15.91" y="14.4" width="1.51" height="1.51" fill="#cc1d1d"/>
    <rect x="15.91" y="12.88" width="1.51" height="1.52" fill="#cc1d1d"/>
    <rect x="15.91" y="11.37" width="1.51" height="1.51" fill="#ef5454"/>
    <rect x="15.91" y="9.85" width="1.51" height="1.51" fill="#fff"/>
    <rect x="14.4" y="40.15" width="1.52" height="1.51" fill="#fff"/>
    <rect x="14.4" y="38.63" width="1.52" height="1.52" fill="#aa0707"/>
    <rect x="14.4" y="37.12" width="1.52" height="1.51" fill="#cc1d1d"/>
    <rect x="14.4" y="35.6" width="1.52" height="1.52" fill="#cc1d1d"/>
    <rect x="14.4" y="34.09" width="1.52" height="1.51" fill="#cc1d1d"/>
    <rect x="14.4" y="32.57" width="1.52" height="1.52" fill="#cc1d1d"/>
    <rect x="14.4" y="31.06" width="1.52" height="1.51" fill="#cc1d1d"/>
    <rect x="14.4" y="29.54" width="1.52" height="1.51" fill="#ef5454"/>
    <rect x="14.4" y="28.03" width="1.52" height="1.52" fill="#fff"/>
    <rect x="14.4" y="20.46" width="1.52" height="1.51" fill="#fff"/>
    <rect x="14.4" y="18.94" width="1.52" height="1.52" fill="#aa0707"/>
    <rect x="14.4" y="17.43" width="1.52" height="1.51" fill="#cc1d1d"/>
    <rect x="14.4" y="15.91" width="1.52" height="1.52" fill="#cc1d1d"/>
    <rect x="14.4" y="14.4" width="1.52" height="1.51" fill="#cc1d1d"/>
    <rect x="14.4" y="12.88" width="1.52" height="1.52" fill="#cc1d1d"/>
    <rect x="14.4" y="11.37" width="1.52" height="1.51" fill="#cc1d1d"/>
    <rect x="14.4" y="9.85" width="1.52" height="1.51" fill="#ef5454"/>
    <rect x="14.4" y="8.34" width="1.52" height="1.52" fill="#fff"/>
    <rect x="12.88" y="41.66" width="1.51" height="1.52" fill="#fff"/>
    <rect x="12.88" y="40.15" width="1.51" height="1.51" fill="#aa0707"/>
    <rect x="12.88" y="38.63" width="1.51" height="1.52" fill="#cc1d1d"/>
    <rect x="12.88" y="37.12" width="1.51" height="1.51" fill="#cc1d1d"/>
    <rect x="12.88" y="35.6" width="1.51" height="1.52" fill="#cc1d1d"/>
    <rect x="12.88" y="34.09" width="1.51" height="1.51" fill="#cc1d1d"/>
    <rect x="12.88" y="32.57" width="1.51" height="1.52" fill="#cc1d1d"/>
    <rect x="12.88" y="31.06" width="1.51" height="1.51" fill="#ef5454"/>
    <rect x="12.88" y="29.54" width="1.51" height="1.51" fill="#fff"/>
    <rect x="12.88" y="18.94" width="1.51" height="1.52" fill="#fff"/>
    <rect x="12.88" y="17.43" width="1.51" height="1.51" fill="#aa0707"/>
    <rect x="12.88" y="15.91" width="1.51" height="1.52" fill="#cc1d1d"/>
    <rect x="12.88" y="14.4" width="1.51" height="1.51" fill="#cc1d1d"/>
    <rect x="12.88" y="12.88" width="1.51" height="1.52" fill="#cc1d1d"/>
    <rect x="12.88" y="11.37" width="1.51" height="1.51" fill="#cc1d1d"/>
    <rect x="12.88" y="9.85" width="1.51" height="1.51" fill="#cc1d1d"/>
    <rect x="12.88" y="8.34" width="1.51" height="1.52" fill="#ef5454"/>
    <rect x="12.88" y="6.82" width="1.51" height="1.51" fill="#fff"/>
    <rect x="11.37" y="43.18" width="1.52" height="1.51" fill="#fff"/>
    <rect x="11.37" y="41.66" width="1.52" height="1.52" fill="#aa0707"/>
    <rect x="11.37" y="40.15" width="1.52" height="1.51" fill="#cc1d1d"/>
    <rect x="11.37" y="38.63" width="1.52" height="1.52" fill="#cc1d1d"/>
    <rect x="11.37" y="37.12" width="1.52" height="1.51" fill="#cc1d1d"/>
    <rect x="11.37" y="35.6" width="1.52" height="1.52" fill="#cc1d1d"/>
    <rect x="11.37" y="34.09" width="1.52" height="1.51" fill="#cc1d1d"/>
    <rect x="11.37" y="32.57" width="1.52" height="1.52" fill="#ef5454"/>
    <rect x="11.37" y="31.06" width="1.52" height="1.51" fill="#fff"/>
    <rect x="11.37" y="17.43" width="1.52" height="1.51" fill="#fff"/>
    <rect x="11.37" y="15.91" width="1.52" height="1.52" fill="#aa0707"/>
    <rect x="11.37" y="14.4" width="1.52" height="1.51" fill="#cc1d1d"/>
    <rect x="11.37" y="12.88" width="1.52" height="1.52" fill="#cc1d1d"/>
    <rect x="11.37" y="11.37" width="1.52" height="1.51" fill="#cc1d1d"/>
    <rect x="11.37" y="9.85" width="1.52" height="1.51" fill="#cc1d1d"/>
    <rect x="11.37" y="8.34" width="1.52" height="1.52" fill="#cc1d1d"/>
    <rect x="11.37" y="6.82" width="1.52" height="1.51" fill="#ef5454"/>
    <rect x="11.37" y="5.31" width="1.52" height="1.52" fill="#fff"/>
    <rect x="9.85" y="44.69" width="1.51" height="1.52" fill="#fff"/>
    <rect x="9.85" y="43.18" width="1.51" height="1.51" fill="#aa0707"/>
    <rect x="9.85" y="41.66" width="1.51" height="1.52" fill="#cc1d1d"/>
    <rect x="9.85" y="40.15" width="1.51" height="1.51" fill="#cc1d1d"/>
    <rect x="9.85" y="38.63" width="1.51" height="1.52" fill="#cc1d1d"/>
    <rect x="9.85" y="37.12" width="1.51" height="1.51" fill="#cc1d1d"/>
    <rect x="9.85" y="35.6" width="1.51" height="1.52" fill="#cc1d1d"/>
    <rect x="9.85" y="34.09" width="1.51" height="1.51" fill="#ef5454"/>
    <rect x="9.85" y="32.57" width="1.51" height="1.52" fill="#fff"/>
    <rect x="9.85" y="15.91" width="1.51" height="1.52" fill="#fff"/>
    <rect x="9.85" y="14.4" width="1.51" height="1.51" fill="#aa0707"/>
    <rect x="9.85" y="12.88" width="1.51" height="1.52" fill="#cc1d1d"/>
    <rect x="9.85" y="11.37" width="1.51" height="1.51" fill="#cc1d1d"/>
    <rect x="9.85" y="9.85" width="1.51" height="1.51" fill="#cc1d1d"/>
    <rect x="9.85" y="8.34" width="1.51" height="1.52" fill="#cc1d1d"/>
    <rect x="9.85" y="6.82" width="1.51" height="1.51" fill="#cc1d1d"/>
    <rect x="9.85" y="5.31" width="1.51" height="1.52" fill="#ef5454"/>
    <rect x="9.85" y="3.8" width="1.51" height="1.51" fill="#fff"/>
    <rect x="8.34" y="46.21" width="1.52" height="1.51" fill="#fff"/>
    <rect x="8.34" y="44.69" width="1.52" height="1.52" fill="#aa0707"/>
    <rect x="8.34" y="43.18" width="1.52" height="1.51" fill="#cc1d1d"/>
    <rect x="8.34" y="41.66" width="1.52" height="1.52" fill="#cc1d1d"/>
    <rect x="8.34" y="40.15" width="1.52" height="1.51" fill="#cc1d1d"/>
    <rect x="8.34" y="38.63" width="1.52" height="1.52" fill="#cc1d1d"/>
    <rect x="8.34" y="37.12" width="1.52" height="1.51" fill="#cc1d1d"/>
    <rect x="8.34" y="35.6" width="1.52" height="1.52" fill="#ef5454"/>
    <rect x="8.34" y="34.09" width="1.52" height="1.51" fill="#fff"/>
    <rect x="8.34" y="14.4" width="1.52" height="1.51" fill="#fff"/>
    <rect x="8.34" y="12.88" width="1.52" height="1.52" fill="#aa0707"/>
    <rect x="8.34" y="11.37" width="1.52" height="1.51" fill="#cc1d1d"/>
    <rect x="8.34" y="9.85" width="1.52" height="1.51" fill="#cc1d1d"/>
    <rect x="8.34" y="8.34" width="1.52" height="1.52" fill="#cc1d1d"/>
    <rect x="8.34" y="6.82" width="1.52" height="1.51" fill="#cc1d1d"/>
    <rect x="8.34" y="5.31" width="1.52" height="1.52" fill="#cc1d1d"/>
    <rect x="8.34" y="3.8" width="1.52" height="1.51" fill="#ef5454"/>
    <rect x="8.34" y="2.28" width="1.52" height="1.52" fill="#fff"/>
    <rect x="6.82" y="46.21" width="1.51" height="1.51" fill="#fff"/>
    <rect x="6.82" y="44.69" width="1.51" height="1.52" fill="#aa0707"/>
    <rect x="6.82" y="43.18" width="1.51" height="1.51" fill="#cc1d1d"/>
    <rect x="6.82" y="41.66" width="1.51" height="1.52" fill="#cc1d1d"/>
    <rect x="6.82" y="40.15" width="1.51" height="1.51" fill="#cc1d1d"/>
    <rect x="6.82" y="38.63" width="1.51" height="1.52" fill="#cc1d1d"/>
    <rect x="6.82" y="37.12" width="1.51" height="1.51" fill="#ef5454"/>
    <rect x="6.82" y="35.6" width="1.51" height="1.52" fill="#fff"/>
    <rect x="6.82" y="12.88" width="1.51" height="1.52" fill="#fff"/>
    <rect x="6.82" y="11.37" width="1.51" height="1.51" fill="#aa0707"/>
    <rect x="6.82" y="9.85" width="1.51" height="1.51" fill="#cc1d1d"/>
    <rect x="6.82" y="8.34" width="1.51" height="1.52" fill="#cc1d1d"/>
    <rect x="6.82" y="6.82" width="1.51" height="1.51" fill="#cc1d1d"/>
    <rect x="6.82" y="5.31" width="1.51" height="1.52" fill="#cc1d1d"/>
    <rect x="6.82" y="3.8" width="1.51" height="1.51" fill="#ef5454"/>
    <rect x="6.82" y="2.28" width="1.51" height="1.52" fill="#fff"/>
    <rect x="5.31" y="44.69" width="1.51" height="1.52" fill="#fff"/>
    <rect x="5.31" y="43.18" width="1.51" height="1.51" fill="#aa0707"/>
    <rect x="5.31" y="41.66" width="1.51" height="1.52" fill="#cc1d1d"/>
    <rect x="5.31" y="40.15" width="1.51" height="1.51" fill="#cc1d1d"/>
    <rect x="5.31" y="38.63" width="1.51" height="1.52" fill="#ef5454"/>
    <rect x="5.31" y="37.12" width="1.51" height="1.51" fill="#fff"/>
    <rect x="5.31" y="11.37" width="1.51" height="1.51" fill="#fff"/>
    <rect x="5.31" y="9.85" width="1.51" height="1.51" fill="#aa0707"/>
    <rect x="5.31" y="8.34" width="1.51" height="1.52" fill="#cc1d1d"/>
    <rect x="5.31" y="6.82" width="1.51" height="1.51" fill="#cc1d1d"/>
    <rect x="5.31" y="5.31" width="1.51" height="1.52" fill="#ef5454"/>
    <rect x="5.31" y="3.8" width="1.51" height="1.51" fill="#fff"/>
    <rect x="3.8" y="43.18" width="1.52" height="1.51" fill="#fff"/>
    <rect x="3.8" y="41.66" width="1.52" height="1.52" fill="#aa0707"/>
    <rect x="3.8" y="40.15" width="1.52" height="1.51" fill="#ef5454"/>
    <rect x="3.8" y="38.63" width="1.52" height="1.52" fill="#fff"/>
    <rect x="3.8" y="9.85" width="1.52" height="1.51" fill="#fff"/>
    <rect x="3.8" y="8.34" width="1.52" height="1.52" fill="#aa0707"/>
    <rect x="3.8" y="6.82" width="1.52" height="1.51" fill="#ef5454"/>
    <rect x="3.8" y="5.31" width="1.52" height="1.52" fill="#fff"/>
    <rect x="2.28" y="41.66" width="1.51" height="1.52" fill="#fff"/>
    <rect x="2.28" y="40.15" width="1.51" height="1.51" fill="#fff"/>
    <rect x="2.28" y="8.34" width="1.51" height="1.52" fill="#fff"/>
    <rect x="2.28" y="6.82" width="1.51" height="1.51" fill="#fff"/>
  </g>
</svg>
