<svg id="Capa_1" data-name="Capa 1" xmlns="http://www.w3.org/2000/svg" xmlns:xlink="http://www.w3.org/1999/xlink" width="50" height="50" viewBox="0 0 50 50">
  <defs>
    <clipPath id="clip-path">
      <polygon points="24.04 49.76 1.26 39.47 1.42 9.18 24.2 19.46 24.04 49.76" fill="none"/>
    </clipPath>
    <clipPath id="clip-path-2">
      <polygon points="24.2 19.46 1.42 9.18 25.97 0.24 48.75 10.53 24.2 19.46" fill="none"/>
    </clipPath>
    <clipPath id="clip-path-3">
      <polygon points="48.75 10.53 48.59 40.82 24.04 49.76 24.2 19.46 48.75 10.53" fill="none"/>
    </clipPath>
  </defs>
  <g id="Figment_lido">
    <g style="isolation: isolate">
      <g>
        <polygon points="24.04 49.76 1.26 39.47 1.42 9.18 24.2 19.46 24.04 49.76" fill="#180d44"/>
        <g style="isolation: isolate">
          <g clip-path="url(#clip-path)">
            <path d="M12.45,38.31a.58.58,0,0,1-.2-.17c-1.49-1.85-3-3.68-4.47-5.52a.93.93,0,0,1-.22-.5c0-2,0-4,0-6.09l.28.34c1.45,1.84,2.9,3.67,4.34,5.52a.93.93,0,0,0,.27.24.36.36,0,0,0,.27,0c1.44-.52,2.9-1,4.34-1.51l.31-.11V31c0,1.78,0,3.54,0,5.32,0,.28-.06.42-.26.48-1.48.49-3,1-4.44,1.49a.28.28,0,0,1-.22,0m0-7.82a.55.55,0,0,1-.18-.17L7.92,24.77l-.13-.18c1.53-.52,3-1,4.53-1.5l.28.07c1.54,1.89,3.07,3.79,4.65,5.72l-2.39.84c-.73.25-1.46.49-2.18.77a.3.3,0,0,1-.21,0m4.89-3.32c-.63-.77-1.23-1.52-1.86-2.31l1.87-1.21v3.52M7.59,22.73V19.17l1.88,2.91-1.88.65m-1-7c0,.15,0,.2,0,.25l0,16.45a.72.72,0,0,0,.2.54q2.77,3.4,5.53,6.82a.62.62,0,0,0,.23.19.33.33,0,0,0,.22,0c1.84-.63,3.69-1.25,5.53-1.86.16,0,.24-.14.24-.42,0-5.39,0-10.79,0-16.19,0-.1,0-.2,0-.36a1.52,1.52,0,0,0-.26.14c-1.18.76-2.36,1.51-3.53,2.3a.27.27,0,0,1-.28,0,.91.91,0,0,1-.26-.24c-.46-.59-.93-1.15-1.39-1.74a.77.77,0,0,0-.23-.2.31.31,0,0,0-.23,0c-.48.18-1,.31-1.45.5a.25.25,0,0,1-.19,0,.57.57,0,0,1-.19-.21c-.55-.86-1.1-1.72-1.65-2.55L6.55,15.71" fill="#fff" opacity="0.8"/>
          </g>
        </g>
      </g>
      <g>
        <polygon points="24.2 19.46 1.42 9.18 25.97 0.24 48.75 10.53 24.2 19.46" fill="#1b0e4b"/>
        <g style="isolation: isolate">
          <g clip-path="url(#clip-path-2)">
            <path d="M32.85,12.75a1.41,1.41,0,0,1-.29.05c-2.63.21-5.24.44-7.86.66a1.51,1.51,0,0,1-.55-.05c-1.55-.68-3.08-1.38-4.68-2.1l.49-.05,7.74-.58a1.64,1.64,0,0,0,.41-.08.37.37,0,0,0,.21-.15c.77-1,1.57-2,2.35-3,0-.06.1-.12.17-.21l.39.18c1.36.61,2.7,1.23,4.08,1.84.21.1.27.18.17.31-.83,1-1.65,2-2.45,3.06a.42.42,0,0,1-.18.13m-6-2.71a1.19,1.19,0,0,1-.27,0l-7.8.59h-.24L21,7.57l.29-.14,8.15-.69L28.19,8.4c-.4.51-.79,1-1.17,1.52a.37.37,0,0,1-.17.12m1.4-3.95L25,6.36c.19-.5.38-1,.57-1.49l2.7,1.22M17,10.16,14.22,8.92,18,8.85l-1,1.31M10.71,8.33l.17.1L23.5,14.12a1,1,0,0,0,.58.08l9.71-.82a1.22,1.22,0,0,0,.33-.06.43.43,0,0,0,.19-.13c1-1.27,2-2.54,3-3.8.1-.12.09-.19-.13-.29L24.79,3.5l-.29-.12-.11.2c-.37.94-.74,1.87-1.08,2.82a.3.3,0,0,1-.19.17,1.61,1.61,0,0,1-.4.06l-2.46.21a1.23,1.23,0,0,0-.34.06.35.35,0,0,0-.18.13c-.26.33-.55.66-.8,1a.26.26,0,0,1-.14.11.92.92,0,0,1-.32,0c-1.11,0-2.21,0-3.29.06l-4.48.09" fill="#fff" opacity="0.8"/>
          </g>
        </g>
      </g>
      <g>
        <polygon points="48.75 10.53 48.59 40.82 24.04 49.76 24.2 19.46 48.75 10.53" fill="#1b0e4c"/>
        <g style="isolation: isolate">
          <g clip-path="url(#clip-path-3)">
            <path d="M37.07,40.05a.37.37,0,0,1-.23,0c-1.74-.62-3.49-1.21-5.24-1.82a.42.42,0,0,1-.24-.34c0-2.11,0-4.25,0-6.46l.32.11c1.7.64,3.4,1.28,5.09,1.94a.44.44,0,0,0,.32,0,.83.83,0,0,0,.31-.24c1.69-1.85,3.4-3.67,5.1-5.51.1-.12.2-.22.36-.38v.53c0,1.89,0,3.77,0,5.66a.93.93,0,0,1-.29.73Q39.92,37,37.33,39.85a.82.82,0,0,1-.26.2m0-8.31a.31.31,0,0,1-.21,0c-1.71-.67-3.42-1.3-5.12-1.95l-.15-.08C33.44,27.77,35.2,25.9,37,24l.33-.18,5.44,1.88-2.81,3c-.86.93-1.71,1.84-2.56,2.78a.73.73,0,0,1-.24.19m5.74-7.92-2.17-.77,2.19-3,0,3.74M31.41,27.91l0-3.78c.74.48,1.45.92,2.19,1.39l-2.21,2.39m-1.2-6.51c0,.17,0,.23,0,.28l-.1,17.47c0,.26.08.35.24.4q3.24,1.11,6.47,2.25a.39.39,0,0,0,.26,0,.75.75,0,0,0,.27-.2l6.48-6.93A.85.85,0,0,0,44.1,34q0-8.58.08-17.19c0-.1,0-.21,0-.36l-.31.37c-1.38,1.87-2.77,3.73-4.14,5.62a.76.76,0,0,1-.33.29.36.36,0,0,1-.3,0l-1.64-.58a.42.42,0,0,0-.27,0,.7.7,0,0,0-.26.2c-.57.62-1.14,1.21-1.71,1.84a.52.52,0,0,1-.22.17.21.21,0,0,1-.22,0c-.64-.42-1.29-.83-1.93-1.22L30.21,21.4" fill="#fff" opacity="0.8"/>
          </g>
        </g>
      </g>
    </g>
  </g>
  <g>
    <rect x="46.2" y="41.66" width="1.51" height="1.52" fill="#fff"/>
    <rect x="46.2" y="40.15" width="1.51" height="1.51" fill="#fff"/>
    <rect x="46.2" y="8.34" width="1.51" height="1.52" fill="#fff"/>
    <rect x="46.2" y="6.82" width="1.51" height="1.51" fill="#fff"/>
    <rect x="44.69" y="43.18" width="1.52" height="1.51" fill="#fff"/>
    <rect x="44.69" y="41.66" width="1.52" height="1.52" fill="#ef5454"/>
    <rect x="44.69" y="40.15" width="1.52" height="1.51" fill="#ef5454"/>
    <rect x="44.69" y="38.63" width="1.52" height="1.52" fill="#fff"/>
    <rect x="44.69" y="9.85" width="1.52" height="1.51" fill="#fff"/>
    <rect x="44.69" y="8.34" width="1.52" height="1.52" fill="#aa0707"/>
    <rect x="44.69" y="6.82" width="1.52" height="1.51" fill="#ef5454"/>
    <rect x="44.69" y="5.31" width="1.52" height="1.52" fill="#fff"/>
    <rect x="43.18" y="44.69" width="1.51" height="1.52" fill="#fff"/>
    <rect x="43.18" y="43.18" width="1.51" height="1.51" fill="#aa0707"/>
    <rect x="43.18" y="41.66" width="1.51" height="1.52" fill="#cc1d1d"/>
    <rect x="43.18" y="40.15" width="1.51" height="1.51" fill="#cc1d1d"/>
    <rect x="43.18" y="38.63" width="1.51" height="1.52" fill="#ef5454"/>
    <rect x="43.18" y="37.12" width="1.51" height="1.51" fill="#fff"/>
    <rect x="43.18" y="11.37" width="1.51" height="1.51" fill="#fff"/>
    <rect x="43.18" y="9.85" width="1.51" height="1.51" fill="#aa0707"/>
    <rect x="43.18" y="8.34" width="1.51" height="1.52" fill="#cc1d1d"/>
    <rect x="43.18" y="6.82" width="1.51" height="1.51" fill="#cc1d1d"/>
    <rect x="43.18" y="5.31" width="1.51" height="1.52" fill="#ef5454"/>
    <rect x="43.18" y="3.8" width="1.51" height="1.51" fill="#fff"/>
    <rect x="41.66" y="46.21" width="1.51" height="1.51" fill="#fff"/>
    <rect x="41.66" y="44.69" width="1.51" height="1.52" fill="#aa0707"/>
    <rect x="41.66" y="43.18" width="1.51" height="1.51" fill="#cc1d1d"/>
    <rect x="41.66" y="41.66" width="1.51" height="1.52" fill="#cc1d1d"/>
    <rect x="41.66" y="40.15" width="1.51" height="1.51" fill="#cc1d1d"/>
    <rect x="41.66" y="38.63" width="1.51" height="1.52" fill="#cc1d1d"/>
    <rect x="41.66" y="37.12" width="1.51" height="1.51" fill="#ef5454"/>
    <rect x="41.66" y="35.6" width="1.51" height="1.52" fill="#fff"/>
    <rect x="41.66" y="12.88" width="1.51" height="1.52" fill="#fff"/>
    <rect x="41.66" y="11.37" width="1.51" height="1.51" fill="#aa0707"/>
    <rect x="41.66" y="9.85" width="1.51" height="1.51" fill="#cc1d1d"/>
    <rect x="41.66" y="8.34" width="1.51" height="1.52" fill="#cc1d1d"/>
    <rect x="41.66" y="6.82" width="1.51" height="1.51" fill="#cc1d1d"/>
    <rect x="41.66" y="5.31" width="1.51" height="1.52" fill="#cc1d1d"/>
    <rect x="41.66" y="3.8" width="1.51" height="1.51" fill="#ef5454"/>
    <rect x="41.66" y="2.28" width="1.51" height="1.52" fill="#fff"/>
    <rect x="40.15" y="46.21" width="1.52" height="1.51" fill="#fff"/>
    <rect x="40.15" y="44.69" width="1.52" height="1.52" fill="#aa0707"/>
    <rect x="40.15" y="43.18" width="1.52" height="1.51" fill="#cc1d1d"/>
    <rect x="40.15" y="41.66" width="1.52" height="1.52" fill="#cc1d1d"/>
    <rect x="40.15" y="40.15" width="1.52" height="1.51" fill="#cc1d1d"/>
    <rect x="40.15" y="38.63" width="1.52" height="1.52" fill="#cc1d1d"/>
    <rect x="40.15" y="37.12" width="1.52" height="1.51" fill="#cc1d1d"/>
    <rect x="40.15" y="35.6" width="1.52" height="1.52" fill="#ef5454"/>
    <rect x="40.15" y="34.09" width="1.52" height="1.51" fill="#fff"/>
    <rect x="40.15" y="14.4" width="1.52" height="1.51" fill="#fff"/>
    <rect x="40.15" y="12.88" width="1.52" height="1.52" fill="#aa0707"/>
    <rect x="40.15" y="11.37" width="1.52" height="1.51" fill="#cc1d1d"/>
    <rect x="40.15" y="9.85" width="1.52" height="1.51" fill="#cc1d1d"/>
    <rect x="40.15" y="8.34" width="1.52" height="1.52" fill="#cc1d1d"/>
    <rect x="40.15" y="6.82" width="1.52" height="1.51" fill="#cc1d1d"/>
    <rect x="40.15" y="5.31" width="1.52" height="1.52" fill="#cc1d1d"/>
    <rect x="40.15" y="3.8" width="1.52" height="1.51" fill="#ef5454"/>
    <rect x="40.15" y="2.28" width="1.52" height="1.52" fill="#fff"/>
    <rect x="38.63" y="44.69" width="1.51" height="1.52" fill="#fff"/>
    <rect x="38.63" y="43.18" width="1.51" height="1.51" fill="#aa0707"/>
    <rect x="38.63" y="41.66" width="1.51" height="1.52" fill="#cc1d1d"/>
    <rect x="38.63" y="40.15" width="1.51" height="1.51" fill="#cc1d1d"/>
    <rect x="38.63" y="38.63" width="1.51" height="1.52" fill="#cc1d1d"/>
    <rect x="38.63" y="37.12" width="1.51" height="1.51" fill="#cc1d1d"/>
    <rect x="38.63" y="35.6" width="1.51" height="1.52" fill="#cc1d1d"/>
    <rect x="38.63" y="34.09" width="1.51" height="1.51" fill="#ef5454"/>
    <rect x="38.63" y="32.57" width="1.51" height="1.52" fill="#fff"/>
    <rect x="38.63" y="15.91" width="1.51" height="1.52" fill="#fff"/>
    <rect x="38.63" y="14.4" width="1.51" height="1.51" fill="#aa0707"/>
    <rect x="38.63" y="12.88" width="1.51" height="1.52" fill="#cc1d1d"/>
    <rect x="38.63" y="11.37" width="1.51" height="1.51" fill="#cc1d1d"/>
    <rect x="38.63" y="9.85" width="1.51" height="1.51" fill="#cc1d1d"/>
    <rect x="38.63" y="8.34" width="1.51" height="1.52" fill="#cc1d1d"/>
    <rect x="38.63" y="6.82" width="1.51" height="1.51" fill="#cc1d1d"/>
    <rect x="38.63" y="5.31" width="1.51" height="1.52" fill="#ef5454"/>
    <rect x="38.63" y="3.8" width="1.51" height="1.51" fill="#fff"/>
    <rect x="37.12" y="43.18" width="1.52" height="1.51" fill="#fff"/>
    <rect x="37.12" y="41.66" width="1.52" height="1.52" fill="#aa0707"/>
    <rect x="37.12" y="40.15" width="1.52" height="1.51" fill="#cc1d1d"/>
    <rect x="37.12" y="38.63" width="1.52" height="1.52" fill="#cc1d1d"/>
    <rect x="37.12" y="37.12" width="1.52" height="1.51" fill="#cc1d1d"/>
    <rect x="37.12" y="35.6" width="1.52" height="1.52" fill="#cc1d1d"/>
    <rect x="37.12" y="34.09" width="1.52" height="1.51" fill="#cc1d1d"/>
    <rect x="37.12" y="32.57" width="1.52" height="1.52" fill="#ef5454"/>
    <rect x="37.12" y="31.06" width="1.52" height="1.51" fill="#fff"/>
    <rect x="37.12" y="17.43" width="1.52" height="1.51" fill="#fff"/>
    <rect x="37.12" y="15.91" width="1.52" height="1.52" fill="#aa0707"/>
    <rect x="37.12" y="14.4" width="1.52" height="1.51" fill="#cc1d1d"/>
    <rect x="37.12" y="12.88" width="1.52" height="1.52" fill="#cc1d1d"/>
    <rect x="37.12" y="11.37" width="1.52" height="1.51" fill="#cc1d1d"/>
    <rect x="37.12" y="9.85" width="1.52" height="1.51" fill="#cc1d1d"/>
    <rect x="37.12" y="8.34" width="1.52" height="1.52" fill="#cc1d1d"/>
    <rect x="37.12" y="6.82" width="1.52" height="1.51" fill="#ef5454"/>
    <rect x="37.12" y="5.31" width="1.52" height="1.52" fill="#fff"/>
    <rect x="35.6" y="41.66" width="1.51" height="1.52" fill="#fff"/>
    <rect x="35.6" y="40.15" width="1.51" height="1.51" fill="#aa0707"/>
    <rect x="35.6" y="38.63" width="1.51" height="1.52" fill="#cc1d1d"/>
    <rect x="35.6" y="37.12" width="1.51" height="1.51" fill="#cc1d1d"/>
    <rect x="35.6" y="35.6" width="1.51" height="1.52" fill="#cc1d1d"/>
    <rect x="35.6" y="34.09" width="1.51" height="1.51" fill="#cc1d1d"/>
    <rect x="35.6" y="32.57" width="1.51" height="1.52" fill="#cc1d1d"/>
    <rect x="35.6" y="31.06" width="1.51" height="1.51" fill="#ef5454"/>
    <rect x="35.6" y="29.54" width="1.51" height="1.51" fill="#fff"/>
    <rect x="35.6" y="18.94" width="1.51" height="1.52" fill="#fff"/>
    <rect x="35.6" y="17.43" width="1.51" height="1.51" fill="#aa0707"/>
    <rect x="35.6" y="15.91" width="1.51" height="1.52" fill="#cc1d1d"/>
    <rect x="35.6" y="14.4" width="1.51" height="1.51" fill="#cc1d1d"/>
    <rect x="35.6" y="12.88" width="1.51" height="1.52" fill="#cc1d1d"/>
    <rect x="35.6" y="11.37" width="1.51" height="1.51" fill="#cc1d1d"/>
    <rect x="35.6" y="9.85" width="1.51" height="1.51" fill="#cc1d1d"/>
    <rect x="35.6" y="8.34" width="1.51" height="1.52" fill="#ef5454"/>
    <rect x="35.6" y="6.82" width="1.51" height="1.51" fill="#fff"/>
    <rect x="34.09" y="40.15" width="1.52" height="1.51" fill="#fff"/>
    <rect x="34.09" y="38.63" width="1.52" height="1.52" fill="#aa0707"/>
    <rect x="34.09" y="37.12" width="1.52" height="1.51" fill="#cc1d1d"/>
    <rect x="34.09" y="35.6" width="1.52" height="1.52" fill="#cc1d1d"/>
    <rect x="34.09" y="34.09" width="1.52" height="1.51" fill="#cc1d1d"/>
    <rect x="34.09" y="32.57" width="1.52" height="1.52" fill="#cc1d1d"/>
    <rect x="34.09" y="31.06" width="1.52" height="1.51" fill="#cc1d1d"/>
    <rect x="34.09" y="29.54" width="1.52" height="1.51" fill="#ef5454"/>
    <rect x="34.09" y="28.03" width="1.52" height="1.52" fill="#fff"/>
    <rect x="34.09" y="20.46" width="1.52" height="1.51" fill="#fff"/>
    <rect x="34.09" y="18.94" width="1.52" height="1.52" fill="#aa0707"/>
    <rect x="34.09" y="17.43" width="1.52" height="1.51" fill="#cc1d1d"/>
    <rect x="34.09" y="15.91" width="1.52" height="1.52" fill="#cc1d1d"/>
    <rect x="34.09" y="14.4" width="1.52" height="1.51" fill="#cc1d1d"/>
    <rect x="34.09" y="12.88" width="1.52" height="1.52" fill="#cc1d1d"/>
    <rect x="34.09" y="11.37" width="1.52" height="1.51" fill="#cc1d1d"/>
    <rect x="34.09" y="9.85" width="1.52" height="1.51" fill="#ef5454"/>
    <rect x="34.09" y="8.34" width="1.52" height="1.52" fill="#fff"/>
    <rect x="32.57" y="38.63" width="1.51" height="1.52" fill="#fff"/>
    <rect x="32.57" y="37.12" width="1.51" height="1.51" fill="#aa0707"/>
    <rect x="32.57" y="35.6" width="1.51" height="1.52" fill="#cc1d1d"/>
    <rect x="32.57" y="34.09" width="1.51" height="1.51" fill="#cc1d1d"/>
    <rect x="32.57" y="32.57" width="1.51" height="1.52" fill="#cc1d1d"/>
    <rect x="32.57" y="31.06" width="1.51" height="1.51" fill="#cc1d1d"/>
    <rect x="32.57" y="29.54" width="1.51" height="1.51" fill="#cc1d1d"/>
    <rect x="32.57" y="28.03" width="1.51" height="1.52" fill="#ef5454"/>
    <rect x="32.57" y="26.52" width="1.51" height="1.51" fill="#fff"/>
    <rect x="32.57" y="21.97" width="1.51" height="1.52" fill="#fff"/>
    <rect x="32.57" y="20.46" width="1.51" height="1.51" fill="#aa0707"/>
    <rect x="32.57" y="18.94" width="1.51" height="1.52" fill="#cc1d1d"/>
    <rect x="32.57" y="17.43" width="1.51" height="1.51" fill="#cc1d1d"/>
    <rect x="32.57" y="15.91" width="1.51" height="1.52" fill="#cc1d1d"/>
    <rect x="32.57" y="14.4" width="1.51" height="1.51" fill="#cc1d1d"/>
    <rect x="32.57" y="12.88" width="1.51" height="1.52" fill="#cc1d1d"/>
    <rect x="32.57" y="11.37" width="1.51" height="1.51" fill="#ef5454"/>
    <rect x="32.57" y="9.85" width="1.51" height="1.51" fill="#fff"/>
    <rect x="31.06" y="37.12" width="1.52" height="1.51" fill="#fff"/>
    <rect x="31.06" y="35.6" width="1.52" height="1.52" fill="#aa0707"/>
    <rect x="31.06" y="34.09" width="1.52" height="1.51" fill="#cc1d1d"/>
    <rect x="31.06" y="32.57" width="1.52" height="1.52" fill="#cc1d1d"/>
    <rect x="31.06" y="31.06" width="1.52" height="1.51" fill="#cc1d1d"/>
    <rect x="31.06" y="29.54" width="1.52" height="1.51" fill="#cc1d1d"/>
    <rect x="31.06" y="28.03" width="1.52" height="1.52" fill="#cc1d1d"/>
    <rect x="31.06" y="26.52" width="1.52" height="1.51" fill="#ef5454"/>
    <rect x="31.06" y="25" width="1.52" height="1.52" fill="#fff"/>
    <rect x="31.06" y="23.49" width="1.52" height="1.51" fill="#fff"/>
    <rect x="31.06" y="21.97" width="1.52" height="1.52" fill="#aa0707"/>
    <rect x="31.06" y="20.46" width="1.52" height="1.51" fill="#cc1d1d"/>
    <rect x="31.06" y="18.94" width="1.52" height="1.52" fill="#cc1d1d"/>
    <rect x="31.06" y="17.43" width="1.52" height="1.51" fill="#cc1d1d"/>
    <rect x="31.06" y="15.91" width="1.52" height="1.52" fill="#cc1d1d"/>
    <rect x="31.06" y="14.4" width="1.52" height="1.51" fill="#cc1d1d"/>
    <rect x="31.06" y="12.88" width="1.52" height="1.52" fill="#ef5454"/>
    <rect x="31.06" y="11.37" width="1.52" height="1.51" fill="#fff"/>
    <rect x="29.54" y="35.6" width="1.51" height="1.52" fill="#fff"/>
    <rect x="29.54" y="34.09" width="1.51" height="1.51" fill="#aa0707"/>
    <rect x="29.54" y="32.57" width="1.51" height="1.52" fill="#cc1d1d"/>
    <rect x="29.54" y="31.06" width="1.51" height="1.51" fill="#cc1d1d"/>
    <rect x="29.54" y="29.54" width="1.51" height="1.51" fill="#cc1d1d"/>
    <rect x="29.54" y="28.03" width="1.51" height="1.52" fill="#cc1d1d"/>
    <rect x="29.54" y="26.52" width="1.51" height="1.51" fill="#cc1d1d"/>
    <rect x="29.54" y="25" width="1.51" height="1.52" fill="#aa0707"/>
    <rect x="29.54" y="23.49" width="1.51" height="1.51" fill="#aa0707"/>
    <rect x="29.54" y="21.97" width="1.51" height="1.52" fill="#cc1d1d"/>
    <rect x="29.54" y="20.46" width="1.51" height="1.51" fill="#cc1d1d"/>
    <rect x="29.54" y="18.94" width="1.51" height="1.52" fill="#cc1d1d"/>
    <rect x="29.54" y="17.43" width="1.51" height="1.51" fill="#cc1d1d"/>
    <rect x="29.54" y="15.91" width="1.51" height="1.52" fill="#cc1d1d"/>
    <rect x="29.54" y="14.4" width="1.51" height="1.51" fill="#ef5454"/>
    <rect x="29.54" y="12.88" width="1.51" height="1.52" fill="#fff"/>
    <rect x="28.03" y="34.09" width="1.52" height="1.51" fill="#fff"/>
    <rect x="28.03" y="32.57" width="1.52" height="1.52" fill="#aa0707"/>
    <rect x="28.03" y="31.06" width="1.52" height="1.51" fill="#cc1d1d"/>
    <rect x="28.03" y="29.54" width="1.52" height="1.51" fill="#cc1d1d"/>
    <rect x="28.03" y="28.03" width="1.52" height="1.52" fill="#cc1d1d"/>
    <rect x="28.03" y="26.52" width="1.52" height="1.51" fill="#cc1d1d"/>
    <rect x="28.03" y="25" width="1.52" height="1.52" fill="#cc1d1d"/>
    <rect x="28.03" y="23.49" width="1.52" height="1.51" fill="#cc1d1d"/>
    <rect x="28.03" y="21.97" width="1.52" height="1.52" fill="#cc1d1d"/>
    <rect x="28.03" y="20.46" width="1.52" height="1.51" fill="#cc1d1d"/>
    <rect x="28.03" y="18.94" width="1.52" height="1.52" fill="#cc1d1d"/>
    <rect x="28.03" y="17.43" width="1.52" height="1.51" fill="#cc1d1d"/>
    <rect x="28.03" y="15.91" width="1.52" height="1.52" fill="#ef5454"/>
    <rect x="28.03" y="14.4" width="1.52" height="1.51" fill="#fff"/>
    <rect x="26.51" y="32.57" width="1.51" height="1.52" fill="#fff"/>
    <rect x="26.51" y="31.06" width="1.51" height="1.51" fill="#aa0707"/>
    <rect x="26.51" y="29.54" width="1.51" height="1.51" fill="#cc1d1d"/>
    <rect x="26.51" y="28.03" width="1.51" height="1.52" fill="#cc1d1d"/>
    <rect x="26.51" y="26.52" width="1.51" height="1.51" fill="#cc1d1d"/>
    <rect x="26.51" y="25" width="1.51" height="1.52" fill="#cc1d1d"/>
    <rect x="26.51" y="23.49" width="1.51" height="1.51" fill="#cc1d1d"/>
    <rect x="26.51" y="21.97" width="1.51" height="1.52" fill="#cc1d1d"/>
    <rect x="26.51" y="20.46" width="1.51" height="1.51" fill="#cc1d1d"/>
    <rect x="26.51" y="18.94" width="1.51" height="1.52" fill="#cc1d1d"/>
    <rect x="26.51" y="17.43" width="1.51" height="1.51" fill="#ef5454"/>
    <rect x="26.51" y="15.91" width="1.51" height="1.52" fill="#fff"/>
    <rect x="25" y="31.06" width="1.51" height="1.51" fill="#fff"/>
    <rect x="25" y="29.54" width="1.51" height="1.51" fill="#aa0707"/>
    <rect x="25" y="28.03" width="1.51" height="1.52" fill="#cc1d1d"/>
    <rect x="25" y="26.52" width="1.51" height="1.51" fill="#cc1d1d"/>
    <rect x="25" y="25" width="1.51" height="1.52" fill="#cc1d1d"/>
    <rect x="25" y="23.49" width="1.51" height="1.51" fill="#cc1d1d"/>
    <rect x="25" y="21.97" width="1.51" height="1.52" fill="#cc1d1d"/>
    <rect x="25" y="20.46" width="1.51" height="1.51" fill="#cc1d1d"/>
    <rect x="25" y="18.94" width="1.51" height="1.52" fill="#ef5454"/>
    <rect x="25" y="17.43" width="1.51" height="1.51" fill="#fff"/>
    <rect x="23.49" y="31.06" width="1.52" height="1.51" fill="#fff"/>
    <rect x="23.49" y="29.54" width="1.52" height="1.51" fill="#aa0707"/>
    <rect x="23.49" y="28.03" width="1.52" height="1.52" fill="#cc1d1d"/>
    <rect x="23.49" y="26.52" width="1.52" height="1.51" fill="#cc1d1d"/>
    <rect x="23.49" y="25" width="1.52" height="1.52" fill="#cc1d1d"/>
    <rect x="23.49" y="23.49" width="1.52" height="1.51" fill="#cc1d1d"/>
    <rect x="23.49" y="21.97" width="1.52" height="1.52" fill="#cc1d1d"/>
    <rect x="23.49" y="20.46" width="1.52" height="1.51" fill="#cc1d1d"/>
    <rect x="23.49" y="18.94" width="1.52" height="1.52" fill="#ef5454"/>
    <rect x="23.49" y="17.43" width="1.52" height="1.51" fill="#fff"/>
    <rect x="21.97" y="32.57" width="1.51" height="1.52" fill="#fff"/>
    <rect x="21.97" y="31.06" width="1.51" height="1.51" fill="#aa0707"/>
    <rect x="21.97" y="29.54" width="1.51" height="1.51" fill="#cc1d1d"/>
    <rect x="21.97" y="28.03" width="1.51" height="1.52" fill="#cc1d1d"/>
    <rect x="21.97" y="26.52" width="1.51" height="1.51" fill="#cc1d1d"/>
    <rect x="21.97" y="25" width="1.51" height="1.52" fill="#cc1d1d"/>
    <rect x="21.97" y="23.49" width="1.51" height="1.51" fill="#cc1d1d"/>
    <rect x="21.97" y="21.97" width="1.51" height="1.52" fill="#cc1d1d"/>
    <rect x="21.97" y="20.46" width="1.51" height="1.51" fill="#cc1d1d"/>
    <rect x="21.97" y="18.94" width="1.51" height="1.52" fill="#cc1d1d"/>
    <rect x="21.97" y="17.43" width="1.51" height="1.51" fill="#ef5454"/>
    <rect x="21.97" y="15.91" width="1.51" height="1.52" fill="#fff"/>
    <rect x="20.46" y="34.09" width="1.52" height="1.51" fill="#fff"/>
    <rect x="20.46" y="32.57" width="1.52" height="1.52" fill="#aa0707"/>
    <rect x="20.46" y="31.06" width="1.52" height="1.51" fill="#cc1d1d"/>
    <rect x="20.46" y="29.54" width="1.52" height="1.51" fill="#cc1d1d"/>
    <rect x="20.46" y="28.03" width="1.52" height="1.52" fill="#cc1d1d"/>
    <rect x="20.46" y="26.52" width="1.52" height="1.51" fill="#cc1d1d"/>
    <rect x="20.46" y="25" width="1.52" height="1.52" fill="#cc1d1d"/>
    <rect x="20.46" y="23.49" width="1.52" height="1.51" fill="#cc1d1d"/>
    <rect x="20.46" y="21.97" width="1.52" height="1.52" fill="#cc1d1d"/>
    <rect x="20.46" y="20.46" width="1.52" height="1.51" fill="#cc1d1d"/>
    <rect x="20.46" y="18.94" width="1.52" height="1.52" fill="#cc1d1d"/>
    <rect x="20.46" y="17.43" width="1.52" height="1.51" fill="#cc1d1d"/>
    <rect x="20.46" y="15.91" width="1.52" height="1.52" fill="#ef5454"/>
    <rect x="20.46" y="14.4" width="1.52" height="1.51" fill="#fff"/>
    <rect x="18.94" y="35.6" width="1.51" height="1.52" fill="#fff"/>
    <rect x="18.94" y="34.09" width="1.51" height="1.51" fill="#aa0707"/>
    <rect x="18.94" y="32.57" width="1.51" height="1.52" fill="#cc1d1d"/>
    <rect x="18.94" y="31.06" width="1.51" height="1.51" fill="#cc1d1d"/>
    <rect x="18.94" y="29.54" width="1.51" height="1.51" fill="#cc1d1d"/>
    <rect x="18.94" y="28.03" width="1.51" height="1.52" fill="#cc1d1d"/>
    <rect x="18.94" y="26.52" width="1.51" height="1.51" fill="#cc1d1d"/>
    <rect x="18.94" y="25" width="1.51" height="1.52" fill="#aa0707"/>
    <rect x="18.94" y="23.49" width="1.51" height="1.51" fill="#aa0707"/>
    <rect x="18.94" y="21.97" width="1.51" height="1.52" fill="#cc1d1d"/>
    <rect x="18.94" y="20.46" width="1.51" height="1.51" fill="#cc1d1d"/>
    <rect x="18.94" y="18.94" width="1.51" height="1.52" fill="#cc1d1d"/>
    <rect x="18.94" y="17.43" width="1.51" height="1.51" fill="#cc1d1d"/>
    <rect x="18.94" y="15.91" width="1.51" height="1.52" fill="#cc1d1d"/>
    <rect x="18.94" y="14.4" width="1.51" height="1.51" fill="#ef5454"/>
    <rect x="18.94" y="12.88" width="1.51" height="1.52" fill="#fff"/>
    <rect x="17.43" y="37.12" width="1.52" height="1.51" fill="#fff"/>
    <rect x="17.43" y="35.6" width="1.52" height="1.52" fill="#aa0707"/>
    <rect x="17.43" y="34.09" width="1.52" height="1.51" fill="#cc1d1d"/>
    <rect x="17.43" y="32.57" width="1.52" height="1.52" fill="#cc1d1d"/>
    <rect x="17.43" y="31.06" width="1.52" height="1.51" fill="#cc1d1d"/>
    <rect x="17.43" y="29.54" width="1.52" height="1.51" fill="#cc1d1d"/>
    <rect x="17.43" y="28.03" width="1.52" height="1.52" fill="#cc1d1d"/>
    <rect x="17.43" y="26.52" width="1.52" height="1.51" fill="#ef5454"/>
    <rect x="17.43" y="25" width="1.52" height="1.52" fill="#fff"/>
    <rect x="17.43" y="23.49" width="1.52" height="1.51" fill="#fff"/>
    <rect x="17.43" y="21.97" width="1.52" height="1.52" fill="#aa0707"/>
    <rect x="17.43" y="20.46" width="1.52" height="1.51" fill="#cc1d1d"/>
    <rect x="17.43" y="18.94" width="1.52" height="1.52" fill="#cc1d1d"/>
    <rect x="17.43" y="17.43" width="1.52" height="1.51" fill="#cc1d1d"/>
    <rect x="17.43" y="15.91" width="1.52" height="1.52" fill="#cc1d1d"/>
    <rect x="17.43" y="14.4" width="1.52" height="1.51" fill="#cc1d1d"/>
    <rect x="17.43" y="12.88" width="1.52" height="1.52" fill="#ef5454"/>
    <rect x="17.43" y="11.37" width="1.52" height="1.51" fill="#fff"/>
    <rect x="15.91" y="38.63" width="1.51" height="1.52" fill="#fff"/>
    <rect x="15.91" y="37.12" width="1.51" height="1.51" fill="#aa0707"/>
    <rect x="15.91" y="35.6" width="1.51" height="1.52" fill="#cc1d1d"/>
    <rect x="15.91" y="34.09" width="1.51" height="1.51" fill="#cc1d1d"/>
    <rect x="15.91" y="32.57" width="1.51" height="1.52" fill="#cc1d1d"/>
    <rect x="15.91" y="31.06" width="1.51" height="1.51" fill="#cc1d1d"/>
    <rect x="15.91" y="29.54" width="1.51" height="1.51" fill="#cc1d1d"/>
    <rect x="15.91" y="28.03" width="1.51" height="1.52" fill="#ef5454"/>
    <rect x="15.91" y="26.52" width="1.51" height="1.51" fill="#fff"/>
    <rect x="15.91" y="21.97" width="1.51" height="1.52" fill="#fff"/>
    <rect x="15.91" y="20.46" width="1.51" height="1.51" fill="#aa0707"/>
    <rect x="15.91" y="18.94" width="1.51" height="1.52" fill="#cc1d1d"/>
    <rect x="15.91" y="17.43" width="1.51" height="1.51" fill="#cc1d1d"/>
    <rect x="15.91" y="15.91" width="1.51" height="1.52" fill="#cc1d1d"/>
    <rect x="15.91" y="14.4" width="1.51" height="1.51" fill="#cc1d1d"/>
    <rect x="15.91" y="12.88" width="1.51" height="1.52" fill="#cc1d1d"/>
    <rect x="15.91" y="11.37" width="1.51" height="1.51" fill="#ef5454"/>
    <rect x="15.91" y="9.85" width="1.51" height="1.51" fill="#fff"/>
    <rect x="14.4" y="40.15" width="1.52" height="1.51" fill="#fff"/>
    <rect x="14.4" y="38.63" width="1.52" height="1.52" fill="#aa0707"/>
    <rect x="14.4" y="37.12" width="1.52" height="1.51" fill="#cc1d1d"/>
    <rect x="14.4" y="35.6" width="1.52" height="1.52" fill="#cc1d1d"/>
    <rect x="14.4" y="34.09" width="1.52" height="1.51" fill="#cc1d1d"/>
    <rect x="14.4" y="32.57" width="1.52" height="1.52" fill="#cc1d1d"/>
    <rect x="14.4" y="31.06" width="1.52" height="1.51" fill="#cc1d1d"/>
    <rect x="14.4" y="29.54" width="1.52" height="1.51" fill="#ef5454"/>
    <rect x="14.4" y="28.03" width="1.52" height="1.52" fill="#fff"/>
    <rect x="14.4" y="20.46" width="1.52" height="1.51" fill="#fff"/>
    <rect x="14.4" y="18.94" width="1.52" height="1.52" fill="#aa0707"/>
    <rect x="14.4" y="17.43" width="1.52" height="1.51" fill="#cc1d1d"/>
    <rect x="14.4" y="15.91" width="1.52" height="1.52" fill="#cc1d1d"/>
    <rect x="14.4" y="14.4" width="1.52" height="1.51" fill="#cc1d1d"/>
    <rect x="14.4" y="12.88" width="1.52" height="1.52" fill="#cc1d1d"/>
    <rect x="14.4" y="11.37" width="1.52" height="1.51" fill="#cc1d1d"/>
    <rect x="14.4" y="9.85" width="1.52" height="1.51" fill="#ef5454"/>
    <rect x="14.4" y="8.34" width="1.52" height="1.52" fill="#fff"/>
    <rect x="12.88" y="41.66" width="1.51" height="1.52" fill="#fff"/>
    <rect x="12.88" y="40.15" width="1.51" height="1.51" fill="#aa0707"/>
    <rect x="12.88" y="38.63" width="1.51" height="1.52" fill="#cc1d1d"/>
    <rect x="12.88" y="37.12" width="1.51" height="1.51" fill="#cc1d1d"/>
    <rect x="12.88" y="35.6" width="1.51" height="1.52" fill="#cc1d1d"/>
    <rect x="12.88" y="34.09" width="1.51" height="1.51" fill="#cc1d1d"/>
    <rect x="12.88" y="32.57" width="1.51" height="1.52" fill="#cc1d1d"/>
    <rect x="12.88" y="31.06" width="1.51" height="1.51" fill="#ef5454"/>
    <rect x="12.88" y="29.54" width="1.51" height="1.51" fill="#fff"/>
    <rect x="12.88" y="18.94" width="1.51" height="1.52" fill="#fff"/>
    <rect x="12.88" y="17.43" width="1.51" height="1.51" fill="#aa0707"/>
    <rect x="12.88" y="15.91" width="1.51" height="1.52" fill="#cc1d1d"/>
    <rect x="12.88" y="14.4" width="1.51" height="1.51" fill="#cc1d1d"/>
    <rect x="12.88" y="12.88" width="1.51" height="1.52" fill="#cc1d1d"/>
    <rect x="12.88" y="11.37" width="1.51" height="1.51" fill="#cc1d1d"/>
    <rect x="12.88" y="9.85" width="1.51" height="1.51" fill="#cc1d1d"/>
    <rect x="12.88" y="8.34" width="1.51" height="1.52" fill="#ef5454"/>
    <rect x="12.88" y="6.82" width="1.51" height="1.51" fill="#fff"/>
    <rect x="11.37" y="43.18" width="1.52" height="1.51" fill="#fff"/>
    <rect x="11.37" y="41.66" width="1.52" height="1.52" fill="#aa0707"/>
    <rect x="11.37" y="40.15" width="1.52" height="1.51" fill="#cc1d1d"/>
    <rect x="11.37" y="38.63" width="1.52" height="1.52" fill="#cc1d1d"/>
    <rect x="11.37" y="37.12" width="1.52" height="1.51" fill="#cc1d1d"/>
    <rect x="11.37" y="35.6" width="1.52" height="1.52" fill="#cc1d1d"/>
    <rect x="11.37" y="34.09" width="1.52" height="1.51" fill="#cc1d1d"/>
    <rect x="11.37" y="32.57" width="1.52" height="1.52" fill="#ef5454"/>
    <rect x="11.37" y="31.06" width="1.52" height="1.51" fill="#fff"/>
    <rect x="11.37" y="17.43" width="1.52" height="1.51" fill="#fff"/>
    <rect x="11.37" y="15.91" width="1.52" height="1.52" fill="#aa0707"/>
    <rect x="11.37" y="14.4" width="1.52" height="1.51" fill="#cc1d1d"/>
    <rect x="11.37" y="12.88" width="1.52" height="1.52" fill="#cc1d1d"/>
    <rect x="11.37" y="11.37" width="1.52" height="1.51" fill="#cc1d1d"/>
    <rect x="11.37" y="9.85" width="1.52" height="1.51" fill="#cc1d1d"/>
    <rect x="11.37" y="8.34" width="1.52" height="1.52" fill="#cc1d1d"/>
    <rect x="11.37" y="6.82" width="1.52" height="1.51" fill="#ef5454"/>
    <rect x="11.37" y="5.31" width="1.52" height="1.52" fill="#fff"/>
    <rect x="9.85" y="44.69" width="1.51" height="1.52" fill="#fff"/>
    <rect x="9.85" y="43.18" width="1.51" height="1.51" fill="#aa0707"/>
    <rect x="9.85" y="41.66" width="1.51" height="1.52" fill="#cc1d1d"/>
    <rect x="9.85" y="40.15" width="1.51" height="1.51" fill="#cc1d1d"/>
    <rect x="9.85" y="38.63" width="1.51" height="1.52" fill="#cc1d1d"/>
    <rect x="9.85" y="37.12" width="1.51" height="1.51" fill="#cc1d1d"/>
    <rect x="9.85" y="35.6" width="1.51" height="1.52" fill="#cc1d1d"/>
    <rect x="9.85" y="34.09" width="1.51" height="1.51" fill="#ef5454"/>
    <rect x="9.85" y="32.57" width="1.51" height="1.52" fill="#fff"/>
    <rect x="9.85" y="15.91" width="1.51" height="1.52" fill="#fff"/>
    <rect x="9.85" y="14.4" width="1.51" height="1.51" fill="#aa0707"/>
    <rect x="9.85" y="12.88" width="1.51" height="1.52" fill="#cc1d1d"/>
    <rect x="9.85" y="11.37" width="1.51" height="1.51" fill="#cc1d1d"/>
    <rect x="9.85" y="9.85" width="1.51" height="1.51" fill="#cc1d1d"/>
    <rect x="9.85" y="8.34" width="1.51" height="1.52" fill="#cc1d1d"/>
    <rect x="9.85" y="6.82" width="1.51" height="1.51" fill="#cc1d1d"/>
    <rect x="9.85" y="5.31" width="1.51" height="1.52" fill="#ef5454"/>
    <rect x="9.85" y="3.8" width="1.51" height="1.51" fill="#fff"/>
    <rect x="8.34" y="46.21" width="1.51" height="1.51" fill="#fff"/>
    <rect x="8.34" y="44.69" width="1.51" height="1.52" fill="#aa0707"/>
    <rect x="8.34" y="43.18" width="1.51" height="1.51" fill="#cc1d1d"/>
    <rect x="8.34" y="41.66" width="1.51" height="1.52" fill="#cc1d1d"/>
    <rect x="8.34" y="40.15" width="1.51" height="1.51" fill="#cc1d1d"/>
    <rect x="8.34" y="38.63" width="1.51" height="1.52" fill="#cc1d1d"/>
    <rect x="8.34" y="37.12" width="1.51" height="1.51" fill="#cc1d1d"/>
    <rect x="8.34" y="35.6" width="1.51" height="1.52" fill="#ef5454"/>
    <rect x="8.34" y="34.09" width="1.51" height="1.51" fill="#fff"/>
    <rect x="8.34" y="14.4" width="1.51" height="1.51" fill="#fff"/>
    <rect x="8.34" y="12.88" width="1.51" height="1.52" fill="#aa0707"/>
    <rect x="8.34" y="11.37" width="1.51" height="1.51" fill="#cc1d1d"/>
    <rect x="8.34" y="9.85" width="1.51" height="1.51" fill="#cc1d1d"/>
    <rect x="8.34" y="8.34" width="1.51" height="1.52" fill="#cc1d1d"/>
    <rect x="8.34" y="6.82" width="1.51" height="1.51" fill="#cc1d1d"/>
    <rect x="8.34" y="5.31" width="1.51" height="1.52" fill="#cc1d1d"/>
    <rect x="8.34" y="3.8" width="1.51" height="1.51" fill="#ef5454"/>
    <rect x="8.34" y="2.28" width="1.51" height="1.52" fill="#fff"/>
    <rect x="6.82" y="46.21" width="1.52" height="1.51" fill="#fff"/>
    <rect x="6.82" y="44.69" width="1.52" height="1.52" fill="#aa0707"/>
    <rect x="6.82" y="43.18" width="1.52" height="1.51" fill="#cc1d1d"/>
    <rect x="6.82" y="41.66" width="1.52" height="1.52" fill="#cc1d1d"/>
    <rect x="6.82" y="40.15" width="1.52" height="1.51" fill="#cc1d1d"/>
    <rect x="6.82" y="38.63" width="1.52" height="1.52" fill="#cc1d1d"/>
    <rect x="6.82" y="37.12" width="1.52" height="1.51" fill="#ef5454"/>
    <rect x="6.82" y="35.6" width="1.52" height="1.52" fill="#fff"/>
    <rect x="6.82" y="12.88" width="1.52" height="1.52" fill="#fff"/>
    <rect x="6.82" y="11.37" width="1.52" height="1.51" fill="#aa0707"/>
    <rect x="6.82" y="9.85" width="1.52" height="1.51" fill="#cc1d1d"/>
    <rect x="6.82" y="8.34" width="1.52" height="1.52" fill="#cc1d1d"/>
    <rect x="6.82" y="6.82" width="1.52" height="1.51" fill="#cc1d1d"/>
    <rect x="6.82" y="5.31" width="1.52" height="1.52" fill="#cc1d1d"/>
    <rect x="6.82" y="3.8" width="1.52" height="1.51" fill="#ef5454"/>
    <rect x="6.82" y="2.28" width="1.52" height="1.52" fill="#fff"/>
    <rect x="5.31" y="44.69" width="1.51" height="1.52" fill="#fff"/>
    <rect x="5.31" y="43.18" width="1.51" height="1.51" fill="#aa0707"/>
    <rect x="5.31" y="41.66" width="1.51" height="1.52" fill="#cc1d1d"/>
    <rect x="5.31" y="40.15" width="1.51" height="1.51" fill="#cc1d1d"/>
    <rect x="5.31" y="38.63" width="1.51" height="1.52" fill="#ef5454"/>
    <rect x="5.31" y="37.12" width="1.51" height="1.51" fill="#fff"/>
    <rect x="5.31" y="11.37" width="1.51" height="1.51" fill="#fff"/>
    <rect x="5.31" y="9.85" width="1.51" height="1.51" fill="#aa0707"/>
    <rect x="5.31" y="8.34" width="1.51" height="1.52" fill="#cc1d1d"/>
    <rect x="5.31" y="6.82" width="1.51" height="1.51" fill="#cc1d1d"/>
    <rect x="5.31" y="5.31" width="1.51" height="1.52" fill="#ef5454"/>
    <rect x="5.31" y="3.8" width="1.51" height="1.51" fill="#fff"/>
    <rect x="3.8" y="43.18" width="1.52" height="1.51" fill="#fff"/>
    <rect x="3.8" y="41.66" width="1.52" height="1.52" fill="#aa0707"/>
    <rect x="3.8" y="40.15" width="1.52" height="1.51" fill="#ef5454"/>
    <rect x="3.8" y="38.63" width="1.52" height="1.52" fill="#fff"/>
    <rect x="3.8" y="9.85" width="1.52" height="1.51" fill="#fff"/>
    <rect x="3.8" y="8.34" width="1.52" height="1.52" fill="#aa0707"/>
    <rect x="3.8" y="6.82" width="1.52" height="1.51" fill="#ef5454"/>
    <rect x="3.8" y="5.31" width="1.52" height="1.52" fill="#fff"/>
    <rect x="2.28" y="41.66" width="1.51" height="1.52" fill="#fff"/>
    <rect x="2.28" y="40.15" width="1.51" height="1.51" fill="#fff"/>
    <rect x="2.28" y="8.34" width="1.51" height="1.52" fill="#fff"/>
    <rect x="2.28" y="6.82" width="1.51" height="1.51" fill="#fff"/>
  </g>
</svg>
