<svg id="Capa_1" data-name="Capa 1" xmlns="http://www.w3.org/2000/svg" xmlns:xlink="http://www.w3.org/1999/xlink" width="50" height="50" viewBox="0 0 50 50">
  <defs>
    <clipPath id="clip-path">
      <polygon points="24.05 49.77 1.26 39.48 1.42 9.17 24.21 19.46 24.05 49.77" fill="none"/>
    </clipPath>
    <clipPath id="clip-path-2">
      <polygon points="24.21 19.46 1.42 9.17 25.96 0.24 48.75 10.53 24.21 19.46" fill="none"/>
    </clipPath>
    <clipPath id="clip-path-3">
      <polygon points="48.75 10.53 48.59 40.83 24.05 49.77 24.21 19.46 48.75 10.53" fill="none"/>
    </clipPath>
  </defs>
  <g id="Figment_lido">
    <g style="isolation: isolate">
      <g>
        <polygon points="24.05 49.77 1.26 39.48 1.42 9.17 24.21 19.46 24.05 49.77" fill="#254182"/>
        <g style="isolation: isolate">
          <g clip-path="url(#clip-path)">
            <g>
              <path d="M12.76,20.07a4,4,0,0,0-.45-.16,2,2,0,0,0-2.6,1.49,6.11,6.11,0,0,0,.49,4.68c1.27,2.7,2.55,5.41,3.83,8.1a3.94,3.94,0,0,1,.38,2.07c-.13,1.1-.88,1.65-1.75,1.28h0a3.65,3.65,0,0,1-1.75-2.77c0-.24,0-.46,0-.69-.38,0-.72,0-1.07-.07s-.41,0-.33.51a6.57,6.57,0,0,0,3.17,5,2.88,2.88,0,0,0,.67.21c2.37.41,3.39-3,1.88-6.2-.59-1.26-1.2-2.51-1.78-3.77-.71-1.5-1.43-3-2.12-4.49a3.11,3.11,0,0,1-.15-2.63A1.08,1.08,0,0,1,12.7,22l.08,0a3.27,3.27,0,0,1,1.57,2.25,9.06,9.06,0,0,1,.17,1.09l1.39.15c0-.19,0-.4-.05-.61a6.51,6.51,0,0,0-3.1-4.84" fill="#edb500"/>
              <path d="M8.9,23.24a2.09,2.09,0,0,0-2.46.48c-.94,1-1.21,2.53-.73,4.53a6.87,6.87,0,0,0,2.84,4.4,4,4,0,0,0,.56.31c1.38.62,2.41,0,3.25-1.17-.31-.67-.62-1.33-.95-2-.3.32-.58.64-.88.93A1.3,1.3,0,0,1,9,30.89a2.76,2.76,0,0,1-.85-.65A4.6,4.6,0,0,1,7,26.83c.09-1.08.76-1.75,1.62-1.6a6.08,6.08,0,0,1,.72.24c-.16-.74-.32-1.47-.48-2.23" fill="#fff"/>
              <path d="M16.3,26.57l-.3-.12c-1.34-.44-2.26.19-3,1.26.32.66.64,1.34.95,2,.33-.34.62-.66.93-.95a1.23,1.23,0,0,1,1.42-.16,3,3,0,0,1,1.08.88A4.56,4.56,0,0,1,18.26,33c-.25,1.1-1.05,1.59-2,1.19L16,34c.17.75.32,1.48.49,2.26.18,0,.41.12.62.15,1.8.25,3-1.6,2.74-4.15s-1.77-4.91-3.5-5.7" fill="#fff"/>
            </g>
          </g>
        </g>
      </g>
      <g>
        <polygon points="24.21 19.46 1.42 9.17 25.96 0.24 48.75 10.53 24.21 19.46" fill="#29488f"/>
        <g style="isolation: isolate">
          <g clip-path="url(#clip-path-2)">
            <g>
              <path d="M17.78,6.21a3.75,3.75,0,0,0-.5.21C16,7,15.63,7.73,16.31,8.5s2.12,1.24,4.15,1.37l9.67.61a4.4,4.4,0,0,1,2,.52c.77.46.59,1.11-.43,1.49h0a6.49,6.49,0,0,1-3.68.06c-.21-.07-.38-.15-.57-.23-.33.22-.62.43-.95.61s-.37.23.14.38a11.76,11.76,0,0,0,6.61-.11,6.17,6.17,0,0,0,.73-.33c2.29-1.26.43-3.07-3.41-3.32L26,9.27l-5.35-.34a2.94,2.94,0,0,1-2.24-.84c-.31-.46,0-.86.83-1.16l.11,0a6.06,6.06,0,0,1,3.1-.13c.37.08.7.2,1,.29.42-.25.84-.5,1.28-.78l-.53-.18a11.51,11.51,0,0,0-6.45.12" fill="#edb500"/>
              <path d="M17.1,9.64c-1.09.44-1.69,1-1.66,1.63,0,.92,1,1.62,3,2.05a12.45,12.45,0,0,0,5.89-.12,7.44,7.44,0,0,0,.71-.23c1.65-.6,2-1.42,1.77-2.35l-2.4-.15a8.1,8.1,0,0,1,0,.85c0,.37-.44.72-1.09.95a5.7,5.7,0,0,1-1.23.29A6.43,6.43,0,0,1,18.43,12c-.79-.44-.76-1.08.07-1.53.23-.13.54-.24.78-.35l-2.18-.5" fill="#fff"/>
              <path d="M25.93,6.42l-.35.14c-1.47.63-1.73,1.41-1.52,2.25L26.45,9a6.54,6.54,0,0,1,0-.89c0-.36.42-.68,1.05-.91a6.56,6.56,0,0,1,1.59-.32,5.77,5.77,0,0,1,3.56.69c.68.54.41,1.19-.69,1.61l-.39.14,2.21.51c.19-.09.44-.2.64-.31,1.7-1,1.22-2.37-1-3.11a12.72,12.72,0,0,0-7.46,0" fill="#fff"/>
            </g>
          </g>
        </g>
      </g>
      <g>
        <polygon points="48.75 10.53 48.59 40.83 24.05 49.77 24.21 19.46 48.75 10.53" fill="#294992"/>
        <g style="isolation: isolate">
          <g clip-path="url(#clip-path-3)">
            <g>
              <path d="M37,20.19a4.38,4.38,0,0,0-.5.23,6.12,6.12,0,0,0-2.94,3.79c-.56,1.85-.36,3.32.55,4.36,1.44,1.66,2.89,3.3,4.33,5a2.24,2.24,0,0,1,.44,1.78,3.62,3.62,0,0,1-2,2.84h0a1.45,1.45,0,0,1-2-1.31c0-.22,0-.45,0-.67-.42.31-.82.61-1.21.86s-.46.32-.37.81c.35,2,1.87,2.94,3.59,2.31a4.07,4.07,0,0,0,.76-.37c2.68-1.65,3.82-6,2.11-8-.66-.77-1.35-1.53-2-2.29-.8-.92-1.61-1.81-2.39-2.75a2.5,2.5,0,0,1-.18-2.55,3.1,3.1,0,0,1,1.78-2l.1,0a1.29,1.29,0,0,1,1.78.92,8.3,8.3,0,0,1,.19,1L40.6,23c0-.18,0-.39-.06-.58A2.58,2.58,0,0,0,37,20.19" fill="#edb500"/>
              <path d="M32.65,26.81a6,6,0,0,0-2.78,2.64,6.39,6.39,0,0,0-.82,5.27,2.61,2.61,0,0,0,3.22,2,4.17,4.17,0,0,0,.63-.18c1.57-.57,2.73-2.08,3.68-4-.35-.42-.71-.82-1.07-1.23-.35.59-.67,1.17-1,1.72a3.46,3.46,0,0,1-1.68,1.48,1.74,1.74,0,0,1-1,.09c-.93-.21-1.43-1.16-1.31-2.48a4.24,4.24,0,0,1,1.84-3.05,6.62,6.62,0,0,1,.81-.39c-.18-.61-.36-1.23-.55-1.86" fill="#fff"/>
              <path d="M41,23.75l-.34.14a8,8,0,0,0-3.43,3.94L38.33,29c.37-.62.7-1.21,1.05-1.78A3.39,3.39,0,0,1,41,25.85a1.89,1.89,0,0,1,1.22,0c.87.3,1.3,1.46,1,2.77A4,4,0,0,1,41,31.52l-.37.14c.19.63.37,1.23.56,1.88.2-.11.46-.23.7-.39A7.42,7.42,0,0,0,45,26.51c-.31-2.33-2-3.48-4-2.76" fill="#fff"/>
            </g>
          </g>
        </g>
      </g>
    </g>
  </g>
</svg>
