<svg id="Capa_1" data-name="Capa 1" xmlns="http://www.w3.org/2000/svg" xmlns:xlink="http://www.w3.org/1999/xlink" width="50" height="50" viewBox="0 0 50 50">
  <defs>
    <clipPath id="clip-path">
      <polygon points="24.04 49.76 1.25 39.47 1.41 9.17 24.2 19.46 24.04 49.76" fill="none"/>
    </clipPath>
    <clipPath id="clip-path-2">
      <polygon points="24.2 19.46 1.41 9.17 25.96 0.24 48.74 10.53 24.2 19.46" fill="none"/>
    </clipPath>
    <clipPath id="clip-path-3">
      <polygon points="48.74 10.53 48.58 40.82 24.04 49.76 24.2 19.46 48.74 10.53" fill="none"/>
    </clipPath>
  </defs>
  <g id="Figment_lido">
    <g style="isolation: isolate">
      <g>
        <polygon points="24.04 49.76 1.25 39.47 1.41 9.17 24.2 19.46 24.04 49.76" fill="#90c4c2"/>
        <g style="isolation: isolate">
          <g clip-path="url(#clip-path)">
            <g>
              <path d="M15.85,33.1h0l.07,0-.07,0M8.94,30l-.11,0h0l.11,0m.15,0L9,30l.08,0m6.57,3,.09.06L15.66,33M8.5,28.17h0a.31.31,0,0,1,.11.09.41.41,0,0,0-.1-.09m3.87,5.72a10.27,10.27,0,0,1-2-1.21.43.43,0,0,1-.19-.41c0-.47,0-.93,0-1.4h0c0-.53,0-1.09,0-1.59.15-1.48,1-2.13,2.14-1.63l.12.05a4.55,4.55,0,0,1,2,3.74c0,.92,0,1.83,0,2.75,0,.21-.06.25-.2.23a6.53,6.53,0,0,1-1.91-.54M7.25,24.33a1.85,1.85,0,0,1-.51-1.9.53.53,0,0,1,.77-.31,1.92,1.92,0,0,1,.65.55,3.31,3.31,0,0,0-.91,1.66m10.31,4.49s-.07-.07-.1-.2a8.29,8.29,0,0,0-.88-2.25,1,1,0,0,1,.74,0,1.57,1.57,0,0,1,.78,1.16c.15.62,0,1.18-.42,1.28a.26.26,0,0,1-.12,0m-9.18-5.6a2.88,2.88,0,0,1,2.67-.72,5.86,5.86,0,0,1,1.44.45,8.42,8.42,0,0,1,3.26,2.8,7.12,7.12,0,0,1,1,1.71,5.38,5.38,0,0,1,.51,1.95,1.83,1.83,0,0,0,.25.82,5,5,0,0,1,.47,1.25c.13.51.1.56-.25.45a6.52,6.52,0,0,0-1.19-.26.27.27,0,0,1-.12,0,1.07,1.07,0,0,0,.19.07c.41.15.84.31,1.25.43l.08,0c.15.07.12.16.08.35-.08.38-.26.44-.53.32l-.08,0-.23-.12a8.43,8.43,0,0,0-1-.34c-.05.09,0,.12.06.14l.07,0,.07,0,.07,0,.15.1.65.33h0l.08,0a1.82,1.82,0,0,1,.23.15,1.25,1.25,0,0,0,.24.16h0c-.18.48-.31.65-.61.51a3.25,3.25,0,0,1-.55-.38l-.28-.15a.38.38,0,0,0-.11-.08l-.09,0-.09,0h0a.58.58,0,0,1,.12.14l.35.26c.06.06.14.1.2.17s.33.15.35.37-.17.16-.28.21a3.89,3.89,0,0,1-1.64.28.32.32,0,0,1-.14,0c-.1,0-.14-.14-.12-.35v-.49c0-.89.06-1.72,0-2.64a5,5,0,0,0-2.46-4l-.21-.09c-1.26-.43-2.26.59-2.29,2.34,0,.7,0,1.42,0,2.12s0,.79-.13.73a2.84,2.84,0,0,1-.48-.42,10.57,10.57,0,0,1-1.58-1.91,1.22,1.22,0,0,1,.63,0l.3,0a.19.19,0,0,1,.13,0l-.1-.06-.1-.06a.17.17,0,0,0-.12,0l-.29-.11a2.47,2.47,0,0,1-.52-.09h0c-.34-.16-.41-.63-.61-1.05a3.77,3.77,0,0,1,.53.12l.08.05.66.26a.27.27,0,0,1,.12,0l.08,0,.07,0a.19.19,0,0,0,.16,0v0l0,0a10.43,10.43,0,0,0-1.31-.7l-.18-.08,0,0c-.33-.15-.37-.27-.38-.9,0-.11,0-.12.09-.1a.71.71,0,0,1,.14.1c.41.21.81.44,1.21.66l.21.12a.49.49,0,0,1-.14-.17A9.79,9.79,0,0,0,7,27.08a.33.33,0,0,1-.17-.44,1.87,1.87,0,0,1,.47-.92,1.13,1.13,0,0,0,.32-.79,2.81,2.81,0,0,1,.81-1.71m4.31-1.17a2.38,2.38,0,0,0-.31-.12l-.2-.1a5.45,5.45,0,0,0-3.08-.34c-.17.06-.6.3-.7.26h0a3.42,3.42,0,0,0-1-.67c-.54-.24-1.14-.27-1.4.58a3.93,3.93,0,0,0,.58,3.16,3.62,3.62,0,0,1-.27.43,2.1,2.1,0,0,0-.3.92c0,.27-.17.29-.36.21l-.25-.14-.26-.14a12.71,12.71,0,0,0-1.24-.46c-.1,0-1-.25-1-.08s.1.14.25.2.54.2.75.29,1.73.7,1.9.74h0c.14.06.09.35.15.68s0,.31-.22.27S4.24,27.48,4,27.48s-.59-.12-.57.06,0,.08.11.11a4.57,4.57,0,0,0,.68.14c.22.05,1.46.33,1.7.41H6c.22.11.39.71.49,1s-.13.25-.45.24a4.91,4.91,0,0,0-1.15.25c-.19.07-.53.18-.47.33a.1.1,0,0,0,0,.08s.1,0,.16,0l1.72-.23a.7.7,0,0,1,.33.05.84.84,0,0,1,.29.25A13.66,13.66,0,0,0,9.75,33a12.25,12.25,0,0,0,2.46,1.4,15.32,15.32,0,0,0,2.44.9,8.91,8.91,0,0,0,3-.19.51.51,0,0,1,.45,0,.87.87,0,0,1,.26.18,20.71,20.71,0,0,0,1.94,1.92s0,0,0,0c0-.26-.76-1.09-.94-1.32s-1.17-1.12-1.2-1.21.24-.56.41-.71.12,0,.24,0a13,13,0,0,1,1.64,1.08c.25.18.73.62.91.7s.07,0,.07,0-.19-.21-.44-.48-2.17-1.71-2.26-1.78.09-.52.22-.69.2,0,.37,0,.51.29.67.36.85.47,1.32.68c.27.12.47.19.48.11s-.95-.75-1.46-1a3.45,3.45,0,0,0-.47-.24l-.32-.14-.3-.13a1.91,1.91,0,0,1-.53-.3,7.41,7.41,0,0,0-.62-2.28,2.57,2.57,0,0,0,.59-.69,3.3,3.3,0,0,0-.25-2.69,1.9,1.9,0,0,0-1-1,2.63,2.63,0,0,0-.75-.2,3.48,3.48,0,0,1-.47-.07l0,0a8.74,8.74,0,0,0-3.51-3.1" fill="#300e02"/>
              <path d="M15.92,33.15l-.07,0h0l.07,0M8.83,30h0l.11,0-.11,0M9,30l.08,0L9,30m6.74,3L15.66,33l.09.06M8.49,28.17h0a.41.41,0,0,1,.1.09.31.31,0,0,0-.11-.09m6.39.86a.77.77,0,0,1-.33-.4,2.13,2.13,0,0,1,0-1.84.28.28,0,0,1,.34-.1.79.79,0,0,1,.34.42,2.17,2.17,0,0,1,.19.93,1.32,1.32,0,0,1-.22.9.25.25,0,0,1-.33.09M9.62,26.66a.73.73,0,0,1-.31-.35,2.31,2.31,0,0,1-.23-1.1,1.3,1.3,0,0,1,.2-.79.27.27,0,0,1,.34-.11.87.87,0,0,1,.35.41,2.19,2.19,0,0,1,0,1.85.26.26,0,0,1-.34.09m2.74-3.2a6.28,6.28,0,0,0-2-.51,3.38,3.38,0,0,0-1.68.25c-.06,0-.12.14-.22.1a.29.29,0,0,1-.08-.08,2.81,2.81,0,0,0-.81,1.71,1.13,1.13,0,0,1-.32.79,1.87,1.87,0,0,0-.47.92.33.33,0,0,0,.17.44,9.79,9.79,0,0,1,1.28.85.49.49,0,0,0,.14.17L8.16,28c-.4-.22-.8-.45-1.21-.66a.71.71,0,0,0-.14-.1s-.08,0-.09.1a5.5,5.5,0,0,0,.42.92l.18.08a10.43,10.43,0,0,1,1.31.7l0,0v0a.19.19,0,0,1-.16,0l-.07,0-.08,0a.27.27,0,0,0-.12,0l-.66-.26c0,.07-.24-.05-.08.19a2.62,2.62,0,0,0,.62.79l.29.11a.17.17,0,0,1,.12,0l.1.06.1.06a.19.19,0,0,0-.13,0l-.3,0a6.16,6.16,0,0,0,1.1,1.21,5.13,5.13,0,0,0,.46.38c0-.7,0-1.42,0-2.12,0-1.75,1-2.77,2.29-2.34l.21.09a5,5,0,0,1,2.46,4c.09.92,0,1.75,0,2.64a2.72,2.72,0,0,0,1.63-.16l-.35-.26a.58.58,0,0,0-.12-.14h0l.09,0,.09,0a.38.38,0,0,1,.11.08l.28.15c.29.09.48-.09.68-.24s-.07-.14-.07-.22h0l-.65-.33-.15-.1-.07,0-.07,0-.07,0s-.11,0-.06-.14a8.43,8.43,0,0,1,1,.34l.23.12.08,0c.27.12.45.06.53-.32,0-.19.07-.28-.08-.35l-.08,0c-.41-.12-.84-.28-1.25-.43a1.07,1.07,0,0,1-.19-.07.27.27,0,0,0,.12,0,6.52,6.52,0,0,1,1.19.26c.35.11.38.06.25-.45a5,5,0,0,0-.47-1.25,1.83,1.83,0,0,1-.25-.82,5.38,5.38,0,0,0-.51-1.95c-.36-.38-.64-.92-1-1.34a10.89,10.89,0,0,0-2.65-2.28,7.08,7.08,0,0,0-.71-.38" fill="#a47c50"/>
              <path d="M12.15,30.92a.61.61,0,0,0-.12-.65,2.27,2.27,0,0,1-.17-.31,1.06,1.06,0,0,1-.15-.88c.09-.26.27-.29.5-.19l0,0,.08,0,.08,0,.1,0,.1.05a.92.92,0,0,1,.45.61.7.7,0,0,1-.09.68.84.84,0,0,1-.26.24c-.15.06-.16.22-.12.43a1.41,1.41,0,0,0,.47.48.56.56,0,0,0,.48-.05c.05-.1.11-.18.2-.14a.23.23,0,0,1,.08.07.51.51,0,0,1,.09.44c-.05.44-.25.66-.57.67-.12,0-.19,0-.24.19-.11.41-.39.54-.72.39h0a1.41,1.41,0,0,1-.7-1,.78.78,0,0,0-.26-.44,1.85,1.85,0,0,1-.56-1.18c0-.16,0-.32.1-.35a.11.11,0,0,1,.08,0,.43.43,0,0,1,.17.23,1,1,0,0,0,.48.54.88.88,0,0,0,.48.05m.24-3.26c-1.1-.5-2,.15-2.14,1.63-.05.5,0,1.06,0,1.59h0c0,.47,0,.93,0,1.4a.43.43,0,0,0,.19.41,10.27,10.27,0,0,0,2,1.21,6.53,6.53,0,0,0,1.91.54c.14,0,.2,0,.2-.23,0-.92,0-1.83,0-2.75a4.55,4.55,0,0,0-2-3.74l-.12-.05" fill="#f1d4b4"/>
              <path d="M12.49,23a5.86,5.86,0,0,0-1.44-.45,2.88,2.88,0,0,0-2.67.72.29.29,0,0,0,.08.08c.1,0,.16-.07.22-.1A3.38,3.38,0,0,1,10.36,23a6.28,6.28,0,0,1,2,.51,7.08,7.08,0,0,1,.71.38,10.89,10.89,0,0,1,2.65,2.28c.35.42.63,1,1,1.34a7.12,7.12,0,0,0-1-1.71A8.42,8.42,0,0,0,12.49,23" fill="#c49966"/>
              <path d="M17.32,26.37a1,1,0,0,0-.74,0,8.29,8.29,0,0,1,.88,2.25c0,.13.06.18.1.2a.26.26,0,0,0,.12,0c.38-.1.57-.66.42-1.28a1.57,1.57,0,0,0-.78-1.16" fill="#f0d4b4"/>
              <path d="M7.51,22.12a.53.53,0,0,0-.77.31,1.85,1.85,0,0,0,.51,1.9,3.31,3.31,0,0,1,.91-1.66,1.92,1.92,0,0,0-.65-.55" fill="#f0d3b4"/>
              <path d="M16.48,33.62a2.72,2.72,0,0,1-1.63.16v.49c0,.21,0,.31.12.35a.32.32,0,0,0,.14,0,3.89,3.89,0,0,0,1.64-.28c.11,0,.3,0,.28-.21s-.23-.24-.35-.37-.14-.11-.2-.17" fill="#72461c"/>
              <path d="M8.28,29.93a1.22,1.22,0,0,0-.63,0,10.57,10.57,0,0,0,1.58,1.91,2.84,2.84,0,0,0,.48.42c.15.06.14-.15.13-.73a5.13,5.13,0,0,1-.46-.38,6.16,6.16,0,0,1-1.1-1.21" fill="#72461c"/>
              <path d="M17.29,33.08l-.08,0h0c0,.08.22.11.07.22s-.39.33-.68.24a3.25,3.25,0,0,0,.55.38c.3.14.43,0,.61-.51h0a1.25,1.25,0,0,1-.24-.16,1.82,1.82,0,0,0-.23-.15" fill="#72461b"/>
              <path d="M7.48,28.66A3.77,3.77,0,0,0,7,28.54c.2.42.27.89.61,1.05h0a2.47,2.47,0,0,0,.52.09,2.62,2.62,0,0,1-.62-.79c-.16-.24.06-.12.08-.19l-.08-.05" fill="#72461c"/>
              <path d="M6.72,27.32c0,.63,0,.75.38.9l0,0a5.5,5.5,0,0,1-.42-.92" fill="#6f451b"/>
              <path d="M14.9,26.69a.28.28,0,0,0-.34.1,2.13,2.13,0,0,0,0,1.84.77.77,0,0,0,.33.4.25.25,0,0,0,.33-.09,1.32,1.32,0,0,0,.22-.9,2.17,2.17,0,0,0-.19-.93.79.79,0,0,0-.34-.42" fill="#300e02"/>
              <path d="M9.62,24.31a.27.27,0,0,0-.34.11,1.3,1.3,0,0,0-.2.79,2.31,2.31,0,0,0,.23,1.1.73.73,0,0,0,.31.35.26.26,0,0,0,.34-.09,2.19,2.19,0,0,0,0-1.85.87.87,0,0,0-.35-.41" fill="#300f02"/>
              <path d="M12.38,32.59A.71.71,0,0,1,12,32c0-.21.25-.15.37-.25.11.22.37.36.37.62s-.18.29-.36.24m-.17-3.7c-.23-.1-.41-.07-.5.19a1.06,1.06,0,0,0,.15.88,2.27,2.27,0,0,0,.17.31.61.61,0,0,1,.12.65c0,.37-.19.52-.44.41h0c-.28-.13-.45-.46-.49-1A.43.43,0,0,0,11,30.1a.11.11,0,0,0-.08,0c-.13,0-.12.19-.1.35a1.85,1.85,0,0,0,.56,1.18.78.78,0,0,1,.26.44,1.41,1.41,0,0,0,.7,1h0c.33.15.61,0,.72-.39.05-.16.12-.19.24-.19.32,0,.52-.23.57-.67a.51.51,0,0,0-.09-.44.23.23,0,0,0-.08-.07c-.09,0-.15,0-.2.14,0,.42-.21.6-.47.48h0a1,1,0,0,1-.46-.9c0-.21,0-.37.12-.43a.84.84,0,0,0,.26-.24.7.7,0,0,0,.09-.68.92.92,0,0,0-.45-.61L12.5,29l-.1,0-.08,0-.08,0,0,0" fill="#300f02"/>
              <path d="M11.19,30.33c0,.53.21.86.49,1h0c.25.11.41,0,.44-.41a.88.88,0,0,1-.48-.05,1,1,0,0,1-.48-.54" fill="#d09261"/>
              <path d="M13.53,31.46a.56.56,0,0,1-.48.05,1.41,1.41,0,0,1-.47-.48,1,1,0,0,0,.46.9h0c.26.12.45-.06.47-.48" fill="#d19362"/>
              <path d="M12.37,31.73c-.12.1-.36,0-.37.25a.71.71,0,0,0,.38.61c.18,0,.36,0,.36-.24s-.26-.4-.37-.62" fill="#edd0b1"/>
            </g>
          </g>
        </g>
      </g>
      <g>
        <polygon points="24.2 19.46 1.41 9.17 25.96 0.24 48.74 10.53 24.2 19.46" fill="#9ed8d5"/>
        <g style="isolation: isolate">
          <g clip-path="url(#clip-path-2)">
            <g>
              <path d="M31.35,9.44h0l.1,0-.1,0m-8,2.92-.11.06h0l.11-.06m.14-.07-.08,0a.19.19,0,0,0,.08,0M31.1,9.5a.5.5,0,0,0,.13,0l-.13,0M21.52,12h0l.16,0a.9.9,0,0,0-.16,0m7.62-.26a19.26,19.26,0,0,1-2.54.72.65.65,0,0,1-.48,0c-.35-.17-.72-.33-1.08-.49h0c-.41-.19-.88-.36-1.23-.56-1-.6-.82-1.35.46-1.81l.14-.05A7.34,7.34,0,0,1,29,9.65c.74.31,1.43.64,2.15,1,.16.08.14.13,0,.2a11.36,11.36,0,0,1-2,.92m-11.63-.35A2.26,2.26,0,0,1,15.62,11c-.15-.21,0-.41.37-.55a4,4,0,0,1,1-.19,1.33,1.33,0,0,0,.55,1.11M29.4,7a.4.4,0,0,1-.24,0,12.54,12.54,0,0,0-2.47-.27,1.24,1.24,0,0,1,.6-.43,2.83,2.83,0,0,1,1.54,0c.61.13.89.43.66.69,0,0,0,.06-.09.07M17.57,10.34c0-.68.64-1.28,1.61-1.81a11.08,11.08,0,0,1,1.51-.68,17.65,17.65,0,0,1,4.85-.92,12.4,12.4,0,0,1,2.11,0,7.1,7.1,0,0,1,1.94.38,2.38,2.38,0,0,0,.84.15,6.48,6.48,0,0,1,1.35.16c.51.1.52.14.15.3s-.8.39-1.17.6a.18.18,0,0,1-.07.08l.21-.08c.45-.2.92-.38,1.35-.58l.09,0a.28.28,0,0,1,.34.08c.23.18.13.3-.19.42l-.09,0-.28.09c-.39.14-.73.3-1.07.46,0,.06.1,0,.15,0l.09,0,.07,0,.08,0,.2,0,.78-.27h0l.09,0,.31-.08.3-.08h0c.23.28.25.41-.09.54-.16.06-.41.11-.75.19l-.35.11-.15,0-.1.05-.1,0h0l.21,0,.49-.11.29-.06c.2,0,.39-.14.58-.07s0,.15-.07.23A3.64,3.64,0,0,1,32,10.4a.39.39,0,0,1-.14.08.43.43,0,0,1-.37-.05l-.37-.18c-.73-.29-1.31-.63-2.1-.89a8.48,8.48,0,0,0-5.11,0l-.24.09c-1.36.58-1.38,1.52,0,2.14l1.64.76c.46.19.63.26.46.32a4.34,4.34,0,0,1-.72.13,18.48,18.48,0,0,1-2.77.26c.09-.15.34-.25.51-.37l.27-.15a.26.26,0,0,1,.09-.09l-.12,0-.14,0a.39.39,0,0,0-.11.06l-.31.13c-.17.09-.31.19-.5.27h0a3.45,3.45,0,0,1-1.32,0c.21-.1.33-.2.52-.27l.11,0,.74-.29.12-.06.09,0,.09,0a.38.38,0,0,0,.14-.09H22.3c-.57.16-1.11.33-1.62.52l-.2.07-.05,0c-.39.14-.51.12-1-.1-.07,0-.06-.07,0-.09l.2,0,1.5-.47.26-.08a.94.94,0,0,1-.25,0c-.6.13-1.16.28-1.7.45-.23.06-.36.06-.49-.06s-.36-.38-.32-.59-.14-.32-.36-.46c-.51-.33-.71-.68-.68-1.06m2.59-2.91-.36.13-.23.08A8.06,8.06,0,0,0,16.8,9.32c-.08.11-.25.45-.36.49h0a8.53,8.53,0,0,0-1.31.33c-.62.22-1.14.57-.68,1,.88.87,2.93.76,2.93.76a1.13,1.13,0,0,1,.13.3,1,1,0,0,0,.47.5c.19.11.09.2-.13.28l-.31.09-.33.11c-.51.19-1.28.52-1.36.56s-1,.49-.87.55a.83.83,0,0,0,.37-.08c.26-.1.59-.25.82-.33.39-.15,2-.77,2.13-.85h0c.16-.06.35.07.66.15s.23.12,0,.22-1.47.81-1.64.93-.57.3-.41.36a.33.33,0,0,0,.18,0,6.75,6.75,0,0,0,.66-.35c.22-.11,1.45-.73,1.7-.84h0a3.12,3.12,0,0,1,1.2.07c.34.05.09.16-.17.34a4.06,4.06,0,0,0-.75.76c-.1.13-.29.37-.13.39h.11c.05,0,.06-.06.1-.11l1.22-1.07a.92.92,0,0,1,.3-.18,1.83,1.83,0,0,1,.43-.08,27.39,27.39,0,0,0,4.49-.64A23.37,23.37,0,0,0,29.4,12c1.15-.42,2.19-.85,2.68-1.1a11.1,11.1,0,0,0,2.26-1.79.68.68,0,0,1,.38-.26,1.62,1.62,0,0,1,.35-.09c.31,0,2.73-.33,3.07-.46q.06,0,0,0a9.58,9.58,0,0,0-1.8.09c-.32,0-1.82.29-1.92.27s-.23-.33-.21-.48.09-.08.23-.13c.54-.2,1.85-.5,2.18-.57s1.07-.21,1.28-.29c0,0,.07,0,0,0s-.32,0-.73.09-3.1.66-3.22.69-.34-.24-.37-.37.13-.12.33-.2.64-.2.83-.26,1-.33,1.6-.53c.31-.12.53-.21.48-.25a9.25,9.25,0,0,0-2,.49L34.32,7,34,7.1l-.35.13a4.77,4.77,0,0,1-.67.21A10.09,10.09,0,0,0,30.66,7a.91.91,0,0,0-.06-.58c-.15-.24-.69-.65-2.31-.79a3.6,3.6,0,0,0-1.61.21,4.27,4.27,0,0,0-.77.37,4.58,4.58,0,0,1-.44.24h0a17.56,17.56,0,0,0-5.27,1" fill="#300e02"/>
              <path d="M31.45,9.41l-.1,0h0l.1,0m-8.25,3h0l.11-.06-.11.06m.17-.09.08,0a.19.19,0,0,1-.08,0m7.86-2.86a.5.5,0,0,1-.13,0l.13,0M21.52,12h0a.9.9,0,0,1,.16,0l-.16,0m5.87-3.41a1.61,1.61,0,0,1-.58.06c-.68-.05-1.4-.37-1.44-.65,0-.1.07-.18.21-.23a1.33,1.33,0,0,1,.6-.06,2.53,2.53,0,0,1,.88.22c.32.14.52.28.53.44s-.07.17-.2.22m-6.12,2.23a1.35,1.35,0,0,1-.53.06,2.73,2.73,0,0,1-1-.25c-.23-.1-.42-.23-.45-.39s.05-.19.19-.24a1.52,1.52,0,0,1,.6-.05c.68,0,1.39.37,1.43.64,0,.1-.06.18-.19.23M21,8.11a11.29,11.29,0,0,0-2,1,3.56,3.56,0,0,0-1.16,1.06s0,.12-.1.16l-.13,0c0,.38.17.73.68,1.06.22.14.39.28.36.46s.11.4.32.59.26.12.49.06c.54-.17,1.1-.32,1.7-.45a.94.94,0,0,0,.25,0l-.26.08-1.5.47-.2,0c-.05,0-.06,0,0,.09a7.45,7.45,0,0,0,1.06.08l.2-.07c.51-.19,1.05-.36,1.62-.52h.07a.38.38,0,0,1-.14.09l-.09,0-.09,0-.12.06-.74.29s-.24.12.08.11a5.24,5.24,0,0,0,1.13-.08l.31-.13a.39.39,0,0,1,.11-.06l.14,0,.12,0a.26.26,0,0,0-.09.09l-.27.15a10.56,10.56,0,0,0,1.84-.21c.24,0,.45-.09.68-.13l-1.64-.76c-1.35-.62-1.33-1.56,0-2.14l.24-.09a8.48,8.48,0,0,1,5.11,0c.79.26,1.37.6,2.1.89a3.2,3.2,0,0,0,1.19-1l-.49.11-.21,0h0l.1,0,.1-.05.15,0,.35-.11a.59.59,0,0,0,.37-.48c0-.13-.17,0-.24,0h0l-.78.27-.2,0-.08,0-.07,0L31.2,9c-.05,0-.13,0-.15,0,.34-.16.68-.32,1.07-.46l.28-.09.09,0c.32-.12.42-.24.19-.42a.28.28,0,0,0-.34-.08l-.09,0c-.43.2-.9.38-1.35.58l-.21.08a.18.18,0,0,0,.07-.08c.37-.21.75-.41,1.17-.6s.36-.2-.15-.3a6.48,6.48,0,0,0-1.35-.16,2.38,2.38,0,0,1-.84-.15A7.1,7.1,0,0,0,27.65,7c-.6.08-1.24,0-1.85.11a21.53,21.53,0,0,0-3.94.75c-.31.09-.6.18-.87.28" fill="#a47c50"/>
              <path d="M26.64,10.82c-.1-.11-.26-.18-.6-.15-.12,0-.25,0-.37,0-.39,0-.69-.06-.82-.22s0-.26.26-.36h0l.09,0,.09,0,.12,0,.12,0a1.65,1.65,0,0,1,.83-.05c.29.06.45.16.46.29a.3.3,0,0,1,0,.23c-.07.11,0,.17.24.23a2.84,2.84,0,0,0,.75-.11.67.67,0,0,0,.36-.3c0-.06-.06-.12,0-.16l.12,0a.56.56,0,0,1,.41.11c.31.18.31.37.06.56-.1.07-.13.12,0,.2s.1.42-.28.56h0a2.48,2.48,0,0,1-1.36.06,1.18,1.18,0,0,0-.56,0,3,3,0,0,1-1.38-.09c-.14,0-.27-.1-.19-.18l.08,0a.74.74,0,0,1,.31,0,2.1,2.1,0,0,0,.82-.09,1.17,1.17,0,0,0,.42-.27M24.29,9.55c-1.28.46-1.49,1.21-.46,1.81.35.2.82.37,1.23.56h0c.36.16.73.32,1.08.49a.65.65,0,0,0,.48,0,19.26,19.26,0,0,0,2.54-.72,11.36,11.36,0,0,0,2-.92c.12-.07.14-.12,0-.2-.72-.32-1.41-.65-2.15-1a7.34,7.34,0,0,0-4.52-.15l-.14.05" fill="#f1d4b4"/>
              <path d="M20.69,7.85a11.08,11.08,0,0,0-1.51.68c-1,.53-1.58,1.13-1.61,1.81l.13,0c.1,0,.07-.11.1-.16A3.56,3.56,0,0,1,19,9.09a11.29,11.29,0,0,1,2-1c.27-.1.56-.19.87-.28a21.53,21.53,0,0,1,3.94-.75c.61-.06,1.25,0,1.85-.11a12.4,12.4,0,0,0-2.11,0,17.65,17.65,0,0,0-4.85.92" fill="#c49966"/>
              <path d="M27.29,6.24a1.24,1.24,0,0,0-.6.43,12.54,12.54,0,0,1,2.47.27.4.4,0,0,0,.24,0s.06,0,.09-.07c.23-.26,0-.56-.66-.69a2.83,2.83,0,0,0-1.54,0" fill="#f0d4b4"/>
              <path d="M16,10.46c-.38.14-.52.34-.37.55a2.26,2.26,0,0,0,1.89.37A1.33,1.33,0,0,1,17,10.27a4,4,0,0,0-1,.19" fill="#f0d3b4"/>
              <path d="M32.27,9.25a3.2,3.2,0,0,1-1.19,1l.37.18a.43.43,0,0,0,.37.05A.39.39,0,0,0,32,10.4a3.64,3.64,0,0,0,1.11-1.05c0-.08.22-.18.07-.23s-.38.05-.58.07l-.29.06" fill="#72461c"/>
              <path d="M22.72,12.72c-.17.12-.42.22-.51.37A18.48,18.48,0,0,0,25,12.83a4.34,4.34,0,0,0,.72-.13c.17-.06,0-.13-.46-.32-.23,0-.44.1-.68.13a10.56,10.56,0,0,1-1.84.21" fill="#72461c"/>
              <path d="M32.51,8.59l-.09,0h0c.07,0,.27-.09.24,0a.59.59,0,0,1-.37.48c.34-.08.59-.13.75-.19.34-.13.32-.26.09-.54h0l-.3.08-.31.08" fill="#72461b"/>
              <path d="M21.08,12.75c-.19.07-.31.17-.52.27a3.45,3.45,0,0,0,1.32,0h0c.19-.08.33-.18.5-.27a5.24,5.24,0,0,1-1.13.08c-.32,0,0-.07-.08-.11l-.11,0" fill="#72461c"/>
              <path d="M19.42,12.72c.5.22.62.24,1,.1l.05,0a7.45,7.45,0,0,1-1.06-.08" fill="#6f451b"/>
              <path d="M25.58,7.76c-.14,0-.22.13-.21.23,0,.28.76.6,1.44.65a1.61,1.61,0,0,0,.58-.06c.13-.05.21-.12.2-.22s-.21-.3-.53-.44a2.53,2.53,0,0,0-.88-.22,1.33,1.33,0,0,0-.6.06" fill="#300e02"/>
              <path d="M19.43,10c-.14,0-.22.14-.19.24s.22.29.45.39a2.73,2.73,0,0,0,1,.25,1.35,1.35,0,0,0,.53-.06c.13-.05.2-.13.19-.23,0-.27-.75-.6-1.43-.64a1.52,1.52,0,0,0-.6.05" fill="#300f02"/>
              <path d="M28.14,11.27a1.19,1.19,0,0,1-.79,0c-.16-.07.08-.2.1-.3.27,0,.58-.09.79,0s.07.21-.1.29m-3-1.19c-.27.1-.39.22-.26.36s.43.21.82.22c.12,0,.25,0,.37,0,.34,0,.5,0,.6.15.27.15.25.29,0,.41h0a1.74,1.74,0,0,1-1.18-.06.74.74,0,0,0-.31,0l-.08,0c-.08.08,0,.14.19.18a3,3,0,0,0,1.38.09,1.18,1.18,0,0,1,.56,0,2.48,2.48,0,0,0,1.36-.06h0c.38-.14.51-.35.28-.56s-.06-.13,0-.2c.25-.19.25-.38-.06-.56a.56.56,0,0,0-.41-.11l-.12,0c-.11,0-.09.1,0,.16.3.16.3.33,0,.45h0a1.67,1.67,0,0,1-1.08,0c-.2-.06-.31-.12-.24-.23a.3.3,0,0,0,0-.23c0-.13-.17-.23-.46-.29a1.65,1.65,0,0,0-.83.05l-.12,0-.12,0-.09,0-.09,0h0" fill="#300f02"/>
              <path d="M25.4,11.18a1.74,1.74,0,0,0,1.18.06h0c.29-.12.31-.26,0-.41a1.17,1.17,0,0,1-.42.27,2.1,2.1,0,0,1-.82.09" fill="#d09261"/>
              <path d="M28.19,10.21a.67.67,0,0,1-.36.3,2.84,2.84,0,0,1-.75.11,1.67,1.67,0,0,0,1.08,0h0c.31-.12.31-.29,0-.45" fill="#d19362"/>
              <path d="M27.45,11c0,.1-.26.23-.1.3a1.19,1.19,0,0,0,.79,0c.17-.08.3-.2.1-.29s-.52,0-.79,0" fill="#edd0b1"/>
            </g>
          </g>
        </g>
      </g>
      <g>
        <polygon points="48.74 10.53 48.58 40.82 24.04 49.76 24.2 19.46 48.74 10.53" fill="#a2dcd9"/>
        <g style="isolation: isolate">
          <g clip-path="url(#clip-path-3)">
            <g>
              <path d="M40.77,31.45h0m-8.26,3-.13.08h0l.13-.08m.18-.1-.1.06a.33.33,0,0,0,.1-.06m7.85-2.86.12,0-.12,0M32,32.9h0m4.63,2.6a8.64,8.64,0,0,1-2.35.52c-.17,0-.24-.05-.23-.27,0-.51,0-1,0-1.52h0a16.87,16.87,0,0,1,0-1.74,4.43,4.43,0,0,1,2.55-3.73l.15-.05c1.27-.39,2.31.57,2.36,2.21,0,1,0,2,0,3a.44.44,0,0,1-.24.44,10.67,10.67,0,0,1-2.28,1.16m-6.12-5.6c-.64-.08-.9-.76-.61-1.58a1.6,1.6,0,0,1,.91-1.05,1.22,1.22,0,0,1,.78,0,8.55,8.55,0,0,0-1.08,2.63m12.33-4.66s-.08,0-.12-.12a3.47,3.47,0,0,0-1.05-1.62,2.44,2.44,0,0,1,.87-.68.69.69,0,0,1,.95.53A1.94,1.94,0,0,1,43,25.12c-.06.06-.1.11-.14.12m-11,2.43A9.34,9.34,0,0,1,35,24.42a9.7,9.7,0,0,1,1.71-.85,5.09,5.09,0,0,1,3.91,0,2.59,2.59,0,0,1,1.14,1,2.9,2.9,0,0,1,.62,1.63.89.89,0,0,0,.28.67,1.89,1.89,0,0,1,.57.9c.15.44.12.52-.3.73a13.56,13.56,0,0,0-1.42.81.64.64,0,0,1-.15.14l.23-.09c.5-.23,1-.44,1.5-.69l.09,0c.18-.07.15.06.1.3a1,1,0,0,1-.64.83l-.09,0-.28.09a12.63,12.63,0,0,0-1.19.55c-.06.14,0,.11.08.1l.07,0,.08,0,.09,0a.38.38,0,0,1,.18,0l.78-.25h0l.09,0a1.51,1.51,0,0,1,.28-.05,1.51,1.51,0,0,0,.28-.05h0c-.22.7-.38,1-.73,1.12a2.24,2.24,0,0,1-.66.1l-.34.09a.32.32,0,0,0-.13,0l-.11.05-.11.05h0a.21.21,0,0,1,.15,0l.41,0a1,1,0,0,1,.24,0c.15,0,.4-.15.43.07s-.21.33-.34.48a11.9,11.9,0,0,1-2,1.82l-.17.11c-.12,0-.17,0-.15-.27s0-.36,0-.53c0-.93.07-1.93,0-2.82-.22-1.77-1.45-2.6-2.93-2.06l-.25.1A5.48,5.48,0,0,0,33.61,33c0,.77,0,1.54,0,2.32,0,.6,0,.83-.16.9a1.41,1.41,0,0,1-.57,0,4,4,0,0,1-1.9-.6,3.35,3.35,0,0,1,.76-.57l.35-.24a.52.52,0,0,1,.16-.14l-.12,0-.12,0a.34.34,0,0,0-.14.08l-.34.15a4.6,4.6,0,0,1-.62.37l0,0c-.41.14-.49-.3-.73-.57a5.42,5.42,0,0,1,.63-.36l.1,0,.78-.31a.4.4,0,0,1,.15-.09l.09,0,.09,0a.5.5,0,0,0,.19-.12v0l0,0a12.21,12.21,0,0,0-1.58.46l-.2.07-.06,0c-.39.14-.44,0-.44-.63,0-.13.05-.18.1-.2s.12,0,.17,0l1.45-.4.25-.06a.2.2,0,0,1-.18,0,8.17,8.17,0,0,0-1.52.25c-.21.06-.28,0-.21-.31a4.66,4.66,0,0,1,.57-1.43,2.57,2.57,0,0,0,.38-1.15,6.85,6.85,0,0,1,1-2.58M37,22.42l-.37.15-.24.08a12.74,12.74,0,0,0-3.69,2.48,9.38,9.38,0,0,1-.82.92h0a2.44,2.44,0,0,0-1.15.16A2.64,2.64,0,0,0,29,28.14c-.6,2.26.7,2.87.7,2.87s-.18.44-.32.71A4.33,4.33,0,0,0,29,33a.59.59,0,0,1-.43.55,1.23,1.23,0,0,1-.29.08,1.83,1.83,0,0,0-.32.09c-.52.19-1.38.6-1.48.65s-1.19.65-1.18.83.13,0,.3,0,.65-.29.89-.38c.4-.15,2.08-.84,2.28-.95h0c.17-.06.11.3.18.6s0,.36-.26.49-1.86,1.15-2.11,1.35-.71.41-.68.59.06,0,.13,0a9.35,9.35,0,0,0,.82-.49c.26-.14,1.75-1,2-1.12l0,0c.27-.09.47.41.59.65s-.15.4-.53.68a14.82,14.82,0,0,0-1.38,1.33c-.23.26-.63.69-.57.8s0,0,.07,0,.11-.11.19-.19l2.06-1.83a1.31,1.31,0,0,1,.39-.25.4.4,0,0,1,.34,0,6.71,6.71,0,0,0,3.35.47,12,12,0,0,0,3-.76,21.92,21.92,0,0,0,2.91-1.28A24.63,24.63,0,0,0,42.87,32a1.24,1.24,0,0,1,.55-.4.55.55,0,0,1,.3,0,10.55,10.55,0,0,0,2.33.28s.06,0,.06-.07c0-.28-.92-.47-1.13-.55s-1.4-.14-1.44-.21a3.89,3.89,0,0,1,.5-1.14.58.58,0,0,1,.29-.17,10.08,10.08,0,0,1,2-.35,7.1,7.1,0,0,0,1.08-.08c.05,0,.08,0,.09-.07s-.23-.06-.53-.12a26.72,26.72,0,0,0-2.7.17c-.11,0,.11-.66.26-.95a.8.8,0,0,1,.44-.3c.28-.1.61-.16.81-.23s1-.28,1.57-.48c.32-.12.57-.24.58-.33,0-.26-1.14.07-1.75.21-.17,0-.36.11-.57.18l-.37.14-.36.14a2,2,0,0,1-.64.16,3.67,3.67,0,0,0-.74-1.9,7.38,7.38,0,0,0,.7-1.28,2.78,2.78,0,0,0-.29-2.68,1,1,0,0,0-1.18-.22,4.8,4.8,0,0,0-.9.48,5.87,5.87,0,0,1-.57.36h0a5.23,5.23,0,0,0-4.2-.11" fill="#300e02"/>
              <path d="M40.86,31.44h0m-8.48,3.09h0l.13-.08-.13.08m.21-.12.1-.06a.33.33,0,0,1-.1.06m8.07-2.94-.12,0,.12,0M32,32.9h0M39.61,28a.35.35,0,0,1-.4-.13,2.16,2.16,0,0,1,0-2,.81.81,0,0,1,.42-.42.34.34,0,0,1,.41.13,1.3,1.3,0,0,1,.22.83A2.28,2.28,0,0,1,40,27.54a.83.83,0,0,1-.4.41m-6.29,2.28a.34.34,0,0,1-.37-.09,1.26,1.26,0,0,1-.27-1,2.18,2.18,0,0,1,.23-1,.89.89,0,0,1,.41-.44.36.36,0,0,1,.41.13,2.13,2.13,0,0,1,0,2,.83.83,0,0,1-.4.41m3.28-6a11.24,11.24,0,0,0-2.4,1.29,10.6,10.6,0,0,0-2,1.82c-.08.1-.15.27-.26.31h-.11a6.85,6.85,0,0,0-1,2.58,2.57,2.57,0,0,1-.38,1.15,4.66,4.66,0,0,0-.57,1.43c-.07.3,0,.37.21.31a8.17,8.17,0,0,1,1.52-.25.2.2,0,0,0,.18,0l-.25.06-1.45.4c-.05,0-.11,0-.17,0s-.09.07-.1.2c.16.21.27.48.5.6l.2-.07a12.21,12.21,0,0,1,1.58-.46l0,0v0a.5.5,0,0,1-.19.12l-.09,0-.09,0a.4.4,0,0,0-.15.09l-.78.31c0,.1-.29.17-.1.28s.44.35.75.29l.34-.15a.34.34,0,0,1,.14-.08l.12,0,.12,0a.52.52,0,0,0-.16.14l-.35.24c.37.3.87.22,1.31.29a3.49,3.49,0,0,0,.56,0c0-.78,0-1.55,0-2.32a5.48,5.48,0,0,1,2.74-4.64l.25-.1c1.48-.54,2.71.29,2.93,2.06.12.89,0,1.89,0,2.82a8.19,8.19,0,0,0,1.94-1.68l-.41,0a.21.21,0,0,0-.15,0h0l.11-.05.11-.05a.32.32,0,0,1,.13,0l.34-.09a2.51,2.51,0,0,0,.81-.89c.18-.25-.08-.09-.08-.17h0l-.78.25a.38.38,0,0,0-.18,0l-.09,0-.08,0-.07,0c-.06,0-.14,0-.08-.1a12.63,12.63,0,0,1,1.19-.55l.28-.09.09,0a1,1,0,0,0,.64-.83c0-.24.08-.37-.1-.3l-.09,0c-.5.25-1,.46-1.5.69l-.23.09a.64.64,0,0,0,.15-.14A13.56,13.56,0,0,1,43,28.49c.42-.21.45-.29.3-.73a1.89,1.89,0,0,0-.57-.9.89.89,0,0,1-.28-.67,2.9,2.9,0,0,0-.62-1.63c-.43-.08-.76-.41-1.18-.53a6.22,6.22,0,0,0-3.18,0,6.62,6.62,0,0,0-.84.24" fill="#a47c50"/>
              <path d="M36.34,32.5c.1-.29.09-.51-.14-.59s-.13-.12-.2-.18a.68.68,0,0,1-.19-.8,1,1,0,0,1,.61-.67l0,0,.09,0,.09,0,.12-.05.13,0a.37.37,0,0,1,.53.24,1,1,0,0,1-.11.83,2.59,2.59,0,0,1-.3.48.62.62,0,0,0-.15.59.69.69,0,0,0,.56.08,1.51,1.51,0,0,0,.58-.5c.06-.15.12-.29.23-.33h.11c.15,0,.12.24.1.4a1.82,1.82,0,0,1-.68,1.25.71.71,0,0,0-.29.43,1.48,1.48,0,0,1-.86,1.08h0a.6.6,0,0,1-.84-.45.29.29,0,0,0-.31-.24c-.38,0-.6-.29-.68-.75a.52.52,0,0,1,.12-.47.23.23,0,0,1,.11-.07c.08,0,.14,0,.19.09a.49.49,0,0,0,.58.14,1.62,1.62,0,0,0,.57-.39m.29-3.74a4.43,4.43,0,0,0-2.55,3.73,16.87,16.87,0,0,0,0,1.74h0c0,.51,0,1,0,1.52,0,.22.06.29.23.27a8.64,8.64,0,0,0,2.35-.52,10.67,10.67,0,0,0,2.28-1.16.44.44,0,0,0,.24-.44c0-1,0-2,0-3,0-1.64-1.09-2.6-2.36-2.21l-.15.05" fill="#f1d4b4"/>
              <path d="M36.75,23.57a9.7,9.7,0,0,0-1.71.85,9.34,9.34,0,0,0-3.21,3.25h.11c.11,0,.18-.21.26-.31a10.6,10.6,0,0,1,2-1.82,11.24,11.24,0,0,1,2.4-1.29,6.62,6.62,0,0,1,.84-.24,6.22,6.22,0,0,1,3.18,0c.42.12.75.45,1.18.53a2.59,2.59,0,0,0-1.14-1,5.09,5.09,0,0,0-3.91,0" fill="#c49966"/>
              <path d="M42.52,22.82a2.44,2.44,0,0,0-.87.68,3.47,3.47,0,0,1,1.05,1.62c0,.11.07.14.12.12s.08-.06.14-.12a1.94,1.94,0,0,0,.51-1.77.69.69,0,0,0-.95-.53" fill="#f0d4b4"/>
              <path d="M30.79,27.27a1.6,1.6,0,0,0-.91,1.05c-.29.82,0,1.5.61,1.58a8.55,8.55,0,0,1,1.08-2.63,1.22,1.22,0,0,0-.78,0" fill="#f0d3b4"/>
              <path d="M41.52,31.43a8.19,8.19,0,0,1-1.94,1.68c0,.17,0,.35,0,.53s0,.31.15.27l.17-.11a11.9,11.9,0,0,0,2-1.82c.13-.15.36-.3.34-.48s-.28-.05-.43-.07a1,1,0,0,0-.24,0" fill="#72461c"/>
              <path d="M31.72,35a3.35,3.35,0,0,0-.76.57,4,4,0,0,0,1.9.6,1.41,1.41,0,0,0,.57,0c.18-.07.17-.3.16-.9a3.49,3.49,0,0,1-.56,0c-.44-.07-.94,0-1.31-.29" fill="#72461c"/>
              <path d="M42.49,30.1l-.09,0h0c0,.08.26-.08.08.17a2.51,2.51,0,0,1-.81.89,2.24,2.24,0,0,0,.66-.1c.35-.13.51-.42.73-1.12h0a1.51,1.51,0,0,1-.28.05,1.51,1.51,0,0,0-.28.05" fill="#72461b"/>
              <path d="M30.76,34.37a5.42,5.42,0,0,0-.63.36c.24.27.32.71.73.57l0,0a4.6,4.6,0,0,0,.62-.37c-.31.06-.52-.15-.75-.29s.07-.18.1-.28l-.1,0" fill="#72461c"/>
              <path d="M29.86,33.62c0,.68.05.77.44.63l.06,0c-.23-.12-.34-.39-.5-.6" fill="#6f451b"/>
              <path d="M39.64,25.4a.81.81,0,0,0-.42.42,2.16,2.16,0,0,0,0,2,.35.35,0,0,0,.4.13.83.83,0,0,0,.4-.41,2.28,2.28,0,0,0,.26-1.18,1.3,1.3,0,0,0-.22-.83.34.34,0,0,0-.41-.13" fill="#300e02"/>
              <path d="M33.32,27.69a.89.89,0,0,0-.41.44,2.18,2.18,0,0,0-.23,1,1.26,1.26,0,0,0,.27,1,.34.34,0,0,0,.37.09.83.83,0,0,0,.4-.41,2.13,2.13,0,0,0,0-2,.36.36,0,0,0-.41-.13" fill="#300f02"/>
              <path d="M36.62,34.1c-.25.06-.46,0-.45-.31s.29-.4.43-.61c.14.14.45,0,.45.33a.74.74,0,0,1-.43.59m-.2-3.84a1,1,0,0,0-.61.67.68.68,0,0,0,.19.8c.07.06.12.16.2.18s.24.3.14.59a.93.93,0,0,1-.53.86h0c-.34.12-.54-.09-.6-.62,0-.08-.11-.12-.19-.09a.23.23,0,0,0-.11.07.52.52,0,0,0-.12.47c.08.46.3.73.68.75a.29.29,0,0,1,.31.24.6.6,0,0,0,.84.45h0a1.48,1.48,0,0,0,.86-1.08.71.71,0,0,1,.29-.43,1.82,1.82,0,0,0,.68-1.25c0-.16.05-.36-.1-.4h-.11c-.11,0-.17.18-.23.33a1,1,0,0,1-.57,1h0c-.32.11-.53-.11-.55-.55a.62.62,0,0,1,.15-.59,2.59,2.59,0,0,0,.3-.48,1,1,0,0,0,.11-.83.37.37,0,0,0-.53-.24l-.13,0-.12.05-.09,0-.09,0,0,0" fill="#300f02"/>
              <path d="M35.19,32.75c.06.53.26.74.6.62h0a.93.93,0,0,0,.53-.86,1.62,1.62,0,0,1-.57.39.49.49,0,0,1-.58-.14" fill="#d09261"/>
              <path d="M38,31.81a1.51,1.51,0,0,1-.58.5.69.69,0,0,1-.56-.08c0,.44.23.66.55.55h0a1,1,0,0,0,.57-1" fill="#d19362"/>
              <path d="M36.6,33.18c-.14.21-.43.38-.43.61s.2.37.45.31a.74.74,0,0,0,.43-.59c0-.28-.31-.19-.45-.33" fill="#edd0b1"/>
            </g>
          </g>
        </g>
      </g>
    </g>
  </g>
</svg>
