<svg id="Capa_1" data-name="Capa 1" xmlns="http://www.w3.org/2000/svg" xmlns:xlink="http://www.w3.org/1999/xlink" width="50" height="50" viewBox="0 0 50 50">
  <defs>
    <clipPath id="clip-path">
      <polygon points="24.04 49.76 1.25 39.47 1.41 9.18 24.2 19.46 24.04 49.76" fill="none"/>
    </clipPath>
    <clipPath id="clip-path-2">
      <polygon points="24.2 19.46 1.41 9.18 25.96 0.24 48.74 10.53 24.2 19.46" fill="none"/>
    </clipPath>
    <clipPath id="clip-path-3">
      <polygon points="48.74 10.53 48.59 40.83 24.04 49.76 24.2 19.46 48.74 10.53" fill="none"/>
    </clipPath>
  </defs>
  <g id="Figment_lido">
    <g style="isolation: isolate">
      <g>
        <polygon points="24.04 49.76 1.25 39.47 1.41 9.18 24.2 19.46 24.04 49.76" fill="#d6cb81"/>
        <g style="isolation: isolate">
          <g clip-path="url(#clip-path)">
            <g>
              <path d="M15.71,24.86s-.05,0-.07.05A3.76,3.76,0,0,0,15.52,28a4.19,4.19,0,0,0,2,2.59,1.6,1.6,0,0,0,.31.1c1.63.47,2.53-1.67,1.66-3.95,0-.08,0-.13-.08-.14h-.08l-1.66.56a.17.17,0,0,1-.12,0,.38.38,0,0,1-.12-.11c-.54-.69-1.1-1.38-1.64-2.08a.23.23,0,0,0-.08-.07" fill="#00a2fd"/>
              <path d="M17.5,25.76l-1-1.22,0-.15,1.05-1.72,0-.06.07.15c.3.76.59,1.53.88,2.3,0,.14.15.31.13.4s-.15.08-.24.1l-.78.26-.14-.06m.1-4.05L16,24.32c0,.07,0,.11,0,.16l1.46,1.83.14.07,1.46-.48c.07,0,.08-.06,0-.18-.2-.5-.38-1-.57-1.5-.32-.83-.63-1.66-1-2.51" fill="#00a2fd"/>
              <path d="M13.92,24.23l-8.2-3.77L5.58,36.19l2.07,1,0-6.69,5.82,2.67,0-2.5L7.73,28l0-4,6.13,2.81,0-2.54"/>
            </g>
          </g>
        </g>
      </g>
      <g>
        <polygon points="24.2 19.46 1.41 9.18 25.96 0.24 48.74 10.53 24.2 19.46" fill="#ebdf8e"/>
        <g style="isolation: isolate">
          <g clip-path="url(#clip-path-2)">
            <g>
              <path d="M23.93,6.7s0,0,0,.06c.25.51,1,.88,2.17,1.06a7.4,7.4,0,0,0,3.45-.25l.31-.14c1.59-.74.69-1.94-1.67-2.22a.43.43,0,0,0-.17,0,.07.07,0,0,0-.05,0l-.85,1.1a.2.2,0,0,1-.1.07l-.16,0L24,6.68l-.11,0" fill="#00a2fd"/>
              <path d="M26,6l-1.65.14-.14,0L23.69,5v0h.16l2.37.27a1.63,1.63,0,0,1,.41.06c.05,0-.06.11-.11.16s-.26.35-.4.52L26,6M23,4.62q.38.88.72,1.74s.08,0,.15,0l2.47-.2.16-.06c.25-.33.5-.64.76-1,0,0,0-.07-.11-.08l-1.55-.18L23,4.62" fill="#00a2fd"/>
              <path d="M22.09,7.48l-9,3.29L24.63,16l2.28-.83L22,13l6.41-2.34-1.84-.83-6.41,2.33-2.94-1.33L24,8.32l-1.88-.84"/>
            </g>
          </g>
        </g>
      </g>
      <g>
        <polygon points="48.74 10.53 48.59 40.83 24.04 49.76 24.2 19.46 48.74 10.53" fill="#f0e491"/>
        <g style="isolation: isolate">
          <g clip-path="url(#clip-path-3)">
            <g>
              <path d="M39.66,23s-.06,0-.09.12a3.69,3.69,0,0,0-.11,3.12,1.66,1.66,0,0,0,2.21.87A3.59,3.59,0,0,0,42,27c1.79-.92,2.78-3.83,1.81-5.36,0-.05,0-.07-.09-.06l-.09.07c-.6.66-1.21,1.32-1.82,2a.4.4,0,0,1-.13.11.2.2,0,0,1-.13,0L39.74,23s-.06,0-.08,0" fill="#00a2fd"/>
              <path d="M41.62,22.38,40.55,22l0-.13,1.15-2.61,0-.09.08.09c.33.5.65,1,1,1.53.06.1.17.19.15.29s-.17.2-.26.3l-.86.93-.16.07m.1-4.12-1.75,4c0,.1,0,.12,0,.13l1.6.57.16-.06,1.61-1.72c.07-.09.09-.13,0-.21l-.63-1-1.06-1.68" fill="#00a2fd"/>
              <path d="M37.68,23.91l-9,3.29L28.56,43l2.28-.83,0-6.69,6.41-2.33,0-2.51-6.41,2.33,0-4,6.76-2.46V23.91"/>
            </g>
          </g>
        </g>
      </g>
    </g>
  </g>
</svg>
