<svg id="Capa_1" data-name="Capa 1" xmlns="http://www.w3.org/2000/svg" xmlns:xlink="http://www.w3.org/1999/xlink" width="50" height="50" viewBox="0 0 50 50">
  <defs>
    <clipPath id="clip-path">
      <polygon points="24.05 49.76 1.26 39.47 1.42 9.17 24.2 19.46 24.05 49.76" fill="none"/>
    </clipPath>
    <clipPath id="clip-path-2">
      <polygon points="24.2 19.46 1.42 9.17 25.96 0.24 48.75 10.53 24.2 19.46" fill="none"/>
    </clipPath>
    <clipPath id="clip-path-3">
      <polygon points="48.75 10.53 48.59 40.82 24.05 49.76 24.2 19.46 48.75 10.53" fill="none"/>
    </clipPath>
  </defs>
  <g id="Figment_lido">
    <g style="isolation: isolate">
      <g>
        <polygon points="24.05 49.76 1.26 39.47 1.42 9.17 24.2 19.46 24.05 49.76" fill="#226bd5"/>
        <g style="isolation: isolate">
          <g clip-path="url(#clip-path)">
            <g>
              <path d="M18.27,35.15h0v.07l0,0v-.05m.69.17,0-.06,0,.06m0-.63v0l0,0v0l0,0m.11-.84.07-.16.1.27-.09.36-.08,0v-.42m-2-1.91.06,0,0,.08,0,0-.05-.09m.06-1.56,0-.1,0,.1m2.09-1,.05,0,.06.1,0,0-.06-.08m-2.2-3.26.05,0,0,.06h0l0-.05m-.67-.93a.2.2,0,0,1-.2.07l-.13-.05-.05,0a.71.71,0,0,0-.17-.09,8.54,8.54,0,0,1-1-.17l-.16,0c-.28.22-.52.51-.91.44a.86.86,0,0,1,0,.15c0,.21-.05.35-.25.34s-.21.08-.21.25a0,0,0,0,0,0,0v.12c0,.13,0,.19-.08.21s-.11,0-.19,0l-.08,0a4.14,4.14,0,0,0-.47,2.11c0,2.43,0,4.87,0,7.31a.94.94,0,0,0,.55,1l1.9.85c.12.05.25.1.33,0a.68.68,0,0,1,0-.21c0-.12.08-.15.21-.11,0-.73,0-1.48,0-2.21l-.09-.46V32.39c0-.76,0-1.51,0-2.26v-.21a1,1,0,0,1,.22-.77h.26l0-.15c.07-.06.19,0,.33,0l0,0a1.19,1.19,0,0,1,.53.51l.11.05.1,0h0a.32.32,0,0,1,.14.14s0,.06,0,.09a.5.5,0,0,1,0,.19v.23l0,.1v.13a.67.67,0,0,1,.1.29.14.14,0,0,1-.09.14l0,.14a.76.76,0,0,1,0,.15c0,.31-.22.45-.29.71h-.18a.51.51,0,0,0-.16-.12c-.12-.06-.22,0-.25.15a.5.5,0,0,0,0,.18v1.33c0,.44,0,.88,0,1.33s0,.69.37.87l.21.07.16,0,.15,0c.09-.32.28-.24.48-.15a1.13,1.13,0,0,0,.24.08c.21,0,.35-.12.52-.19a.57.57,0,0,1,.46-.11l.07,0,0-.06.05,0v-.06a.71.71,0,0,1,.29-.58.34.34,0,0,0,.12-.26v-.14L19.6,34l0,0c.13.06.16,0,.18-.21l.08-.37a3.92,3.92,0,0,0,.18-1.31c0-.36,0-.74,0-1.11L20,30.72a1.31,1.31,0,0,1-.1-.45.59.59,0,0,1,.05-.23c-.15-.12-.11-.27-.12-.41l0-.09h-.05c-.12-.06-.18-.15-.24-.43a2.84,2.84,0,0,0-.74-1.45l-.1,0v0h.11a.77.77,0,0,0-.32-.56.62.62,0,0,1-.26-.5h0l-.06-.09c-.12-.06-.24-.14-.36-.19l-.17,0-.11,0a.44.44,0,0,1-.23-.3L17,25.66l-.24-.31-.31-.16" fill="#fcfdfd"/>
              <path d="M9.37,22.05l-3.6-1.58c-.35-.16-.51,0-.51.49,0,.76,0,1.54,0,2.3a.94.94,0,0,0,.55,1l.76.35.56.23,0,0c.22.09.29.23.29.56,0,2.69,0,5.4,0,8.1,0,.63.15.9.61,1.1l1.63.73c.48.21.62.06.62-.61v-4c0-1.35,0-2.7,0-4,0-.28,0-.43.22-.34l.08,0a1.15,1.15,0,0,0,.25.12l.34.14c.7.27,1.29-.33,1.29-1.32a2.89,2.89,0,0,0-1.33-2.46l-1.79-.8" fill="#fbfdfd"/>
              <path d="M17.2,31.08c-.21.47-.44.63-.8.47a1.69,1.69,0,0,1-.3-.18L16,31.29c-.15-.07-.17.06-.16.3,0,.91,0,1.82,0,2.71s0,1.05.44,1.23a2.93,2.93,0,0,0,.37.14h.05c-.34-.18-.37-.49-.37-.87s0-.89,0-1.33V32.14a.5.5,0,0,1,0-.18c0-.15.13-.21.25-.15a.51.51,0,0,1,.16.12h.18c.07-.26.28-.4.29-.71a.76.76,0,0,0,0-.15" fill="#fbfdfd"/>
              <path d="M19.92,30a.59.59,0,0,0-.05.23,1.31,1.31,0,0,0,.1.45l.08.28c0,.37,0,.75,0,1.11a3.92,3.92,0,0,1-.18,1.31l-.08.37c0,.16,0,.27-.18.21l0,0-.14.19v.14a.34.34,0,0,1-.12.26.71.71,0,0,0-.29.58v.06c1-.7,1.45-3.22.87-5.17" fill="#fbfdfd"/>
              <path d="M15.89,29.15h-.26a1,1,0,0,0-.22.77v.21c0,.75,0,1.5,0,2.26v2.26l.09.46,0-.17c0-1.51,0-3,0-4.56,0-.57.05-1,.38-1.23" fill="#fbfdfd"/>
              <path d="M18.16,26.59a.62.62,0,0,0,.26.5.77.77,0,0,1,.32.56,2.84,2.84,0,0,1,.74,1.45c.06.28.12.37.24.43h.05a7.61,7.61,0,0,0-1.61-2.95" fill="#fbfdfd"/>
              <path d="M18.89,35.36a.57.57,0,0,0-.46.11c-.17.07-.31.2-.52.19a1.13,1.13,0,0,1-.24-.08c-.2-.09-.39-.17-.48.15l-.15,0-.16,0a2.05,2.05,0,0,0,2-.38" fill="#fbfdfd"/>
              <path d="M16.73,25.35l.24.31.27.27a.44.44,0,0,0,.23.3l.11,0,.17,0c.12.05.24.13.36.19a4.7,4.7,0,0,0-1.38-1.15" fill="#fbfdfd"/>
              <path d="M13.81,25.39a2,2,0,0,0-.79,1l.08,0c.08,0,.15.06.19,0s.08-.08.08-.21v-.12a0,0,0,0,1,0,0c0-.17.1-.26.21-.25s.26-.13.25-.34a.86.86,0,0,0,0-.15" fill="#fbfdfd"/>
              <path d="M16.22,25.1a2.07,2.07,0,0,0-1.34-.17,8.54,8.54,0,0,0,1,.17l.17.09.05,0,.13.05a.2.2,0,0,0,.2-.07l-.2-.09" fill="#fbfdfd"/>
              <path d="M14.72,25a1.48,1.48,0,0,0-.91.44c.39.07.63-.22.91-.44" fill="#fbfdfd"/>
              <path d="M16.26,29c-.14-.06-.26-.08-.33,0l0,.15a.73.73,0,0,1,.48.05,1.31,1.31,0,0,1,.46.35A1.19,1.19,0,0,0,16.3,29l0,0" fill="#fbfdfd"/>
              <path d="M17,29.63l-.1,0-.11-.05.33.64v-.14a.5.5,0,0,0,0-.19s0-.06,0-.09a.32.32,0,0,0-.14-.14h0" fill="#fbfdfd"/>
              <path d="M15.48,37.32c-.13,0-.21,0-.21.11a.68.68,0,0,0,0,.21.28.28,0,0,0,.17-.32" fill="#fbfdfd"/>
              <path d="M17.21,30.51v.43a.14.14,0,0,0,.09-.14.67.67,0,0,0-.1-.29" fill="#fbfdfd"/>
              <path d="M19.8,29.63c0,.14,0,.29.12.41l-.12-.41" fill="#fbfdfd"/>
              <polyline points="18.11 26.5 18.17 26.59 18.11 26.5" fill="#fbfdfd"/>
              <polyline points="17.17 30.28 17.2 30.38 17.17 30.28" fill="#fbfdfd"/>
              <polyline points="19 35.26 18.96 35.32 19 35.26" fill="#fbfdfd"/>
              <polyline points="19.17 33.69 19.1 33.85 19.1 34.27 19.18 34.32 19.27 33.96 19.17 33.69" fill="#fbfdfd"/>
              <polyline points="19.34 29.34 19.29 29.38 19.35 29.46 19.4 29.44 19.34 29.34" fill="#fbfdfd"/>
              <polyline points="17.2 31.91 17.14 31.94 17.19 32.03 17.23 31.99 17.2 31.91" fill="#fbfdfd"/>
              <polyline points="17.14 26.11 17.09 26.11 17.13 26.18 17.16 26.16 17.14 26.11" fill="#fbfdfd"/>
              <polyline points="18.74 27.65 18.63 27.66 18.64 27.69 18.74 27.65" fill="#fbfdfd"/>
              <polyline points="18.31 35.15 18.27 35.15 18.28 35.2 18.32 35.22 18.31 35.15" fill="#fbfdfd"/>
              <polyline points="19 34.67 18.99 34.69 19.01 34.72 19.02 34.69 19 34.67" fill="#fbfdfd"/>
            </g>
          </g>
        </g>
      </g>
      <g>
        <polygon points="24.2 19.46 1.42 9.17 25.96 0.24 48.75 10.53 24.2 19.46" fill="#2576ea"/>
        <g style="isolation: isolate">
          <g clip-path="url(#clip-path-2)">
            <g>
              <path d="M34.54,8l0,0,.06,0,0,0h-.05m.69-.34v0m-.45-.23v0h0m-.56-.36L34.16,7l.28,0,.21.18-.11,0-.32-.15m-3,.47,0-.05h.08v0h-.11M30,7l-.11,0L30,7M31,5.45v0h.13l0,0H31m-4.28.13,0,0h.06v0h-.07m-1.26.06c0,.06,0,.1-.11.14l-.14.06-.06,0-.2.06c-.34.16-.56.36-.94.51l-.12.1c-.05.23,0,.47-.39.67l.13,0c.16.07.22.15.05.26s-.11.15,0,.2h0l.1,0q.13.06.09.12a.57.57,0,0,1-.17.1l-.1,0a2.23,2.23,0,0,0,1.23,1l5.58,2.53a1.47,1.47,0,0,0,1.18,0c.74-.26,1.47-.52,2.19-.79.14,0,.28-.11.27-.19l-.2-.06c-.09,0,0-.09.08-.15-.53-.27-1.11-.52-1.68-.77l-.42-.11L30.1,8.71l-1.72-.79-.16-.07c-.23-.11-.45-.22-.4-.39L28,7.31l-.09-.07c0-.06.12-.13.28-.19h.05a2.42,2.42,0,0,1,.82-.13l.13,0,.11,0h0a.44.44,0,0,1,.22,0l.08,0a.31.31,0,0,1,.11.09l.1,0,.08,0L30,7l.1,0a.8.8,0,0,1,.31,0,.06.06,0,0,1,0,.1l.09.06a.33.33,0,0,1,.12,0c.23.11.18.28.31.41l-.15.1-.23,0c-.14,0-.17.12-.08.19a.62.62,0,0,0,.12.08l1,.46,1,.46a1.22,1.22,0,0,0,1,.09l.23-.1.1-.1.14-.08c-.17-.16,0-.24.28-.32l.25-.11A.85.85,0,0,0,34.92,8a.51.51,0,0,1,.29-.29l0-.06V7.6l0,0A.32.32,0,0,1,35,7.21c0-.07,0-.11-.09-.16l-.11,0,0-.15h0c.16-.06.1-.1,0-.17l-.22-.18A2.32,2.32,0,0,0,33.68,6c-.28-.13-.58-.25-.87-.37l-.28-.06a1.36,1.36,0,0,1-.42-.1.39.39,0,0,1-.14-.1.61.61,0,0,1-.41-.07l-.09,0,0,0a.76.76,0,0,1-.52,0,4.44,4.44,0,0,0-1.72-.08l0,.07h0l.08-.06a1.43,1.43,0,0,0-.68,0,1,1,0,0,1-.6,0h-.11l-.43.14a1,1,0,0,0-.18.08l-.11.05a.8.8,0,0,1-.42,0l-.42.06-.43,0-.38.12" fill="#fcfdfd"/>
              <path d="M17.3,8.59l-4.13,1.5c-.4.15-.4.3,0,.46l1.76.8a1.46,1.46,0,0,0,1.21,0l.89-.31.62-.24.05,0a.77.77,0,0,1,.66,0l6.19,2.81a1.53,1.53,0,0,0,1.34,0L27.73,13c.55-.2.56-.33,0-.56L24.69,11c-1-.47-2.05-.94-3.09-1.4-.22-.09-.3-.17-.08-.24l.09,0,.3-.1.38-.15c.78-.31.79-.85,0-1.19a4.54,4.54,0,0,0-3-.09l-2.07.75" fill="#fbfdfd"/>
              <path d="M30.56,7.23c.19.28.12.47-.29.62L29.89,8l-.16,0c-.18.07-.1.12.09.2.71.31,1.39.63,2.07.94s.83.35,1.31.17l.41-.16,0,0a1.22,1.22,0,0,1-1-.09l-1-.46-1-.46A.62.62,0,0,1,30.53,8c-.09-.07-.06-.14.08-.19l.23,0,.15-.1c-.13-.13-.08-.3-.31-.41a.33.33,0,0,0-.12,0" fill="#fbfdfd"/>
              <path d="M32,5.32a.39.39,0,0,0,.14.1,1.36,1.36,0,0,0,.42.1l.28.06c.29.12.59.24.87.37a2.32,2.32,0,0,1,.85.55l.22.18c.11.07.17.11,0,.17h0l0,.15.11,0c.08,0,.1.09.09.16a.32.32,0,0,0,.22.37l0,0c.3-.83-1.29-1.94-3.26-2.28" fill="#fbfdfd"/>
              <path d="M28,7.31l-.21.15c-.05.17.17.28.4.39l.16.07,1.72.79,1.74.78.42.11-.1-.08L28.66,8c-.45-.19-.75-.38-.63-.64" fill="#fbfdfd"/>
              <path d="M27.9,5.13a1,1,0,0,0,.6,0,1.43,1.43,0,0,1,.68,0,4.44,4.44,0,0,1,1.72.08.76.76,0,0,0,.52,0l0,0a12.51,12.51,0,0,0-3.57-.1" fill="#fbfdfd"/>
              <path d="M35.21,7.75a.51.51,0,0,0-.29.29.85.85,0,0,1-.28.37l-.25.11c-.23.08-.45.16-.28.32L34,8.92l-.1.1c.8-.36,1.25-.79,1.34-1.27" fill="#fbfdfd"/>
              <path d="M25.8,5.52l.43,0,.42-.06a.8.8,0,0,0,.42,0l.11-.05a1,1,0,0,1,.18-.08l.43-.14a9.48,9.48,0,0,0-2,.39" fill="#fbfdfd"/>
              <path d="M23.46,7.2a.78.78,0,0,0,.15.81l.1,0a.57.57,0,0,0,.17-.1s0-.08-.09-.12l-.1,0h0c-.13,0-.12-.14,0-.2s.11-.19-.05-.26l-.13,0" fill="#fbfdfd"/>
              <path d="M25.18,5.73a3.19,3.19,0,0,0-1.21.7c.38-.15.6-.35.94-.51l.2-.06.06,0,.14-.06c.07,0,.12-.08.11-.14l-.24.09" fill="#fbfdfd"/>
              <path d="M23.85,6.53a.94.94,0,0,0-.39.67c.37-.2.34-.44.39-.67" fill="#fbfdfd"/>
              <path d="M28.22,7.05c-.16.06-.27.13-.28.19l.09.07a1.21,1.21,0,0,1,.42-.26,3.22,3.22,0,0,1,.64-.14,2.42,2.42,0,0,0-.82.13h-.05" fill="#fbfdfd"/>
              <path d="M29.33,6.82l-.11,0-.13,0,.75,0-.1,0a.31.31,0,0,0-.11-.09l-.08,0a.44.44,0,0,0-.22,0h0" fill="#fbfdfd"/>
              <path d="M33.94,10.37c-.13.06-.17.11-.08.15l.2.06c0-.08,0-.15-.12-.21" fill="#fbfdfd"/>
              <path d="M30.13,7l.34.14a.06.06,0,0,0,0-.1.8.8,0,0,0-.31,0" fill="#fbfdfd"/>
              <path d="M31.56,5.25a.61.61,0,0,0,.41.07l-.41-.07" fill="#fbfdfd"/>
              <polyline points="27.8 5.13 27.91 5.13 27.8 5.13" fill="#fbfdfd"/>
              <polyline points="29.92 6.97 30.03 6.99 29.92 6.97" fill="#fbfdfd"/>
              <polyline points="35.22 7.65 35.23 7.69 35.22 7.65" fill="#fbfdfd"/>
              <polyline points="34.16 7.01 34.22 7.1 34.54 7.25 34.65 7.22 34.44 7.04 34.16 7.01" fill="#fbfdfd"/>
              <polyline points="30.96 5.41 30.96 5.45 31.06 5.44 31.09 5.41 30.96 5.41" fill="#fbfdfd"/>
              <polyline points="31.2 7.52 31.17 7.57 31.28 7.56 31.28 7.52 31.2 7.52" fill="#fbfdfd"/>
              <polyline points="26.7 5.55 26.68 5.58 26.75 5.58 26.76 5.55 26.7 5.55" fill="#fbfdfd"/>
              <polyline points="29.18 5.17 29.1 5.23 29.14 5.24 29.18 5.17" fill="#fbfdfd"/>
              <polyline points="34.58 8 34.54 8.03 34.59 8.04 34.64 8.02 34.58 8" fill="#fbfdfd"/>
              <polyline points="34.77 7.44 34.78 7.46 34.81 7.45 34.8 7.44 34.77 7.44" fill="#fbfdfd"/>
            </g>
          </g>
        </g>
      </g>
      <g>
        <polygon points="48.75 10.53 48.59 40.82 24.05 49.76 24.2 19.46 48.75 10.53" fill="#2678ef"/>
        <g style="isolation: isolate">
          <g clip-path="url(#clip-path-3)">
            <g>
              <path d="M42.9,31.09l.05,0v.05l-.05,0v0m.78-.42,0-.09,0,.09m0-.66v0h0v0h0m.13-1,.08-.23L44,29l-.1.45-.1,0v-.43m-2.21-.25.07-.09,0,.05,0,.07-.06,0m.08-1.65,0-.08,0,.08m2.37-2.83,0-.08.07.05-.06.07-.06,0m-2.47-1.43.05-.05,0,0,0,.05,0,0m-.76-.36a.49.49,0,0,1-.22.23l-.14.07-.07,0-.18,0c-.38.2-.74.53-1.12.68l-.19.16a3.66,3.66,0,0,1-1,1.23.76.76,0,0,1,0,.15.62.62,0,0,1-.28.56.55.55,0,0,0-.24.43v0a.57.57,0,0,1,0,.12.39.39,0,0,1-.31.42l-.09,0a6.2,6.2,0,0,0-.54,2.56c0,2.49,0,5-.06,7.46,0,.52.2.67.61.52.72-.24,1.43-.5,2.14-.76a.62.62,0,0,0,.38-.31.31.31,0,0,1,0-.18.35.35,0,0,1,.23-.29c0-.77,0-1.53,0-2.27l-.09-.38c0-.78,0-1.55,0-2.32s0-1.54,0-2.31v-.22a1.63,1.63,0,0,1,.26-1l.29-.23,0-.18a.67.67,0,0,1,.38-.27l0,0a.6.6,0,0,1,.6.07l.12-.05.12-.05h0c.08,0,.13,0,.16,0a.17.17,0,0,1,0,.08.63.63,0,0,1,0,.23V27l0,.09,0,.08v.11a.29.29,0,0,1,.12.22.5.5,0,0,1-.11.22l0,.16a.71.71,0,0,1,0,.14,5.18,5.18,0,0,1-.34,1l-.19.14a.4.4,0,0,0-.19,0,.47.47,0,0,0-.28.37.64.64,0,0,0,0,.2v1.36c0,.45,0,.9,0,1.36s0,.69.41.58l.25-.12.17-.17.17-.11a.7.7,0,0,1,.54-.56,1,1,0,0,0,.27-.13,3.67,3.67,0,0,0,.6-.64,1.62,1.62,0,0,1,.51-.5l.08-.11,0-.09.06-.1v-.06a1.7,1.7,0,0,1,.32-.84.74.74,0,0,0,.15-.38.62.62,0,0,0,0-.13l.16-.31h0c.16-.06.18-.19.21-.37l.1-.46A5.23,5.23,0,0,0,45,26.44c0-.38,0-.74,0-1.11l-.08-.23a.67.67,0,0,1-.11-.37.86.86,0,0,1,0-.27c-.16,0-.12-.19-.13-.32l0-.06-.05,0c-.15,0-.21,0-.28-.22a1,1,0,0,0-.83-.85l-.11.13v0l.12-.1c0-.21-.17-.33-.35-.29s-.27-.09-.29-.29h0l-.08,0c-.13,0-.26.06-.4.11l-.19.09-.12.07a.2.2,0,0,1-.27-.11l-.29,0-.27-.12-.36.12" fill="#fcfdfd"/>
              <path d="M32.92,25.4l-4.06,1.48a.88.88,0,0,0-.58.94c0,.79,0,1.58,0,2.35,0,.53.18.69.62.53l.86-.3q.32-.11.63-.24l.05,0c.24-.09.31,0,.31.32q0,4.15,0,8.28c0,.64.17.79.68.6l1.84-.67c.54-.19.7-.46.71-1.15l0-4.11c0-1.37,0-2.76,0-4.12,0-.28,0-.46.25-.54l.09,0,.28-.08.38-.16A2.86,2.86,0,0,0,36.43,26c0-1-.66-1.66-1.49-1.36l-2,.73" fill="#fbfdfd"/>
              <path d="M41.72,27.86c-.24.66-.51,1-.91,1.17a1.28,1.28,0,0,1-.34.07l-.14,0c-.18.07-.2.21-.19.45,0,.92,0,1.85,0,2.76s0,1,.49.88L41,33l.05,0c-.38.11-.42-.18-.41-.58s0-.91,0-1.36V29.71a.64.64,0,0,1,0-.2.47.47,0,0,1,.28-.37.4.4,0,0,1,.19,0l.19-.14a5.18,5.18,0,0,0,.34-1,.71.71,0,0,0,0-.14" fill="#fbfdfd"/>
              <path d="M44.79,24.46a.86.86,0,0,0,0,.27.67.67,0,0,0,.11.37l.08.23c0,.37,0,.73,0,1.11a5.23,5.23,0,0,1-.21,1.48l-.1.46c0,.18,0,.31-.21.37h0l-.16.31a.62.62,0,0,1,0,.13.74.74,0,0,1-.15.38,1.7,1.7,0,0,0-.32.84v.06c1.17-1.61,1.65-4.54,1-6" fill="#fbfdfd"/>
              <path d="M40.25,27l-.29.23a1.63,1.63,0,0,0-.26,1v.22c0,.77,0,1.54,0,2.31s0,1.54,0,2.32l.09.38,0-.19c0-1.55,0-3.11,0-4.65A2.35,2.35,0,0,1,40.25,27" fill="#fbfdfd"/>
              <path d="M42.83,22.45c0,.2.09.31.29.29s.3.08.35.29a1,1,0,0,1,.83.85c.07.23.13.27.28.22l.05,0a2.62,2.62,0,0,0-1.8-1.63" fill="#fbfdfd"/>
              <path d="M43.6,30.78a1.62,1.62,0,0,0-.51.5,3.67,3.67,0,0,1-.6.64,1,1,0,0,1-.27.13.7.7,0,0,0-.54.56l-.17.11-.17.17a5.94,5.94,0,0,0,2.26-2.11" fill="#fbfdfd"/>
              <path d="M41.22,22.41l.27.12.29,0a.2.2,0,0,0,.27.11l.12-.07.19-.09c.14-.05.27-.07.4-.11a2.6,2.6,0,0,0-1.54,0" fill="#fbfdfd"/>
              <path d="M37.92,25a6.12,6.12,0,0,0-.9,1.74l.09,0a.39.39,0,0,0,.31-.42.57.57,0,0,0,0-.12v0a.55.55,0,0,1,.24-.43.62.62,0,0,0,.28-.56.76.76,0,0,0,0-.15" fill="#fbfdfd"/>
              <path d="M40.64,22.6a4.21,4.21,0,0,0-1.51,1c.38-.15.74-.48,1.12-.68l.18,0,.07,0,.14-.07a.49.49,0,0,0,.22-.23l-.22.07" fill="#fbfdfd"/>
              <path d="M38.94,23.74a5.39,5.39,0,0,0-1,1.23,3.66,3.66,0,0,0,1-1.23" fill="#fbfdfd"/>
              <path d="M40.67,26.57a.67.67,0,0,0-.38.27l0,.18a1.58,1.58,0,0,1,.54-.37.93.93,0,0,1,.52,0,.6.6,0,0,0-.6-.07l0,0" fill="#fbfdfd"/>
              <path d="M41.55,26.52l-.12.05-.12.05.36.36v-.13a.63.63,0,0,0,0-.23.17.17,0,0,0,0-.08c0-.05-.08-.05-.16,0h0" fill="#fbfdfd"/>
              <path d="M39.74,35.71a.35.35,0,0,0-.23.29.31.31,0,0,0,0,.18.6.6,0,0,0,.19-.47" fill="#fbfdfd"/>
              <path d="M41.73,27.26v.44a.5.5,0,0,0,.11-.22.29.29,0,0,0-.12-.22" fill="#fbfdfd"/>
              <path d="M44.66,24.14c0,.13,0,.31.13.32l-.13-.32" fill="#fbfdfd"/>
              <polyline points="42.77 22.41 42.84 22.44 42.77 22.41" fill="#fbfdfd"/>
              <polyline points="41.69 27.07 41.72 27.15 41.69 27.07" fill="#fbfdfd"/>
              <polyline points="43.73 30.58 43.68 30.67 43.73 30.58" fill="#fbfdfd"/>
              <polyline points="43.93 28.82 43.84 29.05 43.84 29.48 43.94 29.46 44.04 29.01 43.93 28.82" fill="#fbfdfd"/>
              <polyline points="44.14 24.24 44.09 24.32 44.15 24.36 44.21 24.29 44.14 24.24" fill="#fbfdfd"/>
              <polyline points="41.71 28.71 41.64 28.8 41.7 28.84 41.75 28.76 41.71 28.71" fill="#fbfdfd"/>
              <polyline points="41.67 22.84 41.62 22.89 41.66 22.92 41.7 22.88 41.67 22.84" fill="#fbfdfd"/>
              <polyline points="43.47 23.03 43.35 23.14 43.36 23.16 43.47 23.03" fill="#fbfdfd"/>
              <polyline points="42.95 31.06 42.9 31.09 42.91 31.13 42.96 31.11 42.95 31.06" fill="#fbfdfd"/>
              <polyline points="43.73 29.97 43.72 30.01 43.74 30.01 43.76 29.98 43.73 29.97" fill="#fbfdfd"/>
            </g>
          </g>
        </g>
      </g>
    </g>
  </g>
</svg>
