<svg id="eLcY0doeCD51" xmlns="http://www.w3.org/2000/svg" xmlns:xlink="http://www.w3.org/1999/xlink" viewBox="0 0 160 75" shape-rendering="geometricPrecision" text-rendering="geometricPrecision"><path d="M63.31597,108.98704c-8.28427,0-15-6.71573-15-15v-30c0-8.28427,6.71573-15,15-15h120c.02241,0,.04481.00005.0672.00015-.00005-.00005.852938-.0001.852888-.00015L197.81168,37.752c.34708,16.95739.51518,25.60962.50429,25.9567-.00013.004-.00091.0073-.00235.0099.00157.08929.00235.17877.00235.26844v30c0,8.28427-6.71573,15-15,15h-120Z" transform="translate(-43.262554-35.604613)" fill="#ffbdd9" stroke="#d80068"/><line x1="0" y1="-9.506242" x2="0" y2="-9.506242" transform="translate(198.315966 52.289946)" fill="none" stroke="#3f5787" stroke-width="3"/><path d="" fill="none" stroke="#3f5787" stroke-width="0.6"/></svg>
