<svg id="Capa_1" data-name="Capa 1" xmlns="http://www.w3.org/2000/svg" width="250" height="250" viewBox="0 0 250 250">
  <rect id="Figment_lido" x="-1.22" y="-1.06" width="252.5" height="252.5" transform="translate(-0.16 250.22) rotate(-90)" fill="#fff"/>
  <g>
    <path d="M27.5,142.5v-10h5v-5h5v-5h10v-5h5v-5h-15v5h-10v-5h5v-5h25v5h5v10h-5v5h-5v5h-10v5h20v5Z"/>
    <path d="M72.5,142.5v-5h-5v-5h10v5h15v-10h-15v-5h5v-5h5v-5h-15v-5h30v5h-5v5h-5v5h5v5h5v10h-5v5Z"/>
    <path d="M117.5,142.5v-5h-5v-5h-5v-15h5v-5h5v-5h15v5h5v5h5v15h-5v5h-5v5Zm5-5h10v-20h-5v-5h-10v20h5Z"/>
    <path d="M157.5,142.5v-5h-5v-5h-5v-15h5v-5h5v-5h15v5h5v5h5v15h-5v5h-5v5Zm5-5h10v-20h-5v-5h-10v20h5Z"/>
    <path d="M187.5,142.5v-10h5v-5h5v-5h-5v-5h-5v-10h10v10h5v5h5v-5h5v-10h10v10h-5v5h-5v5h5v5h5v10h-10v-10h-5v-5h-5v5h-5v10Z"/>
  </g>
</svg>
