<svg id="Capa_1" data-name="Capa 1" xmlns="http://www.w3.org/2000/svg" xmlns:xlink="http://www.w3.org/1999/xlink" width="250" height="250" viewBox="0 0 250 250">
  <defs>
    <symbol id="Allnodes" data-name="Allnodes" viewBox="0 0 54.13 50.67">
      <path d="M49.44,50.67H39a3,3,0,0,1-.86-1.24c-1.3-2.6-2.73-5.14-4-7.75a3.81,3.81,0,0,0-.33-.55c-2.41-4.8-5-9.51-7.42-14.31q-3.17-6-6.27-12a8.44,8.44,0,0,1-.68-1.3,1.24,1.24,0,0,1,.84-1.76c1.05-.11,2.1,0,3.15,0s2.12,0,3.18,0a4.45,4.45,0,0,1,4,2.37c.74,1.26,1.3,2.62,2.06,3.87l.09.17c.82,1.77,1.79,3.46,2.67,5.19.65,1.19,1.26,2.4,1.88,3.6s1.31,2.46,1.94,3.71l5.51,10.55c1.57,3,3.16,6,4.69,9C49.47,50.35,49.58,50.5,49.44,50.67Z" fill="#fefefe"/>
      <path d="M10.63,50.67H0c-.11-.28.08-.48.18-.7C.75,48.81,1.45,47.73,2,46.55c1.09-2,2.14-4.07,3.19-6.12.77-1.39,1.49-2.8,2.19-4.22,1-1.77,1.92-3.54,2.79-5.35.78-1.32,1.37-2.73,2.19-4A4.52,4.52,0,0,1,15.71,25c1.85,0,3.71,0,5.56,0,.21,0,.42,0,.63,0a1.31,1.31,0,0,1,1.21,2c-.36.79-.81,1.55-1.19,2.33-.73,1.3-1.42,2.62-2.1,3.95-1.12,2.12-2.21,4.26-3.34,6.38S14.25,43.84,13.16,46c-.67,1.39-1.47,2.72-2.13,4.12A1.73,1.73,0,0,1,10.63,50.67Z" fill="#fefefe"/>
      <g>
        <path d="M45.54,24.5A8.41,8.41,0,0,1,38,19.87a8.32,8.32,0,0,1,.32-8.54c.18-.29.3-.3.58-.13C41,12.42,43,13.62,45.11,14.85a.77.77,0,0,0,.91,0c2-1.21,4.13-2.4,6.18-3.62.32-.19.44-.13.62.15a8.58,8.58,0,0,1-6.12,13C46.31,24.44,45.92,24.46,45.54,24.5Z" fill="#fff"/>
        <path d="M45.56,0l3.66,5.72C50,6.87,50.67,8,51.42,9.15c.18.27.13.38-.13.53l-5.45,3.17a.48.48,0,0,1-.56,0l-5.49-3.2c-.17-.1-.3-.17-.14-.41C41.61,6.19,43.56,3.13,45.56,0Zm0,2.54-.15.19c-1.3,2-2.59,4.06-3.89,6.08-.14.22,0,.28.13.38,1.24.71,2.47,1.42,3.69,2.15a.48.48,0,0,0,.56,0l2.89-1.7c.32-.19.83-.34.9-.6s-.32-.63-.52-.94C48,6.33,46.92,4.58,45.8,2.84,45.73,2.74,45.7,2.59,45.53,2.54Z" fill="#fff"/>
      </g>
    </symbol>
  </defs>
  <rect id="Figment_lido" x="-1.22" y="-1.06" width="252.5" height="252.5" transform="translate(-0.16 250.22) rotate(-90)" fill="#6682ff"/>
  <use width="54.13" height="50.67" transform="translate(43.27 53.89) scale(2.96)" xlink:href="#Allnodes"/>
</svg>
