<svg id="Capa_1" data-name="Capa 1" xmlns="http://www.w3.org/2000/svg" xmlns:xlink="http://www.w3.org/1999/xlink" width="250" height="250" viewBox="0 0 250 250">
  <defs>
    <symbol id="Ankr" data-name="Ankr" viewBox="0 0 3.49 3.64">
      <g>
        <path d="M3,1.09C2.92,1,2.8,1,2.71.93,2.43.77,2.14.64,1.86.49a.22.22,0,0,0-.22,0L.56,1s0,0-.05.05,0,0,0,0l0,.31a1.13,1.13,0,0,1-.41,0l0,0a.39.39,0,0,1,0-.26A.63.63,0,0,1,.44.6c.35-.17.69-.35,1-.53a.55.55,0,0,1,.5,0L3.2.68a.57.57,0,0,1,.27.45.39.39,0,0,1,0,.26l0,0a1.13,1.13,0,0,1-.41,0c0-.1,0-.21,0-.31S3,1.11,3,1.09Z" fill="#fefefe"/>
        <g>
          <path d="M3.45,2.3a.2.2,0,0,1,0-.07.93.93,0,0,0-.44,0c0,.11,0,.23,0,.34L2,3.1V2.65s0-.06,0-.08a.82.82,0,0,0,.56-.74s0,0,0,0a1.18,1.18,0,0,0,0-.2A.83.83,0,0,0,1.87,1a.43.43,0,0,0-.25,0,.9.9,0,0,0-.69.69.43.43,0,0,0,0,.25.84.84,0,0,0,.53.65s0,0,0,0A2.42,2.42,0,0,1,1.5,3s0,.06-.07.06L.58,2.62s-.06,0-.07-.06,0,0,0,0,0-.2,0-.3a1.14,1.14,0,0,0-.41,0l0,0a.39.39,0,0,0,0,.26,1.22,1.22,0,0,0,.09.27,1.49,1.49,0,0,0,.63.42c.21.11.43.2.63.32a.64.64,0,0,0,.64,0c.32-.16.64-.35,1-.49A.69.69,0,0,0,3.45,2.3ZM1.68,2.16a.37.37,0,0,1-.31-.4.39.39,0,0,1,.38-.33.41.41,0,0,1,.37.33.38.38,0,0,1-.31.4A.29.29,0,0,0,1.68,2.16Z" fill="#fefefe"/>
          <polygon points="3 2.22 3 2.23 3 2.23 3.01 2.22 3 2.22" fill="#fefefe"/>
        </g>
      </g>
    </symbol>
  </defs>
  <rect id="Figment_lido" x="-1.22" y="-1.06" width="252.5" height="252.5" transform="translate(-0.16 250.22) rotate(-90)" fill="#346ff1"/>
  <use width="3.49" height="3.64" transform="translate(46.21 42.83) scale(45.16)" xlink:href="#Ankr"/>
</svg>
