<svg id="Capa_1" data-name="Capa 1" xmlns="http://www.w3.org/2000/svg" xmlns:xlink="http://www.w3.org/1999/xlink" width="250" height="250" viewBox="0 0 250 250">
  <defs>
    <symbol id="anyblocks" data-name="anyblocks" viewBox="0 0 48.95 24.79">
      <path d="M21.22,24.77c-6.78,0-13.57,0-20.35,0-.72,0-.87-.19-.87-.88Q0,16.6,0,9.3c0-.62.15-.79.79-.79,6.81,0,13.62,0,20.43,0a.55.55,0,0,1,.38.26,1.76,1.76,0,0,1,.16,1q0,6.86,0,13.71a1.76,1.76,0,0,1-.16,1A.55.55,0,0,1,21.22,24.77Z" fill="#2da9e0"/>
      <path d="M21.41,8.67l-.19-.15H44.28a.29.29,0,0,1-.12.27,1.53,1.53,0,0,1-1,.19H22.6A1.47,1.47,0,0,1,21.41,8.67Z" fill="#414a57"/>
      <path d="M21.22,24.77l.19-.15a1.33,1.33,0,0,1,1-.32H43.32a1.3,1.3,0,0,1,.84.18.29.29,0,0,1,.12.27l-7.1,0Z" fill="#414a57"/>
      <path d="M44.28,24.76v-.12a1.27,1.27,0,0,1-.33-1V9.67a1.28,1.28,0,0,1,.33-1V8.53c.27.23.16.54.16.82q0,7.29,0,14.59C44.44,24.22,44.55,24.53,44.28,24.76Z" fill="#3b3d40"/>
      <path d="M44.28,8.65v16l-22.87,0V8.67Z" fill="#142844"/>
      <path d="M9.94,15.83c0,1.35,0,2.66,0,4,0,.7-.31.7-.81.69s-.85,0-.83-.68c0-2.07,0-4.15,0-6.22,0-.26-.23-.76.29-.75s1.19-.38,1.53.41c.53,1.24,1.09,2.47,1.64,3.71a.84.84,0,0,0,.39.44c0-1.31,0-2.63,0-3.94,0-.73.4-.63.85-.66s.76.07.75.67c0,2.08,0,4.15,0,6.22,0,.26.24.77-.27.76s-1.13.37-1.47-.38c-.57-1.28-1.16-2.56-1.74-3.83C10.21,16.1,10.19,15.93,9.94,15.83Z" fill="#fefefe"/>
      <path d="M7.81,20.45a5.22,5.22,0,0,0-.58,0c-.71.12-1.17-.09-1.24-.88,0-.56-.38-.67-.92-.7-.93-.06-1.5.1-1.73,1.16-.19.87-1,.22-1.65.48a27.57,27.57,0,0,1,1-3.49c.36-1.28.8-2.53,1.17-3.8.13-.47.44-.47.79-.43s.8-.21,1,.39c.69,2.31,1.42,4.61,2.14,6.91A1.57,1.57,0,0,1,7.81,20.45Z" fill="#fefefe"/>
      <path d="M14.21,12.86c1.56-.15,1.56-.15,2,1.29.2.6.42,1.2.66,1.91a8,8,0,0,0,.79-2c.54-1.34.51-1.35,2.08-1.16-.38.92-.7,1.85-1.14,2.72A7.68,7.68,0,0,0,17.77,20c.06.55-.31.57-.65.49s-1,.34-.94-.42c.32-2.41-.93-4.36-1.76-6.43-.07-.18-.14-.35-.2-.53A.87.87,0,0,1,14.21,12.86Z" fill="#fefefe"/>
      <path d="M23.58,19.74c-.16.24.09.62-.32.6S23,20,23,19.79c0-2.2,0-4.41,0-6.61,0-.2-.17-.54.22-.56s.24.34.24.53c0,.77,0,1.54,0,2.39.33-.18.46-.5.75-.62A1.63,1.63,0,0,1,26.56,16,6.54,6.54,0,0,1,26.63,19a1.54,1.54,0,0,1-1.18,1.43A1.69,1.69,0,0,1,23.58,19.74Z" fill="#fdfdfd"/>
      <path d="M29.54,17.39A3.2,3.2,0,0,1,29.76,16a1.8,1.8,0,0,1,1.65-1.16,1.74,1.74,0,0,1,1.81,1,4.51,4.51,0,0,1,0,3.55,1.76,1.76,0,0,1-1.95,1.06A1.88,1.88,0,0,1,29.66,19,5.77,5.77,0,0,1,29.54,17.39Z" fill="#fbfbfc"/>
      <path d="M39.54,17.43c1.05-.83,1.48-2.15,2.67-2.63l.15.17A20.86,20.86,0,0,1,41,16.68c-.43.42-.35.71,0,1.14.57.79,1.09,1.61,1.64,2.44a.55.55,0,0,1-.83-.25c-.36-.58-.74-1.16-1.14-1.72-.14-.2-.24-.62-.51-.5a.83.83,0,0,0-.54.8c0,.43,0,.85,0,1.28,0,.19.09.46-.25.48s-.28-.24-.28-.44V13.05c0-.19-.07-.46.28-.44s.25.29.25.48Z" fill="#fdfdfd"/>
      <path d="M34.3,17.56a8.43,8.43,0,0,1,.12-1.33,1.79,1.79,0,0,1,1.84-1.45A1.74,1.74,0,0,1,38,16c.06.24.22.58-.09.71s-.38-.27-.44-.49a1.09,1.09,0,0,0-1.22-.9,1.17,1.17,0,0,0-1.25,1A5.65,5.65,0,0,0,35,19a1.17,1.17,0,0,0,1.25.9,1.07,1.07,0,0,0,1.2-.81c.06-.21.06-.57.41-.44s.17.45.1.67A1.88,1.88,0,0,1,34.41,19,11.2,11.2,0,0,1,34.3,17.56Z" fill="#fbfbfb"/>
      <path d="M27.82,16.51c0-1.14,0-2.28,0-3.42,0-.18-.11-.46.24-.49s.37.2.37.46v6.86c0,.21,0,.43-.31.44s-.29-.29-.3-.5C27.81,18.75,27.82,17.63,27.82,16.51Z" fill="#f3f4f5"/>
      <path d="M5.45,17.58H4.07l.6-2.46.13,0Z" fill="#31abe1"/>
      <path d="M23.51,17.65a7.21,7.21,0,0,1,0-1,1.25,1.25,0,0,1,1.13-1.23,1.14,1.14,0,0,1,1.41.94A5.29,5.29,0,0,1,26,19a1.13,1.13,0,0,1-1.38.9,1.24,1.24,0,0,1-1.15-1.21C23.49,18.34,23.51,18,23.51,17.65Z" fill="#142844"/>
      <path d="M32.94,17.62a5.36,5.36,0,0,1-.1,1.26,1.26,1.26,0,0,1-1.33,1,1.24,1.24,0,0,1-1.29-1.07,5.13,5.13,0,0,1,0-2.37,1.25,1.25,0,0,1,1.25-1.12,1.31,1.31,0,0,1,1.36,1A4.49,4.49,0,0,1,32.94,17.62Z" fill="#152844"/>
      <g>
        <path d="M44.19,13.56A4.66,4.66,0,0,1,40,11a4.62,4.62,0,0,1,.18-4.73c.1-.16.16-.16.32-.07l3.45,2a.42.42,0,0,0,.5,0c1.14-.67,2.29-1.33,3.42-2,.18-.1.24-.06.34.09a4.74,4.74,0,0,1-3.38,7.21Z" fill="#00a2fd"/>
        <path d="M44.21,0l2,3.17c.41.63.8,1.27,1.22,1.89.1.16.07.22-.07.3l-3,1.76a.29.29,0,0,1-.31,0L41,5.34c-.09,0-.16-.09-.07-.23Zm0,1.41a.39.39,0,0,0-.08.1L42,4.88c-.07.12,0,.15.08.21.68.39,1.36.78,2,1.19a.27.27,0,0,0,.31,0L46,5.32c.18-.11.46-.19.5-.33s-.18-.35-.29-.52c-.61-1-1.23-1.93-1.85-2.9C44.3,1.52,44.29,1.43,44.19,1.41Z" fill="#009ff9"/>
      </g>
    </symbol>
  </defs>
  <rect id="Figment_lido" x="-1.22" y="-1.06" width="252.5" height="252.5" transform="translate(-0.16 250.22) rotate(-90)" fill="#fff"/>
  <use width="48.95" height="24.79" transform="translate(22.36 73.01) scale(4.19)" xlink:href="#anyblocks"/>
</svg>
