<svg id="Capa_1" data-name="Capa 1" xmlns="http://www.w3.org/2000/svg" xmlns:xlink="http://www.w3.org/1999/xlink" width="250" height="250" viewBox="0 0 250 250">
  <defs>
    <symbol id="Attestant" data-name="Attestant" viewBox="0 0 26.92 22.64">
      <path d="M10.22,22.62V3.37l2.36.5,5,1.07c.55.12,1.09.26,1.64.39.17,0,.22.09.2.3a33.11,33.11,0,0,1-2.13,8.72A18.26,18.26,0,0,1,14,19.85a9.94,9.94,0,0,1-3.51,2.68A1.89,1.89,0,0,1,10.22,22.62Z" fill="#a6a6ff"/>
      <path d="M9.14,6.35V8.91l-.3,0H.77c-.23,0-.36-.06-.39-.32C.27,7.86.13,7.13,0,6.35Z" fill="#a6a6ff"/>
      <path d="M9.13,9.91v2.58l-.32,0c-2.37,0-4.73,0-7.09,0-.26,0-.39-.07-.45-.32-.17-.62-.36-1.24-.52-1.87-.1-.4-.08-.4.32-.4H9.13Z" fill="#a6a6ff"/>
      <path d="M1.69,13.56H9.11a.68.68,0,0,1,0,.19v2.1c0,.19-.05.29-.26.29H3A.3.3,0,0,1,2.8,16C2.43,15.2,2.08,14.41,1.69,13.56Z" fill="#a6a6ff"/>
      <path d="M3.47,17.15l.3,0h5c.4,0,.4,0,.41.42,0,.62,0,1.24,0,1.85,0,.23-.08.32-.31.32H5.44a.44.44,0,0,1-.3-.11L3.38,17.25Z" fill="#a6a6ff"/>
      <path d="M.24,5.33l8.89-2v2Z" fill="#a6a6ff"/>
      <path d="M6.21,20.72H8.92c.07,0,.21.13.21.2,0,.55,0,1.1,0,1.72A8.47,8.47,0,0,1,6.21,20.72Z" fill="#a6a6ff"/>
      <g>
        <path d="M23.85,8.74a3,3,0,0,1-2.69-1.65,3,3,0,0,1,.11-3c.07-.1.11-.11.21,0l2.22,1.3a.26.26,0,0,0,.32,0L26.23,4c.11-.07.16,0,.22,0A3.06,3.06,0,0,1,24.27,8.7Z" fill="#fff"/>
        <path d="M23.86,0l1.31,2c.26.41.51.82.78,1.22.06.1.05.14-.05.19L24,4.58a.15.15,0,0,1-.2,0l-2-1.14c-.07,0-.11-.06-.06-.15C22.45,2.21,23.15,1.12,23.86,0Zm0,.91L23.8,1c-.46.73-.93,1.45-1.39,2.17-.05.08,0,.1.05.14.44.25.88.5,1.31.76A.16.16,0,0,0,24,4l1-.6c.12-.07.3-.12.32-.22s-.11-.22-.18-.33L24,1S23.91.92,23.85.91Z" fill="#fff"/>
      </g>
    </symbol>
  </defs>
  <rect id="Figment_lido" x="-1.22" y="-1.06" width="252.5" height="252.5" transform="translate(-0.16 250.22) rotate(-90)" fill="#071a36"/>
  <use width="26.92" height="22.64" transform="translate(23.89 39.97) scale(7.51)" xlink:href="#Attestant"/>
</svg>
