<svg id="Capa_1" data-name="Capa 1" xmlns="http://www.w3.org/2000/svg" xmlns:xlink="http://www.w3.org/1999/xlink" width="250" height="250" viewBox="0 0 250 250">
  <defs>
    <symbol id="Avado" data-name="Avado" viewBox="0 0 22.21 25.21">
      <path d="M22.14,16.9l0,0a4.27,4.27,0,0,1-1.31-.37l-2.23-.78a.72.72,0,0,0-.36-.06h-.1a.78.78,0,0,1-.15-.1l-.07-.06c-.14-.15-.38-.15-.5-.32a.32.32,0,0,1,0-.09c0-.13-.12-.18-.2-.25-.48-.42-1-.8-1.46-1.22a.55.55,0,0,1-.18-.24c-.36-.81-.71-1.62-1-2.45-.12-.3-.26-.52-.63-.5a.18.18,0,0,1-.15-.07c0-.09,0-.12.1-.15s.2,0,.35,0a11.33,11.33,0,0,0-.54-1.17l-.06-.12a.23.23,0,0,0-.14-.19,19.18,19.18,0,0,1-1.54-1.58l-.8-.79c-.09-.09-.16-.19-.3-.21a.34.34,0,0,1-.14,0,10.68,10.68,0,0,0-1.26-.21c-.19,0-.37-.11-.52.07s-.44.67-.68,1c-.11.15-.06.2.1.21A1.56,1.56,0,0,1,9,7.23s.06.09,0,.13a1,1,0,0,1-.62.07s-.07,0-.1,0a.14.14,0,0,1,.06.12s0,0-.05,0c-.4-.06-.43.21-.46.51A12.1,12.1,0,0,0,7.68,9.3a.26.26,0,0,1-.13.26,7.39,7.39,0,0,0-1.73,1.19l0,.09a7.46,7.46,0,0,0-.25,1.82.34.34,0,0,1-.1.23,9.46,9.46,0,0,0-.53,1.37.39.39,0,0,0,0,.26.46.46,0,0,1,0,.2c-.06.1,0,.21,0,.32s0,.25-.09.33c-.17-.11-.17-.11-.26-.56-.35.26-.67.55-1,.84L.39,18.38a.41.41,0,0,0-.1.13.22.22,0,0,1,0,.08.18.18,0,0,1-.17.05A2.21,2.21,0,0,1,0,18c0-3.52,0-7,0-10.55A2,2,0,0,1,1.11,5.54C3.89,4,6.64,2.36,9.4.76l1-.56a1.44,1.44,0,0,1,1.52,0L18,3.76l3.49,2a1.43,1.43,0,0,1,.73,1.3V16.5C22.21,16.64,22.24,16.78,22.14,16.9Z" fill="#fefefe"/>
      <path d="M22.2,17.08c0,.34,0,.68,0,1a1.47,1.47,0,0,1-.79,1.38l-8.63,5L11.9,25a1.53,1.53,0,0,1-1.84-.14c-.12-.1,0-.15,0-.23l.07-.06a1.74,1.74,0,0,0,.55-.21,1.75,1.75,0,0,1,.42-.19,2.23,2.23,0,0,0,.51-.19,45.43,45.43,0,0,0,4.63-2.57c1-.56,1.94-1.15,2.92-1.71a7.72,7.72,0,0,0,1.38-1.16c.48-.43.92-.89,1.4-1.31C22,17.13,22.06,17,22.2,17.08Z" fill="#061221"/>
      <path d="M.07,18.64c0-.09.09-.06.15-.06.37-.07.69.14,1,.2.11,0,.21.07.32.09a4.17,4.17,0,0,1,1.25.31,3,3,0,0,0,.71.25c.16.06.32.08.48.14a4.18,4.18,0,0,0,.7.16c.45-.12.46-.12.59.19-.06,0-.08.09,0,.12a2,2,0,0,1-1,1.14,1.31,1.31,0,0,1-.59,0C2.7,20.6,1.65,20,.59,19.34A1.41,1.41,0,0,1,.07,18.64Z" fill="#38414d"/>
      <path d="M10,24.6c-.11.06-.11.06-.28-.13S9.27,24,9,23.78A.24.24,0,0,1,9,23.7c-.27-.38-.56-.74-.83-1.12-.06-.09-.18-.18-.12-.3s.2-.07.31-.06c.87.22,1.72.48,2.57.76a.26.26,0,0,1,.09.43A8.44,8.44,0,0,1,10,24.6Z" fill="#061221"/>
      <path d="M8.93,24.12c-.11.09-.15,0-.21-.07L4.08,21.37l-.15-.06c.06-.26.28-.14.43-.17a2.17,2.17,0,0,1,1.55.51c.9.68,1.8,1.38,2.69,2.08C8.73,23.83,9,23.89,8.93,24.12Z" fill="#071322"/>
      <path d="M9.47,24.4c-.14-.06-.22-.24-.4-.22a15.3,15.3,0,0,0-1.41-1.11c-.52-.41-1-.84-1.58-1.22-.06,0-.15-.1-.1-.19s.14-.07.22-.05c.4.1.78.25,1.18.33h.09a2.14,2.14,0,0,0,.22.1.54.54,0,0,1,.3.21c.32.51.71,1,1.07,1.45h0c.13.15.24.31.37.46S9.55,24.3,9.47,24.4Z" fill="#071322"/>
      <path d="M22.2,17.08a12.26,12.26,0,0,0-1.35,1.25,12.22,12.22,0,0,1-2.8,2.1c-1.8,1-3.57,2.06-5.34,3.1a8,8,0,0,1-1.12.51.12.12,0,0,1,0-.09c0-.13.18-.16.29-.21.34-.16.68-.32,1-.51s.33-.21.08-.48-.41-.49-.64-.71a.42.42,0,0,1-.12-.24.25.25,0,0,1,.11-.17,1.07,1.07,0,0,1,.55.14l1.24.5a.56.56,0,0,0,.49,0l4.68-2.76.16-.12.08-.06c.44-.39.9-.77,1.3-1.2s.76-.68,1.12-1a.53.53,0,0,1,.23-.13s0,0,0,0A.23.23,0,0,1,22.2,17.08Z" fill="#b9bcc0"/>
      <path d="M7.42,22c-.17.1-.31,0-.46-.07a9.82,9.82,0,0,0-1-.24l.45.37,2.43,1.87c.08.07.22.1.2.25l-.14-.06c-1.1-.85-2.19-1.73-3.32-2.56a2.63,2.63,0,0,0-1.21-.4s0,0,0,0l0,0A3,3,0,0,0,5.28,20c.09,0,.13,0,.17.08,0,.25-.23.41-.37.59-.26.35-.27.35.13.49.63.22,1.26.4,1.88.6C7.22,21.81,7.4,21.8,7.42,22Z" fill="#b9bcc0"/>
      <path d="M10,24.6a9.44,9.44,0,0,1,1-1.22c.12-.15.1-.24,0-.35.4-.17.51-.59.74-.9.1-.13.14-.32.34-.36a.13.13,0,0,1,.1.09.29.29,0,0,1-.06.22,17,17,0,0,1-1.72,2.32l-.15.14-.08.06H10Z" fill="#babec1"/>
      <path d="M9.47,24.4c-.06-.28-.37-.41-.42-.69a2.69,2.69,0,0,1,.62.76C9.58,24.52,9.5,24.53,9.47,24.4Z" fill="#b6b9bd"/>
      <path d="M4.4,21.1a.06.06,0,0,0,0,.06c-.16.05-.36,0-.47.15a.21.21,0,0,1-.15-.14A1.85,1.85,0,0,1,4.4,21.1Z" fill="#e6e7e9"/>
      <path d="M19.48,19.39a4.17,4.17,0,0,1-1.07.69c-1.26.76-2.54,1.5-3.81,2.26a.53.53,0,0,1-.53,0c-.59-.25-1.2-.48-1.79-.72-.2-.1,0-.18,0-.26,1-.92,1.85-1.92,2.78-2.87s1.72-1.8,2.58-2.7a.75.75,0,0,1,.39-.26l.06.12a.88.88,0,0,1,.29.54c.24.66.51,1.3.73,2,.08.18.14.37.21.56S19.55,19.16,19.48,19.39Z" fill="#061221"/>
      <path d="M5.29,19.92c-.16-.32-.36-.15-.56-.05A1.85,1.85,0,0,0,4,19.63a1.44,1.44,0,0,0-.49-.14c-.21-.11-.46-.12-.68-.23S2.27,19.09,2,19a.55.55,0,0,0-.4,0,5.4,5.4,0,0,0-1-.34c-.11,0-.25,0-.34-.13s.08-.17.14-.22L4.48,14.7a.74.74,0,0,1,.13-.08c.12.24,0,.51.13.73a1.24,1.24,0,0,1,.25.82,9.31,9.31,0,0,1,.17,1.58,2.58,2.58,0,0,0,.14.91c.06.22,0,.45.08.67s0,.26,0,.4S5.46,19.94,5.29,19.92Z" fill="#38414d"/>
      <path d="M17.42,15.21c.17.12.43.11.53.35a.42.42,0,0,1-.09.14c-.59.54-1.09,1.16-1.66,1.72-.81.8-1.57,1.64-2.37,2.46l-1.25,1.3c-.06.06-.12.17-.22.12s-.06-.19,0-.28c.14-.42.31-.83.46-1.24.67-1.82,1.36-3.63,2-5.44a.54.54,0,0,1,.07-.13l.07-.07a.4.4,0,0,1,.34,0c.65.32,1.33.59,2,.91A.5.5,0,0,1,17.42,15.21Z" fill="#061221"/>
      <path d="M22.13,16.94l-2.54,2.44c-.2-.16-.18-.44-.31-.63a3.1,3.1,0,0,0-.21-.58c-.22-.64-.47-1.28-.72-1.91,0-.2-.16-.36-.18-.57s.2-.07.25,0c1,.34,2,.7,3,1.06Z" fill="#061221"/>
      <path d="M13.73,10.41c.5-.09.72.17.89.62.3.81.66,1.59,1,2.38-.09.14-.22,0-.34.05-.75-.14-1.47-.41-2.2-.61-.19-.17-.54-.09-.62-.42a.76.76,0,0,0-.06-.25c-.08-.32-.13-.65-.19-1a4,4,0,0,0-.09-.68c0-.14,0-.26.19-.3a4.71,4.71,0,0,0,.53,0,2,2,0,0,1,.54,0C13.49,10.33,13.63,10.31,13.73,10.41Z" fill="#061221"/>
      <path d="M5.08,17.74a21.48,21.48,0,0,0-.34-2.39c.14-.1,0-.23,0-.34s-.1-.23,0-.33a1,1,0,0,1,.54.44c.42.53,1,1,1.38,1.5a.49.49,0,0,1,.11.58c-.28.67-.64,1.3-1,2a4,4,0,0,0-.21.47c0,.09-.1.2-.22.18s-.09-.16-.1-.26a.94.94,0,0,0-.06-.29l-.08-.56C5.19,18.38,5.14,18.06,5.08,17.74Z" fill="#38414d"/>
      <path d="M5.77,10.7c-.06-.09,0-.11.07-.15l1.54-1s.08,0,.12,0A1.91,1.91,0,0,1,8,10.4c.34.76.68,1.51,1,2.28.06.15.21.34.06.47s-.31-.06-.43-.15L6,11A.76.76,0,0,1,5.77,10.7Z" fill="#38414d"/>
      <path d="M10.83,6.1c.14,0,.18.08.24.15.82.81,1.63,1.64,2.44,2.46,0,.21-.2.14-.34.15-.45-.08-.91-.14-1.37-.2s-.64-.11-1-.15c-.18-.06-.41-.06-.43-.33s.1-.6.12-.91a4.38,4.38,0,0,1,.15-.88A.83.83,0,0,1,10.83,6.1Z" fill="#061221"/>
      <path d="M5.49,12.69c-.1,0-.12-.06-.11-.16.09-.55.17-1.1.25-1.65,0-.09,0-.13.14-.1.85.58,1.63,1.24,2.45,1.86.29.22.59.41.86.66-.07.2-.22.08-.34.1a.41.41,0,0,1-.19,0,4.92,4.92,0,0,0-.91-.19.38.38,0,0,1-.21,0C6.9,13,6.35,13,5.81,12.85A.45.45,0,0,1,5.49,12.69Z" fill="#38414d"/>
      <path d="M4.87,14.54c-.1,0-.16-.09-.11-.2.21-.5.34-1,.59-1.52a2.25,2.25,0,0,1,.81.72c.5.53,1,1.08,1.49,1.6a2.11,2.11,0,0,1,.3.37c0,.08.14.15.07.24s-.19.05-.28,0l-1.33-.53c-.38-.15-.74-.31-1.12-.43C5.15,14.72,5,14.71,4.87,14.54Z" fill="#38414d"/>
      <path d="M7.62,9.32c-.13-.07-.06-.18,0-.27.06-.46.14-.92.18-1.38,0-.24.1-.29.31-.18a1.37,1.37,0,0,0,.29.07.3.3,0,0,1,.26,0,14.3,14.3,0,0,1,1.4.59c.11.09.3.14.24.35a.51.51,0,0,1-.33.13A6,6,0,0,0,8.7,9a.48.48,0,0,1-.18.06C8.21,9.14,7.94,9.35,7.62,9.32Z" fill="#38414d"/>
      <path d="M14.94,14.25,12.45,21c0,.1-.07.21-.08.24.35-.32.76-.66,1.14-1.05,1.42-1.47,2.84-3,4.26-4.45a1.24,1.24,0,0,1,.18-.14h.1c-1.7,1.76-3.39,3.53-5.08,5.29l-.6.6c-.13,0-.16-.06-.2-.14a3,3,0,0,1,.3-1c.71-1.87,1.4-3.75,2.1-5.63a1.3,1.3,0,0,1,.22-.42A.11.11,0,0,1,14.94,14.25Z" fill="#b6babe"/>
      <path d="M13.36,10.28c-.14.12-.31,0-.46.07-.16-.12-.37,0-.54-.1s-.09,0-.11-.08A5.3,5.3,0,0,1,13.65,9c.24.18.26.48.39.73a6.61,6.61,0,0,1,.27.63h-.45C13.7,10.28,13.51,10.43,13.36,10.28Z" fill="#071322"/>
      <path d="M8.92,7.27H7.86l.92-1.38c.15-.07.23,0,.31.13q.32.44.6.9c.15.25.09.35-.2.37A3.62,3.62,0,0,1,8.92,7.27Z" fill="#38414d"/>
      <path d="M7.62,9.32a2,2,0,0,1,.89-.27c0,.26-.33.18-.48.36L9.75,10a.77.77,0,0,1,.34.14.13.13,0,0,1-.06.17.69.69,0,0,1-.49-.09C9,10,8.41,9.88,7.83,9.71c.43,1.09.9,2.14,1.37,3.21.12.05.17-.23.3-.07a.43.43,0,0,1-.19.5.28.28,0,0,1-.29,0L5.77,10.78V10.7l3,2.32c.06.05.11.14.26.12L7.5,9.52C7.57,9.47,7.63,9.42,7.62,9.32Z" fill="#c3c6c9"/>
      <path d="M9.33,5.82l1.19.12c.09,0,.21,0,.17.17s-.28.37-.37.59c-.54.72-.47.5-.86,0-.12-.16-.23-.33-.34-.51S8.94,6,9,5.85,9.21,5.79,9.33,5.82Z" fill="#071321"/>
      <path d="M4.87,14.54l.44.17a.18.18,0,0,1,0,.07c-.06,0,0,.06,0,.1.48.55,1,1,1.48,1.61a.3.3,0,0,0,.47.06c.22-.16.44-.33.67-.47a.44.44,0,0,1,.3-.14.25.25,0,0,1,.17.24c-.11.3-.06.67-.42.84-.19-.25.06-.44.07-.68-.2.12-.38.28-.58.41s-.12.19,0,.28a3.68,3.68,0,0,0,.45.21.33.33,0,0,1,0,.32c-.2.28-.29.61-.48.88a.13.13,0,0,1-.17-.06,1.09,1.09,0,0,1,.26-.69c.15-.26,0-.3-.2-.39s-.32-.18-.44.07c-.25.54-.54,1.06-.77,1.6a1.19,1.19,0,0,1-.41.65.08.08,0,0,1-.08,0c.37-.8.74-1.6,1.13-2.39a.37.37,0,0,0-.09-.52l-1.85-2Z" fill="#c4c7ca"/>
      <path d="M15.77,13.62,17.45,15s.15,0,.06.13-.06,0-.09,0a24.88,24.88,0,0,1-2.35-1.07.17.17,0,0,1,0-.1C15.27,13.78,15.44,13.54,15.77,13.62Z" fill="#071322"/>
      <path d="M10,8.24C9.45,8,8.88,7.8,8.35,7.56L8,7.33H9a2,2,0,0,1,.81-.06c.12,0,.19.12.24.22a1.88,1.88,0,0,1,.24.59C10.27,8.34,10.08,8.23,10,8.24Z" fill="#3b4450"/>
      <path d="M5.31,14.71l2.69,1,0,0L5.35,12.82l.14-.13L7.33,13c.08,0,.16,0,.15.14s-.26,0-.39,0c-.44-.06-.87-.16-1.36-.23.71.74,1.35,1.47,2,2.17a1.35,1.35,0,0,1,.46.66.19.19,0,0,1-.12.16.54.54,0,0,1-.33-.06C7,15.6,6.32,15.31,5.6,15c-.13,0-.29-.09-.33-.26Z" fill="#c4c7ca"/>
      <path d="M10.24,8.16c-.19-.63-.55-1-1.26-.83l-.06-.06c.25-.11.52,0,.82-.1-.3-.43-.58-.85-.86-1.27h-.1a.42.42,0,0,1,.55-.07H9l.44.67c.15.21.29.43.45.66l.42-.52a.09.09,0,0,1,.06.07,1.1,1.1,0,0,0,0,1.27.2.2,0,0,1,0,.17A.07.07,0,0,1,10.24,8.16Z" fill="#bcbfc3"/>
      <path d="M15.09,14l2.22,1,.11.07v.07l-2.09-.93c-.11,0-.23-.16-.38-.08C14.92,14.07,15,14.06,15.09,14Z" fill="#b5b8bd"/>
      <path d="M13.65,9a13.54,13.54,0,0,1-1.35,1.16.06.06,0,0,1-.09,0c0-.14.08-.19.16-.26.36-.34.74-.66,1.13-1l.09,0Z" fill="#b8bbbf"/>
      <path d="M.22,18.51l1.25.33a.13.13,0,0,1,.12.14l-1.37-.4Z" fill="#babec2"/>
      <path d="M15.77,13.62c-.28,0-.4.29-.65.36A.08.08,0,0,1,15,14c0-.32.3-.33.45-.46-.09,0-.21,0-.18-.17l.32,0C15.61,13.53,15.72,13.55,15.77,13.62Z" fill="#bbbfc2"/>
      <path d="M10.27,6.63a1.42,1.42,0,0,1,.42-.52h.14a.46.46,0,0,1-.06.28c0,.07-.11-.16-.16,0a.33.33,0,0,1-.29.26Z" fill="#bcbfc3"/>
      <path d="M13.36,10.28a1,1,0,0,1,.5.07l-.13.06C13.59,10.4,13.42,10.5,13.36,10.28Z" fill="#8f949b"/>
      <path d="M13.17,8.78c.1-.07.26.11.34-.07.09,0,.14.08.08.18s0,0,0,0a.33.33,0,0,1-.4,0A.08.08,0,0,1,13.17,8.78Z" fill="#dfe0e2"/>
      <path d="M18.17,15.69a1.55,1.55,0,0,1,.22.55s-.05,0-.07,0l-.21-.55Z" fill="#c5c8cb"/>
      <path d="M10.09,24.51a17,17,0,0,0,2-2.65c0-.11.08-.11.16-.07.32.36.62.73.95,1.07.19.18.12.24-.06.35-.49.28-1,.5-1.51.76-.14.14-.33.14-.49.22l-.38.2C10.5,24.41,10.33,24.65,10.09,24.51Z" fill="#061221"/>
      <path d="M10.09,24.51c.23.09.4-.2.63-.12a.89.89,0,0,1-.64.21Z" fill="#c6c9cc"/>
      <path d="M11.1,24.19a1.21,1.21,0,0,1,.49-.22V24C11.43,24.11,11.29,24.24,11.1,24.19Z" fill="#c6c9cc"/>
      <path d="M5.3,19.26c.16.13.09.33.15.5.12,0,.09-.14.17-.18s0,0,0,0a.35.35,0,0,1,.13.11.25.25,0,0,1,0,.08.43.43,0,0,1-.16.19l-.12.1a.11.11,0,0,1-.08,0L5.28,20,5.17,20l.12,0C5.39,19.7,5.25,19.48,5.3,19.26Z" fill="#dfe1e2"/>
      <path d="M4,19.6c.26.06.56,0,.74.27L4,19.65s0,0,0,0A0,0,0,0,1,4,19.6Z" fill="#d3d5d8"/>
      <path d="M2.83,19.26a1.84,1.84,0,0,1,.68.2s0,0,0,0,0,0,0,0C3.28,19.43,3,19.46,2.83,19.26Z" fill="#d2d5d7"/>
      <path d="M3.51,19.52v-.06A.77.77,0,0,1,4,19.6v0Z" fill="#d2d5d7"/>
      <path d="M12,21.8c-.24.35-.48.71-.71,1.07a.29.29,0,0,1-.38.16,16.82,16.82,0,0,1-2-.56c-.21-.07-.45,0-.63-.2s-.13-.07-.08-.16A.26.26,0,0,1,8.39,22a4.51,4.51,0,0,0,.72-.12c.35,0,.69-.08,1-.12a3.22,3.22,0,0,0,.76-.08,1.63,1.63,0,0,1,.43,0,1.17,1.17,0,0,0,.37,0C11.82,21.63,12,21.59,12,21.8Z" fill="#071322"/>
      <path d="M8.25,22.13l.07.14c-.07.12-.16,0-.26,0,.28.37.57.74.84,1.12.07.09.18.15.16.28A8.28,8.28,0,0,1,8,22.31s.08-.16-.07-.2S7.88,22,8,22,8.21,22,8.25,22.13Z" fill="#b2b6bb"/>
      <path d="M5.44,20.09h0c.24,0,.35.24.51.37.47.38.92.79,1.38,1.2.08.07.26.16.11.33H7.42l-2.5-.82-.28-.1Z" fill="#061221"/>
      <path d="M7.49,22c.07-.15-.07-.17-.14-.23-.61-.56-1.27-1.07-1.86-1.67,0-.06,0-.13.08-.15l1.87,1.63a.77.77,0,0,1,.27.39.13.13,0,0,1-.09.15C7.54,22.13,7.5,22.08,7.49,22Z" fill="#b7bbbf"/>
      <path d="M7.62,22.12,7.69,22l0,0c.1,0,.12-.3.3-.09C8,21.92,8,22,8,22s.2.21,0,.32A.58.58,0,0,0,7.62,22.12Z" fill="#f1f1f2"/>
      <path d="M12.48,21.84l1.75.7-.69.41c-.1.06-.15,0-.2-.05-.31-.33-.61-.67-.92-1Z" fill="#071322"/>
      <path d="M12,21.8c-.1-.14-.23,0-.36,0s-.23.1-.32,0c.14-.22.38-.13.58-.19l.08,0c.15,0,.13-.16.24-.18l.15.15c0,.08-.16.09-.09.2a.13.13,0,0,1-.07.13c-.08,0-.12,0-.16.07Z" fill="#cbced0"/>
      <path d="M19.32,18.71l.27.67h-.11l-.22-.6C19.22,18.71,19.27,18.71,19.32,18.71Z" fill="#c5c8cb"/>
      <path d="M18.32,16.24h.07l.73,1.92s0,.07-.06.08Z" fill="#bbbec2"/>
      <path d="M19.06,18.24l.06-.08.2.55-.06.08Z" fill="#bbbfc3"/>
      <path d="M5.08,17.74a1.39,1.39,0,0,1,.14,1A2.41,2.41,0,0,1,5.08,17.74Z" fill="#e8e9ea"/>
      <path d="M15,14h.1a.09.09,0,0,0,0,.06c0,.07-.15.06-.14.16a0,0,0,0,1,0,.05h-.13l0,0a.21.21,0,0,1,0-.17l0-.07a.21.21,0,0,1,.13-.05A.11.11,0,0,1,15,14Z" fill="#eff0f1"/>
      <path d="M12.28,11.19a3.78,3.78,0,0,1,.2,1c-.06.27-.11.29-.31.13a3.87,3.87,0,0,1-.41-.4c-.44-.47-.93-.87-1.38-1.32-.09-.09-.27-.18-.11-.36a8.15,8.15,0,0,1,1.71,0c.18,0,.2.14.19.29A5.37,5.37,0,0,1,12.28,11.19Z" fill="#071322"/>
      <path d="M15,14h-.14a.83.83,0,0,1-.46-.2c-.38-.23-.77-.45-1.15-.69-.1-.07-.23-.1-.26-.25a.05.05,0,0,1,.08,0,2.78,2.78,0,0,1,1.07.24c.38.13.77.19,1.14.31,0,.13.16.11.26.18Z" fill="#0a1524"/>
      <path d="M10.24,10.35l2.14,2c.08,0,0-.16.1-.18a.25.25,0,0,1,.06.22c0,.07-.06.16-.16.16a.33.33,0,0,1-.21-.11c-.62-.61-1.23-1.23-1.88-1.81a.38.38,0,0,1-.16-.25C10.15,10.35,10.18,10.31,10.24,10.35Z" fill="#b7babe"/>
      <path d="M10.24,10.35a.1.1,0,0,0-.08.08.12.12,0,0,1,0,.14.12.12,0,0,1-.1,0,.21.21,0,0,1-.1-.11.17.17,0,0,1,0-.19l.06-.16a.25.25,0,0,1,.09-.41c.2,0,0,.22.15.27l.07.06a3.15,3.15,0,0,0,1,0c.19,0,.38,0,.57,0a.65.65,0,0,1,.24,0h.14s0,.06,0,.07,0,0,0,0l0,0c-.23,0-.1.17-.14.27s0,0-.06,0-.06-.28-.28-.26A9.88,9.88,0,0,0,10.24,10.35Z" fill="#e4e5e6"/>
      <path d="M12.42,12.54l.12-.13c0,.18.18.16.28.22s.31-.05.27.19h0l0,0a.48.48,0,0,1-.17.05,2.72,2.72,0,0,0-.57-.1.12.12,0,0,1,0-.08C12.26,12.6,12.34,12.57,12.42,12.54Z" fill="#dbdcde"/>
      <path d="M12.35,10.29v-.07c.19,0,.41-.08.56.13A1.26,1.26,0,0,1,12.35,10.29Z" fill="#a8adb2"/>
      <path d="M12.15,10.55h.06a1.22,1.22,0,0,1,.07.63A2.35,2.35,0,0,1,12.15,10.55Z" fill="#bfc2c6"/>
      <path d="M10.32,6.67a2.18,2.18,0,0,0,.26-.34c.12-.19.12.07.19,0a8.68,8.68,0,0,0-.14.89,2.93,2.93,0,0,0-.18.87.08.08,0,0,1-.13,0,1.12,1.12,0,0,0-.09-.22A.85.85,0,0,1,10.32,6.67Z" fill="#0a1624"/>
      <path d="M10.32,8.15h.1s0,0,.06,0c-.05.33.28.13.37.26a.17.17,0,0,1-.06.12.53.53,0,0,1-.15.08l-.07,0c-.1,0-.14.16-.25.15s-.12-.18-.09-.29-.18-.18-.27-.26c.07-.1.22.06.28-.08Z" fill="#b4b8bc"/>
      <path d="M13.17,8.78v.06s-.09.08-.14.07a3.33,3.33,0,0,1-1.21-.22.09.09,0,0,1,0-.11A7.08,7.08,0,0,1,13.17,8.78Z" fill="#cdd0d3"/>
      <path d="M11.8,8.58v0a1,1,0,0,1-1-.14l.08-.06A3.44,3.44,0,0,1,11.8,8.58Z" fill="#c5c8cc"/>
      <path d="M10.48,8.16h-.06a1.46,1.46,0,0,1,.21-.89Z" fill="#cacccf"/>
      <path d="M8.17,15.75l-2.69-3,2,.37.15-.07c.2.14.45.1.67.17a.67.67,0,0,1,.28.1l.15-.06a.44.44,0,0,0,.31.09.16.16,0,0,1,.21.16c-.21.73-.55,1.4-.78,2.11C8.4,15.78,8.34,16,8.17,15.75Z" fill="#38414d"/>
      <path d="M9.19,13.56c0-.13-.11-.11-.19-.12s-.23,0-.27-.14.19.1.29,0h.31a.23.23,0,0,1,.16.14.11.11,0,0,1,0,.08.28.28,0,0,1-.11.08C9.3,13.62,9.22,13.72,9.19,13.56Z" fill="#d7d9db"/>
      <path d="M8.58,13.36l-.71-.13c-.1,0-.21,0-.24-.14l.83.14A.12.12,0,0,1,8.58,13.36Z" fill="#cbcdd0"/>
      <path d="M10.23,8.5c.14.05,0,.24.13.28a2.1,2.1,0,0,1-.14,1c-.21.07-.1.26-.15.39a3,3,0,0,1-1-.27c-.45-.13-.9-.29-1.39-.45.28-.19.58-.19.8-.36L8.63,9c.43-.1.83-.3,1.25-.41A.61.61,0,0,1,10.23,8.5Z" fill="#38414d"/>
      <path d="M9.88,8.57A3.47,3.47,0,0,1,8.63,9,3.68,3.68,0,0,1,9.88,8.57Z" fill="#c7cacd"/>
      <path d="M12.22,21.31c-.06.08,0,.28-.21.19s-.33-.2-.47-.32L8.9,18.85a.59.59,0,0,1-.21-.26.17.17,0,0,1,0-.1,8.13,8.13,0,0,1,1.1-.83c.13-.11.28-.19.4-.3.63-.42,1.24-.85,1.85-1.3.4-.26.79-.54,1.17-.83s.84-.59,1.26-.87c.11-.07.2-.17.34-.1h0c-.25.88-.62,1.72-.94,2.59C13.33,18.34,12.77,19.82,12.22,21.31Z" fill="#061221"/>
      <path d="M10,10.29v.2c.06.28-.1.52-.14.78a1.29,1.29,0,0,0-.07.43.36.36,0,0,1,0,.1,1.51,1.51,0,0,0-.18.72c0,.12,0,.24-.14.31s-.08.28-.24.37L7.58,9.48Z" fill="#38414d"/>
      <path d="M9.74,11.8v-.08A5.77,5.77,0,0,1,10,10.56s0,0,.06,0l.11.16c.09,0,.08.1.08.16a4.36,4.36,0,0,0,.19,1,2.33,2.33,0,0,1,.18.9,1.47,1.47,0,0,0,0,.59c.05.24,0,.38-.28.35a.73.73,0,0,1-.5-.09c-.15-.08-.34-.05-.44-.21a.12.12,0,0,1-.14-.14c.1-.14.07-.32.13-.47l.07-.37A1.76,1.76,0,0,1,9.74,11.8Z" fill="#071322"/>
      <path d="M5.27,14.76c.93.42,1.88.78,2.83,1.13.06,0,.08,0,.07.08-.35.25-.71.49-1,.75-.11.08-.18.11-.28,0-.62-.68-1.25-1.34-1.9-2Z" fill="#38414d"/>
      <path d="M5.77,19.7l-.11,0v-.11c.42-.75.78-1.54,1.14-2.32.11-.24.19-.32.46-.15.45.3.47.28.22.79-.06.15-.12.29-.19.44s-.09.23-.19.32c-.38.27-.7.6-1.07.88C6,19.63,5.89,19.72,5.77,19.7Z" fill="#38414d"/>
      <path d="M7.89,17c.22-.08.17-.32.26-.47s.09-.22.14-.33a.19.19,0,0,1,.1.13c.09.29,0,.61.15.9a3.32,3.32,0,0,1,.11.76c0,.11,0,.24-.16.32-.3-.15-.41-.46-.59-.72v-.31A.2.2,0,0,1,7.89,17Z" fill="#0d1927"/>
      <path d="M7.89,17a.34.34,0,0,1,0,.28c-.35,0-.54-.24-.85-.38l1.15-.83Z" fill="#3a434e"/>
      <path d="M7.42,18.43a1.41,1.41,0,0,1,.48-.89h0c.2.27.39.56.6.83s-.07.19-.2.2a1.57,1.57,0,0,0-.43,0C7.71,18.52,7.54,18.57,7.42,18.43Z" fill="#081423"/>
      <path d="M7.42,18.43l.46,0c0,.12-.09.12-.17.14-.26,0-.19.26-.33.34s-.16-.19-.28-.24,0,0-.06-.06l.25-.26Z" fill="#c8cbce"/>
      <path d="M8.31,16.31l0-.11L8.17,16l-.07-.08.07-.14c.16.12.17,0,.21-.12s.15,0,.17.14a2,2,0,0,1-.15.53A.07.07,0,0,1,8.31,16.31Z" fill="#e6e7e8"/>
      <path d="M10.77,8.48l1,.14,1.37.22.41.08-1.37,1.23h0a.28.28,0,0,1-.33-.1c-.37-.44-.79-.84-1.18-1.26a.28.28,0,0,1-.07-.22C10.62,8.46,10.72,8.5,10.77,8.48Z" fill="#071321"/>
      <path d="M7.13,18.64s.12-.12.14,0,.05.18.07.26c.23.16.15.43.22.64a1.11,1.11,0,0,1,0,.37,1.47,1.47,0,0,0,.12.8.44.44,0,0,1,0,.1,1.67,1.67,0,0,0,.09.7.4.4,0,0,1,0,.19c0,.1-.05.22-.18.27h0A8.16,8.16,0,0,0,6.6,21c-.29-.27-.6-.52-.9-.78-.07-.06-.19-.11-.13-.24l.19-.16A9.38,9.38,0,0,1,7.13,18.64Z" fill="#061221"/>
      <path d="M7.13,18.64,5.76,19.79V19.7A12.84,12.84,0,0,1,7,18.63Z" fill="#bcbfc3"/>
      <path d="M12,21.61l-.67.11a.69.69,0,0,1-.42.07,6.17,6.17,0,0,1-.74.07A4.09,4.09,0,0,1,9.11,22a4.46,4.46,0,0,0-.73.13H8.25C8.2,22,8,22.17,8,22l0-.13c0-.07,0-.13,0-.2.07-.58.22-1.14.32-1.71a.36.36,0,0,1,0-.1A6.71,6.71,0,0,0,8.47,19a.57.57,0,0,1,.07-.31.14.14,0,0,1,.14,0l1.45,1.27c.49.44,1,.88,1.48,1.3A1.05,1.05,0,0,1,12,21.61Z" fill="#061221"/>
      <path d="M10.16,21.86a2.3,2.3,0,0,1,.74-.07A1,1,0,0,1,10.16,21.86Z" fill="#e5e7e8"/>
      <path d="M8.38,22.13A1.16,1.16,0,0,1,9.11,22,2,2,0,0,1,8.38,22.13Z" fill="#dfe1e3"/>
      <path d="M8,21.72a.15.15,0,0,1,0,.14c-.16-.09-.1.28-.29.13.11-.07,0-.22.14-.29s0-.14.13-.13S8,21.67,8,21.72Z" fill="#7e848c"/>
      <path d="M12,21.61,8.92,18.88c-.08-.07-.14-.15-.21-.22s0-.06,0-.09L12,21.5Z" fill="#b7babe"/>
      <path d="M12.28,12.78c.22-.21.4,0,.6.05.65.33,1.25.74,1.88,1.11,0,0,.07.05,0,.1l-.05,0c-.1.1-.25.11-.35.19a9,9,0,0,1-1,.15,4.68,4.68,0,0,0-.83.09,5,5,0,0,0-.94.18,3.81,3.81,0,0,1-.47.07,2.82,2.82,0,0,0-.91.13,2.3,2.3,0,0,1-.45.05c-.32-.12-.32-.14-.1-.36s.47-.37.67-.59l.07-.06,1-.7.08-.06C11.8,13.07,12,12.78,12.28,12.78Z" fill="#071221"/>
      <path d="M14.8,14l-1.92-1.21s.1-.07.15,0c.61.4,1.26.72,1.85,1.15Z" fill="#b5b9bd"/>
      <path d="M14.4,14.19c.07-.17.22-.12.35-.13l.06.2-1.55,1.05a.09.09,0,0,1,0-.08c.1-.27.38-.34.57-.5s.41-.28.61-.42S14.46,14.23,14.4,14.19Z" fill="#b9bdc0"/>
      <path d="M10.22,10.84l0-.13,0-.28c.67.55,1.25,1.18,1.88,1.76l.38.35c0,.09-.09.11-.14.16a4.49,4.49,0,0,1-.76.53h0c-.21.11-.4.25-.6.38s-.24.11-.27-.11-.07-.45-.1-.67a2.8,2.8,0,0,0-.2-.9C10.38,11.56,10.19,11.21,10.22,10.84Z" fill="#061221"/>
      <path d="M12,10.21c-.53,0-1.06,0-1.58,0-.25,0-.16-.09-.09-.2a2.26,2.26,0,0,1,.62-.82.12.12,0,0,1,.18,0A3.91,3.91,0,0,1,12,10.21Z" fill="#071321"/>
      <path d="M10.22,9.74a2,2,0,0,1,.14-1c.1,0,0-.3.2-.21l0,0c.12.18.36.29.39.49s-.25.34-.36.51a1.56,1.56,0,0,1-.39.42C10.1,9.92,10.24,9.83,10.22,9.74Z" fill="#3c4550"/>
      <path d="M10.23,10c.18-.23.36-.47.56-.68s.2-.31,0-.47a.46.46,0,0,1-.22-.29h.07c.43.46.85.92,1.29,1.37.08.08.14.22.29.21-.06.08-.14,0-.22.06a9.09,9.09,0,0,0-.82-.93c-.11-.12-.16-.07-.23,0l-.62.71Z" fill="#bec1c5"/>
      <path d="M10.08,10.55l-.34,1.17c-.15-.12,0-.25,0-.36a3.79,3.79,0,0,1,.26-.87Z" fill="#bec1c5"/>
      <path d="M11.52,13.23a2.88,2.88,0,0,1,.76-.53v.08A2.25,2.25,0,0,1,11.52,13.23Z" fill="#b8bcc0"/>
      <path d="M8.51,15.76l-.13-.13.81-2.07c.09.09.09-.07.15-.05a.23.23,0,0,1,0,.24.41.41,0,0,1-.05.09,5.23,5.23,0,0,0-.48,1.08c-.06.13-.11.27-.17.42.18-.13.28-.34.52-.38a.21.21,0,0,1,.16.11.25.25,0,0,1-.07.28.38.38,0,0,0-.36.15C8.81,15.62,8.73,15.8,8.51,15.76Z" fill="#c0c3c6"/>
      <path d="M9.32,13.78l0-.27h.13l.49.06a.46.46,0,0,0,.41.07c.18.09.33.18.05.34h0c-.31.25-.59.52-.91.75-.07,0-.12.14-.22,0A1.43,1.43,0,0,1,9.32,13.78Z" fill="#071322"/>
      <path d="M10,13.57a.53.53,0,0,1-.49-.06v-.07C9.63,13.49,9.82,13.46,10,13.57Z" fill="#abafb4"/>
      <path d="M12.09,16.13c-.6.46-1.22.89-1.85,1.3a.07.07,0,0,1,0-.07.28.28,0,0,1,.13-.2c.48-.35,1-.69,1.47-1a.34.34,0,0,1,.22-.07A.12.12,0,0,1,12.09,16.13Z" fill="#b9bcc0"/>
      <path d="M10.24,17.43,8.72,18.51c-.12-.05-.15-.13-.05-.23a8,8,0,0,0,1-.65c.17-.11.3-.29.54-.25Z" fill="#b6b9bd"/>
      <path d="M8.7,18.3c-.09.08,0,.14,0,.21a.06.06,0,0,0,0,.06v.09H8.57a.52.52,0,0,1-.49-.09c0-.15.14-.09.23-.08s.23.05.13-.13,0-.06,0-.09,0-.22.13-.25a.13.13,0,0,0,.13.05.18.18,0,0,1,0,.07A.13.13,0,0,1,8.7,18.3Z" fill="#d2d5d7"/>
      <path d="M13.26,15.31a10.66,10.66,0,0,1-1.17.82l0-.05c.16-.39.57-.49.85-.73a.3.3,0,0,1,.31-.09Z" fill="#b9bcc0"/>
      <path d="M9.74,11.8a3,3,0,0,1-.21.66A.69.69,0,0,1,9.74,11.8Z" fill="#cfd1d4"/>
      <path d="M10.42,14c.17-.14,0-.24-.05-.34.22.06.3,0,.23-.24a.75.75,0,0,1,0-.57,6.26,6.26,0,0,1,.18.8c.3-.07.48-.36.79-.4A6.36,6.36,0,0,1,10.42,14Z" fill="#bfc2c5"/>
      <path d="M10.22,10.84a3.33,3.33,0,0,1,.14,1.09A2.69,2.69,0,0,1,10.22,10.84Z" fill="#ced1d3"/>
      <path d="M8.65,18.09c-.08,0-.06,0-.07-.07a6.58,6.58,0,0,0-.14-.75c0-.32-.07-.64-.08-1s0-.4.15-.55l.64-.6c.1,0,0,.19.11.2s0,.27,0,.4a2.37,2.37,0,0,0-.21,1,.4.4,0,0,1,0,.15,5.34,5.34,0,0,0-.2.88A.53.53,0,0,1,8.65,18.09Z" fill="#081423"/>
      <path d="M8.45,18.27v.09a3.8,3.8,0,0,1-.55-.82A2.34,2.34,0,0,1,8.45,18.27Z" fill="#c4c7ca"/>
      <path d="M8.36,16.31a2.84,2.84,0,0,1,.08,1l-.13-1Z" fill="#e5e6e8"/>
      <path d="M8.31,18.49l-.21.07c-.15.14-.3.16-.43,0l.21-.07A.78.78,0,0,1,8.31,18.49Z" fill="#8e939a"/>
      <path d="M7.67,18.52a.8.8,0,0,0,.43,0c.16.05.34-.07.47.1V19a2.07,2.07,0,0,0-.21.88v.07a7.31,7.31,0,0,0-.3,1.29,1.12,1.12,0,0,1-.12.35s-.06.11-.13.12l-.06-.12a4.87,4.87,0,0,1-.07-.75v-.07a1.64,1.64,0,0,1-.14-.82l-.21-1a.07.07,0,0,0,.06-.1C7.28,18.53,7.43,18.48,7.67,18.52Z" fill="#081423"/>
      <path d="M7.55,19.94l.14.82A.82.82,0,0,1,7.55,19.94Z" fill="#e7e8e9"/>
      <path d="M7.69,20.83a1.36,1.36,0,0,1,.07.75C7.74,21.33,7.52,21.09,7.69,20.83Z" fill="#e3e4e6"/>
      <path d="M8,21.58c.1-.48.19-1,.28-1.43,0-.09,0-.2.14-.21L8,21.72Z" fill="#c4c6ca"/>
      <path d="M8.37,19.87A1,1,0,0,1,8.58,19Z" fill="#cacdd0"/>
      <path d="M9,16.86v-.14a3.1,3.1,0,0,1,.2-.95l.07-.41.06-.29c-.06-.16,0-.18.17-.21h.26a.88.88,0,0,1,.48-.07,6.67,6.67,0,0,1,.88-.13,1.36,1.36,0,0,1,.49-.08c.31-.07.63-.09.94-.16s.56-.08.84-.11a6.94,6.94,0,0,1,1-.13l.26,0-1.45,1a11.58,11.58,0,0,0-1.16.82c-.64.41-1.25.85-1.85,1.3l-1.26.86c-.06,0-.12.21-.24.06v-.21A5.22,5.22,0,0,1,9,16.86Z" fill="#061221"/>
      <path d="M9.75,14.87a.25.25,0,0,1-.22.06c-.06,0-.12-.06-.14-.13a6.36,6.36,0,0,1,1-.82c-.21.33-.59.5-.85.79C9.6,14.86,9.74,14.77,9.75,14.87Z" fill="#bfc2c5"/>
      <path d="M12.55,14.45a3.83,3.83,0,0,1-1,.14,2.59,2.59,0,0,1,1-.18Z" fill="#e7e8e9"/>
      <path d="M11.11,14.67a3.67,3.67,0,0,1-.88.13A1.49,1.49,0,0,1,11.11,14.67Z" fill="#e7e8e9"/>
      <path d="M12.55,14.45v0a1.94,1.94,0,0,1,.83-.09A2.93,2.93,0,0,1,12.55,14.45Z" fill="#e7e8e9"/>
      <path d="M9.18,15l-.64.59a9,9,0,0,1,.72-1.82,7.74,7.74,0,0,1,0,1.08C9.31,14.93,9.25,15,9.18,15Z" fill="#3b444f"/>
      <path d="M9.18,15c.17-.27,0-.55.07-.83a2.67,2.67,0,0,0,0-.4h.06c.06.34-.06.69.07,1l.14.13c-.09,0-.21,0-.21.14Z" fill="#ededef"/>
      <path d="M9,16.86a12.22,12.22,0,0,1-.28,1.23H8.65c.06-.34.13-.67.2-1C8.87,17,8.83,16.86,9,16.86Z" fill="#c8cbce"/>
      <path d="M9.19,15.77l-.2.95A1.27,1.27,0,0,1,9.19,15.77Z" fill="#cacdd0"/>
    </symbol>
  </defs>
  <rect id="Figment_lido" x="-1.22" y="-1.06" width="252.5" height="252.5" transform="translate(-0.16 250.22) rotate(-90)" fill="#eaeaea"/>
  <use width="22.21" height="25.21" transform="translate(39.98 28.49) scale(7.66)" xlink:href="#Avado"/>
</svg>
