<svg id="Capa_1" data-name="Capa 1" xmlns="http://www.w3.org/2000/svg" xmlns:xlink="http://www.w3.org/1999/xlink" width="250" height="250" viewBox="0 0 250 250">
  <defs>
    <symbol id="Binance_2" data-name="Binance 2" viewBox="0 0 22.81 22.82">
      <g>
        <path d="M7,13.24l4.44,4.43,4.43-4.43,2.58,2.58-7,7-7-7Z" fill="#f3ba2f"/>
        <path d="M4.41,7l7-7,7,7L15.84,9.57,11.42,5.14,7,9.57Z" fill="#f3ba2f"/>
        <path d="M8.81,11.4l2.6-2.59,2.6,2.6L11.41,14Z" fill="#f3ba2f"/>
        <path d="M0,11.41,2.55,8.85l2.56,2.56L2.56,14Z" fill="#f3ba2f"/>
        <path d="M17.7,11.4l2.55-2.55,2.56,2.56L20.26,14Z" fill="#f3ba2f"/>
      </g>
    </symbol>
  </defs>
  <rect id="Figment_lido" x="-1.22" y="-1.06" width="252.5" height="252.5" transform="translate(-0.16 250.22) rotate(-90)" fill="#fff"/>
  <use width="22.81" height="22.82" transform="translate(35.36 35.33) scale(7.86)" xlink:href="#Binance_2"/>
</svg>
