<svg id="Capa_1" data-name="Capa 1" xmlns="http://www.w3.org/2000/svg" xmlns:xlink="http://www.w3.org/1999/xlink" width="250" height="250" viewBox="0 0 250 250">
  <defs>
    <symbol id="Bitcoin_Suisse" data-name="Bitcoin Suisse" viewBox="0 0 20.7 22.82">
      <path d="M8.09,1.83s.1,0,.15,0H11a.28.28,0,0,0,.12,0,.36.36,0,0,1,.18,0c.7,0,1.4,0,2.1,0a.57.57,0,0,1,.18,0,.87.87,0,0,0,.32,0h3.39a.7.7,0,0,1,.29,0A3.11,3.11,0,0,1,19.72,3a3.92,3.92,0,0,1,.79,1.82,2,2,0,0,1,0,.26,2,2,0,0,1,.13,1.06,4.83,4.83,0,0,1-.17,1.13A4.19,4.19,0,0,1,20,8.45a3.09,3.09,0,0,1-.78.87,2.88,2.88,0,0,1-1.67.58l-.1,0c-1.37,0-2.74,0-4.11,0-.71,0-1.43,0-2.14,0a.15.15,0,0,1-.09,0,2,2,0,0,1-.06-.73c0-.16,0-.33,0-.49,0-.64,0-1.28,0-1.91a.83.83,0,0,1,0-.35.08.08,0,0,1,.07-.05c.12.08.09.2.1.31s0,.24,0,.35a.76.76,0,0,1,0,.24,11.53,11.53,0,0,1,2.35,0c.06,0,.09.1.17.1,1.09,0,2.18,0,3.27,0a1,1,0,0,0,1-.55,1.41,1.41,0,0,0,.18-.57,1.7,1.7,0,0,0,0-.71,1.5,1.5,0,0,0-.2-.57,1.05,1.05,0,0,0-1-.5H14c-.14,0-.29,0-.41-.08s0-.06,0-.07h.21c-.08,0-.17,0-.25,0a.28.28,0,0,1-.2.06c-.74,0-1.49,0-2.24,0h0a25.69,25.69,0,0,0-3,0c-.75,0-1.5,0-2.24,0a.29.29,0,0,1-.2-.05c-.08-.09-.19,0-.28,0H2.84c-.08,0-.17,0-.21,0,1,0,2,0,3,0a0,0,0,0,1,0,.08.64.64,0,0,1-.38.08H3a.88.88,0,0,0-.36,0,.23.23,0,0,0-.09.21V7.12a.28.28,0,0,0,0,.15l.09,0H5.46a.16.16,0,0,0,.15-.1c.17-.18.39-.11.6-.11.56,0,1.11.05,1.66,0,.21,0,.07-.17.11-.26s0-.19,0-.29,0-.19,0-.28,0-.19.15-.12a.67.67,0,0,1,0,.34c0,.7,0,1.39,0,2.09a5,5,0,0,1,0,1.22A.14.14,0,0,1,8,9.88c-1.11,0-2.23,0-3.34,0H.57c-.13,0-.27,0-.38-.06a.29.29,0,0,1,0-.18V2.22a.42.42,0,0,0,0-.16V9.75a.18.18,0,0,1,0,.1.06.06,0,0,1-.09,0,.47.47,0,0,1,0-.26C0,7.19,0,4.81,0,2.44c.09-.18,0-.38.08-.56h0c.09-.07.19,0,.29,0H5.3a.87.87,0,0,0,.32,0A12.71,12.71,0,0,1,7,1.81q.5,0,1,0Z" fill="#ce112b"/>
      <path d="M11.17,13c2.05,0,4.11,0,6.16,0a3.05,3.05,0,0,1,3,2.26c0,.1.07.2.1.3s.1.31.16.47a.51.51,0,0,1,0,.13,1.5,1.5,0,0,0,0,.42.59.59,0,0,1,0,.13,6.4,6.4,0,0,1-.07,1.16c-.06.18,0,.38-.1.56A5.23,5.23,0,0,1,20,19.53a3.63,3.63,0,0,1-.79.87,2.64,2.64,0,0,1-1.51.56c-.41-.06-.82,0-1.23-.05a.23.23,0,0,1-.14-.24c0-.6-.05-1.2,0-1.8,0-.14,0-.3.11-.4a7.52,7.52,0,0,1,.82,0,1,1,0,0,0,.76-.6,1.59,1.59,0,0,0,.12-.27,1.06,1.06,0,0,0,0-.19.19.19,0,0,1,0-.07,2.58,2.58,0,0,0,0-.68,2,2,0,0,0-.06-.26,1.25,1.25,0,0,0-.27-.54,2.46,2.46,0,0,0-.44-.34.8.8,0,0,0-.34,0H14c-.11,0-.24,0-.33.07a2.58,2.58,0,0,0,0,.62c0,.67,0,1.35,0,2a1.16,1.16,0,0,0,0,.37,22.07,22.07,0,0,1,0,2.44,10.87,10.87,0,0,0,0,1.4.71.71,0,0,1-.06.38.51.51,0,0,1-.36.07h-2a.12.12,0,0,1-.09,0,1.22,1.22,0,0,1-.05-.6c0-.25,0-.51,0-.76s0-.31,0-.46c0-.82,0-1.63,0-2.45-.06-1.48,0-3,0-4.45A6.82,6.82,0,0,1,11.17,13Z" fill="#ce112b"/>
      <path d="M8.11,18.4v.06a.73.73,0,0,1,.05.09c0,.8,0,1.6,0,2.4,0,.16,0,.33,0,.49s0,.36,0,.54,0,.44,0,.67a.21.21,0,0,1-.05.13.07.07,0,0,1-.09,0,.34.34,0,0,1,0-.1v-.21a.49.49,0,0,1,0,.29.47.47,0,0,1-.26,0H5.89a.36.36,0,0,1-.25-.06c-.09-.1-.07-.21-.07-.33V21c0-.81,0-1.63,0-2.44v-.1c0-.92,0-1.83,0-2.75,0-.13-.05-.21-.19-.2-.91,0-1.83,0-2.74,0-.09.06-.08.16-.08.24,0,.87,0,1.74,0,2.61l.05.05s.12.05.17.09a.35.35,0,0,1,.1.39,2.28,2.28,0,0,0,0,.64,7.87,7.87,0,0,1,0,1.19c0,.08,0,.16-.12.19-.7.06-1.4,0-2.1,0a1.2,1.2,0,0,0-.5,0,.12.12,0,0,1-.1,0,.44.44,0,0,1,0-.15c0-2.38,0-4.75,0-7.13a1.23,1.23,0,0,1,0-.19c.09-.17,0-.37.08-.55h8a4.55,4.55,0,0,1,.09,1c0,1.37,0,2.73,0,4.1A.56.56,0,0,1,8.11,18.4Z" fill="#ce112b"/>
      <path d="M13.62,1.87H11.36a.84.84,0,0,1-.2,0l0-.06a.29.29,0,0,1,0-.16c0-.14,0-.29.06-.42s.1.06.13.11.1.13.2.13h1.53c.19,0,.42-.07.59.12A1.83,1.83,0,0,1,13.62,1.87Z" fill="#850c1d"/>
      <path d="M8.09,1.83h0l0,0a1.65,1.65,0,0,1,0-.54C8,1.17,8,1.08,8,1A.86.86,0,0,1,8,.83S8,.77,8,.74A6.52,6.52,0,0,1,6.48.81a3.11,3.11,0,0,1-.61,0c-.11,0-.21,0-.24-.16a.26.26,0,0,1,0-.15,8.94,8.94,0,0,0,1,0A5.56,5.56,0,0,0,8,.41c.06-.11,0-.25.1-.34.1.15,0,.32,0,.47a6.32,6.32,0,0,1,0,1.23Z" fill="#ab0e24"/>
      <path d="M5.65.12V0H7.8C7.89,0,8,0,8.05.07S8.1.36,8,.49A.27.27,0,0,1,7.92.32C7.86.16,7.71.2,7.6.2,7.06.19,6.51.2,6,.2A.46.46,0,0,1,5.65.12Z" fill="#ba051e"/>
      <path d="M13.6,0v0a.4.4,0,0,1-.33.08H11.56c-.19,0-.29.06-.28.26V.85a1.09,1.09,0,0,1,0,.18.23.23,0,0,1-.06.16c0,.14,0,.29-.05.42a3.42,3.42,0,0,1,0-1c0-.19-.09-.45.07-.55s.37,0,.57,0Z" fill="#b20f25"/>
      <path d="M5.64,7.23V6.8c.12-.14.29-.12.45-.11.57,0,1.14,0,1.72,0,.17,0,.21.07.24.2v.33a2.54,2.54,0,0,0-.82,0c-.46,0-.92,0-1.37,0A.48.48,0,0,0,5.64,7.23Z" fill="#c61029"/>
      <path d="M13.61,6.48v.43s0,.06-.06,0c-.66-.09-1.32.09-2,0-.13,0-.24,0-.36,0V6.64a.3.3,0,0,1,.35-.22c.67.06,1.34,0,2,0Z" fill="#c01028"/>
      <path d="M11.21,7c.07-.11.17-.1.31-.1a11.62,11.62,0,0,0,1.56,0,2.44,2.44,0,0,1,.53,0v.32a1,1,0,0,1-.46,0,2.18,2.18,0,0,0-.72,0,.29.29,0,0,1-.13,0,4.1,4.1,0,0,0-.86,0c-.1,0-.14.08-.23.11Z" fill="#c9112a"/>
      <path d="M13.61,6.48a1.08,1.08,0,0,1-.62.07,1.75,1.75,0,0,0-.82,0,1,1,0,0,1-.52,0,.39.39,0,0,0-.45.13V6.28c0-.16.12-.19.25-.17.32,0,.64,0,1,0s.79,0,1.19,0Z" fill="#b60f26"/>
      <path d="M8.05,6.91c-.09-.24-.32-.13-.44-.13a18.47,18.47,0,0,0-2,0V6.53c.11-.22.32-.17.49-.15a10.28,10.28,0,0,0,1.24,0c.14,0,.28,0,.42,0s.23.07.26.22Z" fill="#bd0f27"/>
      <path d="M8.09,5.46v.7c-.05,0,0,.1,0,.16a3.93,3.93,0,0,0-1-.06,3.31,3.31,0,0,1-.89,0c-.19,0-.37.09-.55,0V6c.07-.12.19-.12.3-.13.58,0,1.15,0,1.73,0,.1,0,.23.07.32-.06A.81.81,0,0,1,8,5.6a.27.27,0,0,1,0-.12l0,0Z" fill="#ac0e24"/>
      <path d="M5.64,6.27a2.37,2.37,0,0,1,.7-.06c.28,0,.56,0,.84,0s.62-.14.87.13v.27c-.13-.28-.41-.17-.57-.14a7.66,7.66,0,0,0-1.07,0c-.14,0-.31,0-.48,0a.62.62,0,0,0-.29.09Z" fill="#b50f26"/>
      <path d="M8.05,9.85l-.21,0H.34l-.21,0v0s0,0,0,0H7.75C7.85,9.8,8,9.76,8.05,9.85Z" fill="#ba0821"/>
      <path d="M.19,9.79h0V2h0Z" fill="#cb0923"/>
      <path d="M17.57,9.83l-2.09,0-4.27,0c.07-.06.15,0,.23,0,2,0,3.93,0,5.89,0A.4.4,0,0,1,17.57,9.83Z" fill="#ba0821"/>
      <path d="M11.15,4.34h-3s0,0,0,0v0c.06-.08.15-.06.22-.06h2.61c.08,0,.16,0,.22.06s0,0,0,0Z" fill="#c50b25"/>
      <path d="M17.35,7.48H13.68v0h3.67Z" fill="#cd0a24"/>
      <path d="M13.61,4.29c.05-.07.13-.06.2-.06h3.41s.05,0,.07.06Z" fill="#c40b24"/>
      <path d="M11.15,4.34v0h2.46l0,.06h0a.56.56,0,0,1-.36.07H11.71c-.41,0-.41,0-.43.42V5a.23.23,0,0,1,0,.14s0,0-.08,0Z" fill="#940d20"/>
      <path d="M5.64,4.29h-3c0-.08.09,0,.13,0H5.42c.08,0,.16,0,.22.06Z" fill="#c30a24"/>
      <path d="M8.1,4.29a.09.09,0,0,0,0,0l0,.59H8l0,0c-.1-.47-.1-.47-.59-.47H6a.56.56,0,0,1-.36-.07h0l0-.06H8.1Z" fill="#970d21"/>
      <path d="M2.55,4.34V7.39c-.09-.06-.06-.15-.06-.22V4.56C2.49,4.48,2.46,4.39,2.55,4.34Z" fill="#cd0b26"/>
      <path d="M2.61,7.45H5.52v0H2.6Z" fill="#cd0924"/>
      <path d="M5.62,1.87a.05.05,0,0,1,0,0,.41.41,0,0,1,.3-.09H7.75a.43.43,0,0,1,.3.09h0c-.05.06-.11,0-.17,0Z" fill="#ab0e24"/>
      <path d="M11.16,5.15h0a.21.21,0,0,1,.07.16,1.7,1.7,0,0,1,0,.22c0,.11,0,.21,0,.31a1.77,1.77,0,0,1,0,.23c0,.08,0,.17-.07.26h0Z" fill="#b60f26"/>
      <path d="M13.83,21l-.11,0h0l0,0V18.51a3.08,3.08,0,0,1,.53,0c.11,0,.08.07,0,.12a.39.39,0,0,0-.1.46,1.19,1.19,0,0,1,0,.42c0,.37,0,.74,0,1.11,0,.2.1.21.25.2h.25a.36.36,0,0,1,.25.06.06.06,0,0,1,0,.08,2.26,2.26,0,0,1-.37,0A4.42,4.42,0,0,0,13.83,21Z" fill="#820b1c"/>
      <path d="M14.47,20.92h.37c.15-.13.34,0,.5-.09s.09-.3.09-.46c0-.44,0-.89,0-1.33,0-.18,0-.38.11-.53a.65.65,0,0,1,.24,0,1.72,1.72,0,0,1,.07.87,7.23,7.23,0,0,1,0,1.14c0,.17.05.33.28.29a.45.45,0,0,1,.32.07,10,10,0,0,1,1.34,0,6.66,6.66,0,0,1-1.41.06h-1.9Z" fill="#b81027"/>
      <path d="M11.15,21h-.48l-.12,0a.09.09,0,0,1,0-.07l.06,0c.14,0,.13-.13.13-.23,0-.59,0-1.19,0-1.78,0-.11-.11-.18-.09-.29l.48,0Z" fill="#840b1d"/>
      <path d="M16.44,20.86h-.37A3.41,3.41,0,0,1,16,20c0-.4,0-.79,0-1.18,0-.14,0-.27.18-.3s.17,0,.23,0c0,.48-.05,1,0,1.45C16.44,20.27,16.41,20.57,16.44,20.86Z" fill="#c71029"/>
      <path d="M8.53,21H8.1V18.49l.47,0c0,.26,0,.53,0,.79s0,.82,0,1.24c0,.13,0,.25.16.3a.11.11,0,0,1,0,.07C8.69,21,8.6,20.92,8.53,21Z" fill="#840c1d"/>
      <path d="M2.81,20.86a10.43,10.43,0,0,0,0-1.25,2.13,2.13,0,0,1,0-.87c0-.1-.11-.13-.1-.23a.24.24,0,0,1,.29,0c.23.18.15.45.15.67a2.78,2.78,0,0,0,0,.5c.06.38-.05.76,0,1.14a.11.11,0,0,1-.05.11A.29.29,0,0,1,2.81,20.86Z" fill="#c8102a"/>
      <path d="M2.81,20.86h.42s.11,0,.12.08S3.3,21,3.26,21c-.65.06-1.31,0-2,0A2.79,2.79,0,0,1,.3,21L.13,21c0-.14.16-.09.25-.09Z" fill="#c11129"/>
      <path d="M2.56,15.41l0,3.05c-.1,0,0-.1,0-.14V15.65C2.49,15.57,2.45,15.47,2.56,15.41Z" fill="#cd0b26"/>
      <path d="M5.64,21h-.1A.66.66,0,0,1,5,21a.06.06,0,0,1,0-.09.41.41,0,0,1,.28-.06c.21,0,.28-.1.28-.29,0-.54,0-1.07,0-1.6a1.51,1.51,0,0,1,0-.37l.06-.08a.24.24,0,0,1,0,.2Z" fill="#8c0c1f"/>
      <path d="M8.05,22.78c-.78,0-1.56,0-2.33,0,0,0-.07,0-.07-.06H8a0,0,0,0,1,0,0Z" fill="#b8132a"/>
      <path d="M8,22.73H8V21H8Z" fill="#cd0924"/>
      <path d="M9.49,18.51h.27c.3.06.29.06.3.4,0,.58,0,1.16,0,1.74,0,.1,0,.2-.08.25a3.21,3.21,0,0,1-.62,0c-.16-.11-.1-.3-.1-.44,0-.54,0-1.09,0-1.64A.29.29,0,0,1,9.49,18.51Z" fill="#aa0e24"/>
      <path d="M8.74,20.86c-.35.07-.24-.23-.24-.36a1.42,1.42,0,0,0,0-.41.43.43,0,0,0,0-.05,6.11,6.11,0,0,0,0-1.28.73.73,0,0,1,.08-.25,1,1,0,0,1,.43,0s0,.07,0,.1-.09.16-.09.25c0,.62,0,1.23,0,1.84,0,.06,0,.11-.06.15Z" fill="#8f0c1f"/>
      <path d="M10.67,18.51a.27.27,0,0,1,.16.26c0,.67,0,1.34,0,2,0,.16-.18,0-.27.08a.47.47,0,0,1-.05-.31c0-.46,0-.92,0-1.39a4.7,4.7,0,0,0,0-.65Z" fill="#8e0c1e"/>
      <path d="M10.51,18.51c.05.06.12.12.1.22a12.51,12.51,0,0,0,0,1.62,1.73,1.73,0,0,1,0,.51h0a.14.14,0,0,1-.16,0,.56.56,0,0,1-.1-.38c0-.61,0-1.22,0-1.84a.25.25,0,0,1,0-.15Z" fill="#970c20"/>
      <path d="M9.49,18.51c-.28.22-.16.55-.13.81s0,.4,0,.6a5.72,5.72,0,0,0,0,.71.68.68,0,0,1-.05.23.14.14,0,0,1-.19,0,3,3,0,0,1-.07-1c0-.36,0-.72,0-1.07,0-.15,0-.27.17-.31Z" fill="#a30d22"/>
      <path d="M10,20.86c-.06-.37,0-.76,0-1.13a6.3,6.3,0,0,1,0-1c0-.21-.17-.17-.24-.25a.58.58,0,0,1,.32,0c.27.1.21.36.19.53a7.86,7.86,0,0,1,0,1.19c0,.21.11.42,0,.63a.18.18,0,0,1-.07.05A.18.18,0,0,1,10,20.86Z" fill="#a30d22"/>
      <path d="M9.23,18.51c-.05.06-.14.1-.11.2.09.26-.07.54,0,.81a.82.82,0,0,1,0,.44c0,.3.12.6,0,.9l0,0a.12.12,0,0,1-.15,0,1.9,1.9,0,0,1,0-.58c0-.45,0-.9,0-1.35A.47.47,0,0,1,9,18.56l0,0Z" fill="#9e0d22"/>
      <path d="M10.24,20.86a13.52,13.52,0,0,1,0-1.8c0-.18,0-.41-.14-.55h.21a2.68,2.68,0,0,1,.07.8c0,.52,0,1,0,1.55A.1.1,0,0,1,10.24,20.86Z" fill="#9e0d22"/>
      <path d="M13.61,1.29v.22a4.9,4.9,0,0,0-1,0,11.2,11.2,0,0,0-1.16,0c-.12,0-.2,0-.18-.15s.31-.11.46-.1c.36,0,.72,0,1.08,0a2.57,2.57,0,0,0,.68,0C13.54,1.2,13.58,1.24,13.61,1.29Z" fill="#8b0c1e"/>
      <path d="M13.61,1.29h-.84c-.47,0-.94.06-1.41,0a.18.18,0,0,0-.1,0c0-.06,0-.12,0-.16V1c.71.05,1.42,0,2.14,0,.09,0,.2,0,.26.07Z" fill="#930c20"/>
      <path d="M8.05,1.83H5.64V1.45a.15.15,0,0,1,.14-.06c.54.09,1.08,0,1.61,0,.15,0,.3,0,.45,0s.09,0,.11-.1A.09.09,0,0,1,8,1.24Z" fill="#850c1d"/>
      <path d="M8,.33V.49c-.27.07-.59,0-.8,0C6.78.63,6.38.44,6,.58A.33.33,0,0,1,5.65.49V.28c0-.06.06-.07.13-.07A6.44,6.44,0,0,0,7.3.21,1.59,1.59,0,0,1,8,.33Z" fill="#b40f26"/>
      <path d="M8,1.24l0,.05a.32.32,0,0,1-.28.07c-.55-.05-1.09,0-1.64,0a.51.51,0,0,1-.44-.12V1.08c.08-.1.19-.08.3-.07.61.05,1.22,0,1.83,0,.1,0,.17-.08.27-.06Z" fill="#940d20"/>
      <path d="M8,1a.27.27,0,0,1-.33.14c-.65-.08-1.31,0-2-.06l-.11,0V.81c.8,0,1.6,0,2.4,0Z" fill="#9b0d21"/>
      <path d="M8,.82c-.07.11-.19.1-.3.1H5.84c-.09,0-.14-.06-.2-.11V.65c.11.14.26.11.39.1.58,0,1.16,0,1.74,0a.25.25,0,0,0,.15,0C8.08.61,8.05.73,8,.82Z" fill="#a30e23"/>
      <path d="M8,.33A1.16,1.16,0,0,1,7.39.26a.09.09,0,0,0-.07,0c-.46.21-.94,0-1.41.07-.1,0-.16-.12-.26,0V.12H7.76C7.92.11,8,.15,8,.33Z" fill="#ba1027"/>
      <path d="M5.64,1.24a5.17,5.17,0,0,0,1.18,0A11.7,11.7,0,0,1,8,1.29c0,.13,0,.23-.19.18a3,3,0,0,0-.6,0,12.39,12.39,0,0,1-1.49,0H5.64Z" fill="#8d0c1e"/>
      <path d="M13.6.38V.6a.67.67,0,0,1-.39.08,13.19,13.19,0,0,0-1.54,0c-.14,0-.43.09-.45-.22a.49.49,0,0,1,0-.12,1.06,1.06,0,0,1,.53-.06,3.48,3.48,0,0,0,.79,0,3.63,3.63,0,0,1,.93,0A.12.12,0,0,1,13.6.38Z" fill="#b20f25"/>
      <path d="M13.6.38a2.91,2.91,0,0,0-1.14,0,1.11,1.11,0,0,1-.48,0c-.24,0-.48,0-.72,0,0-.1-.09-.24.09-.23.75,0,1.5,0,2.26,0Z" fill="#ba1027"/>
      <path d="M11.26.44c.07.21.3.18.42.17a8.66,8.66,0,0,1,1.44,0c.16,0,.32-.07.49,0V.76a.2.2,0,0,1-.2.11,9.14,9.14,0,0,1-1.17,0,3.47,3.47,0,0,0-.72,0,.25.25,0,0,1-.31-.22V.44S11.24.41,11.26.44Z" fill="#a80e24"/>
      <path d="M13.61,1.13c-.7,0-1.4,0-2.09,0-.12,0-.24,0-.31-.1V.87c.69,0,1.39,0,2.09,0,.1,0,.24,0,.31.1Z" fill="#9b0d21"/>
      <path d="M13.61,1a2.28,2.28,0,0,0-1,0c-.12.05-.25,0-.36,0-.33-.06-.68.12-1-.07V.65c.09.16.22.14.38.13.46,0,.91,0,1.37,0a2,2,0,0,0,.65-.05Z" fill="#a20e22"/>
      <path d="M11.26.44h0c0-.38,0-.38.37-.38h2V.12H11.49c-.16,0-.26,0-.23.22Z" fill="#ba051e"/>
      <path d="M5.63,4.35H7.84c.16,0,.22,0,.21.22s0,.24,0,.37A1.85,1.85,0,0,0,6.9,4.76a5.33,5.33,0,0,0-1.26.12Z" fill="#830c1d"/>
      <path d="M5.64,4.88a.68.68,0,0,1,.62-.14c.13,0,.23,0,.34,0,.4,0,.8,0,1.2,0,.19,0,.18.14.25.22h0a.26.26,0,0,1,0,.21,9.45,9.45,0,0,0-2.19-.06c-.08,0-.16,0-.23,0Z" fill="#880c1e"/>
      <path d="M5.64,5A8.27,8.27,0,0,1,7.69,5c.13,0,.29-.1.36.11a.44.44,0,0,1,0,.32h0c-.27-.22-.59-.12-.88-.15s-.8,0-1.19,0c-.12,0-.22.07-.34.05Z" fill="#8f0c1f"/>
      <path d="M5.64,5.36a1,1,0,0,1,.5-.11h.77c.31,0,.61,0,.91,0s.16.11.23.18v.11a.31.31,0,0,1-.21,0c-.63,0-1.26,0-1.89,0-.11,0-.2.06-.31,0Z" fill="#970d21"/>
      <path d="M8.05,5.84C8,6,8,6,7.7,6A15.22,15.22,0,0,0,5.79,6a.44.44,0,0,0-.15,0V5.84c.06-.11.11-.2.27-.21.61,0,1.22,0,1.83,0C7.87,5.66,8,5.66,8.05,5.84Z" fill="#a50e23"/>
      <path d="M8.05,5.84c-.2-.21-.47-.12-.7-.13-.49,0-1,0-1.48,0-.14,0-.13.13-.23.14V5.62A.33.33,0,0,1,6,5.5c.46,0,.93,0,1.4,0a1.86,1.86,0,0,1,.7.07Z" fill="#9e0d22"/>
      <path d="M11.21,5c0-.69,0-.69.68-.69h1.73v.53a3,3,0,0,1-1.07,0,7.08,7.08,0,0,1-1,0C11.37,4.88,11.33,5,11.21,5Z" fill="#840b1d"/>
      <path d="M11.21,5c.08-.19.21-.21.41-.19.36,0,.72,0,1.07,0a4.69,4.69,0,0,1,.92,0v.26c-.19.16-.41.07-.61.07a10,10,0,0,1-1.45,0c-.14,0-.22.12-.35.1V5Z" fill="#8c0c1e"/>
      <path d="M11.2,6.32V6.05a.26.26,0,0,1,.26-.21c.63,0,1.26,0,1.89,0a.33.33,0,0,1,.25.08v.22a.44.44,0,0,1-.32.07,4.13,4.13,0,0,0-1.11,0c-.24,0-.46-.06-.69,0A.31.31,0,0,0,11.2,6.32Z" fill="#ad0e24"/>
      <path d="M11.21,5.84V5.52c0-.1.05-.22.19-.21a20,20,0,0,1,2.19.09h0v.21c-.21.21-.47.13-.71.12-.48,0-1,0-1.44,0C11.35,5.73,11.31,5.85,11.21,5.84Z" fill="#9b0d21"/>
      <path d="M13.61,5.41a9.2,9.2,0,0,0-1,0,8.63,8.63,0,0,1-1.14,0,.25.25,0,0,0-.22.16V5.3a.42.42,0,0,1,.43-.17,8.8,8.8,0,0,0,1.54,0c.15,0,.29.07.44,0Z" fill="#940d20"/>
      <path d="M11.21,5.84a.26.26,0,0,1,.31-.18c.38,0,.78,0,1.17,0a3.16,3.16,0,0,0,.92,0v.32a16.84,16.84,0,0,0-1.88,0c-.18,0-.39-.09-.52.12Z" fill="#a40e23"/>
      <path d="M8.05,5.46V4.93h0v.53Z" fill="#a50e23"/>
      <path d="M14.47,20.92v0h-.64A1.72,1.72,0,0,1,14.47,20.92Z" fill="#980e21"/>
      <path d="M10,20.86h.16c.12.07.25,0,.37.05l.11.05H8.53c.07-.07.14,0,.21-.05s.26,0,.38-.05H10Z" fill="#9e0d22"/>
      <path d="M14.25,18.51h.16c0,.3-.09.6,0,.91a5.92,5.92,0,0,1,0,1.19.31.31,0,0,1-.07.24c-.27.05-.31-.05-.29-.31a12.74,12.74,0,0,1,.06-1.38c0-.08-.06-.15-.06-.24A.37.37,0,0,1,14.25,18.51Z" fill="#8a0c1e"/>
      <path d="M14.73,18.52H15c0,.41,0,.83-.07,1.25,0,.26.08.52,0,.79a.55.55,0,0,1-.06.28l0,0h-.27a1,1,0,0,1-.08-.51,9,9,0,0,0,0-1.47C14.44,18.66,14.5,18.53,14.73,18.52Z" fill="#980e21"/>
      <path d="M14.73,18.52c-.19.06-.21.18-.19.39s0,.69,0,1-.12.55,0,.8c0,0,0,.08,0,.12h-.26a11.43,11.43,0,0,0,0-1.17,4.31,4.31,0,0,1,0-.88.89.89,0,0,1,.08-.29Z" fill="#900c1f"/>
      <path d="M15.43,20.91h-.59v-.05h0a.41.41,0,0,1,.32-.07C15.26,20.8,15.39,20.75,15.43,20.91Z" fill="#980e21"/>
      <path d="M15.43,20.91c-.08-.08-.18,0-.27-.05a.27.27,0,0,1-.08-.22c.07-.63,0-1.26,0-1.89,0-.12,0-.21.16-.23h.27a4.84,4.84,0,0,0,0,1.14A3.75,3.75,0,0,1,15.43,20.91Z" fill="#ad0e24"/>
      <path d="M15.8,18.52h.38a.22.22,0,0,0-.1.25c.09.24,0,.49,0,.7s0,.47,0,.71a1.73,1.73,0,0,1,0,.68c-.23,0-.39-.17-.31-.41s0-.5,0-.75A9.26,9.26,0,0,1,15.8,18.52Z" fill="#bf1028"/>
      <path d="M10.56,20.91c-.12,0-.26.05-.37-.05h.37Z" fill="#8e0c1e"/>
      <path d="M15.27,18.52c-.19.12-.12.34-.09.47.06.36-.09.7,0,1.05s-.09.54,0,.82h-.32a5.22,5.22,0,0,0,0-1c0-.43.08-.85,0-1.28,0,0,.06-.06.09-.09Z" fill="#a20d22"/>
      <path d="M9.12,20.86c-.11.1-.25,0-.38.05v-.05h0c.08,0,.15-.06.22,0Z" fill="#8f0c1f"/>
      <path d="M3.08,18.51h.21c.14,0,.17.12.16.27,0,.41,0,.82,0,1.22a8.72,8.72,0,0,1,0,.89.43.43,0,0,1-.25,0h0c0-.22-.16-.44,0-.68,0-.09,0-.24,0-.36a4.69,4.69,0,0,1,0-1.06C3.16,18.68,3.05,18.61,3.08,18.51Z" fill="#c11129"/>
      <path d="M3.18,20.86h.27a.4.4,0,0,0,.12-.33,7.55,7.55,0,0,1,0-1c0-.36,0-.72,0-1.07h.16a.27.27,0,0,1,.21.32c-.06.49.06,1,0,1.46a.73.73,0,0,0,0,.29.3.3,0,0,1-.07.27l-.06,0s.14-.06.22,0l0,0v0H3.34Z" fill="#b20f26"/>
      <path d="M5.05,18.51h.54c0,.71,0,1.43,0,2.15,0,.22-.07.28-.27.26s-.25,0-.37,0a.18.18,0,0,1-.16,0,.08.08,0,0,1,0-.08l.08,0a.21.21,0,0,0,.22-.25,10.82,10.82,0,0,1,0-1.8C5.12,18.67,5,18.6,5.05,18.51Z" fill="#840b1d"/>
      <path d="M4.79,20.91H5v0H4.36c-.09,0-.19,0-.27,0h0a.08.08,0,0,1,0-.07.27.27,0,0,1,.11-.05c.12,0,.12-.12.11-.2,0-.59,0-1.19,0-1.78a1.06,1.06,0,0,1,0-.31h.22a.27.27,0,0,1,.21.27c0,.69,0,1.38,0,2.07,0,0-.07,0-.11,0S4.72,20.84,4.79,20.91Z" fill="#9b0d21"/>
      <path d="M5.05,18.51a.29.29,0,0,1,.13.33,7.55,7.55,0,0,0,0,.83c0,.36,0,.71,0,1.07s-.21.08-.32.12a.47.47,0,0,1-.07-.38,9.27,9.27,0,0,0,0-2Z" fill="#8c0c1f"/>
      <path d="M3.61,18.51a1.53,1.53,0,0,1,.05.87c0,.29,0,.57,0,.84a3.38,3.38,0,0,0,0,.45c0,.1,0,.21-.19.19a.53.53,0,0,1-.09-.52c.1-.56-.08-1.12.06-1.68,0-.09-.1-.08-.13-.15Z" fill="#ba0f27"/>
      <path d="M4.73,18.51c.11.08.1.19.11.31,0,.68,0,1.36,0,2h0a.12.12,0,0,1-.16,0,16.19,16.19,0,0,1,0-2,.45.45,0,0,0-.15-.38Z" fill="#940d20"/>
      <path d="M4.25,18.51c.21.13.1.35.12.51.07.51,0,1,0,1.55,0,.09.09.33-.18.29s-.13-.25-.14-.4c0-.55,0-1.09,0-1.64,0-.1-.06-.2,0-.31Z" fill="#a30e22"/>
      <path d="M4,18.51c.17.23.09.5.09.76a7.7,7.7,0,0,0,.07,1.59H4.09a.2.2,0,0,1-.21,0,.53.53,0,0,0,0-.41.2.2,0,0,1,0-.13c.12-.48,0-1,.06-1.45a.38.38,0,0,0-.15-.36Z" fill="#ab0e24"/>
      <path d="M9,20.86H8.74c0-.53.1-1.06,0-1.6,0-.2,0-.41,0-.61s.11-.06.17-.09C9,19.33,9,20.1,9,20.86Z" fill="#980d20"/>
      <path d="M4.09,20.92c.09,0,.19,0,.27,0H4.09Z" fill="#a30e22"/>
      <path d="M3.88,20.86h.21v.06a2.09,2.09,0,0,1-.25,0S3.86,20.87,3.88,20.86Z" fill="#a30e22"/>
      <path d="M4.63,20.86h.16v.05H4.51C4.54,20.84,4.59,20.87,4.63,20.86Z" fill="#8c0c1f"/>
    </symbol>
  </defs>
  <rect id="Figment_lido" x="-1.22" y="-1.06" width="252.5" height="252.5" transform="translate(-0.16 250.22) rotate(-90)" fill="#fff"/>
  <use width="20.7" height="22.81" transform="translate(42.79 34.4) scale(7.94)" xlink:href="#Bitcoin_Suisse"/>
</svg>
