<svg id="Capa_1" data-name="Capa 1" xmlns="http://www.w3.org/2000/svg" xmlns:xlink="http://www.w3.org/1999/xlink" width="250" height="250" viewBox="0 0 250 250">
  <defs>
    <symbol id="Bitstamp" data-name="Bitstamp" viewBox="0 0 12.12 13.73">
      <path d="M0,13.71V11.79l.4-.08a2.07,2.07,0,0,0,1.66-2.1,2.08,2.08,0,0,0-1.82-2C.06,7.6,0,7.53,0,7.34,0,6.9,0,6.46,0,6l.52-.1A2.1,2.1,0,0,0,2.08,3.8a2.07,2.07,0,0,0-1.79-2c-.22,0-.3-.1-.29-.32C0,1,0,.55,0,0,.12,0,.22,0,.33,0,2.66,0,5,0,7.32,0a4.78,4.78,0,0,1,3.16,1.06,3.31,3.31,0,0,1-.54,5.41l-.14.09a1,1,0,0,0,.15.1,3.43,3.43,0,0,1,2.17,3.43,3.64,3.64,0,0,1-2.35,3.22,5.28,5.28,0,0,1-2,.4c-2.52,0-5,0-7.55,0Zm3.89-4v1.81c0,.18,0,.28.25.28,1.06,0,2.12,0,3.18,0a2.07,2.07,0,1,0,0-4.14c-1,0-2.1,0-3.14,0-.24,0-.3.08-.3.3C3.92,8.5,3.91,9.09,3.91,9.68Zm0-5.78V5.56c0,.19,0,.26.25.26,1,0,1.92,0,2.88,0A1.94,1.94,0,0,0,9,4.32,2,2,0,0,0,7,2C6,2,5.12,2,4.2,2c-.25,0-.3.1-.29.31Z" fill="#02fd9e"/>
    </symbol>
  </defs>
  <rect id="Figment_lido" x="-1.22" y="-1.06" width="252.5" height="252.5" transform="translate(-0.16 250.22) rotate(-90)" fill="#003b2f"/>
  <use width="12.12" height="13.73" transform="translate(56.85 47.8) scale(11.24)" xlink:href="#Bitstamp"/>
</svg>
