<svg id="Capa_1" data-name="Capa 1" xmlns="http://www.w3.org/2000/svg" xmlns:xlink="http://www.w3.org/1999/xlink" width="250" height="250" viewBox="0 0 250 250">
  <defs>
    <symbol id="Blockscape" data-name="Blockscape" viewBox="0 0 24.92 23.82">
      <path d="M10.05,3.71a10.06,10.06,0,0,0,0,20.11h0l.06-20.11Z" fill="#fda301"/>
      <path d="M20.11,13.76a10.05,10.05,0,0,0-10-10l-.06,20.11A10.05,10.05,0,0,0,20.11,13.76Z" fill="#fd4201"/>
      <g>
        <path d="M10,14.73,5.26,12A.37.37,0,0,1,5,11.61q0-.4,0-.81a.35.35,0,0,1,.19-.35c1.62-.91,3.18-1.91,4.83-2.76l5,2.89L13,11.78c-.83.49-1.65,1-2.49,1.44a.65.65,0,0,0-.42.74A5,5,0,0,1,10,14.73Z" fill="#fefdfc"/>
        <path d="M10,21.08c-.17,0-.29-.11-.43-.19L5.38,18.45a1.13,1.13,0,0,1,0-1.71.88.88,0,0,1,1.12,0c1,.65,2.12,1.25,3.19,1.85.13.07.23.24.42.15,1.11-.63,2.25-1.22,3.32-1.92A1.12,1.12,0,0,1,15,17L12,18.7c-.51.29-1,.61-1.54.88a.68.68,0,0,0-.45.78A5.77,5.77,0,0,1,10,21.08Z" fill="#fefbf8"/>
        <path d="M10,17.91,5.26,15.18A.4.4,0,0,1,5,14.76c0-.19,0-.39,0-.58a.85.85,0,0,1,1.29-.72l3.32,1.91c.13.08.24.21.42.17,1.15-.56,2.22-1.26,3.33-1.89.8-.45.79-.46,1.61.13l-3.11,1.81c-.47.28-.93.56-1.41.81a.65.65,0,0,0-.43.75A4.82,4.82,0,0,1,10,17.91Z" fill="#fefbf8"/>
      </g>
      <g>
        <path d="M22.06,8.17a2.79,2.79,0,0,1-2.52-1.54,2.78,2.78,0,0,1,.11-2.85c.05-.1.09-.1.19,0L21.92,5a.26.26,0,0,0,.3,0c.68-.41,1.38-.81,2.06-1.21.11-.07.15,0,.21,0a2.86,2.86,0,0,1-2,4.34Z" fill="#00a2fd"/>
        <path d="M22.07,0l1.22,1.91c.24.38.48.76.73,1.14.06.09,0,.13,0,.18-.61.35-1.22.7-1.82,1.06a.17.17,0,0,1-.19,0L20.14,3.22c-.05,0-.1-.06,0-.14Zm0,.85,0,.06-1.3,2c-.05.07,0,.09,0,.12L22,3.78a.16.16,0,0,0,.19,0l1-.57c.11-.06.28-.11.3-.19s-.1-.21-.17-.32L22.15,1S22.11.86,22.06.85Z" fill="#009ff9"/>
      </g>
    </symbol>
  </defs>
  <rect id="Figment_lido" x="-1.22" y="-1.06" width="252.5" height="252.5" transform="translate(-0.16 250.22) rotate(-90)" fill="#fff"/>
  <use width="24.92" height="23.82" transform="translate(28.49 32.77) scale(7.74)" xlink:href="#Blockscape"/>
</svg>
