<svg id="Capa_1" data-name="Capa 1" xmlns="http://www.w3.org/2000/svg" xmlns:xlink="http://www.w3.org/1999/xlink" width="250" height="250" viewBox="0 0 250 250">
  <defs>
    <symbol id="Blockdaemon" data-name="Blockdaemon" viewBox="0 0 13.7 14.12">
      <path d="M0,1.79l1.74,1.4,1.29,1a.21.21,0,0,0,.29,0L4.47,3.6a.29.29,0,0,1,.35,0c.36.22.74.41,1.09.63a.31.31,0,0,0,.42,0C7.24,3.46,8.16,2.73,9.07,2l.2-.15c0,.09,0,.15,0,.21,0,3.08,0,6.16,0,9.24a.3.3,0,0,1-.18.3L4.82,14.06a.32.32,0,0,1-.35,0Q2.33,12.82.16,11.59A.27.27,0,0,1,0,11.33V1.94S0,1.87,0,1.79ZM8.46,7.47l-.24.14c-1.13.65-2.25,1.3-3.37,2a.36.36,0,0,1-.42,0c-1.12-.69-2.25-1.36-3.38-2L.83,7.42c0,1.19,0,2.33,0,3.47a.31.31,0,0,0,.16.22c1.16.68,2.33,1.34,3.49,2a.29.29,0,0,0,.32,0q1.73-1,3.45-2a.35.35,0,0,0,.2-.34c0-1,0-2,0-3ZM1,6.54l.09.07C2.23,7.29,3.37,8,4.5,8.66a.24.24,0,0,0,.3,0l1.7-1L8.35,6.58,4.73,4.5a.25.25,0,0,0-.22,0Zm-.16-1L2.3,4.68.84,3.5Zm7.6,0v-2L7,4.73Z" fill="#fff"/>
      <g>
        <path d="M12,4.81a1.66,1.66,0,0,1-1.49-.91,1.62,1.62,0,0,1,.07-1.67c0-.06.05-.06.11,0,.41.24.82.47,1.22.72a.15.15,0,0,0,.18,0l1.22-.71c.06,0,.08,0,.12,0a1.69,1.69,0,0,1-1.2,2.56Z" fill="#00a2fd"/>
        <path d="M12,0l.72,1.12.43.68c0,.05,0,.07,0,.1l-1.07.62a.08.08,0,0,1-.11,0L10.88,1.9s-.06,0,0-.09C11.24,1.22,11.62.62,12,0Zm0,.5,0,0c-.26.39-.51.79-.77,1.19,0,0,0,.06,0,.07l.72.43a.1.1,0,0,0,.11,0l.57-.33c.06,0,.16-.07.18-.12s-.07-.12-.1-.18l-.66-1S12,.51,12,.5Z" fill="#009ff9"/>
      </g>
    </symbol>
  </defs>
  <rect id="Figment_lido" x="-1.22" y="-1.06" width="252.5" height="252.5" transform="translate(-0.16 250.22) rotate(-90)" fill="#2a136b"/>
  <use width="13.69" height="14.12" transform="translate(38.7 36.05) scale(12.6)" xlink:href="#Blockdaemon"/>
</svg>
