<svg id="Capa_1" data-name="Capa 1" xmlns="http://www.w3.org/2000/svg" xmlns:xlink="http://www.w3.org/1999/xlink" width="250" height="250" viewBox="0 0 250 250">
  <defs>
    <symbol id="Bridgetower" data-name="Bridgetower" viewBox="0 0 24.33 24.49">
      <circle cx="9.85" cy="14.7" r="9.79" fill="#fff"/>
      <path d="M8.93,12.85c0,.81,0,1.44,0,2.07,0,.3-.07.47-.39.51a23.92,23.92,0,0,0-4.35,1c-.16.05-.28.11-.33-.15a1.77,1.77,0,0,1,.94-2,1.49,1.49,0,0,1,2,.65c.23.34.45.19.71.17s.37-.24.36-.5a8,8,0,0,0-.18-2.39c-.07-.16-.07-.39-.29-.4s-.19.21-.26.34-.07.34-.27.35-.23-.18-.31-.32c-.24-.45-.48-.9-.73-1.34s-.39-.54-.72,0l-.82,1.36c-.07.11-.11.28-.27.28s-.23-.17-.29-.31-.09-.36-.27-.35-.22.24-.29.4a2.33,2.33,0,0,0-.17,1c0,1.08,0,2.16,0,3.24a.57.57,0,0,1-.37.59,10,10,0,0,0-1.54.85c-.43.3-.55.13-.66-.27A9.58,9.58,0,0,1,2.33,8.38a9.83,9.83,0,0,1,15.41.49,9.72,9.72,0,0,1,1.83,7.18c-.05.42-.25.4-.56.3a27,27,0,0,0-6.24-1.18,19.4,19.4,0,0,0-2.29.06c-.34,0-.45-.06-.4-.42A2.12,2.12,0,0,1,11.85,13a2.07,2.07,0,0,1,2.2,1.23c.11.24.09.55.43.66.67.23.93.05.94-.66,0-.87,0-1.73,0-2.6A5,5,0,0,0,15,9.83c0-.11-.08-.23-.22-.25s-.2.14-.27.25c-.18.27-.1.79-.51.77s-.39-.5-.55-.78c-.34-.57-.64-1.17-1-1.76-.19-.36-.37-.36-.57,0-.42.73-.84,1.46-1.28,2.19-.09.15-.13.4-.39.38s-.19-.28-.3-.41-.06-.65-.43-.61-.26.44-.37.68C8.73,11.17,9,12.12,8.93,12.85Z" fill="#f48624"/>
      <path d="M15.3,18.65a16.2,16.2,0,0,1,2.77,1.47,9.69,9.69,0,0,1-8.4,4.34A9.58,9.58,0,0,1,1.4,19.74c-.22-.34-.23-.49.2-.67a20.11,20.11,0,0,1,6.47-1.66c.86-.07.86-.09.86.75,0,.44,0,.87,0,1.3s.26.41.54.41.62.06.6-.42,0-1,0-1.53.09-.49.46-.45a17.17,17.17,0,0,1,3.63.72.4.4,0,0,1,.32.48c0,.25,0,.51,0,.76s.11.42.42.42.44-.12.43-.42S15.3,19,15.3,18.65Zm-7.41.16c0-.15,0-.25,0-.34,0-.28,0-.56-.4-.54s-.43.24-.42.55,0,.5,0,.75.16.37.41.36C8.15,19.57,7.77,19.05,7.89,18.81Zm-4,.19c0-.2,0-.48-.31-.43S3,18.66,3,19s.12.42.42.42S3.9,19.34,3.87,19Z" fill="#f48624"/>
      <path d="M19,18.46a3.12,3.12,0,0,1-.44.77c-.11.12-.33-.12-.5-.21a17.49,17.49,0,0,0-7.41-2.11l-.29,0c-.22,0-.32-.06-.32-.3s.1-.3.32-.3a17.81,17.81,0,0,1,8.42,1.88C18.87,18.23,19,18.26,19,18.46Z" fill="#0f3040"/>
      <path d="M3.88,17.71c0-.28.18-.29.29-.33a21.31,21.31,0,0,1,4.24-.95c.17,0,.45-.19.51.17s-.25.32-.46.33a22.2,22.2,0,0,0-4.28.76A2.66,2.66,0,0,1,3.88,17.71Z" fill="#0f3040"/>
      <path d="M7.89,18.81c-.12.24.26.76-.41.78-.25,0-.41-.07-.41-.36s0-.5,0-.75,0-.53.42-.55.4.26.4.54C7.88,18.56,7.89,18.66,7.89,18.81Z" fill="#fdfcfb"/>
      <path d="M3.87,19c0,.34-.13.45-.45.46S3,19.34,3,19s.31-.43.56-.47S3.85,18.8,3.87,19Z" fill="#fdfcfb"/>
      <g>
        <path d="M21.5,8.06A2.78,2.78,0,0,1,19,6.53a2.71,2.71,0,0,1,.1-2.8c.06-.1.1-.1.19,0l2.05,1.2a.26.26,0,0,0,.3,0l2-1.19c.11-.07.15,0,.21.05a2.82,2.82,0,0,1-2,4.28Z" fill="#00a2fd"/>
        <path d="M21.51,0l1.2,1.88c.24.38.48.76.73,1.13.06.09,0,.12-.05.17L21.6,4.23a.17.17,0,0,1-.18,0L19.61,3.17c-.05,0-.09,0,0-.13Zm0,.83L21.45.9l-1.28,2c0,.07,0,.09,0,.12l1.21.71a.17.17,0,0,0,.18,0l.95-.56c.11-.06.28-.11.3-.2s-.11-.2-.17-.31L21.59.94S21.56.85,21.5.83Z" fill="#009ff9"/>
      </g>
    </symbol>
  </defs>
  <rect id="Figment_lido" x="-1.22" y="-1.06" width="252.5" height="252.5" transform="translate(-0.16 250.22) rotate(-90)" fill="#fff"/>
  <use width="24.33" height="24.49" transform="translate(28.24 27.59) scale(7.95)" xlink:href="#Bridgetower"/>
</svg>
