<svg id="Capa_1" data-name="Capa 1" xmlns="http://www.w3.org/2000/svg" xmlns:xlink="http://www.w3.org/1999/xlink" width="250" height="250" viewBox="0 0 250 250">
  <defs>
    <symbol id="Celsius" data-name="Celsius" viewBox="0 0 11.07 10.64">
      <path d="M1.38,5.27a4,4,0,0,0,3.48,4,3.88,3.88,0,0,0,3.21-1c.28-.26.36-.27.67-.07l.48.32a.28.28,0,0,1,0,.46,5.15,5.15,0,0,1-3.44,1.68A5.08,5.08,0,0,1,.75,8,5,5,0,0,1,.9,2.45,5,5,0,0,1,4.45.09,5.15,5.15,0,0,1,8.19.82a4,4,0,0,1,.4.28.29.29,0,0,1,0,.47c-.19.18-.38.35-.58.51a.33.33,0,0,1-.42,0A4,4,0,0,0,5.84,1.4a3.76,3.76,0,0,0-2.14.34,3.92,3.92,0,0,0-2.28,3s0,.09,0,.13S1.39,5.18,1.38,5.27Z" fill="#fff"/>
      <path d="M8.43,3.64a1.32,1.32,0,0,1,2.64,0,1.32,1.32,0,1,1-2.64,0Zm1.31-.37a.37.37,0,0,0-.38.38A.39.39,0,0,0,9.74,4a.39.39,0,0,0,.39-.4A.37.37,0,0,0,9.74,3.27Z" fill="#fff"/>
    </symbol>
  </defs>
  <rect id="Figment_lido" x="-1.22" y="-1.06" width="252.5" height="252.5" transform="translate(-0.16 250.22) rotate(-90)" fill="#c87def"/>
  <use width="11.07" height="10.64" transform="translate(39.05 42.38) scale(15.53)" xlink:href="#Celsius"/>
</svg>
