<svg id="Capa_1" data-name="Capa 1" xmlns="http://www.w3.org/2000/svg" xmlns:xlink="http://www.w3.org/1999/xlink" width="250" height="250" viewBox="0 0 250 250">
  <defs>
    <symbol id="Chainlayer" data-name="Chainlayer" viewBox="0 0 67.78 64.34">
      <path d="M17,10.86,20.9,8.57a28.66,28.66,0,0,0,4.81.15c2.07,0,4.15.09,6.23-.07a26.38,26.38,0,0,1,3.95,2.21c-.16.58-.66.5-1.08.5q-8.37,0-16.76,0C17.64,11.36,17.14,11.44,17,10.86Z" fill="#fff"/>
      <path d="M43.83,15.47a3,3,0,0,1,1.11.64c-.25.72-.88.52-1.38.52-4,0-8,0-12,0-7.39,0-14.79,0-22.18,0-.52,0-1.2.25-1.48-.52A3,3,0,0,1,9,15.46a11.66,11.66,0,0,1,2-.12H42.3A13,13,0,0,1,43.83,15.47Z" fill="#fff"/>
      <path d="M31.94,8.65c-.23.45-.64.41-1.05.41H22c-.44,0-.89,0-1.11-.49,1.69-1,3.38-2,5-3A.91.91,0,0,1,27,5.65C28.68,6.63,30.37,7.54,31.94,8.65Z" fill="#fff"/>
      <path d="M43.83,15.47c-.34.34-.76.19-1.15.19H10.19c-.39,0-.82.15-1.15-.2a3,3,0,0,1,1.1-.64,12,12,0,0,1,2.07-.14H40.65a11.87,11.87,0,0,1,2.07.14A3,3,0,0,1,43.83,15.47Z" fill="#fff"/>
      <path d="M42.72,14.82c-.34.32-.77.18-1.15.18H11.3c-.39,0-.82.14-1.16-.18l1.11-.65A14.72,14.72,0,0,1,14,14q13,0,26,0c.56,0,1.09.16,1.64.16Z" fill="#fff"/>
      <path d="M29.34,53.77c-.24-.91.49-1,1.06-1.31a4.77,4.77,0,0,1,1.71-.33c5.25,0,10.5,0,15.75,0,.48,0,1.27-.31,1.26.69a5.86,5.86,0,0,1-1.77.92,12.05,12.05,0,0,1-2.4.15H30.53A2.31,2.31,0,0,1,29.34,53.77Z" fill="#fff"/>
      <path d="M23.53,54.87v.89c-.42.41-.95.31-1.45.31-3.87,0-7.74,0-11.61,0-.48,0-.93-.15-1.41-.17L7.27,54.86c.13-.83.81-.74,1.36-.75,1.76,0,3.52,0,5.27,0,2.71,0,5.42,0,8.13,0C22.64,54.11,23.33,54,23.53,54.87Z" fill="#fff"/>
      <path d="M41.62,14.17c-.31.29-.7.17-1,.17H12.3c-.36,0-.74.12-1.05-.17l1.29-.73c7.29-.15,14.57,0,21.86-.06,2,0,4-.06,5.92.06Z" fill="#fff"/>
      <path d="M23.53,54.87c-.28-.44-.71-.43-1.16-.43-4.65,0-9.3,0-13.94,0-.44,0-.91-.09-1.16.42a7.78,7.78,0,0,1-1.79-1c.1-.74.69-.79,1.22-.8Q14.35,53,22,53c.67,0,1.34.13,1.54,1Z" fill="#fff"/>
      <path d="M45.59,54.86c-.57.2-.93.77-1.54.89-2.08.22-4.16.08-6.24.1-2.37,0-4.75,0-7.12,0-.47,0-1,.08-1.35-.31v-.45c0-.92.7-1,1.39-1,2.09,0,4.17,0,6.26,0,2.38,0,4.76,0,7.14,0C44.7,54.12,45.44,54,45.59,54.86Z" fill="#fff"/>
      <path d="M7.93,16.11c.32.36.75.22,1.14.22H43.8c.38,0,.81.14,1.14-.22l.86.48c-.1.48-.51.49-.86.49-5.9,0-11.8.1-17.7,0a1.51,1.51,0,0,0-1.62,0c-1.75.16-3.51.06-5.27.07q-5.94,0-11.88,0c-.5,0-1.12.19-1.41-.5Z" fill="#fff"/>
      <path d="M3.08,52.44l-2-1.13c.17-.57.68-.51,1.08-.51,5.51,0,11,0,16.52,0a4,4,0,0,1,1.39.32,2.86,2.86,0,0,1,1.23.7c-.46.64-1.15.53-1.8.53H5.05A11.77,11.77,0,0,0,3.08,52.44Z" fill="#fff"/>
      <path d="M20.11,51.11l-17.72,0c-.42,0-.88-.15-1.27.17C.67,51.06,0,51,0,50.26a1.76,1.76,0,0,1,1.34-.36H16.86a4.82,4.82,0,0,1,1.72.33A3.79,3.79,0,0,1,20.11,51.11Z" fill="#fff"/>
      <path d="M33.05,50.92a2.92,2.92,0,0,1,1.24-.69,5.44,5.44,0,0,1,2-.31c5,0,10,0,14.94,0,.54,0,1.11-.12,1.56.33,0,.83-.74.86-1.29,1.07a12.05,12.05,0,0,1-2.08.14H34.85C34.21,51.46,33.51,51.57,33.05,50.92Z" fill="#fff"/>
      <path d="M13.89,12.64a4.39,4.39,0,0,1,1.3-.73c6.14-.17,12.29,0,18.43-.07,1.35,0,2.71-.05,4.06.07a4.13,4.13,0,0,1,1.29.73c-.18.58-.69.46-1.1.47H15C14.59,13.1,14.07,13.22,13.89,12.64Z" fill="#fff"/>
      <path d="M45.59,54.86c-.22-.45-.63-.42-1-.42-4.71,0-9.42,0-14.13,0a1,1,0,0,0-1.08.66V53.77a1.84,1.84,0,0,1,1.06-.21h16c.32,0,.67-.09.93.2A5.56,5.56,0,0,1,45.59,54.86Z" fill="#fff"/>
      <path d="M18.58,50.23,0,50.26v-.88c.42-.42,1-.33,1.46-.33,4.62,0,9.24,0,13.85,0a4.53,4.53,0,0,1,1.82.34A4.2,4.2,0,0,1,18.58,50.23Z" fill="#fff"/>
      <path d="M52.83,47v1.1a1.52,1.52,0,0,1-1.23.33c-3.93,0-7.86,0-11.78,0-.51,0-1.14.16-1.31-.6l1.61-1c2.87-.4,5.76-.1,8.63-.18.92,0,1.83,0,2.74,0A1.79,1.79,0,0,1,52.83,47Z" fill="#fff"/>
      <path d="M0,47.83v-1.1a1.89,1.89,0,0,1,1.45-.34c3,0,6.08,0,9.12,0,.59,0,1.13.29,1.72.19a8.88,8.88,0,0,1,2.07,1.24,1.56,1.56,0,0,1-1.32.38q-5.85,0-11.7,0A1.76,1.76,0,0,1,0,47.83Z" fill="#fff"/>
      <path d="M52.83,48.72v.88a1.29,1.29,0,0,1-1,.32H36.92c-.48,0-1,0-1.22-.54a2.92,2.92,0,0,1,1.24-.69,4.86,4.86,0,0,1,1.93-.31c4.17,0,8.34,0,12.51,0C51.88,48.39,52.42,48.3,52.83,48.72Z" fill="#fff"/>
      <path d="M43,56.39c-.74.24-1.21,1-2,1.13-3.27-.19-6.55,0-9.83-.09a2.3,2.3,0,0,1-1.67-.34c-.1-1.3-.1-1.32,1.16-1.32,3.76,0,7.52,0,11.29,0C42.32,55.78,43,55.5,43,56.39Z" fill="#fff"/>
      <path d="M21.15,19.64a3.08,3.08,0,0,1-1.12.65,4.71,4.71,0,0,1-1.93.34H7.32a5.43,5.43,0,0,1-2-.33,5.13,5.13,0,0,1-1.54-.88A1.51,1.51,0,0,1,5,19.09c4.9,0,9.81,0,14.72,0C20.24,19.09,20.83,19,21.15,19.64Z" fill="#fff"/>
      <path d="M32.83,20.29a3.1,3.1,0,0,1-1.11-.65A1.33,1.33,0,0,1,33,19.1c5,0,10.09,0,15.14,0a1.26,1.26,0,0,1,1,.33,5.69,5.69,0,0,1-1.53.88,5.48,5.48,0,0,1-2.05.33H34.87A5.07,5.07,0,0,1,32.83,20.29Z" fill="#fff"/>
      <path d="M12.13,57.69l-1.77-1c0-.65.48-.65.92-.65,3.75,0,7.51,0,11.26,0,1,0,1,.61.87,1.3-.44.47-1,.34-1.55.35C18.62,57.66,15.37,57.58,12.13,57.69Z" fill="#fff"/>
      <path d="M17,10.86c.28.27.62.18.94.18q8.52,0,17,0c.32,0,.67.1.94-.18l1.11.65c-.11.53-.55.41-.88.41H16.74c-.33,0-.77.12-.87-.41Z" fill="#fff"/>
      <path d="M23.53,54a2,2,0,0,0-1.66-.65H6.75a1.4,1.4,0,0,0-1.27.49,5.9,5.9,0,0,1-1.54-.89c.24-.79.92-.58,1.44-.58,4.93,0,9.86,0,14.8,0a6,6,0,0,1,2.58.3C23.56,52.78,23.66,53.32,23.53,54Z" fill="#fff"/>
      <path d="M0,47.83l14.36,0a2.36,2.36,0,0,1,1.19.71c-.25.55-.76.53-1.23.53H1.16A1.45,1.45,0,0,1,0,48.72Z" fill="#fff"/>
      <path d="M52.83,47H41.29c-.4,0-.82.12-1.17-.16a12.56,12.56,0,0,1,2.15-1.2c3.11-.18,6.22-.06,9.33-.08a1.56,1.56,0,0,1,1.23.34Z" fill="#fff"/>
      <path d="M52.83,27.12V30c-.19.34.11.85-.4,1.07a40.83,40.83,0,0,1-5.64.15c-.84,0-1.67,0-2.51,0a1.69,1.69,0,0,1-1.12-.34V29.55a2.26,2.26,0,0,1,1.56-.34c2.08,0,4.15,0,6.22,0,.47,0,1,.16,1.36-.41.06-.3,0-.6.07-.89a1.38,1.38,0,0,1,.17-.69A.22.22,0,0,1,52.83,27.12Z" fill="#fff"/>
      <path d="M49.12,52.84c-.2-.63-.74-.37-1.12-.37-5.87,0-11.74,0-17.6,0a3,3,0,0,1,1.12-.66,5.69,5.69,0,0,1,2.14-.34c5.18,0,10.37,0,15.56,0,.5,0,1.12-.19,1.42.48Z" fill="#fff"/>
      <path d="M50.64,52c-.28-.25-.63-.16-1-.16H31.52a5.3,5.3,0,0,1,1.53-.88,5.92,5.92,0,0,0,1.73.23c5.2,0,10.4,0,15.6,0,.39,0,.82-.13,1.16.19C51.22,51.52,51,51.89,50.64,52Z" fill="#fff"/>
      <path d="M24.92,17.45a4.86,4.86,0,0,1-1.56.9c-5.8.17-11.61,0-17.42.06-.42,0-.92.09-1.08-.5A3.1,3.1,0,0,1,6,17.24,11.83,11.83,0,0,1,8,17.1H23.37C23.9,17.11,24.48,17,24.92,17.45Z" fill="#fff"/>
      <path d="M46.91,17.24c.48,0,.63.6,1.09.67-.16.59-.66.5-1.07.5-5.81,0-11.62.1-17.43-.06a4.78,4.78,0,0,1-1.56-.9c.37-.41.87-.34,1.34-.34,5.44,0,10.88,0,16.33,0C46.05,17.09,46.47,17.24,46.91,17.24Z" fill="#fff"/>
      <path d="M22.76,52.65l-17.59,0c-.41,0-.89-.17-1.23.25l-.86-.5c.17-.66.71-.41,1.09-.41q7.73,0,15.45,0a5.84,5.84,0,0,0,1.72-.22A3.85,3.85,0,0,1,22.76,52.65Z" fill="#fff"/>
      <path d="M12.32,46.56c-.35.3-.78.17-1.17.17-3.7,0-7.41,0-11.12,0v-1.1a1.32,1.32,0,0,1,1-.33c3,0,6.08-.09,9.12.05A15.17,15.17,0,0,1,12.32,46.56Z" fill="#fff"/>
      <path d="M0,36V34.19c.35,0,.38.3.48.54.21.71.81.64,1.35.64,2.09,0,4.17,0,6.26,0a2.24,2.24,0,0,1,1.57.34V37a2,2,0,0,1-1.46.35H1.65C.24,37.37.2,37.32,0,36Z" fill="#fff"/>
      <path d="M.22,34.62,0,34.19V32.42a.54.54,0,0,1,.48.29c.3.39.74.25,1.12.25,2.2,0,4.4,0,6.6,0a2,2,0,0,1,1.46.33v1.32A1.8,1.8,0,0,1,8.47,35h-7A1.75,1.75,0,0,1,.22,34.62Z" fill="#fff"/>
      <path d="M23.53,58.83v1.54a3.35,3.35,0,0,0-2.67-.76,39.5,39.5,0,0,1-5.65-.14,8.17,8.17,0,0,1-1.78-1c.08-.71.66-.75,1.15-.76,2.63,0,5.26,0,7.89,0C23.31,57.64,23.49,58.15,23.53,58.83Z" fill="#fff"/>
      <path d="M4.86,17.91c.35.31.77.18,1.16.18H22.13c.42,0,.89-.17,1.23.25l-.68.4a5.61,5.61,0,0,1-2.15.34c-5.1,0-10.2,0-15.3,0-.53,0-1.21.23-1.49-.53A2.45,2.45,0,0,1,4.86,17.91Z" fill="#fff"/>
      <path d="M29.5,18.35c.34-.42.82-.25,1.23-.25H46.85c.38,0,.81.13,1.15-.18a2.45,2.45,0,0,1,1.12.63c-.25.71-.87.53-1.37.54H32.88a6.51,6.51,0,0,1-2.7-.34Z" fill="#fff"/>
      <path d="M24.92,17.45l-17.7,0c-.42,0-.88.15-1.26-.19l1.1-.65c.35.31.77.18,1.16.18,5.31,0,10.61,0,15.92,0a2.53,2.53,0,0,1,1.48.26A1.14,1.14,0,0,1,24.92,17.45Z" fill="#fff"/>
      <path d="M46.91,17.24c-.38.34-.84.18-1.27.19l-17.7,0a1.12,1.12,0,0,1-.7-.42,2.65,2.65,0,0,1,1.49-.26c5.3,0,10.61,0,15.91,0,.39,0,.81.13,1.16-.18Z" fill="#fff"/>
      <path d="M30.18,18.75c5.94,0,11.87,0,17.8,0,.39,0,.82.14,1.14-.21.24.06.55.15.58.39s-.34.37-.58.49H33.55a5.9,5.9,0,0,0-1.83.23A5.78,5.78,0,0,1,30.18,18.75Z" fill="#fff"/>
      <path d="M3.74,18.54c.33.35.76.21,1.14.21,5.94,0,11.87,0,17.8,0a5.57,5.57,0,0,1-1.53.89,2.47,2.47,0,0,0-1.39-.22h-16c-.24-.12-.62-.15-.58-.5S3.5,18.61,3.74,18.54Z" fill="#fff"/>
      <path d="M43.16,34.18V32.85a1.45,1.45,0,0,1,.91-.33c2.64,0,5.28-.06,7.91,0a1.4,1.4,0,0,1,.53.15c.45.41.17.93.22,1.4a.61.61,0,0,1-.3.29,53.52,53.52,0,0,1-6.7.13A4,4,0,0,1,43.16,34.18Z" fill="#fff"/>
      <path d="M40.32,13.44c-.31.39-.74.24-1.12.24H13.67c-.39,0-.82.15-1.13-.24l.68-.4q13.22,0,26.43,0Z" fill="#fff"/>
      <path d="M35.7,49.38a2.47,2.47,0,0,0,1.39.22H52.83v.66l-18.54,0A4.06,4.06,0,0,1,35.7,49.38Z" fill="#fff"/>
      <path d="M39.65,13c-.34.34-.77.2-1.15.2H14.37c-.39,0-.82.14-1.15-.2l.67-.4c.32.28.7.16,1.06.16h23c.35,0,.73.12,1-.16Z" fill="#fff"/>
      <path d="M0,48.72H14.3a2.1,2.1,0,0,0,1.28-.2c.52.3,1.16.4,1.58.87H0Z" fill="#fff"/>
      <path d="M52.65,32.85H43.16v-1.1a2.28,2.28,0,0,1,1.57-.34c2.07,0,4.15,0,6.22,0,.61,0,1.26.06,1.7-.53,0-.29-.09-.62.18-.87v2.21C52.68,32.4,52.85,32.68,52.65,32.85Z" fill="#fff"/>
      <path d="M10.17,45.35c-.33.44-.81.27-1.22.27-3,0-5.95,0-8.92,0v-1.1a1.6,1.6,0,0,1,1.23-.35H8.47a1.75,1.75,0,0,1,1.23.35A1.2,1.2,0,0,0,10.17,45.35Z" fill="#fff"/>
      <path d="M39.44,58.38l-1.54.92c-2,.2-4.06.09-6.09.09a4.41,4.41,0,0,0-2.47.55V58.83c0-.87.42-1.21,1.27-1.21,2.65,0,5.31,0,8,0a1.46,1.46,0,0,1,.93.23C39.76,58.06,39.65,58.24,39.44,58.38Z" fill="#fff"/>
      <path d="M43.16,36.38v-1.1a2.17,2.17,0,0,1,1.57-.34c2.07,0,4.15,0,6.22,0a1.83,1.83,0,0,0,1.7-.76h0q.09-.15.18,0v2a.7.7,0,0,1-.44.43c-2.81.26-5.62.1-8.43.09A1.25,1.25,0,0,1,43.16,36.38Z" fill="#fff"/>
      <path d="M0,39.9V38.38c2.73.14,5.47,0,8.21.08a2.07,2.07,0,0,1,1.45.34v1.1a1.7,1.7,0,0,1-1.23.35c-2.4,0-4.81,0-7.21,0A1.58,1.58,0,0,1,0,39.9Z" fill="#fff"/>
      <path d="M52.83,37.93v1.53a1.5,1.5,0,0,1-1.22.33H44.4a1.73,1.73,0,0,1-1.24-.33v-1.1A2.1,2.1,0,0,1,44.62,38C47.36,38,50.09,38.08,52.83,37.93Z" fill="#fff"/>
      <path d="M43.16,41.23V40.12a1.77,1.77,0,0,1,1.24-.32h7.21a1.54,1.54,0,0,1,1.22.32v1.1a1.55,1.55,0,0,1-1.22.35q-3.61,0-7.21,0A1.78,1.78,0,0,1,43.16,41.23Z" fill="#fff"/>
      <path d="M9.7,42.55v1.1A1.8,1.8,0,0,1,8.47,44H1.26A1.6,1.6,0,0,1,0,43.65v-1.1a1.58,1.58,0,0,1,1.23-.35c2.4,0,4.81,0,7.21,0A1.7,1.7,0,0,1,9.7,42.55Z" fill="#fff"/>
      <path d="M43.13,45l0-1.09a1.79,1.79,0,0,1,1.24-.35q3.6,0,7.21,0a1.55,1.55,0,0,1,1.22.35V45a1.57,1.57,0,0,1-1.23.35c-2.41,0-4.83,0-7.24,0A1.57,1.57,0,0,1,43.13,45Z" fill="#fff"/>
      <path d="M39.44,58.38c.16-.39-.07-.42-.37-.42-3,0-5.9,0-8.85,0-.73,0-.62.57-.88.88V57.51c.1-.12,0-.32.18-.42,3.46,0,6.92,0,10.39,0,.38,0,.92-.24,1.06.42A3.88,3.88,0,0,1,39.44,58.38Z" fill="#fff"/>
      <path d="M.22,34.62H9.7v1.1c-2.8,0-5.61,0-8.41,0C.4,35.76.1,35.45.22,34.62Z" fill="#fff"/>
      <path d="M9.71,29.55v1.1a1.52,1.52,0,0,1-1,.34c-2.52,0-5,0-7.58,0a1.73,1.73,0,0,1-.74-.16.5.5,0,0,1-.24-.34c0-.35-.14-.73.16-1a.93.93,0,0,1,.4-.17c2.78-.1,5.56-.05,8.34,0A1.11,1.11,0,0,1,9.71,29.55Z" fill="#fff"/>
      <path d="M.22,30.65H9.7v1.1a1.59,1.59,0,0,1-1.13.35c-2.42,0-4.85,0-7.27,0C.16,32.06,0,31.85.22,30.65Z" fill="#fff"/>
      <path d="M43.16,36.38h9.49c.18,1.19.06,1.41-1.06,1.43-2.44.06-4.87,0-7.31,0a1.7,1.7,0,0,1-1.12-.35Z" fill="#fff"/>
      <path d="M52.65,34.18c.12.83-.18,1.14-1.07,1.12-2.81-.06-5.61,0-8.42,0v-1.1Z" fill="#fff"/>
      <path d="M52.83,48.72l-15.89,0a4.37,4.37,0,0,1,1.57-.92c.32.45.8.28,1.22.28,4.37,0,8.74,0,13.1,0Z" fill="#fff"/>
      <path d="M15.21,59.47a7,7,0,0,1,2.7-.17c1.35,0,2.72.06,4.06,0,.93-.06,1.42.21,1.56,1.11v1.11c-1-.78-2.22-.52-3.37-.56-.77,0-1.54,0-2.3.08Z" fill="#fff"/>
      <path d="M15.87,11.51c.3.31.69.19,1,.19q9.53,0,19,0c.36,0,.74.12,1-.19a1.16,1.16,0,0,1,.68.4c-.32.38-.75.23-1.14.23H16.32c-.38,0-.82.15-1.13-.23A1.16,1.16,0,0,1,15.87,11.51Z" fill="#fff"/>
      <path d="M18.78,21a3.76,3.76,0,0,1-1.54.88,5,5,0,0,1-1.92.33c-2.05,0-4.09.05-6.13,0a3.6,3.6,0,0,1-1.27-.32A6.14,6.14,0,0,1,6.39,21a1.54,1.54,0,0,1,1.23-.33h10A1.38,1.38,0,0,1,18.78,21Z" fill="#fff"/>
      <path d="M35.48,21.83a4,4,0,0,1-1.4-.84,1.39,1.39,0,0,1,1.21-.36h10a1.55,1.55,0,0,1,1.23.32c-.42.49-1.08.56-1.58.89a3.81,3.81,0,0,1-1.48.34c-2.11,0-4.23,0-6.34,0A3.83,3.83,0,0,1,35.48,21.83Z" fill="#fff"/>
      <path d="M29.34,59.94c.17-.7.57-.92,1.31-.89,2.08.06,4.15,0,6.23,0,.35,0,.74-.11,1,.23a15.63,15.63,0,0,1-2.65,1.54A2,2,0,0,0,34,60.48c-1.56.08-3.14-.27-4.66.34Z" fill="#fff"/>
      <path d="M18.78,21,6.39,21a3.31,3.31,0,0,1-1.11-.66H20A3,3,0,0,1,18.78,21Z" fill="#fff"/>
      <path d="M46.47,21,34.08,21a3,3,0,0,1-1.25-.7H47.59A3.08,3.08,0,0,1,46.47,21Z" fill="#fff"/>
      <path d="M43.13,45h9.7v.88H43.39c-.38,0-.82.14-1.12-.26Z" fill="#fff"/>
      <path d="M.22,30.65c-.12.83.17,1.14,1.07,1.12,2.8-.05,5.61,0,8.41,0v.88A1.7,1.7,0,0,1,8.46,33h-7a1.64,1.64,0,0,1-1.23-.33L0,32.42v-2q.09-.15.18,0Z" fill="#fff"/>
      <path d="M43.16,37.48c2.81,0,5.61,0,8.42,0,.89,0,1.19-.29,1.07-1.12l.18-.21v1.76c-.31.49-.79.43-1.26.43H43.16Z" fill="#fff"/>
      <path d="M0,36c.13.9.62,1.15,1.54,1.12C4.29,37,7,37,9.7,37v.88a1.84,1.84,0,0,1-1.24.35c-2.34,0-4.69,0-7,0-.69,0-1.35-.06-1.39-1Z" fill="#fff"/>
      <path d="M0,37.27c.21.57.63.67,1.2.66,2.82,0,5.64,0,8.46,0v.88H1.3c-.48,0-1,.06-1.26-.42Z" fill="#fff"/>
      <path d="M0,39.9H9.7v.88a1.7,1.7,0,0,1-1.23.35c-2.4,0-4.81,0-7.21,0A1.58,1.58,0,0,1,0,40.78Z" fill="#fff"/>
      <path d="M0,43.65H9.7v.88H0Z" fill="#fff"/>
      <path d="M0,40.78H9.7v.89A1.74,1.74,0,0,1,8.47,42c-2.4,0-4.81,0-7.21,0A1.6,1.6,0,0,1,0,41.67Z" fill="#fff"/>
      <path d="M0,41.67H9.7v.88H0Z" fill="#fff"/>
      <path d="M43.16,43v-.88a1.74,1.74,0,0,1,1.24-.35q3.6,0,7.21,0a1.55,1.55,0,0,1,1.22.35V43a1.59,1.59,0,0,1-1.22.34q-3.61,0-7.21,0A1.84,1.84,0,0,1,43.16,43Z" fill="#fff"/>
      <path d="M52.83,42.11H43.16v-.88h9.67Z" fill="#fff"/>
      <path d="M43.16,43h9.67v.88H43.16Z" fill="#fff"/>
      <path d="M52.65,28.67c.11.77-.3.9-1,.89-2.84,0-5.68,0-8.53,0-.1-.85.64-.85,1.12-1.12,2.41-.22,4.83-.07,7.25-.1A1.57,1.57,0,0,1,52.65,28.67Z" fill="#fff"/>
      <path d="M52.65,30.87c.11.77-.3.9-1,.89-2.84,0-5.69,0-8.53,0v-.88Z" fill="#fff"/>
      <path d="M7.49,27.79a2.77,2.77,0,0,1,1.1.64c.18.15.34.31.11.53a.87.87,0,0,1-.6.22c-2.54,0-5.09.16-7.63-.08C.14,29,.13,28.71,0,28.46V25.8a.21.21,0,0,1,.29.08,1.27,1.27,0,0,1,.13.32c.07.4,0,.8.12,1.2.27.46.72.26,1.1.28C3.61,27.74,5.55,27.58,7.49,27.79Z" fill="#fff"/>
      <path d="M23.53,58.83a1.06,1.06,0,0,0-1.22-.89c-2.49.07-5,0-7.48,0a1.55,1.55,0,0,0-1.4.45,4.07,4.07,0,0,1-1.3-.73c.3-.52.82-.38,1.28-.38,3.31,0,6.62,0,9.94,0,.15.1.07.3.18.43Z" fill="#fff"/>
      <path d="M33.9,61.66l-4.56,2.68v-2c.16-1.39.17-1.4,1.6-1.41a16.49,16.49,0,0,1,1.86,0C33.26,61,33.77,61.05,33.9,61.66Z" fill="#fff"/>
      <path d="M35.48,21.83h9.41a3.76,3.76,0,0,1-1.49.88,12.69,12.69,0,0,1-6.39,0A5.47,5.47,0,0,1,35.48,21.83Z" fill="#fff"/>
      <path d="M7.92,21.84l9.32,0a4,4,0,0,1-1.39.85,12.69,12.69,0,0,1-6.39,0A5.13,5.13,0,0,1,7.92,21.84Z" fill="#fff"/>
      <path d="M52.65,28.67H45.4c-.38,0-.82.15-1.13-.23l1.53-.91c1.86-.12,3.73,0,5.6-.06a1.69,1.69,0,0,1,1.25.33Z" fill="#fff"/>
      <path d="M.22,27.35V26c1.29-.65,2.63-.25,4-.17A8,8,0,0,1,6,26.9c.43.34.19.64-.17.65C3.92,27.64,2.05,28,.22,27.35Z" fill="#fff"/>
      <path d="M29.52,57.09l-.18.42v-2H42.91c.38,0,.81-.14,1.14.2l-1.1.64c-.07-.46-.44-.4-.76-.4-3.94,0-7.88,0-11.82,0C29.45,56,29.49,56.47,29.52,57.09Z" fill="#fff"/>
      <path d="M23.53,57.74l-.18-.43c.13-.85-.19-1.14-1.08-1.13-3.59,0-7.18,0-10.77,0-.44,0-.9-.09-1.14.43l-1.31-.72c.37-.27.78-.15,1.18-.15h13.3Z" fill="#fff"/>
      <path d="M33.9,61.66c-1.28-.78-2.68-.3-4-.34-.6,0-.17.78-.54,1V60.82a.93.93,0,0,1,1-.67c1.34.06,2.69,0,4,0,.41,0,1-.12.9.66Z" fill="#fff"/>
      <path d="M17.86,61a2,2,0,0,1,1.63-.39c.91,0,1.83.06,2.73,0a1.06,1.06,0,0,1,1.31.89v.45c-1.15.61-2.37.3-3.56.26A9.54,9.54,0,0,1,17.86,61Z" fill="#fff"/>
      <path d="M.22,28.89c2.57,0,5.15,0,7.73,0,.25,0,.85.29.64-.45.48.27,1.23.27,1.12,1.12H.22A.54.54,0,0,1,.22,28.89Z" fill="#fff"/>
      <path d="M52.83,40.12H43.16v-.66h9.67Z" fill="#fff"/>
      <path d="M9.46,22.72h6.39c-.94.55-1.88,1.09-2.8,1.67a.68.68,0,0,1-.8,0Z" fill="#fff"/>
      <path d="M37,22.72H43.4l-2.78,1.71a.68.68,0,0,1-.8,0C38.89,23.81,38,23.27,37,22.72Z" fill="#fff"/>
      <path d="M.22,32.63H9.7v.67H1.18C.71,33.29.16,33.39.22,32.63Z" fill="#fff"/>
      <path d="M20,62.19c1.15-.51,2.37-.15,3.56-.26v2.38A33.12,33.12,0,0,1,20,62.19Z" fill="#fff"/>
      <path d="M.22,27.35H5.4c.26,0,.76.19.55-.44a5.16,5.16,0,0,1,1.54.89c-.37.38-.83.2-1.25.21-1.72,0-3.45,0-5.17,0C.6,28,.16,28,.22,27.35Z" fill="#fff"/>
      <path d="M52.65,27.79H46.9c-.38,0-.81.14-1.1-.26a2.93,2.93,0,0,1,1.12-.62,43.55,43.55,0,0,1,4.71-.09,1.24,1.24,0,0,1,1,.32Z" fill="#fff"/>
      <path d="M52.65,27.13H47.94c-.35,0-.74.12-1-.22a5.28,5.28,0,0,1,1.54-.9,10.87,10.87,0,0,0,3.32.13c.38,0,.57-.25.56-.64s-.06-.86.49-1v2.63Z" fill="#fff"/>
      <path d="M52.83,24.49c-.31.33-.13.73-.18,1.09a3.67,3.67,0,0,1-2.74.22.4.4,0,0,1-.36-.47l3.18-1.88A1.68,1.68,0,0,1,52.83,24.49Z" fill="#fff"/>
      <path d="M49.55,25.33c1,.53,2.07.13,3.1.25.07.64-.15.93-.84.9-1-.05-2,0-2.93,0-.34,0-.6,0-.42-.47Z" fill="#fff"/>
      <path d="M4.17,25.85c-1.3.4-2.64.07-3.95.17v-.21a.67.67,0,0,1,0-.73A3.86,3.86,0,0,1,2.63,25Z" fill="#fff"/>
      <path d="M2.63,25c-.78.4-1.61.08-2.41.18-.2-.17,0-.46-.18-.65a1.7,1.7,0,0,1,.09-1Z" fill="#fff"/>
      <path d="M52.83,34.18h-.18V32.85c0-.23,0-.47.18-.64Z" fill="#fff"/>
      <path d="M.22,28.89v1.54H0v-2Z" fill="#fff"/>
      <path d="M0,24.49c.22.17.17.42.18.65v.67H0Z" fill="#fff"/>
      <g>
        <polygon points="38.26 42.05 26.32 48.95 14.82 42.01 26.26 35.1 38.26 42.05" fill="#fff" opacity="0.33"/>
        <polygon points="38.21 35.77 26.28 42.68 14.78 35.73 26.21 28.82 38.21 35.77" fill="#fff" opacity="0.18"/>
        <polygon points="38.38 29.42 26.44 36.32 14.94 29.37 26.38 22.46 38.38 29.42" fill="#fff" opacity="0.73"/>
      </g>
      <g>
        <path d="M59.93,22.38A7.67,7.67,0,0,1,53,18.15a7.57,7.57,0,0,1,.29-7.79c.16-.27.27-.28.53-.13,1.89,1.12,3.8,2.21,5.69,3.34a.71.71,0,0,0,.83,0c1.88-1.11,3.78-2.19,5.65-3.31.29-.17.4-.11.56.14A7.83,7.83,0,0,1,61,22.28C60.64,22.33,60.29,22.35,59.93,22.38Z" fill="#fff"/>
        <path d="M60,0,63.3,5.23c.66,1,1.32,2.09,2,3.13.17.25.13.35-.11.49-1.67,1-3.33,1.92-5,2.9a.45.45,0,0,1-.51,0l-5-2.92c-.16-.09-.28-.16-.14-.38Zm0,2.32-.13.17Q58,5.28,56.23,8.05c-.12.2,0,.26.13.34l3.37,2a.44.44,0,0,0,.51,0l2.64-1.55c.29-.17.76-.31.82-.55s-.29-.57-.47-.85c-1-1.6-2-3.19-3.06-4.78C60.11,2.5,60.08,2.37,59.92,2.32Z" fill="#fff"/>
      </g>
    </symbol>
  </defs>
  <rect id="Figment_lido" x="-1.22" y="-1.06" width="252.5" height="252.5" transform="translate(-0.16 250.22) rotate(-90)" fill="#6fa6d7"/>
  <use width="67.78" height="64.34" transform="translate(30.59 37.26) scale(2.75)" xlink:href="#Chainlayer"/>
</svg>
