<svg id="Capa_1" data-name="Capa 1" xmlns="http://www.w3.org/2000/svg" xmlns:xlink="http://www.w3.org/1999/xlink" width="250" height="250" viewBox="0 0 250 250">
  <defs>
    <symbol id="Chainsafe" data-name="Chainsafe" viewBox="0 0 39.83 36.2">
      <path d="M17.64,18.34c1.79,1,3.51,2,5.24,3,2.86,1.64,5.71,3.28,8.58,4.91a.73.73,0,0,1,.42.74c0,.89,0,1.79,0,2.68a.71.71,0,0,1-.3.5c-3.68,2-7.38,4-11.06,5.95-.29.16-.47,0-.68-.09L5.11,27.64C3.53,26.73,2,25.83.37,24.94A.63.63,0,0,1,0,24.31Q0,18,0,11.6a.53.53,0,0,1,.33-.54q5.57-3,11.12-5.95a.71.71,0,0,1,.81,0q9.57,5.52,19.16,11a.79.79,0,0,1,.47.81c0,.83,0,1.66,0,2.49a.62.62,0,0,1-.36.64c-.81.41-1.62.84-2.41,1.29a.56.56,0,0,1-.64,0L20.89,17a.68.68,0,0,0-.77,0C19.32,17.45,18.51,17.87,17.64,18.34Zm8.59,8.25c-.27.19-.41.3-.57.39-1.59.84-3.19,1.67-4.77,2.54a1,1,0,0,1-1.15,0q-6.67-3.87-13.38-7.7c-.15-.09-.38-.22-.5-.16-.78.38-1.53.8-2.33,1.23a3.63,3.63,0,0,0,.34.22q8,4.59,15.94,9.18a.71.71,0,0,0,.81,0C23,31,25.45,29.71,27.87,28.41l3.35-1.79-.32-.21-6.45-3.69c-2.28-1.31-4.56-2.63-6.86-3.93A.76.76,0,0,0,17,18.7c-.8.39-1.58.83-2.43,1.28ZM11.53,15c.79.45,1.49.83,2.17,1.26a.77.77,0,0,0,.89,0c1.83-1,3.67-2,5.5-3a.75.75,0,0,1,.85,0c2.49,1.45,5,2.87,7.51,4.3.15.08.38.19.51.13.75-.36,1.48-.77,2.26-1.18L31,16.4,12.23,5.58a.7.7,0,0,0-.77,0l-9.37,5-1.43.78c.71.42,1.37.78,2,1.18a.74.74,0,0,0,.84,0q4-2.18,8-4.29a.91.91,0,0,1,.67,0,12.07,12.07,0,0,1,1.11.62l4.12,2.37c.38.23.38.37,0,.58s-.71.39-1.07.58ZM.45,11.74c0,.13,0,.18,0,.22,0,4.06,0,8.13,0,12.19,0,.32.17.43.39.56l17.4,9.93,1.8,1c0-.84,0-1.59,0-2.34a.67.67,0,0,0-.4-.69L3.29,23.26a.78.78,0,0,1-.45-.78c0-3,0-5.93,0-8.89,0-.18,0-.46-.16-.53C2,12.61,1.23,12.2.45,11.74Zm13.73,1.38c-.74-.43-1.38-.82-2-1.17a.76.76,0,0,0-.59,0c-1.69.89-3.37,1.8-5.07,2.69a.56.56,0,0,0-.34.58c0,1.53.08,3,0,4.57a2,2,0,0,0,1.21,2.13c4.25,2.36,8.45,4.82,12.67,7.24a.65.65,0,0,0,.45.1c.58-.27,1.13-.58,1.74-.91-.15-.1-.25-.17-.36-.23l-10.5-6a.76.76,0,0,1-.45-.74c0-2,0-4,0-6.07a.64.64,0,0,1,.4-.65C12.23,14.18,13.16,13.66,14.18,13.12ZM11.37,15.4a.88.88,0,0,0,0,.19c0,1.93,0,3.86,0,5.79a.54.54,0,0,0,.23.39Q17,24.88,22.38,28c.1.05.26.11.34.07l2.68-1.4-.47-.28q-5.28-3-10.56-6a.7.7,0,0,1-.43-.73c0-.8,0-1.6,0-2.4a.67.67,0,0,0-.25-.49C13,16.29,12.18,15.86,11.37,15.4Zm.29-6.71-.31.14c-2.55,1.37-5.1,2.75-7.66,4.1a.62.62,0,0,0-.39.65c0,2.83,0,5.65,0,8.47,0,.12,0,.24,0,.43.62-.33,1.17-.68,1.77-.93a1,1,0,0,0,.65-1.12c0-1.79,0-3.58,0-5.36a.72.72,0,0,1,.45-.73c1.71-.89,3.4-1.81,5.1-2.73.15-.08.35-.27.36-.41C11.67,10.39,11.66,9.58,11.66,8.69ZM31.47,27l-1.27.68c-3.13,1.67-6.25,3.33-9.37,5-.16.09-.36.27-.37.41,0,.84,0,1.69,0,2.54a.59.59,0,0,0,.18,0L31.23,29.9a.58.58,0,0,0,.23-.4C31.48,28.69,31.47,27.87,31.47,27Zm-2.87-6c0-.83,0-1.55,0-2.27a.71.71,0,0,0-.42-.74c-2.35-1.32-4.68-2.67-7-4l-.42-.2c0,.81,0,1.56,0,2.31a.66.66,0,0,0,.39.66c1.55.86,3.08,1.75,4.62,2.63Zm-8.3-7.27-5.72,3.1a.38.38,0,0,0-.21.27c0,.83,0,1.67,0,2.57,2-1.05,3.86-2.05,5.75-3.07a.4.4,0,0,0,.18-.29C20.31,15.43,20.3,14.6,20.3,13.67Zm-3.25-2.12-5-2.86c0,.91,0,1.71,0,2.51a.52.52,0,0,0,.23.35c.67.41,1.34.81,2,1.18a.57.57,0,0,0,.46,0C15.53,12.38,16.24,12,17.05,11.55Zm14.42,5.36-2.28,1.22a.33.33,0,0,0-.14.26c0,.83,0,1.65,0,2.56.81-.44,1.56-.84,2.31-1.26a.31.31,0,0,0,.12-.23C31.48,18.64,31.47,17.82,31.47,16.91Z"/>
      <path d="M26.23,26.59,14.58,20c.85-.45,1.63-.89,2.43-1.28a.76.76,0,0,1,.58.09c2.3,1.3,4.58,2.62,6.86,3.93l6.45,3.69.32.21-3.35,1.79C25.45,29.71,23,31,20.62,32.3a.71.71,0,0,1-.81,0q-8-4.61-15.94-9.18a3.63,3.63,0,0,1-.34-.22c.8-.43,1.55-.85,2.33-1.23.12-.06.35.07.5.16q6.71,3.84,13.38,7.7a1,1,0,0,0,1.15,0c1.58-.87,3.18-1.7,4.77-2.54C25.82,26.89,26,26.78,26.23,26.59Z" fill="#ffff49"/>
      <path d="M11.53,15l4.81-2.58c.36-.19.72-.38,1.07-.58s.39-.35,0-.58L13.3,8.89a12.07,12.07,0,0,0-1.11-.62.91.91,0,0,0-.67,0q-4,2.12-8,4.29a.74.74,0,0,1-.84,0c-.64-.4-1.3-.76-2-1.18l1.43-.78,9.37-5a.7.7,0,0,1,.77,0L31,16.4l.2.15c-.78.41-1.51.82-2.26,1.18-.13.06-.36-.05-.51-.13-2.51-1.43-5-2.85-7.51-4.3a.75.75,0,0,0-.85,0c-1.83,1-3.67,2-5.5,3a.77.77,0,0,1-.89,0C13,15.83,12.32,15.45,11.53,15Z" fill="#ffff49"/>
      <path d="M.45,11.74c.78.46,1.52.87,2.23,1.32.12.07.16.35.16.53,0,3,0,5.93,0,8.89a.78.78,0,0,0,.45.78L19.6,32.63a.67.67,0,0,1,.4.69c0,.75,0,1.5,0,2.34l-1.8-1L.79,24.71c-.22-.13-.39-.24-.39-.56,0-4.06,0-8.13,0-12.19C.41,11.92.43,11.87.45,11.74Z" fill="#ffff49"/>
      <path d="M11.37,15.4c.81.46,1.58.89,2.32,1.35a.67.67,0,0,1,.25.49c0,.8,0,1.6,0,2.4a.7.7,0,0,0,.43.73q5.28,3,10.56,6l.47.28L22.72,28c-.08,0-.24,0-.34-.07Q17,24.87,11.56,21.77a.54.54,0,0,1-.23-.39c0-1.93,0-3.86,0-5.79A.88.88,0,0,1,11.37,15.4Z" fill="#ffff49"/>
      <path d="M11.66,8.69c0,.89,0,1.7,0,2.51,0,.14-.21.33-.36.41-1.7.92-3.39,1.84-5.1,2.73a.72.72,0,0,0-.45.73c0,1.78,0,3.57,0,5.36a1,1,0,0,1-.65,1.12c-.6.25-1.15.6-1.77.93,0-.19,0-.31,0-.43,0-2.82,0-5.64,0-8.47a.62.62,0,0,1,.39-.65c2.56-1.35,5.11-2.73,7.66-4.1Z" fill="#ffff49"/>
      <path d="M31.47,27c0,.9,0,1.72,0,2.53a.58.58,0,0,1-.23.4L20.62,35.58a.59.59,0,0,1-.18,0c0-.85,0-1.7,0-2.54,0-.14.21-.32.37-.41,3.12-1.68,6.24-3.34,9.37-5Z" fill="#ffff49"/>
      <path d="M28.6,20.94l-2.86-1.62c-1.54-.88-3.07-1.77-4.62-2.63a.66.66,0,0,1-.39-.66c0-.75,0-1.5,0-2.31l.42.2c2.34,1.34,4.67,2.69,7,4a.71.71,0,0,1,.42.74C28.57,19.39,28.6,20.11,28.6,20.94Z" fill="#ffff49"/>
      <path d="M20.3,13.67c0,.93,0,1.76,0,2.58a.4.4,0,0,1-.18.29c-1.89,1-3.78,2-5.75,3.07,0-.9,0-1.74,0-2.57a.38.38,0,0,1,.21-.27Z" fill="#ffff49"/>
      <path d="M17.05,11.55c-.81.44-1.52.83-2.25,1.2a.57.57,0,0,1-.46,0c-.69-.37-1.36-.77-2-1.18a.52.52,0,0,1-.23-.35c0-.8,0-1.6,0-2.51Z" fill="#ffff49"/>
      <path d="M31.47,16.91c0,.91,0,1.73,0,2.55a.31.31,0,0,1-.12.23c-.75.42-1.5.82-2.31,1.26,0-.91,0-1.73,0-2.56a.33.33,0,0,1,.14-.26Z" fill="#ffff49"/>
      <g>
        <path d="M34.64,14.8A5.09,5.09,0,0,1,30.07,12a5,5,0,0,1,.2-5.16c.1-.18.18-.18.35-.08L34.38,9a.47.47,0,0,0,.55,0c1.24-.73,2.5-1.45,3.74-2.19.19-.11.26-.07.37.1a5.17,5.17,0,0,1-3.7,7.86Z" fill="#00a2fd"/>
        <path d="M34.65,0c.76,1.18,1.49,2.32,2.21,3.46.45.69.88,1.38,1.33,2.07.11.16.08.23-.08.32-1.1.63-2.19,1.27-3.29,1.92a.3.3,0,0,1-.34,0L31.17,5.83c-.11-.06-.18-.1-.09-.25C32.27,3.74,33.44,1.89,34.65,0Zm0,1.53-.08.12L32.19,5.32c-.08.13,0,.17.09.23l2.22,1.3a.28.28,0,0,0,.34,0l1.75-1c.19-.12.5-.21.54-.37s-.19-.37-.31-.56c-.67-1.06-1.35-2.11-2-3.16C34.76,1.65,34.74,1.57,34.63,1.53Z" fill="#009ff9"/>
      </g>
    </symbol>
  </defs>
  <rect id="Figment_lido" x="-1.22" y="-1.06" width="252.5" height="252.5" transform="translate(-0.16 250.22) rotate(-90)" fill="#fff"/>
  <use width="39.83" height="36.19" transform="translate(39.72 47.51) scale(4.28)" xlink:href="#Chainsafe"/>
</svg>
