<svg id="Capa_1" data-name="Capa 1" xmlns="http://www.w3.org/2000/svg" xmlns:xlink="http://www.w3.org/1999/xlink" width="250" height="250" viewBox="0 0 250 250">
  <defs>
    <symbol id="Consensyscodefi" data-name="Consensyscodefi" viewBox="0 0 23.32 24.19">
      <path d="M17.58,17.29a.94.94,0,0,1-.55.41l-.16,0,.05.1c0,.34-.08.65-.48.7-.23,0-.27.15-.31.34s-.13.32-.2.32c-.67,0-.81,1-1.57.88,0,0,0,.11-.06.18-.23.14-.43.34-.73.23s-.28,0-.33.12.06.21.17.24.24.29.37,0a.55.55,0,0,1,.54-.33c.16.05.33.34.47-.08a.42.42,0,0,1,.62-.23.48.48,0,0,1,.22.57c-.12.28-.37.3-.63.18l-.18-.09c-.09.82-.91.33-1.25.7a.64.64,0,0,1-.68.16c-.1-.21-.46-.29-.22-.66.13-.21-.14-.2-.41-.23.63.43.36.77,0,1.1-.09.09-.24.14-.3.06-.26-.35-.7-.08-.82-.15-.56-.35-1.26.21-1.73-.34-.19-.22-.4-.07-.55,0s0,.25.05.39c0,.33.21.16.37.12.53-.14.58.26.64.68a3.38,3.38,0,0,1,.35-.3.39.39,0,0,1,.47.63.34.34,0,0,1-.54-.05c-.16-.28-.27-.33-.61-.19-.5.2-.59-.23-.6-.63-.4.07-.84.48-1-.2,0-.16-.17-.09-.27-.08s-.32,0-.32,0c-.17-.65-1.13-.46-1.23-1.16,0-.19-.16-.17-.29-.21A.56.56,0,0,1,5.35,20c0-.15,0-.26-.2-.31a.58.58,0,0,1-.47-.71c0-.26-.19-.28-.33-.36s-.15.1-.18.18-.26.35.1.45a.39.39,0,0,1,.26.49c-.06.25,0,.36.23.49s.08.59,0,.89v0c-.42-.07-.85-.14-.6-.75a.23.23,0,0,0,0-.12c-.84,0-.44-.93-.92-1.22a.41.41,0,0,1-.1-.55c.11-.21.07-.31-.12-.43a.5.5,0,0,1-.17-.66c0-.09.11-.19.09-.25a3.58,3.58,0,0,1-.1-2.29c.07-.38-.14-.81.25-1.14.07-.05,0-.23-.12-.27s-.25,0-.27.21a4.15,4.15,0,0,1-.64,1.8c-.13.2.09.27.11.41a.48.48,0,0,1-.24.58.43.43,0,0,1-.55-.1.41.41,0,0,1,0-.61c.19-.18.27-.33.07-.55,0,0-.07-.17-.05-.18.6-.39.06-1.13.52-1.64.29-.33.37-.9.66-1.33.16-.23.93-1.39,1.14-1.58.35-.34.59-.8,1.11-1a.18.18,0,0,0,0-.29c-.12-.11-.17,0-.27.08-.54.23-.89.79-1.51.89-.08,0-.22.09-.21.14,0,.6-.84.6-.78,1.21,0,.07-.2.22-.31.22-.33,0-.34.11-.25.39a.35.35,0,0,1-.32.49.37.37,0,0,1-.47-.28.38.38,0,0,1,.3-.52c.36,0,.4-.13.23-.42a.29.29,0,0,1,0-.26c.43-.26.54-.78.85-1.09.48-.49,1-1,1.51-1.41a3.09,3.09,0,0,1,1.14-.69c.56-.09,1-.44,1.52-.58A5.24,5.24,0,0,0,8,6.91c.26-.17.54,0,.82,0C7.93,6.45,7,6.86,6.12,6.8a1.51,1.51,0,0,0-1.4.5c-.15.23-.46.06-.69,0H4c-.17-.54-.09-.93.59-.83.22,0,.27,0,.34-.19S5.14,6,5.19,6c.62.2,1-.54,1.67-.37a3.17,3.17,0,0,0,1.28-.15c.7-.17,1.31.26,2,.07.28.39.72.23,1.09.3.31.55,1,.56,1.44.89a6.28,6.28,0,0,1,2.46,3,4.22,4.22,0,0,1-.34,4.11c-.12.18-.24.47-.47.42s-.12-.38-.15-.58a3.47,3.47,0,0,0-1.64-2.54A3.9,3.9,0,0,0,8.38,11a3.7,3.7,0,0,0-2,2.53,4.43,4.43,0,0,0,0,2.34,4.45,4.45,0,0,0,1.3,1.93,5.26,5.26,0,0,0,2.2,1,1.93,1.93,0,0,0,1.32,0,5.25,5.25,0,0,1,1.39-.23,4.66,4.66,0,0,0,2.23-1.32,5.07,5.07,0,0,0,1.38-2.06c.16-.41.23-1,.35-1.46s-.29-1.13.18-1.58c.08-.08.07-.14,0-.21s-.14-.09-.15-.14a8.3,8.3,0,0,0-.29-1.55c-.06-.2,0-.36-.24-.49a.39.39,0,0,1-.08-.64.39.39,0,0,1,.55-.06c.28.19.24.4,0,.61a.74.74,0,0,0-.14.2c.49.11,1,.2.64.89-.14.32.39.3.45.56s-.38.77.1,1.09c-.38.54.33,1.21-.22,1.73-.15.15,0,.28.08.42-.23.57-.19,1.25-.63,1.75-.08.09-.14.16-.11.28s.16.12.27.11C17.37,16.62,17.55,16.87,17.58,17.29ZM8.45,21.35c-.09-.13-.12-.34-.34-.33s-.15.13-.11.24,0,.34.25.29C8.34,21.53,8.48,21.53,8.45,21.35Z" fill="#f3f5fb"/>
      <path d="M4,7.27c-.16.49-.4.81-1,.47C2.92,7.86,3,8,3,8.13a.37.37,0,0,1-.44.32.33.33,0,0,1-.31-.37.36.36,0,0,1,.45-.37c.14,0,.3.24.38-.12.16-.73.29-.76,1-.31Z" fill="#f3f5fb"/>
      <path d="M2.27,18.12a.37.37,0,0,1-.36.4.36.36,0,0,1-.44-.37.37.37,0,0,1,.42-.41A.38.38,0,0,1,2.27,18.12Z" fill="#f3f5fb"/>
      <path d="M2.19,17c0,.3-.15.48-.4.5a.4.4,0,0,1-.47-.38.42.42,0,0,1,.43-.5C2,16.59,2.13,16.79,2.19,17Z" fill="#f3f5fb"/>
      <path d="M5.62,21.9c-.57,0-.88-.23-.81-.84h0c.6-.15.87.15.94.7h0c-.06,0-.1-.12-.15,0a.48.48,0,0,0,0,.17Z" fill="#f3f5fb"/>
      <path d="M12,22.88c-.06.22-.15.45-.39.49s-.31-.24-.36-.41.09-.39.32-.43S11.9,22.65,12,22.88Z" fill="#f3f5fb"/>
      <path d="M15.67,8.05a.39.39,0,0,1,.42.36.36.36,0,0,1-.38.44.37.37,0,0,1-.41-.41A.38.38,0,0,1,15.67,8.05Z" fill="#f3f5fb"/>
      <path d="M5.74,21.77c0,.11.14.09.22.09.27,0,.43.14.42.4a.34.34,0,0,1-.4.35c-.28,0-.38-.19-.36-.46a2.09,2.09,0,0,0,0-.25v0c.12,0,.21,0,.15-.15Z" fill="#f3f5fb"/>
      <path d="M12.44,23.23l-.12-.12L12.27,23a.06.06,0,0,0,0-.09l.28-.34a.46.46,0,0,1,.52.45A.55.55,0,0,1,12.44,23.23Z" fill="#f3f5fb"/>
      <path d="M.78,12.79a.37.37,0,1,1-.07.74.33.33,0,0,1-.32-.36A.35.35,0,0,1,.78,12.79Z" fill="#f3f5fb"/>
      <path d="M2.13,18.82a.34.34,0,0,1,.36.37.32.32,0,0,1-.33.35.31.31,0,0,1-.36-.3A.34.34,0,0,1,2.13,18.82Z" fill="#f3f5fb"/>
      <path d="M15,7.21c.27,0,.4.16.38.4a.32.32,0,0,1-.36.32.33.33,0,0,1-.36-.32A.34.34,0,0,1,15,7.21Z" fill="#f3f5fb"/>
      <path d="M7.21,22.9a.35.35,0,0,1-.32.36.32.32,0,0,1-.38-.36.3.3,0,0,1,.34-.32A.35.35,0,0,1,7.21,22.9Z" fill="#f3f5fb"/>
      <path d="M.1,14.24c0-.2.1-.35.33-.36a.29.29,0,0,1,.32.27.3.3,0,0,1-.27.39C.27,14.57.16,14.43.1,14.24Z" fill="#f3f5fb"/>
      <path d="M2.13,8.84a.3.3,0,0,1-.32.3.32.32,0,0,1,0-.64A.3.3,0,0,1,2.13,8.84Z" fill="#f3f5fb"/>
      <path d="M14.26,7.12A.31.31,0,0,1,14,6.76a.32.32,0,0,1,.36-.31.32.32,0,0,1,.31.36C14.61,7,14.46,7.11,14.26,7.12Z" fill="#f3f5fb"/>
      <path d="M8.09,23.52c0,.17-.12.29-.31.28s-.31-.16-.28-.37a.26.26,0,0,1,.33-.25A.29.29,0,0,1,8.09,23.52Z" fill="#f3f5fb"/>
      <path d="M13.45,23c0-.51.18-.59.6-.38C14.07,23.06,13.92,23.27,13.45,23Z" fill="#f3f5fb"/>
      <path d="M13.74,6.15a.31.31,0,1,1-.27-.33C13.65,5.83,13.74,6,13.74,6.15Z" fill="#f3f5fb"/>
      <path d="M.3,15.56c-.21,0-.32-.11-.3-.3A.27.27,0,0,1,.25,15a.27.27,0,0,1,.31.28C.58,15.46.45,15.54.3,15.56Z" fill="#f3f5fb"/>
      <path d="M2.55,19.88c.22.06.35.18.3.39a.3.3,0,0,1-.34.26.31.31,0,0,1-.28-.39A.32.32,0,0,1,2.55,19.88Z" fill="#f3f5fb"/>
      <path d="M9.06,23.89c0,.18-.09.3-.27.3a.26.26,0,0,1-.29-.28.25.25,0,0,1,.24-.26C8.92,23.63,9,23.7,9.06,23.89Z" fill="#f3f5fb"/>
      <path d="M14.49,22.59c.07-.23.18-.44.46-.29s.15.32,0,.49A.5.5,0,0,1,14.49,22.59Z" fill="#f3f5fb"/>
      <path d="M3.35,21.12c0,.2-.1.32-.27.33a.28.28,0,0,1-.29-.29A.26.26,0,0,1,3,20.89.27.27,0,0,1,3.35,21.12Z" fill="#f3f5fb"/>
      <path d="M12.79,5.55c0,.17-.13.29-.32.28a.28.28,0,0,1,0-.56A.29.29,0,0,1,12.79,5.55Z" fill="#f3f5fb"/>
      <path d="M18.46,9.76a.45.45,0,0,1-.33.39c-.19-.1-.37-.23-.2-.46S18.3,9.59,18.46,9.76Z" fill="#f3f5fb"/>
      <path d="M1.36,9.66a.26.26,0,0,1-.27.24C.9,9.9.82,9.78.84,9.59s.13-.22.28-.2S1.35,9.5,1.36,9.66Z" fill="#f3f5fb"/>
      <path d="M18.12,15.67c-.48-.05-.52-.4-.52-.78.29-.07.61-.28.83.1S18.39,15.52,18.12,15.67Z" fill="#f3f5fb"/>
      <path d="M18.36,14.57a.4.4,0,0,1-.42-.42.37.37,0,0,1,.39-.39.36.36,0,0,1,.41.41A.38.38,0,0,1,18.36,14.57Z" fill="#f3f5fb"/>
      <path d="M17.59,16.68c-.4-.11-.6-.38-.35-.73s.57-.22.83.06C18.11,16.38,18,16.64,17.59,16.68Z" fill="#f3f5fb"/>
      <path d="M16.61,19.74a1.92,1.92,0,0,0,0,.24c0,.32-.14.48-.44.47a.35.35,0,0,1-.36-.46.38.38,0,0,1,.57-.29.93.93,0,0,0,.24,0Z" fill="#f3f5fb"/>
      <path d="M18.51,13.46c-.22,0-.38-.16-.37-.4a.36.36,0,0,1,.4-.36.35.35,0,0,1,.34.36A.39.39,0,0,1,18.51,13.46Z" fill="#f3f5fb"/>
      <path d="M18.54,12.32c-.22,0-.36-.14-.35-.35a.34.34,0,0,1,.68,0A.33.33,0,0,1,18.54,12.32Z" fill="#f3f5fb"/>
      <path d="M16.62,19.74c.27-.06.05-.24.09-.37s.2-.35.43-.31a.34.34,0,0,1,.3.44c-.05.24-.23.29-.46.28s-.22-.27-.37,0Z" fill="#f3f5fb"/>
      <path d="M18.21,18.69c-.05.19-.16.34-.37.32a.31.31,0,0,1-.31-.36c0-.22.14-.32.35-.31A.32.32,0,0,1,18.21,18.69Z" fill="#f3f5fb"/>
      <path d="M18.53,17.51c.18,0,.3.08.31.27a.3.3,0,1,1-.6,0A.27.27,0,0,1,18.53,17.51Z" fill="#f3f5fb"/>
      <path d="M18.15,10.66c.26-.07.52-.14.55.25a.24.24,0,0,1-.29.29c-.39,0-.31-.3-.25-.55Z" fill="#f3f5fb"/>
      <path d="M19.09,16.59c.23,0,.3.16.28.33a.25.25,0,0,1-.27.23.26.26,0,0,1-.28-.29A.27.27,0,0,1,19.09,16.59Z" fill="#f3f5fb"/>
      <g>
        <path d="M20.55,7.91a2.74,2.74,0,0,1-2.44-1.5,2.67,2.67,0,0,1,.1-2.75c.06-.1.1-.1.19-.05l2,1.18a.24.24,0,0,0,.29,0l2-1.17c.1-.06.14,0,.2,0a2.77,2.77,0,0,1-2,4.2Z" fill="#fff"/>
        <path d="M20.56,0l1.18,1.85c.23.37.46.74.71,1.1.06.09,0,.13-.05.18l-1.75,1a.15.15,0,0,1-.18,0l-1.77-1c-.06,0-.1-.06-.05-.14Zm0,.82L20.5.88l-1.26,2c0,.07,0,.09.05.12l1.19.7a.17.17,0,0,0,.18,0l.93-.55c.1-.06.27-.11.29-.19s-.1-.2-.17-.3C21.35,2,21,1.48,20.63.92,20.61.88,20.6.84,20.55.82Z" fill="#fff"/>
      </g>
    </symbol>
  </defs>
  <rect id="Figment_lido" x="-1.22" y="-1.06" width="252.5" height="252.5" transform="translate(-0.16 250.22) rotate(-90)" fill="#2143bf"/>
  <use width="23.32" height="24.19" transform="translate(42.16 39.06) scale(7.1)" xlink:href="#Consensyscodefi"/>
</svg>
