<svg id="Capa_1" data-name="Capa 1" xmlns="http://www.w3.org/2000/svg" xmlns:xlink="http://www.w3.org/1999/xlink" width="250" height="250" viewBox="0 0 250 250">
  <defs>
    <symbol id="Cryptomanufaktur" data-name="Cryptomanufaktur" viewBox="0 0 16.39 15.98">
      <path d="M6.1,4.12V2.21a1.27,1.27,0,0,1,0-.2c0-.28.22-.35.44-.18l1.17,1,4,3.24c.28.24.29.34,0,.58-.78.65-1.57,1.29-2.35,2a.38.38,0,0,1-.56,0C7.94,7.88,7.1,7.2,6.29,6.51a.65.65,0,0,1-.18-.43C6.09,5.43,6.1,4.78,6.1,4.12Z" fill="#fff"/>
      <path d="M6.1,13.62c0-.62,0-1.24,0-1.86a.66.66,0,0,1,.27-.6c.81-.65,1.61-1.31,2.41-2a.36.36,0,0,1,.52,0l2.43,2c.2.17.19.31,0,.49L7.86,14.82c-.43.35-.85.71-1.28,1-.08.07-.24.14-.31.1a.43.43,0,0,1-.16-.31c0-.68,0-1.36,0-2Z" fill="#fff"/>
      <path d="M6,4.12c0,.66,0,1.32,0,2a.53.53,0,0,1-.23.46l-2.42,2a.37.37,0,0,1-.56,0C2,7.9,1.17,7.25.38,6.59c-.24-.19-.24-.32,0-.51L4,3.13c.51-.42,1-.85,1.54-1.26.09-.06.26-.13.33-.09A.48.48,0,0,1,6,2.1c0,.68,0,1.35,0,2Z" fill="#fff"/>
      <path d="M6,13.63c0,.67,0,1.34,0,2a.48.48,0,0,1-.14.32c-.08,0-.25,0-.33-.1l-4.9-4c-.51-.43-.51-.43,0-.86L2.76,9.19a.37.37,0,0,1,.55,0c.83.69,1.67,1.37,2.5,2.07a.53.53,0,0,1,.14.35c0,.67,0,1.35,0,2Z" fill="#fff"/>
      <path d="M8.82,8.89a1.55,1.55,0,0,1-.19.23L6.29,11.05a.34.34,0,0,1-.49,0L3.49,9.17c-.27-.23-.27-.34,0-.57L5.82,6.68a.3.3,0,0,1,.42,0l2.42,2A1.28,1.28,0,0,1,8.82,8.89Z" fill="#a2caed"/>
      <path d="M0,8.88C0,8.29,0,7.7,0,7.1a.4.4,0,0,1,.16-.31c.06,0,.23,0,.31.08C1.2,7.45,1.92,8,2.63,8.64c.23.19.23.29,0,.47-.73.61-1.46,1.21-2.2,1.8A.31.31,0,0,1,.15,11,.35.35,0,0,1,0,10.69c0-.6,0-1.21,0-1.81Z" fill="#fff"/>
      <g>
        <path d="M14.2,6.24a2.15,2.15,0,0,1-1.93-1.18,2.12,2.12,0,0,1,.09-2.17c0-.08.07-.08.14,0,.53.32,1.06.62,1.59.93a.18.18,0,0,0,.23,0l1.58-.92c.08,0,.11,0,.16,0A2.18,2.18,0,0,1,14.5,6.21C14.4,6.23,14.3,6.23,14.2,6.24Z" fill="#fff"/>
        <path d="M14.21,0l.93,1.46c.18.29.37.58.56.87,0,.07,0,.1,0,.14-.47.26-.93.53-1.39.81a.12.12,0,0,1-.14,0l-1.4-.81c-.05,0-.08,0,0-.11Zm0,.65,0,0-1,1.54c0,.06,0,.08,0,.1l.94.55a.12.12,0,0,0,.14,0L15,2.45c.08-.05.21-.09.23-.15s-.08-.16-.13-.24L14.27.72S14.24.66,14.2.65Z" fill="#fff"/>
      </g>
    </symbol>
  </defs>
  <rect id="Figment_lido" x="-1.22" y="-1.06" width="252.5" height="252.5" transform="translate(-0.16 250.22) rotate(-90)" fill="#0c5fd9"/>
  <use width="16.39" height="15.98" transform="translate(40.43 40.68) scale(10.49)" xlink:href="#Cryptomanufaktur"/>
</svg>
