<svg id="Capa_1" data-name="Capa 1" xmlns="http://www.w3.org/2000/svg" xmlns:xlink="http://www.w3.org/1999/xlink" width="250" height="250" viewBox="0 0 250 250">
  <defs>
    <symbol id="Cryptostake" data-name="Cryptostake" viewBox="0 0 34.19 38.84">
      <path d="M6.54,32.61c-.89-.47-1.74-1-2.59-1.54A21,21,0,0,0,2.29,29a4.7,4.7,0,0,1-.81-1.08,5.55,5.55,0,0,1,1-.62c.34.4.8.71.92,1.28-.08.24.1.32.26.41a2.13,2.13,0,0,1,.78.55,10.53,10.53,0,0,0,1.33,1.72c.27.37.61.69.85,1.08C6.7,32.4,6.9,32.62,6.54,32.61Z" fill="#e215e1"/>
      <path d="M6.62,23.29,3.88,21.7a.74.74,0,0,0-.26-.48c-.77-.89-1.49-1.82-2.28-2.7a.26.26,0,0,1-.08-.19v-1c.15-.27.28-.07.38,0,.31.33.59.69.89,1l.34.38c.1.13,0,.32.16.44a7.56,7.56,0,0,0,.93.58,1.07,1.07,0,0,1,.41.35,7.91,7.91,0,0,0,1.06,1.38c.31.4.66.77,1,1.18C6.52,22.86,6.73,23,6.62,23.29Z" fill="#c828e5"/>
      <path d="M33.36,20.5a7.84,7.84,0,0,1,0,1.37c-.21.08-.31-.09-.42-.21-.68-.77-1.34-1.56-2-2.37a.39.39,0,0,1-.08-.1,10.21,10.21,0,0,0-1.25-1.61c-.27-.36-.58-.68-.84-1-.08-.11-.27-.25,0-.36.59.37,1.24.62,1.8,1C31.57,18.28,32.45,19.4,33.36,20.5Z" fill="#587cf6"/>
      <path d="M6.54,32.61c.27-.08.06-.21,0-.27C6,31.64,5.41,31,4.85,30.26c-.19-.22-.45-.4-.46-.74a.29.29,0,0,1,.32.05c.71.42,1.42.82,2.12,1.25A.51.51,0,0,1,7,31a6.16,6.16,0,0,0,1,1.3c.34.43.71.85,1.07,1.27a.83.83,0,0,1,.24.4c0,.1,0,.22-.14.17C8.28,33.69,7.4,33.16,6.54,32.61Z" fill="#de18e2"/>
      <path d="M17.37,38.69a.39.39,0,0,1-.56.05c-.55-.36-1.12-.69-1.68-1-.65-.87-1.38-1.67-2.06-2.51-.16-.2-.41-.38-.27-.71a.2.2,0,0,1,.2,0,21.52,21.52,0,0,1,2.34,1.43,13.45,13.45,0,0,0,1.36,1.75c.19.23.37.47.58.68S17.47,38.55,17.37,38.69Z" fill="#d022e4"/>
      <path d="M32.52,11a6,6,0,0,1-.87.54,4.91,4.91,0,0,1-1-1.23c.16-.22.16-.36-.12-.51a1.89,1.89,0,0,1-.77-.51,6.75,6.75,0,0,0-1-1.32c-.36-.47-.78-.9-1.12-1.4-.07-.09-.32-.25,0-.4l1.71,1.05c1,1.08,1.86,2.23,2.8,3.34A3.31,3.31,0,0,1,32.52,11Z" fill="#3f8efa"/>
      <path d="M6.62,23.29a7.25,7.25,0,0,0-1.24-1.67c-.31-.4-.65-.78-1-1.17a.4.4,0,0,1-.08-.32.18.18,0,0,1,.2,0,9.92,9.92,0,0,1,1.81,1.12A7.72,7.72,0,0,0,7.5,22.8C8,23.41,8.48,24,9,24.6a.73.73,0,0,1,.23.44.69.69,0,0,1-.55.38,7.88,7.88,0,0,1-1.06-1.25c.15-.11.16-.19,0-.3C7.27,23.69,7,23.48,6.62,23.29Z" fill="#c32ce6"/>
      <path d="M21.44,2.53c.74.43,1.51.81,2.21,1.29a8.37,8.37,0,0,0,1.12,1.45c.29.38.61.73.9,1.1.11.14.26.29.12.49a.22.22,0,0,1-.21,0A12.42,12.42,0,0,1,23.5,5.58a6.35,6.35,0,0,0-1-1.31c-.35-.45-.74-.87-1.08-1.32C21.34,2.84,21.09,2.66,21.44,2.53Z" fill="#4987f8"/>
      <path d="M9.18,34.17c.23-.2,0-.32-.11-.41-.35-.45-.73-.88-1.1-1.31l-.9-1.08a.41.41,0,0,1-.1-.32.21.21,0,0,1,.24,0c.63.35,1.23.74,1.85,1.1a.34.34,0,0,1,.13.16,7.16,7.16,0,0,0,1.08,1.43c.34.43.72.84,1.06,1.28.09.12.31.29,0,.43A22.3,22.3,0,0,1,9.18,34.17Z" fill="#da1be2"/>
      <path d="M1.48,27.89c.54.62,1.08,1.24,1.61,1.87.29.33.55.68.82,1,.07.08.2.16,0,.28l-3-1.76L0,28.74Z" fill="#e612e0"/>
      <path d="M25.78,6.86c0-.37-.31-.57-.5-.81-.48-.62-1-1.2-1.51-1.8-.09-.11-.29-.23-.12-.43.57.33,1.14.64,1.7,1,.12.07.27.1.34.25a14.13,14.13,0,0,0,1.25,1.55c.28.36.59.69.87,1,.11.15.25.29.14.5A.57.57,0,0,1,27.51,8c-.52-.28-1-.61-1.54-.9A.28.28,0,0,1,25.78,6.86Z" fill="#458af9"/>
      <path d="M21.44,2.53c-.23.2,0,.32.1.41.48.6,1,1.17,1.48,1.78.2.25.53.45.54.83a.15.15,0,0,1-.2,0,13.17,13.17,0,0,1-1.93-1.19A12.7,12.7,0,0,0,20,2.54c-.23-.29-.49-.55-.69-.86-.08-.11-.23-.29.06-.36C20.07,1.71,20.78,2.07,21.44,2.53Z" fill="#4d84f7"/>
      <path d="M12.81,34.51c0,.48.45.71.7,1.05.43.59.94,1.13,1.41,1.69a.68.68,0,0,1,.21.46q-1.07-.57-2.07-1.23c-.51-.78-1.16-1.44-1.74-2.16l-.43-.54c-.1-.12-.18-.26-.05-.42a.16.16,0,0,1,.16,0A5.75,5.75,0,0,1,12.81,34.51Z" fill="#d41fe3"/>
      <path d="M27.94,8.13A4.94,4.94,0,0,0,26.89,6.7c-.34-.45-.74-.86-1.1-1.29-.08-.1-.22-.21-.1-.37a20.26,20.26,0,0,1,1.92,1.1c-.11.26.12.39.24.54.58.73,1.19,1.44,1.8,2.16a.48.48,0,0,1,.18.41.26.26,0,0,1-.21,0c-.54-.29-1.08-.6-1.6-.94C28,8.26,27.91,8.21,27.94,8.13Z" fill="#428cf9"/>
      <path d="M32.52,11a.42.42,0,0,1-.32-.18L29.35,7.31s0-.08,0-.12a13.54,13.54,0,0,1,2.07,1.16c.45.66,1,1.23,1.5,1.86a.75.75,0,0,1,.22.41A1.85,1.85,0,0,1,32.52,11Z" fill="#3d90fa"/>
      <path d="M1.32,17.23v1.21a2.48,2.48,0,0,1,0,1.72.76.76,0,0,1,0-.42c0-3.4,0-6.79,0-10.19,0-.2-.1-.43.11-.59a11.66,11.66,0,0,1,1.17,1.27c.6.55.45,1.19.33,1.85-.24.13-.36-.07-.49-.21-.34-.4-.66-.82-1-1.19,0,0-.09,0,0,0s0,0,0,0a5,5,0,0,1,.08,1.22c0,.46,0,.92,0,1.37s0,.85,0,1.27,0,.58,0,.87,0,.69,0,1A1.38,1.38,0,0,1,1.32,17.23Z" fill="#af3be9"/>
      <path d="M10.85,33.35a.47.47,0,0,0,.18.44c.67.8,1.33,1.61,2,2.42.07.08.2.15,0,.27a14.22,14.22,0,0,1-1.72-1c.21-.2-.05-.32-.13-.41-.47-.6-1-1.17-1.46-1.77-.23-.29-.59-.51-.62-.94a.26.26,0,0,1,.28,0c.44.26.88.51,1.31.79A.25.25,0,0,1,10.85,33.35Z" fill="#d71de3"/>
      <path d="M31,19.21l2,2.4a.8.8,0,0,0,.32.26,5.24,5.24,0,0,1,0,1.12c-.18.12-.3,0-.39-.13-.37-.45-.75-.88-1.12-1.32-.13-.2,0-.46-.15-.65-.13,0-.23.11-.36.11a2.08,2.08,0,0,1-1-1.25C30.45,19.45,30.76,19.37,31,19.21Z" fill="#5c79f5"/>
      <path d="M19.38,1.32c-.24.2,0,.32.1.41.47.6,1,1.18,1.47,1.77a1.91,1.91,0,0,1,.54.85.33.33,0,0,1-.32-.06,6.55,6.55,0,0,1-1.47-.94A7.05,7.05,0,0,0,18.65,2c-.33-.41-.68-.81-1-1.22-.09-.11-.33-.29,0-.44C18.19.69,18.84.91,19.38,1.32Z" fill="#5081f7"/>
      <path d="M17.64.3c-.17.18,0,.29.09.4.6.73,1.22,1.46,1.83,2.18a.73.73,0,0,1,.21.46.22.22,0,0,1-.21,0,14.43,14.43,0,0,1-1.91-1.18,9.65,9.65,0,0,0-1-1.36c-.1-.15-.27-.28-.12-.49C17.06-.1,17.06-.1,17.64.3Z" fill="#5380f7"/>
      <path d="M26.56,14.56c-.09,0-.21,0-.23.15s.12.09.19.13c.3.19.61.37.92.55a22.46,22.46,0,0,0,1.49,1.86l.52.63c.11.13.25.28.13.49a2,2,0,0,1-1.27-.66,6.54,6.54,0,0,0-1.09-1.42c-.61-.75-1.22-1.51-1.87-2.24a.64.64,0,0,1-.21-.45.4.4,0,0,1,.46-.28A2.56,2.56,0,0,1,26.56,14.56Z" fill="#5d78f5"/>
      <path d="M1.29,20.16l0-1.72c.3,0,.37.33.53.51.7.82,1.38,1.66,2.07,2.49.07.09.22.2,0,.26A26,26,0,0,1,1.29,20.16Z" fill="#cc25e4"/>
      <path d="M33.36,20.5c-.42-.22-.63-.64-.93-1-.58-.66-1.13-1.35-1.68-2a1.1,1.1,0,0,1-.14-.26l2.6,1.46a.32.32,0,0,1,.18.31Z" fill="#537ff7"/>
      <path d="M29.56,18.39c0-.45-.39-.65-.61-.94-.43-.59-.92-1.12-1.39-1.67a.43.43,0,0,1-.12-.39,14.4,14.4,0,0,1,1.37.8c-.09.06-.09.13,0,.21.62.74,1.23,1.47,1.86,2.2a.87.87,0,0,1,.3.58s-.07.07-.11.05A3.44,3.44,0,0,1,29.56,18.39Z" fill="#5a7af5"/>
      <path d="M2.83,12.08c0-.39,0-.77,0-1.15s-.42-.57-.61-.87S1.61,9.37,1.37,9a2.76,2.76,0,0,1,.71-.4c.49.12.63.61.94.92a.43.43,0,0,1,.1.44,3.24,3.24,0,0,0-.05.76v7.93c0,.24.05.49-.16.68-.12-.15,0-.34-.08-.51A1.4,1.4,0,0,1,2.72,18c0-.34,0-.68,0-1s0-.64,0-1,0-.8,0-1.2,0-1,0-1.45A3,3,0,0,1,2.83,12.08Z" fill="#aa3ee9"/>
      <path d="M33.36,29c.17.55-.21.71-.6.86s-.4-.28-.56-.46-.53-.48-.53-.87c0-1.32,0-2.63,0-3.94a1.13,1.13,0,0,1,.09-.63c.24-.09.19.12.24.22a10.11,10.11,0,0,1,0,1.1v1.06A1.72,1.72,0,0,0,32.54,28,4.23,4.23,0,0,1,33.36,29Z" fill="#7268f2"/>
      <path d="M31.91,24.19l-.06-.26c-.14-.05-.16-.19-.16-.31a25.31,25.31,0,0,1,0-2.89c.15-.08.17,0,.17.13s0,.45,0,.67a.55.55,0,0,1,.09.33,1.67,1.67,0,0,0,.62,1.54c.27.27.49.59.74.88a7.84,7.84,0,0,1,0,1.37c-.31,0-.43-.24-.58-.41Q32.33,24.72,31.91,24.19Z" fill="#6373f4"/>
      <path d="M17.37,38.69c-.32-.53-.8-.94-1.16-1.45s-.77-.71-.9-1.25c.1-.1.19,0,.26,0,.5.3,1,.57,1.51.9A6.45,6.45,0,0,1,18,38c.07.1.16.2.06.34A3.18,3.18,0,0,1,17.37,38.69Z" fill="#cb25e4"/>
      <path d="M33.11,10.62c-.52-.62-1-1.23-1.55-1.85a.59.59,0,0,1-.17-.42L34.19,10A6.14,6.14,0,0,1,33.11,10.62Z" fill="#3992fa"/>
      <path d="M16.51.32c.08.51.54.77.81,1.16a3.3,3.3,0,0,1,.39.65s-.09.05-.12,0a1.12,1.12,0,0,0-1.08,0,2.05,2.05,0,0,1-1-1.26A6.22,6.22,0,0,1,16.51.32Z" fill="#587cf6"/>
      <path d="M33.36,24.28c-.43-.11-.52-.58-.83-.81,0,0,0-.09-.07-.11-.68-.46-.6-1.15-.55-1.83a6.56,6.56,0,0,1,1,1.14c.11.14.21.31.42.32A7,7,0,0,1,33.36,24.28Z" fill="#5f77f5"/>
      <path d="M4,26.39l.8-.48a.25.25,0,0,1,.34,0A2.76,2.76,0,0,1,5.91,27a1.39,1.39,0,0,1-1,.64A2.34,2.34,0,0,1,4,26.39Z" fill="#d61de3"/>
      <path d="M30.69,10.26l.72.86c.1.12.24.21.24.39a4.72,4.72,0,0,1-.84.49s-.1.05-.12,0a2,2,0,0,1-.93-1.23A1.21,1.21,0,0,1,30.69,10.26Z" fill="#438bf8"/>
      <path d="M33.36,29A10.73,10.73,0,0,1,32,27.47c-.23-.24-.05-.74-.05-1.13a.27.27,0,0,1,.3.1,15,15,0,0,1,1.15,1.36A6,6,0,0,1,33.36,29Z" fill="#6e6cf3"/>
      <path d="M19.86,37.24a2.42,2.42,0,0,1-.94.52,9.45,9.45,0,0,1-1.06-1.13,1.54,1.54,0,0,1,1-.63A3.46,3.46,0,0,1,19.86,37.24Z" fill="#c22ce5"/>
      <path d="M31.91,24.19c.42.13.54.56.82.84a4.61,4.61,0,0,0,.63.62,4.44,4.44,0,0,1,0,1c-.27.13-.38-.1-.5-.25l-.95-1.12Z" fill="#6771f4"/>
      <path d="M31.91,25.31c.45.16.61.63.92.94s.27.4.53.43a5.24,5.24,0,0,1,0,1.12,8.91,8.91,0,0,1-1.16-1.22,1.17,1.17,0,0,0-.3-.24C31.91,26,31.91,25.65,31.91,25.31Z" fill="#6b6ef3"/>
      <path d="M29.83,10.78a2.41,2.41,0,0,0,1,1.22,3.79,3.79,0,0,1-.86.52s-.07,0-.08,0a2.1,2.1,0,0,1-1-1.23A1.15,1.15,0,0,1,29.83,10.78Z" fill="#4887f8"/>
      <path d="M27.66,13.88a2.76,2.76,0,0,1-.86.51,2.29,2.29,0,0,1-1-1.2,1.6,1.6,0,0,1,.87-.54A6.36,6.36,0,0,1,27.66,13.88Z" fill="#587cf6"/>
      <path d="M17.86,36.64a3,3,0,0,1,1.06,1.12,3.33,3.33,0,0,1-.86.53A4.72,4.72,0,0,0,17,37C17.28,36.83,17.5,36.57,17.86,36.64Z" fill="#c828e5"/>
      <path d="M4,26.39a11.45,11.45,0,0,0,1,1.22,1.1,1.1,0,0,1-.86.57c-.31-.44-.7-.8-1-1.26A6,6,0,0,1,4,26.39Z" fill="#db1ae2"/>
      <path d="M5.87,27.06c-.32-.43-.52-1-1.12-1.15a4.08,4.08,0,0,1,.85-.51c.05,0,.12-.07.16,0a2.86,2.86,0,0,1,.92,1.23A1,1,0,0,1,5.87,27.06Z" fill="#d121e3"/>
      <path d="M12,2.91l.67-.38c.13,0,.19.05.24.12a4.51,4.51,0,0,1,.84,1.11,1.21,1.21,0,0,1-.81.47,2.9,2.9,0,0,1-1-1.08A.19.19,0,0,1,12,2.91Z" fill="#6c6cf2"/>
      <path d="M27.66,13.88a5.44,5.44,0,0,1-1-1.18,1,1,0,0,1,.77-.49,2.43,2.43,0,0,1,1,1.25A2.61,2.61,0,0,1,27.66,13.88Z" fill="#537ff6"/>
      <path d="M6.36,24.94A2.62,2.62,0,0,1,7,24.53a.12.12,0,0,1,.16,0,2.87,2.87,0,0,1,.92,1.2,1,1,0,0,1-.8.47A2.8,2.8,0,0,1,6.36,24.94Z" fill="#ca26e4"/>
      <path d="M29,11.29a3.17,3.17,0,0,0,1,1.23,5.27,5.27,0,0,1-.88.53,7.93,7.93,0,0,1-.82-.92.33.33,0,0,1,0-.44A1,1,0,0,1,29,11.29Z" fill="#4c85f7"/>
      <path d="M31.29,30.71a2.61,2.61,0,0,1-.65.37c-.06,0-.13.05-.17,0-.38-.34-.82-.65-.86-1.23a.89.89,0,0,1,.71-.42A2.35,2.35,0,0,1,31.29,30.71Z" fill="#7f5ef0"/>
      <path d="M5.25,6.75a2,2,0,0,1,.6-.34s.09-.06.12,0a2.61,2.61,0,0,1,1,1.25,1,1,0,0,1-.82.46c-.28-.31-.53-.63-.78-1C5.26,7,5.14,6.91,5.25,6.75Z" fill="#944fec"/>
      <path d="M8,5.18l.77-.44a11.41,11.41,0,0,1,.83,1,.36.36,0,0,1,.09.32,1.05,1.05,0,0,1-.83.44,7.27,7.27,0,0,0-.74-.92C8,5.48,7.88,5.36,8,5.18Z" fill="#835bef"/>
      <path d="M27.94,32.6a2.58,2.58,0,0,1-.76.46,3.23,3.23,0,0,1-1-1.24c.13-.27.39-.31.63-.4a.31.31,0,0,1,.31.07A3.06,3.06,0,0,1,27.94,32.6Z" fill="#934fed"/>
      <path d="M31.72,28.68c.37.38.64.84,1,1.18a3.48,3.48,0,0,1-.77.44,2.38,2.38,0,0,1-1-1.23A.8.8,0,0,1,31.72,28.68Z" fill="#7764f0"/>
      <path d="M21.07,36.56a2,2,0,0,1-.6.35,2.74,2.74,0,0,1-1-1.23.88.88,0,0,1,.79-.45,5.87,5.87,0,0,1,.8.93C21.18,36.28,21.25,36.44,21.07,36.56Z" fill="#bb32e6"/>
      <path d="M13.41,2.09l.69-.4a5.4,5.4,0,0,1,1.06,1.23,1,1,0,0,1-.8.45A2.22,2.22,0,0,1,13.41,2.09Z" fill="#6473f3"/>
      <path d="M13.41,2.09a6.44,6.44,0,0,0,1,1.24.66.66,0,0,1-.72.41l-1-1.21A3.73,3.73,0,0,1,13.41,2.09Z" fill="#6870f3"/>
      <path d="M28.28,11.73c-.13.19,0,.29.12.43.22.3.55.52.67.89-.19.22-.5.22-.69.41l-1-1.22A.9.9,0,0,1,28.28,11.73Z" fill="#5082f6"/>
      <path d="M23.3,35.26a1.8,1.8,0,0,1-.77.44,3.35,3.35,0,0,1-1-1.23c.13-.25.39-.3.63-.39a.31.31,0,0,1,.31.08A3.15,3.15,0,0,1,23.3,35.26Z" fill="#af3be8"/>
      <path d="M21.07,36.56c.1-.43-.34-.56-.5-.86a4,4,0,0,1-.29-.46c.09-.3.35-.34.61-.39a2.09,2.09,0,0,1,1,1.19A2.67,2.67,0,0,1,21.07,36.56Z" fill="#b635e7"/>
      <path d="M9.63,6.05A3.17,3.17,0,0,0,9,5.21a.85.85,0,0,1-.26-.47,2,2,0,0,1,.58-.33c.06,0,.12,0,.16,0a3.15,3.15,0,0,1,.93,1.21C10.21,5.85,10,6.11,9.63,6.05Z" fill="#7f5ff0"/>
      <path d="M3.89,7.53a3.59,3.59,0,0,1,.76-.44.19.19,0,0,1,.25.09c.27.37.68.64.81,1.11a1,1,0,0,1-.7.47A13,13,0,0,1,3.89,7.53Z" fill="#9b4aeb"/>
      <path d="M8,5.18c.11.39.49.58.69.9.08.13.21.23.18.41s-.41.37-.68.45c-.27-.47-.75-.8-1-1.31A3.3,3.3,0,0,1,8,5.18Z" fill="#8758ee"/>
      <path d="M3.07,26.92a3,3,0,0,1,1,1.23.61.61,0,0,1-.69.41c-.09-.42-.47-.63-.68-1-.07-.11-.18-.18-.18-.33A1.87,1.87,0,0,1,3.07,26.92Z" fill="#dd18e1"/>
      <path d="M15.48.91a4.59,4.59,0,0,0,1,1.2.84.84,0,0,1-.77.48,3.25,3.25,0,0,1-1-1.27A2.85,2.85,0,0,1,15.48.91Z" fill="#5c78f4"/>
      <path d="M14.76,1.32l1,1.23a.47.47,0,0,1-.59.34,4.47,4.47,0,0,1-1.05-1.2A2.86,2.86,0,0,1,14.76,1.32Z" fill="#6076f4"/>
      <path d="M25.28,34.14a2.88,2.88,0,0,1-.78.45,6,6,0,0,0-.65-.88c-.09-.13-.22-.25-.17-.45a.79.79,0,0,1,.64-.38A2,2,0,0,1,25.28,34.14Z" fill="#a344ea"/>
      <path d="M6.36,24.94l.95,1.22a.64.64,0,0,1-.68.44,3.72,3.72,0,0,0-1-1.2A3.28,3.28,0,0,1,6.36,24.94Z" fill="#ce23e4"/>
      <path d="M23.72,33.28a2.41,2.41,0,0,0,.52.75c.13.16.36.29.26.56a1.89,1.89,0,0,1-.6.35,4.67,4.67,0,0,1-1-1.24A.83.83,0,0,1,23.72,33.28Z" fill="#a741ea"/>
      <path d="M29.75,31.59a2,2,0,0,1-.6.34,11.49,11.49,0,0,1-1-1.23.91.91,0,0,1,.8-.45,6.66,6.66,0,0,1,.82.94A.24.24,0,0,1,29.75,31.59Z" fill="#8758ee"/>
      <path d="M7.22,5.63c.33.41.8.71,1,1.26a.69.69,0,0,1-.59.4,6.08,6.08,0,0,1-.89-1A.28.28,0,0,1,6.62,6,2,2,0,0,1,7.22,5.63Z" fill="#8c55ed"/>
      <path d="M31,29.09a12.43,12.43,0,0,0,1,1.21,3.29,3.29,0,0,1-.7.41,8.11,8.11,0,0,0-1-1.21A.68.68,0,0,1,31,29.09Z" fill="#7b61f0"/>
      <path d="M27.94,32.6c-.26-.32-.53-.63-.78-1a.33.33,0,0,0-.33-.14c.12-.36.45-.4.74-.51a2.56,2.56,0,0,1,1.05,1.25A2.11,2.11,0,0,1,27.94,32.6Z" fill="#8f52ed"/>
      <path d="M6.62,6c.23.48.68.81,1,1.26a.6.6,0,0,1-.68.38,3.75,3.75,0,0,0-1-1.2A3,3,0,0,1,6.62,6Z" fill="#8f52ed"/>
      <path d="M10.41,5.61a7.6,7.6,0,0,0-1.07-1.2,2.22,2.22,0,0,1,.6-.34c.08,0,.18-.06.24,0,.35.36.79.65.87,1.21C10.88,5.48,10.72,5.69,10.41,5.61Z" fill="#7b61f0"/>
      <path d="M26.56,33.38a2.18,2.18,0,0,1-.68.43,9.44,9.44,0,0,1-1-1.22.9.9,0,0,1,.71-.46A2.36,2.36,0,0,1,26.56,33.38Z" fill="#9b4aeb"/>
      <path d="M23,33.72a5.34,5.34,0,0,1,.95,1.22,1.4,1.4,0,0,1-.6.32c-.26-.32-.53-.63-.78-1a.34.34,0,0,0-.33-.14A.71.71,0,0,1,23,33.72Z" fill="#aa3ee9"/>
      <path d="M29.75,31.59c.15-.42-.29-.53-.42-.8s-.29-.31-.36-.52a.64.64,0,0,1,.69-.4,2.34,2.34,0,0,0,1,1.21A4.89,4.89,0,0,1,29.75,31.59Z" fill="#835bee"/>
      <path d="M2.68,8.21a2,2,0,0,1,.6-.34.13.13,0,0,1,.16,0,2.17,2.17,0,0,1,.91,1.23.66.66,0,0,1-.62.39A6.28,6.28,0,0,1,2.68,8.21Z" fill="#a344ea"/>
      <path d="M10.67,3.66a1.11,1.11,0,0,1,.47-.27c.07,0,.16-.07.21,0a2,2,0,0,1,.91,1.22.7.7,0,0,1-.55.34A2.19,2.19,0,0,1,10.67,3.66Z" fill="#7467f1"/>
      <path d="M2.68,8.21a4.84,4.84,0,0,1,1,1.19c-.11.27-.26.47-.6.35a8.31,8.31,0,0,0-1-1.19A2,2,0,0,1,2.68,8.21Z" fill="#a641e9"/>
      <path d="M21.92,36l-.8-1a.33.33,0,0,0-.26-.13.67.67,0,0,1,.72-.42,12.21,12.21,0,0,1,1,1.2C22.34,35.84,22.19,36,21.92,36Z" fill="#b338e8"/>
      <path d="M4.31,9.06a2.77,2.77,0,0,0-1-1.19,2,2,0,0,1,.61-.34c.52.24.74.78,1.1,1.18C4.82,8.93,4.66,9.19,4.31,9.06Z" fill="#9f47ea"/>
      <path d="M19.5,35.7l1,1.21a1.65,1.65,0,0,1-.61.33A12.33,12.33,0,0,1,18.91,36,.46.46,0,0,1,19.5,35.7Z" fill="#be2fe5"/>
      <path d="M8.09,25.72a5.94,5.94,0,0,0-1-1.19,2,2,0,0,1,.59-.36,5.23,5.23,0,0,1,1.06,1.19A.51.51,0,0,1,8.09,25.72Z" fill="#c62ae5"/>
      <path d="M12.21,4.58a2.3,2.3,0,0,0-1.07-1.19A4.19,4.19,0,0,1,12,2.91c.13.56.61.86.95,1.26A.63.63,0,0,1,12.21,4.58Z" fill="#7069f1"/>
      <path d="M24.91,32.6a3.1,3.1,0,0,1,1,1.21,1.86,1.86,0,0,1-.6.33,4.49,4.49,0,0,0-1-1.2A.51.51,0,0,1,24.91,32.6Z" fill="#9f47ea"/>
      <path d="M28.62,32.24a11.45,11.45,0,0,0-1-1.18.48.48,0,0,1,.6-.34,3,3,0,0,1,1,1.21Z" fill="#8b55ed"/>
      <path d="M10.67,3.66a4.93,4.93,0,0,0,1,1.2.63.63,0,0,1-.69.41,2.65,2.65,0,0,0-1.07-1.2A2.75,2.75,0,0,1,10.67,3.66Z" fill="#7764f0"/>
      <path d="M26.56,33.38a12,12,0,0,0-.93-1.2c.08-.32.32-.36.6-.34l.95,1.22A1.32,1.32,0,0,1,26.56,33.38Z" fill="#974ceb"/>
      <path d="M5.68,8.28a9,9,0,0,0-1-1.19,2,2,0,0,1,.6-.34,2.64,2.64,0,0,0,.55.77,1.15,1.15,0,0,1,.32.54C6,8.27,5.92,8.39,5.68,8.28Z" fill="#974ceb"/>
      <path d="M25.79,13.22a12.46,12.46,0,0,0,1,1.17c0,.11-.14.13-.24.17l-.95-1.23C25.63,13.23,25.65,13.13,25.79,13.22Z" fill="#5b78f4"/>
      <path d="M2.83,18v.78c-.39-.19-.55-.59-.85-.87s-.35-.54-.66-.68v-.77c.16-.11.27,0,.36.12A9.91,9.91,0,0,1,2.83,18Z" fill="#c62ae6"/>
      <path d="M6.28,21.28a11.12,11.12,0,0,1,1.46.85c.63.8,1.3,1.57,1.95,2.36a1.46,1.46,0,0,1,.29.41c0,.11.12.27-.12.25s-.4-.28-.66-.12L6.61,21.9C6.46,21.71,6.28,21.55,6.28,21.28Z" fill="#c02ee6"/>
      <path d="M2.83,13.36v1.47c-.2.11-.29-.06-.38-.17-.38-.46-.78-.9-1.14-1.38V11.83c.28,0,.39.2.53.37Z" fill="#b834e8"/>
      <path d="M2.83,13.36c-.45-.15-.6-.6-.9-.91a5.19,5.19,0,0,0-.62-.62V10.55a6.1,6.1,0,0,1,1.1,1.19c.12.14.21.31.42.34Z" fill="#b437e8"/>
      <path d="M1.31,13.28c.37.15.5.53.76.77s.39.63.76.78V16c-.29.1-.4-.14-.54-.3l-1-1.16Z" fill="#bd31e7"/>
      <path d="M2.83,18a6.51,6.51,0,0,1-.93-1c-.17-.19-.31-.43-.58-.51,0-.34,0-.68,0-1,.23,0,.33.15.44.28.36.43.71.85,1.08,1.26Z" fill="#c32ce6"/>
      <path d="M2.83,17c-.48-.18-.66-.66-1-1a4.49,4.49,0,0,0-.53-.54v-.86c.46.17.62.63.93.95s.31.43.59.51Z" fill="#c02fe6"/>
      <path d="M29.56,20.21l.79-.47a2.73,2.73,0,0,0,1,1.18,3.06,3.06,0,0,1-.73.45.27.27,0,0,1-.25,0,3.18,3.18,0,0,1-.86-1C29.5,20.32,29.54,20.26,29.56,20.21Z" fill="#6075f4"/>
      <path d="M24.51,13.7c.27.23.45,0,.67-.11a9,9,0,0,0,1.19,1.5c.58.74,1.21,1.45,1.82,2.18a.61.61,0,0,1,.17.43,17.23,17.23,0,0,1-1.71-1c-.66-.82-1.33-1.63-2-2.43a1,1,0,0,1-.24-.4C24.37,13.79,24.34,13.67,24.51,13.7Z" fill="#5f77f5"/>
      <path d="M11.27,24.18c.8.41,1.57.87,2.33,1.35.58.87,1.32,1.61,2,2.42a2,2,0,0,1,.28.43c0,.09.06.21-.11.19-.81-.41-1.58-.88-2.34-1.36A25.7,25.7,0,0,0,11.67,25c-.13-.16-.26-.31-.37-.47S11.14,24.32,11.27,24.18Z" fill="#b635e8"/>
      <path d="M15.74,28.57c.15-.22-.08-.34-.17-.45-.59-.74-1.21-1.46-1.82-2.17a.48.48,0,0,1-.15-.42c.73.39,1.44.79,2.13,1.24.51.73,1.13,1.37,1.67,2.07.09.11.26.21.14.4a.42.42,0,0,1-.62.05C16.53,29,16.13,28.81,15.74,28.57Z" fill="#b139e8"/>
      <path d="M11.27,24.18c0,.34.26.52.44.75.55.68,1.11,1.34,1.66,2,.07.08.19.16,0,.27a22,22,0,0,1-2-1.13,1.43,1.43,0,0,0-.44-.66c-.48-.58-1-1.16-1.45-1.75-.16-.19-.39-.38-.35-.69A23.51,23.51,0,0,1,11.27,24.18Z" fill="#ba32e7"/>
      <path d="M9.21,23c.64,1,1.51,1.86,2.24,2.81.07.1.28.2,0,.29a15.72,15.72,0,0,1-1.59-.93c.24-.2,0-.32-.1-.41-.48-.61-1-1.17-1.47-1.78-.21-.25-.53-.45-.55-.83A11.94,11.94,0,0,1,9.21,23Z" fill="#be30e7"/>
      <path d="M18.38,26.93a6.85,6.85,0,0,1,1-.63,2.78,2.78,0,0,1,1,1.23,6.4,6.4,0,0,1-1,.62C19,27.73,18.66,27.38,18.38,26.93Z" fill="#a145eb"/>
      <path d="M26.22,22.22l1-.58a7.78,7.78,0,0,1,1,1.18,6,6,0,0,1-1,.63A2.3,2.3,0,0,1,26.22,22.22Z" fill="#7268f1"/>
      <path d="M17.54,29.24a12.57,12.57,0,0,0-1-1.3c-.27-.38-.72-.64-.8-1.17l1.47.84a5.21,5.21,0,0,1,.82.93c.1.11.16.24,0,.38A1.56,1.56,0,0,1,17.54,29.24Z" fill="#ad3ce9"/>
      <path d="M28.21,22.82a3.92,3.92,0,0,1-1-1.18l.78-.45a1.65,1.65,0,0,1,.95,1.23A3.65,3.65,0,0,1,28.21,22.82Z" fill="#6d6cf2"/>
      <path d="M20.38,27.53l-1-1.23.86-.52a10,10,0,0,1,.78.94c.1.11.2.26,0,.4A2.86,2.86,0,0,1,20.38,27.53Z" fill="#9c49eb"/>
      <path d="M29.56,20.21a2.53,2.53,0,0,0,1.08,1.16,4,4,0,0,1-.87.51c-.45,0-.54-.49-.8-.74s-.3-.26-.17-.48Z" fill="#6472f3"/>
      <path d="M20.68,25.55l.89-.54a3.2,3.2,0,0,1,.87,1,.25.25,0,0,1,0,.32,2.59,2.59,0,0,1-.68.4c-.12.06-.18,0-.24-.11C21.27,26.22,21,25.91,20.68,25.55Z" fill="#944fed"/>
      <path d="M28.8,20.66a4,4,0,0,0,1,1.22,4.86,4.86,0,0,1-.87.54A3.48,3.48,0,0,0,28,21.19Z" fill="#696ff3"/>
      <path d="M24.08,23.51a3.18,3.18,0,0,1,.75-.45c.12,0,.21,0,.29.11a6.78,6.78,0,0,1,.66.76.26.26,0,0,1,0,.35,3,3,0,0,1-.69.42A5.79,5.79,0,0,1,24.08,23.51Z" fill="#7f5eef"/>
      <path d="M26.22,22.22c.25.47.69.78,1,1.23l-.79.47c-.37-.37-.67-.8-1-1.19A4.56,4.56,0,0,1,26.22,22.22Z" fill="#7864f0"/>
      <path d="M18.38,26.93a2.64,2.64,0,0,1,1,1.22,2.29,2.29,0,0,1-.69.41,3.71,3.71,0,0,1-1-1.21A2.77,2.77,0,0,1,18.38,26.93Z" fill="#a741e9"/>
      <path d="M22.45,26.29c-.06-.45-.48-.65-.68-1l-.2-.27a3,3,0,0,1,.69-.41,2.89,2.89,0,0,1,.95,1.21A3.15,3.15,0,0,1,22.45,26.29Z" fill="#8f53ed"/>
      <path d="M24.08,23.51a4.84,4.84,0,0,1,1,1.19l-.68.41a11.7,11.7,0,0,1-1-1.18A2.51,2.51,0,0,1,24.08,23.51Z" fill="#845bee"/>
      <path d="M23.38,23.93a3.2,3.2,0,0,1,1,1.18l-.68.41A6.29,6.29,0,0,1,23,24.6c-.09-.1-.19-.23-.08-.38Z" fill="#8858ee"/>
      <path d="M22.87,24.22a2.81,2.81,0,0,0,.65.91c.09.12.22.21.22.39a1.31,1.31,0,0,1-.53.29,14.06,14.06,0,0,1-.95-1.21Z" fill="#8c55ed"/>
      <path d="M25.37,22.73a2.73,2.73,0,0,1,1,1.19,2.28,2.28,0,0,1-.6.36,2.68,2.68,0,0,0-1-1.22A1.87,1.87,0,0,1,25.37,22.73Z" fill="#7b61f0"/>
      <path d="M20.68,25.55c.37.11.5.48.74.72l.35.42a2.81,2.81,0,0,1-.7.43c.09-.28-.14-.41-.27-.57a2,2,0,0,1-.52-.77Z" fill="#984ceb"/>
      <path d="M17.68,27.35a7.63,7.63,0,0,1,1,1.21,2,2,0,0,1-.6.36c0-.38-.34-.56-.53-.83a1.58,1.58,0,0,1-.33-.48Z" fill="#aa3ee9"/>
      <path d="M15.55,19.22a25.59,25.59,0,0,1-2.21-1.3.6.6,0,0,0-.2-.42c-.93-1.09-1.82-2.21-2.76-3.3-.13-.14-.31-.26-.24-.5a2,2,0,0,1,.59-.35s.09,0,.12,0a2.19,2.19,0,0,1,.91,1.22.42.42,0,0,1-.34.3,12.31,12.31,0,0,1,2,1.23,7.16,7.16,0,0,0,1,1.32c.37.48.79.91,1.14,1.4C15.6,18.91,15.84,19.07,15.55,19.22Z" fill="#974cec"/>
      <path d="M10.14,13.7a13.07,13.07,0,0,0,1.29,1.58c.59.75,1.23,1.46,1.82,2.2.07.09.39.23.09.44a22.58,22.58,0,0,1-2-1.19A15.55,15.55,0,0,0,10,15c-.21-.29-.55-.49-.61-.89A3.14,3.14,0,0,1,10.14,13.7Z" fill="#9c49ec"/>
      <path d="M24.51,13.7c-.16.27.11.38.21.52.57.7,1.15,1.39,1.73,2.08a.79.79,0,0,1,.2.41,16.07,16.07,0,0,1-1.8-1c-.36-.11-.51-.44-.73-.69-.57-.68-1.15-1.35-1.69-2.05-.11-.14-.29-.29-.16-.52C23,12.81,23.79,13.24,24.51,13.7Z" fill="#6473f4"/>
      <path d="M15.55,19.22c.11-.28-.14-.42-.26-.57-.58-.73-1.19-1.44-1.8-2.16a.46.46,0,0,1-.16-.38.22.22,0,0,1,.16,0,9.82,9.82,0,0,1,2,1.26,9.44,9.44,0,0,0,1.17,1.5c.19.25.4.48.59.72s.28.27.16.49a.28.28,0,0,1-.4.07Z" fill="#9350ed"/>
      <path d="M22.27,12.42a2.85,2.85,0,0,0,.77,1.1c.59.73,1.2,1.44,1.81,2.16l-.86.44A3.86,3.86,0,0,1,23,15c.05-.16-.07-.26-.15-.37a18.68,18.68,0,0,0-1.66-2.1L20.76,12c-.09-.13-.18-.27,0-.42C21.2,11.9,21.81,12,22.27,12.42Z" fill="#6870f4"/>
      <path d="M16.85,9.74a.46.46,0,0,1,.72-.05,5.29,5.29,0,0,0,.5.32,19.34,19.34,0,0,0,1.39,1.72c.17.23.36.44.54.66s.34.37.21.65a4.27,4.27,0,0,1-1.7-.92,9.25,9.25,0,0,0-1.27-1.71C17.08,10.2,16.83,10.05,16.85,9.74Z" fill="#6f6af2"/>
      <path d="M9.39,14.14c.55.65,1.11,1.3,1.64,2,.14.18.41.32.3.63L8.09,14.87Z" fill="#a046eb"/>
      <path d="M20.21,13c-.1-.51-.51-.8-.8-1.18-.44-.55-.91-1.08-1.36-1.62-.06-.08-.08-.15,0-.21l1.36.78c.63.81,1.29,1.59,1.95,2.37a3.37,3.37,0,0,1,.28.38c.07.13.09.25-.08.31A2.51,2.51,0,0,1,20.21,13Z" fill="#6d6cf3"/>
      <path d="M17.46,20.07a11.25,11.25,0,0,0-1.26-1.65c-.24-.35-.65-.57-.71-1,.19-.09.32.05.46.13a7.84,7.84,0,0,0,1.43.76c.42.21.63.63.92,1a.23.23,0,0,1,0,.31A4.12,4.12,0,0,1,17.46,20.07Z" fill="#8e53ee"/>
      <path d="M21.57,13.8c.09-.33-.21-.47-.36-.67-.51-.65-1.05-1.28-1.58-1.92a.86.86,0,0,1-.2-.42,9.87,9.87,0,0,1,1.3.74.48.48,0,0,0,.13.39c.61.71,1.21,1.43,1.81,2.15a1.63,1.63,0,0,1,.28.52A2.17,2.17,0,0,1,21.57,13.8Z" fill="#6a6ff3"/>
      <path d="M16.85,9.74l1.4,1.71c.15.19.34.36.32.63-.17.11-.29,0-.43-.1a5.49,5.49,0,0,0-1-.51,2.33,2.33,0,0,1-1-1.28A3,3,0,0,1,16.85,9.74Z" fill="#7367f2"/>
      <path d="M23,14.89l1,1.23a7.18,7.18,0,0,1-1,.63,11.41,11.41,0,0,1-.83-1,.33.33,0,0,1-.08-.32A1.43,1.43,0,0,1,23,14.89Z" fill="#6c6cf3"/>
      <path d="M22.1,15.45a3.56,3.56,0,0,0,.61.83.81.81,0,0,1,.26.47,4.77,4.77,0,0,1-.84.5.12.12,0,0,1-.08,0,2.78,2.78,0,0,1-1-1.23A1.41,1.41,0,0,1,22.1,15.45Z" fill="#7368f2"/>
      <path d="M18.31,19.55a2.91,2.91,0,0,0-1-1.22,1.34,1.34,0,0,1,.82-.58c.53.08.67.58,1,.89a.27.27,0,0,1,0,.39A3.94,3.94,0,0,1,18.31,19.55Z" fill="#8957ee"/>
      <path d="M20.85,18l-.9.56a4,4,0,0,1-1-1.3,1,1,0,0,1,.8-.44A11,11,0,0,1,20.85,18Z" fill="#7f5eef"/>
      <path d="M19,17.32A8.43,8.43,0,0,1,20,18.58l-.78.45a2.06,2.06,0,0,0-1-1.19A.86.86,0,0,1,19,17.32Z" fill="#845bee"/>
      <path d="M14.79,11a3.24,3.24,0,0,1,.76-.45,3,3,0,0,1,1,1.24.92.92,0,0,1-.8.45c-.34-.3-.58-.69-.9-1A.19.19,0,0,1,14.79,11Z" fill="#7b62f0"/>
      <path d="M14.79,11c.25.3.49.59.75.88.09.11.2.2.21.36a.7.7,0,0,1-.7.43,4.57,4.57,0,0,1-1-1.25A3,3,0,0,1,14.79,11Z" fill="#7f5eef"/>
      <path d="M12.73,12.16a2.57,2.57,0,0,1,.77-.44,8,8,0,0,1,.8.95.35.35,0,0,1,.1.35,1.11,1.11,0,0,1-.72.45C13.38,13,12.91,12.7,12.73,12.16Z" fill="#8758ee"/>
      <path d="M21.15,16a5.71,5.71,0,0,0,1,1.22,4.16,4.16,0,0,1-.81.49c-.25-.29-.48-.59-.72-.88a.56.56,0,0,1-.18-.42A.74.74,0,0,1,21.15,16Z" fill="#7764f0"/>
      <path d="M11.7,14.58a3.08,3.08,0,0,0-1-1.23,3.51,3.51,0,0,1,.7-.42,1.74,1.74,0,0,1,1,1.22A.69.69,0,0,1,11.7,14.58Z" fill="#934fec"/>
      <path d="M14.36,13c-.12-.42-.5-.65-.71-1-.06-.09-.15-.17-.15-.29a1.8,1.8,0,0,1,.58-.35,6.12,6.12,0,0,1,1,1.23A.66.66,0,0,1,14.36,13Z" fill="#835bef"/>
      <path d="M20.46,16.45a4.47,4.47,0,0,0,.68.89c.1.12.21.22.18.4a1.4,1.4,0,0,1-.47.28c-.4-.06-.47-.47-.73-.68a2.12,2.12,0,0,1-.35-.48A.63.63,0,0,1,20.46,16.45Z" fill="#7b61f0"/>
      <path d="M12.38,14.13a3.66,3.66,0,0,0-1-1.2,2,2,0,0,1,.6-.34c.05,0,.12-.06.15,0a2.15,2.15,0,0,1,.93,1.24C12.91,14,12.73,14.25,12.38,14.13Z" fill="#8f52ed"/>
      <path d="M13.07,13.77a3,3,0,0,0-1-1.18,2.81,2.81,0,0,1,.7-.43,6,6,0,0,1,.94,1.26C13.55,13.67,13.38,13.84,13.07,13.77Z" fill="#8b55ed"/>
      <path d="M16.51,11.72l-1-1.22a1.76,1.76,0,0,1,.53-.31,5.37,5.37,0,0,0,1,1.2C17,11.7,16.79,11.76,16.51,11.72Z" fill="#7764f0"/>
    </symbol>
  </defs>
  <rect id="Figment_lido" x="-1.22" y="-1.06" width="252.5" height="252.5" transform="translate(-0.16 250.22) rotate(-90)" fill="#383838"/>
  <use width="34.19" height="38.84" transform="translate(50.11 39.94) scale(4.38)" xlink:href="#Cryptostake"/>
</svg>
