<svg id="Capa_1" data-name="Capa 1" xmlns="http://www.w3.org/2000/svg" xmlns:xlink="http://www.w3.org/1999/xlink" width="250" height="250" viewBox="0 0 250 250">
  <defs>
    <symbol id="danielwang.eth" data-name="danielwang.eth" viewBox="0 0 35.06 35.16">
      <rect width="35.06" height="35.11" fill="#f170dd"/>
      <rect x="8.88" y="0.09" width="4.23" height="13.02" fill="#4edd98"/>
      <rect x="22.04" y="0.02" width="4.23" height="13.09" fill="#4edd98"/>
      <polygon points="26.38 30.71 26.38 26.41 21.9 26.41 21.9 30.71 13.07 30.71 13.07 26.34 8.64 26.34 8.64 30.71 0.05 30.71 0.05 35.06 8.64 35.06 8.64 35.16 13.07 35.16 13.07 35.06 34.95 35.06 34.95 30.71 26.38 30.71" fill="#4edd98"/>
      <rect x="13.11" y="21.9" width="8.84" height="4.32" fill="#4edd98"/>
      <rect x="8.74" y="17.62" width="4.46" height="4.32" fill="#4edd98"/>
      <rect x="21.88" y="17.67" width="4.46" height="4.32" fill="#4edd98"/>
      <rect x="26.3" y="22.04" width="4.46" height="4.32" fill="#4edd98"/>
      <rect x="4.3" y="21.95" width="4.46" height="4.32" fill="#4edd98"/>
      <rect x="26.2" y="4.42" width="4.46" height="4.56" fill="#4edd98"/>
      <rect x="4.44" y="4.42" width="4.46" height="4.51" fill="#4edd98"/>
      <rect x="13.18" y="8.84" width="8.84" height="4.32" fill="#6f5a2f"/>
      <rect x="13.14" y="26.27" width="8.84" height="4.32" fill="#6f5a2f"/>
      <rect x="26.3" y="8.84" width="4.39" height="4.32" fill="#6f5a2f"/>
      <rect x="4.43" y="8.88" width="4.39" height="4.32" fill="#6f5a2f"/>
    </symbol>
  </defs>
  <rect id="Figment_lido" x="-1.22" y="-1.06" width="252.5" height="252.5" transform="translate(-0.16 250.22) rotate(-90)" fill="#fff"/>
  <use width="35.06" height="35.16" transform="translate(45 45) scale(4.56 4.55)" xlink:href="#danielwang.eth"/>
</svg>
