<svg id="Capa_1" data-name="Capa 1" xmlns="http://www.w3.org/2000/svg" xmlns:xlink="http://www.w3.org/1999/xlink" width="250" height="250" viewBox="0 0 250 250">
  <defs>
    <symbol id="dsrv" data-name="dsrv" viewBox="0 0 32.98 36.09">
      <path d="M11.29,36.09V25.36c2.45-.53,3.74-1.86,3.78-3.85,0-2.19-1.09-3.43-3.79-4.12V6.68a14.4,14.4,0,0,1,11.91,6.16,14.48,14.48,0,0,1,.44,16.38A14.43,14.43,0,0,1,11.29,36.09Z" fill="#fff"/>
      <path d="M0,6.67H9.29V36H0Z" fill="#fff"/>
      <g>
        <path d="M28.35,13.22a4.55,4.55,0,0,1-4.08-2.5,4.49,4.49,0,0,1,.18-4.61c.09-.15.16-.16.31-.07l3.36,2a.41.41,0,0,0,.49,0L32,6.05c.17-.11.23-.07.33.08a4.62,4.62,0,0,1-3.3,7Z" fill="#fff"/>
        <path d="M28.36,0l2,3.09c.39.61.78,1.23,1.18,1.84.1.15.07.21-.07.29L28.51,6.93a.24.24,0,0,1-.3,0l-3-1.72c-.09-.06-.16-.1-.08-.23C26.23,3.34,27.28,1.69,28.36,0Zm0,1.37-.08.1-2.1,3.28c-.08.12,0,.15.07.2.66.39,1.33.77,2,1.17a.26.26,0,0,0,.3,0l1.56-.92c.17-.1.45-.18.48-.32s-.17-.34-.27-.51c-.6-.94-1.2-1.88-1.81-2.82C28.46,1.48,28.44,1.4,28.35,1.37Z" fill="#fff"/>
      </g>
    </symbol>
  </defs>
  <rect id="Figment_lido" x="-1.22" y="-1.06" width="252.5" height="252.5" transform="translate(-0.16 250.22) rotate(-90)" fill="#071a36"/>
  <use width="32.98" height="36.09" transform="translate(53.7 46.99) scale(4.32)" xlink:href="#dsrv"/>
</svg>
