<svg id="Capa_1" data-name="Capa 1" xmlns="http://www.w3.org/2000/svg" xmlns:xlink="http://www.w3.org/1999/xlink" width="250" height="250" viewBox="0 0 250 250">
  <defs>
    <symbol id="Erigon" data-name="Erigon" viewBox="0 0 171.01 152.46">
      <path d="M36.45,71.15c-1.4-1-3.05-1.2-5.55-.16s-14.64,6.28-15.53,6.68-1.5,1.21-2,.38,2.52-2.58,4.26-3.62a70.53,70.53,0,0,1,10.43-5.1c2.85-.89,5-1.13,4-3S29.56,60.8,27.39,61,14,63.11,12,63.4s-7,1.91-7.22.75S8,62.65,9.93,62s14.13-3.24,16-3.54,2.6-.29,2-2.43-.12-4.34-1.61-4.1-14.2.73-17.22.77-9,.88-9-.25,8.09-2.25,9-2.41,10.91-1,13.64-.56,5.11.4,5.43-2.26a16.61,16.61,0,0,1,2.74-7,36.66,36.66,0,0,0,2.37-3.66s-9.89-6.68-5.39-19.23S48.6,10.48,49.17,10.8,54,8,55.52,7,72.58-.55,85.22.1c0,0,18.86-1.8,34.73,10,1.83.43,14.7-5.58,20.28,2.15s4.1,14,2.36,17.17a29.91,29.91,0,0,1-5.25,6.33S143,43.36,143,49.05c2.36.86,10,.05,14.66.54s13.6,1.12,13.32,2.61-13.8.2-16.34.16-8.32-1-9.45.45-2.74,5.11-1.93,5.27,18.26,4,20.52,5,4.1.88,4,1.89-6.16-1.09-8.85-1.65S143.36,60,141.83,61.5s-4,5.39-3.7,5.91,9.25,3.5,10.9,4.47,8.65,4.22,8.61,6-16.17-5.87-18.1-6.68a7,7,0,0,0-6.43.85c-.74.56-18.11,8.69-26.8,10.14s-32.83,2.33-44.42-.56S42.16,75.13,36.45,71.15Z" fill="#300e02"/>
      <path d="M142.61,152.46" fill="#300e02"/>
      <g>
        <path d="M124.67,23.93a22,22,0,0,1,4.7,11.42,7.14,7.14,0,0,0,2.23,4.73A18,18,0,0,1,136,46.93c1.14,3,.89,3.46-2.27,3.77a92.92,92.92,0,0,0-10.76,1.81,2.94,2.94,0,0,1-1.86.69c.73-.21,1.6-.05,2.45-.19,3.8-.29,7.6-.48,11.38-.91,2.1-.24,1.89.47,1.47,2.06-.79,3-2.66,3.84-5.53,3.66a60.9,60.9,0,0,0-11.12.66c-.43.72.18.69.57.74,1.06.13,2.15-.2,3.2.21l5.91.2c1.78.09,2.42.74,1,2.24-1.74,1.88-3.78,3.09-6.48,2.67l-2.56-.18c-1.16-.51-2.4.24-3.57-.21-.82-.23-1.69-.25-2.43-.39.49.17,1.11.07,1.7.23a5.69,5.69,0,0,1,2.58.86l3.13.74c.28,1.15-.54,1.69-1.3,2.12A46.06,46.06,0,0,1,110.66,72a2.47,2.47,0,0,1-2.54-.5c-.38-5.81.45-11.66-.45-17.45A22.42,22.42,0,0,0,83.38,34.94C72,35.83,63,45.58,62.81,57.31c-.08,4.74-.07,9.47-.1,14.2-3,1-12.79-2.56-14.21-5.18a.91.91,0,0,1,0-.77l2.67-.65c1-.79,2.31-.62,3.45-1a4.76,4.76,0,0,0,1.18-.15c-.71.14-1.52.18-2.31.38-1.31.59-2.7-.34-4,.23l-2.61.17c-2.48.35-4.37-.78-6-2.47-1.3-1.37-1-1.92,1-2.47l5.91-.18c1.25-.59,2.69.26,3.91-.52a.23.23,0,0,0,0-.22.65.65,0,0,0-.17-.2,96.63,96.63,0,0,0-13.5-.72c-2.81-.4-3.13-2.78-3.84-4.85.2-1.59,1.36-.77,2.08-.73,3.65.22,7.31.52,11,.79,1,.09,2,.18,3,.24a3.54,3.54,0,0,1,1,.32,3.23,3.23,0,0,0-1-.32,3.21,3.21,0,0,1-2.46-.74A75.35,75.35,0,0,0,36.39,50.6c-1.63-.14-2.14-.72-1.61-2.4a17.61,17.61,0,0,1,4.27-7.49,10.37,10.37,0,0,0,2.86-6.23,26,26,0,0,1,7.17-13.76c3.84-2.39,7.35-5.3,11.69-6.88,19.38-7,38.19-6.15,56.38,3.86C120.05,19.29,122.1,21.93,124.67,23.93Z" fill="#a47c50"/>
        <path d="M66.27,66.05c0-3.54-.37-7.14.07-10.63,1.34-10.64,9.91-17.76,20.32-17.23,9.67.49,17.63,8.69,18,18.9.24,6.09,0,12.2.08,18.3,0,1.4-.58,1.87-1.81,2.17a75.43,75.43,0,0,1-35.13,0,1.9,1.9,0,0,1-1.76-2.22c.09-3.09,0-6.19,0-9.29Z" fill="#f1d4b4"/>
        <path d="M124.67,23.93c-3.33-1.49-5.83-4.22-9-5.93a66.93,66.93,0,0,0-24.1-7.24A65.63,65.63,0,0,0,67,12.94a51.54,51.54,0,0,0-15.14,6.73c-.79.51-1.43,1.85-2.78,1C55.69,13.7,64,9.8,73.28,7.91c15.17-3.08,29.52-1.06,42.64,7.52A29.06,29.06,0,0,1,124.67,23.93Z" fill="#c49966"/>
        <path d="M123.45,17.07c6.07-3.89,11.76-2.51,13.8,3.15A8.11,8.11,0,0,1,133.44,30c-.92.48-1.44.78-1.93-.63A33,33,0,0,0,123.45,17.07Z" fill="#f0d4b4"/>
        <path d="M47.1,17.71A33,33,0,0,0,39,31.44c-4.81-1.88-6.8-6.69-4.67-11.08C36.52,15.75,41.6,14.61,47.1,17.71Z" fill="#f0d3b4"/>
        <path d="M108.12,71.53c5.2-1.23,10.23-2.86,14.67-5.94a11.23,11.23,0,0,1,1.83.5c1.11.5,3,0,3.23,1.39.17,1.13-1.56,1.59-2.52,2.22a58.26,58.26,0,0,1-14.82,6.81c-1.78.56-2.6.3-2.44-1.71C108.15,73.72,108.11,72.62,108.12,71.53Z" fill="#72461c"/>
        <path d="M48.54,65.56c2.79,2.68,6.59,3.31,10,4.76a31.08,31.08,0,0,0,4.2,1.19c.2,6.09.21,6.08-5.5,3.83-5.07-2-10-4.2-14.4-7.92C44.67,66.19,46.68,66.08,48.54,65.56Z" fill="#72461c"/>
        <path d="M123.94,64.54c2.58-.29,4.31-2.05,6.12-3.64,1.33-1.17-.68-.72-.66-1.27,1.73-.31,3.28.58,5,.56C132,65.75,130.62,66.29,123.94,64.54Z" fill="#72461b"/>
        <path d="M42,59.61c-.2.54-2.18.39-.74,1.5,1.75,1.35,3.3,3.11,5.68,3.44a29.87,29.87,0,0,1-4.71.91c-3.29.14-3.89-2.86-5.8-5.09C38.57,60.06,40.19,59.35,42,59.61Z" fill="#72461c"/>
        <path d="M34.32,52.92c1.26,1.63,2.1,3.6,3.84,4.85C34.78,57.82,34.38,57.31,34.32,52.92Z" fill="#6f451b"/>
        <path d="M113.12,31.61c0,2.77-.46,4.89-1.94,6.64-1.85,2.17-4.25,2.14-6,0-2.49-3-2.5-9.21,0-12.28,1.82-2.26,4.47-2.26,6.23,0A9,9,0,0,1,113.12,31.61Z" fill="#300e02"/>
        <path d="M55.54,31.83A9.1,9.1,0,0,1,57.31,26c1.76-2.32,4.38-2.33,6.21-.06C66,29,66,35.16,63.51,38.21c-1.71,2.1-4,2.19-5.86.24C56.29,37,55.56,34.85,55.54,31.83Z" fill="#300f02"/>
        <path d="M96.07,60c.55-1,1.23-1.94,2.55-1.33,1.15.53.91,1.7.79,2.66a7.24,7.24,0,0,1-5.1,6.15,2.82,2.82,0,0,0-2.15,2,6.66,6.66,0,0,1-6.6,4.73,6.54,6.54,0,0,1-6.39-4.61,3.1,3.1,0,0,0-2.38-2.16,7.58,7.58,0,0,1-5.14-6.17c-.19-1-.22-2,.88-2.61s1.73,0,2.29.83c2.36,4.87,5.47,5.23,8.72,1,.69-1.6.64-2.94-1.1-3.92-.6-.35-1-1.06-1.51-1.55-1.61-1.5-2.33-3.27-1.47-5.39s2.64-2.84,4.83-2.78c1.09,0,2.18,0,3.27,0a4.24,4.24,0,0,1,4.08,2.66,4.47,4.47,0,0,1-.82,4.84,11.68,11.68,0,0,1-2.27,2.33A2.63,2.63,0,0,0,87.41,60c.74,1.94,2.15,3.33,4.18,3.39C93.79,63.5,95.18,62,96.07,60Z" fill="#300f02"/>
        <path d="M83.54,60.56c-.25,2.57-1.67,4-4,4.08-2.68.09-4.29-1.65-4.72-5.09C77.42,62.53,80.43,62,83.54,60.56Z" fill="#d09261"/>
        <path d="M96.07,60c-.21,2.9-2,4.72-4.47,4.64s-4-1.86-4.19-4.64C90.81,62.37,92.59,62.37,96.07,60Z" fill="#d19362"/>
        <path d="M85.72,71c-1.91-.18-3.55-1.18-3.48-2.9.05-1.43,2.22-1.79,3.3-2.81,1,1.17,3.36,1.31,3.4,3S87.3,70.77,85.72,71Z" fill="#edd0b1"/>
      </g>
    </symbol>
  </defs>
  <rect id="Figment_lido" x="-1.22" y="-1.06" width="252.5" height="252.5" transform="translate(-0.16 250.22) rotate(-90)" fill="#aceae7"/>
  <use width="171.01" height="152.46" transform="translate(24.87 77.14) scale(1.22)" xlink:href="#Erigon"/>
</svg>
