<svg id="Capa_1" data-name="Capa 1" xmlns="http://www.w3.org/2000/svg" xmlns:xlink="http://www.w3.org/1999/xlink" width="250" height="250" viewBox="0 0 250 250">
  <defs>
    <symbol id="Everstake_pool" data-name="Everstake_pool" viewBox="0 0 38.1 38.09">
      <path d="M16.39,9.18h6A3.38,3.38,0,0,1,25.61,11c2,3.51,4,7,6.06,10.51a4,4,0,0,1,0,4.21q-3.07,5.34-6.17,10.68a3.15,3.15,0,0,1-3,1.69H10.28a3.89,3.89,0,0,1-3.57-2C4.6,32.48,2.52,28.85.44,25.22A3.06,3.06,0,0,1,.48,22L6.6,11.35a4,4,0,0,1,3.76-2.17ZM2.64,23a4,4,0,0,1,2.41-.56c3.14,0,6.28,0,9.43,0A1.56,1.56,0,0,0,16,21.55c1.33-2.35,2.7-4.68,4.05-7l1.69-2.93H10.05a5.41,5.41,0,0,1,1.09,1c1,1.69,2,3.41,3,5.14a1.17,1.17,0,0,1-.49,1.56,1.2,1.2,0,0,1-1.58-.43c-.09-.13-.16-.28-.24-.42-1.08-1.86-2.16-3.71-3.29-5.67ZM23.87,34.53l5.82-10.11a10.2,10.2,0,0,1-1.93.4c-1.68.06-3.37,0-5.06,0-.93,0-1.46-.47-1.44-1.23s.52-1.17,1.42-1.18H29.4c-.12-.25-.18-.42-.27-.58-1.44-2.5-2.91-5-4.32-7.5a12.7,12.7,0,0,1-.73-2c.09-.07,0,0,0,0L18,22.9a1.36,1.36,0,0,0,0,1.5c.64,1.07,1.26,2.16,1.88,3.24Zm-15.54.35.12-.18,3.47-6c.48-.83,1.1-1.07,1.75-.7s.78,1.09.29,1.93c-.39.68-.79,1.35-1.19,2l-2.12,3.71H22.26A8,8,0,0,1,21,34.35q-2.53-4.26-5-8.58a1.66,1.66,0,0,0-1.61-.94c-3.56,0-7.12,0-10.68,0H3c.17.32.27.55.4.76C4.8,28,6.23,30.47,7.61,32.93A13.22,13.22,0,0,1,8.33,34.88Z" fill="#fff"/>
      <g>
        <path d="M33.08,14.34a4.93,4.93,0,0,1-4.43-2.71,4.88,4.88,0,0,1,.19-5c.1-.17.17-.17.34-.08l3.64,2.14a.45.45,0,0,0,.53,0L37,6.56c.18-.11.25-.07.35.09a5,5,0,0,1-3.57,7.62Z" fill="#00a2fd"/>
        <path d="M33.09,0l2.14,3.35c.43.67.85,1.34,1.28,2,.11.16.08.23-.07.32-1.07.61-2.13,1.23-3.19,1.85a.29.29,0,0,1-.33,0c-1.06-.63-2.13-1.25-3.21-1.87-.1-.06-.17-.1-.08-.24Zm0,1.49L33,1.6C32.22,2.78,31.47,4,30.71,5.16c-.09.12,0,.16.07.22q1.09.62,2.16,1.26a.3.3,0,0,0,.33,0l1.69-1c.19-.11.49-.19.53-.35s-.19-.36-.3-.55l-2-3.06C33.19,1.6,33.17,1.52,33.07,1.49Z" fill="#009ff9"/>
      </g>
    </symbol>
  </defs>
  <rect id="Figment_lido" x="-1.22" y="-1.06" width="252.5" height="252.5" transform="translate(-0.16 250.22) rotate(-90)" fill="#3f3f3f"/>
  <use width="38.1" height="38.09" transform="translate(39.57 39.58) scale(4.48)" xlink:href="#Everstake_pool"/>
</svg>
