<svg id="Capa_1" data-name="Capa 1" xmlns="http://www.w3.org/2000/svg" xmlns:xlink="http://www.w3.org/1999/xlink" width="250" height="250" viewBox="0 0 250 250">
  <defs>
    <symbol id="Ghas.eth" data-name="Ghas.eth" viewBox="0 0 22.47 22.45">
      <g>
        <path d="M2.83,0H19.65a3.15,3.15,0,0,1,.22,2.68.64.64,0,0,1-.18.25,2.6,2.6,0,0,1-1.6.24c-.64,0-.9.28-.87.9a10.18,10.18,0,0,1-.06,1.56,8.22,8.22,0,0,1,.06,1.49c0,.68.29.93,1,.93s1.18-.15,1.64.38a3.52,3.52,0,0,1-.1,2.86,1.57,1.57,0,0,1-1.15.3H4a1.72,1.72,0,0,1-1.17-.27,3.48,3.48,0,0,1-.15-2.86c.42-.55,1-.39,1.6-.42.89-.05,1-.13,1-1a10.54,10.54,0,0,1,.06-1.38,10.08,10.08,0,0,1-.05-1.55c0-.66-.24-1-.91-.94A2.66,2.66,0,0,1,2.84,3a.79.79,0,0,1-.21-.24A3.16,3.16,0,0,1,2.83,0Z" fill="#e3a7c8"/>
        <path d="M2.82,11.23H19.66l.13.09a3.93,3.93,0,0,1,.07,2.62.71.71,0,0,1-.19.23,2.6,2.6,0,0,1-1.6.22c-.8,0-.86.47-.86,1.08s.11,1,.85,1c.57,0,1.15,0,1.73.05.9,0,1.84-.34,2.66.32v2.81a1,1,0,0,1-.76.36c-2.4,0-4.79.05-7.18,0a.82.82,0,0,1-.33-.12.73.73,0,0,1-.27-.2,5.86,5.86,0,0,1-.19-2.76c-.05-.57-.06-1.16-.06-1.74a.66.66,0,0,0-.74-.75c-1.14,0-2.27,0-3.4,0a.64.64,0,0,0-.7.71c0,.58,0,1.16-.06,1.74a6.5,6.5,0,0,1-.15,2.74.78.78,0,0,1-.25.23,1.26,1.26,0,0,1-.5.15C5.5,20,3.15,20,.79,20A1,1,0,0,1,0,19.64V16.83c.82-.66,1.76-.3,2.65-.32.61,0,1.22-.06,1.83-.05s.76-.45.76-1,0-1.07-.78-1.07a3.14,3.14,0,0,1-1.63-.2A.6.6,0,0,1,2.65,14a3.86,3.86,0,0,1,0-2.66Z" fill="#70dd93"/>
        <path d="M0,19.64H8.44a2.7,2.7,0,0,1,0,2.81c-2.63,0-5.26,0-7.89,0-.43,0-.56-.09-.53-.53C.06,21.16,0,20.4,0,19.64Z" fill="#e3a7c8"/>
        <path d="M14,19.63h8.41c0,.79,0,1.58,0,2.36,0,.38-.08.46-.45.45-2.66,0-5.32,0-8,0A2.73,2.73,0,0,1,14,19.63Z" fill="#e3a7c8"/>
        <path d="M14,19.63v2.81H8.44V19.63h0a1.14,1.14,0,0,1,.94-.37c1.25,0,2.5,0,3.74,0a1.14,1.14,0,0,1,.94.37Z" fill="#70dd93"/>
        <path d="M2.83,0v2.8A2.63,2.63,0,0,1,0,2.81C0,2,.05,1.18,0,.36,0,.06.07,0,.38,0,1.2,0,2,0,2.83,0Z" fill="#70dd93"/>
        <path d="M19.66,2.81V0c.82,0,1.64,0,2.45,0,.31,0,.37.06.36.36,0,.82,0,1.64,0,2.45A2.63,2.63,0,0,1,19.66,2.81Z" fill="#70dd93"/>
        <path d="M0,2.81H2.84a2.65,2.65,0,0,1,0,2.77L0,5.62Z" fill="#e3a7c8"/>
        <path d="M19.66,2.81h2.79V5.62l-2.8,0a2.65,2.65,0,0,1,0-2.77Z" fill="#e3a7c8"/>
        <path d="M0,8.35l2.8,0c0,.95,0,1.89,0,2.84h0a2.6,2.6,0,0,1-2.8,0Z" fill="#900d5c"/>
        <path d="M19.65,8.3l2.8,0v2.94a2.54,2.54,0,0,1-2.8,0h0C19.66,10.24,19.65,9.27,19.65,8.3Z" fill="#900d5c"/>
        <path d="M0,11.23h2.8V14A2.69,2.69,0,0,1,0,14Z" fill="#e3a7c8"/>
        <path d="M19.65,11.22h2.8V14a2.69,2.69,0,0,1-2.8,0Z" fill="#e3a7c8"/>
        <path d="M0,14H2.82a2.61,2.61,0,0,1,0,2.78l-2.8,0Z" fill="#900d5c"/>
        <path d="M19.65,14h2.8v2.8l-2.8,0a2.61,2.61,0,0,1,0-2.78Z" fill="#900d5c"/>
        <path d="M8.47,16.83H14l0,2.81H8.43Z" fill="#e3a7c8"/>
        <path d="M2.83,16.81V14H5.08c.88,0,.6.73.52,1.09-.13.57.62,1.51-.51,1.69A14.21,14.21,0,0,1,2.83,16.81Z" fill="#e3a7c8"/>
        <path d="M19.66,14c0,.92,0,1.85,0,2.78a14.08,14.08,0,0,1-2.25,0c-1.14-.18-.38-1.12-.52-1.69-.08-.36-.36-1.08.52-1.09Z" fill="#e3a7c8"/>
        <rect x="2.77" y="2.85" width="2.84" height="2.79" fill="#900d5c"/>
        <rect x="16.83" y="2.87" width="2.84" height="2.79" fill="#900d5c"/>
        <rect x="8.42" y="14.09" width="5.62" height="2.79" fill="#900d5c"/>
        <rect x="2.79" y="14.01" width="2.96" height="2.79" fill="#e3a7c8"/>
        <rect x="16.73" y="14.01" width="2.96" height="2.79" fill="#e3a7c8"/>
        <rect x="8.46" y="5.44" width="5.62" height="2.79" fill="#900d5c"/>
        <rect x="8.46" y="2.69" width="5.62" height="2.79" fill="#70dd93"/>
        <rect x="16.82" y="5.58" width="5.62" height="2.79" fill="#70dd93"/>
        <rect y="5.58" width="5.62" height="2.79" fill="#70dd93"/>
      </g>
    </symbol>
  </defs>
  <rect id="Figment_lido" x="-1.22" y="-1.06" width="252.5" height="252.5" transform="translate(-0.16 250.22) rotate(-90)" fill="#fff"/>
  <use width="22.47" height="22.45" transform="translate(45 45) scale(7.12 7.13)" xlink:href="#Ghas.eth"/>
</svg>
