<svg id="Capa_1" data-name="Capa 1" xmlns="http://www.w3.org/2000/svg" xmlns:xlink="http://www.w3.org/1999/xlink" width="250" height="250" viewBox="0 0 250 250">
  <defs>
    <symbol id="Huobi" data-name="Huobi" viewBox="0 0 17.19 26.59">
      <g>
        <path d="M6.78,26.59a.14.14,0,0,0-.09,0,7.11,7.11,0,0,1-1.44-.46,8.43,8.43,0,0,1-2-1.34,9.8,9.8,0,0,1-2.12-2.67,9.35,9.35,0,0,1-.95-2.67A6.89,6.89,0,0,1,0,18.06v-.49a6.57,6.57,0,0,1,.1-1.08,8.92,8.92,0,0,1,1-2.8,11.26,11.26,0,0,1,1.23-1.83c.3-.36.63-.71,1-1S4,10,4.33,9.63a15.36,15.36,0,0,0,1.51-1.9,11.9,11.9,0,0,0,1-2,12.66,12.66,0,0,0,.84-3c.07-.42.13-.85.16-1.27s0-.56.05-.83S8,.3,8,.13A.19.19,0,0,1,8,0h.07A6.18,6.18,0,0,1,9.18,1.22a11.41,11.41,0,0,1,1.35,2.65,12.45,12.45,0,0,1,.57,2.07c.06.35.11.71.15,1.07s0,.61.05.91a4.91,4.91,0,0,1-.44,2.21,11.34,11.34,0,0,1-.95,1.7c-.41.61-.86,1.21-1.31,1.8s-1,1.27-1.43,1.93A14.47,14.47,0,0,0,6,17.6a7.19,7.19,0,0,0-.65,1.91,5.35,5.35,0,0,0-.09,1.38,8.17,8.17,0,0,0,.33,1.84,11.68,11.68,0,0,0,.89,2.16c.2.37.41.73.6,1.11a1.22,1.22,0,0,1,.14.33.19.19,0,0,1-.11.24l0,0Z" fill="#282e5b"/>
        <path d="M11.16,26.59l-.38-.42a10.65,10.65,0,0,1-1-1.32,5.8,5.8,0,0,1-.92-3.55,8.87,8.87,0,0,1,.77-3,16.48,16.48,0,0,1,1.48-2.62c.44-.63.86-1.26,1.24-1.92a16.05,16.05,0,0,0,1-2,6.4,6.4,0,0,0,.26-.85.77.77,0,0,1,0-.15.07.07,0,0,1,.11-.05l.06,0a9.9,9.9,0,0,1,2.11,2.49A8.78,8.78,0,0,1,17,16a9.17,9.17,0,0,1,.17,2.09A8.7,8.7,0,0,1,17,19.81a8,8,0,0,1-1.29,2.87,9,9,0,0,1-2.6,2.43l-.4.22a3.77,3.77,0,0,0-.88.59,2.74,2.74,0,0,0-.38.45,1.59,1.59,0,0,0-.13.22Z" fill="#1bc2ef"/>
      </g>
    </symbol>
  </defs>
  <rect id="Figment_lido" x="-1.22" y="-1.06" width="252.5" height="252.5" transform="translate(-0.16 250.22) rotate(-90)" fill="#fff"/>
  <use width="17.19" height="26.59" transform="translate(63.61 30.05) scale(7.14)" xlink:href="#Huobi"/>
</svg>
