<svg id="Capa_1" data-name="Capa 1" xmlns="http://www.w3.org/2000/svg" xmlns:xlink="http://www.w3.org/1999/xlink" width="250" height="250" viewBox="0 0 250 250">
  <defs>
    <symbol id="Infstones" data-name="Infstones" viewBox="0 0 18.93 18.82">
      <path d="M13.72,3.89l-1.84.47a7.71,7.71,0,0,0-.22-1A2.23,2.23,0,0,0,9.57,1.89,2.21,2.21,0,0,0,7.39,3.16a2.19,2.19,0,0,0,.22,2.48c.92,1.15,1.87,2.28,2.81,3.41.79,1,1.59,1.91,2.37,2.87a4.22,4.22,0,0,1-2.42,6.81A4.31,4.31,0,0,1,5.28,15.4c-.1-.5-.06-.53.42-.64s.92-.25,1.42-.39c0,.21,0,.43,0,.64a2.36,2.36,0,0,0,4.65-.08,2.24,2.24,0,0,0-.52-1.83C9.6,11,7.89,9,6.21,6.93a4,4,0,0,1-.67-4.31A4.07,4.07,0,0,1,9,0a4.26,4.26,0,0,1,4.7,3.29C13.68,3.52,13.69,3.72,13.72,3.89Z" fill="#edb500"/>
      <path d="M9.09,11.51c-1.24,1.72-2.8,2.81-5,2.5A4.44,4.44,0,0,1,.31,11a4.42,4.42,0,0,1,.93-4.7A4.51,4.51,0,0,1,4.48,4.75l.64,2c-.3,0-.63,0-1,.09a2.66,2.66,0,0,0-.58,5,2.71,2.71,0,0,0,3.09-.57c.39-.41.75-.84,1.15-1.28Z" fill="#fff"/>
      <path d="M14.48,14.06l-.66-2h.44A2.68,2.68,0,1,0,12.33,7.5c-.41.41-.79.85-1.21,1.32L9.86,7.3a5.4,5.4,0,0,1,4-2.54,4.71,4.71,0,0,1,5,4,4.66,4.66,0,0,1-3.57,5.21C15,14,14.73,14,14.48,14.06Z" fill="#fff"/>
    </symbol>
  </defs>
  <rect id="Figment_lido" x="-1.22" y="-1.06" width="252.5" height="252.5" transform="translate(-0.16 250.22) rotate(-90)" fill="#2c4e9b"/>
  <use width="18.93" height="18.82" transform="translate(38.17 38.65) scale(9.18)" xlink:href="#Infstones"/>
</svg>
