<svg id="Capa_1" data-name="Capa 1" xmlns="http://www.w3.org/2000/svg" xmlns:xlink="http://www.w3.org/1999/xlink" width="250" height="250" viewBox="0 0 250 250">
  <defs>
    <symbol id="infstones_lido" data-name="infstones_lido" viewBox="0 0 25.02 26.67">
      <g>
        <path d="M21.43,10.25a3.51,3.51,0,0,1-3.16-1.94,3.47,3.47,0,0,1,.13-3.57c.07-.12.12-.12.24,0l2.61,1.52a.32.32,0,0,0,.38,0l2.59-1.52c.13-.08.18-.05.25.06a3.58,3.58,0,0,1-2.56,5.45Z" fill="#fff"/>
        <path d="M21.44,0c.52.82,1,1.61,1.53,2.39.3.48.6,1,.92,1.44.07.11.05.16-.06.22L21.55,5.38a.2.2,0,0,1-.23,0L19,4C19,4,18.9,4,19,3.86Zm0,1.06-.06.08c-.54.85-1.08,1.7-1.63,2.55-.05.09,0,.11.06.15l1.54.9a.19.19,0,0,0,.24,0L22.78,4c.13-.08.34-.14.37-.25s-.13-.26-.21-.39l-1.4-2.19S21.5,1.08,21.42,1.06Z" fill="#fff"/>
      </g>
      <path d="M15.08,10.25l-2,.51a7.72,7.72,0,0,0-.25-1.09,2.43,2.43,0,0,0-2.29-1.62,2.41,2.41,0,0,0-2.4,1.39,2.38,2.38,0,0,0,.24,2.72c1,1.27,2.06,2.51,3.09,3.76.87,1,1.75,2.09,2.61,3.15a4.65,4.65,0,0,1-2.67,7.5A4.72,4.72,0,0,1,5.81,22.9c-.11-.54-.07-.58.46-.7s1-.28,1.56-.43c0,.23,0,.47,0,.7A2.59,2.59,0,0,0,13,22.38a2.47,2.47,0,0,0-.57-2c-1.86-2.26-3.74-4.51-5.59-6.78a4.41,4.41,0,0,1-.74-4.74A4.48,4.48,0,0,1,9.84,6,4.66,4.66,0,0,1,15,9.63C15.05,9.84,15.06,10.05,15.08,10.25Z" fill="#edb500"/>
      <path d="M10,18.62c-1.36,1.89-3.08,3.09-5.51,2.75A4.88,4.88,0,0,1,.35,18.05a4.85,4.85,0,0,1,1-5.17,5,5,0,0,1,3.56-1.69l.71,2.14a9.6,9.6,0,0,0-1,.1,2.95,2.95,0,1,0,2.75,4.92c.43-.45.84-.92,1.28-1.41Z" fill="#fff"/>
      <path d="M15.93,21.43l-.73-2.17h.48a3,3,0,1,0-2.12-5.05c-.45.45-.87.94-1.33,1.45L10.84,14a6,6,0,0,1,4.38-2.79,5.12,5.12,0,0,1,1.61,10.09C16.52,21.36,16.2,21.39,15.93,21.43Z" fill="#fff"/>
    </symbol>
  </defs>
  <rect id="Figment_lido" x="-1.22" y="-1.06" width="252.5" height="252.5" transform="translate(-0.16 250.22) rotate(-90)" fill="#2c4e9b"/>
  <use width="25.02" height="26.67" transform="translate(42.28 36.84) scale(6.61)" xlink:href="#infstones_lido"/>
</svg>
