<svg id="Capa_1" data-name="Capa 1" xmlns="http://www.w3.org/2000/svg" xmlns:xlink="http://www.w3.org/1999/xlink" width="250" height="250" viewBox="0 0 250 250">
  <defs>
    <symbol id="Nuevo_símbolo_6" data-name="Nuevo símbolo 6" viewBox="0 0 307.67 335.27">
      <path d="M55.07,288c-3.4,10.43-10.79,16.59-21.29,18.62-10.73,2.07-19.93-1.18-27-9.78-1.14-3.34-3.73-5.89-5-9.18C.07,284.49,0,281,0,277.51Q0,167.71,0,57.92c0-3.51.23-7,1.8-10.2,1-2.85,3-5.17,4.07-8l1-1.1c5-4.06,10-8.09,16.74-9.13C42.21,26.63,56.22,41.28,56,56.67c-.35,21.3-.12,42.6,0,63.9,0,2.06-1.14,4.94,1,6,2.48,1.25,3.52-1.89,4.92-3.26,17.51-17,34.62-34.36,51.86-51.61,12-12,24-23.81,35.8-36,4.49-4.64,9.09-9.2,13.73-13.7a18.35,18.35,0,0,0,3.52-4.79c3.89-3.34,7.42-7.09,11.25-10.51C188.76-2.86,205.33-2,215.85,8c9.87,9.32,19.38,19,28.94,28.59,11.87,11.95,24,23.7,35.67,35.82,5.15,5.34,10.56,10.56,16.12,15.54,12.07,10.84,15.51,27.37,4.14,41.88-10.26,10.81-27.59,12.26-40.51,2.5a71.75,71.75,0,0,1-8.58-8.41,7.6,7.6,0,0,0-1.86-1.85,10.27,10.27,0,0,1-2.28-2.28,7.44,7.44,0,0,0-1.83-1.84c-4.81-4.58-9.53-9.25-14.09-14.06a8.07,8.07,0,0,0-1.88-1.9c-3.48-3.25-6.86-6.6-10.09-10.1A7.2,7.2,0,0,0,217.77,90a9.74,9.74,0,0,1-2.26-2.27A7.53,7.53,0,0,0,213.68,86c-3.51-3.22-6.79-6.66-10.14-10A9,9,0,0,0,201.7,74c-6.15-5.64-6.15-5.64-12.59,1.76a32.74,32.74,0,0,0-2.57,2.14,10.86,10.86,0,0,0-3.65,3.64,30.78,30.78,0,0,0-3.26,3.3,15.31,15.31,0,0,0-2.8,2.83c-2,1.49-3,4-5.23,5.24a10.77,10.77,0,0,0-4.6,4.68c-10.27,11.37-21.48,21.8-32.24,32.67s-21.58,21.7-32.47,32.45c-1.44,1.42-2.79,2.89-2.86,5.07.25,2.34,1.83,3.81,3.38,5.36,25.82,25.7,51.47,51.59,77.35,77.23a24.49,24.49,0,0,1,3,3.34,9.85,9.85,0,0,0,3.61,3.91c2.57,1.85,4.46,4.42,6.82,6.51,2.11,1.87,3.45,1.8,5.39-.17,7.32-7.44,14.76-14.76,22.24-22,7.71-7.5,15-15.43,22.92-22.72,4.48-4.12,8.53-8.81,12.79-13.22a24.25,24.25,0,0,1,4.56-3.84,32.47,32.47,0,0,1,25.6-5.08c7.29,1.5,19.25,12.65,19.52,21.22a99.21,99.21,0,0,1-.46,14.24c-.44,3.92-2.68,7.1-5.48,9.82-10.12,9.78-19.78,20-30,29.67C263,279.31,255.6,287,248.12,294.42c-8.3,8.28-17.1,16.15-24.73,25.12A79.29,79.29,0,0,1,212.22,330c-8.14,6.44-17.75,6.28-27.38,3.25-2.5-.5-4.16-2.45-6.27-3.64a6,6,0,0,1-1.21-.86c-37.88-40-77.59-78.23-116.32-117.4-.47-.48-.93-1-1.43-1.4-.73-.63-1.43-1.74-2.47-1.28-1.24.56-1,1.88-1,3.07.41,21.14,0,42.28.23,63.42A73.73,73.73,0,0,1,55.07,288Z" fill="#fefefe"/>
      <path d="M177.82,146.72c10.76-9.37,26.53-9.64,36.93-.63a28.4,28.4,0,0,1-30.48,47.36,28,28,0,0,1-14.74-33.83,85,85,0,0,0,4.09-8.15l-.07.08A28,28,0,0,0,177.82,146.72Z" fill="#fefefe"/>
    </symbol>
  </defs>
  <rect id="Figment_lido" x="-1.22" y="-1.06" width="252.5" height="252.5" transform="translate(-0.16 250.22) rotate(-90)" fill="#01bc8d"/>
  <use width="307.67" height="335.27" transform="translate(41.86 34.4) scale(0.54)" xlink:href="#Nuevo_símbolo_6"/>
</svg>
