<svg id="Capa_1" data-name="Capa 1" xmlns="http://www.w3.org/2000/svg" xmlns:xlink="http://www.w3.org/1999/xlink" width="250" height="250" viewBox="0 0 250 250">
  <defs>
    <symbol id="kukisglobal" data-name="kukisglobal" viewBox="0 0 54.13 28.97">
      <g>
        <path d="M1.78,28.91a1.75,1.75,0,0,1-1.32-.48A1.85,1.85,0,0,1,0,27.09v-21A1.75,1.75,0,0,1,.46,4.76a1.82,1.82,0,0,1,1.32-.45,1.82,1.82,0,0,1,1.32.45,1.79,1.79,0,0,1,.46,1.33v9.3h.07L14.13,5.23a4,4,0,0,1,1-.7,2.53,2.53,0,0,1,1-.22,1.48,1.48,0,0,1,1.14.39,1.12,1.12,0,0,1,.29.94A1.85,1.85,0,0,1,17,6.71L6.09,17.1l.07-1.74,11.35,11a1.77,1.77,0,0,1,.65,1.19,1.22,1.22,0,0,1-.37,1,1.63,1.63,0,0,1-1.16.4,2,2,0,0,1-1.1-.28,7.53,7.53,0,0,1-1-.79L3.63,17.41H3.56v9.68a1.89,1.89,0,0,1-.45,1.34A1.72,1.72,0,0,1,1.78,28.91Z" fill="#c6c6c6"/>
        <path d="M32.29,29a13.6,13.6,0,0,1-6.63-1.48,9.73,9.73,0,0,1-4.09-4.26,14.54,14.54,0,0,1-1.39-6.6A15.25,15.25,0,0,1,21,11.48a10.88,10.88,0,0,1,2.32-3.9A9.93,9.93,0,0,1,27,5.1a13.78,13.78,0,0,1,5-.86,15.72,15.72,0,0,1,4,.53A10.91,10.91,0,0,1,39.71,6.5a1.54,1.54,0,0,1,.62.79,1.62,1.62,0,0,1,0,.9A1.81,1.81,0,0,1,39.9,9a1.32,1.32,0,0,1-.78.41,1.52,1.52,0,0,1-1-.28A10,10,0,0,0,35.3,7.78a11.78,11.78,0,0,0-3.25-.43,8.62,8.62,0,0,0-4.5,1.1,6.82,6.82,0,0,0-2.75,3.16,12.2,12.2,0,0,0-.92,5c0,3,.71,5.33,2.15,6.9s3.57,2.37,6.4,2.37a15.41,15.41,0,0,0,3-.3,15.86,15.86,0,0,0,2.85-.83l-.72,1.78v-8H33.18a1.54,1.54,0,0,1-1.08-.35,1.31,1.31,0,0,1-.39-1,1.2,1.2,0,0,1,.39-1,1.69,1.69,0,0,1,1.08-.32H39.1a1.47,1.47,0,0,1,1.09.37,1.5,1.5,0,0,1,.38,1.1V26a2.19,2.19,0,0,1-.22,1,1.33,1.33,0,0,1-.74.63,17.47,17.47,0,0,1-3.45.94A21.7,21.7,0,0,1,32.29,29Z" fill="#c6c6c6"/>
      </g>
      <g>
        <path d="M48.39,16.36a5.62,5.62,0,0,1-5-3.09,5.56,5.56,0,0,1,.22-5.7c.12-.2.2-.2.38-.09,1.39.82,2.78,1.61,4.16,2.44a.53.53,0,0,0,.61,0c1.37-.82,2.76-1.61,4.13-2.43.22-.12.29-.08.41.11a5.73,5.73,0,0,1-4.08,8.7Z" fill="#00a2fd"/>
        <path d="M48.41,0c.83,1.31,1.64,2.57,2.44,3.82.49.77,1,1.53,1.47,2.29.12.18.09.26-.09.36-1.22.7-2.43,1.4-3.64,2.12a.32.32,0,0,1-.37,0L44.56,6.45c-.12-.07-.2-.12-.1-.28Zm0,1.7-.09.12-2.6,4.06c-.1.15,0,.19.09.25l2.46,1.44a.31.31,0,0,0,.37,0l1.93-1.13c.22-.13.56-.23.6-.4s-.21-.42-.34-.63L48.57,1.9C48.52,1.83,48.5,1.73,48.38,1.7Z" fill="#009ff9"/>
      </g>
    </symbol>
  </defs>
  <rect id="Figment_lido" x="-1.22" y="-1.06" width="252.5" height="252.5" transform="translate(-0.16 250.22) rotate(-90)" fill="#6c6c6c"/>
  <use width="54.13" height="28.97" transform="translate(32.83 73.7) scale(3.49)" xlink:href="#kukisglobal"/>
</svg>
