<svg id="Capa_1" data-name="Capa 1" xmlns="http://www.w3.org/2000/svg" xmlns:xlink="http://www.w3.org/1999/xlink" width="250" height="250" viewBox="0 0 250 250">
  <defs>
    <symbol id="Nethermind" data-name="Nethermind" viewBox="0 0 21.51 12.9">
      <g>
        <path d="M4.11,7a1.74,1.74,0,0,1,.75.19L6,5.22a4,4,0,0,0-1.91-.49,4.06,4.06,0,0,0-2.54.91L3.07,7.33A1.84,1.84,0,0,1,4.11,7Z" fill="#0779b8"/>
        <path d="M2.29,8.82a1.81,1.81,0,0,1,.78-1.49L1.53,5.64A4.08,4.08,0,0,0,0,8.8a4.25,4.25,0,0,0,.14,1l2.21-.56A1.61,1.61,0,0,1,2.29,8.82Z" fill="#005fa1"/>
        <path d="M5.27,10.2a1.77,1.77,0,0,1-1.16.44A1.8,1.8,0,0,1,2.35,9.26L.14,9.82A4,4,0,0,0,6.55,12Z" fill="#e98b2b"/>
        <path d="M5.7,8l1.82-1.3A4.21,4.21,0,0,0,6,5.22l-1.12,2A1.81,1.81,0,0,1,5.7,8Z" fill="#0f8bcb"/>
      </g>
      <g>
        <path d="M12.07,10.63a1.72,1.72,0,0,1-.76-.15l-1,2a4,4,0,0,0,4.42-.64l-1.62-1.61A1.79,1.79,0,0,1,12.07,10.63Z" fill="#03adde"/>
        <path d="M13.79,8.73a1.8,1.8,0,0,1-.71,1.52l1.62,1.61a4.06,4.06,0,0,0,1.38-3.23,4.12,4.12,0,0,0-.19-1l-2.18.67A1.93,1.93,0,0,1,13.79,8.73Z" fill="#46c1e0"/>
        <path d="M10.74,7.49A1.83,1.83,0,0,1,11.89,7a1.8,1.8,0,0,1,1.82,1.3l2.18-.67A4,4,0,0,0,9.38,5.75Z" fill="#e98b2b"/>
        <path d="M10.43,9.75,8.67,11.13a4,4,0,0,0,1.61,1.37l1-2A1.76,1.76,0,0,1,10.43,9.75Z" fill="#10a6db"/>
      </g>
      <g>
        <path d="M18.93,7.37A2.55,2.55,0,0,1,16.65,6a2.52,2.52,0,0,1,.1-2.57c.05-.09.09-.09.17,0l1.88,1.1a.23.23,0,0,0,.27,0l1.86-1.09c.1-.06.13,0,.19,0a2.58,2.58,0,0,1-1.84,3.91Z" fill="#00a2fd"/>
        <path d="M18.93,0,20,1.72c.22.35.44.69.67,1,.05.08,0,.12,0,.16L19,3.87a.17.17,0,0,1-.17,0l-1.65-1c-.05,0-.09,0,0-.12Zm0,.76,0,.06L17.71,2.65c0,.06,0,.08,0,.11l1.11.65c.06,0,.11,0,.17,0l.87-.51c.09-.06.25-.1.27-.18s-.1-.19-.16-.28c-.33-.53-.67-1.05-1-1.57C19,.82,19,.78,18.92.76Z" fill="#009ff9"/>
      </g>
    </symbol>
  </defs>
  <rect id="Figment_lido" x="-1.22" y="-1.06" width="252.5" height="252.5" transform="translate(-0.16 250.22) rotate(-90)" fill="#fff"/>
  <use width="21.51" height="12.9" transform="translate(19.3 61.61) scale(9.83)" xlink:href="#Nethermind"/>
</svg>
