<svg id="Capa_1" data-name="Capa 1" xmlns="http://www.w3.org/2000/svg" xmlns:xlink="http://www.w3.org/1999/xlink" width="250" height="250" viewBox="0 0 250 250">
  <defs>
    <symbol id="Nuevo_símbolo" data-name="Nuevo símbolo" viewBox="0 0 31.83 9.55">
      <g>
        <path d="M4.76,9.55H.37C0,9.55,0,9.53,0,9.17V.36C0,0,0,0,.36,0H9.21c.28,0,.34.06.34.34V9.19c0,.32-.05.36-.37.36Zm0-6.37H3.48c-.21,0-.3.09-.3.31q0,1.29,0,2.58c0,.21.09.3.31.3H6.07c.21,0,.3-.09.3-.31q0-1.29,0-2.58c0-.21-.09-.3-.31-.3Z" fill="#fff"/>
        <path d="M14.32,6.37V9.18c0,.32-.05.37-.36.37H11.5c-.32,0-.36-.05-.36-.37V.4c0-.37,0-.4.39-.4H14c.29,0,.34.05.34.33V3.18h2.84c.31,0,.34,0,.34.33V6c0,.27-.06.32-.33.33H14.32Z" fill="#fff"/>
        <path d="M19.1,9.55c-.43,0-.86,0-1.29,0-.21,0-.31-.08-.31-.3V6.68c0-.25.07-.31.32-.31h2.53c.28,0,.33,0,.34.31V9.24c0,.25-.07.31-.32.31Z" fill="#fff"/>
        <path d="M19.08,3.18H17.79c-.2,0-.29-.09-.29-.29,0-.88,0-1.75,0-2.63A.24.24,0,0,1,17.77,0h2.65a.24.24,0,0,1,.27.27c0,.87,0,1.75,0,2.62,0,.22-.11.3-.32.3Z" fill="#fff"/>
        <path d="M31.83,1.58V2.84c0,.3,0,.34-.33.34H29c-.29,0-.34-.05-.34-.32,0-.86,0-1.71,0-2.56,0-.22.11-.3.31-.3h2.56c.27,0,.32.06.32.33V1.58Z" fill="#fff"/>
        <path d="M25.46,1.6V2.91c0,.19-.08.27-.25.27H22.53c-.16,0-.25-.08-.25-.26V.25A.23.23,0,0,1,22.54,0h2.65c.2,0,.28.09.27.29V1.6Z" fill="#fff"/>
        <path d="M28.64,4.8c0,.43,0,.86,0,1.29a.24.24,0,0,1-.28.28H25.74a.24.24,0,0,1-.28-.28c0-.88,0-1.75,0-2.63a.24.24,0,0,1,.28-.28h2.63c.21,0,.28.11.28.3,0,.44,0,.88,0,1.32Z" fill="#fff"/>
        <path d="M23.87,9.55H22.58c-.2,0-.3-.09-.3-.29V6.66c0-.21.1-.3.31-.3h2.56c.26,0,.31,0,.31.3V9.23c0,.27-.05.32-.32.32Z" fill="#fff"/>
        <path d="M31.83,8c0,.43,0,.86,0,1.29,0,.19-.08.28-.27.28H28.93c-.21,0-.29-.1-.28-.3V6.67c0-.25.06-.3.32-.3H31.5c.27,0,.33,0,.33.32Z" fill="#fff"/>
      </g>
    </symbol>
  </defs>
  <rect id="Figment_lido" x="-1.22" y="-1.06" width="252.5" height="252.5" transform="translate(-0.16 250.22) rotate(-90)" fill="#071a36"/>
  <use width="31.83" height="9.55" transform="translate(24.56 94.86) scale(6.31)" xlink:href="#Nuevo_símbolo"/>
</svg>
