<svg id="Capa_1" data-name="Capa 1" xmlns="http://www.w3.org/2000/svg" xmlns:xlink="http://www.w3.org/1999/xlink" width="250" height="250" viewBox="0 0 250 250">
  <defs>
    <symbol id="Anonym" data-name="Anonym" viewBox="0 0 12.51 12.51">
      <g>
        <rect x="6.55" y="9.53" width="0.6" height="0.6" fill="#fff"/>
        <rect x="4.77" y="9.53" width="0.6" height="0.6" fill="#fff"/>
        <rect x="5.96" y="9.53" width="0.6" height="0.6" fill="#fff"/>
        <rect x="5.36" y="9.53" width="0.6" height="0.6" fill="#fff"/>
        <rect x="6.55" y="8.94" width="0.6" height="0.6" fill="#fff"/>
        <rect x="5.96" y="8.94" width="0.6" height="0.6" fill="#fff"/>
        <rect x="4.77" y="8.94" width="0.6" height="0.6" fill="#fff"/>
        <rect x="5.36" y="8.94" width="0.6" height="0.6" fill="#fff"/>
        <rect x="6.55" y="6.55" width="0.6" height="0.6" fill="#fff"/>
        <rect x="6.55" y="5.96" width="0.6" height="0.6" fill="#fff"/>
        <rect x="5.36" y="6.55" width="0.6" height="0.6" fill="#fff"/>
        <rect x="5.96" y="7.15" width="0.6" height="0.6" fill="#fff"/>
        <rect x="5.36" y="7.15" width="0.6" height="0.6" fill="#fff"/>
        <rect x="5.36" y="5.96" width="0.6" height="0.6" fill="#fff"/>
        <rect x="6.55" y="7.15" width="0.6" height="0.6" fill="#fff"/>
        <rect x="5.96" y="6.55" width="0.6" height="0.6" fill="#fff"/>
        <rect x="5.96" y="5.96" width="0.6" height="0.6" fill="#fff"/>
        <rect x="4.77" y="6.55" width="0.6" height="0.6" fill="#fff"/>
        <rect x="4.77" y="5.96" width="0.6" height="0.6" fill="#fff"/>
        <rect x="4.77" y="7.15" width="0.6" height="0.6" fill="#fff"/>
        <rect x="8.94" y="5.36" width="0.6" height="0.6" fill="#fff"/>
        <rect x="8.34" y="5.96" width="0.6" height="0.6" fill="#fff"/>
        <rect x="8.34" y="4.17" width="0.6" height="0.6" fill="#fff"/>
        <rect x="8.34" y="5.36" width="0.6" height="0.6" fill="#fff"/>
        <rect x="8.34" y="4.77" width="0.6" height="0.6" fill="#fff"/>
        <rect x="8.34" y="3.57" width="0.6" height="0.6" fill="#fff"/>
        <rect x="8.34" y="2.98" width="0.6" height="0.6" fill="#fff"/>
        <rect x="8.34" y="2.38" width="0.6" height="0.6" fill="#fff"/>
        <rect x="7.15" y="2.38" width="0.6" height="0.6" fill="#fff"/>
        <rect x="7.74" y="2.38" width="0.6" height="0.6" fill="#fff"/>
        <rect x="5.36" y="2.38" width="0.6" height="0.6" fill="#fff"/>
        <rect x="6.55" y="2.38" width="0.6" height="0.6" fill="#fff"/>
        <rect x="5.96" y="2.38" width="0.6" height="0.6" fill="#fff"/>
        <rect x="4.17" y="2.38" width="0.6" height="0.6" fill="#fff"/>
        <rect x="4.77" y="2.38" width="0.6" height="0.6" fill="#fff"/>
        <rect x="3.57" y="2.38" width="0.6" height="0.6" fill="#fff"/>
        <rect x="2.98" y="2.38" width="0.6" height="0.6" fill="#fff"/>
        <rect x="7.74" y="5.36" width="0.6" height="0.6" fill="#fff"/>
        <rect x="7.74" y="4.17" width="0.6" height="0.6" fill="#fff"/>
        <rect x="7.74" y="6.55" width="0.6" height="0.6" fill="#fff"/>
        <rect x="7.74" y="3.57" width="0.6" height="0.6" fill="#fff"/>
        <rect x="7.74" y="2.98" width="0.6" height="0.6" fill="#fff"/>
        <rect x="7.74" y="4.77" width="0.6" height="0.6" fill="#fff"/>
        <rect x="7.74" y="5.96" width="0.6" height="0.6" fill="#fff"/>
        <rect x="7.15" y="2.98" width="0.6" height="0.6" fill="#fff"/>
        <rect x="5.36" y="2.98" width="0.6" height="0.6" fill="#fff"/>
        <rect x="5.96" y="2.98" width="0.6" height="0.6" fill="#fff"/>
        <rect x="6.55" y="2.98" width="0.6" height="0.6" fill="#fff"/>
        <rect x="4.17" y="2.98" width="0.6" height="0.6" fill="#fff"/>
        <rect x="4.77" y="2.98" width="0.6" height="0.6" fill="#fff"/>
        <rect x="3.57" y="2.98" width="0.6" height="0.6" fill="#fff"/>
        <rect x="2.38" y="2.98" width="0.6" height="0.6" fill="#fff"/>
        <rect x="2.98" y="2.98" width="0.6" height="0.6" fill="#fff"/>
        <rect x="5.36" y="3.57" width="0.6" height="0.6" fill="#fff"/>
        <rect x="5.96" y="3.57" width="0.6" height="0.6" fill="#fff"/>
        <rect x="6.55" y="3.57" width="0.6" height="0.6" fill="#fff"/>
        <rect x="4.17" y="4.17" width="0.6" height="0.6" fill="#fff"/>
        <rect x="4.17" y="3.57" width="0.6" height="0.6" fill="#fff"/>
        <rect x="4.77" y="3.57" width="0.6" height="0.6" fill="#fff"/>
        <rect x="3.57" y="4.17" width="0.6" height="0.6" fill="#fff"/>
        <rect x="3.57" y="3.57" width="0.6" height="0.6" fill="#fff"/>
        <rect x="2.98" y="4.17" width="0.6" height="0.6" fill="#fff"/>
        <rect x="2.98" y="3.57" width="0.6" height="0.6" fill="#fff"/>
        <rect x="2.38" y="3.57" width="0.6" height="0.6" fill="#fff"/>
        <rect x="2.38" y="4.17" width="0.6" height="0.6" fill="#fff"/>
        <rect x="11.92" y="10.13" width="0.6" height="0.6"/>
        <rect x="11.92" y="9.53" width="0.6" height="0.6"/>
        <rect x="11.92" y="8.94" width="0.6" height="0.6"/>
        <rect x="11.92" y="8.34" width="0.6" height="0.6"/>
        <rect x="11.92" y="7.74" width="0.6" height="0.6"/>
        <rect x="11.92" y="7.15" width="0.6" height="0.6"/>
        <rect x="11.92" y="6.55" width="0.6" height="0.6"/>
        <rect x="11.92" y="5.96" width="0.6" height="0.6"/>
        <rect x="11.92" y="5.36" width="0.6" height="0.6"/>
        <rect x="11.92" y="4.77" width="0.6" height="0.6"/>
        <rect x="11.92" y="4.17" width="0.6" height="0.6"/>
        <rect x="11.92" y="3.57" width="0.6" height="0.6"/>
        <rect x="11.92" y="2.98" width="0.6" height="0.6"/>
        <rect x="11.92" y="2.38" width="0.6" height="0.6"/>
        <rect x="11.92" y="1.79" width="0.6" height="0.6"/>
        <rect x="11.32" y="10.72" width="0.6" height="0.6"/>
        <rect x="11.32" y="10.13" width="0.6" height="0.6" fill="#9749c9"/>
        <rect x="11.32" y="9.53" width="0.6" height="0.6" fill="#9749c9"/>
        <rect x="11.32" y="8.94" width="0.6" height="0.6" fill="#9749c9"/>
        <rect x="11.32" y="8.34" width="0.6" height="0.6" fill="#9749c9"/>
        <rect x="11.32" y="7.74" width="0.6" height="0.6" fill="#9749c9"/>
        <rect x="11.32" y="7.15" width="0.6" height="0.6" fill="#9749c9"/>
        <rect x="11.32" y="6.55" width="0.6" height="0.6" fill="#9749c9"/>
        <rect x="11.32" y="5.96" width="0.6" height="0.6" fill="#9749c9"/>
        <rect x="11.32" y="5.36" width="0.6" height="0.6" fill="#9749c9"/>
        <rect x="11.32" y="4.77" width="0.6" height="0.6" fill="#9749c9"/>
        <rect x="11.32" y="4.17" width="0.6" height="0.6" fill="#9749c9"/>
        <rect x="11.32" y="3.57" width="0.6" height="0.6" fill="#9749c9"/>
        <rect x="11.32" y="2.98" width="0.6" height="0.6" fill="#9749c9"/>
        <rect x="11.32" y="2.38" width="0.6" height="0.6" fill="#9749c9"/>
        <rect x="11.32" y="1.79" width="0.6" height="0.6" fill="#9749c9"/>
        <rect x="11.32" y="1.19" width="0.6" height="0.6"/>
        <rect x="10.72" y="11.32" width="0.6" height="0.6"/>
        <rect x="10.72" y="10.72" width="0.6" height="0.6" fill="#9749c9"/>
        <rect x="10.72" y="10.13" width="0.6" height="0.6" fill="#ca9aef"/>
        <rect x="10.72" y="9.53" width="0.6" height="0.6" fill="#ca9aef"/>
        <rect x="10.72" y="8.94" width="0.6" height="0.6" fill="#ca9aef"/>
        <rect x="10.72" y="8.34" width="0.6" height="0.6" fill="#ca9aef"/>
        <rect x="10.72" y="7.74" width="0.6" height="0.6" fill="#ca9aef"/>
        <rect x="10.72" y="7.15" width="0.6" height="0.6" fill="#ca9aef"/>
        <rect x="10.72" y="6.55" width="0.6" height="0.6" fill="#ca9aef"/>
        <rect x="10.72" y="5.96" width="0.6" height="0.6" fill="#ca9aef"/>
        <rect x="10.72" y="5.36" width="0.6" height="0.6" fill="#ca9aef"/>
        <rect x="10.72" y="4.77" width="0.6" height="0.6" fill="#ca9aef"/>
        <rect x="10.72" y="4.17" width="0.6" height="0.6" fill="#ca9aef"/>
        <rect x="10.72" y="3.57" width="0.6" height="0.6" fill="#ca9aef"/>
        <rect x="10.72" y="2.98" width="0.6" height="0.6" fill="#ca9aef"/>
        <rect x="10.72" y="2.38" width="0.6" height="0.6" fill="#ca9aef"/>
        <rect x="10.72" y="1.79" width="0.6" height="0.6" fill="#ca9aef"/>
        <rect x="10.72" y="1.19" width="0.6" height="0.6" fill="#9749c9"/>
        <rect x="10.72" y="0.6" width="0.6" height="0.6"/>
        <rect x="10.13" y="11.91" width="0.6" height="0.6"/>
        <rect x="10.13" y="11.32" width="0.6" height="0.6" fill="#9749c9"/>
        <rect x="10.13" y="10.72" width="0.6" height="0.6" fill="#ca9aef"/>
        <rect x="10.13" y="10.13" width="0.6" height="0.6" fill="#ca9aef"/>
        <rect x="10.13" y="9.53" width="0.6" height="0.6" fill="#ca9aef"/>
        <rect x="10.13" y="8.94" width="0.6" height="0.6" fill="#ca9aef"/>
        <rect x="10.13" y="8.34" width="0.6" height="0.6" fill="#ca9aef"/>
        <rect x="10.13" y="7.74" width="0.6" height="0.6" fill="#ca9aef"/>
        <rect x="10.13" y="7.15" width="0.6" height="0.6" fill="#ca9aef"/>
        <rect x="10.13" y="6.55" width="0.6" height="0.6" fill="#ca9aef"/>
        <rect x="10.13" y="5.96" width="0.6" height="0.6" fill="#ca9aef"/>
        <rect x="10.13" y="5.36" width="0.6" height="0.6" fill="#ca9aef"/>
        <rect x="10.13" y="4.77" width="0.6" height="0.6" fill="#ca9aef"/>
        <rect x="10.13" y="4.17" width="0.6" height="0.6" fill="#ca9aef"/>
        <rect x="10.13" y="3.57" width="0.6" height="0.6" fill="#ca9aef"/>
        <rect x="10.13" y="2.98" width="0.6" height="0.6" fill="#ca9aef"/>
        <rect x="10.13" y="2.38" width="0.6" height="0.6" fill="#ca9aef"/>
        <rect x="10.13" y="1.79" width="0.6" height="0.6" fill="#ca9aef"/>
        <rect x="10.13" y="1.19" width="0.6" height="0.6" fill="#ca9aef"/>
        <rect x="10.13" y="0.6" width="0.6" height="0.6" fill="#9749c9"/>
        <rect x="10.13" width="0.6" height="0.6"/>
        <rect x="9.53" y="11.91" width="0.6" height="0.6"/>
        <rect x="9.53" y="11.32" width="0.6" height="0.6" fill="#9749c9"/>
        <rect x="9.53" y="10.72" width="0.6" height="0.6" fill="#ca9aef"/>
        <rect x="9.53" y="10.13" width="0.6" height="0.6" fill="#ca9aef"/>
        <rect x="9.53" y="9.53" width="0.6" height="0.6" fill="#ca9aef"/>
        <rect x="9.53" y="8.94" width="0.6" height="0.6" fill="#ca9aef"/>
        <rect x="9.53" y="8.34" width="0.6" height="0.6" fill="#ca9aef"/>
        <rect x="9.53" y="7.74" width="0.6" height="0.6" fill="#ca9aef"/>
        <rect x="9.53" y="7.15" width="0.6" height="0.6" fill="#ca9aef"/>
        <rect x="9.53" y="6.55" width="0.6" height="0.6" fill="#ca9aef"/>
        <rect x="9.53" y="5.96" width="0.6" height="0.6" fill="#ca9aef"/>
        <rect x="9.53" y="5.36" width="0.6" height="0.6"/>
        <rect x="9.53" y="4.77" width="0.6" height="0.6"/>
        <rect x="9.53" y="4.17" width="0.6" height="0.6"/>
        <rect x="9.53" y="3.57" width="0.6" height="0.6"/>
        <rect x="9.53" y="2.98" width="0.6" height="0.6"/>
        <rect x="9.53" y="2.38" width="0.6" height="0.6" fill="#ca9aef"/>
        <rect x="9.53" y="1.79" width="0.6" height="0.6" fill="#ca9aef"/>
        <rect x="9.53" y="1.19" width="0.6" height="0.6" fill="#ca9aef"/>
        <rect x="9.53" y="0.6" width="0.6" height="0.6" fill="#9749c9"/>
        <rect x="9.53" width="0.6" height="0.6"/>
        <rect x="8.94" y="11.91" width="0.6" height="0.6"/>
        <rect x="8.94" y="11.32" width="0.6" height="0.6" fill="#9749c9"/>
        <rect x="8.94" y="10.72" width="0.6" height="0.6" fill="#ca9aef"/>
        <rect x="8.94" y="10.13" width="0.6" height="0.6" fill="#ca9aef"/>
        <rect x="8.94" y="9.53" width="0.6" height="0.6" fill="#ca9aef"/>
        <rect x="8.94" y="8.94" width="0.6" height="0.6" fill="#ca9aef"/>
        <rect x="8.94" y="8.34" width="0.6" height="0.6" fill="#ca9aef"/>
        <rect x="8.94" y="7.74" width="0.6" height="0.6" fill="#ca9aef"/>
        <rect x="8.94" y="7.15" width="0.6" height="0.6" fill="#ca9aef"/>
        <rect x="8.94" y="6.55" width="0.6" height="0.6" fill="#ca9aef"/>
        <rect x="8.94" y="5.96" width="0.6" height="0.6"/>
        <rect x="8.94" y="4.77" width="0.6" height="0.6" fill="#fff"/>
        <rect x="8.94" y="4.17" width="0.6" height="0.6" fill="#fff"/>
        <rect x="8.94" y="3.57" width="0.6" height="0.6" fill="#fff"/>
        <rect x="8.94" y="2.98" width="0.6" height="0.6" fill="#fff"/>
        <rect x="8.94" y="2.38" width="0.6" height="0.6"/>
        <rect x="8.94" y="1.79" width="0.6" height="0.6" fill="#ca9aef"/>
        <rect x="8.94" y="1.19" width="0.6" height="0.6" fill="#ca9aef"/>
        <rect x="8.94" y="0.6" width="0.6" height="0.6" fill="#9749c9"/>
        <rect x="8.94" width="0.6" height="0.6"/>
        <rect x="8.34" y="11.91" width="0.6" height="0.6"/>
        <rect x="8.34" y="11.32" width="0.6" height="0.6" fill="#9749c9"/>
        <rect x="8.34" y="10.72" width="0.6" height="0.6" fill="#ca9aef"/>
        <rect x="8.34" y="10.13" width="0.6" height="0.6" fill="#ca9aef"/>
        <rect x="8.34" y="9.53" width="0.6" height="0.6" fill="#ca9aef"/>
        <rect x="8.34" y="8.94" width="0.6" height="0.6" fill="#ca9aef"/>
        <rect x="8.34" y="8.34" width="0.6" height="0.6" fill="#ca9aef"/>
        <rect x="8.34" y="7.74" width="0.6" height="0.6" fill="#ca9aef"/>
        <rect x="8.34" y="7.15" width="0.6" height="0.6" fill="#ca9aef"/>
        <rect x="8.34" y="6.55" width="0.6" height="0.6"/>
        <rect x="8.34" y="1.79" width="0.6" height="0.6"/>
        <rect x="8.34" y="1.19" width="0.6" height="0.6" fill="#ca9aef"/>
        <rect x="8.34" y="0.6" width="0.6" height="0.6" fill="#9749c9"/>
        <rect x="8.34" width="0.6" height="0.6"/>
        <rect x="7.74" y="11.91" width="0.6" height="0.6"/>
        <rect x="7.74" y="11.32" width="0.6" height="0.6" fill="#9749c9"/>
        <rect x="7.74" y="10.72" width="0.6" height="0.6" fill="#ca9aef"/>
        <rect x="7.74" y="10.13" width="0.6" height="0.6" fill="#ca9aef"/>
        <rect x="7.74" y="9.53" width="0.6" height="0.6" fill="#ca9aef"/>
        <rect x="7.74" y="8.94" width="0.6" height="0.6" fill="#ca9aef"/>
        <rect x="7.74" y="8.34" width="0.6" height="0.6" fill="#ca9aef"/>
        <rect x="7.74" y="7.74" width="0.6" height="0.6" fill="#ca9aef"/>
        <rect x="7.74" y="7.15" width="0.6" height="0.6" fill="#020202"/>
        <rect x="7.74" y="1.79" width="0.6" height="0.6"/>
        <rect x="7.74" y="1.19" width="0.6" height="0.6" fill="#ca9aef"/>
        <rect x="7.74" y="0.6" width="0.6" height="0.6" fill="#9749c9"/>
        <rect x="7.74" width="0.6" height="0.6"/>
        <rect x="7.15" y="11.91" width="0.6" height="0.6"/>
        <rect x="7.15" y="11.32" width="0.6" height="0.6" fill="#9749c9"/>
        <rect x="7.15" y="10.72" width="0.6" height="0.6" fill="#ca9aef"/>
        <rect x="7.15" y="10.13" width="0.6" height="0.6" fill="#ca9aef"/>
        <rect x="7.15" y="9.53" width="0.6" height="0.6" fill="#020202"/>
        <rect x="7.15" y="8.94" width="0.6" height="0.6" fill="#020202"/>
        <rect x="7.15" y="8.34" width="0.6" height="0.6" fill="#ca9aef"/>
        <rect x="7.15" y="7.74" width="0.6" height="0.6" fill="#ca9aef"/>
        <rect x="7.15" y="7.15" width="0.6" height="0.6" fill="#020202"/>
        <rect x="7.15" y="6.55" width="0.6" height="0.6" fill="#fff"/>
        <rect x="7.15" y="5.96" width="0.6" height="0.6" fill="#fff"/>
        <rect x="7.15" y="5.36" width="0.6" height="0.6" fill="#fff"/>
        <rect x="7.15" y="4.77" width="0.6" height="0.6" fill="#fff"/>
        <rect x="7.15" y="4.17" width="0.6" height="0.6" fill="#fff"/>
        <rect x="7.15" y="3.57" width="0.6" height="0.6" fill="#fff"/>
        <rect x="7.15" y="1.79" width="0.6" height="0.6"/>
        <rect x="7.15" y="1.19" width="0.6" height="0.6" fill="#ca9aef"/>
        <rect x="7.15" y="0.6" width="0.6" height="0.6" fill="#9749c9"/>
        <rect x="7.15" width="0.6" height="0.6"/>
        <rect x="6.55" y="11.91" width="0.6" height="0.6"/>
        <rect x="6.55" y="11.32" width="0.6" height="0.6" fill="#9749c9"/>
        <rect x="6.55" y="10.72" width="0.6" height="0.6" fill="#ca9aef"/>
        <rect x="6.55" y="10.13" width="0.6" height="0.6" fill="#020202"/>
        <rect x="6.55" y="8.34" width="0.6" height="0.6" fill="#020202"/>
        <rect x="6.55" y="7.74" width="0.6" height="0.6" fill="#020202"/>
        <rect x="6.55" y="5.36" width="0.6" height="0.6" fill="#020202"/>
        <rect x="6.55" y="4.77" width="0.6" height="0.6" fill="#020202"/>
        <rect x="6.55" y="4.17" width="0.6" height="0.6" fill="#020202"/>
        <rect x="6.55" y="1.79" width="0.6" height="0.6"/>
        <rect x="6.55" y="1.19" width="0.6" height="0.6" fill="#ca9aef"/>
        <rect x="6.55" y="0.6" width="0.6" height="0.6" fill="#9749c9"/>
        <rect x="6.55" width="0.6" height="0.6"/>
        <rect x="5.96" y="11.91" width="0.6" height="0.6"/>
        <rect x="5.96" y="11.32" width="0.6" height="0.6" fill="#9749c9"/>
        <rect x="5.96" y="10.72" width="0.6" height="0.6" fill="#ca9aef"/>
        <rect x="5.96" y="10.13" width="0.6" height="0.6" fill="#020202"/>
        <rect x="5.96" y="8.34" width="0.6" height="0.6" fill="#020202"/>
        <rect x="5.96" y="7.74" width="0.6" height="0.6" fill="#020202"/>
        <rect x="5.96" y="5.36" width="0.6" height="0.6" fill="#020202"/>
        <rect x="5.96" y="4.77" width="0.6" height="0.6" fill="#ca9aef"/>
        <rect x="5.96" y="4.17" width="0.6" height="0.6" fill="#020202"/>
        <rect x="5.96" y="1.79" width="0.6" height="0.6"/>
        <rect x="5.96" y="1.19" width="0.6" height="0.6" fill="#ca9aef"/>
        <rect x="5.96" y="0.6" width="0.6" height="0.6" fill="#9749c9"/>
        <rect x="5.96" width="0.6" height="0.6"/>
        <rect x="5.36" y="11.91" width="0.6" height="0.6"/>
        <rect x="5.36" y="11.32" width="0.6" height="0.6" fill="#9749c9"/>
        <rect x="5.36" y="10.72" width="0.6" height="0.6" fill="#ca9aef"/>
        <rect x="5.36" y="10.13" width="0.6" height="0.6" fill="#020202"/>
        <rect x="5.36" y="8.34" width="0.6" height="0.6" fill="#020202"/>
        <rect x="5.36" y="7.74" width="0.6" height="0.6" fill="#020202"/>
        <rect x="5.36" y="5.36" width="0.6" height="0.6" fill="#020202"/>
        <rect x="5.36" y="4.77" width="0.6" height="0.6" fill="#ca9aef"/>
        <rect x="5.36" y="4.17" width="0.6" height="0.6" fill="#020202"/>
        <rect x="5.36" y="1.79" width="0.6" height="0.6"/>
        <rect x="5.36" y="1.19" width="0.6" height="0.6" fill="#ca9aef"/>
        <rect x="5.36" y="0.6" width="0.6" height="0.6" fill="#9749c9"/>
        <rect x="5.36" width="0.6" height="0.6"/>
        <rect x="4.77" y="11.91" width="0.6" height="0.6"/>
        <rect x="4.77" y="11.32" width="0.6" height="0.6" fill="#9749c9"/>
        <rect x="4.77" y="10.72" width="0.6" height="0.6" fill="#ca9aef"/>
        <rect x="4.77" y="10.13" width="0.6" height="0.6" fill="#020202"/>
        <rect x="4.77" y="8.34" width="0.6" height="0.6" fill="#020202"/>
        <rect x="4.77" y="7.74" width="0.6" height="0.6" fill="#020202"/>
        <rect x="4.77" y="5.36" width="0.6" height="0.6" fill="#020202"/>
        <rect x="4.77" y="4.77" width="0.6" height="0.6" fill="#020202"/>
        <rect x="4.77" y="4.17" width="0.6" height="0.6" fill="#020202"/>
        <rect x="4.77" y="1.79" width="0.6" height="0.6"/>
        <rect x="4.77" y="1.19" width="0.6" height="0.6" fill="#ca9aef"/>
        <rect x="4.77" y="0.6" width="0.6" height="0.6" fill="#9749c9"/>
        <rect x="4.77" width="0.6" height="0.6"/>
        <rect x="4.17" y="11.91" width="0.6" height="0.6"/>
        <rect x="4.17" y="11.32" width="0.6" height="0.6" fill="#9749c9"/>
        <rect x="4.17" y="10.72" width="0.6" height="0.6" fill="#ca9aef"/>
        <rect x="4.17" y="10.13" width="0.6" height="0.6" fill="#ca9aef"/>
        <rect x="4.17" y="9.53" width="0.6" height="0.6" fill="#020202"/>
        <rect x="4.17" y="8.94" width="0.6" height="0.6" fill="#020202"/>
        <rect x="4.17" y="8.34" width="0.6" height="0.6" fill="#ca9aef"/>
        <rect x="4.17" y="7.74" width="0.6" height="0.6" fill="#ca9aef"/>
        <rect x="4.17" y="7.15" width="0.6" height="0.6" fill="#020202"/>
        <rect x="4.17" y="6.55" width="0.6" height="0.6" fill="#020202"/>
        <rect x="4.17" y="5.96" width="0.6" height="0.6" fill="#020202"/>
        <rect x="4.17" y="5.36" width="0.6" height="0.6" fill="#020202"/>
        <rect x="4.17" y="4.77" width="0.6" height="0.6" fill="#fff"/>
        <rect x="4.17" y="1.79" width="0.6" height="0.6"/>
        <rect x="4.17" y="1.19" width="0.6" height="0.6" fill="#ead9fc"/>
        <rect x="4.17" y="0.6" width="0.6" height="0.6" fill="#ead9fc"/>
        <rect x="4.17" width="0.6" height="0.6"/>
        <rect x="3.57" y="11.91" width="0.6" height="0.6"/>
        <rect x="3.57" y="11.32" width="0.6" height="0.6" fill="#9749c9"/>
        <rect x="3.57" y="10.72" width="0.6" height="0.6" fill="#ca9aef"/>
        <rect x="3.57" y="10.13" width="0.6" height="0.6" fill="#ca9aef"/>
        <rect x="3.57" y="9.53" width="0.6" height="0.6" fill="#ca9aef"/>
        <rect x="3.57" y="8.94" width="0.6" height="0.6" fill="#ca9aef"/>
        <rect x="3.57" y="8.34" width="0.6" height="0.6" fill="#ca9aef"/>
        <rect x="3.57" y="7.74" width="0.6" height="0.6" fill="#ca9aef"/>
        <rect x="3.57" y="7.15" width="0.6" height="0.6" fill="#ca9aef"/>
        <rect x="3.57" y="6.55" width="0.6" height="0.6" fill="#ca9aef"/>
        <rect x="3.57" y="5.96" width="0.6" height="0.6" fill="#ca9aef"/>
        <rect x="3.57" y="5.36" width="0.6" height="0.6" fill="#020202"/>
        <rect x="3.57" y="4.77" width="0.6" height="0.6" fill="#fff"/>
        <rect x="3.57" y="1.79" width="0.6" height="0.6"/>
        <rect x="3.57" y="1.19" width="0.6" height="0.6" fill="#ead9fc"/>
        <rect x="3.57" y="0.6" width="0.6" height="0.6" fill="#ead9fc"/>
        <rect x="3.57" width="0.6" height="0.6"/>
        <rect x="2.98" y="11.91" width="0.6" height="0.6"/>
        <rect x="2.98" y="11.32" width="0.6" height="0.6" fill="#9749c9"/>
        <rect x="2.98" y="10.72" width="0.6" height="0.6" fill="#ca9aef"/>
        <rect x="2.98" y="10.13" width="0.6" height="0.6" fill="#ca9aef"/>
        <rect x="2.98" y="9.53" width="0.6" height="0.6" fill="#ca9aef"/>
        <rect x="2.98" y="8.94" width="0.6" height="0.6" fill="#ca9aef"/>
        <rect x="2.98" y="8.34" width="0.6" height="0.6" fill="#ca9aef"/>
        <rect x="2.98" y="7.74" width="0.6" height="0.6" fill="#ca9aef"/>
        <rect x="2.98" y="7.15" width="0.6" height="0.6" fill="#ca9aef"/>
        <rect x="2.98" y="6.55" width="0.6" height="0.6" fill="#ca9aef"/>
        <rect x="2.98" y="5.96" width="0.6" height="0.6" fill="#ca9aef"/>
        <rect x="2.98" y="5.36" width="0.6" height="0.6" fill="#020202"/>
        <rect x="2.98" y="4.77" width="0.6" height="0.6" fill="#fff"/>
        <rect x="2.98" y="1.79" width="0.6" height="0.6"/>
        <rect x="2.98" y="1.19" width="0.6" height="0.6" fill="#ead9fc"/>
        <rect x="2.98" y="0.6" width="0.6" height="0.6" fill="#ead9fc"/>
        <rect x="2.98" width="0.6" height="0.6"/>
        <rect x="2.38" y="11.91" width="0.6" height="0.6"/>
        <rect x="2.38" y="11.32" width="0.6" height="0.6" fill="#9749c9"/>
        <rect x="2.38" y="10.72" width="0.6" height="0.6" fill="#ca9aef"/>
        <rect x="2.38" y="10.13" width="0.6" height="0.6" fill="#ca9aef"/>
        <rect x="2.38" y="9.53" width="0.6" height="0.6" fill="#ca9aef"/>
        <rect x="2.38" y="8.94" width="0.6" height="0.6" fill="#ca9aef"/>
        <rect x="2.38" y="8.34" width="0.6" height="0.6" fill="#ca9aef"/>
        <rect x="2.38" y="7.74" width="0.6" height="0.6" fill="#ca9aef"/>
        <rect x="2.38" y="7.15" width="0.6" height="0.6" fill="#ca9aef"/>
        <rect x="2.38" y="6.55" width="0.6" height="0.6" fill="#ca9aef"/>
        <rect x="2.38" y="5.96" width="0.6" height="0.6" fill="#ca9aef"/>
        <rect x="2.38" y="5.36" width="0.6" height="0.6" fill="#020202"/>
        <rect x="2.38" y="4.77" width="0.6" height="0.6" fill="#fff"/>
        <rect x="2.38" y="2.38" width="0.6" height="0.6" fill="#020202"/>
        <rect x="2.38" y="1.79" width="0.6" height="0.6" fill="#ca9aef"/>
        <rect x="2.38" y="1.19" width="0.6" height="0.6" fill="#ead9fc"/>
        <rect x="2.38" y="0.6" width="0.6" height="0.6" fill="#ead9fc"/>
        <rect x="2.38" width="0.6" height="0.6"/>
        <rect x="1.79" y="11.91" width="0.6" height="0.6"/>
        <rect x="1.79" y="11.32" width="0.6" height="0.6" fill="#9749c9"/>
        <rect x="1.79" y="10.72" width="0.6" height="0.6" fill="#ca9aef"/>
        <rect x="1.79" y="10.13" width="0.6" height="0.6" fill="#ca9aef"/>
        <rect x="1.79" y="9.53" width="0.6" height="0.6" fill="#ca9aef"/>
        <rect x="1.79" y="8.94" width="0.6" height="0.6" fill="#ca9aef"/>
        <rect x="1.79" y="8.34" width="0.6" height="0.6" fill="#ca9aef"/>
        <rect x="1.79" y="7.74" width="0.6" height="0.6" fill="#ca9aef"/>
        <rect x="1.79" y="7.15" width="0.6" height="0.6" fill="#ca9aef"/>
        <rect x="1.79" y="6.55" width="0.6" height="0.6" fill="#ca9aef"/>
        <rect x="1.79" y="5.96" width="0.6" height="0.6" fill="#ca9aef"/>
        <rect x="1.79" y="5.36" width="0.6" height="0.6" fill="#ca9aef"/>
        <rect x="1.79" y="4.77" width="0.6" height="0.6" fill="#020202"/>
        <rect x="1.79" y="4.17" width="0.6" height="0.6" fill="#020202"/>
        <rect x="1.79" y="3.57" width="0.6" height="0.6" fill="#020202"/>
        <rect x="1.79" y="2.98" width="0.6" height="0.6" fill="#020202"/>
        <rect x="1.79" y="2.38" width="0.6" height="0.6" fill="#ca9aef"/>
        <rect x="1.79" y="1.79" width="0.6" height="0.6" fill="#ead9fc"/>
        <rect x="1.79" y="1.19" width="0.6" height="0.6" fill="#ead9fc"/>
        <rect x="1.79" y="0.6" width="0.6" height="0.6" fill="#ead9fc"/>
        <rect x="1.79" width="0.6" height="0.6"/>
        <rect x="1.19" y="11.32" width="0.6" height="0.6"/>
        <rect x="1.19" y="10.72" width="0.6" height="0.6" fill="#9749c9"/>
        <rect x="1.19" y="10.13" width="0.6" height="0.6" fill="#ca9aef"/>
        <rect x="1.19" y="9.53" width="0.6" height="0.6" fill="#ca9aef"/>
        <rect x="1.19" y="8.94" width="0.6" height="0.6" fill="#ca9aef"/>
        <rect x="1.19" y="8.34" width="0.6" height="0.6" fill="#ca9aef"/>
        <rect x="1.19" y="7.74" width="0.6" height="0.6" fill="#ca9aef"/>
        <rect x="1.19" y="7.15" width="0.6" height="0.6" fill="#ca9aef"/>
        <rect x="1.19" y="6.55" width="0.6" height="0.6" fill="#ca9aef"/>
        <rect x="1.19" y="5.96" width="0.6" height="0.6" fill="#ca9aef"/>
        <rect x="1.19" y="5.36" width="0.6" height="0.6" fill="#ca9aef"/>
        <rect x="1.19" y="4.77" width="0.6" height="0.6" fill="#ca9aef"/>
        <rect x="1.19" y="4.17" width="0.6" height="0.6" fill="#ead9fc"/>
        <rect x="1.19" y="3.57" width="0.6" height="0.6" fill="#ead9fc"/>
        <rect x="1.19" y="2.98" width="0.6" height="0.6" fill="#ead9fc"/>
        <rect x="1.19" y="2.38" width="0.6" height="0.6" fill="#ead9fc"/>
        <rect x="1.19" y="1.79" width="0.6" height="0.6" fill="#ead9fc"/>
        <rect x="1.19" y="1.19" width="0.6" height="0.6" fill="#ead9fc"/>
        <rect x="1.19" y="0.6" width="0.6" height="0.6"/>
        <rect x="0.6" y="10.72" width="0.6" height="0.6"/>
        <rect x="0.6" y="10.13" width="0.6" height="0.6" fill="#9749c9"/>
        <rect x="0.6" y="9.53" width="0.6" height="0.6" fill="#9749c9"/>
        <rect x="0.6" y="8.94" width="0.6" height="0.6" fill="#9749c9"/>
        <rect x="0.6" y="8.34" width="0.6" height="0.6" fill="#9749c9"/>
        <rect x="0.6" y="7.74" width="0.6" height="0.6" fill="#9749c9"/>
        <rect x="0.6" y="7.15" width="0.6" height="0.6" fill="#9749c9"/>
        <rect x="0.6" y="6.55" width="0.6" height="0.6" fill="#9749c9"/>
        <rect x="0.6" y="5.96" width="0.6" height="0.6" fill="#9749c9"/>
        <rect x="0.6" y="5.36" width="0.6" height="0.6" fill="#9749c9"/>
        <rect x="0.6" y="4.77" width="0.6" height="0.6" fill="#9749c9"/>
        <rect x="0.6" y="4.17" width="0.6" height="0.6" fill="#ead9fc"/>
        <rect x="0.6" y="3.57" width="0.6" height="0.6" fill="#ead9fc"/>
        <rect x="0.6" y="2.98" width="0.6" height="0.6" fill="#ead9fc"/>
        <rect x="0.6" y="2.38" width="0.6" height="0.6" fill="#ead9fc"/>
        <rect x="0.6" y="1.79" width="0.6" height="0.6" fill="#ead9fc"/>
        <rect x="0.6" y="1.19" width="0.6" height="0.6"/>
        <rect y="10.13" width="0.6" height="0.6"/>
        <rect y="9.53" width="0.6" height="0.6"/>
        <rect y="8.94" width="0.6" height="0.6"/>
        <rect y="8.34" width="0.6" height="0.6"/>
        <rect y="7.74" width="0.6" height="0.6"/>
        <rect y="7.15" width="0.6" height="0.6"/>
        <rect y="6.55" width="0.6" height="0.6"/>
        <rect y="5.96" width="0.6" height="0.6"/>
        <rect y="5.36" width="0.6" height="0.6"/>
        <rect y="4.77" width="0.6" height="0.6"/>
        <rect y="4.17" width="0.6" height="0.6"/>
        <rect y="3.57" width="0.6" height="0.6"/>
        <rect y="2.98" width="0.6" height="0.6"/>
        <rect y="2.38" width="0.6" height="0.6"/>
        <rect y="1.79" width="0.6" height="0.6"/>
      </g>
    </symbol>
  </defs>
  <rect id="Figment_lido" x="-1.22" y="-1.06" width="252.5" height="252.5" transform="translate(-0.16 250.22) rotate(-90)" fill="#c2afe8"/>
  <use width="12.51" height="12.51" transform="translate(36.09 36.09) scale(14.21)" xlink:href="#Anonym"/>
</svg>
