<svg id="Capa_1" data-name="Capa 1" xmlns="http://www.w3.org/2000/svg" xmlns:xlink="http://www.w3.org/1999/xlink" width="250" height="250" viewBox="0 0 250 250">
  <defs>
    <symbol id="P2p" data-name="P2p" viewBox="0 0 16.98 6.5">
      <path d="M11.48,3.67c.59,0,1.19,0,1.78,0,.23,0,.29.07.28.29,0,.4,0,.79,0,1.18,0,.19-.07.24-.24.24H9.62c-.18,0-.22-.07-.22-.23q0-.62,0-1.23c0-.19,0-.25.25-.25C10.26,3.68,10.87,3.67,11.48,3.67ZM10,4.78h3V4.24H10Z" fill="#fff"/>
      <path d="M2.09,3.67c.6,0,1.2,0,1.8,0,.21,0,.26.07.26.26,0,.41,0,.82,0,1.23,0,.16-.05.22-.21.22H.23C.07,5.38,0,5.32,0,5.15c0-.4,0-.8,0-1.2,0-.21.06-.28.28-.28C.88,3.68,1.48,3.67,2.09,3.67Zm1.47.58h-3v.52h3Z" fill="#fff"/>
      <path d="M8.24,4.23H4.76l0-.06c-.06-.5-.06-.5.44-.5,1.12,0,2.25,0,3.37,0,.23,0,.32.07.31.3s0,.77,0,1.16c0,.17-.05.25-.24.25H4.93c-.24,0-.22-.14-.22-.3s0-.29.23-.29H7.88c.4,0,.4,0,.38-.39A1.49,1.49,0,0,0,8.24,4.23Z" fill="#fff"/>
      <path d="M8.81,6a.08.08,0,0,1,0,0c.06.49.06.5-.43.5H5.08c-.39,0-.39,0-.37-.41,0,0,0-.08,0-.13Z" fill="#fff"/>
      <path d="M10,6.2c.06.24-.05.3-.28.3s-.29-.06-.28-.28,0-.3.28-.29S10,5.94,10,6.2Z" fill="#fff"/>
      <path d="M.56,6.21c.07.27-.09.29-.3.29S0,6.4,0,6.21s.07-.28.29-.28S.63,6,.56,6.21Z" fill="#fff"/>
      <g>
        <path d="M15.54,4.11a1.43,1.43,0,0,1-1.27-.78,1.39,1.39,0,0,1,.06-1.43s.05,0,.09,0l1.05.61a.14.14,0,0,0,.15,0c.34-.21.69-.41,1-.61.05,0,.07,0,.1,0a1.44,1.44,0,0,1-1,2.19Z" fill="#fff"/>
        <path d="M15.54,0l.62,1,.36.57c0,.05,0,.07,0,.09l-.91.53a.08.08,0,0,1-.09,0l-.92-.53s-.05,0,0-.07C14.88,1,15.21.53,15.54,0Zm0,.43,0,0c-.21.34-.43.68-.65,1,0,0,0,0,0,.06l.62.36a.07.07,0,0,0,.09,0l.49-.28c.05,0,.14-.06.15-.1s-.05-.1-.09-.16c-.18-.29-.37-.58-.56-.87C15.57.46,15.57.43,15.54.43Z" fill="#fff"/>
      </g>
    </symbol>
  </defs>
  <rect id="Figment_lido" x="-1.22" y="-1.06" width="252.5" height="252.5" transform="translate(-0.16 250.22) rotate(-90)" fill="#1347ff"/>
  <use width="16.98" height="6.5" transform="translate(20.56 84.99) scale(12.3)" xlink:href="#P2p"/>
</svg>
