<svg id="Capa_1" data-name="Capa 1" xmlns="http://www.w3.org/2000/svg" xmlns:xlink="http://www.w3.org/1999/xlink" width="250" height="250" viewBox="0 0 250 250">
  <defs>
    <symbol id="pogiboy.eth" data-name="pogiboy.eth" viewBox="0 0 22.47 22.47">
      <path d="M8.43,0H14c.72.79.34,1.74.39,2.63a5,5,0,0,0,.21,2c.39.77,1.26.37,1.88.6a1.92,1.92,0,0,1,.39.17.76.76,0,0,1,.18.26,3.63,3.63,0,0,1-.16,2.8c-.91.57-1.91.27-2.88.31-1.87.05-3.74.05-5.62,0-1,0-1.95.24-2.86-.27a3.5,3.5,0,0,1-.21-2.78.87.87,0,0,1,.14-.27,2.27,2.27,0,0,1,1.25-.32c1-.07,1.2-.3,1.24-1.3,0-.41.07-.81,0-1.22A12.29,12.29,0,0,1,8,.85,1.09,1.09,0,0,1,8.43,0Z" fill="#3654e5"/>
      <path d="M8.43,0l0,2.79c-.28.43-.73.41-1.17.45-.88.08-1.1.3-1.17,1.19,0,.45,0,.89-.46,1.17h0c-.28.41-.71.42-1.15.45-.92.08-1.16.32-1.2,1.23,0,.43-.07.86-.06,1.3,0,.93.28,1.9-.32,2.76A2.73,2.73,0,0,1,0,11.23C0,7.49,0,3.74,0,0,2.81,0,5.62,0,8.43,0Z" fill="#0cc572"/>
      <path d="M14.06,2.81,14,0c2.81,0,5.62,0,8.42,0,0,3.74,0,7.49,0,11.23a2.76,2.76,0,0,1-2.85.14c-.62-.86-.32-1.83-.35-2.77,0-.23,0-.46,0-.69-.09-1.6-.08-1.61-1.66-1.88a1.11,1.11,0,0,1-.72-.42h0c-.42-.28-.42-.72-.46-1.17-.07-.89-.29-1.11-1.18-1.19C14.79,3.22,14.34,3.24,14.06,2.81Z" fill="#0cc572"/>
      <path d="M14,22.45H8.43c-.51-.4-.4-1-.43-1.52s0-.87,0-1.3a20.22,20.22,0,0,1,0-2.06,1.11,1.11,0,0,1,.28-.87,2.33,2.33,0,0,1,1.26-.28c1.53.08,3.07-.27,4.57.26.5.56.28,1.26.33,1.9a9.07,9.07,0,0,1,0,1c0,.6,0,1.21,0,1.82A1.21,1.21,0,0,1,14,22.45Z" fill="#281cd0"/>
      <path d="M5.63,22.45c-1.88,0-3.75,0-5.63,0,0-1.88,0-3.75,0-5.63.83-.7,1.75-.43,2.66-.26a.73.73,0,0,1,.26.14A2.44,2.44,0,0,1,3.26,18c.07.88.29,1.1,1.18,1.16a2.87,2.87,0,0,1,1.26.28.73.73,0,0,1,.17.26C6.05,20.67,6.34,21.6,5.63,22.45Z" fill="#3654e5"/>
      <path d="M22.45,16.84c0,1.88,0,3.75,0,5.63-1.88,0-3.75,0-5.63,0-.7-.83-.43-1.75-.26-2.66a.87.87,0,0,1,.14-.27A2.53,2.53,0,0,1,18,19.2c.88-.06,1.1-.28,1.16-1.17a2.87,2.87,0,0,1,.28-1.26.76.76,0,0,1,.26-.18C20.67,16.42,21.6,16.13,22.45,16.84Z" fill="#3654e5"/>
      <path d="M0,11.23H2.81L3,11.3A3.31,3.31,0,0,1,3,14a.54.54,0,0,1-.24.23A2.89,2.89,0,0,1,0,14Z" fill="#3654e5"/>
      <path d="M19.66,11.22h2.79V14c-.85.71-1.78.43-2.7.24a.58.58,0,0,1-.27-.19,3.62,3.62,0,0,1-.06-2.67A.47.47,0,0,1,19.66,11.22Z" fill="#3654e5"/>
      <path d="M0,14H2.83a2.35,2.35,0,0,1,0,2.79L0,16.84Z" fill="#281cd0"/>
      <path d="M19.64,14h2.81v2.8l-2.78,0A2.35,2.35,0,0,1,19.64,14Z" fill="#281cd0"/>
      <path d="M5.63,22.45V19.64a2.42,2.42,0,0,1,2.79,0l0,2.8Z" fill="#0cc572"/>
      <path d="M16.85,19.64v2.81H14l0-2.8A2.42,2.42,0,0,1,16.85,19.64Z" fill="#0cc572"/>
      <path d="M5.63,8.44H8.42c.57.42.4,1,.44,1.61,0,.37,0,.75,0,1.13A7.45,7.45,0,0,1,8.64,14a.56.56,0,0,1-.25.23,3.83,3.83,0,0,1-2.88-.05,5.81,5.81,0,0,1-.28-2.89c.06-.93-.28-1.89.26-2.77Z" fill="#0cc572"/>
      <path d="M8.46,11.23c0-.93,0-1.86,0-2.78H14a2.85,2.85,0,0,1,.14,2.9,2.36,2.36,0,0,1-1.24.31c-1.14,0-2.27,0-3.4,0A1.18,1.18,0,0,1,8.46,11.23Z" fill="#281cd0"/>
      <path d="M14,11.23l0-2.78h2.8l.14.08c.54.88.2,1.84.26,2.76A6.47,6.47,0,0,1,17,14.15a3.81,3.81,0,0,1-2.89.12.61.61,0,0,1-.25-.23A3,3,0,0,1,14,11.23Z" fill="#0cc572"/>
      <path d="M2.85,8.43H5.64c0,.94,0,1.87,0,2.81a2.44,2.44,0,0,1-2.75,0l0,0Z" fill="#3654e5"/>
      <path d="M16.83,8.43h2.79l0,2.79,0,0a2.44,2.44,0,0,1-2.75,0Z" fill="#3654e5"/>
      <path d="M5.63,14H8.44a2.49,2.49,0,0,1,0,2.8c0,.94,0,1.88,0,2.82H5.63a1.27,1.27,0,0,1-.43-1c-.1-1.14-.24-1.28-1.35-1.38a1.23,1.23,0,0,1-1-.41l0,0c0-.93,0-1.86,0-2.79h0A2.47,2.47,0,0,1,5.63,14Z" fill="#3654e5"/>
      <path d="M14,14h2.8a2.48,2.48,0,0,1,2.82,0h0l0,2.79,0,0a1.24,1.24,0,0,1-1,.41c-1.11.1-1.25.24-1.35,1.38a1.25,1.25,0,0,1-.44,1H14.06c0-.94,0-1.88,0-2.82A2.49,2.49,0,0,1,14,14Z" fill="#3654e5"/>
      <path d="M14,14c0,.93,0,1.87,0,2.8H8.45c0-.93,0-1.87,0-2.8h0a1.22,1.22,0,0,1,1-.42q1.82,0,3.63,0a1.23,1.23,0,0,1,1,.42Z" fill="#0cc572"/>
      <path d="M5.63,14,2.82,14l0-2.78,2.75,0Z" fill="#281cd0"/>
      <path d="M19.65,14l-2.82,0c0-.93,0-1.86,0-2.78l2.75,0Z" fill="#281cd0"/>
      <path d="M14.05,14H8.42l0-2.81H14Z" fill="#3654e5"/>
      <rect x="16.83" y="16.82" width="2.81" height="2.81" fill="#0cc572"/>
      <rect x="2.84" y="16.85" width="2.81" height="2.81" fill="#0cc572"/>
      <path d="M5.67,8.41l-2.82,0,0-2.78,2.75,0Z" fill="#281cd0"/>
      <path d="M8.42,5.61l-2.81,0,0-2.78,2.75,0Z" fill="#281cd0"/>
      <path d="M16.84,5.59,14,5.62l0-2.79,2.75,0Z" fill="#281cd0"/>
      <path d="M19.59,8.41l-2.81,0,0-2.78,2.75,0Z" fill="#281cd0"/>
    </symbol>
  </defs>
  <rect id="Figment_lido" x="-1.22" y="-1.06" width="252.5" height="252.5" transform="translate(-0.16 250.22) rotate(-90)" fill="#fff"/>
  <use width="22.47" height="22.47" transform="translate(45 45) scale(7.12)" xlink:href="#pogiboy.eth"/>
</svg>
