<svg id="Capa_1" data-name="Capa 1" xmlns="http://www.w3.org/2000/svg" xmlns:xlink="http://www.w3.org/1999/xlink" width="250" height="250" viewBox="0 0 250 250">
  <defs>
    <symbol id="Poloniex2" data-name="Poloniex2" viewBox="0 0 15.4 17.31">
      <path d="M15.39,8.62q0,4.2,0,8.4c0,.28-.09.25-.27.15-.71-.41-1.43-.8-2.14-1.2-.14.06-.25,0-.36-.09C11.09,15,9.53,14.09,8,13.22c-.14-.08-.3-.14-.35-.31a1.71,1.71,0,0,1,0-.39V4.77a1.83,1.83,0,0,1,0-.33l0-.1a.16.16,0,0,1,.07-.07.38.38,0,0,1,.27.1c1.86,1.06,3.73,2.1,5.6,3.15l1.54.87A.85.85,0,0,1,15.39,8.62Z" fill="#1a8e5c"/>
      <path d="M0,12.88V11L0,8.67a.11.11,0,0,1,.08,0c.69.32,1.34.72,2,1.09l4.66,2.62.67.39c.11.06.22.12.23.26s-.15.18-.25.24L3.23,15.6a.47.47,0,0,1-.34.1L0,17.31V12.88Z" fill="#fefefe"/>
      <path d="M15.39,8.62l-3-1.68L8,4.46c-.07,0-.17-.07-.21-.16S8,4,8.21,4C9,3.51,9.73,3.1,10.49,2.66L14,.72a.87.87,0,0,1,.31-.1L15.33,0c.09,0,.07.12.07.18Q15.39,4.41,15.39,8.62Z" fill="#fefefe"/>
      <path d="M.06,8.66H0c0-.26,0-.52,0-.78V0L1.58.86a2.14,2.14,0,0,1,.72.33c.91.5,1.82,1,2.73,1.53s1.62.91,2.42,1.38c.1.05.21.08.25.2v0A1.81,1.81,0,0,1,7,4.81C5.12,5.87,3.24,6.94,1.35,8A5.65,5.65,0,0,1,.06,8.66Z" fill="#1a8e5c"/>
      <path d="M.06,8.66c.56-.39,1.18-.69,1.78-1L7.61,4.38l.09,0V13H7.64a4.22,4.22,0,0,0-.9-.56L1.07,9.24C.73,9.05.39,8.86.06,8.66Z" fill="#bfdabc"/>
    </symbol>
  </defs>
  <rect id="Figment_lido" x="-1.22" y="-1.06" width="252.5" height="252.5" transform="translate(-0.16 250.22) rotate(-90)" fill="#eaeaea"/>
  <use width="15.4" height="17.31" transform="translate(47.64 38.04) scale(10.05)" xlink:href="#Poloniex2"/>
</svg>
