<svg id="Capa_1" data-name="Capa 1" xmlns="http://www.w3.org/2000/svg" xmlns:xlink="http://www.w3.org/1999/xlink" width="250" height="250" viewBox="0 0 250 250">
  <defs>
    <symbol id="Prysm" data-name="Prysm" viewBox="0 0 79.9 84.9">
      <polygon points="0 37.54 0 37.54 0 37.54 0 37.54" fill="#00c1c1"/>
      <polygon points="39.46 84.85 39.42 84.88 39.38 84.85 39.42 84.9 39.46 84.85" fill="#00c1c1"/>
      <polygon points="79.9 37.59 79.88 37.59 79.88 37.6 79.9 37.59" fill="#00c1c1"/>
      <g>
        <polygon points="63.18 43.74 58.02 35.01 37.03 59.55 63.18 43.74" fill="#07919b"/>
        <polygon points="37.36 0 16.54 34.97 58.02 35 37.36 0" fill="aqua"/>
        <polygon points="11.37 43.65 36.99 59.55 16.54 34.98 11.37 43.65" fill="aqua"/>
        <polygon points="37.03 59.55 58.02 35.01 58.02 35 16.54 34.97 16.54 34.98 36.99 59.55 37.01 59.56 37.03 59.55" fill="#00c1c1"/>
        <polygon points="23.11 23.96 16.54 34.96 29.36 34.99 23.11 23.96" fill="#fff"/>
      </g>
    </symbol>
  </defs>
  <rect id="Figment_lido" x="-1.22" y="-1.06" width="252.5" height="252.5" transform="translate(-0.16 250.22) rotate(-90)" fill="#fff"/>
  <use width="79.9" height="84.9" transform="translate(30.02 50.98) scale(2.65)" xlink:href="#Prysm"/>
</svg>
