<svg id="Capa_1" data-name="Capa 1" xmlns="http://www.w3.org/2000/svg" xmlns:xlink="http://www.w3.org/1999/xlink" width="250" height="250" viewBox="0 0 250 250">
  <defs>
    <symbol id="prysmaticlabs_lido" data-name="prysmaticlabs_lido" viewBox="0 0 21.25 27.1">
      <g>
        <polygon points="20.77 20.75 18.7 17.25 10.29 27.09 20.77 20.75" fill="#07919b"/>
        <polygon points="10.42 3.22 2.07 17.24 18.7 17.25 10.42 3.22" fill="aqua"/>
        <polygon points="0 20.72 10.27 27.09 2.07 17.24 0 20.72" fill="aqua"/>
        <polygon points="10.29 27.09 18.7 17.25 18.7 17.25 2.07 17.24 2.07 17.24 10.27 27.09 10.28 27.1 10.29 27.09" fill="#00c1c1"/>
        <polygon points="4.7 12.82 2.07 17.24 7.21 17.25 4.7 12.82" fill="#fff"/>
      </g>
      <g>
        <path d="M18.13,8.88A3.07,3.07,0,0,1,15.39,7.2a3,3,0,0,1,.12-3.09c.07-.11.11-.11.21-.05.75.44,1.51.87,2.26,1.32a.29.29,0,0,0,.33,0c.74-.45,1.49-.88,2.24-1.32.12-.07.16,0,.22.06a3.11,3.11,0,0,1-2.21,4.72Z" fill="#00a2fd"/>
        <path d="M18.14,0l1.33,2.07c.26.42.52.84.79,1.24.07.1,0,.14,0,.2l-2,1.15a.18.18,0,0,1-.2,0c-.66-.39-1.32-.78-2-1.16-.06,0-.11-.06-.05-.15C16.71,2.24,17.42,1.14,18.14,0Zm0,.92a.18.18,0,0,0-.05.07l-1.41,2.2c-.05.08,0,.1,0,.14l1.33.78a.16.16,0,0,0,.2,0l1.05-.62c.12-.07.3-.12.33-.21s-.12-.23-.19-.35L18.23,1A.18.18,0,0,0,18.13.92Z" fill="#009ff9"/>
      </g>
    </symbol>
  </defs>
  <rect id="Figment_lido" x="-1.22" y="-1.06" width="252.5" height="252.5" transform="translate(-0.16 250.22) rotate(-90)" fill="#fff"/>
  <use width="21.25" height="27.1" transform="translate(60.53 44.49) scale(6.03)" xlink:href="#prysmaticlabs_lido"/>
</svg>
