<svg id="Capa_1" data-name="Capa 1" xmlns="http://www.w3.org/2000/svg" xmlns:xlink="http://www.w3.org/1999/xlink" width="250" height="250" viewBox="0 0 250 250">
  <defs>
    <symbol id="Rocketpool" data-name="Rocketpool" viewBox="0 0 169.87 169.78">
      <g>
        <path d="M169.87,93.68c-1.75,1.2-1.08,3.21-1.34,4.78a83.35,83.35,0,0,1-26.9,49.5c-12.28,11.12-26.78,17.74-43.15,20.57a81,81,0,0,1-52.06-8.17C23,148.29,8.18,129.19,2.35,103.3.87,96.73-.28,90.1.06,83.38c1-19.74,7-37.64,20-52.94C34,14,51.78,4.46,73,1.06,74.56.81,76.26,1,77.69,0h1c1,.52,2.16.13,3.24.26h5.95C89,.14,90.09.52,91.14,0h.5a90.41,90.41,0,0,1,18,3.32A84.8,84.8,0,0,1,169.2,71.87c.26,1.62-.2,3.34.67,4.86v1a5.11,5.11,0,0,0,0,3.49v.5a17.22,17.22,0,0,0,0,6.48v1a3.79,3.79,0,0,0,0,3Z" fill="#fed48e"/>
        <path d="M88.17.47H81.66c-.15-.11-.2-.21-.14-.32s.1-.15.16-.15h6.47c.17.1.22.2.17.31S88.22.47,88.17.47Z" fill="#fee2b2"/>
        <path d="M169.87,88.2a8.94,8.94,0,0,1,0-6.48Z" fill="#fee1b1"/>
        <path d="M169.87,81.22a2.85,2.85,0,0,1,0-3.49Z" fill="#feefd7"/>
        <path d="M81.68,0c0,.16,0,.32,0,.47-1-.14-2.11.48-3-.47Z" fill="#feebcb"/>
        <path d="M88.17.47c0-.16,0-.31,0-.47h3C90.28,1,89.16.33,88.17.47Z" fill="#feebcb"/>
        <path d="M169.87,92.18a2.22,2.22,0,0,1,0-3Z" fill="#feefd7"/>
        <path d="M30.77,139.45a2.56,2.56,0,0,1-2.38-2.38,2.63,2.63,0,0,1,1.16-2.15,5.71,5.71,0,0,1,.48-.38c.32-.25.61-.52.92-.77s.46-.38.67-.59a10.75,10.75,0,0,1,1-1.12,9.47,9.47,0,0,1,1.67-1.49,5.82,5.82,0,0,0,1.6-1.18c3.59-3.91,7.83-7.14,11.5-11,.57-.55,1.14-1.11,1.68-1.68a99.5,99.5,0,0,0,8-7.52,11.42,11.42,0,0,1,2.47-2.07,2.22,2.22,0,0,1,3.11.5,2,2,0,0,1-.3,2.91,81.79,81.79,0,0,1-5.82,5.81c-4.51,4-8.92,8.18-13.28,12.38-1.92,1.9-4.21,3.41-6,5.46-.55.52-1.1,1.06-1.63,1.6s-.91.91-1.41,1.31a3.29,3.29,0,0,1-.53.36,6.75,6.75,0,0,0-.76.56C32.22,138.55,31.76,139.41,30.77,139.45Z" fill="#fefefd"/>
        <path d="M143.45,33.91c.53-.77,0-1.38-.31-2.11,2.46,1.72,4,4.17,5.73,6.47a78.85,78.85,0,0,1,14.42,36.24c.49,3.47.23,7.06.29,10.57a63.67,63.67,0,0,1-1,13.19,80.85,80.85,0,0,1-10.12,26.8c-.47.14-.67-.15-.82-.52-.19-1.2.55-2.12.95-3.15a49.31,49.31,0,0,0,4.25-9.74,56.38,56.38,0,0,0,3.41-12.23c.42-1.52.42-3.11.82-4.63a4.73,4.73,0,0,0,.69-3.28,10.8,10.8,0,0,1,.2-2.41A27,27,0,0,0,162,81c-.24-.9-.21-1.85-.52-2.73a8.48,8.48,0,0,1-.21-1.94,5.5,5.5,0,0,0-.4-2.6c-1.22-4.12-1.33-8.48-2.88-12.52-1.28-3.2-2.11-6.59-4-9.54a17.55,17.55,0,0,0-1.43-3.23A81.78,81.78,0,0,0,145,36.87C144.33,36,143.26,35.26,143.45,33.91Z" fill="#fed490"/>
        <path d="M14,117c-2-1.14-2.17-3.42-2.83-5.23A80.56,80.56,0,0,1,6.39,89.34,76.83,76.83,0,0,1,16,46.11,84.68,84.68,0,0,1,34.3,23.89c.36.78-.65,1.48.06,2.08.22.82-.39,1.27-.82,1.8a57.21,57.21,0,0,0-8.39,8.79,64.25,64.25,0,0,0-4.48,6.14A76.17,76.17,0,0,0,10.6,65.29,79,79,0,0,0,8.44,77.4a16.66,16.66,0,0,0-.5,3.07,6.6,6.6,0,0,1-.17.77,28.86,28.86,0,0,0,.14,7.93,11.52,11.52,0,0,1,.2,2.42,9,9,0,0,0,.3,3.14,76.31,76.31,0,0,0,3.14,13.93,58.35,58.35,0,0,0,2.22,6.27C14.07,115.58,14.47,116.27,14,117Z" fill="#fed591"/>
        <path d="M35.25,144a2.83,2.83,0,0,1-2.38-2.4c-.08-1,.55-1.54,1.11-2.17a13.57,13.57,0,0,1,1.13-1,5.25,5.25,0,0,1,.49-.33,5.1,5.1,0,0,0,1.14-.93,21.76,21.76,0,0,1,1.92-2,16.77,16.77,0,0,0,4-3.45q7.29-7,14.8-13.77c1.75-1.57,2.32-1.53,4.09.19.54,1.31-.15,2.15-1.05,3-3.21,3.11-6.35,6.29-9.76,9.19-1.43,1.32-2.76,2.75-4.17,4.09a23.4,23.4,0,0,0-3.82,3.35c-.4.39-.8.77-1.19,1.17-.77.75-1.52,1.54-2.31,2.29a14.51,14.51,0,0,1-1.51,1.05c-.23.18-.46.38-.68.58s-.43.44-.66.65A1.63,1.63,0,0,1,35.25,144Z" fill="#fefefd"/>
        <path d="M26.33,134.51a2.69,2.69,0,0,1-2.4-2.38A2.66,2.66,0,0,1,25,130.25a13.08,13.08,0,0,0,1.58-1.4l1.06-1A7.66,7.66,0,0,1,29,126.7a5.06,5.06,0,0,0,1.13-.88c.2-.22.41-.43.62-.64.52-.51,1-1.05,1.52-1.58A57.58,57.58,0,0,1,38,118.3c2.32-2.17,4.37-4.62,7-6.49a31.14,31.14,0,0,0,2.22-2.23c1.26-1.1,2.4-2.88,4.33-1.11,1.35,1.24.82,2.86-1.41,4.66-.45.37-.89.73-1.32,1.11-1.31,1.16-2.51,2.43-3.74,3.68-4.14,3.35-7.62,7.42-11.77,10.75-.7.65-1.39,1.33-2.07,2-.36.36-.74.71-1.1,1.08-.21.22-.42.44-.64.65l-.89.89a5,5,0,0,1-.76.61A3,3,0,0,1,26.33,134.51Z" fill="#fefefd"/>
        <path d="M35.25,144l1.14-.91c1.57.14,2.25,1.57,3.31,2.39,5.25,4,11.2,6.73,17.1,9.57.89.42,1.86.77,2.21,1.86a1.08,1.08,0,0,1-.26,1,76.63,76.63,0,0,1-21.73-12C36.34,145.36,35.38,145,35.25,144Z" fill="#fe8a23"/>
        <path d="M25.35,130.47c-.48.55-1,1.11-1.42,1.66-2.41-1.53-3.42-4.16-4.92-6.39a33.55,33.55,0,0,1-3.7-7c-.11-1,.64-1,1.32-1.1a2.3,2.3,0,0,1,1.4.66c2.33,3.79,4.5,7.69,7.2,11.24A1,1,0,0,1,25.35,130.47Z" fill="#fe8f25"/>
        <path d="M114.22,13.36a39,39,0,0,1,10.16,5.08c1,2.11,3.32,2.42,4.89,3.78,1.34,1.16,2.82,2.21,4.24,3.31.61.48,1.39,1,1,2a1.55,1.55,0,0,1-1,.27,3.83,3.83,0,0,1-2-.94,69.06,69.06,0,0,0-14.78-9.52,2.73,2.73,0,0,1-.77-.63,3.79,3.79,0,0,1-.38-.6c-.26-.87-1.09-1.2-1.65-1.78S113.13,13.35,114.22,13.36Z" fill="#fe3725"/>
        <path d="M127.5,149.42a23.91,23.91,0,0,1-9.41,5.11c-2.16.74-4.24,1.69-6.36,2.54-1,.23-1.87.84-2.89,1a.63.63,0,0,1-.52-.41,1.33,1.33,0,0,1,.2-1c1.93-1.87,4.64-2.08,6.9-3.27,3.36-1.77,6.9-3.21,10-5.42.51-.36,1.07-.87,1.77-.28A1.74,1.74,0,0,1,127.5,149.42Z" fill="#fe6929"/>
        <path d="M127.5,149.42,127,148c.74-2.84,3.33-4.05,5.28-5.72a77.58,77.58,0,0,0,12.47-13.7c.73-1,1.19-2.4,2.75-2.56a1.37,1.37,0,0,1,.32,1c-1.33,3.48-3.84,6.18-6,9.1a39.65,39.65,0,0,1-4.2,4.2c-2.64,2-4.75,4.58-7.53,6.41a1.3,1.3,0,0,0-.46,1.33A3.57,3.57,0,0,1,127.5,149.42Z" fill="#fe702c"/>
        <path d="M16.9,118.09c-.61,0-1.24,0-1.59.63-1.05-.09-.69-1.31-1.36-1.71l-3-7.89c.51-1.75-.83-3.37-.37-5.13.14-.51-.16-1.15.51-1.47a1.47,1.47,0,0,1,1.29,1.33c.72,4.2,2.68,8,4.24,11.86A2.74,2.74,0,0,1,16.9,118.09Z" fill="#fe9a26"/>
        <path d="M143.45,33.91c3.48,4.61,7.2,9.05,9.62,14.37-1.16,1.47-1.59.1-2.13-.58-2.42-3-4.22-6.45-6.59-9.49a17.38,17.38,0,0,0-2.67-2.88,1.84,1.84,0,0,1-.63-1.73c.18-.51.33-1.05,1.07-.79Z" fill="#fe3524"/>
        <path d="M78.09,7.89a51,51,0,0,1,15,.1,1.31,1.31,0,0,1,.28,1.24,1.15,1.15,0,0,1-.59.62c-1.8.74-3.55,0-5.33-.14-3.2-.16-6.39.12-9.58.27a1.75,1.75,0,0,1-.68-.31C76.46,8.57,78,8.59,78.09,7.89Z" fill="#fe6626"/>
        <path d="M37.32,23.91A59.35,59.35,0,0,1,51.79,15c.64.94-.16,1.46-.61,2.08s-1.1,1.09-1.68,1.61a2.71,2.71,0,0,1-1.23.56c-2.92,1.11-5.18,3.35-8,4.66C39.29,24.23,38.3,25.74,37.32,23.91Z" fill="#fe7228"/>
        <path d="M76.71,161.91H76.2a.83.83,0,0,1-.22-.75,1,1,0,0,1,.54-.59,4.56,4.56,0,0,1,1.67-.29c3.77-.18,7.56.3,11.31-.3,3.9-.54,7.83-.81,11.62-1.94a3,3,0,0,1,2.17.08c.91.8.06,1.06-.44,1.41-.67.47-1.64.27-2.22,1h0a5.91,5.91,0,0,0-2.57.4c-1.29.41-2.75.16-3.92,1l-1,0c-2.78-.22-5.56.07-8.33.05S79.4,161.79,76.71,161.91Z" fill="#fe8924"/>
        <path d="M114.22,13.36c-.19,1.43,2.2,1,1.84,2.58-.78.38-1.46,0-2.13-.28-3.31-1.29-6.59-2.65-10-3.64a2,2,0,0,1-1.19-.84c-.37-1-.41-1.7,1-1.26C107.22,11.1,111,11.34,114.22,13.36Z" fill="#fe4527"/>
        <path d="M141.47,136l6-9a.47.47,0,0,1,.62,0c1,1.4-1.15,2.19-.68,3.49a32.59,32.59,0,0,1-6.36,7.68C140.22,137.29,141.16,136.72,141.47,136Z" fill="#fe6024"/>
        <path d="M77.19,9v.5A1.7,1.7,0,0,1,76,10.53,93.51,93.51,0,0,0,60.87,13.9a1.8,1.8,0,0,1-1.44-.21c-.64-.87.2-1.1.65-1.51,2.12-1,4.57-1,6.64-2.13l2-.5a26.25,26.25,0,0,0,4.88-.85C74.85,8.47,76.06,8.15,77.19,9Z" fill="#fe5e23"/>
        <path d="M60.25,12.46l-1,1c-.13,1.45-1.53,1.38-2.36,1.7-2,.76-3.73,2.41-6.12,1.79.27-.68,1-1.09,1-1.93A30.69,30.69,0,0,1,59.25,12C59.52,12.25,60,12.05,60.25,12.46Z" fill="#fe5e20"/>
        <path d="M147.39,130.53c-1.22-1.39,1.14-2.19.56-3.47,0-1.8,1.14-3,2.13-4.38a9.22,9.22,0,0,1,2.07-1.56c.36-.15,1-.41.8.49l-1.1,2.79c-.23.88-.37,1.82-1.41,2.17Z" fill="#fe5d25"/>
        <path d="M134.5,27.4c-2.43-3-5.62-5-8.85-7-1.32-.8-1.46-.86-1.26-2A76.56,76.56,0,0,1,136,27c.11.71-.38.75-.87.79A1.09,1.09,0,0,1,134.5,27.4Z" fill="#fe3322"/>
        <path d="M103.73,9.92c-.78,0-1,.35-.63,1-3.52.37-6.92.09-9.95-2V8l.51,0c.81.49,1.78,0,2.59.4A23.66,23.66,0,0,1,103.73,9.92Z" fill="#fe4824"/>
        <path d="M141.47,136c-.15.73-.29,1.45-.44,2.18-1.87,2.94-5.15,4.36-7.41,6.87-.57-.73-.62-.77-.22-1.18a34,34,0,0,1,4.08-3.88A18.87,18.87,0,0,1,141.47,136Z" fill="#fe6521"/>
        <path d="M37.32,23.91c1.25,1.37,1.93-.76,3-.49a1.32,1.32,0,0,1-.19,1.35,14,14,0,0,1-4,3,4.26,4.26,0,0,1-1.91.15,1.48,1.48,0,0,1-1-.6L34.36,26Z" fill="#fe7b29"/>
        <path d="M137.48,140c-1.16,1.24-2.35,2.47-3.48,3.75-.29.34-1.18.61-.38,1.31l-4,3c-.61-.37-.85-1.1-.33-1.43C132.3,144.75,134.32,141.68,137.48,140Z" fill="#fe6e25"/>
        <path d="M77.69,160.94H76.2c-2,1.23-4-.52-6,0l-5.49-1.05a1.16,1.16,0,0,1,0-1.53,1.61,1.61,0,0,1,.81-.18c3.64.46,7.18,1.52,10.87,1.69C77,159.89,77.73,160,77.69,160.94Z" fill="#fe8d26"/>
        <path d="M100.63,160.48c.28-1.72,2.25-1,3-2,1.59-.82,3.18-1.61,5-.51h0q.25.18.18.36c-.06.12-.11.19-.17.19A20.45,20.45,0,0,1,100.63,160.48Z" fill="#fe7d21"/>
        <path d="M135,27.41a1.05,1.05,0,0,0,1-.46,26.28,26.28,0,0,1,6.14,5.86,1.08,1.08,0,0,0-.65,1.08c-1.11.29-1.46-.57-1.92-1.27a11.09,11.09,0,0,0-4.21-4.33C135.05,28.06,134.82,27.81,135,27.41Z" fill="#fe3b21"/>
        <path d="M34.42,139.54l-1.55,2c-1.33-.07-2.44-.36-2.1-2.1l2.06-2A11.82,11.82,0,0,1,34.42,139.54Z" fill="#fe922e"/>
        <path d="M76.71,161.91c.82-.82,1.86-.44,2.8-.45,3.77,0,7.54,0,11.31,0,.78,0,1.66-.27,2.31.47l-1.4.06a89.75,89.75,0,0,1-13.62,0Z" fill="#fe891d"/>
        <path d="M26.33,134.51c.43-.39.59-1.12,1.36-1.07,1.25-.16,1.65.87,2.25,1.62l-1.55,2C27,136.74,25.89,136.26,26.33,134.51Z" fill="#fe912a"/>
        <path d="M60.25,12.46a1,1,0,0,1-1-.51,19.05,19.05,0,0,1,7.47-1.9C65,12,62.43,11.71,60.25,12.46Z" fill="#fe5b1e"/>
        <path d="M78.11,162H91.73A41.23,41.23,0,0,1,78.11,162Z" fill="#fe8924"/>
        <path d="M111.57,157c2.09-1,4-2.57,6.52-2.42a10,10,0,0,1-5.46,2.45A.8.8,0,0,1,111.57,157Z" fill="#fe6727"/>
        <path d="M64.73,158.46v1.42l-4.46-1.48c0-1,.79-.88,1.4-1.05a5.79,5.79,0,0,1,2.34.23A1.2,1.2,0,0,1,64.73,158.46Z" fill="#fe8422"/>
        <path d="M94.15,161.87c.84-1.81,2.81-.48,4-1.43.61-.18,1.32-.71,1.49.48A26,26,0,0,1,94.15,161.87Z" fill="#fe7c1c"/>
        <path d="M70.22,160.93c2-1.18,4,.6,6,0v.5a3.19,3.19,0,0,1-2.55,0C72.49,161.39,71.27,161.69,70.22,160.93Z" fill="#fe891d"/>
        <path d="M77.19,9h-4c-.13-.11-.17-.21-.13-.32s.09-.16.13-.16a.51.51,0,0,1,.42-.05c.79-.49,1.75.07,2.55-.41l1.91-.14C78.59,8.92,77.48,8.6,77.19,9Z" fill="#fe5218"/>
        <path d="M73.21,8.49V9a6.6,6.6,0,0,1-4.45.58C70.08,8.51,71.81,9.19,73.21,8.49Z" fill="#fe5419"/>
        <path d="M150.44,126.57a4.72,4.72,0,0,1,1.41-2.17c.19.22.39.44.58.67a13.8,13.8,0,0,1-1.14,1.84C150.83,127.48,150.49,127.27,150.44,126.57Z" fill="#fed490"/>
        <path d="M111.57,157l1.06,0a8.28,8.28,0,0,1-4,1.52c0-.19,0-.37,0-.55C109.55,157.52,110.43,156.83,111.57,157Z" fill="#fe6323"/>
        <path d="M61.75,158c-.53,0-1.11-.09-1.48.45A1,1,0,0,1,59.2,158c.08-1.34,1-1.05,1.87-1C61.48,157.19,61.86,157.39,61.75,158Z" fill="#fe8a23"/>
        <path d="M61.25,157.45c-.72.07-1.54-.22-2,.58a3.81,3.81,0,0,1-.45-.13V157C59.74,156.34,60.7,155.86,61.25,157.45Z" fill="#fe8e29"/>
        <path d="M99.61,160.92c-.37-.57-1-.46-1.49-.48.85-.95,1.68-.34,2.51,0C100.42,160.92,100,161,99.61,160.92Z" fill="#fe7d21"/>
        <path d="M76.18,8c-.75.75-1.69.36-2.55.41A3.66,3.66,0,0,1,76.18,8Z" fill="#fe5e23"/>
        <path d="M96.24,8.42c-.88,0-1.82.36-2.59-.4A4,4,0,0,1,96.24,8.42Z" fill="#fe502e"/>
        <path d="M73.65,161.47l2.55,0v.46C75.32,161.9,74.41,162.11,73.65,161.47Z" fill="#fe8e29"/>
        <path d="M61.2,118.11c-1.24-1.32-2.22-1-3.49.17-4.9,4.66-9.92,9.19-14.9,13.76-.93,0-.54-.55-.38-.93.36-.83,1.25-1.26,1.61-2.1-.39-.3-1.35.8-1.28-.54l18.05-17.11L62.24,110a1.29,1.29,0,0,0,.14-2c-.57-.67-1.15-1.14-2.14-.67a13.75,13.75,0,0,0-2.83,2.38c-1.16.2-1.07-.78-1.3-1.41-.91-2.48-2-4.91-3-7.36-.25-1.19.65-1.8,1.28-2.54,1.5-1.06,2.24-3.14,4.4-3.32,2.28,1.83,3.23,4.67,5.13,6.78,1.49,1.43,2.34,3.68,4.9,3.67,1.9.27,3.26.82,2.1,3.19-.56,1.14.57,2.18.58,3.33a19.22,19.22,0,0,1-7.36,7.34A7.08,7.08,0,0,1,61.2,118.11Z" fill="#feb470"/>
        <path d="M53.28,100.65c1.93,2.18,2.35,5,3.45,7.6.21.49.09,1.13.68,1.46-2.4,2.77-5.31,5-8,7.47-1.42-.65-.86-2-1.14-3.1.51-1.13,1.71-1.51,2.53-2.32s1.44-1.79.34-2.94-1.88-.4-2.7.38a12.91,12.91,0,0,1-1.16.91,1.43,1.43,0,0,1-.93-.29.81.81,0,0,1-.21-.63c1-2,2.85-3.12,4.23-4.71.63-.73,1.57-1.28,1.21-2.48C51.82,101.14,52.17,100.42,53.28,100.65Z" fill="#feb670"/>
        <path d="M32.83,128.55l11.88-11c1.21-.08,2.63-.71,3.14,1.14a148.13,148.13,0,0,1-13.5,12.41A2.81,2.81,0,0,1,32.83,128.55Z" fill="#feb670"/>
        <path d="M42.76,128.47c.89,1.06,1.59-1.71,2.27-.21.49,1.09-1,1.5-1.46,2.29-.28.48-1.25.62-.76,1.49a11.48,11.48,0,0,1-4,3.51c-.82-.33-1.84-.38-2-1.54A44.75,44.75,0,0,1,42.76,128.47Z" fill="#feb76f"/>
        <path d="M47.85,118.67c-.82-1-2.26-.3-3.14-1.14l3.57-3.45c1.34.68.69,2.1,1.14,3.1Z" fill="#febb73"/>
        <path d="M32.83,128.55c.82.65,1,1.68,1.52,2.53-.58.39-.59,1.4-1.51,1.44a3,3,0,0,1-2-2A6,6,0,0,1,32.83,128.55Z" fill="#feb061"/>
        <path d="M36.79,134l2,1.54c-.64.69-1,1.64-2,2a2.26,2.26,0,0,1-1.63-2.12Z" fill="#feaf60"/>
        <path d="M35.24,135.47l1.63,2.12c-.25.42-.5.83-1.06.86-.9-.25-1.9-.35-2.13-1.53Z" fill="#fea650"/>
        <path d="M30.8,130.52a5.23,5.23,0,0,1,2,2l-1,1.08a3.2,3.2,0,0,1-2.12-2.1Z" fill="#feab58"/>
        <path d="M28.2,133l1.06-1a2.45,2.45,0,0,1,2.06,2l-1,1A4.08,4.08,0,0,1,28.2,133Z" fill="#fe9b3d"/>
        <path d="M34.42,139.54c-1.34-.07-1.63-.95-1.59-2.08l.52-.4c.71.47,1.36,1,2.07,1.49Z" fill="#fe983b"/>
        <path d="M31.32,134l-2.06-2,.5-.48a5,5,0,0,1,2.12,2.1Z" fill="#fea44c"/>
        <path d="M28.2,133a5.41,5.41,0,0,1,2.13,2,.55.55,0,0,1-.39.12c-1.22.11-1.43-1.17-2.25-1.62Z" fill="#fe9838"/>
        <path d="M35.42,138.55a2.46,2.46,0,0,1-2.07-1.49.42.42,0,0,1,.33-.14l2.13,1.53A.67.67,0,0,1,35.42,138.55Z" fill="#fe9e44"/>
        <path d="M158.42,60.76c1.56,3.25,1.83,6.84,2.49,10.31a20,20,0,0,1,.53,2.56c.47.81-.08,1.78.41,2.59l.1,1.87a59.54,59.54,0,0,1,.19,13.21,3.35,3.35,0,0,1-.15,1.37c-1.42,0-1.08-1.18-1.27-2,.08-6.84.08-13.68-1.74-20.37a9.49,9.49,0,0,1-1.18-4.58,7.61,7.61,0,0,0-.14-3.42A2.14,2.14,0,0,1,158.42,60.76Z" fill="#fe4428"/>
        <path d="M142,34.88c2.9,2.1,4.41,5.3,6.44,8.09,1.25,1.73,2.35,3.56,3.55,5.33.33.47.74.05,1.12,0a6.11,6.11,0,0,1,1.41,3c-.71,1.46,1.34,2.52.57,4a.91.91,0,0,1-.68.17,2.48,2.48,0,0,1-1.14-1.25A90.37,90.37,0,0,0,141.68,36.3,1.33,1.33,0,0,1,142,34.88Z" fill="#fe3a27"/>
        <path d="M160.83,99.63a55,55,0,0,1-3.49,12.45c-1.21-.19-.85-1.14-.93-1.88.55-3.15,1.66-6.17,2.17-9.34.28-1.75-.12-3.68,1.19-5.2a.7.7,0,0,1,.76,0C161.46,96.93,160.26,98.34,160.83,99.63Z" fill="#fe5424"/>
        <path d="M156.92,110.12c.07.67-.23,1.41.42,2a38.87,38.87,0,0,1-4.39,9.53c-1.39-.47-1.46,1.34-2.51,1.46a1.41,1.41,0,0,1,.21-2c2.37-2.54,3.19-5.84,4.58-8.87C155.6,111.41,155.6,110.19,156.92,110.12Z" fill="#fe5d27"/>
        <path d="M154.92,55.31c.09-1.36-1.9-2.5-.44-4,2,2.88,2.85,6.22,3.94,9.46,0,.55.09,1.16-.51,1.52-1.13-1.64-1.79-3.56-3-5.18A1.36,1.36,0,0,1,154.92,55.31Z" fill="#fe3824"/>
        <path d="M162,91.8q0-6.85,0-13.71c.57.8.26,1.78.5,2.65a38.32,38.32,0,0,1,0,8.43l-.1,2.38A.29.29,0,0,1,162,91.8Z" fill="#fe4a26"/>
        <path d="M160.83,99.63c-.86-1.25-.23-2.65-.42-4a.91.91,0,0,1-.25-.64,15.79,15.79,0,0,0,.12-2.48,3.17,3.17,0,0,1,.44-1.81.47.47,0,0,1,.68,0c.07.68-.23,1.47.5,2,.52.8-.07,1.37-.4,2A19.76,19.76,0,0,1,160.83,99.63Z" fill="#fe4a26"/>
        <path d="M162.45,89.17V80.74A16.39,16.39,0,0,1,162.45,89.17Z" fill="#fed48e"/>
        <path d="M161.5,94.67l.4-2,.06-.88.39-.25C162.09,92.6,163.17,94,161.5,94.67Z" fill="#fed490"/>
        <path d="M161.85,76.22c-.77-.76-.35-1.71-.41-2.59A4,4,0,0,1,161.85,76.22Z" fill="#fe4929"/>
        <path d="M10.92,102.64c.85,1.85-.2,4,.88,5.82.21.35-.41.59-.82.66A64.65,64.65,0,0,1,7.86,94.65a11.69,11.69,0,0,1-.17-3A32.06,32.06,0,0,0,7.22,86a29.33,29.33,0,0,1,.15-5.3h.12c.5-1-.1-2.09.4-3.07-.1-4.41,1.2-8.6,2.09-12.86.69.34.84-1,1.57-.52a1.77,1.77,0,0,1,.36,1.29,3.06,3.06,0,0,1-.12.66,6.24,6.24,0,0,0-.59,3.13,5,5,0,0,1,0,.67c-.12.91.29,1.86-.18,2.74-1.37,2.36-.67,5-1,7.5A69.45,69.45,0,0,0,10.11,96c.12,1.19,1.31,1.88,1.3,3.14S11.88,101.57,10.92,102.64Z" fill="#fe9229"/>
        <path d="M11.42,64.28c-.52.07-.4,1.9-1.44.51A73.27,73.27,0,0,1,20.35,42.28C21.19,43,21,44,21,45a3.92,3.92,0,0,1-.23,1.17,15.88,15.88,0,0,1-2.13,3.09A68.79,68.79,0,0,0,12.33,62.3C12.06,63,12.07,63.78,11.42,64.28Z" fill="#fe8d27"/>
        <path d="M20.4,45.34c0-1,0-2,0-3.06a27.94,27.94,0,0,1,4.44-6c.6,0,1.1-1,1.79-.19.19,1.45-1,2.33-1.43,3.53-1.08,1.44-1.76,3.13-2.76,4.61C21.94,44.86,21.64,46,20.4,45.34Z" fill="#fe6c27"/>
        <path d="M26.37,35.87c-.56,0-.82,1.23-1.58.38a42.93,42.93,0,0,1,8.44-8.9l1.11,0a.79.79,0,0,1-.07.92C31.78,31,29.51,33.89,26.37,35.87Z" fill="#fe6424"/>
        <path d="M7.37,80.72l.1,5.49a4,4,0,0,1-.08,3A16.92,16.92,0,0,1,7.37,80.72Z" fill="#fed18b"/>
        <path d="M7.39,89.2c0-1,.05-2,.08-3,1,1.79.27,3.71.41,5.56a.25.25,0,0,1-.42-.14Z" fill="#fe9e2f"/>
        <path d="M7.89,77.65c-.07,1,.4,2.14-.4,3.07C7.52,79.69,7.2,78.6,7.89,77.65Z" fill="#fe9e2f"/>
        <path d="M7.46,91.63a3.59,3.59,0,0,1,.43.14l0,2.88C7.07,93.73,7.56,92.64,7.46,91.63Z" fill="#fed18b"/>
        <path d="M61.2,118.11a3.71,3.71,0,0,1,3,1c-.34,1.86-2.09,2.58-3.15,3.85-.89,1.06-2,2-2.93,3,1.68-1.64,3.3-3.33,5-4.94.46-.44.81-1.4,1.78-.79.71,1.35.18,2.77.24,4.15.35.55-1.42,1.27.15,1.74a1.44,1.44,0,0,1-.35,1.26c-2.77,2.92-5.66,5.72-8.51,8.56-.61.62-1.18,1.43-2.25,1.25-2-2-3-4.5-3.93-7.07,3.27-3.15,6.53-6.32,9.84-9.43C60.89,119.91,61.58,119.27,61.2,118.11Z" fill="#feb371"/>
        <path d="M37.43,142l1.24-1.13c1-.33,1.75.28,2.48.82a76.6,76.6,0,0,0,19,10.69c1.79.67,3.46,1.82,5.33,2.45a69.34,69.34,0,0,0,40-.78,5.41,5.41,0,0,1,2.92-.38,1.07,1.07,0,0,1,.64,1,2,2,0,0,1-.17.8c-2.23,1.84-5.1,1.86-7.7,2.68a3,3,0,0,1-1.15.25c-1.32.27-2.7,0-4,.52a4.28,4.28,0,0,1-.86.14,179,179,0,0,1-21.1,0c-3.38-.24-6.76-.44-9.89-1.94-3.72-1.85-7.35-3.92-11.39-5.08A46.79,46.79,0,0,1,37.43,142Z" fill="#fe9c43"/>
        <path d="M64.74,155.46c-3.47-1.65-6.84-3.53-10.41-4.89-5.09-1.93-9.1-5.49-13.56-8.36l-2.1-1.3,2.63-2.45c.07.09.15.17.23.26.51,2,2.28,2.79,3.85,3.59A33.19,33.19,0,0,1,53,147c1.56,1.4,3.73,1.76,5.63,2.57,2.05.87,4.13,1.62,5.78,3.21a2.12,2.12,0,0,1,.81,1.25A1.7,1.7,0,0,1,64.74,155.46Z" fill="#fea657"/>
        <path d="M50.29,130.06c1.24.37,1.26,1.52,1.54,2.47.5,1.68,2.1,2.74,2.44,4.5-.27,2.18-1.83,3.15-3.65,3.88-3.3-1.15-4.11-3.91-4.46-6.95A24.6,24.6,0,0,1,50.29,130.06Z" fill="#feb570"/>
        <path d="M64.24,156.46c2.94,1.65,6.22,1.74,9.47,2a90.1,90.1,0,0,0,13.64.71c.65,0,1.3-.26,1.86.27-.23,1.38-1.36,1-2.16,1-2.54.07-5.1,0-7.64,0a141.39,141.39,0,0,1-14.18-2h-.5l-.49-.5A86.5,86.5,0,0,1,39.7,145.54c-1.1-.79-2.47-1.43-2.79-3l.52-.5c1.8,1.24,3.64,2.45,5.41,3.74a39.76,39.76,0,0,0,9.94,5.7A83.73,83.73,0,0,0,64.24,156.46Z" fill="#fe9435"/>
        <path d="M46.16,134c1.41,1.72,1.11,4.38,3.2,5.77.47.31.81.77,1.42.78.27.51,0,.89-.29,1.27-.5.51-1,1-1.82.88-2.27-1.53-4.77-2.78-6.37-5.14A15.76,15.76,0,0,1,46.16,134Z" fill="#feb66e"/>
        <path d="M36.91,142.54a67.51,67.51,0,0,0,13.64,9.21c2.86,1.56,6.11,2.25,8.74,4.43,1.2,1,3.54.39,4.95,1.78H61.75l-.5-.5c-.7-.83-1.65-.37-2.49-.49-2.92-2.17-6.39-3.26-9.55-4.94-4.64-2.47-9.24-5-12.82-9Z" fill="#fe8f2c"/>
        <path d="M42.3,137.52a46.06,46.06,0,0,1,6.49,5,.46.46,0,0,1-.06.66c-2.51.19-6.12-2-7.41-4.6l0-.11Z" fill="#feb166"/>
        <path d="M27.94,128.18l-1,.95c-1.42-.1-2-1.17-2.78-2.17-2.25-3-3.54-6.66-6.27-9.36a71.93,71.93,0,0,1-6.65-19.36c-1.29-6.34-1-12.62-.68-18.95.32-.58.55-1.29,1.46-1.08,1,1.45.2,3.37,1.22,4.82-.37,7.82,1.4,15.33,3.37,22.81a6.5,6.5,0,0,0,.34,2.16,196.14,196.14,0,0,0,10.15,18C27.51,126.66,28.26,127.21,27.94,128.18Z" fill="#fea848"/>
        <path d="M46.3,109.62h.5c.14,1.25-1.2,1.55-1.58,2.46l-6.92,6.46a4.21,4.21,0,0,1-3-.23c-2.4-2.12-2.3-5.21-3.1-8,.86-2.88,3.06-4.51,5.51-5.91a5.58,5.58,0,0,1,2.8,2.66c-.13,1.83-2,2.44-2.71,3.87s-.21,2.92-.4,4.61c1.9-1,2.74-3,4.61-3.7a3.51,3.51,0,0,0,2.27-1.27C44.83,110.11,45.3,109.29,46.3,109.62Z" fill="#febc70"/>
        <path d="M35.34,118.09c1,.16,2.08-.38,3,.45q-3,2.77-5.95,5.54c-2-1-2.74-3-3.65-4.77a1.14,1.14,0,0,1,.6-1.65C31.35,117.31,33.4,116.89,35.34,118.09Z" fill="#feb870"/>
        <path d="M18.4,117.6c2.14,1.25,2.75,3.61,4,5.5,1.38,2.11,2.48,4.43,4.53,6-.41.58-.78,1.21-1.57,1.34a49.68,49.68,0,0,1-7.45-11.88C17.65,118.05,18,117.79,18.4,117.6Z" fill="#fe9a3a"/>
        <path d="M27.94,128.18c-3.43-5.46-7.46-10.56-9.71-16.75a9.31,9.31,0,0,0-1.83-3.11,1.4,1.4,0,0,1,0-2.19l.32.16a18.14,18.14,0,0,1,3.53,6.17,11.65,11.65,0,0,0,3.31,5.41A86,86,0,0,0,29.32,127Z" fill="#feb25d"/>
        <path d="M28.86,118.09c.52,2.37,2.41,4,3.49,6a3.24,3.24,0,0,1-1.52,1.43c-2.44-2-4.46-4.16-4.53-7.54a1.71,1.71,0,0,1,.7-.35A1.9,1.9,0,0,1,28.86,118.09Z" fill="#feb76d"/>
        <path d="M26.37,118.09c.81,2.88,2.93,5,4.46,7.42l-.51.48a1.84,1.84,0,0,1-2-.58c-1.52-2.35-3.55-4.43-4-7.35a1.34,1.34,0,0,1,.66-.38A1.44,1.44,0,0,1,26.37,118.09Z" fill="#feb468"/>
        <path d="M24.37,118.09c1.21,2.07,2.45,4.11,3.6,6.21.53,1,1.6,1.09,2.35,1.69a1.65,1.65,0,0,1-1,1c-3-2.25-4.54-5.53-5.94-8.87l.21-.19A.69.69,0,0,1,24.37,118.09Z" fill="#feb060"/>
        <path d="M45.22,112.08c-.12-1.24,1.33-1.46,1.58-2.46l.49.49A5.59,5.59,0,0,1,45.22,112.08Z" fill="#feb86d"/>
        <path d="M18.4,117.6l-.5,1-1-.5c-1.58-4-3.12-8-4.75-11.94-.48-1.15.38-2.77-1.23-3.51.56-3.59-2-6.58-1.87-10.16.19-4.08-.57-8.19.38-12.26.46-.57.26-1.77,1.51-1.59a.37.37,0,0,1,.12.4c-.05.13-.09.2-.14.2,0,4.88-.42,9.82.12,14.64a62.31,62.31,0,0,0,3.69,15.22C15.82,112,17.17,114.76,18.4,117.6Z" fill="#fe9d33"/>
        <path d="M93.15,9l9.95,2c4.34,1.62,8.78,3,13,5v.5c.1.52-.23.72-.64.85-2.16,0-3.89-1.33-5.82-2a68.83,68.83,0,0,0-14.66-3.71,2.49,2.49,0,0,1-1.94-1,1,1,0,0,1,.13-1.15Z" fill="#fe502e"/>
        <path d="M115.56,16.94l.5-.5a64.7,64.7,0,0,1,15.74,10,10.21,10.21,0,0,0,1.7,1c3.1,1.44,5.18,4,7.12,6.64a.59.59,0,0,1-.34.56c-1.29.21-1.94-.77-2.65-1.51a45.88,45.88,0,0,0-6.37-5.44,56.41,56.41,0,0,0-15.33-9.38C115.61,17.88,115.3,17.49,115.56,16.94Z" fill="#fe4c32"/>
        <path d="M140.48,34.38a64.79,64.79,0,0,0-7-7H135l.5.49A25.78,25.78,0,0,1,140,32.39a3.15,3.15,0,0,0,1.49,1.5v.5A.68.68,0,0,1,140.48,34.38Z" fill="#fe452b"/>
        <path d="M108.58,155.46c0-.16,0-.33,0-.49a2.72,2.72,0,0,1,1.73-1.3,65.39,65.39,0,0,0,8.13-3.59c2.06-1,4.18-1.85,5.38-4.1a4.14,4.14,0,0,1,2.88-1.76c2.86-.59,4.29-3.28,6.68-4.55a69.73,69.73,0,0,0,12.31-14.4c1.14-1.79,2-3.82,3.55-5.32a1.53,1.53,0,0,1,.7-.16,1,1,0,0,1,.61.36,11.29,11.29,0,0,1-3.11,5.91c-3.83,5.06-7.56,10.19-12.26,14.5-2.71,2.49-5.78,4.58-8.17,7.43-3.31,1.49-6.22,3.71-9.6,5.07-3,1.2-5.89,2.59-8.83,3.9a1,1,0,0,1-.33-.57A1.29,1.29,0,0,1,108.58,155.46Z" fill="#fe763a"/>
        <path d="M108.58,156.46c0,.16,0,.33,0,.5,0,.33,0,.66,0,1l-5,.51c-3.44.56-6.89,1-10.3,1.72a25,25,0,0,1-3.65.27c-3.32.53-6.66.14-10,.19-.36,0-.53-.32-.48-.69,3.31-.31,6.69.63,10-.5,2.06-1,4.37-.31,6.48-1h.5c1.26-.66,2.72.19,4-.49h1C103.64,157.66,106,156.54,108.58,156.46Z" fill="#fe8d31"/>
        <path d="M147.45,126.06q1.49-3,3-6c1.38-2.57,2.12-5.41,3.47-8a7.28,7.28,0,0,0,1.11-2.57c.06-.25.15-.49.23-.74a66,66,0,0,0,3.5-17.41c.09-1.69.12-1.69,1.44-1.95a11.81,11.81,0,0,1-.28,6.24,69.76,69.76,0,0,1-3,14.45c-1.29,2.89-2.66,5.75-3.82,8.7-.63,1.61-2.65,2.3-2.66,4.25l-2.49,4h-.5Z" fill="#fe5e30"/>
        <path d="M140.48,34.38h1l.5.49c0,.5,0,1,0,1.49l-.31.1c-.78-.48-1.46-1-1.19-2.09Z" fill="#fe4c32"/>
        <path d="M93.13,9.47l0,1a.53.53,0,0,1-.17.75,2.41,2.41,0,0,1-1.64.42c-4.89-.87-9.78,0-14.67-.07a2.57,2.57,0,0,1-.78-.3c-.64-.61-.15-.94.31-1.29l1-.5C82.51,8.53,87.82,9.12,93.13,9.47Z" fill="#fe6d2f"/>
        <path d="M48.29,18.93l1-.49a74.47,74.47,0,0,1,25.26-7.76,1.3,1.3,0,0,1,1.14.28h0c-.06,1.43-1.31,1.74-2.22,2.38a109.11,109.11,0,0,0-18.82,5.51,12.17,12.17,0,0,0-4.55,2c-1.82,1-3.3,2.76-5.6,2.82a.69.69,0,0,1-.39-.53c.24-1.1,1.19-1.63,1.84-2.41A8.44,8.44,0,0,1,48.29,18.93Z" fill="#fe6d2f"/>
        <path d="M75.69,11A75.9,75.9,0,0,0,52.3,17.43c-1,.44-1.86,1.12-3,1a3.1,3.1,0,0,1,1.49-1.5l8.48-3.49c3.78-.6,7.33-2.18,11.15-2.63,1.94-.23,3.86-.57,5.79-.85Z" fill="#fe652b"/>
        <path d="M48.29,18.93a5.17,5.17,0,0,1-2,2c-1.47,1-2.68,2.33-4.29,3.1-.69.33-1.32,1.06-2.19.39l.5-1c2.13-1.45,4.25-2.93,6.42-4.32C47.13,18.85,47.72,18.42,48.29,18.93Z" fill="#fe7d31"/>
        <path d="M79.19,160c2.43,1.09,5,.24,7.5.48,1,.09,2,0,3,0-2,1.06-4.18.33-6.27.47-1.89.12-3.79,0-5.69,0-3.8-.66-7.6-1.32-11.39-2a4.41,4.41,0,0,1-1.07-.48c3.74-.13,7.31,1,11,1.4C77.2,160,78.2,159.92,79.19,160Z" fill="#fe8e29"/>
        <path d="M26.37,35.87q4-4.23,8-8.47h2a.38.38,0,0,1,.59,0,2,2,0,0,1-1,1.86,67.93,67.93,0,0,0-9.21,9.21c-.46.55-1,1.17-1.86.88C24.85,38,26.26,37.2,26.37,35.87Z" fill="#fe692b"/>
        <path d="M36.84,27.41h-.51l3.49-3c2.43-.68,4.1-2.73,6.48-3.49a5.21,5.21,0,0,1-2,2c-1.65,2.09-3.91,3.41-6.1,4.82A1.33,1.33,0,0,1,36.84,27.41Z" fill="#fe843a"/>
        <path d="M140,32.39a23.86,23.86,0,0,1-4.49-4.49A8.24,8.24,0,0,1,140,32.39Z" fill="#fe3f24"/>
        <path d="M68.59,106.08c-2.7,0-3.61-2.17-4.86-3.93-.17-1.39,1-2,1.76-2.73,1.08-1.16,1.49-2.23.73-3.71a7.56,7.56,0,0,1-.63-3.09c0-.61-.45-.8-1-.89a4,4,0,0,1-.9-.25A4.16,4.16,0,0,0,62,90.81a4.69,4.69,0,0,1-2.25-.64,12.08,12.08,0,0,0-1.18-.63c-1-.43-2-.64-2.92-1.06-2.19-1.34-.58-2.45.2-3.61a62.63,62.63,0,0,0,4.6-5.07,9,9,0,0,1,5.85-3.62c2.35-.57,4.69-1.13,7-1.77a5.21,5.21,0,0,0,2.56-2.07A68.91,68.91,0,0,1,87.43,61.55c1.44-1,2.9-2,4.27-3.12A6.53,6.53,0,0,1,93,57.49c.68-.34,1.37-.66,2-1,.4-.22.8-.43,1.19-.67,2.23-1.57,4.86-2.33,7.25-3.56,4.57-1.7,9.22-2.93,14.16-2.57a5.49,5.49,0,0,1,2.4.39c1.42,1,1.08,2.56,1.16,4,0,.42,0,.83,0,1.24,0,1.33-.51,2.57-.54,3.89-.1.88-.42,1.7-.58,2.56-.31,1-.83,2-1.12,3-.29.75-.54,1.52-.86,2.26a5.92,5.92,0,0,0-.51,2,4.71,4.71,0,0,1-1.21,2.44A6.9,6.9,0,0,0,114.55,74,17.21,17.21,0,0,0,113,76.37a18.86,18.86,0,0,1-1.13,1.53,18,18,0,0,0-1.53,2.43,27.77,27.77,0,0,1-2,2.22,22.9,22.9,0,0,0-2,2.75,3.66,3.66,0,0,1-.73.74,43.55,43.55,0,0,0-6.58,6.51,3.11,3.11,0,0,1-.48.48c-1,.84-2.66,1.23-2.24,3.11a2,2,0,0,1-.14.64,8.41,8.41,0,0,0-.94,2.74,15.14,15.14,0,0,0-.52,2.65,7.56,7.56,0,0,1-.14,1,14,14,0,0,1-1.1,3.39,3.14,3.14,0,0,1-.72.78c-1.19.84-2.57,1.46-3.33,2.81a3.61,3.61,0,0,1-.73.73c-1.64,1-3,2.45-4.69,3.46a1.35,1.35,0,0,1-1-.19c-1-1.22-1.21-2.8-1.78-4.22a7.07,7.07,0,0,0-.52-1.24,10,10,0,0,1-1.1-3.08,11.66,11.66,0,0,0-.31-1.16,4.89,4.89,0,0,0-.26-.51,1.71,1.71,0,0,0-1-.6c-2,.14-4-.81-6,0C71,104.35,70.09,105.61,68.59,106.08Z" fill="#fefefe"/>
        <path d="M56.17,85.18c0,1-2.44,1.67-.39,2.94.47.68,1.3.67,1.93,1,.71.08,1.35.46,2.07.5l2.48.58a1.28,1.28,0,0,1,.35,1,7.86,7.86,0,0,1-3.85,4l-4,3.49c-1.19.25-2.08-.82-3.28-.72-.83.07-1.12-.63-.9-1.37.39-1.35-.45-2-1.25-2.9-1.77-2-3.57-4-3.92-6.88.38-1.42-1.22-1.87-1.48-3a2.75,2.75,0,0,1,1.38-1.94c.28-.21.56-.41.82-.62,1.11-1,2.08-2.11,3.18-3.1.57-.51,1.06-1.33,2.07-.92a4.12,4.12,0,0,0,2.08,4.61A6,6,0,0,1,56.17,85.18Z" fill="#feb167"/>
        <path d="M45.8,86.7c1.07,2.79,2.4,5.36,4.9,7.22,1.1.82,1.32,2.07.09,3.4,1.81-.55,2.88.43,4,1.34l-1.49,2a3.12,3.12,0,0,0-1.5,1.5c-.79,2-2.55,3.13-4,4.51-1,.94-1.81.67-2-.74a9.77,9.77,0,0,0-.73-3.07,2,2,0,0,1,.23-1c.69-1.51.41-3.07.26-4.63a4.91,4.91,0,0,1-.17-.66,5.94,5.94,0,0,1-.14-1,34.76,34.76,0,0,0-.14-3.75c-2.52,1.71-3.9,4.47-6.59,5.7a1.28,1.28,0,0,1-.69-.19c-.26-.51,0-.92.26-1.34,1.21-1.36,2.52-2.63,3.84-3.9C43.52,90.46,45.11,88.92,45.8,86.7Z" fill="#feb567"/>
        <path d="M58.76,95.17l3.49-4a1.29,1.29,0,0,1,1.59,0h.89c.34.53,1.08.51,1.45,1,0,.57-.13,1.26.14,1.68,2.39,3.81-.19,6-2.59,8.3C61.56,100.19,60.36,97.54,58.76,95.17Z" fill="#feb171"/>
        <path d="M79.66,103.63v.51a4.87,4.87,0,0,0-3,3.18c-1.58,1.86-2.75,4.21-5.46,4.79-.62-1.5-1.67-2.72-.41-4.69.72-1.12-1.29-1.09-2.21-1.34a15.28,15.28,0,0,1,3.06-3c1.25-1,2.49.12,3.74,0A10.65,10.65,0,0,1,79.66,103.63Z" fill="#feaf70"/>
        <path d="M71.21,112.11a28.68,28.68,0,0,0,5-5c.8-.74,1-2.21,2.59-2,.54,1.46-.71,2.06-1.43,2.89s-1.51,1.54-2.27,2.3c-1.07,1-2.1,2.06-3.13,3.11-2.49,2.13-4.31,5-7.22,6.65l-7.56,7.18-.35-.32,7.41-7.85A56,56,0,0,0,71.21,112.11Z" fill="#feb376"/>
        <path d="M45.3,102.65c1.53,1,.76,2.69,1.18,4.34l5.3-4.84c1.69.44.56,1.12.09,1.63-1.83,2-3.71,3.9-5.57,5.84-.86.77-1.71,1.55-2.58,2.32-.42.38-.84.92-1.41.17-.32-.85.36-1.29.76-1.84,1.34-1.34,3-2.52,1.87-5-2.3,1.59-3.8,4.17-6.26,5.65a1.3,1.3,0,0,1-1.35-.33l3-3.49C41.58,105.19,42.82,103.23,45.3,102.65Z" fill="#feb86d"/>
        <path d="M159.91,95.67V89.19c-1-1.12-.67-2.5-.71-3.79a78.34,78.34,0,0,0-2.38-18.09c-.52-1.9-1.65-3.6-1.73-5.63a1.25,1.25,0,0,1,1.13-1c1.81,1,1.57,3,2.19,4.64a8.62,8.62,0,0,0,1,4.48,82,82,0,0,1,1.73,18.76,4,4,0,0,1-.24,2.17v2c-.61.74.09,1.74-.49,2.49v.5Z" fill="#fe5232"/>
        <path d="M160.9,90.69c.41-7-.84-14-1.49-20.93,1.51,4.29,1.81,8.77,2,13.25.1,2.56,0,5.12,0,7.68Z" fill="#fe4929"/>
        <path d="M158.41,65.28l-2-4.49c-.8-1.37-2-2.51-2.44-4.07a1.49,1.49,0,0,1,.45-1.41h.49c.12,1.84,1.78,2.84,2.39,4.4a18.13,18.13,0,0,1,.6,2.57A3.18,3.18,0,0,1,158.41,65.28Z" fill="#fe422a"/>
        <path d="M154.43,55.31V56.8c-1.31,0-1.32-1.28-1.79-2s-.74-1.84-1.55-2.49c-3.36-2.87-4.57-7.16-7-10.66-.75-1.09-1.66-2.06-2.41-3.16a2.9,2.9,0,0,1-.21-.71,1.56,1.56,0,0,1,.48-1.37h0c2.8,2.24,4.44,5.29,6.36,8.26C150.57,48.1,152.51,51.68,154.43,55.31Z" fill="#fe4835"/>
        <path d="M160.41,95.17c.11-.84-.33-1.79.49-2.49C160.78,93.52,161.24,94.47,160.41,95.17Z" fill="#fe4929"/>
        <path d="M18.4,48.83c.67-.82,1-1.95,2-2.48a1.73,1.73,0,0,1,.55,1.39,3.27,3.27,0,0,1-.22,1.11c-1.2,1.65-1.46,3.82-2.89,5.35a39.45,39.45,0,0,0-5.07,13.54,3,3,0,0,0,.41,1.89,1.76,1.76,0,0,1-.06.72c-.41.66-.89,1.2-1.79,1-.4-.47-.91-.91-.4-1.61h0a12.12,12.12,0,0,1,.5-3.49v-.5C12.59,59.65,15.49,54.24,18.4,48.83Z" fill="#fe9736"/>
        <path d="M18.4,48.83c-1.63,3.75-3.3,7.49-4.88,11.26-.78,1.86-1.4,3.79-2.1,5.68V64.28c.25-3.62,2.11-6.68,3.65-9.8C16,52.54,16.58,50.29,18.4,48.83Z" fill="#fe942d"/>
        <path d="M10.92,78.73c-.5.5-1,1-1.49,1.49.06-1.93,0-3.86.22-5.78a2.31,2.31,0,0,1,1.27-2.19l.28.28C11.92,74.63,11.37,76.68,10.92,78.73Z" fill="#fe942d"/>
        <path d="M11.42,66.27c-.19,1.16.46,2.44-.5,3.49C10.1,68.45,10.64,67.35,11.42,66.27Z" fill="#fe942d"/>
        <path d="M10.92,69.76l.5,1.5c.32.57.34,1-.5,1h0C11,71.42,9.85,70.59,10.92,69.76Z" fill="#fe942d"/>
        <path d="M20.4,47.83V46.35c0-.34,0-.68,0-1,1.55-.45,1.72-2,2.4-3.11s1-2.16,2.07-2.87c2-1.44,3.2-3.71,5.05-5.34,2.39-2.11,4.62-4.4,6.92-6.61h1.49a1.78,1.78,0,0,1,1.85-.25.93.93,0,0,1,.39,1c-.84,1-2.59.61-3.16,2.05C31.67,34.56,27.1,40,22.9,45.85,22.27,46.72,21.92,48,20.4,47.83Z" fill="#fe7e44"/>
        <path d="M50.29,141.51l.49-1A14.24,14.24,0,0,0,54.27,137l10.47-10c1,1.11.85,2.52.7,3.79-.4,3.3-.41,6.61-.56,9.92-.52,2.55-2.77,3.75-4.33,5.49a2.09,2.09,0,0,1-1.78.51c-2.09-1.16-4.25-2.18-6.34-3.33C51.59,143,50.63,142.56,50.29,141.51Z" fill="#fead6e"/>
        <path d="M64.24,141.51c-.36-4.83.66-9.62.5-14.45l.49-1c0-1.66,1-2.34,2.45-2.61.79,1.56,1.67,2.39,3.1.53a2.32,2.32,0,0,1,1.86-1.07,1.15,1.15,0,0,1,.73.71A3,3,0,0,1,72,125.84c-1.57,1.3-1.39,2.53-.14,3.95a16.93,16.93,0,0,1,2,2.16,1.52,1.52,0,0,1-.36,1.32c-2.21,2.35-4.54,4.59-6.81,6.88a9.31,9.31,0,0,1-1.81,1.51A.58.58,0,0,1,64.24,141.51Z" fill="#feb16e"/>
        <path d="M64.74,120.08a56,56,0,0,1,7-7c1.64.27,1.7,1.61,1.91,2.84a23.85,23.85,0,0,1-8.88,8.62Z" fill="#feb470"/>
        <path d="M64.74,124.57a83.61,83.61,0,0,0,8.47-8.47,9.27,9.27,0,0,1,2.07-2.63c.55-.51,1.1-1,1.62-1.58.23-.25.46-.48.69-.71.7-.45,1.11-1.58,2.26-1,.38,1.31-.68,1.91-1.37,2.66-2.6,2.83-5.64,5.24-7.94,8.34-.87.87-1.1,2.49-2.81,2.34a7.72,7.72,0,0,0-2.5,2.49c-.44-.12-1.11.51-1.26,0C63.87,125.62,64.46,125.06,64.74,124.57Z" fill="#feb576"/>
        <path d="M64.74,155.46V154c2.33-1.23,4.54.06,6.69.53a64.53,64.53,0,0,0,22.6.55,73,73,0,0,0,12-2.74,3.56,3.56,0,0,1,2.19-.18,1,1,0,0,1,.66,1.05,1.18,1.18,0,0,1-.36.78c-9.47,3.37-19.25,4.36-29.26,4C74.29,157.85,69.55,156.56,64.74,155.46Z" fill="#feac56"/>
        <path d="M108.57,154c0-.16,0-.33,0-.49.54-1.06,1.59-1.36,2.58-1.8,2.72-1.2,5.91-2,7.86-4.1a35.34,35.34,0,0,1,5.94-4.73c.88-.64,1.85-1.17,3-.5.47,1.06-.22,1.62-.94,2.16-2.2.51-2.8,2.86-4.45,3.93a67.73,67.73,0,0,1-14,6.54C108.59,154.63,108.58,154.3,108.57,154Z" fill="#fe874d"/>
        <path d="M95.63,158.45a15.9,15.9,0,0,1-6.48,1A109,109,0,0,1,75,159c-.5-.07-1-.05-1.33-.51C81,159.07,88.32,158.57,95.63,158.45Z" fill="#fe9538"/>
        <path d="M64.24,156.46a27.58,27.58,0,0,1-11.46-5C56.86,152.54,60.42,154.79,64.24,156.46Z" fill="#fe983e"/>
        <path d="M108.58,156.46a14.42,14.42,0,0,1-7.47,1.49c2.31-1.37,5-1.43,7.47-2.49Z" fill="#fe9538"/>
        <path d="M100.11,158c-1.22,1-2.66.28-4,.49C97.35,157.46,98.79,158.17,100.11,158Z" fill="#fe9538"/>
        <path d="M108.57,152.47c-3.59.58-7,2-10.54,2.64-9.6,1.78-19.14,2-28.68-.33-1.51-.38-3.08-.55-4.61-.81l-.5-1a.73.73,0,0,1,.12-1.13c3.82.17,7.36,1.79,11.15,2.12a92.23,92.23,0,0,0,15.59,0,62.4,62.4,0,0,0,15.46-3.28,2.64,2.64,0,0,1,1.71-.09,1,1,0,0,1,.6.6A1.22,1.22,0,0,1,108.57,152.47Z" fill="#feb162"/>
        <path d="M64.24,152v1c-2.14-.06-3.28-2-5.27-2.64-6.13-2-11.07-6.31-16.7-9.33a1.71,1.71,0,0,1-1-2.43c2.35,1.71,4.3,4.11,7.47,4.43,1.33-.73,2.3.15,3.33.75,1.69,1,3.05,2.43,4.83,3.27a26.18,26.18,0,0,1,7.16,2.61A2.16,2.16,0,0,1,64.24,152Z" fill="#fead65"/>
        <path d="M56.76,147.49c-1.87-.35-2.92-2-4.46-2.89a11.61,11.61,0,0,0-3.51-1.6v-.49l1.5-1c2.65,2,6,2.71,8.47,5C58.23,147.1,57.35,147,56.76,147.49Z" fill="#feac6a"/>
        <path d="M16.4,106.13c-.35-.52-1-.82-1-1.6-.25-2.61-1.22-5.06-1.74-7.61a87.86,87.86,0,0,1-1.18-9.61,6.53,6.53,0,0,1,.46-4.1c.17-.32.34-.63.75-.67a.78.78,0,0,1,.55.37c.55,1.37-.1,3.16,1.44,4.19a1.56,1.56,0,0,1,0,.68c-.78,1.86-1.23,3.68.51,5.29a1.78,1.78,0,0,1,0,.69c-.25.62-.49,1.4-.13,1.9,1.64,2.24.85,4.92,1.45,7.33.1.53.49,1,.53,1.5a2.12,2.12,0,0,1-.35.9c-.35.37-.53,1-1.25.74Z" fill="#feb25d"/>
        <path d="M13.41,82.71l-.5.5c-1.71-1.38-.73-3.31-1-5,0-2.7-.55-5.47,1-8,0-.17,0-.33,0-.5a3.48,3.48,0,0,0,.38-.54c.5-.53.84-1.52,1.84-.67.46,2-.84,4.06,0,6.09a1.75,1.75,0,0,1-.33,1C13.11,77.73,13.43,80.26,13.41,82.71Z" fill="#fea651"/>
        <path d="M12.91,70.26c-.72,2.6.22,5.42-1,8-.33.33-.67.66-1,1v-.5c-.73-2.16.34-4.32,0-6.48a1,1,0,0,0,.5-1Z" fill="#fe9d3e"/>
        <path d="M28.86,118.09h-2c-1.57-1.32-2.15-3.27-3.09-5a1.88,1.88,0,0,1,.38-2.29c2.9-3,5.85-6,8.93-8.91a1.18,1.18,0,0,1,1.37-.29,7.8,7.8,0,0,1,1.23,3.78c-.91,2.35-3.3,3.38-4.5,5.21.26-.06.48-.87,1.16-.49.46.22.95.57.91,1.07-.23,2.59,1.1,4.69,2.08,6.9Z" fill="#febe6f"/>
        <path d="M45.3,102.65l-5,4.48a7.79,7.79,0,0,1-2.49-2.49,1.13,1.13,0,0,1,.34-1.34q3-3.27,6.3-6.29a1.1,1.1,0,0,1,1.33-.34h0a13.31,13.31,0,0,1,0,5.48Z" fill="#feb870"/>
        <path d="M43.31,110.62l-1,1.49L37,117c0-2.38-.65-4.42.37-6.42h1.5C40.32,109.8,41.82,109.48,43.31,110.62Z" fill="#feb46c"/>
        <path d="M45.8,96.67a73.14,73.14,0,0,0-8,8,34.64,34.64,0,0,0-5.48,5.48c-1,.37-1.38,1.61-3,1.95l6-6.44c2.65-3.8,6.21-6.73,9.54-9.88a.78.78,0,0,1,.92-.08Z" fill="#feb86a"/>
        <path d="M16.41,106.13l1-1c1.28,1,1.1,3,2.8,3.69A31.94,31.94,0,0,0,23,115.39c.48.83,1.2,1.67.37,2.7h0c-1.9-.19-2.22-2-2.7-3.2C19.44,111.87,17.84,109,16.41,106.13Z" fill="#feb55d"/>
        <path d="M34.34,101.65c-3.23,3.15-6.45,6.33-9.72,9.44-.9.87-.53,1.62-.05,2.4a21.51,21.51,0,0,1,2.3,4.6h-2a6.65,6.65,0,0,1-2.28-4,4,4,0,0,0-1-2.19c-.43-.75-.62-1.61-1.05-2.36s-.08-1.4.06-2.09a2.72,2.72,0,0,1,.56-1.11c.33-.41.65-.85.95-1.29A97.16,97.16,0,0,0,30,97.24c.78-.47,1.36-1.32,2.41-1.3,1.17.77.22,1.38-.22,1.9-.93,1.11-2,2.07-3,3.11-1.6,1.54-3.15,3.12-4.72,4.69a7.3,7.3,0,0,0-1.15,1.27,1.69,1.69,0,0,0,.36,2.24c.71.61,1.2-.13,1.64-.55q2.91-2.85,5.74-5.75c1.54-1.48,3-3,4.56-4.5.61-.58,1.11-1.5,2.23-1.19h.5C37.91,99.47,36.12,100.55,34.34,101.65Z" fill="#febc6a"/>
        <path d="M21.88,111.61c.14.63,1.26.24,1.16,1.29-.18,2,1.09,3.5,1.83,5.19H23.38c-.21-2.46-2.29-4.07-2.88-6.41a12.79,12.79,0,0,1-.61-3.05.47.47,0,0,1-.17-.53,1.42,1.42,0,0,1,.63-.65.51.51,0,0,1,.54.18c.88.5-.88,1,0,1.49C21.23,110,21.16,110.94,21.88,111.61Z" fill="#feb964"/>
        <path d="M93.13,11c0-.17,0-.34,0-.51,2.49.89,5.16.78,7.73,1.43a118.27,118.27,0,0,1,14.68,5.05c.17.33.34.67.5,1s.63.76.6,1.31a1.05,1.05,0,0,1-1,.5c-3.25-.91-6.22-2.57-9.44-3.6-4.17-1.35-8.46-2-12.72-3A1.48,1.48,0,0,1,93.13,11Z" fill="#fe6240"/>
        <path d="M116.56,18.94a1,1,0,0,1-.5-1,39.7,39.7,0,0,1,15.45,9.46,1.28,1.28,0,0,1-.62.37,3.4,3.4,0,0,1-2.07-.58,66.76,66.76,0,0,0-9.62-6.06A6.31,6.31,0,0,1,116.56,18.94Z" fill="#fe4d3b"/>
        <path d="M131,27.41h.5c2.26,1.05,4,2.81,5.74,4.47,1,.93,1.65,2.32,3.22,2.51l1.5,2v1.49c-2.35-.95-3.63-3.21-5.62-4.63-1.73-1.24-3-3.06-4.76-4.35C131.14,28.56,130.71,28.09,131,27.41Z" fill="#fe553a"/>
        <path d="M127,144.5c-.07-.87.72-1.3,1-2-.32-.93.4-1.35.95-1.82a69.5,69.5,0,0,0,15.86-18.91,3.72,3.72,0,0,1,2.12-2,1.27,1.27,0,0,1,1,.2c-.44,3-2.24,5.31-3.83,7.65A65.45,65.45,0,0,1,133.5,140c-1.81,1.54-3.62,3.1-5.44,4.64A.64.64,0,0,1,127,144.5Z" fill="#fe884b"/>
        <path d="M149.94,120.08h-.5a.86.86,0,0,1-1.09,0c-.59-1.34.26-2.41.73-3.51a72.26,72.26,0,0,0,5.12-15.28c.56-2,.66-4.19,1.25-6.23.53-.8-.08-2.38,1.62-2.37.8,1.15.45,2.46.52,3.71A74.71,74.71,0,0,1,151,118.7,5,5,0,0,1,149.94,120.08Z" fill="#fe7e49"/>
        <path d="M149.94,120.08c2.34-6.1,5-12.1,6.1-18.6.28-1.6.59-3.21.88-4.81,1.08,0,1,.83,1,1.53-.19,4-1.55,7.64-2.52,11.42h0c-.45.78-.58,1.69-1,2.49-1,2.37-2,4.74-3,7.13a1.13,1.13,0,0,1-1,.85Z" fill="#fe7b46"/>
        <path d="M148.44,120.08h1C145.89,127,141,133,135.69,138.56c-.61.64-1.14,1.46-2.19,1.46A88.24,88.24,0,0,0,148,120.09.3.3,0,0,1,148.44,120.08Z" fill="#fe7b46"/>
        <path d="M155.42,109.62c.52-2.62,1-5.26,1.59-7.85a13.85,13.85,0,0,0,.41-3.61c.26-8,.82-16-.49-24-.33-4.57-1.75-8.89-3.14-13.21.21-1.38.89-1.09,1.65-.46a.6.6,0,0,1,0,.74c3.67,9,4.6,18.35,4.48,27.91-1,2.31-.44,4.82-.94,7.22C158,100.89,157.44,105.43,155.42,109.62Z" fill="#fe5f40"/>
        <path d="M154.43,112.11a2.85,2.85,0,0,1,1-2.49A2.87,2.87,0,0,1,154.43,112.11Z" fill="#fe5f40"/>
        <path d="M93.13,11a3.36,3.36,0,0,0,.51,2,1.62,1.62,0,0,1-.77.49c-4.33-.27-8.68-.21-13-.25-1.94,0-3.88,1-5.83.07L73.69,13c.37-1,1.41-1.26,2-2C81.51,10.67,87.32,10.14,93.13,11Z" fill="#fe8147"/>
        <path d="M44.31,23.41c2.1-.49,3.66-2,5.48-3,1.54-.56,3-1.39,4.48-2A67.77,67.77,0,0,1,73.7,13h0c-.45,2.21-2.27,3.12-4.07,3.42-8.26,1.36-15.63,4.86-22.75,9-.86.51-1.74,1.08-2.71.18a2,2,0,0,1-.36-1.12A1.6,1.6,0,0,1,44.31,23.41Z" fill="#fe8147"/>
        <path d="M44.31,23.41v1a6.89,6.89,0,0,1-4,3h-2a26.42,26.42,0,0,1,6-4.48Z" fill="#fe8845"/>
        <path d="M54.27,18.44a8,8,0,0,1-4.48,2A8,8,0,0,1,54.27,18.44Z" fill="#fe7d31"/>
        <path d="M120,50.33c-5.82-.56-11.34.79-16.81,2.57-.48.21-.77-.06-1-.42C97.28,44.9,91.28,38.11,86,30.78c-.76-1.06-2.5-2-1-3.76a9.21,9.21,0,0,1,3.38-.32c3.64-.05,3.94-.33,4.05-3.86a6.21,6.21,0,0,1,.37-2.63c.66-.77,1-.18,1.27.33,4.12,8.23,10.8,14.6,16,22.07a23.88,23.88,0,0,0,3.2,3.93c.87-.84.64-1.78.65-2.62,0-3.89,0-7.78,0-11.67a8.42,8.42,0,0,1,.73-4.11c.45-.52.85-1.21,1.68-.53.68,1.39.4,2.88.45,4.34s0,2.92,0,4.38c0,3.4-.05,6.79,0,10.19,0,1-.28,2.28,1.27,2.58C118.88,49.3,119.92,49.08,120,50.33Z" fill="#fe9a74"/>
        <path d="M84.67,27.41c1.51,3.54,4.38,6.14,6.57,9.21,3.25,4.57,6.83,8.9,10.23,13.36a28.62,28.62,0,0,1,1.76,2.92l-7.08,3.42c-.92.27-1.12-.53-1.46-1C90.72,49.46,86.23,44,82,38.36c-.92-1.24-1.13-2.79-2-4-.69-1-1-3.52-3.28-1.5a.79.79,0,0,1-1.35-.49c0-1.86-.81-3.9.89-5.5C79.13,26.72,82,26,84.67,27.41Z" fill="#fe9d74"/>
        <path d="M116.06,36.37V31.89c1-.12.93.91,1.41,1.34,1.32,1.06,3,.07,4.38.82a99,99,0,0,0,6.84,9.35c.36.46.69,1.3,1.09,1.29,3.16-.12,2.44,2.52,3.25,4.18.92,1.91,2.63,3.38,3.37,5.44a2.07,2.07,0,0,1,0,1c-1,1.87-2.19,3.48-4.34,4.12-.3-.37-.45-.91-1-.15-.87,1.1-1.85,1.55-3,.17s-1.54-2.3.07-3.47a16.78,16.78,0,0,0,1.76-1.72c-.37.31-.68.7-1.05,1-.72.62-1.24,1.68-2.48,1.17A2.78,2.78,0,0,1,124.44,54c-.14-1.74-1.69-1.11-2.55-1.61-.52.57,0,1.82-1.28,1.88-.31-1.3.35-2.75-.57-4-.52-.74-1.31-.43-2-.52-.81-.89-.69-2-.7-3.06,0-2.81,0-5.62,0-8.43C117.38,37.3,117.28,36.5,116.06,36.37Z" fill="#fe9272"/>
        <path d="M92,58.79a21,21,0,0,1-4.28,3.1,6.21,6.21,0,0,1-3-.31c-2.12-2.2-3.43-5-5.62-7.21-.5-.5-.88-1.44-1.75-1.11-2.08.79-2.3-.62-2.37-2-.13-2.44-2-4.58-1.16-7.21.18-.58-.64-1.12-.88-1.72-1.81-4.55-6-7.27-8.55-11.25-.77-1.21-2.36-2.35-.86-4.08A8.93,8.93,0,0,1,68.3,27a1.94,1.94,0,0,1,1,1.3,6.75,6.75,0,0,0,1.58,2.5c2.52,2.32,5,4.61,5.16,8.39a1.76,1.76,0,0,0,1.15,1.53c1.88.62,2.93,2.13,4,3.6C84.67,49.23,89,53.55,92,58.79Z" fill="#fea175"/>
        <path d="M92,58.79c-2-.72-2.41-2.82-3.6-4.22-3.19-3.77-6.05-7.83-9.07-11.76-.35-.45-.78-1.07-1.25-1.16-3-.55-3.08-3-3.33-5.19A3.17,3.17,0,0,0,73,33.62c-2.2-1.36-4.11-3.28-4.28-6.21a7.27,7.27,0,0,1,7,0,5.22,5.22,0,0,1,0,3.85c-.17.4-.2,1.08.33,1.31s.93-.24,1-.75c.33-1.76.79-1.47,1.7-.27,2.61,3.46,4.27,7.5,7,10.89,3.64,4.46,6.89,9.24,10.31,13.88l-1,.55a3.13,3.13,0,0,0-2,1Z" fill="#fe9f74"/>
        <path d="M87.15,76a1.93,1.93,0,0,1-.11-.34c0-.05,0-.11.07-.17A3.09,3.09,0,0,1,88,73.26a7.24,7.24,0,0,1,5.64-2.62c4.4.17,6.89,4.15,5.46,8.7-.64,3-4.64,4.84-8,3.55a6.71,6.71,0,0,1-3.87-3.2c.24-.71-.31-1.31-.29-2S86.75,76.52,87.15,76Z" fill="#fecaa8"/>
        <path d="M83.32,114h.78a15.51,15.51,0,0,0,4.54-3.51l.42-.42c1-1.22,2.74-1.73,3.55-3.21l.33-.28c1.31-.76.9-2.28,1.48-3.36A44.77,44.77,0,0,1,105,93.46a3.74,3.74,0,0,1,2.22,1.12c.21,1.46-1.12,2-1.79,2.9-6.45,6.39-12.83,12.84-19.27,19.24a11.86,11.86,0,0,1-2.39,2.14A1.88,1.88,0,0,1,83,119c-1.56-.24-2.08-1.34-2.24-2.74a2.16,2.16,0,0,1,.17-.75C81.51,114.7,82,113.75,83.32,114Z" fill="#fe9e6b"/>
        <path d="M84.67,61.29c1,.17,2.2-.45,3,.6A126.44,126.44,0,0,0,76.1,72.71c-1.56-.53-1.07-1.9-1-2.92,0-2.58-.1-5.08-1.54-7.34A1.48,1.48,0,0,1,74.29,61a4.3,4.3,0,0,1,1.77-.38C78.93,60.77,81.9,59.83,84.67,61.29Z" fill="#fea471"/>
        <path d="M56.17,85.18c-1.76-1.15-2.82-3.05-4.7-4.13-1.7-1-.74-2.5-.19-3.82-.28-.51,0-.88.29-1.27a2.32,2.32,0,0,1,1.77-1c.9.7,2.12.54,3.06,1.15.45.4.2,1.12.7,1.55,1-.8,1.86-1.93,3.3-2.08a17.9,17.9,0,0,1,3.94-.05c.77.07,1.73,0,1.88,1.13-4,.5-5.47,4.1-8,6.42C57.51,83.78,56.85,84.49,56.17,85.18Z" fill="#feae69"/>
        <path d="M66.22,76.7c-2.1-1-4.32-.2-6.47-.46C59.59,74.57,61.11,74,61.93,73s1.69-1.73,2.53-2.59c1.3-1,2.05-2.73,3.94-3,2.07.73,2.81,2.65,3.72,4.35a22.42,22.42,0,0,0,1.71,3A39.79,39.79,0,0,1,66.22,76.7Z" fill="#feab71"/>
        <path d="M73.83,74.8a1.53,1.53,0,0,1-1.7-1.29,10,10,0,0,0-3.91-5.74,8.57,8.57,0,0,1,5.48-5.49c1.91,1.55,2.13,3.62,2,5.9-.06,1.5-.49,3.08.35,4.53C75.61,73.69,75.09,74.64,73.83,74.8Z" fill="#fea771"/>
        <path d="M116.06,71c.3-.69.6-1.38.89-2.07a8.75,8.75,0,0,0,.9-1.78c.43-.65.38-1.58,1.18-2a1.13,1.13,0,0,1,1.06.52c1,1.35,2,1.13,3,0a10.31,10.31,0,0,1,1-1c.62-.52,1.31-1.44,2.1-.87s-.13,1.43-.35,2.15a19.83,19.83,0,0,1-3.59,4.22c-2.88,2.81-5.67,5.72-8.58,8.5-.6.58-1.16,1.8-2.37.81a1.56,1.56,0,0,1,.31-1.3c.31-.72,1.08-1.14,1.25-2a22.69,22.69,0,0,0,1.57-2.53C115.13,72.8,115.51,71.85,116.06,71Z" fill="#fe9871"/>
        <path d="M96.11,96.46l0-.07c-.51-2.15,1.75-2.47,2.5-3.79l0,.05c1.63-1.1,2.5-3.13,4.55-3.73,1,.21,1.35,1,1.68,1.75-.18,1.75-1.72,2.5-2.73,3.61a47.22,47.22,0,0,1-3.83,3.79c-1.3,1.15-2,.74-2.18-.91C96.07,96.93,96.09,96.69,96.11,96.46Z" fill="#fe9d6a"/>
        <path d="M79.68,110.12l-2,1.49a.47.47,0,0,0-.5.5,3.15,3.15,0,0,1-1.49,1.5,4.27,4.27,0,0,1-1-3.49c1-1.92,3.42-2.71,4-5a1.06,1.06,0,0,1,1.47,0,8.06,8.06,0,0,0,1.14,3.43A2.12,2.12,0,0,1,79.68,110.12Z" fill="#feaf70"/>
        <path d="M99.12,79.34c.17-2.71.12-5.36-2.49-7.06-2.77-1.79-4.95-1.38-8.47,1.48a.88.88,0,0,1-.15-1A7.91,7.91,0,0,1,92.71,70c.71-.38,1.42,0,2.13,0a6.36,6.36,0,0,1,1.32.49,24,24,0,0,1,2,1.28A5.38,5.38,0,0,1,99.12,79.34Z" fill="#feab5b"/>
        <path d="M105.1,93.68l-10.45,9.46c-.16.25-.31.25-.48,0l0-1c.31-.31.55-.69.88-1,3.36-3.24,6.66-6.55,9.94-9.88.57-.57,1.07-1.27,2-1.16a1.1,1.1,0,0,1,.32.61A3.34,3.34,0,0,1,105.1,93.68Z" fill="#fe9c66"/>
        <path d="M79.68,110.12a3.14,3.14,0,0,1,1.62-1.55c.12.35.25.7.38,1.05-.31.36-.08.88-.36,1.25-2,2.33-4.27,4.32-6.35,6.54-1.66,1.13-2.39,3.46-4.75,3.67,1.18-2.83,4-4.25,5.77-6.52C77.19,113.05,79.14,112.17,79.68,110.12Z" fill="#feaf71"/>
        <path d="M103.12,89.2c-1.76.84-2.4,3.16-4.57,3.45a27.32,27.32,0,0,1,7-7,1,1,0,0,1,.29,1A5.44,5.44,0,0,1,103.12,89.2Z" fill="#fe713b"/>
        <path d="M105.58,86.7V85.62c.12-.14.24-.29.35-.44,1.07-.75,1.61-2,2.49-2.87a.88.88,0,0,1,1-.22c.88.77.73,1.71.49,2.68C108.45,87.32,107.88,87.58,105.58,86.7Z" fill="#fea168"/>
        <path d="M81.18,110.62a1,1,0,0,1,.5-1L83.32,114l-2.14,1.57a1.84,1.84,0,0,1-.61-1.15A5.39,5.39,0,0,1,81.18,110.62Z" fill="#fea270"/>
        <path d="M88.64,110.52c-.86,2-3.16,3.73-4.54,3.51C85.55,112.78,86.66,111.09,88.64,110.52Z" fill="#fe6d37"/>
        <path d="M75.23,103.61l-3.58-.48c.07-.48.19-1.17.78-1,2.06.75,4.31,0,6.33.94C77.66,103.81,76.35,103,75.23,103.61Z" fill="#fe8b41"/>
        <path d="M92.69,70.29c-1.51.8-3.19,1.31-4.48,2.51a.43.43,0,0,1-.6-.06,5.24,5.24,0,0,1,4-2.95C91.92,70.13,92.47,69.87,92.69,70.29Z" fill="#fe7929"/>
        <path d="M80.16,105.14H78.69l-2.49,2c.57-1.66,1-3.46,3.45-3Z" fill="#feaf71"/>
        <path d="M92.61,106.89c-.32,2-2,2.58-3.55,3.21A6,6,0,0,1,92.61,106.89Z" fill="#fe6c39"/>
        <path d="M98.58,92.6c0,1.78-2.43,2-2.5,3.79C94.9,93.79,97,93.35,98.58,92.6Z" fill="#fe7c42"/>
        <path d="M87.61,72.74l.6.06c0,.32,0,.64,0,1l-1,1.72A1.63,1.63,0,0,1,87.61,72.74Z" fill="#fe8a3e"/>
        <path d="M108.5,82.64c-.66,1-1.08,2.33-2.57,2.54a4.78,4.78,0,0,1,2.2-2.87A.43.43,0,0,1,108.5,82.64Z" fill="#fe7f3c"/>
        <path d="M120.08,59.3c-.25-1.38.48-2.63.53-4,.49-.06.7.26.86.64.25,1.2.36,2.38-.66,3.33A.62.62,0,0,1,120.08,59.3Z" fill="#fe6a43"/>
        <path d="M94.17,103.16a3.85,3.85,0,0,1,.48,0c-.5,1.19.3,3-1.71,3.47Z" fill="#fe7b40"/>
        <path d="M95.13,101.65a.89.89,0,0,1-.93.47c-.33-1.08.57-1.94.53-3a.72.72,0,0,1,1,0C96.23,100.16,95.52,100.86,95.13,101.65Z" fill="#fe7237"/>
        <path d="M118.65,64.8c-.28-1.19.45-2.07.95-3a.45.45,0,0,1,.65.13,2.58,2.58,0,0,1-.89,3A.74.74,0,0,1,118.65,64.8Z" fill="#fe744f"/>
        <path d="M112,78.2l-.46,1c-.3.52-.26,1.39-1.24,1.19l-.27-.2a3.34,3.34,0,0,1,1.47-2.54C111.85,77.71,111.89,78,112,78.2Z" fill="#fe7346"/>
        <path d="M92.69,70.29a1.2,1.2,0,0,1-1-.5,4.47,4.47,0,0,1,3.48,0,.28.28,0,0,1,.11.32c0,.1-.07.15-.11.15Z" fill="#fe731e"/>
        <path d="M114.62,73.76c-.28,1-.55,2-1.62,2.46l-.3,0c-.26-1.25,1-1.65,1.41-2.49A.29.29,0,0,1,114.62,73.76Z" fill="#fe5120"/>
        <path d="M57.81,89.65c-.7-.47-2-.15-2-1.53a7,7,0,0,1,3.07,1C58.64,89.57,58.07,89.31,57.81,89.65Z" fill="#fe974f"/>
        <path d="M121.05,55.81l-.44-.48v-1c.84-.62,0-1.88.93-2.47C122.33,53.27,123,54.69,121.05,55.81Z" fill="#fe835f"/>
        <path d="M114.62,73.76h-.51a4.61,4.61,0,0,1,2-2.75C115.84,72.05,115.66,73.13,114.62,73.76Z" fill="#fe5422"/>
        <path d="M75.23,103.61c1.08-.9,2.37-.23,3.53-.5.37,0,.85-.07.9.52Z" fill="#fe7928"/>
        <path d="M118.65,64.8h.25c.36.08.4.24.12.47l-1,2a.75.75,0,0,1-.43-.5C117.88,66.08,117.88,65.24,118.65,64.8Z" fill="#fe6e44"/>
        <path d="M95.58,99.15h-.85c.54-.86,0-2.29,1.38-2.7l0,.22A2.11,2.11,0,0,1,95.58,99.15Z" fill="#fe7035"/>
        <path d="M108.5,82.64l-.37-.33a3.75,3.75,0,0,1,1.94-2.09v0c.66,1.14-.18,1.55-1,2Z" fill="#fe6a1f"/>
        <path d="M120,61.78h-.43a4.36,4.36,0,0,1,.48-2.48h.46C121.28,60.31,121.18,61.15,120,61.78Z" fill="#fe633b"/>
        <path d="M112.7,76.24l.3,0c.12.87-.63,1.32-1,2l-.5-.52C111.35,76.73,112.48,76.85,112.7,76.24Z" fill="#fe5520"/>
        <path d="M117.64,66.79l.43.5A2.1,2.1,0,0,1,117,68.93,3.37,3.37,0,0,1,117.64,66.79Z" fill="#fe572b"/>
        <path d="M93.15,57.87c.42-.84.95-1.46,2-1A3.11,3.11,0,0,1,93.15,57.87Z" fill="#fe9d74"/>
        <path d="M66.18,92.17c-.76,0-1.42,0-1.45-1C65.46,91.14,66.24,91,66.18,92.17Z" fill="#fe9954"/>
        <path d="M98.2,71.79a3.15,3.15,0,0,1-2.09-1,.73.73,0,0,1,.49-.45C97.35,70.58,98,70.92,98.2,71.79Z" fill="#fe8b41"/>
        <path d="M57.81,89.65l1-.52a.91.91,0,0,1,.93.52C59.13,90.27,58.47,89.48,57.81,89.65Z" fill="#fe812a"/>
        <path d="M63.84,91.17H62.25c0-.31,0-.62,0-.93A1.6,1.6,0,0,1,63.84,91.17Z" fill="#fe7d28"/>
        <path d="M87.14,78.23c.62.45.69.94.07,1.46a2.06,2.06,0,0,1-.51-1.48C86.86,78,87,78,87.14,78.23Z" fill="#febd8b"/>
        <path d="M96.6,70.33l-.49.45a1.1,1.1,0,0,1-1-.5v-.47A2.08,2.08,0,0,1,96.6,70.33Z" fill="#fe7622"/>
        <path d="M87.14,78.23l-.44,0c0-.76-.91-1.73.45-2.22C87.15,76.74,87.15,77.48,87.14,78.23Z" fill="#fe9446"/>
        <path d="M45.8,86.7a4.06,4.06,0,0,1-1.59,3.88c-2,1.79-3.93,3.72-5.88,5.59-1.6.63-1.81-.5-1.88-1.59-.06-.87.2-1.76.1-2.65,0-1.12.78-1.78,1.44-2.51a49.9,49.9,0,0,0,4.54-4.77c.42-.56.86-1.25,1.78-.94C45.94,84.14,45.91,85.4,45.8,86.7Z" fill="#feb76f"/>
        <path d="M44.31,83.71c-2.12,1.87-3.58,4.4-6,6a6,6,0,0,1-1.8-3.64c2-3.39,5.18-5.73,7.93-8.44.89-.88,1.7-.5,1.88.76a5.47,5.47,0,0,1-.54,3.84A3.15,3.15,0,0,0,44.31,83.71Z" fill="#feba78"/>
        <path d="M45.8,82.21V78l-9,8.2c-.93,1.68-2,3.17-4,3.74a.88.88,0,0,1-.71-.71c.44-2,2.29-2.94,3.51-4.35.92-1.06,2-2,3-3,1.6-1.55,3.13-3.17,4.75-4.7.7-.67,1.41-1.48,2.58-.93,1.69,1.71,1.3,3.58.41,5.48Z" fill="#feb870"/>
        <path d="M46.3,81.72c-.31-1.83.8-3.92-1-5.48a.94.94,0,0,1,.75-.72,11,11,0,0,1,1.52,0c1.42.14,3-.41,4.21.68l-.5,1Z" fill="#feb46b"/>
        <path d="M34.34,101.65l4-4.49,7.47-7v5.55l-10.46,10A13.69,13.69,0,0,1,34.34,101.65Z" fill="#feb870"/>
        <path d="M36.83,91.68c.8.75.55,1.63.25,2.47-.43,1.23,0,1.86,1.25,2l-.5,1-6.48,6q-2.7.21-2.49-2.49c.79-1.79,3.15-2.34,3.49-4.48A6.09,6.09,0,0,1,36.83,91.68Z" fill="#febb6f"/>
        <path d="M45.8,102.15V96.67A6.48,6.48,0,0,1,45.8,102.15Z" fill="#feb86a"/>
        <path d="M74.7,110.12a5.7,5.7,0,0,1,1,3.49,7.79,7.79,0,0,1-2.49,2.49,5.58,5.58,0,0,0-1.5-3A10.91,10.91,0,0,1,74.7,110.12Z" fill="#feaf71"/>
        <path d="M43.31,110.62H38.83c2.14-2.26,4.29-4.51,6.64-7C46.25,106.74,46.19,109.14,43.31,110.62Z" fill="#feb970"/>
        <path d="M155.43,61.28c0-.16,0-.33,0-.49a12,12,0,0,1-4-9c1.75,1.21,1.64,3.54,3,5,.6,1.36,2.34,2.15,2,4Z" fill="#fe4a35"/>
        <path d="M151.43,51.82a39.36,39.36,0,0,0,4,9c-.5-.13-1-.79-1.49,0-1.32,0-1.48-1.15-1.84-2-1.25-2.95-2.33-5.91-4.71-8.32a9,9,0,0,1-2.49-5c-.17-1.24-1.34-2-2.08-3s-1.51-1.78-1.36-3.07a1.47,1.47,0,0,1,.52-1,16.43,16.43,0,0,1,4.76,6.86C147.56,47.84,149.79,49.67,151.43,51.82Z" fill="#fe5744"/>
        <path d="M142,38.36v1c-.08,0-.21.08-.24.05-4.07-4.17-8.87-7.55-12.83-11.84a.83.83,0,0,1,.11-.67l2,.5c2.33,2.16,4.59,4.4,7,6.45a36.46,36.46,0,0,1,3.95,4Z" fill="#fe5d45"/>
        <path d="M20.4,47.83c2.45-2.12,3.74-5.15,5.94-7.51,3.45-3.71,6.39-7.93,11-10.42.56-.52,1.11-1.07,2-.62.43,1.15-.45,1.68-1.15,2.17C32.09,35.7,27.78,41.5,23.73,47.53c-.64,1-1.17,2-1.83,2.93-.4.56-.85,1.37-1.76.58a2.07,2.07,0,0,1,.25-2.21Z" fill="#fe884a"/>
        <path d="M20.39,48.83v2.49c0,.12,0,.24,0,.36a87.86,87.86,0,0,0-4.85,11.49c-.38,1.25-.37,2.59-1,3.78-.26.48.88.38.54,1l-.18.3-1.5,1.5a3.33,3.33,0,0,1-.62-3.46A81.69,81.69,0,0,1,17.4,53.81C19,52.52,18.51,50,20.39,48.83Z" fill="#fe9e46"/>
        <path d="M17.4,53.81c-1.28,3.73-2.51,7.47-3.85,11.17a6.29,6.29,0,0,0-.14,4.78h-.49c-.15-.47-1.11,0-1-.83C12.92,63.58,14.34,58.4,17.4,53.81Z" fill="#fe9d3e"/>
        <path d="M40.32,27.41c1-1.41,2.69-1.95,4-3v1a.58.58,0,0,1,.17.6,10.06,10.06,0,0,1-1,1.37c-1,1.13-1.82,2.5-3.67,2.15-.38-.61.13-.84.49-1.13Z" fill="#fe8e55"/>
        <path d="M40.32,28.4l-.49,1a.33.33,0,0,1-.5,0l-2,.49C37.63,28,38.93,28.11,40.32,28.4Z" fill="#fe7149"/>
        <path d="M64.24,141.51h.49c1.28,2.07.74,4.27.46,6.45-1.64.88-3.15.28-4.94-2Z" fill="#feb572"/>
        <path d="M60.25,146l4.49,2.49a1.11,1.11,0,0,1,.17,1.41.46.46,0,0,1-.67.08l-7.48-2.49c-.18-2,1.41-.51,2-1Z" fill="#feb36e"/>
        <path d="M64.73,150v-1.49c0-2.33,0-4.65,0-7a3.15,3.15,0,0,1,1.5-1.49c2.2.7,3.17,2.44,3.81,4.47-.42,1.84-2.21,2.64-3.11,4.11-.43.7-.15,1,.58,1.19,6.84,1.65,13.73,2.6,20.79,1.75,1.65-.2,3.49-1.39,5.06.34a1.67,1.67,0,0,1-.72,1.48c-3.36,1.5-6.94,1.15-10.45,1a69.9,69.9,0,0,1-16-2.39C65,151.69,64,151.54,64.73,150Z" fill="#feba73"/>
        <path d="M73.7,132c-1.74-.52-2.39-2.16-3.42-3.41a1.42,1.42,0,0,1,.25-2.16c1-.91,1.79-1.93,2.68-2.9a2.41,2.41,0,0,1,1.9-1.78,2.4,2.4,0,0,0,1.32-.53c1.54-1.35,2.61-.76,3.43.84-.44,1.68-2.12,2.29-2.92,3.45.88-.56,1.39-1.83,2.65-2.19a2.29,2.29,0,0,1,1.73,1.15c.11,1.11-.77,1.64-1.35,2.35C77.94,128.67,76.36,131,73.7,132Z" fill="#feae6d"/>
        <path d="M73.7,132q3-2.73,6-5.48c2.38,1,2.18,3.36,2.84,5.28,0,1.1-.85,1.75-1.51,2.48-2,1.49-3.11,4-5.65,4.81A25.37,25.37,0,0,1,73.21,133Z" fill="#feb472"/>
        <path d="M73.21,133a13.48,13.48,0,0,1,2.49,6c-1.48,2.39-3.2,4.52-6,5.48-.79-1.79-2.23-3.06-3.49-4.48A56.13,56.13,0,0,1,73.21,133Z" fill="#feb773"/>
        <path d="M70.22,121.08l4.48-4c1.44.19,1.09,1.43,1.34,2.31-.42,1.84-1.8,2.83-3.33,3.67-.67.59-1.3,1.21-2,1.73s-1,1.76-2,1.32-1-1.56-.93-2.55C69,123.17,69.07,121.6,70.22,121.08Z" fill="#feae6d"/>
        <path d="M72.71,123.07l3-3.48c1.44-2.08,2.78-4.28,5.48-5v1.5a20.06,20.06,0,0,1-6,6l-2,1.49Z" fill="#fead72"/>
        <path d="M77.19,112.11c-.33-.17-.85-.43-.6-.77s.8-.14,1.1.27Z" fill="#feaf71"/>
        <path d="M147,120.09c-2.47,3.55-4.83,7.18-7.43,10.63A62,62,0,0,1,129,141.38a7.88,7.88,0,0,0-.93,1.13,12.43,12.43,0,0,0-7.73,5c-1.43,1.94-4,2.37-6.08,3.45-1.81.95-3.74,1.67-5.62,2.5,0-.34,0-.67,0-1s0-.66,0-1c.93-1.73,2.85-1.65,4.34-2.36,1.31-.61,3-.5,3.32-2.67.1-.81,1.44-1.33,2.31-1.76,3.2-1.58,6-3.81,9.19-5.45,2.69-1.37,4.6-4,6.58-6.34a29.93,29.93,0,0,1,3.43-3.6A10.87,10.87,0,0,0,141,125a5.14,5.14,0,0,1,.7-1.14,5.6,5.6,0,0,0,1.53-2.46,3.36,3.36,0,0,1,1.32-1.63,2.72,2.72,0,0,1,1.46-.21A1.44,1.44,0,0,1,147,120.09Z" fill="#fe925e"/>
        <path d="M64.73,150c0,.67,0,1.35.93,1.48,4.69.63,9.29,1.71,14,2.12A40.39,40.39,0,0,0,92.64,153a3.06,3.06,0,0,1,1.36-.59c4.87-.55,9.53-2.12,14.31-3.1a.81.81,0,0,1,.58.54,1.17,1.17,0,0,1-.32,1.15c-4.24.95-8.3,2.61-12.66,3.16-9.62,1.21-19.18,1.63-28.62-1.21-1-.3-2-.63-3.05-.94a1.62,1.62,0,0,1,0-2Z" fill="#feb66c"/>
        <path d="M108.57,151l0-1c.48-1,1.53-1.2,2.41-1.6a4.93,4.93,0,0,0,2.34-1.7c1-.3,2-.2,2.22.87s-.92,1.15-1.62,1.47a4.51,4.51,0,0,0-.87.46l-4.48,2Z" fill="#fe9b6b"/>
        <path d="M14.41,75.24l.5-.5a.49.49,0,0,1,.68.07c.85,1.44.09,3.25,1.08,4.66.1,1.1-.69,2-.65,3.12s-.09,2,1,2.59c.4,1-.17,1.62-.94,2.14a.61.61,0,0,1-.68-.12c-.77-.26-1.76-.2-1.53-1.56a17.88,17.88,0,0,0,0-2.93A11.48,11.48,0,0,1,14.41,75.24Z" fill="#feb565"/>
        <path d="M16.9,103.64c0-1.64-1-3.22-.1-5,.14-.25-1.48-2.06-1.54-3.58,0-.68,0-1.08.64-1.35,1.64,0,.76,2.19,2.09,2.5a4.19,4.19,0,0,1,.63.19.94.94,0,0,1,.47.47,1.61,1.61,0,0,1,0,.69c-1,1.68.19,3.49-.28,5.2A1.53,1.53,0,0,1,16.9,103.64Z" fill="#feb767"/>
        <path d="M14.41,75.24c-.48,2.47.15,5-.5,7.47h-.5C12.15,81.08,12.58,77.86,14.41,75.24Z" fill="#feaf5b"/>
        <path d="M15.91,93.18c-1.9-.58-2.17-3.51-.51-5.49.7.59.55,1.42.62,2.19,0,.58.09,1.13.89,1.06a1.16,1.16,0,0,1,.62.24,1.42,1.42,0,0,1-.32,1.63A1.16,1.16,0,0,1,15.91,93.18Z" fill="#feb767"/>
        <path d="M15.91,93.18l1-.5c1.8,1,1.59,2.43,1,4-.52.54-.74.29-1-.28-.44-.87-.21-2-1-2.71C15.9,93.51,15.9,93.34,15.91,93.18Z" fill="#feb96d"/>
        <path d="M19.89,108.13v.5c-.7.35-1.32.62-1.58-.53s-.6-2-.91-3l.5-.5.29.18A9.82,9.82,0,0,1,19.89,108.13Z" fill="#feb966"/>
        <path d="M16.9,91.19c-.53.83-1.17,1.46-1.45-.08a21.61,21.61,0,0,1,0-3.42c0-.16,0-.33,0-.49h.49C16.81,88.38,16.62,89.84,16.9,91.19Z" fill="#feb96d"/>
        <path d="M16.9,103.64l1.5-1a.75.75,0,0,1,.92-.17.85.85,0,0,1,.28.6,2.49,2.49,0,0,1-1.09,1.69.54.54,0,0,1-.61-.13h0Z" fill="#feb966"/>
        <path d="M15.41,74.74h-.5c-1.51-.9-.58-2.18-.49-3.31s.32-2.11.49-3.17h0c.65-.71.43-2.33,2.08-2,.71,1.1.09,2.19-.09,3.25a2.14,2.14,0,0,0,.65,2.37,1.29,1.29,0,0,1,.1.65,1.45,1.45,0,0,1-.31.57C16.71,73.65,16.36,74.56,15.41,74.74Z" fill="#feac5c"/>
        <path d="M36.83,91.68a23.81,23.81,0,0,0-4.48,4.49l-2,1.49a5.7,5.7,0,0,1-2.2-3,10.43,10.43,0,0,1,4.7-4.94l4-3.49c.36,1.22,1.69,2,1.5,3.49Z" fill="#febd79"/>
        <path d="M28.36,94.67c.68,1,1.84,1.65,2,3a85.65,85.65,0,0,1-8,8c-1.58-.35-1.46-2-2.18-2.95A19.11,19.11,0,0,1,28.36,94.67Z" fill="#fec079"/>
        <path d="M28.86,100.65a3.78,3.78,0,0,0,2.49,2.49c-1.94,2-3.85,4.09-5.85,6.06-.56.55-1.27,2-2.08,1s-2.1-2.22-.63-3.66C24.79,104.52,26.83,102.6,28.86,100.65Z" fill="#febe6f"/>
        <path d="M20.39,102.65c1.35.54,1.11,2.13,2,3a1.71,1.71,0,0,1-1,1c-1.95-.43-2.26-1.79-2-3.49v-.5A.67.67,0,0,1,20.39,102.65Z" fill="#febf75"/>
        <path d="M19.39,103.14c.53,1.24.8,2.63,2,3.49l-.5,1h-.5c-1.73-.29-1.63-1.8-2-3Z" fill="#febd6f"/>
        <path d="M21.88,111.61c-1.16-.49-1-1.53-1-2.49A5,5,0,0,1,21.88,111.61Z" fill="#feb966"/>
        <path d="M18.4,104.64c.88.85.64,2.45,2,3l-.5.5a5.44,5.44,0,0,1-2-3.49Z" fill="#febc6a"/>
        <path d="M93.13,13h.51c7.13.3,13.71,2.66,20.16,5.48l2.25,1a1.53,1.53,0,0,1,.41.65,1.85,1.85,0,0,1-.11,1.16,1.11,1.11,0,0,1-.6.51c-1.07.27-1.92-.33-2.81-.73A68.08,68.08,0,0,0,95,15.58,2.71,2.71,0,0,1,92.9,14.5,1.41,1.41,0,0,1,93.13,13Z" fill="#fe7957"/>
        <path d="M116.06,19.93c0-.16,0-.33,0-.49l.51-.5c4.27,2.47,8.85,4.46,12.45,8v.5a1.37,1.37,0,0,1-1.39.34c-3.51-2-6.76-4.43-10.39-6.25C116.6,21.18,116.48,20.44,116.06,19.93Z" fill="#fe5d4c"/>
        <path d="M147,120.09h-1c-.59-.77-.13-1.47.13-2.19a98.32,98.32,0,0,0,5.38-15c.73-1.75.06-4,1.82-5.36,1.47,1,1.2,2.69,1.63,4.09-1.32,6.44-4.09,12.37-6.47,18.44H147Z" fill="#fe9162"/>
        <path d="M156.92,92.68c-.95.58,0,1.9-1,2.49-1-1.06-.67-2.32-.54-3.54.93-8.86-.44-17.46-2.92-25.94a3.75,3.75,0,0,0-1.12-1.89,3.71,3.71,0,0,1-1.19-2.11c-.51-1.67-1-3.27-3-3.91-1-.33-1.5-1.53-1.89-2.52-1-2.57-3.8-4.47-2.74-7.85.2-.67-1-1.47-1.1-2.42a6.78,6.78,0,0,0-1.62-3.24c-3.47-5.07-8.68-8.14-13.3-11.89-.84-.68-2.17-1-2-2.53a1.67,1.67,0,0,1,1.37-.4,2.68,2.68,0,0,1,.67.24c3,1.74,5.2,4.58,8.27,6.26a18.35,18.35,0,0,1,6.95,7.22,18.33,18.33,0,0,0,1.32,2.09,10.78,10.78,0,0,1,2.38,5,10.22,10.22,0,0,0,3,5.61c2,1.93,3,4.29,4.09,6.68a9.16,9.16,0,0,0,1.26,1.83c2.51,5.69,3.29,11.75,3.87,17.85a48.53,48.53,0,0,1,.05,10.64A3.33,3.33,0,0,1,156.92,92.68Z" fill="#fe735b"/>
        <path d="M151.43,63.28c.84-.76.88,0,1.08.54A66,66,0,0,1,156,79.16c.73,5.36.31,10.67,0,16q-.49,3.24-1,6.47c-.47-1.33-1.68-2.39-1.48-4a3.45,3.45,0,0,1-.64-3,70.86,70.86,0,0,0-2.31-28.38,4.23,4.23,0,0,1-.14-1.23,3.18,3.18,0,0,1,.16-.86A1.59,1.59,0,0,1,151.43,63.28Z" fill="#fe8c66"/>
        <path d="M156.92,92.68c1.18-8,0-15.88-1.52-23.72a25,25,0,0,0-2.47-7.18c1-.75,1.17-.79,1.57.43a61.73,61.73,0,0,1,2.65,10.38c.06.39-.05.82.26,1.15,1,1.66.79,3.61.85,5.31.22,6.24.61,12.52-.53,18.74,0,.14-.2.25-.31.37,0-.55.08-1.14-.5-1.49Z" fill="#fe6f50"/>
        <path d="M157.41,73.74c-1-3.52-1.93-7.06-3-10.57-.19-.62.09-2.13-1.5-1.39-1.71-4.43-5.42-7.65-7.29-12-1.16-2.67-1.94-5.45-3.66-7.92-2.12-3.06-4.13-6.13-7.49-8-2.32-2.1-4.89-3.92-7.09-6.16l.12-.32H129c4.45,3.85,9.28,7.27,13,12,0,.58-.06,1.23.44,1.62,2.75,2.17,2.79,6.06,5.07,8.35,3.26,3.29,4.07,7.77,6.45,11.44.28.28.76.51.83.84C155.7,65.65,157.5,69.49,157.41,73.74Z" fill="#fe684e"/>
        <path d="M93.13,13v1.48a.5.5,0,0,1-.12.73c-2.82,1-5.71.3-8.56.32-5.28,0-10.54-.16-15.43,2.32-7.65,1.13-14.43,4.51-21.13,8.12-1,.55-1.91,1.32-3.17,1.23-.61-.26-.84-.64-.43-1.24v-.51c.89.52,1.53-.05,2.24-.48a71.47,71.47,0,0,1,15.32-7.28,41.73,41.73,0,0,1,7.42-1.76c1.88-.23,3.15-1.65,4.42-2.93a105.92,105.92,0,0,1,11.82-.53A44.89,44.89,0,0,1,93.13,13Z" fill="#fe8b53"/>
        <path d="M115.06,28.4c-.89,2.75-.41,5.59-.48,8.39-.07,3.07,0,6.14,0,9.21,0,.67,0,1.39-.83,1.61s-1-.4-1.39-.84q-5.86-7.67-11.71-15.34c-1.06-1.37-2.19-2.69-3.23-4.07a24.23,24.23,0,0,1-4.26-7.43,1.1,1.1,0,0,1-.35-.67,1,1,0,0,1,.48-1A43.57,43.57,0,0,1,107,22.84c2.1,1.13,4.39,2,6.2,3.59C113.91,27,114.73,27.49,115.06,28.4Z" fill="#fe9674"/>
        <path d="M93.14,19.43v.5c.08,9,.09,7.34-7.48,7.47H63.24a3.71,3.71,0,0,1-3.53.42c-1.22-.9-.23-1.6.29-2.21,1.08-1.26,2.32-2.37,3.47-3.57a5.49,5.49,0,0,1,2.68-1.72A88.7,88.7,0,0,1,83.59,18a51.56,51.56,0,0,1,8.41.59A1.65,1.65,0,0,1,93.14,19.43Z" fill="#fea575"/>
        <path d="M115.06,28.4a54.07,54.07,0,0,0-11.85-6.63c-3.29-1.27-6.71-2.23-10.07-3.33a.94.94,0,0,1-.22-.73.66.66,0,0,1,.55-.5A57.48,57.48,0,0,1,109.1,21.4c2.49,1,5.16,1.74,7.12,3.78a2.31,2.31,0,0,1,.32,1.15,1.43,1.43,0,0,1-.48,1.08A1.71,1.71,0,0,0,115.06,28.4Z" fill="#fe9271"/>
        <path d="M116.06,27.41v-1c.92-.21,1.49.54,2.25.8,1.93,1.36,3.76,2.85,5.62,4.32.82.65,2.24,1.58.47,2.84-2.61-.19-5.24-.11-7.84-.49-.07-.69.23-1.47-.5-2Z" fill="#fe896e"/>
        <path d="M116.06,36.37l2-1.42V49.81c-1.46.2-2-.35-2-1.9C116.12,44.07,116.06,40.22,116.06,36.37Z" fill="#fe8d71"/>
        <path d="M136,55.31c-.22-2.2-1.83-3.62-3-5.27-1-1.34-2.18-2.6-.48-4.57-2.05,1.37-2.86.32-3.84-1.12-1.68-2.45-3.6-4.73-5.45-7.05A4.2,4.2,0,0,1,122,34.38c4.25-1.67,7.06.87,9.58,3.58,2.9,3.12,5.94,6.18,8.14,9.9a5.5,5.5,0,0,1,1.13,2.7c-.45,2.07-2.31,3-3.57,4.44C136.92,55.28,136.51,55.57,136,55.31Z" fill="#fe9071"/>
        <path d="M120,61.78a4.08,4.08,0,0,0,.51-2.49c.69-1.08.47-2.3.51-3.48,1-1.23.28-2.66.49-4,.14-.69.39-1.28,1-.37.86,1.23,1.76,1.83,2.91.26,1,1.36-1.62,1.9-.23,3.23,1,1,1.77,1.8,3,.39a15.85,15.85,0,0,1,2.82-2.79c-.32,1.85-1.79,2.79-3,3.87-1.5,1.38,0,1.86.49,2.74.88,1.46,1.36.34,2-.17.47-.36.71-1.25,1.53-.85.12.06-.06.75-.11,1.16.33.84-.35,1.27-.75,1.81-1.22,1.22-2.41,2.46-3.66,3.64-.57.54-1.06,1.32-2.06,1l.63-1.81c-1.1.09-1.51,1-2.11,1.57-2.67,2.6-2.65,2.62-5-.27,0-.16-.07-.32-.12-.47A3.67,3.67,0,0,0,120,61.78Z" fill="#fe9672"/>
        <path d="M131,60.79l1-1.49a18.87,18.87,0,0,0,4-4l1-.5c2.39,1.17,2.77,2.39,1.43,4.69,1.66-.89,2.73-.57,3.4,1a19.57,19.57,0,0,1,.47,2.4,3.08,3.08,0,0,1,.08.75,2.54,2.54,0,0,1-.17.71c-1.56,1.78-3,3.74-5.21,4.76-1.29.1-1.88-.85-2.43-1.74-.91-1.45-1.76-1.26-2.94-.23-.74.65-1.26,2.34-2.82,1.18.07-1.62,1.54-2.24,2.36-3.33a1.68,1.68,0,0,0,.38-2.42C131.2,62.07,130.7,61.53,131,60.79Z" fill="#fe8c67"/>
        <path d="M140.47,50.82c-.43-2.11-1.87-3.67-3.11-5.28a69.17,69.17,0,0,0-9.63-10.25c-1.79-1.56-3.8-.6-5.69-.91s-3.74.57-5.48-.5H125c1.55-1.23,3.09-.27,4.64,0,3.17,2.55,5.67,5.73,8.3,8.79,1.13,1.31,2.08,2.77,3.14,4.15a3.57,3.57,0,0,1,.83,2.76,1.76,1.76,0,0,1-.2.72C141.42,50.74,141.06,51.06,140.47,50.82Z" fill="#fe8c6f"/>
        <path d="M59.26,27.41h4c1.75,3.82,3.83,7.39,7.69,9.49.52.28.82.6.75,1.12-.18,1.49,1,2.39,1.46,3.57s3.18,2.25.9,4.18a20.17,20.17,0,0,1,1.75,6.88.51.51,0,0,0,.94.23c1.35-1.8,1.71-.17,2.42.6a28.31,28.31,0,0,1,5.52,7.81h-9a21.07,21.07,0,0,1-2.76-5.38,2.06,2.06,0,0,1,.06-.7c.38-.69.39-1.09-.55-1.41-3.51-1.19-5-4.45-6.87-7.2-.82-1.19-.15-2.57.48-4.1-1.52.4-2.89,1-4-.29s-2.47-2.55-2.23-4.51c.32-2.64-2.06-2.86-3.46-4-.39-1.44-1.08.23-1.57-.14a1.7,1.7,0,0,1-1.14-.71c.16-1.83,1.88-2.5,2.81-3.76C57.36,28.5,57.82,27.14,59.26,27.41Z" fill="#fea375"/>
        <path d="M105.1,93.68l2-3a9.36,9.36,0,0,1,4.45-4.29,5.87,5.87,0,0,1,2.54,1.15,1,1,0,0,1,.16.67c-2.12,2.43-3.94,5.22-7.15,6.45A2.73,2.73,0,0,1,105.1,93.68Z" fill="#fe986a"/>
        <path d="M83.67,118.59q10.41-11,21.43-21.43a1.11,1.11,0,0,1,.26.63c-1.19,2.6-3.71,4-5.45,6.14-2.19,2.14-4.35,4.33-6.5,6.51-2.86,2.71-5.46,5.66-8.43,8.25a1.62,1.62,0,0,1-.68.2A1.09,1.09,0,0,1,83.67,118.59Z" fill="#fea373"/>
        <path d="M75.2,122.08a41.22,41.22,0,0,1,6-6c.27,1.15.48,2.34,2,2.49a3.85,3.85,0,0,1-3.49,3.49c-1.09-1-2.16-1.74-3.29,0A.66.66,0,0,1,75.2,122.08Z" fill="#feaa6b"/>
        <path d="M105.1,97.66v-.5l2-2.49,7-6.48a1.06,1.06,0,0,1,.27.62,3.36,3.36,0,0,1-1.07,1.75q-2.69,2.68-5.36,5.38C107,96.56,106.54,97.92,105.1,97.66Z" fill="#fe9d72"/>
        <path d="M79.68,122.08a14.28,14.28,0,0,0,3.49-3.49h1c-.59,2.48-2.55,3.72-4.49,5-1.55.84-2.34,2.63-4.19,3.13Z" fill="#feae74"/>
        <path d="M73.7,62.28a35.13,35.13,0,0,0-5.48,5.49l-3.48,3c-2.37.12-2.94-1.57-3.39-3.37,1.36-2.82,3.75-4.67,6.14-6.54a3.21,3.21,0,0,1,.8-.19c2,.05,4.06-.65,5.91.63Z" fill="#fea767"/>
        <path d="M74.2,61.29H67.73a8.54,8.54,0,0,1,5.48-5.47c.88,1.8,2.43,3.3,2.49,5.48Z" fill="#fea775"/>
        <path d="M61.75,67.27a4.78,4.78,0,0,0,3,3.49l-5,5.48L56.58,79c-.57-1-.2-1.87-.32-2.72a3.89,3.89,0,0,1-.59-3.07,3.18,3.18,0,0,1,.19-.75C57.62,70.48,58.93,68,61.75,67.27Z" fill="#feab66"/>
        <path d="M56.27,72.25c0,.17,0,.33,0,.5a3.89,3.89,0,0,1-3,2.49l-1.49,1h-5c-.25-1.44,1-1.93,1.72-2.77,1.84-2.27,4.6-3.75,5.72-6.65,1.49-.71,1.58.8,2.25,1.41A4,4,0,0,1,56.27,72.25Z" fill="#feb578"/>
        <path d="M53.27,75.24l3-2.49v3.49C55.23,76,53.82,76.91,53.27,75.24Z" fill="#feaf70"/>
        <path d="M109.11,82.23c.23-.7,1-1.13,1-2,.76.05,1-.69,1.51-1,1.12.47,1.32-.67,1.82-1.13,2.92-2.74,5.77-5.55,8.64-8.34,1.19.33,1.48,1.26,1.53,2.34a3.57,3.57,0,0,1-.1.73c-.53,1.62-2.11,2.22-3.21,3.3-2.39,2.35-4.74,4.75-7.14,7.11a5.28,5.28,0,0,1-2.54,1.84,1.17,1.17,0,0,1-1-.37C109.46,83.88,109.91,82.93,109.11,82.23Z" fill="#fe9469"/>
        <path d="M123,72.25c.21-1-.54-1.71-1-2.49l3.49-4,5.48-5c.32,1.48,3.55,2.63.5,4.48-2.47,1.28-3.82,3.76-5.9,5.46C124.83,71.36,124.35,72.52,123,72.25Z" fill="#fe8f67"/>
        <path d="M95.58,99.15l.51-2.47c.77.28.27,1.24,1.08,1.78l7.43-7.77a15.42,15.42,0,0,1,4-3.65.74.74,0,0,1,.74.61c-.31,1.23-1.32,1.85-2.24,2.54q-5,4.83-9.92,9.66c-.65.63-1.36,1.2-2,1.8Z" fill="#fea070"/>
        <path d="M108.58,87.2a9.48,9.48,0,0,1-4,3.49l-1.48-1.49a8.15,8.15,0,0,1,2.46-2.5c1.85.38,3.06-.53,4-2h1C110.76,86.21,109.62,86.67,108.58,87.2Z" fill="#fe996b"/>
        <path d="M107.09,90.19l2-2.49c1.56-2.61,4-4.42,6.08-6.51,2.68-2.68,5.06-5.69,8.37-7.69.88.27.63.87.43,1.46A102.67,102.67,0,0,1,111.57,86.7l-4.48,4Z" fill="#fe9565"/>
        <path d="M81.18,114.6l-5.48,5c-.63-.72-.21-1.85-1-2.5a49.52,49.52,0,0,1,6.48-6.47Z" fill="#feaa6d"/>
        <path d="M45.8,75.74l-.5.5-6.47,6a2.79,2.79,0,0,1-4-.58c-.54-1.07.25-1.7.84-2.34,1.07-1.15,2.21-2.23,3.3-3.35,2.21-1.78,3.65-4.45,6.42-5.6a11.21,11.21,0,0,1,3.78,1.2C49.28,73.93,47.24,74.59,45.8,75.74Z" fill="#feb678"/>
        <path d="M34.84,81.22c1.14,1.09,2.56,1.07,4,1l-6.48,7a5.57,5.57,0,0,1-3.19,3c-1.55.19-2.89,0-3.55-1.69a1.8,1.8,0,0,1,.53-1.58q3.56-3.81,7.36-7.36A1.13,1.13,0,0,1,34.84,81.22Z" fill="#feba79"/>
        <path d="M29.36,91.68l3-2.49.5.5-4.49,5a73.23,73.23,0,0,0-8,8h-2c.2-1.83-1.5-3.82.49-5.49a1.49,1.49,0,0,1,.69.69c.72,1.67,1.58,1.57,2.72.34,1.52-1.63,3.15-3.14,4.7-4.74A11,11,0,0,1,29.36,91.68Z" fill="#febd71"/>
        <path d="M45.8,75.74l3.49-4c1.26-1.94,2.5-3.9,5-4.48,1,1.06-.25,1.42-.69,1.9-2.22,2.39-4.52,4.72-6.78,7.07Z" fill="#feb470"/>
        <path d="M39.33,29.41h.5a6.35,6.35,0,0,0,3.48-2.49,1.82,1.82,0,0,1,.85,1.14c.11.6.08,1.24-.49,1.54-5.24,2.7-9,7.07-13,11.25-3.5,2.91-5.52,6.91-7.9,10.66-.59.94-.68,2.8-2.66,2a2.61,2.61,0,0,1,.24-2.21h0c1.81-1.63,2.56-4,3.91-5.9A87.47,87.47,0,0,1,35.74,32.24C36.84,31.18,38.69,31.06,39.33,29.41Z" fill="#fe9560"/>
        <path d="M20.39,51.33v2.48c0,.12,0,.23,0,.35-1.05,2.31-1.94,4.69-3,7-.66,1.47-1.06,3,.13,4.38a.75.75,0,0,1-.63.72l-2,2c-1.3-1.16-.74-2.71-.37-3.85C16.05,59.87,17.37,55.21,20.39,51.33Z" fill="#fea651"/>
        <path d="M43.81,27.9a1,1,0,0,1-.5-1,1.67,1.67,0,0,1,1-1,1,1,0,0,0,.5,1c.27.52,0,.84-.4,1.13A.51.51,0,0,1,43.81,27.9Z" fill="#fe9b60"/>
        <path d="M69.72,144.5l6-5.48a28.62,28.62,0,0,1,5-5c1.32-.73,1.8.42,2.35,1.14,2.91,3.82,5.94,7.56,8.75,11.46,1.83,2.55,1.57,3.22-1.56,4.36-7.57,1.8-14.91-.24-22.29-1.43-.77-.13-1.8-.3-1.2-1.58Z" fill="#febd7c"/>
        <path d="M66.73,148c.08.23.14.64.26.66,3.51.64,7,1.36,10.55,1.8,1.7.22,3.54-.19,5.14.56,2.8,1.31,5.26-1.23,8-.53,2.74-1.18,5.71-1,8.57-1.45a2.26,2.26,0,0,1,1.87.35c.06.15.14.4.07.45-2.45,1.57-5,2.59-8,2.14-1.34-1-2.74-.07-4,.11-6.8,1-13.44.28-20.06-1.21-.55-.12-1.11-.29-1.67-.38s-1.51.18-1.77-.54C65.32,149.05,66,148.42,66.73,148Z" fill="#febc78"/>
        <path d="M93.14,152a38.38,38.38,0,0,0,8-2.49c.44-.67,1.24-.77,2-1.3a21.94,21.94,0,0,1-3.55-.21c-.62-.19-1.77-.35-.57-1.38,1.83-.57,3.69-.27,5.54-.31,1.38,0,2.78-.24,4,.61a1.88,1.88,0,0,1,0,2.59A50,50,0,0,1,92.64,153Z" fill="#feb573"/>
        <path d="M82.18,132.05c-.92-1.8-1-4-2.5-5.49l1.5-2c1.37-2.63,3.82-4.23,5.86-6.23a3.26,3.26,0,0,1,.69-.22,1.87,1.87,0,0,1,1.38.31c.38,1.87-1.28,2.5-2.28,3.4s-2.07,2-3.07,2.89c1-.72,1.5-2,2.9-2.28a8.81,8.81,0,0,1,2.18,3.11c-.37,2-2.27,2.84-3.37,4.28C84.37,130.57,83.86,132.19,82.18,132.05Z" fill="#feb172"/>
        <path d="M87.16,118.59a43.89,43.89,0,0,1-6,6l-1.5-1,4.49-5h.5C85.5,118.1,86.33,117.81,87.16,118.59Z" fill="#feaa6c"/>
        <path d="M82.18,132.05c1-.84,2-1.67,3-2.5a1.13,1.13,0,0,1,1.72.32c4,5.14,8.36,10,11.5,15.75a2.92,2.92,0,0,1,.23,1.37c1.89,1.15,4,.07,6.14.68a4.54,4.54,0,0,1-3.65,1.81l-10.46,1c2-.73,2-1.82.78-3.4-3.16-4-6.23-8.12-9.32-12.2a1.76,1.76,0,0,0-1.43-.84Z" fill="#feba7b"/>
        <path d="M113.07,149.48a5.89,5.89,0,0,1,.59-.73c.47-.45,1.75-.13,1.5-1.13s-1.34-.54-2.09-.63a.4.4,0,0,1-.6-.13c1-1.73,3-2.32,4.59-3.13a39.63,39.63,0,0,0,6.85-4.34,3.88,3.88,0,0,1,2.9-1.17c1,.41,1.74-.21,2.32-.91,2.15-2.57,4.63-4.85,6.57-7.6,1.65-2.86,3.86-5.38,5.18-8.43a2.75,2.75,0,0,1,1.87-1.5,3,3,0,0,1,.73-.12,1.24,1.24,0,0,1,1,.43l-1,1.49a20.23,20.23,0,0,0-1.49,2.49l-.5,1c-1.3,1.39-2,3.27-3.49,4.48-2.77,3.38-5.45,6.94-8.95,9.51-2.71,2-5.82,3.55-8.74,5.32a3.68,3.68,0,0,1-.45.21c-1.73.91-1.71.92-2.57,3.07-.13.32-.61.53-1,.7C115.26,148.84,114.31,149.6,113.07,149.48Z" fill="#fe9968"/>
        <path d="M144.46,120.09h-1a12.46,12.46,0,0,1,1.47-5.62c1.69-3.15,2.43-6.59,3.47-9.95.68-1.15,0-3.12,2.12-3.39.85,1.15.47,2.35.17,3.56a65.29,65.29,0,0,1-3.39,10.85c-.37.84-.46,1.74-.85,2.56-.17.66-.33,1.33-.5,2Z" fill="#fe9f71"/>
        <path d="M138,129.55c1.06-1.57,1.72-3.46,3.49-4.48C140.64,126.82,140,128.73,138,129.55Z" fill="#fe9362"/>
        <path d="M142,124.07a2,2,0,0,1,1.49-2.49A2.36,2.36,0,0,1,142,124.07Z" fill="#fe9362"/>
        <path d="M112.57,147h.5c.6,1.27-.6,1.25-1.19,1.56-1.06.55-2.19,1-3.29,1.43,0-.16,0-.33,0-.5V147l.28-.28a2.38,2.38,0,0,1,.73-.27C110.63,146.37,111.7,146.17,112.57,147Z" fill="#fea171"/>
        <path d="M16.9,91.19c-1.7-1-.74-2.64-1-4,.28-.69,1.07-1.13,1-2a.6.6,0,0,1,.64.12c.78,1,.1,2.27.93,3.56,4-3.69,7.66-7.66,11.54-11.36A2.19,2.19,0,0,1,31.29,77a1.08,1.08,0,0,1,.64.27c-.1,1.89-1.89,2.54-2.81,3.83-2.93,2.88-5.81,5.82-8.74,8.71A4.71,4.71,0,0,1,18,91.46a1,1,0,0,1-.62-.27Z" fill="#febc70"/>
        <path d="M15.41,74.74l1.49-2A2.06,2.06,0,0,1,17.2,75a2.72,2.72,0,0,0,.91,3,1.75,1.75,0,0,1-1,1.81.64.64,0,0,1-.7-.11C14.69,78.34,15.66,76.42,15.41,74.74Z" fill="#feb76b"/>
        <path d="M16.4,79.72h.5a2.15,2.15,0,0,1,.49,2,3.71,3.71,0,0,0,.12,3.14c0,.1-.07.2-.11.31h-.5c-.72.32-1.48.65-1.48-.63C15.42,82.9,15.05,81.13,16.4,79.72Z" fill="#feb96f"/>
        <path d="M29.36,91.68c-2.59,2.68-5.2,5.34-7.77,8-.77.81-1.34.9-1.79-.26-.3-.76-.6-1.52-.91-2.29v-.49c1.9-2.61,3.78-5.26,7-6.48C26.57,91.77,28,91.76,29.36,91.68Z" fill="#febc78"/>
        <path d="M25.87,90.19l-7,6.48h-.5c-.28-.82.33-1.28.75-1.81C23,91,26.77,87.24,30.56,83.41c2.14-2.08,4.2-4.23,6.34-6.29.68-.67,1.25-1.6,2.43-1.47.14.14.19.27.14.4s-.1.19-.15.19l-4.48,5A93.76,93.76,0,0,0,25.87,90.19Z" fill="#feb96d"/>
        <path d="M19.39,95.17l-1,1.49h-.5c-.27-1.35-.25-2.77-1-4l.5-1.49h.5C19.55,92.08,20.21,93.35,19.39,95.17Z" fill="#febb73"/>
        <path d="M17.9,78.23c-1.2-.34-1.81-1-1.5-2.35.23-1,.34-2.08.5-3.13h.5c1.42,1.25.3,2.78.47,4,0-.75.68-1.23,1.2-1.81,5.24-5.17,10.4-10.41,15.62-15.6a10.58,10.58,0,0,1,2-1.8,1.85,1.85,0,0,1,1.06-.14,1.32,1.32,0,0,1,.62.35c.17,1.17-.75,1.73-1.4,2.4-1.93,2-3.91,3.92-5.85,5.89-4,3.92-7.91,8-12,11.89C18.8,78.21,18.41,78.5,17.9,78.23Z" fill="#feb970"/>
        <path d="M16.9,66.27l.49-.5a5.72,5.72,0,0,1,2.34-3.31c.41-.24.83-.49,1.3-.14.67,1.84-.84,3.28-.78,5,1-.33,1.43-2.76,3.27-1.22A25.2,25.2,0,0,1,19.73,71c-.72.52-1.16,1.57-2.33,1.25s-1.88-.73-1.22-2.24A16.2,16.2,0,0,0,16.9,66.27Z" fill="#feb168"/>
        <path d="M17.4,72.25l2-1.5c1.14,1.5.82,3,0,4.49a3.12,3.12,0,0,1-2,1.69V72.25Z" fill="#feba76"/>
        <path d="M93.14,15v-.52c3.65.91,7.38,1.39,11,2.53a76.28,76.28,0,0,1,10.72,4.28,3.87,3.87,0,0,0,1.2.18,1.42,1.42,0,0,1,.43.69,1.57,1.57,0,0,1-.45,1.49,2.15,2.15,0,0,1-2.14-.13,63.47,63.47,0,0,0-18.27-6.16A3.68,3.68,0,0,1,93,16.09,1,1,0,0,1,93.14,15Z" fill="#fe8663"/>
        <path d="M116.06,21.93c0-.17,0-.33,0-.5s0-.34,0-.5c3.49,1.26,6.46,3.41,9.49,5.48.34.23.67.49.47,1h-1.49a.79.79,0,0,1-.66.18c-2.23-1.23-4.36-2.63-6.53-3.95A3.84,3.84,0,0,1,116.06,21.93Z" fill="#fe6b5a"/>
        <path d="M126,27.4c-3-2.65-6.62-4.33-10-6.47v-1c3.7,2.68,8.08,4.3,11.46,7.47h0a.68.68,0,0,1-1,0Z" fill="#fe6454"/>
        <path d="M150.94,64.28c.69,4.53,2.3,8.87,2.73,13.44a83.86,83.86,0,0,1,0,15.28c-.14,1.56-.14,3.11-.24,4.66-1.12,1.66-.48,3.8-1.5,5.48-1-1.13-.61-2.44-.47-3.72a37.68,37.68,0,0,0,0-9.49c-.53-3.11-.29-6.28-.42-9.41a53.47,53.47,0,0,0-2.75-13.81c-.27-1.13.52-1.7,1.22-2.33C150,64.08,150.43,63.85,150.94,64.28Z" fill="#fe9673"/>
        <path d="M151.93,89.69c1.07,3.14.5,6.36.32,9.53-.08,1.29-.27,2.61-.32,3.92a58.6,58.6,0,0,1-5.48,15,3.18,3.18,0,0,1,.28-2.58c2.18-3.75,2.27-8.15,3.64-12.16a7.3,7.3,0,0,0,.07-2.2c-1.15-2.7.06-5.29.36-7.93C151.39,92.11,151,90.68,151.93,89.69Z" fill="#fe9b71"/>
        <path d="M124,27.41h.5c3.12,2.45,6,5.13,9.51,7.19,2,1.18,3.44,3.44,4.94,5.36,1.18,1.49,3.16,2.55,3,4.89a1.06,1.06,0,0,1-.64.27,3.78,3.78,0,0,1-2.26-1.83c-1.73-2.33-3.79-4.39-5.54-6.71a7.55,7.55,0,0,0-3.07-2c-3.35-1.26-5.56-4.12-8.44-6-.41-.27-1-.78-.25-1.38A2.76,2.76,0,0,1,124,27.41Z" fill="#fe7e63"/>
        <path d="M141.47,44.85h.5c.4,1.48,2,2.56.84,4.64-.4.71,1.2,2.69,2.1,3.94,1.19,1.68,1.4,4.22,4.24,4.58.56.07.85,1.84,1.37,2.77s.14,1.84.91,2.5l-.49.5c-1.59.15-1.29-1.35-1.87-2.09s-.34-2.54-2.15-2.09a2.41,2.41,0,0,1-.71,0c-1.9-1-2.92-2.9-4.62-4.08a11.11,11.11,0,0,1-.12-5.19v-.5a3,3,0,0,0-.13-2.74A2,2,0,0,1,141.47,44.85Z" fill="#fe7f64"/>
        <path d="M126.52,27.41h1c2.13,2.36,5.13,3.79,7,6.47C131.46,32.19,129,29.76,126.52,27.41Z" fill="#fe6b5a"/>
        <path d="M147,59.29c.68-1.22,1.21-1,1.8.11.76,1.45.82,3.24,2.19,4.38v.5a1,1,0,0,0-1,.49c-.82.53-1.28,0-1.46-.64C148,62.5,147,61,147,59.29Z" fill="#fe806b"/>
        <path d="M93.14,15v1a1.08,1.08,0,0,1,0,1.49v.5a7.14,7.14,0,0,1-3.18.22c-6.09-.18-12.17-.24-18.2.95-1.07.21-2.28.6-3.34-.22-.59-.63-.27-1.07.3-1.45,2.8-2,6-2.32,9.3-2.54C83.07,14.58,88.1,15,93.14,15Z" fill="#fe9e6c"/>
        <path d="M68.72,17.44l-.5,1a1.59,1.59,0,0,1-.55.51,76.3,76.3,0,0,0-16.84,6.43c-1.32.69-2.49,1.63-3.75,2.42-.83.51-1.64,1.18-2.74.76a.4.4,0,0,1,0-.65c.17-.34.34-.67.5-1a89.7,89.7,0,0,1,20.49-9.1A13.36,13.36,0,0,1,68.72,17.44Z" fill="#fe8f56"/>
        <path d="M67.73,18.44h.49c2.89.52,5.63-.58,8.45-.74,5.49-.3,11-.72,16.47.24v1.49a60.77,60.77,0,0,0-22.33.7,18.52,18.52,0,0,1-5.08.8.78.78,0,0,1-.25-.59C65.85,19.25,67.06,19.16,67.73,18.44Z" fill="#fea270"/>
        <path d="M59.26,27.41l-2.49,2c-2,.69-4.07,1.15-5.46,3-.31.41-.93.87-1.48.39A1,1,0,0,1,50,31.24c1.11-.93.44-1.41-.36-1.93.22-1.8,1.73-2.56,3-3.41A31.41,31.41,0,0,1,61.92,22a1.66,1.66,0,0,1,1.82.39Z" fill="#fe9b63"/>
        <path d="M63.74,22.43c-5.27,1.08-10.36,2.53-14,7a2.35,2.35,0,0,1-2.78.27c-.78-1.23.32-1.71,1-2.35,2.86-2.79,6.62-3.88,10.18-5.29,1.14-.45,2.3-.81,3.42-1.33,1.29-.6,2.69-1.44,4.15-.27v.5Z" fill="#fe985f"/>
        <path d="M93.14,17.44V16c2.54,1,5.28,1.23,7.9,1.91A56.59,56.59,0,0,1,114.39,23a6,6,0,0,0,1.66.38,1.19,1.19,0,0,1,.41.62,1.36,1.36,0,0,1-.4,1.37,68.27,68.27,0,0,0-22-7.59A4.19,4.19,0,0,1,93.14,17.44Z" fill="#fe8e6c"/>
        <path d="M116.06,25.41V23.92c2.23-.15,3.51,1.44,4.92,2.75a.64.64,0,0,1-.18,1,2.64,2.64,0,0,1-2.75-.3c-.93.2-1.43-.46-2-1Z" fill="#fe7c69"/>
        <path d="M118.05,27.41h3a.33.33,0,0,1,.5,0l9,7c-.17.21-.33.21-.5,0-1.69.07-3.28-.8-5-.5-.93-2.49-3.69-3-5.28-4.82C119.24,28.49,118.42,28.18,118.05,27.41Z" fill="#fe846b"/>
        <path d="M141.47,50.33c.92,1.75.33,3.65.5,5.48a8.23,8.23,0,0,1,0,7.47,1.39,1.39,0,0,1-.5-1.32c.05-2.23-1.14-2.9-3.48-2.46,1.67-2.15,0-3.33-1-4.69l3.48-4Z" fill="#fe8966"/>
        <path d="M123.53,74.74c0-.33.56-.66,0-1a.5.5,0,0,1-.17-.4c0-.15,0-.22.06-.22,1.75-1.75,2.94-4.15,5.59-4.86,1.36.28,1.72-1,2.36-1.67,1.41-1.48,2.44-1.8,3.56.28.43.8.77,1.93,2.06,1.89-.23,2.39-2.58,3.13-3.71,4.81-2,1.61-3.29,4.06-5.85,5a1.58,1.58,0,0,1-1.59-1.27c-.1-1.55,1.39-1.9,2.16-2.78,1.12-1.29,2.41-2.43,3.43-3.48-1.68,1.33-2.93,3.51-5.15,4.63A3.28,3.28,0,0,1,123.53,74.74Z" fill="#fe8f67"/>
        <path d="M133,73.24l4-4.48,5-4.48c1.4,2.38.42,5,.75,7.49a1.94,1.94,0,0,1-.8,1.72c-1.31,1.13-2.47,2.42-3.74,3.61-.64.59-1.18,1.44-2.27,1.21C135,76.62,133.35,75.29,133,73.24Z" fill="#fe9473"/>
        <path d="M142.47,72.25c-1.06-2.6-.23-5.32-.5-8v-.5c.77-1.22,1.4-2.6,3.12-2.77,1.86,1.2,2.55,3.1,3.09,5.09,0,1.66-1.51,2.29-2.35,3.37C144.68,70.36,144,71.77,142.47,72.25Z" fill="#fe8c73"/>
        <path d="M145,61.29l-3,2.49v-8c1.32-.14,2,.64,2.61,1.69a4.63,4.63,0,0,0,1.87,1.8C146.71,60.52,145.8,60.88,145,61.29Z" fill="#fe8266"/>
        <path d="M129,68.26l-5.48,5c-.3,0-.35-.32-.5-.5v-.5c2.19-2.1,4.34-4.22,6.57-6.28.48-.44.83-1.69,1.91-.7Z" fill="#fe926e"/>
        <path d="M130,34.38h.5c2-.3,2.84,1.17,4,2.37,2.42,2.64,4.27,5.75,7,8.1,0,1.66,1.26,3.32,0,5a4.11,4.11,0,0,0-.89-2.71C137.54,42.46,133.34,38.79,130,34.38Z" fill="#fe876b"/>
        <path d="M56.27,33.38a7.22,7.22,0,0,1,3.49,1.77c.56.51,1.2,1.07.85,1.91-1,2.47.85,3.72,2.2,5s2.67-.59,4.41-.55c-1.56,2.59-2,4.84.44,7.1,1.88,1.72,2.74,4.34,5.88,4.84,1.94.31.25,1.26-.33,1.83a2.68,2.68,0,0,0-3.77.43,4.29,4.29,0,0,1-3.72,1.58,2.25,2.25,0,0,0-1.64.46c-2,1.61-3.48.72-4.86-.89-.7-.82-1.33-1.69-2-2.55a2.09,2.09,0,0,1,.18-3.09c.51-.49.87-1.11.2-1.71-2-1.81-1.74-4.32-2-6.64-.14-1.39.11-2.81-.35-4.18-.26-1.26-.16-2.56-.4-3.82C55,34,55.15,33.3,56.27,33.38Z" fill="#fea775"/>
        <path d="M55.77,38.87c1.1,2.55.1,5.35.95,8,.25.79.19,1.63,1.1,2,2.07.88,1.23,1.89.1,2.87-.36.31-.89.41-.85,1.06.06,1,3.85,5.36,4.81,5.45.67.07,1-.41,1.47-.78a2.75,2.75,0,0,1,2.9-.76c1.59.51,2.26-1,3.2-1.88,1.73-1.52,2.71-1.41,3.76.5v.5a35,35,0,0,0-5.48,5.47h-.5c-1.35.9-2.87.73-4.37.74-1.17-.1-2.35,0-3.53,0a11.64,11.64,0,0,1-3.11-.29,1.6,1.6,0,0,1-.72-.54c-.86-2.33-.34-4.74-.43-7.12,0-.44,0-.88,0-1.31.17-3.85-.2-7.69,0-11.53A6.73,6.73,0,0,1,55.17,40,1.66,1.66,0,0,1,55.77,38.87Z" fill="#fea975"/>
        <path d="M46.8,29.4h3c.69.1,1.44-.23,2.22.33l-2.18,2.55C52,31,53.68,28.52,56.77,29.4l-3,3.49c-2.55,3.27-5.1,6.56-8.91,8.52-1-1-.65-2.51-1.14-3.71a40.48,40.48,0,0,1-.11-4.12c0-.69,0-1.38,0-2.07a5,5,0,0,1,.25-1.67,2.43,2.43,0,0,1,.51-.68A2,2,0,0,1,46.8,29.4Z" fill="#fea463"/>
        <path d="M56.27,33.38a1.5,1.5,0,0,0-1,1.5A69.74,69.74,0,0,1,44.6,45.73c-2.28,1.77-3.85,4.28-6.22,6a1.39,1.39,0,0,1-1-.23c-.32-.5-.07-.91.18-1.33,2.1-2.26,4.37-4.37,6.5-6.6,2.89-2.83,5.71-5.72,8.59-8.56.64-.62,1.18-1.41,2.15-1.58C55.27,33.55,55.77,31.85,56.27,33.38Z" fill="#fea56c"/>
        <path d="M54.77,33.39A127.46,127.46,0,0,1,44.31,43.85a1.54,1.54,0,0,1-.31-1.8c.25-.58.88-.45,1.3-.7a85.62,85.62,0,0,1,8.47-8.46A1,1,0,0,1,54.77,33.39Z" fill="#fea775"/>
        <path d="M123.53,74.74l3,.5c.24.48-.1.76-.35,1.08-3.2,3.94-7,7.27-10.57,10.87-.39.4-.87.82-1.53.51-1,.2-1.71-.55-2.5-1C115.18,82.33,119.75,78.93,123.53,74.74Z" fill="#fe9569"/>
        <path d="M114.07,87.7q6.53-5.92,12.45-12.46l5.88-5.44.32.33-6.7,7.1c-.83,2-2.67,3.12-4.07,4.62-1.81,1.94-3.71,3.8-5.63,5.64-.62.59-1.13,1.51-2.25,1.2v-.5C114.07,88,114.07,87.86,114.07,87.7Z" fill="#fe9770"/>
        <path d="M105.1,97.66l2.49-2a1.83,1.83,0,0,1,1.2,1.59c-1,2.5-3.35,3.74-4.92,5.71-.9.78-1.59,1.87-2.91,2.06-.82-.11-1.52-.32-1.35-1.39Z" fill="#fe9e6b"/>
        <path d="M87.16,118.59H84.67a82.59,82.59,0,0,1,8.47-8.47,2.35,2.35,0,0,1,.53,2.18c-1.29,2.77-3.56,4.62-6,6.29Z" fill="#fe9e6c"/>
        <path d="M93.14,112.61v-2.49a48.91,48.91,0,0,1,6.47-6.48,1.51,1.51,0,0,0,1.5,1c.28.66-.13,1.12-.51,1.53q-2.88,3-5.93,5.93C94.26,112.49,93.8,112.9,93.14,112.61Z" fill="#fea26b"/>
        <path d="M114.07,88.69Q119,83.86,124,79c.65-.62,1.35-1.19,2-1.79.52.31.72,1.08,1.5,1,.32.85-.36,1.28-.76,1.83q-5.19,5.18-10.35,10.36a3.27,3.27,0,0,1-1.81,1.06,1.6,1.6,0,0,1-1.53-1.29Z" fill="#fe9569"/>
        <path d="M113.07,90.19l1.49,1c-.65,2.79-3.12,4-5,5.66a1.81,1.81,0,0,1-1,.32l-1-1.49A34.64,34.64,0,0,1,113.07,90.19Z" fill="#fe996b"/>
        <path d="M62.74,61.29h4.49q-2.74,3-5.48,6l-5.48,5c-.23-1.32.5-2.76-.5-4a6.11,6.11,0,0,1-.41-3c1.38-1.24,1.13.49,1.7,1C59.09,64.76,60.42,62.43,62.74,61.29Z" fill="#feae69"/>
        <path d="M55.77,64.78v3.48c-.77.07-.12-2-1.5-1l-5,4.48c-1.49.31-2.62-.81-4-1-.18-1.62,1.16-2.31,2.09-3.09,2.26-1.93,4.29-4.1,6.13-5.86C51.69,63,50.64,65.71,48,66.52c-1.61-.67-1.85-2-1.67-3.51,2.58-3.66,5.39-7.09,9.48-9.2v7.48A2.66,2.66,0,0,1,55.77,64.78Z" fill="#feb278"/>
        <path d="M123,72.75l.5.5v.49q-6,5.91-12.06,11.81c-.77.75-1.59,1.43-2.39,2.15l-.5-.5,2-2.49Z" fill="#fe986f"/>
        <path d="M48.29,66.27l6.6-6.2.34.33L45.3,70.76l-6,5.48v-.5c-.26-.51,0-.89.29-1.29C42.51,71.73,44.91,68.48,48.29,66.27Z" fill="#feb26c"/>
        <path d="M44.31,29.4v.5c-1.62,2.13-3.88,3.58-5.87,5.28A67.86,67.86,0,0,0,28.17,46.54c-2.05,2.82-3.21,6.18-5.41,8.91-.41.51-.66,1.16-1.29,1.48a.9.9,0,0,1-.7-.1,1.54,1.54,0,0,1-.3-1A74.53,74.53,0,0,1,27.15,44.4a47.37,47.37,0,0,1,3.21-4,74.85,74.85,0,0,1,11-10.31c.84-.64,2.81-.15,2.49-2.15h.49c0,.16,0,.33,0,.49A.68.68,0,0,1,44.31,29.4Z" fill="#fe9d6b"/>
        <path d="M30.36,40.36c-1.24,3-3.94,5-5.32,7.94-1.21,2.59-2.75,5-4.15,7.5a.48.48,0,0,1-.7-.1,1.68,1.68,0,0,1,.2-1.89h0c2.29-2.28,3.28-5.4,5.2-7.92C27.06,44,28.26,41.77,30.36,40.36Z" fill="#fe9c62"/>
        <path d="M20.39,53.81v2c.11,1.59-1,2.77-1.45,4.15a6.47,6.47,0,0,0-.58,2.64c.44.44,1.2-1.27,1.53.19l-2.49,3c-1.64-.21-1.54-1.74-1.28-2.49C17.28,60,18.11,56.58,20.39,53.81Z" fill="#feac5c"/>
        <path d="M98.62,147a1,1,0,0,1-.5-1c-1-2.7-.82-5.51-.81-8.31,0-5,.12-9.91.13-14.87,0-2.92.54-3.47,3.5-3.5a41.81,41.81,0,0,1,7.91.21,2.46,2.46,0,0,1,.86.46,5.27,5.27,0,0,1,.63,3.32c0,3.53.14,7.06-.09,10.58-.31,2.22-1.63,3.22-3.84,3.39-1.47.11-2.92.42-4.41.44-1.76,0-2,.82-1,2.16s2,2.59,2.89,4c.58.93,1.48,1.86.73,3.13Z" fill="#feb170"/>
        <path d="M104.6,147c-.58-2.89-3-4.66-4.35-7-.42-.7-1.22-1.35-.88-2.18.43-1.05,1.55-.81,2.41-.72,2,.2,3.88-.61,5.86-.56,1.26,0,1.47-1.12,1.94-2,1.17-.13,1.61.48,1.58,1.56-.4.48-1,.79-1.27,1.38-.94,1.86-.48,3.85-.59,5.78-.08,1.28.24,2.63-.71,3.74h-4Z" fill="#feaf70"/>
        <path d="M109.08,120.08c-2.89,0-5.78.12-8.66,0-1.92-.1-2.35.64-2.34,2.43.09,7.84,0,15.68,0,23.51-3.38-5.55-7.67-10.43-11.47-15.67a1.78,1.78,0,0,0-1.48-.77l3.48-4a1.16,1.16,0,0,1,.69-.36c2.56.39,3.2,2.87,4.74,4.36.67.64.88,2.14,2,1.76s.79-1.68.81-2.63c.07-2.47-.07-4.94.07-7.41s.88-3.37,3.52-3.9a36.78,36.78,0,0,1,6.21.08C108.12,117.66,109.66,118,109.08,120.08Z" fill="#feb97c"/>
        <path d="M89.15,125.57h-.5a5.09,5.09,0,0,1-2-3c.35-2,2.4-2.64,3.32-4.18a2.56,2.56,0,0,1,.63-.29c1.35-.13,1.89-1,2.15-2.23.3-.57.68-1,1.4-.89,1,1,1.24,2.31,1.68,3.54C94.44,121.66,91.78,123.6,89.15,125.57Z" fill="#fead73"/>
        <path d="M93.14,112.61a73.14,73.14,0,0,0,8-8l2.49-2c.57-.21.9.09,1.15.55a1.85,1.85,0,0,1-.69,1.52c-3.24,3.28-6.39,6.68-9.84,9.73-1.54,1.36-2.55,3.26-4.46,4.21a.45.45,0,0,1-.61-.06H87.66Z" fill="#fea673"/>
        <path d="M89.15,118.59h.5c.17-.21.33-.2.5,0l-3.49,4L82.82,126l-.32-.31Z" fill="#feb177"/>
        <path d="M112.57,147h-3.49c-.15-1.22.9-1.58,1.63-1.88a66.33,66.33,0,0,0,14.62-8.88,1.89,1.89,0,0,1,.71.06,2.54,2.54,0,0,1,1.22,1.26,1,1,0,0,1-.24,1,4.07,4.07,0,0,0-2.4,1.14C121.07,142.87,116.49,144.39,112.57,147Z" fill="#fe9b6b"/>
        <path d="M143,120.09a4.53,4.53,0,0,0-1.86,2.07,42.81,42.81,0,0,1-5.12,7.89c-.53.24-.93.94-1.65.44-.74-1.72.93-2.72,1.22-4.13.46-1.14,1-2.26,1.38-3.43a4.09,4.09,0,0,1,3.86-3.23,3.72,3.72,0,0,1,1.15-.11A1.45,1.45,0,0,1,143,120.09Z" fill="#fe9e6c"/>
        <path d="M143,120.09h-1a1.81,1.81,0,0,1-.14-2.06c.91-2.26,1.44-4.68,2.62-6.84.85-1.3,1.26-2.82,2.07-4.14.75-.73.9-1.88,1.79-2.51a.61.61,0,0,1,.63.11c-1,5.45-3.57,10.32-5.48,15.44Z" fill="#fea377"/>
        <path d="M134.49,130.55l1.5-.5a60.3,60.3,0,0,1-7.68,8.9c-.63.64-1.16.61-1.29-.43v-1c1.82-2.1,3.87-4,5.61-6.14C133.05,130.86,133.6,130.22,134.49,130.55Z" fill="#fea069"/>
        <path d="M148.94,104.64h-.49c-.73-1.45-.2-2.94,0-4.37.71-5.2-1.57-9-5.59-11.84-2-1.45-2.06-3.41-2.22-5.46,1.22-3.16.23-6.51.84-9.72l1-1a10.77,10.77,0,0,1,3-3,12.5,12.5,0,0,1,5.07,8.28,59,59,0,0,1,.91,15.64c-.34,2.66-.67,5.31-1,8C149.23,102,149.66,103.57,148.94,104.64Z" fill="#fe9e7a"/>
        <path d="M126,136.53c-3.25,2.11-6.24,4.6-9.65,6.53-2.41,1.35-5.29,1.83-7.29,3.93h-.49c0-2.36,0-4.72,0-7.07a4.7,4.7,0,0,1,1-3.39c3.54-1.16,7.19-.55,10.79-.7a35,35,0,0,0,4-.15C125.05,135.57,125.86,135.45,126,136.53Z" fill="#fe9e6f"/>
        <path d="M30.36,77.73c-3.76,3.84-7.5,7.67-11.27,11.5-.31.32-.63.87-1.21.53s-.47-.83-.48-1.33V85.21h0c3.08-3.88,6.32-7.59,10.55-10.29C29.42,75.28,30.47,76,30.36,77.73Z" fill="#febe7b"/>
        <path d="M19.39,95.17a6.87,6.87,0,0,0-1.49-4c3-2.89,5.94-5.79,8.92-8.67.65-.63,1.36-1.2,2-1.8,1.22.62,1.61,1.81,2,3A147.52,147.52,0,0,1,19.39,95.17Z" fill="#febc78"/>
        <path d="M30.36,77.73a5.09,5.09,0,0,0-2.5-2.49c-.27-.52,0-.9.29-1.3,2.74-2.86,5.58-5.63,8.39-8.43.63-.63,1.19-1.4,2.23-1.41a5.73,5.73,0,0,1,2.73,2.7,1,1,0,0,1-.14.71c-3.13,3.46-6.19,7-10,9.72Z" fill="#feba7a"/>
        <path d="M30.85,83.71c-1.21-.63-1.34-2-2-3l3-3.49c2.39-2.47,4.38-5.37,7.52-7a16.56,16.56,0,0,0,.45,4.55l-.5,1Z" fill="#feb878"/>
        <path d="M39.32,70.26l-7.47,7h-.5l10-10.46c.46-1.15,1.11-2.07,2.52-2.07a1.13,1.13,0,0,1,.25.64A11.33,11.33,0,0,1,39.32,70.26Z" fill="#feb86e"/>
        <path d="M17.9,78.23l1-.5c1.34,1.66.18,3.45.25,5.17-.48.73-.92,1.79-1.95,1.4s-.6-1.32-.29-2.08v-2.5Z" fill="#febd76"/>
        <path d="M16.9,82.22c.11.59-.33,1.48.43,1.71s1.18-.62,1.56-1.22c-.11-.23-.16-.54,0-.69,3-2.62,5.36-5.92,8.81-8a1,1,0,0,1,.65.26l-.5,1-10.46,10C16.48,84.34,15.83,83.42,16.9,82.22Z" fill="#febc6f"/>
        <path d="M19.39,75.24V70.75c1.26-1.55,2.19-3.4,4-4.48a46.13,46.13,0,0,1,8.71-8.89,2.9,2.9,0,0,1,.77-.19c1.36,0,2.78-.43,4,.61Q28.42,66.83,19.39,75.24Z" fill="#feb979"/>
        <path d="M27.86,74.24l-9,8.47c-.69-1.66.37-3.32,0-5a164.57,164.57,0,0,1,12-12c1.64-.47,2.68.24,3.36,1.68C32.74,70.32,30.11,72.1,27.86,74.24Z" fill="#febc7b"/>
        <path d="M33.84,67.76c-.51-1.39-1.86-1.53-3-2l7.48-8a1.38,1.38,0,0,1,.6-.44c2.8.16,4.65-1,5.41-3.78a2.62,2.62,0,0,1,3,.19c.61,1.19-.3,1.85-1,2.54-1.35,1.45-2.78,2.82-4.17,4.23-2.2,2.3-4.76,4.22-6.95,6.54C34.89,67.45,34.57,68.07,33.84,67.76Z" fill="#feb77a"/>
        <path d="M36.83,57.8H32.35c.22-2.25,2.18-3.07,3.59-4.34a3.27,3.27,0,0,1,.74-.21,9,9,0,0,1,3.86.23c1,.9.05,1.48-.4,2.08a17,17,0,0,1-2.31,2.25Z" fill="#feab7a"/>
        <path d="M37.83,57.8c.27-1.87,2.28-2.44,3-4s1.64-2.85,3.53-3.07a1.32,1.32,0,0,1,.37,1,2.67,2.67,0,0,1-.16.69,24.06,24.06,0,0,1-5.74,5.38h-1Z" fill="#fea570"/>
        <path d="M31.85,57.8a82.59,82.59,0,0,1-8.47,8.47c-1.07-1-1.43.26-1.9.71a19.61,19.61,0,0,0-1.81,2.31l-.54-.43,1.76-6.58c-.35-1,.54-1.36,1.07-1.9.45-.34.85-.79,1.48-.77,3.21,2.55,4.76-.46,6.74-2a2.09,2.09,0,0,1,.7-.2A1.2,1.2,0,0,1,31.85,57.8Z" fill="#feb573"/>
        <path d="M22.38,60.79a3.12,3.12,0,0,0-1.49,1.49l-1,.5c-1.22-.6-1.15,1.23-2.19,1-.33-3,1.28-5.47,2.69-8a4.17,4.17,0,0,0,.5,0v1a1.78,1.78,0,0,1-.06.73c-.51,1.41-1.6,3.1,1.41,2.67C22.42,60.17,22.52,60.54,22.38,60.79Z" fill="#fead63"/>
        <path d="M121.54,27.41H121a18.76,18.76,0,0,0-5-3.48v-.5c0-.5,0-1,0-1.49,2.42,2.16,5.64,3.17,8,5.48Z" fill="#fe7463"/>
        <path d="M151.44,93.18A1.89,1.89,0,0,1,151,91.1c1.17-4.94-.75-9.64-1.26-14.42-.3-2.81-2.74-5-4.25-7.42l2.49-3c.16-.21.33-.21.5,0,2,2.13,1.81,5,2.47,7.53,1.35,5.23.94,10.58,1,15.89C151.9,90.87,152.13,92.09,151.44,93.18Z" fill="#fe9a79"/>
        <path d="M148.45,66.27H148a22.54,22.54,0,0,0-3-5l1.49-2h.5c1.16,1.13,1.48,2.67,1.92,4.13.2.63.18,1.31,1.07,1.35Z" fill="#fe8770"/>
        <path d="M44.31,29.4v-1a4.23,4.23,0,0,0,2.23-1c5.22-3.91,11.27-6.05,17.36-8.07,1.24-.41,2.55-.6,3.83-.9-.35,1-1.39,1.26-2,2C62.89,19.56,61,22,58.54,22.59c-4.45,1.13-8.76,2.93-11.74,6.81Z" fill="#fe955c"/>
        <path d="M126.52,79.72l1-1.49,5.48-5c1.16,1.57,2.71,2.9,3,5,.31,1.13-.61,1.64-1.21,2.25-2.12,2.21-4.32,4.34-6.47,6.53-1.08.89-1.82,2.22-3.33,2.56-2.7-1.25-3.3-3.67-.93-5.29s4-4.11,5.82-5.67c-.38.35-1,1.12-1.81,1.77S126.59,81,126.52,79.72Z" fill="#fe9873"/>
        <path d="M128,86.7l8-8.47,5.48-5c.67,3.36,1.23,6.72-.5,10-.9,1.6-2.47,1-3.79,1.15-.7.09-1.62-.2-2,.69-.26.68.3,1.24.68,1.77,2.34,3.21,5,6.16,6.81,9.76.69,1.38,2.32,2,3.28,3.34a6.79,6.79,0,0,1,.95,7.21c-.67,1.32-.82,2.91-2,4-.63-2.23-1.75-4-4.07-4.84C139,98.19,132,93.43,128,86.7Z" fill="#fea47a"/>
        <path d="M44.31,45.35l11-10.47c1,1.22.28,2.66.5,4v1c-3,3.26-6.23,6.34-9.41,9.44-.61.6-1.34,2.09-2.51.49A5.48,5.48,0,0,1,44.31,45.35Z" fill="#feaf78"/>
        <path d="M44.31,52.32v-.5c3.07-4,6.95-7.32,10.53-10.88a.77.77,0,0,1,.93-.08v12A3.27,3.27,0,0,1,54,54.33a10.62,10.62,0,0,1-4.24-.08c-1.18-.63-.4-1.21.08-1.71,1.26-1.3,2.52-2.6,3.21-3.23-1,1.08-2.81,2.6-4.29,4.43-.37.45-.79.87-1.47.57-.88-.9-2-.33-3-.49A1.09,1.09,0,0,1,44.31,52.32Z" fill="#feaf77"/>
        <path d="M55.77,64.78V61.29h.49a2,2,0,0,1,.28,2.47,5.49,5.49,0,0,1,2.71-2.47h3.49a68.07,68.07,0,0,1-6,6.22C55.81,66.69,56.76,65.41,55.77,64.78Z" fill="#feac65"/>
        <path d="M55.77,40.86Q51.06,45.45,46.34,50c-.65.63-1.35,1.2-2,1.8v-1a.33.33,0,0,1-.11-.33c0-.11.08-.16.12-.16,3-2.95,6-5.9,9.08-8.82.7-.67,1.22-1.63,2.38-1.65Z" fill="#feae6f"/>
        <path d="M54.27,53.81l1.5-1v1a93.66,93.66,0,0,0-9,9c-.81,1.06-1.18,2.64-3,2.49v-.49A.93.93,0,0,1,44,63.65C47.35,60.28,50.36,56.58,54.27,53.81Z" fill="#feb36e"/>
        <path d="M59.25,61.29a11.57,11.57,0,0,1-3,3v-3Z" fill="#fea364"/>
        <path d="M44.31,33.38v4.49c-2.23,3-4.58,5.86-8,7.67-1.42-.72-2.63-.28-3.88.56-.82.55-1.47,1.65-2.75,1.21-.43-1,.26-1.58.77-2.23,3.62-3.48,6.83-7.45,11.4-9.8C42.85,34.79,43,33.4,44.31,33.38Z" fill="#fea779"/>
        <path d="M44.31,33.38A5.36,5.36,0,0,1,41.9,36c-4.51,2.13-7.28,6.32-11,9.33-.72-1.21.24-2.07.65-3.05,3.28-3.49,6.5-7,10.44-9.85.7-.49,1.28-1.37,2.37-1Z" fill="#fea476"/>
        <path d="M44.31,31.39c-4.81,2.91-8.24,7.38-12.46,11-1.19,1.47-1.5,3.81-4,4a41.9,41.9,0,0,1,9.27-10.79c2.31-2,4.31-4.38,7.18-5.65Z" fill="#fea172"/>
        <path d="M36.33,45.34l8-7.47c.88,1,0,2.51,1,3.48a1,1,0,0,1-1,.5c-.56-.32-.34-1.06-.84-1.52-3.21,3.12-6.3,6.33-9.55,9.48.77.09,1.65-.18,2.13.69.12.81-.38,1.13-1,1.33-1.32,0-2.94.69-3.42-1.39C32.44,48.06,34.28,46.61,36.33,45.34Z" fill="#fea56c"/>
        <path d="M35.84,50.33H33.92l10.49-10.5c.16.25-.23,1.17-.1,2v2a49.59,49.59,0,0,1-6.48,6.48A1.51,1.51,0,0,1,35.84,50.33Z" fill="#fea77a"/>
        <path d="M44.31,50.33c0,.16,0,.33,0,.49l-3.48,3H36.33c-.26-1.57,1.15-1.81,2-2.49,2-2,3.67-4.3,6-6Z" fill="#fea578"/>
        <path d="M35.84,50.33h2l-.5,1c-.4,1.29-1.57,1.9-2.45,2.77a2.78,2.78,0,0,1-.68.2,1.82,1.82,0,0,1-1.37-.36c-.33-1.64,1.11-1.91,2-2.61A.91.91,0,0,0,35.84,50.33Z" fill="#fea175"/>
        <path d="M34.84,53.81a7.79,7.79,0,0,1,2.49-2.49h1l-2,2.49h-.49A.67.67,0,0,1,34.84,53.81Z" fill="#fe9e6d"/>
        <path d="M104.6,103.14l-1-.5,5-5.48.5-.5c1.42.45,2-.83,3-1.38.44-.25.93-.54,1.36-.1a.87.87,0,0,1-.25,1.3c-2.27,1.65-1.06,3.18.08,4.74a10.79,10.79,0,0,1-5.21,5.3c-1.73-.06-2.14-1.42-2.64-2.69a1.09,1.09,0,0,1,.58-1.19C105.47,102.73,105.24,103.51,104.6,103.14Z" fill="#fea273"/>
        <path d="M126.52,79.72c.49,1.1,1.08.79,1.64.1.93-1.15,1.83-2.32,2.74-3.49l1,.92c-2.9,1.53-3.35,5.09-6.47,6.63s-3,3.47-.36,5.31c-.12,2.15-2.2,2.82-3.22,4.29a3.45,3.45,0,0,1-1.8,1.08c-3.41-1-3.64-2.45-.83-5.2-2.29,2.18-2.29,2.18-3.12.83A127.58,127.58,0,0,1,126.52,79.72Z" fill="#fe9a74"/>
        <path d="M116.06,90.19c.35.76.81,1,1.45.28l2.86-3.2a2.94,2.94,0,0,1-1.29,2.62c-2.12,2.22-2,3,1,4.29.12,1.79-1.55,2.35-2.42,3.44-.67.83-1.49,1.53-2.24,2.29-.72.52-1.16,1.55-2.32,1.24-2.69-2.15-2.69-2.15.34-5.84-1.2.1-1.64,1-2.23,1.52-.81.79-1.49,1.08-2.1-.17a35.94,35.94,0,0,0,5.48-5.48Z" fill="#fe9e74"/>
        <path d="M43.81,65.27l3-2.49c-.08,1.41-.09,2.79,1.49,3.49a82.59,82.59,0,0,1-8.47,8.47c-1.64-1.33-1.51-2.86-.5-4.48Z" fill="#feb578"/>
        <path d="M27.86,46.34c1.73-.93,2.54-2.78,4-4l-1,3c-.28.69-1.07,1.13-1,2-.16,1.94-2.35,3-2.2,5.07.85,2.8-1.33,4-2.92,5.47-1.39.48-2.84,1.17-3.35-1.08C23.66,53.38,25.24,49.54,27.86,46.34Z" fill="#fea673"/>
        <path d="M21.39,56.8c1,1.58,2.22,1,3.48.5a.39.39,0,0,1,.6,0,1.15,1.15,0,0,1,0,.71,3.54,3.54,0,0,1-2.11,1.81c-.33.34-.67.67-1,1-1.12-1.14-1.38.82-2.24.62-1.21-1.78-.49-3.24.75-4.61Z" fill="#feb36a"/>
        <path d="M111.07,136a3.15,3.15,0,0,0-1.49-1.5V120.09c1.8-1.31,3.85-.58,5.79-.71a7,7,0,0,1,3.43.41c.72.92-.12,1.08-.69,1.28a5.44,5.44,0,0,1-2,.18c-1.67,0-1.64.64-.79,1.75,2.27,3,4.57,5.88,6.81,8.87.15.19.33.37.47.58.7,1,2,2,1.47,3.21s-2.08.58-3.15.57C117.66,136.2,114.36,136.56,111.07,136Z" fill="#fea970"/>
        <path d="M115.56,120.08h-6.48c-.21-1.5-1.18-2-2.59-2-2.12,0-4.25,0-6.38,0a8.81,8.81,0,0,1-1.64-2c.84-2.57,3.31-3.76,4.85-5.75,1.1-.9,1.84-2.27,3.41-2.54,4,3.09,6.73,7.27,9.1,11.68C115.93,119.62,115.73,119.9,115.56,120.08Z" fill="#feb17b"/>
        <path d="M111.07,136c3.56,0,7.11,0,10.66,0,.69,0,1.67.41,2-.44s-.53-1.34-.94-1.89c-2.87-3.81-5.81-7.56-8.71-11.33-.33-.42-1.07-.74-.68-1.42s1-.26,1.59-.35c1.35-.21,2.81.5,4.06-.49.84-.86,1.94-.76,3-.76,2.69,0,5.38-.1,8.07.06a3.39,3.39,0,0,1,1.65.38c.66,1.32-.48,1.26-1.16,1.37a32.79,32.79,0,0,1-4,.11c-1.09,0-1.33.51-.7,1.41,1,1.43,2.1,2.78,3.21,4.11A5.37,5.37,0,0,1,130,133c-1.12,1.41-1.41,3.76-4,3.53h0c-1.25-1.05-2.49.12-3.76.07-4.22-.18-8.45-.07-12.68-.07C109.94,135.94,110.53,136.05,111.07,136Z" fill="#fea670"/>
        <path d="M98.62,116.1c1.18.15,1.32,1.08,1.49,2-2.07-.06-2.43,1.4-2.47,3-.07,2.73,0,5.45,0,8.17a5.71,5.71,0,0,1-.18,1.95c-.25.65-.57,1.5-1.35,1.62s-1-.65-1.43-1.18c-1.1-1.53-2.19-3.07-3.35-4.56-.55-.7-1.11-1.47-2.16-1.48l6.48-7A3.06,3.06,0,0,1,98.62,116.1Z" fill="#feb67b"/>
        <path d="M98.62,116.1l-3,2.49c-1-.94-1.14-2.26-1.5-3.49a21.53,21.53,0,0,1,7-7.11,19.45,19.45,0,0,0,2.5,2.63Z" fill="#fea873"/>
        <path d="M101.11,108.13a56,56,0,0,0-7,7,1.71,1.71,0,0,0-1,1,5.51,5.51,0,0,1-2.49,2.49h-1q6.22-6.36,12.46-12.72c.86-.88,1.66-1.81,2.49-2.73l2.43-1.93.27.25-1.71,2.18A11,11,0,0,1,101.11,108.13Z" fill="#fea977"/>
        <path d="M90.65,118.59a7.6,7.6,0,0,1,2.49-2.49A2.16,2.16,0,0,1,90.65,118.59Z" fill="#fea673"/>
        <path d="M126,136.53c1.85-.48,2.29-2.36,3.49-3.49a39.64,39.64,0,0,1,4.26-5.31c.6-.59,1.12-1.46,2.22-1.17,0,1.53-1.73,2.39-1.5,4-2.06,1.18-3,3.41-4.7,5a8.85,8.85,0,0,1-2.77,2A1.79,1.79,0,0,1,126,136.53Z" fill="#fea26c"/>
        <path d="M121.54,93.18l3.49-4,3-2.49c2.72,1.47,4.12,4.16,5.64,6.58,1.77,2.82,4.37,4.92,6,7.76.82,1.38,2.14,2.55,1.45,4.46a1,1,0,0,0,.9,1.27c3.59-.56,2.94,1.65,2.57,3.74,0,.18.22.4.34.61-.9,3-2.36,5.85-3,9h-1a1.7,1.7,0,0,1-1.41.17c-1.14-7-7.11-10.82-10.47-16.36C126.82,100.17,123.49,97.15,121.54,93.18Z" fill="#fea67b"/>
        <path d="M139.48,120.08H141c-2.41.29-3.22,2-3.82,4.08a16,16,0,0,1-1.16,2.39c-2.69,1.63-3.83,4.81-6.48,6.48,1.21-2.74.17-4.89-1.67-6.93-1.15-1.28-2.1-2.74-3.16-4.1-.87-1.1-.35-1.33.77-1.44,2.18-.22,4.44.61,6.55-.48A8.25,8.25,0,0,1,139.48,120.08Z" fill="#fea370"/>
        <path d="M147,107.13c.29-3,.09-5.9-2.34-8-4.18-3.54-6-8.86-9.72-12.7-.48-.5-1.13-1.12-.72-2s1.36-.75,2.18-.81c1.55-.09,3.15.36,4.62-.49a7.3,7.3,0,0,1,.59,2.38,3.93,3.93,0,0,0,1.78,2.3c2.65,2,5,4.43,5.62,8a23,23,0,0,1-.51,8.74C147.88,105.43,148.11,106.69,147,107.13Z" fill="#fea27a"/>
        <path d="M54.27,53.81c-2.89,3-5.78,5.94-8.66,8.92-.63.66-1.2,1.36-1.8,2.05l-2.49,2a7.6,7.6,0,0,1-2.49-2.49c.35-2,2.36-2.66,3.38-4.12,1.78-1.78,3.54-3.58,5.35-5.32.47-.46.78-1.32,1.73-1Z" fill="#feb67a"/>
        <path d="M42.31,60.29l-3.48,4-10.47,10h-.5l6-6.48,8-7.47A.28.28,0,0,1,42.31,60.29Z" fill="#feb76e"/>
        <path d="M34.84,53.81h1l-3.49,4h-1.5c.19-2.19,2-2.92,3.49-4Z" fill="#fea86d"/>
        <path d="M44.31,52.32v1.5c-.07,3.61-.6,4-5.49,4A35.06,35.06,0,0,1,44.31,52.32Z" fill="#fea97a"/>
        <path d="M42.31,60.29h-.5l5.49-6,7.1-6.69.32.32-5.43,5.87Z" fill="#feaf6d"/>
        <path d="M34.34,53.81l-3.49,4h-.5c-1.66.9-3.32,1.17-5,0v-.5a15.85,15.85,0,0,1,3-3.25,3.42,3.42,0,0,1,4.5-.24Z" fill="#feaa76"/>
        <path d="M25.37,57.8h5c-.48.56-.93,1.16-1.44,1.69-2.58,2.62-2.59,2.61-5.53.3A5.14,5.14,0,0,1,25.37,57.8Z" fill="#feb875"/>
        <path d="M27.36,52.32c-.62-2.39,1.52-3.39,2.5-5,1.19-.84,2.34-1.74,3.57-2.51,1-.65,2.15-.87,2.9.51l-4.48,5a1.42,1.42,0,0,1-.51.4c-.69.24-1.47.1-2.14.48S28.13,52.21,27.36,52.32Z" fill="#feaa79"/>
        <path d="M31.35,50.33h.5c.55,1.67,2,.78,3,1l-2,2.49c-3.44-.89-5.3,1.64-7.47,3.49h-.5a6.86,6.86,0,0,0,2.49-5,3.21,3.21,0,0,1,1.5-1.5C29.61,50.24,30.61,50.94,31.35,50.33Z" fill="#fe9e67"/>
        <path d="M130.51,120.08H115.56c-1-3.43-3.85-5.61-5.76-8.42-.88-1.3-1.51-2.94-3.21-3.53-.35-1.31.86-1.44,1.5-2a29,29,0,0,0,5-5l2-1.49c1.08-.69,1.52.26,1.94.87,3.91,5.81,8.58,11,12.63,16.73C130.2,118.07,131.24,118.83,130.51,120.08Z" fill="#fead7c"/>
        <path d="M108.09,106.13l-1.5,2-3,2.49c-1.79.13-2.21-1.11-2.49-2.49a23.81,23.81,0,0,1,4.48-4.49C106.6,104.3,106.42,106.14,108.09,106.13Z" fill="#fea573"/>
        <path d="M130.51,120.08a31.62,31.62,0,0,0-5.58-8c-3.16-3.69-5.82-7.72-8.7-11.6a1.52,1.52,0,0,0-1.17-.78l5-5.48c.49-.34,1-.67,1.49-1,2.41,2.06,3.86,4.9,5.83,7.33,3.79,4.68,7,9.83,11,14.3a5.08,5.08,0,0,1,1.06,5.27h-9Z" fill="#feaa7b"/>
        <path d="M31.35,50.33c-.7.82-1.65.38-2.49.49C29.56,50,30.51,50.45,31.35,50.33Z" fill="#fea673"/>
      </g>
    </symbol>
  </defs>
  <rect id="Figment_lido" x="-1.22" y="-1.06" width="252.5" height="252.5" transform="translate(-0.16 250.22) rotate(-90)" fill="#ffb27d"/>
  <use width="169.87" height="169.78" transform="translate(40.06 40.11)" xlink:href="#Rocketpool"/>
</svg>
