<svg id="Capa_1" data-name="Capa 1" xmlns="http://www.w3.org/2000/svg" xmlns:xlink="http://www.w3.org/1999/xlink" width="250" height="250" viewBox="0 0 250 250">
  <defs>
    <symbol id="Rockx" data-name="Rockx" viewBox="0 0 26.9 24.34">
      <path d="M9.85,9.93C8.14,8.19,6.4,6.47,4.68,4.74a2.58,2.58,0,0,0-2.11-.81A2.57,2.57,0,0,0,.18,5.71,2.62,2.62,0,0,0,.87,8.62C2.58,10.34,4.29,12.06,6,13.76c.27.26.29.42,0,.69-1.15,1.11-2.26,2.25-3.39,3.38a2.58,2.58,0,0,0-.8,2.26,2.54,2.54,0,0,0,1.82,2.25,2.64,2.64,0,0,0,2.86-.7L10.21,18,8.34,16.12a2.72,2.72,0,0,1,0-4c.52-.52,1.06-1,1.57-1.58a.56.56,0,0,1,.23-.16v-.23A.54.54,0,0,1,9.85,9.93Z" fill="#4be1b4"/>
      <path d="M19.57,19.61c-1.7-1.71-3.4-3.42-5.12-5.1-.35-.34-.29-.5,0-.8,1.11-1.08,2.18-2.18,3.28-3.27A2.66,2.66,0,0,0,18.58,8a2.61,2.61,0,0,0-1.85-2.19,2.64,2.64,0,0,0-2.82.69c-1.13,1.12-2.26,2.24-3.37,3.38-.16.16-.27.22-.39.2v.23c.09,0,.19,0,.31.14.57.6,1.18,1.16,1.75,1.77a2.71,2.71,0,0,1,0,3.72c-.63.69-1.36,1.28-1.95,2,1.9,1.9,3.78,3.82,5.69,5.7a2.39,2.39,0,0,0,2.13.61,2.62,2.62,0,0,0,2.21-1.88A2.65,2.65,0,0,0,19.57,19.61Z" fill="#388dfd"/>
      <path d="M10.21,18,8.34,16.12a2.72,2.72,0,0,1,0-4c.52-.52,1.06-1,1.57-1.58.19-.19.32-.26.54,0,.57.6,1.18,1.16,1.75,1.77a2.71,2.71,0,0,1,0,3.72c-.63.69-1.36,1.28-1.95,2Z" fill="#241b5e"/>
      <g>
        <path d="M24,8.39A2.89,2.89,0,0,1,21.37,6.8a2.81,2.81,0,0,1,.11-2.92c.06-.1.1-.1.2,0l2.13,1.25a.27.27,0,0,0,.31,0c.7-.42,1.41-.83,2.12-1.24.11-.07.15,0,.21.05a2.94,2.94,0,0,1-2.1,4.46Z" fill="#00a2fd"/>
        <path d="M24,0l1.26,2c.25.39.49.78.75,1.17.06.1,0,.13,0,.18L24.06,4.4a.17.17,0,0,1-.19,0L22,3.3c-.06,0-.1,0,0-.14Zm0,.87L23.9.93,22.57,3c-.05.07,0,.09.05.12l1.26.74c.07.05.12,0,.19,0l1-.58c.11-.07.28-.12.31-.21s-.11-.21-.18-.32L24.05,1S24,.89,24,.87Z" fill="#009ff9"/>
      </g>
    </symbol>
  </defs>
  <rect id="Figment_lido" x="-1.22" y="-1.06" width="252.5" height="252.5" transform="translate(-0.16 250.22) rotate(-90)" fill="#fff"/>
  <use width="26.9" height="24.34" transform="translate(25.35 38.98) scale(7.21)" xlink:href="#Rockx"/>
</svg>
