<svg id="Capa_1" data-name="Capa 1" xmlns="http://www.w3.org/2000/svg" xmlns:xlink="http://www.w3.org/1999/xlink" width="250" height="250" viewBox="0 0 250 250">
  <defs>
    <symbol id="Sigmaprime" data-name="Sigmaprime" viewBox="0 0 12.39 10.74">
      <path d="M9.42,2.67V4.73H7.68V6.37a4,4,0,0,1-.6,2.13A3.79,3.79,0,0,1,1,9,3.79,3.79,0,0,1,1,3.88a3.3,3.3,0,0,1,2.57-1.2c1.86,0,3.73,0,5.59,0ZM5.56,4.74c-.62,0-1.24,0-1.86,0A1.62,1.62,0,0,0,2.34,7.24a1.8,1.8,0,0,0,1.74.94A1.68,1.68,0,0,0,5.55,6.76,19.4,19.4,0,0,0,5.56,4.74Z" fill="#fff"/>
      <path d="M10,0h1.36V3.4H10Z" fill="#fff"/>
      <g>
        <path d="M11.1,10.74A1.27,1.27,0,0,1,10,10a1.25,1.25,0,0,1,0-1.28s.05,0,.09,0l.94.55c.05,0,.08,0,.13,0l.93-.54c.05,0,.07,0,.1,0a1.29,1.29,0,0,1-.92,2Z" fill="#00a2fd"/>
        <path d="M11.1,7.05c.19.3.37.58.56.86s.21.35.33.52,0,.06,0,.08L11.15,9h-.09l-.82-.49s-.05,0,0-.06Zm0,.38,0,0-.59.92s0,0,0,0l.56.33s0,0,.08,0l.44-.25s.12-.05.13-.09-.05-.1-.08-.14c-.16-.27-.33-.53-.5-.79C11.13,7.46,11.13,7.44,11.1,7.43Z" fill="#009ff9"/>
      </g>
    </symbol>
  </defs>
  <rect id="Figment_lido" x="-1.22" y="-1.06" width="252.5" height="252.5" transform="translate(-0.16 250.22) rotate(-90)" fill="#3f3f3f"/>
  <use width="12.39" height="10.74" transform="translate(28.85 41.68) scale(15.52)" xlink:href="#Sigmaprime"/>
</svg>
