<svg id="Capa_1" data-name="Capa 1" xmlns="http://www.w3.org/2000/svg" xmlns:xlink="http://www.w3.org/1999/xlink" width="250" height="250" viewBox="0 0 250 250">
  <defs>
    <symbol id="Simplystaking" data-name="Simplystaking" viewBox="0 0 23.29 22.43">
      <path d="M.19,8a2.72,2.72,0,0,1,1-.65c1.76-1,3.54-2.06,5.31-3.08a1.33,1.33,0,0,0,.19-.14A5,5,0,0,1,8,3.22c.27-.14.52,0,.76.16.76.41,1.5.88,2.25,1.3.44.24.84.52,1.3.72,1,.63,2,1.17,3,1.79a3.11,3.11,0,0,1,.89.58,10.28,10.28,0,0,1,.08,2.35c0,.23-.23.33-.4.43-.41.22-.81.47-1.21.71s-.34.3,0,.48.69.41,1,.6a1.08,1.08,0,0,1,.66,1.09,2.17,2.17,0,0,0,0,.88c0,1,0,2.1-.08,3.15a.66.66,0,0,1-.42.67c-2.41,1.38-4.8,2.8-7.22,4.16a.87.87,0,0,1-.94,0,6.79,6.79,0,0,0-1.12-.54,1.19,1.19,0,0,1-.53-.37.71.71,0,0,0-.43-.26c-1.3-.79-2.64-1.53-3.95-2.3a7.64,7.64,0,0,1-1-.58A1.17,1.17,0,0,1,0,17.05c0-.39,0-.78,0-1.16A.9.9,0,0,1,.66,15c.43-.16.78-.45,1.19-.65.08,0,.16-.1.24-.13.31-.13.47,0,.48.3s0,.89,0,1.33a.51.51,0,0,0,.27.5,12.5,12.5,0,0,0,1.77,1.11l.73.43c.76.39,1.51.82,2.24,1.27a1,1,0,0,0,1.14,0c1.5-.9,3-1.74,4.53-2.62a.74.74,0,0,0,.4-.72,10.65,10.65,0,0,1,0-1.13.66.66,0,0,0-.39-.68c-.65-.37-1.29-.76-1.95-1.13a24.08,24.08,0,0,1-2.6-1.51.92.92,0,0,0-1.05,0A8.43,8.43,0,0,1,6.6,12c-.29.13-.47,0-.47-.26,0-.82,0-1.64,0-2.46A6.77,6.77,0,0,1,7.92,8.18a.88.88,0,0,1,.87.15,3.84,3.84,0,0,1,.5.32c1.34.72,2.65,1.52,4,2.27.34.19.37.18.38-.22v-.48c0-1.12.08-.85-.82-1.39s-1.75-1-2.61-1.52a1.22,1.22,0,0,0-.33-.14c-.45-.32-1-.55-1.42-.84a.65.65,0,0,0-.72.07c-.79.44-1.57.92-2.37,1.37-.18.1-.36.25-.58.06-.1-.49-.36-.59-.71-.28a.6.6,0,0,1-.74,0,.49.49,0,0,1,0-.69,1.33,1.33,0,0,1,.88-.33.48.48,0,0,1,.26.09.75.75,0,0,0,1.15,0,.85.85,0,0,1,.6-.28.2.2,0,0,0,.25-.19s0,0,0,0c.09-.26.3-.25.52-.28s0-.37.25-.44a.47.47,0,0,1,.41.1.68.68,0,0,0,.91,0,.48.48,0,0,1,.52-.1.35.35,0,0,1,.19.44,1.64,1.64,0,0,0,.26-.2.49.49,0,0,1,.59-.23.44.44,0,0,1,.31.38c0,.29-.2.39-.44.48a2.77,2.77,0,0,1,.67.32.76.76,0,0,1,.34.43.49.49,0,0,0,.72.32c.39-.14.5-.1.67.28,0,.08.07.1.14.1a.38.38,0,0,1,.41.19c0,.05,0,.06.11.06.49,0,.5,0,.51.48,0-.2,0-.42.29-.45a.48.48,0,0,1,.53.4,1.09,1.09,0,0,1,0,.44.8.8,0,0,0,1,.83c.13,0,.09-.06.11-.14.07-.38,0-.77.11-1.16s-.28-.4-.41-.55c.06,0,.14.12.23.21a.34.34,0,0,1,0,.56.38.38,0,0,1-.6,0,2.2,2.2,0,0,0-1-.78c-.28-.1-.25-.38,0-.63-.26.07-.41.44-.76.29-.18-.08-.19-.25-.2-.45a1,1,0,0,1-.82.26c-.18,0-.34,0-.38-.24a.32.32,0,0,1,.23-.38c.51-.13.16-.3,0-.51-.09.2,0,.41-.13.56s-.17.32-.39.29S11,6.74,11,6.53c0-.59-.51-.86-.78-1.27-.11-.17-.43-.15-.63-.31a2.37,2.37,0,0,0-2.08-.51c-.12,0-.25,0-.32.14a1.44,1.44,0,0,1-1,.54c0,.11.11.09.17.12a.46.46,0,0,1,.24.64.54.54,0,0,1-.68.18c-.36-.17-.42-.14-.51.25l0,.16a.43.43,0,0,1-.44.4.53.53,0,0,1-.45-.4c0-.12,0-.24,0-.39A4.24,4.24,0,0,1,3,7.05a.27.27,0,0,0-.16.22.47.47,0,0,1-.42.46C2.14,7.76,2,7.58,2,7.3c-.31.28-.74.3-1,.63a.43.43,0,0,0-.1.54,1.75,1.75,0,0,1,.06.91.27.27,0,0,1-.21.27c-.2,0-.28.13-.25.32s-.14.56.24.69a.26.26,0,0,1,.19.19,2.34,2.34,0,0,1,0,1.24c.4-.49.92-.5,1.38.08a.52.52,0,0,0,.22.17.41.41,0,0,1,.25.25c.07.35.12.71.62.48.27.25.67.41.74.81s.33.54.52.79.44.07.65,0,.32,0,.36.24a.59.59,0,0,0,.6.53.87.87,0,0,1,.69.35A1.62,1.62,0,0,0,9.17,16a1,1,0,0,0,.06-1.11,1.33,1.33,0,0,1,.08.79.73.73,0,0,1-.52.57,2.21,2.21,0,0,1-1.37,0,.33.33,0,0,1-.22-.39.38.38,0,0,1,.33-.31,4.55,4.55,0,0,1,.52,0c.1,0,.25,0,.25-.14s-.13-.12-.22-.13A.7.7,0,0,1,7.63,15,.35.35,0,0,0,7.16,15a.43.43,0,0,1-.63-.13c0-.05-.07-.12-.11-.11-.4.16-.78-.2-1.19,0a.34.34,0,0,1-.48-.17c-.09-.22.07-.34.24-.45s.27-.1.36-.25c-.88.26-1.6-.12-1.53-.79a.49.49,0,0,1-.63-.27c-.24-.39-.46-.78-1-.88-.23,0-.32-.29-.34-.54a6.4,6.4,0,0,1,.07-.88c0-.54-.09-1.07-.05-1.61,0-.09,0-.19,0-.28,0-.25-.05-.54.28-.64s.42.16.56.4c.19-.21.31-.45.58-.55a.91.91,0,0,1,.46-.1.38.38,0,0,0,.32-.12c.37-.32.63-.23.74.27.05.22-.12.3-.27.39-.49.3-1,.58-1.49.87a.69.69,0,0,0-.41.67V10.9a.75.75,0,0,0,.4.69c.71.42,1.46.79,2.14,1.26s1.17.63,1.74,1c.28.17.59.32.87.5a.65.65,0,0,0,.74,0,7.08,7.08,0,0,1,1.31-.68c.26-.08.38,0,.41.29a12.88,12.88,0,0,1,0,2.24.47.47,0,0,1-.24.35,11.72,11.72,0,0,1-1.53.89.74.74,0,0,1-.77,0,2.26,2.26,0,0,0-.47-.22,3.89,3.89,0,0,0-.87-.55,1.65,1.65,0,0,0-.73-.41c-.93-.56-1.88-1.1-2.82-1.63-.24-.38-.66-.46-1-.66a9.19,9.19,0,0,1-1.25-.64,1,1,0,0,1-.59-1C0,10.87.05,9.43.19,8Z" fill="#f7f7f7"/>
      <path d="M4.81,7.84c-.11-.1-.18-.24-.34-.29s-.32,0-.25.2S4.14,8,4,7.94a.81.81,0,0,0-.79.12A.32.32,0,0,0,3,8.3c0,.14,0,.37-.21.36a.4.4,0,0,1-.37-.32c0-.15,0-.29-.22-.25s-.18.19-.17.32c.08.48,0,1,.07,1.44a5.65,5.65,0,0,1-.07,1.36c0,.33.08.56.44.59.53.06.63.54.85.88s.24.35.48.13.3-.22.42,0-.06.24-.18.32-.16.29,0,.38a4.74,4.74,0,0,0,.74.29.41.41,0,0,0,.43-.17c.1-.13.21-.25.35-.07a.31.31,0,0,1-.06.49,6.19,6.19,0,0,1-.57.3c-.06,0-.12.08-.1.16s.1.13.15.1c.53-.27,1.18.22,1.66-.28.11.12,0,.21,0,.31s.11.36.33.22.6-.26.84.13c.09.16.28.13.44.13s.32.08.33.31-.11.34-.35.33-.45,0-.68,0-.22.06-.23.19.1.25.19.23c.46-.07,1,.13,1.38-.19a.63.63,0,0,0-.11-1.1s-.1-.05-.09-.11a.27.27,0,0,1,.09-.12.49.49,0,0,1,.75.42c0,.36.18.77-.24,1.07a1.72,1.72,0,0,1-1.94.24c-.26-.15-.59-.21-.73-.54a.24.24,0,0,0-.19-.13,1.81,1.81,0,0,1-.93-.33c-.37-.24-.23-.32,0-.56-.26,0-.51,0-.72.16s-.35.08-.37-.1a.56.56,0,0,0-.32-.5A.16.16,0,0,1,4,14.24c.06-.47-.4-.62-.58-.94s-.24-.09-.33,0-.08.29-.27.23-.14-.22-.16-.35,0-.21,0-.32-.07-.37-.3-.42-.2-.06-.22-.15c-.09-.35-.33-.42-.64-.4s-.46.29-.64.49a.67.67,0,0,0-.06.15c0,.11-.1.17-.21.11s-.17-.15-.07-.25C.85,12,.75,11.5.76,11c0-.09,0-.24-.17-.15s-.31-.06-.31-.25q0-.52,0-1c0-.1-.05-.24.08-.28s.15.12.22.19l.16.08c0-.4.14-.76-.14-1.1a.28.28,0,0,1,0-.4,1.6,1.6,0,0,1,.79-.66c.32-.08.53-.4.87-.48.09.14-.06.21-.09.32s-.08.21,0,.3a.29.29,0,0,0,.27,0c.12,0,.2-.13.17-.24-.1-.39.15-.4.43-.5a2.29,2.29,0,0,0,1.26-1c0-.09.06-.23.22-.18s.14.17.12.3a4.55,4.55,0,0,0,0,.52c0,.18.11.27.28.28a.26.26,0,0,0,.26-.26,1.66,1.66,0,0,1,.18-.65c.13-.3.28-.33.48-.07s.21.24.4.17.23-.09.24-.24a.28.28,0,0,0-.2-.27,2,2,0,0,1-.37-.14c-.11,0-.26-.1-.22-.25s.18-.14.3-.12a1.28,1.28,0,0,0,.77-.15s.12,0,.14-.08c.52-.8,1.23-.45,1.9-.33,0,0,0,0,0,0,.43-.16.62.2.87.42a.63.63,0,0,0,.66.19c.16,0,.25,0,.18.2s0,.32.21.4c.35.14.32.49.4.78s.08.43.34.41.21-.29.23-.48-.2-.52.09-.62.22.32.4.44a.17.17,0,0,1,.06.06c.1.14.36.23.28.44s-.31.08-.48.1-.27,0-.26.18S12,7,12.11,7c.38.07.61-.23.89-.39.09,0,.18-.19.28-.1s0,.19-.08.28-.23.25-.09.38.25,0,.38-.08c.52-.34.7-.31.86.13-.18.11-.48-.21-.55.11s.32.15.45.29.56.36.72.67c0,.1.09.22.23.18a.34.34,0,0,0,.27-.22c0-.15-.08-.21-.18-.28s-.52-.14-.65-.42a.89.89,0,0,1,1.15,1,8.72,8.72,0,0,1-.08.88c0,.17.13.22.22.31a.15.15,0,0,1,0,.24.12.12,0,0,1-.2-.05c-.08-.16-.2-.17-.37-.15a.93.93,0,0,1-1.08-1.12c0-.17.06-.32-.06-.46S14,8,13.85,8.11s-.09.23,0,.36.23.15.14.3a.27.27,0,0,1-.26.07c-.19-.05-.17-.21-.18-.36V8.32c0-.14,0-.28-.2-.31s-.22.09-.27.2-.1.29-.28.17-.06-.22.06-.3.11-.1.06-.17-.1-.07-.17-.08-.3.1-.45.16-.16.06-.21,0,0-.15.06-.21.32-.17.18-.33-.33,0-.48.06a.71.71,0,0,1-.94-.4.89.89,0,0,0-.9-.63c-.11,0-.27.12-.32,0s.09-.26.2-.36A.54.54,0,0,1,10.07,6c.14,0,.28,0,.28-.22a.23.23,0,0,0-.18-.24c-.13,0-.29,0-.35.1-.14.35-.56.28-.78.52a.1.1,0,0,1-.17,0,.14.14,0,0,1,.07-.17l.14-.08c.14-.09.19-.21.08-.34a.23.23,0,0,0-.36,0,.84.84,0,0,1-1.26,0c-.07-.07-.15-.12-.24,0s-.08.19,0,.28a1.67,1.67,0,0,0,.16.12c.07.07.12.16,0,.25s-.16.06-.24,0A1.05,1.05,0,0,0,7,6c-.15,0-.33,0-.22.22s-.07.35-.28.31A.71.71,0,0,0,5.64,7c-.09.16-.22.25-.4.1S5.1,7,5,7s-.29,0-.38-.15-.37-.2-.57-.15-.5.07-.59.34-.13.32,0,.39a.44.44,0,0,0,.59-.1.33.33,0,0,1,.52-.09c.16.14.44.28.2.58Z" fill="#f7f7f7"/>
      <path d="M2,13.1a2.09,2.09,0,0,1,0,.25c0,.09,0,.19-.13.22s-.16-.07-.19-.16A1.06,1.06,0,0,0,1.43,13c-.09-.09-.19-.16-.31-.05S1,13.1.9,13s.08-.14.15-.2l.15-.13a.53.53,0,0,1,.63-.1C2.09,12.64,2,12.89,2,13.1Z" fill="#f7f7f7"/>
      <path d="M15.42,10.27a.21.21,0,0,1-.19.2,1.85,1.85,0,0,0-.6.2.12.12,0,0,1-.18,0,.14.14,0,0,1,0-.14,2.88,2.88,0,0,1,.73-.4C15.32,10.08,15.39,10.16,15.42,10.27Z" fill="#f7f7f7"/>
      <path d="M3.1,14c.15,0,.27,0,.29.18s0,.17-.14.15-.3-.06-.32-.24S3.05,14.06,3.1,14Z" fill="#f7f7f7"/>
      <path d="M5.33,5.38a.21.21,0,0,1-.26.16c-.08,0-.16-.06-.14-.15a.18.18,0,0,1,.22-.18A.18.18,0,0,1,5.33,5.38Z" fill="#f7f7f7"/>
      <path d="M4.84,13c.09,0,.16.06.14.16a.24.24,0,0,1-.24.18c-.1,0-.16-.06-.14-.15A.25.25,0,0,1,4.84,13Z" fill="#f7f7f7"/>
      <path d="M11.5,5.42c0,.11-.09.13-.17.13s-.21,0-.19-.19,0-.16.15-.14A.28.28,0,0,1,11.5,5.42Z" fill="#f7f7f7"/>
      <path d="M2.21,13.67c.18,0,.33-.08.38.13,0,.06,0,.16-.08.15S2.27,13.83,2.21,13.67Z" fill="#f7f7f7"/>
      <path d="M9.76,14.47a.11.11,0,0,1-.1.1.15.15,0,0,1-.15-.16.08.08,0,0,1,.1-.09C9.71,14.32,9.75,14.38,9.76,14.47Z" fill="#f7f7f7"/>
      <path d="M8.78,16.79a.14.14,0,0,1-.14.12.1.1,0,0,1-.1-.14.13.13,0,0,1,.15-.1A.11.11,0,0,1,8.78,16.79Z" fill="#f7f7f7"/>
      <path d="M8.34,3.59c0,.09-.06.11-.13.11s-.15,0-.17-.05.07-.14.15-.15S8.31,3.52,8.34,3.59Z" fill="#f7f7f7"/>
      <path d="M.39,8.87a.1.1,0,0,1-.08-.14A.15.15,0,0,1,.4,8.62c.08,0,.1.05.1.12A.12.12,0,0,1,.39,8.87Z" fill="#f7f7f7"/>
      <path d="M6.15,14.16c0,.05,0,.11-.09.11s-.1-.08-.1-.15,0-.1.1-.1S6.15,14.09,6.15,14.16Z" fill="#f7f7f7"/>
      <path d="M7.75,16.74a.09.09,0,0,1,.07.12c0,.06,0,.1-.1.1a.09.09,0,0,1-.08-.12A.11.11,0,0,1,7.75,16.74Z" fill="#f7f7f7"/>
      <g>
        <path d="M20.36,8.33a2.86,2.86,0,0,1-2.57-1.57,2.82,2.82,0,0,1,.11-2.9c.06-.1.1-.11.2,0,.7.42,1.41.82,2.12,1.24a.27.27,0,0,0,.31,0l2.1-1.24c.11-.06.15,0,.21.06A2.92,2.92,0,0,1,20.76,8.3Z" fill="#fff"/>
        <path d="M20.37,0l1.25,2c.24.39.49.78.74,1.16.07.1.05.13,0,.18L20.47,4.37a.17.17,0,0,1-.19,0L18.41,3.28c-.06,0-.1-.06-.05-.14C19,2.11,19.69,1.07,20.37,0Zm0,.86-.05.07L19,3c0,.07,0,.09,0,.12l1.26.74a.19.19,0,0,0,.19,0c.32-.2.65-.39,1-.58.11-.07.28-.12.31-.2s-.11-.22-.18-.32L20.45,1S20.42.88,20.36.86Z" fill="#fff"/>
      </g>
    </symbol>
  </defs>
  <rect id="Figment_lido" x="-1.22" y="-1.06" width="252.5" height="252.5" transform="translate(-0.16 250.22) rotate(-90)" fill="#f67c3d"/>
  <use width="23.29" height="22.43" transform="translate(34.15 42.36) scale(7.51)" xlink:href="#Simplystaking"/>
</svg>
