<svg id="Capa_1" data-name="Capa 1" xmlns="http://www.w3.org/2000/svg" xmlns:xlink="http://www.w3.org/1999/xlink" width="250" height="250" viewBox="0 0 250 250">
  <defs>
    <symbol id="Stakewise" data-name="Stakewise" viewBox="0 0 20.94 25.26">
      <g>
        <path d="M10.33.19l0-.19h.2c.45,1.1,1.08,2.12,1.62,3.17.74,1.45,1.51,2.89,2.27,4.33a2.11,2.11,0,0,1,.11.38L10.9,11.76c-.13.13-.24.29-.45.3V.76C10.45.57,10.52.35,10.33.19Z" fill="#afa0d8"/>
        <path d="M19.29,16.91a15.92,15.92,0,0,1,1.51,2.93,12.11,12.11,0,0,1-2.55-1.2c0-.28-.31-.28-.47-.41a63.46,63.46,0,0,0-5.1-4.45l1.92-.91a13.34,13.34,0,0,1,1.13,1c1,1,2.19,1.83,3.14,2.89A.52.52,0,0,0,19.29,16.91Z" fill="#b4a6da"/>
        <path d="M11.17,25a1.1,1.1,0,0,1-1.4.07c-.86-.52-1.78-.95-2.67-1.42a1.93,1.93,0,0,1,.37-1.13c.24-.44.48-.88.7-1.33q.88-1.78,1.74-3.57a.47.47,0,0,1,.53-.27c0,.24,0,.48,0,.71v4.61c0,.76-.17,1.58.65,2.1C11.15,24.77,11.15,24.89,11.17,25Z" fill="#6c608a"/>
        <path d="M10.33.19c.19.16.12.38.12.57v13c0,.34,0,.68,0,1h-.19a5.85,5.85,0,0,0-.91-.51,2.81,2.81,0,0,0,.09-.49q0-5.41,0-10.83c0-.23,0-.41-.32-.43Z" fill="#a192c9"/>
        <path d="M10.44,14.8v-1a.36.36,0,0,0,.24-.16c1.43-1.61,2.94-3.16,4.43-4.71.57,1,1.12,2,1.61,3a7,7,0,0,0-2.13.92l-1.92.91c-.79.25-1.42.84-2.24,1Z" fill="#bcb0dd"/>
        <path d="M9.34,14.28a5.85,5.85,0,0,1,.91.51c-.11.5-.65.36-.92.61l-1.41.71c0-.37-.25-.44-.51-.52L3.63,14.32c-.19-.06-.4-.09-.51-.29a11.94,11.94,0,0,1,1.13-2.19,9.39,9.39,0,0,1,1.41.64,7.71,7.71,0,0,0,1.55.69c.32.2.59.5,1,.51A4.64,4.64,0,0,0,9.34,14.28Z" fill="#7d719f"/>
        <path d="M9.33,15.4c.27-.25.81-.11.92-.61h.19l0,.18v2l0,.3a.47.47,0,0,0-.53.27q-.86,1.79-1.74,3.57c-.22.45-.46.89-.7,1.33a1.93,1.93,0,0,0-.37,1.13,7.54,7.54,0,0,1-1.41-.73,1.24,1.24,0,0,1,.22-.8c.26-.41.45-.86.67-1.29.79-1.57,1.57-3.15,2.37-4.71C9.06,15.85,9.32,15.69,9.33,15.4Z" fill="#6f638f"/>
        <path d="M9.34,14.28a4.64,4.64,0,0,1-1.12-.6V5.28c0-.2.13-.52-.28-.52.37-.75.74-1.51,1.18-2.23.27,0,.32.2.32.43q0,5.42,0,10.83A2.81,2.81,0,0,1,9.34,14.28Z" fill="#998bc0"/>
        <path d="M.2,20.1C0,20,0,19.89.06,19.71l2.45-4.57a.56.56,0,0,0,.38.29l2.91,1c.22.07.47.11.5.42a3.52,3.52,0,0,1-.72.43A7.7,7.7,0,0,0,4,18.13a1.78,1.78,0,0,0-.38.1c-.88.43-1.76.85-2.63,1.32C.69,19.69.25,19.65.2,20.1Z" fill="#887bad"/>
        <path d="M9.33,15.4c0,.29-.27.45-.38.69-.8,1.56-1.58,3.14-2.37,4.71-.22.43-.41.88-.67,1.29a1.24,1.24,0,0,0-.22.8,7,7,0,0,1-1.42-.72.9.9,0,0,1,.12-.53c.69-1.38,1.39-2.76,2.07-4.15.15-.29.46-.5.44-.88l1-.5Z" fill="#736793"/>
        <path d="M7.21,13.17a7.71,7.71,0,0,1-1.55-.69,9.39,9.39,0,0,0-1.41-.64c.82-1.71,1.7-3.4,2.65-5,.4,0,.3.28.3.49C7.21,9.24,7.21,11.21,7.21,13.17Z" fill="#887bad"/>
        <path d="M10.45,19.85V18a.37.37,0,0,1,.15,0c1.81,1.23,3.61,2.48,5.43,3.71a.56.56,0,0,1,.29.58,9.41,9.41,0,0,1-1.42.71c0-.22-.11-.32-.27-.43-.37-.23-.72-.5-1.08-.74Z" fill="#8276a6"/>
        <path d="M6.9,16.61c0,.38-.29.59-.44.88-.68,1.39-1.38,2.77-2.07,4.15a.9.9,0,0,0-.12.53,8.08,8.08,0,0,1-1.52-.78.84.84,0,0,1,.09-.81,6.71,6.71,0,0,0,.42-.85,6.17,6.17,0,0,0,.7-1.6,7.7,7.7,0,0,1,1.62-.88,3.52,3.52,0,0,0,.72-.43Z" fill="#786c99"/>
        <path d="M7.21,13.17c0-2,0-3.93,0-5.89,0-.21.1-.51-.3-.49a15.53,15.53,0,0,1,1-2c.41,0,.27.32.28.52v8.4C7.8,13.67,7.53,13.37,7.21,13.17Z" fill="#9083b7"/>
        <path d="M10.46,16c0-.35,0-.69,0-1a1.92,1.92,0,0,1,.89.32c.38.68,1.1,1,1.69,1.38,1.89,1.33,3.81,2.6,5.73,3.89a.52.52,0,0,1,.28.39c-.33,0-.5.36-.81.41A.44.44,0,0,0,18,21l-1.08-.75c-1.47-1-2.93-2-4.41-3A8.53,8.53,0,0,0,10.46,16Z" fill="#9889b9"/>
        <path d="M10.46,16a8.53,8.53,0,0,1,2.06,1.25c1.48,1,2.94,2,4.41,3L18,21a.44.44,0,0,1,.24.36,4.39,4.39,0,0,1-.91.48c0-.26-.16-.37-.35-.5-1.63-1.1-3.24-2.22-4.87-3.31a7.27,7.27,0,0,0-1.66-1Z" fill="#9083b7"/>
        <path d="M10.46,17a7.27,7.27,0,0,1,1.66,1c1.63,1.09,3.24,2.21,4.87,3.31.19.13.37.24.35.5l-1,.51a.56.56,0,0,0-.29-.58c-1.82-1.23-3.62-2.48-5.43-3.71a.37.37,0,0,0-.15,0c0-.23,0-.47,0-.71Z" fill="#887bad"/>
        <path d="M14.6,12.87A7,7,0,0,1,16.73,12c.9,1.63,1.8,3.26,2.56,5a.52.52,0,0,1-.42-.16c-.95-1.06-2.14-1.87-3.14-2.89A13.34,13.34,0,0,0,14.6,12.87Z" fill="#b6a9db"/>
        <path d="M15.12,8.91c-1.49,1.55-3,3.1-4.43,4.71a.36.36,0,0,1-.24.16V12.06c.21,0,.32-.17.45-.3l3.65-3.88A2.55,2.55,0,0,1,15.12,8.91Z" fill="#b6a9db"/>
        <path d="M19.06,21a.52.52,0,0,0-.28-.39c-1.92-1.29-3.84-2.56-5.73-3.89-.59-.42-1.31-.7-1.69-1.38a1,1,0,0,1,.24.07l4.62,2.36c0,.24.2.29.35.39.78.54,1.58,1.07,2.35,1.63.33.24.75.39.94.8A2.64,2.64,0,0,1,19.06,21Z" fill="#998bc0"/>
        <path d="M6.9,16.61l-.6.21c0-.31-.28-.35-.5-.42l-2.91-1a.56.56,0,0,1-.38-.29A3.35,3.35,0,0,1,3.12,14c.11.2.32.23.51.29l3.78,1.27c.26.08.54.15.51.52Z" fill="#8276a6"/>
        <path d="M4,18.13a6.17,6.17,0,0,1-.7,1.6,6.71,6.71,0,0,1-.42.85.84.84,0,0,0-.09.81A24.37,24.37,0,0,1,.2,20.1c0-.45.49-.41.75-.55.87-.47,1.75-.89,2.63-1.32A1.78,1.78,0,0,1,4,18.13Z" fill="#7d719f"/>
        <path d="M10.45,21.58v-1A28.6,28.6,0,0,1,13,22.24a5.35,5.35,0,0,1,1.43,1.07,2.24,2.24,0,0,1-1,.49c0-.12,0-.25-.1-.32C12.32,22.88,11.45,22.14,10.45,21.58Z" fill="#786c99"/>
        <path d="M11.17,25c0-.08,0-.2-.07-.23-.82-.52-.65-1.34-.65-2.1v-.25a17.21,17.21,0,0,1,2.13,1.38.39.39,0,0,1,.2.33A6.76,6.76,0,0,1,11.17,25Z" fill="#6f638f"/>
        <path d="M14.42,23.31A5.35,5.35,0,0,0,13,22.24a28.6,28.6,0,0,0-2.54-1.68v-.71l3.1,2c.36.24.71.51,1.08.74.16.11.31.21.27.43S14.55,23.17,14.42,23.31Z" fill="#7d719f"/>
        <path d="M19.86,20.55c-.19-.41-.61-.56-.94-.8-.77-.56-1.57-1.09-2.35-1.63-.15-.1-.35-.15-.35-.39a2.44,2.44,0,0,1,.64.28,10.21,10.21,0,0,0,1.39.63,12.11,12.11,0,0,0,2.55,1.2h0v.24A4.35,4.35,0,0,1,19.86,20.55Z" fill="#a192c9"/>
        <path d="M12.78,24.1a.39.39,0,0,0-.2-.33,17.21,17.21,0,0,0-2.13-1.38v-.81c1,.56,1.87,1.3,2.84,1.9.11.07.1.2.1.32C13.18,23.89,13.05,24.13,12.78,24.1Z" fill="#736793"/>
        <path d="M20.8,20.08v-.24s.12.06.13.1S20.87,20.06,20.8,20.08Z" fill="#b4a6da"/>
        <path d="M18.25,18.64A10.21,10.21,0,0,1,16.86,18a2.44,2.44,0,0,0-.64-.28L11.6,15.37a1,1,0,0,0-.24-.07,1.92,1.92,0,0,0-.89-.32l0-.18c.82-.18,1.45-.77,2.24-1a63.46,63.46,0,0,1,5.1,4.45C17.94,18.36,18.22,18.36,18.25,18.64Z" fill="#afa0d8"/>
      </g>
    </symbol>
  </defs>
  <rect id="Figment_lido" x="-1.22" y="-1.06" width="252.5" height="252.5" transform="translate(-0.16 250.22) rotate(-90)" fill="#13273f"/>
  <use width="20.94" height="25.26" transform="translate(54.88 40.41) scale(6.7)" xlink:href="#Stakewise"/>
</svg>
