<svg id="Capa_1" data-name="Capa 1" xmlns="http://www.w3.org/2000/svg" xmlns:xlink="http://www.w3.org/1999/xlink" width="250" height="250" viewBox="0 0 250 250">
  <defs>
    <symbol id="Staking_facilities" data-name="Staking facilities" viewBox="0 0 27.66 21.27">
      <path d="M0,11.22c0-.45,0-.84,0-1.23,0-.07.15-.18.23-.19l4.93-.43C6.41,9.26,7.64,9.13,8.86,9a15.24,15.24,0,0,1,2.33-.13c1.23.1,2.44.32,3.65.49l4.23.59.56.09v1.15L18,11.13,15.65,11c-1.12-.07-2.24-.15-3.36-.19s-2.18,0-3.27,0-2,.09-3,.14l-4,.23Z" fill="#fff"/>
      <path d="M0,9.3V8l3.29-.52,5.39-.82,2.92-.45a1.1,1.1,0,0,1,.44,0l7.27,2.12c.24.07.34.17.32.42s0,.49,0,.78a2.33,2.33,0,0,1-.3,0c-2.49-.48-5-1-7.49-1.43a5.07,5.07,0,0,0-1.4,0c-1.39.14-2.78.3-4.18.46L2.75,9Z" fill="#fff"/>
      <path d="M19.65,17.45c0,.38,0,.72,0,1.06,0,.08-.14.2-.24.22l-3.58.76L7.43,21.25a1,1,0,0,1-.6-.08C4.63,20.12,2.45,19.05.26,18A.38.38,0,0,1,0,17.57c0-.25,0-.49,0-.79l.34.11c2.21.84,4.42,1.69,6.63,2.51a1.59,1.59,0,0,0,.81,0c2.3-.37,4.58-.75,6.87-1.14l4.78-.79Z" fill="#fff"/>
      <path d="M0,7.29c0-.35,0-.68,0-1,0-.08.19-.18.3-.2l4.33-.91,7.62-1.56a1,1,0,0,1,.6.08c2.18,1,4.35,2.08,6.53,3.12a.36.36,0,0,1,.25.39c0,.25,0,.5,0,.81l-.58-.2L12.65,5.44a.92.92,0,0,0-.37,0L2.62,6.94.33,7.29Z" fill="#fff"/>
      <path d="M9.78,13.31,2,13.05c-.57,0-1.13,0-1.7,0-.2,0-.28-.08-.28-.29,0-.91,0-.92.88-1,1.79-.06,3.58-.09,5.37-.14,1.1,0,2.2-.09,3.31-.1s2,0,3.08.06l5,.15,1.74,0c.18,0,.26.07.26.27,0,1.15.21.94-.93,1-2.83.11-5.66.16-8.48.24Z" fill="#fff"/>
      <path d="M19.65,13.61c0,.37,0,.69,0,1a.36.36,0,0,1-.26.23c-.74.11-1.48.19-2.22.27l-3.93.45c-1.43.17-2.86.38-4.3.49a8.09,8.09,0,0,1-1.74-.24L1.93,15,.26,14.73c-.18,0-.26-.1-.25-.29s0-.51,0-.82l1.65.1,2.88.22c1.23.09,2.46.2,3.69.25.81,0,1.62,0,2.43,0,1.2-.05,2.4-.13,3.6-.21l3.39-.22Z" fill="#fff"/>
      <path d="M0,15.23l2.64.55c1.74.38,3.48.78,5.24,1.11a5.5,5.5,0,0,0,1.55-.12l4.15-.51,3.78-.47c.69-.09,1.38-.19,2.07-.26.06,0,.14.12.21.18a.08.08,0,0,1,0,.07c0,.31.1.69,0,.9s-.54.18-.83.22L11.93,18c-1.2.2-2.4.41-3.61.6a1.64,1.64,0,0,1-.66,0c-2.44-.69-4.87-1.4-7.31-2.1C.08,16.42,0,16.3,0,16S0,15.54,0,15.23Z" fill="#fff"/>
      <g>
        <path d="M24.68,8.5a2.92,2.92,0,0,1-2.62-1.61,2.89,2.89,0,0,1,.11-3c.06-.1.1-.1.2-.05l2.16,1.27a.27.27,0,0,0,.32,0L27,3.89c.11-.07.15-.05.21,0a3,3,0,0,1-2.12,4.52Z" fill="#fff"/>
        <path d="M24.69,0,26,2c.25.4.5.8.76,1.19.06.1.05.14,0,.19l-1.89,1.1a.17.17,0,0,1-.19,0l-1.9-1.11c-.06,0-.11-.06-.05-.15C23.32,2.15,24,1.09,24.69,0Zm0,.88a.18.18,0,0,0-.05.07l-1.35,2.1c-.05.08,0,.1,0,.14l1.28.74a.15.15,0,0,0,.19,0l1-.59c.11-.06.29-.12.31-.21s-.11-.21-.18-.32c-.38-.61-.77-1.21-1.16-1.81C24.75,1,24.74.9,24.68.88Z" fill="#fff"/>
      </g>
    </symbol>
  </defs>
  <rect id="Figment_lido" x="-1.22" y="-1.06" width="252.5" height="252.5" transform="translate(-0.16 250.22) rotate(-90)" fill="#063771"/>
  <use width="27.66" height="21.27" transform="translate(33.58 54.7) scale(6.61)" xlink:href="#Staking_facilities"/>
</svg>
