<svg id="Capa_1" data-name="Capa 1" xmlns="http://www.w3.org/2000/svg" xmlns:xlink="http://www.w3.org/1999/xlink" width="250" height="250" viewBox="0 0 250 250">
  <defs>
    <symbol id="Stake_fish_2" data-name="Stake fish 2" viewBox="0 0 29.08 18.45">
      <path d="M7.75,7.91a8.31,8.31,0,0,0-4.37,2.9c-.12.14-.08.24,0,.36a9.3,9.3,0,0,0,1.25,1.26,7,7,0,0,0,4.83,1.79h0l.48-.05a7.23,7.23,0,0,1,.18-6.36l-.63-.06A5.49,5.49,0,0,0,7.75,7.91Z" fill="none"/>
      <path d="M10,14.17a.83.83,0,0,0,.22,0,7.81,7.81,0,0,0,4.67-2.93.3.3,0,0,0,0-.46,9.12,9.12,0,0,0-2.22-2,6.33,6.33,0,0,0-2.49-1A7.23,7.23,0,0,0,10,14.17Zm2.37-3.9a.72.72,0,1,1,0,1.43.72.72,0,1,1,0-1.43Z" fill="#9be52c"/>
      <path d="M16.59,3.89A7.24,7.24,0,0,0,11,6.51,7.86,7.86,0,0,1,13.63,7.7a11.2,11.2,0,0,1,2.95,3.07.32.32,0,0,1,0,.4,10.07,10.07,0,0,1-4.82,4.06c-.33.12-.68.2-1,.29A7.28,7.28,0,1,0,16.59,3.89Z" fill="#9ce62d"/>
      <path d="M9.48,14.22h0a7,7,0,0,1-4.83-1.79A9.3,9.3,0,0,1,3.4,11.17c-.1-.12-.14-.22,0-.36a8.31,8.31,0,0,1,4.37-2.9,5.49,5.49,0,0,1,1.76-.16l.63.06A6.42,6.42,0,0,1,11,6.51l-.54-.13a7.79,7.79,0,0,0-3.19.16,9.07,9.07,0,0,0-4.66,3c-.16.18-.22.19-.34,0a13.34,13.34,0,0,1-.94-2.28.71.71,0,0,0-.85-.58.74.74,0,0,0-.45,1A12.31,12.31,0,0,0,1.37,10.7a.45.45,0,0,1,0,.56,12.38,12.38,0,0,0-1.32,3,.7.7,0,0,0,.46.89.66.66,0,0,0,.84-.48,14,14,0,0,1,.92-2.23c.13-.25.2-.23.37,0a9.48,9.48,0,0,0,3.23,2.49,8,8,0,0,0,4.6.67l.28-.07A7,7,0,0,1,10,14.17Z"/>
      <path d="M16.59,11.17a.32.32,0,0,0,0-.4A11.2,11.2,0,0,0,13.63,7.7,7.86,7.86,0,0,0,11,6.51a6.42,6.42,0,0,0-.87,1.3,6.33,6.33,0,0,1,2.49,1,9.12,9.12,0,0,1,2.22,2,.3.3,0,0,1,0,.46,7.81,7.81,0,0,1-4.67,2.93.83.83,0,0,1-.22,0,7,7,0,0,0,.79,1.35c.34-.09.69-.17,1-.29A10.07,10.07,0,0,0,16.59,11.17Z"/>
      <path d="M12.31,11.7a.72.72,0,1,0-.72-.71A.73.73,0,0,0,12.31,11.7Z"/>
      <g>
        <path d="M26.11,8.49a2.92,2.92,0,0,1-2.62-1.61,2.87,2.87,0,0,1,.11-2.95c.06-.11.1-.11.2-.05L26,5.14a.27.27,0,0,0,.31,0c.71-.42,1.43-.83,2.14-1.26.11-.06.15,0,.22.06a3,3,0,0,1-2.12,4.51Z" fill="#00a2fd"/>
        <path d="M26.11,0l1.27,2c.25.4.5.8.76,1.19.06.09.05.13,0,.18l-1.89,1.1a.17.17,0,0,1-.19,0l-1.9-1.11c-.06,0-.11-.06-.05-.14Zm0,.88L26.05,1,24.7,3.05c-.05.08,0,.1.05.13L26,3.93a.19.19,0,0,0,.19,0l1-.59c.11-.07.29-.12.31-.21s-.11-.22-.18-.32C27,2.19,26.58,1.59,26.2,1,26.17,1,26.16.9,26.1.88Z" fill="#009ff9"/>
      </g>
    </symbol>
  </defs>
  <rect id="Figment_lido" x="-1.22" y="-1.06" width="252.5" height="252.5" transform="translate(-0.16 250.22) rotate(-90)" fill="#fff"/>
  <use width="29.08" height="18.45" transform="translate(26.18 62.29) scale(6.8)" xlink:href="#Stake_fish_2"/>
</svg>
