<svg id="Capa_1" data-name="Capa 1" xmlns="http://www.w3.org/2000/svg" xmlns:xlink="http://www.w3.org/1999/xlink" width="250" height="250" viewBox="0 0 250 250">
  <defs>
    <symbol id="Stakely" data-name="Stakely" viewBox="0 0 88.85 98.72">
      <path d="M5.25,76.62C8.92,77.75,12.44,79,16,79.9a44.28,44.28,0,0,0,18,1.19,15.67,15.67,0,0,0,3.42-1A7.23,7.23,0,0,0,40.3,68.4c-2-2.39-4.75-3.71-7.54-4.94-1.14-.5-2.31-.9-3.46-1.37-1.85-.78-2.35-2.42-1-3.87,3.07-3.36,6.16-6.69,9.37-9.91A5.5,5.5,0,0,1,43.81,47c6.27,2.46,11.67,6.1,15.47,11.83,2.23,3.35,3,7.17,3.4,11.05.61,5.69.11,11.26-2.8,16.36-3.37,5.89-8.76,9-15.14,10.53A69,69,0,0,1,1.22,93.08c-1.21-.51-1.47-1-1-2.26,1.59-4.31,3.05-8.67,4.56-13C4.94,77.37,5.13,76.94,5.25,76.62Z" fill="#fff"/>
      <path d="M58.91,14.69,53.2,30.33C50,29.16,47.09,27.89,44,27c-5.13-1.5-10.35-2.25-15.71-1.15-3.23.66-5.66,2.22-6.43,5.6a7.28,7.28,0,0,0,3,8,36.06,36.06,0,0,0,6.25,3.35c2.3,1,2.73,2.3,1,4.18-2.43,2.7-4.85,5.39-7.39,8A8.08,8.08,0,0,1,15,56.48,25,25,0,0,1,2.56,26c2.09-6.43,6.65-10.67,12.65-13.42C23.09,9,31.4,8.44,39.87,9.45a66.8,66.8,0,0,1,17.24,4.44C57.65,14.11,58.18,14.37,58.91,14.69Z" fill="#f89367"/>
      <g>
        <path d="M76.89,34.11c-4.69-.23-8.33-2.26-10.52-6.45a11.55,11.55,0,0,1,.45-11.88c.24-.41.41-.42.8-.19,2.89,1.71,5.8,3.37,8.68,5.08a1,1,0,0,0,1.26,0c2.86-1.69,5.75-3.35,8.61-5,.45-.26.61-.17.86.22A11.93,11.93,0,0,1,78.51,34C78,34,77.43,34.06,76.89,34.11Z" fill="#fff"/>
        <path d="M76.92,0,82,8c1,1.59,2,3.19,3.06,4.76.25.39.18.54-.18.75-2.54,1.46-5.06,2.93-7.59,4.42a.68.68,0,0,1-.78,0L68.9,13.44c-.25-.14-.42-.24-.2-.58C71.42,8.62,74.14,4.36,76.92,0Zm0,3.53-.2.27-5.42,8.47c-.2.3,0,.39.18.52,1.72,1,3.43,2,5.14,3a.68.68,0,0,0,.77,0l4-2.36c.45-.27,1.16-.47,1.25-.83s-.44-.88-.72-1.31Q79.6,7.6,77.26,4C77.17,3.81,77.12,3.61,76.88,3.53Z" fill="#fff"/>
      </g>
    </symbol>
  </defs>
  <rect id="Figment_lido" x="-1.22" y="-1.06" width="252.5" height="252.5" transform="translate(-0.16 250.22) rotate(-90)" fill="#37506f"/>
  <use width="88.85" height="98.72" transform="translate(41.86 32.63) scale(1.87)" xlink:href="#Stakely"/>
</svg>
