<svg id="Capa_1" data-name="Capa 1" xmlns="http://www.w3.org/2000/svg" xmlns:xlink="http://www.w3.org/1999/xlink" width="250" height="250" viewBox="0 0 250 250">
  <defs>
    <symbol id="Staked.us" data-name="Staked.us" viewBox="0 0 9.94 10.88">
      <path d="M3.22,9.57l.85-.76a2.75,2.75,0,0,0,2.62.78,2.44,2.44,0,0,0,1.5-1,2.52,2.52,0,0,0-.14-3.35C7,4,5.68,4.05,4.05,5.18l-.82-.74A3.7,3.7,0,0,1,7,3.21a3.89,3.89,0,0,1,.35,7.47A3.76,3.76,0,0,1,3.22,9.57Z" fill="#fff"/>
      <path d="M6.8,1.29l-.88.79a2.87,2.87,0,0,0-2.39-.83,2.7,2.7,0,0,0-1.7,1,2.72,2.72,0,0,0,.26,3.62,2.74,2.74,0,0,0,3.82-.13l.85.75A3.81,3.81,0,0,1,1.53,7,3.85,3.85,0,0,1,1,1.29,3.87,3.87,0,0,1,6.8,1.29Z" fill="#fff"/>
    </symbol>
  </defs>
  <rect id="Figment_lido" x="-1.22" y="-1.06" width="252.5" height="252.5" transform="translate(-0.16 250.22) rotate(-90)" fill="#071a36"/>
  <use width="9.94" height="10.88" transform="translate(52.51 45.64) scale(14.59)" xlink:href="#Staked.us"/>
</svg>
