<svg id="Capa_1" data-name="Capa 1" xmlns="http://www.w3.org/2000/svg" xmlns:xlink="http://www.w3.org/1999/xlink" width="250" height="250" viewBox="0 0 250 250">
  <defs>
    <symbol id="Stake_fish" data-name="Stake fish" viewBox="0 0 37.81 23.06">
      <path d="M12.28,6.37A13.11,13.11,0,0,0,5.35,11c-.18.22-.12.38,0,.57a15.51,15.51,0,0,0,2,2A11.22,11.22,0,0,0,15,16.36h0l.75-.08a11.56,11.56,0,0,1-1-4.75A11.39,11.39,0,0,1,16.06,6.2a8.26,8.26,0,0,0-1-.09A8.38,8.38,0,0,0,12.28,6.37Z" fill="none"/>
      <path d="M15.77,16.28a2.23,2.23,0,0,0,.36-.05,12.41,12.41,0,0,0,7.4-4.64.5.5,0,0,0,0-.74A14.77,14.77,0,0,0,20,7.72a10.06,10.06,0,0,0-4-1.52,11.39,11.39,0,0,0-1.31,5.33A11.56,11.56,0,0,0,15.77,16.28Zm3.75-6.19a1.14,1.14,0,1,1-1.16,1.15A1.16,1.16,0,0,1,19.52,10.09Z" fill="#9be52c"/>
      <path d="M26.28,0a11.52,11.52,0,0,0-8.85,4.14A12.64,12.64,0,0,1,21.59,6a17.85,17.85,0,0,1,4.67,4.86.51.51,0,0,1,0,.64A15.87,15.87,0,0,1,18.65,18a15.15,15.15,0,0,1-1.63.46A11.53,11.53,0,1,0,26.28,0Z" fill="#9ce62d"/>
      <path d="M15,16.36h0a11.22,11.22,0,0,1-7.66-2.83,15.51,15.51,0,0,1-2-2c-.16-.19-.22-.35,0-.57a13.11,13.11,0,0,1,6.93-4.59,8.38,8.38,0,0,1,2.78-.26,8.26,8.26,0,0,1,1,.09,11,11,0,0,1,1.37-2.06c-.28-.08-.56-.14-.85-.2a12.13,12.13,0,0,0-5,.25A14.41,14.41,0,0,0,4.15,9c-.25.28-.35.3-.54-.06A20.32,20.32,0,0,1,2.12,5.28,1.14,1.14,0,0,0,.77,4.36,1.2,1.2,0,0,0,.06,5.92a19.64,19.64,0,0,0,2.12,4.86.74.74,0,0,1,0,.88A19.82,19.82,0,0,0,.07,16.47a1.12,1.12,0,0,0,.74,1.41,1.05,1.05,0,0,0,1.33-.77A21.23,21.23,0,0,1,3.6,13.59c.21-.41.32-.36.58-.06a15.23,15.23,0,0,0,5.11,3.93,12.62,12.62,0,0,0,7.29,1.06l.44-.11a12.52,12.52,0,0,1-1.25-2.13Z"/>
      <path d="M26.28,11.53a.51.51,0,0,0,0-.64A17.85,17.85,0,0,0,21.59,6a12.64,12.64,0,0,0-4.16-1.89A11,11,0,0,0,16.06,6.2a10.06,10.06,0,0,1,4,1.52,14.77,14.77,0,0,1,3.51,3.13.5.5,0,0,1,0,.74,12.41,12.41,0,0,1-7.4,4.64,2.23,2.23,0,0,1-.36.05A12.52,12.52,0,0,0,17,18.41,15.15,15.15,0,0,0,18.65,18,15.87,15.87,0,0,0,26.28,11.53Z"/>
      <path d="M19.49,12.37a1.14,1.14,0,1,0-1.13-1.13A1.17,1.17,0,0,0,19.49,12.37Z"/>
    </symbol>
  </defs>
  <rect id="Figment_lido" x="-1.22" y="-1.06" width="252.5" height="252.5" transform="translate(-0.16 250.22) rotate(-90)" fill="#fff"/>
  <use width="37.81" height="23.06" transform="translate(30.05 67.09) scale(5.02)" xlink:href="#Stake_fish"/>
</svg>
