<svg id="Capa_1" data-name="Capa 1" xmlns="http://www.w3.org/2000/svg" xmlns:xlink="http://www.w3.org/1999/xlink" width="250" height="250" viewBox="0 0 250 250">
  <defs>
    <symbol id="tgerring.eth" data-name="tgerring.eth" viewBox="0 0 22.47 22.47">
      <path d="M0,11.23C0,7.67,0,4.1,0,.54,0,.1.1,0,.54,0,2.23,0,3.93,0,5.62,0V5.6l-.69,0c-2.26,0-2.25,0-2.12,2.28,0,.41.14.55.55.54.75,0,1.51,0,2.26,0v2.75l-2.8,0Z" fill="#a01a37"/>
      <path d="M16.85,0c1.69,0,3.39,0,5.08,0,.44,0,.54.1.54.54,0,3.56,0,7.13,0,10.69l-2.81,0-2.8,0V8.46l.69,0c2.26,0,2.25,0,2.12-2.27,0-.42-.14-.55-.55-.54-.76,0-1.51,0-2.26,0Z" fill="#a01a37"/>
      <path d="M8.43,0H14l0,5.62,0,2.78H8.43l0-2.78Z" fill="#a01a37"/>
      <path d="M8.43,0l0,5.62-2.78,0V0Z" fill="#295c7e"/>
      <path d="M14.07,5.63,14,0h2.81V5.6Z" fill="#295c7e"/>
      <path d="M14,22.46H8.43V19.65h5.63Z" fill="#0adc73"/>
      <path d="M0,11.23l2.81,0v2.79H0Z" fill="#295c7e"/>
      <path d="M19.65,11.26l2.81,0V14H19.65Z" fill="#295c7e"/>
      <path d="M0,14h2.8v2.81H0Z" fill="#a01a37"/>
      <path d="M0,16.85h2.8v2.81H0Z" fill="#295c7e"/>
      <path d="M22.46,16.85v2.8H19.64V16.84Z" fill="#295c7e"/>
      <path d="M0,19.65H2.83v2.81c-.82,0-1.64,0-2.46,0-.3,0-.37-.06-.36-.36C0,21.29,0,20.47,0,19.65Z" fill="#a01a37"/>
      <path d="M2.82,22.46V19.67l2.81,0v2.81Z" fill="#0adc73"/>
      <path d="M5.62,22.46V19.65H8.42v2.81Z" fill="#a01a37"/>
      <path d="M22.46,16.85h-2.8V14h2.8Z" fill="#a01a37"/>
      <path d="M14,22.46V19.65h2.79v2.81Z" fill="#a01a37"/>
      <path d="M16.85,22.46V19.65l2.81,0v2.79Z" fill="#0adc73"/>
      <path d="M19.65,22.46V19.65h2.82c0,.82,0,1.64,0,2.46,0,.3-.06.37-.36.36C21.29,22.44,20.47,22.46,19.65,22.46Z" fill="#a01a37"/>
      <path d="M8.43,8.41H14l2.81.05v2.75l-2.81,0H8.43l-2.81,0V8.46Z" fill="#295c7e"/>
      <path d="M5.62,11.21l2.81,0,0,2.78,0,2.81H5.63c0-.72,0-1.44,0-2.16,0-.48-.18-.67-.66-.65-.72,0-1.44,0-2.16,0h0V11.26Z" fill="#0adc73"/>
      <path d="M8.43,8.41l-2.81.05c-.75,0-1.51,0-2.26,0-.41,0-.53-.13-.55-.54-.13-2.27-.14-2.27,2.12-2.28l.69,0,2.78,0Z" fill="#0adc73"/>
      <path d="M14,11.26l2.81,0,2.8,0v2.79h0c-.75,0-1.5,0-2.25,0-.4,0-.57.17-.56.57,0,.75,0,1.49,0,2.24H14L14,14Z" fill="#0adc73"/>
      <path d="M16.85,8.46,14,8.41l0-2.78,2.78,0c.75,0,1.5,0,2.26,0,.41,0,.53.12.55.54.13,2.26.14,2.26-2.12,2.27Z" fill="#0adc73"/>
      <path d="M14.05,19.65H8.43V16.84H14v2.82Z" fill="#a01a37"/>
      <path d="M2.81,14c.72,0,1.44,0,2.16,0,.48,0,.67.17.66.65,0,.72,0,1.44,0,2.16H2.82Z" fill="#295c7e"/>
      <path d="M2.81,16.84H5.62v2.82h0l-2.81,0Z" fill="#a01a37"/>
      <path d="M19.65,19.67l-2.81,0h0V16.84h2.79Z" fill="#a01a37"/>
      <path d="M5.62,19.66V16.84H8.44c0,.94,0,1.88,0,2.82Z" fill="#295c7e"/>
      <path d="M19.66,16.85H16.84c0-.75,0-1.49,0-2.24,0-.4.16-.57.56-.57.75,0,1.5,0,2.25,0Z" fill="#295c7e"/>
      <path d="M16.85,16.84v2.82H14V16.84Z" fill="#295c7e"/>
      <path d="M14,11.26,14,14H8.46l0-2.78Z" fill="#a01a37"/>
      <path d="M8.46,14H14l0,2.81H8.42C8.43,15.91,8.45,15,8.46,14Z" fill="#295c7e"/>
      <path d="M16.79,14l2.81,0v2.81H16.79Z" fill="#295c7e"/>
      <path d="M2.9,14.07l2.81,0v2.81H2.9Z" fill="#295c7e"/>
      <path d="M2.77,5.64l5.63,0v2.8H2.76C2.76,7.5,2.77,6.57,2.77,5.64Z" fill="#0adc73"/>
      <path d="M14.13,5.64l5.63,0v2.8H14.12C14.13,7.5,14.13,6.57,14.13,5.64Z" fill="#0adc73"/>
    </symbol>
  </defs>
  <rect id="Figment_lido" x="-1.22" y="-1.06" width="252.5" height="252.5" transform="translate(-0.16 250.22) rotate(-90)" fill="#fff"/>
  <use width="22.47" height="22.47" transform="translate(45 45) scale(7.12 7.12)" xlink:href="#tgerring.eth"/>
</svg>
