<svg id="Capa_1" data-name="Capa 1" xmlns="http://www.w3.org/2000/svg" xmlns:xlink="http://www.w3.org/1999/xlink" width="250" height="250" viewBox="0 0 250 250">
  <defs>
    <symbol id="Tokenpocket" data-name="Tokenpocket" viewBox="0 0 12.33 7.96">
      <path d="M9.88,3V2.94l0,0,0-.05a.27.27,0,0,1,0-.09c.09-.2,0-.23-.18-.21H9.56a.66.66,0,0,0-.74-.09s0,.06,0,.1h0a.26.26,0,0,0-.22.07c-.21.18-.17.43-.18.65,0,.92,0,1.83,0,2.75a.29.29,0,0,0,.06.24q0,.68,0,1.35c-.16,0-.22.09-.14.24C8.24,8,8.14,8,8,8H6.46A.39.39,0,0,1,6,7.5V3.07a2.73,2.73,0,0,1,.39-1.41c.18,0,.33,0,.29-.24a.23.23,0,0,1,.17-.23c.2-.05.22-.19.2-.36h0A1.63,1.63,0,0,0,7.82.32.15.15,0,0,1,8,.27c.28,0,.54-.13.82-.16s.32.06.45-.1a.76.76,0,0,1,.26,0,.39.39,0,0,0,.2.13c.07,0,.17,0,.21.08s.18.14.3.12a1.48,1.48,0,0,1,.42,0h0l.05,0h0c0,.13.07.21.21.23a.34.34,0,0,1,.27.26s-.08,0-.09,0a0,0,0,0,0,0,0s.06,0,.08-.05a1.08,1.08,0,0,1,.61.68c.06.17.11.2.25.19v0c0,.09,0,.19.1.22h0a.39.39,0,0,0,0,.39.46.46,0,0,1,.07.16,3.3,3.3,0,0,1-.13,1.5,1.17,1.17,0,0,0-.07.25c0,.11,0,.18-.17.18s-.13.06-.12.15a.28.28,0,0,1-.1.27.57.57,0,0,0-.23.47l0,0,0,0-.06,0a.81.81,0,0,0-.38.19,1.51,1.51,0,0,1-.42.25c-.21.06-.49-.08-.6.23,0,0-.08,0-.12,0a.16.16,0,0,0-.13.07.37.37,0,0,1-.18,0c-.28,0-.31-.19-.31-.43,0-.54,0-1.07,0-1.61,0-.23.15-.33.36-.24s.13,0,.15,0c.07-.2.28-.35.23-.6V3.28C10,3.19,10,3.11,9.88,3Zm1.69,1.54c0-.06,0-.14-.07-.14s-.05.07-.06.12-.06.17,0,.25.06,0,.07,0A.42.42,0,0,0,11.57,4.56Zm.12-2.78,0,0s0,0,0,0,0,0,0,0ZM9.86,3.87s0,0,0,0l0,0,0,0S9.87,3.88,9.86,3.87ZM9.83.4a0,0,0,0,0,0,0s0,0,0,0,0,0,0,0Zm1,5.17v0h0v0Zm.55-.51s0,0,0,0h0v0S11.36,5.06,11.35,5.06Z" fill="#fcfdfd"/>
      <path d="M4.18,5V7.43c0,.41-.12.53-.51.53H2.31c-.37,0-.49-.12-.49-.5,0-1.64,0-3.28,0-4.91,0-.22-.06-.28-.27-.27-.36,0-.73,0-1.09,0S0,2.15,0,1.83V.44C0,.14.14,0,.43,0H4.88A1.14,1.14,0,0,1,6,1.14,1.16,1.16,0,0,1,4.91,2.28a2.57,2.57,0,0,1-.48,0c-.22,0-.25.07-.25.26,0,.81,0,1.63,0,2.45Z" fill="#fbfdfd"/>
      <path d="M9.87,3.37c.05.25-.16.4-.23.6,0,0-.07.07-.15,0s-.36,0-.36.24c0,.54,0,1.07,0,1.61,0,.24,0,.41.31.43h0c-.64.06-.67,0-.67-.6s0-1.1,0-1.64c0-.18,0-.27.25-.22A.73.73,0,0,0,9.87,3.37Z" fill="#fbfdfd"/>
      <path d="M11.4,5.38a.57.57,0,0,1,.23-.47.28.28,0,0,0,.1-.27c0-.09,0-.16.12-.15s.15-.07.17-.18a1.17,1.17,0,0,1,.07-.25,3.3,3.3,0,0,0,.13-1.5.46.46,0,0,0-.07-.16.39.39,0,0,1,0-.39A3.11,3.11,0,0,1,11.4,5.38Z" fill="#fbfdfd"/>
      <path d="M8.45,6.26A.29.29,0,0,1,8.39,6c0-.92,0-1.83,0-2.75,0-.22,0-.47.18-.65a.26.26,0,0,1,.22-.07.94.94,0,0,0-.32.85c0,.92,0,1.84,0,2.76A.29.29,0,0,1,8.45,6.26Z" fill="#fbfdfd"/>
      <path d="M11.14.88a.34.34,0,0,0-.27-.26c-.14,0-.19-.1-.21-.23A2.9,2.9,0,0,1,12,1.75c-.14,0-.19,0-.25-.19a1.08,1.08,0,0,0-.61-.68Z" fill="#fbfdfd"/>
      <path d="M9.61,6.28a.16.16,0,0,1,.13-.07s.11,0,.12,0c.11-.31.39-.17.6-.23a1.51,1.51,0,0,0,.42-.25.81.81,0,0,1,.38-.19A2.85,2.85,0,0,1,9.61,6.28Z" fill="#fbfdfd"/>
      <path d="M10.61.35a1.48,1.48,0,0,0-.42,0c-.12,0-.23,0-.3-.12S9.75.18,9.68.15A.39.39,0,0,1,9.48,0,2.79,2.79,0,0,1,10.61.35Z" fill="#fbfdfd"/>
      <path d="M7.07.83c0,.17,0,.31-.2.36a.23.23,0,0,0-.17.23c0,.25-.11.25-.29.24A2.14,2.14,0,0,1,7.07.83Z" fill="#fbfdfd"/>
      <path d="M9.22,0c-.13.16-.3.08-.45.1S8.23.26,8,.27A2.42,2.42,0,0,1,9.22,0Z" fill="#fbfdfd"/>
      <path d="M7.82.32a1.63,1.63,0,0,1-.75.51A2.13,2.13,0,0,1,7.82.32Z" fill="#fbfdfd"/>
      <path d="M8.79,2.55s0-.08,0-.1a.66.66,0,0,1,.74.09A.84.84,0,0,0,8.79,2.55Z" fill="#fbfdfd"/>
      <path d="M9.56,2.54h.09c.17,0,.27,0,.18.21a.27.27,0,0,0,0,.09Z" fill="#fbfdfd"/>
      <path d="M8.31,7.85c-.08-.15,0-.22.14-.24A.26.26,0,0,1,8.31,7.85Z" fill="#fbfdfd"/>
      <path d="M9.88,3c.09.09.12.17,0,.26Z" fill="#fbfdfd"/>
      <path d="M12.11,2C12,2,12,1.88,12,1.79A.49.49,0,0,1,12.11,2Z" fill="#fbfdfd"/>
      <path d="M10.67.39l-.05,0Z" fill="#fbfdfd"/>
      <path d="M9.85,2.89l0,0Z" fill="#fbfdfd"/>
      <path d="M11.32,5.47l0,0Z" fill="#fbfdfd"/>
      <path d="M11.57,4.56a.42.42,0,0,1-.07.24s-.05,0-.07,0,0-.17,0-.25,0-.12.06-.12S11.57,4.5,11.57,4.56Z" fill="#fbfdfd"/>
      <path d="M11.69,1.78l0,0s0,0,0,0,0,0,0,0Z" fill="#fbfdfd"/>
      <path d="M9.86,3.87s0,0,0,0l0,0,0,0S9.83,3.87,9.86,3.87Z" fill="#fbfdfd"/>
      <path d="M9.83.4l0,0s0,0,0,0,0,0,0,0A0,0,0,0,1,9.83.4Z" fill="#fbfdfd"/>
      <path d="M11.14.88s0,.06-.08.05a0,0,0,0,1,0,0c0-.05.06,0,.09,0Z" fill="#fbfdfd"/>
      <path d="M10.8,5.57h0v0h0Z" fill="#fbfdfd"/>
      <path d="M11.35,5.06s0,0,0,0v0h0S11.35,5.07,11.35,5.06Z" fill="#fbfdfd"/>
    </symbol>
  </defs>
  <rect id="Figment_lido" x="-1.22" y="-1.06" width="252.5" height="252.5" transform="translate(-0.16 250.22) rotate(-90)" fill="#2880fe"/>
  <use width="12.33" height="7.96" transform="translate(35.5 67.26) scale(14.51)" xlink:href="#Tokenpocket"/>
</svg>
