<svg id="Capa_1" data-name="Capa 1" xmlns="http://www.w3.org/2000/svg" xmlns:xlink="http://www.w3.org/1999/xlink" width="250" height="250" viewBox="0 0 250 250">
  <defs>
    <symbol id="Vitalik_2" data-name="Vitalik 2" viewBox="0 0 30.13 33.62">
      <g>
        <path d="M0,24c.09-.24.16-.49.26-.72a3,3,0,0,1,1-1.26.4.4,0,0,0,.19-.38,16.2,16.2,0,0,1,1.86-7.22,13.44,13.44,0,0,1,7.61-6.79,12,12,0,0,1,12.48,2.59,15.11,15.11,0,0,1,4.91,9.18,16.6,16.6,0,0,1,.22,2.64.32.32,0,0,0,.18.32,2.38,2.38,0,0,1,1.15,2.69,2.34,2.34,0,0,1-2.32,1.76c-2.8,0-5.59,0-8.39,0a2.37,2.37,0,0,1-.76-4.63.35.35,0,0,0,.26-.26,3.7,3.7,0,0,1,.91-1.64.25.25,0,0,0,.08-.28A5.08,5.08,0,0,0,16,16.57a4.5,4.5,0,0,0-4.77,1.83A5.46,5.46,0,0,0,10.32,20c-.06.15,0,.21.1.3A2.25,2.25,0,0,1,11.51,22c0,.16.1.2.22.26a2.38,2.38,0,0,1-.5,4.53,3.44,3.44,0,0,1-.56,0H2.53A2.35,2.35,0,0,1,.06,25,.47.47,0,0,0,0,24.91Z" fill="#3c122c"/>
        <g>
          <path d="M2.83,10.5a.46.46,0,0,1-.4-.36L2.3,9.8C2.2,9.54,2.11,9.28,2,9a.33.33,0,0,0-.21-.23c-.23-.09-.45-.19-.67-.3l-.3-.14a.46.46,0,0,1,0-.87l.36-.17L1.84,7A.28.28,0,0,0,2,6.81c.07-.21.15-.42.23-.63l.17-.46a.48.48,0,0,1,.41-.4h0a.49.49,0,0,1,.45.38l0,.12c.12.33.24.65.34,1A.33.33,0,0,0,3.89,7l.86.38c.18.07.42.18.43.48a.51.51,0,0,1-.37.48l-.2-.15.1.2a1.62,1.62,0,0,1-.33.13c-.59.12-.8.54-.95,1.12,0,.12-.08.24-.12.36l-.05.13a.47.47,0,0,1-.38.32h0Z" fill="#f5df6e"/>
          <path d="M2.85,5.54c.15,0,.19.15.23.26.13.35.26.71.37,1.07a.57.57,0,0,0,.36.38c.29.11.57.24.85.37.13.06.29.11.3.28s-.17.25-.31.31a1.27,1.27,0,0,1-.32.13A1.49,1.49,0,0,0,3.21,9.63a3.57,3.57,0,0,1-.16.46.26.26,0,0,1-.21.19c-.13,0-.17-.11-.21-.21C2.5,9.7,2.35,9.32,2.23,9a.53.53,0,0,0-.34-.36c-.33-.13-.64-.29-.95-.44-.1-.05-.18-.1-.19-.23s.08-.19.18-.24l1-.47a.5.5,0,0,0,.3-.33c.12-.37.26-.73.39-1.09,0-.12.09-.24.22-.25h0m0-.44h0a.7.7,0,0,0-.61.54c-.06.15-.11.3-.17.46s-.16.42-.23.64c0,0,0,.06-.06.07l-.64.3-.37.17a.69.69,0,0,0-.43.64.67.67,0,0,0,.44.63L1,8.69c.23.11.45.22.69.31,0,0,.05,0,.08.09.09.27.19.53.29.8l.12.33a.66.66,0,0,0,.59.5h.11a.71.71,0,0,0,.55-.47l0-.12c0-.13.09-.26.12-.39.16-.61.37-.87.78-1a2.13,2.13,0,0,0,.39-.15l.08,0a.71.71,0,0,0,0-1.36L4,6.84c-.08,0-.08,0-.1-.1-.1-.33-.22-.66-.33-1l0-.11c-.14-.37-.35-.55-.65-.55Z" fill="#3c122c"/>
        </g>
        <g>
          <path d="M25.42,5.39A.47.47,0,0,1,25,5c-.13-.35-.25-.69-.36-1a.49.49,0,0,0-.31-.34,4,4,0,0,1-.64-.28l-.26-.12a.49.49,0,0,1-.33-.46.5.5,0,0,1,.34-.44l.25-.12c.24-.11.49-.23.74-.33a.22.22,0,0,0,.15-.17l.36-1L25,.6a.48.48,0,0,1,.42-.38h0a.47.47,0,0,1,.45.37l.05.15c.12.32.23.65.34,1a.24.24,0,0,0,.15.17c.27.1.53.23.79.35l.2.1a.48.48,0,0,1,.36.44.52.52,0,0,1-.38.49l-.28.13-.55.23A.47.47,0,0,0,26.2,4a8,8,0,0,1-.27.78L25.84,5c-.05.13-.13.36-.39.38Z" fill="#f5df6e"/>
          <path d="M25.41.44c.16,0,.19.14.23.25.13.37.26.73.38,1.1a.42.42,0,0,0,.28.3c.33.13.65.3,1,.45.1,0,.23.08.23.23s-.11.24-.24.3c-.28.12-.55.25-.83.36a.66.66,0,0,0-.45.48c-.1.34-.23.68-.36,1,0,.1-.07.22-.2.24h0c-.16,0-.2-.12-.24-.23-.12-.34-.24-.67-.35-1a.67.67,0,0,0-.45-.49c-.3-.1-.58-.26-.88-.39-.1,0-.2-.11-.2-.25s.11-.2.21-.25c.33-.15.65-.32,1-.45a.42.42,0,0,0,.28-.3c.13-.38.27-.75.41-1.12,0-.11.07-.23.22-.24h0m0-.44h0a.65.65,0,0,0-.61.5l-.06.15c-.12.33-.25.67-.37,1L23.58,2l-.25.12a.71.71,0,0,0-.47.64.69.69,0,0,0,.46.66l.25.12a4.51,4.51,0,0,0,.67.29c.08,0,.12.05.17.2.11.35.24.69.36,1a.67.67,0,0,0,.65.52A.69.69,0,0,0,26,5.1l.1-.27a7.52,7.52,0,0,0,.27-.8.26.26,0,0,1,.19-.19l.55-.24.29-.12a.74.74,0,0,0,.51-.7.67.67,0,0,0-.45-.62L27.26,2c-.26-.12-.53-.25-.8-.36l-.36-1L26.05.54A.66.66,0,0,0,25.41,0Z" fill="#3c122c"/>
        </g>
        <g>
          <path d="M7.89,4.33A1.06,1.06,0,0,1,7.16,4a1.1,1.1,0,0,1-.31-.76A1.09,1.09,0,0,1,7.91,2.21a1.06,1.06,0,0,1,0,2.12Z" fill="#f5df6e"/>
          <path d="M7.91,2.44a.84.84,0,0,1,0,1.67h0a.83.83,0,0,1-.82-.84.85.85,0,0,1,.84-.83h0m0-.45h0A1.31,1.31,0,0,0,6.63,3.27,1.26,1.26,0,0,0,7.89,4.55,1.28,1.28,0,0,0,7.91,2Z" fill="#3c122c"/>
        </g>
        <g>
          <path d="M22.57,6.67A.67.67,0,0,1,21.91,6a.63.63,0,0,1,.64-.67h0a.68.68,0,0,1,.48.21.65.65,0,0,1,.2.48.66.66,0,0,1-.64.65Z" fill="#f5df6e"/>
          <path d="M22.56,5.55A.47.47,0,0,1,23,6a.45.45,0,0,1-.42.43h0A.45.45,0,0,1,22.13,6a.41.41,0,0,1,.42-.45h0m0-.44h0a.85.85,0,0,0-.85.89.89.89,0,0,0,.88.89.89.89,0,0,0,0-1.78Z" fill="#3c122c"/>
        </g>
        <path d="M2.73,20a14.93,14.93,0,0,1,.89-3.48A13.61,13.61,0,0,1,8.9,9.92,11.15,11.15,0,0,1,22,10.63a14.28,14.28,0,0,1,5.08,8.86c0,.26.08.53.13.84a2.54,2.54,0,0,0-1.5-.37c-.17,0-.14-.13-.16-.22a12.53,12.53,0,0,0-2.06-5,10.42,10.42,0,0,0-6.28-4.44A9.74,9.74,0,0,0,8,12.84a12,12,0,0,0-3.43,5.89.4.4,0,0,1-.29.31A3.61,3.61,0,0,0,2.73,20Z" fill="#a0e7c2"/>
        <path d="M24.86,20a3.89,3.89,0,0,0-1.8-.85c-.16,0-.14-.15-.17-.26A8.42,8.42,0,0,0,19.38,14,8.25,8.25,0,0,0,7.07,18.13c-.09.25-.16.51-.24.77,0,.08,0,.18-.16.13a3.12,3.12,0,0,0-1.4-.19,11.66,11.66,0,0,1,1.34-3.16,9.9,9.9,0,0,1,5.57-4.54,9,9,0,0,1,9.33,2.3,11.51,11.51,0,0,1,3.37,6.43S24.87,19.9,24.86,20Z" fill="#f5df6e"/>
        <path d="M22.18,19c0,.11,0,.11-.11.12a3.84,3.84,0,0,0-1.29.33c-.19.09-.19-.08-.22-.17A7.25,7.25,0,0,0,19.05,17a5.74,5.74,0,0,0-8.77.66,6.63,6.63,0,0,0-1.09,2.05c-.07.18-.17.22-.34.29a.87.87,0,0,1-1-.27c-.41-.4-.44-.37-.27-.94a7.56,7.56,0,0,1,14.49-.16C22.11,18.74,22.15,18.85,22.18,19Z" fill="#d688b8"/>
        <path d="M1.22,24.21a1.61,1.61,0,0,1,1.25-1.42A.61.61,0,0,0,3,22.24,2.46,2.46,0,0,1,5.65,20a2.39,2.39,0,0,1,1.47.63,3.14,3.14,0,0,1,.52.51.7.7,0,0,0,.83.26,1.54,1.54,0,0,1,.8,2.09,1.57,1.57,0,0,1-1.56,1c-.68,0-1.36,0-2,0-1.19,0-2.37,0-3.56,0A1.1,1.1,0,0,1,1.22,24.21Z" fill="#fefefe"/>
        <path d="M18,24.08a1.1,1.1,0,0,1,1-.81c.49-.05.63-.2.71-.69a2.61,2.61,0,0,1,1.86-2.21,2.58,2.58,0,0,1,2.82.76.72.72,0,0,0,.82.28.2.2,0,0,1,.24,0,1.54,1.54,0,0,1,.78,1.29,1.59,1.59,0,0,1-1.64,1.74c-1.91,0-3.82,0-5.72,0a2.08,2.08,0,0,1-.66-.12C18.06,24.3,17.93,24.25,18,24.08Z" fill="#fefefe"/>
        <path d="M1.22,24.21a3.06,3.06,0,0,0,1.17.18H7.73a1.46,1.46,0,0,0,1.52-1.1,1.43,1.43,0,0,0-.52-1.65c-.09-.07-.21-.11-.26-.23a1.07,1.07,0,0,1,1.29-.12,1.13,1.13,0,0,1,.59,1.18c0,.55.1.73.65.81a1.23,1.23,0,0,1,1,1.25,1.18,1.18,0,0,1-1.19,1.15H4.52c-.74,0-1.48,0-2.22,0A1.16,1.16,0,0,1,1.22,24.21Z" fill="#e0bcfb"/>
        <path d="M18,24.08c.17.31.5.29.77.29,2,0,3.94,0,5.91,0A1.53,1.53,0,0,0,26,22.3a1.48,1.48,0,0,0-.86-.89,1.1,1.1,0,0,1,1.35-.11,1.16,1.16,0,0,1,.54,1.26c-.07.39.16.65.61.71a1.19,1.19,0,0,1,1,.94,1.24,1.24,0,0,1-.49,1.26,1.2,1.2,0,0,1-.66.21H19.07A1.17,1.17,0,0,1,18,24.08Z" fill="#e0bcfb"/>
      </g>
      <g>
        <path d="M2.25,32.66l.92-4.36h1L3,33.52H1.54L.3,28.3h1Z" fill="#3c122c"/>
        <path d="M5.18,29.6h2v3.13H8.48v.79H4.91v-.79H6.18V30.39h-1Zm1-1.9h1v1.2h-1Z" fill="#3c122c"/>
        <path d="M11.13,28.49V29.6h1.33v.79H11.13v1.85a.51.51,0,0,0,.12.38.69.69,0,0,0,.43.11h.78v.79H11.6a1.9,1.9,0,0,1-1.19-.28,1.43,1.43,0,0,1-.31-1.05v-1.8h-1V29.6h1V28.49Z" fill="#3c122c"/>
        <path d="M16.89,31.28v2.24h-1v-.44a1.43,1.43,0,0,1-.48.4,1.5,1.5,0,0,1-.64.14,1.45,1.45,0,0,1-1-.36,1.27,1.27,0,0,1-.37-1,1.18,1.18,0,0,1,.44-1,2.34,2.34,0,0,1,1.38-.33h.71v-.17a.42.42,0,0,0-.18-.37.88.88,0,0,0-.53-.13,2.76,2.76,0,0,0-.71.09,3.07,3.07,0,0,0-.72.3v-.88a3.22,3.22,0,0,1,.69-.2,3.51,3.51,0,0,1,.74-.07,1.87,1.87,0,0,1,1.34.39A2,2,0,0,1,16.89,31.28Zm-1.42.4a1.54,1.54,0,0,0-.8.15A.59.59,0,0,0,15,32.91a.73.73,0,0,0,.63-.31,1.41,1.41,0,0,0,.23-.85v-.07Z" fill="#3c122c"/>
        <path d="M18.68,31.89v-3h-1v-.79H19.7v3.81a1.09,1.09,0,0,0,.15.65.54.54,0,0,0,.48.19h.82v.79h-1.1A1.3,1.3,0,0,1,19,33.14,2,2,0,0,1,18.68,31.89Z" fill="#3c122c"/>
        <path d="M22.41,29.6h2v3.13h1.28v.79H22.14v-.79h1.27V30.39h-1Zm1-1.9h1v1.2h-1Z" fill="#3c122c"/>
        <path d="M26.55,28.08h1v2.85L28.8,29.6H30l-1.48,1.46,1.57,2.46H29l-1.08-1.83-.35.33v1.5h-1Z" fill="#3c122c"/>
      </g>
    </symbol>
  </defs>
  <rect id="Figment_lido" x="-1.22" y="-1.06" width="252.5" height="252.5" transform="translate(-0.16 250.22) rotate(-90)" fill="#9fe2da"/>
  <use width="30.13" height="33.62" transform="translate(30.03 19.03) scale(6.3)" xlink:href="#Vitalik_2"/>
</svg>
