<svg id="Capa_1" data-name="Capa 1" xmlns="http://www.w3.org/2000/svg" xmlns:xlink="http://www.w3.org/1999/xlink" width="250" height="250" viewBox="0 0 250 250">
  <defs>
    <symbol id="WexExchange" data-name="WexExchange" viewBox="0 0 27.22 27.07">
      <polygon points="9.59 11.61 7.77 20.31 9.92 27 12.24 17.38 9.59 11.61" fill="#5065ba"/>
      <polygon points="9.99 27 4.7 27 0 11.55 5.2 11.55 9.99 27" fill="#6a7adb"/>
      <g>
        <polygon points="14.28 27.05 19.58 27.05 14.79 11.61 9.59 11.61 14.28 27.05" fill="#6a7adb"/>
        <polygon points="20.76 6.15 20.74 6.15 14.72 27.07 20.74 27.07 25.46 7.53 20.76 6.15" fill="#6a7adb"/>
        <polygon points="27.22 8.09 25.26 0 19.23 5.75 20.79 6.2 25.79 7.67 27.22 8.09" fill="#6a7adb"/>
      </g>
      <polygon points="17.06 18.78 20.74 27.07 21.46 24.16 17.76 16.43 17.06 18.78" fill="#5065ba"/>
    </symbol>
  </defs>
  <rect id="Figment_lido" x="-1.22" y="-1.06" width="252.5" height="252.5" transform="translate(-0.16 250.22) rotate(-90)" fill="#fff"/>
  <use width="27.22" height="27.07" transform="translate(35.21 36.2) scale(6.59)" xlink:href="#WexExchange"/>
</svg>
