<svg id="Capa_1" data-name="Capa 1" xmlns="http://www.w3.org/2000/svg" xmlns:xlink="http://www.w3.org/1999/xlink" width="250" height="250" viewBox="0 0 250 250">
  <defs>
    <symbol id="whale_pixel" data-name="whale pixel" viewBox="0 0 119.15 95.35">
      <path d="M11.87,77.49c-1.95,0-3.89.06-5.84,0,.2-.38.57-.28.88-.28,1.32,0,2.64,0,3.95,0,.78,0,.83-.06.84-.82v-4a1.63,1.63,0,0,1,.14-.9.14.14,0,0,1,.22,0,1.09,1.09,0,0,1,.16.81c0,1.4,0,2.79,0,4.19,0,.31-.15.76.45.73,1.7,0,3.39,0,5.09,0a51,51,0,0,0,5.93.06.83.83,0,0,1,.43.15,1.06,1.06,0,0,0,.2.12,11.1,11.1,0,0,0,1.91,0c2.77,0,5.54.06,8.3,0a2.88,2.88,0,0,1,.31-.13c.27-.11.63,0,.83-.33a6.57,6.57,0,0,0,.07-1.77c0-1.17,0-2.33,0-3.5a.21.21,0,0,1,.14-.18c1.78,0,3.56,0,5.34,0a1.79,1.79,0,0,0-.23,0c-1.73,0-3.46,0-5.19,0a2.13,2.13,0,0,1-1,.13c-3.62,0-7.24,0-10.86,0a1.75,1.75,0,0,1-.51,0c-1.52,0-3,0-4.58,0a2.38,2.38,0,0,1-.84-.07.26.26,0,0,1-.16-.19.32.32,0,0,1,.18-.18,15,15,0,0,1,2.68-.08c.77,0,1.54,0,2.3,0a1.22,1.22,0,0,1,.87.22c3.75,0,7.5,0,11.25,0,.51,0,.62-.15.62-.63,0-1.7,0-3.41,0-5.12.36.21.27.58.27.89,0,1.27,0,2.54,0,3.81,0,.77,0,.82.82.81,1.56,0,3.11,0,4.67,0l.2-.07a.36.36,0,0,0,.11-.23c0-1.58.08-3.17,0-4.75a.61.61,0,0,1-.06-.35.2.2,0,0,1,.19-.12h-.07c-.1,0-.29,0-.14-.2h0a1.42,1.42,0,0,1,.94-.22h4a1.2,1.2,0,0,0,.87-.17c.23-.27.16-.59.17-.89V48.72a1.76,1.76,0,0,1,.14-1,1.23,1.23,0,0,1,.93-.22H52.6c.76,0,.82-.07.82-.84,0-1.29,0-2.59,0-3.88a2.39,2.39,0,0,1,.09-.92.4.4,0,0,1,.16-.18,2.3,2.3,0,0,1,1-.12c3.29,0,6.59,0,9.88,0,.55,0,.72-.16.72-.71,0-1.69,0-3.38,0-5.07s0-3.45,0-5.18a1,1,0,0,1,.21-.74h0a.15.15,0,0,1,.21,0,1.62,1.62,0,0,1,.11.84c0,1.31,0,2.62,0,3.94,0,.25-.06.53.15.75a1.78,1.78,0,0,0,1.09.14H99.87c1.65,0,1.65,0,1.65,1.64,0,1.19,0,2.37,0,3.56,0,.54.21.75.74.74,1.37,0,2.73,0,4.09,0,1,0,1.12.17,1.12,1.13V70.5a1.32,1.32,0,0,1-.17.82,1.43,1.43,0,0,1-1,.18H84.64a5.9,5.9,0,0,0-.73,0,.52.52,0,0,0-.5.53,40.49,40.49,0,0,0,.09,4.67,36.94,36.94,0,0,1,.18,5.76,1.45,1.45,0,0,1-.16,1c-.5-.07-.36-.47-.37-.75,0-1.27,0-2.54,0-3.81,0-.2,0-.39,0-.59s-.15-.55-.51-.54c-1.66,0-3.33-.09-5,.06a.52.52,0,0,0-.26.2c-.13,1.44,0,2.88-.06,4.31,0,.34,0,.71-.29,1a2,2,0,0,1-1,.11h-3.6c-.25,0-.53-.08-.69.23a2.27,2.27,0,0,0-.11,1v3.89a1.37,1.37,0,0,1-.21.94v0a1,1,0,0,1-.74.21c-1.5,0-3,0-4.48,0-.75,0-.93-.17-.93-.88,0-1.7,0-3.39,0-5.07a.86.86,0,0,1,.06-.23.46.46,0,0,1,.15-.16,11,11,0,0,0,0-2.07,30.87,30.87,0,0,0,0-3.47.64.64,0,0,0-.36-.25,3.58,3.58,0,0,0-.8,0H48.68a1.88,1.88,0,0,0-.85.09.65.65,0,0,0-.15.18c-.15,1.53,0,3.06-.07,4.59,0,.32.08.67-.19.93a2.44,2.44,0,0,1-.66,0H19a1,1,0,0,1-.65-.07c.09.17.24.07.34.07H46.78c.29,0,.57,0,.86,0,.12.05.26.09.14.27a1.45,1.45,0,0,1-.89.17H18.79a1.3,1.3,0,0,1-.94-.22h0a1.28,1.28,0,0,1-.22-.94c0-1.32,0-2.64,0-4,0-.78-.06-.83-.82-.84h-4A1.15,1.15,0,0,1,11.87,77.49Z" fill="#2195f2"/>
      <path d="M17.85,83.46l1.64,0H47.74a1.45,1.45,0,0,1,.89-.17q8,0,16,0a1.3,1.3,0,0,1,.88.18c0,1.81,0,3.61,0,5.41,0,.44.11.56.54.56,1.81,0,3.61,0,5.41,0,0,1.83,0,3.65,0,5.48,0,.38-.12.47-.48.47q-5.48,0-11,0c-.45,0-.5-.16-.49-.53,0-1.52,0-3,0-4.56,0-.87,0-.87-.85-.87q-20,0-40,0c-.72,0-.85-.21-.84-.87C17.89,86.84,17.85,85.15,17.85,83.46Z"/>
      <path d="M71.46,89.42c0-1.78,0-3.55,0-5.33,0-.23-.08-.48.11-.69a20.1,20.1,0,0,1,2.69-.07c.77,0,1.54,0,2.31,0,.53,0,.68-.2.68-.7,0-1.39,0-2.77,0-4.16a1.41,1.41,0,0,1,.14-.83c.14-.25.38-.17.59-.17,1.6,0,3.2,0,4.81,0,.48,0,.57.16.57.6,0,1.75-.07,3.5,0,5.25a4,4,0,0,1,.92-.08H106a2.46,2.46,0,0,1,1.11.12l.1.09c0,1.76,0,3.52,0,5.28,0,.5-.1.66-.64.66-3.54,0-7.08,0-10.63,0-.57,0-.68.16-.66.69,0,1.56,0,3.13,0,4.69,0,.44-.07.6-.56.6q-5.41,0-10.83,0c-.5,0-.57-.17-.56-.6,0-1.63,0-3.26,0-4.89,0-.28,0-.49-.39-.48Z"/>
      <path d="M113.19,35.79c1.82,0,3.65,0,5.47,0,.45,0,.49.16.49.53,0,2.82,0,5.63,0,8.45V76.55c0,.92,0,.92-1,.92l-5,0-.09-.09a1.4,1.4,0,0,1-.11-.64c0-1.79,0-3.57,0-5.36a10.47,10.47,0,0,1,0-1.12V37.12a2.72,2.72,0,0,1,.13-1.23Z"/>
      <path d="M47.7,65.37c-.1.2-.29.17-.46.17l-5.56,0c0-.24,0-.48,0-.72q0-11.19,0-22.37c0-.59.14-.73.71-.71,1.76,0,3.52,0,5.28,0l.09.1a.85.85,0,0,1,.08.24c0,1.69,0,3.38,0,5.06a1.43,1.43,0,0,1-.11.58c0,5.34,0,10.68,0,16A6.91,6.91,0,0,1,47.7,65.37Z"/>
      <path d="M101.32,5.94c-1.8,0-3.6,0-5.4,0-.45,0-.61.1-.6.58,0,1.6,0,3.2,0,4.81,0,.46-.13.59-.59.58-1.78,0-3.56,0-5.34,0h0a2.6,2.6,0,0,1-.05-.39c0-3.63,0-7.25,0-10.88,0-.49.12-.63.62-.63,3.56,0,7.12,0,10.68,0,.56,0,.64.19.64.67,0,1.76,0,3.52,0,5.28Z" fill="#fff"/>
      <path d="M6,65.51c-1.87,0-3.73,0-5.6,0C-.1,65.55,0,65.26,0,65V55c0-2.24,0-4.49,0-6.73,0-.44.07-.61.56-.6,1.8,0,3.61,0,5.41,0l.09.1a2.13,2.13,0,0,1,.12,1V64.44a2,2,0,0,1-.13,1Z"/>
      <path d="M23.79,47.67c1.78,0,3.56,0,5.34,0,.48,0,.67.06.67.62,0,5.56,0,11.12,0,16.68,0,.45-.1.59-.57.58-1.8,0-3.6,0-5.4,0a.49.49,0,0,1-.16-.19,1.58,1.58,0,0,1-.05-.38c0-5.64,0-11.29,0-16.94a1.13,1.13,0,0,1,.08-.24Z"/>
      <path d="M71.46,6c0-1.81,0-3.61,0-5.41,0-.39.09-.54.51-.54,3.66,0,7.31,0,11,0,.14,0,.32-.08.4.12a.82.82,0,0,0-.06.51V11c0,.17-.07.36.08.5v.26c-1.46.15-2.93,0-4.39.07a2.16,2.16,0,0,0-.91.06c-.48.12-.65,0-.64-.56,0-1.55,0-3.11,0-4.67,0-.61-.18-.71-.74-.71-1.75,0-3.51,0-5.26,0Z" fill="#fff"/>
      <path d="M65.52,29.84c0,2,0,3.95,0,5.92a.65.65,0,0,1-.21.16,1.2,1.2,0,0,1-.38,0c-3.65,0-7.3,0-11,0a.68.68,0,0,1-.24-.08l-.1-.09c0-1.84,0-3.69,0-5.53,0-.34.07-.45.43-.45C57.87,29.83,61.69,29.83,65.52,29.84Z"/>
      <path d="M11.94,71.44c0,1.78,0,3.56,0,5.33,0,.57-.17.69-.7.68-1.73,0-3.47,0-5.2,0A1.66,1.66,0,0,1,6,76.69Q6,71.1,6,65.51H6a1,1,0,0,1,.22-.14,46,46,0,0,1,5.63,0,.63.63,0,0,1,.28.62c0,1.64,0,3.28,0,4.92A.67.67,0,0,1,11.94,71.44Z"/>
      <path d="M65.65,29.85h-.14c0-1.68,0-3.37,0-5.06,0-1,0-1,1-.9.2.16.43.08.64.08Q86.58,24,106,24c.21,0,.44.08.64-.08.52-.16.67,0,.66.57,0,1.8,0,3.59,0,5.39l-.1.09a1,1,0,0,1-.25.08,8.17,8.17,0,0,1-.86,0H66.79C66.4,30,66,30.13,65.65,29.85Z"/>
      <path d="M23.8,65.44a.11.11,0,0,0,0,.08l0,5.94c-2,.05-4,.08-6,0a.89.89,0,0,1-.22-.73c0-1.51,0-3,0-4.52a1.15,1.15,0,0,1,.16-.7,1.24,1.24,0,0,1,.88-.17h4.45C23.36,65.33,23.62,65.19,23.8,65.44Z"/>
      <path d="M113.18,77.51c0,1.8,0,3.6,0,5.4,0,.47-.17.53-.57.53-1.8,0-3.59,0-5.39,0h0a1.1,1.1,0,0,1-.23-.8q0-2.17,0-4.35c0-.85.17-1,1-1,1.45,0,2.9,0,4.35,0a1.08,1.08,0,0,1,.8.22Z"/>
      <path d="M6,47.68C6,45.86,6,44,6,42.21c0-.42.13-.5.52-.5,1.65,0,3.29,0,4.94,0,.39,0,.52.08.52.5,0,1.82,0,3.65,0,5.47l-.1.09a2,2,0,0,1-.84.12H6.9A1.36,1.36,0,0,1,6,47.67Z"/>
      <path d="M11.87,77.49c1.82,0,3.63,0,5.45,0,.43,0,.56.12.56.55,0,1.81,0,3.63,0,5.45-1.78,0-3.56,0-5.34,0-.5,0-.62-.13-.62-.62C11.92,81,11.89,79.27,11.87,77.49Z"/>
      <path d="M107.25,29.85c1.86,0,3.73,0,5.59,0,.45,0,.35.28.35.52v5.46h0a.88.88,0,0,1-.61.2c-1.62,0-3.24,0-4.85,0a1,1,0,0,1-.39-.08.47.47,0,0,1-.19-.18,4.52,4.52,0,0,1-.09-1.42c0-1.22,0-2.44,0-3.66a1,1,0,0,1,.19-.8Z"/>
      <path d="M47.69,41.73c0-1.86,0-3.73,0-5.59,0-.29.08-.38.37-.37l5.59,0h0a1.15,1.15,0,0,1,.22.8c0,1.45,0,2.89,0,4.34a1,1,0,0,1-.23.79h0a1,1,0,0,1-.79.23H48.49a1.15,1.15,0,0,1-.8-.22Z"/>
      <path d="M11.91,47.68h5.95a.39.39,0,0,0,.08.1A6.33,6.33,0,0,1,18,49.62c0,1.14,0,2.29,0,3.43,0,.48-.19.75-.7.75q-2.47,0-4.95,0a.81.81,0,0,1-.5-.14A1,1,0,0,1,11.7,53c0-1.56,0-3.12,0-4.68a1,1,0,0,1,.21-.68Z"/>
      <path d="M71.45,5.94c0,1.86,0,3.73,0,5.6,0,.34-.17.39-.45.39-1.69,0-3.38,0-5.08,0-.35,0-.44-.13-.44-.46,0-1.67,0-3.34,0-5,0-.44.15-.5.53-.5,1.81,0,3.61,0,5.41,0Z" fill="#fff"/>
      <path d="M101.31,6c1.75,0,3.51,0,5.27,0,.49,0,.69.07.67.63,0,1.6,0,3.21,0,4.81,0,.4-.1.53-.52.53-1.64,0-3.29,0-4.94,0-.34,0-.52,0-.51-.46,0-1.84,0-3.69,0-5.53Z" fill="#fff"/>
      <path d="M41.75,65.77v.13a.45.45,0,0,1,.06.12,44,44,0,0,1,0,5.26c0,.06-.06.11-.1.16-1.86.12-3.72,0-5.58.06-.44,0-.37-.28-.37-.53v-4.6c0-.22,0-.44,0-.65.14-.31.42-.17.64-.18l5.31,0c0,.09,0,.11.07.14s.05.06,0,.09Z"/>
      <path d="M83.48,17.81A6,6,0,0,1,83.4,16c0-1.38,0-2.75-.05-4.12h6.06c0,1.77,0,3.55,0,5.33,0,.49-.1.69-.65.67-1.71-.05-3.42,0-5.13,0A19,19,0,0,1,83.55,15c0-.95,0-1.89,0-2.83.18-.19.42-.1.62-.1h.11a1.23,1.23,0,0,0-.71.07c-.14,1.54,0,3.07-.06,4.61A3,3,0,0,1,83.48,17.81Z" fill="#fff"/>
      <path d="M23.13,41.75h.14c.24.13.23.34.2.57a30.49,30.49,0,0,0-.14,3.82c0,1-.26,1.18-1.24,1.19s-1.94,0-2.9,0a.71.71,0,0,1-.84-.72,33.8,33.8,0,0,1,0-4.15c0-.49.3-.7.83-.69C20.5,41.8,21.81,41.87,23.13,41.75Z"/>
      <path d="M23.13,41.75a4.8,4.8,0,0,1-1.81.11,17.34,17.34,0,0,1-2,0c-.53,0-.75.21-.76.67q0,2,0,4.08c0,.37.14.61.66.57,1.07-.07,2.15,0,3.22,0,.45,0,.72-.16.73-.64a24.17,24.17,0,0,1,.21-4.58s-.05-.12-.07-.18c.18,0,.4-.17.52.12a1,1,0,0,0,0,.79v5h0a1,1,0,0,1-.75.19H18.59a1,1,0,0,1-.74-.19h0c0-1.78,0-3.56,0-5.34,0-.46.07-.65.59-.63C20,41.76,21.57,41.74,23.13,41.75Z"/>
      <path d="M83.36,11.5c-.22-.16-.14-.4-.14-.61,0-3.38,0-6.75,0-10.13,0-.21-.08-.45.12-.62,0,.5,0,1,0,1.5C83.39,4.93,83.37,8.22,83.36,11.5Z" fill="#fff"/>
      <path d="M83.61,12.16v5.69l-.13,0c0-1.66,0-3.32,0-5,0-.23-.08-.49.13-.68Z" fill="#fff"/>
      <path d="M78.06,11.89c.2-.21.46-.13.69-.13h4.61l0,.14h0C81.59,12,79.83,11.94,78.06,11.89Z" fill="#fff"/>
      <path d="M23.79,42.66a.6.6,0,0,1,0-.79Z"/>
      <path d="M107.25,29.85c0,2,0,3.95,0,5.93-.28.07-.21-.16-.21-.28,0-1.6,0-3.19,0-4.79,0,1.54,0,3.07,0,4.61,0,.15-.17.45.21.46h5.93V70.7c0,.26,0,.53,0,.79a.91.91,0,0,1-.62.16h-4.65a1.11,1.11,0,0,1-.57-.12.16.16,0,0,1-.08-.22q0-14.41,0-28.85c0-.57-.14-.76-.73-.74-1.5,0-3,0-4.49,0-.57,0-.77-.12-.75-.73,0-1.47,0-3,0-4.42,0-.71-.22-.82-.86-.82q-17,0-34,0c-.27,0-.58.12-.81-.14.14-1.33,0-2.67.06-4,0-.56-.26-1.3.14-1.63s1.06-.09,1.6-.09h38.87a1.72,1.72,0,0,0,.78-.07Z" fill="#03a8f4"/>
      <path d="M107.24,71.46l5.92,0,0,6c-1.87-.14-3.76,0-5.64-.06-.35,0-.32.19-.31.42,0,1.86,0,3.72,0,5.58-.35,0-.7,0-1.05,0h-22c-.25,0-.53.1-.76-.11,0-2.19.11-4.39-.07-6.59a22.36,22.36,0,0,1-.07-3c0-.62,0-1.24,0-1.85,0-.4.16-.57.55-.55.11,0,.22,0,.33,0H106.6C106.82,71.38,107,71.32,107.24,71.46Z" fill="#fefefe"/>
      <path d="M11.91,47.67V53.6a.4.4,0,0,0,.16.13c1.88,0,3.76,0,5.64,0a.42.42,0,0,0,.26-.46c0-1.68,0-3.36,0-5-.1-.33,0-.47.37-.47h4.82c.39,0,.51.16.5.51s0,.49,0,.73c0,5.3,0,10.6,0,15.9a.61.61,0,0,0,.11.23v.33c-.18,0-.34.16-.54.06a16.42,16.42,0,0,0-2.53-.06c-.8,0-1.61,0-2.42,0-.15,0-.35-.11-.45.12v5.88l0,0a.75.75,0,0,1-.55.18c-1.56,0-3.12,0-4.68,0a1.16,1.16,0,0,1-.32-.08.33.33,0,0,1-.17-.18c0-1.66,0-3.32,0-4.54,0,1.2,0,2.85,0,4.5l-.06.11h-.1c0-1.75,0-3.51,0-5.26,0-.23.1-.49-.13-.68a28.71,28.71,0,0,0-3.47-.06,10.89,10.89,0,0,0-2.21.06H6V47.67Z" fill="#03a8f4"/>
      <path d="M101.31,65.37c-.08.17-.24.16-.39.16l-5.59,0a1.46,1.46,0,0,1-.18-1c0-1.34,0-2.68,0-4,0-.69-.07-.75-.77-.75-1.34,0-2.68,0-4,0a1.43,1.43,0,0,1-1-.19c0-1.84,0-3.69,0-5.53,0-.51.32-.42.61-.42h10.4l.79,0c.25,0,.19.2.19.34,0,3.76,0,7.53,0,11.3A.31.31,0,0,1,101.31,65.37Z" fill="#fefefe"/>
      <path d="M65.51,83.43H47.74l-.08-.1a1.1,1.1,0,0,1-.1-.64V78.2c0-.76,0-.81.77-.81H64.81c.78,0,.84.06.84.81v4.48a1.12,1.12,0,0,1-.1.65A.08.08,0,0,0,65.51,83.43Z" fill="#fefefe"/>
      <path d="M24.06,77.51l-.25-.13a1,1,0,0,1-.15-.2c-.12-1.55,0-3.09-.06-4.64a1.18,1.18,0,0,1,.16-.84c.12-.17.3-.16.47-.16H35.55a2,2,0,0,1,.26,0s.06.07,0,.09a.07.07,0,0,1-.06,0v.13a4.13,4.13,0,0,1,.08,1.36c0,1.18,0,2.37,0,3.55,0,.21.08.44-.09.63s-.6,0-.89.13a1.23,1.23,0,0,1-.77.14H24.75A.93.93,0,0,1,24.06,77.51Z"/>
      <path d="M53.61,41.72l0-5.93h.14a.78.78,0,0,0,.45.06H64.94a.74.74,0,0,0,.44-.06.28.28,0,0,1,.13,0c0,1.78,0,3.55,0,5.33,0,.52-.07.67-.65.66C61.12,41.71,57.37,41.72,53.61,41.72Z" fill="#03a8f4"/>
      <path d="M89.41,59.58c1.79,0,3.59,0,5.38,0,.44,0,.55.12.55.55,0,1.8,0,3.59,0,5.39-1.85,0-3.7,0-5.54,0-.31,0-.42-.11-.42-.42C89.39,63.27,89.4,61.43,89.41,59.58Z" fill="#000001"/>
      <path d="M47.69,41.73l5.93,0c0,1.8,0,3.6,0,5.4,0,.49-.19.58-.62.57h-5.2l0-.11c0-1.69,0-3.37,0-5.06a1.28,1.28,0,0,0-.06-.64Z" fill="#03a8f4"/>
      <path d="M23.79,77.26a.13.13,0,0,1,0,.12,25.89,25.89,0,0,1-4.9.09c-.34,0-.74.21-1.07-.1a.8.8,0,0,1-.13-.22c-.14-1.67-.06-3.35-.05-5a.62.62,0,0,1,.16-.43c1.3-.13,2.61,0,3.92-.06a12.93,12.93,0,0,0,1.76,0l.26.1a1.45,1.45,0,0,1,0,.8A34.37,34.37,0,0,0,23.79,77.26Z" fill="#03a8f4"/>
      <path d="M17.86,71.71v5.55c-1.12.14-2.23,0-3.35.06a15.44,15.44,0,0,0-2,.05c-.62.09-.26-.44-.42-.65a32.18,32.18,0,0,0,.07-3.26,12.28,12.28,0,0,1,.06-2h5.67l0,.13s.06,0,0,.08S17.87,71.71,17.86,71.71Z" fill="#2195f2"/>
      <path d="M65.55,83.33c0-1.76,0-3.52,0-5.28,0-.47-.15-.58-.6-.58q-8.32,0-16.67,0c-.52,0-.61.18-.61.64,0,1.74,0,3.47,0,5.21H18.29V83.2H47.43A12.59,12.59,0,0,0,47.49,81c0-1.15-.06-2.31.06-3.46v-.14a.71.71,0,0,1,.45-.07H65a.86.86,0,0,1,.39.05c.12,0,.23,0,.29.15a19.68,19.68,0,0,1,.06,2.87,20.62,20.62,0,0,1-.06,2.94Z" fill="#239dfd"/>
      <path d="M107.11,29.85c-.24.24-.54.13-.82.13H67.7a6.45,6.45,0,0,1-1.24,0c-.69-.12-.69.24-.68.74,0,1.4,0,2.81,0,4.22,0,.23.09.49-.12.68,0-1.93,0-3.86,0-5.8.26,0,.52,0,.78,0h40C106.63,29.82,106.87,29.84,107.11,29.85Z" fill="#06b0fc"/>
      <path d="M107.24,71.46l-1,0c-7.34,0-14.67,0-22,0-.62,0-.83.13-.81.78,0,1.49,0,3,0,4.48-.22-.19-.13-.45-.13-.68,0-1.29,0-2.59,0-3.88,0-.67.18-.87.85-.87,7.73,0,15.46,0,23.19,0Z" fill="#138ded"/>
      <path d="M65.36,77.37l-17.8,0c.17-.2.41-.13.62-.13q8.31,0,16.62,0C65,77.26,65.2,77.19,65.36,77.37Z" fill="#138eee"/>
      <path d="M47.7,65.37c0-3,0-6.05,0-9.08,0-2.87,0-5.74,0-8.61,0-.06.08-.06.12,0h0v17C47.82,64.91,47.91,65.17,47.7,65.37Z" fill="#249bfa"/>
      <path d="M77.41,77.65c0,1.78,0,3.55,0,5.33,0,.34-.1.46-.45.45l-5.39,0c.12-.33.4-.2.62-.2,1.59,0,3.19,0,4.79,0,.27-.15.19-.42.19-.65,0-1.37,0-2.75,0-4.12a1.2,1.2,0,0,1,.06-.65Z" fill="#239efd"/>
      <path d="M101.31,65.37c0-3.67,0-7.34,0-11,0-.25.1-.53-.11-.75.11-.09.22-.1.24,0a3.84,3.84,0,0,1,0,.59c0,3.45,0,6.91,0,10.36C101.43,64.86,101.53,65.14,101.31,65.37Z" fill="#1a91f0"/>
      <path d="M24.06,77.51l10,0c.26,0,.52,0,.79,0l-.14.14a.7.7,0,0,1-.45.06q-4.89,0-9.8,0a.67.67,0,0,1-.44-.06Z" fill="#229dfe"/>
      <path d="M24.06,77.65H34.75c-.17.2-.4.13-.61.13H24.67C24.46,77.78,24.23,77.85,24.06,77.65Z" fill="#2391ea"/>
      <path d="M89.22,65.69V59.85h0v5.84Z" fill="#249efe"/>
      <path d="M95.22,65.65h5.91v.12H95.23s-.06,0,0-.08S95.21,65.65,95.22,65.65Z" fill="#1290f3"/>
      <path d="M65.65,83.33V77.52c0,.08.12.15.12.22,0,1.84,0,3.68,0,5.52,0,0,0,0,0,0Z" fill="#1691f3"/>
      <path d="M41.75,65.77v-.13H47.4v.13Z" fill="#239ffe"/>
      <path d="M47.55,77.53c0,1.68,0,3.37,0,5,0,.21.08.45-.12.62,0-1.66,0-3.33,0-5C47.43,78,47.34,77.73,47.55,77.53Z" fill="#168df0"/>
      <path d="M17.86,71.71a.48.48,0,0,1,0-.12H23.5c-.18.19-.42.1-.63.11Z" fill="#02b4fe"/>
      <path d="M95.22,65.65s0,.08,0,.12H89.72v-.12Z" fill="#239efe"/>
      <path d="M35.79,71.71l0-.13h5.52v.13Z" fill="#229ffd"/>
      <path d="M41.73,71.44l0-5.54.13.13c.15,1.5,0,3,.06,4.51a2,2,0,0,1-.06.91Z" fill="#239ffe"/>
      <path d="M35.78,77.38V71.84c.18.12.15.3.15.47v4.6C35.94,77.08,36,77.27,35.78,77.38Z" fill="#229ffd"/>
      <path d="M77.27,77.78c0,1.6,0,3.19,0,4.78,0,.23.15.56-.25.64a1.46,1.46,0,0,0,.13-.77c0-1.32,0-2.64,0-4C77.14,78.24,77.05,78,77.27,77.78Z" fill="#2091e9"/>
      <path d="M12.46,77.37c.18-.19.41-.11.62-.11,1.59,0,3.18,0,4.77,0a.45.45,0,0,1,0,.11Z" fill="#249ffe"/>
      <path d="M41.88,71.45V66A22.34,22.34,0,0,1,41.88,71.45Z" fill="#2091e9"/>
      <path d="M89.24,54.37v4.89h-.06V54.37Z" fill="#128def"/>
      <path d="M18,82.92V78h.05v5Z" fill="#1f9cfe"/>
      <path d="M12.17,71.45c0,1.53,0,3.06,0,4.59,0,.23.09.49-.13.68V71.45h0c0-.06.08,0,.12,0Z" fill="#1c99fd"/>
      <path d="M83,77.36h-4.8V77.3h4.82Z" fill="#259ffe"/>
      <path d="M65.67,88.7V83.9h.06v4.83Z" fill="#219afd"/>
      <path d="M47.82,47.67H47.7V41.87c.2.2.12.45.12.68C47.83,44.26,47.82,46,47.82,47.67Z" fill="#05aefc"/>
      <path d="M23.66,65.11c-.23-.22-.13-.5-.13-.75,0-5.26,0-10.52,0-15.78,0-.59-.13-.81-.76-.79-1.43.05-2.86,0-4.29,0-.24,0-.61-.08-.38.39a28.47,28.47,0,0,0-.06,3.33,9.19,9.19,0,0,0,.06,2,.48.48,0,0,1-.27.27c-1.54.13-3.09,0-4.63.05a4,4,0,0,1-1.3-.06V53.6c1.84,0,3.69,0,5.54,0,.39,0,.41-.19.41-.49,0-1.82,0-3.65,0-5.48H23.8v.14a1.2,1.2,0,0,0-.07.7c0,5.3,0,10.59,0,15.89A1.44,1.44,0,0,1,23.66,65.11Z" fill="#02a6ea"/>
      <path d="M23.66,65.11V48.55c0-.25-.1-.53.14-.74,0,4,0,7.93,0,11.9,0,1.8,0,3.6,0,5.4Z" fill="#05b1fd"/>
      <path d="M77.55,11.32V6.39h.07v5Z" fill="#fff"/>
      <path d="M65.38,35.8c-.17.19-.4.12-.62.12H54.39c-.21,0-.44.07-.62-.12l9.12,0Z" fill="#04adfb"/>
      <path d="M6.1,65.5c.1-.14.26-.13.41-.13h4.85a.47.47,0,0,1,.42.13Z" fill="#06b1fd"/>
      <path d="M86.45,29.19c-6.45,0-12.9,0-19.34,0-.63,0-.85-.15-.81-.8,0-1,0-2,0-3,0-.38,0-.66.56-.49a2.52,2.52,0,0,0,.73,0q19.08,0,38.15,0c.66,0,.9.14.85.83a19.38,19.38,0,0,0,0,2.64c0,.63-.21.78-.81.78C99.34,29.18,92.9,29.19,86.45,29.19Z"/>
      <path d="M106.41,29.44H66.62v-.07h39.81Z"/>
      <path d="M66.62,24.19h39.52v.07H66.59Z"/>
      <path d="M17.86,65.56c.07-.18.22-.19.38-.19H23c.09,0,.19.08.28.12Z" fill="#06b1fd"/>
      <path d="M83.61,12.16c.07-.05.15-.12.22-.12,1.55,0,3.1,0,4.64.12Z" fill="#fff"/>
      <path d="M23,47.51H19.05v-.07H23Z"/>
      <path d="M107.26,35.78c-.2.18-.27.06-.27-.13,0-1.76,0-3.51.12-5.27,0,1.58,0,3.16,0,4.73,0,.23-.11.49.14.67Z" fill="#03acfe"/>
      <path d="M11.91,53.75h5.93c-.13.16-.31.12-.48.12l-5.3,0C11.94,53.93,11.92,53.84,11.91,53.75Z" fill="#00affe"/>
      <path d="M12.17,71.44a.48.48,0,0,1-.12,0V66.32h.12Z" fill="#03acfe"/>
      <path d="M18.11,53.49c0-.08-.11-.15-.11-.23q0-2.41,0-4.83c0-.08.07-.15.11-.23Z" fill="#02adfe"/>
      <path d="M23.79,77.26a.47.47,0,0,1-.13-.42V72.92a.47.47,0,0,1,.13-.42Z" fill="#05b1fd"/>
    </symbol>
  </defs>
  <rect id="Figment_lido" x="-1.22" y="-1.06" width="252.5" height="252.5" transform="translate(-0.16 250.22) rotate(-90)" fill="#7cbdf2"/>
  <use width="119.15" height="95.35" transform="translate(37.17 54.71) scale(1.47)" xlink:href="#whale_pixel"/>
</svg>
