<svg id="Capa_1" data-name="Capa 1" xmlns="http://www.w3.org/2000/svg" xmlns:xlink="http://www.w3.org/1999/xlink" width="250" height="250" viewBox="0 0 250 250">
  <defs>
    <symbol id="wolverine.eth" data-name="wolverine.eth" viewBox="0 0 22.47 22.47">
      <path d="M0,5.62C0,3.9,0,2.18,0,.46,0,.12,0,0,.43,0Q11.23,0,22,0c.41,0,.44.12.44.46,0,1.72,0,3.44,0,5.16-.46.55-1.1.37-1.68.41a10.38,10.38,0,0,1-1.12,0,7.44,7.44,0,0,1-2.82-.14,1.79,1.79,0,0,1-.4-1.37c-.06-1.11-.16-1.21-1.29-1.24-.41,0-.81-.06-1.21-.06a48.46,48.46,0,0,1-5.39,0c-.52,0-1,.08-1.55.07a.83.83,0,0,0-1,.94,2.28,2.28,0,0,1-.38,1.64A7.16,7.16,0,0,1,2.82,6C2.19,6,1.56,6.05.93,6A1.14,1.14,0,0,1,0,5.62Z" fill="#5b22cc"/>
      <path d="M14,22.46H8.43C7.88,22,8.06,21.35,8,20.77c0-.38,0-.75.05-1.12,0-1-.3-2,.28-2.9a1.36,1.36,0,0,1,.81-.29c1.4-.05,2.8-.05,4.2,0a1.28,1.28,0,0,1,.73.25c.62.92.28,1.93.31,2.91a15.22,15.22,0,0,1,0,1.91A1.16,1.16,0,0,1,14,22.46Z" fill="#44f3a1"/>
      <path d="M22.46,8.43V14c-.47.55-1.11.37-1.69.41-.37,0-.75,0-1.12,0-1,0-2,.29-2.89-.27a3.93,3.93,0,0,1-.16-2.86c.4-.49,1-.41,1.52-.44.95-.06,1.07-.18,1.12-1.15a2.6,2.6,0,0,1,.23-1.26.72.72,0,0,1,.25-.21C20.65,8,21.59,7.74,22.46,8.43Z" fill="#5b22cc"/>
      <path d="M0,14V8.43c.85-.68,1.78-.41,2.7-.24A.62.62,0,0,1,3,8.36a2.49,2.49,0,0,1,.26,1.26c0,1.06.14,1.15,1.23,1.21a1.77,1.77,0,0,1,1.38.4,4,4,0,0,1-.1,2.87c-.92.6-1.93.28-2.91.3a15,15,0,0,1-1.9,0A1.11,1.11,0,0,1,0,14Z" fill="#5b22cc"/>
      <path d="M2.83,8.42H0V5.62l2.82,0A2.55,2.55,0,0,1,2.83,8.42Z" fill="#373acf"/>
      <path d="M22.46,8.43H19.64a2.55,2.55,0,0,1,0-2.78l2.82,0Z" fill="#373acf"/>
      <path d="M0,14H2.83a2.79,2.79,0,0,1,.07,2.88A2.78,2.78,0,0,1,0,16.85Z" fill="#373acf"/>
      <path d="M19.64,14.05h2.82v2.81a2.79,2.79,0,0,1-2.88.09A2.76,2.76,0,0,1,19.64,14.05Z" fill="#373acf"/>
      <path d="M0,16.85H2.82l.14.09a3.56,3.56,0,0,1,0,2.7.64.64,0,0,1-.24.22c-.94.21-1.88.48-2.75-.21Z" fill="#44f3a1"/>
      <path d="M19.64,16.85h2.82v2.8c-.86.68-1.79.42-2.72.23a.63.63,0,0,1-.26-.2,3.54,3.54,0,0,1,0-2.73Z" fill="#44f3a1"/>
      <path d="M0,19.65H2.82a2.58,2.58,0,0,1,0,2.82c-.82,0-1.64,0-2.46,0-.3,0-.37-.06-.36-.36C0,21.29,0,20.47,0,19.65Z" fill="#373acf"/>
      <path d="M2.82,22.46v-2.8c.87-.69,1.81-.43,2.75-.22a.61.61,0,0,1,.25.23,2.94,2.94,0,0,1-.19,2.79Z" fill="#44f3a1"/>
      <path d="M5.62,22.46l0-2.8a2.49,2.49,0,0,1,2.8,0l0,2.81Z" fill="#5b22cc"/>
      <path d="M14,22.46l0-2.81a2.71,2.71,0,0,1,2.86-.08,2.78,2.78,0,0,1-.08,2.89Z" fill="#5b22cc"/>
      <path d="M16.85,22.46v-2.8l.09-.14a2.57,2.57,0,0,1,2.71.14l0,0a2.52,2.52,0,0,1,0,2.82Z" fill="#44f3a1"/>
      <path d="M19.65,22.46V19.64h2.82c0,.82,0,1.64,0,2.46,0,.3-.06.37-.36.36C21.29,22.44,20.47,22.46,19.65,22.46Z" fill="#373acf"/>
      <path d="M19.64,5.64V8.42h0c-.32.44-.8.39-1.26.42-1,.05-1.08.17-1.13,1.12,0,.46,0,.94-.39,1.28l0,2.81-.1.14c-.88.48-1.83.19-2.75.21-1.84.09-3.67.09-5.5,0-.93,0-1.88.27-2.77-.21l-.09-.14,0-2.81c-.4-.34-.36-.82-.38-1.28,0-1-.17-1.07-1.14-1.12-.45,0-.93,0-1.25-.42h0V5.64l2.79,0a3.17,3.17,0,0,1,2.69-.21.71.71,0,0,1,.26.16,3.08,3.08,0,0,1,.28,1.61A.78.78,0,0,0,9.71,8h3.06c.58,0,.83-.31.85-.88a3,3,0,0,1,.25-1.53.59.59,0,0,1,.24-.2,3.18,3.18,0,0,1,2.74.19Z" fill="#44f3a1"/>
      <path d="M8.44,2.83H14a2.45,2.45,0,0,1,0,2.8h0a1.15,1.15,0,0,1-.93.4c-1.26,0-2.51,0-3.77,0a1.15,1.15,0,0,1-.93-.4h0A2.47,2.47,0,0,1,8.44,2.83Z" fill="#44f3a1"/>
      <path d="M8.44,2.83v2.8l-2.82,0V4.9c0-2.41-.35-2.05,2.13-2.08Z" fill="#373acf"/>
      <path d="M14,5.63c0-.93,0-1.87,0-2.8.64,0,1.28,0,1.91,0s1,.27.92,1,0,1.21,0,1.81Z" fill="#373acf"/>
      <path d="M8.43,14.07H14a2.56,2.56,0,0,1,.13,2.7l-.15.09H8.44l-.14-.09A2.56,2.56,0,0,1,8.43,14.07Z" fill="#373acf"/>
      <path d="M8.4,19.65H5.61a3.1,3.1,0,0,1-.21-2.75.62.62,0,0,1,.23-.25,3,3,0,0,1,2.77.15l0,0Z" fill="#373acf"/>
      <path d="M16.86,19.66H14.07L14,16.86l.05,0a3,3,0,0,1,2.73-.18.69.69,0,0,1,.24.24,3.06,3.06,0,0,1-.19,2.79Z" fill="#373acf"/>
      <path d="M19.64,14.05v2.8h0a2.49,2.49,0,0,1-2.81,0h0a2.47,2.47,0,0,1,0-2.81v0Z" fill="#44f3a1"/>
      <path d="M2.82,16.85c0-.93,0-1.86,0-2.8h2.8l0,0a2.45,2.45,0,0,1,0,2.81h0a2.47,2.47,0,0,1-2.8,0Z" fill="#44f3a1"/>
      <path d="M2.81,16.84h2.8v2.84H2.81Z" fill="#5b22cc"/>
      <path d="M16.85,16.83h2.81v2.82H16.85Z" fill="#5b22cc"/>
      <path d="M16.85,14c0,.94,0,1.87,0,2.81l-2.8,0,0-2.75Z" fill="#5b22cc"/>
      <path d="M5.6,16.84V14l2.82,0,0,2.75Z" fill="#5b22cc"/>
      <rect x="16.87" y="8.4" width="2.87" height="2.87" fill="#373acf"/>
      <rect x="2.7" y="8.36" width="2.87" height="2.87" fill="#373acf"/>
      <rect x="8.41" y="5.63" width="5.64" height="2.87" fill="#5b22cc"/>
    </symbol>
  </defs>
  <rect id="Figment_lido" x="-1.22" y="-1.06" width="252.5" height="252.5" transform="translate(-0.16 250.22) rotate(-90)" fill="#fff"/>
  <use width="22.47" height="22.47" transform="translate(45 45) scale(7.12 7.12)" xlink:href="#wolverine.eth"/>
</svg>
