<svg id="Capa_1" data-name="Capa 1" xmlns="http://www.w3.org/2000/svg" xmlns:xlink="http://www.w3.org/1999/xlink" width="50" height="50" viewBox="0 0 50 50">
  <defs>
    <clipPath id="clip-path">
      <polygon points="24.04 49.76 1.25 39.47 1.41 9.18 24.19 19.47 24.04 49.76" fill="none"/>
    </clipPath>
    <clipPath id="clip-path-2">
      <polygon points="24.19 19.47 1.41 9.18 25.95 0.25 48.74 10.54 24.19 19.47" fill="none"/>
    </clipPath>
    <clipPath id="clip-path-3">
      <polygon points="48.74 10.54 48.58 40.83 24.04 49.76 24.19 19.47 48.74 10.54" fill="none"/>
    </clipPath>
  </defs>
  <g id="Figment_lido">
    <g style="isolation: isolate">
      <g>
        <polygon points="24.04 49.76 1.25 39.47 1.41 9.18 24.19 19.47 24.04 49.76" fill="#566dd6"/>
        <g style="isolation: isolate">
          <g clip-path="url(#clip-path)">
            <g>
              <path d="M10.64,23.71l-.27-.1c-.24,0-.3.21-.22.57,0,.19.12.37.18.57q.87,2.63,1.76,5.25c.67,2.09,1.39,4.16,2.07,6.25a2.34,2.34,0,0,1,.09.24c.36,1.13.75,2.25,1.12,3.38a1.69,1.69,0,0,0,.24.57l2.87,1.24s0-.12,0-.18c-.43-1.32-.87-2.64-1.31-4-.51-1.54-1-3.07-1.54-4.61-.17-.54-.36-1.08-.54-1.62s-.34-1.05-.52-1.57c-.25-.76-.52-1.51-.75-2.27l0-.07c-.21-.56-.36-1.13-.57-1.69a2.21,2.21,0,0,0-1.1-1.37l-.25-.11-.25-.1L11.24,24l-.15-.06-.2-.1-.25-.11" fill="#fefefe"/>
              <path d="M10.77,28.74l-.08,0-.77-.32-.76-.33a.77.77,0,0,0-.93.3c-.22.39-.37.85-.58,1.26-.24.57-.5,1.13-.76,1.67s-.38.9-.59,1.33c-.28.65-.56,1.29-.86,1.92-.14.38-.33.7-.47,1.08a.3.3,0,0,0,0,.24L7.83,37.1a.42.42,0,0,0,.11-.17c.17-.45.39-.85.57-1.29l.9-2c.3-.66.59-1.33.9-2,.18-.42.37-.83.56-1.23.11-.25.23-.48.33-.74a.73.73,0,0,0-.34-.88l-.09,0" fill="#fefefe"/>
              <path d="M15.41,25.54s-.05,0-.08.06a4,4,0,0,0-.07,3.17,4.22,4.22,0,0,0,2.09,2.62l.32.1c1.68.43,2.56-1.82,1.64-4.17,0-.08,0-.12-.09-.14h-.08l-1.68.63a.2.2,0,0,1-.13,0,.3.3,0,0,1-.12-.11l-1.72-2.1-.08-.08" fill="#fff"/>
              <path d="M17.32,26.48s0,0-.07-.05l-1-1.25c0-.05-.08-.09,0-.15l1.05-1.83,0-.05a.31.31,0,0,1,.08.15l.93,2.35c.05.14.16.33.14.42s-.16.08-.24.11l-.8.3s0,0-.08,0m0-4.28L15.69,25c0,.07,0,.12,0,.18L17.25,27a.22.22,0,0,0,.07.07.11.11,0,0,0,.08,0l1.49-.55c.07,0,.08-.06,0-.19-.21-.51-.4-1-.61-1.54-.33-.85-.67-1.69-1-2.58" fill="#fff"/>
            </g>
          </g>
        </g>
      </g>
      <g>
        <polygon points="24.19 19.47 1.41 9.18 25.95 0.25 48.74 10.54 24.19 19.47" fill="#5e78eb"/>
        <g style="isolation: isolate">
          <g clip-path="url(#clip-path-2)">
            <g>
              <path d="M18.55,9l-.3.12c-.18.15-.1.24.24.33s.39.06.59.09l5.47.84c2.15.35,4.33.66,6.48,1l.27,0c1.16.19,2.34.36,3.51.54a2.53,2.53,0,0,0,.63.07l3.33-1.21s-.08-.05-.15-.06l-4.1-.64-4.8-.74L28,9.15,26.4,8.9l-2.35-.37H24c-.61-.08-1.17-.19-1.77-.27a4.32,4.32,0,0,0-2,.15L20,8.51l-.29.1-.43.16-.17.06-.24.09-.28.1" fill="#fefefe"/>
              <path d="M22.49,10.71l-.1,0-.88.32-.88.32c-.42.18-.59.39-.54.64s.33.51.47.77.45.68.65,1,.37.54.53.8.51.78.75,1.17c.17.21.26.44.42.65,0,0,0,.09.15.11l3.37-1.22a.14.14,0,0,0,0-.12c-.19-.26-.32-.53-.51-.79s-.52-.81-.79-1.21-.52-.81-.77-1.22a8.78,8.78,0,0,1-.48-.76c-.1-.15-.18-.29-.29-.44a1,1,0,0,0-.95-.12l-.11,0" fill="#fefefe"/>
              <path d="M23.9,6.93s0,0,0,.07c.28.55,1.05,1,2.36,1.15A8,8,0,0,0,30,7.88l.33-.15c1.73-.81.74-2.11-1.81-2.41a.32.32,0,0,0-.18,0s0,0-.06,0c-.3.4-.62.8-.92,1.19a.31.31,0,0,1-.11.08l-.17,0-3,.24-.12,0" fill="#fff"/>
              <path d="M26.2,6.17l-.09,0-1.8.14c-.07,0-.13,0-.15,0-.17-.41-.34-.83-.52-1.24V5a.31.31,0,0,1,.17,0l2.57.29a1.93,1.93,0,0,1,.44.06c.05,0-.07.12-.12.18l-.43.56a.1.1,0,0,1-.07,0M22.91,4.68l.79,1.89s.08,0,.17,0l2.66-.22.12,0a.1.1,0,0,0,.06,0l.82-1s0-.07-.11-.08L25.73,5l-2.82-.32" fill="#fff"/>
            </g>
          </g>
        </g>
      </g>
      <g>
        <polygon points="48.74 10.54 48.58 40.83 24.04 49.76 24.19 19.47 48.74 10.54" fill="#607af0"/>
        <g style="isolation: isolate">
          <g clip-path="url(#clip-path-3)">
            <g>
              <path d="M35.12,25.42l-.29.12a.66.66,0,0,0-.25.74,2.14,2.14,0,0,0,.2.4c.6,1.24,1.21,2.48,1.82,3.71.71,1.48,1.46,2.92,2.16,4.41a.86.86,0,0,1,.1.16c.37.81.79,1.59,1.17,2.39.06.14.12.3.25.36l3.09-1.12a.17.17,0,0,0,0-.17c-.45-.94-.91-1.86-1.37-2.79-.54-1.08-1.07-2.16-1.6-3.25l-.57-1.14c-.18-.37-.36-.74-.55-1.1-.25-.54-.54-1.05-.78-1.61l0-.05c-.22-.37-.38-.81-.6-1.19a.88.88,0,0,0-1.17-.43l-.27.09-.27.1-.4.15-.16.06-.22.07-.26.09" fill="#fefefe"/>
              <path d="M35.2,30.22l-.09,0-.82.31-.82.29a2.18,2.18,0,0,0-1,1c-.25.55-.42,1.13-.65,1.7-.27.75-.55,1.5-.84,2.24-.21.59-.42,1.19-.65,1.77-.31.86-.63,1.72-.95,2.58-.16.48-.37,1-.53,1.43,0,.09-.09.18-.05.27l3.12-1.14A.72.72,0,0,0,32,40.5c.2-.58.43-1.14.64-1.73.32-.89.66-1.78,1-2.68l1-2.67c.21-.56.41-1.12.63-1.67.12-.32.25-.65.36-1s0-.68-.35-.59l-.1,0" fill="#fefefe"/>
              <path d="M40.24,23.35s-.05,0-.08.12a3.7,3.7,0,0,0-.11,3.14,1.67,1.67,0,0,0,2.22.87l.34-.17c1.81-.93,2.79-3.85,1.83-5.39,0-.05-.06-.08-.1-.06a.23.23,0,0,0-.08.07c-.61.66-1.23,1.32-1.83,2a.54.54,0,0,1-.14.11.29.29,0,0,1-.13,0l-1.83-.67a.14.14,0,0,0-.09,0" fill="#fff"/>
              <path d="M42.29,22.72a.08.08,0,0,1-.07,0c-.36-.14-.72-.26-1.08-.39,0,0-.08,0,0-.12l1.16-2.64.05-.08s0,.05.07.08c.33.51.66,1,1,1.55.06.09.17.18.15.28s-.17.21-.27.31l-.85.93a.31.31,0,0,1-.1.08m0-4.16-1.76,4c-.05.1,0,.12,0,.14l1.61.57a.11.11,0,0,0,.08,0,.24.24,0,0,0,.09-.06L44,21.47c.08-.08.09-.13,0-.21-.22-.33-.43-.67-.64-1-.35-.55-.71-1.11-1.07-1.69" fill="#fff"/>
            </g>
          </g>
        </g>
      </g>
    </g>
  </g>
</svg>
