<svg id="Capa_1" data-name="Capa 1" xmlns="http://www.w3.org/2000/svg" xmlns:xlink="http://www.w3.org/1999/xlink" width="50" height="50" viewBox="0 0 50 50">
  <defs>
    <clipPath id="clip-path">
      <polygon points="23.19 -16.19 0.4 -26.48 0.56 -56.79 23.35 -46.5 23.19 -16.19" fill="none"/>
    </clipPath>
    <clipPath id="clip-path-2">
      <polygon points="47.9 -55.43 47.74 -25.13 23.19 -16.19 23.35 -46.5 47.9 -55.43" fill="none"/>
    </clipPath>
    <clipPath id="clip-path-3">
      <polygon points="24.04 49.76 1.25 39.47 1.41 9.17 24.2 19.46 24.04 49.76" fill="none"/>
    </clipPath>
    <clipPath id="clip-path-4">
      <polygon points="24.2 19.46 1.41 9.17 25.96 0.24 48.74 10.53 24.2 19.46" fill="none"/>
    </clipPath>
    <clipPath id="clip-path-5">
      <polygon points="48.74 10.53 48.59 40.82 24.04 49.76 24.2 19.46 48.74 10.53" fill="none"/>
    </clipPath>
  </defs>
  <g id="Figment_lido">
    <g style="isolation: isolate">
      <g style="isolation: isolate">
        <g clip-path="url(#clip-path)">
          <polyline points="12.06 2.3 12.04 2.31 12.01 2.28 12.04 2.32 12.06 2.3" fill="#00c1c1"/>
        </g>
      </g>
      <g style="isolation: isolate">
        <g clip-path="url(#clip-path-2)">
          <polyline points="36.84 6.09 36.82 6.12 36.79 6.11 36.82 6.13 36.84 6.09" fill="#00c1c1"/>
        </g>
      </g>
    </g>
  </g>
  <g id="Figment_lido-2" data-name="Figment_lido">
    <g style="isolation: isolate">
      <g>
        <polygon points="24.04 49.76 1.25 39.47 1.41 9.17 24.2 19.46 24.04 49.76" fill="#d6d6d6"/>
        <g style="isolation: isolate">
          <g clip-path="url(#clip-path-3)">
            <g>
              <path d="M11.39,22.63h0l0,0h0s0,0,0,0M12.86,18a.65.65,0,0,0-.49,0l-.67.2c-1.87.6-3.73,1.22-5.62,1.78-.53.16-.76.57-.76,1.4,0,3.22-.07,6.41-.1,9.62a2.36,2.36,0,0,0,0,.59h.1v-.07c0-.14.06-.12.09-.15l2.82-2,.08,0c.08.25,0,.45.07.68v0c.09-.05,0-.2,0-.29s-.07-.25,0-.29l0-.12a.18.18,0,0,1-.08-.21c.15-.39.24-.84.42-1.2L9,27.79c-.07,0-.08-.09-.07-.17.07-.48.13-.95.19-1.44l.09,0v-.07L9.21,26l1-.46.08,0s.09,0,.08-.14,0-.19,0-.27c0-.4.1-.79.13-1.2,0-.14,0-.2.1-.17a.32.32,0,0,1,.11.1.61.61,0,0,0,.16.13h0l-.19-.29.64.3v0l0,0-.72-.33.63-1a.17.17,0,0,1,.21,0,.4.4,0,0,1,.16.14l.8.48c.07,0,.14.06.12.2l.09,0h0c.06,0,.09.13.12.2.54,1,1.08,2,1.61,3a.14.14,0,0,1,0,.18l0,.12a3.25,3.25,0,0,1,.26.78c.07.2.11.42.18.66l-.31-.14h-.09l.13.05c.25.11.37.4.46.81.2.82.44,1.65.65,2.47,0,.11.07.16.1.24L17,33.63l0,.15-.07,0v.06c.12.16.29.24.36.48l.06,0,0,.12,0,0c0-.11,0-.13.06-.12s.09.12.11.15c.68.62,1.36,1.27,2,1.91l.44.42v0c.06-.08,0-.21,0-.34l.09-8.59a2.16,2.16,0,0,0-.47-1.41l-2.32-2.93-4.06-5.1a1.45,1.45,0,0,0-.53-.46" fill="#fefefe"/>
              <path d="M20.13,37a5.6,5.6,0,0,0-.92.72,4.82,4.82,0,0,1-1.9,1c-1.21.36-2.42.77-3.62,1.16a2.74,2.74,0,0,1-.76.11c-.09,0-.17.07-.28,0l-.05,0-.26.06a.41.41,0,0,1-.36,0l-.06,0h0c0,.07-.06.08,0,.21a1.86,1.86,0,0,0,.68.67.78.78,0,0,0,.56,0l.61-.19,5.84-1.87c.37-.11.55-.44.55-1,0-.31,0-.62,0-.93" fill="#061221"/>
              <path d="M5.35,31.52h-.1a2.2,2.2,0,0,0,.34.8c.7.9,1.4,1.81,2.13,2.66a1,1,0,0,1,.41.13,1.62,1.62,0,0,0,.61-.7l0,0-.06-.07h.08c0-.15-.09-.22-.15-.25s-.15,0-.22,0l-.5-.43-.32-.28c-.15-.15-.33-.21-.45-.44l-.57-.49a1.1,1.1,0,0,0-.18-.14.14.14,0,0,0-.09,0l-.91-.8" fill="#38414d"/>
              <path d="M10.75,37.4s0,0-.05,0l0,0a.05.05,0,0,0,0,0h0c.19.43.37.86.56,1.28a.67.67,0,0,1,.1.31,4.93,4.93,0,0,1,.4.87c.07.15.09.2.12.22a.07.07,0,0,0,.06,0,5.86,5.86,0,0,1,.66-.8c.09-.1.08-.19,0-.33a13.43,13.43,0,0,1-1.31-1.12c-.14-.12-.31-.16-.43-.38" fill="#061221"/>
              <path d="M8.13,35.17c-.11,0-.24-.15-.32,0l.1.1L11,39.15s.05.12.1.14h.05c-.74-1.12-1.46-2.26-2.21-3.36a2.73,2.73,0,0,0-.81-.75" fill="#071322"/>
              <path d="M10.32,37l0,.06,0-.06h0m-1.13-.85.3.48,1.62,2.46c.05.08.15.16.13.29h0c.12,0,.17.22.26.32,0-.28-.25-.49-.27-.76h0a13.13,13.13,0,0,1-.73-1.62.76.76,0,0,0-.22-.27l-.09-.16,0,0a.11.11,0,0,1-.1,0c-.07,0-.14-.14-.22-.2s-.42-.36-.65-.52" fill="#071322"/>
              <path d="M14.2,39.65s-.06-.06-.08-.11l-.6-1.21,0,0,1.17,1.19-.47.15H14.2m5.9-2.84v0l-1.73,1.43h-.07a1.78,1.78,0,0,1-.73.29c-.86.3-1.72.58-2.59.87a.23.23,0,0,1-.2,0,.79.79,0,0,1-.15-.12c-.4-.42-.8-.82-1.2-1.22l-.05.1c.21.42.41.85.63,1.26.12.23.08.27,0,.31-.33.1-.69.15-1,.22V40a2.74,2.74,0,0,0,.76-.11c1.2-.39,2.41-.8,3.62-1.16a4.82,4.82,0,0,0,1.9-1,5.6,5.6,0,0,1,.92-.72l0-.18" fill="#b9bcc0"/>
              <path d="M8.85,34.52h0m-.11-.11h0a1.62,1.62,0,0,1-.61.7v.05a2.73,2.73,0,0,1,.81.75c.75,1.1,1.47,2.24,2.21,3.36l.09.1c0-.13-.08-.21-.13-.29L9.49,36.63l-.3-.48c.23.16.44.35.65.52s.15.17.22.2a.11.11,0,0,0,.1,0L8.48,35.35l-.19-.18.55-.65-.1-.11" fill="#b9bcc0"/>
              <path d="M13.23,38.12c-.16.25-.33.49-.49.76-.05.08-.1.11-.17.08l-.08-.06c.07.14.08.23,0,.33a5.86,5.86,0,0,0-.66.8l.06,0h0V40a9,9,0,0,0,1.35-1.81l0-.07" fill="#babec1"/>
              <path d="M11.24,39h0c0,.27.23.48.27.76a.15.15,0,0,0,.06.12h.07a4.93,4.93,0,0,0-.4-.87" fill="#b6b9bd"/>
              <path d="M8.13,35.12A1,1,0,0,0,7.72,35l.09.18c.08-.15.21,0,.32,0v-.05" fill="#e6e7e9"/>
              <path d="M17.36,34.33,13.9,37.57l-.42.35c0,.08-.1,0-.06.16.4.4.8.8,1.2,1.22a.79.79,0,0,0,.15.12.23.23,0,0,0,.2,0c.87-.29,1.73-.57,2.59-.87a1.78,1.78,0,0,0,.73-.29l-.15-.63h0c0-.18-.09-.37-.13-.56-.16-.69-.32-1.37-.47-2l-.14-.58,0-.12" fill="#061221"/>
              <path d="M8.34,29.28l-.08,0-2.82,2s-.13,0-.09.15l.84.71.07.16a.14.14,0,0,1,.09,0,1.1,1.1,0,0,1,.18.14L7.1,33a1.62,1.62,0,0,1,.45.39h0a.73.73,0,0,1,.29.27c.17.13.38.18.5.48.07,0,.15-.06.22,0s.11.1.15.25c.08-.17,0-.43,0-.61s0-.36,0-.54a3.23,3.23,0,0,1-.09-.91c0-.75-.1-1.52-.2-2.29v0c-.06-.23,0-.43-.07-.68" fill="#38414d"/>
              <path d="M15.36,32.12a.07.07,0,0,0-.06,0l0,0,0,0,0,0L13.54,37.5a1.86,1.86,0,0,0,0,.19,7.71,7.71,0,0,0,.77-.6c1-.9,1.94-1.82,2.91-2.73l.13-.08c-.07-.24-.24-.32-.36-.48l-1.39-1.49c-.06-.07-.12-.16-.19-.19" fill="#061221"/>
              <path d="M17.5,34.36s-.05,0-.06.12a1.84,1.84,0,0,1,.14.56c.16.66.32,1.32.47,2,0,.19.09.38.14.57l0,0,0,0c0,.23.11.45.17.68l1.73-1.43h0l-.44-.42c-.68-.64-1.36-1.29-2-1.91,0,0-.07-.13-.11-.15" fill="#061221"/>
              <path d="M14.27,28a.13.13,0,0,1-.12,0l-.06,0L14,28A.09.09,0,0,0,14,28l-.12,0a.87.87,0,0,1-.26-.18c-.14-.07-.07.12-.09.2a1.77,1.77,0,0,1,0,.6,5.5,5.5,0,0,1,.13,1l0,.22c0,.17.12.2.19.29s.2.05.18.26h0l0,0a2.65,2.65,0,0,1,.66.53c.26.24.52.41.77.63l.21.14c-.21-.82-.45-1.65-.65-2.47-.09-.41-.21-.7-.46-.81l-.13-.05-.08,0-.06,0a.21.21,0,0,1-.1-.19" fill="#061221"/>
              <path d="M9,34.12l0,0H9l0,0m-.5-4.72c-.09,0,0,.18,0,.29s.06.24,0,.29h0c.1.77.17,1.54.2,2.29a1.83,1.83,0,0,1,.09.91c0,.18,0,.36,0,.54a1.17,1.17,0,0,1,.1.5h0c.07,0,.05-.09.11-.1q.38-.93.78-1.83a.46.46,0,0,0-.05-.5c-.42-.8-.82-1.6-1.23-2.39" fill="#38414d"/>
              <path d="M10.26,25.49l-1,.46-.05.12c.67,1,1.34,2,2,3.05a.4.4,0,0,0,.15.19h0c-.34-1.27-.68-2.53-1-3.78l-.08,0" fill="#38414d"/>
              <path d="M14.15,26.62v.05h0v-.06m-1.5-3.16h0a.39.39,0,0,1,0,.23c0,.27-.1.49-.1.78s-.07.5-.11.75h0l0,0c0,.29.19.21.25.36a2.83,2.83,0,0,1,.63.45v0h0v0a5.56,5.56,0,0,1,.92.6h0a.1.1,0,0,1,.05,0s0,0,.06,0,.06,0,.08,0c-.53-1-1.07-2-1.61-3,0-.07-.06-.17-.12-.2" fill="#061221"/>
              <path d="M9.16,26.14l-.09,0c-.06.49-.12,1-.19,1.44,0,.08,0,.13.07.17l1.23.88a.18.18,0,0,1,.11.17h.09l.56.38.08.16h.12s0,0,.06,0l.06.05h.05L9.16,26.14" fill="#38414d"/>
              <path d="M8.86,27.87c-.18.36-.27.81-.42,1.2a.18.18,0,0,0,.08.21,4.11,4.11,0,0,0,.29.3l1.79,1.78,0,0v-.05C10,30.15,9.44,29,8.86,27.87" fill="#38414d"/>
              <path d="M10.62,23.75c-.06,0-.09,0-.1.17,0,.41-.09.8-.13,1.2,0,.08-.06.16,0,.27a.93.93,0,0,1,.57,0l0,0,.08,0a1.64,1.64,0,0,1,.85,0,.28.28,0,0,1,.23,0c0-.16-.11-.21-.18-.32-.34-.42-.71-.74-1.08-1.12l0,0a.61.61,0,0,1-.16-.13.32.32,0,0,0-.11-.1" fill="#38414d"/>
              <path d="M15.28,32.16l0,0,0,0c-.18.73-.44,1.38-.66,2.07-.38,1.18-.77,2.38-1.16,3.56l.1.17.42-.35,3.46-3.24-.06,0-.13.08c-1,.91-1.93,1.83-2.91,2.73a7.71,7.71,0,0,1-.77.6,1.86,1.86,0,0,1,0-.19l1.74-5.34" fill="#b6babe"/>
              <path d="M14.47,27a5.23,5.23,0,0,1-.92.64l0,.08,0,0,.07,0,.08,0A.36.36,0,0,1,14,28,.09.09,0,0,1,14,28l.05,0,.06,0a.13.13,0,0,0,.12,0,0,0,0,0,0,0,0l.06,0a.65.65,0,0,1,.25.18l.31.14c-.07-.24-.11-.46-.18-.66a3.25,3.25,0,0,0-.26-.78" fill="#071322"/>
              <path d="M11.23,22.63l-.63,1,.72.33c.16,0,.34.14.54.17-.19-.49-.37-1-.56-1.43l-.07,0" fill="#38414d"/>
              <path d="M11,25.4a.93.93,0,0,0-.57,0c0,.1,0,.11-.08.14.33,1.25.67,2.51,1,3.78h0a.4.4,0,0,1-.15-.19c-.68-1-1.35-2-2-3.05v.07l2.15,3.31.22.09c.07-.09.05-.27.08-.38s0,.22-.16.26c-.34-1.27-.69-2.54-1.06-3.9L12,27l0-.13h0a3.41,3.41,0,0,1-.63-.53c-.3-.26-.59-.54-.92-.84.19-.09.39,0,.54-.08l0,0" fill="#c3c6c9"/>
              <path d="M11.6,22.73l-.21-.1s0,0,0,0h0c.11.26.19.48.28.7s.19.49.29.74l.28-.34,0,.06h0l0-.06c.09-.14.16-.29.3-.35s0-.16-.12-.2l-.8-.48" fill="#071321"/>
              <path d="M10.52,33h0m-2-3.68,0,.12c.41.79.81,1.59,1.23,2.39a.46.46,0,0,1,.05.5q-.4.9-.78,1.83l0,0c.29-.55.53-1.16.78-1.75.06-.12.1-.18.17-.15a.41.41,0,0,1,.14.15c.31.42.32.41.15.79-.05.11-.09.23-.14.34l.1.1c.05-.28.1-.56.31-.66h0v-.24l-.06,0c-.2-.09-.32-.38-.51-.58l.78-.4c-.08.28-.14.51-.21.73v0c.14,0,.11-.24.17-.35s.06-.17.1-.26l-.08-.25,0,0,0,0L10,32s-.07,0-.1,0a.28.28,0,0,1-.09-.11L8.56,29.44l.22.17,0,0a4.11,4.11,0,0,1-.29-.3" fill="#c4c7ca"/>
              <path d="M15.85,31.84c-.19-.09-.27.14-.44.13h0l0,0,1.47,1.62.08.11.07,0,0-.15-1.12-1.79" fill="#071322"/>
              <path d="M12.21,25.14h0m-.64-1.08L11.36,24h0l-.64-.3.19.29,0,0c.37.38.74.7,1.08,1.12,0,0,0,0,.05,0l0,0,0,0s.05,0,.07,0c-.1-.53-.28-.93-.62-1.08" fill="#3b4450"/>
              <path d="M9,27.79l-.09.08C9.44,29,10,30.15,10.61,31.29l0,0h0l0,0L8.81,29.58l0,0c.62.67,1.26,1.29,1.89,1.92h0l.05-.12L9,27.88c.47.35.91.66,1.34,1a.18.18,0,0,0-.11-.17L9,27.79" fill="#c4c7ca"/>
              <path d="M11.44,22.59a.17.17,0,0,0-.21,0l.07,0c.19.47.37.94.56,1.43-.2,0-.38-.19-.54-.17l0,0v0l.21.07c.34.15.52.55.62,1.08h.05l-.06-.22c-.21-.5-.2-.89.08-1.11l0-.06-.28.34c-.1-.25-.2-.5-.29-.74s-.17-.44-.28-.7l0,0h0l.21.1a.4.4,0,0,0-.16-.14" fill="#bcbfc3"/>
              <path d="M15.39,32c0,.05-.1,0-.09.1a.07.07,0,0,1,.06,0c.07,0,.13.12.19.19l1.39,1.49v-.06l-.08-.11L15.39,32" fill="#b5b8bd"/>
              <path d="M14.43,26.84v0c-.31.23-.61.47-.93.69l.06,0a5.23,5.23,0,0,0,.92-.64l0-.12" fill="#b8bbbf"/>
              <path d="M5.35,31.45v.07l.91.8-.07-.16-.84-.71" fill="#babec2"/>
              <path d="M15.54,31.46c0,.13.1.15.17.25l-.36.22v0l.06,0h0c.17,0,.25-.22.44-.13,0-.08-.11-.13-.1-.24l-.21-.14" fill="#bbbfc2"/>
              <path d="M12.61,23.45l-.09,0c-.14.06-.21.21-.3.35l0,.06c.06-.08.13-.15.18-.23s0-.05.05,0,0,0,0,.06a.24.24,0,0,0,0,.07h0a.39.39,0,0,0,0-.23" fill="#bcbfc3"/>
              <path d="M14.35,28.08l-.06,0a0,0,0,0,1,0,0,.21.21,0,0,0,.1.19l.06,0,.08,0h.09a.65.65,0,0,0-.25-.18" fill="#8f949b"/>
              <path d="M14.38,26.66c0,.05-.05.06-.08,0s0,0-.06,0a.1.1,0,0,0-.05,0h0v.06l.26.19v0a.14.14,0,0,0,0-.18" fill="#dfe0e2"/>
              <path d="M17.4,34.45l.14.58h0a1.84,1.84,0,0,0-.14-.56l0,0" fill="#c5c8cb"/>
              <path d="M13.37,38.18h-.1A9,9,0,0,1,11.92,40l.06,0a.19.19,0,0,0,.15,0,.22.22,0,0,1,.16,0l.05,0L12.6,40a.48.48,0,0,1,.33-.05c.34-.07.7-.12,1-.22.12,0,.16-.08,0-.31-.22-.41-.42-.84-.63-1.26" fill="#061221"/>
              <path d="M12.29,40.05a.22.22,0,0,0-.16,0,.19.19,0,0,1-.15,0l-.06,0v.08l.06,0a.41.41,0,0,0,.36,0l-.05,0" fill="#c6c9cc"/>
              <path d="M12.93,40a.48.48,0,0,0-.33.05l.05,0c.11.05.19,0,.28,0V40" fill="#c6c9cc"/>
              <path d="M8.75,33.72c0,.18.07.44,0,.61H8.66l.06.07,0,0,.1.11h0l0,0,0-.11.13-.08v-.08H9v-.1l0,0c-.06,0,0,.14-.11.1h0a1.17,1.17,0,0,0-.1-.5" fill="#dfe1e2"/>
              <path d="M7.87,33.63v0l.5.43c-.12-.3-.33-.35-.5-.48" fill="#d3d5d8"/>
              <path d="M7.1,33c.12.23.3.29.45.44v0A1.62,1.62,0,0,0,7.1,33" fill="#d2d5d7"/>
              <path d="M7.58,33.36h0v0l.32.28v0a.73.73,0,0,0-.29-.27" fill="#d2d5d7"/>
              <path d="M12.77,37.83c-.08.05-.18,0-.28,0a.72.72,0,0,1-.32-.05.88.88,0,0,1-.17-.12,2.2,2.2,0,0,1-.71-.21.92.92,0,0,1-.5-.1l-.08,0,0,.14c.12.22.29.26.43.38a13.43,13.43,0,0,0,1.31,1.12l.08.06c.07,0,.12,0,.17-.08.16-.27.33-.51.49-.76a.18.18,0,0,0-.09-.1l-.07,0L13,38h0s-.09,0-.13,0-.06,0-.09-.11" fill="#071322"/>
              <path d="M10.51,37l0,0h0c0,.08.13.23,0,.26A13.13,13.13,0,0,0,11.24,39h0a.67.67,0,0,0-.1-.31c-.19-.42-.37-.85-.56-1.28h0a.05.05,0,0,1,0,0l0,0s0,0,.05,0l0-.14s0-.07-.07-.08l0,0h0s-.06,0-.07-.11" fill="#b2b6bb"/>
              <path d="M8.84,34.52l-.55.65.19.18,1.68,1.53,0,0c.05-.11,0-.18-.09-.25-.41-.71-.85-1.38-1.23-2.1l0,0h0" fill="#061221"/>
              <path d="M10.33,37h0m-1.4-2.53,0,.11h0c.38.72.82,1.39,1.23,2.1,0,.07.14.14.09.25l.09.16,0-.06v0h0a13.21,13.21,0,0,0-.72-1.28c-.19-.33-.4-.66-.59-1,0-.08-.13-.15-.09-.26" fill="#b7bbbf"/>
              <path d="M10.49,36.9s0,0-.05.06,0,.07-.06,0l-.05,0h0v0l0,.06a.76.76,0,0,1,.22.27c.11,0,0-.18,0-.26h0l0,0v-.12l0,0" fill="#f1f1f2"/>
              <path d="M13.55,38.31l0,0,.6,1.21c0,.05.05.1.08.11h.05l.47-.15-1.17-1.19" fill="#071322"/>
              <path d="M13.38,37.75s0,.18-.08.15l-.06,0V38l-.46-.12c0,.07.06.1.09.11S13,38,13,38h0l.06,0,.07,0a.18.18,0,0,1,.09.1l0,.07h.1l.05-.1c0-.12.06-.08.06-.16l-.1-.17" fill="#cbced0"/>
              <path d="M18.19,37.59l0,0h0l.15.63h.07c-.06-.23-.12-.45-.17-.68" fill="#c5c8cb"/>
              <path d="M17.58,35h0c.15.67.31,1.35.47,2l0,0c-.15-.66-.31-1.32-.47-2" fill="#bbbec2"/>
              <path d="M18.05,37l0,0c0,.19.09.38.13.56h0l0,0c-.05-.19-.1-.38-.14-.57" fill="#bbbfc3"/>
              <path d="M8.62,32.27a3.23,3.23,0,0,0,.09.91,1.83,1.83,0,0,0-.09-.91" fill="#e8e9ea"/>
              <path d="M15.41,32l-.06,0h0l-.09,0-.06,0h0l0,.2,0,0,0,0,0,0c0-.09.06,0,.09-.1l0,0h0" fill="#eff0f1"/>
              <path d="M13.3,27.6h0L13,27.48l-.18-.09-.23-.11a1.77,1.77,0,0,0-.42-.15l1.41,2.51c.06,0,0-.15.08-.13a5.5,5.5,0,0,0-.13-1,3.4,3.4,0,0,1-.08-.62c0-.16,0-.26-.15-.32" fill="#071322"/>
              <path d="M14.11,30.3l0,0h0c.4.55.83,1,1.22,1.63l.09,0h0l.36-.22c-.07-.1-.16-.12-.17-.25-.25-.22-.51-.39-.77-.63a2.65,2.65,0,0,0-.66-.53" fill="#0a1524"/>
              <path d="M12.17,27.13l-.05.06v0c.44.71.82,1.46,1.24,2.19.09.14.16.28.25.43l.08-.08,0-.22c-.07,0,0,.12-.08.13l-1.41-2.51" fill="#b7babe"/>
              <path d="M12.16,26.58c-.14,0-.07.2-.1.3L12,27v.18l.05.08,0,0h0v-.13l.05-.06a1.77,1.77,0,0,1,.42.15l.23.11.18.09.27.11h0c.12.06.15.16.15.32l0,0c0-.08-.05-.27.09-.2v-.06l0-.08-.06,0h0a.07.07,0,0,1-.06,0h-.08l-.54-.25-.53-.23h0c-.14-.07-.08-.12,0-.21l-.06,0c-.08-.11,0-.16,0-.24" fill="#e4e5e6"/>
              <path d="M13.69,29.73l-.08.08c0,.09-.06.07-.1.11V30a.11.11,0,0,1,.14,0,.94.94,0,0,1,.25.24l.11.06h0c0-.21-.12-.18-.18-.26s-.18-.12-.19-.29" fill="#dbdcde"/>
              <path d="M13.77,27.76l-.08,0-.07,0,0,0v.06a.87.87,0,0,0,.26.18L14,28a.36.36,0,0,0-.19-.21" fill="#a8adb2"/>
              <path d="M13.49,27.94l0,0a3.4,3.4,0,0,0,.08.62,1.77,1.77,0,0,0,0-.6" fill="#bfc2c6"/>
              <path d="M12.49,23.55s0,0-.05,0-.12.15-.18.23h0c-.28.22-.29.61-.08,1.11l.06.22h0l.06,0h0c0-.27,0-.57.15-.73,0-.29.09-.51.1-.78h0a.24.24,0,0,1,0-.07s0-.06,0-.06" fill="#0a1624"/>
              <path d="M12.24,25.15h-.05s0,0-.07,0l0,0,0,0s0,0-.05,0,.17.16.18.32,0,.21.08.3h0c.05,0,0-.2.08-.17a.23.23,0,0,1,.05.05l0,0c0-.07,0-.06.05-.05h0l.06,0c-.06-.15-.29-.07-.25-.36l0,0h0l-.06,0" fill="#b4b8bc"/>
              <path d="M13.23,26v0l.91.62v-.05a5.56,5.56,0,0,0-.92-.6" fill="#cdd0d3"/>
              <path d="M12.6,25.57l-.06,0,.69.44v0a2.83,2.83,0,0,0-.63-.45" fill="#c5c8cc"/>
              <path d="M12.46,24.46c-.15.16-.12.46-.15.73h0c0-.25.07-.5.11-.75" fill="#cacccf"/>
              <path d="M9,27.88l1.77,3.53s0,.07.07.07.05-.06.08-.11c.18-.54.37-1.09.56-1.63,0-.12-.08-.13-.13-.17s-.15-.07-.18-.21H11L10.55,29c-.07-.05-.14-.07-.17-.2h-.09c-.43-.3-.87-.61-1.34-1" fill="#38414d"/>
              <path d="M11.53,29.54l-.22-.09h-.05l-.06-.05s0,0-.06,0h0c0,.14.11.16.18.21s.13.05.13.17,0,0,0,0,0,0,0,0,0,0,0,0l.09,0v-.07a.15.15,0,0,1-.08-.17" fill="#d7d9db"/>
              <path d="M10.38,28.83c0,.13.1.15.17.2l.47.34-.08-.16-.56-.38" fill="#cbcdd0"/>
              <path d="M12.18,25.45a.28.28,0,0,0-.23,0,1.54,1.54,0,0,1-.85,0l-.08,0c-.15.08-.35,0-.54.08.33.3.62.58.92.84a3.41,3.41,0,0,0,.63.53h0c0-.1,0-.3.1-.3a2.2,2.2,0,0,1,.1-.83c-.09-.09,0-.21-.08-.3" fill="#38414d"/>
              <path d="M12,25.41a1.64,1.64,0,0,0-.85,0,1.54,1.54,0,0,0,.85,0" fill="#c7cacd"/>
              <path d="M12.08,33.53h0l0,.07,0-.07m2-1h0l0,.06,0-.07m1.08-.41-1,.48a4.87,4.87,0,0,1-.8.38l0,0h0l0,0a9.69,9.69,0,0,1-1.25.62l-1,.51v0l2.18,3.7.06,0c.07,0,0-.12.08-.15.39-1.18.78-2.38,1.16-3.56.22-.69.48-1.34.66-2.07" fill="#061221"/>
              <path d="M10.39,25.52c.37,1.36.72,2.63,1.06,3.9.11,0,0-.28.16-.26l.06-.31c0-.24,0-.46.15-.54v-.07c-.1-.16,0-.24,0-.33a3.79,3.79,0,0,1,.18-.72V27l-1.63-1.49" fill="#38414d"/>
              <path d="M12.06,27.27l-.24,1v.07a3.06,3.06,0,0,1-.15.54l-.06.31c0,.11,0,.29-.08.38a.15.15,0,0,0,.08.17c.12.1.24.13.33.28a.76.76,0,0,0,.2.17.12.12,0,0,0,.08,0,.24.24,0,0,0,.09.06c.08,0,.1,0,.07-.21a1,1,0,0,1,0-.53,4.57,4.57,0,0,0-.13-.88,3.77,3.77,0,0,1-.08-1l0-.13-.05-.14,0,0" fill="#071322"/>
              <path d="M8.56,29.44l1.25,2.44A.28.28,0,0,0,9.9,32s.06,0,.1,0l.72-.36,0,0,0,0h0C10,30.9,9.4,30.28,8.78,29.61l-.22-.17" fill="#38414d"/>
              <path d="M10,32.25c-.07,0-.11,0-.17.15-.25.59-.49,1.2-.78,1.75H9v.1h.06a7.63,7.63,0,0,1,.87-.57l.17-.16c.05-.11.09-.23.14-.34.17-.38.16-.37-.15-.79a.41.41,0,0,0-.14-.15" fill="#38414d"/>
              <path d="M10.85,32h0l0,0h0m0-.12c0,.09-.06.18-.1.26s0,.33-.17.35h0a.42.42,0,0,1,0,.25V33h0a3.6,3.6,0,0,1,.36.83c.11,0,0-.21.09-.19a6.16,6.16,0,0,0-.09-.72c0-.31,0-.61-.07-.92v-.11" fill="#0d1927"/>
              <path d="M10.73,31.72l-.78.4c.19.2.31.49.51.58l.06,0a.42.42,0,0,0,0-.25v0c.07-.22.13-.45.21-.73" fill="#3a434e"/>
              <path d="M10.51,33c-.21.1-.26.38-.31.66l.3.16.12,0a.86.86,0,0,1,.17.13l.05,0s.08,0,0-.11a6,6,0,0,1-.37-.91m0,0h0" fill="#081423"/>
              <path d="M10.1,33.53l-.17.16.06,0s0,0,.07,0,0,0,0,.08l0,.25,0-.07c-.06-.26,0-.3.11-.24l.08,0h.14l-.3-.16-.1-.1" fill="#c8cbce"/>
              <path d="M10.87,31.37c0,.05,0,.13-.08.11s0,0-.07-.07l-.05.12h0l0,0,0,0,.08.25V32h0c0-.16,0-.38.1-.45l-.08-.16" fill="#e6e7e8"/>
              <path d="M13.49,27.57h-.06a.07.07,0,0,0,.06,0m-1-2h0s0,0-.05.05l.86,1.64c0,.11.09.24.18.29h0c.32-.22.62-.46.93-.69l-.26-.19h0l-.91-.62h0l-.69-.44" fill="#071321"/>
              <path d="M10.33,37h0m-.27-3.24s0,0-.07,0l-.93.62-.13.08c0,.11,0,.18.09.26.19.33.4.66.59,1A13.21,13.21,0,0,1,10.33,37c.07,0,0-.21.09-.23l0-.13c0-.24-.16-.51,0-.71v0a1.08,1.08,0,0,1-.09-.79c0-.34-.09-.67-.13-1l0-.25c0-.06,0-.08,0-.08" fill="#061221"/>
              <path d="M9.93,33.69a7.63,7.63,0,0,0-.87.57h0v.08l.93-.62-.06,0" fill="#bcbfc3"/>
              <path d="M11.05,34.21v0l-.09,0v.31c-.05.24-.1.49-.14.73v.07c-.08.51-.16,1-.25,1.51l0,.11V37c0,.07,0,.1.07.11h0l0,0s0,0,.07.08l.08,0a.47.47,0,0,1,.38,0l.12.06a2.2,2.2,0,0,0,.71.21,1.36,1.36,0,0,1,.37.1l.12.07c.1,0,.2.1.28,0l.46.12-2-3.45-.14-.27v0" fill="#061221"/>
              <path d="M12.37,37.71a1.36,1.36,0,0,0-.37-.1.88.88,0,0,0,.17.12.72.72,0,0,0,.32.05l-.12-.07" fill="#e5e7e8"/>
              <path d="M11.17,37.34a.47.47,0,0,0-.38,0,.92.92,0,0,0,.5.1l-.12-.06" fill="#dfe1e3"/>
              <path d="M10.51,36.66l-.09.07c-.08,0,0,.19-.09.23h0l.05,0s0,0,.06,0,0-.07.05-.06l0,0,0-.11-.05-.15" fill="#7e848c"/>
              <path d="M11.06,34.15v.08l.14.27,2,3.45v-.1l-2.18-3.7" fill="#b7babe"/>
              <path d="M13.66,30a.11.11,0,0,0-.14,0h0c-.16.07-.31.2-.51.17h0a2.18,2.18,0,0,1-.74.35h0c-.15.24-.4.28-.58.46,0,.08.1.05.11.15a.29.29,0,0,1,.22,0l.1,0a.7.7,0,0,1,.44.07.65.65,0,0,1,.16.09.74.74,0,0,1,.28.06l0,0c.2-.07.43.06.64.12h0a1.26,1.26,0,0,1,.41.09l.15.09a3.1,3.1,0,0,1,.69.19c.05-.13.14,0,.23,0h0l-1.28-1.71a.94.94,0,0,0-.25-.24" fill="#071221"/>
              <path d="M14,30.27l-.11-.06,1.28,1.71.06,0c-.39-.59-.82-1.08-1.22-1.63h0" fill="#b5b9bd"/>
              <path d="M15.16,31.92c-.09,0-.18-.12-.23,0l.17.09-1,.51,0,.07,1-.48,0-.2" fill="#b9bdc0"/>
              <path d="M12.12,27.19v.09c0,.06,0,.11,0,.17l0,.13a4.09,4.09,0,0,1,.08,1,4.57,4.57,0,0,1,.13.88c.07.26.06.51.11.78.2,0,.33-.17.53-.12h0c.14-.16.34-.17.51-.24s.1,0,.1-.11-.16-.29-.25-.43c-.42-.73-.8-1.48-1.24-2.19" fill="#061221"/>
              <path d="M12.73,26.36s-.05,0-.08.05l-.43.44c0,.09-.1.14,0,.21h0l.53.23.54.25c-.16-.38-.37-.73-.55-1.1a.25.25,0,0,0-.07-.09" fill="#071321"/>
              <path d="M12.35,25.57c-.08,0,0,.17-.08.17h0a2.2,2.2,0,0,0-.1.83c0,.08-.08.13,0,.24.13-.14.25-.31.39-.44s.14-.21,0-.43a.82.82,0,0,1-.14-.33.23.23,0,0,0-.05-.05" fill="#3c4550"/>
              <path d="M12.44,25.64l0,0a.82.82,0,0,0,.14.33c.15.22.12.32,0,.43s-.26.3-.39.44l.06,0,.43-.44s0-.07.08-.05a.25.25,0,0,1,.07.09c.18.37.39.72.55,1.1h.13c-.09-.05-.13-.18-.18-.29l-.86-1.64" fill="#bec1c5"/>
              <path d="M12,27.19a3.79,3.79,0,0,0-.18.72c0,.09-.11.17,0,.33l.24-1L12,27.19" fill="#bec1c5"/>
              <path d="M13.51,29.92c-.17.07-.37.08-.51.24.2,0,.35-.1.51-.17v-.07" fill="#b8bcc0"/>
              <path d="M11.53,29.74s0,0,0,0,0,0,0,0,0,0,0,0c-.19.54-.38,1.09-.56,1.63l.08.16.43-.34c.07,0,0,.13,0,.18h0l0,0a2.23,2.23,0,0,0,0-.23l-.09-.11-.44.34A6.51,6.51,0,0,1,11.48,30l0,0a1.94,1.94,0,0,0,0-.24" fill="#c0c3c6"/>
              <path d="M11.62,29.78l-.09,0a1.94,1.94,0,0,1,0,.24,7.71,7.71,0,0,0,0,.95,2.59,2.59,0,0,1,.71-.43h0c.11-.08,0-.21,0-.33a.12.12,0,0,1-.08,0,.76.76,0,0,1-.2-.17.17.17,0,0,1-.1,0,.82.82,0,0,1-.22-.2" fill="#071322"/>
              <path d="M11.61,29.71v.07a.82.82,0,0,0,.22.2.17.17,0,0,0,.1,0c-.09-.15-.21-.18-.33-.28" fill="#abafb4"/>
              <path d="M13.32,32.93a11.78,11.78,0,0,0-1.24.6l0,.07A9.69,9.69,0,0,0,13.35,33l0,0" fill="#b9bcc0"/>
              <path d="M12.07,33.53c-.29.13-.57.28-.86.4,0,0-.06.08-.1.06s0,0-.06-.09,0,.13,0,.21l1-.51,0-.07" fill="#b6b9bd"/>
              <path d="M11,33.61c-.1,0,0,.22-.09.19v.08c0,.14,0,.12,0,.11l-.05,0h-.14l.07,0,0,0,.06,0a.26.26,0,0,1,.13.14l.09,0v-.12c0-.08-.07-.16,0-.21v-.18h0l0-.09" fill="#d2d5d7"/>
              <path d="M14.12,32.54a3.49,3.49,0,0,0-.8.39l0,0a4.87,4.87,0,0,0,.8-.38l0-.06" fill="#b9bcc0"/>
              <path d="M11.82,28.31c-.15.08-.16.3-.15.54a3.06,3.06,0,0,0,.15-.54" fill="#cfd1d4"/>
              <path d="M12.36,29.5a1,1,0,0,0,0,.53c0,.19,0,.25-.07.21a.24.24,0,0,1-.09-.06c.06.12.15.25,0,.33a2.18,2.18,0,0,0,.74-.35c-.2-.05-.33.15-.53.12-.05-.27,0-.52-.11-.78" fill="#bfc2c5"/>
              <path d="M12.15,27.58a3.77,3.77,0,0,0,.08,1,4.09,4.09,0,0,0-.08-1" fill="#ced1d3"/>
              <path d="M11.38,31.19l-.43.34c-.13.07-.09.29-.1.45h0a3.44,3.44,0,0,1,0,.9,6.16,6.16,0,0,1,.09.72l0,.09c.05-.28.09-.58.14-.86,0-.07,0-.21.1-.16v-.12a1.21,1.21,0,0,1,.15-.81c0-.11,0-.24.05-.35l0,0c0-.05,0-.13,0-.18" fill="#081423"/>
              <path d="M10.51,33h0a6,6,0,0,0,.37.91V33.8a3.6,3.6,0,0,0-.36-.83h0" fill="#c4c7ca"/>
              <path d="M10.85,32l0,0c0,.31,0,.61.07.92a3.44,3.44,0,0,0,0-.9" fill="#e5e6e8"/>
              <path d="M10.62,33.83l-.12,0h-.14a.49.49,0,0,0,.19.14l.1,0h.14a.86.86,0,0,0-.17-.13" fill="#8e939a"/>
              <path d="M10.28,33.74c-.12-.06-.17,0-.11.24l0,.07c0,.33.09.66.13,1s.05.52.09.79v0a1.94,1.94,0,0,1,0,.71l0,.13.09-.07.21-1.22c0-.07,0-.17.09-.14v-.07A.9.9,0,0,1,11,34.5v-.31a.26.26,0,0,0-.13-.14l-.06,0,0,0-.07,0-.1,0a.49.49,0,0,1-.19-.14l-.08,0" fill="#081423"/>
              <path d="M10.26,35.05a1.08,1.08,0,0,0,.09.79c0-.27-.06-.53-.09-.79" fill="#e7e8e9"/>
              <path d="M10.35,35.89c-.12.2,0,.47,0,.71a1.94,1.94,0,0,0,0-.71" fill="#e3e4e6"/>
              <path d="M10.81,35.3c-.09,0-.08.07-.09.14l-.21,1.22.05.15c.09-.51.17-1,.25-1.51" fill="#c4c6ca"/>
              <path d="M11,34.5a.9.9,0,0,0-.14.73c0-.24.09-.49.14-.73" fill="#cacdd0"/>
              <path d="M14.93,31.93a3.1,3.1,0,0,0-.69-.19,1.67,1.67,0,0,1-.56-.15v0a2.13,2.13,0,0,1-.64-.15l0,0a.74.74,0,0,0-.28-.06,2.82,2.82,0,0,1-.6-.16l-.1,0a.29.29,0,0,0-.22,0l-.14,0c-.06,0-.15-.06-.15.07a2.23,2.23,0,0,1,0,.23h0c0,.11,0,.24-.05.35l-.15.81v.12c-.09.33-.08.73-.2,1v.18c0,.06,0,.08.06.09s.07-.05.1-.06c.29-.12.57-.27.86-.4h0a11.78,11.78,0,0,1,1.24-.6h0a3.49,3.49,0,0,1,.8-.39h0l1-.51-.17-.09" fill="#061221"/>
              <path d="M12.26,30.5a2.59,2.59,0,0,0-.71.43l.1.16.14,0c0-.1-.09-.07-.11-.15.18-.18.43-.22.58-.46" fill="#bfc2c5"/>
              <path d="M13.68,31.56c-.21-.06-.44-.19-.64-.12a2.13,2.13,0,0,0,.64.15v0h0" fill="#e7e8e9"/>
              <path d="M12.55,31.26a.7.7,0,0,0-.44-.07,2.82,2.82,0,0,0,.6.16.65.65,0,0,0-.16-.09" fill="#e7e8e9"/>
              <path d="M14.09,31.65a1.26,1.26,0,0,0-.41-.09h0v0a1.67,1.67,0,0,0,.56.15l-.15-.09" fill="#e7e8e9"/>
              <path d="M11.48,30A6.51,6.51,0,0,0,11,31.39l.44-.34c.11-.19,0-.48.06-.72s0-.25,0-.37" fill="#3b444f"/>
              <path d="M11.51,30l0,0c0,.12,0,.25,0,.37s0,.53-.06.72l.09.11c0-.13.09-.08.15-.07l-.1-.16a7.71,7.71,0,0,1,0-.95" fill="#ededef"/>
              <path d="M11.26,32.68c-.11,0-.08.09-.1.16-.05.28-.09.58-.14.86h0c.12-.31.11-.71.2-1" fill="#c8cbce"/>
              <path d="M11.41,31.75a1.21,1.21,0,0,0-.15.81l.15-.81" fill="#cacdd0"/>
            </g>
          </g>
        </g>
      </g>
      <g>
        <polygon points="24.2 19.46 1.41 9.17 25.96 0.24 48.74 10.53 24.2 19.46" fill="#ebebeb"/>
        <g style="isolation: isolate">
          <g clip-path="url(#clip-path-4)">
            <g>
              <path d="M19,8.36h0M16.61,6a1,1,0,0,0-.4.26c-.13.15-.24.29-.35.44-1,1.23-1.92,2.46-2.93,3.68-.29.35-.15.61.47.88,2.38,1.06,4.73,2.13,7.1,3.2a2.21,2.21,0,0,0,.46.18L21,14.6l-.05,0c-.14,0-.05-.08,0-.11l.64-2.2,0-.06c.24,0,.35.14.57.19h0c0-.07-.13-.08-.2-.11s-.23,0-.2-.11l0-.06a.26.26,0,0,1-.22,0,8.23,8.23,0,0,1-.58-.62v-.08a.18.18,0,0,1-.18,0l-.93-.57,0-.06-.06,0,0-.06.44-.73.1,0s0-.07-.05-.09a.27.27,0,0,1-.22-.08c-.27-.15-.51-.31-.79-.46-.1-.06-.12-.09-.06-.11l.16,0,.22,0h-.35l.7-.26h-.08l-.78.28c-.09-.23-.17-.44-.24-.66,0,0,0-.1.12-.13l.23,0,1-.28c.09,0,.16-.06.24,0l.1,0,0,0a1,1,0,0,1,.24,0L24.24,8c.08,0,.16,0,.17,0l.12,0a4.58,4.58,0,0,1,.78.11l.62.12-.34.12-.05.06a.52.52,0,0,1,.13-.06,1.7,1.7,0,0,1,.95,0c.76.16,1.56.3,2.34.45a.52.52,0,0,0,.25,0l2.19,0,.13,0-.08,0,.05,0a2.6,2.6,0,0,1,.63,0l.08,0,.13,0,0,0c-.08,0-.08-.05,0-.06a1.37,1.37,0,0,1,.19,0l3-.5.65-.1v0c0-.06-.13-.1-.22-.14L29.59,5.18A3,3,0,0,0,28.17,5l-3.94.33-6.88.57a3.14,3.14,0,0,0-.74.14" fill="#fefefe"/>
              <path d="M36.29,8.22a2.38,2.38,0,0,0-.15.74,2.59,2.59,0,0,1-.66,1.39c-.65.79-1.26,1.59-1.87,2.39a2.7,2.7,0,0,1-.49.45c-.06.05-.08.12-.2.16l-.06,0c-.06.05-.1.11-.15.16a.42.42,0,0,1-.25.21l-.08,0h0c.06,0,0,.07.17.06a3.17,3.17,0,0,0,1-.15,1,1,0,0,0,.45-.3L34.3,13c1-1.28,2-2.57,3-3.84.19-.24.08-.45-.34-.63l-.7-.31" fill="#061221"/>
              <path d="M21,14.6l-.07.06a3.41,3.41,0,0,0,.86.07c1.2-.09,2.4-.18,3.59-.31a2,2,0,0,1,.41-.18.57.57,0,0,0-.07-.57h-.12l.06,0a.51.51,0,0,0-.29,0c-.08,0-.11.08-.15.12l-.7.14-.46.09a3.26,3.26,0,0,1-.67.1l-.79.16a.93.93,0,0,0-.24.05s-.06,0-.07,0L21,14.6" fill="#38414d"/>
              <path d="M29.51,13.53s0,0,0,0h-.06l-.05,0,0,0,1.38.11a.87.87,0,0,1,.3,0,5.94,5.94,0,0,1,1,.07h.26l0,0a1.73,1.73,0,0,1-.1-.63c0-.08-.09-.1-.25-.1-.57.14-1.2.25-1.82.35a2.14,2.14,0,0,1-.6.11" fill="#061221"/>
              <path d="M25.86,14.26c-.09.05-.3.08-.25.17l.16,0L31,14c.05,0,.13,0,.17,0s0,0,0,0c-1.4,0-2.8.07-4.18.12a4.76,4.76,0,0,0-1.17.21" fill="#071322"/>
              <path d="M28.87,13.64l0,0,0,0h0M27.39,14H28L31,13.89c.11,0,.24,0,.32,0h0a1.87,1.87,0,0,1,.42,0c-.23-.07-.54,0-.77-.1h0c-.61,0-1.18-.08-1.76-.13a1.09,1.09,0,0,0-.37,0h-.23l-.08.05a2.61,2.61,0,0,1-.32.06c-.28.06-.59.11-.88.19" fill="#071322"/>
              <path d="M33.79,12.37h-.14l-1.36-.07v0L34.07,12l-.24.31,0,0m2.35-4.19h0c-.09.48-.17,1-.25,1.43l-.06,0c0,.18-.21.34-.34.5-.42.57-.87,1.14-1.3,1.71a.31.31,0,0,1-.16.11.81.81,0,0,1-.21,0L32,12.28l0,.06c.47,0,1,.06,1.42.07.26,0,.25,0,.19.12s-.41.43-.61.64l0,0a2.7,2.7,0,0,0,.49-.45c.61-.8,1.22-1.6,1.87-2.39A2.59,2.59,0,0,0,36.14,9a2.38,2.38,0,0,1,.15-.74l-.15,0" fill="#b9bcc0"/>
              <path d="M25.92,13.65h0m-.17,0h0a.57.57,0,0,1,.07.57l0,0A4.76,4.76,0,0,1,27,14.05c1.38-.05,2.78-.08,4.18-.12l.14,0c-.08-.05-.21,0-.32,0L28,14h-.59c.29-.08.6-.13.88-.19a2.61,2.61,0,0,0,.32-.06l.08-.05-2.41.43-.28.05c0-.18,0-.35-.07-.52l-.16,0" fill="#b9bcc0"/>
              <path d="M31.92,12.4c.06.17.11.34.19.52s0,.09-.06.12l-.12,0c.16,0,.24,0,.25.1a1.73,1.73,0,0,0,.1.63l.07,0h0l-.05,0A3.11,3.11,0,0,0,32,12.4h-.08" fill="#babec1"/>
              <path d="M31,13.77h0c.23.08.54,0,.77.1a.23.23,0,0,0,.14,0l.05,0a5.94,5.94,0,0,0-1-.07" fill="#b6b9bd"/>
              <path d="M25.82,14.24a2,2,0,0,0-.41.18h.2c-.05-.09.16-.12.25-.17l0,0" fill="#e6e7e9"/>
              <path d="M32.21,8.88c-.07,1-.13,2-.2,3,0,.12,0,.23,0,.35s-.05.07.07.08L33.84,12a.81.81,0,0,0,.21,0,.31.31,0,0,0,.16-.11c.43-.57.88-1.14,1.3-1.71.13-.16.32-.32.34-.5l-.58-.12v0l-.52-.11L32.87,9l-.53-.11-.13,0" fill="#061221"/>
              <path d="M21.62,12.21l0,.06-.64,2.2s-.1.08,0,.11l1.16-.24h.18s0,0,.07,0a.93.93,0,0,1,.24-.05l.79-.16a3.16,3.16,0,0,1,.64-.12h0a1.31,1.31,0,0,1,.42-.08,2,2,0,0,1,.74-.12s.07-.1.15-.12a.51.51,0,0,1,.29,0c-.07-.1-.34-.12-.44-.2l-.44-.16a2.67,2.67,0,0,1-.74-.25c-.59-.22-1.21-.43-1.87-.63h0c-.22-.05-.33-.15-.57-.19" fill="#38414d"/>
              <path d="M29.05,9.26,29,9.3l0,0-.06,0,.06,0L31.69,12l.1.09a4,4,0,0,0,.14-.62c.06-.84.1-1.67.17-2.5l0-.1a2.6,2.6,0,0,0-.63,0l-2.17.28a1.26,1.26,0,0,0-.28,0" fill="#061221"/>
              <path d="M32.34,8.82s0,0,0,.06a2.65,2.65,0,0,1,.52.11l1.84.39.52.11v0l.64.13c.08-.47.16-.95.25-1.43h0l-.65.1-3,.5a1.37,1.37,0,0,0-.19,0" fill="#061221"/>
              <path d="M25.18,8.54s0,.05-.08.06l-.07,0-.06,0-.08,0-.13.05a.94.94,0,0,1-.32.08c-.16.06,0,.08.08.12A1.6,1.6,0,0,1,25,9.1a7.46,7.46,0,0,1,.83.25l.19.06c.13.05.24,0,.35,0s.2-.1.34,0h0l0,0,0,0a5.6,5.6,0,0,1,.91-.19C28,9.11,28.34,9,28.7,9L29,8.88c-.78-.15-1.58-.29-2.34-.45a1.7,1.7,0,0,0-.95,0,.52.52,0,0,0-.13.06l-.08,0-.06,0a.32.32,0,0,1-.22,0" fill="#061221"/>
              <path d="M25.71,13.45h0m-3.9-1.27c0,.06.12.07.2.11s.23,0,.2.11h0c.66.2,1.28.41,1.87.63a1.93,1.93,0,0,1,.74.25l.44.16a1.05,1.05,0,0,1,.44.11h0c.09,0,0-.06,0-.09-.27-.34-.53-.69-.77-1-.07-.11-.19-.13-.42-.14l-2.71-.1" fill="#38414d"/>
              <path d="M20.24,9.92l-.44.73,0,.06,3.81-.11a.8.8,0,0,0,.26,0h0l-3.59-.67-.1,0" fill="#38414d"/>
              <path d="M24,8.14h0m-3.5-.21,0,0a.23.23,0,0,1,.14.1,4.75,4.75,0,0,0,.5.31l.48.31h0l0,0c.19.12.3,0,.46,0a4.57,4.57,0,0,1,.81-.2h0A8.72,8.72,0,0,1,24,8.14s0,0,0,0l.07,0,.07,0s.05,0,0-.06l-3.46-.09a1,1,0,0,0-.24,0" fill="#061221"/>
              <path d="M19.9,10.74l0,.06.93.57a.18.18,0,0,0,.18,0L22.56,11a.26.26,0,0,1,.21,0l.06-.06.7-.18h.18l.07-.07h0l.09,0,.07,0,0,0-4.1.11" fill="#38414d"/>
              <path d="M21,11.47a8.23,8.23,0,0,0,.58.62.26.26,0,0,0,.22,0l.44-.06,2.68-.42h0L21,11.47" fill="#38414d"/>
              <path d="M19.22,9.15c-.06,0,0,0,.06.11.28.15.52.31.79.46a.27.27,0,0,0,.22.08,1.19,1.19,0,0,1,.44-.32h0l0-.05A2,2,0,0,1,21.46,9a.42.42,0,0,1,.21-.12,1.15,1.15,0,0,0-.37,0c-.58.05-1.1.15-1.66.22h0l-.22,0-.16,0" fill="#38414d"/>
              <path d="M29,9.32l-.06,0h0c.41.34.7.7,1.05,1,.59.6,1.19,1.2,1.77,1.8H32c0-.12,0-.23,0-.35.07-1,.13-2,.2-3l-.08,0,0,.1c-.07.83-.11,1.66-.17,2.5a4,4,0,0,1-.14.62l-.1-.09L29,9.32" fill="#b6babe"/>
              <path d="M24.53,8.07a2.48,2.48,0,0,1-.22.72h.08l0,0,.08,0,.09,0a.6.6,0,0,1,.29,0l.08,0,.06,0,.07,0s.08,0,.08-.06h0l.06,0a1.73,1.73,0,0,1,.31-.08l.34-.12-.62-.12a4.58,4.58,0,0,0-.78-.11" fill="#071322"/>
              <path d="M18.85,8.44c.07.22.15.43.24.66l.78-.28a4.67,4.67,0,0,1,.54-.25l-1.49-.15-.07,0" fill="#38414d"/>
              <path d="M20.73,9.48a1.19,1.19,0,0,0-.44.32c.08,0,.06,0,.05.09l3.59.67h0a.8.8,0,0,1-.26,0l-3.81.11.06,0,4.1-.11.23-.09c0-.07-.16-.12-.22-.17s.13.1.07.17l-3.71-.69,2.34-.41-.06-.06h0a7.27,7.27,0,0,1-.86.17l-1.33.24c.08-.13.3-.22.35-.33h0" fill="#c3c6c9"/>
              <path d="M19.2,8.27,19,8.36h0l.73.07.77.08c0-.09,0-.18,0-.26h0c0-.1-.1-.18,0-.28s-.15,0-.24,0l-1,.28" fill="#071321"/>
              <path d="M26,12.21h0m-4.26-.09,0,.06,2.71.1c.23,0,.35,0,.42.14.24.34.5.69.77,1h0a7.07,7.07,0,0,0-.71-1c-.05-.07-.06-.12,0-.14a.71.71,0,0,1,.22,0c.55,0,.54,0,.7.18l.16.19.14,0c-.17-.12-.34-.24-.25-.39h0l-.19-.08-.06,0a4.54,4.54,0,0,1-.81.09l.29-.56.39.36h0c.09-.09-.1-.14-.14-.21s-.08-.09-.12-.14l-.24,0h0c-.09.17-.19.34-.27.52a.12.12,0,0,1-.06.06h-.15l-2.78-.11.3-.06v0l-.44.06" fill="#c4c7ca"/>
              <path d="M29.21,8.9c-.21.08-.1.2-.23.29h0v0l2.33-.28h.13l.08,0-.13,0-2.19,0" fill="#071322"/>
              <path d="M21.46,8.73h0m-1.29,0-.21.1h0l-.7.26h.39c.56-.07,1.08-.17,1.66-.22,0,0,0,0,0,0h.05l0,0s.05,0,0,0a2.28,2.28,0,0,0-1.27,0" fill="#3b4450"/>
              <path d="M21,11.39v.08l3.88.15h0l-2.68.42v0c1-.13,1.92-.27,2.87-.42h0L25,11.6l-4-.18L22.77,11a.26.26,0,0,0-.21,0L21,11.39" fill="#c4c7ca"/>
              <path d="M19,8.31c-.07,0-.12.08-.12.13l.07,0,1.49.15a4.67,4.67,0,0,0-.54.25H20l.21-.1a2.28,2.28,0,0,1,1.27,0h0l0,0-.2,0c-.55,0-.82-.17-.78-.4h-.07c0,.08,0,.17,0,.26l-.77-.08L19,8.38h0l.23-.09-.23,0" fill="#bcbfc3"/>
              <path d="M29,9.21s-.07.06,0,.09l.06,0a1.26,1.26,0,0,1,.28,0l2.17-.28-.05,0h-.13L29,9.21" fill="#b5b8bd"/>
              <path d="M24.41,8.05l0,0c-.07.24-.12.49-.19.74l.07,0a2.48,2.48,0,0,0,.22-.72l-.12,0" fill="#b8bbbf"/>
              <path d="M21,14.58l.05,0,1.29-.25h-.18L21,14.58" fill="#babec2"/>
              <path d="M28.7,9c.1,0,.18,0,.3,0a1.48,1.48,0,0,1-.1.27h0l0,0h0c.13-.09,0-.21.23-.29a.52.52,0,0,1-.25,0L28.7,9" fill="#bbbfc2"/>
              <path d="M20.5,8l-.1,0c-.06.1,0,.18,0,.28h.07a.58.58,0,0,0,0-.18s0,0,0,0,.05,0,.08,0h.08A.23.23,0,0,0,20.5,8" fill="#bcbfc3"/>
              <path d="M25.28,8.5l-.06,0h0a.32.32,0,0,0,.22,0l.06,0,.08,0,.05-.06a1.73,1.73,0,0,0-.31.08" fill="#8f949b"/>
              <path d="M24.24,8s0,.05,0,.06l-.07,0-.07,0s0,0,0,0h0l.35-.08,0,0s-.09,0-.17,0" fill="#dfe0e2"/>
              <path d="M32.34,8.9l.53.11,0,0a2.65,2.65,0,0,0-.52-.11l0,0" fill="#c5c8cb"/>
              <path d="M32.07,12.34,32,12.4a3.11,3.11,0,0,1,.33,1.34l.08,0a.24.24,0,0,0,.11-.08.29.29,0,0,1,.12-.09l.07,0s.09-.11.15-.16.12-.14.21-.2.44-.42.61-.64.07-.11-.19-.12c-.47,0-1,0-1.42-.07" fill="#061221"/>
              <path d="M32.64,13.55a.29.29,0,0,0-.12.09.24.24,0,0,1-.11.08l-.08,0,.05,0,.08,0a.42.42,0,0,0,.25-.21l-.07,0" fill="#c6c9cc"/>
              <path d="M33.07,13.17c-.09.06-.19.12-.21.2l.06,0c.12,0,.14-.11.2-.16l0,0" fill="#c6c9cc"/>
              <path d="M25.25,13.44c.1.08.37.1.44.2l-.06,0h.12l.16,0h0l0,0,0-.06,0-.1-.06,0h0l-.05,0-.07,0h-.05s.08.06,0,.09h0a1.05,1.05,0,0,0-.44-.11" fill="#dfe1e2"/>
              <path d="M24.51,13.89l0,0,.7-.14a2,2,0,0,0-.74.12" fill="#d3d5d8"/>
              <path d="M23.42,14.1a3.26,3.26,0,0,0,.67-.1l0,0a3.16,3.16,0,0,0-.64.12" fill="#d2d5d7"/>
              <path d="M24.09,14h0l0,0,.46-.09,0,0a1.31,1.31,0,0,0-.42.08" fill="#d2d5d7"/>
              <path d="M31.36,12.56c0,.06-.16.1-.26.14a1.21,1.21,0,0,1-.28.16,1,1,0,0,1-.22.05,3.17,3.17,0,0,1-.69.33,1.36,1.36,0,0,1-.45.24l-.1,0,.15,0a2.14,2.14,0,0,0,.6-.11c.62-.1,1.25-.21,1.82-.35l.12,0q.11,0,.06-.12c-.08-.18-.13-.35-.19-.52a.32.32,0,0,0-.15,0l-.07,0-.05,0h0l-.12.07a.28.28,0,0,1-.14,0" fill="#071322"/>
              <path d="M29.05,13.55h0c.05,0,.27,0,.21.08.58,0,1.15.12,1.76.13h0a.87.87,0,0,0-.3,0l-1.38-.11,0,0,.05,0h.06s0,0,0,0l-.15,0a.19.19,0,0,0-.11,0l0,0h0a.22.22,0,0,1-.14,0" fill="#b2b6bb"/>
              <path d="M25.91,13.65c0,.17.05.34.07.52l.28-.05,2.41-.43h0c0-.07-.17,0-.25,0-.84,0-1.67,0-2.5,0h-.05" fill="#061221"/>
              <path d="M28.86,13.62h0m-2.95,0,0,.06h0c.83,0,1.66,0,2.5,0,.08,0,.21,0,.25,0h.19l0,0v0h0c-.5,0-1,0-1.49,0H26.17c-.09,0-.21,0-.26,0" fill="#b7bbbf"/>
              <path d="M28.94,13.51s0,0,0,.05,0,0,0,.06h-.05l0,0a1.09,1.09,0,0,1,.37,0c.06-.08-.16,0-.21-.08h0l-.07,0h0" fill="#f1f1f2"/>
              <path d="M32.3,12.29v0l1.36.07h.14l0,0,.24-.31-1.77.26" fill="#071322"/>
              <path d="M31.75,12.19s.13.07.05.1l-.07,0,.06,0-.43.21a.28.28,0,0,0,.14,0l.12-.07h0l.05,0,.07,0a.32.32,0,0,1,.15,0H32l.07-.06,0-.06c-.12,0,0-.06-.07-.08h-.21" fill="#cbced0"/>
              <path d="M35.27,9.49v0l.58.12.06,0-.64-.13" fill="#c5c8cb"/>
              <path d="M32.91,9l0,0,1.88.41v0L32.91,9" fill="#bbbec2"/>
              <path d="M34.75,9.38v0l.52.11v0l-.52-.11" fill="#bbbfc3"/>
              <path d="M24.07,13a2.67,2.67,0,0,0,.74.25,1.93,1.93,0,0,0-.74-.25" fill="#e8e9ea"/>
              <path d="M29,9.19l0,0h0l-.1,0,0,0,0,0,.18,0h0l.06,0,0,0c-.07,0,0-.06,0-.09v0h0" fill="#eff0f1"/>
              <path d="M24.12,8.93h0l-.28.11-.21.07-.26.09a3.3,3.3,0,0,0-.42.19l2.94,0s-.11,0,0-.09A7.46,7.46,0,0,0,25,9.1,3.09,3.09,0,0,1,24.48,9a.45.45,0,0,0-.36,0" fill="#071322"/>
              <path d="M26.74,9.36l0,0,0,0h0c.72,0,1.41-.12,2.14-.15l.1,0h0a1.48,1.48,0,0,0,.1-.27c-.12,0-.2.05-.3,0-.36.07-.68.16-1.05.22a5.6,5.6,0,0,0-.91.19" fill="#0a1524"/>
              <path d="M22.92,9.4v0l0,0h0l-.07,0c.86,0,1.71,0,2.58,0H26V9.41l-.19-.06c-.07,0,.08.05,0,.09l-2.94,0" fill="#b7babe"/>
              <path d="M22.49,9.22c-.1.08.11.11.16.16l.06.06.13.07H23l0,0-.05,0,0,0v0a3.3,3.3,0,0,1,.42-.19l.26-.09.21-.07.28-.11h0a.45.45,0,0,1,.36,0l0,0s-.24-.06-.08-.12h-.13l-.07,0h0l-.05,0-.08,0-.59.22L23,9.31h0c-.16.06-.15,0-.18,0l-.07,0c-.15,0-.11-.06-.19-.08" fill="#e4e5e6"/>
              <path d="M26,9.41v.07c.07,0,0,0,0,.08l0,0h0s0-.06.09-.08a2,2,0,0,1,.37-.06l.12,0h.05c-.14-.08-.23,0-.34,0s-.22.06-.35,0" fill="#dbdcde"/>
              <path d="M24.6,8.72l-.09,0-.08,0,0,0h.05a.94.94,0,0,0,.32-.08l.13-.05a.6.6,0,0,0-.29,0" fill="#a8adb2"/>
              <path d="M24.52,8.93l0,0A3.09,3.09,0,0,0,25,9.1a1.6,1.6,0,0,0-.47-.17" fill="#bfc2c6"/>
              <path d="M20.48,8.05s0,0,0,0a.58.58,0,0,1,0,.18h0c0,.23.23.36.78.4l.2,0h0l.06,0h0c-.18-.1-.42-.18-.43-.32a4.75,4.75,0,0,1-.5-.31h-.08s-.06,0-.08,0" fill="#0a1624"/>
              <path d="M21.5,8.71l0,0h0s0,0,0,0l0,0h-.05s0,0,0,0a1.15,1.15,0,0,1,.37,0c.14,0,.15.08.29.05h0s-.15-.07-.06-.1l.07,0H22c-.05,0,0,0,0,0h0l0,0,0,0c-.16,0-.27.14-.46,0l0,0h0l-.06,0" fill="#b4b8bc"/>
              <path d="M22.89,8.45h0l1.16-.31h0a8.72,8.72,0,0,0-1.15.31" fill="#cdd0d3"/>
              <path d="M22.08,8.65l0,0,.85-.23h0a4.57,4.57,0,0,0-.81.2" fill="#c5c8cc"/>
              <path d="M21.14,8.36c0,.14.25.22.43.32h.05l-.48-.31" fill="#cacccf"/>
              <path d="M21,11.42l4,.18.11,0c.05,0,0-.05,0-.08-.26-.28-.53-.56-.78-.84-.1,0-.16,0-.24,0a.52.52,0,0,1-.29,0l-.07.07-.61.14a.46.46,0,0,1-.27,0l-.06.06L21,11.42" fill="#38414d"/>
              <path d="M24.23,10.54l-.23.09,0,0-.07,0-.09,0h0a.52.52,0,0,0,.29,0c.08,0,.14-.05.24,0h.05s0,0,0,0,0,0,0,0l.1,0-.06,0a.25.25,0,0,1-.19,0" fill="#d7d9db"/>
              <path d="M22.83,10.94a.46.46,0,0,0,.27,0l.61-.14h-.18l-.7.18" fill="#cbcdd0"/>
              <path d="M21.67,8.84a.42.42,0,0,0-.21.12,2,2,0,0,1-.65.46l0,.05c-.05.11-.27.2-.35.33l1.33-.24a7.27,7.27,0,0,0,.86-.17h0c0-.05-.26-.08-.16-.16A1.24,1.24,0,0,1,22,8.89c-.14,0-.15-.07-.29-.05" fill="#38414d"/>
              <path d="M21.46,9a2,2,0,0,0-.65.46A2,2,0,0,0,21.46,9" fill="#c7cacd"/>
              <path d="M27.62,11.54h0m.8-1.45h0m.51-.74c-.14.25-.3.5-.44.74a3.2,3.2,0,0,1-.31.57h0c-.14.29-.31.59-.49.89l-.41.74,0,0,0,0,0,0h4.41l.07,0c.08,0-.05-.06-.05-.1-.58-.6-1.18-1.2-1.77-1.8-.35-.34-.64-.7-1.05-1" fill="#061221"/>
              <path d="M20.37,9.85l3.71.69c.06-.07-.18-.11-.07-.17l-.19-.14c-.18-.07-.35-.14-.29-.26l-.05,0c-.2,0-.19-.07-.24-.11a1.72,1.72,0,0,1-.4-.33l-.13-.07-2.34.41" fill="#38414d"/>
              <path d="M22.94,9.5l.54.45.05,0c.09.09.24.17.29.26l.19.14c.06.05.2.1.22.17a.25.25,0,0,0,.19,0,2.85,2.85,0,0,1,.46-.1,1.16,1.16,0,0,0,.28,0l.07,0,.11,0c.09,0,.07-.07-.1-.11s-.35-.08-.41-.16a4,4,0,0,0-.76-.22,3.43,3.43,0,0,1-.84-.3l-.1,0h-.19" fill="#071322"/>
              <path d="M21.9,12.14l2.78.11h.15a.12.12,0,0,0,.06-.06c.08-.18.18-.35.27-.52h-.09c-.95.15-1.9.29-2.87.42l-.3.06" fill="#38414d"/>
              <path d="M25.05,12.3c-.07,0-.06.07,0,.14a7.07,7.07,0,0,1,.71,1h0l.07,0,.05,0h0a2.36,2.36,0,0,1,.23-.66v-.15L26,12.44c-.16-.21-.15-.21-.7-.18a.71.71,0,0,0-.22,0" fill="#38414d"/>
              <path d="M25.53,11.71l0,0,0,0h0m-.13,0c0,.05.1.09.12.14s.23.12.14.21h0a.38.38,0,0,1,.18.08l.19.08h0a4.44,4.44,0,0,1,.9.07c.1,0-.17-.07-.07-.12-.22-.05-.37-.14-.61-.18l-.74-.26-.1,0" fill="#0d1927"/>
              <path d="M25.25,11.69l-.29.56a4.54,4.54,0,0,0,.81-.09l.06,0a.38.38,0,0,0-.18-.08h0l-.39-.36" fill="#3a434e"/>
              <path d="M26,12.22c-.09.15.08.27.25.39l.35-.12.12-.05.23,0,.05,0c.05,0,.09,0,0-.06a7.28,7.28,0,0,1-1-.09m0,0h0" fill="#081423"/>
              <path d="M26.13,12.63v.15l.07,0s0,0,0,0h.09l.21.06,0,0c-.24-.05-.22-.09-.09-.14l.09,0,.11-.08-.35.12-.14,0" fill="#c8cbce"/>
              <path d="M25.09,11.5s.08.06,0,.08l-.11,0,.06.06h.09l.24,0,.1,0,0,0c-.11-.06-.3-.11-.26-.2h-.18" fill="#e6e7e8"/>
              <path d="M24.25,8.81l-.05,0,.05,0m-2.19-.12,0,0h0s-.05,0,0,0l1.88.06a.83.83,0,0,0,.35,0h0c.07-.25.12-.5.19-.74l-.35.08h0l-1.16.31h0l-.85.23" fill="#071321"/>
              <path d="M28.85,13.62h0m-2.62-.91s0,0,0,0l-.24.72,0,.1c.05.06.17,0,.26,0h1.19c.5,0,1,0,1.49,0,0,0-.14-.07-.1-.12l-.12,0c-.19-.06-.5-.07-.56-.2l0,0a1.11,1.11,0,0,1-.66-.21l-.84-.26-.21-.06h-.09" fill="#061221"/>
              <path d="M26.12,12.78a2.36,2.36,0,0,0-.23.66h0l.06,0,.24-.72-.07,0" fill="#bcbfc3"/>
              <path d="M27.35,12.33h0l-.1,0,.22.1.44.32.06,0,.93.63.06.06.07,0a.22.22,0,0,0,.14,0h0l0,0a.19.19,0,0,1,.11,0l.1,0a.65.65,0,0,1,.32-.19l.13,0a3.17,3.17,0,0,0,.69-.33,2.42,2.42,0,0,1,.36-.17l.14,0c.1,0,.23-.08.26-.14l.43-.21H27.35" fill="#061221"/>
              <path d="M31,12.74a2.42,2.42,0,0,0-.36.17,1,1,0,0,0,.22-.05,1.21,1.21,0,0,0,.28-.16l-.14,0" fill="#e5e7e8"/>
              <path d="M29.78,13.29a.65.65,0,0,0-.32.19,1.36,1.36,0,0,0,.45-.24l-.13,0" fill="#dfe1e3"/>
              <path d="M28.77,13.42l0,.08c0,.05.13.07.1.12h.08s0,0,0-.06,0,0,0-.05h0l-.06-.06-.15,0" fill="#7e848c"/>
              <path d="M27.32,12.31l0,0h4.44l-.06,0H27.32" fill="#b7babe"/>
              <path d="M26.16,9.5c-.05,0-.09,0-.09.08h0c-.07.11-.08.24-.25.34h0a1.21,1.21,0,0,1-.3.52h0c.07.16-.1.31-.1.47s.12,0,.2,0a.48.48,0,0,1,.19-.1l.11-.05a1.12,1.12,0,0,1,.38-.21l.2-.07a1.42,1.42,0,0,1,.25-.13l.06,0a1.89,1.89,0,0,1,.57-.31h0a2.24,2.24,0,0,1,.38-.2l.18-.05a6.78,6.78,0,0,1,.66-.32c0-.07.09-.09.17-.13l0,0-2.25.15a2,2,0,0,0-.37.06" fill="#071221"/>
              <path d="M26.65,9.4l-.12,0,2.25-.15,0,0c-.73,0-1.42.11-2.14.15h0" fill="#b5b9bd"/>
              <path d="M28.75,9.31c-.08,0-.22.06-.17.13l.2-.06c-.12.25-.24.48-.36.71h.07c.14-.24.3-.49.44-.74l-.18,0" fill="#b9bdc0"/>
              <path d="M22.92,9.45l.07,0,.14,0,.1,0a4.11,4.11,0,0,1,.84.3,4,4,0,0,1,.76.22c.25,0,.42.13.66.19.18-.1.13-.24.31-.33h0c0-.13.13-.25.2-.37s.06-.05,0-.08h-.5c-.87,0-1.72,0-2.58,0" fill="#061221"/>
              <path d="M22.76,8.83s0,0,0,.07,0,.25,0,.38,0,.1.18,0h0l.58-.21.59-.22c-.4,0-.82,0-1.23-.05h-.13" fill="#071321"/>
              <path d="M21.89,8.79c-.09,0,.1.07.06.1h0a1.24,1.24,0,0,0,.53.33c.08,0,0,.09.19.08a2.2,2.2,0,0,1,0-.36c0-.1-.05-.14-.32-.13a1.11,1.11,0,0,1-.36,0l-.07,0" fill="#3c4550"/>
              <path d="M22,8.76H22a1.11,1.11,0,0,0,.36,0c.27,0,.33,0,.32.13a2.2,2.2,0,0,0,0,.36l.07,0c0-.13,0-.26,0-.38s0-.05,0-.07h.13c.41,0,.83,0,1.23.05l.08,0,.05,0h0a.83.83,0,0,1-.35,0L22,8.76" fill="#bec1c5"/>
              <path d="M22.84,9.51a1.72,1.72,0,0,0,.4.33c.05,0,0,.12.24.11l-.54-.45h-.1" fill="#bec1c5"/>
              <path d="M26,9.56c-.07.12-.23.24-.2.37.17-.1.18-.23.25-.34h0l0,0" fill="#b8bcc0"/>
              <path d="M24.38,10.6s0,0,0,0,0,0,0,0h-.05c.25.28.52.56.78.84h.18c0-.12.05-.24.08-.35s.11,0,.17,0h0l-.15-.1-.14,0c0,.12-.06.23-.08.35-.24-.25-.6-.48-.69-.75h0l-.16-.09" fill="#c0c3c6"/>
              <path d="M24.48,10.57l-.1,0,.16.09a5.71,5.71,0,0,0,.74.29c.07-.18.06-.36.22-.53h0c0-.08-.13-.08-.27-.08l-.07,0a1.16,1.16,0,0,1-.28,0,.15.15,0,0,1-.09.06,2.44,2.44,0,0,1-.31.06" fill="#071322"/>
              <path d="M24.42,10.55l.06,0a2.44,2.44,0,0,0,.31-.06.15.15,0,0,0,.09-.06,2.85,2.85,0,0,0-.46.1" fill="#abafb4"/>
              <path d="M28.11,10.66a7,7,0,0,0-.49.88h.07c.18-.3.35-.6.49-.89h-.07" fill="#b9bcc0"/>
              <path d="M27.62,11.54c-.12.21-.23.41-.36.61,0,0,0,.06,0,.07h-.11s.1,0,.16.06l.41-.74h-.07" fill="#b6b9bd"/>
              <path d="M26.85,12.17c-.1.05.17.07.07.12l.06,0c.13,0,.09,0,0,.06l-.05,0-.11.08.09,0,.05,0,.06,0a.62.62,0,0,1,.21,0l.1,0h0l0,0,0,0c-.06,0-.17,0-.16-.06L27,12.16h-.14" fill="#d2d5d7"/>
              <path d="M28.42,10.09a2.39,2.39,0,0,0-.31.56h.07a3.2,3.2,0,0,0,.31-.57h-.07" fill="#b9bcc0"/>
              <path d="M23.53,10c-.06.12.11.19.29.26-.05-.09-.2-.17-.29-.26" fill="#cfd1d4"/>
              <path d="M24.83,10.07c.06.08.25.12.41.16s.19.07.1.11l-.11,0c.14,0,.3,0,.27.08a1.21,1.21,0,0,0,.3-.52c-.18.09-.13.23-.31.33-.24-.06-.41-.15-.66-.19" fill="#bfc2c5"/>
              <path d="M23.23,9.55a3.43,3.43,0,0,0,.84.3,4.11,4.11,0,0,0-.84-.3" fill="#ced1d3"/>
              <path d="M25.35,11.16c0,.11-.05.23-.08.35s.15.14.26.2h0a3.52,3.52,0,0,1,.7.28c.24,0,.39.13.61.18h.09l-.53-.36s-.16-.06,0-.11l-.09,0c-.26-.09-.46-.2-.49-.34l-.23-.15h0c-.06,0-.09,0-.17,0" fill="#081423"/>
              <path d="M26,12.22h0a7.28,7.28,0,0,0,1,.09l-.06,0a4.44,4.44,0,0,0-.9-.07h0" fill="#c4c7ca"/>
              <path d="M25.54,11.71l0,0,.74.26a3.52,3.52,0,0,0-.7-.28" fill="#e5e6e8"/>
              <path d="M26.74,12.44l-.12.05-.11.08a.84.84,0,0,0,.24-.06l.11,0,.11-.08-.23,0" fill="#8e939a"/>
              <path d="M26.42,12.6c-.13.05-.15.09.09.14l0,0,.84.26.66.21,0,0a1.57,1.57,0,0,1,.56.2l.12,0,0-.08L28,12.91s-.12-.06,0-.09l-.06,0c-.24-.08-.43-.18-.44-.32l-.22-.1a.62.62,0,0,0-.21,0l-.06,0-.05,0-.09,0-.11,0a.84.84,0,0,1-.24.06l-.09,0" fill="#081423"/>
              <path d="M27.37,13a1.11,1.11,0,0,0,.66.21L27.37,13" fill="#e7e8e9"/>
              <path d="M28.07,13.27c.06.13.37.14.56.2a1.57,1.57,0,0,0-.56-.2" fill="#e3e4e6"/>
              <path d="M28,12.82c-.1,0,0,.06,0,.09l.76.51.15,0L28,12.82" fill="#c4c6ca"/>
              <path d="M27.49,12.47c0,.14.2.24.44.32l-.44-.32" fill="#cacdd0"/>
              <path d="M28.58,9.44a6.78,6.78,0,0,0-.66.32,2.26,2.26,0,0,1-.54.26h0a2.5,2.5,0,0,1-.59.3l-.06,0a1.42,1.42,0,0,0-.25.13,3.12,3.12,0,0,1-.58.28l-.11.05a.48.48,0,0,0-.19.1l-.13.08s-.15.06-.06.1l.15.1h0l.23.15.49.34.09,0c.18.16.48.29.62.45l.13.07h.11c.05,0,0-.05,0-.07.13-.2.24-.4.36-.61h0a7,7,0,0,1,.49-.88h0a2.39,2.39,0,0,1,.31-.56h0c.12-.23.24-.46.36-.71l-.2.06" fill="#061221"/>
              <path d="M25.5,10.45c-.16.17-.15.35-.22.53h.19l.13-.08c-.08,0-.12,0-.2,0s.17-.31.1-.47" fill="#bfc2c5"/>
              <path d="M27.36,10a1.89,1.89,0,0,0-.57.31,2.5,2.5,0,0,0,.59-.3h0" fill="#e7e8e9"/>
              <path d="M26.28,10.54a1.12,1.12,0,0,0-.38.21,3.12,3.12,0,0,0,.58-.28l-.2.07" fill="#e7e8e9"/>
              <path d="M27.74,9.81a2.24,2.24,0,0,0-.38.2h0a2.26,2.26,0,0,0,.54-.26l-.18.05" fill="#e7e8e9"/>
              <path d="M24.5,10.7c.09.27.45.5.69.75,0-.12,0-.23.08-.35s-.34-.18-.5-.27l-.27-.13" fill="#3b444f"/>
              <path d="M24.54,10.69h0l.27.13c.16.09.44.14.5.27l.14,0c-.09,0,0-.07.06-.1h-.19a5.71,5.71,0,0,1-.74-.29" fill="#ededef"/>
              <path d="M26.37,11.71c-.12,0,0,.08,0,.11l.53.36h0c-.14-.16-.44-.29-.62-.45" fill="#c8cbce"/>
              <path d="M25.79,11.33c0,.14.23.25.49.34l-.49-.34" fill="#cacdd0"/>
            </g>
          </g>
        </g>
      </g>
      <g>
        <polygon points="48.74 10.53 48.59 40.82 24.04 49.76 24.2 19.46 48.74 10.53" fill="#f0f0f0"/>
        <g style="isolation: isolate">
          <g clip-path="url(#clip-path-5)">
            <g>
              <path d="M34.88,24.51h-.05l0,0h0l0,0m1.58-5.89a1.4,1.4,0,0,0-.55.39l-.72.77c-2.06,2.2-4.1,4.42-6.17,6.6a2.73,2.73,0,0,0-.82,2.05c0,3.21,0,6.43-.05,9.64a2,2,0,0,0,0,.56l.11-.1v-.06c0-.11.06-.17.1-.24l3.08-4.39.09-.11c.09.19,0,.44.09.62h0c.1-.12,0-.2,0-.3s-.07-.19,0-.31l.05-.15c-.08,0-.12,0-.09-.15.16-.52.26-1,.45-1.54l.1-.16c-.07,0-.09,0-.07-.13.07-.52.13-1.05.19-1.58l.1-.11v-.08l.06-.16,1.14-1.36.09,0c0-.07.1-.13.08-.22s0-.15,0-.24c.05-.43.11-.87.14-1.31,0-.15,0-.22.11-.25a.17.17,0,0,1,.12,0,.55.55,0,0,0,.18,0v0l-.22-.11.71-.26h0l0,0-.79.29c.25-.53.47-1,.69-1.5a.48.48,0,0,1,.23-.22.28.28,0,0,1,.18,0l.88-.21c.07,0,.16-.06.13.1l.1,0,.05,0c.07,0,.09.06.13.09l1.79,1.59c.06,0,.1,0,.06.14l0,.08c.18.1.19.38.29.56a5.19,5.19,0,0,1,.2.5l-.34.12-.1.09.14-.06c.28-.1.41.08.52.4.22.65.49,1.27.73,1.9,0,.11.07.11.11.15l1.24.82.05.11-.08,0v.06c.13.06.32,0,.4.17h.07l0,.09h0c0-.11,0-.15.06-.16s.1,0,.12.05l2.26.14.48,0v0a.74.74,0,0,0,.05-.38l0-8.62c0-.51-.17-.86-.53-1-.85-.32-1.72-.61-2.57-.91L37,18.62a.83.83,0,0,0-.58,0" fill="#fefefe"/>
              <path d="M44.58,31.24a17.76,17.76,0,0,0-1,1.5,16,16,0,0,1-2.08,2.68c-1.34,1.41-2.65,2.85-4,4.28a6.56,6.56,0,0,1-.83.76,1,1,0,0,1-.3.26h-.06l-.28.29a1.14,1.14,0,0,1-.4.34l-.07,0h0c0,.06-.07.14,0,.2a.86.86,0,0,0,.75.08,1.68,1.68,0,0,0,.61-.45l.66-.71L44,33.64a2,2,0,0,0,.6-1.47c0-.31,0-.62,0-.93" fill="#061221"/>
              <path d="M28.3,38.53l-.11.1a.74.74,0,0,0,.38.5c.78.3,1.56.59,2.36.81a1.6,1.6,0,0,1,.45-.23A4.32,4.32,0,0,0,32,38.5s0,0,0,0H32l.09-.07c0-.11-.11-.13-.17-.11a.9.9,0,0,0-.24.21h-.91c-.17,0-.37.09-.5,0h-.62a.46.46,0,0,0-.2,0l-.1.06h-1" fill="#38414d"/>
              <path d="M34.28,39.72a.1.1,0,0,1-.05.07h-.09l0,0c.21.26.42.53.62.8,0,.06.13.08.11.21.21.1.31.34.45.53s.11.12.14.1,0,0,.07-.06c.2-.48.48-.92.72-1.37.09-.17.08-.25,0-.32a7.81,7.81,0,0,1-1.45,0c-.15,0-.33.11-.47,0" fill="#061221"/>
              <path d="M31.38,39.77c-.12.08-.26.06-.34.26l.11,0,3.42,1.2s.06.07.1,0,0,0,.06,0c-.82-.48-1.62-1-2.45-1.44a1.37,1.37,0,0,0-.9,0" fill="#071322"/>
              <path d="M33.8,39.69l0,.09,0-.09h0m-1.24.14.33.21c.6.35,1.2.7,1.79,1.06.06,0,.17,0,.15.17h0c.12-.05.17.07.28.09-.05-.23-.27-.27-.31-.52h0a4.88,4.88,0,0,1-.8-1,.29.29,0,0,0-.25-.08l-.1-.08-.05,0a.2.2,0,0,1-.1.07c-.09,0-.16,0-.24,0a5.94,5.94,0,0,0-.72,0" fill="#071322"/>
              <path d="M38.08,39S38,39,38,39c-.22-.24-.44-.46-.67-.69l0-.05,1.3.16-.52.56a.13.13,0,0,1-.06.05m6.46-7.89v0l-1.9,2.92-.07,0a6,6,0,0,1-.81.92c-.93,1-1.88,2.05-2.83,3.09a.51.51,0,0,1-.22.16.32.32,0,0,1-.17,0c-.44-.08-.88-.12-1.32-.18l-.06.14c.24.24.46.5.71.71s.08.2,0,.35c-.36.38-.75.73-1.13,1.1v.06a6.56,6.56,0,0,0,.83-.76c1.33-1.43,2.64-2.87,4-4.28a16,16,0,0,0,2.08-2.68,17.76,17.76,0,0,1,1-1.5l0-.14" fill="#b9bcc0"/>
              <path d="M32.17,38.51h0m-.12,0v0a4.32,4.32,0,0,1-.66,1.21v.06a1.37,1.37,0,0,1,.9,0c.83.45,1.63,1,2.45,1.44l.1,0c0-.14-.09-.14-.15-.17-.59-.36-1.19-.71-1.79-1.06l-.33-.21a5.94,5.94,0,0,1,.72,0c.08,0,.15,0,.24,0a.2.2,0,0,0,.1-.07l-1.85-.08h-.21c.21-.39.41-.75.6-1.12l-.11,0" fill="#b9bcc0"/>
              <path d="M37,38.3c-.17.39-.36.78-.53,1.17,0,.13-.11.21-.19.23a.15.15,0,0,1-.09,0c.08.07.09.15,0,.32-.24.45-.52.89-.72,1.37h.1V41.3a24.7,24.7,0,0,0,1.47-3l0,0" fill="#babec1"/>
              <path d="M34.82,40.84h0c0,.25.26.29.31.52,0,.06,0,.08.06.07a.21.21,0,0,0,.08-.06c-.14-.19-.24-.43-.45-.53" fill="#b6b9bd"/>
              <path d="M31.38,39.71a1.6,1.6,0,0,0-.45.23L31,40c.08-.2.22-.18.34-.26v-.06" fill="#e6e7e9"/>
              <path d="M41.52,31q-1.89,3.1-3.79,6.21l-.44.7c0,.08-.12.13-.07.21.44.06.88.1,1.32.18a.32.32,0,0,0,.17,0,.51.51,0,0,0,.22-.16c1-1,1.9-2.06,2.83-3.09a6,6,0,0,0,.81-.92l-.17-.5,0,0,0,0q-.07-.21-.15-.45c-.18-.54-.36-1.08-.53-1.61-.06-.16-.1-.31-.15-.46l0-.09" fill="#061221"/>
              <path d="M31.57,33.73l-.09.11L28.4,38.23c0,.07-.14.13-.1.24l.93,0,.08.1.1-.06a.46.46,0,0,1,.2,0h.62a.85.85,0,0,1,.5,0h0a.38.38,0,0,1,.33,0c.19,0,.41-.15.55,0a.9.9,0,0,1,.24-.21c.06,0,.12,0,.17.11.08-.23,0-.4,0-.61s0-.33-.05-.5a2,2,0,0,1-.1-.83,20.09,20.09,0,0,0-.25-2.1h0c-.07-.18,0-.43-.09-.62" fill="#38414d"/>
              <path d="M39.31,30.51a.18.18,0,0,0-.08,0v.06l-.06,0,.06,0c-.62,2.26-1.25,4.53-1.87,6.8a1.6,1.6,0,0,0-.06.24c.26-.39.57-.81.84-1.27,1.07-1.73,2.12-3.48,3.18-5.21l.14-.19c-.08-.19-.27-.11-.4-.17l-1.54-.28c-.06,0-.13-.06-.2,0" fill="#061221"/>
              <path d="M41.67,30.9s-.06.05-.06.16a1.21,1.21,0,0,1,.16.44l.53,1.56.15.45,0,.05,0-.05.19.54,1.9-2.92h0l-.48,0L41.79,31s-.08-.06-.12-.05" fill="#061221"/>
              <path d="M38.07,27.41a.27.27,0,0,1-.12.1l-.07,0-.06,0a.2.2,0,0,0-.09.05l-.13,0a.55.55,0,0,1-.28,0c-.16.06-.07.18-.1.28a1.45,1.45,0,0,1,.05.56,3.86,3.86,0,0,1,.15.86l0,.19c0,.16.13.09.2.12s.23-.12.21.1h0l0,0,0,0a1.72,1.72,0,0,1,.74-.05c.28,0,.57,0,.85,0l.23-.05c-.24-.63-.51-1.25-.73-1.9-.11-.32-.24-.5-.52-.4l-.14.06-.08,0-.07,0s-.1,0-.12-.09" fill="#061221"/>
              <path d="M32.3,38h0m-.58-4.26c-.1.12,0,.2,0,.31s.08.18,0,.3h0a20.09,20.09,0,0,1,.25,2.1,1.41,1.41,0,0,1,.1.83c0,.17,0,.34.05.5s.07.28.11.41h0c.08,0,.06-.15.12-.2.27-.83.55-1.66.85-2.49.09-.25.05-.34-.07-.46-.46-.43-.91-.87-1.36-1.31" fill="#38414d"/>
              <path d="M33.65,28.32l-1.14,1.36-.06.16c.74.44,1.49.87,2.24,1.3.05,0,.08.08.17.05h0L33.74,28.3l-.09,0" fill="#38414d"/>
              <path d="M37.94,26.09v.05h0v-.05m-1.67-1.84-.05,0a.52.52,0,0,1,0,.27c0,.28-.11.58-.1.86S36,26,36,26.24H35.9l.05,0c0,.32.21.05.27.15a2,2,0,0,1,.7-.11v0h0v0a4.24,4.24,0,0,1,1-.19l0,0h.12a.15.15,0,0,0,.09-.12L36.4,24.34s-.06-.12-.13-.09" fill="#061221"/>
              <path d="M32.45,29.92l-.1.11c-.06.53-.12,1.06-.19,1.58,0,.1,0,.14.07.13l1.36-.2c.06,0,.12,0,.12.08l.1-.09.62-.1.08.09.12-.1h.09s0,0,.06,0a.11.11,0,0,0,.06-.06l-2.39-1.42" fill="#38414d"/>
              <path d="M32.13,31.9c-.19.5-.29,1-.45,1.54,0,.11,0,.15.09.15l.32,0,2,.22,0,0v0L32.13,31.9" fill="#38414d"/>
              <path d="M34,26.28c-.07,0-.1.1-.11.25,0,.44-.09.88-.14,1.31,0,.09-.06.21,0,.24a2.55,2.55,0,0,1,.64-.48h0l.09-.09a3.7,3.7,0,0,1,.93-.72.76.76,0,0,1,.25-.16c0-.14-.12-.11-.2-.15a6.71,6.71,0,0,0-1.19-.19h0a.55.55,0,0,1-.18,0,.17.17,0,0,0-.12,0" fill="#38414d"/>
              <path d="M39.22,30.62l-.06,0h0c-.19.88-.47,1.75-.71,2.62-.41,1.51-.83,3-1.25,4.53l.12.09.44-.7q1.91-3.11,3.79-6.21h-.07l-.14.19c-1.06,1.73-2.11,3.48-3.18,5.21-.27.46-.58.88-.84,1.27a1.6,1.6,0,0,1,.06-.24c.62-2.27,1.25-4.54,1.87-6.8" fill="#b6babe"/>
              <path d="M38.29,26.15c-.32.5-.65,1-1,1.43l0,.05h0l.08,0,.09,0a.16.16,0,0,1,.2.05.2.2,0,0,1,.09-.05l.06,0,.07,0a.27.27,0,0,0,.12-.1h0l.07,0a.51.51,0,0,1,.27,0l.34-.12a5.19,5.19,0,0,0-.2-.5c-.1-.18-.11-.46-.29-.56" fill="#071322"/>
              <path d="M34.7,24.64c-.22.48-.44,1-.69,1.5l.79-.29c.18-.16.38-.16.6-.3-.21-.32-.41-.63-.63-.93l-.07,0" fill="#38414d"/>
              <path d="M34.46,27.6a2.55,2.55,0,0,0-.64.48c0,.09,0,.15-.08.22l1.14,2.87h0c-.09,0-.12,0-.17-.05-.75-.43-1.5-.86-2.24-1.3v.08l2.39,1.42.24-.09a2.56,2.56,0,0,0,.09-.45c-.14.09-.06.26-.18.4-.38-1-.78-1.93-1.19-3l1.79.09,0-.17,0,0a1.74,1.74,0,0,1-.68,0c-.34,0-.66,0-1,0,.21-.25.44-.34.6-.55h0" fill="#c3c6c9"/>
              <path d="M35.11,24.42l-.23.09,0,0h0l.3.46c.1.16.22.32.33.48l.31-.58,0,0h0l0,0a2.31,2.31,0,0,1,.32-.6c0-.16-.06-.11-.13-.1l-.88.21" fill="#071321"/>
              <path d="M34,35.52h0m-2.22-1.93-.05.15c.45.44.9.88,1.36,1.31.12.12.16.21.07.46-.3.83-.58,1.66-.85,2.49h0c.32-.79.58-1.61.85-2.41.06-.16.1-.26.18-.29a.19.19,0,0,1,.16,0c.34.16.35.14.16.66,0,.15-.09.31-.14.46l.1,0a1.9,1.9,0,0,1,.35-.93h0v-.25l-.06,0c-.22.08-.35-.1-.57-.13l.86-1.07c-.09.34-.15.62-.23.91h0c.15-.14.12-.33.18-.5s.07-.22.11-.34L34.2,34l0,0,0,0-.78,1c-.05.06-.08.09-.11.1s-.06,0-.1,0l-1.4-1.35h.25l0-.06-.32,0" fill="#c4c7ca"/>
              <path d="M39.84,29.81c-.21.08-.3.38-.48.51h0l0,.05,1.64.34.08,0,.08,0-.05-.11-1.24-.82" fill="#071322"/>
              <path d="M35.79,26.3h0m-.71-.53-.23.12h0l-.71.26.22.11,0,0a6.71,6.71,0,0,1,1.19.19s0,0,0,0h.09a.14.14,0,0,0,.07-.09c-.12-.43-.32-.68-.69-.54" fill="#3b4450"/>
              <path d="M32.23,31.74l-.1.16,1.95,1.88,0,0v0l0,0-2-.22,0,.06c.68.12,1.39.2,2.09.27h0l.05-.16c-.64-.64-1.28-1.29-2-2l1.48-.21c0-.1-.06-.09-.12-.08l-1.36.2" fill="#c4c7ca"/>
              <path d="M34.93,24.42a.48.48,0,0,0-.23.22l.07,0c.22.3.42.61.63.93-.22.14-.42.14-.6.3l0,0h0l.23-.12c.37-.14.57.11.69.54h0l0,0-.07-.16a1,1,0,0,1,.07-1.17l0,0-.31.58c-.11-.16-.23-.32-.33-.48l-.3-.46,0,0h.05l.23-.09a.28.28,0,0,0-.18,0" fill="#bcbfc3"/>
              <path d="M39.33,30.38c0,.07-.1.09-.1.18a.18.18,0,0,1,.08,0c.07,0,.14,0,.2,0l1.54.28v-.06l-.08,0-1.64-.34" fill="#b5b8bd"/>
              <path d="M38.25,26.07v0l-1,1.49.07,0c.35-.45.68-.93,1-1.43l0-.08" fill="#b8bbbf"/>
              <path d="M28.3,38.47v.06h1l-.08-.1-.93,0" fill="#babec2"/>
              <path d="M39.5,29.71c0,.11.11.05.18.09l-.39.53v0l.06,0h0c.18-.13.27-.43.48-.51,0,0-.12,0-.11-.15l-.23.05" fill="#bbbfc2"/>
              <path d="M36.22,24.27l-.1,0a2.31,2.31,0,0,0-.32.6l0,0c.06-.13.14-.26.19-.38s0-.08.06-.09l0,0s0,0,0,0h0a.52.52,0,0,0,0-.27" fill="#bcbfc3"/>
              <path d="M38.17,27.37l-.07,0h0c0,.1.07.11.12.09l.07,0,.08,0,.1-.09a.51.51,0,0,0-.27,0" fill="#8f949b"/>
              <path d="M38.19,25.93a.15.15,0,0,1-.09.12H38l0,0v.05l.3,0v0c0-.1,0-.13-.06-.14" fill="#dfe0e2"/>
              <path d="M41.57,31.07c0,.15.09.3.15.46l.05,0a1.21,1.21,0,0,0-.16-.44h0" fill="#c5c8cb"/>
              <path d="M37.16,38.24l-.11.1a24.7,24.7,0,0,1-1.47,3h.07a.38.38,0,0,0,.16-.13A.68.68,0,0,1,36,41h.06l.28-.29a1.39,1.39,0,0,1,.36-.33c.38-.37.77-.72,1.13-1.1.13-.15.18-.22,0-.35s-.47-.47-.71-.71" fill="#061221"/>
              <path d="M36,41a.68.68,0,0,0-.18.13.38.38,0,0,1-.16.13h-.07v.08l.07,0a1.14,1.14,0,0,0,.4-.34H36" fill="#c6c9cc"/>
              <path d="M36.69,40.4a1.39,1.39,0,0,0-.36.33h.06a1,1,0,0,0,.3-.26V40.4" fill="#c6c9cc"/>
              <path d="M32.06,37.79c0,.21.07.38,0,.61l-.09.07h.09l.11,0h0l0,0,.06-.15.14-.19v-.09h0l-.07,0V38h0c-.06,0,0,.17-.12.2h0c0-.13,0-.33-.11-.41" fill="#dfe1e2"/>
              <path d="M31.09,38.46v0h.55c-.14-.19-.36-.06-.55,0" fill="#d3d5d8"/>
              <path d="M30.23,38.46c.13.13.33,0,.5,0v0a.85.85,0,0,0-.5,0" fill="#d2d5d7"/>
              <path d="M30.76,38.44h0v0h.36v0a.38.38,0,0,0-.33,0" fill="#d2d5d7"/>
              <path d="M36.5,38.41a.64.64,0,0,1-.31.19,1.24,1.24,0,0,1-.35.23.63.63,0,0,1-.19,0,3.2,3.2,0,0,1-.78.4,1.75,1.75,0,0,1-.55.33l-.09,0,.05.1c.14.12.32,0,.47,0a7.81,7.81,0,0,0,1.45,0,.15.15,0,0,0,.09,0c.08,0,.14-.1.19-.23.17-.39.36-.78.53-1.17a.08.08,0,0,0-.1,0l-.08,0-.06,0h0s-.09.07-.14.09a.08.08,0,0,1-.1,0" fill="#071322"/>
              <path d="M34,39.58l0,0v0c0,.08.15.1,0,.23a4.88,4.88,0,0,0,.8,1h0c0-.13-.06-.15-.11-.21-.2-.27-.41-.54-.62-.8l0,0h.09a.1.1,0,0,0,.05-.07l-.05-.1s0,0-.08,0h-.06s-.07,0-.08,0" fill="#b2b6bb"/>
              <path d="M32.16,38.51c-.19.37-.39.73-.6,1.12h.21l1.85.08.05,0c0-.15-.06-.13-.1-.17-.46-.35-.94-.64-1.37-1h0" fill="#061221"/>
              <path d="M33.81,39.65h0m-1.55-1.31-.06.15h0c.43.39.91.68,1.37,1,0,0,.15,0,.1.17l.1.08,0-.09,0,0h0A4.14,4.14,0,0,0,33,39c-.21-.16-.44-.31-.66-.47-.05,0-.14-.05-.09-.19" fill="#b7bbbf"/>
              <path d="M34,39.45s0,.06-.06.11,0,.09-.06.1,0,0,0,0h0l0,0,0,.09a.29.29,0,0,1,.25.08c.12-.13-.05-.15,0-.23v0l0,0v-.13s0,0,0,0" fill="#f1f1f2"/>
              <path d="M37.36,38.22l0,.05c.23.23.45.45.67.69,0,0,.06,0,.09,0a.13.13,0,0,0,.06-.05l.52-.56-1.3-.16" fill="#071322"/>
              <path d="M37.17,37.8c0,.07,0,.2-.09.23H37l0,.1c-.16.1-.33.19-.5.28a.08.08,0,0,0,.1,0s.1-.07.14-.09h0l.06,0,.08,0a.08.08,0,0,1,.1,0l0,0,.11-.1.06-.14c0-.08.06-.13.07-.21l-.12-.09" fill="#cbced0"/>
              <path d="M42.45,33.51l0,.05,0,0,.17.5.07,0-.19-.54" fill="#c5c8cb"/>
              <path d="M41.77,31.5l-.05,0c.17.53.35,1.07.53,1.61l0-.08-.53-1.56" fill="#bbbec2"/>
              <path d="M42.3,33.06l0,.08q.07.24.15.45l0,0,0-.05-.15-.45" fill="#bbbfc3"/>
              <path d="M31.91,36.46a2,2,0,0,0,.1.83,1.41,1.41,0,0,0-.1-.83" fill="#e8e9ea"/>
              <path d="M39.35,30.32l-.06,0h0l-.1,0-.06.07,0,0,.05.16h0l.06,0v-.06c0-.09.08-.11.1-.18l0-.05h0" fill="#eff0f1"/>
              <path d="M37,27.8l0,0-.29.12-.2.07-.25.08a2.15,2.15,0,0,0-.46.22l1.57,1.27c.06,0,0-.15.08-.19a3.86,3.86,0,0,0-.15-.86,1.85,1.85,0,0,1-.09-.54c0-.16,0-.24-.17-.19" fill="#071322"/>
              <path d="M37.91,29.78l0,0,0,0h0a13.4,13.4,0,0,1,1.36.56l.1,0v0l.39-.53c-.07,0-.17,0-.18-.09-.28,0-.57.05-.85,0a1.72,1.72,0,0,0-.74.05" fill="#0a1524"/>
              <path d="M35.77,28.31l-.06.1v.07h0v-.08c.49.32.91.74,1.38,1.1l.27.22.1-.15,0-.19c-.08,0,0,.14-.08.19l-1.57-1.27" fill="#b7babe"/>
              <path d="M35.75,27.76c-.15.12-.08.27-.11.39l0,.17v.18l.06,0v0l0,0v-.13l.06-.1a2.15,2.15,0,0,1,.46-.22l.25-.08.2-.07.29-.12,0,0c.13-.05.16,0,.17.19l0,0c0-.1-.06-.22.1-.28v-.06l0-.05-.07,0h0a.12.12,0,0,1-.07,0l-.09.06-.59.21-.58.23h0c-.15.05-.08-.06,0-.18l-.07,0c-.09,0,0-.17,0-.25" fill="#e4e5e6"/>
              <path d="M37.46,29.58l-.1.15c0,.09-.06.12-.1.18V30h0a.32.32,0,0,1,.16-.15c.09,0,.18,0,.27,0l.12-.05h0c0-.22-.14-.07-.21-.1s-.2,0-.2-.12" fill="#dbdcde"/>
              <path d="M37.53,27.55l-.09,0-.08,0h0v.06a.55.55,0,0,0,.28,0l.13,0a.16.16,0,0,0-.2-.05" fill="#a8adb2"/>
              <path d="M37.22,28l0,0a1.85,1.85,0,0,0,.09.54,1.45,1.45,0,0,0-.05-.56" fill="#bfc2c6"/>
              <path d="M36.09,24.47s0,0-.06.09-.13.25-.19.38h0a1,1,0,0,0-.07,1.17l.07.16h0l.06,0h0a1.87,1.87,0,0,1,.17-.85c0-.28.09-.58.1-.86h0s0,0,0,0l0,0" fill="#0a1624"/>
              <path d="M35.83,26.28l0,0h0a.14.14,0,0,1-.07.09h-.09s0,0,0,0,.19,0,.2.15,0,.23.1.23h0c.06-.05,0-.2.09-.24H36l0,0a.07.07,0,0,1,.06-.08h0l0,0,.06-.08c-.06-.1-.31.17-.27-.15l-.05,0h0l-.06,0" fill="#b4b8bc"/>
              <path d="M36.92,26.28v0l1-.18v-.05a4.24,4.24,0,0,0-1,.19" fill="#cdd0d3"/>
              <path d="M36.22,26.39l-.06.08.76-.15v0a2,2,0,0,0-.7.11" fill="#c5c8cc"/>
              <path d="M36.07,25.4a1.87,1.87,0,0,0-.17.85H36c0-.28.08-.56.12-.84" fill="#cacccf"/>
              <path d="M32.23,31.83c.69.68,1.33,1.33,2,2a.13.13,0,0,0,.08,0s.06-.12.08-.18L35,31.53c0-.12-.09-.06-.15-.06s-.16.06-.19,0l-.12.1-.52.07c-.07,0-.15.05-.18-.06l-.1.09-1.48.21" fill="#38414d"/>
              <path d="M35.08,31.25l-.24.09a.11.11,0,0,1-.06.06s0,0-.06,0h-.09c0,.11.12.06.19,0s.14-.06.15.06a0,0,0,0,0,0,0l0-.05a.09.09,0,0,1,0-.06l.1,0v-.06c-.07,0-.1,0-.09-.1" fill="#d7d9db"/>
              <path d="M33.81,31.53c0,.11.11.07.18.06l.52-.07-.08-.09-.62.1" fill="#cbcdd0"/>
              <path d="M35.76,26.62a.76.76,0,0,0-.25.16,3.82,3.82,0,0,1-.93.72l-.09.09c-.16.21-.39.3-.6.55.37,0,.69,0,1,0a1.74,1.74,0,0,0,.68,0l0,0c0-.12,0-.27.11-.39a2.44,2.44,0,0,1,.11-.91c-.11,0,0-.22-.1-.23" fill="#38414d"/>
              <path d="M35.51,26.78a3.7,3.7,0,0,0-.93.72,3.82,3.82,0,0,0,.93-.72" fill="#c7cacd"/>
              <path d="M35.71,34.74h0l0,0,0,0M37.94,32h0l0,0,0,0m1.19-1.34L38,32a13.08,13.08,0,0,1-.87,1.07l0,0h0l0,0c-.44.58-.9,1.14-1.37,1.69l-1.14,1.4v.05L37,38h.06c.08,0,.05-.16.09-.23.42-1.51.84-3,1.25-4.53.24-.87.52-1.74.71-2.62" fill="#061221"/>
              <path d="M33.8,28.23c.41,1,.81,2,1.19,3,.12-.14,0-.31.18-.4s0-.25.06-.36a.92.92,0,0,1,.16-.67v-.06c-.12-.08,0-.24,0-.34a6.82,6.82,0,0,1,.2-.87v-.18l-1.79-.09" fill="#38414d"/>
              <path d="M35.65,28.54c-.09.39-.18.77-.26,1.17v.06a5.43,5.43,0,0,1-.16.67q0,.16-.06.36a2.56,2.56,0,0,1-.09.45c0,.08,0,.12.09.1s.26-.08.37,0a.38.38,0,0,0,.21,0,.2.2,0,0,0,.09-.05l.1,0c.09,0,.11-.1.08-.26a.72.72,0,0,1,0-.51,2.63,2.63,0,0,0-.15-.77,3.33,3.33,0,0,1-.1-1l0-.11-.06-.1v0" fill="#071322"/>
              <path d="M31.81,33.7l1.4,1.35s.07.05.1,0,.06,0,.11-.1l.78-1,0,0,0,0h0c-.7-.07-1.41-.15-2.09-.27h-.25" fill="#38414d"/>
              <path d="M33.36,35.3c-.08,0-.12.13-.18.29-.27.8-.53,1.62-.85,2.41h0v.1l.07,0h0c.31-.45.62-.9,1-1.32l.19-.3c.05-.15.1-.31.14-.46.19-.52.18-.5-.16-.66a.19.19,0,0,0-.16,0" fill="#38414d"/>
              <path d="M34.35,34.26l-.05,0h.05m-.06-.08c0,.12-.07.24-.11.34s0,.36-.18.5h0a.39.39,0,0,1,0,.24v.25h0a1.24,1.24,0,0,1,.41.51c.12-.06,0-.2.1-.27-.06-.2,0-.45-.11-.64s0-.57-.09-.85v-.1" fill="#0d1927"/>
              <path d="M34.22,34.1l-.86,1.07c.22,0,.35.21.57.13l.06,0A.39.39,0,0,0,34,35v0c.08-.29.14-.57.23-.91" fill="#3a434e"/>
              <path d="M34,35.53a1.9,1.9,0,0,0-.35.93l.34-.11.13-.05a.23.23,0,0,1,.18,0l.06,0s.09,0,0-.14a1.92,1.92,0,0,1-.4-.59m0,0h0" fill="#081423"/>
              <path d="M33.54,36.44l-.19.3h.07s0-.06.07-.07,0,0,0,.05l0,.22,0-.11c-.08-.2,0-.28.12-.33l.08,0,.16-.12-.34.11-.1,0" fill="#c8cbce"/>
              <path d="M34.36,33.64c0,.06,0,.16-.08.18a.13.13,0,0,1-.08,0l-.05.16h0l0,0,0,0,.09.17v.1l.05,0c0-.17,0-.35.1-.53l-.09-.09" fill="#e6e7e8"/>
              <path d="M37.22,27.6l-.07,0a.12.12,0,0,0,.07,0m-1.06-1.13,0,0h0a.07.07,0,0,0-.06.08q.48.47,1,.9c.06.06.09.17.2.13h0l1-1.49-.3,0h0l-1,.18h0l-.76.15" fill="#071321"/>
              <path d="M33.81,39.65h0m-.32-3s0,.06-.07.07c-.33.47-.68.94-1,1.42l-.14.19c0,.14,0,.15.09.19.22.16.45.31.66.47a4.14,4.14,0,0,1,.8.65c.08-.1,0-.22.1-.31l0-.1c0-.22-.17-.37,0-.66v-.06a.77.77,0,0,1-.1-.71c0-.3-.1-.59-.15-.88l0-.22s0-.05,0-.05" fill="#061221"/>
              <path d="M33.35,36.74c-.33.42-.64.87-1,1.32h0v.09c.34-.48.69-.95,1-1.42h-.07" fill="#bcbfc3"/>
              <path d="M34.59,36.29v0l-.1,0v.3c-.05.28-.11.57-.16.85v.08c-.09.57-.18,1.14-.26,1.71l0,.15v.13c0,.05,0,.06.08,0h.06s.06,0,.08,0l.09,0a.94.94,0,0,1,.42-.28l.13-.05a3.2,3.2,0,0,0,.78-.4,2.05,2.05,0,0,1,.41-.22l.13,0a.64.64,0,0,0,.31-.19c.17-.09.34-.18.5-.28-.75-.55-1.51-1.11-2.25-1.67l-.16-.14v0" fill="#061221"/>
              <path d="M36.06,38.64a2.05,2.05,0,0,0-.41.22.63.63,0,0,0,.19,0,1.24,1.24,0,0,0,.35-.23l-.13,0" fill="#e5e7e8"/>
              <path d="M34.74,39.31a.94.94,0,0,0-.42.28,1.75,1.75,0,0,0,.55-.33l-.13.05" fill="#dfe1e3"/>
              <path d="M34,39.19l-.1.15c-.08.09,0,.21-.1.31h0s0,0,0,0,0-.06.06-.1,0-.1.06-.11,0,0,0,0l0-.15L34,39.19" fill="#7e848c"/>
              <path d="M34.59,36.24v.08l.16.14c.74.56,1.5,1.12,2.25,1.67l0-.1-2.43-1.79" fill="#b7babe"/>
              <path d="M37.43,29.83a.32.32,0,0,0-.16.15h0a3,3,0,0,1-.56.61h0a7.41,7.41,0,0,1-.82,1h0a7.45,7.45,0,0,1-.63,1c0,.07.12,0,.13,0a.48.48,0,0,1,.24-.15l.11,0a1.37,1.37,0,0,1,.48-.3l.18,0a1.59,1.59,0,0,1,.3-.18l.06,0a2.5,2.5,0,0,1,.7-.43v0a2.6,2.6,0,0,1,.45-.26.51.51,0,0,1,.17,0,4,4,0,0,1,.76-.41c.05-.17.16-.16.25-.21l0,0-1.42-.59c-.09,0-.18-.07-.27,0" fill="#071221"/>
              <path d="M37.82,29.82l-.12.05,1.42.59.06-.07a13.4,13.4,0,0,0-1.36-.56h0" fill="#b5b9bd"/>
              <path d="M39.08,30.49c-.09.05-.2,0-.25.21l.18-.05c-.37.48-.72.91-1.07,1.34l0,0,1.16-1.38-.05-.16" fill="#b9bdc0"/>
              <path d="M35.71,28.41v.08a1,1,0,0,1,0,.17l0,.11a3,3,0,0,1,.1,1,2.63,2.63,0,0,1,.15.77,6.13,6.13,0,0,1,.13.67c.22-.14.36-.45.58-.58h0a4.22,4.22,0,0,1,.56-.69c0-.06.11-.09.1-.18l-.27-.22c-.47-.36-.89-.78-1.38-1.1" fill="#061221"/>
              <path d="M36.38,27.05s-.06.06-.1.12c-.15.27-.3.54-.46.81s-.11.23,0,.18h0l.58-.23.59-.21a5.11,5.11,0,0,0-.61-.62s-.05,0-.07,0" fill="#071321"/>
              <path d="M36,26.6c-.09,0,0,.19-.09.24h0a2.44,2.44,0,0,0-.11.91c0,.08-.09.21,0,.25.15-.26.27-.53.43-.78s.15-.33,0-.42A.28.28,0,0,1,36,26.6H36" fill="#3c4550"/>
              <path d="M36.05,26.58l0,0a.28.28,0,0,0,.16.21c.16.09.13.22,0,.42s-.28.52-.43.78l.07,0c.16-.27.31-.54.46-.81,0-.06.06-.1.1-.12s0,0,.07,0a5.11,5.11,0,0,1,.61.62l.09-.06.07,0h0c-.11,0-.14-.07-.2-.13q-.48-.43-1-.9" fill="#bec1c5"/>
              <path d="M35.59,28.5a6.82,6.82,0,0,0-.2.87c0,.1-.12.26,0,.34.08-.4.17-.78.26-1.17l-.06,0" fill="#bec1c5"/>
              <path d="M37.26,29.91a4.22,4.22,0,0,0-.56.69,3,3,0,0,0,.56-.61v-.08" fill="#b8bcc0"/>
              <path d="M35.08,31.44a.09.09,0,0,0,0,.06l0,.05a0,0,0,0,1,0,0l-.61,2.11.09.09.48-.72c.07,0,0,.12,0,.14h0c0-.08,0-.17,0-.26l-.1,0-.48.72A12.67,12.67,0,0,1,35,31.71h0a2.28,2.28,0,0,0,0-.26" fill="#c0c3c6"/>
              <path d="M35.18,31.41l-.1,0a2.28,2.28,0,0,1,0,.26,5.43,5.43,0,0,0,0,.91,10.22,10.22,0,0,1,.77-1h0c.12-.18,0-.23,0-.3a.2.2,0,0,1-.09.05.38.38,0,0,1-.21,0,.42.42,0,0,1-.12.08.39.39,0,0,1-.24,0" fill="#071322"/>
              <path d="M35.17,31.35v.06a.39.39,0,0,0,.24,0,.42.42,0,0,0,.12-.08c-.11-.07-.24,0-.37,0" fill="#abafb4"/>
              <path d="M37.07,33.07c-.47.54-.92,1.1-1.36,1.67l0,0c.47-.55.93-1.11,1.37-1.69l0,0" fill="#b9bcc0"/>
              <path d="M35.7,34.75c-.32.38-.62.76-.94,1.13,0,0-.06.13-.11.15s0,0-.07,0,0,.14,0,.2l1.14-1.4,0,0" fill="#b6b9bd"/>
              <path d="M34.5,35.77c-.12.07,0,.21-.1.27v.08c0,.11,0,.12,0,.14l-.06,0-.15.11a.12.12,0,0,0,.08,0l.05,0,.07,0a.13.13,0,0,1,.15,0l.1,0v-.13c0-.06-.08-.1,0-.2V35.8h-.05l0,0" fill="#d2d5d7"/>
              <path d="M37.94,32c-.3.34-.59.69-.87,1.07l0,0A13.08,13.08,0,0,0,38,32l0,0" fill="#b9bcc0"/>
              <path d="M35.39,29.77a.92.92,0,0,0-.16.67,5.43,5.43,0,0,0,.16-.67" fill="#cfd1d4"/>
              <path d="M36,30.5A.72.72,0,0,0,36,31c0,.16,0,.23-.08.26l-.1,0c.07.07.16.12,0,.3a7.41,7.41,0,0,0,.82-1c-.22.13-.36.44-.58.58A6.13,6.13,0,0,0,36,30.5" fill="#bfc2c5"/>
              <path d="M35.74,28.77a3.33,3.33,0,0,0,.1,1,3,3,0,0,0-.1-1" fill="#ced1d3"/>
              <path d="M34.93,33l-.48.72c-.14.18-.09.36-.1.53h0a2.42,2.42,0,0,1,0,.86c.08.19,0,.44.11.64l0,0c.06-.32.11-.65.16-1,0-.07,0-.19.1-.23v-.12a1.72,1.72,0,0,1,.16-.93l.06-.4h0s0-.14,0-.14" fill="#081423"/>
              <path d="M34,35.52h0a1.92,1.92,0,0,0,.4.59V36a1.24,1.24,0,0,0-.41-.51h0" fill="#c4c7ca"/>
              <path d="M34.34,34.27h0c0,.28.07.56.09.85a2.42,2.42,0,0,0,0-.86" fill="#e5e6e8"/>
              <path d="M34.11,36.3l-.13.05-.16.12a.39.39,0,0,0,.21,0l.11,0,.15-.11a.23.23,0,0,0-.18,0" fill="#8e939a"/>
              <path d="M33.74,36.49c-.13,0-.2.13-.12.33l0,.11c0,.29.11.58.15.88s.06.47.1.71v.06a1.2,1.2,0,0,1,0,.66l0,.1.1-.15c.08-.46.15-.92.22-1.38,0-.08,0-.18.1-.22v-.08a1.33,1.33,0,0,1,.16-.85v-.3a.13.13,0,0,0-.15,0l-.07,0-.05,0a.12.12,0,0,1-.08,0l-.11,0a.39.39,0,0,1-.21,0l-.08,0" fill="#081423"/>
              <path d="M33.72,37.81a.77.77,0,0,0,.1.71c0-.24-.06-.48-.1-.71" fill="#e7e8e9"/>
              <path d="M33.82,38.58c-.12.29,0,.44,0,.66a1.2,1.2,0,0,0,0-.66" fill="#e3e4e6"/>
              <path d="M34.33,37.59c-.1,0-.09.14-.1.22-.07.46-.14.92-.22,1.38l.06.11c.08-.57.17-1.14.26-1.71" fill="#c4c6ca"/>
              <path d="M34.49,36.66a1.33,1.33,0,0,0-.16.85c.05-.28.11-.57.16-.85" fill="#cacdd0"/>
              <path d="M38.83,30.7a4,4,0,0,0-.76.41,3.38,3.38,0,0,1-.62.33v0a3.46,3.46,0,0,1-.7.39l-.06,0a1.59,1.59,0,0,0-.3.18,3.82,3.82,0,0,1-.66.35l-.11,0a.48.48,0,0,0-.24.15l-.16.1c-.07,0-.16.07-.16.2s0,.18,0,.26h0l-.06.4c-.05.31-.1.61-.16.93v.12c-.09.4-.08.79-.21,1.2V36s.05,0,.07,0,.08-.12.11-.15c.32-.37.62-.75.94-1.13h0c.44-.57.89-1.13,1.36-1.67h0c.28-.38.57-.73.87-1.07h0c.35-.43.7-.86,1.07-1.34l-.18.05" fill="#061221"/>
              <path d="M35.88,31.58a10.22,10.22,0,0,0-.77,1l.11.07.16-.1c0-.09-.11,0-.13,0a7.45,7.45,0,0,0,.63-1" fill="#bfc2c5"/>
              <path d="M37.45,31.4a2.5,2.5,0,0,0-.7.43,3.46,3.46,0,0,0,.7-.39v0" fill="#e7e8e9"/>
              <path d="M36.21,32.08a1.37,1.37,0,0,0-.48.3,3.82,3.82,0,0,0,.66-.35l-.18,0" fill="#e7e8e9"/>
              <path d="M37.9,31.14a2.6,2.6,0,0,0-.45.26v0a3.38,3.38,0,0,0,.62-.33.51.51,0,0,0-.17,0" fill="#e7e8e9"/>
              <path d="M35,31.71a12.67,12.67,0,0,0-.54,1.86l.48-.72a2,2,0,0,0,0-.77c0-.12,0-.24,0-.37" fill="#3b444f"/>
              <path d="M35.06,31.7h0c0,.13,0,.25,0,.37a2,2,0,0,1,0,.77l.1,0c0-.13.09-.15.16-.2l-.11-.07a5.43,5.43,0,0,1,0-.91" fill="#ededef"/>
              <path d="M34.8,34.6c-.12,0-.09.16-.1.23-.05.34-.1.67-.16,1h.05c.13-.41.12-.8.21-1.2" fill="#c8cbce"/>
              <path d="M35,33.55a1.72,1.72,0,0,0-.16.93c.06-.32.11-.62.16-.93" fill="#cacdd0"/>
            </g>
          </g>
        </g>
      </g>
    </g>
  </g>
</svg>
