<svg id="Capa_1" data-name="Capa 1" xmlns="http://www.w3.org/2000/svg" xmlns:xlink="http://www.w3.org/1999/xlink" width="50" height="50" viewBox="0 0 50 50">
  <defs>
    <clipPath id="clip-path">
      <polygon points="24.04 49.76 1.25 39.47 1.41 9.18 24.2 19.46 24.04 49.76" fill="none"/>
    </clipPath>
    <clipPath id="clip-path-2">
      <polygon points="24.2 19.46 1.41 9.18 25.96 0.24 48.74 10.53 24.2 19.46" fill="none"/>
    </clipPath>
    <clipPath id="clip-path-3">
      <polygon points="48.74 10.53 48.58 40.83 24.04 49.76 24.2 19.46 48.74 10.53" fill="none"/>
    </clipPath>
  </defs>
  <g id="Figment_lido">
    <g style="isolation: isolate">
      <g>
        <polygon points="24.04 49.76 1.25 39.47 1.41 9.18 24.2 19.46 24.04 49.76" fill="#d6d6d6"/>
        <g style="isolation: isolate">
          <g clip-path="url(#clip-path)">
            <g>
              <path d="M12.44,39.07c0-.24,0-.48,0-.72,0-.08.09-.14.15-.16,1.33-.36,2.65-.71,4-1l.54-.14c0,.25,0,.5,0,.74s0,.47,0,.7-.05.17-.1.18q-2.25.62-4.5,1.2l-.08,0c0-.24,0-.48,0-.73m-1.3-9.59a.41.41,0,0,1,.17.13l0,0L14.2,33.2l2.69,3.37.14.17-1.42.38-3.08.82h-.07a.15.15,0,0,1-.09,0,.43.43,0,0,1-.18-.16L5.52,29.43l-.14-.19c.34-.09.66-.19,1-.26h0a.55.55,0,0,1,.14.13l0,.06c1.86,2.33,3.73,4.65,5.59,7a.84.84,0,0,0,.22.21h0a.33.33,0,0,0,.24,0c.67-.2,1.35-.36,2-.54a1,1,0,0,0,.24-.1l-4.87-6c.36-.1.69-.2,1-.26a.07.07,0,0,1,.06,0m5,3.6c0-.52,0-1,0-1.47l.07-.12c.31-.09.62-.16,1-.25v.19c0,.44,0,.86,0,1.27l-.05.11-1,.27M8.68,28.24c0-.56,0-1.11,0-1.66a.84.84,0,0,1,0-.1c.34.42.66.81,1,1.23a.58.58,0,0,1,.1.32c0,.23,0,.46,0,.69s0,.46,0,.68a.68.68,0,0,0,.18.51l4.42,5.46.19.25c-.39.1-.76.2-1.13.28h0a.47.47,0,0,1-.1-.1L8.77,30.17a.59.59,0,0,1-.1-.28c0-.55,0-1.1,0-1.65m4-.06c0-.27,0-.55,0-.84l.18.19,2.93,3.66a.64.64,0,0,1,.18.46v0c0,.18,0,.36,0,.54s0,.49,0,.76l-1.19-1.48c-.65-.81-1.29-1.61-1.94-2.4a.65.65,0,0,1-.16-.42v0c0-.16,0-.32,0-.48M10,28.72c0-.25,0-.48,0-.72a.15.15,0,0,1,.09-.11l2.43-.67V28c0,.25,0,.48,0,.72,0,.06,0,.12-.07.13-.8.22-1.6.42-2.44.64v-.75m2.48,7.44a.42.42,0,0,1-.16-.14C10.52,33.82,8.76,31.6,7,29.44A1.91,1.91,0,0,1,6.48,28c0-.84,0-1.73,0-2.6,0-.17,0-.24.14-.27.72-.18,1.44-.38,2.15-.55a.21.21,0,0,1,.13,0,.34.34,0,0,1,.12.09c.28.33.55.68.86,1.06-.44.12-.83.24-1.23.33-.13,0-.17.11-.17.29,0,1.16,0,2.32,0,3.48a.75.75,0,0,0,.18.5l4.4,5.46.15.21a7.22,7.22,0,0,1-.74.18h0M4.05,29.37c0-2.32,0-4.65.07-7,0,0,0,0,0-.12.33.41.64.78.93,1.18a.71.71,0,0,1,.07.34c0,.85,0,1.69,0,2.54l0,2.54a.69.69,0,0,0,.18.53l6.82,8.52a.64.64,0,0,1,.17.44v0c0,.16,0,.32,0,.48s0,.55,0,.85l-.75-.93-7.28-9a.58.58,0,0,1-.16-.39m1.28-5.49c0-.19,0-.26.16-.3l3.26-.86.13,0c0,.25,0,.5,0,.73s0,.47,0,.7a.23.23,0,0,1-.16.17q-1.08.3-2.16.57c-.14,0-.19.12-.19.33s0,.51,0,.77,0,.76,0,1.15,0,.77,0,1.15v.06c0,.28-.07.43-.28.46a4.23,4.23,0,0,0-.76.19,2,2,0,0,1,0-.25c0-1.62,0-3.23,0-4.85M9,23.52c0-.23,0-.48,0-.74l2.09,2.6c-.35.09-.65.18-1,.25h0l0,0a.21.21,0,0,1-.11-.08c-.29-.34-.57-.7-.85-1.06a.66.66,0,0,1-.1-.25v-.7M9,20.88H9a.46.46,0,0,1,.14.14q3.93,4.92,7.87,9.83a1.18,1.18,0,0,1,.08.12c-.33.09-.64.18-1,.24h0a.53.53,0,0,1-.18-.16l-3.15-3.91a.54.54,0,0,0-.17-.17.28.28,0,0,0-.18,0l-2.34.64a.23.23,0,0,1-.14,0l0,0a.23.23,0,0,1-.1-.07l-.07-.07,0,0c-.28-.37-.58-.72-.91-1.13l2-.55.46-.12c.08,0,.12-.06.12-.11a.43.43,0,0,0-.12-.22L9.57,23.14a6.72,6.72,0,0,0-.46-.57A.48.48,0,0,0,9,22.46a.15.15,0,0,0-.14,0c-1.13.28-2.27.59-3.4.89l0,0a.27.27,0,0,1-.13,0,.47.47,0,0,1-.18-.17L4.23,22.1l.61-.17,4-1.06a.26.26,0,0,1,.15,0m0-.26a.22.22,0,0,0-.16,0c-1.57.43-3.14.84-4.72,1.25-.1,0-.14.09-.14.25,0,2.42,0,4.85-.07,7.27a.63.63,0,0,0,.15.43c.67.81,1.32,1.64,2,2.46l6.15,7.66a.57.57,0,0,0,.18.17.14.14,0,0,0,.11,0c1.56-.42,3.13-.83,4.69-1.26a.26.26,0,0,0,.13-.22c0-.51,0-1,0-1.54a.67.67,0,0,0-.17-.5c-1.2-1.48-2.39-3-3.59-4.47l-2.2-2.74c.37-.09.72-.18,1.06-.28a.18.18,0,0,1,.16,0,.4.4,0,0,1,.16.14c1.06,1.33,2.12,2.64,3.18,4a.48.48,0,0,0,.15.14.17.17,0,0,0,.12,0q.51-.15,1-.27c.12,0,.16-.12.16-.3,0-.47,0-1,0-1.42a.77.77,0,0,0-.19-.56q-4-5-8-10A.52.52,0,0,0,9,20.62"/>
              <path d="M11.14,29.48a.07.07,0,0,0-.06,0c-.34.06-.67.16-1,.26l4.87,6a1,1,0,0,1-.24.1c-.67.18-1.35.34-2,.54a.33.33,0,0,1-.24,0h0a.84.84,0,0,1-.22-.21c-1.86-2.34-3.73-4.66-5.59-7l0-.06A.55.55,0,0,0,6.39,29h0c-.33.07-.65.17-1,.26l.14.19,6.67,8.34a.43.43,0,0,0,.18.16.15.15,0,0,0,.09,0h.07l3.08-.82L17,36.74l-.14-.17L14.2,33.2l-2.87-3.57,0,0a.41.41,0,0,0-.17-.13" fill="#ffff49"/>
              <path d="M9,20.88a.26.26,0,0,0-.15,0l-4,1.06-.61.17.84,1.06a.47.47,0,0,0,.18.17.27.27,0,0,0,.13,0l0,0c1.13-.3,2.27-.61,3.4-.89a.15.15,0,0,1,.14,0,.48.48,0,0,1,.15.11,6.72,6.72,0,0,1,.46.57l1.72,2.15a.43.43,0,0,1,.12.22s0,.09-.12.11l-.46.12-2,.55c.33.41.63.76.91,1.13l0,0,.07.07a.23.23,0,0,0,.1.07l0,0a.23.23,0,0,0,.14,0L12.41,27a.28.28,0,0,1,.18,0,.54.54,0,0,1,.17.17l3.15,3.91a.53.53,0,0,0,.18.16h0c.32-.06.63-.15,1-.24a1.18,1.18,0,0,0-.08-.12Q13.06,26,9.13,21A.46.46,0,0,0,9,20.89H9" fill="#ffff49"/>
              <path d="M4.14,22.28c0,.07,0,.09,0,.12,0,2.32,0,4.65-.07,7a.58.58,0,0,0,.16.39l7.28,9.05.75.93c0-.3,0-.58,0-.85s0-.32,0-.48v0a.64.64,0,0,0-.17-.44L5.27,29.41a.69.69,0,0,1-.18-.53l0-2.54c0-.85,0-1.69,0-2.54a.71.71,0,0,0-.07-.34c-.29-.4-.6-.77-.93-1.18" fill="#ffff49"/>
              <path d="M8.72,26.48a.84.84,0,0,0,0,.1c0,.55,0,1.1,0,1.66s0,1.1,0,1.65a.59.59,0,0,0,.1.28L13.3,35.8a.47.47,0,0,0,.1.1h0c.37-.08.74-.18,1.13-.28l-.19-.25L10,29.91a.68.68,0,0,1-.18-.51c0-.22,0-.45,0-.68s0-.46,0-.69a.58.58,0,0,0-.1-.32c-.31-.42-.63-.81-1-1.23" fill="#ffff49"/>
              <path d="M8.88,22.7l-.13,0-3.26.86c-.12,0-.16.11-.16.3,0,1.62,0,3.23,0,4.85a2,2,0,0,0,0,.25,4.23,4.23,0,0,1,.76-.19c.21,0,.27-.18.28-.46v-.06c0-.38,0-.77,0-1.15s0-.77,0-1.15,0-.51,0-.77.05-.29.19-.33q1.08-.27,2.16-.57a.23.23,0,0,0,.16-.17c0-.23,0-.46,0-.7s0-.48,0-.73" fill="#ffff49"/>
              <path d="M17.13,37l-.54.14c-1.33.34-2.65.69-4,1-.06,0-.15.08-.15.16,0,.24,0,.48,0,.72s0,.49,0,.73l.08,0q2.25-.59,4.5-1.2s.1-.1.1-.18,0-.46,0-.7,0-.49,0-.74" fill="#ffff49"/>
              <path d="M12.68,27.34c0,.29,0,.57,0,.84s0,.32,0,.48v0a.65.65,0,0,0,.16.42c.65.79,1.29,1.59,1.94,2.4L16,33c0-.27,0-.52,0-.76s0-.36,0-.54v0a.64.64,0,0,0-.18-.46l-2.93-3.66-.18-.19" fill="#ffff49"/>
              <path d="M12.49,27.22l-2.43.67A.15.15,0,0,0,10,28c0,.24,0,.47,0,.72v.75c.84-.22,1.64-.42,2.44-.64,0,0,.07-.07.07-.13,0-.24,0-.47,0-.72v-.76" fill="#ffff49"/>
              <path d="M9.05,22.78c0,.26,0,.51,0,.74v.7a.66.66,0,0,0,.1.25c.28.36.56.72.85,1.06a.21.21,0,0,0,.11.08l0,0h0c.31-.07.61-.16,1-.25l-2.09-2.6" fill="#ffff49"/>
              <path d="M17.19,31.24c-.35.09-.66.16-1,.25l-.07.12c0,.48,0,1,0,1.47l1-.27.05-.11c0-.41,0-.83,0-1.27v-.19" fill="#ffff49"/>
              <path d="M16.81,25.2s0,0-.08.05a3.59,3.59,0,0,0-.11,2.91,4,4,0,0,0,1.91,2.48l.3.1c1.56.45,2.43-1.6,1.6-3.78,0-.08-.05-.12-.08-.13h-.08l-1.58.53a.13.13,0,0,1-.12,0s-.07-.05-.12-.1c-.52-.67-1.05-1.32-1.57-2a.22.22,0,0,0-.07-.07" fill="#00a2fd"/>
              <path d="M18.58,26.13a.17.17,0,0,1-.06-.06l-.93-1.18c-.05-.05-.07-.08,0-.14.34-.55.68-1.1,1-1.65l0-.05s0,.1.07.14c.28.74.56,1.47.83,2.2.05.13.15.31.13.39s-.15.07-.23.1l-.74.25s-.06,0-.08,0m0-3.95-1.54,2.5c0,.07,0,.11,0,.16.46.58.92,1.17,1.39,1.75a.14.14,0,0,0,.06.07.11.11,0,0,0,.08,0l1.4-.46c.06,0,.08-.06,0-.17-.19-.48-.37-1-.55-1.44l-.91-2.41" fill="#009ff9"/>
            </g>
          </g>
        </g>
      </g>
      <g>
        <polygon points="24.2 19.46 1.41 9.18 25.96 0.24 48.74 10.53 24.2 19.46" fill="#ebebeb"/>
        <g style="isolation: isolate">
          <g clip-path="url(#clip-path-2)">
            <g>
              <path d="M32.32,12.94l-.56-.26c-.06,0,0-.1,0-.15l2.38-2.7.33-.37.58.27.55.25c.06,0,.09.09.06.12L33,13.16l-.08,0-.57-.26m-8.65-2.58a.78.78,0,0,1,.23,0h0l5.16-.44,4.85-.41.25,0c-.29.34-.58.65-.85,1-.62.7-1.24,1.4-1.84,2.1l-.05,0-.09.05-.28,0-12,1-.26,0c.2-.23.38-.45.6-.67h0a1.09,1.09,0,0,1,.22,0h.08l10.07-.84a1.39,1.39,0,0,0,.34-.06h0a.43.43,0,0,0,.2-.14c.39-.46.81-.91,1.22-1.37,0,0,0-.1.11-.18L23,11.09c.21-.25.4-.48.62-.7l.07,0m6.89-1.68-1.14-.52-.05-.08L30,7.42l.15.07,1,.45,0,.07c-.18.22-.37.43-.58.67m-9.87,2.69-1.3-.59-.06,0,1.76-.14a.7.7,0,0,1,.33.06l.56.23.52.25a.94.94,0,0,0,.54.07L31,10.51l.36,0c-.24.27-.46.52-.7.77h0l-.16,0L22.28,12A.66.66,0,0,1,22,12l-1.3-.58M23.87,9l-.66-.29.3,0,5.28-.45a1,1,0,0,1,.5.06h0l.42.2.6.27-2.14.18-3.47.3a.85.85,0,0,1-.46-.05h0L23.87,9m-1.76,1.78-.56-.25a.05.05,0,0,1,0-.09L23,8.78l.6.27.56.25s.06.07,0,.09L22.7,11.05l-.59-.27M30,11.93l-.24,0c-3.17.27-6.35.53-9.5.81a2.55,2.55,0,0,1-1.57-.21c-.63-.33-1.35-.63-2-.93-.13-.06-.15-.11-.09-.18.44-.48.86-1,1.3-1.46L18,9.94a.53.53,0,0,1,.17,0l1.53-.13c-.25.29-.48.56-.73.83-.08.08-.05.14.09.21q1.38.6,2.73,1.23a1.06,1.06,0,0,0,.55.07l7.88-.68.29,0c-.16.18-.29.34-.45.5l0,0M17.84,14.48,12.37,12l-.08,0L14,11.82a1.25,1.25,0,0,1,.32.08l2,.9,2,.91a1.12,1.12,0,0,0,.57.07l12.27-1a.94.94,0,0,1,.49.05h0L32,13l.67.3-1.35.12L18.28,14.53a.8.8,0,0,1-.44,0m-3.32-2.66c-.14-.07-.17-.12-.1-.2l2-2.21.09-.09.58.26.54.25c.06,0,0,.11,0,.15-.43.49-.86,1-1.3,1.47-.08.1-.07.16.1.23L17,12l.9.41.91.41.05,0c.22.1.28.19.13.32a5.57,5.57,0,0,0-.46.51l-.2-.08-3.81-1.72m2.73-2.31-.59-.26,3.75-.32c-.2.24-.38.44-.57.65l0,0,0,0-.16,0-1.53.13a.73.73,0,0,1-.27,0,5.38,5.38,0,0,1-.55-.24m-2.16-.88h0l.23,0L29.5,7.4h.17c-.21.23-.38.44-.59.65h0a1,1,0,0,1-.27,0l-5.65.49a.87.87,0,0,0-.27.05.27.27,0,0,0-.15.1c-.45.53-.93,1.06-1.38,1.59a.24.24,0,0,1-.11.09l-.05,0-.14,0-.11,0h0c-.53,0-1,.08-1.64.14l1.22-1.39c.09-.11.19-.21.28-.31s.05-.1,0-.12a.8.8,0,0,0-.28,0l-3.09.26c-.28,0-.57,0-.83.07l-.21,0a.31.31,0,0,0-.12.07c-.7.77-1.37,1.54-2,2.31l0,0a.5.5,0,0,1-.12.08l-.28,0-1.52.12.36-.41c.8-.9,1.59-1.8,2.38-2.71a.38.38,0,0,1,.13-.09m-.2-.09a.28.28,0,0,0-.14.09c-.93,1.07-1.88,2.14-2.83,3.21-.06.07,0,.11.08.17l5.71,2.58a.84.84,0,0,0,.46.06l3.56-.31,11.05-.94a1,1,0,0,0,.27-.05.17.17,0,0,0,.1-.06l2.8-3.2s0-.11-.07-.15c-.39-.19-.81-.36-1.2-.55a1,1,0,0,0-.54-.07l-6.45.55-3.94.33c.22-.25.43-.48.63-.72a.25.25,0,0,1,.13-.09.76.76,0,0,1,.25,0l5.71-.49a1,1,0,0,0,.22,0,.3.3,0,0,0,.11-.07c.19-.23.39-.46.61-.69s0-.14-.11-.2c-.38-.16-.76-.33-1.11-.51a1.05,1.05,0,0,0-.6-.07L15.16,8.49a1.31,1.31,0,0,0-.27,0"/>
              <path d="M23.67,10.36l-.07,0c-.22.22-.41.45-.62.7l8.73-.76c-.06.08-.07.13-.11.18-.41.46-.83.91-1.22,1.37a.43.43,0,0,1-.2.14h0a1.39,1.39,0,0,1-.34.06l-10.07.84h-.08a1.09,1.09,0,0,0-.22,0h0c-.22.22-.4.44-.6.67l.26,0,12-1,.28,0,.09-.05.05,0c.6-.7,1.22-1.4,1.84-2.1.27-.32.56-.63.85-1l-.25,0-4.85.41-5.16.44h0a.78.78,0,0,0-.23,0" fill="#ffff49"/>
              <path d="M15.09,8.63a.38.38,0,0,0-.13.09c-.79.91-1.58,1.81-2.38,2.71l-.36.41,1.52-.12.28,0a.5.5,0,0,0,.12-.08l0,0c.67-.77,1.34-1.54,2-2.31a.31.31,0,0,1,.12-.07l.21,0c.26,0,.55-.05.83-.07l3.09-.26a.8.8,0,0,1,.28,0s0,.06,0,.12-.19.2-.28.31l-1.22,1.39c.6-.06,1.11-.11,1.64-.14h0l.11,0,.14,0,.05,0a.24.24,0,0,0,.11-.09c.45-.53.93-1.06,1.38-1.59a.27.27,0,0,1,.15-.1.87.87,0,0,1,.27-.05l5.65-.49a1,1,0,0,0,.27,0h0c.21-.21.38-.42.59-.65H29.5L15.35,8.59l-.23,0h0" fill="#ffff49"/>
              <path d="M12.29,12l.08,0,5.47,2.47a.8.8,0,0,0,.44,0l13.06-1.12,1.35-.12L32,13l-.38-.18h0a.94.94,0,0,0-.49-.05l-12.27,1a1.12,1.12,0,0,1-.57-.07l-2-.91-2-.9a1.25,1.25,0,0,0-.32-.08L12.29,12" fill="#ffff49"/>
              <path d="M19.33,10.73l.06,0,1.3.59L22,12a.66.66,0,0,0,.29,0l8.14-.69.16,0h0c.24-.25.46-.5.7-.77l-.36,0L23,11.2a.94.94,0,0,1-.54-.07L22,10.88l-.56-.23a.7.7,0,0,0-.33-.06l-1.76.14" fill="#ffff49"/>
              <path d="M16.46,9.32l-.09.09-2,2.21c-.07.08,0,.13.1.2l3.81,1.72.2.08a5.57,5.57,0,0,1,.46-.51c.15-.13.09-.22-.13-.32l-.05,0-.91-.41L17,12l-.61-.27c-.17-.07-.18-.13-.1-.23.44-.48.87-1,1.3-1.47,0,0,.05-.12,0-.15L17,9.58l-.58-.26" fill="#ffff49"/>
              <path d="M34.47,9.46l-.33.37-2.38,2.7c0,.05-.06.12,0,.15l.56.26.57.26.08,0,2.69-3.06s0-.1-.06-.12l-.55-.25-.58-.27" fill="#ffff49"/>
              <path d="M23.21,8.71l.66.29.37.18h0a.85.85,0,0,0,.46.05l3.47-.3,2.14-.18-.6-.27-.42-.2h0a1,1,0,0,0-.5-.06l-5.28.45-.3,0" fill="#ffff49"/>
              <path d="M23,8.78l-1.44,1.66a.05.05,0,0,0,0,.09l.56.25.59.27,1.47-1.66s0-.07,0-.09l-.56-.25L23,8.78" fill="#ffff49"/>
              <path d="M16.66,9.25l.59.26a5.38,5.38,0,0,0,.55.24.73.73,0,0,0,.27,0l1.53-.13.16,0,0,0,0,0c.19-.21.37-.41.57-.65l-3.75.32" fill="#ffff49"/>
              <path d="M30,7.42l-.58.66.05.08,1.14.52c.21-.24.4-.45.58-.67l0-.07-1-.45L30,7.42" fill="#ffff49"/>
              <path d="M24.86,5.54s0,0,0,.06c.26.52,1,.89,2.22,1.08a7.39,7.39,0,0,0,3.51-.26l.32-.14c1.62-.76.7-2-1.7-2.26-.09,0-.14,0-.17,0s0,0-.06,0c-.28.37-.58.74-.86,1.12l-.1.07-.17,0L25,5.52l-.12,0" fill="#00a2fd"/>
              <path d="M27,4.82l-.1,0L25.25,5c-.07,0-.12,0-.14,0-.17-.39-.33-.78-.49-1.17v0a.86.86,0,0,1,.17,0L27.2,4a1.53,1.53,0,0,1,.4.06s-.06.11-.1.17l-.4.52a.18.18,0,0,1-.07.05m-3.1-1.4c.26.6.5,1.19.75,1.77,0,0,.07,0,.15,0L27.34,5h.11l.06,0c.25-.32.5-.65.77-1,0,0,0-.06-.11-.08-.53,0-1.06-.12-1.59-.18l-2.65-.3" fill="#009ff9"/>
            </g>
          </g>
        </g>
      </g>
      <g>
        <polygon points="48.74 10.53 48.58 40.83 24.04 49.76 24.2 19.46 48.74 10.53" fill="#f0f0f0"/>
        <g style="isolation: isolate">
          <g clip-path="url(#clip-path-3)">
            <g>
              <path d="M36.68,40.55c0-.26,0-.52,0-.78a.72.72,0,0,1,.19-.32l4.68-4.78L42.2,34v.8c0,.26,0,.51,0,.76a.53.53,0,0,1-.12.29q-2.66,2.7-5.3,5.42l-.09.05v-.79m-1.58-9a.41.41,0,0,1,.19,0h0c1.14.38,2.27.77,3.41,1.17l3.2,1.1.16.06L40.4,35.56C39.19,36.8,38,38,36.78,39.27c0,0-.05,0-.08.06a.23.23,0,0,1-.11.07.28.28,0,0,1-.22,0l-7.91-2.75-.17-.07,1.16-1.19,0,0a.31.31,0,0,1,.16,0h.06c2.21.77,4.42,1.53,6.64,2.32a.44.44,0,0,0,.25,0l0,0a.77.77,0,0,0,.28-.2c.79-.83,1.59-1.63,2.39-2.43.08-.08.14-.18.28-.34l-5.78-2c.42-.43.81-.84,1.21-1.22l.08,0M41,30.76c0-.56,0-1.07,0-1.58l.07-.19,1.15-1.16V28c0,.48,0,.93,0,1.38l-.06.15c-.37.4-.74.78-1.15,1.2m-8.83,1.69c0-.59,0-1.18,0-1.78,0,0,0-.06,0-.12.4.13.78.26,1.15.41.07,0,.12.15.12.25s0,.49,0,.74,0,.49,0,.74.07.32.22.37l5.24,1.76.24.09c-.47.47-.9.92-1.34,1.35h0l0,0a.15.15,0,0,1-.13,0c-1.8-.6-3.58-1.22-5.38-1.84a.24.24,0,0,1-.11-.2V32.45m4.71-3.73c0-.29,0-.59,0-.9l.22,0c1.16.4,2.31.81,3.48,1.2.15,0,.21.13.21.33v0c0,.2,0,.39,0,.59v.81l-1.42-.48-2.29-.78c-.13,0-.19-.12-.2-.29v0c0-.18,0-.35,0-.52M33.7,31.79c0-.26,0-.52,0-.78a.42.42,0,0,1,.1-.2l2.87-2.94c0,.28,0,.55,0,.81s0,.52,0,.78a.36.36,0,0,1-.09.21L33.7,32.6v-.81m3,5.66a.27.27,0,0,1-.18,0c-2.1-.72-4.18-1.47-6.29-2.15-.47-.15-.64-.43-.6-1.09.06-1,0-1.88,0-2.81a.53.53,0,0,1,.18-.42c.84-.86,1.68-1.73,2.53-2.57a.49.49,0,0,1,.15-.1.23.23,0,0,1,.14,0c.33.09.65.21,1,.34l-1.45,1.49a.57.57,0,0,0-.2.47c0,1.24,0,2.48,0,3.73,0,.23.06.32.22.37l5.21,1.78.18.08c-.3.31-.58.61-.87.88l0,0m-9.93.47q0-3.75,0-7.5s0-.06,0-.14c.39.14.76.25,1.11.4.06,0,.07.19.08.3,0,.91,0,1.82,0,2.73l0,2.74c0,.24.06.34.23.4l8.09,2.8c.14.05.2.13.2.32v0c0,.17,0,.35,0,.52v.92l-.89-.3-8.64-3c-.11,0-.19-.07-.19-.27m1.47-7a.56.56,0,0,1,.2-.46l3.83-3.92.16-.14c0,.27,0,.53,0,.79s0,.5,0,.75a.73.73,0,0,1-.18.32q-1.27,1.32-2.55,2.61a.67.67,0,0,0-.23.53v.82c0,.41,0,.82,0,1.24v1.23a.13.13,0,0,1,0,.06.92.92,0,0,1-.33.75c-.3.26-.58.58-.89.89,0-.11,0-.19,0-.26,0-1.74,0-3.47,0-5.21m4.39-3.8v-.8l2.48.86c-.41.42-.77.79-1.13,1.14a.1.1,0,0,1,0,0l0,0a.31.31,0,0,1-.13,0c-.34-.11-.68-.23-1-.36a.21.21,0,0,1-.11-.18c0-.24,0-.48,0-.74m-.11-2.75h0a.25.25,0,0,1,.17,0L42,27.6l.1,0c-.39.4-.75.78-1.13,1.14l0,0h0a.37.37,0,0,1-.21,0L37,27.52a.3.3,0,0,0-.21,0,.83.83,0,0,0-.21.16c-.91.95-1.83,1.89-2.75,2.84a.83.83,0,0,1-.16.13l-.06,0a.25.25,0,0,1-.12,0l-.07,0h0c-.34-.14-.68-.24-1.08-.37l2.41-2.47.54-.55c.09-.1.14-.17.14-.23s0-.09-.14-.13l-2-.71a3.92,3.92,0,0,0-.55-.18.38.38,0,0,0-.18,0,.34.34,0,0,0-.16.1c-1.34,1.35-2.67,2.72-4,4.08l0,.06a.59.59,0,0,1-.16.1.31.31,0,0,1-.21,0c-.31-.14-.64-.24-1-.36l.71-.74,4.69-4.79a.63.63,0,0,1,.18-.14m0-.28a.56.56,0,0,0-.2.14q-2.77,2.85-5.56,5.68a.51.51,0,0,0-.16.39c0,2.6,0,5.21,0,7.82,0,.19,0,.28.18.32l2.35.8,7.31,2.5a.28.28,0,0,0,.2,0,.46.46,0,0,0,.14-.09c1.84-1.9,3.68-3.78,5.53-5.67a.77.77,0,0,0,.15-.36c0-.56,0-1.1,0-1.66,0-.22-.06-.32-.21-.37-1.42-.48-2.84-1-4.26-1.47l-2.61-.89c.44-.44.85-.86,1.25-1.28a.54.54,0,0,1,.19-.14.25.25,0,0,1,.19,0l3.77,1.29a.2.2,0,0,0,.17,0,.29.29,0,0,0,.15-.11c.4-.42.8-.82,1.2-1.22a.56.56,0,0,0,.18-.46c0-.51,0-1,0-1.54,0-.25-.07-.35-.24-.41q-4.76-1.64-9.51-3.3a.31.31,0,0,0-.21,0"/>
              <path d="M35.1,31.51l-.08,0c-.4.38-.79.79-1.21,1.22l5.78,2c-.14.16-.2.26-.28.34-.8.8-1.6,1.6-2.39,2.43a.77.77,0,0,1-.28.2h0l0,0a.44.44,0,0,1-.25,0c-2.22-.79-4.43-1.55-6.64-2.32h-.06a.31.31,0,0,0-.16,0l0,0-1.16,1.19.17.07,7.91,2.75a.28.28,0,0,0,.22,0,.23.23,0,0,0,.11-.07s0,0,.08-.06C38,38,39.19,36.8,40.4,35.56l1.68-1.72-.16-.06-3.2-1.1c-1.14-.4-2.27-.79-3.41-1.17h0a.41.41,0,0,0-.19,0" fill="#ffff49"/>
              <path d="M32.48,24.34a.63.63,0,0,0-.18.14l-4.69,4.79L26.9,30c.35.12.68.22,1,.36a.31.31,0,0,0,.21,0,.59.59,0,0,0,.16-.1l0-.06c1.34-1.36,2.67-2.73,4-4.08a.34.34,0,0,1,.16-.1.38.38,0,0,1,.18,0,3.92,3.92,0,0,1,.55.18l2,.71c.09,0,.14.08.14.13s0,.13-.14.23l-.54.55L32.3,30.28c.4.13.74.23,1.08.37h0l.07,0a.25.25,0,0,0,.12,0l.06,0a.83.83,0,0,0,.16-.13c.92-1,1.84-1.89,2.75-2.84a.83.83,0,0,1,.21-.16.3.3,0,0,1,.21,0l3.74,1.28a.37.37,0,0,0,.21,0h0l0,0c.38-.36.74-.74,1.13-1.14l-.1,0-9.33-3.25a.25.25,0,0,0-.17,0h0" fill="#ffff49"/>
              <path d="M26.79,30.28c0,.08,0,.11,0,.14q0,3.75,0,7.5c0,.2.08.23.19.27l8.64,3,.89.3v-.92c0-.17,0-.35,0-.52v0c0-.19-.06-.27-.2-.32l-8.09-2.8c-.17-.06-.23-.16-.23-.4l0-2.74c0-.91,0-1.82,0-2.73,0-.11,0-.27-.08-.3-.35-.15-.72-.26-1.11-.4" fill="#ffff49"/>
              <path d="M32.22,30.55c0,.06,0,.1,0,.12,0,.6,0,1.19,0,1.78v1.78a.24.24,0,0,0,.11.2c1.8.62,3.58,1.24,5.38,1.84a.15.15,0,0,0,.13,0l0,0h0c.44-.43.87-.88,1.34-1.35l-.24-.09L33.7,33.06c-.15-.05-.22-.14-.22-.37s0-.5,0-.74,0-.49,0-.74-.05-.23-.12-.25c-.37-.15-.75-.28-1.15-.41" fill="#ffff49"/>
              <path d="M32.39,26.37l-.16.14L28.4,30.43a.56.56,0,0,0-.2.46c0,1.74,0,3.47,0,5.21,0,.07,0,.15,0,.26.31-.31.59-.63.89-.89a.92.92,0,0,0,.33-.75.13.13,0,0,0,0-.06V33.43c0-.42,0-.83,0-1.24v-.82a.67.67,0,0,1,.23-.53q1.27-1.29,2.55-2.61a.73.73,0,0,0,.18-.32c0-.25,0-.5,0-.75s0-.52,0-.79" fill="#ffff49"/>
              <path d="M42.2,34l-.64.65-4.68,4.78a.72.72,0,0,0-.19.32c0,.26,0,.52,0,.78v.79l.09-.05q2.64-2.72,5.3-5.42a.53.53,0,0,0,.12-.29c0-.25,0-.5,0-.76V34" fill="#ffff49"/>
              <path d="M36.89,27.82c0,.31,0,.61,0,.9s0,.34,0,.52v0c0,.17.07.25.2.29l2.29.78,1.42.48V30c0-.2,0-.39,0-.59v0c0-.2-.06-.29-.21-.33-1.17-.39-2.32-.8-3.48-1.2l-.22,0" fill="#ffff49"/>
              <path d="M36.68,27.87l-2.87,2.94a.42.42,0,0,0-.1.2c0,.26,0,.52,0,.78v.81l2.87-2.93a.36.36,0,0,0,.09-.21c0-.26,0-.51,0-.78s0-.53,0-.81" fill="#ffff49"/>
              <path d="M32.59,26.29v.8c0,.26,0,.5,0,.74a.21.21,0,0,0,.11.18c.33.13.67.25,1,.36a.31.31,0,0,0,.13,0l0,0a.1.1,0,0,0,0,0c.36-.35.72-.72,1.13-1.14l-2.48-.86" fill="#ffff49"/>
              <path d="M42.24,27.83,41.09,29l-.07.19c0,.51,0,1,0,1.58.41-.42.78-.8,1.15-1.2l.06-.15c0-.45,0-.9,0-1.38v-.2" fill="#ffff49"/>
              <path d="M41.76,21.74s-.06.05-.09.12a3.79,3.79,0,0,0-.12,3.21,1.71,1.71,0,0,0,2.27.89l.35-.17C46,24.83,47,21.85,46,20.28c0-.05-.06-.08-.1-.06s0,0-.09.07l-1.87,2a.31.31,0,0,1-.14.1.15.15,0,0,1-.13,0l-1.87-.67a.08.08,0,0,0-.08,0" fill="#00a2fd"/>
              <path d="M43.85,21.09a.09.09,0,0,1-.07,0l-1.11-.4c-.05,0-.08,0,0-.12.4-.89.79-1.79,1.18-2.68l0-.09s.06.05.08.08l1,1.58c.06.09.17.19.15.29s-.17.21-.27.32L44,21a.26.26,0,0,1-.1.07m0-4.24c-.6,1.38-1.2,2.73-1.79,4.08,0,.11,0,.12,0,.14l1.65.59a.11.11,0,0,0,.08,0,.21.21,0,0,0,.08-.06l1.65-1.78c.08-.08.1-.13,0-.21l-.65-1-1.1-1.73" fill="#009ff9"/>
            </g>
          </g>
        </g>
      </g>
    </g>
  </g>
</svg>
