<svg id="Capa_1" data-name="Capa 1" xmlns="http://www.w3.org/2000/svg" xmlns:xlink="http://www.w3.org/1999/xlink" width="50" height="50" viewBox="0 0 50 50">
  <defs>
    <clipPath id="clip-path">
      <polygon points="24.04 49.76 1.26 39.47 1.42 9.18 24.2 19.47 24.04 49.76" fill="none"/>
    </clipPath>
    <clipPath id="clip-path-2">
      <polygon points="24.2 19.47 1.42 9.18 25.96 0.24 48.75 10.53 24.2 19.47" fill="none"/>
    </clipPath>
    <clipPath id="clip-path-3">
      <polygon points="48.75 10.53 48.59 40.83 24.04 49.76 24.2 19.47 48.75 10.53" fill="none"/>
    </clipPath>
  </defs>
  <g id="Figment_lido">
    <g style="isolation: isolate">
      <g>
        <polygon points="24.04 49.76 1.26 39.47 1.42 9.18 24.2 19.47 24.04 49.76" fill="#254182"/>
        <g style="isolation: isolate">
          <g clip-path="url(#clip-path)">
            <g>
              <path d="M16.85,23.14s-.05,0-.07.05A3.41,3.41,0,0,0,16.71,26a3.77,3.77,0,0,0,1.83,2.33l.28.09c1.47.38,2.26-1.59,1.46-3.66a.31.31,0,0,0-.08-.12s0,0-.07,0l-1.49.55a.21.21,0,0,1-.11,0,.47.47,0,0,1-.11-.1l-1.5-1.85-.07-.07" fill="#fff"/>
              <path d="M18.46,23.93c-.29-.37-.58-.73-.89-1.1l0-.14c.31-.52.63-1.05.93-1.59l0-.05.07.14.81,2.06c0,.12.14.29.12.37s-.13.08-.21.1l-.7.26-.14-.05m.05-3.71c-.47.82-.94,1.63-1.41,2.42l0,.15,1.33,1.64.14.06c.43-.17.87-.33,1.31-.48.06,0,.07-.05,0-.16-.19-.45-.36-.91-.54-1.36-.29-.75-.58-1.49-.89-2.27" fill="#fff"/>
              <path d="M11.86,21.89a3.81,3.81,0,0,0-.44-.15,2,2,0,0,0-2.51,1.51,6,6,0,0,0,.52,4.57c1.25,2.62,2.51,5.23,3.77,7.85a3.58,3.58,0,0,1,.39,2c-.12,1.07-.83,1.64-1.68,1.29h0a3.53,3.53,0,0,1-1.73-2.69c0-.22,0-.44,0-.66-.36,0-.7,0-1,0s-.39,0-.31.5a6.37,6.37,0,0,0,3.12,4.81,2.66,2.66,0,0,0,.65.19c2.3.35,3.26-3,1.77-6.1l-1.76-3.65c-.7-1.45-1.41-2.9-2.09-4.36a3.08,3.08,0,0,1-.18-2.56,1,1,0,0,1,1.52-.62l.09,0A3.17,3.17,0,0,1,13.44,26c.09.37.12.74.17,1.07.45.05.88.08,1.35.12,0-.19,0-.38-.05-.58-.28-1.95-1.55-4-3.05-4.69" fill="#edb500"/>
              <path d="M8.14,25.05a2.06,2.06,0,0,0-2.39.51c-.9,1-1.14,2.5-.66,4.45a6.71,6.71,0,0,0,2.79,4.27,5.48,5.48,0,0,0,.53.28c1.36.59,2.36,0,3.16-1.2l-.94-1.95c-.28.32-.55.64-.84.92a1.25,1.25,0,0,1-1.44.21,2.5,2.5,0,0,1-.84-.62A4.5,4.5,0,0,1,6.36,28.6c.08-1.05.73-1.72,1.56-1.59.23,0,.48.16.7.22-.16-.72-.32-1.43-.48-2.18" fill="#fff"/>
              <path d="M15.36,28.2a1.88,1.88,0,0,0-.3-.12c-1.32-.42-2.2.22-2.94,1.27l.94,1.95c.31-.34.59-.66.89-.95a1.22,1.22,0,0,1,1.38-.18,3,3,0,0,1,1,.84,4.45,4.45,0,0,1,.92,3.4c-.23,1.09-1,1.57-1.91,1.19l-.32-.14c.17.74.32,1.44.5,2.2a3.75,3.75,0,0,0,.6.14c1.75.23,2.91-1.61,2.62-4.11S17,28.93,15.36,28.2" fill="#fff"/>
            </g>
          </g>
        </g>
      </g>
      <g>
        <polygon points="24.2 19.47 1.42 9.18 25.96 0.24 48.75 10.53 24.2 19.47" fill="#29488f"/>
        <g style="isolation: isolate">
          <g clip-path="url(#clip-path-2)">
            <g>
              <path d="M23.69,5.5s0,0,0,.06c.23.46.88.79,2,1a6.74,6.74,0,0,0,3.13-.23l.28-.12c1.44-.68.62-1.77-1.52-2h-.15a.1.1,0,0,0-.05,0l-.76,1a.17.17,0,0,1-.1.06.28.28,0,0,1-.15,0l-2.53.21h-.11" fill="#fff"/>
              <path d="M25.54,4.88,24,5l-.13,0c-.14-.34-.28-.69-.43-1v0h.15l2.15.24a2.06,2.06,0,0,1,.36,0c.05,0-.05.11-.09.16l-.36.46-.14.06M22.87,3.62c.23.53.45,1.06.66,1.58l.13,0,2.24-.18L26.05,5l.68-.87s0-.06-.09-.07l-1.42-.16-2.35-.27" fill="#fff"/>
              <path d="M18.87,7.81a4.68,4.68,0,0,0-.45.19c-1.15.56-1.48,1.18-.87,1.87s1.91,1.12,3.74,1.24l8.69.55a3.78,3.78,0,0,1,1.77.46c.69.42.54,1-.37,1.34h0a5.77,5.77,0,0,1-3.32,0c-.19-.06-.34-.13-.51-.2-.29.19-.56.38-.86.55s-.32.2.13.34a10.48,10.48,0,0,0,6-.11,3.76,3.76,0,0,0,.64-.29c2.06-1.13.4-2.76-3.06-3l-4-.25-4.82-.31a2.61,2.61,0,0,1-2-.76c-.28-.41,0-.77.73-1l.11,0a5.32,5.32,0,0,1,2.79-.12,8.35,8.35,0,0,1,.91.26l1.15-.7c-.15-.06-.3-.12-.47-.17a10.44,10.44,0,0,0-5.81.11" fill="#edb500"/>
              <path d="M18.26,10.89c-1,.4-1.52.9-1.5,1.48,0,.82.92,1.45,2.72,1.84a11.27,11.27,0,0,0,5.3-.11c.23-.06.44-.13.63-.2,1.49-.54,1.84-1.28,1.6-2.12l-2.16-.14a6.65,6.65,0,0,1,0,.77c0,.34-.39.64-1,.86a5.26,5.26,0,0,1-1.1.25A5.78,5.78,0,0,1,19.45,13c-.7-.39-.68-1,.07-1.38.21-.11.49-.21.7-.31l-2-.46" fill="#fff"/>
              <path d="M26.21,8l-.32.12c-1.33.58-1.56,1.27-1.37,2l2.16.13a7.11,7.11,0,0,1,0-.8c0-.32.39-.61,1-.81a5.38,5.38,0,0,1,1.42-.29A5.2,5.2,0,0,1,32.27,9c.62.49.36,1.08-.63,1.44l-.35.13,2,.46c.17-.08.39-.18.57-.28,1.53-.88,1.11-2.13-1-2.8a11.41,11.41,0,0,0-6.7,0" fill="#fff"/>
            </g>
          </g>
        </g>
      </g>
      <g>
        <polygon points="48.75 10.53 48.59 40.83 24.04 49.76 24.2 19.47 48.75 10.53" fill="#294992"/>
        <g style="isolation: isolate">
          <g clip-path="url(#clip-path-3)">
            <g>
              <path d="M41,20.38s0,.05-.07.11a3.32,3.32,0,0,0-.1,2.83,1.51,1.51,0,0,0,2,.79l.31-.14c1.63-.85,2.52-3.48,1.65-4.87,0-.05,0-.07-.09-.06a.23.23,0,0,0-.08.07c-.55.6-1.1,1.19-1.64,1.79l-.13.09a.24.24,0,0,1-.12,0c-.55-.21-1.1-.4-1.65-.59a.12.12,0,0,0-.08,0" fill="#fff"/>
              <path d="M42.79,19.82c-.32-.13-.65-.24-1-.36l0-.11c.35-.78.7-1.57,1-2.36l0-.08.08.08.87,1.39c.06.07.16.16.14.25s-.15.19-.24.28l-.77.84-.15.07m.08-3.75c-.53,1.22-1,2.42-1.58,3.6l0,.13,1.46.52.15-.06c.48-.52,1-1,1.45-1.57.07-.07.08-.11,0-.18-.2-.3-.39-.61-.58-.92l-1-1.52" fill="#fff"/>
              <path d="M35.5,23.3a3.41,3.41,0,0,0-.48.22,5.8,5.8,0,0,0-2.79,3.6,4.18,4.18,0,0,0,.53,4.14c1.36,1.57,2.73,3.12,4.1,4.69a2,2,0,0,1,.41,1.68,3.43,3.43,0,0,1-1.87,2.7h0a1.38,1.38,0,0,1-1.89-1.25c0-.2,0-.42,0-.63-.4.29-.78.57-1.16.82s-.42.29-.34.76c.33,1.91,1.78,2.79,3.41,2.2a5.17,5.17,0,0,0,.71-.35c2.54-1.58,3.64-5.69,2-7.57l-1.91-2.18c-.76-.87-1.54-1.72-2.28-2.6a2.41,2.41,0,0,1-.16-2.42,2.92,2.92,0,0,1,1.68-1.89l.1,0a1.24,1.24,0,0,1,1.69.88,5.75,5.75,0,0,1,.18.92l1.49-1a5.16,5.16,0,0,0-.05-.54A2.44,2.44,0,0,0,35.5,23.3" fill="#edb500"/>
              <path d="M31.36,29.58a5.7,5.7,0,0,0-2.65,2.5,6.09,6.09,0,0,0-.77,5A2.47,2.47,0,0,0,31,39a3.83,3.83,0,0,0,.58-.16c1.5-.54,2.61-2,3.51-3.84l-1-1.16c-.32.56-.62,1.1-1,1.63a3.32,3.32,0,0,1-1.59,1.41,1.73,1.73,0,0,1-.92.08c-.88-.2-1.36-1.1-1.24-2.36a4,4,0,0,1,1.74-2.89c.26-.16.53-.25.77-.37-.17-.58-.34-1.16-.51-1.76" fill="#fff"/>
              <path d="M39.31,26.68a2.33,2.33,0,0,0-.33.14,7.38,7.38,0,0,0-3.25,3.72c.33.38.67.77,1,1.15.34-.59.65-1.15,1-1.68a3.19,3.19,0,0,1,1.54-1.34,1.66,1.66,0,0,1,1.14,0c.83.28,1.24,1.38,1,2.62a3.81,3.81,0,0,1-2.12,2.79l-.35.13c.17.6.34,1.17.53,1.78a7.37,7.37,0,0,0,.66-.36,7,7,0,0,0,2.94-6.3c-.29-2.21-1.89-3.3-3.75-2.62" fill="#fff"/>
            </g>
          </g>
        </g>
      </g>
    </g>
  </g>
</svg>
