<svg id="Capa_1" data-name="Capa 1" xmlns="http://www.w3.org/2000/svg" xmlns:xlink="http://www.w3.org/1999/xlink" width="50" height="50" viewBox="0 0 50 50">
  <defs>
    <clipPath id="clip-path">
      <polygon points="24.04 49.77 1.25 39.48 1.41 9.17 24.2 19.46 24.04 49.77" fill="none"/>
    </clipPath>
    <clipPath id="clip-path-2">
      <polygon points="24.2 19.46 1.41 9.17 25.95 0.24 48.74 10.53 24.2 19.46" fill="none"/>
    </clipPath>
    <clipPath id="clip-path-3">
      <polygon points="48.74 10.53 48.58 40.83 24.04 49.77 24.2 19.46 48.74 10.53" fill="none"/>
    </clipPath>
  </defs>
  <g id="Figment_lido">
    <g style="isolation: isolate">
      <g>
        <polygon points="24.04 49.77 1.25 39.48 1.41 9.17 24.2 19.46 24.04 49.77" fill="#5b5b5b"/>
        <g style="isolation: isolate">
          <g clip-path="url(#clip-path)">
            <g>
              <path d="M9,22.38a.53.53,0,0,0-.36-.05.73.73,0,0,0-.33.18l-3.6,3.13h0V21.3a1.33,1.33,0,0,0-.16-.69.9.9,0,0,0-.45-.41.4.4,0,0,0-.45,0,.73.73,0,0,0-.16.55v9.77a1.35,1.35,0,0,0,.16.69.9.9,0,0,0,.44.42c.21.1.36.09.46,0a.77.77,0,0,0,.15-.55v-4.5h0l3.74,6.51a4.29,4.29,0,0,0,.32.51,1,1,0,0,0,.37.3c.18.07.31.07.4,0a.47.47,0,0,0,.13-.41,1.51,1.51,0,0,0-.22-.66L5.9,26.53l3.41-2.9a.67.67,0,0,0,.2-.41.93.93,0,0,0-.1-.48A.76.76,0,0,0,9,22.38" fill="#c6c6c6"/>
              <path d="M14.45,24.76a3.61,3.61,0,0,0-1.71-.36,2,2,0,0,0-1.28.59,3.44,3.44,0,0,0-.79,1.46,7.89,7.89,0,0,0-.28,2.28A10.75,10.75,0,0,0,10.86,32a7.55,7.55,0,0,0,1.39,2.6,6.29,6.29,0,0,0,2.27,1.7,6.15,6.15,0,0,0,1.32.42,3.82,3.82,0,0,0,1.18.08.29.29,0,0,0,.25-.18,1.1,1.1,0,0,0,.08-.45v-4a1.12,1.12,0,0,0-.13-.57.77.77,0,0,0-.37-.34l-2-.9a.37.37,0,0,0-.37,0c-.09.06-.14.19-.14.4a1,1,0,0,0,.14.53.79.79,0,0,0,.37.33l1.5.67v3a3.66,3.66,0,0,1-.73-.06,4.31,4.31,0,0,1-1-.33,4.37,4.37,0,0,1-2.18-2.06,7.67,7.67,0,0,1-.73-3.54,6.28,6.28,0,0,1,.32-2.2A1.66,1.66,0,0,1,12.91,26a2.07,2.07,0,0,1,1.54.17,5,5,0,0,1,1.11.7,5.76,5.76,0,0,1,1,1.05,1,1,0,0,0,.3.26l.05,0a.27.27,0,0,0,.27-.07.64.64,0,0,0,.15-.31,1,1,0,0,0,0-.42,1.21,1.21,0,0,0-.22-.46,6.49,6.49,0,0,0-1.23-1.36,6.41,6.41,0,0,0-1.38-.86" fill="#c6c6c6"/>
              <path d="M18.44,28s0,0-.06,0a3.25,3.25,0,0,0-.08,2.62A3.62,3.62,0,0,0,20,32.89l.27.08c1.39.38,2.15-1.48,1.4-3.43,0-.06-.05-.1-.08-.11h-.06l-1.41.5a.14.14,0,0,1-.11,0,.26.26,0,0,1-.1-.09l-1.42-1.76a.22.22,0,0,0-.07-.07" fill="#00a2fd"/>
              <path d="M20,28.82a.12.12,0,0,1-.05-.05l-.84-1c0-.05-.07-.08,0-.13L20,26.11l0-.05a.2.2,0,0,1,.06.12c.26.65.51,1.31.76,2a1,1,0,0,1,.12.34c0,.07-.13.07-.21.09l-.66.24H20m0-3.55-1.35,2.28c0,.06,0,.09,0,.14.42.51.83,1,1.25,1.55a.17.17,0,0,0,.06.06h.07l1.24-.44c.06,0,.07,0,0-.15l-.5-1.29c-.27-.7-.55-1.41-.83-2.15" fill="#009ff9"/>
            </g>
          </g>
        </g>
      </g>
      <g>
        <polygon points="24.2 19.46 1.41 9.17 25.95 0.24 48.74 10.53 24.2 19.46" fill="#636363"/>
        <g style="isolation: isolate">
          <g clip-path="url(#clip-path-2)">
            <g>
              <path d="M18.26,10a.75.75,0,0,0-.31.18.41.41,0,0,0-.13.24l-.48,3h0L14.13,12a1.52,1.52,0,0,0-.63-.14,1.65,1.65,0,0,0-.65.11c-.21.08-.33.16-.34.25s.08.18.28.27L20,15.75a1.52,1.52,0,0,0,.63.14,1.66,1.66,0,0,0,.66-.1c.23-.08.34-.17.34-.26s-.09-.18-.29-.27L18,13.77h0l7.69.11h.63a1.8,1.8,0,0,0,.5-.11c.19-.07.29-.14.31-.22s-.06-.15-.21-.21a1.8,1.8,0,0,0-.65-.09l-7.4-.12.51-2.84a.24.24,0,0,0-.15-.24,1,1,0,0,0-.43-.11,1.71,1.71,0,0,0-.57.1" fill="#c6c6c6"/>
              <path d="M24.23,7.83a5.53,5.53,0,0,0-1.59.82,1.26,1.26,0,0,0-.56.89,1.22,1.22,0,0,0,.46.92,5.2,5.2,0,0,0,1.46.91,11.19,11.19,0,0,0,2.78.83,11.47,11.47,0,0,0,3,.09,11.81,11.81,0,0,0,3-.68A10.06,10.06,0,0,0,34.11,11a5.82,5.82,0,0,0,1-.62c.08-.07.11-.13.06-.2a.62.62,0,0,0-.27-.19L31.94,8.69a1.36,1.36,0,0,0-.52-.12,1.7,1.7,0,0,0-.54.09l-2.23.81c-.17.07-.27.13-.3.2s0,.14.19.21A1.3,1.3,0,0,0,29,10a1.6,1.6,0,0,0,.53-.09l1.66-.61,2.21,1a4.93,4.93,0,0,1-.61.38,7.73,7.73,0,0,1-1,.46,8.2,8.2,0,0,1-3.22.51,8.38,8.38,0,0,1-3.17-.77A3.74,3.74,0,0,1,24,10a.65.65,0,0,1,0-.87,2.87,2.87,0,0,1,1.32-.78,8.94,8.94,0,0,1,1.37-.38,11.12,11.12,0,0,1,1.52-.18,1.4,1.4,0,0,0,.42-.07l.05,0c.1,0,.16-.11.16-.17a.26.26,0,0,0-.11-.19,1,1,0,0,0-.32-.14,1.88,1.88,0,0,0-.5,0,11,11,0,0,0-1.95.23,11.16,11.16,0,0,0-1.71.47" fill="#c6c6c6"/>
              <path d="M29.72,6.71s0,0,0,0c.22.44.83.76,1.86.91a6.27,6.27,0,0,0,3-.21l.27-.12c1.36-.64.59-1.67-1.44-1.9a.32.32,0,0,0-.14,0,.08.08,0,0,0,0,0l-.73.94a.2.2,0,0,1-.09.06l-.14,0-2.4.2h-.1" fill="#00a2fd"/>
              <path d="M31.55,6.11h-.08l-1.42.12c-.06,0-.11,0-.12,0l-.41-1v0h.13l2,.24c.12,0,.3,0,.34,0s-.05.09-.09.14l-.34.44a.07.07,0,0,1-.05,0M28.94,4.93c.22.51.42,1,.63,1.49,0,0,.06,0,.13,0l2.11-.17h.09a.1.1,0,0,0,.05,0l.65-.82s0-.06-.09-.07l-1.34-.15-2.23-.26" fill="#009ff9"/>
            </g>
          </g>
        </g>
      </g>
      <g>
        <polygon points="48.74 10.53 48.58 40.83 24.04 49.77 24.2 19.46 48.74 10.53" fill="#666"/>
        <g style="isolation: isolate">
          <g clip-path="url(#clip-path-3)">
            <g>
              <path d="M33.4,27.4a1.17,1.17,0,0,0-.38.24,3.2,3.2,0,0,0-.36.45L28.83,34h0l0-4.17a.65.65,0,0,0-.16-.54.49.49,0,0,0-.48,0,1,1,0,0,0-.48.38,1.29,1.29,0,0,0-.17.66l0,9.41a.69.69,0,0,0,.16.54.45.45,0,0,0,.47,0,.92.92,0,0,0,.49-.39,1.37,1.37,0,0,0,.17-.66l0-4.34h0l4,3.23a2.05,2.05,0,0,0,.35.23.56.56,0,0,0,.4,0,.83.83,0,0,0,.42-.34.81.81,0,0,0,.14-.5.62.62,0,0,0-.23-.45l-3.79-3.14,3.65-5.57a1.39,1.39,0,0,0,.21-.56.43.43,0,0,0-.11-.38c-.08-.08-.22-.09-.41,0" fill="#c6c6c6"/>
              <path d="M39.18,25.27a6,6,0,0,0-1.82,1.05A6.42,6.42,0,0,0,36,27.92,8,8,0,0,0,35.14,30a9.3,9.3,0,0,0-.3,2.41,6.52,6.52,0,0,0,.48,2.78,2.48,2.48,0,0,0,1.48,1.37,3.87,3.87,0,0,0,2.41-.21,9.83,9.83,0,0,0,2.66-1.56.86.86,0,0,0,.26-.37,1.35,1.35,0,0,0,.09-.5l0-3.86a.59.59,0,0,0-.14-.45.4.4,0,0,0-.39,0l-2.15.78a.78.78,0,0,0-.39.29.79.79,0,0,0-.15.49.49.49,0,0,0,.14.4.4.4,0,0,0,.39,0L41.16,31l0,2.89a6.78,6.78,0,0,1-.78.54,7.38,7.38,0,0,1-1.1.53,2.1,2.1,0,0,1-2.32-.21,4,4,0,0,1-.76-2.82,7.77,7.77,0,0,1,.34-2.36,4.89,4.89,0,0,1,1-1.79,4,4,0,0,1,1.64-1.08,3.4,3.4,0,0,1,1.18-.24,2.37,2.37,0,0,1,1,.23.38.38,0,0,0,.31,0l.06,0a.89.89,0,0,0,.29-.29,1.52,1.52,0,0,0,.16-.42.94.94,0,0,0,0-.41.44.44,0,0,0-.23-.27A2.5,2.5,0,0,0,40.64,25a4.51,4.51,0,0,0-1.46.29" fill="#c6c6c6"/>
              <path d="M43.42,25.14s-.05,0-.07.1a3.07,3.07,0,0,0-.1,2.59,1.39,1.39,0,0,0,1.83.72l.28-.14c1.49-.77,2.3-3.17,1.51-4.44,0,0,0-.06-.08,0l-.07.06c-.5.55-1,1.08-1.51,1.63a.29.29,0,0,1-.11.09.14.14,0,0,1-.11,0l-1.5-.54h-.07" fill="#00a2fd"/>
              <path d="M45.11,24.63s0,0-.06,0l-.89-.32s-.07,0,0-.1l1-2.17,0-.07s0,.05.07.07l.8,1.27c.05.08.14.15.12.24s-.14.17-.21.25l-.71.77-.07.06m0-3.42c-.48,1.11-1,2.2-1.44,3.29,0,.08,0,.09,0,.11l1.33.47a.08.08,0,0,0,.07,0s0,0,.06,0L46.5,23.6c.06-.07.08-.1,0-.17-.18-.27-.35-.55-.53-.83-.28-.46-.58-.91-.88-1.39" fill="#009ff9"/>
            </g>
          </g>
        </g>
      </g>
    </g>
  </g>
</svg>
