<svg id="Capa_1" data-name="Capa 1" xmlns="http://www.w3.org/2000/svg" xmlns:xlink="http://www.w3.org/1999/xlink" width="50" height="50" viewBox="0 0 50 50">
  <defs>
    <clipPath id="clip-path">
      <polygon points="24.04 49.76 1.25 39.47 1.41 9.17 24.2 19.46 24.04 49.76" fill="none"/>
    </clipPath>
    <clipPath id="clip-path-2">
      <polygon points="24.2 19.46 1.41 9.17 25.96 0.24 48.75 10.53 24.2 19.46" fill="none"/>
    </clipPath>
    <clipPath id="clip-path-3">
      <polygon points="48.75 10.53 48.59 40.83 24.04 49.76 24.2 19.46 48.75 10.53" fill="none"/>
    </clipPath>
  </defs>
  <g id="Figment_lido">
    <g style="isolation: isolate">
      <g>
        <polygon points="24.04 49.76 1.25 39.47 1.41 9.17 24.2 19.46 24.04 49.76" fill="#c99876"/>
        <g style="isolation: isolate">
          <g clip-path="url(#clip-path)">
            <g>
              <path d="M7.76,26.15c-.08,0-.14,0-.21.14-1.18,2.2-1.31,4.95-.24,8.22,1.14,3.43,3,5.68,5.42,6.9.27.09.55.19.83.26C17.94,42.85,20.3,37,17.93,30.9c-.08-.2-.14-.32-.23-.36a.31.31,0,0,0-.21,0c-1.47.55-2.95,1.05-4.42,1.59a.44.44,0,0,1-.34,0,.82.82,0,0,1-.31-.27C10.94,30,9.44,28.19,8,26.34a.55.55,0,0,0-.2-.19" fill="#00a0fe"/>
              <path d="M12.73,28.66a.69.69,0,0,1-.17-.15c-.87-1.1-1.76-2.18-2.63-3.27-.13-.14-.2-.23-.1-.4.93-1.56,1.85-3.13,2.78-4.7l.1-.15a.86.86,0,0,1,.2.39q1.2,3.07,2.39,6.16a3.4,3.4,0,0,1,.37,1.07c-.05.23-.41.22-.64.3L13,28.65a.31.31,0,0,1-.23,0m0-11.13C11.3,20,9.91,22.32,8.51,24.67c-.11.19,0,.3.1.46,1.32,1.61,2.62,3.22,3.93,4.84a.63.63,0,0,0,.2.18.23.23,0,0,0,.2,0c1.29-.47,2.59-.92,3.89-1.37.2-.06.23-.16.1-.48-.54-1.34-1-2.69-1.57-4-.87-2.22-1.73-4.43-2.62-6.74" fill="#00a0fe"/>
            </g>
          </g>
        </g>
      </g>
      <g>
        <polygon points="24.2 19.46 1.41 9.17 25.96 0.24 48.75 10.53 24.2 19.46" fill="#dca782"/>
        <g style="isolation: isolate">
          <g clip-path="url(#clip-path-2)">
            <g>
              <path d="M18.78,11.47c-.08,0-.1.07-.06.16.7,1.37,2.62,2.35,5.85,2.85a19.69,19.69,0,0,0,9.27-.68l.84-.36c4.27-2,1.84-5.23-4.5-6a1,1,0,0,0-.44,0,.35.35,0,0,0-.15.12c-.75,1-1.54,2-2.29,3a.51.51,0,0,1-.26.18,1.38,1.38,0,0,1-.44.08l-7.52.61a.91.91,0,0,0-.3.05" fill="#00a0fe"/>
              <path d="M24.49,9.58l-.24,0L19.8,10c-.2,0-.33,0-.37-.08-.42-1-.85-2.05-1.28-3.08l0-.1a1.26,1.26,0,0,1,.44,0l6.38.74A4.11,4.11,0,0,1,26,7.62c.13.1-.16.3-.28.45-.35.46-.72.92-1.06,1.38a.42.42,0,0,1-.18.13M16.33,5.89c.67,1.58,1.32,3.13,2,4.67.06.13.2.12.42.1l6.61-.54a1.43,1.43,0,0,0,.28,0,.38.38,0,0,0,.16-.11c.66-.86,1.34-1.73,2-2.59.11-.12.06-.17-.27-.21l-4.19-.47-7-.8" fill="#00a0fe"/>
            </g>
          </g>
        </g>
      </g>
      <g>
        <polygon points="48.75 10.53 48.59 40.83 24.04 49.76 24.2 19.46 48.75 10.53" fill="#e1aa85"/>
        <g style="isolation: isolate">
          <g clip-path="url(#clip-path-3)">
            <g>
              <path d="M30.93,31c-.09,0-.15.12-.23.32-1.32,3.18-1.47,6-.31,8.4s3.28,3.14,5.94,2.33c.3-.14.61-.28.92-.44,4.83-2.51,7.47-10.31,4.88-14.42-.08-.14-.15-.2-.25-.17a.65.65,0,0,0-.23.19C40,29,38.38,30.75,36.76,32.52a1,1,0,0,1-.38.29.5.5,0,0,1-.34,0c-1.62-.61-3.26-1.17-4.89-1.77a.35.35,0,0,0-.22,0" fill="#00a0fe"/>
              <path d="M36.41,29.33a.25.25,0,0,1-.19,0l-2.89-1c-.14,0-.22-.06-.11-.32q1.56-3.51,3.1-7l.11-.23c.14,0,.17.14.22.22l2.61,4.13c.15.25.45.5.4.77s-.46.56-.71.83l-2.29,2.48a.7.7,0,0,1-.25.2m.06-11.11c-1.59,3.63-3.14,7.16-4.7,10.68-.13.28,0,.32.11.37l4.31,1.54a.33.33,0,0,0,.22,0,.58.58,0,0,0,.22-.16c1.43-1.56,2.87-3.11,4.3-4.65.22-.23.25-.34.11-.56-.58-.88-1.14-1.8-1.71-2.7-.95-1.49-1.88-3-2.86-4.52" fill="#00a0fe"/>
            </g>
          </g>
        </g>
      </g>
    </g>
  </g>
</svg>
