<svg id="Capa_1" data-name="Capa 1" xmlns="http://www.w3.org/2000/svg" xmlns:xlink="http://www.w3.org/1999/xlink" width="50" height="50" viewBox="0 0 50 50">
  <defs>
    <clipPath id="clip-path">
      <polygon points="24.04 49.76 1.25 39.47 1.41 9.17 24.2 19.46 24.04 49.76" fill="none"/>
    </clipPath>
    <clipPath id="clip-path-2">
      <polygon points="24.2 19.46 1.41 9.17 25.96 0.24 48.75 10.53 24.2 19.46" fill="none"/>
    </clipPath>
    <clipPath id="clip-path-3">
      <polygon points="48.75 10.53 48.59 40.83 24.04 49.76 24.2 19.46 48.75 10.53" fill="none"/>
    </clipPath>
  </defs>
  <g id="Figment_lido">
    <g style="isolation: isolate">
      <g>
        <polygon points="24.04 49.76 1.25 39.47 1.41 9.17 24.2 19.46 24.04 49.76" fill="#d6d6d6"/>
        <g style="isolation: isolate">
          <g clip-path="url(#clip-path)">
            <g>
              <path d="M7.72,27.07c-.14-.06-.16-.17-.16-.34,0-.42,0-.85,0-1.28,0-.22,0-.28.16-.22l0,0,.15.08.2.08.25.1.19.09a1.41,1.41,0,0,1,.63,1.18c0,.49-.26.76-.63.63l-.41-.17-.4-.16h0m0-3.84L7.1,23l-.66-.27-.38-.17h0c-.13-.06-.14,0-.14.18,0,2.86,0,5.73.07,8.59,0,.22,0,.29.19.35h0l.65.27q.27.1.54.24h0c.15.07.2,0,.19-.23,0-.93,0-1.85,0-2.78,0-.1,0-.23,0-.26a.2.2,0,0,1,.15,0,1,1,0,0,1,.45.52c.33,1.09.67,2.18,1,3.27,0,.14.07.28.21.34l.87.36.9.39c-.47-1.43-.92-2.79-1.38-4.15-.07-.2-.05-.26.07-.3a1.35,1.35,0,0,0,.84-1.09A4.49,4.49,0,0,0,8.93,23.8a12.72,12.72,0,0,0-1.18-.57" fill="#4b4b4b"/>
              <path d="M14.79,33.87c-.08,0-.1-.11-.1-.28,0-1,0-1.92,0-2.88s0-1.85,0-2.78c0-.19,0-.26.11-.23l.12.08a3.88,3.88,0,0,1,1.34,2.27c.33,1.48.29,2.74-.43,3.54a1,1,0,0,1-.89.3.16.16,0,0,1-.1,0m-1-.42-.12-.08a4.59,4.59,0,0,1-1.52-3.28,3.08,3.08,0,0,1,.72-2.62,1,1,0,0,1,.78-.21l.09,0c.09,0,.12.12.12.3,0,.94,0,1.89,0,2.84s0,1.87,0,2.81c0,.2,0,.26-.11.22m.6-7.34-.11,0-.09,0L14.13,26,14,26c-.13-.05-.19,0-.16.28s0,.31-.2.24h0a.47.47,0,0,0-.17,0c-1.4-.12-2.21,1.07-2.15,3.12a5.71,5.71,0,0,0,2.4,4.64c.12.08.2.16.17.32s.05.47.23.54l.11,0,.09,0,.09,0a.2.2,0,0,0,.09,0c.14.06.2,0,.17-.28s0-.3.19-.26c1.47.31,2.35-.76,2.34-2.82A5.8,5.8,0,0,0,14.81,27c-.11-.07-.19-.14-.16-.3s-.06-.46-.23-.54" fill="#4b4b4b"/>
              <path d="M10.67,35.29a.72.72,0,0,0-.5,0c-.36.1-.72.2-1.08.28a4,4,0,0,1-1.19.22c-.29.35-.74.27-1.11.37s-.51.07-.67.33a7.68,7.68,0,0,1,1,.55,3.22,3.22,0,0,0,.46.27,2,2,0,0,0,.71.16c.6,0,1.18.06,1.78.11a8.29,8.29,0,0,0,2.52.11c-.1-.35-.37-.49-.51-.8s-.57-.7-.84-1.06a1.55,1.55,0,0,0-.58-.51" fill="#4b4b4b"/>
              <path d="M15,38.21a.52.52,0,0,0-.27-.05l-.68.34a19.05,19.05,0,0,0,1.59,1.64,9.88,9.88,0,0,0,2.71,1.78,10,10,0,0,0-1.07-1.3c-.61-.7-1.27-1.31-1.84-2.09a1.53,1.53,0,0,0-.44-.32" fill="#4b4b4b"/>
              <path d="M6.43,34.86a.74.74,0,0,0-1,.29l0,0a1.15,1.15,0,0,1-1.25.24,1.73,1.73,0,0,0-1.16-.09l.14.06a9.13,9.13,0,0,0,1,.32c.5.16,1,.27,1.5.48a4.3,4.3,0,0,1,.52.27c.16-.26.42-.27.67-.33s.82,0,1.11-.37c-.3-.19-.59-.35-.88-.55a2.85,2.85,0,0,0-.59-.35" fill="#a2bfad"/>
              <path d="M15.93,38.52a.54.54,0,0,0-.48,0c.57.78,1.23,1.39,1.84,2.09a10,10,0,0,1,1.07,1.3c.45.21.91.52,1.36.72l.32.11a10.15,10.15,0,0,1-1.7-1.6c-.62-.71-1.23-1.45-1.85-2.17a1.65,1.65,0,0,0-.56-.46" fill="#a2bfad"/>
              <path d="M13,36.56a.21.21,0,0,0-.11,0,1.2,1.2,0,0,0-.78.31c.14.31.41.45.51.8a1,1,0,0,1,.51.08,2,2,0,0,1,.55.39c.13.13.25.31.4.37l.68-.34a1.49,1.49,0,0,0-.7-.89.49.49,0,0,0-.2-.05.54.54,0,0,1-.22,0,.86.86,0,0,1-.33-.29,1,1,0,0,0-.31-.33" fill="#a2bfad"/>
              <path d="M17.65,26.83s0,0-.07.05a3.23,3.23,0,0,0,0,2.57,3.46,3.46,0,0,0,1.69,2.14l.26.07c1.37.35,2.09-1.48,1.34-3.39,0-.06,0-.1-.07-.11h-.07l-1.37.51a.11.11,0,0,1-.11,0,.16.16,0,0,1-.09-.08l-1.4-1.71-.06-.06" fill="#00a2fd"/>
              <path d="M19.2,27.59s0,0-.06,0c-.27-.34-.55-.67-.83-1a.12.12,0,0,1,0-.13l.86-1.48,0-.05a.27.27,0,0,1,.06.12c.26.64.51,1.28.76,1.92a1,1,0,0,1,.12.33c0,.08-.13.07-.2.1l-.64.24s-.05,0-.07,0m0-3.48-1.29,2.26c0,.05,0,.09,0,.14L19.14,28a.13.13,0,0,0,.06,0,.08.08,0,0,0,.07,0l1.2-.45c.06,0,.07-.05,0-.15-.17-.41-.33-.83-.5-1.25-.27-.69-.54-1.38-.83-2.1" fill="#009ff9"/>
            </g>
          </g>
        </g>
      </g>
      <g>
        <polygon points="24.2 19.46 1.41 9.17 25.96 0.24 48.75 10.53 24.2 19.46" fill="#ebebeb"/>
        <g style="isolation: isolate">
          <g clip-path="url(#clip-path-2)">
            <g>
              <path d="M19.41,11.6a.45.45,0,0,1-.41,0c-.35-.16-.69-.32-1.06-.47-.18-.08-.19-.13,0-.19l.06,0,.2-.06.24-.09.31-.12.23-.08a2.4,2.4,0,0,1,1.53.06c.4.18.39.45-.05.62l-.5.19-.49.18h0m-3.09-1.46-.81.3-.8.3-.48.17h0c-.16.06-.09.1,0,.16l7.06,3.18a.51.51,0,0,0,.45,0h0l.81-.3.67-.24h0c.19-.07.18-.12,0-.21l-2.29-1c-.08,0-.22-.06-.17-.13a.26.26,0,0,1,.14-.08,1.89,1.89,0,0,1,.82-.08l3.56.61a.8.8,0,0,0,.46,0l1.07-.39L28,12l-4.61-.71c-.23,0-.26-.07-.19-.16a.58.58,0,0,0-.13-.92c-1-.81-3.44-1.08-5.24-.56-.53.15-1,.32-1.51.5" fill="#4b4b4b"/>
              <path d="M31.25,9.83a.35.35,0,0,1-.32,0L28.56,8.72c-.76-.34-1.51-.69-2.29-1-.16-.07-.19-.11-.08-.15l.17,0a7.08,7.08,0,0,1,3,0c1.5.35,2.49.85,2.49,1.59,0,.24-.2.46-.53.66l-.11.05m-1.2.44-.18,0a7.51,7.51,0,0,1-4-.3c-1-.39-1.63-.85-1.49-1.43A1,1,0,0,1,24.87,8L25,8a.39.39,0,0,1,.34,0c.77.36,1.56.71,2.34,1.06s1.53.7,2.31,1c.16.07.19.11.09.15M24.59,7.15l-.13,0-.1,0-.12,0-.11,0c-.17.06-.16.12.08.2s.21.14,0,.22h0a.69.69,0,0,0-.17.1c-1.35.81-1.1,1.75.63,2.49a9.7,9.7,0,0,0,5.91.27.51.51,0,0,1,.42,0,.64.64,0,0,0,.64.07l.13-.06.1,0,.12,0,.12,0c.17-.07.16-.14-.08-.22s-.24-.11-.05-.21c1.57-.78,1.47-1.72-.21-2.49a9.6,9.6,0,0,0-6.15-.37.47.47,0,0,1-.39,0,.64.64,0,0,0-.64-.06" fill="#4b4b4b"/>
              <path d="M28.74,12.89a1.14,1.14,0,0,0-.47.29c-.23.26-.47.51-.73.77a4.65,4.65,0,0,1-.88.81c0,.31-.44.55-.69.81s-.39.34-.32.54c.44-.14.86-.3,1.34-.41a6,6,0,0,0,.63-.19,3.45,3.45,0,0,0,.77-.37l1.67-1.05a13.19,13.19,0,0,0,2.33-1.5c-.37-.06-.73.05-1.1,0l-1.62.11a3.52,3.52,0,0,0-.93.17" fill="#4b4b4b"/>
              <path d="M35,11.33a.92.92,0,0,0-.28.15l-.33.54c1-.08,1.84-.22,2.75-.36a22.39,22.39,0,0,0,3.86-1,18.59,18.59,0,0,0-2,.16c-1.12.11-2.19.28-3.34.34a3.47,3.47,0,0,0-.65.15" fill="#4b4b4b"/>
              <path d="M24.62,15.32c-.5.18-.8.41-.69.74v0c-.08.32-.3.61-.92.85a2.77,2.77,0,0,0-1.11.68l.17-.06c.44-.17.79-.35,1.18-.51.57-.25,1.1-.51,1.72-.74.21-.07.44-.15.68-.21-.07-.2.15-.37.32-.54s.71-.5.69-.81c-.42.11-.81.23-1.23.33a6.15,6.15,0,0,0-.81.23" fill="#a2bfad"/>
              <path d="M36.05,10.88a.77.77,0,0,0-.42.3c1.15-.06,2.22-.23,3.34-.34a18.59,18.59,0,0,1,2-.16c.58-.2,1.24-.36,1.8-.57l.37-.15a21.76,21.76,0,0,1-2.81.43c-1.13.12-2.27.21-3.41.32a3.81,3.81,0,0,0-.88.17" fill="#a2bfad"/>
              <path d="M31.83,12l-.11.06c-.22.19-.42.38-.43.6.37,0,.73-.08,1.1,0a2,2,0,0,1,.52-.28,4.49,4.49,0,0,1,.8-.19,3.16,3.16,0,0,0,.66-.1l.33-.54a2.94,2.94,0,0,0-1.35.09,1.12,1.12,0,0,0-.22.1.78.78,0,0,1-.22.12,1.82,1.82,0,0,1-.53.09,2.23,2.23,0,0,0-.55.07" fill="#a2bfad"/>
              <path d="M28.05,5.44a0,0,0,0,0,0,.06c.25.48.92.83,2.06,1a6.84,6.84,0,0,0,3.25-.24l.29-.13c1.5-.7.65-1.83-1.57-2.09-.08,0-.12,0-.16,0a.07.07,0,0,0-.05,0l-.8,1-.1.07-.15,0-2.64.22h-.1" fill="#00a2fd"/>
              <path d="M30.05,4.78,30,4.8l-1.56.12c-.06,0-.11,0-.13,0-.14-.37-.3-.72-.44-1.09l0,0a.39.39,0,0,1,.16,0L30.21,4a1.41,1.41,0,0,1,.37.06c.05,0,0,.1-.09.15s-.26.32-.38.49l-.06,0M27.19,3.49c.23.55.46,1.09.68,1.64,0,0,.07,0,.15,0L30.33,5l.1,0a.09.09,0,0,0,.06,0L31.2,4s0-.06-.1-.08l-1.47-.16-2.44-.28" fill="#009ff9"/>
            </g>
          </g>
        </g>
      </g>
      <g>
        <polygon points="48.75 10.53 48.59 40.83 24.04 49.76 24.2 19.46 48.75 10.53" fill="#f0f0f0"/>
        <g style="isolation: isolate">
          <g clip-path="url(#clip-path-3)">
            <g>
              <path d="M31.22,31.13c-.16.06-.18,0-.17-.21,0-.45,0-.9,0-1.34,0-.22.05-.32.19-.37l.06,0,.17-.05.24-.09.28-.11.22-.07c.42-.11.72.19.71.69a1.33,1.33,0,0,1-.74,1.21l-.47.18-.46.17h0m.1-4.05-.76.28-.77.29-.44.16h0c-.15.05-.16.17-.16.31q0,4.48,0,9c0,.22.06.25.21.2h0l.76-.29.62-.22h0c.18-.06.23-.17.23-.41,0-1,0-1.93,0-2.9,0-.1-.05-.21.05-.31a.44.44,0,0,1,.18-.12.4.4,0,0,1,.51.15c.37.85.75,1.71,1.13,2.56,0,.11.07.24.23.18l1-.38,1-.37L33.64,32c-.08-.15-.06-.23.09-.38a4,4,0,0,0,1-1.88c.42-2-.52-3.43-2-3.08a10,10,0,0,0-1.35.42" fill="#4b4b4b"/>
              <path d="M39.35,32.13c-.09,0-.12,0-.12-.21,0-1,0-2,0-3s0-1.94,0-2.9c0-.2,0-.29.13-.33l.14,0a1.44,1.44,0,0,1,1.52,1.22A5,5,0,0,1,40.5,31a3.24,3.24,0,0,1-1,1.1l-.11.07m-1.12.4-.14,0c-1,0-1.64-.76-1.72-2.13a5.27,5.27,0,0,1,.87-3.37,3.28,3.28,0,0,1,.91-.91l.11-.06c.1,0,.13,0,.13.22,0,1,0,2,0,3s0,2,0,2.93c0,.21,0,.29-.12.33M39,24.3l-.13.06-.1.05-.1,0-.1,0c-.16.06-.23.19-.19.43a.35.35,0,0,1-.24.43h0a1.06,1.06,0,0,0-.2.12A6,6,0,0,0,35.4,30.6c0,2,1.05,3,2.72,2.78.14,0,.23,0,.2.19-.06.37,0,.45.25.37l.13-.06.1,0a.23.23,0,0,1,.11,0l.1,0c.17-.06.24-.2.21-.45a.37.37,0,0,1,.22-.44,5.64,5.64,0,0,0,2.76-5c0-2.19-1-3.34-2.74-3.06-.12,0-.21,0-.18-.18.06-.36-.05-.43-.26-.36" fill="#4b4b4b"/>
              <path d="M34.54,37.2a1.59,1.59,0,0,0-.58.41c-.42.42-.84.83-1.27,1.23a11.66,11.66,0,0,1-1.38,1.27A6,6,0,0,1,30,41.46a3.12,3.12,0,0,0-.78.93,6.62,6.62,0,0,1,1.16-.3,2.36,2.36,0,0,0,.54-.12,3.5,3.5,0,0,0,.82-.45c.7-.47,1.38-1,2.07-1.43A19.91,19.91,0,0,0,36.75,38c-.11-.28-.42-.2-.58-.39-.33-.13-.66-.24-1-.39a.84.84,0,0,0-.66,0" fill="#4b4b4b"/>
              <path d="M39.54,36.49a.81.81,0,0,0-.31.19l-.8.94a8.57,8.57,0,0,0,1.83.34,7.86,7.86,0,0,0,3.12-.49A3.92,3.92,0,0,0,42.15,37a12.31,12.31,0,0,1-2.1-.59,1.11,1.11,0,0,0-.51.05" fill="#4b4b4b"/>
              <path d="M29.61,40.44a2.12,2.12,0,0,0-1.21,1.21l0,.07a3.39,3.39,0,0,1-1.46,1.34,3.88,3.88,0,0,0-1.35.91l.16,0c.41-.15.8-.38,1.19-.56.58-.27,1.15-.59,1.73-.8a4.5,4.5,0,0,1,.6-.17,3.12,3.12,0,0,1,.78-.93,6,6,0,0,0,1.3-1.35c-.34.06-.68.14-1,.18a3.18,3.18,0,0,0-.68.15" fill="#a2bfad"/>
              <path d="M40.61,36a1.41,1.41,0,0,0-.56.43,12.31,12.31,0,0,0,2.1.59,3.92,3.92,0,0,1,1.23.44c.53-.17,1-.24,1.58-.43l.36-.16a5,5,0,0,1-1.94-.21c-.72-.2-1.42-.44-2.12-.66a1.11,1.11,0,0,0-.65,0" fill="#a2bfad"/>
              <path d="M37.2,36.53a.25.25,0,0,0-.12.07,4.28,4.28,0,0,0-.91,1c.16.19.47.11.58.39a1.88,1.88,0,0,1,.59-.36,1.25,1.25,0,0,1,.63-.07c.15,0,.29.11.46,0l.8-.94a.63.63,0,0,0-.8-.34.94.94,0,0,0-.24.13.71.71,0,0,1-.25.14.43.43,0,0,1-.37,0,.44.44,0,0,0-.37-.07" fill="#a2bfad"/>
              <path d="M42.76,22.24s0,.05-.07.11a3.29,3.29,0,0,0-.1,2.75,1.46,1.46,0,0,0,1.94.77l.3-.15c1.59-.82,2.45-3.38,1.61-4.73,0,0,0-.06-.09,0a.22.22,0,0,0-.07.07l-1.61,1.73a.24.24,0,0,1-.12.09.11.11,0,0,1-.11,0l-1.6-.58h-.08" fill="#00a2fd"/>
              <path d="M44.56,21.7H44.5l-1-.34s-.07,0,0-.1c.35-.77.68-1.54,1-2.31l0-.07s0,.05.07.07l.85,1.35c0,.08.15.16.13.25s-.15.19-.23.28l-.75.81s0,.06-.08.07m0-3.64L43,21.56c0,.08,0,.1,0,.11l1.41.51a.09.09,0,0,0,.07,0,.19.19,0,0,0,.07-.06L46,20.61c.07-.08.08-.12,0-.19l-.57-.88c-.3-.49-.61-1-.93-1.48" fill="#009ff9"/>
            </g>
          </g>
        </g>
      </g>
    </g>
  </g>
</svg>
