<svg id="Capa_1" data-name="Capa 1" xmlns="http://www.w3.org/2000/svg" xmlns:xlink="http://www.w3.org/1999/xlink" width="50" height="50" viewBox="0 0 50 50">
  <defs>
    <clipPath id="clip-path">
      <polygon points="24.04 49.76 1.26 39.47 1.42 9.17 24.2 19.46 24.04 49.76" fill="none"/>
    </clipPath>
    <clipPath id="clip-path-2">
      <polygon points="24.2 19.46 1.42 9.17 25.96 0.24 48.75 10.53 24.2 19.46" fill="none"/>
    </clipPath>
    <clipPath id="clip-path-3">
      <polygon points="48.75 10.53 48.59 40.82 24.04 49.76 24.2 19.46 48.75 10.53" fill="none"/>
    </clipPath>
  </defs>
  <g id="Figment_lido">
    <g style="isolation: isolate">
      <g>
        <polygon points="24.04 49.76 1.26 39.47 1.42 9.17 24.2 19.46 24.04 49.76" fill="#102135"/>
        <g style="isolation: isolate">
          <g clip-path="url(#clip-path)">
            <g>
              <path d="M12.89,18l-.13-.06v.17a.56.56,0,0,1,.08.32c0,.08,0,.16,0,.23,0,3.44-.06,6.87-.1,10.31.14.06.22-.06.3-.14l2.49-2.4a2.44,2.44,0,0,0-.07-.39c-.49-1.55-1-3.09-1.49-4.64-.35-1.14-.76-2.26-1.06-3.4" fill="#afa0d8"/>
              <path d="M15.51,31c-.44.07-.87.15-1.31.24C15.44,33,16.46,35,17.6,36.83c.1.17.3.26.31.52a14.06,14.06,0,0,0,1.7,1.88,24.85,24.85,0,0,0-1-3.14h0a.55.55,0,0,1-.26-.26c-.63-1.27-1.42-2.37-2.08-3.62-.23-.42-.5-.83-.75-1.24" fill="#b4a6da"/>
              <path d="M12.61,33.71a.16.16,0,0,0-.09,0c-.09,0-.16,0-.21.14-.39.91-.8,1.81-1.2,2.72-.15.34-.32.67-.48,1a1.74,1.74,0,0,0-.26.85v.07c.6.71,1.21,1.38,1.78,2.12a1.47,1.47,0,0,0,.45.41.56.56,0,0,0,.5,0l0-.23a2.3,2.3,0,0,1-.43-1.53c0-.2,0-.4,0-.59v-4.2c0-.22,0-.44,0-.65l-.06,0" fill="#6c608a"/>
              <path d="M12.75,18.08l-.84,1.76c.18.1.21.27.21.49q0,4.94-.1,9.87a2.83,2.83,0,0,1-.06.42,6.57,6.57,0,0,1,.6.75l.13.07c0-.31,0-.62,0-.93V28.94c0-3.44.07-6.87.1-10.31,0-.07,0-.15,0-.23a.56.56,0,0,0-.08-.32" fill="#a192c9"/>
              <path d="M15.89,27.51c-1,1-2.05,1.9-3,2.92,0,.06-.09.1-.16.08,0,.31,0,.62,0,.93h0c.56.09,1-.25,1.51-.23s.87-.17,1.31-.24a2.65,2.65,0,0,1,1.43-.18c-.32-1.1-.68-2.18-1.05-3.27" fill="#bcb0dd"/>
              <path d="M8.56,26.83a7.19,7.19,0,0,0-.78,1.65,1,1,0,0,0,.34.42l2.53,2.32a.76.76,0,0,1,.34.57.13.13,0,0,1,0,.06l1-.21c.18-.14.54.14.61-.27a6.57,6.57,0,0,0-.6-.75,6,6,0,0,1-.75-.89c-.28-.14-.46-.5-.68-.77a8.55,8.55,0,0,1-1-1.12,11.44,11.44,0,0,0-.94-1" fill="#7d719f"/>
              <path d="M12.69,31.43h0l-.13-.07c-.07.41-.43.13-.61.27,0,.27-.19.34-.28.5-.54,1.2-1.08,2.39-1.63,3.58-.15.32-.28.67-.46,1a1.15,1.15,0,0,0-.15.61v.05a8.48,8.48,0,0,0,.94,1.1v-.07a1.74,1.74,0,0,1,.26-.85c.16-.32.33-.65.48-1,.4-.91.81-1.81,1.2-2.72,0-.12.12-.16.21-.14a.16.16,0,0,1,.09,0l.06,0c0-.09,0-.19,0-.28v-.92c0-.3,0-.62,0-.93l0-.18" fill="#6f638f"/>
              <path d="M11.91,19.84a16.15,16.15,0,0,0-.81,1.67.3.3,0,0,1,.19.31c0,.08,0,.17,0,.25,0,2.55,0,5.11-.07,7.66a6,6,0,0,0,.75.89A2.83,2.83,0,0,0,12,30.2q.06-4.93.1-9.87c0-.22,0-.39-.21-.49" fill="#998bc0"/>
              <path d="M7.36,29.3c-.57,1.14-1.12,2.28-1.69,3.41a.3.3,0,0,0,.1.4c0-.4.33-.22.51-.27.58-.15,1.18-.27,1.78-.39a.74.74,0,0,1,.25,0,3,3,0,0,1,1.09-.31A1.19,1.19,0,0,0,9.89,32a.77.77,0,0,0-.33-.54L7.62,29.68a.66.66,0,0,1-.26-.38" fill="#887bad"/>
              <path d="M12,31.64l-1,.21c-.22.06-.45.1-.68.15,0,.35-.21.44-.31.67-.47,1-1,2.09-1.42,3.13a1,1,0,0,0-.09.39v.06a8.54,8.54,0,0,0,.95,1.1V37.3a1.15,1.15,0,0,1,.15-.61c.18-.3.31-.65.46-1,.55-1.19,1.09-2.38,1.63-3.58.09-.16.26-.23.28-.5" fill="#736793"/>
              <path d="M10.41,23h0c-.66,1.21-1.27,2.47-1.83,3.79a11.44,11.44,0,0,1,.94,1,8.55,8.55,0,0,0,1,1.12l.05-5.38c0-.07,0-.14,0-.21a.32.32,0,0,0-.18-.33" fill="#887bad"/>
              <path d="M12.67,34.39v1.66l2.06,2.82c.25.34.47.69.72,1a.73.73,0,0,1,.18.41v.07a4.32,4.32,0,0,0,1-.21v-.08a.79.79,0,0,0-.2-.54l-3.61-5.07-.1-.07" fill="#8276a6"/>
              <path d="M10.3,32H9.89a1.19,1.19,0,0,1-.49.17,3,3,0,0,0-1.09.31,4.58,4.58,0,0,1-.48,1.24,4.3,4.3,0,0,1-.3.65.88.88,0,0,0-.1.4,1.15,1.15,0,0,0,0,.31,9.66,9.66,0,0,0,1,1.17v-.06a1,1,0,0,1,.09-.39c.47-1,.95-2.08,1.42-3.13.1-.23.32-.32.31-.67" fill="#786c99"/>
              <path d="M11.1,21.51A9.77,9.77,0,0,0,10.39,23h0a.32.32,0,0,1,.18.33c0,.07,0,.14,0,.21L10.53,29c.22.27.4.63.68.77,0-2.55,0-5.11.07-7.66,0-.08,0-.17,0-.25a.3.3,0,0,0-.19-.31" fill="#9083b7"/>
              <path d="M12.75,31.63l0,0c0,.31,0,.63,0,.93a13,13,0,0,1,1.38,1.77L17,38.42l.72,1a.76.76,0,0,1,.15.41c.21,0,.33-.2.55-.12a.76.76,0,0,0-.18-.44C17,37.5,15.69,35.75,14.43,34a6.85,6.85,0,0,1-1.12-1.77,2.24,2.24,0,0,0-.56-.55" fill="#9889b9"/>
              <path d="M12.69,32.54v.92a10.27,10.27,0,0,1,1.11,1.45c1.09,1.5,2.17,3,3.25,4.52a.94.94,0,0,1,.23.53v0a1.58,1.58,0,0,0,.61-.16.76.76,0,0,0-.15-.41l-.72-1-2.94-4.11a13,13,0,0,0-1.38-1.77" fill="#9083b7"/>
              <path d="M12.68,33.46c0,.09,0,.19,0,.28s0,.43,0,.65l.1.07,3.61,5.07a.79.79,0,0,1,.2.54v.08l.69-.15v0a.94.94,0,0,0-.23-.53c-1.08-1.5-2.16-3-3.25-4.52a10.27,10.27,0,0,0-1.11-1.45" fill="#887bad"/>
              <path d="M16.94,30.78a2.65,2.65,0,0,0-1.43.18c.25.41.52.82.75,1.24.66,1.25,1.45,2.35,2.08,3.62a.55.55,0,0,0,.26.26h0c-.5-1.78-1.09-3.55-1.68-5.31" fill="#b6a9db"/>
              <path d="M15.51,26.4,13,28.8c-.08.08-.16.2-.3.14v1.57c.07,0,.11,0,.16-.08,1-1,2-2,3-2.92a4.29,4.29,0,0,0-.38-1.11" fill="#b6a9db"/>
              <path d="M13.31,32.18A6.85,6.85,0,0,0,14.43,34c1.26,1.8,2.54,3.55,3.82,5.33a.76.76,0,0,1,.18.44c.18,0,.39,0,.54-.13a3.36,3.36,0,0,0-.62-1c-.52-.75-1-1.47-1.57-2.21-.1-.14-.24-.26-.23-.47l-3.09-3.58-.15-.13" fill="#998bc0"/>
              <path d="M7.78,28.48a2.12,2.12,0,0,0-.42.82.66.66,0,0,0,.26.38l1.94,1.78a.77.77,0,0,1,.33.54h.41c.23-.05.46-.09.68-.15a.13.13,0,0,0,0-.06.76.76,0,0,0-.34-.57L8.12,28.9a1,1,0,0,1-.34-.42" fill="#8276a6"/>
              <path d="M8.31,32.48a.74.74,0,0,0-.25,0c-.6.12-1.2.24-1.78.39-.18,0-.48-.13-.51.27.55.68,1.11,1.36,1.7,2a1.15,1.15,0,0,1,0-.31.88.88,0,0,1,.1-.4,4.3,4.3,0,0,0,.3-.65,4.58,4.58,0,0,0,.48-1.24" fill="#7d719f"/>
              <path d="M12.65,36.7v.93c.66.81,1.25,1.76,1.89,2.6a.37.37,0,0,1,.07.25v.08a.94.94,0,0,0,.7-.13,8.21,8.21,0,0,0-1-1.42c-.57-.77-1.08-1.61-1.69-2.31" fill="#786c99"/>
              <path d="M12.64,38.37v.22c0,.19,0,.39,0,.59a2.3,2.3,0,0,0,.43,1.53l0,.23a2.53,2.53,0,0,0,1.08-.3.63.63,0,0,0-.13-.36,22,22,0,0,0-1.41-1.91" fill="#6f638f"/>
              <path d="M12.66,36.05v.65c.61.7,1.12,1.54,1.69,2.31a8.21,8.21,0,0,1,1,1.42c.08-.09.24.06.32-.07v-.07a.73.73,0,0,0-.18-.41c-.25-.32-.47-.67-.72-1l-2.06-2.82" fill="#7d719f"/>
              <path d="M16.55,35.89c0,.21.13.33.23.47.53.74,1,1.46,1.57,2.21a3.36,3.36,0,0,1,.62,1,1.49,1.49,0,0,0,.63-.14v-.22h0a14.06,14.06,0,0,1-1.7-1.88,11.11,11.11,0,0,1-.93-1,2.37,2.37,0,0,0-.43-.46" fill="#a192c9"/>
              <path d="M12.64,37.63v.74a22,22,0,0,1,1.41,1.91.63.63,0,0,1,.13.36l0,0c.16.07.25-.08.39-.1v-.08a.37.37,0,0,0-.07-.25c-.64-.84-1.23-1.79-1.89-2.6" fill="#736793"/>
              <path d="M19.61,39.23v.22s.11,0,.1-.09l-.09-.13" fill="#b4a6da"/>
              <path d="M14.2,31.2c-.52,0-.95.32-1.51.23l0,.18,0,0a2.24,2.24,0,0,1,.56.55l.15.13,3.09,3.58a2.37,2.37,0,0,1,.43.46,11.11,11.11,0,0,0,.93,1c0-.26-.21-.35-.31-.52C16.46,35,15.44,33,14.2,31.2" fill="#afa0d8"/>
            </g>
          </g>
        </g>
      </g>
      <g>
        <polygon points="24.2 19.46 1.42 9.17 25.96 0.24 48.75 10.53 24.2 19.46" fill="#12243a"/>
        <g style="isolation: isolate">
          <g clip-path="url(#clip-path-2)">
            <g>
              <path d="M16.66,6l-.16.06.12.06a.81.81,0,0,1,.31.06l.16.09,7.6,3.42c.15-.06.12-.14.12-.21,0-.72.07-1.44.1-2.16a3.37,3.37,0,0,0-.34-.09L20,6.53c-1.11-.18-2.26-.32-3.33-.54" fill="#afa0d8"/>
              <path d="M28.31,8.81l-.82.79c2.25-.1,4.52,0,6.77,0a1.62,1.62,0,0,1,.62,0c.9-.11,1.86-.14,2.7-.33-1-.21-2-.36-3.09-.48h0a1,1,0,0,1-.39.06c-1.42-.07-2.85,0-4.28,0-.49,0-1,0-1.49,0" fill="#b4a6da"/>
              <path d="M28.15,11.31a.19.19,0,0,0-.09,0c-.08,0-.11.09-.06.16.38.51.75,1,1.11,1.55.14.19.26.39.38.59a.76.76,0,0,0,.43.42l.06,0c1-.1,1.93-.22,2.92-.3a2.41,2.41,0,0,0,.65-.11.55.55,0,0,0,.35-.29l-.21,0a2.81,2.81,0,0,1-1.47-.27l-.42-.2-.17-.07-.54-.25-.69-.31-.47-.21L28.7,11.5l-.48-.22-.07,0" fill="#6c608a"/>
              <path d="M16.62,6.11l.68,1a.66.66,0,0,1,.52,0l7.27,3.29a1.81,1.81,0,0,1,.27.18,8.24,8.24,0,0,1,1-.09l.15-.05-.68-.32-1.15-.52-7.6-3.42-.16-.09a.81.81,0,0,0-.31-.06" fill="#a192c9"/>
              <path d="M26,7.47a25.52,25.52,0,0,0-.12,2.62c0,.05,0,.08-.07.11l.68.32h0c.49-.27.56-.62,1-.91l.82-.79a2.76,2.76,0,0,1,1-.85c-1.05-.18-2.14-.34-3.23-.49" fill="#bcb0dd"/>
              <path d="M20,11.29a2.78,2.78,0,0,0,.64,1,1.54,1.54,0,0,0,.57,0l3.65-.64a1.21,1.21,0,0,1,.68,0l0,0,.58-.59c0-.15.51-.26.26-.43a8.24,8.24,0,0,0-1,.09,10,10,0,0,1-1.24.11A4.65,4.65,0,0,1,23,10.9a15.93,15.93,0,0,1-1.62.2c-.49.06-1,.09-1.46.19" fill="#7d719f"/>
              <path d="M26.52,10.51h0l-.15.05c.25.17-.23.28-.26.43.18.09.1.21.16.31l1.42,2.07a4.7,4.7,0,0,1,.38.57.57.57,0,0,0,.33.29l0,0c.53,0,1-.1,1.54-.16l-.06,0a.76.76,0,0,1-.43-.42c-.12-.2-.24-.4-.38-.59-.36-.52-.73-1-1.11-1.55-.05-.07,0-.12.06-.16a.19.19,0,0,1,.09,0l.07,0-.2-.09-.68-.31-.67-.32-.15-.05" fill="#6f638f"/>
              <path d="M17.3,7.15a6.23,6.23,0,0,0,.62,1,.49.49,0,0,1,.38,0l.17.09,5.65,2.54a10,10,0,0,0,1.24-.11,1.81,1.81,0,0,0-.27-.18L17.82,7.19a.66.66,0,0,0-.52,0" fill="#998bc0"/>
              <path d="M20.87,12.76c.42.68.85,1.36,1.26,2,.06.08.16.13.37.08-.27-.15.09-.25.19-.37.32-.37.69-.74,1.06-1.1a1,1,0,0,1,.22-.14c.06-.25.39-.46.6-.7a1.12,1.12,0,0,0,.24-.32,1.2,1.2,0,0,0-.65,0l-2.81.49a1.28,1.28,0,0,1-.48,0" fill="#887bad"/>
              <path d="M26.11,11l-.58.59c-.13.15-.27.29-.41.43.26.11.17.26.26.39.43.6.84,1.21,1.25,1.81a.51.51,0,0,0,.22.18l0,0c.53,0,1.05-.09,1.54-.16l0,0a.57.57,0,0,1-.33-.29,4.7,4.7,0,0,0-.38-.57l-1.42-2.07c-.06-.1,0-.22-.16-.31" fill="#736793"/>
              <path d="M18.54,9h0A19.2,19.2,0,0,0,20,11.29c.47-.1,1-.13,1.46-.19A15.93,15.93,0,0,0,23,10.9l-4-1.79L18.93,9a.47.47,0,0,0-.39,0" fill="#887bad"/>
              <path d="M28.7,11.5l1.23.55,3.66-.22c.44,0,.87,0,1.3-.06a1.08,1.08,0,0,1,.45,0l0,0a4,4,0,0,0,.58-.6l-.06,0a1.13,1.13,0,0,0-.55-.07l-6.52.33-.13,0" fill="#8276a6"/>
              <path d="M25.12,12l-.31.23a1.12,1.12,0,0,1-.24.32c-.21.24-.54.45-.6.7.34.21.36.45.55.68a1.78,1.78,0,0,1,.26.37.42.42,0,0,0,.22.19,1.15,1.15,0,0,0,.26.08c.56,0,1.12-.09,1.64-.17l0,0a.51.51,0,0,1-.22-.18c-.41-.6-.82-1.21-1.25-1.81-.09-.13,0-.28-.26-.39" fill="#786c99"/>
              <path d="M17.92,8.14a4.41,4.41,0,0,0,.6.9h0a.47.47,0,0,1,.39,0l.14.08,4,1.79a4.65,4.65,0,0,0,1.09-.13L18.47,8.23l-.17-.09a.49.49,0,0,0-.38,0" fill="#9083b7"/>
              <path d="M26.71,10.55h0l.67.32a22.77,22.77,0,0,1,2.36-.18l5.3-.28,1.3-.06a.78.78,0,0,1,.41.05c.21-.1.11-.25.33-.35a1.16,1.16,0,0,0-.47,0c-2.29.13-4.56.26-6.86.36a10.46,10.46,0,0,1-2.17,0,3.44,3.44,0,0,0-.83.13" fill="#9889b9"/>
              <path d="M27.34,10.88l.68.31a15.08,15.08,0,0,1,1.92-.14l5.83-.31a1.49,1.49,0,0,1,.57,0l0,0a1.21,1.21,0,0,0,.34-.39.78.78,0,0,0-.41-.05l-1.3.06-5.3.28a22.77,22.77,0,0,0-2.36.18" fill="#9083b7"/>
              <path d="M28,11.19l.2.09.48.22.13,0,6.52-.33a1.13,1.13,0,0,1,.55.07l.06,0,.41-.43,0,0a1.49,1.49,0,0,0-.57,0l-5.83.31a15.08,15.08,0,0,0-1.92.14" fill="#887bad"/>
              <path d="M29.26,8a2.76,2.76,0,0,0-1,.85c.49,0,1,0,1.49,0,1.43,0,2.86,0,4.28,0a1,1,0,0,0,.39-.06h0C32.78,8.46,31,8.21,29.26,8" fill="#b6a9db"/>
              <path d="M24.91,7.31c0,.72-.06,1.44-.1,2.16,0,.07,0,.15-.12.21l1.15.52c.08,0,.07-.06.07-.11A25.52,25.52,0,0,1,26,7.47a5.49,5.49,0,0,0-1.12-.16" fill="#b6a9db"/>
              <path d="M27.54,10.42a10.46,10.46,0,0,0,2.17,0c2.3-.1,4.57-.23,6.86-.36a1.16,1.16,0,0,1,.47,0c.11-.11.3-.21.32-.34a6.31,6.31,0,0,0-1.23,0c-1,0-1.89.1-2.84.15a1.27,1.27,0,0,1-.52,0l-5,.53-.22,0" fill="#998bc0"/>
              <path d="M20.59,12.25c0,.18.15.34.28.51a1.28,1.28,0,0,0,.48,0l2.81-.49a1.2,1.2,0,0,1,.65,0l.31-.23c.14-.14.28-.28.41-.43l0,0a1.21,1.21,0,0,0-.68,0l-3.65.64a1.54,1.54,0,0,1-.57,0" fill="#8276a6"/>
              <path d="M24,13.27a1,1,0,0,0-.22.14c-.37.36-.74.73-1.06,1.1-.1.12-.46.22-.19.37.93-.08,1.86-.16,2.76-.29a1.15,1.15,0,0,1-.26-.08.42.42,0,0,1-.22-.19,1.78,1.78,0,0,0-.26-.37c-.19-.23-.21-.47-.55-.68" fill="#7d719f"/>
              <path d="M30.4,12.26l.69.31c1.11-.1,2.26-.11,3.37-.19a.39.39,0,0,1,.23,0l.06,0a.87.87,0,0,0,.44-.43,11.64,11.64,0,0,0-1.78.06c-1,.06-2,.07-3,.17" fill="#786c99"/>
              <path d="M31.63,12.82l.17.07.42.2a2.81,2.81,0,0,0,1.47.27l.21,0a2,2,0,0,0,.6-.69.88.88,0,0,0-.37-.05c-.84,0-1.69.07-2.5.16" fill="#6f638f"/>
              <path d="M29.93,12.05l.47.21c1-.1,2-.11,3-.17A11.64,11.64,0,0,1,35.19,12c0-.08.24-.12.19-.2l0,0a1.08,1.08,0,0,0-.45,0c-.43,0-.86,0-1.3.06l-3.66.22" fill="#7d719f"/>
              <path d="M32.77,9.85a1.27,1.27,0,0,0,.52,0c1-.05,1.89-.11,2.84-.15a6.31,6.31,0,0,1,1.23,0,1.39,1.39,0,0,0,.38-.39l-.16-.07h0c-.84.19-1.8.22-2.7.33-.45.09-1,.11-1.45.18a4.57,4.57,0,0,0-.66.09" fill="#a192c9"/>
              <path d="M31.09,12.57l.54.25c.81-.09,1.66-.12,2.5-.16a.88.88,0,0,1,.37.05h0c.18-.07.14-.17.22-.24l-.06,0a.39.39,0,0,0-.23,0c-1.11.08-2.26.09-3.37.19" fill="#736793"/>
              <path d="M37.58,9.26l.16.07s.09-.06,0-.08h-.16" fill="#b4a6da"/>
              <path d="M27.49,9.6c-.41.29-.48.64-1,.91l.15.05h0a3.44,3.44,0,0,1,.83-.13l.22,0,5-.53a4.57,4.57,0,0,1,.66-.09c.48-.07,1-.09,1.45-.18a1.62,1.62,0,0,0-.62,0c-2.25,0-4.52-.08-6.77,0" fill="#afa0d8"/>
            </g>
          </g>
        </g>
      </g>
      <g>
        <polygon points="48.75 10.53 48.59 40.82 24.04 49.76 24.2 19.46 48.75 10.53" fill="#12253b"/>
        <g style="isolation: isolate">
          <g clip-path="url(#clip-path-3)">
            <g>
              <path d="M36.52,18.58l-.15.05v.18a.27.27,0,0,1,.09.25c0,.08,0,.17,0,.25q0,5.15,0,10.32c.15-.07.23-.24.33-.4.91-1.51,1.81-3,2.72-4.52a2.66,2.66,0,0,0-.08-.33c-.55-1.11-1.12-2.21-1.66-3.33-.39-.83-.85-1.59-1.18-2.47" fill="#afa0d8"/>
              <path d="M39.46,29.25c-.48.44-1,.9-1.43,1.35a29.55,29.55,0,0,1,3.75,2.69c.12.08.33,0,.35.25a5.59,5.59,0,0,0,1.88.4,10.54,10.54,0,0,0-1.1-2.26h0a.25.25,0,0,1-.28,0c-.7-.72-1.58-1.13-2.31-1.81a9,9,0,0,0-.83-.59" fill="#b4a6da"/>
              <path d="M36.29,34.46l-.11,0a.59.59,0,0,0-.23.32c-.42,1.24-.86,2.49-1.3,3.73-.16.47-.34.94-.53,1.41A3.15,3.15,0,0,0,33.84,41a.17.17,0,0,0,0,.07c.66.19,1.33.33,2,.57a.67.67,0,0,0,.5,0,1.3,1.3,0,0,0,.54-.46l0-.19c-.44-.18-.49-.65-.49-1.15,0-.2,0-.4,0-.6v-4.2c0-.22,0-.44,0-.65l-.06,0" fill="#6c608a"/>
              <path d="M36.36,18.81c-.31.82-.61,1.64-.91,2.47.2-.06.23.09.23.3l-.06,9.9a2.93,2.93,0,0,1-.07.48c.22.08.48.06.67.22l.14,0c0-.31,0-.63,0-.94V29.63q0-5.18,0-10.32c0-.08,0-.17,0-.25a.27.27,0,0,0-.09-.25" fill="#a192c9"/>
              <path d="M39.86,25.49c-1.12,1.83-2.24,3.64-3.31,5.5a.45.45,0,0,1-.17.21c0,.31,0,.63,0,.94h0C37,31.74,37.44,31,38,30.6s.95-.91,1.43-1.35A7.37,7.37,0,0,1,41,27.84a25.71,25.71,0,0,0-1.17-2.35" fill="#bcb0dd"/>
              <path d="M31.8,31.1A16.32,16.32,0,0,0,31,33.4c.08.15.23.12.37.13l2.8.14c.18,0,.37,0,.37.28V34l1-1c.21-.3.6-.32.68-.8C36,32,35.77,32,35.55,32a2,2,0,0,1-.82-.25c-.31.09-.52-.1-.75-.19a3.67,3.67,0,0,1-1.15-.22,4.37,4.37,0,0,0-1-.2" fill="#7d719f"/>
              <path d="M36.37,32.13h0l-.14,0c-.08.48-.47.5-.68.8a2.32,2.32,0,0,1-.29.73c-.6,1.65-1.18,3.3-1.78,4.95-.16.45-.3.91-.5,1.36a2.08,2.08,0,0,0-.17.75v0a4.17,4.17,0,0,0,1.05.28.17.17,0,0,1,0-.07A3.15,3.15,0,0,1,34.12,40c.19-.47.37-.94.53-1.41.44-1.24.88-2.49,1.3-3.73a.59.59,0,0,1,.23-.32l.11,0,.06,0a2.62,2.62,0,0,0,0-.28v-.93c0-.31,0-.62,0-.93l0-.17" fill="#6f638f"/>
              <path d="M35.45,21.28c-.33.77-.61,1.56-.89,2.35.18-.06.22,0,.22.15s0,.18,0,.26l0,7.67a2,2,0,0,0,.82.25,2.93,2.93,0,0,0,.07-.48l.06-9.9c0-.21,0-.36-.23-.3" fill="#998bc0"/>
              <path d="M30.49,34.58c-.62,1.62-1.22,3.23-1.84,4.84-.06.19-.07.33.11.31,0-.42.36-.5.56-.7.64-.65,1.3-1.29,1.95-1.91a1.26,1.26,0,0,1,.28-.19,9.43,9.43,0,0,1,1.2-1.24,4.35,4.35,0,0,0,.54-.59c0-.27-.21-.24-.37-.26l-2.15-.1c-.12,0-.23,0-.28-.16" fill="#887bad"/>
              <path d="M35.54,33l-1,1-.75.73a2.81,2.81,0,0,1-.34.93c-.51,1.45-1,2.9-1.55,4.34a1.56,1.56,0,0,0-.09.46v.06a3.74,3.74,0,0,0,1,.29v0A2.08,2.08,0,0,1,33,40c.2-.45.34-.91.5-1.36.6-1.65,1.18-3.3,1.78-4.95a2.32,2.32,0,0,0,.29-.73" fill="#736793"/>
              <path d="M33.81,25.75h0q-1.08,2.65-2,5.34a4.37,4.37,0,0,1,1,.2,3.67,3.67,0,0,0,1.15.22l0-5.39c0-.06,0-.14,0-.21s0-.23-.2-.17" fill="#887bad"/>
              <path d="M36.36,35.09v1.66c.76.35,1.53.68,2.28,1,.27.13.53.28.8.39.1,0,.2.1.2.25v.08a12.86,12.86,0,0,0,1-1,.25.25,0,0,0,0-.08.36.36,0,0,0-.22-.37l-4-1.94-.1,0" fill="#8276a6"/>
              <path d="M33.74,34.74l-.45.36a4.35,4.35,0,0,1-.54.59,9.43,9.43,0,0,0-1.2,1.24A9.17,9.17,0,0,1,31,38.57c-.1.31-.2.61-.32.9a1.21,1.21,0,0,0-.12.49.81.81,0,0,0,.05.27,3.86,3.86,0,0,0,1.12.3v-.06a1.56,1.56,0,0,1,.09-.46c.52-1.44,1-2.89,1.55-4.34a2.81,2.81,0,0,0,.34-.93" fill="#786c99"/>
              <path d="M34.56,23.63c-.27.71-.57,1.41-.77,2.13h0c.17-.06.2,0,.2.17s0,.15,0,.21l0,5.39c.23.09.44.28.75.19l0-7.67c0-.08,0-.18,0-.26s0-.21-.22-.15" fill="#9083b7"/>
              <path d="M36.43,32.28l0,0c0,.31,0,.62,0,.93a4.09,4.09,0,0,1,1.52.59c1.09.49,2.17,1,3.26,1.55l.79.4a.24.24,0,0,1,.17.26c.24-.12.37-.48.61-.59,0-.17-.1-.22-.21-.28-1.41-.66-2.83-1.3-4.23-2-.43-.22-1-.28-1.24-.81-.2,0-.38-.15-.61-.06" fill="#9889b9"/>
              <path d="M36.37,33.23v.93a3.55,3.55,0,0,1,1.23.48c1.2.56,2.4,1.15,3.59,1.71.13.06.26.12.26.33v0a4.88,4.88,0,0,0,.67-.69.24.24,0,0,0-.17-.26l-.79-.4c-1.09-.51-2.17-1.06-3.26-1.55a4.09,4.09,0,0,0-1.52-.59" fill="#9083b7"/>
              <path d="M36.36,34.16a2.62,2.62,0,0,1,0,.28c0,.21,0,.43,0,.65l.1,0,4,1.94a.36.36,0,0,1,.22.37.25.25,0,0,1,0,.08l.76-.74v0c0-.21-.13-.27-.26-.33-1.19-.56-2.39-1.15-3.59-1.71a3.55,3.55,0,0,0-1.23-.48" fill="#887bad"/>
              <path d="M41,27.84a7.37,7.37,0,0,0-1.57,1.41,9,9,0,0,1,.83.59c.73.68,1.61,1.09,2.31,1.81a.25.25,0,0,0,.28,0h0c-.56-1.35-1.22-2.6-1.88-3.84" fill="#b6a9db"/>
              <path d="M39.44,24.71c-.91,1.5-1.81,3-2.72,4.52-.1.16-.18.33-.33.4V31.2a.45.45,0,0,0,.17-.21c1.07-1.86,2.19-3.67,3.31-5.5a1.68,1.68,0,0,0-.42-.78" fill="#b6a9db"/>
              <path d="M37,32.34c.28.53.81.59,1.24.81,1.4.71,2.82,1.35,4.23,2,.11.06.2.11.21.28a3.29,3.29,0,0,0,.59-.59c-.14-.32-.44-.35-.69-.48-.57-.3-1.15-.57-1.74-.85-.1-.06-.26-.05-.25-.27-1.13-.3-2.27-.61-3.41-.9H37" fill="#998bc0"/>
              <path d="M31,33.4a5.16,5.16,0,0,0-.46,1.18c.05.15.16.16.28.16l2.15.1c.16,0,.35,0,.37.26l.45-.36.75-.73V34c0-.28-.19-.27-.37-.28l-2.8-.14c-.14,0-.29,0-.37-.13" fill="#8276a6"/>
              <path d="M31.55,36.93a1.26,1.26,0,0,0-.28.19c-.65.62-1.31,1.26-1.95,1.91-.2.2-.53.28-.56.7a10.84,10.84,0,0,0,1.88.5.81.81,0,0,1-.05-.27,1.21,1.21,0,0,1,.12-.49c.12-.29.22-.59.32-.9a9.17,9.17,0,0,0,.52-1.64" fill="#7d719f"/>
              <path d="M36.35,37.4v.93c.73.24,1.38.68,2.09,1,.07,0,.07.1.07.19v.08a2.79,2.79,0,0,0,.77-.73,2.5,2.5,0,0,0-1.05-.59,12.07,12.07,0,0,0-1.87-.85" fill="#786c99"/>
              <path d="M36.34,39.07v.22c0,.2,0,.4,0,.6,0,.5,0,1,.49,1.15l0,.19A9.18,9.18,0,0,0,38.05,40a.25.25,0,0,0-.15-.25,7,7,0,0,0-1.56-.69" fill="#6f638f"/>
              <path d="M36.35,36.75v.65a12.07,12.07,0,0,1,1.87.85,2.5,2.5,0,0,1,1.05.59c.1-.16.28-.15.36-.34v-.08c0-.15-.1-.2-.2-.25-.27-.11-.53-.26-.8-.39-.75-.35-1.52-.68-2.28-1" fill="#7d719f"/>
              <path d="M40.63,33.25c0,.22.15.21.25.27.59.28,1.17.55,1.74.85.25.13.55.16.69.48a5,5,0,0,0,.7-.68V34h0a5.59,5.59,0,0,1-1.88-.4,5.07,5.07,0,0,1-1-.2c-.16,0-.29-.13-.47-.09" fill="#a192c9"/>
              <path d="M36.34,38.33v.74a7,7,0,0,1,1.56.69.25.25,0,0,1,.15.25h0c.18-.07.28-.3.42-.43v-.08c0-.09,0-.17-.07-.19-.71-.29-1.36-.73-2.09-1" fill="#736793"/>
              <path d="M44,34v.22c.05,0,.12-.09.1-.17L44,34" fill="#b4a6da"/>
              <path d="M38,30.6c-.59.44-1.06,1.14-1.66,1.53l0,.17,0,0c.23-.09.41,0,.61.06h.18c1.14.29,2.28.6,3.41.9.18,0,.31.06.47.09a5.07,5.07,0,0,0,1,.2c0-.25-.23-.17-.35-.25A29.55,29.55,0,0,0,38,30.6" fill="#afa0d8"/>
            </g>
          </g>
        </g>
      </g>
    </g>
  </g>
</svg>
