<svg width="24" height="46" viewBox="0 0 24 46" fill="none" xmlns="http://www.w3.org/2000/svg">
<path d="M19.2813 45.9998C18.7879 46.0014 18.3003 45.8943 17.8545 45.6862C17.4086 45.4781 17.0158 45.1744 16.705 44.7974L0.751397 25.2992C0.265583 24.7178 0 23.9884 0 23.2357C0 22.483 0.265583 21.7536 0.751397 21.1721L17.2665 1.67396C17.8271 1.01032 18.6328 0.592978 19.5062 0.513751C20.3796 0.434524 21.2492 0.699901 21.9237 1.2515C22.5983 1.8031 23.0225 2.59573 23.103 3.45504C23.1835 4.31434 22.9138 5.16992 22.3531 5.83357L7.58864 23.2519L21.8577 40.6703C22.2616 41.1473 22.5181 41.7281 22.597 42.3441C22.6759 42.9601 22.5738 43.5854 22.3027 44.1461C22.0317 44.7067 21.6031 45.1793 21.0677 45.5078C20.5322 45.8363 19.9123 46.007 19.2813 45.9998Z" fill="#CDA4DC"/>
</svg>
