<svg width="26" height="52" viewBox="0 0 26 52" fill="none" xmlns="http://www.w3.org/2000/svg">
<g filter="url(#filter0_i_17_472)">
<path d="M21.4333 51.4558C20.8847 51.4576 20.3428 51.3385 19.8472 51.1072C19.3516 50.8759 18.9149 50.5383 18.5694 50.1192L0.835258 28.4449C0.295224 27.7986 0 26.9878 0 26.1511C0 25.3143 0.295224 24.5036 0.835258 23.8572L19.1935 2.18291C19.8168 1.4452 20.7123 0.981284 21.6832 0.893215C22.6541 0.805147 23.6208 1.10014 24.3706 1.7133C25.1204 2.32646 25.5919 3.20756 25.6814 4.16277C25.7709 5.11798 25.4711 6.06905 24.8479 6.80676L8.43559 26.1691L24.2971 45.5315C24.7461 46.0617 25.0313 46.7074 25.119 47.3921C25.2067 48.0769 25.0932 48.772 24.7919 49.3952C24.4906 50.0184 24.0142 50.5437 23.419 50.9089C22.8237 51.2741 22.1347 51.4639 21.4333 51.4558Z" fill="#4FC1E4"/>
</g>
<defs>
<filter id="filter0_i_17_472" x="0" y="0.87793" width="25.697" height="50.5781" filterUnits="userSpaceOnUse" color-interpolation-filters="sRGB">
<feFlood flood-opacity="0" result="BackgroundImageFix"/>
<feBlend mode="normal" in="SourceGraphic" in2="BackgroundImageFix" result="shape"/>
<feColorMatrix in="SourceAlpha" type="matrix" values="0 0 0 0 0 0 0 0 0 0 0 0 0 0 0 0 0 0 127 0" result="hardAlpha"/>
<feMorphology radius="15.2135" operator="erode" in="SourceAlpha" result="effect1_innerShadow_17_472"/>
<feOffset/>
<feGaussianBlur stdDeviation="4.09877"/>
<feComposite in2="hardAlpha" operator="arithmetic" k2="-1" k3="1"/>
<feColorMatrix type="matrix" values="0 0 0 0 0 0 0 0 0 0 0 0 0 0 0 0 0 0 0.15 0"/>
<feBlend mode="normal" in2="shape" result="effect1_innerShadow_17_472"/>
</filter>
</defs>
</svg>
